<?xml version="1.0" encoding="UTF-8" standalone="no"?>
<svg width="16px" height="16px" viewBox="0 0 16 16" version="1.1" xmlns="http://www.w3.org/2000/svg" xmlns:xlink="http://www.w3.org/1999/xlink">
    <!-- Generator: Sketch 3.6.1 (26313) - http://www.bohemiancoding.com/sketch -->
    <title>abrocharse_cinturon</title>
    <desc>Created with Sketch.</desc>
    <defs></defs>
    <g id="Page-1" stroke="none" stroke-width="1" fill="none" fill-rule="evenodd">
        <g id="abrocharse_cinturon" fill="#000000">
            <path d="M9.45926,11.3444 C10.06982,11.69756 10.77326,11.93984 11.68874,11.97332 L11.68874,8.34344 C10.77326,8.3798 10.06874,8.63036 9.45494,8.98784 C9.33218,9.67184 9.33218,10.55924 9.45926,11.3444 L9.45926,11.3444 Z M8.92106,11.89772 L8.78066,11.81096 C8.57114,10.70072 8.54486,9.62324 8.78534,8.51588 C10.05362,7.73 10.94498,7.56404 12.44006,7.5986 L12.44006,8.3222 L13.16186,8.3222 L13.16186,11.996 L12.44006,11.996 L12.44006,12.71852 C11.0879,12.74876 10.08134,12.617 8.92106,11.89772 L8.92106,11.89772 Z M4.29254,9.03788 L5.05394,9.03788 L5.05394,11.24684 L4.29254,11.24684 L4.29254,11.92868 L5.57486,12.0536 L5.57486,11.21804 L7.11098,11.21804 C7.25354,10.5344 7.25354,9.79208 7.10954,9.09332 L5.5691,9.09332 L5.58098,8.25848 L4.29254,8.38268 L4.29254,9.03788 L4.29254,9.03788 Z M2.83814,8.34776 L3.54122,8.34776 L3.54158,7.70156 L5.6465,7.49816 C6.01154,7.49816 6.32582,7.79408 6.32582,8.15912 L6.32582,8.342 L7.69562,8.342 C8.0549,9.692 8.06102,10.62116 7.69382,11.96972 L6.32582,11.96972 L6.32582,12.15296 C6.32582,12.51764 6.01154,12.8132 5.6465,12.8132 L3.54086,12.61088 L3.54086,11.96468 L2.83814,11.96468 L2.83814,8.34776 L2.83814,8.34776 Z M5.78618,10.51496 L6.5213,10.51496 L6.5213,9.77912 L5.78618,9.77912 L5.78618,10.51496 Z M3.58298,5.39684 L3.56462,5.39504 L3.56462,4.61852 L3.58298,4.61708 C4.14386,4.56128 4.78034,4.53212 5.42366,4.53212 C5.59286,4.53212 5.76314,4.53356 5.93306,4.5386 L4.92794,3.1868 L5.92622,3.1868 L7.40294,5.0066 L5.92658,6.82712 L4.92794,6.82712 L5.93306,5.47496 C5.7635,5.47964 5.59358,5.4818 5.42582,5.4818 C4.78034,5.4818 4.14422,5.45192 3.58298,5.39684 L3.58298,5.39684 Z M12.4073,5.39684 C11.8457,5.45192 11.20994,5.4818 10.56446,5.4818 C10.3967,5.4818 10.22678,5.47964 10.05686,5.47496 L11.06198,6.82712 L10.0637,6.82712 L8.5877,5.0066 L10.06406,3.1868 L11.06198,3.1868 L10.05686,4.5386 C10.22714,4.53356 10.39742,4.53212 10.56626,4.53212 C11.20994,4.53212 11.84606,4.56128 12.4073,4.61708 L12.4253,4.61852 L12.4253,5.39504 L12.4073,5.39684 L12.4073,5.39684 Z"></path>
        </g>
    </g>
</svg>