<?xml version="1.0" encoding="UTF-8" standalone="no"?>
<svg width="16px" height="16px" viewBox="0 0 16 16" version="1.1" xmlns="http://www.w3.org/2000/svg" xmlns:xlink="http://www.w3.org/1999/xlink">
    <!-- Generator: Sketch 3.6.1 (26313) - http://www.bohemiancoding.com/sketch -->
    <title>ajustes</title>
    <desc>Created with Sketch.</desc>
    <defs></defs>
    <g id="Page-1" stroke="none" stroke-width="1" fill="none" fill-rule="evenodd">
        <g id="ajustes" fill="#000000">
            <path d="M11.73014,9.0818 L13.24646,8.72648 L13.24646,7.27388 L11.73014,6.91712 C11.6495,6.63992 11.54078,6.37424 11.40362,6.1262 L12.2237,4.80392 L11.19698,3.77684 L9.87398,4.5962 C9.62558,4.4594 9.36026,4.35032 9.08234,4.27004 L8.7263,2.75372 L7.27406,2.75372 L6.91802,4.27004 C6.6401,4.35032 6.37478,4.4594 6.12638,4.59656 L4.80446,3.77684 L3.77702,4.8032 L4.59674,6.1262 C4.45958,6.3746 4.35086,6.63992 4.27058,6.91748 L2.7539,7.27352 L2.75354,8.72576 L4.27058,9.08252 C4.35122,9.36008 4.45994,9.62576 4.59674,9.8738 L3.77702,11.19608 L4.80374,12.22316 L6.12674,11.4038 C6.37514,11.54096 6.64046,11.64968 6.91802,11.72996 L7.27406,13.24628 L8.7263,13.24628 L9.08234,11.72996 C9.36026,11.64968 9.62594,11.5406 9.8747,11.40344 L11.19662,12.22352 L12.22334,11.19608 L11.40398,9.87308 C11.54114,9.62504 11.64986,9.35936 11.73014,9.0818 M8.00018,10.24604 C6.75962,10.24604 5.75378,9.2402 5.75378,8 C5.75378,6.7598 6.75962,5.75396 8.00018,5.75396 C9.24074,5.75396 10.24622,6.7598 10.24622,8 C10.24622,9.2402 9.24074,10.24604 8.00018,10.24604"></path>
        </g>
    </g>
</svg>