<?xml version="1.0" encoding="UTF-8" standalone="no"?>
<svg width="16px" height="16px" viewBox="0 0 16 16" version="1.1" xmlns="http://www.w3.org/2000/svg" xmlns:xlink="http://www.w3.org/1999/xlink">
    <!-- Generator: Sketch 3.6.1 (26313) - http://www.bohemiancoding.com/sketch -->
    <title>alertas_2</title>
    <desc>Created with Sketch.</desc>
    <defs></defs>
    <g id="Page-1" stroke="none" stroke-width="1" fill="none" fill-rule="evenodd">
        <g id="alertas_2" fill="#000000">
            <path d="M8,2.84642 C5.15384,2.84642 2.8466,5.15366 2.8466,8.00018 C2.8466,10.84634 5.15384,13.15358 8,13.15358 C10.8458,13.15358 13.1534,10.84634 13.1534,8.00018 C13.1534,5.15366 10.8458,2.84642 8,2.84642 Z M8.01332,9.40526 L7.96256,9.40526 C7.60796,9.40526 7.1918,9.49994 7.1918,10.0673 L7.1918,10.09538 C7.1918,10.67138 7.60796,10.77542 7.96256,10.77542 L8.01332,10.77542 C8.369,10.77542 8.78516,10.67138 8.78516,10.09538 L8.78516,10.0673 C8.78516,9.49994 8.369,9.40526 8.01332,9.40526 Z M7.30268,8.64566 L8.67356,8.64566 L8.67356,5.22386 L7.30268,5.22386 L7.30268,8.64566 Z M8,11.88242 C5.85908,11.88242 4.11812,10.1411 4.11812,8.00018 C4.11812,5.85962 5.85908,4.11866 8,4.11866 C10.1402,4.11866 11.88224,5.85962 11.88224,8.00018 C11.88224,10.1411 10.1402,11.88242 8,11.88242 Z"></path>
        </g>
    </g>
</svg>