<?xml version="1.0" encoding="UTF-8" standalone="no"?>
<svg width="16px" height="16px" viewBox="0 0 16 16" version="1.1" xmlns="http://www.w3.org/2000/svg" xmlns:xlink="http://www.w3.org/1999/xlink">
    <!-- Generator: Sketch 3.6.1 (26313) - http://www.bohemiancoding.com/sketch -->
    <title>alerta_grave</title>
    <desc>Created with Sketch.</desc>
    <defs></defs>
    <g id="Page-1" stroke="none" stroke-width="1" fill="none" fill-rule="evenodd">
        <g id="alerta_grave" fill="#000000">
            <path d="M8.65396818,10.77776 L8.65396818,10.80296 C8.65396818,11.312 8.31160818,11.40416 8.02000818,11.40416 L7.97752818,11.40416 C7.68592818,11.40416 7.34356818,11.312 7.34356818,10.80296 L7.34356818,10.77776 C7.34356818,10.277 7.68592818,10.19348 7.97752818,10.19348 L8.02000818,10.19348 C8.31160818,10.19348 8.65396818,10.277 8.65396818,10.77776 L8.65396818,10.77776 Z M7.41268818,9.58256 L8.58520818,9.58256 L8.58520818,6.64856 L7.41268818,6.64856 L7.41268818,9.58256 Z M13.1744882,12.57164 C13.1071682,12.66884 13.0193282,12.73508 12.9329282,12.7664 L12.9286082,12.7736 L12.9286082,12.76712 C12.9271682,12.76712 12.9257282,12.76712 12.9250082,12.76784 L12.9214082,12.7736 L12.9163682,12.7736 L12.9214082,12.77432 C12.9214082,12.77432 12.8962082,12.77648 12.8584082,12.78008 C12.8418482,12.78116 12.8256482,12.78548 12.8098082,12.78404 C12.3641282,12.82148 10.5738482,12.95864 8.00128818,12.95864 C5.42836818,12.95864 3.63844818,12.82148 3.19276818,12.78404 C3.17692818,12.78548 3.16036818,12.78116 3.14416818,12.78008 C3.10600818,12.77648 3.08152818,12.77432 3.08152818,12.77432 L3.08584818,12.7736 L3.08152818,12.7736 L3.07756818,12.76784 C2.98864818,12.7376 2.89756818,12.67172 2.82808818,12.57164 C2.72404818,12.42332 2.70424818,12.25484 2.76292818,12.1472 C3.02248818,11.20004 7.29676818,3.35636 7.65316818,3.16376 L7.66540818,3.14036 L7.68016818,3.14036 C7.76008818,3.0806 7.87312818,3.04136 8.00200818,3.04136 C8.13124818,3.04136 8.24428818,3.0806 8.32384818,3.14036 L8.33212818,3.14036 L8.34148818,3.158 C8.34220818,3.15872 8.34256818,3.15872 8.34292818,3.15944 L8.34508818,3.15368 C8.61580818,3.15368 13.2684482,11.70332 13.2684482,12.21596 L13.2619682,12.21452 C13.2842882,12.31856 13.2590882,12.4514 13.1744882,12.57164 L13.1744882,12.57164 Z M7.99912818,4.12136 L3.71152818,12.0176 L12.2906882,12.0176 L7.99912818,4.12136 L7.99912818,4.12136 Z"></path>
        </g>
    </g>
</svg>