<?xml version="1.0" encoding="UTF-8" standalone="no"?>
<svg width="16px" height="16px" viewBox="0 0 16 16" version="1.1" xmlns="http://www.w3.org/2000/svg" xmlns:xlink="http://www.w3.org/1999/xlink">
    <!-- Generator: Sketch 3.6.1 (26313) - http://www.bohemiancoding.com/sketch -->
    <title>alertas</title>
    <desc>Created with Sketch.</desc>
    <defs></defs>
    <g id="Page-1" stroke="none" stroke-width="1" fill="none" fill-rule="evenodd">
        <g id="alertas" fill="#000000">
            <path d="M7.2179,8.70884 L8.71154,8.70884 L8.71154,4.97024 L7.2179,4.97024 L7.2179,8.70884 Z M8.79938,10.23164 C8.79938,9.59444 8.36342,9.48716 7.99154,9.48716 L7.93754,9.48716 C7.56566,9.48716 7.1297,9.59444 7.1297,10.23164 L7.1297,10.26368 C7.1297,10.91204 7.56566,11.0294 7.93754,11.0294 L7.99154,11.0294 C8.36342,11.0294 8.79938,10.91204 8.79938,10.26368 L8.79938,10.23164 L8.79938,10.23164 Z M13.24934,8 C13.24934,10.89944 10.8989,13.24916 8.00018,13.24916 C5.1011,13.24916 2.75066,10.89944 2.75066,8 C2.75066,5.10092 5.1011,2.75084 8.00018,2.75084 C10.8989,2.75084 13.24934,5.10092 13.24934,8 L13.24934,8 Z"></path>
        </g>
    </g>
</svg>