<?xml version="1.0" encoding="UTF-8" standalone="no"?>
<svg width="16px" height="16px" viewBox="0 0 16 16" version="1.1" xmlns="http://www.w3.org/2000/svg" xmlns:xlink="http://www.w3.org/1999/xlink">
    <!-- Generator: Sketch 3.6.1 (26313) - http://www.bohemiancoding.com/sketch -->
    <title>alquiler_de_coches</title>
    <desc>Created with Sketch.</desc>
    <defs></defs>
    <g id="Page-1" stroke="none" stroke-width="1" fill="none" fill-rule="evenodd">
        <g id="alquiler_de_coches" fill="#000000">
            <path d="M13.2025716,8.95688 C13.1474916,8.5274 13.0132116,7.8902 12.8191716,7.51472 C12.0566916,6.71984 10.4572116,5.46344 9.61121164,4.97132 C8.49521164,4.32188 7.09265164,4.29092 7.09265164,4.29092 L3.79361164,4.29092 C3.33065164,5.318 3.04913164,6.71552 3.04913164,7.5212 C3.04913164,7.81316 3.08693164,8.09684 3.15569164,8.3654 C2.91413164,8.69048 2.76941164,9.10196 2.76941164,9.55016 C2.76941164,9.69524 2.78489164,9.83528 2.81333164,9.97136 C3.01061164,10.06208 3.22661164,10.11572 3.45269164,10.12472 C3.43397164,10.21364 3.42353164,10.30616 3.42353164,10.40156 C3.42353164,11.12372 4.00889164,11.70908 4.73069164,11.70908 C5.45285164,11.70908 6.03821164,11.12372 6.03821164,10.40156 L9.96113164,10.40156 C9.96113164,11.12372 10.5464916,11.70908 11.2690116,11.70908 C11.9908116,11.70908 12.5761716,11.12372 12.5761716,10.40156 C12.5761716,10.3382 12.5707716,10.27736 12.5621316,10.21688 C12.7792116,10.15064 13.0042116,10.07792 13.1680116,10.01528 C13.2356916,9.68336 13.2504516,9.32696 13.2025716,8.95688 M9.29117164,5.6222 C9.85637164,5.95196 10.7768916,6.64748 11.5048116,7.27496 C11.3892516,7.27604 11.2722516,7.28 11.1548916,7.27712 C8.71373164,7.21376 6.36689164,6.95996 5.10869164,6.60068 C5.11733164,6.39512 5.13245164,6.14996 5.16197164,5.94512 C5.20841164,5.62436 5.31965164,5.23808 5.37869164,5.04872 L7.15673164,5.04872 C7.24673164,5.05124 8.40089164,5.10488 9.29117164,5.6222 M4.73069164,10.99916 C4.40129164,10.99916 4.13489164,10.7324 4.13489164,10.40372 C4.13489164,10.07432 4.40129164,9.80684 4.73069164,9.80684 C5.06009164,9.80684 5.32649164,10.07432 5.32649164,10.40372 C5.32649164,10.7324 5.06009164,10.99916 4.73069164,10.99916 M11.2700916,10.99916 C10.9406916,10.99916 10.6742916,10.7324 10.6742916,10.40372 C10.6742916,10.07432 10.9406916,9.80684 11.2700916,9.80684 C11.5991316,9.80684 11.8658916,10.07432 11.8658916,10.40372 C11.8658916,10.7324 11.5991316,10.99916 11.2700916,10.99916"></path>
        </g>
    </g>
</svg>