<?xml version="1.0" encoding="UTF-8" standalone="no"?>
<svg width="16px" height="16px" viewBox="0 0 16 16" version="1.1" xmlns="http://www.w3.org/2000/svg" xmlns:xlink="http://www.w3.org/1999/xlink">
    <!-- Generator: Sketch 3.6.1 (26313) - http://www.bohemiancoding.com/sketch -->
    <title>amaraje</title>
    <desc>Created with Sketch.</desc>
    <defs></defs>
    <g id="Page-1" stroke="none" stroke-width="1" fill="none" fill-rule="evenodd">
        <g id="amaraje" fill="#000000">
            <path d="M12.89438,12.0167 L13.24142,12.1985 L13.24142,12.8519 C12.95954,12.73634 12.4955,12.57146 12.1445,12.57146 C11.58794,12.57146 11.23874,12.91778 10.7477,12.91778 C10.25774,12.91778 9.95714,12.57146 9.3995,12.57146 C8.84438,12.57146 8.49914,12.91742 8.00666,12.91742 C7.52066,12.91742 7.21898,12.57146 6.66386,12.57146 C6.10694,12.57146 5.7581,12.91778 5.26634,12.91778 C4.77674,12.91778 4.47614,12.57146 3.91958,12.57146 C3.57398,12.57146 3.06782,12.74642 2.76938,12.86378 L2.76938,12.17942 L3.13406,12.02246 C3.37382,11.9249 3.61934,11.82374 3.91958,11.82374 C4.47614,11.82374 4.77674,12.17114 5.26634,12.17114 C5.7581,12.17114 6.10694,11.82374 6.66386,11.82374 C7.21898,11.82374 7.52066,12.17042 8.00666,12.17042 C8.49914,12.17042 8.84438,11.82374 9.3995,11.82374 C9.95714,11.82374 10.25774,12.17114 10.7477,12.17114 C11.23874,12.17114 11.58794,11.82374 12.1445,11.82374 C12.44402,11.82374 12.67298,11.9249 12.89438,12.0167 M12.89438,10.51262 L13.24142,10.69478 L13.24142,11.36978 C12.95954,11.25422 12.4955,11.06702 12.1445,11.06702 C11.58794,11.06702 11.23874,11.41334 10.7477,11.41334 C10.25774,11.41334 9.95714,11.06702 9.3995,11.06702 C8.84438,11.06702 8.49914,11.41262 8.00666,11.41262 C7.52066,11.41262 7.21898,11.06702 6.66386,11.06702 C6.10694,11.06702 5.7581,11.41334 5.26634,11.41334 C4.77674,11.41334 4.47614,11.06702 3.91958,11.06702 C3.57398,11.06702 3.06782,11.2427 2.76938,11.3597 L2.76938,10.67462 L3.13406,10.51838 C3.37382,10.41974 3.61934,10.31966 3.91958,10.31966 C4.47614,10.31966 4.77674,10.66598 5.26634,10.66598 C5.7581,10.66598 6.10694,10.31966 6.66386,10.31966 C7.21898,10.31966 7.52066,10.66562 8.00666,10.66562 C8.49914,10.66562 8.84438,10.31966 9.3995,10.31966 C9.95714,10.31966 10.25774,10.66598 10.7477,10.66598 C11.23874,10.66598 11.58794,10.31966 12.1445,10.31966 C12.44402,10.31966 12.67298,10.41974 12.89438,10.51262 M13.21046,8.99558 C13.0373,9.10034 12.51134,9.17522 11.84174,9.11618 L7.12898,8.45414 C6.73154,8.39762 3.54554,7.2989 3.54554,7.2989 C3.54554,7.2989 2.94038,5.44382 2.75318,4.91498 L3.38858,4.98626 C4.08662,5.59538 4.60214,6.10478 5.20694,6.74198 C5.7545,6.80858 6.35534,6.8525 6.95942,6.9353 L5.76998,3.08222 L6.45002,3.08222 C6.45002,3.08222 7.27262,3.93614 8.12942,5.16086 C9.0197,6.4349 9.5039,7.28774 9.57698,7.26902 C9.66554,7.29314 11.40902,7.57826 11.75174,7.65314 C12.3983,7.79318 12.88502,8.22014 13.24682,8.7389 L13.21046,8.99558"></path>
        </g>
    </g>
</svg>