<?xml version="1.0" encoding="UTF-8" standalone="no"?>
<svg width="16px" height="16px" viewBox="0 0 16 16" version="1.1" xmlns="http://www.w3.org/2000/svg" xmlns:xlink="http://www.w3.org/1999/xlink">
    <!-- Generator: Sketch 3.6.1 (26313) - http://www.bohemiancoding.com/sketch -->
    <title>areas_privadas_de_trabajo</title>
    <desc>Created with Sketch.</desc>
    <defs></defs>
    <g id="Page-1" stroke="none" stroke-width="1" fill="none" fill-rule="evenodd">
        <g id="areas_privadas_de_trabajo" fill="#000000">
            <path d="M13.07708,6.58898 L13.07708,10.7945 L8.87264,10.7945 L8.03168,11.6333 L13.91804,11.6333 L13.91804,5.74838 L13.07708,6.58898 Z M4.53032,7.9901 C5.61716,7.9901 5.94836,7.2809 5.94836,6.1793 C5.94836,5.07842 5.61716,4.3667 4.53032,4.3667 C3.44384,4.3667 3.11228,5.07842 3.11228,6.1793 C3.11228,7.2809 3.44384,7.9901 4.53032,7.9901 Z M8.87084,9.3257 L9.79676,9.3761 L10.17368,7.7813 L9.76616,7.3997 C8.91188,8.0117 7.36172,9.1817 6.55784,9.7901 C6.4934,9.5453 6.42716,9.3041 6.35696,9.0665 C6.35696,9.0665 5.858,8.5841 4.53032,8.5841 C3.18572,8.5841 3.07052,8.6993 2.70332,9.0665 C2.36672,9.9233 2.25224,10.7729 2.08196,11.6333 L6.97868,11.6333 C6.93512,11.4173 6.88904,11.1941 6.84116,10.9709 L8.87084,9.3257 Z"></path>
        </g>
    </g>
</svg>