<?xml version="1.0" encoding="UTF-8" standalone="no"?>
<svg width="16px" height="16px" viewBox="0 0 16 16" version="1.1" xmlns="http://www.w3.org/2000/svg" xmlns:xlink="http://www.w3.org/1999/xlink">
    <!-- Generator: Sketch 3.6.1 (26313) - http://www.bohemiancoding.com/sketch -->
    <title>articulos_prohibidos</title>
    <desc>Created with Sketch.</desc>
    <defs></defs>
    <g id="Page-1" stroke="none" stroke-width="1" fill="none" fill-rule="evenodd">
        <g id="articulos_prohibidos" fill="#000000">
            <path d="M8.00018,3.0932 C5.33258,3.0932 3.16214,5.2928 3.16214,8 C3.16214,10.7072 5.33258,12.9068 8.00018,12.9068 C10.66778,12.9068 12.83786,10.7072 12.83786,8 C12.83786,5.2928 10.66778,3.0932 8.00018,3.0932 L8.00018,3.0932 Z M8.00018,14.012 C4.7231,14.012 2.05694,11.3156 2.05694,8 C2.05694,4.6844 4.7231,1.988 8.00018,1.988 C11.27726,1.988 13.94306,4.6844 13.94306,8 C13.94306,11.3156 11.27726,14.012 8.00018,14.012 Z M4.77674,8.738 L11.22326,8.738 L11.22326,7.262 L4.77674,7.262 L4.77674,8.738 Z M4.22414,9.2888 L11.77586,9.2888 L11.77586,6.7112 L4.22414,6.7112 L4.22414,9.2888 Z"></path>
        </g>
    </g>
</svg>