<?xml version="1.0" encoding="UTF-8" standalone="no"?>
<svg width="16px" height="16px" viewBox="0 0 16 16" version="1.1" xmlns="http://www.w3.org/2000/svg" xmlns:xlink="http://www.w3.org/1999/xlink">
    <!-- Generator: Sketch 3.6.1 (26313) - http://www.bohemiancoding.com/sketch -->
    <title>aseos</title>
    <desc>Created with Sketch.</desc>
    <defs></defs>
    <g id="Page-1" stroke="none" stroke-width="1" fill="none" fill-rule="evenodd">
        <g id="aseos" fill="#000000">
            <path d="M10.19834,3.76028 C10.19834,3.1634 10.3823,2.77748 10.9853,2.77748 C11.58794,2.77748 11.77154,3.1634 11.77154,3.76028 C11.77154,4.35788 11.58794,4.7438 10.9853,4.7438 C10.3823,4.7438 10.19834,4.35788 10.19834,3.76028 L10.19834,3.76028 Z M13.20758,10.71476 C13.12622,8.74556 12.48542,7.98956 12.48542,7.98956 L12.48542,7.25516 C12.48542,5.92748 12.35294,5.462 12.35294,5.462 L12.34682,5.45336 C12.13478,5.31548 11.63942,5.20316 11.03282,5.20316 L10.89422,5.2046 C10.2365,5.2046 9.60398,5.46128 9.60398,5.46128 C9.60398,5.46128 9.50102,5.9138 9.4985,7.25516 L9.4985,7.98956 C9.4985,7.98956 8.83106,8.75636 8.75006,10.72916 L9.8531,10.91276 C9.98882,11.85596 10.1231,12.75596 10.1771,13.23476 L11.78054,13.23476 C11.83418,12.75596 11.97422,11.85596 12.11606,10.90916 L13.20758,10.71476 L13.20758,10.71476 Z M4.72706,4.69772 C5.31926,4.69772 5.49998,4.31792 5.49998,3.73148 C5.49998,3.14432 5.31926,2.76524 4.72706,2.76524 C4.13486,2.76524 3.95414,3.14432 3.95414,3.73148 C3.95414,4.31792 4.13486,4.69772 4.72706,4.69772 L4.72706,4.69772 Z M6.1667,5.4548 C6.16634,5.4548 6.16598,5.4548 6.16526,5.45408 C6.1649,5.45336 6.1649,5.45192 6.16454,5.4512 L6.16022,5.4512 C5.9381,5.31368 5.32394,5.22548 4.78394,5.20172 L4.72706,5.20244 L4.6385,5.20244 C4.11614,5.22908 3.51206,5.31548 3.29426,5.4512 L3.28922,5.4512 C3.28922,5.45192 3.2885,5.45336 3.28814,5.4548 L3.28706,5.4548 L3.28706,5.4584 C3.04694,6.38648 2.87774,7.37396 2.79242,9.33596 L3.47858,9.96236 C3.54014,11.08556 3.7637,12.17276 3.88718,13.21316 L5.56694,13.21316 C5.69078,12.17276 5.91398,11.08556 5.97554,9.96236 L6.66134,9.33596 C6.57638,7.37396 6.40682,6.38648 6.1667,5.45984 L6.1667,5.4548 L6.1667,5.4548 Z M7.25894,13.23116 L8.00558,13.23116 L8.00558,2.78036 L7.25894,2.78036 L7.25894,13.23116 Z"></path>
        </g>
    </g>
</svg>