<?xml version="1.0" encoding="UTF-8" standalone="no"?>
<svg width="16px" height="16px" viewBox="0 0 16 16" version="1.1" xmlns="http://www.w3.org/2000/svg" xmlns:xlink="http://www.w3.org/1999/xlink">
    <!-- Generator: Sketch 3.6.1 (26313) - http://www.bohemiancoding.com/sketch -->
    <title>asiento</title>
    <desc>Created with Sketch.</desc>
    <defs></defs>
    <g id="Page-1" stroke="none" stroke-width="1" fill="none" fill-rule="evenodd">
        <g id="asiento" fill="#000000">
            <path d="M5.98526,4.29420366 C6.70922,4.14480366 6.84026,3.66276366 6.70238,2.98812366 C6.56342,2.31348366 6.25346,1.92216366 5.5295,2.07084366 C4.80518,2.21880366 4.67378,2.70084366 4.81238,3.37656366 C4.95134,4.05048366 5.2613,4.44144366 5.98526,4.29420366 Z M5.39594,4.93788366 L6.65594,8.73948366 L6.6671,8.77296366 L6.6707,8.77404366 C6.78698,9.07140366 7.18586,9.74460366 7.48718,9.74604366 L12.27086,9.25212366 L12.4919,8.28588366 L9.38762,8.07888366 L9.39302,8.07168366 C8.55926,5.92176366 7.11062,4.67544366 7.11062,4.67544366 L7.09982,4.66968366 C6.7985,4.60056366 6.17426,4.67400366 5.45966,4.91556366 L5.39594,4.93788366 Z M6.52922,10.4278837 L4.43582,4.64772366 L4.43582,4.64808366 L3.5081,4.64808366 C3.5081,4.64808366 4.44446,8.56920366 4.84046,9.86340366 C5.23502,11.1572437 6.35246,13.9605637 6.35246,13.9605637 L10.90538,13.9605637 C10.90538,13.9605637 11.20598,13.3654837 11.6117,12.0237637 C12.0185,10.6798837 12.19274,9.70464366 12.19274,9.70464366 L6.52922,10.4278837 Z"></path>
        </g>
    </g>
</svg>