<?xml version="1.0" encoding="UTF-8" standalone="no"?>
<svg width="16px" height="16px" viewBox="0 0 16 16" version="1.1" xmlns="http://www.w3.org/2000/svg" xmlns:xlink="http://www.w3.org/1999/xlink">
    <!-- Generator: Sketch 3.6.1 (26313) - http://www.bohemiancoding.com/sketch -->
    <title>atencion_telefonica</title>
    <desc>Created with Sketch.</desc>
    <defs></defs>
    <g id="Page-1" stroke="none" stroke-width="1" fill="none" fill-rule="evenodd">
        <g id="atencion_telefonica" fill="#000000">
            <path d="M10.9691,8.85842 C10.9691,11.06522 10.28078,12.49334 8.0225,12.49334 C6.87842,12.49334 6.13718,12.12722 5.6843,11.47814 L5.62418,11.38706 C5.47694,11.11994 5.3711,10.86506 5.31134,10.62314 C5.03702,10.52702 4.79474,10.40498 4.58666,10.25234 C4.2587,10.03022 4.01102,9.74942 3.86198,9.40058 C3.23882,9.2105 2.78594,8.6345 2.78594,7.95338 C2.78594,7.23482 3.28958,6.6329 3.96566,6.47846 C4.46138,4.68926 5.66666,3.50666 8.03366,3.50666 C10.43702,3.50666 11.62574,4.69394 12.10886,6.4979 C12.74678,6.6779 13.21406,7.26182 13.21406,7.95338 C13.21406,8.78894 12.53222,9.46754 11.69126,9.46754 L11.6441,9.46754 L11.6441,8.93006 C11.6441,5.9741 10.76786,4.24538 8.03366,4.24538 C5.61914,4.24538 4.67414,5.6015 4.46498,7.87922 L4.46354,8.44298 C4.47866,8.80082 4.5593,9.09926 4.72382,9.34118 C5.11514,9.83906 5.96618,10.14182 7.41914,10.18322 C7.53938,9.93302 7.79498,9.76166 8.0909,9.76166 C8.50274,9.76166 8.83646,10.0961 8.83646,10.50794 C8.83646,10.55546 8.83178,10.60226 8.82314,10.64798 L9.4787,10.65374 C9.48374,10.6055 9.48626,10.55726 9.48626,10.50794 C9.48626,9.73682 8.86166,9.11222 8.0909,9.11222 C7.7057,9.11222 7.35794,9.26774 7.10594,9.51938 C5.24798,9.4067 5.09786,8.84186 5.11262,8.49662 C5.10578,8.38898 5.1065,8.2205 5.11622,7.99046 C5.29298,6.23546 6.07274,5.0237 8.0225,5.0237 C10.28078,5.0237 10.9691,6.64802 10.9691,8.85842"></path>
        </g>
    </g>
</svg>