<?xml version="1.0" encoding="UTF-8" standalone="no"?>
<svg width="16px" height="16px" viewBox="0 0 16 16" version="1.1" xmlns="http://www.w3.org/2000/svg" xmlns:xlink="http://www.w3.org/1999/xlink">
    <!-- Generator: Sketch 3.6.1 (26313) - http://www.bohemiancoding.com/sketch -->
    <title>aterrizaje</title>
    <desc>Created with Sketch.</desc>
    <defs></defs>
    <g id="Page-1" stroke="none" stroke-width="1" fill="none" fill-rule="evenodd">
        <g id="aterrizaje" fill="#000000">
            <path d="M13.19462,9.7469 C13.02218,9.8513 12.49802,9.92582 11.83094,9.86714 L7.1369,9.20726 C6.74198,9.15146 3.56786,8.0567 3.56786,8.0567 C3.56786,8.0567 2.96558,6.20882 2.7791,5.6825 L3.41162,5.75234 C4.10714,6.36002 4.62014,6.86726 5.22278,7.50194 C5.76854,7.56782 6.36722,7.6121 6.96842,7.69454 L5.78366,3.85658 L6.46046,3.85658 C6.46046,3.85658 7.28018,4.70654 8.13338,5.9273 C9.02042,7.19594 9.50318,8.04554 9.57518,8.02682 C9.66338,8.05058 11.40002,8.33462 11.74094,8.40914 C12.38534,8.54882 12.87026,8.97398 13.23062,9.49094 L13.19462,9.7469 L13.19462,9.7469 Z M8.72378,10.29266 C8.69498,10.06298 8.85842,9.85526 9.08774,9.82646 C9.31634,9.79838 9.5255,9.96146 9.55358,10.19042 C9.58166,10.41974 9.41894,10.62782 9.18962,10.65662 C8.9603,10.68434 8.75186,10.52162 8.72378,10.29266 L8.72378,10.29266 Z M7.5221,10.12598 C7.49366,9.8963 7.65674,9.68786 7.8857,9.66014 C8.11538,9.63134 8.32382,9.79478 8.35154,10.02374 C8.37998,10.2527 8.2169,10.4615 7.98794,10.48958 C7.75862,10.51802 7.55018,10.35458 7.5221,10.12598 L7.5221,10.12598 Z M2.76938,12.14342 L13.2281,12.14342 L13.2281,11.3939 L2.76938,11.3939 L2.76938,12.14342 Z"></path>
        </g>
    </g>
</svg>