<?xml version="1.0" encoding="UTF-8" standalone="no"?>
<svg width="16px" height="16px" viewBox="0 0 16 16" version="1.1" xmlns="http://www.w3.org/2000/svg" xmlns:xlink="http://www.w3.org/1999/xlink">
    <!-- Generator: Sketch 3.6.1 (26313) - http://www.bohemiancoding.com/sketch -->
    <title>aterrizaje_forzoso</title>
    <desc>Created with Sketch.</desc>
    <defs></defs>
    <g id="Page-1" stroke="none" stroke-width="1" fill="none" fill-rule="evenodd">
        <g id="aterrizaje_forzoso" fill="#000000">
            <path d="M13.16726,8.98838 C12.99518,9.09206 12.47498,9.16622 11.81078,9.1079 L7.14446,8.45198 C6.7517,8.39618 3.59594,7.3079 3.59594,7.3079 C3.59594,7.3079 2.99726,5.47082 2.8115,4.94774 L3.44042,5.01758 C4.13198,5.62094 4.64174,6.12566 5.2415,6.75638 C5.78366,6.8219 6.37874,6.86618 6.97706,6.94826 L5.7995,3.1319 L6.47198,3.1319 C6.47198,3.1319 7.28702,3.97754 8.13482,5.19074 C9.01718,6.45254 9.49706,7.2971 9.5687,7.27838 C9.65618,7.30178 11.38274,7.58474 11.72258,7.65854 C12.36302,7.7975 12.8447,8.21978 13.2029,8.73422 L13.16726,8.98838 L13.16726,8.98838 Z M6.39206,10.99718 C6.72578,10.70486 7.09406,10.4147 7.49582,10.12706 C8.01026,10.46546 8.46458,10.80602 8.8595,11.15054 C9.46466,10.6649 10.11122,10.32398 10.82402,9.84734 C11.75678,10.41974 12.53546,10.85786 13.22018,11.44358 L13.21046,12.8681 L2.77982,12.86702 L2.77982,11.46374 C3.36842,10.89494 3.9941,10.39886 4.78142,9.87434 C5.45174,10.27682 5.91182,10.60118 6.39206,10.99718 L6.39206,10.99718 Z"></path>
        </g>
    </g>
</svg>