<?xml version="1.0" encoding="UTF-8" standalone="no"?>
<svg width="16px" height="16px" viewBox="0 0 16 16" version="1.1" xmlns="http://www.w3.org/2000/svg" xmlns:xlink="http://www.w3.org/1999/xlink">
    <!-- Generator: Sketch 3.6.1 (26313) - http://www.bohemiancoding.com/sketch -->
    <title>audio</title>
    <desc>Created with Sketch.</desc>
    <defs></defs>
    <g id="Page-1" stroke="none" stroke-width="1" fill="none" fill-rule="evenodd">
        <g id="audio" fill="#000000">
            <path d="M10.3331381,9.08414 C10.6945781,8.84618 10.9199381,8.44118 10.9325381,7.9937 C10.9444181,7.55234 10.7442581,7.14986 10.3907381,6.89282 L10.9098581,5.99282 C11.5952981,6.44354 11.9873381,7.18694 11.9653781,8.0081 C11.9437781,8.84438 11.5024181,9.59894 10.8047381,10.01078 L10.3331381,9.08414 L10.3331381,9.08414 Z M11.6971781,12.2435 C13.1591381,11.37626 14.0713781,9.77246 14.0875781,8.02574 C14.1037781,6.30782 13.2397781,4.75838 11.7698981,3.85406 L11.2525781,4.7519 C12.3959381,5.46758 13.0666181,6.68258 13.0540181,8.0297 C13.0417781,9.39518 12.3332981,10.6487 11.1956981,11.33702 L11.6971781,12.2435 L11.6971781,12.2435 Z M8.68001808,3.50882 C5.92637808,3.50882 5.45765808,6.37982 3.47153808,6.37982 L2.20757808,6.37982 C1.81373808,7.98578 1.81373808,8.05166 2.20757808,9.61982 L3.46253808,9.61982 C5.45765808,9.61982 5.92637808,12.49118 8.68001808,12.49118 C8.70197808,12.19814 8.84021808,10.19258 8.83913808,7.91162 C8.83841808,5.6699 8.69837808,3.7583 8.68001808,3.50882 L8.68001808,3.50882 Z"></path>
        </g>
    </g>
</svg>