<?xml version="1.0" encoding="UTF-8"?>
<svg width="20px" height="21px" viewBox="0 0 20 21" version="1.1" xmlns="http://www.w3.org/2000/svg" xmlns:xlink="http://www.w3.org/1999/xlink">
    <!-- Generator: Sketch 48.2 (47327) - http://www.bohemiancoding.com/sketch -->
    <title>avios</title>
    <desc>Created with Sketch.</desc>
    <defs></defs>
    <g id="Page-1" stroke="none" stroke-width="1" fill="none" fill-rule="evenodd">
        <g id="avios">
            <path d="M19.9623099,9.91151408 C19.9623099,7.39707746 19.1204789,3.25975352 17.882169,1.07073944 C17.4833662,0.365739437 16.9750563,0.0703873239 15.9891408,0.0703873239 C13.6669577,0.0703873239 10.5949155,1.0531338 7.47188732,2.68665493 C4.7261831,4.12271127 0.934633803,7.17721831 0.249,8.36890845 C-0.408746479,9.51207746 0.363929577,10.7198944 1.09146479,11.6544718 C2.11167606,12.9648239 3.98991549,14.818838 7.60139437,16.9112324 C11.2128732,19.0036972 13.7518873,19.7090493 15.3928028,19.9405282 C16.5631549,20.1054577 17.9918169,20.172993 18.6494225,19.0298239 C19.1854789,18.0982042 19.9623099,14.6682042 19.9623099,9.91151408" id="Fill-1" fill="#FEFEFE"></path>
            <path d="M17.0385352,17.7522746 C16.8180423,18.1355845 16.6517042,18.2199507 15.9424085,18.1910775 C13.9784648,18.1113592 11.4552254,17.1892465 8.44374648,15.4509366 C5.43670423,13.7020634 3.37916901,11.9700915 2.32832394,10.3030493 C1.99423944,9.77311972 1.90740845,9.56509155 2.15853521,9.12861268 C2.69614085,8.19424648 6.16656338,5.41333099 8.57170423,4.15354225 C11.0390282,2.86121831 13.7757183,2.02959859 15.7137465,1.98326056 C16.0493099,1.97523239 16.2519859,2.06607746 16.482831,2.52114789 C17.4174085,4.36333099 17.9169859,6.64171127 18.0550845,9.69135915 C18.1801549,12.4525563 17.5559296,16.8529789 17.0385352,17.7522746 M18.4068451,9.67544366 C18.2757183,6.7808662 17.8179718,4.37480986 16.7968451,2.36185211 C16.5337465,1.84319014 16.2452958,1.61826056 15.7052958,1.63121831 C13.6352958,1.68072535 10.8637465,2.55551408 8.40832394,3.84164085 C6.04895775,5.07741549 2.44698592,7.92128873 1.85332394,8.95297887 C1.49769014,9.57107746 1.68452113,9.94206338 2.03050704,10.4908662 C2.95959155,11.9647394 4.79642254,13.736993 8.26670423,15.7553732 C11.7436056,17.7622746 14.191493,18.4724155 15.9280423,18.5429789 C16.752831,18.5764296 17.0402958,18.4553028 17.3437465,17.927838 C17.937338,16.8961479 18.5276901,12.343331 18.4068451,9.67544366" id="Fill-4" fill="#1F1410"></path>
            <path d="M11.2821831,6.98258451 C11.0377465,6.98258451 10.8396479,7.18075352 10.8396479,7.42519014 C10.8396479,7.66962676 11.0377465,7.86779577 11.2821831,7.86779577 C11.5266197,7.86779577 11.7248592,7.66962676 11.7248592,7.42519014 C11.7248592,7.18075352 11.5266197,6.98258451 11.2821831,6.98258451 Z M17.1971831,8.2285 C16.9412676,8.16124648 16.6538732,8.10934507 16.2879577,8.10934507 C15.6608451,8.10941549 15.0648592,8.31666901 15.0647887,9.04251408 C15.0647887,9.27075352 15.1695775,9.50899296 15.4047183,9.65941549 L16.0162676,10.0482183 C16.1310563,10.1208944 16.1729577,10.1881479 16.1729577,10.2557535 C16.1730282,10.473007 16.0057746,10.4887817 15.8280282,10.4887817 C15.4482394,10.4887817 15.0172535,10.4292746 14.9497887,10.4163169 C14.8823239,10.4032887 14.8502817,10.4459648 14.8138732,10.5147676 C14.8138732,10.5147676 14.6461268,10.8419507 14.6293662,10.8725141 C14.5909859,10.9428662 14.6137324,11.0029366 14.6919014,11.0242042 C14.9491549,11.0942042 15.4569014,11.1682183 15.7442958,11.1683592 C16.4183099,11.1682183 17.0354225,10.9035704 17.0353521,10.1520211 C17.0352817,9.94962676 16.9416197,9.71138732 16.6225352,9.50906338 L16.0421831,9.14110563 C15.958662,9.0891338 15.9166197,9.04244366 15.9166197,8.98026056 C15.9166197,8.80399296 16.0682394,8.79878169 16.2044366,8.79878169 C16.5176761,8.79878169 16.9350704,8.84814789 17.0823944,8.86617606 C17.1495775,8.87441549 17.1921127,8.82469718 17.2024648,8.76779577 C17.2024648,8.76779577 17.2637324,8.41730282 17.2758451,8.3478662 C17.2874648,8.28110563 17.2497183,8.24406338 17.1971831,8.2285 Z M13.378662,8.81899296 C13.0738028,8.81906338 12.879507,8.99645775 12.795493,9.45490845 L12.7342958,9.81976761 C12.6391549,10.3452606 12.808662,10.4608239 13.089507,10.4608239 C13.4446479,10.4608239 13.6027465,10.2120915 13.6730282,9.81990845 L13.7382394,9.45490845 C13.8300704,8.93335915 13.6359155,8.81899296 13.378662,8.81899296 Z M14.5235211,9.81983803 C14.3738732,10.6620915 13.888169,11.1746268 12.9583803,11.1746268 C12.2173239,11.1746268 11.7308451,10.6651197 11.8809859,9.81997887 L11.949507,9.45483803 C12.1100704,8.53258451 12.6326056,8.10011972 13.5046479,8.10011972 C14.2138028,8.1000493 14.7479577,8.55864085 14.5885211,9.45483803 L14.5235211,9.81983803 Z M9.97873239,8.14166901 L9.25901408,8.14166901 C9.20683099,8.14166901 9.15246479,8.18941549 9.1278169,8.25117606 L8.31330986,10.2942746 C8.28190141,10.3719507 8.25035211,10.4032887 8.21338028,10.4032887 C8.17669014,10.4032887 8.15549296,10.372162 8.15056338,10.2942746 L8.06098592,8.25117606 C8.05802817,8.18265493 8.02014085,8.14173944 7.97204225,8.14173944 L7.30464789,8.14166901 C7.25211268,8.14173944 7.19802817,8.19188028 7.205,8.26159859 L7.44126761,10.6274437 C7.48866197,11.0911761 7.78802817,11.1746268 8.09788732,11.1746268 C8.40978873,11.1746268 8.74394366,11.0924437 8.95978873,10.6274437 L10.0419014,8.26159859 C10.0778873,8.18265493 10.0209859,8.14166901 9.97873239,8.14166901 Z M5.86866197,8.82448592 C5.77408451,8.80871127 5.61098592,8.79314789 5.46408451,8.79314789 C5.0878169,8.79314789 4.94957746,8.99800704 4.87387324,9.43561268 C4.87387324,9.43561268 4.79584507,9.86124648 4.75591549,10.0856831 C4.71859155,10.2956127 4.80422535,10.4711761 5.05429577,10.4711761 C5.17950704,10.4711761 5.41161972,10.4138521 5.6084507,10.2887817 L5.86866197,8.82448592 Z M6.79788732,8.38680986 L6.32880282,11.0234296 C6.31852113,11.0806127 6.2921831,11.1277254 6.20788732,11.1277254 L5.67943662,11.1277254 C5.6215493,11.1277254 5.57964789,11.0913169 5.59028169,11.0234296 L5.61105634,10.8725141 C5.32739437,11.0911761 5.07521127,11.1746268 4.79669014,11.1746268 C4.16119718,11.1746268 3.80725352,10.6326549 3.94042254,9.88230282 C3.94042254,9.88230282 3.99683099,9.54638732 4.02471831,9.39244366 C4.18859155,8.48835915 4.74978873,8.10011972 5.5743662,8.10011972 C5.95647887,8.10011972 6.3206338,8.14173944 6.66176056,8.23047183 C6.78267606,8.26159859 6.81387324,8.28237324 6.79788732,8.38680986 Z M11.5856338,8.24596479 L11.0917606,11.0232887 C11.0812676,11.0806127 11.055,11.1277254 10.9657746,11.1275845 L10.3246479,11.1277254 C10.2616197,11.1277254 10.2301408,11.0861761 10.240493,11.0234296 L10.6402817,8.77617606 L10.3541549,8.77624648 C10.2870423,8.77624648 10.2596479,8.76561268 10.2477465,8.73300704 C10.2347887,8.69814789 10.256831,8.6556831 10.2650704,8.63751408 L10.4852113,8.2150493 C10.4852113,8.2150493 10.5233099,8.14173944 10.613662,8.14173944 L11.4962676,8.14173944 C11.5538028,8.14166901 11.5960563,8.17300704 11.5856338,8.24596479 Z" id="Fill-6" fill="#1F1410"></path>
        </g>
    </g>
</svg>