<?xml version="1.0" encoding="UTF-8" standalone="no"?>
<svg width="16px" height="16px" viewBox="0 0 16 16" version="1.1" xmlns="http://www.w3.org/2000/svg" xmlns:xlink="http://www.w3.org/1999/xlink">
    <!-- Generator: Sketch 3.6.1 (26313) - http://www.bohemiancoding.com/sketch -->
    <title>avisarme_por_redes_sociales</title>
    <desc>Created with Sketch.</desc>
    <defs></defs>
    <g id="Page-1" stroke="none" stroke-width="1" fill="none" fill-rule="evenodd">
        <g id="avisarme_por_redes_sociales" fill="#000000">
            <path d="M8,2.0312 C4.70456,2.0312 2.03192,4.7024 2.03192,8 C2.03192,11.294 4.70456,13.9688 8,13.9688 C11.29616,13.9688 13.96808,11.294 13.96808,8 C13.96808,4.7024 11.29616,2.0312 8,2.0312 M11.501,10.8152 C11.465,10.1816 11.4272,9.638 11.38688,9.404 L11.38076,9.3932 C11.16296,9.1916 10.48148,9.0116 9.97496,9.0116 C9.45764,9.0116 8.78156,9.1952 8.56196,9.404 C8.513,9.6884 8.4662,10.4372 8.42336,11.2544 C8.35388,10.2068 8.27756,9.0872 8.19476,8.7236 L8.18648,8.7128 C7.89704,8.5076 6.99632,8.3312 6.32636,8.3312 C5.64128,8.3312 4.74776,8.5148 4.4576,8.7236 C4.39388,9.0044 4.33412,9.7244 4.2776,10.5164 C3.79016,9.8 3.50468,8.9324 3.50468,8 C3.50468,5.5196 5.52176,3.5036 8,3.5036 C10.47896,3.5036 12.49604,5.5196 12.49604,8 C12.49604,9.0656 12.122,10.0412 11.501,10.8152 Z M6.18992,4.9184 C5.27804,4.9184 5.00048,5.4908 5.00048,6.3872 C5.00048,7.2764 5.27804,7.8524 6.18992,7.8524 C7.10216,7.8524 7.37972,7.2764 7.37972,6.3872 C7.37972,5.4908 7.10216,4.9184 6.18992,4.9184 Z M6.72416,7.0532 C6.62912,7.2188 6.461,7.3124 6.18992,7.3124 C5.91812,7.3124 5.75036,7.2188 5.65424,7.0568 L5.65424,6.8912 C5.99912,6.9596 6.35408,6.9596 6.72416,6.8912 L6.72416,7.0532 Z M9.9746,5.6744 C9.11708,5.6744 8.85572,6.2468 8.85572,7.1432 C8.85572,8.0324 9.11708,8.6084 9.9746,8.6084 C10.83284,8.6084 11.09384,8.0324 11.09384,7.1432 C11.09384,6.2468 10.83284,5.6744 9.9746,5.6744 Z M10.47752,7.8092 C10.38896,7.9748 10.22984,8.0684 9.97532,8.0684 C9.71972,8.0684 9.56204,7.9748 9.47204,7.8128 L9.47204,7.6472 C9.79568,7.7156 10.12976,7.7156 10.47752,7.6472 L10.47752,7.8092 Z"></path>
        </g>
    </g>
</svg>