<?xml version="1.0" encoding="UTF-8" standalone="no"?>
<svg width="16px" height="16px" viewBox="0 0 16 16" version="1.1" xmlns="http://www.w3.org/2000/svg" xmlns:xlink="http://www.w3.org/1999/xlink">
    <!-- Generator: Sketch 3.6.1 (26313) - http://www.bohemiancoding.com/sketch -->
    <title>ayuda</title>
    <desc>Created with Sketch.</desc>
    <defs></defs>
    <g id="Page-1" stroke="none" stroke-width="1" fill="none" fill-rule="evenodd">
        <g id="ayuda" fill="#000000">
            <path d="M8,2.7998 C5.12864,2.7998 2.80124,5.129 2.80124,7.9982 C2.80124,10.871 5.12864,13.2002 8,13.2002 C10.87064,13.2002 13.19876,10.871 13.19876,7.9982 C13.19876,5.129 10.87064,2.7998 8,2.7998 M8,11.915 C5.84,11.915 4.08392,10.1582 4.08392,7.9982 C4.08392,5.8418 5.84,4.085 8,4.085 C10.15928,4.085 11.91608,5.8418 11.91608,7.9982 C11.91608,10.1582 10.15928,11.915 8,11.915 Z M7.73468,9.449 L7.69832,9.449 C7.44596,9.449 7.14968,9.5138 7.14968,9.9206 L7.14968,9.9386 C7.14968,10.349 7.44596,10.421 7.69832,10.421 L7.73468,10.421 C7.98776,10.421 8.28332,10.349 8.28332,9.9386 L8.28332,9.9206 C8.28332,9.5138 7.98776,9.449 7.73468,9.449 Z M9.33272,6.3242 C9.27548,6.173 9.18908,6.0398 9.0728,5.9282 C8.95688,5.8166 8.81036,5.7302 8.63288,5.669 C8.45468,5.6078 8.2448,5.5754 8.00324,5.5754 C7.77608,5.5754 7.5356,5.6078 7.28252,5.6726 C7.02836,5.7374 6.79544,5.813 6.5816,5.8958 L6.82316,6.587 C7.01324,6.5258 7.19684,6.4718 7.37504,6.4286 C7.5518,6.389 7.71452,6.3638 7.86104,6.3638 C8.06012,6.3638 8.20232,6.4106 8.288,6.497 C8.37332,6.5834 8.4158,6.6914 8.4158,6.821 C8.4158,6.9434 8.39672,7.0406 8.35892,7.1126 C8.32112,7.1846 8.2592,7.2602 8.17352,7.3394 L7.62668,7.8002 C7.48916,7.9154 7.39412,8.027 7.34264,8.1422 C7.29008,8.2574 7.2638,8.4086 7.2638,8.5958 L7.2638,9.1574 L8.08172,9.1574 L8.08172,8.909 C8.08172,8.765 8.09792,8.6462 8.1314,8.5562 C8.16452,8.4662 8.22824,8.3834 8.32328,8.3078 L8.85644,7.865 C9.02708,7.7246 9.1628,7.5734 9.26468,7.415 C9.36656,7.2566 9.41768,7.0586 9.41768,6.821 C9.41768,6.641 9.38888,6.4754 9.33272,6.3242 Z"></path>
        </g>
    </g>
</svg>