<?xml version="1.0" encoding="UTF-8" standalone="no"?>
<svg width="16px" height="16px" viewBox="0 0 16 16" version="1.1" xmlns="http://www.w3.org/2000/svg" xmlns:xlink="http://www.w3.org/1999/xlink">
    <!-- Generator: Sketch 3.6.1 (26313) - http://www.bohemiancoding.com/sketch -->
    <title>ayuda_2</title>
    <desc>Created with Sketch.</desc>
    <defs></defs>
    <g id="Page-1" stroke="none" stroke-width="1" fill="none" fill-rule="evenodd">
        <g id="ayuda_2" fill="#000000">
            <path d="M13.19876,7.9982 C13.19876,5.129 10.87136,2.7998 8,2.7998 C5.129,2.7998 2.80124,5.129 2.80124,7.9982 C2.80124,10.871 5.129,13.2002 8,13.2002 C10.87136,13.2002 13.19876,10.871 13.19876,7.9982 L13.19876,7.9982 Z M6.89696,10.5218 C6.89696,9.9962 7.28144,9.9098 7.60904,9.9098 L7.65584,9.9098 C7.98452,9.9098 8.36828,9.9962 8.36828,10.5218 L8.36828,10.547 C8.36828,11.0798 7.98452,11.177 7.65584,11.177 L7.60904,11.177 C7.28144,11.177 6.89696,11.0798 6.89696,10.547 L6.89696,10.5218 L6.89696,10.5218 Z M9.84032,6.5006 C9.84032,6.8066 9.77444,7.0658 9.64232,7.271 C9.50984,7.4762 9.3338,7.6706 9.1124,7.8578 L8.42012,8.4302 C8.297,8.5274 8.21384,8.6354 8.171,8.7506 C8.1278,8.8694 8.10656,9.0206 8.10656,9.2114 L8.10656,9.5354 L7.04492,9.5354 L7.04492,8.8082 C7.04492,8.5598 7.07912,8.3654 7.14716,8.2178 C7.21448,8.0666 7.3376,7.919 7.5158,7.7714 L8.22572,7.1738 C8.33696,7.0694 8.41724,6.9722 8.4662,6.8786 C8.51552,6.785 8.54036,6.659 8.54036,6.5006 C8.54036,6.335 8.48528,6.1946 8.37404,6.0794 C8.2628,5.9678 8.07884,5.9102 7.82036,5.9102 C7.62992,5.9102 7.41896,5.939 7.18928,5.993 C6.9578,6.047 6.71948,6.1154 6.47324,6.1946 L6.15968,5.3018 C6.43724,5.1902 6.73964,5.093 7.06904,5.0102 C7.39772,4.9274 7.7102,4.8878 8.00468,4.8878 C8.31824,4.8878 8.5904,4.9238 8.82188,5.0066 C9.05228,5.0858 9.24236,5.1974 9.39284,5.3414 C9.54404,5.4854 9.656,5.6582 9.73016,5.8526 C9.80324,6.0506 9.84032,6.2666 9.84032,6.5006 L9.84032,6.5006 Z"></path>
        </g>
    </g>
</svg>