<?xml version="1.0" encoding="UTF-8" standalone="no"?>
<svg width="16px" height="16px" viewBox="0 0 16 16" version="1.1" xmlns="http://www.w3.org/2000/svg" xmlns:xlink="http://www.w3.org/1999/xlink">
    <!-- Generator: Sketch 3.6.1 (26313) - http://www.bohemiancoding.com/sketch -->
    <title>bajar_escaleras</title>
    <desc>Created with Sketch.</desc>
    <defs></defs>
    <g id="Page-1" stroke="none" stroke-width="1" fill="none" fill-rule="evenodd">
        <g id="bajar_escaleras" fill="#000000">
            <path d="M2.76884,13.2254 L2.76884,2.7746 L4.26248,2.7746 L4.26248,4.2686 L5.75576,4.2686 L5.75576,5.7626 L7.24868,5.7626 L7.24868,7.253 L8.74196,7.253 L8.74196,8.7506 L10.23524,8.7506 L10.23524,10.241 L11.72852,10.241 L11.72852,11.7278 L13.23116,11.7278 L13.23116,13.2254 L2.76884,13.2254 L2.76884,13.2254 Z M9.92888,5.2874 C10.034,5.3918 10.14272,5.4998 10.25144,5.6042 L8.76644,5.8202 L9.39608,6.4502 L11.47364,6.2342 L11.68964,4.157 L11.06072,3.527 L10.84328,5.0138 C10.7378,4.9022 10.6316,4.7942 10.5254,4.6862 C10.12004,4.283 9.701,3.8978 9.3122,3.581 L9.29996,3.5702 L8.81072,4.0598 L8.82152,4.0706 C9.1394,4.4594 9.52172,4.8806 9.92888,5.2874 L9.92888,5.2874 Z"></path>
        </g>
    </g>
</svg>