<?xml version="1.0" encoding="UTF-8" standalone="no"?>
<svg width="16px" height="16px" viewBox="0 0 16 16" version="1.1" xmlns="http://www.w3.org/2000/svg" xmlns:xlink="http://www.w3.org/1999/xlink">
    <!-- Generator: Sketch 3.6.1 (26313) - http://www.bohemiancoding.com/sketch -->
    <title>barajas_t4</title>
    <desc>Created with Sketch.</desc>
    <defs></defs>
    <g id="Page-1" stroke="none" stroke-width="1" fill="none" fill-rule="evenodd">
        <g id="barajas_t4" fill="#000000">
            <path d="M7.20386,10.4696 L7.20386,7.9424 L8.08514,7.9424 L8.13482,7.40384 L5.6807,7.40384 L5.6807,7.9424 L6.5753,7.9424 L6.5753,10.4696 L7.20386,10.4696 Z M9.75446,10.4696 L9.75446,9.88172 L10.17998,9.88172 L10.22894,9.36656 L9.75446,9.36656 L9.75446,7.40888 L9.06758,7.40888 C8.55638,7.95104 8.06426,8.67032 7.62506,9.54296 L7.76078,9.88172 L9.12626,9.88172 L9.12626,10.4696 L9.75446,10.4696 Z M8.3573,9.36656 C8.56142,8.95004 8.86814,8.49788 9.12626,8.17244 L9.12626,9.36656 L8.3573,9.36656 Z M11.23514,10.32092 C11.5541,9.44936 11.81402,8.72504 11.89178,7.70084 C11.7701,7.74152 11.69306,7.74224 11.63042,7.74224 C11.46698,7.74224 11.32514,7.69724 11.17754,7.60364 C11.1113,8.55224 10.87298,9.21536 10.5587,10.07432 C10.45538,10.35728 10.34162,10.67012 10.22426,11.01932 L5.88014,11.01932 C5.79842,10.79576 5.71994,10.58696 5.6447,10.3886 C5.25698,9.36044 4.98446,8.63864 4.92686,7.52984 C4.74002,7.67384 4.57118,7.74224 4.3703,7.74224 C4.3289,7.74224 4.2821,7.74224 4.2209,7.73108 C4.30226,8.85896 4.59098,9.63656 4.97114,10.64348 C5.0183,10.76768 5.06726,10.898 5.11658,11.03228 L2.7989,11.03228 L2.7989,11.75228 L13.25222,11.75228 L13.25222,11.03228 L10.98062,11.03228 C11.06774,10.78172 11.1527,10.54844 11.23514,10.32092 Z M5.63174,6.22664 C5.73794,6.0992 5.86574,5.94548 5.99786,5.79032 C5.91938,5.88248 5.84198,5.97464 5.7707,6.06104 C5.9651,6.38252 6.13934,6.6932 6.2351,6.8948 L6.99902,6.8948 C6.92054,6.6122 6.67466,6.1406 6.26282,5.48432 C6.18254,5.57468 6.10082,5.66972 6.01946,5.76476 C6.30782,5.426 6.61346,5.08544 6.77222,4.9814 C6.86762,5.04584 7.02962,5.25752 7.12142,5.37776 C7.3673,5.6996 7.62182,6.03224 7.99982,6.03224 C8.37782,6.03224 8.6327,5.6996 8.87894,5.37776 C8.97254,5.25464 9.1403,5.03576 9.22346,4.97888 C9.38438,5.08148 9.7037,5.43896 10.0007,5.7878 C9.91718,5.6906 9.83222,5.59196 9.74942,5.49872 C9.34334,6.14672 9.10034,6.61436 9.02222,6.8948 L9.78614,6.8948 C9.88046,6.69608 10.05074,6.39152 10.24226,6.07508 C10.16702,5.98508 10.0853,5.88824 10.00286,5.79068 C10.13462,5.94584 10.2617,6.0992 10.3679,6.22664 C11.14442,7.16372 11.35394,7.38224 11.63006,7.38224 C11.74886,7.38224 12.0653,7.38224 13.76666,5.88896 L13.2911,5.34824 C12.70142,5.86592 11.96846,6.45092 11.66894,6.62372 C11.49722,6.46028 11.17142,6.06752 10.92194,5.768 C10.02662,4.68728 9.6245,4.24772 9.24506,4.24772 C8.83646,4.24772 8.5553,4.61528 8.30762,4.94036 C8.2205,5.05268 8.08334,5.23268 7.99982,5.29748 C7.91738,5.23268 7.77986,5.05268 7.6931,4.94036 C7.44434,4.61528 7.16354,4.24772 6.75494,4.24772 C6.3755,4.24772 5.97338,4.68728 5.0777,5.768 C4.82894,6.06752 4.50278,6.46028 4.33142,6.62372 C4.03226,6.45092 3.29966,5.86592 2.70926,5.34824 L2.23334,5.88896 C3.93434,7.38224 4.25078,7.38224 4.36994,7.38224 C4.64642,7.38224 4.85594,7.16372 5.63174,6.22664 Z"></path>
        </g>
    </g>
</svg>