<?xml version="1.0" encoding="UTF-8" standalone="no"?>
<svg width="16px" height="16px" viewBox="0 0 16 16" version="1.1" xmlns="http://www.w3.org/2000/svg" xmlns:xlink="http://www.w3.org/1999/xlink">
    <!-- Generator: Sketch 3.6.1 (26313) - http://www.bohemiancoding.com/sketch -->
    <title>barometro</title>
    <desc>Created with Sketch.</desc>
    <defs></defs>
    <g id="Page-1" stroke="none" stroke-width="1" fill="none" fill-rule="evenodd">
        <g id="barometro" fill="#000000">
            <path d="M7.50662,10.6316 C7.56926,10.6208 7.69238,10.538 7.69238,10.3472 C7.69238,10.178 7.59122,10.0196 7.27298,10.0196 L6.84746,10.0196 L6.84746,11.3156 L7.31726,11.3156 C7.59734,11.3156 7.7669,11.1968 7.7669,10.9628 C7.7669,10.7108 7.57142,10.6388 7.50662,10.6316 L7.50662,10.6316 Z M7.32554,11.222 L6.9461,11.222 L6.9461,10.6928 L7.32122,10.6928 C7.4969,10.6928 7.6661,10.7432 7.6661,10.9556 C7.6661,11.1536 7.51454,11.222 7.32554,11.222 L7.32554,11.222 Z M7.59374,10.358 C7.59374,10.538 7.46666,10.5992 7.2953,10.5992 L6.9461,10.5992 L6.9461,10.1132 L7.2827,10.1132 C7.48286,10.1132 7.59374,10.1888 7.59374,10.358 L7.59374,10.358 Z M8.37134,10.322 C8.26082,10.322 8.15966,10.3436 8.08694,10.3652 L8.08694,10.4624 C8.13374,10.448 8.2385,10.4192 8.36522,10.4192 C8.58734,10.4192 8.6885,10.5236 8.6885,10.7288 C8.65574,10.7216 8.58554,10.7072 8.45414,10.7072 C8.36342,10.7072 7.9865,10.7216 7.9865,11.024 C7.9865,11.2868 8.26658,11.33 8.39366,11.33 C8.51714,11.33 8.78858,11.294 8.78858,11.0276 L8.78858,10.7288 C8.78858,10.4624 8.66186,10.322 8.37134,10.322 L8.37134,10.322 Z M8.6903,11.0276 C8.6903,11.204 8.51246,11.2364 8.39366,11.2364 C8.2727,11.2364 8.08514,11.204 8.08514,11.024 C8.08514,10.8296 8.31914,10.8008 8.44226,10.8008 C8.5751,10.8008 8.66402,10.8152 8.6903,10.8188 L8.6903,11.0276 L8.6903,11.0276 Z M7.95482,7.63331355 C7.76187044,7.64353122 7.60814,7.8049092 7.60814,8 C7.60814,8.02705115 7.61109568,8.0533893 7.61670177,8.07871874 L5.47240347,9.03091494 C5.30411404,8.72688771 4.86187737,8.63982289 4.62338,8.7596 C4.90778,8.864 5.09066,8.9144 5.22278,9.1808 C5.35238,9.44 5.26166,9.5768 5.20118,9.9116 C5.42331491,9.79987534 5.6076571,9.43919854 5.51683728,9.13620581 L7.65886302,8.18501877 C7.72262133,8.292113 7.84010052,8.3636 7.97426,8.3636 C8.17658,8.3636 8.34038,8.2016 8.34038,8 C8.34038,7.96169752 8.33446729,7.92469454 8.32350106,7.88987987 L10.45898,6.9416 L10.5479,7.1432 L11.3619028,6.485777 C11.3738317,6.51103606 11.3872859,6.53932208 11.40074,6.5672 C11.43278,6.6536 11.46446,6.74 11.46446,6.74 L11.61494,6.686 C11.61494,6.686 11.58146,6.596 11.54834,6.506 C11.50658,6.416 11.46482,6.3296 11.46482,6.3296 L11.32082,6.398 C11.32082,6.398 11.3362858,6.43143954 11.3575958,6.47664845 L10.32398,6.6392 L10.41254,6.8372 L8.2725358,7.78748936 C8.21918777,7.71240752 8.13839789,7.65807536 8.04482,7.63965205 L8.04482,4.31062905 C8.07473848,4.31035292 8.09414,4.31112717 8.09414,4.3136 L8.09846,4.1552 C8.09846,4.15267058 8.07727173,4.15172091 8.04482,4.15174975 L8.04482,3.8096 L7.95482,3.8096 L7.95482,4.15326986 C7.8449569,4.15621282 7.71218,4.1624 7.71218,4.1624 L7.72406,4.3244 C7.72406,4.3244 7.84990069,4.31705521 7.95482,4.31307299 L7.95482,7.63331355 Z M8.04482,7.88860874 L8.2725358,7.78748936 C8.29453167,7.81844629 8.31186247,7.85293064 8.32350106,7.88987987 L7.65886302,8.18501877 C7.63952013,8.15252871 7.62512163,8.11676142 7.61670177,8.07871874 L7.95482,7.9285741 L7.95482,8 L8.04482,8 L8.04482,7.88860874 Z M7.99982,13.778 C4.81346,13.778 2.22146,11.186 2.22146,8 C2.22146,4.814 4.81346,2.222 7.99982,2.222 C11.18618,2.222 13.77854,4.814 13.77854,8 C13.77854,11.186 11.18618,13.778 7.99982,13.778 Z M7.99982,3.302 C5.4089,3.302 3.30146,5.408 3.30146,8 C3.30146,10.5884 5.4089,12.698 7.99982,12.698 C10.59074,12.698 12.69854,10.5884 12.69854,8 C12.69854,5.408 10.59074,3.302 7.99982,3.302 Z M9.52874,10.4192 L9.52874,10.322 C9.30518,10.322 9.1259,10.3904 9.06902,10.412 L9.06902,11.3156 L9.16802,11.3156 L9.16802,10.4768 C9.2447,10.4552 9.37538,10.4228 9.52874,10.4192 Z M11.68946,8 L11.6711,8.3708 L11.83022,8.3852 L11.84966,8 L11.68946,8 Z M11.57102,8.9108 L11.72618,8.9504 L11.77298,8.7632 C11.78774,8.666 11.80214,8.5724 11.80214,8.5724 L11.6441,8.5472 C11.6441,8.5472 11.63006,8.6408 11.61602,8.7308 C11.59406,8.8208 11.57102,8.9108 11.57102,8.9108 Z M11.39966,9.4364 L11.54726,9.4976 L11.67902,9.134 L11.52602,9.0872 L11.39966,9.4364 Z M11.1437,9.9224 L11.28014,10.0052 C11.28014,10.0052 11.33018,9.9224 11.38022,9.8396 L11.46518,9.6668 L11.32082,9.5984 C11.32082,9.5984 11.2805,9.6812 11.23982,9.764 C11.19194,9.8432 11.1437,9.9224 11.1437,9.9224 Z M10.82366,10.3724 L10.94606,10.4732 C10.94606,10.4732 11.00726,10.4012 11.0645,10.322 C11.12246,10.2428 11.18006,10.1672 11.18006,10.1672 L11.0483,10.0772 C11.0483,10.0772 10.9925,10.1528 10.93706,10.2248 C10.88234,10.3004 10.82366,10.3724 10.82366,10.3724 Z M10.43666,10.7648 L10.5425,10.8836 L10.68542,10.754 C10.75706,10.6892 10.81898,10.6136 10.81898,10.6136 L10.70162,10.5056 C10.70162,10.5056 10.64258,10.5776 10.57382,10.6388 C10.50542,10.7036 10.43666,10.7648 10.43666,10.7648 Z M9.99818,11.096 L10.08494,11.2328 C10.09106,11.24 10.39886,11.006 10.39886,11.006 L10.29878,10.88 C10.29878,10.88 10.0043,11.1068 9.99818,11.096 Z M9.51398,11.3624 L9.57986,11.5064 C9.57986,11.5064 9.92834,11.3408 9.9233,11.33 L9.84302,11.1932 C9.84806,11.2004 9.51398,11.3624 9.51398,11.3624 Z M8.9963,11.5496 L9.0395,11.7044 C9.04274,11.7116 9.40526,11.5784 9.40526,11.5784 L9.3473,11.4308 C9.3473,11.4308 8.99954,11.5604 8.9963,11.5496 Z M8.45594,11.6576 L8.47538,11.816 C8.47538,11.816 8.85842,11.762 8.8559,11.7512 L8.82062,11.5928 C8.82278,11.6036 8.45594,11.6576 8.45594,11.6576 Z M7.9055,11.6828 L7.90154,11.8448 C7.90154,11.8556 8.28746,11.834 8.28746,11.834 L8.27558,11.6756 C8.27558,11.6756 7.9055,11.6936 7.9055,11.6828 Z M7.35722,11.6288 L7.3295,11.7872 C7.3295,11.7872 7.71146,11.8448 7.71254,11.834 L7.72442,11.6756 C7.72334,11.6864 7.35722,11.6288 7.35722,11.6288 Z M6.82334,11.4956 L6.77186,11.6468 C6.76898,11.6576 7.1441,11.7512 7.1441,11.7512 L7.17974,11.5928 C7.17974,11.5928 6.8201,11.5028 6.82334,11.4956 Z M6.31574,11.2796 L6.24266,11.42 C6.24266,11.42 6.59042,11.5892 6.59474,11.582 L6.65306,11.4308 C6.64874,11.4416 6.31574,11.2796 6.31574,11.2796 Z M5.8463,10.9916 L5.7527,11.1212 C5.7527,11.1212 5.8265,11.1824 5.91146,11.2292 C5.99426,11.2796 6.0767,11.33 6.0767,11.33 L6.15698,11.1932 C6.15698,11.1932 5.84054,10.9988 5.8463,10.9916 Z M5.4233,10.6388 L5.31134,10.7504 C5.31134,10.7504 5.59394,11.0168 5.6015,11.006 L5.70122,10.8836 C5.69402,10.8908 5.4233,10.6388 5.4233,10.6388 Z M5.06078,10.2212 L4.93334,10.3184 C4.93334,10.3184 4.98878,10.3976 5.05142,10.4732 C5.11658,10.5416 5.18102,10.6136 5.18102,10.6136 L5.29874,10.5056 C5.29874,10.5056 5.23646,10.4372 5.17382,10.3688 C5.11406,10.3004 5.06078,10.2212 5.06078,10.2212 Z M4.61798,9.8396 L4.8203,10.1672 L4.95242,10.0772 L4.75838,9.7604 L4.61798,9.8396 Z M4.53554,9.2564 L4.38506,9.314 C4.38506,9.314 4.41854,9.404 4.45166,9.494 C4.49342,9.5804 4.53518,9.6668 4.53518,9.6668 L4.67918,9.5984 C4.67918,9.5984 4.63922,9.5156 4.5989,9.4328 C4.56722,9.3464 4.53554,9.2564 4.53554,9.2564 Z M4.2263,8.7596 L4.32098,9.134 L4.47398,9.0872 L4.38326,8.7272 L4.2263,8.7596 Z M4.3199,8.18 L4.16006,8.1872 C4.16006,8.1872 4.1651,8.2844 4.16978,8.3816 C4.18382,8.4752 4.19786,8.5724 4.19786,8.5724 L4.35626,8.5472 C4.35626,8.5472 4.34258,8.4572 4.32926,8.3672 L4.3199,8.18 Z M4.1507,8 L4.3109,8 L4.32962,7.6292 L4.17014,7.6148 L4.1507,8 Z M4.42898,7.0856 L4.27382,7.046 C4.27382,7.046 4.25042,7.1432 4.22702,7.2368 C4.21262,7.3304 4.19786,7.4276 4.19786,7.4276 L4.3559,7.4492 L4.38398,7.2656 C4.4063,7.1756 4.42898,7.0856 4.42898,7.0856 Z M4.32098,6.866 L4.47398,6.9128 L4.60034,6.5636 L4.45274,6.5024 L4.32098,6.866 Z M4.8563,6.074 L4.71986,5.9912 L4.61978,6.1568 C4.5773,6.2432 4.53518,6.3296 4.53518,6.3296 L4.67918,6.4016 C4.67918,6.4016 4.7195,6.3152 4.76018,6.2324 C4.80806,6.1532 4.8563,6.074 4.8563,6.074 Z M5.17634,5.6276 L5.05394,5.5232 C5.05394,5.5232 4.99274,5.5988 4.9355,5.678 C4.87754,5.7536 4.81994,5.8328 4.81994,5.8328 L4.95206,5.9228 C4.95206,5.9228 5.0075,5.8472 5.06294,5.7716 C5.11766,5.6996 5.17634,5.6276 5.17634,5.6276 Z M5.56334,5.2352 L5.4575,5.1128 C5.4575,5.1128 5.3855,5.1776 5.31458,5.2424 C5.24258,5.3072 5.18102,5.3828 5.18102,5.3828 L5.29838,5.4908 C5.29838,5.4908 5.35742,5.4224 5.42618,5.3576 C5.49494,5.2964 5.56334,5.2352 5.56334,5.2352 Z M6.00146,4.9004 L5.91506,4.7672 C5.90858,4.7564 5.60078,4.9904 5.60078,4.9904 L5.70086,5.1164 C5.70086,5.1164 5.99534,4.8932 6.00146,4.9004 Z M6.48566,4.6376 L6.41978,4.49 C6.41978,4.49 6.07166,4.6592 6.0767,4.6664 L6.15662,4.8068 C6.15194,4.796 6.48566,4.6376 6.48566,4.6376 Z M7.0037,4.4504 L6.9605,4.2956 C6.95726,4.2848 6.59438,4.418 6.59438,4.418 L6.6527,4.5656 C6.6527,4.5656 7.00046,4.4396 7.0037,4.4504 Z M7.54406,4.3424 L7.52426,4.1804 C7.52426,4.1804 7.14122,4.238 7.1441,4.2488 L7.17902,4.4036 C7.17686,4.3928 7.54406,4.3424 7.54406,4.3424 Z M8.64278,4.3712 L8.6705,4.2128 C8.6705,4.2128 8.28854,4.1516 8.2871,4.1624 L8.27558,4.3244 C8.27666,4.3136 8.64278,4.3712 8.64278,4.3712 Z M9.17666,4.5044 L9.22778,4.3532 C9.23102,4.3424 8.8559,4.2488 8.8559,4.2488 L8.82026,4.4036 C8.82026,4.4036 9.1799,4.4936 9.17666,4.5044 Z M9.6839,4.7204 L9.75698,4.5764 C9.75698,4.5764 9.40958,4.4072 9.40526,4.418 L9.34658,4.5656 C9.3509,4.5584 9.6839,4.7204 9.6839,4.7204 Z M10.15334,5.0084 L10.24694,4.8788 C10.24694,4.8788 10.17314,4.814 10.08818,4.7672 C10.00538,4.7168 9.92294,4.6664 9.92294,4.6664 L9.84266,4.8068 C9.84266,4.8068 10.1591,5.0012 10.15334,5.0084 Z M10.5767,5.3612 L10.68794,5.246 C10.68794,5.246 10.40606,4.9832 10.3985,4.9904 L10.29842,5.1164 C10.30562,5.1092 10.5767,5.3612 10.5767,5.3612 Z M10.93922,5.7752 L11.06666,5.678 C11.06666,5.678 11.01122,5.5988 10.94858,5.5268 C10.88342,5.4548 10.81862,5.3828 10.81862,5.3828 L10.70126,5.4908 C10.70126,5.4908 10.76354,5.5592 10.82618,5.6312 C10.88594,5.6996 10.93922,5.7752 10.93922,5.7752 Z M11.04794,5.9192 L11.24198,6.236 L11.38238,6.1604 L11.18006,5.8328 L11.04794,5.9192 Z M11.52602,6.9128 L11.61674,7.2692 L11.77406,7.2404 L11.67902,6.866 L11.52602,6.9128 Z M11.68046,7.8164 L11.8403,7.8092 C11.8403,7.8092 11.8349,7.712 11.83058,7.6184 C11.81654,7.5212 11.8025,7.424 11.8025,7.424 L11.64446,7.4492 C11.64446,7.4492 11.65778,7.5428 11.67074,7.6328 L11.68046,7.8164 Z M11.3575958,6.47664845 C11.3590068,6.4796418 11.3604434,6.48268675 11.3619028,6.485777 L11.37698,6.4736 L11.3575958,6.47664845 Z M5.51683728,9.13620581 L5.26238,9.2492 L5.21594,9.1448 L5.47240347,9.03091494 C5.47608868,9.03757255 5.47964253,9.0443342 5.48306,9.0512 C5.49696934,9.07883029 5.50815941,9.10725472 5.51683728,9.13620581 Z M7.95482,7.63331355 C7.96125776,7.63297264 7.96773918,7.6328 7.97426,7.6328 C7.99839928,7.6328 8.0219902,7.63515739 8.04482,7.63965205 L8.04482,7.88860874 L7.95482,7.9285741 L7.95482,7.63331355 Z M8.04482,4.15174975 C8.01994719,4.15177185 7.98845762,4.15236879 7.95482,4.15326986 L7.95482,4.31307299 C7.98862945,4.31178975 8.02026642,4.31085567 8.04482,4.31062905 L8.04482,4.15174975 Z"></path>
        </g>
    </g>
</svg>