<?xml version="1.0" encoding="UTF-8" standalone="no"?>
<svg width="16px" height="16px" viewBox="0 0 16 16" version="1.1" xmlns="http://www.w3.org/2000/svg" xmlns:xlink="http://www.w3.org/1999/xlink">
    <!-- Generator: Sketch 3.6.1 (26313) - http://www.bohemiancoding.com/sketch -->
    <title>baules</title>
    <desc>Created with Sketch.</desc>
    <defs></defs>
    <g id="Page-1" stroke="none" stroke-width="1" fill="none" fill-rule="evenodd">
        <g id="baules" fill="#000000">
            <path d="M12.2111534,5.46135819 L3.87643343,5.46135819 C4.13959343,4.59735819 4.65187343,4.06095819 5.12491343,3.70095819 C7.36303343,3.46335819 8.66947343,3.48135819 10.9583534,3.70095819 C11.4591134,4.07895819 11.9559134,4.60455819 12.2111534,5.46135819 M12.3450734,11.4877582 L12.3511934,11.4877582 L12.3511934,12.4705582 L11.4753134,12.4705582 L11.3842334,11.5957582 L4.54423343,11.5957582 L4.46287343,12.4705582 L3.68131343,12.4705582 L3.68131343,11.5885582 C3.60643343,9.86055819 3.57259343,8.33055819 3.64423343,6.33975819 L12.3670334,6.33975819 C12.4152734,8.29455819 12.3976334,9.84975819 12.3450734,11.4877582 M8.56111343,8.48895819 C8.56111343,8.18655819 8.31595343,7.94175819 8.01319343,7.94175819 C7.71151343,7.94175819 7.46635343,8.18655819 7.46635343,8.48895819 C7.46635343,8.66895819 7.55455343,8.82735819 7.69063343,8.92815819 L7.62763343,9.62655819 L8.38759343,9.62655819 L8.32567343,8.93535819 C8.46787343,8.83815819 8.56111343,8.67255819 8.56111343,8.48895819"></path>
        </g>
    </g>
</svg>