<?xml version="1.0" encoding="UTF-8" standalone="no"?>
<svg width="16px" height="16px" viewBox="0 0 16 16" version="1.1" xmlns="http://www.w3.org/2000/svg" xmlns:xlink="http://www.w3.org/1999/xlink">
    <!-- Generator: Sketch 3.6.1 (26313) - http://www.bohemiancoding.com/sketch -->
    <title>bebe</title>
    <desc>Created with Sketch.</desc>
    <defs></defs>
    <g id="Page-1" stroke="none" stroke-width="1" fill="none" fill-rule="evenodd">
        <g id="bebe" fill="#000000">
            <path d="M7.34768,12.0256865 L7.85132,11.3200865 C7.57124,10.7152865 6.92288,10.2688865 6.43832,10.2868865 C6.43832,10.2868865 5.79536,11.2192865 5.77628,11.2696865 C5.50124,11.6620865 5.68412,11.9968865 5.8202,12.1372865 L7.03376,13.8076865 C7.2008,13.9840865 7.60364,13.9084865 7.79552,13.6636865 C7.9208,13.5016865 7.98776,13.3540865 7.85132,13.0300865 L7.34768,12.0256865 Z M9.55088,10.2868865 C9.06668,10.2688865 8.41868,10.7152865 8.13788,11.3200865 L8.64188,12.0256865 L8.13788,13.0300865 C8.00216,13.3540865 8.06912,13.5016865 8.19404,13.6636865 C8.38664,13.9084865 8.78948,13.9840865 8.95544,13.8076865 L10.169,12.1372865 C10.30508,11.9968865 10.48796,11.6620865 10.21292,11.2696865 C10.19492,11.2192865 9.55088,10.2868865 9.55088,10.2868865 Z M11.51756,8.1952865 C11.51756,8.1952865 9.7226,6.1177265 9.35324,6.0385265 C9.00152,5.9632865 7.1522,5.9632865 6.73208,6.0327665 C6.33788,6.0986465 4.48244,8.1952865 4.48244,8.1952865 C4.22216,8.4544865 4.22216,8.8792865 4.48244,9.1384865 C4.74236,9.3976865 5.16392,9.3976865 5.42456,9.1384865 L6.33932,8.2204865 C6.33392,8.3536865 6.33104,8.4724865 6.33104,8.5840865 C6.33104,9.1528865 6.3782,9.4300865 6.3782,9.4300865 C6.3782,9.4300865 7.12628,9.5488865 8.00072,9.5488865 C8.87552,9.5488865 9.61568,9.4300865 9.61568,9.4300865 C9.6704,8.9188865 9.63116,8.3248865 9.63116,8.3248865 L9.62324,8.1844865 L10.57508,9.1384865 C10.83536,9.3976865 11.25728,9.3976865 11.51756,9.1384865 C11.77784,8.8792865 11.77784,8.4544865 11.51756,8.1952865 Z M7.9262,5.3178065 C9.08828,5.3178065 9.44324,4.6856465 9.44324,3.7071665 C9.44324,2.7279665 9.08828,2.0958065 7.9262,2.0958065 C6.76484,2.0958065 6.41096,2.7279665 6.41096,3.7071665 C6.41096,4.6856465 6.76484,5.3178065 7.9262,5.3178065 Z"></path>
        </g>
    </g>
</svg>