<?xml version="1.0" encoding="UTF-8" standalone="no"?>
<svg width="16px" height="16px" viewBox="0 0 16 16" version="1.1" xmlns="http://www.w3.org/2000/svg" xmlns:xlink="http://www.w3.org/1999/xlink">
    <!-- Generator: Sketch 3.6.1 (26313) - http://www.bohemiancoding.com/sketch -->
    <title>bicicleta</title>
    <desc>Created with Sketch.</desc>
    <defs></defs>
    <g id="Page-1" stroke="none" stroke-width="1" fill="none" fill-rule="evenodd">
        <g id="bicicleta" fill="#000000">
            <path d="M11.0438,7.42109493 C10.80368,7.42109493 10.57364,7.46069493 10.358,7.53629493 L9.8756,6.61469493 L10.32236,5.76869493 L10.70612,5.76869493 L10.70612,5.00909493 C9.95012,5.03789493 9.4346,5.08469493 8.81108,5.30429493 L8.81108,5.76869493 L9.46412,5.76869493 L9.14084,6.38069493 L6.02792,6.38069493 L6.33032,5.00909493 L7.30052,5.00909493 L7.30052,4.36829493 L6.416,4.24949493 L6.41528,4.25309493 C6.0416,4.20989493 5.68952,4.45109493 5.60708,4.82549493 L5.0336,7.42469493 C5.00804,7.42469493 4.98248,7.42109493 4.95584,7.42109493 C3.7628,7.42109493 2.79224,8.39309493 2.79224,9.58829493 C2.79224,10.7798949 3.7628,11.7518949 4.95584,11.7518949 C6.14888,11.7518949 7.12016,10.7798949 7.12016,9.58829493 C7.12016,8.67749493 6.55784,7.89989493 5.76404,7.57949493 L5.86052,7.14029493 L8.73944,7.14029493 L7.24796,9.95909493 C7.41464,10.0634949 7.61804,10.0922949 7.80812,10.0382949 C7.99892,9.98789493 8.1584,9.85829493 8.2502,9.68549493 L9.4598,7.39949493 L9.73412,7.86749493 C9.21536,8.26349493 8.8802,8.88629493 8.8802,9.58829493 C8.8802,10.7798949 9.8504,11.7518949 11.0438,11.7518949 C12.23684,11.7518949 13.20776,10.7798949 13.20776,9.58829493 C13.20776,8.39309493 12.23684,7.42109493 11.0438,7.42109493 M6.35984,9.58829493 C6.35984,10.3622949 5.7302,10.9886949 4.95584,10.9886949 C4.18184,10.9886949 3.5522,10.3622949 3.5522,9.58829493 C3.5522,8.84309493 4.13396,8.23469493 4.86512,8.18789493 L4.64372,9.19589493 C4.5278,9.28589493 4.454,9.42629493 4.454,9.58829493 C4.454,9.86549493 4.67864,10.0886949 4.95584,10.0886949 C5.2334,10.0886949 5.4584,9.86549493 5.4584,9.58829493 C5.4584,9.48749493 5.42888,9.39389493 5.38028,9.31829493 L5.59628,8.33909493 C6.0488,8.57309493 6.35984,9.04469493 6.35984,9.58829493 M11.0438,10.9886949 C10.27016,10.9886949 9.64052,10.3622949 9.64052,9.58829493 C9.64052,9.16709493 9.82772,8.78909493 10.12364,8.52989493 L10.6028,9.34709493 C10.56392,9.41549493 10.5416,9.49829493 10.5416,9.58829493 C10.5416,9.86549493 10.7666,10.0886949 11.0438,10.0886949 C11.32136,10.0886949 11.54564,9.86549493 11.54564,9.58829493 C11.54564,9.35429493 11.39012,9.15989493 11.17772,9.10229493 L10.71764,8.22389493 C10.82276,8.19869493 10.93184,8.18069493 11.0438,8.18069493 C11.8178,8.18069493 12.44744,8.81069493 12.44744,9.58829493 C12.44744,10.3622949 11.8178,10.9886949 11.0438,10.9886949"></path>
        </g>
    </g>
</svg>