<?xml version="1.0" encoding="UTF-8" standalone="no"?>
<svg width="16px" height="16px" viewBox="0 0 16 16" version="1.1" xmlns="http://www.w3.org/2000/svg" xmlns:xlink="http://www.w3.org/1999/xlink">
    <!-- Generator: Sketch 3.6.1 (26313) - http://www.bohemiancoding.com/sketch -->
    <title>bien</title>
    <desc>Created with Sketch.</desc>
    <defs></defs>
    <g id="Page-1" stroke="none" stroke-width="1" fill="none" fill-rule="evenodd">
        <g id="bien" fill="#000000">
            <path d="M5.71724,9.1052 C7.15616,9.4004 8.65088,9.4004 10.19636,9.1052 L10.19636,9.8036 C9.75248,10.0304 9.09044,10.1996 7.95608,10.1996 C6.82208,10.1996 6.05168,9.908 5.71724,9.8144 L5.71724,9.1052 L5.71724,9.1052 Z M7.21556,6.6824 C7.04816,6.6356 6.66296,6.488 6.0956,6.488 C5.5286,6.488 5.1974,6.5744 4.97528,6.6896 L4.97528,7.2476 C5.74856,7.1036 6.49592,7.1036 7.21556,7.2476 L7.21556,6.6824 L7.21556,6.6824 Z M10.95056,6.6824 C10.78316,6.6356 10.39796,6.488 9.8306,6.488 C9.2636,6.488 8.9324,6.5744 8.71028,6.6896 L8.71028,7.2476 C9.48356,7.1036 10.23092,7.1036 10.95056,7.2476 L10.95056,6.6824 L10.95056,6.6824 Z M8.00036,3.4928 C5.51528,3.4928 3.49388,5.516 3.49388,8 C3.49388,10.484 5.51528,12.5072 8.00036,12.5072 C10.48472,12.5072 12.50612,10.484 12.50612,8 C12.50612,5.516 10.48472,3.4928 8.00036,3.4928 L8.00036,3.4928 Z M8.00036,2.7728 C10.88648,2.7728 13.22612,5.1128 13.22612,8 C13.22612,10.8872 10.88648,13.2272 8.00036,13.2272 C5.11388,13.2272 2.77388,10.8872 2.77388,8 C2.77388,5.1128 5.11388,2.7728 8.00036,2.7728 L8.00036,2.7728 Z"></path>
        </g>
    </g>
</svg>