<?xml version="1.0" encoding="UTF-8" standalone="no"?>
<svg width="16px" height="16px" viewBox="0 0 16 16" version="1.1" xmlns="http://www.w3.org/2000/svg" xmlns:xlink="http://www.w3.org/1999/xlink">
    <!-- Generator: Sketch 3.6.1 (26313) - http://www.bohemiancoding.com/sketch -->
    <title>billetes_01</title>
    <desc>Created with Sketch.</desc>
    <defs></defs>
    <g id="Page-1" stroke="none" stroke-width="1" fill="none" fill-rule="evenodd">
        <g id="billetes_01" fill="#000000">
            <path d="M9.99368,4.21399154 L9.99368,4.52143154 C9.99368,4.52143154 9.87488,4.54519154 9.73988,4.54519154 C9.60416,4.54519154 9.49508,4.52143154 9.49508,4.52143154 L9.49508,4.20211154 C8.99648,4.19203154 8.46368,4.18555154 7.89092,4.18663154 C5.78456,4.18915154 3.51476,4.27159154 2.01968,4.41991154 L2.01968,11.5835515 C3.51476,11.7279115 5.78456,11.8092715 7.89272,11.8132315 C8.46404,11.8146715 8.99648,11.8099915 9.49508,11.7991915 L9.49508,11.5263115 C9.49508,11.5263115 9.58904,11.5011115 9.73988,11.5011115 C9.88928,11.5011115 9.99368,11.5263115 9.99368,11.5263115 L9.99368,11.7876715 C11.4884,11.7545515 12.48524,11.6886715 13.98032,11.5849915 L13.98032,4.41991154 C12.48524,4.31479154 11.4884,4.24819154 9.99368,4.21399154 L9.99368,4.21399154 Z M6.78608,8.09047154 L6.76196,8.11855154 C6.64388,8.25319154 6.2882,8.31331154 5.52392,8.32663154 C5.47028,8.39575154 5.41628,8.46235154 5.36336,8.52859154 C5.04728,8.92027154 4.71608,9.30007154 4.37588,9.65791154 L4.34564,9.68851154 L3.91796,9.68851154 L4.51412,8.29387154 C4.33016,8.27767154 4.14296,8.25751154 3.96044,8.23663154 L3.91076,8.30143154 C3.81716,8.42419154 3.71348,8.55127154 3.60224,8.67691154 L3.572,8.71039154 L3.12632,8.71039154 L3.33152,8.00983154 L3.33152,7.99003154 L3.12632,7.28983154 L3.572,7.28983154 L3.60224,7.32403154 C3.71384,7.45111154 3.81644,7.57459154 3.91076,7.69951154 L3.95864,7.76215154 C4.13936,7.74235154 4.32836,7.72219154 4.51412,7.70599154 L3.91796,6.31171154 L4.34672,6.31171154 L4.37588,6.34231154 C4.71608,6.70159154 5.04728,7.07995154 5.36336,7.47199154 C5.41772,7.53931154 5.471,7.60699154 5.52572,7.67611154 C5.97608,7.68871154 6.58844,7.73191154 6.75188,7.87231154 L6.78608,7.90183154 L6.78608,8.09047154 L6.78608,8.09047154 Z M12.98348,10.8361915 C11.987,10.9193515 10.99016,10.9729915 9.49508,10.9989115 L9.49508,10.6540315 C9.49508,10.6540315 9.62144,10.6590715 9.66068,10.6594315 C9.75608,10.6597915 9.99368,10.6518715 9.99368,10.6345915 L9.99368,9.86671154 C9.99368,9.84943154 9.75608,9.84151154 9.66068,9.84151154 C9.62144,9.84151154 9.49508,9.84439154 9.49508,9.84691154 L9.49508,9.15391154 C9.49508,9.15391154 9.62144,9.15859154 9.66068,9.15967154 C9.75608,9.15967154 9.99368,9.15139154 9.99368,9.13447154 L9.99368,8.36659154 C9.99368,8.34895154 9.75608,8.34103154 9.66068,8.34103154 C9.62144,8.34103154 9.49508,8.34391154 9.49508,8.34643154 L9.49508,7.65379154 C9.49508,7.65379154 9.62144,7.65883154 9.66068,7.65883154 C9.75608,7.65919154 9.99368,7.65127154 9.99368,7.63363154 L9.99368,6.86611154 C9.99368,6.84883154 9.75608,6.84055154 9.66068,6.84127154 C9.62144,6.84127154 9.49508,6.84415154 9.49508,6.84631154 L9.49508,6.15331154 C9.49508,6.15331154 9.62144,6.15835154 9.66068,6.15835154 C9.75608,6.15907154 9.99368,6.15079154 9.99368,6.13315154 L9.99368,5.36599154 C9.99368,5.34835154 9.75608,5.34043154 9.66068,5.34043154 C9.62144,5.34043154 9.49508,5.34331154 9.49508,5.34619154 L9.49508,5.00275154 C10.99016,5.02939154 11.987,5.08267154 12.98348,5.16763154 L12.98348,10.8361915 L12.98348,10.8361915 Z"></path>
        </g>
    </g>
</svg>