<?xml version="1.0" encoding="UTF-8" standalone="no"?>
<svg width="16px" height="16px" viewBox="0 0 16 16" version="1.1" xmlns="http://www.w3.org/2000/svg" xmlns:xlink="http://www.w3.org/1999/xlink">
    <!-- Generator: Sketch 3.6.1 (26313) - http://www.bohemiancoding.com/sketch -->
    <title>botiquin</title>
    <desc>Created with Sketch.</desc>
    <defs></defs>
    <g id="Page-1" stroke="none" stroke-width="1" fill="none" fill-rule="evenodd">
        <g id="botiquin" fill="#000000">
            <path d="M2.92589918,12.2666767 C2.73077918,10.4846767 2.67353918,8.40027667 3.10121918,6.16467667 C3.12029918,6.06747667 3.19769918,5.99547667 3.29561918,5.98107667 C4.16681918,5.85147667 4.95305918,5.75427667 5.69465918,5.68587667 L6.02153918,4.33947667 C6.08093918,4.09467667 6.27713918,3.91107667 6.52265918,3.86787667 C7.51409918,3.68787667 8.63189918,3.68787667 9.46601918,3.87147667 C9.71333918,3.92907667 9.91961918,4.10187667 9.98009918,4.34667667 L10.3040992,5.68227667 C11.0446192,5.74707667 11.8304992,5.84787667 12.7056592,5.98107667 C12.8024992,5.99547667 12.8795392,6.06747667 12.8971792,6.16467667 C13.3262992,8.40027667 13.2697792,10.4846767 13.0739392,12.2666767 L2.92589918,12.2666767 L2.92589918,12.2666767 Z M6.78869918,5.96307667 L9.21113918,5.96307667 C9.17333918,5.68587667 9.14345918,5.48427667 9.12941918,5.39427667 L9.12149918,5.34747667 C9.09593918,5.16387667 9.06029918,4.93707667 9.03653918,4.78947667 C8.34713918,4.59867667 7.65197918,4.59867667 6.96113918,4.78947667 C6.93809918,4.93347667 6.90245918,5.16027667 6.87653918,5.34747667 L6.87005918,5.39427667 C6.85781918,5.47347667 6.82865918,5.67507667 6.78869918,5.96307667 L6.78869918,5.96307667 Z M9.49301918,8.89707667 L8.37701918,8.89707667 L8.37701918,7.78107667 L7.62281918,7.78107667 L7.62281918,8.89707667 L6.50645918,8.89707667 L6.50645918,9.65307667 L7.62281918,9.65307667 L7.62281918,10.7690767 L8.37701918,10.7690767 L8.37701918,9.65307667 L9.49301918,9.65307667 L9.49301918,8.89707667 L9.49301918,8.89707667 Z"></path>
        </g>
    </g>
</svg>