<?xml version="1.0" encoding="UTF-8" standalone="no"?>
<svg width="16px" height="16px" viewBox="0 0 16 16" version="1.1" xmlns="http://www.w3.org/2000/svg" xmlns:xlink="http://www.w3.org/1999/xlink">
    <!-- Generator: Sketch 3.7.1 (28215) - http://www.bohemiancoding.com/sketch -->
    <title>bus</title>
    <desc>Created with Sketch.</desc>
    <defs></defs>
    <g id="Page-1" stroke="none" stroke-width="1" fill="none" fill-rule="evenodd">
        <g id="bus" fill="#000000">
            <path d="M4.66037958,9.51471842 C4.04463499,9.51471842 3.5453537,10.0136573 3.5453537,10.6295731 C3.5453537,11.2455317 4.04446378,11.7444278 4.66037958,11.7444278 C5.27650938,11.7444278 5.77540546,11.2455317 5.77540546,10.6295731 C5.77540546,10.0136573 5.27650938,9.51471842 4.66037958,9.51471842 L4.66037958,9.51471842 Z M4.66037958,11.114259 C4.39269804,11.114259 4.17569365,10.8974258 4.17569365,10.6295731 C4.17569365,10.3617203 4.39269804,10.1448872 4.66037958,10.1448872 C4.92806112,10.1448872 5.14523671,10.3617203 5.14523671,10.6295731 C5.14523671,10.8974258 4.92806112,11.114259 4.66037958,11.114259 Z M11.2058653,9.51471842 C10.5900779,9.51471842 10.0910106,10.0136573 10.0910106,10.6295731 C10.0910106,11.2455317 10.5900779,11.7444278 11.2058653,11.7444278 C11.8219951,11.7444278 12.3208911,11.2455317 12.3208911,10.6295731 C12.3208911,10.0136573 11.8219951,9.51471842 11.2058653,9.51471842 Z M11.2058653,11.114259 C10.9381837,11.114259 10.7213505,10.8974258 10.7213505,10.6295731 C10.7213505,10.3617203 10.9381837,10.1448872 11.2058653,10.1448872 C11.473718,10.1448872 11.6907224,10.3617203 11.6907224,10.6295731 C11.6907224,10.8974258 11.473718,11.114259 11.2058653,11.114259 Z M13.3337495,5 L3.33254388,5 C2.96603332,5 2.60641383,5.29374775 2.53300899,5.65272522 L2.13324155,7.11200479 C2.06000792,7.47111067 2,8.0646412 2,8.43115176 L2,9.96349376 C2,10.3297903 2.29978278,10.6295731 2.66625054,10.6295731 L3.34559838,10.6295731 C3.34559838,9.90481269 3.93544797,9.3149203 4.66037958,9.3149203 C5.38535399,9.3149203 5.97520358,9.90464148 5.97520358,10.6295731 L9.89104126,10.6295731 C9.89104126,9.90481269 10.4809336,9.3149203 11.2058653,9.3149203 C11.9309681,9.3149203 12.5206892,9.90464148 12.5206892,10.6295731 L13.3337495,10.6295731 C13.7002172,10.6295731 14,10.3297903 14,9.96349376 L14,5.66625054 C14,5.29978278 13.7002172,5 13.3337495,5 Z M4.76858216,7.8110414 L3.21599498,7.8110414 L3.46210449,7.22833969 C3.50490614,7.12651455 3.4572679,7.00932363 3.35561397,6.96635077 C3.25396004,6.92337791 3.13676912,6.97118735 3.09379626,7.07284128 L2.78883448,7.79529039 C2.58283012,7.74131751 2.45746407,7.54836765 2.49992331,7.31980682 L2.85804475,5.8904456 C2.90820829,5.62028156 3.17404936,5.39925382 3.44892158,5.39925382 L4.76875337,5.39925382 L4.76875337,7.8110414 L4.76858216,7.8110414 Z M5.1683068,7.8110414 L7.7334099,7.8110414 L7.7334099,5.39925382 L5.1683068,5.39925382 L5.1683068,7.8110414 Z M8.13300614,7.8110414 L10.6981092,7.8110414 L10.6981092,5.39925382 L8.13300614,5.39925382 L8.13300614,7.8110414 Z M13.5915438,7.3114605 C13.5915438,7.58616151 13.3666639,7.8110414 13.0918345,7.8110414 L11.0978767,7.8110414 L11.0978767,5.39925382 L13.0918345,5.39925382 C13.3666639,5.39925382 13.5915438,5.62413371 13.5915438,5.89900593 L13.5915438,7.3114605 Z" id="Combined-Shape" transform="translate(8.000000, 8.372214) scale(-1, 1) translate(-8.000000, -8.372214) "></path>
        </g>
    </g>
</svg>