<?xml version="1.0" encoding="UTF-8" standalone="no"?>
<svg width="16px" height="16px" viewBox="0 0 16 16" version="1.1" xmlns="http://www.w3.org/2000/svg" xmlns:xlink="http://www.w3.org/1999/xlink">
    <!-- Generator: Sketch 3.6.1 (26313) - http://www.bohemiancoding.com/sketch -->
    <title>buscar</title>
    <desc>Created with Sketch.</desc>
    <defs></defs>
    <g id="Page-1" stroke="none" stroke-width="1" fill="none" fill-rule="evenodd">
        <g id="buscar" fill="#000000">
            <path d="M11.389625,10.2644 C11.073545,9.9476 10.520225,9.4688 10.020545,9.0476 C11.114945,7.4924 10.970585,5.3288 9.579905,3.9392 C8.022545,2.384 5.497505,2.384 3.940145,3.9392 C2.382425,5.498 2.382425,8.0216 3.940145,9.5804 C5.331185,10.97 7.492985,11.114 9.049265,10.0196 C9.469025,10.52 9.949625,11.0708 10.266065,11.3876 C10.978505,12.1004 11.871305,12.8096 12.390065,13.2272 C12.468185,13.166 12.643865,12.9968 12.821705,12.8204 C12.996665,12.644 13.165865,12.4676 13.228145,12.3884 C12.811985,11.87 12.102425,10.9772 11.389625,10.2644 M4.635665,8.882 C3.464585,7.712 3.463505,5.8076 4.635665,4.634 C5.806745,3.464 7.712585,3.464 8.883665,4.634 C9.917225,5.6672 10.037105,7.2728 9.246905,8.4392 C9.163385,8.5112 8.999945,8.666 8.833625,8.8316 C8.668025,8.9972 8.512145,9.1628 8.441585,9.2456 C7.274105,10.0376 5.668865,9.9152 4.635665,8.882"></path>
        </g>
    </g>
</svg>