<?xml version="1.0" encoding="UTF-8" standalone="no"?>
<svg width="16px" height="16px" viewBox="0 0 16 16" version="1.1" xmlns="http://www.w3.org/2000/svg" xmlns:xlink="http://www.w3.org/1999/xlink">
    <!-- Generator: Sketch 3.6.1 (26313) - http://www.bohemiancoding.com/sketch -->
    <title>busqueda_de_equipaje</title>
    <desc>Created with Sketch.</desc>
    <defs></defs>
    <g id="Page-1" stroke="none" stroke-width="1" fill="none" fill-rule="evenodd">
        <g id="busqueda_de_equipaje" fill="#000000">
            <path d="M11.86289,10.58255 C11.50217,10.22255 10.87217,9.67535 10.30301,9.19655 C11.55005,7.42175 11.38517,4.95935 9.79973,3.37175 C8.02457,1.59695 5.14673,1.59695 3.37265,3.37175 C1.59785,5.14655 1.59785,8.02655 3.37265,9.80135 C4.95845,11.38535 7.42193,11.55095 9.19457,10.30175 C9.67337,10.87415 10.22165,11.50415 10.58201,11.86415 C11.39417,12.67415 12.41189,13.48415 13.00301,13.95935 C13.09193,13.88735 13.29245,13.69655 13.49477,13.49495 C13.69421,13.29335 13.88681,13.09175 13.95845,13.00535 C13.48325,12.41135 12.67505,11.39615 11.86289,10.58255 L11.86289,10.58255 Z M6.07625,6.24455 C6.10937,5.98895 6.13601,5.79815 6.14429,5.74775 L6.14789,5.72615 C6.15941,5.64695 6.17417,5.54975 6.18353,5.48855 C6.48053,5.40575 6.77933,5.40575 7.07633,5.48855 C7.08569,5.54975 7.10045,5.64695 7.11233,5.72615 L7.11521,5.74775 C7.12565,5.80895 7.15301,5.99615 7.18325,6.24455 L6.07625,6.24455 L6.07625,6.24455 Z M9.43865,8.47655 C9.43613,7.52255 9.36521,7.06895 9.24209,6.25895 L9.22733,6.25895 C9.13805,6.09695 8.49653,5.96015 7.61309,5.89895 C7.59761,5.78735 7.58501,5.70095 7.57673,5.65415 C7.56269,5.54975 7.54217,5.41655 7.53245,5.35535 C7.50833,5.20775 7.37801,5.07095 7.22465,5.02415 C6.83045,4.90895 6.42977,4.90895 6.03521,5.02415 C5.88221,5.07095 5.75333,5.20775 5.72777,5.35895 C5.71841,5.41655 5.69789,5.54975 5.68457,5.65415 C5.67665,5.70095 5.66405,5.78735 5.64821,5.89895 C4.76441,5.96015 4.12181,6.09695 4.03289,6.25895 L4.01813,6.25895 C3.89285,7.08335 3.82157,7.53695 3.82157,8.52695 C3.82157,8.55215 3.82157,8.57375 3.82229,8.59895 C2.84669,7.26335 2.95793,5.37335 4.16537,4.16735 C5.50025,2.83175 7.67141,2.83175 9.00665,4.16735 C10.17593,5.33375 10.31849,7.14455 9.43865,8.47655 L9.43865,8.47655 Z"></path>
        </g>
    </g>
</svg>