<?xml version="1.0" encoding="UTF-8" standalone="no"?>
<svg width="16px" height="16px" viewBox="0 0 16 16" version="1.1" xmlns="http://www.w3.org/2000/svg" xmlns:xlink="http://www.w3.org/1999/xlink">
    <!-- Generator: Sketch 3.6.1 (26313) - http://www.bohemiancoding.com/sketch -->
    <title>butaca_180g</title>
    <desc>Created with Sketch.</desc>
    <defs></defs>
    <g id="Page-1" stroke="none" stroke-width="1" fill="none" fill-rule="evenodd">
        <g id="butaca_180g" fill="#000000">
            <path d="M6.27900054,9.95282 C6.57456054,9.7037 6.51444054,9.44918 6.28224054,9.17378 C6.05004054,8.89766 5.80956054,8.79578 5.51400054,9.04454 C5.21808054,9.29402 5.27820054,9.54818 5.51076054,9.8243 C5.74260054,10.0997 5.98308054,10.20122 6.27900054,9.95282 Z M7.64592054,12.13478 L10.5889205,12.19634 C10.7959205,12.19706 11.1019205,12.19634 11.1418805,11.96414 C11.1915605,11.68442 11.0367605,11.58074 10.6555205,11.53718 L8.60316054,11.26934 C8.27052054,10.71566 6.67932054,10.03418 6.67932054,10.03418 C6.67932054,10.03418 6.14904054,10.06982 5.89668054,10.32434 C5.89668054,10.32434 7.49328054,11.94794 7.64592054,12.13478 Z M7.51308054,12.38786 C6.94572054,11.39822 5.54676054,10.47122 5.54676054,10.47122 C5.77068054,10.1303 5.03808054,9.25802 4.62192054,9.37898 L4.35084054,9.46178 L4.34904054,9.46178 C4.34904054,9.46178 5.67708054,11.76722 6.01944054,12.28706 C6.36072054,12.80654 7.26180054,14.50178 7.26180054,14.50178 L9.61152054,14.50178 C9.97332054,14.15402 10.1392805,13.7717 10.1392805,13.7717 C10.4895605,13.08374 10.7847605,13.47758 11.1022805,13.08626 C11.1876005,12.98186 11.3071205,12.53222 11.3071205,12.53222 C10.9496405,12.29318 8.56752054,12.23162 7.51308054,12.38786 Z M11.4010805,8.87318 L10.9618805,8.87318 C10.9618805,7.14554 9.55608054,5.73974 7.82808054,5.73974 C6.10044054,5.73974 4.69464054,7.14554 4.69464054,8.87318 L4.25508054,8.87318 C4.25508054,6.90326 5.85780054,5.30054 7.82808054,5.30054 C9.79836054,5.30054 11.4010805,6.90326 11.4010805,8.87318 Z M5.67129135,3.47686757 L6.12457027,3.47686757 L6.12457027,2.17272378 C6.12457027,2.12218731 6.12611728,2.06907325 6.12921135,2.01338 L5.80742973,2.2825627 C5.7940221,2.29390762 5.78035683,2.30164268 5.76643351,2.30576811 C5.7525102,2.30989353 5.73884493,2.31195622 5.7254373,2.31195622 C5.70481017,2.31195622 5.68598819,2.30757302 5.66897081,2.29880649 C5.65195343,2.29003996 5.6393195,2.27998438 5.63106865,2.26863946 L5.51040054,2.10310757 L6.19263946,1.52297243 L6.50668595,1.52297243 L6.50668595,3.47686757 L6.90891297,3.47686757 L6.90891297,3.76306757 L5.67129135,3.76306757 L5.67129135,3.47686757 Z M7.94696811,3.78782 C7.83145618,3.78782 7.72600156,3.77234988 7.63060108,3.74140919 C7.5352006,3.71046849 7.45346683,3.6666365 7.3853973,3.60991189 C7.31732777,3.55318728 7.26447154,3.4846031 7.22682703,3.4041573 C7.18918251,3.32371149 7.17036054,3.23398482 7.17036054,3.13497459 C7.17036054,3.00296096 7.20284778,2.89131829 7.26782324,2.80004324 C7.3327987,2.70876819 7.43387012,2.64095752 7.57104054,2.59660919 C7.46171675,2.5512295 7.37998297,2.48677069 7.32583676,2.40323081 C7.27169054,2.31969093 7.24461784,2.21913518 7.24461784,2.10156054 C7.24461784,2.01698931 7.2618928,1.93809172 7.29644324,1.86486541 C7.33099369,1.79163909 7.37920888,1.72795378 7.44109027,1.67380757 C7.50297166,1.61966135 7.57697038,1.57737637 7.66308865,1.54695135 C7.74920692,1.51652633 7.84383246,1.50131405 7.94696811,1.50131405 C8.05010376,1.50131405 8.1447293,1.51652633 8.23084757,1.54695135 C8.31696584,1.57737637 8.39096456,1.61966135 8.45284595,1.67380757 C8.51472734,1.72795378 8.56294253,1.79163909 8.59749297,1.86486541 C8.63204342,1.93809172 8.64931838,2.01698931 8.64931838,2.10156054 C8.64931838,2.21913518 8.62198784,2.31969093 8.56732595,2.40323081 C8.51266405,2.48677069 8.43118811,2.5512295 8.32289568,2.59660919 C8.46006609,2.64095752 8.56113751,2.70876819 8.62611297,2.80004324 C8.69108843,2.89131829 8.72357568,3.00296096 8.72357568,3.13497459 C8.72357568,3.23398482 8.7047537,3.32371149 8.66710919,3.4041573 C8.62946468,3.4846031 8.57660845,3.55318728 8.50853892,3.60991189 C8.44046939,3.6666365 8.35873561,3.71046849 8.26333514,3.74140919 C8.16793466,3.77234988 8.06248004,3.78782 7.94696811,3.78782 Z M7.94696811,3.48924378 C8.00988086,3.48924378 8.0650576,3.48021955 8.1125,3.46217081 C8.1599424,3.44412207 8.19990686,3.41911205 8.23239459,3.38714 C8.26488232,3.35516795 8.28937667,3.31700833 8.30587838,3.27266 C8.32238008,3.22831167 8.33063081,3.18035431 8.33063081,3.12878649 C8.33063081,3.00605506 8.29659656,2.91323437 8.22852703,2.85032162 C8.1604575,2.78740887 8.06660546,2.75595297 7.94696811,2.75595297 C7.82733075,2.75595297 7.73347872,2.78740887 7.66540919,2.85032162 C7.59733966,2.91323437 7.56330541,3.00605506 7.56330541,3.12878649 C7.56330541,3.18035431 7.57155613,3.22831167 7.58805784,3.27266 C7.60455954,3.31700833 7.62905389,3.35516795 7.66154162,3.38714 C7.69402935,3.41911205 7.73399382,3.44412207 7.78143622,3.46217081 C7.82887862,3.48021955 7.88405536,3.48924378 7.94696811,3.48924378 Z M7.94696811,2.45582973 C8.0088495,2.45582973 8.06093222,2.44603199 8.10321784,2.42643622 C8.14550345,2.40684044 8.17953771,2.38079908 8.20532162,2.34831135 C8.23110553,2.31582362 8.24941184,2.27869534 8.26024108,2.23692541 C8.27107032,2.19515547 8.27648486,2.15209698 8.27648486,2.10774865 C8.27648486,2.06546303 8.26978115,2.02524073 8.25637351,1.98708054 C8.24296588,1.94892035 8.22285473,1.91514393 8.19603946,1.88575027 C8.16922419,1.85635661 8.13518994,1.8328936 8.09393568,1.81536054 C8.05268142,1.79782748 8.00369272,1.78906108 7.94696811,1.78906108 C7.8902435,1.78906108 7.8412548,1.79782748 7.80000054,1.81536054 C7.75874628,1.8328936 7.72445419,1.85635661 7.69712324,1.88575027 C7.6697923,1.91514393 7.64968115,1.94892035 7.63678919,1.98708054 C7.62389723,2.02524073 7.61745135,2.06546303 7.61745135,2.10774865 C7.61745135,2.15209698 7.62286589,2.19515547 7.63369514,2.23692541 C7.64452438,2.27869534 7.66283068,2.31582362 7.68861459,2.34831135 C7.71439851,2.38079908 7.74843276,2.40684044 7.79071838,2.42643622 C7.833004,2.44603199 7.88508672,2.45582973 7.94696811,2.45582973 Z M10.5614438,2.64456703 C10.5614438,2.83949341 10.5405591,3.00889117 10.4987892,3.15276541 C10.4570193,3.29663964 10.3992642,3.41550169 10.3255222,3.50935514 C10.2517802,3.60320858 10.1646319,3.67308193 10.0640746,3.7189773 C9.96351734,3.76487266 9.85496869,3.78782 9.73842541,3.78782 C9.62188212,3.78782 9.51384915,3.76487266 9.41432324,3.7189773 C9.31479734,3.67308193 9.22842253,3.60320858 9.15519622,3.50935514 C9.0819699,3.41550169 9.02473048,3.29663964 8.98347622,3.15276541 C8.94222196,3.00889117 8.92159514,2.83949341 8.92159514,2.64456703 C8.92159514,2.44860929 8.94222196,2.27895369 8.98347622,2.13559514 C9.02473048,1.99223658 9.0819699,1.87363236 9.15519622,1.77977892 C9.22842253,1.68592548 9.31479734,1.61605212 9.41432324,1.57015676 C9.51384915,1.52426139 9.62188212,1.50131405 9.73842541,1.50131405 C9.85496869,1.50131405 9.96351734,1.52426139 10.0640746,1.57015676 C10.1646319,1.61605212 10.2517802,1.68592548 10.3255222,1.77977892 C10.3992642,1.87363236 10.4570193,1.99223658 10.4987892,2.13559514 C10.5405591,2.27895369 10.5614438,2.44860929 10.5614438,2.64456703 Z M10.1669519,2.64456703 C10.1669519,2.48264406 10.1550915,2.34856972 10.1313703,2.24234 C10.1076491,2.13611028 10.0759353,2.05154031 10.0362281,1.98862757 C9.99652088,1.92571482 9.95088404,1.88162499 9.89931622,1.85635676 C9.84774839,1.83108852 9.79411866,1.81845459 9.73842541,1.81845459 C9.68376351,1.81845459 9.63090728,1.83108852 9.57985514,1.85635676 C9.52880299,1.88162499 9.48368182,1.92571482 9.44449027,1.98862757 C9.40529872,2.05154031 9.37410066,2.13611028 9.35089514,2.24234 C9.32768961,2.34856972 9.31608703,2.48264406 9.31608703,2.64456703 C9.31608703,2.80649 9.32768961,2.94056433 9.35089514,3.04679405 C9.37410066,3.15302377 9.40529872,3.23759374 9.44449027,3.30050649 C9.48368182,3.36341923 9.52880299,3.40750906 9.57985514,3.4327773 C9.63090728,3.45804553 9.68376351,3.47067946 9.73842541,3.47067946 C9.79411866,3.47067946 9.84774839,3.45804553 9.89931622,3.4327773 C9.95088404,3.40750906 9.99652088,3.36341923 10.0362281,3.30050649 C10.0759353,3.23759374 10.1076491,3.15302377 10.1313703,3.04679405 C10.1550915,2.94056433 10.1669519,2.80649 10.1669519,2.64456703 Z M11.2421357,1.49822 C11.3163933,1.49822 11.3844619,1.50956475 11.4463432,1.53225459 C11.5082246,1.55494444 11.5613387,1.58717385 11.605687,1.62894378 C11.6500354,1.67071372 11.6843274,1.7217651 11.7085643,1.78209946 C11.7328012,1.84243382 11.7449195,1.91024449 11.7449195,1.98553351 C11.7449195,2.0618539 11.7328012,2.13069591 11.7085643,2.19206162 C11.6843274,2.25342733 11.6500354,2.30551006 11.605687,2.34831135 C11.5613387,2.39111265 11.5082246,2.42385772 11.4463432,2.44654757 C11.3844619,2.46923741 11.3163933,2.48058216 11.2421357,2.48058216 C11.1658153,2.48058216 11.0964576,2.46923741 11.0340605,2.44654757 C10.9716635,2.42385772 10.9182916,2.39111265 10.8739432,2.34831135 C10.8295949,2.30551006 10.795045,2.25342733 10.7702924,2.19206162 C10.7455399,2.13069591 10.7331638,2.0618539 10.7331638,1.98553351 C10.7331638,1.91024449 10.7455399,1.84243382 10.7702924,1.78209946 C10.795045,1.7217651 10.8295949,1.67071372 10.8739432,1.62894378 C10.9182916,1.58717385 10.9716635,1.55494444 11.0340605,1.53225459 C11.0964576,1.50956475 11.1658153,1.49822 11.2421357,1.49822 Z M11.2421357,2.25781027 C11.3112366,2.25781027 11.3625458,2.23589427 11.3960649,2.19206162 C11.429584,2.14822897 11.4463432,2.0804183 11.4463432,1.98862757 C11.4463432,1.89683684 11.429584,1.829284 11.3960649,1.78596703 C11.3625458,1.74265005 11.3112366,1.72099189 11.2421357,1.72099189 C11.1689094,1.72099189 11.1155375,1.74265005 11.0820184,1.78596703 C11.0484993,1.829284 11.03174,1.89683684 11.03174,1.98862757 C11.03174,2.0804183 11.0484993,2.14822897 11.0820184,2.19206162 C11.1155375,2.23589427 11.1689094,2.25781027 11.2421357,2.25781027 Z"></path>
        </g>
    </g>
</svg>