<?xml version="1.0" encoding="UTF-8" standalone="no"?>
<svg width="16px" height="16px" viewBox="0 0 16 16" version="1.1" xmlns="http://www.w3.org/2000/svg" xmlns:xlink="http://www.w3.org/1999/xlink">
    <!-- Generator: Sketch 3.6.1 (26313) - http://www.bohemiancoding.com/sketch -->
    <title>buzon_de_sugerencias</title>
    <desc>Created with Sketch.</desc>
    <defs></defs>
    <g id="Page-1" stroke="none" stroke-width="1" fill="none" fill-rule="evenodd">
        <g id="buzon_de_sugerencias" fill="#000000">
            <path d="M13.2106021,9.12374 L13.2106021,6.45254 L13.2052021,6.4457 L13.2048421,6.4457 C13.2048421,6.4457 13.1033221,5.05286 11.3544421,5.0057 L10.5674821,5.0057 L10.5674821,5.67782 C10.8947221,5.9039 11.0966821,6.2783 11.0966821,6.68582 C11.0966821,7.3619 10.5466021,7.91198 9.87052205,7.91198 C9.19408205,7.91198 8.64364205,7.3619 8.64364205,6.68582 C8.64364205,6.30494 8.82148205,5.95178 9.11812205,5.7221 L9.11848205,5.0057 L5.38456205,5.0057 C3.63568205,5.05286 3.53380205,6.4457 3.53380205,6.4457 L3.53380205,10.57958 L4.12600205,10.57958 L2.85880205,11.69162 C2.57836205,11.9375 3.19072205,12.13766 3.78112205,12.13766 L3.80668205,12.13766 C4.39708205,12.13766 5.10448205,11.9375 5.38528205,11.69162 L6.65248205,10.57958 L8.20300205,10.57958 L8.20300205,13.24142 L9.69592205,13.24142 L9.69592205,10.57958 L13.2113221,10.57958 L13.2106021,9.12374 L13.2106021,9.12374 Z M6.82708205,9.82754 L4.22140205,9.82754 L4.22140205,6.79238 C4.22140205,6.21818 4.79920205,5.75054 5.50876205,5.75054 L5.53972205,5.75054 C6.25000205,5.75054 6.82708205,6.21818 6.82708205,6.79238 L6.82708205,9.82754 L6.82708205,9.82754 Z M9.46804205,2.75858 L10.9627621,2.75858 L10.9627621,3.50666 L10.2182821,3.50666 L10.2182821,5.88122 C10.5296821,6.01586 10.7478421,6.32546 10.7478421,6.68582 C10.7478421,7.17038 10.3547221,7.5635 9.87052205,7.5635 C9.38596205,7.5635 8.99320205,7.17038 8.99320205,6.68582 C8.99320205,6.34778 9.18616205,6.05726 9.46660205,5.9111 L9.46804205,2.75858 L9.46804205,2.75858 Z"></path>
        </g>
    </g>
</svg>