<?xml version="1.0" encoding="UTF-8" standalone="no"?>
<svg width="16px" height="16px" viewBox="0 0 16 16" version="1.1" xmlns="http://www.w3.org/2000/svg" xmlns:xlink="http://www.w3.org/1999/xlink">
    <!-- Generator: Sketch 3.6.1 (26313) - http://www.bohemiancoding.com/sketch -->
    <title>c_barra_de_vinos</title>
    <desc>Created with Sketch.</desc>
    <defs></defs>
    <g id="Page-1" stroke="none" stroke-width="1" fill="none" fill-rule="evenodd">
        <g id="c_barra_de_vinos" fill="#000000">
            <path d="M10.82258,13.4702 L10.82258,10.5398 C11.63546,10.3058 12.26042,8.9666 12.26042,7.3394 C12.26042,7.2602 12.25718,7.1846 12.2543,7.109 L8.89154,7.109 C8.88902,7.1846 8.88614,7.2602 8.88614,7.3394 C8.88614,8.9954 9.53234,10.3562 10.36718,10.5542 L10.36718,13.4702 C10.00538,13.4846 9.5903,13.5422 8.8811,13.6358 L8.8811,13.9202 L12.2651,13.9202 L12.2651,13.6358 C11.58182,13.5422 11.17898,13.4882 10.82258,13.4702 M9.38942,7.7894 C9.38942,7.7354 9.39158,7.6814 9.39374,7.6274 L11.75246,7.6274 C11.75426,7.6814 11.75678,7.7354 11.75678,7.7894 C11.75678,9.0422 11.2265,10.061 10.5731,10.061 C9.91934,10.061 9.38942,9.0422 9.38942,7.7894 Z M6.34346,4.1462 L6.34346,2.0366 L5.17958,2.0366 L5.17958,4.1462 C4.5143,4.5386 3.7349,5.3558 3.7349,6.2846 L3.7349,13.9634 L7.78814,13.9634 L7.78814,6.2846 C7.78814,5.3558 7.00874,4.5386 6.34346,4.1462 Z M5.33222,2.4254 L6.19046,2.4254 L6.19046,2.1842 L5.33222,2.1842 L5.33222,2.4254 Z M5.1983,4.4954 C5.1983,4.4954 4.80482,5.3414 4.80482,5.9318 L4.21946,5.9318 C4.38218,4.7474 5.1983,4.4954 5.1983,4.4954 Z M4.33466,12.2138 L7.30646,12.2138 L7.30646,7.109 L4.33466,7.109 L4.33466,12.2138 Z"></path>
        </g>
    </g>
</svg>