<?xml version="1.0" encoding="UTF-8" standalone="no"?>
<svg width="16px" height="16px" viewBox="0 0 16 16" version="1.1" xmlns="http://www.w3.org/2000/svg" xmlns:xlink="http://www.w3.org/1999/xlink">
    <!-- Generator: Sketch 3.6.1 (26313) - http://www.bohemiancoding.com/sketch -->
    <title>c_bar_autoservicio</title>
    <desc>Created with Sketch.</desc>
    <defs></defs>
    <g id="Page-1" stroke="none" stroke-width="1" fill="none" fill-rule="evenodd">
        <g id="c_bar_autoservicio" fill="#000000">
            <path d="M8.3429,7.1504 L8.34434,7.1504 C10.23866,5.1848 10.57814,4.7204 12.21074,2.06 L3.78926,2.06 C5.4215,4.724 5.76134,5.1848 7.65674,7.1504 L7.65638,7.1504 L7.65674,7.1504 L7.65674,13.2632 C7.11206,13.2884 6.48818,13.3712 5.4215,13.5152 L5.4215,13.94 L10.5137,13.94 L10.5137,13.5152 C9.48518,13.3748 8.87894,13.292 8.3429,13.2632 L8.3429,7.1504 L8.3429,7.1504 Z M4.99886,2.7188 L11.00402,2.7116 L8.01926,6.5204 L4.99886,2.7188 Z M8.76338,2.996 C8.34254,2.996 8.00126,3.338 8.00126,3.7592 C8.00126,4.1768 8.34254,4.5188 8.76338,4.5188 C9.18422,4.5188 9.52586,4.1768 9.52586,3.7592 C9.52586,3.338 9.18422,2.996 8.76338,2.996 Z"></path>
        </g>
    </g>
</svg>