<?xml version="1.0" encoding="UTF-8" standalone="no"?>
<svg width="16px" height="16px" viewBox="0 0 16 16" version="1.1" xmlns="http://www.w3.org/2000/svg" xmlns:xlink="http://www.w3.org/1999/xlink">
    <!-- Generator: Sketch 3.6.1 (26313) - http://www.bohemiancoding.com/sketch -->
    <title>c_comida_perecedera</title>
    <desc>Created with Sketch.</desc>
    <defs></defs>
    <g id="Page-1" stroke="none" stroke-width="1" fill="none" fill-rule="evenodd">
        <g id="c_comida_perecedera" fill="#000000">
            <path d="M4.71658587,9.19010274 C4.46170587,9.44570274 4.72486587,10.1189027 5.30338587,10.6985027 C5.88118587,11.2745027 6.55654587,11.5409027 6.81142587,11.2853027 C7.06666587,11.0297027 6.80314587,10.3565027 6.22498587,9.77690274 C5.64646587,9.19730274 4.97182587,8.93450274 4.71658587,9.19010274 M12.9047859,4.45970274 C12.5282259,4.08530274 11.9162259,4.08530274 11.5407459,4.45970274 C11.9162259,4.08530274 11.9162259,3.47330274 11.5407459,3.09530274 C11.1631059,2.71730274 10.5521859,2.71730274 10.1745459,3.09530274 C9.79726587,3.47330274 9.79726587,4.08530274 10.1745459,4.45970274 C10.2584259,4.54250274 10.3538259,4.60730274 10.4553459,4.65410274 C10.4391459,4.66850274 10.4186259,4.67210274 10.4024259,4.69010274 L8.95018587,6.14090274 C7.68334587,5.29850274 5.95822587,5.43170274 4.84186587,6.55130274 L3.45910587,7.93370274 C2.44066587,8.94890274 2.64730587,10.8101027 3.92062587,12.0809027 C5.19178587,13.3517027 7.05046587,13.5605027 8.06818587,12.5417027 L9.45058587,11.1593027 C10.5683859,10.0433027 10.7026659,8.31890274 9.85990587,7.05170274 L11.3128659,5.59730274 C11.3283459,5.58290274 11.3344659,5.56130274 11.3481459,5.54690274 C11.3945859,5.64770274 11.4561459,5.74130274 11.5407459,5.82770274 C11.9162259,6.20210274 12.5282259,6.20210274 12.9047859,5.82770274 C13.2820659,5.44970274 13.2820659,4.83770274 12.9047859,4.45970274 M7.64986587,12.1241027 C6.88558587,12.8873027 5.42290587,12.6641027 4.38178587,11.6201027 C3.33958587,10.5797027 3.11494587,9.11450274 3.87886587,8.35130274 C4.64242587,7.58810274 6.10510587,7.81490274 7.14694587,8.85530274 C8.18734587,9.89570274 8.41342587,11.3573027 7.64986587,12.1241027"></path>
        </g>
    </g>
</svg>