<?xml version="1.0" encoding="UTF-8" standalone="no"?>
<svg width="16px" height="16px" viewBox="0 0 16 16" version="1.1" xmlns="http://www.w3.org/2000/svg" xmlns:xlink="http://www.w3.org/1999/xlink">
    <!-- Generator: Sketch 3.6.1 (26313) - http://www.bohemiancoding.com/sketch -->
    <title>c_comidas_nuevas</title>
    <desc>Created with Sketch.</desc>
    <defs></defs>
    <g id="Page-1" stroke="none" stroke-width="1" fill="none" fill-rule="evenodd">
        <g id="c_comidas_nuevas" fill="#000000">
            <path d="M14.0138,5.2928 L14.11172,5.0912 C13.95908,4.922 13.23548,4.6232 12.8438,4.5836 L12.33404,6.2072 C12.19616,6.2 12.0536,6.1964 11.90312,6.1964 C11.21048,6.1964 10.3274,6.326 10.3274,6.326 C10.3274,6.326 10.32164,7.5176 10.53764,8.4788 L10.92392,10.7648 C9.99332,10.7396 9.04616,10.7252 8.0882,10.7216 C8.47988,10.5812 9.0962,10.3472 9.5552,10.1024 C9.7928,9.9764 10.09736,9.7244 10.3274,9.3752 C10.3274,9.3752 8.1494,9.2384 6.12332,9.2384 C4.09616,9.2384 1.89872,9.3752 1.89872,9.3752 C2.07224,9.7352 2.43188,9.9764 2.67056,10.1024 C3.19112,10.376 3.88232,10.6316 4.25492,10.7612 C3.46616,10.7828 2.67596,10.808 1.88828,10.844 L1.88828,11.4164 L13.81364,11.4164 L13.81364,10.88 C13.508,10.8656 13.19552,10.8512 12.88412,10.8368 L13.26572,8.4788 C13.47812,7.604 13.47812,6.3368 13.47812,6.3368 C13.47812,6.3368 13.16708,6.2756 12.70916,6.2324 L13.1192,4.9724 C13.67612,5.0912 14.0138,5.2928 14.0138,5.2928 L14.0138,5.2928 Z M12.14972,6.794 L11.90456,7.5752 L11.04956,7.658 C10.8926,7.3052 10.83608,6.794 10.83608,6.794 L12.14972,6.794 L12.14972,6.794 Z M12.96656,6.794 C12.96656,6.794 12.95324,7.2872 12.82436,7.712 L12.26996,7.5824 L12.52664,6.794 L12.96656,6.794 Z M5.90624,8.0252 C5.53076,7.0352 6.09164,7.1576 6.68276,6.9596 C7.775,6.5852 7.75808,6.1352 7.4852,5.6672 L7.14536,5.7932 C7.397,6.2252 7.29296,6.38 6.42752,6.6464 C5.88248,6.812 5.34824,6.8444 5.3972,7.6688 C5.40872,7.8632 5.4746,8.0252 5.4746,8.0252 L5.90624,8.0252 Z M7.57844,7.2152 C6.9956,7.28 6.641,7.6436 6.7094,8.2088 L7.12484,8.2052 C7.02512,7.6148 7.57196,7.6652 7.90316,7.568 C9.33092,7.1468 8.23472,5.282 8.03312,4.9724 L7.68248,5.0624 C7.80524,5.3792 8.95652,7.064 7.57844,7.2152 Z M8.28008,8.63 C7.5248,8.4356 7.22636,8.918 6.542,8.6516 C5.98436,8.432 5.08904,8.3276 4.54292,8.4248 C3.6188,8.5868 3.41828,9.026 3.41828,9.026 L8.82764,9.026 C8.82764,9.026 8.6246,8.7164 8.28008,8.63 Z"></path>
        </g>
    </g>
</svg>