<?xml version="1.0" encoding="UTF-8" standalone="no"?>
<svg width="16px" height="16px" viewBox="0 0 16 16" version="1.1" xmlns="http://www.w3.org/2000/svg" xmlns:xlink="http://www.w3.org/1999/xlink">
    <!-- Generator: Sketch 3.6.1 (26313) - http://www.bohemiancoding.com/sketch -->
    <title>c_comidas_dieteticas</title>
    <desc>Created with Sketch.</desc>
    <defs></defs>
    <g id="Page-1" stroke="none" stroke-width="1" fill="none" fill-rule="evenodd">
        <g id="c_comidas_dieteticas" fill="#000000">
            <path d="M11.90312,8.96915036 C11.90312,8.58395036 11.8592,8.20955036 11.7746,7.85675036 C11.74256,7.66955036 11.68712,7.49315036 11.61332,7.32755036 C11.29004,6.59675036 10.59272,6.09275036 9.7874,6.09275036 C9.32264,6.09275036 8.89388,6.26195036 8.55152,6.54275036 C8.17208,6.79115036 7.80704,6.79475036 7.45532,6.54995036 C7.1126,6.26195036 6.68204,6.09275036 6.21368,6.09275036 C5.408,6.09275036 4.7114,6.59675036 4.38668,7.32755036 C4.3136,7.49315036 4.25816,7.66955036 4.22648,7.85675036 C4.14152,8.20955036 4.09688,8.58395036 4.09688,8.96915036 C4.09688,11.1831504 5.59664,13.0011504 7.5068,13.1883504 C7.61372,13.1991504 7.94312,13.1991504 8.00108,13.1991504 C8.05688,13.1991504 8.38628,13.1991504 8.49392,13.1883504 C10.40444,13.0011504 11.90312,11.1831504 11.90312,8.96915036 M11.20076,8.56235036 C11.20076,9.14195036 10.745,9.51635036 10.30436,9.87635036 C10.09628,10.0455504 9.82844,10.2327504 9.59768,10.4163504 C9.37232,10.2399504 9.10484,10.0455504 8.8964,9.87635036 C8.45612,9.51635036 8.00036,9.14195036 8.00036,8.56235036 C8.00036,8.04035036 8.3672,7.67315036 8.89244,7.67315036 C9.197,7.67315036 9.45728,7.88915036 9.6002,8.04035036 C9.74384,7.88915036 10.00412,7.67315036 10.30868,7.67315036 C10.83392,7.67315036 11.20076,8.04035036 11.20076,8.56235036 M9.854,4.81115036 C10.43108,4.28915036 10.69928,3.55475036 10.64852,2.83835036 C9.93896,2.71235036 9.18116,2.90315036 8.60372,3.42155036 C8.02664,3.93995036 7.75736,4.67435036 7.80884,5.39435036 C8.51804,5.52035036 9.27656,5.32955036 9.854,4.81115036"></path>
        </g>
    </g>
</svg>