<?xml version="1.0" encoding="UTF-8" standalone="no"?>
<svg width="16px" height="16px" viewBox="0 0 16 16" version="1.1" xmlns="http://www.w3.org/2000/svg" xmlns:xlink="http://www.w3.org/1999/xlink">
    <!-- Generator: Sketch 3.6.1 (26313) - http://www.bohemiancoding.com/sketch -->
    <title>c_restaurante</title>
    <desc>Created with Sketch.</desc>
    <defs></defs>
    <g id="Page-1" stroke="none" stroke-width="1" fill="none" fill-rule="evenodd">
        <g id="c_restaurante" fill="#000000">
            <path d="M6.551,2.06 C6.551,2.06 3.57992,3.5432 3.57992,7.2368 L3.57992,7.496 L5.70932,7.496 C5.63156,7.766 4.91012,10.4228 5.71724,13.94 L6.55172,13.94 L6.55172,7.4708 L6.55064,7.4708 L6.551,2.06 L6.551,2.06 Z M5.68808,6.7328 L4.35428,6.7328 C4.6754,4.9256 5.48072,3.878 5.6888,3.878 L5.68808,6.7328 Z M12.04028,2.0924 C11.57696,3.788 11.57696,6.6752 11.57696,6.6752 L10.73384,6.6752 L10.73384,2.1032 L10.3526,2.1032 C9.89036,3.788 9.89036,6.6752 9.89036,6.6752 L9.04724,6.6752 L9.04724,2.1032 L8.67752,2.1032 C8.1998,3.788 8.20376,6.6752 8.20376,6.6752 L8.1998,7.514 L10.06928,7.514 C9.97748,7.8344 9.28448,10.466 10.08188,13.94 L10.91636,13.94 L10.91636,7.514 L12.42008,7.514 L12.42008,2.0924 L12.04028,2.0924 Z"></path>
        </g>
    </g>
</svg>