<?xml version="1.0" encoding="UTF-8" standalone="no"?>
<svg width="16px" height="16px" viewBox="0 0 16 16" version="1.1" xmlns="http://www.w3.org/2000/svg" xmlns:xlink="http://www.w3.org/1999/xlink">
    <!-- Generator: Sketch 3.6.1 (26313) - http://www.bohemiancoding.com/sketch -->
    <title>c_rincon_de_cafe</title>
    <desc>Created with Sketch.</desc>
    <defs></defs>
    <g id="Page-1" stroke="none" stroke-width="1" fill="none" fill-rule="evenodd">
        <g id="c_rincon_de_cafe" fill="#000000">
            <path d="M11.9897,7.1108 C12.04802,6.8552 12.09662,6.596 12.1229,6.3296 L3.09266,6.3296 C3.32486,8.6768 4.22774,10.61 5.99606,11.3264 L5.45534,12.266 L9.6947,12.266 L9.02186,11.204 C9.25586,11.0204 9.49598,10.7864 9.85958,10.502 C10.16738,10.6964 10.52954,10.808 10.91942,10.808 C12.02606,10.808 12.92354,9.9116 12.92354,8.8028 C12.92354,8.09 12.55022,7.4672 11.9897,7.1108 M7.3799,10.8692 C5.09282,10.8692 4.17158,9.2276 3.75866,7.0604 L11.00186,7.0604 C10.58894,9.2276 9.66698,10.8692 7.3799,10.8692 M10.91942,10.052 C10.7567,10.052 10.60226,10.0196 10.4597,9.962 C11.02094,9.3824 11.4695,8.6804 11.76254,7.8884 C12.00986,8.1152 12.16718,8.4392 12.16718,8.8028 C12.16718,9.494 11.6081,10.052 10.91942,10.052 Z M13.08986,13.8428 C13.08986,13.8968 13.05206,13.94 13.00634,13.94 L2.99402,13.94 C2.94794,13.94 2.91014,13.8968 2.91014,13.8428 L2.91014,13.1912 C2.91014,13.1372 2.94794,13.0904 2.99402,13.0904 L13.00634,13.0904 C13.05206,13.0904 13.08986,13.1372 13.08986,13.1912 L13.08986,13.8428 Z M7.12898,2.924 C6.1937,2.924 5.43734,3.6836 5.43734,4.616 L5.43734,5.4692 L4.57298,5.4692 L4.57298,4.616 C4.57298,3.2048 5.7149,2.06 7.12898,2.06 L7.12898,2.924 Z M9.67382,2.924 C8.73854,2.924 7.98218,3.6836 7.98218,4.616 L7.98218,5.4692 L7.11782,5.4692 L7.11782,4.616 C7.11782,3.2048 8.25974,2.06 9.67382,2.06 L9.67382,2.924 Z M12.22982,2.924 C11.29454,2.924 10.53782,3.6836 10.53782,4.616 L10.53782,5.4692 L9.67382,5.4692 L9.67382,4.616 C9.67382,3.2048 10.81538,2.06 12.22982,2.06 L12.22982,2.924 Z"></path>
        </g>
    </g>
</svg>