<?xml version="1.0" encoding="UTF-8" standalone="no"?>
<svg width="16px" height="16px" viewBox="0 0 16 16" version="1.1" xmlns="http://www.w3.org/2000/svg" xmlns:xlink="http://www.w3.org/1999/xlink">
    <!-- Generator: Sketch 3.6.1 (26313) - http://www.bohemiancoding.com/sketch -->
    <title>c_vegetariana</title>
    <desc>Created with Sketch.</desc>
    <defs></defs>
    <g id="Page-1" stroke="none" stroke-width="1" fill="none" fill-rule="evenodd">
        <g id="c_vegetariana" fill="#000000">
            <path d="M13.9984043,7.16732359 C13.9966043,6.05492359 12.8579243,4.89572359 11.5856843,4.89572359 C11.5849643,4.88852359 11.5856843,4.88132359 11.5849643,4.87412359 C11.4895643,4.08932359 10.7627243,3.54932359 9.9894443,3.62492359 C9.6830843,3.65732359 9.5228843,3.76172359 9.1794443,4.01372359 C8.6225243,3.08132359 7.2433643,2.51972359 6.4067243,2.65292359 C5.1719243,2.84732359 3.9515243,4.01372359 3.9202043,5.39612359 C3.8611643,5.39972359 3.8024843,5.40332359 3.7441643,5.41052359 C2.5046843,5.56172359 1.9045643,6.90452359 2.0143643,7.94492359 C2.0834843,8.59652359 2.8229243,9.91772359 4.5970043,9.70532359 C4.5970043,9.70532359 4.8018443,10.3533236 5.0167643,10.7133236 C5.2327643,11.0769236 5.9603243,11.4621236 6.2674043,11.6853236 C5.9974043,12.8193236 6.2371643,13.1829236 6.2371643,13.1829236 C6.2371643,13.1829236 6.4376843,13.3665236 7.5835643,13.3665236 C8.7240443,13.3665236 9.0484043,13.1325236 9.0484043,13.1325236 C9.0484043,13.1325236 9.2885243,12.8409236 9.1016843,11.8977236 C9.3756443,11.6637236 9.9872843,11.0805236 10.2194843,10.7421236 C10.5182843,10.3029236 10.7105243,9.62972359 10.7105243,9.62972359 C10.7105243,9.62972359 11.1022043,9.91772359 11.7700043,9.92492359 C13.0314443,9.93932359 13.9994843,8.61452359 13.9984043,7.16732359 M7.1094443,8.69372359 L6.8696843,10.3029236 C6.8696843,10.3029236 6.5122043,10.0509236 6.4412843,9.95372359 L6.3440843,9.10772359 C6.3440843,9.10772359 6.6551243,9.11492359 6.8351243,8.99612359 C7.0136843,8.88092359 7.1094443,8.69372359 7.1094443,8.69372359 M9.2874443,9.18692359 L9.1301243,9.91772359 L8.6005643,10.3425236 L8.4151643,8.69372359 C8.4151643,8.69372359 8.5501643,8.82692359 8.7290843,8.94212359 C8.9090843,9.05732359 9.2874443,9.18692359 9.2874443,9.18692359"></path>
        </g>
    </g>
</svg>