<?xml version="1.0" encoding="UTF-8" standalone="no"?>
<svg width="16px" height="16px" viewBox="0 0 16 16" version="1.1" xmlns="http://www.w3.org/2000/svg" xmlns:xlink="http://www.w3.org/1999/xlink">
    <!-- Generator: Sketch 3.6.1 (26313) - http://www.bohemiancoding.com/sketch -->
    <title>c_vegetales_perecederos</title>
    <desc>Created with Sketch.</desc>
    <defs></defs>
    <g id="Page-1" stroke="none" stroke-width="1" fill="none" fill-rule="evenodd">
        <g id="c_vegetales_perecederos" fill="#000000">
            <path d="M9.78722,6.09275036 C10.5929,6.09275036 11.28986,6.59675036 11.6135,7.32755036 C11.6873,7.49315036 11.74238,7.66955036 11.77442,7.85675036 C11.85902,8.20955036 11.90294,8.58395036 11.90294,8.96915036 C11.90294,11.1831504 10.40426,13.0011504 8.4941,13.1883504 C8.38646,13.1991504 8.05706,13.1991504 8.0009,13.1991504 C7.94294,13.1991504 7.61354,13.1991504 7.50662,13.1883504 C5.59682,13.0011504 4.09706,11.1831504 4.09706,8.96915036 C4.09706,8.58395036 4.1417,8.20955036 4.2263,7.85675036 C4.25798,7.66955036 4.31342,7.49315036 4.3865,7.32755036 C4.71122,6.59675036 5.40782,6.09275036 6.21386,6.09275036 C6.68186,6.09275036 7.11278,6.26195036 7.45514,6.54995036 C7.80686,6.79475036 8.1719,6.79115036 8.5517,6.54275036 C8.89334,6.26195036 9.32246,6.09275036 9.78722,6.09275036 M10.64834,2.83835036 C10.69946,3.55475036 10.4309,4.28915036 9.85382,4.81115036 C9.27638,5.32955036 8.51786,5.52035036 7.80866,5.39435036 C7.75754,4.67435036 8.02682,3.93995036 8.60354,3.42155036 C9.18098,2.90315036 9.93878,2.71235036 10.64834,2.83835036"></path>
        </g>
    </g>
</svg>