<?xml version="1.0" encoding="UTF-8" standalone="no"?>
<svg width="16px" height="16px" viewBox="0 0 16 16" version="1.1" xmlns="http://www.w3.org/2000/svg" xmlns:xlink="http://www.w3.org/1999/xlink">
    <!-- Generator: Sketch 3.6.1 (26313) - http://www.bohemiancoding.com/sketch -->
    <title>calendario</title>
    <desc>Created with Sketch.</desc>
    <defs></defs>
    <g id="Page-1" stroke="none" stroke-width="1" fill="none" fill-rule="evenodd">
        <g id="calendario" fill="#000000">
            <path d="M12.13262,8.65016 C12.13262,7.44632 12.07142,6.25436 11.95334,5.07608 C11.50694,5.02172 11.05874,4.97564 10.6073,4.93784 L10.6073,3.5126 L9.8711,3.5126 L9.8711,4.8842 C9.37286,4.85288 8.87174,4.83164 8.3681,4.8212 L8.3681,3.5126 L7.6319,3.5126 L7.6319,4.8212 C7.12826,4.83164 6.62714,4.85288 6.12782,4.8842 L6.12782,3.5126 L5.39198,3.5126 L5.39198,4.93784 C4.94054,4.97564 4.49234,5.02172 4.0463,5.07608 C3.92822,6.25436 3.86738,7.44632 3.86738,8.65016 C3.86738,9.85472 3.92822,11.04668 4.0463,12.22532 C5.22962,12.36896 6.43094,12.45104 7.6445,12.47624 L7.6445,12.4874 C7.76366,12.4874 7.88138,12.48308 7.99982,12.48164 C8.11826,12.48308 8.23562,12.4874 8.35442,12.4874 L8.35442,12.47624 C9.5687,12.45104 10.76966,12.36896 11.95334,12.22532 C12.07142,11.04668 12.13262,9.85472 12.13262,8.65016 Z M6.84818,8.01692 L7.6157,8.01692 L7.6157,7.26164 L6.84818,7.26164 L6.84818,8.01692 Z M6.84818,9.49436 L7.6157,9.49436 L7.6157,8.73908 L6.84818,8.73908 L6.84818,9.49436 Z M6.84818,10.99916 L7.6157,10.99916 L7.6157,10.24424 L6.84818,10.24424 L6.84818,10.99916 Z M5.35814,8.01836 L6.14366,8.01836 L6.14366,7.26272 L5.35814,7.26272 L5.35814,8.01836 Z M5.35814,9.49544 L6.14366,9.49544 L6.14366,8.74016 L5.35814,8.74016 L5.35814,9.49544 Z M5.35814,11.0006 L6.14366,11.0006 L6.14366,10.24532 L5.35814,10.24532 L5.35814,11.0006 Z M8.38394,8.01692 L9.15146,8.01692 L9.15146,7.26164 L8.38394,7.26164 L8.38394,8.01692 Z M11.36942,11.65004 L4.62986,11.65004 L4.62986,6.515 L7.6445,6.51644 L7.6445,6.5168 L7.99982,6.51644 L8.35442,6.5168 L8.35442,6.51644 L11.36942,6.515 L11.36942,11.65004 Z M8.38394,9.49436 L9.15146,9.49436 L9.15146,8.73908 L8.38394,8.73908 L8.38394,9.49436 Z M8.38394,10.99916 L9.15146,10.99916 L9.15146,10.24424 L8.38394,10.24424 L8.38394,10.99916 Z M9.85598,8.01872 L10.6415,8.01872 L10.6415,7.26272 L9.85598,7.26272 L9.85598,8.01872 Z M9.85598,9.49544 L10.6415,9.49544 L10.6415,8.74016 L9.85598,8.74016 L9.85598,9.49544 Z M9.85598,11.0006 L10.6415,11.0006 L10.6415,10.24532 L9.85598,10.24532 L9.85598,11.0006 Z"></path>
        </g>
    </g>
</svg>