<?xml version="1.0" encoding="UTF-8" standalone="no"?>
<svg width="16px" height="16px" viewBox="0 0 16 16" version="1.1" xmlns="http://www.w3.org/2000/svg" xmlns:xlink="http://www.w3.org/1999/xlink">
    <!-- Generator: Sketch 3.6.1 (26313) - http://www.bohemiancoding.com/sketch -->
    <title>cambios_y_reembolsos</title>
    <desc>Created with Sketch.</desc>
    <defs></defs>
    <g id="Page-1" stroke="none" stroke-width="1" fill="none" fill-rule="evenodd">
        <g id="cambios_y_reembolsos" fill="#000000">
            <path d="M7.90028,6.62786 C7.90028,7.89218 8.9252,8.9171 10.18916,8.9171 C11.45348,8.9171 12.47804,7.89218 12.47804,6.62786 C12.47804,5.3639 11.45348,4.33862 10.18916,4.33862 C8.9252,4.33862 7.90028,5.3639 7.90028,6.62786 L7.90028,6.62786 Z M4.283,3.5189 L5.01812,3.5189 L5.01812,4.88906 C5.516,4.85738 6.0164,4.8365 6.51932,4.82534 L6.51932,3.5189 L7.25444,3.5189 L7.25444,4.81814 C7.42184,4.81814 7.577,4.81922 7.7318,4.82066 C8.28728,4.06682 9.18116,3.57722 10.18916,3.57722 C11.87396,3.57722 13.2398,4.94306 13.2398,6.62786 C13.2398,7.73414 12.6512,8.70326 11.7692,9.23822 C11.75264,10.24046 11.69324,11.23478 11.59568,12.21866 C10.1744,12.39182 8.73044,12.4811 7.2674,12.4811 C5.804,12.4811 4.35932,12.39182 2.93912,12.21902 C2.8214,11.0429 2.7602,9.85238 2.7602,8.64962 C2.7602,7.44758 2.8214,6.25742 2.93912,5.08022 C3.3848,5.02622 3.83264,4.97978 4.283,4.94234 L4.283,3.5189 L4.283,3.5189 Z M7.24544,8.73818 L7.98668,8.73818 C7.7786,8.52038 7.60184,8.2727 7.46468,8.00126 L7.24544,8.00126 L7.24544,7.4303 C7.17632,7.17434 7.13888,6.90578 7.13888,6.62786 C7.13888,6.59114 7.1396,6.55406 7.14104,6.51698 L3.52196,6.51698 L3.52196,11.6441 L11.01284,11.6441 L11.01284,9.56618 C10.7504,9.63926 10.47464,9.67886 10.18916,9.67886 C9.33704,9.67886 8.5652,9.32858 8.01152,8.76446 L8.01152,9.49238 L7.24544,9.49238 L7.24544,8.73818 L7.24544,8.73818 Z M10.8818,5.81282 L11.40776,6.3395 L10.86812,6.8795 L10.34324,7.40798 L9.81404,6.88058 L8.80568,5.87042 L9.332,5.34446 L10.34144,6.35246 L10.8818,5.81282 L10.8818,5.81282 Z M4.24916,8.0189 L5.0336,8.0189 L5.0336,7.26398 L4.24916,7.26398 L4.24916,8.0189 Z M5.73776,8.01818 L6.50384,8.01818 L6.50384,7.26326 L5.73776,7.26326 L5.73776,8.01818 Z M4.24916,9.4931 L5.0336,9.4931 L5.0336,8.73926 L4.24916,8.73926 L4.24916,9.4931 Z M5.73776,9.49238 L6.50384,9.49238 L6.50384,8.73818 L5.73776,8.73818 L5.73776,9.49238 Z M4.24916,10.99682 L5.0336,10.99682 L5.0336,10.24226 L4.24916,10.24226 L4.24916,10.99682 Z M5.73776,10.99538 L6.50384,10.99538 L6.50384,10.24118 L5.73776,10.24118 L5.73776,10.99538 Z M7.24544,10.99538 L8.01152,10.99538 L8.01152,10.24118 L7.24544,10.24118 L7.24544,10.99538 Z M8.71856,10.99538 L9.485,10.99538 L9.485,10.24118 L8.71856,10.24118 L8.71856,10.99538 Z"></path>
        </g>
    </g>
</svg>