<?xml version="1.0" encoding="UTF-8" standalone="no"?>
<svg width="16px" height="16px" viewBox="0 0 16 16" version="1.1" xmlns="http://www.w3.org/2000/svg" xmlns:xlink="http://www.w3.org/1999/xlink">
    <!-- Generator: Sketch 3.6.1 (26313) - http://www.bohemiancoding.com/sketch -->
    <title>cancelar</title>
    <desc>Created with Sketch.</desc>
    <defs></defs>
    <g id="Page-1" stroke="none" stroke-width="1" fill="none" fill-rule="evenodd">
        <g id="cancelar" fill="#000000">
            <path d="M11.61998,5.66774 C11.42486,5.4215 10.53458,4.53302 10.29014,4.33466 C9.5057,4.96466 8.74142,5.62814 7.99982,6.32258 C7.25894,5.62814 6.49502,4.96466 5.70986,4.33466 C5.46578,4.53302 4.57622,5.4215 4.3811,5.66774 C5.00858,6.45002 5.67026,7.21358 6.36362,7.95446 C5.6375,8.72594 4.94702,9.5165 4.29074,10.33442 C4.48694,10.5785 5.37866,11.46914 5.62238,11.66534 C6.43742,11.0105 7.23194,10.31966 7.99982,9.5939 C8.76878,10.31966 9.56186,11.0105 10.37762,11.66534 C10.6217,11.46914 11.51342,10.5785 11.70926,10.33442 C11.0537,9.5165 10.36322,8.72594 9.6353,7.95446 C10.33118,7.21358 10.99142,6.45002 11.61998,5.66774"></path>
        </g>
    </g>
</svg>