<?xml version="1.0" encoding="UTF-8" standalone="no"?>
<svg width="16px" height="16px" viewBox="0 0 16 16" version="1.1" xmlns="http://www.w3.org/2000/svg" xmlns:xlink="http://www.w3.org/1999/xlink">
    <!-- Generator: Sketch 3.6.1 (26313) - http://www.bohemiancoding.com/sketch -->
    <title>centro_app</title>
    <desc>Created with Sketch.</desc>
    <defs></defs>
    <g id="Page-1" stroke="none" stroke-width="1" fill="none" fill-rule="evenodd">
        <g id="centro_app" fill="#000000">
            <path d="M8,2.0789 C4.72976,2.0789 2.07944,4.73066 2.07944,7.99982 C2.07944,11.27078 4.72976,13.9211 8,13.9211 C11.27024,13.9211 13.92056,11.27078 13.92056,7.99982 C13.92056,4.73066 11.27024,2.0789 8,2.0789 M12.4316,7.51094 C12.14324,7.48934 11.8412,7.4735 11.5532,7.4735 C11.10464,7.4735 10.2482,7.5473 9.74384,7.59986 C9.59228,6.9407 9.0782,6.42266 8.42228,6.26354 C8.47304,5.79842 8.549,5.08526 8.549,4.44266 C8.549,4.22198 8.531,3.90086 8.50652,3.57146 C10.56716,3.80582 12.20552,5.4485 12.4316,7.51094 M8,9.1259 C7.38008,9.1259 6.87464,8.6201 6.87464,7.99946 C6.87464,7.38026 7.38008,6.87554 8,6.87554 C8.6192,6.87554 9.12356,7.38026 9.12356,7.99946 C9.12356,8.6201 8.6192,9.1259 8,9.1259 M7.49384,3.57146 C7.469,3.90086 7.451,4.22198 7.451,4.44266 C7.451,5.08526 7.52696,5.79734 7.57808,6.26354 C6.92072,6.42266 6.407,6.9407 6.2558,7.60022 C5.78996,7.5491 5.07896,7.4735 4.43816,7.4735 C4.21784,7.4735 3.89672,7.49186 3.56732,7.51634 C3.7916,5.45174 5.43104,3.8069 7.49384,3.57146 M3.57416,8.52974 C3.90068,8.55314 4.21964,8.57222 4.43816,8.57222 C5.08544,8.57222 5.804,8.4941 6.26876,8.4437 C6.43256,9.08234 6.9362,9.58238 7.5788,9.73754 C7.5248,10.24154 7.451,11.10662 7.451,11.55734 C7.451,11.84354 7.46612,12.14234 7.48808,12.42962 C5.4422,12.19382 3.81752,10.57166 3.57416,8.52974 M8.51228,12.42962 C8.5328,12.14234 8.54684,11.74058 8.54684,11.45474 C8.54684,11.0033 8.47448,10.24154 8.4212,9.73754 C9.06308,9.58238 9.56636,9.08234 9.73016,8.4437 C10.23272,8.49662 11.10068,8.57222 11.5532,8.57222 C11.83904,8.57222 12.1382,8.55638 12.42512,8.53442 C12.17996,10.57454 10.55492,12.19454 8.51228,12.42962"></path>
        </g>
    </g>
</svg>