<?xml version="1.0" encoding="UTF-8" standalone="no"?>
<svg width="16px" height="16px" viewBox="0 0 16 16" version="1.1" xmlns="http://www.w3.org/2000/svg" xmlns:xlink="http://www.w3.org/1999/xlink">
    <!-- Generator: Sketch 3.6.1 (26313) - http://www.bohemiancoding.com/sketch -->
    <title>cerrar_sesion</title>
    <desc>Created with Sketch.</desc>
    <defs></defs>
    <g id="Page-1" stroke="none" stroke-width="1" fill="none" fill-rule="evenodd">
        <g id="cerrar_sesion" fill="#000000">
            <path d="M3.68288,9.74186 L12.31712,9.74186 L12.31712,3.80906 L3.68288,3.80906 L3.68288,9.74186 Z M13.11164,3.05378 C13.24952,4.3073 13.3226,5.57414 13.3226,6.8543 C13.3226,8.13482 13.24952,9.40274 13.11164,10.65518 C11.43296,10.83914 9.72764,10.93454 7.99964,10.93454 C6.27128,10.93454 4.56632,10.83914 2.888,10.65554 C2.7494,9.40274 2.6774,8.13482 2.6774,6.8543 C2.6774,5.57378 2.7494,4.3073 2.888,3.05342 C4.56632,2.87018 6.27128,2.77442 7.99964,2.77442 C9.72764,2.77442 11.43296,2.87018 13.11164,3.05378 L13.11164,3.05378 Z M5.91344,5.3531 C6.02612,5.21234 6.53948,4.6997 6.67988,4.5863 C7.13276,4.94918 7.57268,5.33078 7.99964,5.73182 C8.42696,5.33078 8.8676,4.94918 9.31976,4.5863 C9.46052,4.6997 9.97352,5.21234 10.08656,5.3531 C9.72404,5.8049 9.34316,6.24482 8.94284,6.67142 C9.36188,7.11494 9.76004,7.5725 10.13768,8.04338 C10.02464,8.18414 9.51128,8.6975 9.37052,8.81054 C8.90036,8.43326 8.4428,8.03546 7.99964,7.6175 C7.55684,8.03546 7.09964,8.43326 6.62948,8.81054 C6.48872,8.6975 5.97536,8.18414 5.86232,8.04338 C6.24032,7.5725 6.63776,7.11494 7.05716,6.67142 C6.65684,6.24482 6.2756,5.8049 5.91344,5.3531 L5.91344,5.3531 Z M11.4974,13.22558 L4.49432,13.22558 L4.49432,12.35402 C4.49432,12.35402 6.21656,12.01058 8,12.01058 C9.7424,12.01058 11.4974,12.35402 11.4974,12.35402 L11.4974,13.22558 L11.4974,13.22558 Z"></path>
        </g>
    </g>
</svg>