<?xml version="1.0" encoding="UTF-8" standalone="no"?>
<svg width="16px" height="16px" viewBox="0 0 16 16" version="1.1" xmlns="http://www.w3.org/2000/svg" xmlns:xlink="http://www.w3.org/1999/xlink">
    <!-- Generator: Sketch 3.6.1 (26313) - http://www.bohemiancoding.com/sketch -->
    <title>check_in</title>
    <desc>Created with Sketch.</desc>
    <defs></defs>
    <g id="Page-1" stroke="none" stroke-width="1" fill="none" fill-rule="evenodd">
        <g id="check_in" fill="#000000">
            <path d="M7.80869855,3.43556 L7.85981855,3.43772 C8.45813855,3.46328 9.06869855,3.51512 9.67313855,3.59108 C9.77753855,3.6044 9.88121855,3.61808 9.98633855,3.63248 C10.3902585,3.26384 10.9601385,2.78612 11.2222185,2.77136 L11.2762185,2.76776 L11.4360585,2.93264 L11.4382185,2.97764 C11.4482985,3.1922 11.1898185,3.5468 10.5335385,4.20128 C10.5446985,4.30676 10.5547785,4.41008 10.5641385,4.5134 C10.6192185,5.12036 10.6487385,5.73164 10.6537785,6.33104 L10.6541385,6.38252 L10.2797385,6.7436 L9.62525855,5.02388 C9.45065855,5.165 9.27029855,5.3054 9.09317855,5.44148 L9.10469855,5.53832 C9.12701855,5.72516 9.14285855,5.92316 9.15221855,6.12728 L9.15473855,6.18056 L8.76557855,6.55676 L8.35373855,5.77232 L8.33753855,5.75612 L7.56857855,5.31692 L7.95773855,4.94108 L8.01137855,4.94612 C8.21729855,4.96268 8.40989855,4.98464 8.59853855,5.01344 L8.69285855,5.02856 C8.83325855,4.85792 8.98085855,4.68224 9.12953855,4.51088 L7.43429855,3.797 L7.80869855,3.43556 L7.80869855,3.43556 Z M8.42177855,9.47204 L9.19433855,9.47204 L9.19433855,8.71496 L8.42177855,8.71496 L8.42177855,9.47204 Z M6.93389855,9.47204 L7.70645855,9.47204 L7.70645855,8.71496 L6.93389855,8.71496 L6.93389855,9.47204 Z M10.0604985,8.63648 C10.0604985,9.908 10.0000185,11.99636 9.88301855,13.23224 L4.73897855,13.23152 C4.62197855,11.99564 4.56149855,9.90764 4.56149855,8.63648 C4.56149855,7.32608 4.62557855,5.54624 4.74977855,4.27472 C5.43809855,4.18832 6.26069855,4.13684 6.96197855,4.12028 L6.96197855,5.05196 L5.48741855,5.05196 L5.48741855,7.9676 L9.17453855,7.9676 L9.17453855,7.20656 L10.0288185,7.20656 C10.0500585,7.73612 10.0604985,8.1008 10.0604985,8.63648 L10.0604985,8.63648 Z"></path>
        </g>
    </g>
</svg>