<?xml version="1.0" encoding="UTF-8" standalone="no"?>
<svg width="16px" height="16px" viewBox="0 0 16 16" version="1.1" xmlns="http://www.w3.org/2000/svg" xmlns:xlink="http://www.w3.org/1999/xlink">
    <!-- Generator: Sketch 3.6.1 (26313) - http://www.bohemiancoding.com/sketch -->
    <title>checking_online</title>
    <desc>Created with Sketch.</desc>
    <defs></defs>
    <g id="Page-1" stroke="none" stroke-width="1" fill="none" fill-rule="evenodd">
        <g id="checking_online" fill="#000000">
            <path d="M7.98308,6.65504 C7.98308,6.8678 7.811,7.04024 7.59824,7.04024 C7.38584,7.04024 7.21376,6.8678 7.21376,6.65504 C7.21376,6.443 7.38584,6.27092 7.59824,6.27092 C7.811,6.27092 7.98308,6.443 7.98308,6.65504 L7.98308,6.65504 Z M10.73168,4.2488 C11.15252,4.2776 11.57192,4.31252 11.9888,4.35392 C12.03524,4.7402 12.07268,5.14808 12.10004,5.56064 C12.0068,5.55164 11.92328,5.5448 11.85416,5.54192 C11.49596,5.0966 11.11904,4.66784 10.73168,4.2488 L10.73168,4.2488 Z M13.24772,11.03084 C13.21532,11.23028 13.19012,11.43188 13.16096,11.63204 C11.48804,11.77172 9.7208,11.84372 7.99784,11.84372 C6.2756,11.84372 4.50224,11.77172 2.83004,11.63204 C2.80088,11.43188 2.77532,11.23028 2.75228,11.02904 L3.98564,9.6596 C3.89204,8.83412 3.84344,7.99928 3.84344,7.15724 C3.84344,6.24896 3.89996,5.24276 4.00832,4.35356 C5.318,4.22396 6.64892,4.15628 7.99784,4.15628 C8.25056,4.15628 8.50292,4.15844 8.75456,4.16276 L9.13616,5.05592 L4.79348,5.05592 L4.79348,9.19016 L11.2112,9.19016 L11.2112,8.41148 C11.44196,8.1476 11.66876,7.8776 11.88188,7.61264 C11.96468,7.61012 12.05432,7.60724 12.14864,7.60256 C12.1346,8.29376 12.0878,8.97956 12.01112,9.65924 L13.24772,11.03084 L13.24772,11.03084 Z M9.57716,10.9844 L9.1682,10.32452 L6.82856,10.32452 L6.4196,10.9844 L9.57716,10.9844 L9.57716,10.9844 Z M6.5186,6.65504 C6.5186,6.8678 6.34652,7.04024 6.13376,7.04024 C5.92136,7.04024 5.74928,6.8678 5.74928,6.65504 C5.74928,6.443 5.92136,6.27092 6.13376,6.27092 C6.34652,6.27092 6.5186,6.443 6.5186,6.65504 L6.5186,6.65504 Z M10.09124,4.43204 L10.12796,4.47128 C10.55852,4.9238 10.97792,5.40368 11.37608,5.89832 C11.44484,5.98364 11.51252,6.06932 11.58128,6.15644 C12.15044,6.17192 12.92372,6.22664 13.13072,6.4052 L13.17392,6.44192 L13.17392,6.6806 L13.14296,6.71552 C12.99464,6.88472 12.545,6.96248 11.57912,6.97832 C11.51144,7.0658 11.44376,7.1504 11.37608,7.23428 C10.97792,7.72928 10.55852,8.20952 10.12796,8.66204 L10.09088,8.70056 L9.54872,8.70056 L10.30292,6.93764 C10.06964,6.91712 9.83276,6.89156 9.60236,6.86528 L9.54116,6.94628 C9.422,7.10216 9.28988,7.26236 9.14984,7.42184 L9.11276,7.46396 L8.549,7.46432 L8.8082,6.57836 L8.8082,6.5546 L8.549,5.66864 L9.11276,5.66864 L9.14984,5.71076 C9.29204,5.8724 9.4202,6.02828 9.54116,6.18632 L9.60092,6.26624 C9.82952,6.24032 10.06748,6.21476 10.30292,6.19496 L9.54872,4.43168 L10.09124,4.43204 L10.09124,4.43204 Z"></path>
        </g>
    </g>
</svg>