<?xml version="1.0" encoding="UTF-8" standalone="no"?>
<svg width="16px" height="16px" viewBox="0 0 16 16" version="1.1" xmlns="http://www.w3.org/2000/svg" xmlns:xlink="http://www.w3.org/1999/xlink">
    <!-- Generator: Sketch 3.6.1 (26313) - http://www.bohemiancoding.com/sketch -->
    <title>cigarrillo_electronico</title>
    <desc>Created with Sketch.</desc>
    <defs></defs>
    <g id="Page-1" stroke="none" stroke-width="1" fill="none" fill-rule="evenodd">
        <g id="cigarrillo_electronico" fill="#000000">
            <path d="M10.01528,2.95367302 C11.68532,2.95367302 13.0346,4.30727302 13.0346,5.97767302 L13.0346,6.98207302 L12.014,6.98207302 L12.014,5.97767302 C12.014,4.86887302 11.11976,3.97607302 10.01528,3.97607302 L10.01528,2.95367302 Z M12.419,12.918473 L12.9734,12.918473 L12.9734,11.050073 L12.419,11.050073 L12.419,12.918473 Z M11.96792,11.060873 L11.96792,12.911273 C8.83952,13.098473 5.41412,13.084073 2.04128,12.911273 L2.04128,11.060873 C5.41412,10.884473 8.83952,10.870073 11.96792,11.060873 Z M13.4288,12.918473 L13.9832,12.918473 L13.9832,11.050073 L13.4288,11.050073 L13.4288,12.918473 Z M13.01732,9.01607302 L11.98916,9.01607302 C10.31948,9.01607302 8.9666,7.66607302 8.9666,5.99567302 L8.9666,5.92727302 C7.86536,5.64647302 7.01504,4.65647302 7.01504,3.45767302 L7.01504,2.99687302 L8.03672,2.99687302 L8.03672,3.45767302 C8.03672,4.63487302 9.05552,4.95527302 9.98684,5.00927302 L9.9872,5.99567302 C9.9872,7.10087302 10.88432,7.99727302 11.98916,7.99727302 C12.0266,7.99727302 12.98096,7.99727302 13.01732,7.99367302 L13.01732,9.01607302 Z M4.83632,4.59527302 C3.28184,4.59527302 2.0168,5.85887302 2.0168,7.41407302 C2.0168,8.96927302 3.28184,10.232873 4.83632,10.232873 C6.3908,10.232873 7.6562,8.96927302 7.6562,7.41407302 C7.6562,5.85887302 6.3908,4.59527302 4.83632,4.59527302 Z M5.62796,5.92007302 L5.0174,7.09727302 L5.8112,7.09727302 L5.80832,7.09727302 L5.81336,7.09727302 L4.27004,8.67047302 L4.87232,7.49687302 L4.0778,7.49687302 L4.08032,7.49687302 L4.07636,7.49687302 L5.62796,5.92007302 Z"></path>
        </g>
    </g>
</svg>