<?xml version="1.0" encoding="UTF-8" standalone="no"?>
<svg width="16px" height="16px" viewBox="0 0 16 16" version="1.1" xmlns="http://www.w3.org/2000/svg" xmlns:xlink="http://www.w3.org/1999/xlink">
    <!-- Generator: Sketch 3.6.1 (26313) - http://www.bohemiancoding.com/sketch -->
    <title>click_to_call</title>
    <desc>Created with Sketch.</desc>
    <defs></defs>
    <g id="Page-1" stroke="none" stroke-width="1" fill="none" fill-rule="evenodd">
        <g id="click_to_call" fill="#000000">
            <path d="M13.8946364,11.2850848 C14.0591564,12.1472848 12.1853564,13.6470448 10.9257164,13.7428048 C9.6657164,13.8392848 7.7746364,13.6898848 4.9968764,11.0374048 C2.2183964,8.38384475 1.9221164,6.36748475 2.1611564,5.05204475 C2.4005564,3.73588475 3.5899964,2.32072475 4.2063164,2.23972475 C4.8931964,2.14972475 6.6906764,4.27336475 6.5153564,5.00956475 C6.3396764,5.74576475 5.3917964,6.44164475 5.2258364,6.77320475 C5.0602364,7.10440475 5.0890364,7.92304475 6.5859164,9.35296475 C8.0831564,10.7828848 8.9446364,10.9466848 9.3820364,10.7051248 C9.8197964,10.4635648 10.3929164,9.40948475 10.8634364,9.33172475 C11.3332364,9.25324475 13.7189564,10.3642048 13.8946364,11.2850848 Z M8.3391164,4.58476475 C9.1545164,4.36264475 10.0627964,4.56316475 10.7143964,5.19244475 C11.3656364,5.82244475 11.5974764,6.72244475 11.4034364,7.54504475 L10.7464364,7.37368475 C10.8807164,6.78004475 10.7111564,6.13348475 10.2420764,5.68060475 C9.7729964,5.22772475 9.1213964,5.08084475 8.5335164,5.23636475 L8.3391164,4.58476475 Z M8.0507564,3.37552475 C9.2679164,3.03352475 10.6290764,3.32980475 11.6039564,4.27120475 C12.5791964,5.21260475 12.9215564,6.56224475 12.6220364,7.79164475 L11.9736764,7.62244475 C12.2141564,6.61948475 11.9333564,5.52112475 11.1388364,4.75324475 C10.3439564,3.98464475 9.2358764,3.74236475 8.2422764,4.01704475 L8.0507564,3.37552475 Z"></path>
        </g>
    </g>
</svg>