<?xml version="1.0" encoding="UTF-8" standalone="no"?>
<svg width="16px" height="16px" viewBox="0 0 16 16" version="1.1" xmlns="http://www.w3.org/2000/svg" xmlns:xlink="http://www.w3.org/1999/xlink">
    <!-- Generator: Sketch 3.6.1 (26313) - http://www.bohemiancoding.com/sketch -->
    <title>compartir</title>
    <desc>Created with Sketch.</desc>
    <defs></defs>
    <g id="Page-1" stroke="none" stroke-width="1" fill="none" fill-rule="evenodd">
        <g id="compartir" fill="#000000">
            <path d="M11.35358,9.49148 C10.75346,9.49148 10.22498,9.77984 9.8837,10.22012 L6.4385,8.49608 C6.48206,8.33804 6.51302,8.1746 6.51302,8.0018 C6.51302,7.82972 6.48206,7.66592 6.4385,7.5068 L9.88442,5.78024 C10.22606,6.22052 10.75346,6.50852 11.35358,6.50852 C12.38462,6.50852 13.22018,5.67296 13.22018,4.64156 C13.22018,3.61088 12.38462,2.77532 11.35358,2.77532 C10.32254,2.77532 9.48698,3.61088 9.48698,4.64156 C9.48698,4.81472 9.51794,4.97852 9.56186,5.13656 L6.11594,6.86312 C5.7743,6.42356 5.24654,6.13556 4.64642,6.13556 C3.61538,6.13556 2.77982,6.97112 2.77982,8.0018 C2.77982,9.0332 3.61538,9.86876 4.64642,9.86876 C5.2469,9.86876 5.77502,9.5804 6.1163,9.14012 L9.5615,10.86416 C9.51794,11.02256 9.48698,11.186 9.48698,11.35844 C9.48698,12.38912 10.32254,13.22468 11.35358,13.22468 C12.38462,13.22468 13.22018,12.38912 13.22018,11.35844 C13.22018,10.32668 12.38462,9.49148 11.35358,9.49148"></path>
        </g>
    </g>
</svg>