<?xml version="1.0" encoding="UTF-8" standalone="no"?>
<svg width="16px" height="16px" viewBox="0 0 16 16" version="1.1" xmlns="http://www.w3.org/2000/svg" xmlns:xlink="http://www.w3.org/1999/xlink">
    <!-- Generator: Sketch 3.6.1 (26313) - http://www.bohemiancoding.com/sketch -->
    <title>compartir_2</title>
    <desc>Created with Sketch.</desc>
    <defs></defs>
    <g id="Page-1" stroke="none" stroke-width="1" fill="none" fill-rule="evenodd">
        <g id="compartir_2" fill="#000000">
            <path d="M7.96844,2 C4.6784,2 2,4.6784 2,7.9688 C2,11.2628 4.6784,13.9412 7.96844,13.9412 C11.26028,13.9412 13.93832,11.2628 13.93832,7.9688 C13.93832,4.6784 11.26028,2 7.96844,2 M7.96844,13.2356 C5.06576,13.2356 2.70344,10.874 2.70344,7.9688 C2.70344,5.0672 5.06576,2.7056 7.96844,2.7056 C10.87256,2.7056 13.23488,5.0672 13.23488,7.9688 C13.23488,10.874 10.87256,13.2356 7.96844,13.2356 Z M9.39970548,8.6056754 C9.14417309,8.6056754 8.91914517,8.72845971 8.77382741,8.91593188 L7.30685383,8.18183193 C7.32540177,8.11453816 7.3385846,8.04494506 7.3385846,7.97136644 C7.3385846,7.89809441 7.32540177,7.82834802 7.30685383,7.76059438 L8.77413399,7.02542141 C8.91960503,7.21289358 9.14417309,7.3355246 9.39970548,7.3355246 C9.83872453,7.3355246 10.1945078,6.97974135 10.1945078,6.54056901 C10.1945078,6.10170325 9.83872453,5.74592 9.39970548,5.74592 C8.96068643,5.74592 8.60490318,6.10170325 8.60490318,6.54056901 C8.60490318,6.61430091 8.61808601,6.68404731 8.63678724,6.75134108 L7.16950708,7.48651405 C7.02403604,7.29934845 6.79931469,7.17671743 6.5437823,7.17671743 C6.10476325,7.17671743 5.74898,7.53250068 5.74898,7.97136644 C5.74898,8.41053879 6.10476325,8.76632203 6.5437823,8.76632203 C6.79946798,8.76632203 7.02434261,8.64353772 7.16966037,8.45606555 L8.63663395,9.1901655 C8.61808601,9.25761256 8.60490318,9.32720566 8.60490318,9.40063099 C8.60490318,9.83949675 8.96068643,10.19528 9.39970548,10.19528 C9.83872453,10.19528 10.1945078,9.83949675 10.1945078,9.40063099 C10.1945078,8.96130536 9.83872453,8.6056754 9.39970548,8.6056754 Z"></path>
        </g>
    </g>
</svg>