<?xml version="1.0" encoding="UTF-8" standalone="no"?>
<svg width="16px" height="16px" viewBox="0 0 16 16" version="1.1" xmlns="http://www.w3.org/2000/svg" xmlns:xlink="http://www.w3.org/1999/xlink">
    <!-- Generator: Sketch 3.6.1 (26313) - http://www.bohemiancoding.com/sketch -->
    <title>compras</title>
    <desc>Created with Sketch.</desc>
    <defs></defs>
    <g id="Page-1" stroke="none" stroke-width="1" fill="none" fill-rule="evenodd">
        <g id="compras" fill="#000000">
            <path d="M6.0947,11.33 L7.63982,11.33 L7.63982,10.0772 L6.0947,10.0772 L6.0947,11.33 Z M8.3213,11.33 L9.86642,11.33 L9.86642,10.0772 L8.3213,10.0772 L8.3213,11.33 Z M6.0947,8.1404 L6.0947,9.3932 L7.63982,9.3932 L7.63982,8.1404 L8.3213,8.1404 L8.3213,9.3932 L9.86642,9.3932 L9.86642,8.1404 L6.0947,8.1404 L6.0947,8.1404 Z M9.34226,7.0136 L8.82782,6.5636 L7.97066,7.5536 L7.27406,6.9092 L6.81218,7.4096 L7.63226,8.1368 L8.33246,8.1368 L9.34226,7.0136 L9.34226,7.0136 Z M6.69122,5.4548 L9.2699,5.4548 L9.2699,4.1696 C9.2699,4.0436 9.1673,3.9392 9.04022,3.9392 L6.92018,3.9392 C6.79418,3.9392 6.69122,4.0436 6.69122,4.1696 L6.69122,5.4548 L6.69122,5.4548 Z M4.25726,5.4548 L5.73938,5.4548 L5.83874,4.2452 C5.94134,3.6656 6.3233,3.1652 6.92018,3.1652 L9.04022,3.1652 C9.63818,3.1652 10.00322,3.6656 10.12238,4.2452 L10.21634,5.4548 L11.74274,5.4548 C11.74274,8.4104 11.7035,10.6136 10.99898,12.8348 L4.98158,12.8348 C4.27706,10.6352 4.25726,8.396 4.25726,5.4548 L4.25726,5.4548 Z"></path>
        </g>
    </g>
</svg>