<?xml version="1.0" encoding="UTF-8" standalone="no"?>
<svg width="16px" height="16px" viewBox="0 0 16 16" version="1.1" xmlns="http://www.w3.org/2000/svg" xmlns:xlink="http://www.w3.org/1999/xlink">
    <!-- Generator: Sketch 3.6.1 (26313) - http://www.bohemiancoding.com/sketch -->
    <title>consola</title>
    <desc>Created with Sketch.</desc>
    <defs></defs>
    <g id="Page-1" stroke="none" stroke-width="1" fill="none" fill-rule="evenodd">
        <g id="consola" fill="#000000">
            <path d="M5.52842,6.17626828 L5.52842,6.94306828 L4.76702,6.94306828 L4.76702,7.59826828 L5.52842,7.59826828 L5.52842,8.33266828 L6.18398,8.33266828 L6.18398,7.59826828 L6.92342,7.59826828 L6.92342,6.94306828 L6.18398,6.94306828 L6.18398,6.17626828 L5.52842,6.17626828 L5.52842,6.17626828 Z M8.8739,7.11946828 C8.8739,7.32466828 9.04094,7.49386828 9.2483,7.49386828 C9.45458,7.49386828 9.62162,7.32466828 9.62162,7.11946828 C9.62162,6.91426828 9.45458,6.74506828 9.2483,6.74506828 C9.04094,6.74506828 8.8739,6.91426828 8.8739,7.11946828 L8.8739,7.11946828 Z M9.76022,6.23386828 C9.76022,6.43906828 9.9269,6.60826828 10.13426,6.60826828 C10.34018,6.60826828 10.5083,6.43906828 10.5083,6.23386828 C10.5083,6.02506828 10.34018,5.85946828 10.13426,5.85946828 C9.9269,5.85946828 9.76022,6.02506828 9.76022,6.23386828 L9.76022,6.23386828 Z M9.76022,8.00506828 C9.76022,8.21026828 9.9269,8.37946828 10.13426,8.37946828 C10.34018,8.37946828 10.5083,8.21026828 10.5083,8.00506828 C10.5083,7.79986828 10.34018,7.63066828 10.13426,7.63066828 C9.9269,7.63066828 9.76022,7.79986828 9.76022,8.00506828 L9.76022,8.00506828 Z M10.64582,7.11946828 C10.64582,7.32466828 10.81322,7.49386828 11.02022,7.49386828 C11.22614,7.49386828 11.39426,7.32466828 11.39426,7.11946828 C11.39426,6.91426828 11.22614,6.74506828 11.02022,6.74506828 C10.81322,6.74506828 10.64582,6.91426828 10.64582,7.11946828 L10.64582,7.11946828 Z M4.27994,11.0614683 C4.13342,11.2450683 3.9041,11.3638683 3.64958,11.3638683 C3.20606,11.3638683 2.84606,11.0038683 2.84606,10.5610683 C2.84606,10.4998683 2.85326,10.4386683 2.86694,10.3810683 C2.86694,10.3810683 4.16114,6.02866828 4.18562,5.93866828 C4.43654,5.00266828 5.39954,4.44466828 6.33734,4.69666828 C7.06706,4.89106828 7.56566,5.51746828 7.63262,6.23026828 L8.36774,6.23026828 C8.4347,5.51746828 8.93366,4.89106828 9.66302,4.69666828 C10.60046,4.44466828 11.56418,5.00266828 11.81546,5.93866828 C11.83922,6.02866828 13.13414,10.3810683 13.13414,10.3810683 C13.14782,10.4386683 13.15394,10.4998683 13.15394,10.5610683 C13.15394,11.0038683 12.79466,11.3638683 12.35078,11.3638683 C12.0959,11.3638683 11.86766,11.2450683 11.72006,11.0614683 L10.25666,9.24346828 C8.75222,9.31546828 7.24814,9.31546828 5.7437,9.24346828 L4.27994,11.0614683 L4.27994,11.0614683 Z"></path>
        </g>
    </g>
</svg>