<?xml version="1.0" encoding="UTF-8" standalone="no"?>
<svg width="16px" height="16px" viewBox="0 0 16 16" version="1.1" xmlns="http://www.w3.org/2000/svg" xmlns:xlink="http://www.w3.org/1999/xlink">
    <!-- Generator: Sketch 3.6.1 (26313) - http://www.bohemiancoding.com/sketch -->
    <title>control_pasaporte</title>
    <desc>Created with Sketch.</desc>
    <defs></defs>
    <g id="Page-1" stroke="none" stroke-width="1" fill="none" fill-rule="evenodd">
        <g id="control_pasaporte" fill="#000000">
            <path d="M5.58368,6.3872 L5.85872,6.3872 L5.85872,3.2552 L5.58368,3.2552 L5.58368,6.3872 Z M5.32376,2.996 L5.32376,6.6428 C4.62824,6.6428 3.93128,6.5636 3.23504,6.4052 L3.23504,3.23 C3.93128,3.0716 4.62824,2.996 5.32376,2.996 L5.32376,2.996 Z M9.44144,2.7764 C8.792,2.7764 7.48304,2.9456 7.48304,2.9456 L8.06588,3.806 L10.78172,3.806 L10.78172,2.9456 C10.78172,2.9456 10.12652,2.7764 9.44144,2.7764 L9.44144,2.7764 Z M8.12168,4.2236 L7.54352,4.8032 L8.11088,4.8032 C8.1494,5.7104 8.48096,6.2936 9.44252,6.2936 C10.4696,6.2936 10.78172,5.6348 10.78172,4.6196 C10.78172,4.4828 10.77596,4.3532 10.76336,4.2236 L8.12168,4.2236 L8.12168,4.2236 Z M11.9384,7.2296 L11.9384,7.2224 L11.93516,7.2224 L11.93516,7.2152 L11.92652,7.2152 C11.79728,7.136 11.58992,7.0676 11.33648,7.0064 L8.1062,11.0348 L11.5208,11.0348 C11.53808,11.2796 11.55284,11.528 11.56436,11.78 L7.34804,11.78 L7.34804,13.2236 L12.76496,13.2236 C12.60944,10.2788 12.32864,8.7092 11.9384,7.2296 L11.9384,7.2296 Z M9.54152,6.7904 L9.2888,6.7904 C8.38412,6.8336 7.33616,6.9848 6.9596,7.2152 L6.9506,7.2152 C6.9506,7.2188 6.94844,7.2188 6.94844,7.2224 L6.94664,7.2224 L6.94664,7.226 C6.75152,7.9712 6.58304,8.7344 6.4448,9.6848 L5.44508,8.6804 L5.54372,7.784 L4.01372,7.3304 L3.61736,7.7048 C4.38344,8.9072 6.57296,12.1472 6.57296,12.1472 L7.36748,12.1472 L7.36748,11.1896 L7.37252,11.1896 C7.37504,11.1392 7.37828,11.0816 7.38116,11.0348 L7.38296,11.0348 C7.3898,10.9268 7.39592,10.8224 7.40456,10.7144 L10.49444,6.866 C10.18304,6.83 9.85436,6.8012 9.54152,6.7904 L9.54152,6.7904 Z"></path>
        </g>
    </g>
</svg>