<?xml version="1.0" encoding="UTF-8" standalone="no"?>
<svg width="16px" height="16px" viewBox="0 0 16 16" version="1.1" xmlns="http://www.w3.org/2000/svg" xmlns:xlink="http://www.w3.org/1999/xlink">
    <!-- Generator: Sketch 3.6.1 (26313) - http://www.bohemiancoding.com/sketch -->
    <title>contenedor_de_residuos</title>
    <desc>Created with Sketch.</desc>
    <defs></defs>
    <g id="Page-1" stroke="none" stroke-width="1" fill="none" fill-rule="evenodd">
        <g id="contenedor_de_residuos" fill="#000000">
            <path d="M11.50892,13.2254 C11.49776,12.9194 11.48444,8.9234 11.47148,7.8254 C11.47148,7.811 11.47364,7.7966 11.47364,7.7822 C11.47364,7.757 11.4704,7.7354 11.46932,7.7102 C11.46824,7.6418 11.46716,7.5914 11.46716,7.5698 C11.465,7.5698 11.46392,7.5662 11.46392,7.5662 C11.36096,5.9138 10.10456,4.5746 8.48924,4.3442 C8.73944,4.2002 8.90828,3.9302 8.90828,3.6206 C8.90828,3.1526 8.52992,2.7746 8.06264,2.7746 C7.59644,2.7746 7.21808,3.1526 7.21808,3.6206 C7.21808,3.9194 7.3736,4.1786 7.60868,4.3298 C5.95556,4.5134 4.6556,5.8562 4.53284,7.5266 L4.53284,7.5302 C4.52744,7.613 4.52096,7.6958 4.52096,7.7822 C4.52096,7.829 4.52492,7.8722 4.52744,7.9154 C4.51556,9.1682 4.50332,12.9338 4.49108,13.2254 L11.50892,13.2254 L11.50892,13.2254 Z M6.82676,6.5654 L9.2978,6.5654 L9.2978,5.9858 L6.82676,5.9858 L6.82676,6.5654 Z"></path>
        </g>
    </g>
</svg>