<?xml version="1.0" encoding="UTF-8" standalone="no"?>
<svg width="16px" height="16px" viewBox="0 0 16 16" version="1.1" xmlns="http://www.w3.org/2000/svg" xmlns:xlink="http://www.w3.org/1999/xlink">
    <!-- Generator: Sketch 3.6.1 (26313) - http://www.bohemiancoding.com/sketch -->
    <title>control_de_juego</title>
    <desc>Created with Sketch.</desc>
    <defs></defs>
    <g id="Page-1" stroke="none" stroke-width="1" fill="none" fill-rule="evenodd">
        <g id="control_de_juego" fill="#000000">
            <path d="M5.98282987,4.6934 L6.00694987,4.7222 C6.28342987,5.0102 6.55378987,5.3198 6.81046987,5.6402 C6.85438987,5.6942 6.89830987,5.7482 6.94222987,5.8058 C7.30834987,5.8166 7.80658987,5.8526 7.93978987,5.9642 L7.96786987,5.9894 L7.96786987,6.1442 L7.94842987,6.1658 C7.85266987,6.2774 7.56286987,6.3242 6.94042987,6.335 C6.89722987,6.3926 6.85402987,6.4466 6.81046987,6.5006 C6.55378987,6.8174 6.28342987,7.127 6.00622987,7.4186 L5.98282987,7.4438 L5.63362987,7.4438 L6.11926987,6.3098 C5.96914987,6.2954 5.81578987,6.281 5.66782987,6.263 L5.62786987,6.3134 C5.55190987,6.4142 5.46694987,6.5186 5.37658987,6.6194 L5.35282987,6.6482 L4.98958987,6.6482 L5.15662987,6.0794 L5.15662987,6.0614 L4.98958987,5.4926 L5.35282987,5.4926 L5.37658987,5.5178 C5.46838987,5.6222 5.55082987,5.723 5.62786987,5.8238 C5.64154987,5.8418 5.65378987,5.8598 5.66674987,5.8778 C5.81398987,5.8598 5.96806987,5.8418 6.11926987,5.831 L5.63362987,4.6934 L5.98282987,4.6934 Z M10.4756299,11.7494 L10.6405099,11.4074 L11.5063099,11.681 L11.5063099,9.0206 L11.8389499,9.0206 C12.1942699,9.3806 12.4225099,9.6938 12.6197899,9.9998 C12.8937499,10.4642 13.3171099,11.4362 13.1900299,12.7718 L11.8364299,12.7718 L10.4756299,11.7494 Z M5.61310987,12.7718 L4.25914987,12.7718 C4.13278987,11.4362 4.55614987,10.4642 4.82974987,9.9998 C5.02666987,9.6938 5.25526987,9.3806 5.61022987,9.0206 L5.94358987,9.0206 L5.94358987,11.681 L6.80902987,11.4074 L6.97390987,11.7494 L5.61310987,12.7718 Z M11.1355099,9.6542 C11.1347899,9.2366 11.0869099,8.837 10.9969099,8.4482 C10.2585499,8.3474 9.50542987,8.2934 8.73934987,8.2934 C7.97362987,8.2934 7.22050987,8.3474 6.48250987,8.4482 C6.39142987,8.837 6.34282987,9.2366 6.34282987,9.6542 C6.34282987,10.0682 6.37126987,10.5074 6.46270987,10.8926 C6.91558987,10.9574 7.25146987,10.997 7.71550987,11.0222 L7.71550987,11.0186 C8.15074987,11.0474 8.59102987,11.0438 9.03634987,11.0402 L10.1473099,11.0114 L10.1473099,11.0078 C10.3939099,10.9862 10.7416699,10.961 10.9767499,10.925 C11.0663899,10.5398 11.1347899,10.0682 11.1355099,9.6542 Z M6.87346987,9.9134 C6.73234987,9.9134 6.61894987,9.7982 6.61894987,9.6578 C6.61894987,9.5174 6.73234987,9.4022 6.87346987,9.4022 C7.01314987,9.4022 7.12798987,9.5174 7.12798987,9.6578 C7.12798987,9.7982 7.01386987,9.9134 6.87346987,9.9134 Z M10.4655499,10.6586 C10.3957099,10.6658 10.2239899,10.6694 10.1365099,10.673 C9.79594987,10.6982 9.35278987,10.7162 9.03238987,10.7198 C8.59354987,10.7234 8.15362987,10.7054 7.71550987,10.6838 L7.71550987,10.6802 C7.61578987,10.673 7.50382987,10.6694 7.40374987,10.6622 L7.40374987,8.693 C7.80262987,8.6678 8.33974987,8.6498 8.73934987,8.6498 C9.31462987,8.6498 9.89350987,8.6822 10.4655499,8.7434 L10.4655499,10.6586 Z M4.97842987,8.1134 L3.49162987,8.1134 L3.49162987,3.9518 L9.54826987,3.9518 L9.54826987,7.5554 L10.2045499,7.5554 C10.2344299,7.0694 10.2535099,6.5798 10.2535099,6.0902 C10.2535099,5.1902 10.2020299,4.301 10.1048299,3.4226 C8.92762987,3.293 7.73206987,3.2282 6.51958987,3.2282 C5.30746987,3.2282 4.11190987,3.293 2.93470987,3.4226 C2.83714987,4.301 2.78674987,5.1902 2.78674987,6.0902 C2.78674987,6.9866 2.83714987,7.8758 2.93470987,8.7542 C3.60970987,8.8298 4.29154987,8.8802 4.97842987,8.9126 L4.97842987,8.1134 Z"></path>
        </g>
    </g>
</svg>