<?xml version="1.0" encoding="UTF-8" standalone="no"?>
<svg width="16px" height="16px" viewBox="0 0 16 16" version="1.1" xmlns="http://www.w3.org/2000/svg" xmlns:xlink="http://www.w3.org/1999/xlink">
    <!-- Generator: Sketch 3.6.1 (26313) - http://www.bohemiancoding.com/sketch -->
    <title>credito_personal_avios</title>
    <desc>Created with Sketch.</desc>
    <defs></defs>
    <g id="Page-1" stroke="none" stroke-width="1" fill="none" fill-rule="evenodd">
        <g id="credito_personal_avios" fill="#000000">
            <path d="M13.2239253,5.34864574 C13.1832453,4.55232574 13.0327653,3.79452574 12.6832053,3.04212574 C12.6032853,2.87112574 12.4168053,2.76276574 12.2288853,2.77860574 C11.4070053,2.85096574 10.6794453,3.09828574 9.97312528,3.46116574 C9.28192528,3.81576574 8.34448528,4.57248574 8.11444528,4.90728574 C7.37788528,5.08332574 6.64744528,5.36160574 5.88064528,5.75544574 C4.79956528,6.31092574 3.25588528,7.54284574 2.93116528,8.10912574 C2.66008528,8.58036574 2.78464528,8.97204574 2.92288528,9.26076574 C3.33544528,10.1193657 4.41652528,11.1021657 5.88892528,11.9564457 C7.35628528,12.8092857 8.55724528,13.2229257 9.56056528,13.2229257 C9.61744528,13.2229257 9.67396528,13.2218457 9.72868528,13.2189657 C10.0235253,13.2049257 10.4479653,13.1286057 10.7316453,12.6339657 C11.0570853,12.0680457 11.3458053,10.1078457 11.2838853,8.88996574 C11.2633653,8.48856574 11.2237653,8.10732574 11.1672453,7.74084574 C11.6755653,7.93164574 12.0928053,8.00292574 12.4376853,7.98600574 C12.6353253,7.97664574 12.7800453,7.91760574 12.8873253,7.73112574 C13.0658853,7.41972574 13.2653253,6.15936574 13.2239253,5.34864574 Z M7.85920528,8.95332574 C8.53348528,8.95332574 8.73976528,8.51124574 8.73976528,7.82832574 C8.73976528,7.14504574 8.53348528,6.70332574 7.85920528,6.70332574 C7.18528528,6.70332574 6.97936528,7.14504574 6.97936528,7.82832574 C6.97936528,8.51124574 7.18528528,8.95332574 7.85920528,8.95332574 Z M9.72076528,9.65748574 C9.43240528,9.50124574 8.52988528,9.36516574 7.85920528,9.36516574 C7.17412528,9.36516574 6.28060528,9.50484574 5.98900528,9.66540574 C5.90548528,9.94656574 5.82844528,10.2424857 5.75860528,10.5416457 L9.95980528,10.5416457 C9.88960528,10.2428457 9.81292528,9.94728574 9.72940528,9.66648574 L9.72076528,9.65748574 Z M10.4540853,8.93208574 C10.5134853,10.1013657 10.2172053,11.8621257 10.0112853,12.2210457 C9.94468528,12.3366057 9.88600528,12.3790857 9.68836528,12.3895257 C9.64660528,12.3909657 9.60412528,12.3920457 9.56056528,12.3920457 C8.71960528,12.3920457 7.62448528,12.0036057 6.30652528,11.2378857 C4.36108528,10.1092857 3.79840528,9.16356574 3.67204528,8.90076574 C3.57304528,8.69484574 3.58780528,8.63364574 3.65152528,8.52276574 C3.85708528,8.16420574 5.22364528,7.02696574 6.26008528,6.49488574 C6.94660528,6.14208574 7.59964528,5.89044574 8.25412528,5.72880574 C8.53852528,6.12876574 9.08824528,6.64464574 9.99148528,7.16844574 C10.0771653,7.21776574 10.1599653,7.26384574 10.2416853,7.30884574 C10.3536453,7.81572574 10.4242053,8.35104574 10.4540853,8.93208574 Z M12.5273253,5.59128574 L11.4649653,5.59128574 L11.4649653,6.65436574 L10.7197653,6.65436574 L10.7197653,5.59128574 L9.65740528,5.59128574 L9.65740528,4.84608574 L10.7197653,4.84608574 L10.7197653,3.78372574 L11.4649653,3.78372574 L11.4649653,4.84608574 L12.5273253,4.84608574 L12.5273253,5.59128574 Z"></path>
        </g>
    </g>
</svg>