<?xml version="1.0" encoding="UTF-8" standalone="no"?>
<svg width="16px" height="16px" viewBox="0 0 16 16" version="1.1" xmlns="http://www.w3.org/2000/svg" xmlns:xlink="http://www.w3.org/1999/xlink">
    <!-- Generator: Sketch 3.6.1 (26313) - http://www.bohemiancoding.com/sketch -->
    <title>cuaderno</title>
    <desc>Created with Sketch.</desc>
    <defs></defs>
    <g id="Page-1" stroke="none" stroke-width="1" fill="none" fill-rule="evenodd">
        <g id="cuaderno" fill="#000000">
            <path d="M12.7325752,2.186 L2.98809518,2.186 L2.98809518,3.2192 L3.86181518,3.2192 C3.83193518,3.5792 3.80601518,3.9392 3.78333518,4.3064 L2.98809518,4.3064 L2.98809518,5.3396 L3.72717518,5.3396 C3.71205518,5.6996 3.69981518,6.0596 3.69045518,6.4232 L2.98809518,6.4232 L2.98809518,7.4564 L3.67605518,7.4564 C3.67461518,7.6724 3.66885518,7.8884 3.66993518,8.1008 C3.66993518,8.2484 3.67245518,8.396 3.67281518,8.5436 L2.98809518,8.5436 L2.98809518,9.5768 L3.68973518,9.5768 C3.69873518,9.9404 3.71277518,10.304 3.72789518,10.6604 L2.98809518,10.6604 L2.98809518,11.6936 L3.78153518,11.6936 C3.80457518,12.0644 3.83013518,12.4244 3.86001518,12.7808 L2.98809518,12.7808 L2.98809518,13.814 L12.7293352,13.814 C12.9075352,12.0824 13.0076152,10.1096 13.0115752,8.0972 C13.0180552,6.0956 12.9291352,4.0544 12.7325752,2.186 M11.5078552,12.194 L5.17581518,12.194 C5.04585518,10.9484 4.97205518,9.5228 4.97061518,8.072 C4.96809518,6.6248 5.03109518,5.156 5.17581518,3.806 L11.5092952,3.806 C11.6522152,5.156 11.7152152,6.6248 11.7116152,8.072 C11.7076552,9.5228 11.6360152,10.9484 11.5078552,12.194 Z M6.38289518,5.9948 L10.2982552,5.9948 L10.2982552,5.21 L6.38289518,5.21 L6.38289518,5.9948 Z M6.38289518,7.5608 L10.2982552,7.5608 L10.2982552,6.776 L6.38289518,6.776 L6.38289518,7.5608 Z M6.38289518,10.6928 L9.12357518,10.6928 L9.12357518,9.908 L6.38289518,9.908 L6.38289518,10.6928 Z M6.38289518,9.1268 L10.2982552,9.1268 L10.2982552,8.342 L6.38289518,8.342 L6.38289518,9.1268 Z"></path>
        </g>
    </g>
</svg>