<?xml version="1.0" encoding="UTF-8" standalone="no"?>
<svg width="16px" height="16px" viewBox="0 0 16 16" version="1.1" xmlns="http://www.w3.org/2000/svg" xmlns:xlink="http://www.w3.org/1999/xlink">
    <!-- Generator: Sketch 3.6.1 (26313) - http://www.bohemiancoding.com/sketch -->
    <title>decarga_movil</title>
    <desc>Created with Sketch.</desc>
    <defs></defs>
    <g id="Page-1" stroke="none" stroke-width="1" fill="none" fill-rule="evenodd">
        <g id="decarga_movil" fill="#000000">
            <path d="M9.03392,10.35422 C9.02276,10.55114 9.01196,10.74302 8.99792,10.92014 L4.8122,10.92014 C4.74596,10.04462 4.71248,8.86814 4.71248,7.99298 C4.71248,6.73658 4.7816,5.47334 4.91624,4.22342 L8.8946,4.22342 C8.9072,4.3415 8.9162,4.45994 8.92808,4.57838 C9.17648,4.5107 9.43604,4.47182 9.70532,4.47182 L9.7082,4.47182 C9.66104,3.99914 9.6074,3.52826 9.54188,3.06098 L9.53864,3.06062 C9.53828,3.05594 9.53756,3.05126 9.5372,3.04658 C8.69228,2.84858 7.81172,2.7431 6.90524,2.74238 C5.99912,2.7431 5.1182,2.84858 4.27292,3.04658 C4.27256,3.05126 4.27256,3.05594 4.2722,3.06062 L4.26932,3.06062 C4.04216,4.6781 3.9248,6.32906 3.9248,8.00738 C3.9248,9.68534 4.04216,11.33594 4.26824,12.95306 C5.11532,13.15178 5.99732,13.25762 6.90524,13.25762 C7.81316,13.25762 8.69516,13.15178 9.54188,12.95306 C9.65852,12.12038 9.74528,11.27834 9.80252,10.42838 C9.77048,10.42946 9.73808,10.43342 9.70532,10.43342 C9.4742,10.43342 9.24992,10.40426 9.03392,10.35422 M6.91532,12.65498 C6.60752,12.65498 6.35732,12.40514 6.35732,12.09662 C6.35732,11.7881 6.60752,11.53826 6.91532,11.53826 C7.22456,11.53826 7.47404,11.7881 7.47404,12.09662 C7.47404,12.40514 7.22456,12.65498 6.91532,12.65498 Z M9.70532,5.08274 C8.39672,5.08274 7.33544,6.14402 7.33544,7.45298 C7.33544,8.76158 8.39672,9.82286 9.70532,9.82286 C11.01392,9.82286 12.0752,8.76158 12.0752,7.45298 C12.0752,6.14402 11.01392,5.08274 9.70532,5.08274 Z M11.12192,7.79714 L9.70532,8.94626 L8.28872,7.79714 L8.28872,7.02026 L9.341,7.80182 C9.3374,7.67042 9.3356,7.5383 9.3356,7.40762 C9.3356,6.90542 9.35864,6.4097 9.40184,5.97302 L9.40364,5.95934 L10.007,5.95934 L10.00844,5.97302 C10.052,6.4097 10.07468,6.90542 10.07468,7.40582 C10.07468,7.53722 10.07324,7.6697 10.07036,7.80182 L11.12192,7.02026 L11.12192,7.79714 Z"></path>
        </g>
    </g>
</svg>