<?xml version="1.0" encoding="UTF-8" standalone="no"?>
<svg width="16px" height="16px" viewBox="0 0 16 16" version="1.1" xmlns="http://www.w3.org/2000/svg" xmlns:xlink="http://www.w3.org/1999/xlink">
    <!-- Generator: Sketch 3.6.1 (26313) - http://www.bohemiancoding.com/sketch -->
    <title>deporte</title>
    <desc>Created with Sketch.</desc>
    <defs></defs>
    <g id="Page-1" stroke="none" stroke-width="1" fill="none" fill-rule="evenodd">
        <g id="deporte" fill="#000000">
            <path d="M8,1.9502 C4.6592,1.9502 1.95128,4.6574 1.95128,7.9982 C1.95128,11.339 4.6592,14.0498 8,14.0498 C11.3408,14.0498 14.04872,11.339 14.04872,7.9982 C14.04872,4.6574 11.3408,1.9502 8,1.9502 M11.71628,10.6262 L11.6738,10.2806 L9.93104,10.6802 L9.01196,12.2138 L9.32336,12.3578 C8.90432,12.4874 8.4608,12.5558 8,12.5558 C7.5392,12.5558 7.09496,12.4874 6.67556,12.3578 L6.98804,12.2138 L6.06896,10.6802 L4.3262,10.2806 L4.28372,10.6262 C3.77216,9.9062 3.46508,9.0314 3.44816,8.0846 L3.70124,8.3546 L4.87484,7.0082 L4.71752,5.2262 L4.33772,5.2982 C4.88816,4.5566 5.65676,3.9842 6.55064,3.6854 L6.35516,4.0382 L8,4.7366 L9.64484,4.0382 L9.44936,3.6854 C10.34324,3.9842 11.11184,4.5566 11.66228,5.2982 L11.28248,5.2262 L11.12444,7.0082 L12.29876,8.3546 L12.55184,8.0846 C12.53492,9.0278 12.22784,9.9062 11.71628,10.6262 Z M6.06896,7.5878 L6.80588,9.8594 L9.1934,9.8594 L9.9314,7.5878 L8,6.1874 L6.06896,7.5878 Z"></path>
        </g>
    </g>
</svg>