<?xml version="1.0" encoding="UTF-8" standalone="no"?>
<svg width="16px" height="16px" viewBox="0 0 16 16" version="1.1" xmlns="http://www.w3.org/2000/svg" xmlns:xlink="http://www.w3.org/1999/xlink">
    <!-- Generator: Sketch 3.6.1 (26313) - http://www.bohemiancoding.com/sketch -->
    <title>descargar</title>
    <desc>Created with Sketch.</desc>
    <defs></defs>
    <g id="Page-1" stroke="none" stroke-width="1" fill="none" fill-rule="evenodd">
        <g id="descargar" fill="#000000">
            <path d="M4.64714,5.29928 L7.1369,7.15184 C7.1297,6.83936 7.1261,6.52544 7.1261,6.21728 C7.1261,5.02748 7.17974,3.85604 7.28234,2.82248 L7.28522,2.78936 L8.71478,2.78936 L8.71802,2.82248 C8.82098,3.85604 8.87426,5.02748 8.87426,6.21332 C8.87426,6.524 8.87066,6.83792 8.8631,7.15184 L11.35286,5.29928 L11.35286,7.13888 L7.99982,9.86012 L4.64714,7.13888 L4.64714,5.29928 L4.64714,5.29928 Z M12.66614,13.21064 L3.33386,13.21064 L3.33386,10.87784 L4.50026,10.87784 L4.50026,12.04424 L11.49974,12.04424 L11.49974,10.87784 L12.66614,10.87784 L12.66614,13.21064 L12.66614,13.21064 Z"></path>
        </g>
    </g>
</svg>