<?xml version="1.0" encoding="UTF-8" standalone="no"?>
<svg width="16px" height="16px" viewBox="0 0 16 16" version="1.1" xmlns="http://www.w3.org/2000/svg" xmlns:xlink="http://www.w3.org/1999/xlink">
    <!-- Generator: Sketch 3.6.1 (26313) - http://www.bohemiancoding.com/sketch -->
    <title>descarga</title>
    <desc>Created with Sketch.</desc>
    <defs></defs>
    <g id="Page-1" stroke="none" stroke-width="1" fill="none" fill-rule="evenodd">
        <g id="descarga" fill="#000000">
            <path d="M8,2.75084 C5.10092,2.75084 2.75084,5.10092 2.75084,8 C2.75084,10.89908 5.10092,13.24916 8,13.24916 C10.89908,13.24916 13.24916,10.89908 13.24916,8 C13.24916,5.10092 10.89908,2.75084 8,2.75084 L8,2.75084 Z M5.8544,5.62724 L7.44776,6.81272 C7.44308,6.61328 7.44056,6.41204 7.44056,6.21476 C7.44056,5.45336 7.47548,4.70384 7.541,4.04216 L7.5428,4.02092 L8.45756,4.02092 L8.45972,4.04216 C8.5256,4.70384 8.5598,5.45336 8.5598,6.21224 C8.5598,6.41132 8.55692,6.6122 8.5526,6.81272 L10.14596,5.62724 L10.14596,6.8048 L8,8.54612 L5.8544,6.8048 L5.8544,5.62724 L5.8544,5.62724 Z M10.9862,10.69064 L5.0138,10.69064 L5.0138,9.19736 L5.76044,9.19736 L5.76044,9.944 L10.23992,9.944 L10.23992,9.19736 L10.9862,9.19736 L10.9862,10.69064 L10.9862,10.69064 Z"></path>
        </g>
    </g>
</svg>