<?xml version="1.0" encoding="UTF-8" standalone="no"?>
<svg width="16px" height="16px" viewBox="0 0 16 16" version="1.1" xmlns="http://www.w3.org/2000/svg" xmlns:xlink="http://www.w3.org/1999/xlink">
    <!-- Generator: Sketch 3.6.1 (26313) - http://www.bohemiancoding.com/sketch -->
    <title>descargar_pdf</title>
    <desc>Created with Sketch.</desc>
    <defs></defs>
    <g id="Page-1" stroke="none" stroke-width="1" fill="none" fill-rule="evenodd">
        <g id="descargar_pdf" fill="#000000">
            <path d="M9.29564,2.79476 L4.27616,2.79476 L4.27616,13.20524 L11.72384,13.20524 L11.72384,5.19848 L9.29564,2.79476 L9.29564,2.79476 Z M11.00384,12.48524 L4.99616,12.48524 L4.99616,3.51476 L8.99936,3.51476 L9.00116,3.51692 L9.00116,5.48396 L10.98872,5.48396 L11.00384,5.49908 L11.00384,12.48524 L11.00384,12.48524 Z M5.74856,11.744 L10.2284,11.744 L10.2284,10.997 L5.74856,10.997 L5.74856,11.744 Z M5.74856,10.24748 L10.2284,10.24748 L10.2284,9.5012 L5.74856,9.5012 L5.74856,10.24748 Z M6.49232,6.47972 C6.70256,6.47972 6.85088,6.50852 6.97868,6.614 C7.10432,6.7166 7.16912,6.89264 7.16912,7.10648 L7.16912,7.14032 C7.16912,7.37396 7.1072,7.5248 6.97868,7.6328 C6.85088,7.74044 6.70544,7.76672 6.47252,7.76672 L6.1622,7.76672 L6.1622,8.40968 L5.76692,8.40968 L5.76692,6.49448 C5.8436,6.4862 5.96024,6.47972 6.0452,6.47972 L6.49232,6.47972 L6.49232,6.47972 Z M6.1622,7.44164 L6.4664,7.44164 C6.57188,7.44164 6.63416,7.4222 6.68816,7.36784 C6.74288,7.3142 6.76808,7.22852 6.76808,7.13204 L6.76808,7.1144 C6.76808,7.01792 6.74288,6.93224 6.68816,6.87896 C6.63416,6.8246 6.57188,6.8048 6.4664,6.8048 L6.1622,6.8048 L6.1622,7.44164 L6.1622,7.44164 Z M7.90784,6.47972 C8.22968,6.47972 8.46584,6.53732 8.61956,6.66188 C8.79884,6.8102 8.88992,7.07228 8.88992,7.39916 L8.88992,7.45892 C8.88992,7.81748 8.78984,8.08748 8.60228,8.23544 C8.45144,8.35532 8.22968,8.40968 7.89956,8.40968 L7.66592,8.40968 C7.49564,8.40968 7.40744,8.40356 7.33328,8.3924 L7.33328,6.497 C7.40744,6.4862 7.53524,6.47972 7.66052,6.47972 L7.90784,6.47972 L7.90784,6.47972 Z M7.72856,8.07668 L7.91648,8.07668 C8.09828,8.07668 8.22356,8.04536 8.31464,7.98236 C8.4428,7.89128 8.49104,7.71812 8.49104,7.44452 L8.49104,7.4078 C8.49104,7.22852 8.45144,7.06364 8.36864,6.96356 C8.28656,6.86168 8.144,6.81596 7.9334,6.81596 L7.72856,6.81596 L7.72856,8.07668 L7.72856,8.07668 Z M10.3022,6.47972 L10.27988,6.8048 L9.46844,6.8048 L9.46844,7.29692 C9.50588,7.29116 9.58796,7.28576 9.65672,7.28576 L10.15424,7.28576 L10.13192,7.60976 L9.46268,7.60976 L9.46268,8.40968 L9.06488,8.40968 L9.06488,6.4862 C9.14444,6.47972 9.22148,6.47972 9.30068,6.47972 L10.3022,6.47972 L10.3022,6.47972 Z"></path>
        </g>
    </g>
</svg>