<?xml version="1.0" encoding="UTF-8" standalone="no"?>
<svg width="16px" height="16px" viewBox="0 0 16 16" version="1.1" xmlns="http://www.w3.org/2000/svg" xmlns:xlink="http://www.w3.org/1999/xlink">
    <!-- Generator: Sketch 3.6.1 (26313) - http://www.bohemiancoding.com/sketch -->
    <title>descuento</title>
    <desc>Created with Sketch.</desc>
    <defs></defs>
    <g id="Page-1" stroke="none" stroke-width="1" fill="none" fill-rule="evenodd">
        <g id="descuento" fill="#000000">
            <path d="M11.70494,6.63886933 C11.70494,6.63886933 11.18906,4.38526933 10.55798,3.76246933 C10.55798,3.76246933 10.42154,3.63286933 10.28078,3.57166933 C10.14506,3.51046933 9.99386,3.49246933 9.99386,3.49246933 C9.0809,3.39166933 6.97418,4.48966933 6.97418,4.48966933 C6.97418,4.48966933 6.19802,5.50486933 5.49674,7.04926933 C4.79582,8.59366933 4.29506,10.3900693 4.29506,10.3900693 C4.29506,10.3900693 4.56002,10.5088693 4.88618,10.6564693 L8.43434,12.2692693 C8.76194,12.4168693 8.97614,12.5140693 8.97614,12.5140693 C8.97614,12.5140693 10.0331,10.9696693 10.73366,9.42886933 C11.4353,7.88446933 11.70494,6.63886933 11.70494,6.63886933 M7.8659,10.0372693 C7.85258,9.74566933 8.07794,9.49726933 8.37026,9.48286933 C8.66258,9.46846933 8.91026,9.69526933 8.92394,9.98686933 C8.93798,10.2784693 8.71226,10.5268693 8.4203,10.5412693 C8.12762,10.5556693 7.87994,10.3288693 7.8659,10.0372693 M6.31538,9.28846933 C6.62714,9.01486933 7.2773,8.46406933 7.62398,8.22286933 C8.12006,7.87366933 8.72198,7.54606933 9.07226,7.35526933 C9.11186,7.39846933 9.19826,7.51726933 9.28466,7.63966933 C9.3707,7.76566933 9.4517,7.88446933 9.48014,7.93846933 C9.18026,8.20126933 8.66726,8.65486933 8.1719,9.00406933 C7.82522,9.24526933 7.08794,9.67006933 6.72326,9.87166933 C6.68438,9.82486933 6.59726,9.70606933 6.51086,9.58366933 C6.42554,9.46126933 6.34346,9.33886933 6.31538,9.28846933 M7.99442,7.23286933 C8.00774,7.52446933 7.78202,7.77286933 7.49006,7.78726933 C7.19774,7.79806933 6.9497,7.57486933 6.93638,7.28326933 C6.92234,6.99166933 7.14806,6.73966933 7.44074,6.72886933 C7.73234,6.71446933 7.98038,6.94126933 7.99442,7.23286933 M10.42262,5.51926933 C10.19978,6.01246933 9.62018,6.22846933 9.12878,6.00526933 C8.63738,5.78206933 8.41994,5.20246933 8.64278,4.71286933 C8.86634,4.21966933 9.44594,4.00366933 9.93734,4.22686933 C10.42874,4.45006933 10.64618,5.02966933 10.42262,5.51926933"></path>
        </g>
    </g>
</svg>