<?xml version="1.0" encoding="UTF-8" standalone="no"?>
<svg width="16px" height="16px" viewBox="0 0 16 16" version="1.1" xmlns="http://www.w3.org/2000/svg" xmlns:xlink="http://www.w3.org/1999/xlink">
    <!-- Generator: Sketch 3.6.1 (26313) - http://www.bohemiancoding.com/sketch -->
    <title>despegue</title>
    <desc>Created with Sketch.</desc>
    <defs></defs>
    <g id="Page-1" stroke="none" stroke-width="1" fill="none" fill-rule="evenodd">
        <g id="despegue" fill="#000000">
            <path d="M13.25852,5.88464 C13.16168,6.0596 12.74912,6.38396 12.14756,6.66368 L7.79228,8.42336 C7.42544,8.57204 4.1588,9.20456 4.1588,9.20456 C4.1588,9.20456 2.76848,7.42292 2.74148,7.39556 L3.2138,7.13132 C3.65228,7.2872 4.4306,7.60652 5.30432,7.9082 C5.80472,7.694 6.34148,7.4366 6.89804,7.20908 L3.9248,4.35284 L4.60232,4.1228 C4.60232,4.1228 5.6852,4.48964 7.02224,5.11424 C8.41184,5.7644 9.2474,6.254 9.2996,6.20216 C9.38744,6.1784 11.0186,5.56208 11.348,5.45696 C11.97044,5.25788 12.59684,5.38208 13.1624,5.64776 L13.25852,5.88464 L13.25852,5.88464 Z M2.7764,11.8772 L13.20992,11.8772 L13.20992,11.12948 L2.7764,11.12948 L2.7764,11.8772 Z"></path>
        </g>
    </g>
</svg>