<?xml version="1.0" encoding="UTF-8" standalone="no"?>
<svg width="16px" height="16px" viewBox="0 0 16 16" version="1.1" xmlns="http://www.w3.org/2000/svg" xmlns:xlink="http://www.w3.org/1999/xlink">
    <!-- Generator: Sketch 3.6.1 (26313) - http://www.bohemiancoding.com/sketch -->
    <title>discapacitados</title>
    <desc>Created with Sketch.</desc>
    <defs></defs>
    <g id="Page-1" stroke="none" stroke-width="1" fill="none" fill-rule="evenodd">
        <g id="discapacitados" fill="#000000">
            <path d="M6.62156206,3.91909645 C7.23500206,3.88309645 7.39808206,3.49789645 7.36208206,2.92909645 C7.32464206,2.35669645 7.11476206,2.00029645 6.50168206,2.03989645 C5.88824206,2.07589645 5.72552206,2.45749645 5.76116206,3.02989645 C5.79788206,3.60229645 6.00884206,3.95869645 6.62156206,3.91909645 Z M6.11792206,4.37269645 L6.06320206,4.38349645 L6.66188206,7.65589645 L6.66764206,7.68469645 L6.66980206,7.68829645 C6.73136206,7.94389645 6.98300206,8.54509645 7.23068206,8.58109645 L10.5650021,8.62429645 C10.8926021,8.67109645 11.1960821,8.44429645 11.2443221,8.12029645 C11.2929221,7.78909645 11.0661221,7.48669645 10.7385221,7.43629645 L9.09152206,7.41829645 L8.98676206,7.42549645 L8.99216206,7.42189645 C8.55332206,5.55709645 7.50428206,4.36549645 7.50428206,4.36549645 L7.49600206,4.35829645 C7.25552206,4.26829645 6.73352206,4.25389645 6.11792206,4.37269645 Z M12.8600021,11.3854964 L11.5186421,9.27949645 L10.9008821,10.5754964 L11.8332821,12.0370964 C12.0140021,12.3214964 12.3909221,12.4042964 12.6731621,12.2242964 C12.9579221,12.0442964 13.0410821,11.6662964 12.8600021,11.3854964 Z M11.1086021,9.08869645 L6.36380206,9.03109645 L5.30468206,4.03429645 L4.54184206,3.92629645 C4.54184206,3.92629645 4.71860206,5.76949645 4.88096206,7.16989645 C3.78548206,7.79629645 3.04424206,8.97349645 3.04424206,10.3270964 C3.04424206,12.3358964 4.67216206,13.9630964 6.68132206,13.9630964 C8.69012206,13.9630964 10.3184021,12.3358964 10.3184021,10.3270964 C10.3184021,10.2982964 10.3140821,10.2694964 10.3140821,10.2406964 C11.1330821,9.73669645 11.1086021,9.08869645 11.1086021,9.08869645 Z M6.68132206,13.0666964 C5.17040206,13.0666964 3.94136206,11.8390964 3.94136206,10.3270964 C3.94136206,9.44869645 4.36004206,8.66389645 5.00624206,8.16349645 C5.00624206,8.15989645 5.00552206,8.15629645 5.00480206,8.14909645 C5.01632206,8.23189645 5.02748206,8.30749645 5.03792206,8.37229645 C5.21468206,9.48469645 5.56388206,10.8166964 6.84224206,10.8166964 C7.96796206,10.8706964 8.79524206,10.7806964 9.40508206,10.6186964 C9.26036206,11.9938964 8.09396206,13.0666964 6.68132206,13.0666964 Z M4.97456206,7.93309645 C4.97636206,7.94029645 4.97780206,7.95109645 4.97888206,7.96189645 C4.97780206,7.95109645 4.97636206,7.94029645 4.97456206,7.93309645 Z M9.67544206,10.5358964 L9.67616206,10.5358964 L9.67544206,10.5358964 Z"></path>
        </g>
    </g>
</svg>