<?xml version="1.0" encoding="UTF-8" standalone="no"?>
<svg width="16px" height="16px" viewBox="0 0 16 16" version="1.1" xmlns="http://www.w3.org/2000/svg" xmlns:xlink="http://www.w3.org/1999/xlink">
    <!-- Generator: Sketch 3.6.1 (26313) - http://www.bohemiancoding.com/sketch -->
    <title>doblar</title>
    <desc>Created with Sketch.</desc>
    <defs></defs>
    <g id="Page-1" stroke="none" stroke-width="1" fill="none" fill-rule="evenodd">
        <g id="doblar" fill="#000000">
            <path d="M13.9445777,7.0586 L11.1488177,7.0586 L10.9536977,4.8986 L6.78273769,4.8986 L6.78273769,3.419 L6.47637769,3.419 L6.47637769,4.8986 L2.05845769,4.8986 C2.04189769,5.8814 2.09409769,6.9542 2.19057769,8.009 C2.28741769,9.0638 2.43501769,10.1042 2.61249769,11.0114 L6.47637769,11.0114 L6.47637769,12.581 L6.78273769,12.581 L6.78273769,11.0114 L11.5070177,11.0114 L11.5066577,11.0042 C12.4361777,8.7938 13.9445777,7.0586 13.9445777,7.0586 M6.78273769,10.2914 L6.78273769,10.007 L6.47637769,10.007 L6.47637769,10.2914 L3.29361769,10.2914 C3.15033769,9.6002 3.03369769,8.8154 2.96061769,8.0126 C2.88609769,7.2134 2.85189769,6.3998 2.87349769,5.6546 L6.47637769,5.6546 L6.47637769,5.993 L6.78273769,5.993 L6.78273769,5.6546 L10.3154177,5.6546 L10.7340977,10.2914 L6.78273769,10.2914 Z M6.47637769,7.7786 L6.78273769,7.7786 L6.78273769,6.3242 L6.47637769,6.3242 L6.47637769,7.7786 Z M6.47637769,9.6758 L6.78273769,9.6758 L6.78273769,8.2214 L6.47637769,8.2214 L6.47637769,9.6758 Z"></path>
        </g>
    </g>
</svg>