<?xml version="1.0" encoding="UTF-8" standalone="no"?>
<svg width="16px" height="16px" viewBox="0 0 16 16" version="1.1" xmlns="http://www.w3.org/2000/svg" xmlns:xlink="http://www.w3.org/1999/xlink">
    <!-- Generator: Sketch 3.7.2 (28276) - http://www.bohemiancoding.com/sketch -->
    <title>documento_pdf</title>
    <desc>Created with Sketch.</desc>
    <defs></defs>
    <g id="Page-1" stroke="none" stroke-width="1" fill="none" fill-rule="evenodd">
        <g id="documento_pdf" fill="#000000">
            <path d="M11.2529693,5.39636022 C11.2523883,5.35049982 11.2378459,5.30520223 11.2063464,5.26939989 L9.27819434,3.06706584 C9.27781308,3.06644856 9.27706871,3.06624885 9.27666929,3.06568604 C9.26517696,3.05285021 9.25197802,3.04226564 9.2377987,3.03293379 C9.23358666,3.03021049 9.22917491,3.02775952 9.22476316,3.02527224 C9.21250831,3.01862738 9.19967248,3.01310816 9.18609228,3.00907767 C9.18264276,3.00802466 9.17919325,3.00653592 9.17556218,3.00559185 C9.16101975,3.00206971 9.14589635,3 9.13075479,3 L4.39215544,3 C4.1759616,3 4,3.17597975 4,3.39217359 L4,12.6078264 C4,12.824111 4.1759616,13 4.39215544,13 L10.8627202,13 C11.078914,13 11.2548938,12.824111 11.2548938,12.6078264 L11.2548938,5.41832818 C11.2548756,5.41095711 11.2537318,5.40373129 11.2529693,5.39636022 Z M5.40226433,10.5219952 C5.29293285,10.5219952 5.21882273,10.5325253 5.17989768,10.5430554 L5.17989768,11.2454131 C5.22584885,11.2559432 5.28234828,11.2595742 5.35969005,11.2595742 C5.64576381,11.2595742 5.82212483,11.1148217 5.82212483,10.8713403 C5.82214298,10.6525866 5.67030984,10.5219952 5.40226433,10.5219952 Z M6.13617598,11.4217741 C5.95273438,11.5946674 5.68098518,11.6724268 5.36332112,11.6724268 C5.29284207,11.6724268 5.22913497,11.6687957 5.17991583,11.6618967 L5.17991583,12.5122748 L4.64705647,12.5122748 L4.64705647,10.1654605 C4.81283292,10.1373198 5.04587492,10.1160599 5.37412355,10.1160599 C5.70576723,10.1160599 5.94224059,10.1796217 6.10099092,10.306582 C6.25282406,10.4266252 6.35489341,10.6242461 6.35489341,10.8570884 C6.35489341,11.0901122 6.27744271,11.2877332 6.13617598,11.4217741 Z M7.48114204,10.528985 C7.36108075,10.528985 7.28353928,10.5396059 7.23762441,10.550136 L7.23762441,12.1064121 C7.28363005,12.1170511 7.35774017,12.1170511 7.42469708,12.1170511 C7.9115871,12.1204825 8.22925116,11.8524188 8.22925116,11.2841929 C8.23270068,10.790077 7.94339527,10.528985 7.48114204,10.528985 Z M8.40543063,12.2300318 C8.1551592,12.4381647 7.77402406,12.5369661 7.30833948,12.5369661 C7.02949154,12.5369661 6.83197955,12.5193554 6.69764816,12.5017447 L6.69764816,10.1654605 C6.89530539,10.1338702 7.15303866,10.1160599 7.42469708,10.1160599 C7.87616603,10.1160599 8.16913882,10.1972506 8.39864053,10.3701439 C8.64573476,10.5536763 8.80103558,10.8465583 8.80103558,11.2664733 C8.80083587,11.7218274 8.63500496,12.0358604 8.40543063,12.2300318 Z M10.608037,10.5748636 L9.69389726,10.5748636 L9.69389726,11.1182893 L10.5479065,11.1182893 L10.5479065,11.5560147 L9.69389726,11.5560147 L9.69389726,12.5122748 L9.15412072,12.5122748 L9.15412072,10.1338702 L10.608037,10.1338702 L10.608037,10.5748636 Z M4.39215544,9.65850887 L4.39215544,3.39217359 L8.93467707,3.39217359 L8.93467707,5.39861148 C8.93467707,5.50683549 9.02238554,5.5946892 9.13075479,5.5946892 L10.8627202,5.5946892 L10.8629199,9.65850887 L4.39215544,9.65850887 Z M9.63914074,7.21449087 C9.62764841,7.2134197 9.35134222,7.18820193 8.92721522,7.18820193 C8.79433626,7.18820193 8.66049506,7.19079815 8.52836046,7.19577271 C7.69079996,6.56723469 7.00478212,5.93820647 6.63751766,5.58568415 C6.64421698,5.54686802 6.64882844,5.51618549 6.65097077,5.49261985 C6.69940923,4.98127458 6.64556047,4.63606886 6.49145791,4.46657056 C6.39055051,4.35580481 6.24234843,4.31894946 6.08781014,4.36116063 C5.99184099,4.38630579 5.81419094,4.47940639 5.75731025,4.66893003 C5.69451091,4.87837009 5.79545463,5.13256306 6.06064974,5.42733323 C6.06486178,5.43179945 6.15485783,5.52609831 6.31838301,5.68588349 C6.21210163,6.19265362 5.93388913,7.28624079 5.79890414,7.81138413 C5.48185736,7.98079165 5.2176971,8.18485772 5.0131953,8.41895273 L4.99979666,8.43427584 L4.99113656,8.4526672 C4.97007636,8.49691178 4.86940498,8.72657688 4.94498568,8.91107149 C4.97949899,8.99494918 5.04416832,9.05622347 5.13202203,9.08839474 L5.15556951,9.09473096 C5.15556951,9.09473096 5.17681127,9.09932426 5.21415681,9.09932426 C5.37773646,9.09932426 5.78151132,9.0133587 5.99808643,8.21524976 L6.05055537,8.01303554 C6.80652576,7.64558952 7.75149328,7.52705328 8.43643995,7.49402871 C8.78876257,7.75530227 9.13936042,7.99531592 9.47906507,8.20786054 L9.49015799,8.21428753 C9.50662489,8.22271161 9.65558949,8.29625891 9.83004419,8.29642231 C10.0793534,8.29642231 10.2614515,8.14342722 10.3292435,7.87679783 L10.3326749,7.85856987 C10.3516291,7.70619206 10.3133395,7.56884688 10.2219999,7.46147617 C10.0295896,7.23529689 9.67133017,7.21558019 9.63914074,7.21449087 Z M5.22025701,8.80506244 C5.21873196,8.8032469 5.21800574,8.8015403 5.21724322,8.79961583 C5.20097603,8.76045476 5.22049303,8.66546599 5.24921478,8.59587656 C5.37252588,8.45800487 5.5205464,8.33144397 5.69135188,8.21750103 C5.52501262,8.75595223 5.28311081,8.80250253 5.22025701,8.80506244 Z M6.2763897,5.22756998 C6.02094401,4.94322098 6.02477478,4.80224473 6.03851838,4.75478666 C6.06106732,4.67546596 6.16284618,4.64549148 6.16371763,4.64521915 C6.21498833,4.63127585 6.24610659,4.63401731 6.27381164,4.66442751 C6.33646574,4.73325442 6.39027818,4.94096971 6.36901827,5.32197777 C6.30870621,5.26137523 6.2763897,5.22756998 6.2763897,5.22756998 Z M6.14440035,7.64900273 L6.1488121,7.63215457 L6.14823112,7.63235428 C6.27613553,7.13139386 6.46059383,6.39786348 6.56665735,5.92667783 L6.57048812,5.93032705 L6.57086939,5.92807579 C6.9140054,6.25120461 7.44014728,6.72384269 8.07011957,7.21541679 L8.06303899,7.21570728 L8.07346015,7.22356854 C7.47999826,7.27369545 6.7711773,7.39068849 6.14440035,7.64900273 Z M10.0418444,7.8133449 C9.99665579,7.97939368 9.909728,8.00208786 9.83006235,8.00208786 C9.73757902,8.00208786 9.64854521,7.96359853 9.62824754,7.954303 C9.39693029,7.80931442 9.16027538,7.65132661 8.92147814,7.48230035 L8.92721522,7.48230035 C9.33660008,7.48230035 9.6092752,7.50715502 9.61998686,7.50791755 C9.68835988,7.51045929 9.90473528,7.5424127 9.99798113,7.65203467 C10.034546,7.69500837 10.0485438,7.74636984 10.0418444,7.8133449 Z" id="Combined-Shape"></path>
        </g>
    </g>
</svg>