<?xml version="1.0" encoding="UTF-8" standalone="no"?>
<svg width="16px" height="16px" viewBox="0 0 16 16" version="1.1" xmlns="http://www.w3.org/2000/svg" xmlns:xlink="http://www.w3.org/1999/xlink">
    <!-- Generator: Sketch 3.6.1 (26313) - http://www.bohemiancoding.com/sketch -->
    <title>duchas</title>
    <desc>Created with Sketch.</desc>
    <defs></defs>
    <g id="Page-1" stroke="none" stroke-width="1" fill="none" fill-rule="evenodd">
        <g id="duchas" fill="#000000">
            <path d="M8.78714,3.6386 L8.7929,3.6386 L8.7929,2.0546 L7.2071,2.0546 L7.2071,3.6386 C5.62202,3.6386 4.03658,5.201 4.03658,6.8354 L11.95802,6.8354 C11.95802,5.201 10.37258,3.6386 8.78714,3.6386 Z M4.8293,9.9314 C4.8293,9.9818 4.78826,10.0214 4.73786,10.0214 L4.12802,10.0214 C4.07762,10.0214 4.03658,9.9818 4.03658,9.9314 L4.03658,8.4878 C4.03658,8.4374 4.07762,8.3978 4.12802,8.3978 L4.73786,8.3978 C4.78826,8.3978 4.8293,8.4374 4.8293,8.4878 L4.8293,9.9314 Z M6.41474,10.6802 C6.41474,10.7342 6.3737,10.7738 6.32294,10.7738 L5.71346,10.7738 C5.66306,10.7738 5.62202,10.7342 5.62202,10.6802 L5.62202,9.3014 C5.62202,9.251 5.66306,9.2078 5.71346,9.2078 L6.32294,9.2078 C6.3737,9.2078 6.41474,9.251 6.41474,9.3014 L6.41474,10.6802 Z M9.58562,9.8882 C9.58562,9.9386 9.54458,9.9818 9.49382,9.9818 L8.88434,9.9818 C8.83394,9.9818 8.7929,9.9386 8.7929,9.8882 L8.7929,8.4986 C8.7929,8.4482 8.83394,8.405 8.88434,8.405 L9.49382,8.405 C9.54458,8.405 9.58562,8.4482 9.58562,8.4986 L9.58562,9.8882 Z M11.17106,10.6802 C11.17106,10.7342 11.13002,10.7738 11.0789,10.7738 L10.47014,10.7738 C10.41902,10.7738 10.37834,10.7342 10.37834,10.6802 L10.37834,9.3014 C10.37834,9.251 10.41902,9.2078 10.47014,9.2078 L11.0789,9.2078 C11.13002,9.2078 11.17106,9.251 11.17106,9.3014 L11.17106,10.6802 Z M5.62202,13.103 C5.62202,13.1498 5.58098,13.193 5.53022,13.193 L4.92074,13.193 C4.87034,13.193 4.8293,13.1498 4.8293,13.103 L4.8293,11.6594 C4.8293,11.609 4.87034,11.5658 4.92074,11.5658 L5.53022,11.5658 C5.58098,11.5658 5.62202,11.609 5.62202,11.6594 L5.62202,13.103 Z M7.20746,13.8518 C7.20746,13.9022 7.16642,13.9454 7.11602,13.9454 L6.50618,13.9454 C6.45578,13.9454 6.41474,13.9022 6.41474,13.8518 L6.41474,12.473 C6.41474,12.419 6.45578,12.3794 6.50618,12.3794 L7.11602,12.3794 C7.16642,12.3794 7.20746,12.419 7.20746,12.473 L7.20746,13.8518 Z M8.7929,12.2894 C8.7929,12.3398 8.75186,12.3794 8.7011,12.3794 L8.09162,12.3794 C8.04086,12.3794 8.00018,12.3398 8.00018,12.2894 L8.00018,10.8638 C8.00018,10.8134 8.04086,10.7738 8.09162,10.7738 L8.7011,10.7738 C8.75186,10.7738 8.7929,10.8134 8.7929,10.8638 L8.7929,12.2894 Z M10.37834,13.0598 C10.37834,13.1102 10.33694,13.1498 10.28654,13.1498 L9.67706,13.1498 C9.6263,13.1498 9.58526,13.1102 9.58526,13.0598 L9.58526,11.6666 C9.58526,11.6162 9.6263,11.5766 9.67706,11.5766 L10.28654,11.5766 C10.33694,11.5766 10.37834,11.6162 10.37834,11.6666 L10.37834,13.0598 Z M11.96342,13.8518 C11.96342,13.9022 11.92238,13.9454 11.87198,13.9454 L11.2625,13.9454 C11.2121,13.9454 11.1707,13.9022 11.1707,13.8518 L11.1707,12.473 C11.1707,12.419 11.2121,12.3794 11.2625,12.3794 L11.87198,12.3794 C11.92238,12.3794 11.96342,12.419 11.96342,12.473 L11.96342,13.8518 Z"></path>
        </g>
    </g>
</svg>