<?xml version="1.0" encoding="UTF-8" standalone="no"?>
<svg width="16px" height="16px" viewBox="0 0 16 16" version="1.1" xmlns="http://www.w3.org/2000/svg" xmlns:xlink="http://www.w3.org/1999/xlink">
    <!-- Generator: Sketch 3.6.1 (26313) - http://www.bohemiancoding.com/sketch -->
    <title>e_auriculares</title>
    <desc>Created with Sketch.</desc>
    <defs></defs>
    <g id="Page-1" stroke="none" stroke-width="1" fill="none" fill-rule="evenodd">
        <g id="e_auriculares" fill="#000000">
            <path d="M9.37447748,10.8552587 C9.03391748,10.7220587 8.61775748,10.5024587 8.07199748,9.71045866 C7.59499748,9.01925866 7.44919748,8.55125866 7.41247748,8.12285866 C8.17675748,7.60445866 8.86543748,7.80965866 8.98171748,7.85285866 C8.31247748,6.92045866 6.78895748,5.31845866 7.10431748,5.07365866 C7.10431748,5.07365866 4.97923748,3.05765866 4.27867748,4.63805866 C3.63391748,6.09245866 5.14159748,7.35965866 6.78571748,10.2324587 C8.30671748,12.8892587 3.41791748,11.4420587 3.41791748,11.4420587 L3.41791748,10.8732587 C3.41791748,10.8732587 6.95095748,11.8920587 6.41095748,10.7580587 C4.86079748,7.50005866 2.88079748,6.23645866 3.86035748,4.34285866 C4.75927748,2.60405866 7.02763748,4.13405866 7.74079748,4.93685866 C8.61307748,5.94845866 10.1362375,8.47205866 10.1362375,8.47205866 C10.1362375,8.47205866 10.1733175,10.2504587 9.37447748,10.8552587 M12.0532375,6.59645866 L12.0528775,6.59645866 C11.8037575,5.65325866 11.4685975,4.83965866 10.9894375,3.60485866 C10.9894375,3.60485866 9.58903748,2.50325866 8.62351748,2.76605866 C8.51947748,3.11885866 8.43955748,3.57965866 8.73115748,4.49405866 C8.98495748,5.29325866 9.26755748,5.69645866 9.58363748,5.98805866 C10.4616775,5.70005866 10.7187175,5.02685866 10.7579575,4.91165866 C11.0855575,6.00965866 11.4340375,8.22005866 11.9326375,8.14085866 C11.9326375,8.14085866 13.4925175,12.9468587 7.39303748,12.7956587 C5.39395748,12.7488587 3.53707748,12.2988587 3.53707748,12.2988587 L3.55723748,12.8424587 C3.55723748,12.8424587 5.15131748,13.2744587 7.48915748,13.2744587 C9.15703748,13.2744587 10.4137975,13.0368587 11.4797575,12.1836587 C13.5634375,10.5096587 12.0532375,6.59645866 12.0532375,6.59645866"></path>
        </g>
    </g>
</svg>