<?xml version="1.0" encoding="UTF-8" standalone="no"?>
<svg width="16px" height="16px" viewBox="0 0 16 16" version="1.1" xmlns="http://www.w3.org/2000/svg" xmlns:xlink="http://www.w3.org/1999/xlink">
    <!-- Generator: Sketch 3.6.1 (26313) - http://www.bohemiancoding.com/sketch -->
    <title>e_equipaje_facturado</title>
    <desc>Created with Sketch.</desc>
    <defs></defs>
    <g id="Page-1" stroke="none" stroke-width="1" fill="none" fill-rule="evenodd">
        <g id="e_equipaje_facturado" fill="#000000">
            <path d="M13.2196371,11.7701 C13.2196371,12.1697 12.8938371,12.4973 12.4924371,12.4973 C12.0910371,12.4973 11.7652371,12.1697 11.7652371,11.7701 C11.7652371,11.3669 12.0910371,11.0393 12.4924371,11.0393 C12.8938371,11.0393 13.2196371,11.3669 13.2196371,11.7701 L13.2196371,11.7701 Z M3.46651711,11.0393 C3.06511711,11.0393 2.73967711,11.3669 2.73967711,11.7701 C2.73967711,12.1697 3.06511711,12.4973 3.46651711,12.4973 C3.86791711,12.4973 4.19371711,12.1697 4.19371711,11.7701 C4.19371711,11.3669 3.86791711,11.0393 3.46651711,11.0393 L3.46651711,11.0393 Z M5.73343711,11.0393 C5.33167711,11.0393 5.00623711,11.3669 5.00623711,11.7701 C5.00623711,12.1697 5.33167711,12.4973 5.73343711,12.4973 C6.13447711,12.4973 6.46027711,12.1697 6.46027711,11.7701 C6.46027711,11.3669 6.13447711,11.0393 5.73343711,11.0393 L5.73343711,11.0393 Z M7.97947711,11.0393 C7.57843711,11.0393 7.25263711,11.3669 7.25263711,11.7701 C7.25263711,12.1697 7.57843711,12.4973 7.97947711,12.4973 C8.38123711,12.4973 8.70703711,12.1697 8.70703711,11.7701 C8.70703711,11.3669 8.38123711,11.0393 7.97947711,11.0393 L7.97947711,11.0393 Z M10.2363171,11.0393 C9.83491711,11.0393 9.50875711,11.3669 9.50875711,11.7701 C9.50875711,12.1697 9.83491711,12.4973 10.2363171,12.4973 C10.6377171,12.4973 10.9631571,12.1697 10.9631571,11.7701 C10.9631571,11.3669 10.6377171,11.0393 10.2363171,11.0393 L10.2363171,11.0393 Z M5.11999711,10.2473 C4.96555711,8.8397 4.92055711,7.1945 5.25931711,5.4269 C5.27371711,5.3477 5.33563711,5.2901 5.41231711,5.2793 C6.10171711,5.1785 6.72271711,5.0993 7.30915711,5.0453 L7.56799711,3.9833 C7.61443711,3.7889 7.76995711,3.6449 7.96399711,3.6089 C8.74699711,3.4685 9.63151711,3.4649 10.2899571,3.6125 C10.4861571,3.6593 10.6492371,3.7925 10.6963971,3.9869 L10.9530771,5.0417 C11.5380771,5.0957 12.1597971,5.1749 12.8517171,5.2793 C12.9280371,5.2901 12.9892371,5.3477 13.0036371,5.4233 C13.3423971,7.1909 13.2981171,8.8397 13.1433171,10.2473 L5.11999711,10.2473 L5.11999711,10.2473 Z M8.17459711,5.2649 L10.0887171,5.2649 C10.0588371,5.0453 10.0361571,4.8869 10.0249971,4.8149 L10.0185171,4.7789 C9.99727711,4.6313 9.96991711,4.4549 9.95155711,4.3397 C9.40579711,4.1885 8.85679711,4.1849 8.31031711,4.3397 C8.29231711,4.4513 8.26459711,4.6313 8.24371711,4.7789 L8.23759711,4.8185 C8.22859711,4.8761 8.20555711,5.0381 8.17459711,5.2649 L8.17459711,5.2649 Z"></path>
        </g>
    </g>
</svg>