<?xml version="1.0" encoding="UTF-8" standalone="no"?>
<svg width="16px" height="16px" viewBox="0 0 16 16" version="1.1" xmlns="http://www.w3.org/2000/svg" xmlns:xlink="http://www.w3.org/1999/xlink">
    <!-- Generator: Sketch 3.7.2 (28276) - http://www.bohemiancoding.com/sketch -->
    <title>e_equipaje_maleta_cabina</title>
    <desc>Created with Sketch.</desc>
    <defs></defs>
    <g id="Page-1" stroke="none" stroke-width="1" fill="none" fill-rule="evenodd">
        <g id="e_equipaje_maleta_cabina" fill="#1A0E0A">
            <path d="M6.84078464,10.0352777 L9.15932879,10.0352777 C9.12270643,10.2990459 9.09567564,10.4913132 9.08216025,10.5780734 L9.0743126,10.6238513 C9.04858975,10.8008594 9.01501925,11.0179777 8.99322023,11.1566194 C8.33227384,11.3406032 7.66740362,11.3410392 7.00558526,11.1566194 C6.98378624,11.0188496 6.94977976,10.8017313 6.92492887,10.6242873 L6.91751721,10.5776374 C6.90618171,10.5052646 6.87827896,10.3108173 6.84078464,10.0352777 L6.84078464,10.0352777 Z M3.14192632,4 C2.95445472,5.70599159 2.90039314,7.69973028 3.31021478,9.84083038 C3.327654,9.9341302 3.40264264,10.005195 3.49594246,10.0182744 C4.33084507,10.139913 5.0824754,10.2340848 5.79312357,10.2994818 L6.10659353,11.5886761 C6.16283501,11.8214897 6.35117857,11.9980618 6.58617205,12.0403519 C7.53399359,12.2121282 8.60563359,12.2143081 9.40304187,12.0351201 C9.64065123,11.9810585 9.83815039,11.8171299 9.89526383,11.5812644 L10.2061179,10.3038416 C10.9145862,10.2401885 11.6670885,10.1460167 12.5050429,10.0191464 C12.5979068,10.005195 12.6720235,9.9341302 12.6894627,9.84170234 C13.0992843,7.70060224 13.0456587,5.70642757 12.8586231,4 L3.14192632,4 Z" id="Fill-1" transform="translate(8.000000, 8.084675) scale(1, -1) translate(-8.000000, -8.084675) "></path>
        </g>
    </g>
</svg>