<?xml version="1.0" encoding="UTF-8" standalone="no"?>
<svg width="16px" height="16px" viewBox="0 0 16 16" version="1.1" xmlns="http://www.w3.org/2000/svg" xmlns:xlink="http://www.w3.org/1999/xlink">
    <!-- Generator: Sketch 3.6.1 (26313) - http://www.bohemiancoding.com/sketch -->
    <title>e_equipaje_facturado_con_etiqueta</title>
    <desc>Created with Sketch.</desc>
    <defs></defs>
    <g id="Page-1" stroke="none" stroke-width="1" fill="none" fill-rule="evenodd">
        <g id="e_equipaje_facturado_con_etiqueta" fill="#000000">
            <path d="M13.96592,12.2831 C13.96592,12.7403 13.59404,13.1111 13.1372,13.1111 C12.68108,13.1111 12.30956,12.7403 12.30956,12.2831 C12.30956,11.8259 12.68108,11.4551 13.1372,11.4551 C13.59404,11.4551 13.96592,11.8259 13.96592,12.2831 M2.86172,11.4551 C2.40488,11.4551 2.03408,11.8259 2.03408,12.2831 C2.03408,12.7403 2.40488,13.1111 2.86172,13.1111 C3.31892,13.1111 3.68972,12.7403 3.68972,12.2831 C3.68972,11.8259 3.31892,11.4551 2.86172,11.4551 M5.4422,11.4551 C4.985,11.4551 4.6142,11.8259 4.6142,12.2831 C4.6142,12.7403 4.985,13.1111 5.4422,13.1111 C5.8994,13.1111 6.2702,12.7403 6.2702,12.2831 C6.2702,11.8259 5.8994,11.4551 5.4422,11.4551 M7.99964,11.4551 C7.54316,11.4551 7.17236,11.8259 7.17236,12.2831 C7.17236,12.7403 7.54316,13.1111 7.99964,13.1111 C8.45684,13.1111 8.82872,12.7403 8.82872,12.2831 C8.82872,11.8259 8.45684,11.4551 7.99964,11.4551 M10.56896,11.4551 C10.11176,11.4551 9.74132,11.8259 9.74132,12.2831 C9.74132,12.7403 10.11176,13.1111 10.56896,13.1111 C11.0258,13.1111 11.3966,12.7403 11.3966,12.2831 C11.3966,11.8259 11.0258,11.4551 10.56896,11.4551 Z M13.6934,4.8743 C13.67828,4.7843 13.61672,4.7159 13.54004,4.7015 C13.04468,4.6151 12.58712,4.5431 12.1508,4.4891 L12.1508,5.2091 L12.17636,5.2091 C12.39704,5.2091 12.57704,5.3891 12.57704,5.6087 L12.57704,8.0531 L11.20292,8.0531 L11.20292,5.6087 C11.20292,5.3891 11.38292,5.2091 11.60468,5.2091 L11.62988,5.2091 L11.62988,4.4279 C11.62304,4.4243 11.61764,4.4243 11.61152,4.4243 L11.357,3.3767 C11.30912,3.1787 11.14496,3.0455 10.94732,2.9987 C10.2842,2.8511 9.39536,2.8547 8.60696,2.9951 C8.4122,3.0311 8.25524,3.1787 8.2088,3.3695 L7.95104,4.4279 C7.3556,4.4927 6.7256,4.5827 6.02468,4.7015 C5.94692,4.7159 5.88392,4.7843 5.8706,4.8743 C5.5286,6.9551 5.57324,8.8919 5.72984,10.5515 L13.83452,10.5515 C13.99004,8.8919 14.03612,6.9551 13.6934,4.8743 Z M8.81864,4.6619 C8.8496,4.4315 8.87336,4.2695 8.88236,4.2119 L8.88812,4.1723 C8.909,4.0247 8.93744,3.8447 8.95544,3.7295 C9.50588,3.5783 10.05812,3.5783 10.60676,3.7295 C10.62548,3.8447 10.65284,4.0247 10.67444,4.1723 L10.6802,4.2119 C10.69136,4.2803 10.71512,4.4423 10.74428,4.6619 L8.81864,4.6619 Z"></path>
        </g>
    </g>
</svg>