<?xml version="1.0" encoding="UTF-8" standalone="no"?>
<svg width="16px" height="16px" viewBox="0 0 16 16" version="1.1" xmlns="http://www.w3.org/2000/svg" xmlns:xlink="http://www.w3.org/1999/xlink">
    <!-- Generator: Sketch 3.6.1 (26313) - http://www.bohemiancoding.com/sketch -->
    <title>e_equipaje</title>
    <desc>Created with Sketch.</desc>
    <defs></defs>
    <g id="Page-1" stroke="none" stroke-width="1" fill="none" fill-rule="evenodd">
        <g id="e_equipaje" fill="#000000">
            <path d="M9.65042,5.3027 C9.62522,5.1155 9.60326,4.9715 9.5903,4.8887 C9.56582,4.7159 9.53162,4.4891 9.51506,4.3919 C9.47402,4.1435 9.25694,3.9095 8.9981,3.8339 C8.3375,3.6395 7.66322,3.6395 7.0019,3.8339 C6.7445,3.9095 6.5267,4.1435 6.48494,4.3919 C6.4691,4.4891 6.4349,4.7123 6.41258,4.8923 C6.39926,4.9715 6.37802,5.1155 6.3521,5.3027 C6.0731,5.3243 6.11234,5.3171 5.86574,5.3423 L5.86322,5.3747 L5.86322,12.3119 L10.07774,12.3119 L10.07774,5.3387 C9.93914,5.3243 9.7973,5.3135 9.65042,5.3027 M7.07066,5.8823 C7.12574,5.4503 7.17074,5.1335 7.1837,5.0471 L7.18982,5.0111 C7.20926,4.8779 7.23374,4.7159 7.2503,4.6115 C7.74962,4.4711 8.2511,4.4711 8.74826,4.6115 C8.76554,4.7159 8.79074,4.8779 8.81018,5.0111 L8.8163,5.0471 C8.83214,5.1515 8.87714,5.4647 8.92934,5.8823 L7.07066,5.8823 Z M12.7169,9.7127 C12.7169,8.0495 12.59774,7.2935 12.38606,5.9111 L12.36194,5.9111 C12.24962,5.7023 11.61494,5.5223 10.67966,5.4035 L10.67966,12.3119 L12.56642,12.3119 C12.66434,11.3147 12.7169,10.8215 12.7169,9.7127 Z M3.63878,5.9111 L3.61502,5.9111 C3.40406,7.2935 3.2831,8.0495 3.2831,9.7127 C3.2831,10.8215 3.33638,11.3147 3.43358,12.3119 L5.26166,12.3119 L5.26166,5.4107 C4.35878,5.5295 3.74822,5.7095 3.63878,5.9111 Z"></path>
        </g>
    </g>
</svg>