<?xml version="1.0" encoding="UTF-8" standalone="no"?>
<svg width="16px" height="16px" viewBox="0 0 16 16" version="1.1" xmlns="http://www.w3.org/2000/svg" xmlns:xlink="http://www.w3.org/1999/xlink">
    <!-- Generator: Sketch 3.6.1 (26313) - http://www.bohemiancoding.com/sketch -->
    <title>e_equipaje_de_valor_declarado</title>
    <desc>Created with Sketch.</desc>
    <defs></defs>
    <g id="Page-1" stroke="none" stroke-width="1" fill="none" fill-rule="evenodd">
        <g id="e_equipaje_de_valor_declarado" fill="#000000">
            <path d="M13.54382,5.3576 L13.51358,5.3576 C13.37282,5.0984 11.80466,4.7924 10.62638,4.6376 C10.62638,4.6376 10.27178,4.6016 10.08602,4.5908 C10.05326,4.3496 10.02662,4.1696 10.01042,4.0688 C9.97802,3.8456 9.93626,3.5612 9.91502,3.4388 C9.86318,3.1256 9.5885,2.8268 9.26198,2.7332 C8.4257,2.4884 7.57466,2.4884 6.73802,2.7332 C6.41222,2.8268 6.1379,3.122 6.08498,3.4388 C6.06518,3.5612 6.02198,3.842 5.99282,4.0688 C5.97698,4.1696 5.94926,4.3532 5.91722,4.5908 C5.56514,4.616 5.61374,4.6052 5.3027,4.6412 L5.29946,4.6772 L5.29946,13.4504 L13.7717,13.4504 C13.89446,12.1904 13.96178,11.564 13.96178,10.1636 C13.96178,8.0612 13.81058,7.1072 13.54382,5.3576 M6.96842,4.2668 L6.97598,4.22 C7.0001,4.0544 7.03214,3.8456 7.05266,3.716 C7.68338,3.5396 8.31698,3.5396 8.94626,3.7124 C8.96822,3.8456 8.99882,4.0544 9.02366,4.22 L9.03122,4.2668 C9.05174,4.4 9.10898,4.796 9.17486,5.3216 L6.8255,5.3216 C6.89498,4.778 6.95258,4.3748 6.96842,4.2668 M11.5901,10.8656 C11.4209,10.9124 11.21822,10.934 10.98134,10.934 C10.75922,10.934 10.55546,10.9088 10.37078,10.8548 C10.18502,10.8008 10.02338,10.7216 9.88622,10.6172 C9.7631,10.5236 9.66158,10.412 9.58202,10.2788 C9.50246,10.142 9.43766,9.9908 9.38942,9.8216 L8.93402,9.8216 L8.93402,9.2708 L9.3365,9.2708 L9.3365,8.9972 L8.93402,8.9972 L8.93402,8.4464 L9.37358,8.4464 C9.41894,8.2556 9.4877,8.09 9.57734,7.946 C9.66698,7.7984 9.77498,7.676 9.9017,7.5752 C10.04642,7.46 10.21022,7.3772 10.39166,7.3232 C10.57382,7.2692 10.76966,7.2404 10.98134,7.2404 C11.18978,7.2404 11.38202,7.2656 11.55806,7.316 C11.73446,7.37 11.88278,7.424 12.0023,7.4852 L11.76938,8.0504 C11.6423,7.9964 11.51774,7.9568 11.39354,7.9244 C11.27042,7.892 11.15234,7.874 11.03966,7.874 C10.93382,7.874 10.83266,7.8884 10.73546,7.9172 C10.6379,7.9424 10.55114,7.9784 10.47302,8.0288 C10.39598,8.0792 10.32866,8.1404 10.27286,8.2088 C10.21598,8.2808 10.17566,8.36 10.15046,8.4464 L11.35142,8.4464 L11.24594,8.9972 L10.10294,8.9972 L10.10294,9.2708 L11.35142,9.2708 L11.24594,9.8216 L10.20842,9.8216 C10.24802,9.9764 10.34666,10.0916 10.50542,10.1744 C10.66418,10.2572 10.85282,10.3004 11.07098,10.3004 C11.24774,10.3004 11.39354,10.2824 11.5109,10.2464 C11.62682,10.2104 11.73626,10.1708 11.83814,10.124 L12.03938,10.7 C11.9087,10.7648 11.75966,10.8188 11.5901,10.8656 Z M2.48678,5.3576 L2.45726,5.3576 C2.18978,7.1072 2.03822,8.0612 2.03822,10.1636 C2.03822,11.564 2.10554,12.1904 2.22866,13.4504 L4.53878,13.4504 L4.53878,4.724 C3.3983,4.8752 2.6261,5.102 2.48678,5.3576 Z"></path>
        </g>
    </g>
</svg>