<?xml version="1.0" encoding="UTF-8" standalone="no"?>
<svg width="16px" height="16px" viewBox="0 0 16 16" version="1.1" xmlns="http://www.w3.org/2000/svg" xmlns:xlink="http://www.w3.org/1999/xlink">
    <!-- Generator: Sketch 3.6.1 (26313) - http://www.bohemiancoding.com/sketch -->
    <title>e_facturacion_prioritaria</title>
    <desc>Created with Sketch.</desc>
    <defs></defs>
    <g id="Page-1" stroke="none" stroke-width="1" fill="none" fill-rule="evenodd">
        <g id="e_facturacion_prioritaria" fill="#000000">
            <path d="M13.2107234,10.8163279 C13.2107234,11.1115279 12.9702434,11.3527279 12.6732434,11.3527279 C12.3762434,11.3527279 12.1354034,11.1115279 12.1354034,10.8163279 C12.1354034,10.5211279 12.3762434,10.2799279 12.6732434,10.2799279 C12.9702434,10.2799279 13.2107234,10.5211279 13.2107234,10.8163279 L13.2107234,10.8163279 Z M6.00064343,10.2799279 C5.70436343,10.2799279 5.46316343,10.5211279 5.46316343,10.8163279 C5.46316343,11.1115279 5.70436343,11.3527279 6.00064343,11.3527279 C6.29728343,11.3527279 6.53812343,11.1115279 6.53812343,10.8163279 C6.53812343,10.5211279 6.29728343,10.2799279 6.00064343,10.2799279 L6.00064343,10.2799279 Z M7.67680343,10.2799279 C7.37944343,10.2799279 7.13860343,10.5211279 7.13860343,10.8163279 C7.13860343,11.1115279 7.37944343,11.3527279 7.67680343,11.3527279 C7.97308343,11.3527279 8.21356343,11.1115279 8.21356343,10.8163279 C8.21356343,10.5211279 7.97308343,10.2799279 7.67680343,10.2799279 L7.67680343,10.2799279 Z M4.32592343,10.2799279 C4.02856343,10.2799279 3.78772343,10.5211279 3.78772343,10.8163279 C3.78772343,11.1115279 4.02856343,11.3527279 4.32592343,11.3527279 C4.62256343,11.3527279 4.86268343,11.1115279 4.86268343,10.8163279 C4.86268343,10.5211279 4.62256343,10.2799279 4.32592343,10.2799279 L4.32592343,10.2799279 Z M9.33676343,10.2799279 C9.04012343,10.2799279 8.79964343,10.5211279 8.79964343,10.8163279 C8.79964343,11.1115279 9.04012343,11.3527279 9.33676343,11.3527279 C9.63376343,11.3527279 9.87460343,11.1115279 9.87460343,10.8163279 C9.87460343,10.5211279 9.63376343,10.2799279 9.33676343,10.2799279 L9.33676343,10.2799279 Z M11.0050034,10.2799279 C10.7083634,10.2799279 10.4675234,10.5211279 10.4675234,10.8163279 C10.4675234,11.1115279 10.7083634,11.3527279 11.0050034,11.3527279 C11.3020034,11.3527279 11.5428434,11.1115279 11.5428434,10.8163279 C11.5428434,10.5211279 11.3020034,10.2799279 11.0050034,10.2799279 L11.0050034,10.2799279 Z M7.43920343,5.95992786 C7.38232343,5.96712786 7.33660343,6.01032786 7.32616343,6.06792786 C7.07560343,7.37472786 7.10872343,8.59152786 7.22284343,9.63552786 L7.98640343,9.63552786 L7.98640343,5.88792786 C7.80820343,5.90952786 7.63036343,5.93112786 7.43920343,5.95992786 L7.43920343,5.95992786 Z M12.0526034,5.84112786 L12.0526034,9.63552786 L8.39536343,9.63552786 L8.39536343,5.83752786 C8.54548343,5.81952786 8.69740343,5.80152786 8.84140343,5.78712786 L9.03292343,5.00232786 C9.06676343,4.85832786 9.18196343,4.75032786 9.32524343,4.72512786 C9.90412343,4.62072786 10.5582434,4.62072786 11.0446034,4.72872786 C11.1896834,4.76112786 11.3102834,4.86192786 11.3455634,5.00592786 L11.5352834,5.78712786 C11.7016034,5.80152786 11.8765634,5.82312786 12.0526034,5.84112786 L12.0526034,5.84112786 Z M10.8959234,5.94912786 C10.8739634,5.78712786 10.8570434,5.67192786 10.8491234,5.61792786 L10.8440834,5.58912786 C10.8286034,5.48112786 10.8080834,5.35152786 10.7947634,5.26512786 C10.3912034,5.15352786 9.98584343,5.15352786 9.58120343,5.26512786 C9.56824343,5.35152786 9.54772343,5.48112786 9.53224343,5.58912786 L9.52756343,5.61792786 C9.52108343,5.66472786 9.50380343,5.77992786 9.48112343,5.94912786 L10.8959234,5.94912786 L10.8959234,5.94912786 Z M13.0508834,6.06792786 C13.0400834,6.01032786 12.9950834,5.96712786 12.9385634,5.95992786 C12.7715234,5.93472786 12.6181634,5.91312786 12.4615634,5.89512786 L12.4615634,9.63552786 L13.1538434,9.63552786 C13.2686834,8.59152786 13.3018034,7.37472786 13.0508834,6.06792786 L13.0508834,6.06792786 Z M2.75920343,9.49512786 L6.45820343,9.49512786 L6.45820343,8.95512786 L2.75920343,8.95512786 L2.75920343,9.49512786 Z M3.90076343,8.19192786 L6.45820343,8.19192786 L6.45820343,7.65192786 L3.90076343,7.65192786 L3.90076343,8.19192786 Z M4.99912343,6.92472786 L6.45820343,6.92472786 L6.45820343,6.38472786 L4.99912343,6.38472786 L4.99912343,6.92472786 Z"></path>
        </g>
    </g>
</svg>