<?xml version="1.0" encoding="UTF-8" standalone="no"?>
<svg width="16px" height="16px" viewBox="0 0 16 16" version="1.1" xmlns="http://www.w3.org/2000/svg" xmlns:xlink="http://www.w3.org/1999/xlink">
    <!-- Generator: Sketch 3.6.1 (26313) - http://www.bohemiancoding.com/sketch -->
    <title>e_learning</title>
    <desc>Created with Sketch.</desc>
    <defs></defs>
    <g id="Page-1" stroke="none" stroke-width="1" fill="none" fill-rule="evenodd">
        <g id="e_learning" fill="#000000">
            <path d="M11.8916,9.9116 L11.87396,9.89 C11.57336,9.728 10.95272,9.5768 10.23308,9.4652 C9.79316,10.4444 8.86904,12.4928 8.84204,12.518 C8.60192,12.7592 8.27288,12.8816 7.95284,12.878 C7.6328,12.8816 7.30376,12.7592 7.06364,12.518 C7.03664,12.4928 6.16904,10.448 5.75468,9.4688 C5.03216,9.584 4.41188,9.7424 4.10768,9.908 C3.79412,10.9628 3.5252,12.1148 3.30524,13.2272 L12.69476,13.2272 C12.47408,12.1184 12.2048,10.9628 11.8916,9.9116 Z M8.3852,9.9728 C8.3852,9.9728 8.60228,10.3472 8.62496,10.898 L8.33444,11.1248 C8.33444,11.1248 8.62748,11.9996 8.62496,11.9528 L8,12.3632 L7.37468,11.9528 L7.6652,11.1248 L7.37468,10.898 C7.39772,10.3472 7.61444,9.9728 7.61444,9.9728 C7.61444,9.9728 7.79192,9.9008 7.9766,9.9008 L8.01512,9.9008 C8.1854,9.9008 8.32436,9.9296 8.3834,9.9692 L8.3852,9.9728 Z M7.93376,6.3584 C7.334,6.3584 6.74792,6.4736 6.19244,6.6968 C6.18524,6.8084 6.18164,6.92 6.18164,7.0388 C6.18164,8.3672 6.59168,9.2276 7.93376,9.2276 C9.27692,9.2276 9.68588,8.3672 9.68588,7.0388 C9.68588,6.92 9.68228,6.8084 9.67544,6.6968 C9.1196,6.4736 8.53388,6.3584 7.93376,6.3584 Z M9.69308,6.2972 L9.69308,4.958 C9.1304,4.742 8.53892,4.6304 7.93376,4.6304 C7.3286,4.6304 6.73712,4.742 6.17444,4.958 L6.17444,6.2972 C6.73964,6.092 7.33004,5.9912 7.93376,5.9912 C8.53748,5.9912 9.12788,6.092 9.69308,6.2972 Z M11.43908,4.544 C10.15064,3.8276 9.34172,3.3416 8.00576,2.7728 C6.6698,3.3416 5.86124,3.8276 4.57244,4.544 C4.8932,4.7816 5.18444,4.994 5.4926,5.1956 L5.4926,7.352 L5.31764,7.8812 L6.00992,7.8812 L5.82848,7.3448 L5.82848,5.408 L5.82956,5.408 L5.82956,4.7276 L5.93612,4.6844 C6.5726,4.418 7.24472,4.2848 7.93376,4.2848 C8.6228,4.2848 9.29492,4.418 9.93176,4.6844 L10.03832,4.7276 L10.03832,5.2712 C10.53008,5.048 10.96784,4.814 11.43908,4.544 Z"></path>
        </g>
    </g>
</svg>