<?xml version="1.0" encoding="UTF-8" standalone="no"?>
<svg width="16px" height="16px" viewBox="0 0 16 16" version="1.1" xmlns="http://www.w3.org/2000/svg" xmlns:xlink="http://www.w3.org/1999/xlink">
    <!-- Generator: Sketch 3.6.1 (26313) - http://www.bohemiancoding.com/sketch -->
    <title>e_maletin_abierto</title>
    <desc>Created with Sketch.</desc>
    <defs></defs>
    <g id="Page-1" stroke="none" stroke-width="1" fill="none" fill-rule="evenodd">
        <g id="e_maletin_abierto" fill="#000000">
            <path d="M13.85828,10.0142 L12.40388,9.4742 C12.49244,8.567 12.54176,8.0846 12.54176,7.0478 C12.54176,5.4422 12.22352,3.383 12.22352,3.383 L12.1994,3.383 C12.1274,3.2498 11.13956,3.095 7.99244,3.095 C4.84424,3.095 3.87224,3.2498 3.8006,3.383 L3.7772,3.383 C3.7772,3.383 3.45824,5.4422 3.45824,7.0478 C3.45824,8.063 3.50612,8.549 3.59108,9.4238 L2.14136,10.0142 C2.14136,10.0142 2.10752,10.7522 2.10644,11.2454 C2.10752,11.7674 2.11868,12.275 2.14172,12.4838 C3.581,12.6422 6.5276,12.905 8.00072,12.905 C10.10852,12.905 12.47696,12.635 13.85792,12.4838 C13.8806,12.275 13.89248,11.7638 13.89356,11.2454 C13.89248,10.7558 13.85828,10.0142 13.85828,10.0142 M8.9612,12.3074 L7.04348,12.3074 C6.50348,12.3074 5.97464,11.159 5.97464,11.159 L6.83648,11.159 L6.83648,11.4002 C6.83648,11.5118 6.929,11.6054 7.04348,11.6054 L8.9612,11.6054 C9.07568,11.6054 9.1682,11.5118 9.1682,11.4002 L9.1682,11.159 L10.02536,11.159 C10.02536,11.159 9.50228,12.3074 8.9612,12.3074 M3.49064,10.205 C3.80852,9.8954 4.72004,9.5498 4.72004,9.5498 L11.27996,9.5498 C11.27996,9.5498 12.26996,9.9314 12.51008,10.205 L3.49064,10.205"></path>
        </g>
    </g>
</svg>