<?xml version="1.0" encoding="UTF-8" standalone="no"?>
<svg width="16px" height="16px" viewBox="0 0 16 16" version="1.1" xmlns="http://www.w3.org/2000/svg" xmlns:xlink="http://www.w3.org/1999/xlink">
    <!-- Generator: Sketch 3.6.1 (26313) - http://www.bohemiancoding.com/sketch -->
    <title>e_pasaporte</title>
    <desc>Created with Sketch.</desc>
    <defs></defs>
    <g id="Page-1" stroke="none" stroke-width="1" fill="none" fill-rule="evenodd">
        <g id="e_pasaporte" fill="#000000">
            <path d="M12.41252,2.6954 C10.95776,2.555 9.4868,2.4794 8.00036,2.4794 C6.51392,2.4794 5.04296,2.555 3.58856,2.6954 C3.37436,4.4378 3.26384,6.209 3.26384,8.0018 C3.26384,9.7946 3.37436,11.5622 3.5882,13.301 C5.04296,13.445 6.51392,13.5206 8.00036,13.5206 C9.48716,13.5206 10.95812,13.445 12.41252,13.301 C12.62564,11.5622 12.73616,9.7946 12.73616,8.0018 C12.73616,6.209 12.62564,4.4378 12.41252,2.6954 Z M9.33128,5.3306 C9.42128,5.3306 9.48932,5.309 9.53144,5.2658 C9.584,5.2154 9.6164,5.1254 9.6164,5.0174 L9.6164,4.9742 C9.6164,4.8662 9.584,4.7762 9.53144,4.7258 C9.48932,4.6826 9.42128,4.661 9.33128,4.661 C9.24128,4.661 9.1754,4.6862 9.13256,4.7258 C9.08,4.7762 9.04616,4.8662 9.04616,4.9742 L9.04616,5.0174 C9.04616,5.1254 9.07856,5.2154 9.13148,5.2658 C9.17396,5.3054 9.24128,5.3306 9.33128,5.3306 Z M8.9072,4.9706 C8.9072,4.841 8.94644,4.7294 9.0296,4.6538 C9.09764,4.5926 9.20168,4.5602 9.33128,4.5602 C9.46124,4.5602 9.56528,4.5926 9.63296,4.6538 C9.71648,4.7294 9.75536,4.841 9.75536,4.9706 L9.75536,5.021 C9.75536,5.1506 9.71648,5.2622 9.63296,5.3378 C9.56528,5.399 9.46124,5.4314 9.33128,5.4314 C9.20168,5.4314 9.09656,5.399 9.02852,5.3378 C8.945,5.2622 8.9072,5.1506 8.9072,5.021 L8.9072,4.9706 Z M8.59616,4.9814 C8.63,4.949 8.64116,4.9022 8.64116,4.8482 L8.64116,4.8338 C8.64116,4.787 8.62352,4.7438 8.59472,4.7186 C8.56016,4.6862 8.50004,4.6718 8.41868,4.6718 L8.1746,4.6718 L8.1746,5.0246 L8.42732,5.0246 C8.50616,5.0246 8.56232,5.0102 8.59616,4.9814 Z M8.0396,4.5746 C8.0774,4.5746 8.12132,4.571 8.16092,4.571 L8.43092,4.571 C8.54612,4.571 8.61884,4.589 8.68004,4.6322 C8.73908,4.6754 8.77616,4.7546 8.77616,4.8302 L8.77616,4.8482 C8.77616,4.9382 8.74772,5.0066 8.69516,5.0534 C8.63504,5.1074 8.54612,5.129 8.4338,5.129 L8.1746,5.129 L8.1746,5.4206 L8.0396,5.4206 L8.0396,4.5746 Z M7.69076,5.111 C7.667,5.0858 7.62488,5.0678 7.53632,5.0462 L7.46252,5.0246 C7.2746,4.9742 7.2188,4.895 7.2188,4.7834 C7.2188,4.643 7.34804,4.5602 7.54748,4.5602 C7.64576,4.5602 7.73972,4.5746 7.80992,4.5962 L7.79372,4.6898 C7.7048,4.6682 7.631,4.661 7.55108,4.661 C7.40132,4.661 7.34948,4.715 7.34948,4.7834 C7.34948,4.8446 7.39988,4.895 7.5086,4.9238 L7.58492,4.9418 C7.685,4.967 7.74368,4.9958 7.78472,5.0282 C7.8308,5.0678 7.847,5.1146 7.847,5.1866 C7.847,5.3342 7.73612,5.4314 7.5212,5.4314 C7.40564,5.4314 7.30592,5.4134 7.20872,5.381 L7.2296,5.2838 C7.32068,5.3126 7.41608,5.3306 7.5212,5.3306 C7.65872,5.3306 7.71884,5.273 7.71884,5.1902 C7.71884,5.1614 7.7084,5.129 7.69076,5.111 Z M6.91316,5.111 C6.88976,5.0858 6.84728,5.0678 6.75836,5.0462 L6.68492,5.0246 C6.497,4.9742 6.44084,4.895 6.44084,4.7834 C6.44084,4.643 6.57044,4.5602 6.76988,4.5602 C6.86816,4.5602 6.96248,4.5746 7.03196,4.5962 L7.01576,4.6898 C6.92684,4.6682 6.8534,4.661 6.77348,4.661 C6.62372,4.661 6.57224,4.715 6.57224,4.7834 C6.57224,4.8446 6.62228,4.895 6.73064,4.9238 L6.80696,4.9418 C6.9074,4.967 6.96608,4.9958 7.00748,5.0282 C7.05356,5.0678 7.07012,5.1146 7.07012,5.1866 C7.07012,5.3342 6.95816,5.4314 6.7436,5.4314 C6.62804,5.4314 6.52868,5.4134 6.43076,5.381 L6.452,5.2838 C6.54344,5.3126 6.63848,5.3306 6.7436,5.3306 C6.88076,5.3306 6.94088,5.273 6.94088,5.1902 C6.94088,5.1614 6.9308,5.129 6.91316,5.111 Z M5.11424,5.129 L4.8554,5.129 L4.8554,5.4206 L4.7204,5.4206 L4.7204,4.5746 C4.7582,4.5746 4.8014,4.571 4.84172,4.571 L5.11172,4.571 C5.22692,4.571 5.29964,4.589 5.36084,4.6322 C5.41952,4.6754 5.45696,4.7546 5.45696,4.8302 L5.45696,4.8482 C5.45696,4.9382 5.42816,5.0066 5.37596,5.0534 C5.31584,5.1074 5.22692,5.129 5.11424,5.129 Z M5.69672,5.1362 L6.06716,5.1362 C6.00452,4.9742 5.94188,4.8266 5.88464,4.7042 C5.82452,4.8266 5.75972,4.9742 5.69672,5.1362 Z M5.58836,5.4206 L5.444,5.4206 C5.54444,5.165 5.687,4.823 5.80544,4.571 L5.96348,4.571 C6.07976,4.823 6.22052,5.165 6.32096,5.4206 L6.17696,5.4206 C6.15608,5.3594 6.1298,5.291 6.10568,5.2334 L5.65676,5.2334 C5.63444,5.291 5.60924,5.3594 5.58836,5.4206 Z M8.36504,7.2638 L8.3636,7.2638 L8.36432,7.2638 L8.36504,7.2638 Z M9.4274,8.5922 C9.36512,8.5202 9.32228,8.4302 9.32048,8.3006 C9.29924,8.315 9.278,8.3294 9.24092,8.3294 C9.30068,8.1638 8.87588,8.2718 8.8424,8.1134 C8.77544,8.2934 8.96588,8.2178 9.0278,8.2754 C9.01196,8.4338 8.8622,8.4626 8.7092,8.4878 C8.65916,8.351 8.60696,8.2178 8.49608,8.1422 C8.49932,8.0738 8.5454,8.0486 8.57636,8.009 C8.50652,7.937 8.35064,7.9514 8.31032,7.847 C8.2358,7.8758 8.3492,7.919 8.28368,7.955 C8.26604,7.9046 8.18756,7.7714 8.09792,7.7174 C8.02592,7.757 8.14364,7.8254 8.17748,7.847 C8.10944,7.9262 8.063,7.7534 7.99136,7.7426 C7.88444,7.775 7.81316,7.847 7.77896,7.955 C7.61516,7.9622 7.62452,7.901 7.64576,7.7678 L7.80488,7.7678 C7.81784,7.685 7.77212,7.6598 7.72568,7.6346 C7.74764,7.6274 7.78364,7.613 7.82252,7.595 C7.81712,7.559 7.8218,7.5122 7.87328,7.4978 C7.8992,7.4906 7.92584,7.4906 7.94996,7.4906 C7.97408,7.4582 7.99028,7.4186 7.99136,7.3718 C7.9964,7.5122 8.36,7.4186 8.31032,7.2386 C8.36936,7.2494 8.39384,7.2314 8.42624,7.2206 C8.42624,7.2206 8.51552,7.1342 8.51552,7.109 C8.51552,7.0946 8.50652,7.0874 8.49428,7.0694 C8.33624,7.0298 8.17136,7.0046 8,7.0046 C7.40456,7.0046 6.87212,7.2746 6.5204,7.6994 C6.52292,7.7066 6.52724,7.7174 6.52904,7.721 C6.53876,7.7462 6.51932,7.7786 6.52796,7.793 C6.57368,7.8614 6.64028,7.9622 6.59528,8.0018 L6.38036,8.3618 C6.37964,8.3618 6.37352,8.369 6.35804,8.387 C6.31988,8.4302 6.29288,8.4914 6.23708,8.5202 C6.22268,8.5346 6.2252,8.5346 6.20432,8.5598 C6.22628,8.6066 6.20828,8.639 6.18092,8.6714 C6.1784,8.675 6.21116,8.729 6.25076,8.7866 C6.29036,8.8406 6.29468,8.8586 6.3044,8.9522 C6.31412,9.0458 6.30476,9.0242 6.3134,9.071 C6.32204,9.1178 6.28928,9.1394 6.3134,9.1826 C6.32852,9.2078 6.37424,9.2654 6.40988,9.3086 C6.4988,9.3266 6.62948,9.3482 6.71984,9.3914 C6.74828,9.3878 6.77816,9.3842 6.80552,9.3806 C6.8876,9.3626 6.8264,9.4202 6.89948,9.467 C6.97256,9.5174 6.96752,9.4886 6.98552,9.521 C6.99956,9.5498 6.99308,9.5606 6.99704,9.6002 C7.06796,9.6254 7.15328,9.683 7.2206,9.6938 C7.21736,9.7046 7.21376,9.7154 7.21052,9.7298 C7.217,9.7262 7.2206,9.7226 7.2206,9.7226 C7.2206,9.7226 7.18028,9.8198 7.19684,9.8486 C7.21448,9.8774 7.19108,9.899 7.19648,9.9746 C7.20188,10.0466 7.16012,10.0322 7.15004,10.0358 C7.14392,10.0394 7.10756,10.0682 7.07156,10.1006 C7.0694,10.1114 7.06652,10.1186 7.06436,10.1294 C7.0532,10.1294 7.04348,10.133 7.03304,10.133 C7.02044,10.1438 7.00892,10.1546 7.00172,10.1618 C6.98408,10.1762 6.91676,10.2122 6.85592,10.2518 C6.8156,10.3058 6.79508,10.3706 6.78752,10.4102 C7.118,10.6802 7.54028,10.8422 8,10.8422 C9.06056,10.8422 9.92024,9.9854 9.92024,8.9234 C9.92024,8.8226 9.91016,8.7254 9.89504,8.6282 C9.82556,8.5058 9.79532,8.387 9.71936,8.2754 C9.54584,8.3402 9.4634,8.4482 9.4274,8.5922 Z M8.84096,9.5318 C8.87372,9.6074 8.90792,9.6794 8.92124,9.773 C8.64836,9.9818 8.78516,10.4894 8.24156,10.4894 C8.04968,10.1006 8.05544,9.5894 7.96148,9.251 C7.77212,9.071 7.58312,9.2582 7.442,9.2114 C6.92756,9.0494 7.16228,8.5058 7.48196,8.171 C7.63136,8.2826 7.72244,8.0594 7.96148,8.1314 C7.94024,8.2718 8.07596,8.2862 8.20124,8.3726 C8.68148,8.0954 8.77652,8.7434 9.00116,9.053 C9.12356,9.0818 9.11888,8.9846 9.24128,9.0134 C9.18044,9.2582 8.96228,9.3446 8.84096,9.5318 Z M9.87812,8.5238 C9.8666,8.5526 9.87596,8.5814 9.8918,8.6066 C9.88748,8.5778 9.88388,8.5526 9.87812,8.5238 Z M8.00036,11.2202 C6.73244,11.2202 5.70536,10.1906 5.70536,8.9234 C5.70536,7.6562 6.73244,6.6266 8.00036,6.6266 C9.26756,6.6266 10.29572,7.6562 10.29572,8.9234 C10.29572,10.1906 9.26756,11.2202 8.00036,11.2202 Z M10.5218,4.8194 C10.5218,4.769 10.50812,4.733 10.47932,4.7114 C10.44512,4.6862 10.38392,4.6718 10.2968,4.6718 L10.08908,4.6718 L10.08908,4.9886 L10.43756,4.9886 C10.49444,4.949 10.5218,4.8986 10.5218,4.8266 L10.5218,4.8194 Z M10.59128,5.4206 C10.53656,5.2946 10.45628,5.1614 10.38284,5.0894 L10.08908,5.0894 L10.08908,5.4206 L9.95408,5.4206 L9.95408,4.5746 C9.99116,4.5746 10.03508,4.571 10.0754,4.571 L10.29428,4.571 C10.40768,4.571 10.50128,4.5854 10.5614,4.625 C10.62296,4.661 10.65788,4.7294 10.65788,4.8122 L10.65788,4.8266 C10.65788,4.931 10.6028,5.0138 10.51244,5.0606 C10.58552,5.1434 10.67552,5.291 10.73312,5.4206 L10.59128,5.4206 Z M11.51072,4.6718 L11.18888,4.6718 L11.18888,5.4206 L11.05388,5.4206 L11.05388,4.6718 L10.73636,4.6718 L10.73636,4.571 L11.52584,4.571 C11.519,4.6034 11.51432,4.6358 11.51072,4.6718 Z M5.09912,4.6718 L4.8554,4.6718 L4.8554,5.0246 L5.10812,5.0246 C5.1866,5.0246 5.24312,5.0102 5.2766,4.9814 C5.3108,4.949 5.3216,4.9022 5.3216,4.8482 L5.3216,4.8338 C5.3216,4.787 5.30468,4.7438 5.27552,4.7186 C5.24096,4.6862 5.18084,4.6718 5.09912,4.6718 Z"></path>
        </g>
    </g>
</svg>