<?xml version="1.0" encoding="UTF-8" standalone="no"?>
<svg width="16px" height="16px" viewBox="0 0 16 16" version="1.1" xmlns="http://www.w3.org/2000/svg" xmlns:xlink="http://www.w3.org/1999/xlink">
    <!-- Generator: Sketch 3.6.1 (26313) - http://www.bohemiancoding.com/sketch -->
    <title>e_trolley</title>
    <desc>Created with Sketch.</desc>
    <defs></defs>
    <g id="Page-1" stroke="none" stroke-width="1" fill="none" fill-rule="evenodd">
        <g id="e_trolley" fill="#000000">
            <path d="M10.92266,12.5198 C10.92266,12.923 10.59686,13.247 10.1951,13.247 C9.79406,13.247 9.46826,12.923 9.46826,12.5198 C9.46826,12.1202 9.79406,11.7926 10.1951,11.7926 C10.59686,11.7926 10.92266,12.1202 10.92266,12.5198 L10.92266,12.5198 Z M4.28534,11.7926 C3.88322,11.7926 3.55778,12.1202 3.55778,12.5198 C3.55778,12.923 3.88322,13.247 4.28534,13.247 C4.68638,13.247 5.01182,12.923 5.01182,12.5198 C5.01182,12.1202 4.68638,11.7926 4.28534,11.7926 L4.28534,11.7926 Z M3.60854,9.9458 C3.48362,8.8082 3.44726,7.4726 3.72122,6.0434 C3.73274,5.9822 3.78278,5.9318 3.84542,5.9246 C4.40306,5.8418 4.90526,5.7806 5.3801,5.7374 L5.58926,4.877 C5.62706,4.7186 5.75306,4.6034 5.90966,4.5746 C6.54362,4.4594 7.2593,4.4594 7.79246,4.5782 C7.95086,4.6142 8.08262,4.7222 8.12114,4.8806 L8.32886,5.7338 C8.80226,5.777 9.30518,5.8382 9.86462,5.9246 C9.9269,5.9318 9.97658,5.9822 9.98774,6.0434 C10.26206,7.4726 10.22606,8.8046 10.10078,9.9458 L3.60854,9.9458 L3.60854,9.9458 Z M6.0803,5.9138 L7.62974,5.9138 C7.60526,5.7374 7.58654,5.6078 7.57754,5.5502 L7.57214,5.5214 C7.55522,5.4026 7.5329,5.2586 7.51814,5.165 C7.07678,5.0426 6.63218,5.0426 6.1901,5.165 C6.17534,5.255 6.15266,5.4026 6.1361,5.5214 L6.13142,5.5502 C6.12422,5.6006 6.1055,5.7302 6.0803,5.9138 L6.0803,5.9138 Z M11.78486,3.545 L13.24034,3.545 L13.24034,2.753 L10.99286,2.753 L10.99286,10.655 L2.75966,10.655 L2.75966,11.447 L11.78486,11.447 L11.78486,3.545 L11.78486,3.545 Z"></path>
        </g>
    </g>
</svg>