<?xml version="1.0" encoding="UTF-8" standalone="no"?>
<svg width="16px" height="16px" viewBox="0 0 16 16" version="1.1" xmlns="http://www.w3.org/2000/svg" xmlns:xlink="http://www.w3.org/1999/xlink">
    <!-- Generator: Sketch 3.6.1 (26313) - http://www.bohemiancoding.com/sketch -->
    <title>editar_perfil</title>
    <desc>Created with Sketch.</desc>
    <defs></defs>
    <g id="Page-1" stroke="none" stroke-width="1" fill="none" fill-rule="evenodd">
        <g id="editar_perfil" fill="#000000">
            <path d="M11.37302,10.2005 L11.37302,10.20014 C11.23514,10.35566 10.9745,10.34846 10.82258,10.19654 C10.8107,10.18502 10.80098,10.17314 10.7909,10.16054 L10.1267,9.18602 L10.33118,8.98262 L11.08862,9.48554 L12.27446,8.63882 L12.45446,8.81198 L11.37302,10.2005 L11.37302,10.2005 Z M11.29058,7.28594 C10.1609,7.28594 9.24506,8.20178 9.24506,9.3311 C9.24506,10.46078 10.1609,11.37662 11.29058,11.37662 C12.42026,11.37662 13.33574,10.46078 13.33574,9.3311 C13.33574,8.20178 12.42026,7.28594 11.29058,7.28594 L11.29058,7.28594 Z M11.29058,11.74274 C9.96074,11.74274 8.87894,10.66094 8.87894,9.3311 C8.87894,9.16334 8.89622,8.99954 8.92898,8.84186 C8.34038,8.76626 7.71362,8.71982 7.16426,8.71982 C5.79842,8.71982 4.01498,8.99738 3.43322,9.31922 C3.13298,10.32758 2.87486,11.43458 2.66426,12.49946 L11.66534,12.49982 C11.61494,12.24566 11.5613,11.98898 11.50586,11.73194 C11.43494,11.73842 11.3633,11.74274 11.29058,11.74274 L11.29058,11.74274 Z M5.4089,5.74442 C5.4089,4.3811 5.8193,3.50018 7.16426,3.50018 C8.5103,3.50018 8.9207,4.3811 8.9207,5.74442 C8.9207,7.10738 8.5103,7.98938 7.16426,7.98938 C5.8193,7.98938 5.4089,7.10738 5.4089,5.74442 L5.4089,5.74442 Z M6.37514,6.77078 C6.51662,7.01774 6.7643,7.15958 7.16426,7.15958 C7.56494,7.15958 7.81298,7.01774 7.9541,6.7661 L7.9541,6.5195 C7.40942,6.62354 6.88274,6.62354 6.37514,6.5195 L6.37514,6.77078 L6.37514,6.77078 Z"></path>
        </g>
    </g>
</svg>