<?xml version="1.0" encoding="UTF-8" standalone="no"?>
<svg width="16px" height="16px" viewBox="0 0 16 16" version="1.1" xmlns="http://www.w3.org/2000/svg" xmlns:xlink="http://www.w3.org/1999/xlink">
    <!-- Generator: Sketch 3.6.1 (26313) - http://www.bohemiancoding.com/sketch -->
    <title>editar_menu</title>
    <desc>Created with Sketch.</desc>
    <defs></defs>
    <g id="Page-1" stroke="none" stroke-width="1" fill="none" fill-rule="evenodd">
        <g id="editar_menu" fill="#000000">
            <path d="M2.77743431,6.30111566 L7.19391431,6.30111566 L7.19391431,4.88631566 L2.77743431,4.88631566 L2.77743431,6.30111566 Z M2.77743431,13.2231957 L10.9292743,13.2231957 L10.9292743,11.8080357 L2.77743431,11.8080357 L2.77743431,13.2231957 Z M2.77743431,9.76215566 L10.9292743,9.76215566 L10.9292743,8.34663566 L2.77743431,8.34663566 L2.77743431,9.76215566 Z M11.4012343,2.79111566 C11.2338343,2.77203566 10.5573943,2.77239566 10.3892743,2.79003566 C10.3305943,3.32787566 10.2920743,3.87039566 10.2744343,4.41615566 C9.72903431,4.43415566 9.18651431,4.47231566 8.64831431,4.53099566 C8.63139431,4.69911566 8.63103431,5.37555566 8.64975431,5.54295566 C9.18615431,5.60235566 9.72795431,5.64087566 10.2726343,5.65779566 C10.2899143,6.22767566 10.3284343,6.79035566 10.3892743,7.35123566 C10.5563143,7.36923566 11.2341943,7.36887566 11.4012343,7.35051566 C11.4620743,6.79215566 11.5013143,6.22731566 11.5178743,5.65959566 C12.0859543,5.64339566 12.6500743,5.60487566 13.2091543,5.54331566 C13.2267943,5.37627566 13.2271543,4.69803566 13.2095143,4.53099566 C12.6489943,4.46907566 12.0863143,4.43163566 11.5160743,4.41471566 C11.4991543,3.86823566 11.4595543,3.32787566 11.4012343,2.79111566 Z"></path>
        </g>
    </g>
</svg>