<?xml version="1.0" encoding="UTF-8" standalone="no"?>
<svg width="16px" height="16px" viewBox="0 0 16 16" version="1.1" xmlns="http://www.w3.org/2000/svg" xmlns:xlink="http://www.w3.org/1999/xlink">
    <!-- Generator: Sketch 3.6.1 (26313) - http://www.bohemiancoding.com/sketch -->
    <title>editar</title>
    <desc>Created with Sketch.</desc>
    <defs></defs>
    <g id="Page-1" stroke="none" stroke-width="1" fill="none" fill-rule="evenodd">
        <g id="editar" fill="#000000">
            <path d="M9.13472,8.56268 L8.96192,8.39168 L8.04176,7.46972 L7.8686,7.29656 C9.881,5.02784 8.41688,6.5114 10.84472,4.3208 L11.01716,4.49432 L11.93804,5.4152 L12.11048,5.58692 C9.92132,8.01512 11.40452,6.551 9.13472,8.56268 L9.13472,8.56268 Z M11.99816,3.07988 L11.10284,3.9752 L12.4118,5.2838 L13.30748,4.3892 L11.99816,3.07988 L11.99816,3.07988 Z M7.5734,7.67744 L6.63092,9.84284 L8.79596,8.90072 L7.5734,7.67744 L7.5734,7.67744 Z M8.77004,4.80824 C8.51048,4.80284 8.2502,4.79888 7.98956,4.79888 C6.26912,4.79888 4.57244,4.89392 2.9024,5.07608 C2.76416,6.3242 2.69252,7.58492 2.69252,8.85896 C2.69252,10.13336 2.76416,11.39588 2.9024,12.6422 C4.57244,12.82472 6.26912,12.92012 7.98956,12.92012 C9.70928,12.92012 11.40596,12.82472 13.07744,12.64184 C13.2146,11.39588 13.28768,10.13336 13.28768,8.85896 C13.28768,7.94132 13.24808,7.03052 13.17536,6.12656 L12.28688,7.10828 L12.28688,11.73284 L3.69296,11.73284 L3.69296,5.82812 L7.73288,5.82812 L8.77004,4.80824 L8.77004,4.80824 Z"></path>
        </g>
    </g>
</svg>