<?xml version="1.0" encoding="UTF-8" standalone="no"?>
<svg width="16px" height="16px" viewBox="0 0 16 16" version="1.1" xmlns="http://www.w3.org/2000/svg" xmlns:xlink="http://www.w3.org/1999/xlink">
    <!-- Generator: Sketch 3.6.1 (26313) - http://www.bohemiancoding.com/sketch -->
    <title>enlazar</title>
    <desc>Created with Sketch.</desc>
    <defs></defs>
    <g id="Page-1" stroke="none" stroke-width="1" fill="none" fill-rule="evenodd">
        <g id="enlazar" fill="#000000">
            <path d="M5.61378473,13.22981 C5.19906473,13.22981 4.78434473,13.07213 4.46862473,12.75677 L3.24318473,11.53097 C2.61210473,10.89917 2.61174473,9.87209 3.24282473,9.24101 L6.34530473,6.13853 C6.65130473,5.83253 7.05810473,5.66405 7.49046473,5.66405 L7.49082473,5.66405 C7.92354473,5.66405 8.33034473,5.83289 8.63634473,6.13925 L9.62562473,7.12817 L8.86206473,7.89173 L7.87206473,6.90245 C7.77018473,6.80057 7.63482473,6.74405 7.49046473,6.74405 C7.34646473,6.74405 7.21110473,6.80021 7.10886473,6.90209 L4.00674473,10.00421 C3.79650473,10.21445 3.79650473,10.55681 4.00710473,10.76741 L5.23218473,11.99249 C5.44278473,12.20273 5.78478473,12.20273 5.99538473,11.99249 L7.18878473,10.79909 L7.95234473,11.56265 L6.75894473,12.75641 C6.44322473,13.07213 6.02850473,13.22981 5.61378473,13.22981 M9.65406473,9.86129 L12.7558247,6.75917 C13.0614647,6.45353 13.2303047,6.04673 13.2303047,5.61437 C13.2306647,5.18165 13.0621847,4.77449 12.7558247,4.46885 L11.5311047,3.24377 C10.8989447,2.61233 9.87186473,2.61233 9.24042473,3.24377 L7.80834473,4.67477 L8.57190473,5.43869 L10.0039847,4.00733 C10.2142247,3.79709 10.5565847,3.79709 10.7671847,4.00733 L11.9926247,5.23277 C12.0941447,5.33429 12.1503047,5.46965 12.1503047,5.61401 C12.1503047,5.75801 12.0941447,5.89373 11.9922647,5.99561 L8.89086473,9.09773 C8.78790473,9.19997 8.65254473,9.25649 8.50818473,9.25649 C8.36454473,9.25649 8.22918473,9.19997 8.12694473,9.09773 L7.20426473,8.17577 L6.44070473,8.93897 L7.36302473,9.86093 C7.66866473,10.16693 8.07510473,10.33577 8.50746473,10.33649 L8.50818473,10.33649 C8.94090473,10.33649 9.34770473,10.16729 9.65406473,9.86129"></path>
        </g>
    </g>
</svg>