<?xml version="1.0" encoding="UTF-8" standalone="no"?>
<svg width="16px" height="16px" viewBox="0 0 16 16" version="1.1" xmlns="http://www.w3.org/2000/svg" xmlns:xlink="http://www.w3.org/1999/xlink">
    <!-- Generator: Sketch 3.6.1 (26313) - http://www.bohemiancoding.com/sketch -->
    <title>entretenimiento_individual</title>
    <desc>Created with Sketch.</desc>
    <defs></defs>
    <g id="Page-1" stroke="none" stroke-width="1" fill="none" fill-rule="evenodd">
        <g id="entretenimiento_individual" fill="#000000">
            <path d="M4.45166,12.40802 L4.45166,13.29038 L11.54078,13.29038 L11.54078,12.40802 C11.54078,12.40802 9.76418,12.06062 7.99982,12.06062 C6.19442,12.06062 4.45166,12.40802 4.45166,12.40802 Z M13.17518,2.99222 C11.47526,2.8061 9.74906,2.70962 7.99946,2.70962 C6.25022,2.70962 4.52402,2.8061 2.82518,2.99222 C2.68406,4.26086 2.61098,5.5439 2.61098,6.84026 C2.61098,8.13626 2.68406,9.41966 2.82518,10.68794 C4.52402,10.87442 6.25022,10.97054 7.99946,10.97054 C9.74906,10.97054 11.47526,10.87442 13.17518,10.68794 C13.31522,9.41966 13.38902,8.13626 13.38902,6.84026 C13.38902,5.5439 13.31522,4.26086 13.17518,2.99222 Z M3.62942,9.76274 L12.37094,9.76274 L12.37094,3.7565 L3.62942,3.7565 L3.62942,9.76274 Z M6.19298,6.95006 C6.19298,8.09054 6.29594,8.3537 6.29594,8.3537 L9.85274,6.87806 L6.29594,5.40278 C6.29594,5.40278 6.19298,5.77106 6.19298,6.95006 Z"></path>
        </g>
    </g>
</svg>