<?xml version="1.0" encoding="UTF-8" standalone="no"?>
<svg width="16px" height="16px" viewBox="0 0 16 16" version="1.1" xmlns="http://www.w3.org/2000/svg" xmlns:xlink="http://www.w3.org/1999/xlink">
    <!-- Generator: Sketch 3.6.1 (26313) - http://www.bohemiancoding.com/sketch -->
    <title>equipos_de_golf</title>
    <desc>Created with Sketch.</desc>
    <defs></defs>
    <g id="Page-1" stroke="none" stroke-width="1" fill="none" fill-rule="evenodd">
        <g id="equipos_de_golf" fill="#000000">
            <path d="M13.1390948,11.2732174 C13.1005748,11.4892174 12.9637748,11.6728174 12.7700948,11.7736174 L11.3369348,12.5188174 C11.0507348,12.6700174 10.7004548,12.6052174 10.4851748,12.3640174 L10.4488148,12.3244174 L10.4473748,12.3280174 L4.83317476,6.08561738 L4.73957476,6.16841738 C3.90257476,5.44481738 3.46481476,4.99841738 2.84957476,4.06601738 L3.29237476,3.66641738 L3.29957476,3.67361738 L3.60701476,3.40001738 C4.47029476,4.10921738 4.86845476,4.59161738 5.49737476,5.49881738 L5.38361476,5.60321738 L10.6853348,11.6368174 L11.9010548,10.5460174 C12.1915748,10.2832174 12.6383348,10.3084174 12.8993348,10.5964174 L12.9691748,10.6756174 C13.1156948,10.8376174 13.1779748,11.0572174 13.1390948,11.2732174 M7.24409476,10.9816174 C6.82685476,10.9816174 6.48845476,11.3200174 6.48845476,11.7376174 C6.48845476,12.1516174 6.82685476,12.4936174 7.24409476,12.4936174 C7.66169476,12.4936174 8.00045476,12.1516174 8.00045476,11.7376174 C8.00045476,11.3200174 7.66169476,10.9816174 7.24409476,10.9816174"></path>
        </g>
    </g>
</svg>