<?xml version="1.0" encoding="UTF-8" standalone="no"?>
<svg width="16px" height="16px" viewBox="0 0 16 16" version="1.1" xmlns="http://www.w3.org/2000/svg" xmlns:xlink="http://www.w3.org/1999/xlink">
    <!-- Generator: Sketch 3.6.1 (26313) - http://www.bohemiancoding.com/sketch -->
    <title>equipaje_de_esqui</title>
    <desc>Created with Sketch.</desc>
    <defs></defs>
    <g id="Page-1" stroke="none" stroke-width="1" fill="none" fill-rule="evenodd">
        <g id="equipaje_de_esqui" fill="#000000">
            <path d="M13.66298,4.5872 L12.99878,4.5872 L13.3199,4.9076 L13.08266,5.1452 L12.5243,4.5872 L12.3101,4.5872 L12.3101,4.7996 L12.86882,5.3576 L12.63158,5.5952 L12.3101,5.2748 L12.3101,5.9408 L11.97386,5.9408 L11.97386,5.2748 L11.65382,5.5952 L11.41658,5.3576 L11.97386,4.8032 L11.97386,4.5872 L11.7611,4.5872 L11.20274,5.1452 L10.96514,4.9076 L11.28662,4.5872 L10.62242,4.5872 L10.62242,4.2488 L11.28482,4.2488 L10.96514,3.932 L11.20274,3.6944 L11.75966,4.2488 L11.97386,4.2488 L11.97386,4.0364 L11.41658,3.4784 L11.65382,3.2408 L11.97386,3.5612 L11.97386,2.8988 L12.3101,2.8988 L12.3101,3.5612 L12.63158,3.2408 L12.86882,3.4784 L12.3101,4.0364 L12.3101,4.2488 L12.52538,4.2488 L13.08266,3.6944 L13.3199,3.932 L13.00022,4.2488 L13.66298,4.2488 L13.66298,4.5872 Z M5.2667,4.0688 C5.26634,3.2588 4.61042,2.6036 3.80186,2.6036 C2.9933,2.6036 2.33702,3.2588 2.33702,4.0688 C2.33702,4.2128 2.35862,4.3496 2.3975,4.4828 C2.76146,7.064 2.74274,8.666 2.33702,11.3876 L2.34278,11.3876 C2.3399,11.4272 2.33702,11.4668 2.33702,11.5064 C2.33702,12.3164 2.99294,12.9716 3.80186,12.9716 C4.61042,12.9716 5.26634,12.3164 5.26634,11.5064 C5.26634,11.4668 5.26382,11.4272 5.25986,11.3876 L5.26634,11.3876 C4.86062,8.666 4.84226,7.064 5.20658,4.4828 C5.2451,4.3496 5.2667,4.2128 5.2667,4.0688 Z M10.0745,5.57 L10.19906,5.57 C10.33874,4.4756 10.36538,3.8564 10.19942,2.7548 L9.16046,2.7548 C8.9945,3.8564 9.02114,4.4756 9.16046,5.57 L9.31922,5.57 L9.31922,11.1536 C9.1961,11.1716 9.06542,11.2004 8.9207,11.2364 L8.9207,11.816 L9.31922,11.816 L9.31922,13.3964 C9.7361,13.3964 10.0745,13.058 10.0745,12.6404 L10.0745,11.816 L10.47338,11.816 L10.47338,11.2364 C10.3301,11.1968 10.19906,11.168 10.0745,11.1464 L10.0745,5.57 Z M7.78418,5.57 L7.9091,5.57 C8.04842,4.4756 8.07542,3.8564 7.90946,2.7548 L6.87014,2.7548 C6.70454,3.8564 6.73118,4.4756 6.87014,5.57 L7.02926,5.57 L7.02926,11.1536 C6.90542,11.1716 6.77474,11.2004 6.63038,11.2364 L6.63038,11.816 L7.02926,11.816 L7.02926,13.3964 C7.44614,13.3964 7.78418,13.058 7.78418,12.6404 L7.78418,11.816 L8.18306,11.816 L8.18306,11.2364 C8.03942,11.1968 7.9091,11.168 7.78418,11.1464 L7.78418,5.57 Z"></path>
        </g>
    </g>
</svg>