<?xml version="1.0" encoding="UTF-8" standalone="no"?>
<svg width="16px" height="16px" viewBox="0 0 16 16" version="1.1" xmlns="http://www.w3.org/2000/svg" xmlns:xlink="http://www.w3.org/1999/xlink">
    <!-- Generator: Sketch 3.6.1 (26313) - http://www.bohemiancoding.com/sketch -->
    <title>equipo_de_esquiar</title>
    <desc>Created with Sketch.</desc>
    <defs></defs>
    <g id="Page-1" stroke="none" stroke-width="1" fill="none" fill-rule="evenodd">
        <g id="equipo_de_esquiar" fill="#000000">
            <path d="M13.07708,8.6768 L11.65436,8.6768 L12.34196,9.3644 L11.834,9.872 L10.63772,8.6768 L10.17908,8.6768 L10.17908,9.134 L11.37572,10.3328 L10.86704,10.8404 L10.17908,10.1528 L10.17908,11.5748 L9.45836,11.5748 L9.45836,10.1528 L8.77292,10.8404 L8.26496,10.3328 L9.45836,9.1376 L9.45836,8.6768 L9.00296,8.6768 L7.80596,9.872 L7.298,9.3644 L7.98596,8.6768 L6.5636,8.6768 L6.5636,7.9568 L7.98272,7.9568 L7.298,7.2692 L7.80596,6.7616 L8.99936,7.9568 L9.45836,7.9568 L9.45836,7.496 L8.26496,6.3044 L8.77292,5.7932 L9.45836,6.4808 L9.45836,5.0624 L10.17908,5.0624 L10.17908,6.4844 L10.86704,5.7932 L11.37572,6.3044 L10.17908,7.4996 L10.17908,7.9568 L10.64024,7.9568 L11.834,6.7616 L12.34196,7.2692 L11.6576,7.9568 L13.07708,7.9568 L13.07708,8.6768 L13.07708,8.6768 Z M6.21116,5.6096 L6.32996,5.6096 C6.46352,4.5656 6.48908,3.9716 6.33032,2.9204 L5.33852,2.9204 C5.18012,3.9716 5.20568,4.5656 5.33852,5.6096 L5.49044,5.6096 L5.49044,10.9412 C5.37236,10.9592 5.24744,10.9844 5.10956,11.0204 L5.10956,11.5748 L5.49044,11.5748 L5.49044,13.0796 C5.88824,13.0796 6.21116,12.7592 6.21116,12.3596 L6.21116,11.5748 L6.59204,11.5748 L6.59204,11.0204 C6.45524,10.9844 6.32996,10.9556 6.21116,10.934 L6.21116,5.6096 L6.21116,5.6096 Z M4.02452,5.6096 L4.14368,5.6096 C4.27688,4.5656 4.30244,3.9716 4.14404,2.9204 L3.15224,2.9204 C2.99348,3.9716 3.01904,4.5656 3.15224,5.6096 L3.30416,5.6096 L3.30416,10.9412 C3.18572,10.9592 3.06116,10.9844 2.92292,11.0204 L2.92292,11.5748 L3.30416,11.5748 L3.30416,13.0796 C3.7016,13.0796 4.02452,12.7592 4.02452,12.3596 L4.02452,11.5748 L4.4054,11.5748 L4.4054,11.0204 C4.26824,10.9844 4.14368,10.9556 4.02452,10.934 L4.02452,5.6096 L4.02452,5.6096 Z"></path>
        </g>
    </g>
</svg>