<?xml version="1.0" encoding="UTF-8" standalone="no"?>
<svg width="16px" height="16px" viewBox="0 0 16 16" version="1.1" xmlns="http://www.w3.org/2000/svg" xmlns:xlink="http://www.w3.org/1999/xlink">
    <!-- Generator: Sketch 3.6.1 (26313) - http://www.bohemiancoding.com/sketch -->
    <title>equipo_de_submarinismo</title>
    <desc>Created with Sketch.</desc>
    <defs></defs>
    <g id="Page-1" stroke="none" stroke-width="1" fill="none" fill-rule="evenodd">
        <g id="equipo_de_submarinismo" fill="#000000">
            <path d="M7.2431,3.6566 C7.1855,3.725 7.10126,3.761 7.01378,3.761 L6.95186,3.761 C6.86258,3.761 6.7787,3.725 6.72074,3.6566 L6.00974,2.8178 L5.2991,3.6566 C5.24114,3.725 5.1569,3.761 5.06942,3.761 L5.0075,3.761 C4.91858,3.761 4.83434,3.725 4.77674,3.6566 L4.06538,2.8178 L3.25034,3.761 L4.63094,11.9114 C4.74866,12.617 5.27246,13.1246 5.87942,13.1246 L6.1667,13.1246 C6.7733,13.1246 7.2971,12.617 7.41698,11.9114 L8.75474,3.761 L7.95482,2.8178 L7.2431,3.6566 L7.2431,3.6566 Z M6.00218,12.0014 C5.52878,12.0014 5.1425,11.1626 5.1425,10.1222 C5.1425,9.9782 5.15006,9.8378 5.16446,9.7046 L6.84206,9.7046 C6.85502,9.8378 6.86258,9.9782 6.86258,10.1222 C6.86258,11.1626 6.47846,12.0014 6.00218,12.0014 L6.00218,12.0014 Z M12.74966,3.0446 L12.74966,3.6206 L9.5813,3.6206 L9.5813,3.0446 C10.6451,2.7818 11.63186,2.7818 12.74966,3.0446 L12.74966,3.0446 Z M12.73706,5.579 C12.73706,4.7114 12.03146,4.0094 11.16386,4.0094 L11.13938,4.0094 C10.27178,4.0094 9.56834,4.7114 9.56834,5.579 L9.56834,9.5534 L9.5813,9.5534 L9.5813,11.6126 C9.5813,12.4802 10.2851,13.1822 11.1545,13.1822 L11.17898,13.1822 C12.04622,13.1822 12.74966,12.4802 12.74966,11.6126 L12.74966,7.6382 L12.73706,7.6382 L12.73706,5.579 L12.73706,5.579 Z M11.1527,8.9522 C10.73258,8.9522 10.3931,8.6138 10.3931,8.1926 C10.3931,7.775 10.73258,7.4366 11.1527,7.4366 C11.5703,7.4366 11.91014,7.775 11.91014,8.1926 C11.91014,8.6138 11.5703,8.9522 11.1527,8.9522 L11.1527,8.9522 Z"></path>
        </g>
    </g>
</svg>