<?xml version="1.0" encoding="UTF-8" standalone="no"?>
<svg width="16px" height="16px" viewBox="0 0 16 16" version="1.1" xmlns="http://www.w3.org/2000/svg" xmlns:xlink="http://www.w3.org/1999/xlink">
    <!-- Generator: Sketch 3.6.1 (26313) - http://www.bohemiancoding.com/sketch -->
    <title>escalas</title>
    <desc>Created with Sketch.</desc>
    <defs></defs>
    <g id="Page-1" stroke="none" stroke-width="1" fill="none" fill-rule="evenodd">
        <g id="escalas" fill="#000000">
            <path d="M12.4685,7.1441 C12.14846,7.1441 11.85758,7.2557 11.62142,7.43606 C11.59118,7.42166 11.55986,7.40978 11.52674,7.40078 C10.75562,7.19774 10.06478,7.08758 9.41606,7.06346 C9.41066,7.06346 9.40562,7.0649 9.3995,7.0649 C9.21266,6.4781 8.66942,6.04898 8.02106,6.04898 C7.37234,6.04898 6.82874,6.47918 6.64262,7.06706 C6.62318,7.06562 6.6041,7.06274 6.58394,7.06346 C5.93486,7.08758 5.24474,7.19774 4.47362,7.40078 C4.44194,7.40942 4.41134,7.4213 4.38218,7.43498 C4.14566,7.25318 3.85334,7.14086 3.53222,7.14086 C2.75894,7.14086 2.12894,7.7705 2.12894,8.54378 C2.12894,9.31778 2.75894,9.94778 3.53222,9.94778 C4.30658,9.94778 4.93586,9.31778 4.93586,8.54378 C4.93586,8.46926 4.9247,8.39726 4.91354,8.32562 C5.53634,8.1719 6.0983,8.08406 6.6203,8.06462 C6.64118,8.0639 6.66026,8.05958 6.6797,8.0567 C6.89894,8.58302 7.41626,8.9549 8.02106,8.9549 C8.62334,8.9549 9.14138,8.5859 9.3617,8.06246 C9.3671,8.06282 9.37286,8.06462 9.37934,8.06462 C9.9017,8.08406 10.46438,8.1719 11.08754,8.32562 C11.07566,8.39834 11.06486,8.47142 11.06486,8.54702 C11.06486,9.32138 11.69414,9.95102 12.4685,9.95102 C13.24178,9.95102 13.87106,9.32138 13.87106,8.54702 C13.87106,7.77374 13.24178,7.1441 12.4685,7.1441 M3.53222,9.27962 C3.12686,9.27962 2.79674,8.94986 2.79674,8.54378 C2.79674,8.13878 3.12686,7.80902 3.53222,7.80902 C3.93794,7.80902 4.26806,8.13878 4.26806,8.54378 C4.26806,8.94986 3.93794,9.27962 3.53222,9.27962 M8.02106,8.2871 C7.58834,8.2871 7.23698,7.93502 7.23698,7.5023 C7.23698,7.06922 7.58834,6.71678 8.02106,6.71678 C8.45378,6.71678 8.80658,7.06922 8.80658,7.5023 C8.80658,7.93502 8.45378,8.2871 8.02106,8.2871 M12.4685,9.28286 C12.06242,9.28286 11.73266,8.95274 11.73266,8.54702 C11.73266,8.14166 12.06242,7.81226 12.4685,7.81226 C12.8735,7.81226 13.20362,8.14166 13.20362,8.54702 C13.20362,8.95274 12.8735,9.28286 12.4685,9.28286"></path>
        </g>
    </g>
</svg>