<?xml version="1.0" encoding="UTF-8" standalone="no"?>
<svg width="16px" height="16px" viewBox="0 0 16 16" version="1.1" xmlns="http://www.w3.org/2000/svg" xmlns:xlink="http://www.w3.org/1999/xlink">
    <!-- Generator: Sketch 3.6.1 (26313) - http://www.bohemiancoding.com/sketch -->
    <title>estadisticas</title>
    <desc>Created with Sketch.</desc>
    <defs></defs>
    <g id="Page-1" stroke="none" stroke-width="1" fill="none" fill-rule="evenodd">
        <g id="estadisticas" fill="#000000">
            <path d="M3.57596,4.2632 L5.64596,4.2632 C5.81516,7.082 5.8022,8.7452 5.64596,11.7836 L3.57596,11.7836 C3.419,8.7452 3.40604,7.082 3.57596,4.2632 L3.57596,4.2632 Z M6.9668,2.7764 L9.0368,2.7764 C9.206,5.5952 9.1934,8.7452 9.0368,11.7836 L6.9668,11.7836 C6.80984,8.7452 6.79724,5.5952 6.9668,2.7764 L6.9668,2.7764 Z M10.3454,6.56 L12.4154,6.56 C12.5846,9.3824 12.57164,8.7452 12.4154,11.7836 L10.3454,11.7836 C10.18844,8.7452 10.17584,9.3824 10.3454,6.56 L10.3454,6.56 Z M2.77388,13.2236 L13.22612,13.2236 L13.22612,12.4532 L2.77388,12.4532 L2.77388,13.2236 Z"></path>
        </g>
    </g>
</svg>