<?xml version="1.0" encoding="UTF-8" standalone="no"?>
<svg width="16px" height="16px" viewBox="0 0 16 16" version="1.1" xmlns="http://www.w3.org/2000/svg" xmlns:xlink="http://www.w3.org/1999/xlink">
    <!-- Generator: Sketch 3.6.1 (26313) - http://www.bohemiancoding.com/sketch -->
    <title>extintor</title>
    <desc>Created with Sketch.</desc>
    <defs></defs>
    <g id="Page-1" stroke="none" stroke-width="1" fill="none" fill-rule="evenodd">
        <g id="extintor" fill="#000000">
            <path d="M9.76994,3.91175 C9.83654,3.80015 9.87542,3.67055 9.87542,3.53015 C9.87542,3.11615 9.53882,2.78135 9.1259,2.78135 C8.71406,2.78135 8.37926,3.11255 8.3753,3.52295 L8.00162,3.52295 L8.00162,3.90095 L6.50798,3.90095 L6.50798,3.69935 L4.26914,3.52295 L4.26914,5.01695 L6.50798,4.87295 L6.50798,4.64615 L8.00162,4.64615 L8.00162,5.13215 C7.51022,5.17535 7.20386,5.29055 7.20386,5.29055 C6.77906,5.72255 6.57458,7.64135 6.53462,8.89775 C6.52418,9.01295 6.51914,9.13895 6.51914,9.27575 L6.51914,11.38895 L6.51158,11.91815 L6.50834,11.91815 L6.50834,12.98375 C7.82558,13.29695 8.98802,13.29695 10.24154,12.98375 L10.24154,9.34055 C10.23938,8.00135 10.0529,5.77655 9.5777,5.29055 C9.5777,5.29055 9.21194,5.17895 8.7479,5.13215 L8.7479,4.64615 L9.56798,4.64615 L9.56798,4.64255 C10.35638,4.65695 10.98962,5.30135 10.98962,6.09335 L10.98962,6.82415 L11.73086,6.82415 L11.73086,6.09335 C11.73086,4.95935 10.87298,4.02695 9.76994,3.91175 M9.1259,3.31055 C9.24686,3.31055 9.34514,3.40775 9.34514,3.53015 C9.34514,3.65255 9.24686,3.74975 9.1259,3.74975 C9.00386,3.74975 8.90486,3.65255 8.90486,3.53015 C8.90486,3.40775 9.00386,3.31055 9.1259,3.31055"></path>
        </g>
    </g>
</svg>