<?xml version="1.0" encoding="UTF-8" standalone="no"?>
<svg width="16px" height="16px" viewBox="0 0 16 16" version="1.1" xmlns="http://www.w3.org/2000/svg" xmlns:xlink="http://www.w3.org/1999/xlink">
    <!-- Generator: Sketch 3.6.1 (26313) - http://www.bohemiancoding.com/sketch -->
    <title>fast_track</title>
    <desc>Created with Sketch.</desc>
    <defs></defs>
    <g id="Page-1" stroke="none" stroke-width="1" fill="none" fill-rule="evenodd">
        <g id="fast_track" fill="#000000">
            <path d="M10.79594,4.8248 C11.30174,4.8248 11.45582,4.5008 11.45582,4.0004 C11.45582,3.4964 11.30174,3.176 10.79594,3.176 C10.29122,3.176 10.13642,3.4964 10.13642,4.0004 C10.13642,4.5008 10.29122,4.8248 10.79594,4.8248 Z M11.51954,12.0788 C11.6261,11.2184 11.81006,10.2284 11.86154,9.3032 L12.4469,8.7776 C12.37454,7.1252 12.22982,6.2972 12.02462,5.5196 L12.02462,5.516 L12.0239,5.516 L12.02318,5.5124 L12.01958,5.5124 C11.8295,5.3972 11.3057,5.3216 10.8449,5.3036 L10.7207,5.3036 C10.27466,5.3252 9.75914,5.3972 9.57338,5.5124 L9.56906,5.5124 C9.5687,5.5124 9.56834,5.5124 9.56834,5.516 L9.56726,5.516 C9.36242,6.2972 9.2177,7.1252 9.14498,8.7776 L9.7307,9.3032 C9.78218,10.2284 9.96614,11.2184 10.0727,12.0788 L2.79746,12.0788 L2.79746,12.824 L13.20254,12.824 L13.20254,12.0788 L11.51954,12.0788 Z M5.50898,10.5812 L6.51194,10.5812 L8.00018,8.7452 L6.51194,6.9092 L5.50898,6.9092 L6.86978,8.7452 L5.50898,10.5812 Z M2.79782,10.5812 L3.80078,10.5812 L5.28902,8.7452 L3.80078,6.9092 L2.79746,6.9092 L4.15898,8.7452 L2.79782,10.5812 Z"></path>
        </g>
    </g>
</svg>