<?xml version="1.0" encoding="UTF-8" standalone="no"?>
<svg width="16px" height="16px" viewBox="0 0 16 16" version="1.1" xmlns="http://www.w3.org/2000/svg" xmlns:xlink="http://www.w3.org/1999/xlink">
    <!-- Generator: Sketch 3.6.1 (26313) - http://www.bohemiancoding.com/sketch -->
    <title>fax</title>
    <desc>Created with Sketch.</desc>
    <defs></defs>
    <g id="Page-1" stroke="none" stroke-width="1" fill="none" fill-rule="evenodd">
        <g id="fax" fill="#000000">
            <path d="M13.7457109,3.4388 C13.7457109,3.4388 11.7207109,3.3452 9.02251089,3.3452 C6.32323089,3.3452 4.30183089,3.4388 4.30183089,3.4388 C4.17979089,4.5692 4.12687089,5.8004 4.12867089,7.0136 C4.13047089,8.2304 4.19167089,9.422 4.30183089,10.466 L4.57327089,10.466 L4.57327089,12.6548 L12.1645909,12.6548 L12.1645909,10.466 L13.7442709,10.466 C13.8522709,9.422 13.9123909,8.2304 13.9152709,7.0136 C13.9185109,5.8004 13.8648709,4.5692 13.7457109,3.4388 L13.7457109,3.4388 Z M7.99759089,5.228 L8.70427089,5.228 L8.70427089,4.5152 L7.99759089,4.5152 L7.99759089,5.228 Z M7.99183089,6.3152 L8.69815089,6.3152 L8.69815089,5.6024 L7.99183089,5.6024 L7.99183089,6.3152 Z M7.99183089,7.46 L8.69815089,7.46 L8.69815089,6.7472 L7.99183089,6.7472 L7.99183089,7.46 Z M6.87187089,5.228 L7.57963089,5.228 L7.57963089,4.5152 L6.87187089,4.5152 L6.87187089,5.228 Z M6.86647089,6.3152 L7.57387089,6.3152 L7.57387089,5.6024 L6.86647089,5.6024 L6.86647089,6.3152 Z M6.86647089,7.46 L7.57387089,7.46 L7.57387089,6.7472 L6.86647089,6.7472 L6.86647089,7.46 Z M5.75839089,5.228 L6.46615089,5.228 L6.46615089,4.5152 L5.75839089,4.5152 L5.75839089,5.228 Z M5.75263089,6.3152 L6.46075089,6.3152 L6.46075089,5.6024 L5.75263089,5.6024 L5.75263089,6.3152 Z M5.75263089,7.46 L6.46075089,7.46 L6.46075089,6.7472 L5.75263089,6.7472 L5.75263089,7.46 Z M5.75623089,11.474 L10.9819909,11.474 L10.9819909,8.8316 L5.75623089,8.8316 L5.75623089,11.474 Z M12.1883509,5.9552 C11.8387909,5.9552 11.5554709,5.6708 11.5554709,5.3216 C11.5554709,4.9724 11.8387909,4.6916 12.1883509,4.6916 C12.5382709,4.6916 12.8223109,4.9724 12.8223109,5.3216 C12.8223109,5.6708 12.5382709,5.9552 12.1883509,5.9552 Z M3.86911089,4.778 C3.86911089,4.1408 3.83023089,3.5756 3.82411089,3.4964 C2.97703089,3.4964 2.19583089,4.904 2.19583089,4.904 C2.19583089,4.904 2.08459089,5.6636 2.08459089,6.9632 C2.08459089,8.306 2.19583089,9.0368 2.19583089,9.0368 C2.19583089,9.0368 2.97703089,10.4552 3.82411089,10.4552 C3.83023089,10.3724 3.86911089,9.8108 3.86911089,9.1736 C3.86911089,8.5436 3.82915089,8.0072 3.82411089,7.9388 C3.52171089,7.9388 3.35215089,8.1476 3.08935089,8.2844 C3.10447089,7.874 3.11383089,7.4456 3.11383089,7.01 C3.11491089,6.56 3.10627089,6.11 3.09079089,5.6636 C3.35215089,5.804 3.51631089,6.0128 3.82411089,6.0128 C3.82915089,5.9444 3.86911089,5.408 3.86911089,4.778 Z"></path>
        </g>
    </g>
</svg>