<?xml version="1.0" encoding="UTF-8" standalone="no"?>
<svg width="16px" height="16px" viewBox="0 0 16 16" version="1.1" xmlns="http://www.w3.org/2000/svg" xmlns:xlink="http://www.w3.org/1999/xlink">
    <!-- Generator: Sketch 3.6.1 (26313) - http://www.bohemiancoding.com/sketch -->
    <title>fecha</title>
    <desc>Created with Sketch.</desc>
    <defs></defs>
    <g id="Page-1" stroke="none" stroke-width="1" fill="none" fill-rule="evenodd">
        <g id="fecha" fill="#000000">
            <path d="M13.23638,4.1264 C12.64526,4.0544 12.05162,3.9932 11.45366,3.9428 L11.45366,2.0564 L10.47914,2.0564 L10.47914,3.8708 C9.81818,3.8312 9.15434,3.8024 8.48726,3.788 L8.48726,2.0564 L7.51274,2.0564 L7.51274,3.788 C6.84566,3.8024 6.18218,3.8312 5.52122,3.8708 L5.52122,2.0564 L4.5467,2.0564 L4.5467,3.9428 C3.94874,3.9932 3.35474,4.0544 2.76362,4.1264 C2.71394,4.6232 2.67506,5.1272 2.64014,5.6276 L13.35986,5.6276 C13.32566,5.1272 13.28678,4.6232 13.23638,4.1264 Z M13.3829,5.984 L2.63834,5.984 L2.63834,5.66 C2.56706,6.7184 2.52638,7.784 2.52638,8.8604 C2.52638,10.4552 2.60774,12.0356 2.76362,13.5944 C4.33142,13.7852 5.92226,13.8932 7.53002,13.9256 L7.53002,13.9436 C7.68734,13.9436 7.84358,13.9364 8.00018,13.9328 C8.15678,13.9364 8.31266,13.9436 8.47034,13.9436 L8.47034,13.9256 C10.0781,13.8932 11.66894,13.7852 13.23638,13.5944 C13.39226,12.0356 13.47362,10.4552 13.47362,8.8604 C13.47362,7.8956 13.4405,6.938 13.3829,5.984 Z M7.53362,11.9744 L6.75998,11.9744 C7.74134,10.6712 8.52542,9.368 8.9351,8.5292 L6.37334,8.5292 L6.31574,8.0648 L9.61046,8.0648 L9.68534,8.306 C9.11366,9.4832 8.28278,10.898 7.53362,11.9744 Z"></path>
        </g>
    </g>
</svg>