<?xml version="1.0" encoding="UTF-8" standalone="no"?>
<svg width="16px" height="16px" viewBox="0 0 16 16" version="1.1" xmlns="http://www.w3.org/2000/svg" xmlns:xlink="http://www.w3.org/1999/xlink">
    <!-- Generator: Sketch 3.6.1 (26313) - http://www.bohemiancoding.com/sketch -->
    <title>filtro_de_seguridad</title>
    <desc>Created with Sketch.</desc>
    <defs></defs>
    <g id="Page-1" stroke="none" stroke-width="1" fill="none" fill-rule="evenodd">
        <g id="filtro_de_seguridad" fill="#000000">
            <path d="M6.09524,4.7942 L6.66368,4.7942 C6.70256,5.705 7.03484,6.2882 8.00036,6.2882 C9.0296,6.2882 9.34388,5.6294 9.34388,4.6106 C9.34388,4.4702 9.33884,4.337 9.32516,4.2146 L6.67448,4.2146 L6.09524,4.7942 Z M9.34388,3.7934 L9.34388,2.9294 C9.34388,2.9294 8.68724,2.7602 7.99856,2.7602 C7.34696,2.7602 6.03548,2.9294 6.03548,2.9294 L6.62084,3.7934 L9.34388,3.7934 Z M10.50308,7.2278 L10.50308,7.2206 C10.50308,7.2206 10.502,7.2206 10.50056,7.217 C10.50056,7.217 10.49948,7.217 10.49948,7.2134 L10.4912,7.2134 C10.36196,7.1342 10.15496,7.0658 9.90152,7.0082 L6.66008,11.0402 L10.08512,11.0402 C10.1024,11.2886 10.1168,11.537 10.12832,11.789 L5.88896,11.789 C5.89328,11.6738 5.90264,11.5622 5.90804,11.447 L5.90624,11.447 C5.91056,11.3786 5.9174,11.3102 5.92028,11.2382 C5.92496,11.1734 5.92784,11.105 5.9318,11.0402 L5.93396,11.0402 C5.94188,10.9358 5.94764,10.8314 5.95556,10.7234 L9.05588,6.8642 C8.74268,6.8246 8.41436,6.7994 8.09792,6.785 L7.9982,6.785 L7.84592,6.7886 C6.938,6.8318 5.88716,6.9794 5.5088,7.2134 L5.4998,7.2134 C5.49872,7.217 5.49872,7.217 5.49872,7.2206 L5.49512,7.2206 L5.49512,7.2242 C5.10596,8.7146 4.82228,10.2842 4.66676,13.2398 L11.33324,13.2398 C11.177,10.2842 10.8944,8.7146 10.50308,7.2278 Z"></path>
        </g>
    </g>
</svg>