<?xml version="1.0" encoding="UTF-8" standalone="no"?>
<svg width="16px" height="16px" viewBox="0 0 16 16" version="1.1" xmlns="http://www.w3.org/2000/svg" xmlns:xlink="http://www.w3.org/1999/xlink">
    <!-- Generator: Sketch 3.6.1 (26313) - http://www.bohemiancoding.com/sketch -->
    <title>financiero</title>
    <desc>Created with Sketch.</desc>
    <defs></defs>
    <g id="Page-1" stroke="none" stroke-width="1" fill="none" fill-rule="evenodd">
        <g id="financiero" fill="#000000">
            <path d="M6.71336,5.7554 L9.22904,5.7554 L9.22904,5.1398 L6.71336,5.1398 L6.71336,5.7554 Z M8.53532,7.9082 L7.4042,7.9082 C7.44668,7.7246 7.52084,7.595 7.60724,7.5014 C7.73936,7.3646 7.91,7.3106 8.09648,7.3106 C8.36648,7.3106 8.58068,7.397 8.8118,7.5194 L9.02348,7.055 C8.71676,6.8534 8.46548,6.7706 8.09216,6.7706 C7.76636,6.7706 7.49744,6.857 7.2728,7.0298 C7.02296,7.2278 6.86492,7.5266 6.8066,7.9082 L6.33248,7.9082 L6.33248,8.333 L6.7814,8.333 L6.7814,8.7434 L6.33248,8.7434 L6.33248,9.1682 L6.81308,9.1682 C6.8624,9.485 6.97328,9.7334 7.1576,9.9098 C7.39376,10.1366 7.70084,10.2374 8.10044,10.2374 C8.45468,10.2374 8.74412,10.1474 9.04004,9.9602 L8.86544,9.503 C8.62604,9.6218 8.38952,9.701 8.11664,9.701 C7.84952,9.701 7.69328,9.6398 7.58528,9.5282 C7.50536,9.4418 7.44668,9.323 7.40996,9.1682 L8.34848,9.1682 L8.49212,8.7434 L7.3646,8.7434 L7.36424,8.7038 L7.36424,8.333 L8.405,8.333 L8.53532,7.9478 L8.53532,7.9082 L8.53532,7.9082 Z M11.00348,13.2074 L5.00336,13.2074 C5.00336,13.2074 5.00516,12.4766 5.00336,12.473 C5.4332,12.3542 5.8184,12.2606 6.2612,12.1922 C6.99776,12.0374 7.36352,11.807 7.42004,11.3606 C5.6636,11.0834 4.32116,9.5642 4.32116,7.7282 C4.32116,5.849 5.72876,4.301 7.54712,4.0778 C7.38332,3.9446 7.27856,3.743 7.27856,3.5162 C7.27856,3.1166 7.60148,2.7926 8,2.7926 C8.39816,2.7926 8.7218,3.1166 8.7218,3.5162 C8.7218,3.743 8.61668,3.9446 8.45324,4.0778 C10.27124,4.301 11.67884,5.849 11.67884,7.7282 C11.67884,9.5642 10.33604,11.0834 8.5796,11.3606 C8.63648,11.807 9.00188,12.0374 9.73808,12.1922 C10.18124,12.2606 10.574,12.3542 11.00348,12.473 L11.00348,13.2074 L11.00348,13.2074 Z"></path>
        </g>
    </g>
</svg>