<?xml version="1.0" encoding="UTF-8" standalone="no"?>
<svg width="16px" height="16px" viewBox="0 0 16 16" version="1.1" xmlns="http://www.w3.org/2000/svg" xmlns:xlink="http://www.w3.org/1999/xlink">
    <!-- Generator: Sketch 3.6.1 (26313) - http://www.bohemiancoding.com/sketch -->
    <title>formas_esfericas</title>
    <desc>Created with Sketch.</desc>
    <defs></defs>
    <g id="Page-1" stroke="none" stroke-width="1" fill="none" fill-rule="evenodd">
        <g id="formas_esfericas" fill="#000000">
            <path d="M11.46464,8 C11.46464,9.9152 9.9116,11.4704 7.9964,11.4704 C6.08048,11.4704 4.52672,9.9152 4.52672,8 C4.52672,6.0848 6.08048,4.5332 7.9964,4.5332 C9.9116,4.5332 11.46464,6.0848 11.46464,8 L11.46464,8 Z M3.662,3.6656 L5.39576,3.6656 L5.39576,2.798 L2.79476,2.798 L2.79476,5.4008 L3.662,5.4008 L3.662,3.6656 L3.662,3.6656 Z M12.33836,2.798 L10.6046,2.798 L10.6046,3.6656 L12.33836,3.6656 L12.33836,5.4008 L13.20524,5.4008 L13.20524,2.798 L12.33836,2.798 L12.33836,2.798 Z M3.662,10.6028 L2.79476,10.6028 L2.79476,13.202 L5.39576,13.202 L5.39576,12.338 L3.662,12.338 L3.662,10.6028 L3.662,10.6028 Z M12.33836,12.338 L10.6046,12.338 L10.6046,13.202 L13.20524,13.202 L13.20524,10.6028 L12.33836,10.6028 L12.33836,12.338 L12.33836,12.338 Z"></path>
        </g>
    </g>
</svg>