<?xml version="1.0" encoding="UTF-8" standalone="no"?>
<svg width="16px" height="16px" viewBox="0 0 16 16" version="1.1" xmlns="http://www.w3.org/2000/svg" xmlns:xlink="http://www.w3.org/1999/xlink">
    <!-- Generator: Sketch 3.6.1 (26313) - http://www.bohemiancoding.com/sketch -->
    <title>fumar</title>
    <desc>Created with Sketch.</desc>
    <defs></defs>
    <g id="Page-1" stroke="none" stroke-width="1" fill="none" fill-rule="evenodd">
        <g id="fumar" fill="#000000">
            <path d="M9.49868,4.22515477 C10.74788,4.22515477 11.7566,5.23675477 11.7566,6.48595477 L11.7566,7.23835477 L10.99304,7.23835477 L10.99304,6.48595477 C10.99304,5.65795477 10.32488,4.98835477 9.49868,4.98835477 L9.49868,4.22515477 L9.49868,4.22515477 Z M11.29616,11.6807548 L11.71016,11.6807548 L11.71016,10.2803548 L11.29616,10.2803548 L11.29616,11.6807548 Z M10.95956,10.2875548 L10.95956,11.6735548 C8.61956,11.8139548 6.05708,11.8031548 3.53384,11.6735548 L3.53384,10.2875548 C6.05708,10.1579548 8.61956,10.1471548 10.95956,10.2875548 L10.95956,10.2875548 Z M12.0518,11.6807548 L12.46616,11.6807548 L12.46616,10.2803548 L12.0518,10.2803548 L12.0518,11.6807548 Z M11.74436,8.75755477 C11.7152,8.75755477 11.00384,8.76115477 10.97468,8.76115477 C9.7262,8.76115477 8.71388,7.74955477 8.71388,6.50035477 L8.71388,6.44635477 C7.89056,6.23755477 7.25408,5.49955477 7.25408,4.60315477 L7.25408,4.25755477 L8.018,4.25755477 L8.018,4.60315477 C8.018,5.48155477 8.78084,5.71915477 9.47672,5.76235477 L9.47744,6.50035477 C9.47744,7.32475477 10.14812,7.99795477 10.97468,7.99795477 C11.00276,7.99795477 11.71664,7.99795477 11.74436,7.99435477 L11.74436,8.75755477 L11.74436,8.75755477 Z"></path>
        </g>
    </g>
</svg>