<?xml version="1.0" encoding="UTF-8" standalone="no"?>
<svg width="16px" height="16px" viewBox="0 0 16 16" version="1.1" xmlns="http://www.w3.org/2000/svg" xmlns:xlink="http://www.w3.org/1999/xlink">
    <!-- Generator: Sketch 3.6.1 (26313) - http://www.bohemiancoding.com/sketch -->
    <title>funda</title>
    <desc>Created with Sketch.</desc>
    <defs></defs>
    <g id="Page-1" stroke="none" stroke-width="1" fill="none" fill-rule="evenodd">
        <g id="funda" fill="#000000">
            <path d="M11.3853355,2.37630909 L11.3896555,2.37630909 L11.3853355,2.37630909 L11.3853355,2.37630909 Z M10.4216155,2.37990909 L10.4327755,6.98430909 C10.4309755,7.64670909 10.2185755,8.03550909 9.93885551,8.27310909 L11.7572155,8.26590909 C11.4710155,8.03190909 11.2575355,7.65390909 11.2499755,7.00230909 L11.2496155,6.97710909 L11.2514155,6.96990909 L11.2406155,2.37990909 L10.4216155,2.37990909 L10.4216155,2.37990909 Z M8.98916822,6.94971809 C8.47771827,6.38099869 7.75122141,6.05550909 6.98505551,6.05550909 C5.70129551,6.05550909 4.58997551,6.96990909 4.34229551,8.22630909 L4.65009551,8.28750909 C4.86897551,7.17870909 5.85105551,6.37230909 6.98505551,6.37230909 C7.67257399,6.37230909 8.32373514,6.66596449 8.77696935,7.18437568 L8.30841551,7.25430909 L8.51289551,7.45950909 L9.18753551,7.38750909 L9.25773551,6.71430909 L9.05361551,6.50910909 L8.98916822,6.94971809 Z M5.32482551,10.3395091 L4.87455551,10.3395091 L5.77509551,10.3395091 L5.77545551,9.99030909 L3.97509551,9.98670909 L3.97401551,10.3395091 L4.87455551,10.3395091 L3.97401551,10.3395091 L3.97473551,9.98670909 L5.77509551,9.99030909 L5.77509551,10.3395091 L5.32482551,10.3395091 L5.77509551,10.3395091 L5.77545551,9.99030909 L3.97509551,9.98670909 L3.97401551,10.3395091 L4.87455551,10.3395091 L3.97401551,10.3395091 L3.97473551,9.98670909 L5.77509551,9.99030909 L5.77509551,10.3395091 L4.87455551,10.3395091 L5.32482551,10.3395091 Z M9.21341635,8.64022385 L9.17421551,8.64030909 C9.05001551,8.64030909 8.95677551,8.55390909 8.95677551,8.44230909 L8.95677551,8.29470909 L9.10005551,8.25870909 C9.29192379,8.21560825 9.47836873,8.15532453 9.63552086,8.04529926 C10.0188545,8.02257462 10.4045336,8.01331124 10.7924155,8.01750909 C11.2442975,8.01995566 11.6926878,8.04235463 12.1378125,8.08357601 C12.2617119,8.15334976 12.4041306,8.20369722 12.5610955,8.24430909 L12.6989755,8.27670909 L12.6989755,8.49270909 L12.6464155,8.56470909 C12.6071755,8.60790909 12.5499355,8.62950909 12.4854955,8.63310909 L12.3587266,8.63338474 L12.3602155,8.48190909 L9.21525551,8.45310909 L9.21341635,8.64022385 Z M9.63552086,8.04529926 C9.88527903,7.87043869 10.0610495,7.56994093 10.0670155,7.01310909 L10.0659355,6.98430909 L10.0544155,2.23590909 C10.0544155,2.11710909 10.1516155,2.01630909 10.2714955,2.01270909 L11.4605755,2.00910909 L11.5386955,2.07390909 C11.5811755,2.11350909 11.6060155,2.17110909 11.6070955,2.23230909 L11.6186155,7.00590909 L11.6171755,7.01310909 C11.6269974,7.60242145 11.822394,7.90594868 12.1378125,8.08357601 C12.3476647,8.10300968 12.5567912,8.12662684 12.7652155,8.15430909 C12.8508955,9.09750909 12.8912155,10.0551091 12.8818555,11.0235091 C12.8721355,11.9955091 12.8134555,12.9495091 12.7083355,13.8927091 C12.0570955,13.9647091 11.3982955,13.9971091 10.7333755,13.9899091 C10.0680955,13.9863091 9.41037551,13.9395091 8.76057551,13.8531091 C8.67417551,12.9099091 8.63385551,11.9523091 8.64357551,10.9839091 C8.65329551,10.0119091 8.71233551,9.05430909 8.81673551,8.11470909 C9.08842957,8.08468765 9.36137542,8.06155104 9.63552086,8.04529926 Z M11.0184955,4.20870909 L10.7178955,4.20870909 L10.7088955,4.05750909 L10.7074555,3.58590909 C10.6516555,3.53910909 10.6160155,3.47070909 10.6152955,3.39150909 C10.6152955,3.32670909 10.6412155,3.26190909 10.6883755,3.21510909 C10.7344555,3.16830909 10.7960155,3.14310909 10.8611755,3.14310909 L10.8626155,3.14310909 C10.9277755,3.14310909 10.9893355,3.17190909 11.0357755,3.21510909 C11.0822155,3.26190909 11.1084955,3.32310909 11.1088555,3.39150909 C11.1088555,3.47070909 11.0728555,3.53910909 11.0166955,3.58590909 L11.0184955,4.20870909 Z M9.21341635,8.64022385 L12.3587266,8.63338474 L12.3105355,13.5363091 L9.16557551,13.5075091 L9.21341635,8.64022385 Z M10.7470555,13.1799091 C10.3596955,13.1763091 9.91005551,13.1547091 9.53205551,13.1079091 C9.47805551,12.5571091 9.45033551,11.7327091 9.45177551,11.1711091 C9.45357551,10.6059091 9.48381551,10.0479091 9.54069551,9.50070909 C9.91941551,9.45750909 10.3694155,9.43590909 10.7560555,9.43590909 C11.1434155,9.43590909 11.6150155,9.46110909 11.9933755,9.50790909 C12.0470155,10.0551091 12.0747355,10.6131091 12.0736555,11.1783091 C12.0722155,11.7399091 12.0416155,12.5643091 11.9843755,13.1115091 C11.6056555,13.1583091 11.1336955,13.1799091 10.7470555,13.1799091 Z M9.84057551,9.76350909 L9.83265551,12.8379091 L11.6844955,12.8415091 L11.6924155,9.76710909 L9.84057551,9.76350909 Z M4.87005551,13.8819091 C4.31889551,13.8819091 3.77313551,13.8459091 3.23349551,13.7811091 C3.15573551,12.9999091 3.11541551,12.2079091 3.11685551,11.4015091 C3.11757551,10.5987091 3.16005551,9.80670909 3.23997551,9.02550909 C3.77925551,8.96070909 4.32465551,8.92830909 4.87653551,8.92830909 C5.42769551,8.92830909 5.97309551,8.96430909 6.51237551,9.02910909 C6.59049551,9.81030909 6.63081551,10.6023091 6.62973551,11.4087091 C6.62901551,12.2115091 6.58653551,13.0035091 6.50625551,13.7847091 C5.96661551,13.8495091 5.42085551,13.8819091 4.87005551,13.8819091 Z M3.57261551,9.30270909 L3.56685551,13.4895091 L6.17397551,13.4931091 L6.17937551,9.30630909 L3.57261551,9.30270909 Z M3.97329551,11.0775091 L5.77437551,11.0775091 L5.77437551,10.7283091 L3.97401551,10.7247091 L3.97329551,11.0775091 Z M3.97221551,11.8119091 L5.77329551,11.8155091 L5.77365551,11.4627091 L3.97293551,11.4627091 L3.97221551,11.8119091 Z M3.97185551,12.4923091 L4.92405551,12.4923091 L4.92513551,12.1431091 L3.97221551,12.1431091 L3.97185551,12.4923091 Z M8.98916822,6.94971809 C9.00473142,6.96702398 9.0200955,6.98455508 9.03525551,7.00230909 L8.79693551,7.20750909 C8.79032371,7.19974901 8.78366815,7.1920378 8.77696935,7.18437568 L8.79081551,7.18230909 C8.75517551,7.14990909 8.71989551,7.11390909 8.68605551,7.08150909 C8.55321551,6.94830909 8.42973551,6.81150909 8.32605551,6.68550909 L8.32281551,6.68190909 L8.48193551,6.52350909 L8.48517551,6.52710909 C8.61153551,6.62790909 8.74725551,6.75390909 8.87973551,6.88710909 C8.91393551,6.91950909 8.94849551,6.95550909 8.98305551,6.99150909 L8.98916822,6.94971809 Z"></path>
        </g>
    </g>
</svg>