<?xml version="1.0" encoding="UTF-8" standalone="no"?>
<svg width="16px" height="16px" viewBox="0 0 16 16" version="1.1" xmlns="http://www.w3.org/2000/svg" xmlns:xlink="http://www.w3.org/1999/xlink">
    <!-- Generator: Sketch 3.6.1 (26313) - http://www.bohemiancoding.com/sketch -->
    <title>garantia_mejor_precio_online</title>
    <desc>Created with Sketch.</desc>
    <defs></defs>
    <g id="Page-1" stroke="none" stroke-width="1" fill="none" fill-rule="evenodd">
        <g id="garantia_mejor_precio_online" fill="#000000">
            <path d="M13.27886,8.05454 L13.27994,8.05454 L13.27742,8.05454 C13.23242,7.33454 12.21038,6.8093 12.03398,6.40214 C11.8367,5.94746 12.34286,4.7663 11.7683,4.27094 C11.35934,3.91994 10.3373,4.19246 9.6929,4.04126 C9.09134,3.90014 9.24686,2.87342 7.80686,2.8997 L7.80686,2.87342 C7.80686,2.8817 7.90406,2.8907 7.90406,2.8997 C6.9371,2.87342 6.76358,3.89042 6.16202,4.03154 C5.51762,4.18274 4.61618,3.89942 4.20722,4.2515 C3.63194,4.74686 4.15106,5.94746 3.95414,6.40214 C3.77702,6.8093 2.76794,7.33454 2.72222,8.05454 L2.72006,8.05454 L2.7215,8.05454 L2.72006,8.05454 L2.72222,8.05454 C2.76794,9.13454 3.78998,9.24614 3.96674,9.65222 C4.16402,10.10618 3.6575,11.2517 4.23242,11.7467 C4.64174,12.09842 5.56658,11.81582 6.21098,11.96738 C6.8129,12.10922 6.9371,13.12658 7.90406,13.10066 C7.90406,13.10858 7.80686,13.1183 7.80686,13.12658 L7.80686,13.10138 C9.24686,13.12658 9.09134,12.1103 9.6929,11.96882 C10.3373,11.81726 11.31002,12.10058 11.71934,11.74922 C12.29462,11.25422 11.81258,10.10618 12.0095,9.65222 C12.1859,9.24614 13.23242,9.13454 13.27742,8.05454 L13.27994,8.05454 L13.27886,8.05454 L13.27886,8.05454 Z M12.2237,8.05454 L12.2219,8.05454 C12.1859,8.41454 11.36834,9.0017 11.22758,9.32714 C11.06918,9.69074 11.47454,10.60082 11.01482,10.99682 C10.68758,11.27834 9.85058,11.05262 9.33542,11.17358 C8.85338,11.28734 8.88686,12.1013 7.80686,12.08078 L7.80686,12.1013 C7.80686,12.09554 7.90406,12.08834 7.90334,12.0815 C7.13006,12.10202 7.00118,11.28914 6.52022,11.17646 C6.0047,11.05586 5.28902,11.2841 4.96142,11.00258 C4.5017,10.60658 4.91822,9.69074 4.76126,9.32714 C4.61942,9.0017 3.8141,8.41454 3.77738,8.05454 L3.77594,8.05454 L3.77702,8.05454 L3.77594,8.05454 L3.77738,8.05454 C3.8141,7.69454 4.63094,7.05266 4.77314,6.72722 C4.93082,6.36398 4.52546,5.41682 4.98554,5.02046 C5.31206,4.74002 6.05366,4.95602 6.56882,4.83506 C7.05014,4.72166 7.13006,3.90446 7.90334,3.92462 C7.90406,3.91778 7.80686,3.9059 7.80686,3.8987 L7.80686,3.91994 C8.88686,3.8987 8.85338,4.71158 9.33542,4.82426 C9.85058,4.94522 10.63898,4.71842 10.9655,5.0003 C11.42558,5.39558 11.04506,6.36398 11.20202,6.72722 C11.34386,7.05266 12.1859,7.69454 12.2219,8.05454 L12.2237,8.05454 L12.22262,8.05454 L12.2237,8.05454 Z M8.6669,6.43166 C8.46242,6.43166 8.25074,6.51266 8.12006,6.6437 L6.51338,8.25074 C6.45542,8.30834 6.42374,8.35874 6.42374,8.39222 C6.4241,8.46386 6.5501,8.58842 6.6833,8.71982 L7.18658,9.22238 C7.31762,9.35522 7.44146,9.48086 7.51274,9.48086 L7.5131,9.48086 C7.54658,9.48086 7.59698,9.44918 7.65494,9.39158 L9.26126,7.7849 C9.49202,7.55378 9.56798,7.07174 9.31634,6.81974 L9.08486,6.5879 C8.97578,6.47918 8.8235,6.43166 8.6669,6.43166 Z M7.5131,9.83294 L7.51166,9.83294 C7.2935,9.83186 7.1279,9.66374 6.93638,9.46934 L6.43634,8.97038 C6.24122,8.77778 6.07238,8.61146 6.07202,8.3933 C6.07166,8.25974 6.13466,8.13158 6.26462,8.00198 L7.8713,6.3953 C8.22986,6.03674 8.93114,5.93738 9.33362,6.33914 L9.56546,6.57098 C9.96794,6.97418 9.86786,7.67546 9.51002,8.0333 L7.90298,9.64034 C7.77374,9.76994 7.6463,9.83294 7.5131,9.83294 Z M8.69498,7.02962 C8.5859,7.02962 8.49698,7.11818 8.49698,7.22726 C8.49698,7.3367 8.5859,7.42562 8.69498,7.42562 C8.8037,7.42562 8.89262,7.3367 8.89262,7.22726 C8.89262,7.11818 8.8037,7.02962 8.69498,7.02962 Z M8.69498,7.6895 C8.44046,7.6895 8.2331,7.48214 8.2331,7.22726 C8.2331,6.97274 8.44046,6.76574 8.69498,6.76574 C8.9495,6.76574 9.1565,6.97274 9.1565,7.22726 C9.1565,7.48214 8.9495,7.6895 8.69498,7.6895 Z"></path>
        </g>
    </g>
</svg>