<?xml version="1.0" encoding="UTF-8" standalone="no"?>
<svg width="16px" height="16px" viewBox="0 0 16 16" version="1.1" xmlns="http://www.w3.org/2000/svg" xmlns:xlink="http://www.w3.org/1999/xlink">
    <!-- Generator: Sketch 3.6.1 (26313) - http://www.bohemiancoding.com/sketch -->
    <title>gestion_de_reservas</title>
    <desc>Created with Sketch.</desc>
    <defs></defs>
    <g id="Page-1" stroke="none" stroke-width="1" fill="none" fill-rule="evenodd">
        <g id="gestion_de_reservas" fill="#000000">
            <path d="M9.08853659,3.55652 L9.14109659,3.5576 C9.75597659,3.57344 10.3834566,3.61556 11.0048166,3.68252 C11.1120966,3.6944 11.2190166,3.70664 11.3277366,3.71996 C11.7348966,3.33404 12.3112566,2.83328 12.5798166,2.81348 L12.6356166,2.8088 L12.8015766,2.97512 L12.8044566,3.0212 C12.8188566,3.24188 12.5600166,3.6098 11.8986966,4.2938 C11.9120166,4.40144 11.9242566,4.508 11.9357766,4.61312 C12.0030966,5.2352 12.0452166,5.86196 12.0603366,6.47684 L12.0621366,6.52976 L11.6837766,6.9074 L10.9810566,5.15384 C10.8046566,5.30216 10.6217766,5.4494 10.4424966,5.5916 L10.4568966,5.69096 C10.4820966,5.88284 10.5018966,6.08588 10.5155766,6.29504 L10.5191766,6.34976 L10.1264166,6.74288 L9.69009659,5.94512 L9.67317659,5.9282 L8.87505659,5.49188 L9.26853659,5.09912 L9.32325659,5.10236 C9.53529659,5.1164 9.73329659,5.13548 9.92769659,5.16176 L10.0245366,5.17544 C10.1660166,4.99796 10.3136166,4.81472 10.4630166,4.63652 L8.71089659,3.93452 L9.08853659,3.55652 L9.08853659,3.55652 Z M7.65573659,5.76944 L7.65573659,7.98668 C8.45457659,8.17964 9.20661659,8.48528 9.77937659,8.78264 C9.84741659,8.99684 9.89781659,9.19484 9.93381659,9.39392 L11.1660966,9.39392 L11.1660966,7.23536 L12.0351366,7.23536 C12.0243366,8.19404 11.9652966,9.14372 11.8616166,10.08332 C11.2514166,10.15064 10.6361766,10.2032 10.0176966,10.24136 C10.0248966,10.448 10.0259766,10.673 10.0259766,10.92896 C10.0259766,11.76308 9.93093659,12.53924 9.76605659,13.1912 L6.91053659,13.1912 C6.91053659,13.1912 5.95833659,12.42296 5.35281659,11.85668 L5.35209659,10.26116 C4.69185659,10.21112 4.02837659,10.15568 3.36993659,10.08368 C3.25509659,9.04544 3.19497659,7.99568 3.19497659,6.9344 C3.19497659,5.87348 3.25509659,4.79312 3.36993659,3.75452 C4.76385659,3.6026 6.18009659,3.55292 7.61577659,3.55292 C7.86129659,3.55292 8.10609659,3.5558 8.35125659,3.56048 L8.35125659,4.40036 L4.05825659,4.40036 L4.05825659,9.39392 L5.92089659,9.39392 L6.08973659,9.13652 C6.08973659,9.13652 6.80685659,6.083 6.92385659,5.76944 L7.65573659,5.76944 L7.65573659,5.76944 Z"></path>
        </g>
    </g>
</svg>