<?xml version="1.0" encoding="UTF-8" standalone="no"?>
<svg width="16px" height="16px" viewBox="0 0 16 16" version="1.1" xmlns="http://www.w3.org/2000/svg" xmlns:xlink="http://www.w3.org/1999/xlink">
    <!-- Generator: Sketch 3.6.1 (26313) - http://www.bohemiancoding.com/sketch -->
    <title>gps</title>
    <desc>Created with Sketch.</desc>
    <defs></defs>
    <g id="Page-1" stroke="none" stroke-width="1" fill="none" fill-rule="evenodd">
        <g id="gps" fill="#000000">
            <path d="M8.00036,2.1014 C4.74128,2.1014 2.0996,4.7438 2.0996,8.0018 C2.0996,11.2598 4.74128,13.8986 8.00036,13.8986 C11.25836,13.8986 13.9004,11.2598 13.9004,8.0018 C13.9004,4.7438 11.25836,2.1014 8.00036,2.1014 Z M7.3673626,5.94445786 C7.36651534,5.94295546 7.36604,5.94113618 7.36604,5.939 C7.36604,5.9318 7.37144,5.9246 7.37828,5.9246 C7.38476,5.9246 7.39052,5.9318 7.39052,5.939 C7.39052,5.94108163 7.39003853,5.94286235 7.3891974,5.94434214 C7.39004466,5.94584454 7.39052,5.94766382 7.39052,5.9498 C7.39052,5.957 7.38512,5.9606 7.37828,5.9606 C7.3718,5.9606 7.36604,5.957 7.36604,5.9498 C7.36604,5.94771837 7.36652147,5.94593765 7.3673626,5.94445786 Z M7.3673626,5.94445786 C7.36937102,5.94801929 7.37346937,5.9498 7.37828,5.9498 C7.38288653,5.9498 7.38712921,5.94798071 7.3891974,5.94434214 C7.38718898,5.94078071 7.38309063,5.939 7.37828,5.939 C7.37367347,5.939 7.36943079,5.94081929 7.3673626,5.94445786 Z M8.44316,12.4226 C8.53388,12.3182 8.59436,12.185 8.59436,12.0374 C8.59436,11.7062 8.32796,11.4398 8.00036,11.4398 C7.6706,11.4398 7.40456,11.7062 7.40456,12.0374 C7.40456,12.185 7.46504,12.3182 7.55612,12.4226 C5.45912,12.2138 3.78692,10.5398 3.5774,8.4446 C3.68288,8.5346 3.81464,8.5958 3.9644,8.5958 C4.29272,8.5958 4.55912,8.3294 4.55912,8.0018 C4.55912,7.6706 4.29272,7.4042 3.9644,7.4042 C3.81464,7.4042 3.68288,7.4654 3.5774,7.5554 C3.78692,5.4602 5.4584,3.7862 7.5554,3.5774 C7.46504,3.6818 7.40456,3.815 7.40456,3.9662 C7.40456,4.2938 7.6706,4.5602 8.00036,4.5602 C8.32796,4.5602 8.59436,4.2938 8.59436,3.9662 C8.59436,3.815 8.53496,3.6818 8.44388,3.5774 C10.54088,3.7862 12.21272,5.4602 12.42188,7.5554 C12.31748,7.4654 12.18464,7.4042 12.03596,7.4042 C11.70656,7.4042 11.44016,7.6706 11.44016,8.0018 C11.44016,8.3294 11.70656,8.5958 12.03596,8.5958 C12.18464,8.5958 12.31748,8.5346 12.42188,8.4446 C12.21272,10.5398 10.54088,12.2138 8.44316,12.4226 Z M5.6222,10.3778 L8.7254,8.7254 L10.37744,5.6222 L7.27568,7.2746 L5.6222,10.3778 Z M8.00036,7.4366 C8.31176,7.4366 8.56412,7.6886 8.56412,8.0018 C8.56412,8.3114 8.31176,8.5634 8.00036,8.5634 C7.6886,8.5634 7.43624,8.3114 7.43624,8.0018 C7.43624,7.6886 7.6886,7.4366 8.00036,7.4366 Z"></path>
        </g>
    </g>
</svg>