<?xml version="1.0" encoding="UTF-8" standalone="no"?>
<svg width="16px" height="16px" viewBox="0 0 16 16" version="1.1" xmlns="http://www.w3.org/2000/svg" xmlns:xlink="http://www.w3.org/1999/xlink">
    <!-- Generator: Sketch 3.6.1 (26313) - http://www.bohemiancoding.com/sketch -->
    <title>guia_anadir</title>
    <desc>Created with Sketch.</desc>
    <defs></defs>
    <g id="Page-1" stroke="none" stroke-width="1" fill="none" fill-rule="evenodd">
        <g id="guia_anadir" fill="#000000">
            <path d="M4.02398,7.25354 C4.02398,8.0459 5.27534,9.46034 5.27534,10.52594 L5.64218,10.52594 C5.64218,9.46358 6.8939,7.9811 6.8939,7.25354 C6.8939,6.46154 6.25058,5.81858 5.45822,5.81858 C4.6655,5.81858 4.02398,6.46154 4.02398,7.25354 M6.04682,7.25354 C6.04682,7.5779 5.78294,7.84178 5.45822,7.84178 C5.13386,7.84178 4.86998,7.5779 4.86998,7.25354 C4.86998,6.92918 5.13386,6.66494 5.45822,6.66494 C5.78294,6.66494 6.04682,6.92918 6.04682,7.25354 Z M7.78958,10.4165 L11.55662,10.4165 L11.55662,9.42614 L7.78958,9.42614 L7.78958,10.4165 Z M11.3543,8.3051 C12.78314,8.3051 13.94162,7.1477 13.94162,5.71778 C13.94162,4.28966 12.78314,3.13118 11.3543,3.13118 C9.92618,3.13154 8.7677,4.28966 8.7677,5.71778 C8.7677,7.14734 9.92618,8.3051 11.3543,8.3051 Z M9.69362,5.46074 C10.09358,5.41538 10.49858,5.38766 10.9061,5.3765 C10.91834,4.98446 10.94606,4.5971 10.98854,4.21298 C11.10806,4.20002 11.59334,4.20002 11.7125,4.21298 C11.75534,4.59818 11.78306,4.9859 11.79638,5.37722 C12.18734,5.38946 12.57542,5.41754 12.96062,5.45894 C12.97322,5.5799 12.97322,6.06446 12.96062,6.18434 C12.57614,6.22646 12.18806,6.25454 11.79746,6.26714 C11.78522,6.6743 11.75714,7.07858 11.71322,7.47962 C11.5937,7.4933 11.10806,7.4933 10.98854,7.47962 C10.94462,7.08002 10.91618,6.67538 10.9043,6.26858 C10.49678,6.25706 10.09322,6.22862 9.69362,6.1847 C9.67994,6.06446 9.67994,5.58026 9.69362,5.46074 Z M12.43646,8.4095 L12.43646,11.69342 L3.14162,11.69342 L3.14162,4.65146 L8.63162,4.65146 C8.81738,4.20182 9.11366,3.81086 9.48698,3.5099 C8.9225,3.48974 8.35802,3.4757 7.7903,3.4757 C5.92838,3.4757 4.09346,3.58586 2.28662,3.79754 C2.13722,5.24006 2.05838,6.69842 2.05838,8.17262 C2.05838,9.6461 2.13722,11.10482 2.28662,12.54662 C4.09346,12.75866 5.92838,12.86882 7.7903,12.86882 C9.65006,12.86882 11.48498,12.75866 13.29182,12.54734 C13.44158,11.10482 13.51934,9.6461 13.51934,8.17226 C13.51934,7.98398 13.5143,7.79642 13.51142,7.60886 C13.22342,7.95338 12.8555,8.2295 12.43646,8.4095 Z M7.82846,6.16922 L7.82846,7.15922 L8.7515,7.15922 C8.5787,6.8597 8.45846,6.52526 8.40266,6.16922 L7.82846,6.16922 Z M7.78958,8.78786 L10.79918,8.78822 L10.79918,8.65106 C10.19618,8.53298 9.66266,8.22734 9.25622,7.79786 L7.78958,7.79786 L7.78958,8.78786 Z"></path>
        </g>
    </g>
</svg>