<?xml version="1.0" encoding="UTF-8" standalone="no"?>
<svg width="16px" height="16px" viewBox="0 0 16 16" version="1.1" xmlns="http://www.w3.org/2000/svg" xmlns:xlink="http://www.w3.org/1999/xlink">
    <!-- Generator: Sketch 3.6.1 (26313) - http://www.bohemiancoding.com/sketch -->
    <title>guia</title>
    <desc>Created with Sketch.</desc>
    <defs></defs>
    <g id="Page-1" stroke="none" stroke-width="1" fill="none" fill-rule="evenodd">
        <g id="guia" fill="#000000">
            <path d="M2.1509,12.64994 C1.99286,11.11742 1.90934,9.56654 1.90934,8.00054 C1.90934,6.43346 1.99286,4.8833 2.1509,3.3497 C4.07114,3.1247 6.02306,3.00842 8.00018,3.00842 C9.97838,3.00842 11.92958,3.1247 13.84982,3.3497 C14.00786,4.8833 14.09066,6.43346 14.09066,8.00054 C14.09066,9.56726 14.00786,11.11742 13.84982,12.64994 C11.92958,12.87566 9.97838,12.99158 8.00018,12.99158 C6.02306,12.99158 4.07114,12.87566 2.1509,12.64994 Z M3.05954,11.7431 L12.94046,11.7431 L12.94046,4.25798 L3.05954,4.25798 L3.05954,11.7431 Z M8.04122,6.92378 L12.00482,6.92378 L12.00482,5.87078 L8.04122,5.87078 L8.04122,6.92378 Z M8.00018,10.38626 L12.00518,10.38626 L12.00518,9.3329 L8.00018,9.3329 L8.00018,10.38626 Z M8.00018,8.65502 L11.20022,8.65502 L11.20022,7.60202 L8.00018,7.60202 L8.00018,8.65502 Z M5.52302,5.49818 C4.68098,5.49818 3.99698,6.18146 3.99698,7.02278 C3.99698,7.86554 5.32718,9.36998 5.32718,10.50146 L5.71778,10.50146 C5.71778,9.37214 7.04834,7.7975 7.04834,7.02278 C7.04834,6.18146 6.36434,5.49818 5.52302,5.49818 Z M5.52302,7.64918 C5.17706,7.64918 4.89734,7.36802 4.89734,7.02278 C4.89734,6.67862 5.17706,6.39818 5.52302,6.39818 C5.8679,6.39818 6.1487,6.67862 6.1487,7.02278 C6.1487,7.36802 5.8679,7.64918 5.52302,7.64918 Z"></path>
        </g>
    </g>
</svg>