<?xml version="1.0" encoding="UTF-8" standalone="no"?>
<svg width="16px" height="16px" viewBox="0 0 16 16" version="1.1" xmlns="http://www.w3.org/2000/svg" xmlns:xlink="http://www.w3.org/1999/xlink">
    <!-- Generator: Sketch 3.6.1 (26313) - http://www.bohemiancoding.com/sketch -->
    <title>handing</title>
    <desc>Created with Sketch.</desc>
    <defs></defs>
    <g id="Page-1" stroke="none" stroke-width="1" fill="none" fill-rule="evenodd">
        <g id="handing" fill="#000000">
            <path d="M13.2631102,3.122 L11.7701902,3.122 L9.1015102,5.2964 C7.7893102,4.6628 6.4681102,5.9732 6.4681102,5.9732 L2.8108702,8.7524 C2.6881102,9.1412 2.5585102,10.574 2.8270702,12.1292 L4.2746302,12.1292 C4.2890302,12.5432 4.6267102,12.878 5.0443102,12.878 C5.4619102,12.878 5.7999502,12.5432 5.8139902,12.1292 L9.2246302,12.1292 C9.2390302,12.5432 9.5767102,12.878 9.9943102,12.878 C10.4119102,12.878 10.7499502,12.5432 10.7639902,12.1292 L11.7701902,12.1292 C11.7701902,12.1292 11.8396702,11.6756 11.8396702,11.1572 C11.8396702,10.6424 11.7597502,10.2464 11.7597502,10.2464 L10.4349502,10.2464 C10.2391102,10.0484 10.0342702,9.8504 9.8243902,9.6596 C9.9125902,9.5696 10.0007902,9.476 10.0807102,9.3896 L10.0619902,9.368 L9.9590302,9.2672 L9.9395902,9.2456 C9.6872302,9.4724 9.4280302,9.7316 9.1835902,10.0052 L9.2030302,10.0232 L9.3056302,10.124 L9.3250702,10.1456 C9.4175902,10.0592 9.5057902,9.9728 9.5954302,9.8864 C9.7063102,10.0088 9.8193502,10.1276 9.9331102,10.2464 L8.6756302,10.2464 C8.6486302,9.8936 8.5622302,9.53 8.4139102,9.1304 L8.0690302,9.1304 C8.0495902,9.5012 8.0395102,9.8756 8.0380702,10.2464 L5.0389102,10.2464 L5.0389102,9.9548 L9.1015102,6.794 L10.8363502,5.408 L13.2631102,5.408 C13.2631102,5.408 13.3246702,4.904 13.3304302,4.2236 C13.3358302,3.5432 13.2631102,3.122 13.2631102,3.122 M9.9946702,11.7476 C10.1919502,11.7476 10.3517902,11.906 10.3517902,12.104 C10.3517902,12.302 10.1919502,12.4604 9.9946702,12.4604 C9.7973902,12.4604 9.6375502,12.302 9.6375502,12.104 C9.6375502,11.906 9.7973902,11.7476 9.9946702,11.7476 M5.3963902,12.104 C5.3963902,12.302 5.2361902,12.4604 5.0389102,12.4604 C4.8419902,12.4604 4.6817902,12.302 4.6817902,12.104 C4.6817902,11.906 4.8419902,11.7476 5.0389102,11.7476 C5.2361902,11.7476 5.3963902,11.906 5.3963902,12.104 M4.9100302,8.4428 C4.9100302,8.4428 4.3876702,8.8352 3.5740702,8.7524 L7.1269102,6.0164 C7.1269102,6.0164 7.9120702,5.3756 8.5395502,5.678 L4.9100302,8.4428"></path>
        </g>
    </g>
</svg>