<?xml version="1.0" encoding="UTF-8" standalone="no"?>
<svg width="16px" height="16px" viewBox="0 0 16 16" version="1.1" xmlns="http://www.w3.org/2000/svg" xmlns:xlink="http://www.w3.org/1999/xlink">
    <!-- Generator: Sketch 3.6.1 (26313) - http://www.bohemiancoding.com/sketch -->
    <title>hola_iberia</title>
    <desc>Created with Sketch.</desc>
    <defs></defs>
    <g id="Page-1" stroke="none" stroke-width="1" fill="none" fill-rule="evenodd">
        <g id="hola_iberia" fill="#000000">
            <path d="M12.5963,3.0446 C11.08754,2.861 9.55394,2.7674 7.99946,2.7674 C6.4457,2.7674 4.91246,2.861 3.40406,3.0446 C3.27914,4.283 3.21434,5.5358 3.21434,6.803 C3.21434,8.0702 3.27914,9.323 3.40406,10.5614 C4.28498,10.6694 5.17382,10.745 6.07058,10.7882 L6.07058,13.2326 L9.86174,10.7918 C10.78154,10.7486 11.69342,10.6694 12.5963,10.5614 C12.7205,9.323 12.78566,8.0702 12.78566,6.803 C12.78566,5.5358 12.7205,4.283 12.5963,3.0446 L12.5963,3.0446 Z M4.3073,4.2794 L6.52706,4.2794 C6.5645,4.643 6.58178,5.0318 6.58034,5.4206 C6.57962,5.8094 6.56018,6.1874 6.52598,6.5222 L4.3073,6.5222 C4.27238,6.1874 4.25258,5.8094 4.25222,5.4206 C4.2515,5.0318 4.26842,4.643 4.3073,4.2794 L4.3073,4.2794 Z M4.27706,9.0746 L11.72438,9.0746 L11.72438,8.675 L4.27706,8.675 L4.27706,9.0746 Z M4.27706,8.1926 L11.72438,8.1926 L11.72438,7.793 L4.27706,7.793 L4.27706,8.1926 Z M4.27706,7.307 L11.72438,7.307 L11.72438,6.9074 L4.27706,6.9074 L4.27706,7.307 Z M7.13222,6.4322 L11.72438,6.4322 L11.72438,6.0362 L7.13222,6.0362 L7.13222,6.4322 Z M7.13222,5.5502 L11.72438,5.5502 L11.72438,5.1542 L7.13222,5.1542 L7.13222,5.5502 Z M7.13222,4.679 L11.72438,4.679 L11.72438,4.2794 L7.13222,4.2794 L7.13222,4.679 Z"></path>
        </g>
    </g>
</svg>