<?xml version="1.0" encoding="UTF-8" standalone="no"?>
<svg width="16px" height="16px" viewBox="0 0 16 16" version="1.1" xmlns="http://www.w3.org/2000/svg" xmlns:xlink="http://www.w3.org/1999/xlink">
    <!-- Generator: Sketch 3.6.1 (26313) - http://www.bohemiancoding.com/sketch -->
    <title>hold72h</title>
    <desc>Created with Sketch.</desc>
    <defs></defs>
    <g id="Page-1" stroke="none" stroke-width="1" fill="none" fill-rule="evenodd">
        <g id="hold72h" fill="#000000">
            <path d="M7.36444183,6.7976 L5.92480183,5.35868 L5.17456183,6.11 L6.61276183,7.55072 L7.36768183,8.3024 L8.11576183,7.54964 L8.88616183,6.77852 L8.13520183,6.0272 L7.36444183,6.7976 Z M7.72696183,11.81672 C7.16464183,12.83156 6.89068183,13.24412 6.89068183,13.24412 L6.23044183,13.24412 C6.23044183,13.24412 6.59800183,12.68864 7.17436183,11.68496 C7.75108183,10.68092 7.93216183,10.28168 7.93216183,10.28168 L6.09400183,10.28672 L6.03028183,9.73916 L8.58232183,9.73916 L8.64064183,10.08584 C8.64064183,10.08584 8.28892183,10.80188 7.72696183,11.81672 Z M11.1275218,13.24412 L8.87392183,13.24412 L8.87392183,12.81284 C8.87392183,12.81284 10.5950818,11.52368 10.6192018,11.02076 C10.8197218,9.6218 9.04996183,10.502 9.04996183,10.502 L8.87392183,9.9836 C8.87392183,9.9836 10.7610418,9.07928 11.1516418,10.43792 C11.5238818,11.7044 9.81748183,12.71168 9.81748183,12.71168 L11.2546018,12.71168 L11.1275218,13.24412 Z M13.2832018,13.24412 L12.7946818,13.24412 C12.7946818,13.24412 12.7921618,12.84344 12.7896418,12.43772 C12.7878418,12.09068 12.8141218,11.7728 12.7183618,11.6576 C12.5599618,11.49092 12.0077218,11.59208 12.0077218,11.59208 L12.0077218,13.24412 L11.5184818,13.24412 C11.5184818,13.24412 11.5332418,10.88288 11.4986818,10.6388 C11.4738418,10.45772 11.4500818,10.43324 11.4500818,10.43324 L11.9047618,10.30112 C11.9047618,10.30112 11.9468818,10.34072 11.9828818,10.55528 C12.0271618,10.81448 12.0077218,11.10788 12.0077218,11.10788 C12.0077218,11.10788 12.6060418,10.96028 12.9822418,11.23964 C13.3516018,11.5136 13.2832018,12.0068 13.2832018,12.45248 C13.2839218,12.89816 13.2832018,13.24412 13.2832018,13.24412 Z M5.20084183,9.85184 C4.35268183,9.25172 3.79576183,8.26568 3.79576183,7.14932 C3.79576183,5.32484 5.28076183,3.83948 7.10560183,3.83948 C8.92972183,3.83948 10.4154418,5.32484 10.4154418,7.14932 C10.4154418,7.85564 10.1911618,8.5094 9.81316183,9.04724 C9.97984183,8.99 10.1569618,8.95832 10.3416418,8.95832 C10.5875218,8.95832 10.8211618,9.01232 11.0328418,9.10952 C11.3284018,8.51912 11.4990418,7.85492 11.4990418,7.14932 C11.4990418,4.72256 9.53128183,2.75588 7.10560183,2.75588 C4.67920183,2.75588 2.71180183,4.72256 2.71180183,7.14932 C2.71180183,8.9414 3.78640183,10.48004 5.32504183,11.16368 L5.20084183,9.85184 Z"></path>
        </g>
    </g>
</svg>