<?xml version="1.0" encoding="UTF-8" standalone="no"?>
<svg width="16px" height="16px" viewBox="0 0 16 16" version="1.1" xmlns="http://www.w3.org/2000/svg" xmlns:xlink="http://www.w3.org/1999/xlink">
    <!-- Generator: Sketch 3.7.1 (28215) - http://www.bohemiancoding.com/sketch -->
    <title>hombre</title>
    <desc>Created with Sketch.</desc>
    <defs></defs>
    <g id="Page-1" stroke="none" stroke-width="1" fill="none" fill-rule="evenodd">
        <g id="hombre" fill="#000000">
            <path d="M7.85169871,4.84963131 C8.4185101,4.84963131 8.59148232,4.48611398 8.59148232,3.92481566 C8.59148232,3.3628282 8.4185101,3 7.85169871,3 C7.28488733,3 7.1119151,3.3628282 7.1119151,3.92481566 C7.1119151,4.48611398 7.28488733,4.84963131 7.85169871,4.84963131 L7.85169871,4.84963131 Z M9.22961891,5.57425401 C9.22927434,5.57425401 9.22892978,5.57425401 9.22824065,5.57356488 C9.22789608,5.57287575 9.22789608,5.57149748 9.22755151,5.57080835 L9.22341672,5.57080835 C9.01081938,5.43918407 8.42298946,5.35476535 7.90614017,5.33202398 L7.85169871,5.33271311 L7.76693543,5.33271311 C7.26696988,5.35821101 6.68878782,5.4409069 6.48032527,5.57080835 L6.47550134,5.57080835 C6.47550134,5.57149748 6.47481221,5.57287575 6.47446765,5.57425401 L6.47343395,5.57425401 L6.47343395,5.57769968 C6.2436083,6.46599132 6.08166219,7.41113638 6,9.28902212 L6.65674316,9.88856729 C6.71566398,10.9636138 6.92963958,12.0042037 7.04782579,13 L8.65557164,13 C8.77410241,12.0042037 8.98773344,10.9636138 9.04665426,9.88856729 L9.70305286,9.28902212 C9.62173524,7.41113638 9.45944456,6.46599132 9.22961891,5.57907794 L9.22961891,5.57425401 L9.22961891,5.57425401 Z" id="aseos"></path>
        </g>
    </g>
</svg>