<?xml version="1.0" encoding="UTF-8" standalone="no"?>
<svg width="16px" height="16px" viewBox="0 0 16 16" version="1.1" xmlns="http://www.w3.org/2000/svg" xmlns:xlink="http://www.w3.org/1999/xlink">
    <!-- Generator: Sketch 3.6.1 (26313) - http://www.bohemiancoding.com/sketch -->
    <title>hotel</title>
    <desc>Created with Sketch.</desc>
    <defs></defs>
    <g id="Page-1" stroke="none" stroke-width="1" fill="none" fill-rule="evenodd">
        <g id="hotel" fill="#000000">
            <path d="M12.486226,3.47408 L3.51826605,3.47408 C3.36166605,4.9292 3.29362605,6.5168 3.29614605,8.07848 C3.29866605,9.64376 3.37642605,11.17988 3.51826605,12.52592 L12.484066,12.52592 C12.622666,11.17988 12.700066,9.64376 12.703666,8.07704 C12.708706,6.5168 12.639226,4.9292 12.486226,3.47408 M9.74158605,10.0502 C9.74158605,10.05272 9.73978605,10.05488 9.73978605,10.05884 L8.65186605,10.05884 C8.65186605,10.05488 8.65006605,10.05272 8.65006605,10.0502 L8.68390605,8.5202 L7.31626605,8.5202 L7.34938605,10.0502 C7.34938605,10.05272 7.34866605,10.05488 7.34794605,10.05884 L6.26002605,10.05884 C6.26002605,10.05488 6.25822605,10.05272 6.25822605,10.0502 C6.25822605,10.0502 6.15598605,9.14948 6.15598605,8.02556 C6.15598605,6.983 6.24814605,6.15824 6.25786605,6.0146 L7.34938605,6.0146 L7.31230605,7.55396 L8.68750605,7.55396 L8.65078605,6.0146 L9.74194605,6.0146 C9.75166605,6.15824 9.84382605,6.983 9.84382605,8.02556 C9.84382605,9.14948 9.74158605,10.0502 9.74158605,10.0502"></path>
        </g>
    </g>
</svg>