<?xml version="1.0" encoding="UTF-8" standalone="no"?>
<svg width="16px" height="16px" viewBox="0 0 16 16" version="1.1" xmlns="http://www.w3.org/2000/svg" xmlns:xlink="http://www.w3.org/1999/xlink">
    <!-- Generator: Sketch 3.6.1 (26313) - http://www.bohemiancoding.com/sketch -->
    <title>humedad</title>
    <desc>Created with Sketch.</desc>
    <defs></defs>
    <g id="Page-1" stroke="none" stroke-width="1" fill="none" fill-rule="evenodd">
        <g id="humedad" fill="#000000">
            <path d="M11.73338,10.1096 C11.73338,8.432 10.98674,6.956 10.24046,5.9084 C9.01214,4.1804 7.3043,2.7656 7.00478,2.7656 C6.67466,2.7656 6.73838,4.0328 5.75954,5.9084 C5.14214,7.0892 4.26662,8.432 4.26662,10.1096 C4.26662,12.3524 6.28154,13.2344 7.99982,13.2344 C9.71846,13.2344 11.73338,11.96 11.73338,10.1096 M11.0753,10.3004 C10.71386,12.1832 9.35522,12.5612 9.0737,12.5252 C8.74358,12.4856 10.36574,11.4812 10.46942,9.422 C10.57274,7.3664 7.64414,4.2452 7.74278,4.0328 C7.83962,3.824 11.6927,7.082 11.0753,10.3004"></path>
        </g>
    </g>
</svg>