<?xml version="1.0" encoding="UTF-8" standalone="no"?>
<svg width="16px" height="16px" viewBox="0 0 16 16" version="1.1" xmlns="http://www.w3.org/2000/svg" xmlns:xlink="http://www.w3.org/1999/xlink">
    <!-- Generator: Sketch 3.6.1 (26313) - http://www.bohemiancoding.com/sketch -->
    <title>iberia_pod</title>
    <desc>Created with Sketch.</desc>
    <defs></defs>
    <g id="Page-1" stroke="none" stroke-width="1" fill="none" fill-rule="evenodd">
        <g id="iberia_pod" fill="#000000">
            <path d="M8.38124,11.6468 C9.91916,11.456 11.11508,10.1456 11.11508,8.558 L10.39508,8.558 C10.39508,9.8756 9.32084,10.952 8,10.952 C6.67952,10.952 5.60492,9.8756 5.60492,8.558 L4.88492,8.558 C4.88492,10.1492 6.08912,11.4668 7.63532,11.6468 L7.63532,12.4928 L5.77196,12.4928 L5.77196,13.238 L10.24424,13.238 L10.24424,12.4928 L8.38124,12.4928 L8.38124,11.6468 Z M8,10.3076 C9.2078,10.3076 10.18988,9.3248 10.18988,8.1152 L10.18988,4.9508 C10.18988,3.7448 9.2078,2.762 8,2.762 C6.79256,2.762 5.81012,3.7448 5.81012,4.9508 L5.81012,8.1152 C5.81012,9.3248 6.79256,10.3076 8,10.3076 Z M8,3.482 C8.81072,3.482 9.46988,4.1408 9.46988,4.9508 L9.46988,5.012 L8.38124,5.012 L8.38124,5.732 L9.46988,5.732 L9.46988,6.1748 L8.38124,6.1748 L8.38124,6.8948 L9.46988,6.8948 L9.46988,7.3376 L8.38124,7.3376 L8.38124,8.0576 L9.46988,8.0576 L9.46988,8.1152 C9.46988,8.9288 8.81072,9.5876 8,9.5876 C7.18964,9.5876 6.53012,8.9288 6.53012,8.1152 L6.53012,8.0576 L7.63532,8.0576 L7.63532,7.3376 L6.53012,7.3376 L6.53012,6.8948 L7.63532,6.8948 L7.63532,6.1748 L6.53012,6.1748 L6.53012,5.732 L7.63532,5.732 L7.63532,5.012 L6.53012,5.012 L6.53012,4.9508 C6.53012,4.1408 7.18964,3.482 8,3.482 Z"></path>
        </g>
    </g>
</svg>