<?xml version="1.0" encoding="UTF-8" standalone="no"?>
<svg width="16px" height="16px" viewBox="0 0 16 16" version="1.1" xmlns="http://www.w3.org/2000/svg" xmlns:xlink="http://www.w3.org/1999/xlink">
    <!-- Generator: Sketch 3.6.1 (26313) - http://www.bohemiancoding.com/sketch -->
    <title>iberia_joven</title>
    <desc>Created with Sketch.</desc>
    <defs></defs>
    <g id="Page-1" stroke="none" stroke-width="1" fill="none" fill-rule="evenodd">
        <g id="iberia_joven" fill="#000000">
            <path d="M8.0117,5.48216 C9.14138,5.48216 9.48554,4.80176 9.48554,3.74912 C9.48554,2.6954 9.14138,2.01392 8.0117,2.01392 C6.88238,2.01392 6.53786,2.6954 6.53786,3.74912 C6.53786,4.80176 6.88238,5.48216 8.0117,5.48216 Z M10.5749,6.74828 L10.56302,6.73388 C10.16522,6.49052 9.23822,6.29288 8.10206,6.29288 L7.8425,6.2954 C6.61022,6.2954 5.42474,6.7472 5.42474,6.7472 C5.42474,6.7472 3.9761,9.09548 3.82418,12.56948 L5.76674,13.98608 L10.2329,13.98608 L12.17582,12.56948 C12.02354,9.0962 10.5749,6.74828 10.5749,6.74828 Z M5.15546,10.15892 L5.1515,10.16504 L6.21566,10.92356 L6.05978,11.08376 L4.81526,10.41992 L4.81562,10.41956 C4.7411,10.35404 4.71014,10.25576 4.71626,10.15892 C4.71014,10.06208 4.7411,9.96488 4.81562,9.89828 L4.81526,9.89792 L6.05978,9.23408 L6.21566,9.39536 L5.1515,10.15316 L5.15546,10.15892 Z M8.59598,11.21048 C8.08226,12.08924 6.62354,11.4452 6.62354,11.4452 L6.7589,11.03732 C6.7589,11.03732 8.02934,11.50244 8.20934,10.91024 C8.38502,10.28132 7.7273,10.32272 7.7273,10.32272 L7.22078,10.3184 L7.17974,9.87668 L7.85978,9.87488 C7.85978,9.87488 8.1557,9.74276 8.10962,9.3806 C8.04518,8.86796 6.83054,9.3014 6.83054,9.3014 L6.71066,8.87624 C6.71066,8.87624 8.14238,8.21204 8.52866,9.13832 C8.74394,9.65204 8.36558,10.00988 8.36558,10.00988 C8.36558,10.00988 8.9441,10.37528 8.59598,11.21048 Z M10.18178,9.1232 C9.67274,9.1232 9.50894,9.56528 9.50894,10.16972 C9.50894,10.77452 9.63674,11.21624 10.18178,11.21624 C10.72574,11.21624 10.81574,10.70864 10.81574,10.16972 C10.81574,9.6308 10.68758,9.1232 10.18178,9.1232 Z M10.19042,11.67308 C9.25118,11.67308 9.03086,11.03336 9.03086,10.15892 C9.03086,9.2852 9.31274,8.64584 10.19042,8.64584 C11.06414,8.64584 11.28518,9.37988 11.28518,10.15892 C11.28518,10.93904 11.13002,11.67308 10.19042,11.67308 Z"></path>
        </g>
    </g>
</svg>