<?xml version="1.0" encoding="UTF-8" standalone="no"?>
<svg width="16px" height="16px" viewBox="0 0 16 16" version="1.1" xmlns="http://www.w3.org/2000/svg" xmlns:xlink="http://www.w3.org/1999/xlink">
    <!-- Generator: Sketch 3.6.1 (26313) - http://www.bohemiancoding.com/sketch -->
    <title>iberia_aplic_peque</title>
    <desc>Created with Sketch.</desc>
    <defs></defs>
    <g id="Page-1" stroke="none" stroke-width="1" fill="none" fill-rule="evenodd">
        <g id="iberia_aplic_peque" fill="#000000">
            <path d="M13.6540531,2.2958 L2.35149305,2.2958 C2.15457305,4.12964 2.06853305,6.13016 2.07177305,8.09936 C2.07465305,10.07072 2.17257305,12.00752 2.35149305,13.7042 L13.6515331,13.7042 C13.8257731,12.00752 13.9236931,10.07072 13.9280131,8.0972 C13.9341331,6.13016 13.8473731,4.12964 13.6540531,2.2958 Z M4.49997305,8.76752 L4.00281305,8.76752 C3.97005305,8.38304 3.95817305,8.13824 3.95709305,7.82252 C3.95673305,7.4924 3.97293305,7.23032 4.00281305,6.8462 L4.49997305,6.8462 C4.52769305,7.23032 4.54569305,7.49276 4.54461305,7.82252 C4.54461305,8.13932 4.53345305,8.38304 4.49997305,8.76752 Z M6.41733305,7.99856 L5.71425305,7.99856 C5.71425305,7.99856 5.71929305,8.38268 5.73225305,8.38268 L6.35505305,8.38268 C6.49005305,8.38268 6.56673305,8.33804 6.62217305,8.28728 C6.65961305,8.24768 6.67869305,8.20772 6.67869305,8.14292 C6.67869305,8.08208 6.65889305,8.04608 6.61605305,8.00936 C6.57033305,7.9712 6.51849305,7.99856 6.41733305,7.99856 Z M6.58617305,7.41824 C6.58617305,7.361 6.56889305,7.30376 6.53973305,7.27532 C6.48321305,7.21844 6.41733305,7.23032 6.21969305,7.23032 L5.73225305,7.23032 C5.72217305,7.23032 5.71641305,7.6148 5.71425305,7.6148 L6.49581305,7.6148 C6.55377305,7.6148 6.58617305,7.49672 6.58617305,7.41824 Z M7.06101305,8.58104 C6.91161305,8.68292 6.67221305,8.76752 6.28305305,8.76752 L5.18289305,8.76752 C5.15121305,8.38304 5.13717305,8.10908 5.13717305,7.80596 C5.13717305,7.50356 5.15265305,7.23032 5.18289305,6.8462 L6.24273305,6.8462 C6.55521305,6.8462 6.84969305,6.84548 7.00989305,6.98192 C7.10529305,7.064 7.14813305,7.15292 7.14813305,7.30088 C7.14813305,7.46 7.06173305,7.60724 6.92493305,7.68284 C7.13013305,7.76708 7.24677305,7.94924 7.24677305,8.15336 C7.24677305,8.3258 7.17513305,8.50328 7.06101305,8.58104 Z M11.4260131,8.49464 C11.0073331,9.4688 10.2902131,10.18448 7.24677305,10.18448 L8.12409305,9.29924 C9.20517305,8.21204 10.7524531,7.60796 11.7777331,7.57772 L11.4260131,8.49464 Z M11.9775331,7.04528 C11.0472931,7.15004 10.1098531,7.55612 9.17277305,8.2286 L10.1602531,7.2296 C10.6365331,6.7544 10.8240931,6.4538 12.2014531,6.4538 L11.9775331,7.04528 Z"></path>
        </g>
    </g>
</svg>