<?xml version="1.0" encoding="UTF-8" standalone="no"?>
<svg width="16px" height="16px" viewBox="0 0 16 16" version="1.1" xmlns="http://www.w3.org/2000/svg" xmlns:xlink="http://www.w3.org/1999/xlink">
    <!-- Generator: Sketch 3.6.1 (26313) - http://www.bohemiancoding.com/sketch -->
    <title>iberia_ninos</title>
    <desc>Created with Sketch.</desc>
    <defs></defs>
    <g id="Page-1" stroke="none" stroke-width="1" fill="none" fill-rule="evenodd">
        <g id="iberia_ninos" fill="#000000">
            <path d="M5.68826,2.78054 C5.54354,2.37626 5.24114,2.13614 4.6763,2.13614 C4.12406,2.13614 3.82094,2.36618 3.67298,2.75534 C2.92598,2.34278 2.38634,2.57354 2.05514,3.44798 C2.6045,4.0265 3.10706,3.99194 3.56426,3.3497 C3.5603,3.41054 3.55598,3.47138 3.55598,3.53762 C3.55598,4.38794 3.81806,4.9391 4.6763,4.9391 C5.53634,4.9391 5.7977,4.38794 5.7977,3.53762 C5.7977,3.4415 5.7923,3.35114 5.78618,3.2633 C6.25778,3.98762 6.77978,4.05098 7.35218,3.44798 C7.0145,2.55518 6.45974,2.33378 5.68826,2.78054 Z M6.12746,5.6519 L6.12062,5.64398 C5.90102,5.50034 5.38838,5.38406 4.76018,5.38406 L4.6169,5.38586 C3.9347,5.38586 3.2795,5.65082 3.2795,5.65082 C3.2795,5.65082 2.47886,7.03106 2.39426,9.07226 L3.04982,9.57986 L2.80574,10.62386 L3.52178,10.62386 C3.61286,11.70386 3.7745,12.78386 3.87314,13.86386 L5.53418,13.86386 C5.63282,12.78386 5.79374,11.70386 5.88554,10.62386 L6.70526,10.62386 L6.44534,9.51146 L7.0127,9.07226 C6.92882,7.03106 6.12746,5.6519 6.12746,5.6519 Z M11.61998,4.90814 C12.46994,4.90814 12.72986,4.36418 12.72986,3.52178 C12.72986,2.6801 12.46994,2.13614 11.61998,2.13614 C10.77038,2.13614 10.51154,2.6801 10.51154,3.52178 C10.51154,4.36418 10.77038,4.90814 11.61998,4.90814 Z M13.06034,5.6519 L13.0535,5.64398 C12.8339,5.50034 12.3209,5.38406 11.69306,5.38406 L11.54906,5.38586 C10.86794,5.38586 10.21274,5.65082 10.21274,5.65082 C10.21274,5.65082 9.41174,7.03106 9.32822,9.07226 L10.40174,9.98306 C10.46222,11.14946 10.68398,12.78386 10.80638,13.86386 L12.46742,13.86386 C12.58946,12.78386 12.81014,11.14946 12.87134,9.98306 L13.94486,9.11186 C13.86134,7.07066 13.06034,5.6519 13.06034,5.6519 Z"></path>
        </g>
    </g>
</svg>