<?xml version="1.0" encoding="UTF-8" standalone="no"?>
<svg width="16px" height="16px" viewBox="0 0 16 16" version="1.1" xmlns="http://www.w3.org/2000/svg" xmlns:xlink="http://www.w3.org/1999/xlink">
    <!-- Generator: Sketch 3.6.1 (26313) - http://www.bohemiancoding.com/sketch -->
    <title>idiomas_web</title>
    <desc>Created with Sketch.</desc>
    <defs></defs>
    <g id="Page-1" stroke="none" stroke-width="1" fill="none" fill-rule="evenodd">
        <g id="idiomas_web" fill="#000000">
            <path d="M7.99982,2.7692 C5.11118,2.7692 2.76902,5.1092 2.76902,8 C2.76902,10.8872 5.11118,13.2308 7.99982,13.2308 C10.88882,13.2308 13.23098,10.8872 13.23098,8 C13.23098,5.1092 10.88882,2.7692 7.99982,2.7692 M8.00054,12.5108 C6.9065,12.5108 5.90318,12.122 5.12054,11.4704 C5.12054,11.4704 5.24222,11.4308 5.40674,11.258 C5.57198,11.0852 5.99174,10.862 6.09722,10.7252 C6.20198,10.592 6.14222,10.4408 6.16454,10.2392 C6.18722,10.034 6.16454,9.818 6.16454,9.818 C6.0443,9.8108 5.63174,9.602 5.63174,9.602 L5.62454,9.4724 C5.61698,9.3464 5.3693,9.134 5.24222,9.062 C5.11442,8.9864 4.4279,9.0116 4.2083,8.8064 C3.98834,8.5976 4.01174,8.2592 3.98222,7.9568 C3.95198,7.658 3.74174,7.6076 3.7043,7.4096 C3.6845,7.3052 3.74174,7.1648 3.74174,7.1648 C3.84866,6.7364 4.70906,5.678 4.70906,5.678 C4.76054,5.6132 4.53914,5.3072 4.46066,5.2064 C4.47002,5.1956 4.4765,5.1884 4.4765,5.1884 C5.3045,4.1552 6.57458,3.4856 8.00054,3.4856 C8.42714,3.4856 8.83862,3.5504 9.23102,3.662 C9.19322,3.7412 9.07622,3.8564 8.74034,3.9824 C8.55098,4.0508 8.47358,4.1192 8.4563,4.1804 C8.2349,4.292 8.0387,4.3028 7.97246,4.3028 C7.9703,4.4144 7.93142,4.508 7.8731,4.5908 C7.81586,4.5908 7.75178,4.5944 7.68914,4.6088 C7.5653,4.6412 7.55486,4.7528 7.56746,4.8356 C7.47458,4.886 7.38674,4.9184 7.33454,4.94 C7.43822,4.994 7.54334,5.0372 7.53254,5.2064 L7.0793,5.2064 L7.04906,5.4008 C7.04906,5.4008 6.97526,5.6168 7.18082,5.66 L7.18226,5.66 C7.23374,5.696 7.3205,5.714 7.46198,5.7068 C7.57322,5.516 7.66574,5.408 7.76582,5.3288 C7.89506,5.2964 8.05274,5.2784 8.15318,5.3468 C8.22986,5.4548 8.31302,5.5844 8.30366,5.5988 C8.28674,5.6276 8.14598,5.768 8.25866,5.7392 C8.37098,5.7068 8.46674,5.6384 8.46674,5.6384 C8.46674,5.6384 8.32598,5.4764 8.30294,5.3828 C8.2979,5.3612 8.29718,5.3396 8.2979,5.318 C8.32166,5.3072 8.35874,5.2928 8.39654,5.2784 C8.51066,5.4008 8.5985,5.5448 8.64602,5.642 C8.65646,5.7104 8.67086,5.7644 8.70866,5.7896 C8.75438,5.822 8.83646,5.7392 8.87786,5.696 C8.99882,5.822 9.23282,5.6816 9.38006,5.8364 C9.33542,5.894 9.13958,6.02 8.98622,6.146 L8.9855,6.1424 C8.9855,6.1424 8.80874,6.272 8.67446,6.3368 C8.67266,6.3404 8.6723,6.3404 8.6705,6.3404 C8.49194,6.3044 8.28242,6.3368 8.02538,6.488 C7.7237,6.2792 7.39718,6.2468 7.44866,5.9084 C6.87338,5.732 6.65486,6.272 6.29486,6.0056 C5.52554,6.8012 4.96214,8.1152 6.19874,8.504 C6.53822,8.612 6.99362,8.1656 7.44866,8.6012 C7.6751,9.4112 7.66034,10.646 8.12294,11.582 C9.42974,11.582 9.09962,10.3544 9.75698,9.8504 C9.72494,9.6272 9.64106,9.4544 9.56438,9.2744 C9.85454,8.828 10.37978,8.6156 10.5263,8.0252 C10.23218,7.9532 10.24298,8.1908 9.9485,8.1188 C9.58058,7.6148 9.3563,6.7292 8.88398,6.4268 C8.89874,6.4016 8.91818,6.3836 8.94698,6.3764 C9.22058,6.4088 9.45566,6.6716 9.8279,7.3196 C10.1969,7.262 10.44278,7.19 10.48058,6.8048 C10.3481,6.4196 9.85958,6.5204 10.01942,6.092 C10.10042,6.47 11.12174,6.2072 10.9781,6.6032 C11.06702,6.6068 11.06702,6.6068 11.16854,6.6248 C11.1725,6.938 11.0429,7.6688 11.4479,7.6004 C11.6279,7.6256 11.71178,6.6356 12.12938,6.4736 C12.24962,6.6572 12.32342,6.8408 12.40622,7.028 C12.47534,7.3412 12.51458,7.6652 12.51458,8 C12.51458,10.4876 10.48958,12.5108 8.00054,12.5108"></path>
        </g>
    </g>
</svg>