<?xml version="1.0" encoding="UTF-8" standalone="no"?>
<svg width="16px" height="16px" viewBox="0 0 16 16" version="1.1" xmlns="http://www.w3.org/2000/svg" xmlns:xlink="http://www.w3.org/1999/xlink">
    <!-- Generator: Sketch 3.7.1 (28215) - http://www.bohemiancoding.com/sketch -->
    <title>imprimir</title>
    <desc>Created with Sketch.</desc>
    <defs></defs>
    <g id="Page-1" stroke="none" stroke-width="1" fill="none" fill-rule="evenodd">
        <g id="imprimir" fill="#000000">
            <path d="M5.50002061,3.62502576 L10.4999794,3.62502576 L10.4999794,4.87501546 L11.1250052,4.87501546 L11.1250052,3.62502576 C11.1250052,3.2801868 10.8454985,3 10.4999794,3 L5.50002061,3 C5.15520226,3 4.87499485,3.2801868 4.87499485,3.62502576 L4.87499485,4.87501546 L5.50002061,4.87501546 L5.50002061,3.62502576 Z M12.3750567,5.50002061 L3.62502576,5.50002061 C3.28020741,5.50002061 3,5.78012498 3,6.12498454 L3,9.2499897 C3,9.59548816 3.2801868,9.87501546 3.62502576,9.87501546 L4.87501546,9.87501546 L4.87501546,12.3749948 C4.87501546,12.7204933 5.15520226,13 5.50004122,13 L10.5,13 C10.8455191,13 11.1250258,12.7204933 11.1250258,12.3749948 L11.1250258,9.87501546 L12.3750567,9.87501546 C12.7204521,9.87501546 12.9999794,9.59548816 12.9999794,9.2499897 L12.9999794,6.12498454 C12.9999794,5.78012498 12.7204315,5.50002061 12.3750567,5.50002061 Z M10.4999794,12.3749948 L5.50002061,12.3749948 L5.50002061,8 L10.4999794,8 L10.4999794,12.3749948 Z M11.7500103,7.37503607 C11.4045118,7.37503607 11.1250052,7.09548816 11.1250052,6.7500103 C11.1250052,6.40519196 11.4045118,6.12498454 11.7500103,6.12498454 C12.0955294,6.12498454 12.3750361,6.40517135 12.3750361,6.7500103 C12.3750567,7.09546755 12.0955294,7.37503607 11.7500103,7.37503607 Z M6.12498454,8.62496393 L8.62500515,8.62496393 L8.62500515,9.2499897 L6.12498454,9.2499897 L6.12498454,8.62496393 Z M6.12498454,9.87501546 L9.87505668,9.87501546 L9.87505668,10.4999176 L6.12498454,10.4999176 L6.12498454,9.87501546 Z M6.12498454,11.1250464 L9.87505668,11.1250464 L9.87505668,11.7499691 L6.12498454,11.7499691 L6.12498454,11.1250464 Z" id="Combined-Shape"></path>
        </g>
    </g>
</svg>