<?xml version="1.0" encoding="UTF-8" standalone="no"?>
<svg width="16px" height="16px" viewBox="0 0 16 16" version="1.1" xmlns="http://www.w3.org/2000/svg" xmlns:xlink="http://www.w3.org/1999/xlink">
    <!-- Generator: Sketch 3.6.1 (26313) - http://www.bohemiancoding.com/sketch -->
    <title>informacion_3</title>
    <desc>Created with Sketch.</desc>
    <defs></defs>
    <g id="Page-1" stroke="none" stroke-width="1" fill="none" fill-rule="evenodd">
        <g id="informacion_3" fill="#000000">
            <path d="M2.78234,12.0824 L3.58586,12.0824 C3.7295,11.3912 3.90914,10.1888 4.11866,9.5372 C4.5251,9.3284 6.01334,9.1484 6.72218,9.1484 C7.62398,9.1484 8.9963,9.3248 9.39806,9.5264 C9.55034,9.9764 9.67814,10.8332 9.79082,11.2868 L11.5397,9.5336 L11.4497,8.7164 L12.84218,8.3024 L13.20182,8.648 C12.50558,9.7388 10.92086,12.0824 10.92086,12.0824 L13.2029,12.0824 L13.2029,12.8636 L2.78234,12.8636 L2.78234,12.0824 L2.78234,12.0824 Z M7.88354,6.8912 C7.88354,7.7948 7.61174,8.378 6.71786,8.378 C5.82434,8.378 5.55182,7.7948 5.55182,6.8912 C5.55182,5.9912 5.82434,5.408 6.71786,5.408 C7.61174,5.408 7.88354,5.9912 7.88354,6.8912 L7.88354,6.8912 Z M10.57274,6.902 L11.3255,6.902 L11.3255,5.0228 L10.57274,5.0228 L10.57274,6.902 Z M10.51154,4.2416 C10.51154,4.5548 10.74014,4.6052 10.93526,4.6052 L10.96334,4.6052 C11.15882,4.6052 11.38634,4.5548 11.38634,4.2416 L11.38634,4.2272 C11.38634,3.9104 11.15882,3.8528 10.96334,3.8528 L10.93526,3.8528 C10.74014,3.8528 10.51154,3.9104 10.51154,4.2272 L10.51154,4.2416 L10.51154,4.2416 Z M8.68094,5.4044 C8.68094,4.1516 9.6965,3.1364 10.9493,3.1364 C12.2021,3.1364 13.21766,4.1516 13.21766,5.4044 C13.21766,6.6572 12.2021,7.6724 10.9493,7.6724 C9.6965,7.6724 8.68094,6.6572 8.68094,5.4044 L8.68094,5.4044 Z"></path>
        </g>
    </g>
</svg>