<?xml version="1.0" encoding="UTF-8" standalone="no"?>
<svg width="16px" height="16px" viewBox="0 0 16 16" version="1.1" xmlns="http://www.w3.org/2000/svg" xmlns:xlink="http://www.w3.org/1999/xlink">
    <!-- Generator: Sketch 3.6.1 (26313) - http://www.bohemiancoding.com/sketch -->
    <title>informacion_2</title>
    <desc>Created with Sketch.</desc>
    <defs></defs>
    <g id="Page-1" stroke="none" stroke-width="1" fill="none" fill-rule="evenodd">
        <g id="informacion_2" fill="#000000">
            <path d="M8.00018,2.7962 C5.12558,2.7962 2.79566,5.1254 2.79566,7.9982 C2.79566,10.8746 5.12558,13.2038 8.00018,13.2038 C10.8737,13.2038 13.20434,10.8746 13.20434,7.9982 C13.20434,5.1254 10.8737,2.7962 8.00018,2.7962 Z M7.29602,10.8026 L8.68022,10.8026 L8.68022,7.3466 L7.29602,7.3466 L7.29602,10.8026 Z M8.00018,11.9222 C5.83766,11.9222 4.07978,10.1618 4.07978,7.9982 C4.07978,5.8382 5.83766,4.0778 8.00018,4.0778 C10.16126,4.0778 11.92058,5.8382 11.92058,7.9982 C11.92058,10.1618 10.16126,11.9222 8.00018,11.9222 Z M7.96238,6.5798 L8.0135,6.5798 C8.37206,6.5798 8.79218,6.4862 8.79218,5.9102 L8.79218,5.8814 C8.79218,5.3018 8.37206,5.1974 8.0135,5.1974 L7.96238,5.1974 C7.60346,5.1974 7.18262,5.3018 7.18262,5.8814 L7.18262,5.9102 C7.18262,6.4862 7.60346,6.5798 7.96238,6.5798 Z"></path>
        </g>
    </g>
</svg>