<?xml version="1.0" encoding="UTF-8" standalone="no"?>
<svg width="16px" height="16px" viewBox="0 0 16 16" version="1.1" xmlns="http://www.w3.org/2000/svg" xmlns:xlink="http://www.w3.org/1999/xlink">
    <!-- Generator: Sketch 3.6.1 (26313) - http://www.bohemiancoding.com/sketch -->
    <title>informacion</title>
    <desc>Created with Sketch.</desc>
    <defs></defs>
    <g id="Page-1" stroke="none" stroke-width="1" fill="none" fill-rule="evenodd">
        <g id="informacion" fill="#000000">
            <path d="M7.28846,11.0312 L8.78246,11.0312 L8.78246,7.2908 L7.28846,7.2908 L7.28846,11.0312 Z M7.20062,5.768 C7.20062,6.4052 7.63694,6.5132 8.00846,6.5132 L8.06246,6.5132 C8.43434,6.5132 8.8703,6.4052 8.8703,5.768 L8.8703,5.7356 C8.8703,5.0876 8.43434,4.9724 8.06246,4.9724 L8.00846,4.9724 C7.63694,4.9724 7.20062,5.0876 7.20062,5.7356 L7.20062,5.768 L7.20062,5.768 Z M2.75066,8 C2.75066,5.102 5.1011,2.7512 7.99982,2.7512 C10.89926,2.7512 13.24934,5.102 13.24934,8 C13.24934,10.898 10.89926,13.2488 7.99982,13.2488 C5.1011,13.2488 2.75066,10.898 2.75066,8 L2.75066,8 Z"></path>
        </g>
    </g>
</svg>