<?xml version="1.0" encoding="UTF-8" standalone="no"?>
<svg width="16px" height="16px" viewBox="0 0 16 16" version="1.1" xmlns="http://www.w3.org/2000/svg" xmlns:xlink="http://www.w3.org/1999/xlink">
    <!-- Generator: Sketch 3.6.1 (26313) - http://www.bohemiancoding.com/sketch -->
    <title>informacion_de_vuelos</title>
    <desc>Created with Sketch.</desc>
    <defs></defs>
    <g id="Page-1" stroke="none" stroke-width="1" fill="none" fill-rule="evenodd">
        <g id="informacion_de_vuelos" fill="#000000">
            <path d="M7.11908,4.18292 L6.72704,4.18292 C6.3188,4.55264 6.173,6.07688 6.12116,7.47512 C5.88464,7.64792 3.22928,9.34676 2.08268,10.3724 L2.08268,11.46788 L6.18704,10.0808 C6.25328,10.77632 6.35156,11.4146 6.45164,12.09104 C6.3602,12.1418 6.04592,12.47948 5.11964,13.2938 L5.11964,13.9022 L6.94232,13.2938 C6.94268,13.29056 8.76428,13.9022 8.76428,13.9022 L8.76428,13.2938 C7.91324,12.5306 7.53704,12.14 7.44488,12.08816 C7.54496,11.40956 7.64396,10.772 7.71164,10.0808 L11.80124,11.46788 L11.80124,10.3724 C10.655,9.34676 8.018,7.65872 7.78868,7.4906 C7.75844,6.07688 7.60616,4.517 7.11908,4.18292 Z M11.35952,2.0978 C9.94652,2.0978 8.80208,3.24296 8.80208,4.65524 C8.80208,6.06788 9.94652,7.21304 11.35952,7.21304 C12.77216,7.21304 13.91732,6.06788 13.91732,4.65524 C13.91732,3.24296 12.77216,2.0978 11.35952,2.0978 Z M10.93472,6.34328 L11.78432,6.34328 L11.78432,4.22432 L10.93472,4.22432 L10.93472,6.34328 Z M11.85272,3.34412 C11.85272,3.69548 11.59532,3.7538 11.37536,3.7538 L11.34404,3.7538 C11.12372,3.7538 10.86596,3.69548 10.86596,3.34412 L10.86596,3.32648 C10.86596,2.96972 11.12372,2.90528 11.34404,2.90528 L11.37536,2.90528 C11.59532,2.90528 11.85272,2.96972 11.85272,3.32648 L11.85272,3.34412 Z"></path>
        </g>
    </g>
</svg>