<?xml version="1.0" encoding="UTF-8" standalone="no"?>
<svg width="16px" height="16px" viewBox="0 0 16 16" version="1.1" xmlns="http://www.w3.org/2000/svg" xmlns:xlink="http://www.w3.org/1999/xlink">
    <!-- Generator: Sketch 3.6.1 (26313) - http://www.bohemiancoding.com/sketch -->
    <title>innovacion_mejora_iberia</title>
    <desc>Created with Sketch.</desc>
    <defs></defs>
    <g id="Page-1" stroke="none" stroke-width="1" fill="none" fill-rule="evenodd">
        <g id="innovacion_mejora_iberia" fill="#000000">
            <path d="M10.9968034,3.2894 L11.0288434,3.2894 C11.4000034,3.2894 11.7783634,3.3038 12.1542034,3.3326 C12.2193634,3.3362 12.2841634,3.3434 12.3496834,3.3506 C12.5880034,3.1094 12.9271234,2.7962 13.0891234,2.7818 L13.1222434,2.7782 L13.2259234,2.8754 L13.2284434,2.9006 C13.2403234,3.0338 13.0905634,3.2606 12.7039234,3.6854 C12.7140034,3.7502 12.7233634,3.815 12.7320034,3.8762 C12.7838434,4.2506 12.8205634,4.6286 12.8407234,4.9994 L12.8421634,5.0318 L12.6214834,5.2658 L12.1660834,4.2218 C12.0620434,4.3118 11.9547634,4.4054 11.8496434,4.4954 L11.8593634,4.553 C11.8784434,4.6682 11.8935634,4.7906 11.9054434,4.9166 L11.9090434,4.949 L11.6790034,5.1938 L11.4018034,4.7186 L11.3913634,4.7114 L10.9028434,4.4594 L11.1325234,4.2182 L11.1656434,4.2182 C11.2934434,4.2254 11.4136834,4.2326 11.5303234,4.2434 C11.5504834,4.2434 11.5692034,4.247 11.5897234,4.2506 C11.6714434,4.139 11.7582034,4.0274 11.8446034,3.9158 L10.7757634,3.5234 L10.9968034,3.2894 L10.9968034,3.2894 Z M8.72520343,7.613 L10.3009234,7.613 C10.4290834,9.2942 10.4200834,9.9206 10.3009234,11.7314 L8.72520343,11.7314 C8.60568343,9.9206 8.59596343,9.2942 8.72520343,7.613 L8.72520343,7.613 Z M11.5850434,6.101 L13.1604034,6.101 C13.2889234,8.0126 13.2795634,9.6722 13.1604034,11.7314 L11.5850434,11.7314 C11.4648034,9.6722 11.4547234,8.0126 11.5850434,6.101 L11.5850434,6.101 Z M5.90028343,9.1394 L7.47564343,9.1394 C7.55412343,10.4354 7.55340343,10.6082 7.47564343,11.7314 L5.90028343,11.7314 C5.83152343,10.6082 5.80884343,10.4282 5.90028343,9.1394 L5.90028343,9.1394 Z M3.09012343,9.8954 L4.66512343,9.8954 C4.77024343,10.655 4.76520343,10.9826 4.66512343,11.7314 L3.09012343,11.7314 C2.96448343,10.9826 2.95944343,10.655 3.09012343,9.8954 L3.09012343,9.8954 Z M2.74668343,13.2218 L13.2532834,13.2218 L13.2532834,12.4442 L2.74668343,12.4442 L2.74668343,13.2218 Z M2.75280343,8.729 C2.75280343,8.5706 2.88276343,8.441 3.04224343,8.441 C3.20496343,8.441 3.33168343,8.5706 3.33168343,8.729 C3.33168343,8.891 3.20496343,9.0206 3.04224343,9.0206 C2.88276343,9.0206 2.75280343,8.891 2.75280343,8.729 L2.75280343,8.729 Z M3.66072343,8.7038 C3.63948343,8.5454 3.75540343,8.4014 3.91452343,8.3798 C4.07400343,8.3618 4.21476343,8.477 4.23672343,8.6354 C4.25472343,8.7938 4.14240343,8.9378 3.98328343,8.9558 C3.97248343,8.9594 3.95772343,8.9594 3.94692343,8.9594 C3.80256343,8.9594 3.67944343,8.8478 3.66072343,8.7038 L3.66072343,8.7038 Z M4.55856343,8.5814 C4.52616343,8.4266 4.62732343,8.2718 4.78320343,8.243 C4.94232343,8.2106 5.09424343,8.3114 5.12700343,8.4662 C5.15976343,8.6246 5.05464343,8.7758 4.89876343,8.8082 C4.88076343,8.8154 4.85916343,8.8154 4.84116343,8.8154 C4.70724343,8.8154 4.58412343,8.7182 4.55856343,8.5814 L4.55856343,8.5814 Z M5.44164343,8.3906 C5.39844343,8.2358 5.48916343,8.0738 5.64432343,8.0306 C5.79660343,7.9874 5.95572343,8.081 5.99928343,8.2322 C6.04248343,8.387 5.95572343,8.5454 5.80020343,8.5886 C5.77500343,8.5958 5.74584343,8.5994 5.72064343,8.5994 C5.59392343,8.5994 5.47800343,8.5166 5.44164343,8.3906 L5.44164343,8.3906 Z M6.31032343,8.1314 C6.25596343,7.9802 6.33228343,7.8146 6.48420343,7.7606 C6.63252343,7.7066 6.79884343,7.7822 6.85356343,7.9334 C6.90792343,8.081 6.83160343,8.2502 6.68328343,8.3042 C6.65088343,8.3186 6.61452343,8.3222 6.58176343,8.3222 C6.46584343,8.3222 6.35388343,8.2502 6.31032343,8.1314 L6.31032343,8.1314 Z M7.15740343,7.8074 C7.08828343,7.6634 7.15380343,7.487 7.29852343,7.4222 C7.44324343,7.3574 7.61712343,7.4186 7.68228343,7.5662 C7.75104343,7.7138 7.68588343,7.883 7.54116343,7.9514 C7.50120343,7.9658 7.46124343,7.9766 7.42164343,7.9766 C7.30932343,7.9766 7.20420343,7.9118 7.15740343,7.8074 L7.15740343,7.8074 Z M7.97172343,7.4186 C7.89576343,7.2782 7.94652343,7.1018 8.08404343,7.0262 C8.22516343,6.947 8.39904343,6.9974 8.47860343,7.1378 C8.55816343,7.2746 8.50740343,7.451 8.36592343,7.5338 C8.32272343,7.5554 8.27556343,7.5698 8.22516343,7.5698 C8.12400343,7.5698 8.02608343,7.5158 7.97172343,7.4186 L7.97172343,7.4186 Z M8.75688343,6.9686 C8.66652343,6.8354 8.70288343,6.6518 8.83716343,6.5654 C8.96676343,6.4754 9.14784343,6.5114 9.23856343,6.641 C9.32532343,6.7778 9.28932343,6.9578 9.15900343,7.0442 C9.10824343,7.0802 9.05388343,7.0946 8.99592343,7.0946 C8.90556343,7.0946 8.81160343,7.0514 8.75688343,6.9686 L8.75688343,6.9686 Z M9.49920343,6.4502 C9.40092343,6.3278 9.41964343,6.1406 9.54600343,6.0434 C9.66912343,5.9426 9.85056343,5.9642 9.95172343,6.0866 C10.0525234,6.2162 10.0309234,6.3962 9.90816343,6.497 C9.85380343,6.5366 9.78900343,6.5582 9.72744343,6.5582 C9.64032343,6.5582 9.55680343,6.5222 9.49920343,6.4502 L9.49920343,6.4502 Z M10.1976034,5.8742 C10.0888834,5.759 10.0928434,5.5754 10.2084034,5.4674 C10.3243234,5.3558 10.5090034,5.3594 10.6177234,5.4782 C10.7296834,5.5934 10.7224834,5.777 10.6065634,5.885 C10.5522034,5.939 10.4802034,5.9642 10.4074834,5.9642 C10.3318834,5.9642 10.2559234,5.9354 10.1976034,5.8742 L10.1976034,5.8742 Z"></path>
        </g>
    </g>
</svg>