<?xml version="1.0" encoding="UTF-8" standalone="no"?>
<svg width="16px" height="16px" viewBox="0 0 16 16" version="1.1" xmlns="http://www.w3.org/2000/svg" xmlns:xlink="http://www.w3.org/1999/xlink">
    <!-- Generator: Sketch 3.6.1 (26313) - http://www.bohemiancoding.com/sketch -->
    <title>instrumentos_musicales</title>
    <desc>Created with Sketch.</desc>
    <defs></defs>
    <g id="Page-1" stroke="none" stroke-width="1" fill="none" fill-rule="evenodd">
        <g id="instrumentos_musicales" fill="#000000">
            <path d="M9.51219993,5.15369639 L9.51196804,5.1535251 L9.49720804,5.1427251 L9.29956804,4.9987251 C9.74416804,4.0303251 10.063848,3.5299251 10.893648,2.8351251 L11.446968,3.2419251 L11.842968,3.5335251 L12.183168,3.7855251 C11.766288,4.7827251 11.380728,5.2363251 10.589088,5.9491251 L10.434288,5.8339251 L10.364808,5.7835251 L10.3626838,5.78195587 C10.159608,6.0571251 10.040448,6.2083251 9.68080804,6.6979251 C10.431408,7.5151251 10.667928,8.8723251 9.99472804,9.8083251 C9.81508804,10.0603251 9.63328804,10.0315251 9.35248804,10.4203251 C9.07168804,10.8127251 9.24916804,11.8423251 8.80960804,12.4543251 C7.85200804,13.7863251 5.85904804,13.9987251 4.52380804,13.0411251 C3.18892804,12.0835251 2.74936804,10.1287251 3.70660804,8.7931251 C4.14616804,8.1811251 5.15920804,8.0407251 5.45656804,7.6267251 C5.75356804,7.2127251 5.65168804,7.0723251 5.83096804,6.8239251 C6.48868804,5.9059251 7.80772804,5.6899251 8.80960804,6.0931251 L9.51219993,5.15369639 Z M12.794808,4.3291251 C12.818928,4.2967251 12.808128,4.2571251 12.771408,4.2427251 L12.315288,4.0483251 C12.277848,4.0339251 12.228888,4.0483251 12.203688,4.0771251 L12.094608,4.2283251 C12.070128,4.2607251 12.073368,4.3111251 12.100008,4.3435251 L12.422208,4.7179251 C12.448848,4.7503251 12.487728,4.7467251 12.512568,4.7143251 L12.794808,4.3291251 Z M9.93208804,2.8639251 L10.387848,3.0583251 C10.425288,3.0727251 10.474608,3.0583251 10.499088,3.0259251 L10.608888,2.8783251 C10.633368,2.8459251 10.630128,2.7919251 10.603128,2.7631251 L10.281648,2.3887251 C10.254288,2.3599251 10.215408,2.3599251 10.191288,2.3923251 L9.90868804,2.7811251 C9.88420804,2.8099251 9.89500804,2.8495251 9.93208804,2.8639251 Z M12.146808,5.2759251 L11.690688,5.0815251 C11.653608,5.0671251 11.604288,5.0815251 11.579448,5.1139251 L11.470008,5.2615251 C11.445528,5.2975251 11.448408,5.3479251 11.475408,5.3767251 L11.797608,5.7547251 C11.824248,5.7835251 11.863488,5.7835251 11.887968,5.7511251 L12.170208,5.3623251 C12.194328,5.3299251 12.183528,5.2903251 12.146808,5.2759251 Z M9.12352804,3.8143251 L9.57964804,4.0087251 C9.61672804,4.0231251 9.66640804,4.0087251 9.69088804,3.9763251 L9.80032804,3.8287251 C9.82480804,3.7927251 9.82192804,3.7423251 9.79492804,3.7135251 L9.47020804,3.3355251 C9.44356804,3.3067251 9.40432804,3.3067251 9.37984804,3.3427251 L9.09796804,3.7279251 C9.07600804,3.7603251 9.08428804,3.7999251 9.12352804,3.8143251 Z M9.51219993,5.15369639 L10.3626838,5.78195587 L9.51232804,5.1535251 L9.51219993,5.15369639 Z M6.85840804,11.7487251 C6.77848804,11.8603251 6.62368804,11.8855251 6.51244804,11.8063251 L5.05588804,10.7623251 C4.94428804,10.6831251 4.91908804,10.5283251 4.99900804,10.4167251 C5.07856804,10.3051251 5.23372804,10.2799251 5.34496804,10.3591251 L6.80116804,11.4031251 C6.91204804,11.4823251 6.93760804,11.6371251 6.85840804,11.7487251 Z M8.15044804,9.6859251 C7.83112804,10.1323251 7.21156804,10.2331251 6.76660804,9.9127251 C6.32200804,9.5959251 6.21940804,8.9767251 6.53872804,8.5303251 C6.85804804,8.0839251 7.47760804,7.9831251 7.92256804,8.3035251 C8.36716804,8.6203251 8.46940804,9.2395251 8.15044804,9.6859251 Z"></path>
        </g>
    </g>
</svg>