<?xml version="1.0" encoding="UTF-8" standalone="no"?>
<svg width="16px" height="16px" viewBox="0 0 16 16" version="1.1" xmlns="http://www.w3.org/2000/svg" xmlns:xlink="http://www.w3.org/1999/xlink">
    <!-- Generator: Sketch 3.6.1 (26313) - http://www.bohemiancoding.com/sketch -->
    <title>listin_telefonico</title>
    <desc>Created with Sketch.</desc>
    <defs></defs>
    <g id="Page-1" stroke="none" stroke-width="1" fill="none" fill-rule="evenodd">
        <g id="listin_telefonico" fill="#000000">
            <path d="M7.6157,7.64738 L9.90062,7.64738 L9.90062,6.86258 L7.6157,6.86258 L7.6157,7.64738 Z M5.81102,5.42258 C5.81102,5.10506 6.06878,4.84766 6.38666,4.84766 C6.70418,4.84766 6.96194,5.10506 6.96194,5.42258 C6.96194,5.74082 6.70418,5.99822 6.38666,5.99822 C6.06878,5.99822 5.81102,5.74082 5.81102,5.42258 L5.81102,5.42258 Z M7.6157,5.79518 L12.09626,5.79518 L12.09626,5.01074 L7.6157,5.01074 L7.6157,5.79518 Z M5.81102,7.2521 C5.81102,6.93422 6.06878,6.67682 6.38666,6.67682 C6.70418,6.67682 6.96194,6.93422 6.96194,7.2521 C6.96194,7.56962 6.70418,7.82738 6.38666,7.82738 C6.06878,7.82738 5.81102,7.56962 5.81102,7.2521 L5.81102,7.2521 Z M5.81102,9.08126 C5.81102,8.76338 6.06878,8.50598 6.38666,8.50598 C6.70418,8.50598 6.96194,8.76338 6.96194,9.08126 C6.96194,9.39914 6.70418,9.6569 6.38666,9.6569 C6.06878,9.6569 5.81102,9.39914 5.81102,9.08126 L5.81102,9.08126 Z M6.87194,12.6125 C7.17794,12.6125 7.42598,12.3641 7.42598,12.05846 C7.42598,11.7521 7.17794,11.50442 6.87194,11.50442 C6.5663,11.50442 6.3179,11.7521 6.3179,12.05846 C6.3179,12.3641 6.5663,12.6125 6.87194,12.6125 L6.87194,12.6125 Z M9.79586,10.93202 C9.74006,11.62862 9.66158,12.19562 9.5561,12.95162 C8.7155,13.1489 7.76366,13.21082 6.86186,13.21082 C5.96078,13.21082 5.0849,13.1057 4.24466,12.90842 C4.01966,11.3039 3.90374,9.66518 3.90374,8.00018 C3.90374,6.33446 4.01966,4.6961 4.24466,3.09086 C5.0849,2.89394 5.96078,2.78918 6.86186,2.78918 C7.76366,2.78918 8.79182,2.93714 9.63206,3.13442 C9.67634,3.44978 9.7145,3.89114 9.7487,4.28606 L4.88402,4.2749 C4.74938,5.52014 4.68098,6.74846 4.68098,8.00018 C4.68098,8.86886 4.7141,10.06298 4.77962,10.93202 L9.79586,10.93202 L9.79586,10.93202 Z M7.6157,9.49922 L11.34854,9.49922 L11.34854,8.71478 L7.6157,8.71478 L7.6157,9.49922 Z"></path>
        </g>
    </g>
</svg>