<?xml version="1.0" encoding="UTF-8" standalone="no"?>
<svg width="16px" height="16px" viewBox="0 0 16 16" version="1.1" xmlns="http://www.w3.org/2000/svg" xmlns:xlink="http://www.w3.org/1999/xlink">
    <!-- Generator: Sketch 3.6.1 (26313) - http://www.bohemiancoding.com/sketch -->
    <title>llegadas</title>
    <desc>Created with Sketch.</desc>
    <defs></defs>
    <g id="Page-1" stroke="none" stroke-width="1" fill="none" fill-rule="evenodd">
        <g id="llegadas" fill="#000000">
            <path d="M8.80334,9.38762 C8.80334,9.57122 8.95238,9.7199 9.13562,9.7199 C9.31994,9.7199 9.46898,9.57122 9.46898,9.38762 C9.46898,9.2033 9.31994,9.05498 9.13562,9.05498 C8.95238,9.05498 8.80334,9.2033 8.80334,9.38762 L8.80334,9.38762 Z M11.34638,8.92574 L11.37266,8.75942 C11.14298,8.41634 10.8305,8.13374 10.4111,8.03438 C10.18934,7.98218 9.0575,7.77626 8.99954,7.76006 C8.9531,7.77158 8.64674,7.2107 8.08154,6.37118 C7.53758,5.5637 7.04942,4.9877 7.04942,4.9877 L6.61706,4.98986 L7.29962,7.51346 C6.90722,7.45262 6.51626,7.41662 6.16094,7.36694 C5.77394,6.94538 5.44454,6.6077 4.99634,6.20306 L4.58414,6.14978 C4.70006,6.4961 5.07266,7.7111 5.07266,7.7111 C5.07266,7.7111 7.13474,8.46314 7.39286,8.50382 L10.45322,8.98838 C10.88918,9.03518 11.23226,8.99162 11.34638,8.92574 L11.34638,8.92574 Z M4.23278,11.01302 L11.78702,11.01302 L11.78702,10.24406 L4.23278,10.24406 L4.23278,11.01302 Z M7.83458,9.24254 C7.83458,9.42542 7.9829,9.57482 8.16722,9.57482 C8.35118,9.57482 8.49986,9.42542 8.49986,9.24254 C8.49986,9.05858 8.35118,8.90918 8.16722,8.90918 C7.9829,8.90918 7.83458,9.05858 7.83458,9.24254 L7.83458,9.24254 Z M13.03118,3.80762 C13.16726,5.18966 13.2389,6.58754 13.2389,7.99982 C13.2389,9.41174 13.16726,10.80998 13.03118,12.19202 C11.3795,12.39506 9.70082,12.50054 7.99946,12.50054 C6.29846,12.50054 4.62014,12.39506 2.96882,12.19238 C2.83274,10.80998 2.7611,9.4121 2.7611,7.99982 C2.7611,6.58718 2.83274,5.18966 2.96882,3.80726 C4.62014,3.60458 6.29846,3.49946 7.99946,3.49946 C9.70082,3.49946 11.3795,3.60458 13.03118,3.80762 L13.03118,3.80762 Z"></path>
        </g>
    </g>
</svg>