<?xml version="1.0" encoding="UTF-8" standalone="no"?>
<svg width="16px" height="16px" viewBox="0 0 16 16" version="1.1" xmlns="http://www.w3.org/2000/svg" xmlns:xlink="http://www.w3.org/1999/xlink">
    <!-- Generator: Sketch 3.6.1 (26313) - http://www.bohemiancoding.com/sketch -->
    <title>llevar_gafas</title>
    <desc>Created with Sketch.</desc>
    <defs></defs>
    <g id="Page-1" stroke="none" stroke-width="1" fill="none" fill-rule="evenodd">
        <g id="llevar_gafas" fill="#000000">
            <path d="M11.87702,7.2638 L9.7127,5.6618 L8.78786,5.6618 L8.78786,5.1902 C9.03698,5.1038 9.40742,5.0318 9.7775,4.985 C11.35934,5.8382 11.97062,6.2702 13.23422,7.2602 C13.2263,7.2602 12.77306,10.1258 12.56354,10.7414 C12.10274,10.9034 11.43602,10.9934 10.70846,11.015 C9.94058,11.015 8.8595,10.7414 8.8595,10.7414 C8.8595,10.7414 8.56322,9.7334 8.44262,9.0134 L8.43578,8.9738 C8.39294,8.7686 8.21078,8.6174 7.99262,8.6174 C7.76042,8.6174 7.56926,8.7902 7.54262,9.0134 C7.42166,9.7334 7.12646,10.7414 7.12646,10.7414 C7.12646,10.7414 6.0317,11.015 5.27678,11.015 C4.54886,10.9934 3.8825,10.9034 3.42242,10.7414 C3.21254,10.1258 2.76578,7.2386 2.76578,7.2386 C4.0283,6.2486 4.62698,5.8382 6.2081,4.985 C6.5789,5.0318 6.96626,5.1038 7.21502,5.1902 L7.21502,5.6618 L6.27362,5.6618 L4.10822,7.2674 C6.7193,7.2098 9.30914,7.2098 11.87702,7.2638 M11.87774,10.1402 C12.00266,9.7046 12.1445,8.8514 12.23702,8.063 L9.16586,8.063 C9.25946,8.8514 9.37898,9.7262 9.52514,10.1402 C9.79514,10.2302 10.25234,10.2518 10.67894,10.2626 C11.10302,10.2518 11.60774,10.2302 11.87774,10.1402 M6.46766,10.1402 C6.59222,9.7046 6.73406,8.8514 6.82766,8.063 L3.75578,8.063 C3.84902,8.8514 3.9689,9.7262 4.11542,10.1402 C4.38542,10.2302 4.84154,10.2518 5.26886,10.2626 C5.69294,10.2518 6.19766,10.2302 6.46766,10.1402"></path>
        </g>
    </g>
</svg>