<?xml version="1.0" encoding="UTF-8" standalone="no"?>
<svg width="16px" height="16px" viewBox="0 0 16 16" version="1.1" xmlns="http://www.w3.org/2000/svg" xmlns:xlink="http://www.w3.org/1999/xlink">
    <!-- Generator: Sketch 3.6.1 (26313) - http://www.bohemiancoding.com/sketch -->
    <title>llevar_tacon_alto</title>
    <desc>Created with Sketch.</desc>
    <defs></defs>
    <g id="Page-1" stroke="none" stroke-width="1" fill="none" fill-rule="evenodd">
        <g id="llevar_tacon_alto" fill="#000000">
            <path d="M10.5645161,5.13526193 L6.70963608,8.72086193 L7.64707608,8.72086193 L11.5141961,5.13526193 L10.5645161,5.13526193 L10.5645161,5.13526193 Z M12.8238761,8.70286193 C12.6197561,9.35806193 11.7564761,11.4460619 11.7564761,11.4460619 L11.0429561,11.4460619 L11.0429561,8.47246193 C9.58783608,8.55886193 8.15863608,9.99526193 8.04703608,11.4316619 L2.73235608,11.4316619 C2.73235608,10.4236619 3.81559608,9.45886193 4.93699608,9.04486193 C5.64151608,8.78926193 5.74591608,8.78206193 5.74591608,8.78206193 L10.1645561,4.73926193 C10.1645561,4.73926193 11.2099961,4.40446193 12.1189961,4.63486193 C13.5543161,5.00206193 13.4650361,6.64366193 12.8238761,8.70286193 L12.8238761,8.70286193 Z"></path>
        </g>
    </g>
</svg>