<?xml version="1.0" encoding="UTF-8" standalone="no"?>
<svg width="16px" height="16px" viewBox="0 0 16 16" version="1.1" xmlns="http://www.w3.org/2000/svg" xmlns:xlink="http://www.w3.org/1999/xlink">
    <!-- Generator: Sketch 3.6.1 (26313) - http://www.bohemiancoding.com/sketch -->
    <title>login</title>
    <desc>Created with Sketch.</desc>
    <defs></defs>
    <g id="Page-1" stroke="none" stroke-width="1" fill="none" fill-rule="evenodd">
        <g id="login" fill="#000000">
            <path d="M7.30844,2.78324 L8.69228,2.78324 C8.83232,5.12324 8.82188,6.92648 8.69228,9.45008 L7.30844,9.45008 C7.17812,6.92648 7.16732,5.12324 7.30844,2.78324 M10.23092,4.01048 C10.22552,4.54436 10.2122,5.09336 10.19132,5.69924 C10.9502,6.3296 11.43512,7.27964 11.43512,8.34128 C11.43512,10.2356 9.89432,11.77676 8,11.77676 C6.10604,11.77676 4.56488,10.2356 4.56488,8.34128 C4.56488,7.27964 5.0498,6.3296 5.80868,5.69924 C5.78744,5.09336 5.77412,4.54436 5.76908,4.01084 C4.19948,4.82084 3.12488,6.45416 3.12488,8.34128 C3.12488,11.03408 5.30756,13.21676 8,13.21676 C10.69208,13.21676 12.87512,11.03408 12.87512,8.34128 C12.87512,6.45416 11.80016,4.82048 10.23092,4.01048"></path>
        </g>
    </g>
</svg>