<?xml version="1.0" encoding="UTF-8" standalone="no"?>
<svg width="90px" height="21px" viewBox="0 0 90 21" version="1.1" xmlns="http://www.w3.org/2000/svg" xmlns:xlink="http://www.w3.org/1999/xlink">
    <!-- Generator: Sketch 3.6.1 (26313) - http://www.bohemiancoding.com/sketch -->
    <title>logo_iberia</title>
    <desc>Created with Sketch.</desc>
    <defs></defs>
    <g id="Page-1" stroke="none" stroke-width="1" fill="none" fill-rule="evenodd">
        <g id="logo_iberia" fill="#000000">
            <path d="M55.5130791,2.63578041 C54.7219075,3.81202999 53.852855,5.28187839 52.8978862,7.16461943 L52.8978862,7.16461943 C51.9348821,9.05972254 51.0664477,11.0018015 50.5280802,12.4790671 L50.5280802,12.4790671 L53.7403603,12.4790671 C53.936917,11.8634367 54.1761228,11.2403891 54.4295449,10.6556639 L54.4295449,10.6556639 L59.7075245,10.6556639 C59.9628009,11.2379167 60.1890265,11.8244962 60.3985634,12.4790671 L60.3985634,12.4790671 L63.6114616,12.4790671 C63.0397165,10.9987109 62.2083683,9.06961218 61.2478366,7.17636339 L61.2478366,7.17636339 C60.2903954,5.29114993 59.4324687,3.8145024 58.6258446,2.63578041 L58.6258446,2.63578041 L55.5130791,2.63578041 L55.5130791,2.63578041 Z M57.0663713,4.96170115 C57.7289775,6.14845847 58.3235924,7.35190458 58.9855804,8.83349692 L58.9855804,8.83349692 L55.152107,8.83349692 C55.7980244,7.38095541 56.3932574,6.17812741 57.0663713,4.96170115 L57.0663713,4.96170115 Z M32.4856602,2.63578041 C32.3286621,4.14580549 32.2483087,5.94386646 32.2483087,7.55649659 L32.2483087,7.55649659 C32.2483087,9.15676468 32.328044,10.7669224 32.4875145,12.4790671 L32.4875145,12.4790671 L35.5322888,12.4790671 C35.401251,11.2051573 35.3369683,10.1135878 35.2937011,8.82484349 L35.2937011,8.82484349 L38.3576366,8.82484349 C38.5807717,9.07146649 38.9466885,9.5406065 39.3311484,10.1482015 L39.3311484,10.1482015 C39.7786548,10.8516025 40.1241743,11.5444957 40.5086342,12.4790671 L40.5086342,12.4790671 L43.9125262,12.4790671 C43.4656379,11.6267034 42.9816634,10.8571654 42.2541565,9.8311148 L42.2541565,9.8311148 C41.8381733,9.24577147 41.4450599,8.76983234 41.084706,8.41318704 L41.084706,8.41318704 C42.3617063,7.96444442 43.1516417,6.88647319 43.1516417,5.57609531 L43.1516417,5.57609531 C43.1516417,4.82695474 42.882767,4.11799086 42.4154813,3.62845346 L42.4154813,3.62845346 C41.7510208,2.94174128 40.7194073,2.63578041 39.0678367,2.63578041 L39.0678367,2.63578041 L32.4856602,2.63578041 L32.4856602,2.63578041 Z M35.3851803,4.47958098 L38.0634196,4.47958098 C39.0492936,4.47958098 39.5289413,4.60011103 39.8355203,4.92646929 L39.8355203,4.92646929 C40.0178606,5.10942771 40.1266467,5.40179032 40.1266467,5.7096055 L40.1266467,5.7096055 C40.1266467,6.24055579 39.8528272,6.7103139 39.3725613,7.00453082 L39.3725613,7.00453082 L35.2918468,7.00453082 C35.2937011,6.27702385 35.3246063,5.44814803 35.3851803,4.47958098 L35.3851803,4.47958098 Z M20.3158347,2.63578041 C20.1705805,4.19587181 20.0766289,5.96117333 20.0766289,7.56267762 L20.0766289,7.56267762 C20.0766289,9.15676468 20.1829426,10.9072317 20.3164528,12.4803033 L20.3164528,12.4803033 L29.7097607,12.4803033 C29.6609305,11.8238781 29.6226082,11.2249366 29.5879944,10.5172089 L29.5879944,10.5172089 L23.1937212,10.5172089 C23.144273,9.77981227 23.1214032,9.10051732 23.120167,8.43791115 L23.120167,8.43791115 L29.0187218,8.43791115 L29.0187218,6.58113042 L23.120167,6.58113042 C23.120167,6.04152669 23.1387101,5.25282755 23.1931031,4.59825672 L23.1931031,4.59825672 L29.5799591,4.59825672 C29.6114823,3.90783592 29.6498047,3.32805552 29.7122331,2.63578041 L29.7122331,2.63578041 L20.3158347,2.63578041 L20.3158347,2.63578041 Z M6.90980363,2.63578041 C6.75342363,4.10624691 6.67121596,5.95931903 6.67121596,7.55649659 L6.67121596,7.55649659 C6.67121596,9.15676468 6.74415209,10.7230371 6.90980363,12.4790671 L6.90980363,12.4790671 L12.7144068,12.4790671 C14.7683623,12.4790671 16.0330006,12.2410975 16.8179911,11.7045843 L16.8179911,11.7045843 C17.4231137,11.2892192 17.797684,10.464052 17.797684,9.54987804 L17.797684,9.54987804 C17.797684,8.47437921 17.1832898,7.61521636 16.1053186,7.17574528 L16.1053186,7.17574528 C16.8223178,6.77274228 17.2784777,5.99702329 17.2784777,5.15825783 L17.2784777,5.15825783 C17.2784777,4.38130264 17.0541064,3.84293513 16.5503526,3.41520801 L16.5503526,3.41520801 C15.7041699,2.69511828 14.1527319,2.63578041 12.5030156,2.63578041 L12.5030156,2.63578041 L6.90980363,2.63578041 L6.90980363,2.63578041 Z M9.80746944,4.49812407 L12.3831037,4.49812407 C13.4239888,4.49812407 13.7707444,4.57724122 14.06867,4.87702107 L14.06867,4.87702107 C14.2213413,5.03154676 14.3122025,5.30289388 14.3122025,5.60452803 L14.3122025,5.60452803 C14.3122025,6.0211293 14.1446966,6.37962891 13.8387357,6.61574417 L13.8387357,6.61574417 L9.71660833,6.61574417 C9.72649798,5.87958377 9.75616691,5.19472589 9.80746944,4.49812407 L9.80746944,4.49812407 Z M9.71413592,8.39897067 L13.4215164,8.39897067 C13.9580296,8.39897067 14.231231,8.4719068 14.471673,8.67649882 L14.471673,8.67649882 C14.6966624,8.86872878 14.8011217,9.10669835 14.8011217,9.429348 L14.8011217,9.429348 C14.8011217,9.76806832 14.7028434,10.0319982 14.5013419,10.2322635 L14.5013419,10.2322635 C14.2126879,10.5029925 13.8059763,10.6185777 13.0957762,10.6185777 L13.0957762,10.6185777 L9.80746944,10.6185777 C9.74256865,9.83544152 9.71722643,9.04612428 9.71413592,8.39897067 L9.71413592,8.39897067 Z M46.1438772,2.63639851 C45.9881153,4.04505473 45.8997266,5.90183547 45.9034352,7.64117667 L45.9034352,7.64117667 C45.9071438,9.30819985 45.9732808,10.9115585 46.1438772,12.4790671 L46.1438772,12.4790671 L48.764633,12.4790671 C48.9420285,10.9195938 49.0001301,9.31190847 49.0044568,7.64055857 L49.0044568,7.64055857 C49.0094017,5.90492598 48.9098871,4.03207458 48.7671054,2.63639851 L48.7671054,2.63639851 L46.1438772,2.63639851 L46.1438772,2.63639851 Z M0.686744907,2.63639851 C0.530983008,4.04505473 0.443212414,5.90183547 0.446921031,7.64117667 C0.450629647,9.30819985 0.516148541,10.9115585 0.686744907,12.4790671 L3.30935498,12.4790671 C3.48551427,10.9195938 3.54361593,9.31190847 3.54856075,7.64055857 C3.55288747,5.90492598 3.45399103,4.03207458 3.31059118,2.63639851 L0.686744907,2.63639851 L0.686744907,2.63639851 Z M68.2429057,15.6907291 L63.6151702,20.3617318 L63.6151702,20.3623499 C79.6790432,20.3623499 83.4661589,16.5857419 85.6758763,11.4449811 L87.5314209,6.60585453 C82.119313,6.76161643 73.952321,9.95164484 68.2429057,15.6907291 Z M79.0331258,4.76514447 L73.826228,10.0394154 C78.769814,6.488415 83.6998018,4.34607079 88.6112464,3.7928688 L89.8085115,0.670213589 C82.5377685,0.670213589 81.5475679,2.25997392 79.0331258,4.76514447 Z" id="Combined-Shape"></path>
        </g>
    </g>
</svg>