<?xml version="1.0" encoding="UTF-8" standalone="no"?>
<svg width="16px" height="16px" viewBox="0 0 16 16" version="1.1" xmlns="http://www.w3.org/2000/svg" xmlns:xlink="http://www.w3.org/1999/xlink">
    <!-- Generator: Sketch 3.6.1 (26313) - http://www.bohemiancoding.com/sketch -->
    <title>logo_aplic_peque</title>
    <desc>Created with Sketch.</desc>
    <defs></defs>
    <g id="Page-1" stroke="none" stroke-width="1" fill="none" fill-rule="evenodd">
        <g id="logo_aplic_peque" fill="#000000">
            <path d="M13.6476001,2.30228 L2.35800007,2.30228 C2.16036007,4.13432 2.07468007,6.13232 2.07828007,8.099 C2.08116007,10.06856 2.17908007,12.0032 2.35800007,13.69772 L13.6447201,13.69772 C13.8193201,12.0032 13.9165201,10.06856 13.9215601,8.09684 C13.9273201,6.13232 13.8405601,4.13432 13.6476001,2.30228 L13.6476001,2.30228 Z M10.1876401,8.34056 C9.63000007,9.63908 8.67384007,10.592 4.61772007,10.592 L5.78592007,9.41264 C7.22736007,7.96364 9.28980007,7.15868 10.6560001,7.11872 L10.1876401,8.34056 L10.1876401,8.34056 Z M10.9288801,6.40808 C9.68868007,6.54776 8.44380007,7.08956 7.19568007,7.98596 L8.51004007,6.65432 C9.14580007,6.02108 9.39528007,5.61968 11.2312801,5.61968 L10.9288801,6.40808 L10.9288801,6.40808 Z"></path>
        </g>
    </g>
</svg>