<?xml version="1.0" encoding="UTF-8" standalone="no"?>
<svg width="16px" height="16px" viewBox="0 0 16 16" version="1.1" xmlns="http://www.w3.org/2000/svg" xmlns:xlink="http://www.w3.org/1999/xlink">
    <!-- Generator: Sketch 3.6.1 (26313) - http://www.bohemiancoding.com/sketch -->
    <title>mal</title>
    <desc>Created with Sketch.</desc>
    <defs></defs>
    <g id="Page-1" stroke="none" stroke-width="1" fill="none" fill-rule="evenodd">
        <g id="mal" fill="#000000">
            <path d="M10.23956,10.5596 C8.80028,10.2644 7.30592,10.2644 5.76008,10.5596 L5.76008,9.8612 C6.16112,9.1448 6.866,8.7452 8.00036,8.7452 C9.13436,8.7452 9.83924,9.1448 10.23956,9.8504 L10.23956,10.5596 L10.23956,10.5596 Z M8,3.4928 C5.51528,3.4928 3.49388,5.516 3.49388,8 C3.49388,10.484 5.51528,12.5072 8,12.5072 C10.48508,12.5072 12.50612,10.484 12.50612,8 C12.50612,5.516 10.48508,3.4928 8,3.4928 L8,3.4928 Z M8,2.7728 C10.88648,2.7728 13.22612,5.1128 13.22612,8 C13.22612,10.8872 10.88648,13.2272 8,13.2272 C5.11388,13.2272 2.77388,10.8872 2.77388,8 C2.77388,5.1128 5.11388,2.7728 8,2.7728 L8,2.7728 Z M6.52724,5.7608 C6.1118,5.7608 5.77556,6.0992 5.77556,6.5132 C5.77556,6.9308 6.1118,7.2656 6.52724,7.2656 C6.94232,7.2656 7.27892,6.9308 7.27892,6.5132 C7.27892,6.0992 6.94232,5.7608 6.52724,5.7608 L6.52724,5.7608 Z M9.48752,5.7608 C9.07244,5.7608 8.73548,6.0992 8.73548,6.5132 C8.73548,6.9308 9.07244,7.2656 9.48752,7.2656 C9.90296,7.2656 10.23956,6.9308 10.23956,6.5132 C10.23956,6.0992 9.90296,5.7608 9.48752,5.7608 L9.48752,5.7608 Z"></path>
        </g>
    </g>
</svg>