<?xml version="1.0" encoding="UTF-8" standalone="no"?>
<svg width="16px" height="16px" viewBox="0 0 16 16" version="1.1" xmlns="http://www.w3.org/2000/svg" xmlns:xlink="http://www.w3.org/1999/xlink">
    <!-- Generator: Sketch 3.6.1 (26313) - http://www.bohemiancoding.com/sketch -->
    <title>mantenimiento</title>
    <desc>Created with Sketch.</desc>
    <defs></defs>
    <g id="Page-1" stroke="none" stroke-width="1" fill="none" fill-rule="evenodd">
        <g id="mantenimiento" fill="#000000">
            <path d="M13.2461,4.6016 C13.00022,8.1116 10.5641,7.568 9.87974,7.3448 C8.0909,9.3248 6.04538,11.3444 3.93578,13.2452 L2.91518,12.2228 L2.7539,12.0644 C4.65542,9.9548 6.67322,7.91 8.65214,6.1208 C8.43038,5.444 7.8803,2.9996 11.39714,2.7512 L10.40714,4.3496 L11.64842,5.5916 L13.2461,4.6016 L13.2461,4.6016 Z M9.8873,8.6732 L9.72062,8.8388 L9.55106,9.008 L9.17882,8.6372 C9.01574,8.81 8.84834,8.9828 8.6813,9.1556 L9.04166,9.5156 L8.83718,9.7208 L8.67122,9.8864 C10.60262,12.068 9.70046,11.1464 12.0311,13.2488 L13.08014,12.1976 L13.2461,12.032 C11.14442,9.7028 12.0653,10.6064 9.8873,8.6732 L9.8873,8.6732 Z M4.0409,4.7276 L4.1471,4.6232 L6.8417,7.316 C7.01558,7.1504 7.18982,6.9812 7.36226,6.8192 L4.65578,4.1156 L4.76234,4.0076 L4.74182,3.6836 L3.57182,2.8196 L2.8511,3.5396 L3.71762,4.7096 L4.0409,4.7276 L4.0409,4.7276 Z"></path>
        </g>
    </g>
</svg>