<?xml version="1.0" encoding="UTF-8" standalone="no"?>
<svg width="16px" height="16px" viewBox="0 0 16 16" version="1.1" xmlns="http://www.w3.org/2000/svg" xmlns:xlink="http://www.w3.org/1999/xlink">
    <!-- Generator: Sketch 3.6.1 (26313) - http://www.bohemiancoding.com/sketch -->
    <title>mas</title>
    <desc>Created with Sketch.</desc>
    <defs></defs>
    <g id="Page-1" stroke="none" stroke-width="1" fill="none" fill-rule="evenodd">
        <g id="mas" fill="#000000">
            <path d="M8.87889676,3.7592 C8.56677676,3.7232 7.30893676,3.7232 6.99573676,3.7592 C6.88665676,4.7564 6.81537676,5.768 6.78225676,6.7832 C5.76705676,6.8156 4.75761676,6.8876 3.75717676,6.9956 C3.72477676,7.3088 3.72405676,8.5688 3.76005676,8.8784 C4.75689676,8.9864 5.76489676,9.062 6.77901676,9.0944 C6.81105676,10.1528 6.88197676,11.2004 6.99609676,12.2408 C7.30713676,12.2768 8.56785676,12.2768 8.87889676,12.2408 C8.99193676,11.204 9.06537676,10.1528 9.09561676,9.0944 C10.1522168,9.0656 11.2016168,8.9936 12.2412968,8.8784 C12.2751368,8.5688 12.2758568,7.3088 12.2420168,6.9956 C11.2001768,6.8804 10.1529368,6.812 9.09237676,6.7796 C9.06069676,5.7644 8.98761676,4.7564 8.87889676,3.7592"></path>
        </g>
    </g>
</svg>