<?xml version="1.0" encoding="UTF-8" standalone="no"?>
<svg width="16px" height="16px" viewBox="0 0 16 16" version="1.1" xmlns="http://www.w3.org/2000/svg" xmlns:xlink="http://www.w3.org/1999/xlink">
    <!-- Generator: Sketch 3.6.1 (26313) - http://www.bohemiancoding.com/sketch -->
    <title>mas_servicios</title>
    <desc>Created with Sketch.</desc>
    <defs></defs>
    <g id="Page-1" stroke="none" stroke-width="1" fill="none" fill-rule="evenodd">
        <g id="mas_servicios" fill="#000000">
            <path d="M8.50112,4.958 L7.49888,4.958 L7.49888,6.3872 L6.07076,6.3872 L6.07076,7.388 L7.49888,7.388 L7.49888,8.8172 L8.50112,8.8172 L8.50112,7.388 L9.92888,7.388 L9.92888,6.3872 L8.50112,6.3872 L8.50112,4.958 L8.50112,4.958 Z M12.26636,3.3992 C12.38156,4.5512 12.4424,5.714 12.4424,6.8876 C12.4424,8.0648 12.38156,9.2276 12.26636,10.376 C11.42828,10.4768 10.58192,10.5524 9.728,10.592 L6.20864,12.8564 L6.20864,10.5884 C5.37632,10.5488 4.5512,10.4768 3.73328,10.376 C3.61736,9.2276 3.5576,8.0648 3.5576,6.8876 C3.5576,5.714 3.61736,4.5512 3.73328,3.3992 C5.13368,3.23 6.55712,3.1436 7.99928,3.1436 C9.4418,3.1436 10.8656,3.23 12.26636,3.3992 L12.26636,3.3992 Z"></path>
        </g>
    </g>
</svg>