<?xml version="1.0" encoding="UTF-8" standalone="no"?>
<svg width="16px" height="16px" viewBox="0 0 16 16" version="1.1" xmlns="http://www.w3.org/2000/svg" xmlns:xlink="http://www.w3.org/1999/xlink">
    <!-- Generator: Sketch 3.6.1 (26313) - http://www.bohemiancoding.com/sketch -->
    <title>mas_2</title>
    <desc>Created with Sketch.</desc>
    <defs></defs>
    <g id="Page-1" stroke="none" stroke-width="1" fill="none" fill-rule="evenodd">
        <g id="mas_2" fill="#000000">
            <path d="M7.99928,2.0366 C4.706,2.0366 2.0366,4.7078 2.0366,7.9982 C2.0366,11.2958 4.706,13.9634 7.99928,13.9634 C11.29364,13.9634 13.9634,11.2958 13.9634,7.9982 C13.9634,4.7078 11.29364,2.0366 7.99928,2.0366 Z M8.77544,7.2242 C8.75456,6.5762 8.7092,5.9354 8.63972,5.2982 C8.44064,5.2766 7.6382,5.2766 7.44056,5.2982 C7.37072,5.9354 7.32464,6.5762 7.30376,7.2206 C6.62948,7.2422 5.96132,7.289 5.29748,7.361 C5.27588,7.559 5.27588,8.3618 5.29748,8.5598 C5.95952,8.6318 6.62768,8.6786 7.3016,8.7002 C7.32032,9.3698 7.36784,10.0394 7.43984,10.7018 C7.6382,10.7234 8.44064,10.7234 8.63972,10.7018 C8.71208,10.0394 8.7596,9.3698 8.77724,8.6966 C9.42488,8.675 10.06568,8.6282 10.70216,8.5598 C10.72376,8.3618 10.72448,7.559 10.70216,7.361 C10.06496,7.2926 9.42308,7.2458 8.77544,7.2242 Z M7.99928,12.4946 C5.52284,12.4946 3.5072,10.4786 3.5072,7.9982 C3.5072,5.5214 5.52284,3.509 7.99928,3.509 C10.47716,3.509 12.49244,5.5214 12.49244,7.9982 C12.49244,10.4786 10.47716,12.4946 7.99928,12.4946 Z"></path>
        </g>
    </g>
</svg>