<?xml version="1.0" encoding="UTF-8" standalone="no"?>
<svg width="16px" height="16px" viewBox="0 0 16 16" version="1.1" xmlns="http://www.w3.org/2000/svg" xmlns:xlink="http://www.w3.org/1999/xlink">
    <!-- Generator: Sketch 3.6.1 (26313) - http://www.bohemiancoding.com/sketch -->
    <title>mascotas_domesticas</title>
    <desc>Created with Sketch.</desc>
    <defs></defs>
    <g id="Page-1" stroke="none" stroke-width="1" fill="none" fill-rule="evenodd">
        <g id="mascotas_domesticas" fill="#000000">
            <path d="M12.05558,4.76777018 L11.35322,4.14497018 L11.35322,3.45377018 C11.35322,3.38897018 11.31182,3.33137018 11.2499,3.30977018 C11.18798,3.28817018 11.11922,3.30977018 11.07926,3.36017018 L9.02978,5.97377018 C7.61498,6.73337018 6.36614,7.02857018 4.67882,7.17617018 C4.38542,6.92777018 4.1993,6.56057018 4.1993,6.14657018 C4.1993,5.84777018 4.29722,5.55977018 4.47326,5.32937018 C4.5809,5.18537018 4.5755,4.99097018 4.4603,4.85417018 L4.45346,4.84697018 C4.3793,4.76057018 4.26914,4.71017018 4.15394,4.71377018 C4.0391,4.71737018 3.93218,4.77137018 3.8627,4.86497018 C3.58514,5.22857018 3.43142,5.67857018 3.43142,6.14657018 C3.43142,6.74777018 3.68522,7.29497018 4.09166,7.68017018 L3.52934,8.38937018 C3.58514,9.15257018 3.5171,9.79337018 2.76074,10.7725702 L2.76074,12.6697702 L3.0131,12.6697702 C3.28526,12.6697702 3.52502,12.4861702 3.59882,12.2269702 L3.94118,11.0137702 C4.58558,10.6141702 5.18354,10.0273702 5.53238,9.22817018 C6.78086,9.57377018 7.2755,9.78977018 8.47826,9.68177018 L8.76734,12.6985702 L8.9819,12.6985702 C9.28898,12.6985702 9.5489,12.4681702 9.58634,12.1621702 L9.93374,9.31457018 L9.95642,9.28577018 C10.45682,8.75297018 11.14154,6.96017018 11.07098,6.04577018 L12.62006,5.87657018 C12.97286,5.83697018 13.23926,5.53817018 13.23926,5.18177018 L12.05558,4.76777018"></path>
        </g>
    </g>
</svg>