<?xml version="1.0" encoding="UTF-8" standalone="no"?>
<svg width="16px" height="16px" viewBox="0 0 16 16" version="1.1" xmlns="http://www.w3.org/2000/svg" xmlns:xlink="http://www.w3.org/1999/xlink">
    <!-- Generator: Sketch 3.6.1 (26313) - http://www.bohemiancoding.com/sketch -->
    <title>material_fragil</title>
    <desc>Created with Sketch.</desc>
    <defs></defs>
    <g id="Page-1" stroke="none" stroke-width="1" fill="none" fill-rule="evenodd">
        <g id="material_fragil" fill="#000000">
            <path d="M8.74448,7.6274 L8.74448,7.6274 C10.34612,6.713 11.59028,5.2406 12.46724,3.1598 L7.1018,3.1598 C6.61688,3.455 6.14672,3.9446 5.70176,4.6106 L5.07032,4.1894 C5.33636,3.7934 5.61356,3.4478 5.9012,3.1598 L3.53276,3.1598 C3.92156,4.0814 4.38236,4.8842 4.9148,5.5718 C5.18948,5.3054 5.4584,4.9778 5.71724,4.589 L6.34868,5.0102 C6.0488,5.4602 5.7338,5.8418 5.4062,6.1514 C5.95736,6.7454 6.57404,7.2386 7.25552,7.6274 L7.25552,11.4794 C6.57944,11.5262 5.867,11.6342 5.02208,11.8034 L5.02208,12.8402 L10.97828,12.8402 L10.97828,11.8034 C10.133,11.6342 9.42056,11.5262 8.74448,11.4794 L8.74448,7.6274"></path>
        </g>
    </g>
</svg>