<?xml version="1.0" encoding="UTF-8" standalone="no"?>
<svg width="16px" height="16px" viewBox="0 0 16 16" version="1.1" xmlns="http://www.w3.org/2000/svg" xmlns:xlink="http://www.w3.org/1999/xlink">
    <!-- Generator: Sketch 3.6.1 (26313) - http://www.bohemiancoding.com/sketch -->
    <title>material_de_prensa</title>
    <desc>Created with Sketch.</desc>
    <defs></defs>
    <g id="Page-1" stroke="none" stroke-width="1" fill="none" fill-rule="evenodd">
        <g id="material_de_prensa" fill="#000000">
            <path d="M11.71664,10.0448 C11.79872,10.6748 11.60828,11.3048 11.19176,11.7836 C10.77272,12.266 10.16684,12.5396 9.52964,12.5396 C8.19152,12.5396 7.1036,11.4524 7.1036,10.1132 L7.1036,4.5044 C6.82316,4.346 6.6338,4.0472 6.6338,3.7016 C6.6338,3.1976 7.04456,2.7872 7.55072,2.7872 C8.0576,2.7872 8.468,3.1976 8.468,3.7016 C8.468,4.0472 8.27828,4.346 7.99856,4.5044 L7.99856,10.1132 C7.99856,10.9592 8.68544,11.6468 9.52964,11.6468 C9.90836,11.6468 10.26836,11.4812 10.51748,11.1968 C10.76624,10.9124 10.87928,10.5308 10.82816,10.1564 L10.81808,10.0808 L10.81268,10.0844 L10.09268,6.8408 L13.22144,9.9836 L11.71664,10.0448 L11.71664,10.0448 Z M2.91032,6.8408 C2.83508,7.3268 2.78936,7.856 2.77856,8.4104 L5.27156,8.4104 C5.26112,7.856 5.2154,7.3268 5.1398,6.8408 L2.91032,6.8408 L2.91032,6.8408 Z M4.98176,6.0416 C4.832,5.4332 4.63076,4.9184 4.3946,4.544 C4.71716,4.4 4.94216,4.076 4.94216,3.7016 C4.94216,3.1976 4.53176,2.7872 4.02488,2.7872 C3.51836,2.7872 3.10796,3.1976 3.10796,3.7016 C3.10796,4.076 3.33296,4.4 3.65516,4.544 C3.41936,4.9184 3.21848,5.4332 3.06872,6.0416 L4.98176,6.0416 L4.98176,6.0416 Z M4.02488,13.2128 C4.68584,12.6368 5.1794,11.0888 5.26148,9.206 L2.78864,9.206 C2.87036,11.0888 3.36428,12.6368 4.02488,13.2128 L4.02488,13.2128 Z"></path>
        </g>
    </g>
</svg>