<?xml version="1.0" encoding="UTF-8" standalone="no"?>
<svg width="16px" height="16px" viewBox="0 0 16 16" version="1.1" xmlns="http://www.w3.org/2000/svg" xmlns:xlink="http://www.w3.org/1999/xlink">
    <!-- Generator: Sketch 3.6.1 (26313) - http://www.bohemiancoding.com/sketch -->
    <title>mejor_precio</title>
    <desc>Created with Sketch.</desc>
    <defs></defs>
    <g id="Page-1" stroke="none" stroke-width="1" fill="none" fill-rule="evenodd">
        <g id="mejor_precio" fill="#000000">
            <path d="M13.8266,6.65936 L12.27752,6.05744 L12.662,4.27436 L11.00564,4.40108 L10.574,2.62736 L9.13796,3.45644 L7.97588,2.04308 L7.04456,3.4118 L5.38316,2.63888 L5.14088,4.27508 L3.30884,4.29704 L3.80348,5.87708 L2.16296,6.68816 L3.29732,7.89848 L2.17412,9.33812 L3.72248,9.94004 L3.33836,11.72384 L4.99508,11.59676 L5.42672,13.37192 L6.8624,12.54176 L7.92584,13.95692 L8.95544,12.58676 L10.53116,13.39712 L10.85912,11.72276 L12.69152,11.7008 L12.19652,10.12184 L13.83704,9.31004 L12.7034,8.10008 L13.8266,6.65936 L13.8266,6.65936 Z M11.16908,6.42392 L8.459,9.90368 L8.45864,9.90332 C8.1134,10.29284 7.46,10.27448 7.07984,9.89432 C7.05068,9.86516 7.02404,9.83492 6.99956,9.80288 L5.33528,7.361 L5.84864,6.8516 L7.74584,8.11124 L10.718,5.9894 L11.16908,6.42392 L11.16908,6.42392 Z"></path>
        </g>
    </g>
</svg>