<?xml version="1.0" encoding="UTF-8" standalone="no"?>
<svg width="16px" height="16px" viewBox="0 0 16 16" version="1.1" xmlns="http://www.w3.org/2000/svg" xmlns:xlink="http://www.w3.org/1999/xlink">
    <!-- Generator: Sketch 3.6.1 (26313) - http://www.bohemiancoding.com/sketch -->
    <title>mejor_precio_oferta</title>
    <desc>Created with Sketch.</desc>
    <defs></defs>
    <g id="Page-1" stroke="none" stroke-width="1" fill="none" fill-rule="evenodd">
        <g id="mejor_precio_oferta" fill="#000000">
            <path d="M11.38994,6.29558 L10.73186,5.5925 L11.38418,4.75622 L10.48526,4.40666 L10.70738,3.37094 L9.74546,3.44438 L9.49526,2.41406 L8.66042,2.89538 L7.98578,2.07458 L7.44506,2.86946 L6.4799,2.4209 L6.3395,3.3713 L5.27426,3.38462 L5.56298,4.30154 L4.61006,4.77242 L5.26886,5.4755 L4.61546,6.31214 L5.5151,6.6617 L5.29298,7.69814 L6.2549,7.62362 L6.5051,8.6543 L7.33958,8.17226 L7.95698,8.9945 L8.55494,8.1989 L9.47042,8.66942 L9.66086,7.69706 L10.72502,7.6841 L10.43738,6.76718 L11.38994,6.29558 L11.38994,6.29558 Z M8.13986,6.74126 L8.13878,6.74126 C7.93358,6.97418 7.54262,6.96302 7.3151,6.73586 C7.2971,6.71822 7.28198,6.70058 7.2665,6.68078 L6.27182,5.2199 L6.57818,4.9157 L7.71434,5.66918 L9.49166,4.39946 L9.76058,4.65974 L8.13986,6.74126 Z M7.96094,10.2869 L7.1261,9.24434 L6.11558,9.8081 C6.12134,11.11706 6.20666,12.64166 6.38522,13.92542 L7.95338,12.07178 L9.6011,13.92326 C9.7595,12.61286 9.84338,11.0789 9.84662,9.73934 L8.8019,9.25478 L7.96094,10.2869 Z"></path>
        </g>
    </g>
</svg>