<?xml version="1.0" encoding="UTF-8" standalone="no"?>
<svg width="16px" height="16px" viewBox="0 0 16 16" version="1.1" xmlns="http://www.w3.org/2000/svg" xmlns:xlink="http://www.w3.org/1999/xlink">
    <!-- Generator: Sketch 3.6.1 (26313) - http://www.bohemiancoding.com/sketch -->
    <title>menos_2</title>
    <desc>Created with Sketch.</desc>
    <defs></defs>
    <g id="Page-1" stroke="none" stroke-width="1" fill="none" fill-rule="evenodd">
        <g id="menos_2" fill="#000000">
            <path d="M8.00054,2.0456 C4.71194,2.0456 2.04578,4.7096 2.04578,8 C2.04578,11.2868 4.71194,13.9544 8.00054,13.9544 C11.28842,13.9544 13.95422,11.2868 13.95422,8 C13.95422,4.7096 11.28842,2.0456 8.00054,2.0456 Z M8.00054,7.208 C7.29962,7.208 5.89634,7.334 5.2109,7.4096 C5.20046,7.5068 5.19578,7.7516 5.19506,8 C5.19578,8.2484 5.20046,8.4896 5.2109,8.5904 C5.89634,8.6624 7.29962,8.7884 8.00054,8.7884 C9.00422,8.7884 10.13138,8.6588 10.78946,8.5904 C10.79954,8.4896 10.8053,8.2448 10.8053,8 C10.8053,7.7516 10.79954,7.5068 10.78946,7.4096 C10.13138,7.3376 9.00422,7.208 8.00054,7.208 Z M8.00054,12.4856 C5.52698,12.4856 3.51494,10.4732 3.51494,8 C3.51494,5.5268 5.52698,3.5144 8.00054,3.5144 C10.47338,3.5144 12.4865,5.5268 12.4865,8 C12.4865,10.4732 10.47338,12.4856 8.00054,12.4856 Z"></path>
        </g>
    </g>
</svg>