<?xml version="1.0" encoding="UTF-8" standalone="no"?>
<svg width="16px" height="16px" viewBox="0 0 16 16" version="1.1" xmlns="http://www.w3.org/2000/svg" xmlns:xlink="http://www.w3.org/1999/xlink">
    <!-- Generator: Sketch 3.6.1 (26313) - http://www.bohemiancoding.com/sketch -->
    <title>mensajes</title>
    <desc>Created with Sketch.</desc>
    <defs></defs>
    <g id="Page-1" stroke="none" stroke-width="1" fill="none" fill-rule="evenodd">
        <g id="mensajes" fill="#000000">
            <path d="M8,4.81598 C6.7904,4.81598 5.59448,4.8689 4.41296,4.97042 L7.94888,8.50598 L8.09432,8.50598 L11.6288,4.97366 C10.43288,4.86998 9.22256,4.81598 8,4.81598 M8,3.94442 C9.66572,3.94442 11.31308,4.05314 12.968,4.23314 C13.10768,5.48702 13.19804,6.73694 13.19804,8.00018 C13.19804,9.26342 13.10768,10.51226 12.968,11.76722 C11.31344,11.94722 9.66536,12.05558 8,12.05558 C6.33464,12.05558 4.68656,11.94722 3.032,11.76758 C2.89196,10.51298 2.80196,9.26306 2.80196,8.00018 C2.80196,6.7373 2.89196,5.48702 3.032,4.23278 C4.68656,4.05314 6.33464,3.94442 8,3.94442 M3.77396,10.44098 L6.21188,8.00162 L3.7736,5.56334 C3.70808,6.36902 3.67316,7.18154 3.67316,8.00018 C3.67316,8.81954 3.70808,9.63386 3.77396,10.44098 M11.62664,11.0267 L9.21716,8.61614 L8.45504,9.3779 L7.58744,9.37754 L6.82784,8.61758 L4.41728,11.03066 C5.59772,11.13146 6.79184,11.18366 8,11.18366 C9.2222,11.18366 10.4318,11.13002 11.62664,11.0267 M9.83384,7.99946 L12.23,10.39706 C12.29336,9.60398 12.32648,8.80442 12.32648,8.00018 C12.32648,7.19558 12.29336,6.39746 12.23,5.60438 L9.83384,7.99946"></path>
        </g>
    </g>
</svg>