<?xml version="1.0" encoding="UTF-8" standalone="no"?>
<svg width="16px" height="16px" viewBox="0 0 16 16" version="1.1" xmlns="http://www.w3.org/2000/svg" xmlns:xlink="http://www.w3.org/1999/xlink">
    <!-- Generator: Sketch 3.6.1 (26313) - http://www.bohemiancoding.com/sketch -->
    <title>menu</title>
    <desc>Created with Sketch.</desc>
    <defs></defs>
    <g id="Page-1" stroke="none" stroke-width="1" fill="none" fill-rule="evenodd">
        <g id="menu" fill="#000000">
            <path d="M2.10284,5.16356 L5.16356,5.16356 L5.16356,2.1032 L2.10284,2.1032 L2.10284,5.16356 Z M6.46964,5.1632 L9.53,5.1632 L9.53,2.10284 L6.46964,2.10284 L6.46964,5.1632 Z M10.83644,5.1632 L13.89716,5.1632 L13.89716,2.10284 L10.83644,2.10284 L10.83644,5.1632 Z M2.10284,9.53 L5.16356,9.53 L5.16356,6.46964 L2.10284,6.46964 L2.10284,9.53 Z M6.46964,9.53 L9.53,9.53 L9.53,6.46964 L6.46964,6.46964 L6.46964,9.53 Z M10.83644,9.53 L13.89716,9.53 L13.89716,6.46964 L10.83644,6.46964 L10.83644,9.53 Z M2.10284,13.89716 L5.16356,13.89716 L5.16356,10.83536 L2.10284,10.83536 L2.10284,13.89716 Z M6.46964,13.89716 L9.53,13.89716 L9.53,10.83536 L6.46964,10.83536 L6.46964,13.89716 Z M10.83644,13.89716 L13.89716,13.89716 L13.89716,10.83536 L10.83644,10.83536 L10.83644,13.89716 Z"></path>
        </g>
    </g>
</svg>