<?xml version="1.0" encoding="UTF-8" standalone="no"?>
<svg width="16px" height="16px" viewBox="0 0 16 16" version="1.1" xmlns="http://www.w3.org/2000/svg" xmlns:xlink="http://www.w3.org/1999/xlink">
    <!-- Generator: Sketch 3.6.1 (26313) - http://www.bohemiancoding.com/sketch -->
    <title>mostrador_de_transitos</title>
    <desc>Created with Sketch.</desc>
    <defs></defs>
    <g id="Page-1" stroke="none" stroke-width="1" fill="none" fill-rule="evenodd">
        <g id="mostrador_de_transitos" fill="#000000">
            <path d="M4.35212,12.518 L5.04872,12.518 C5.70104,11.7872 6.77456,10.106 6.88184,9.962 C7.78112,9.9404 8.77292,9.8432 8.98532,9.5336 L8.98532,9.2852 C8.75024,9.026 7.78112,8.9288 6.8912,8.8964 C6.78212,8.7452 5.70104,7.0532 5.04872,6.326 L4.35212,6.326 L5.23448,8.9396 C4.79204,8.9828 4.38632,9.044 3.95576,9.1088 C3.92336,9.0512 3.70916,8.8496 3.19076,8.2592 L2.80376,8.2592 L3.19076,9.422 C3.1886,9.422 3.19076,9.422 3.19076,9.422 C3.19256,9.422 2.80376,10.5812 2.80376,10.5812 L3.19076,10.5812 C3.67604,10.0376 3.9248,9.8 3.95756,9.7388 C4.38884,9.8036 4.79492,9.8684 5.23448,9.9116 L4.35212,12.518 Z M11.64788,3.482 L10.95128,3.482 C10.2986,4.2128 9.22544,5.8904 9.11816,6.038 C8.21924,6.056 7.22708,6.1532 7.01468,6.4664 L7.01468,6.7148 C7.24976,6.974 8.21924,7.0676 9.10844,7.1 C9.21788,7.2512 10.2986,8.9432 10.95128,9.674 L11.64788,9.674 L10.76552,7.0604 C11.20796,7.0172 11.61368,6.9524 12.04424,6.8912 C12.07664,6.9488 12.2912,7.1468 12.80924,7.7372 L13.19624,7.7372 L12.80924,6.578 C12.80744,6.578 13.19624,5.4152 13.19624,5.4152 L12.80924,5.4152 C12.32396,5.9588 12.0752,6.2 12.04244,6.2576 C11.6108,6.1928 11.20472,6.1316 10.76552,6.0884 L11.64788,3.482 Z M8.57672,8.0504 L8.57672,7.7264 L7.98092,7.244 L7.3862,7.7264 L7.3862,8.0504 L7.98092,7.6112 L8.57672,8.0504 Z M8.57672,8.6768 L8.57672,8.3528 L7.98092,7.8704 L7.3862,8.3528 L7.3862,8.6768 L7.98092,8.234 L8.57672,8.6768 Z"></path>
        </g>
    </g>
</svg>