<?xml version="1.0" encoding="UTF-8" standalone="no"?>
<svg width="16px" height="16px" viewBox="0 0 16 16" version="1.1" xmlns="http://www.w3.org/2000/svg" xmlns:xlink="http://www.w3.org/1999/xlink">
    <!-- Generator: Sketch 3.6.1 (26313) - http://www.bohemiancoding.com/sketch -->
    <title>mp3</title>
    <desc>Created with Sketch.</desc>
    <defs></defs>
    <g id="Page-1" stroke="none" stroke-width="1" fill="none" fill-rule="evenodd">
        <g id="mp3" fill="#000000">
            <path d="M9.2105,2.80033372 L12.0815,2.80033372 L12.0815,6.24193372 C12.0815,6.73153372 11.68262,7.13113372 11.19302,7.13113372 C10.70342,7.13113372 10.30454,6.73153372 10.30454,6.24193372 C10.30454,5.75233372 10.70342,5.35633372 11.19302,5.35633372 C11.2625,5.35633372 11.31506,5.35993372 11.38238,5.37793372 L11.39894,3.84793372 L9.89342,3.84793372 L9.89342,5.51473372 C9.89342,6.00433372 9.49418,6.40033372 9.00386,6.40033372 C8.5139,6.40033372 8.11574,6.00433372 8.11574,5.51473372 C8.11574,5.02513372 8.5139,4.62553372 9.00386,4.62553372 C9.0737,4.62553372 9.14318,4.63273372 9.2105,4.65073372 L9.2105,2.80033372 L9.2105,2.80033372 Z M5.36318,10.5943337 C5.36318,11.4403337 6.04718,12.1243337 6.89174,12.1243337 C7.73558,12.1243337 8.41958,11.4403337 8.41958,10.5943337 C8.41958,9.75193372 7.73558,9.06793372 6.89174,9.06793372 C6.04718,9.06793372 5.36318,9.75193372 5.36318,10.5943337 L5.36318,10.5943337 Z M9.8639,7.22113372 L9.8639,12.9847337 C7.88246,13.3051337 5.90066,13.3051337 3.9185,12.9847337 L3.9185,3.01633372 C5.29442,2.79313372 6.97202,2.72473372 8.34794,2.81113372 L8.34794,3.70393372 L4.80086,3.70393372 L4.80086,7.98433372 L9.0503,7.98433372 L9.0503,7.22113372 L9.8639,7.22113372 L9.8639,7.22113372 Z M6.2603,10.5943337 C6.2603,10.2451337 6.5429,9.96433372 6.89174,9.96433372 C7.24022,9.96433372 7.5221,10.2451337 7.5221,10.5943337 C7.5221,10.9435337 7.24022,11.2279337 6.89174,11.2279337 C6.5429,11.2279337 6.2603,10.9435337 6.2603,10.5943337 L6.2603,10.5943337 Z"></path>
        </g>
    </g>
</svg>