<?xml version="1.0" encoding="UTF-8" standalone="no"?>
<svg width="16px" height="16px" viewBox="0 0 16 16" version="1.1" xmlns="http://www.w3.org/2000/svg" xmlns:xlink="http://www.w3.org/1999/xlink">
    <!-- Generator: Sketch 3.7.1 (28215) - http://www.bohemiancoding.com/sketch -->
    <title>mujer</title>
    <desc>Created with Sketch.</desc>
    <defs></defs>
    <g id="Page-1" stroke="none" stroke-width="1" fill="none" fill-rule="evenodd">
        <g id="mujer" fill="#000000">
            <path d="M7.38494905,3.93982374 C7.38494905,3.36904434 7.56086478,3 8.13749656,3 C8.71378408,3 8.88935555,3.36904434 8.88935555,3.93982374 C8.88935555,4.51129166 8.71378408,4.880336 8.13749656,4.880336 C7.56086478,4.880336 7.38494905,4.51129166 7.38494905,3.93982374 Z M10.2625998,10.5901955 C10.1847976,8.70710548 9.57201873,7.98416414 9.57201873,7.98416414 L9.57201873,7.28187827 C9.57201873,6.01225558 9.44533186,5.56713027 9.44533186,5.56713027 L9.43947948,5.55886808 C9.23671165,5.42701735 8.76301294,5.31960892 8.18293858,5.31960892 L8.05039934,5.32098595 C7.42144037,5.32098595 6.81657945,5.56644175 6.81657945,5.56644175 C6.81657945,5.56644175 6.71812173,5.99917378 6.71571193,7.28187827 L6.71571193,7.98416414 C6.71571193,7.98416414 6.077458,8.71743321 6,10.6039658 L7.05480584,10.7795373 C7.18459102,11.6814927 7.31299917,12.5421372 7.36463784,13 L8.89796199,13 C8.9492564,12.5421372 9.08317268,11.6814927 9.21881025,10.7760947 L10.2625998,10.5901955 Z" id="Combined-Shape"></path>
        </g>
    </g>
</svg>