<?xml version="1.0" encoding="UTF-8" standalone="no"?>
<svg width="16px" height="16px" viewBox="0 0 16 16" version="1.1" xmlns="http://www.w3.org/2000/svg" xmlns:xlink="http://www.w3.org/1999/xlink">
    <!-- Generator: Sketch 3.6.1 (26313) - http://www.bohemiancoding.com/sketch -->
    <title>musica</title>
    <desc>Created with Sketch.</desc>
    <defs></defs>
    <g id="Page-1" stroke="none" stroke-width="1" fill="none" fill-rule="evenodd">
        <g id="musica" fill="#000000">
            <path d="M5.26472,3.4424 L5.50772,3.392 L13.14476,2.0492 L13.14476,4.67 C13.14476,4.67 13.14368,4.4684 13.14368,10.4048 L13.14476,10.4336 C13.14476,11.5316 12.2552,12.4208 11.15612,12.4208 C10.0574,12.4208 9.16748,11.5316 9.16748,10.4336 C9.16748,9.3356 10.0574,8.4428 11.15612,8.4428 C11.34692,8.4428 11.53052,8.4716 11.70476,8.522 L11.70476,4.9076 L6.8336,5.7752 L6.8336,11.906 C6.83072,11.9276 6.8336,11.9456 6.8336,11.9636 C6.8336,13.0616 5.94296,13.9508 4.84496,13.9508 C3.74588,13.9508 2.85524,13.0616 2.85524,11.9636 C2.85524,10.8656 3.74588,9.9764 4.84496,9.9764 C4.98716,9.9764 5.1272,9.9908 5.26184,10.0196 L5.26472,3.4424"></path>
        </g>
    </g>
</svg>