<?xml version="1.0" encoding="UTF-8" standalone="no"?>
<svg width="16px" height="16px" viewBox="0 0 16 16" version="1.1" xmlns="http://www.w3.org/2000/svg" xmlns:xlink="http://www.w3.org/1999/xlink">
    <!-- Generator: Sketch 3.6.1 (26313) - http://www.bohemiancoding.com/sketch -->
    <title>muy_bien</title>
    <desc>Created with Sketch.</desc>
    <defs></defs>
    <g id="Page-1" stroke="none" stroke-width="1" fill="none" fill-rule="evenodd">
        <g id="muy_bien" fill="#000000">
            <path d="M5.73848,8.7452 C7.1774,9.0404 8.67248,9.0404 10.21796,8.7452 L10.21796,9.4436 C9.81692,10.16 9.11204,10.5596 7.97768,10.5596 C6.84368,10.5596 6.13916,10.16 5.73848,9.4544 L5.73848,8.7452 L5.73848,8.7452 Z M8,3.4928 C5.51528,3.4928 3.49388,5.516 3.49388,8 C3.49388,10.484 5.51528,12.5072 8,12.5072 C10.48472,12.5072 12.50612,10.484 12.50612,8 C12.50612,5.516 10.48472,3.4928 8,3.4928 L8,3.4928 Z M8,2.7728 C10.88612,2.7728 13.22612,5.1128 13.22612,8 C13.22612,10.8872 10.88612,13.2272 8,13.2272 C5.11352,13.2272 2.77388,10.8872 2.77388,8 C2.77388,5.1128 5.11352,2.7728 8,2.7728 L8,2.7728 Z M6.12116,5.7716 C5.49944,5.7716 4.99364,6.2756 4.99364,6.8984 L5.71364,6.8984 C5.71364,6.6752 5.89652,6.4916 6.12116,6.4916 C6.3458,6.4916 6.52868,6.6752 6.52868,6.8984 L7.24868,6.8984 C7.24868,6.2756 6.74324,5.7716 6.12116,5.7716 L6.12116,5.7716 Z M9.82376,5.7716 C9.20204,5.7716 8.69588,6.2756 8.69588,6.8984 L9.41588,6.8984 C9.41588,6.6752 9.59912,6.4916 9.82376,6.4916 C10.0484,6.4916 10.23128,6.6752 10.23128,6.8984 L10.95128,6.8984 C10.95128,6.2756 10.44548,5.7716 9.82376,5.7716 L9.82376,5.7716 Z"></path>
        </g>
    </g>
</svg>