<?xml version="1.0" encoding="UTF-8" standalone="no"?>
<svg width="16px" height="16px" viewBox="0 0 16 16" version="1.1" xmlns="http://www.w3.org/2000/svg" xmlns:xlink="http://www.w3.org/1999/xlink">
    <!-- Generator: Sketch 3.6.1 (26313) - http://www.bohemiancoding.com/sketch -->
    <title>navegador_avion</title>
    <desc>Created with Sketch.</desc>
    <defs></defs>
    <g id="Page-1" stroke="none" stroke-width="1" fill="none" fill-rule="evenodd">
        <g id="navegador_avion" fill="#000000">
            <path d="M12.9295009,8.19862047 L9.29818091,8.40094047 C9.21322091,8.12662047 9.06382091,7.86166047 8.86942091,7.65430047 L9.96706091,7.51282047 C10.0257409,7.50706047 10.0685809,7.45450047 10.0624609,7.39582047 C10.0567009,7.33642047 10.0045009,7.29358047 9.94546091,7.29970047 L8.47918091,7.35766047 C8.40682091,7.32094047 8.33194091,7.29286047 8.25454091,7.27414047 L8.14186091,5.87698047 C8.14474091,5.81794047 8.09866091,5.76754047 8.03926091,5.76502047 C7.98022091,5.76178047 7.93018091,5.80786047 7.92766091,5.86726047 L7.80274091,7.27486047 C7.72714091,7.29322047 7.65442091,7.32094047 7.58350091,7.35622047 L6.15250091,7.29970047 C6.09346091,7.29358047 6.04090091,7.33642047 6.03514091,7.39582047 C6.02902091,7.45450047 6.07186091,7.50706047 6.13126091,7.51282047 L7.19542091,7.65034047 C6.99742091,7.86022047 6.84478091,8.12986047 6.75946091,8.40922047 C6.75334091,8.40742047 6.74686091,8.40382047 6.74074091,8.40310047 L3.07090091,8.19862047 C2.92402091,8.18422047 2.79730091,8.25874047 2.78650091,8.36530047 C2.77498091,8.47258047 2.88586091,8.57050047 3.03202091,8.58526047 L4.14442091,8.71990047 C4.02310091,8.78866047 3.93742091,8.91358047 3.93742091,9.06262047 C3.93742091,9.28294047 4.11598091,9.46222047 4.33594091,9.46222047 C4.55626091,9.46222047 4.73482091,9.28294047 4.73482091,9.06262047 C4.73482091,8.94994047 4.68730091,8.84950047 4.61206091,8.77642047 L5.28886091,8.85886047 C5.16718091,8.91106047 5.08150091,9.03166047 5.08150091,9.17278047 C5.08150091,9.36106047 5.23450091,9.51334047 5.42278091,9.51334047 C5.61106091,9.51334047 5.76370091,9.36106047 5.76370091,9.17278047 C5.76370091,9.05758047 5.70286091,8.96002047 5.61502091,8.89810047 L6.68818091,9.02842047 C6.69142091,9.02878047 6.69394091,9.02698047 6.69718091,9.02698047 C6.76738091,9.70522047 7.33330091,10.2351405 8.03026091,10.2351405 C8.72830091,10.2351405 9.29602091,9.70234047 9.36406091,9.02194047 L10.4491009,8.89054047 C10.3547809,8.95138047 10.2881809,9.05218047 10.2881809,9.17242047 C10.2881809,9.36106047 10.4415409,9.51334047 10.6301809,9.51334047 C10.8181009,9.51334047 10.9711009,9.36106047 10.9711009,9.17242047 C10.9711009,9.02554047 10.8764209,8.90242047 10.7461009,8.85454047 L11.5240609,8.76058047 C11.4380209,8.83258047 11.3804209,8.93698047 11.3804209,9.05794047 C11.3804209,9.27502047 11.5561009,9.45106047 11.7731809,9.45106047 C11.9909809,9.45106047 12.1673809,9.27502047 12.1673809,9.05794047 C12.1673809,8.90386047 12.0766609,8.77390047 11.9477809,8.70910047 L12.9680209,8.58526047 C13.1149009,8.57050047 13.2247009,8.47258047 13.2135409,8.36530047 C13.2034609,8.25874047 13.0760209,8.18422047 12.9295009,8.19862047 M8.73226091,8.33362047 C8.73226091,8.33362047 8.38450091,8.47150047 8.02450091,8.47150047 C7.67278091,8.47150047 7.31782091,8.33362047 7.31782091,8.33362047 L7.31782091,7.98370047 L8.73226091,7.98370047 L8.73226091,8.33362047"></path>
        </g>
    </g>
</svg>