<?xml version="1.0" encoding="UTF-8" standalone="no"?>
<svg width="16px" height="16px" viewBox="0 0 16 16" version="1.1" xmlns="http://www.w3.org/2000/svg" xmlns:xlink="http://www.w3.org/1999/xlink">
    <!-- Generator: Sketch 3.6.1 (26313) - http://www.bohemiancoding.com/sketch -->
    <title>navegacion</title>
    <desc>Created with Sketch.</desc>
    <defs></defs>
    <g id="Page-1" stroke="none" stroke-width="1" fill="none" fill-rule="evenodd">
        <g id="navegacion" fill="#000000">
            <path d="M8.00018,2.77586 C5.11946,2.77586 2.7755,5.11874 2.7755,8.00018 C2.7755,10.8809 5.11946,13.22414 8.00018,13.22414 C10.88054,13.22414 13.2245,10.8809 13.2245,8.00018 C13.2245,5.11874 10.88054,2.77586 8.00018,2.77586 Z M9.78434,9.0413 L9.78434,8.58302 L9.75122,8.55314 C9.36962,8.1899 8.96426,7.83566 8.54666,7.49942 C8.47574,7.44254 8.4041,7.38566 8.33066,7.32842 C8.31734,6.51302 8.25146,6.1343 8.10926,6.0083 L8.07938,5.98238 L7.87814,5.98238 L7.84682,6.0191 C7.69598,6.19406 7.6499,6.84602 7.63766,7.32698 C7.5635,7.38458 7.49114,7.44254 7.41914,7.49942 C7.0019,7.83566 6.5969,8.1899 6.21458,8.55314 L6.18254,8.58302 L6.18218,9.04094 L7.66934,8.40482 C7.68626,8.60354 7.70714,8.80442 7.72946,8.99846 C7.70678,9.01538 7.68446,9.03158 7.66214,9.04886 C7.52894,9.15038 7.3979,9.25874 7.26074,9.3779 L7.2251,9.40994 L7.2251,9.88586 L7.97246,9.66662 L7.99334,9.66662 L8.74034,9.88586 L8.74034,9.40922 L8.70506,9.37898 C8.57078,9.25982 8.43542,9.14894 8.3033,9.04886 L8.23526,8.99702 C8.25794,8.80082 8.27918,8.60246 8.2961,8.40482 L9.78434,9.0413 Z M7.82234,4.5593 L8.15966,5.10722 L8.3051,5.10722 L8.3051,4.2911 L8.14418,4.2911 L8.14418,4.81382 L7.82558,4.2911 L7.66106,4.2911 L7.66106,5.10038 L7.82234,5.10038 L7.82234,4.5593 Z M8.03942,11.22218 L7.97714,11.20058 C7.90154,11.17538 7.8659,11.14622 7.8659,11.10338 C7.8659,11.06198 7.9109,11.02526 8.00306,11.02526 C8.07902,11.02526 8.1413,11.04758 8.19386,11.07674 L8.25686,10.95974 C8.17046,10.9133 8.07902,10.89098 7.9937,10.89098 C7.90838,10.89098 7.8425,10.9079 7.79354,10.93958 C7.73738,10.97486 7.69634,11.04002 7.69634,11.11202 L7.69634,11.11598 C7.69634,11.2067 7.75394,11.30318 7.91522,11.35214 L7.9757,11.3705 C8.0441,11.3921 8.07794,11.4119 8.09198,11.43278 C8.10134,11.44538 8.10674,11.46158 8.10674,11.47958 C8.10674,11.5343 8.0639,11.5703 7.97066,11.5703 C7.88606,11.5703 7.80074,11.54078 7.73378,11.50946 L7.68482,11.63006 C7.76546,11.67218 7.87202,11.70782 7.98182,11.70782 C8.1647,11.70782 8.2817,11.62502 8.2817,11.46806 L8.2817,11.45726 C8.2817,11.39354 8.25794,11.34854 8.21726,11.31074 C8.18018,11.27438 8.1233,11.25026 8.03942,11.22218 Z M5.33942,7.5257 L5.16374,7.5257 C5.12306,7.72046 5.06186,7.94366 5.01074,8.11466 C4.9643,7.94222 4.91462,7.72046 4.88366,7.55522 L4.70186,7.55522 C4.67126,7.72046 4.62086,7.94222 4.57406,8.11466 C4.52402,7.94366 4.46246,7.72046 4.42106,7.5257 L4.24538,7.5257 C4.3217,7.8353 4.40486,8.0963 4.49738,8.34254 L4.65254,8.34254 C4.70906,8.16866 4.76234,7.96958 4.79078,7.82486 L4.79402,7.82486 C4.8239,7.96958 4.8761,8.16866 4.93262,8.34254 L5.08814,8.34254 C5.18102,8.0963 5.26382,7.8353 5.33942,7.5257 Z M11.30678,7.99406 L11.57786,7.99406 L11.58614,7.85834 L11.3903,7.85834 C11.35898,7.85834 11.32586,7.86086 11.30678,7.86374 L11.30678,7.66358 L11.66462,7.66358 L11.67578,7.5257 L11.23874,7.5257 C11.20454,7.5257 11.16962,7.52858 11.13938,7.53254 L11.13938,8.33426 C11.15954,8.33786 11.1905,8.34254 11.23874,8.34254 L11.66678,8.34254 L11.67578,8.20646 L11.30678,8.20646 L11.30678,7.99406 Z M10.31822,5.44742 L10.51118,5.64074 L11.00978,5.14178 L10.81682,4.94774 L10.31822,5.44742 Z M4.93946,10.77254 L5.13242,10.96586 L5.63138,10.4669 L5.43806,10.27322 L4.93946,10.77254 Z M4.97474,5.14178 L5.47442,5.6411 L5.66702,5.44742 L5.16878,4.9481 L4.97474,5.14178 Z M10.28546,10.45214 L10.78406,10.95146 L10.97702,10.75778 L10.47914,10.25882 L10.28546,10.45214 Z M8.00018,12.50414 C5.51654,12.50414 3.4955,10.48346 3.4955,8.00018 C3.4955,5.51618 5.51654,3.49586 8.00018,3.49586 C10.48382,3.49586 12.5045,5.51618 12.5045,8.00018 C12.5045,10.48346 10.48382,12.50414 8.00018,12.50414 Z"></path>
        </g>
    </g>
</svg>