<?xml version="1.0" encoding="UTF-8" standalone="no"?>
<svg width="16px" height="16px" viewBox="0 0 16 16" version="1.1" xmlns="http://www.w3.org/2000/svg" xmlns:xlink="http://www.w3.org/1999/xlink">
    <!-- Generator: Sketch 3.6.1 (26313) - http://www.bohemiancoding.com/sketch -->
    <title>no_fumar</title>
    <desc>Created with Sketch.</desc>
    <defs></defs>
    <g id="Page-1" stroke="none" stroke-width="1" fill="none" fill-rule="evenodd">
        <g id="no_fumar" fill="#000000">
            <path d="M8,2.7854 C5.12432,2.7854 2.78468,5.1254 2.78468,7.9982 C2.78468,10.8746 5.12432,13.2146 8,13.2146 C10.87568,13.2146 13.21532,10.8746 13.21532,7.9982 C13.21532,5.1254 10.87568,2.7854 8,2.7854 Z M9.44936,6.2846 L9.44864,6.6446 L10.06784,6.6482 L10.06856,6.2846 C10.06856,5.363 9.35,4.5926 8.43272,4.5242 L8.38808,5.1434 C8.98316,5.1866 9.44936,5.687 9.44936,6.2846 Z M8.21528,6.353 C8.32652,7.1846 9.04076,7.829 9.9026,7.829 L10.27052,7.829 L10.27052,7.2098 L9.9026,7.2098 C9.305,7.2098 8.81936,6.7238 8.81936,6.1262 L8.81864,6.0614 L8.82548,5.7338 L8.49896,5.7482 L8.41832,5.7482 C7.92908,5.7482 7.53056,5.3486 7.53056,4.859 C7.53056,4.7726 7.5374,4.7006 7.55252,4.643 L6.95204,4.4918 C6.92432,4.5998 6.91136,4.7186 6.91136,4.859 C6.91136,5.6222 7.48016,6.2558 8.21528,6.353 Z M12.47012,7.9982 C12.47012,9.0962 12.07088,10.1042 11.411,10.8854 L10.48112,9.953 L10.71368,9.953 L10.71368,8.9666 L10.40624,8.9666 L10.40624,9.8774 L10.20644,9.6794 L10.20644,8.9666 L9.89864,8.9666 L9.89864,9.3698 L9.6704,9.143 L9.6704,8.9738 C9.61136,8.9702 9.55088,8.9666 9.49148,8.963 L5.11568,4.589 C5.89472,3.9302 6.90164,3.5306 8,3.5306 C10.46492,3.5306 12.47012,5.5358 12.47012,7.9982 Z M3.5306,7.9982 C3.5306,6.9002 3.92876,5.8958 4.58864,5.1146 L8.39132,8.9162 C7.1216,8.8838 5.79284,8.9054 4.4792,8.9738 L4.4792,9.953 C6.1604,10.043 7.86536,10.0502 9.43892,9.9638 L10.88432,11.411 C10.10528,12.0698 9.09872,12.4694 8,12.4694 C5.53508,12.4694 3.5306,10.4642 3.5306,7.9982 Z"></path>
        </g>
    </g>
</svg>