<?xml version="1.0" encoding="UTF-8" standalone="no"?>
<svg width="16px" height="16px" viewBox="0 0 16 16" version="1.1" xmlns="http://www.w3.org/2000/svg" xmlns:xlink="http://www.w3.org/1999/xlink">
    <!-- Generator: Sketch 3.6.1 (26313) - http://www.bohemiancoding.com/sketch -->
    <title>nota</title>
    <desc>Created with Sketch.</desc>
    <defs></defs>
    <g id="Page-1" stroke="none" stroke-width="1" fill="none" fill-rule="evenodd">
        <g id="nota" fill="#000000">
            <path d="M11.3877174,3.5153 L4.61647744,3.5153 C4.46167744,4.9571 4.39327744,6.5303 4.39579744,8.07794 C4.39831744,9.6281 4.47643744,11.1509 4.61647744,12.4847 L11.3859174,12.4847 C11.5227174,11.1509 11.6001174,9.6281 11.6040774,8.07614 C11.6083974,6.5303 11.5399974,4.9571 11.3877174,3.5153 M10.4430774,11.23586 L5.55895744,11.23586 C5.45707744,10.27358 5.40127744,9.17522 5.39947744,8.05598 C5.39767744,6.93962 5.44663744,5.80454 5.55895744,4.7645 L10.4441574,4.7645 C10.5539574,5.80454 10.6036374,6.93962 10.6000374,8.0549 C10.5982374,9.17522 10.5420774,10.27358 10.4430774,11.23586 Z M6.48955744,6.45254 L9.51067744,6.45254 L9.51067744,5.84846 L6.48955744,5.84846 L6.48955744,6.45254 Z M6.48955744,7.6607 L9.51067744,7.6607 L9.51067744,7.05662 L6.48955744,7.05662 L6.48955744,7.6607 Z M6.48955744,10.07738 L8.60419744,10.07738 L8.60419744,9.4733 L6.48955744,9.4733 L6.48955744,10.07738 Z M6.48955744,8.86922 L9.51067744,8.86922 L9.51067744,8.26514 L6.48955744,8.26514 L6.48955744,8.86922 Z"></path>
        </g>
    </g>
</svg>