<?xml version="1.0" encoding="UTF-8" standalone="no"?>
<svg width="16px" height="16px" viewBox="0 0 16 16" version="1.1" xmlns="http://www.w3.org/2000/svg" xmlns:xlink="http://www.w3.org/1999/xlink">
    <!-- Generator: Sketch 3.6.1 (26313) - http://www.bohemiancoding.com/sketch -->
    <title>notificaciones</title>
    <desc>Created with Sketch.</desc>
    <defs></defs>
    <g id="Page-1" stroke="none" stroke-width="1" fill="none" fill-rule="evenodd">
        <g id="notificaciones" fill="#000000">
            <path d="M10.32758,5.4962 C11.18114,6.0038 11.75282,6.9362 11.75282,8.0018 C11.75282,9.0674 11.18114,9.9962 10.32758,10.5038 L9.9359,9.809 C10.54718,9.4382 10.95506,8.7686 10.95506,8.0018 C10.95506,7.235 10.54718,6.5618 9.9359,6.1946 L10.32758,5.4962 L10.32758,5.4962 Z M11.11454,4.265 C12.39722,5.0174 13.25906,6.407 13.25906,8.0018 C13.25906,9.593 12.39722,10.9862 11.11454,11.735 L10.72754,11.051 C11.77118,10.4354 12.47138,9.3014 12.47138,8.0018 C12.47138,6.7022 11.77118,5.5682 10.72754,4.9526 L11.11454,4.265 L11.11454,4.265 Z M5.66522,5.4962 L6.05654,6.1946 C5.44598,6.5618 5.0381,7.235 5.0381,8.0018 C5.0381,8.7686 5.44634,9.4382 6.05654,9.809 L5.66522,10.5038 C4.8113,9.9962 4.23962,9.0674 4.23962,8.0018 C4.23962,6.9362 4.8113,6.0038 5.66522,5.4962 L5.66522,5.4962 Z M4.88546,4.265 L5.27174,4.9526 C4.22846,5.5682 3.52826,6.7022 3.52826,8.0018 C3.52826,9.3014 4.22846,10.4354 5.27174,11.051 L4.88546,11.735 C3.60242,10.9862 2.74094,9.593 2.74094,8.0018 C2.74094,6.407 3.60242,5.0174 4.88546,4.265 L4.88546,4.265 Z M5.90642,8.7722 C5.90642,7.559 6.73586,7.595 6.75998,6.2486 L6.75998,6.2198 C6.75998,5.5358 7.31258,4.985 7.99442,4.985 C8.66582,4.985 9.21338,5.5214 9.22958,6.1874 C9.23318,7.595 10.08314,7.5446 10.08314,8.7722 C9.5525,8.8154 9.01934,8.8406 8.48438,8.8514 C8.50022,8.8982 8.50814,8.9522 8.50814,9.0062 C8.50814,9.2906 8.27882,9.521 7.9955,9.521 C7.71182,9.521 7.48142,9.2906 7.48142,9.0062 C7.48142,8.9522 7.49006,8.8982 7.50626,8.8514 C6.97526,8.8406 6.44246,8.8154 5.90642,8.7722 L5.90642,8.7722 Z"></path>
        </g>
    </g>
</svg>