<?xml version="1.0" encoding="UTF-8" standalone="no"?>
<svg width="16px" height="16px" viewBox="0 0 16 16" version="1.1" xmlns="http://www.w3.org/2000/svg" xmlns:xlink="http://www.w3.org/1999/xlink">
    <!-- Generator: Sketch 3.6.1 (26313) - http://www.bohemiancoding.com/sketch -->
    <title>nuevo</title>
    <desc>Created with Sketch.</desc>
    <defs></defs>
    <g id="Page-1" stroke="none" stroke-width="1" fill="none" fill-rule="evenodd">
        <g id="nuevo" fill="#000000">
            <path d="M2.7638,7.9982 C2.7638,5.1074 5.10776,2.7638 8,2.7638 C10.89188,2.7638 13.2362,5.1074 13.2362,7.9982 C13.2362,10.8926 10.89188,13.2362 8,13.2362 C5.10776,13.2362 2.7638,10.8926 2.7638,7.9982 L2.7638,7.9982 Z M4.49756,6.893 L4.49756,8.8442 L4.73372,8.8442 L4.73372,7.2206 L5.7266,8.8622 L5.9858,8.8622 L5.9858,6.893 L5.75,6.893 L5.75,8.4878 L4.79708,6.893 L4.49756,6.893 L4.49756,6.893 Z M6.39188,7.4582 L6.39188,8.3438 C6.39188,8.5058 6.43148,8.6354 6.52364,8.7326 C6.60752,8.8226 6.73712,8.873 6.9038,8.873 C7.05392,8.873 7.1828,8.8226 7.30088,8.7434 L7.34984,8.8622 L7.52264,8.837 C7.51112,8.7434 7.50572,8.603 7.50572,8.4842 L7.50572,7.4582 L7.27208,7.4582 L7.27208,8.5562 C7.17164,8.6318 7.04204,8.6714 6.92648,8.6714 C6.83468,8.6714 6.7598,8.6498 6.70832,8.5994 C6.65324,8.5454 6.62444,8.459 6.62444,8.3294 L6.62444,7.4582 L6.39188,7.4582 L6.39188,7.4582 Z M8.45756,7.4294 C8.06876,7.4294 7.84448,7.6814 7.84448,8.1026 L7.84448,8.1494 C7.84448,8.6354 8.07776,8.873 8.48096,8.873 L8.49788,8.873 C8.68184,8.873 8.87228,8.8226 8.97848,8.7722 L8.918,8.5886 C8.8118,8.6318 8.639,8.6642 8.51804,8.6642 L8.50364,8.6642 C8.23904,8.6642 8.09468,8.5346 8.08316,8.2034 L9.00188,8.2034 L9.00188,8.0414 C9.00188,7.8038 8.95544,7.6598 8.85788,7.559 C8.77112,7.4726 8.639,7.4294 8.47196,7.4294 L8.45756,7.4294 L8.45756,7.4294 Z M8.46908,7.6202 C8.67068,7.6202 8.7686,7.721 8.7686,7.9622 L8.7686,8.009 L8.08316,8.009 C8.09756,7.7822 8.21024,7.6202 8.45216,7.6202 L8.46908,7.6202 L8.46908,7.6202 Z M9.12788,7.4582 C9.28052,7.937 9.46484,8.4158 9.65456,8.8442 L9.89108,8.8442 C10.0664,8.4482 10.27952,7.8974 10.41776,7.4582 L10.18412,7.4582 C10.03148,7.937 9.93428,8.2142 9.77264,8.585 C9.63476,8.2538 9.5282,7.973 9.3698,7.4582 L9.12788,7.4582 L9.12788,7.4582 Z M10.538,8.2034 C10.538,8.423 10.59596,8.5958 10.70468,8.7074 C10.80872,8.8154 10.95812,8.873 11.14856,8.873 C11.33792,8.873 11.48768,8.8154 11.59136,8.7074 C11.7008,8.5958 11.7584,8.423 11.7584,8.2034 L11.7584,8.099 C11.7584,7.8758 11.7008,7.703 11.59136,7.5914 C11.48768,7.487 11.33792,7.4294 11.14856,7.4294 C10.95812,7.4294 10.80872,7.487 10.70468,7.5914 C10.59596,7.703 10.538,7.8758 10.538,8.099 L10.538,8.2034 L10.538,8.2034 Z M10.77992,8.1062 C10.77992,7.9226 10.82276,7.8038 10.89512,7.7282 C10.95812,7.6598 11.04776,7.631 11.14856,7.631 C11.249,7.631 11.33792,7.6598 11.402,7.7282 C11.47328,7.8038 11.51648,7.9226 11.51648,8.1062 L11.51648,8.1962 C11.51648,8.3798 11.47328,8.495 11.402,8.5742 C11.33792,8.639 11.249,8.6714 11.14856,8.6714 C11.04776,8.6714 10.95812,8.639 10.89512,8.5742 C10.82276,8.495 10.77992,8.3798 10.77992,8.1962 L10.77992,8.1062 L10.77992,8.1062 Z"></path>
        </g>
    </g>
</svg>