<?xml version="1.0" encoding="UTF-8" standalone="no"?>
<svg width="16px" height="16px" viewBox="0 0 16 16" version="1.1" xmlns="http://www.w3.org/2000/svg" xmlns:xlink="http://www.w3.org/1999/xlink">
    <!-- Generator: Sketch 3.6.1 (26313) - http://www.bohemiancoding.com/sketch -->
    <title>obj_equipaje_especial</title>
    <desc>Created with Sketch.</desc>
    <defs></defs>
    <g id="Page-1" stroke="none" stroke-width="1" fill="none" fill-rule="evenodd">
        <g id="obj_equipaje_especial" fill="#000000">
            <path d="M13.73768,3.4388 C11.85416,3.2192 9.9404,3.104 8,3.104 C6.06032,3.104 4.14584,3.2192 2.2616,3.4388 C2.10644,4.9436 2.02544,6.4628 2.02544,8 C2.02544,9.5372 2.10644,11.06 2.2616,12.5612 C4.14584,12.7844 6.06032,12.896 8,12.896 C9.9404,12.896 11.85416,12.7844 13.73768,12.5612 C13.89392,11.06 13.97456,9.5372 13.97456,8 C13.97456,6.4628 13.89392,4.9436 13.73768,3.4388 L13.73768,3.4388 Z M5.33888,8.1044 L5.33888,4.3316 L5.90372,4.3316 L5.90372,8.1044 L6.30296,8.1044 L6.30296,11.672 L4.93964,11.672 L4.93964,8.1044 L5.33888,8.1044 L5.33888,8.1044 Z M6.53624,8.1044 L6.9362,8.1044 L6.9362,4.3316 L7.95032,4.3316 L7.95032,11.672 L6.53624,11.672 L6.53624,8.1044 L6.53624,8.1044 Z M8.18468,4.3316 L9.09656,4.3316 L9.09656,8.1044 L9.49616,8.1044 L9.49616,11.672 L8.18468,11.672 L8.18468,4.3316 L8.18468,4.3316 Z M9.73052,8.1044 L10.12976,8.1044 L10.12976,4.3316 L10.69388,4.3316 L10.69388,8.1044 L11.09204,8.1044 L11.09204,11.672 L9.73052,11.672 L9.73052,8.1044 L9.73052,8.1044 Z M3.15368,4.3316 L4.30712,4.3316 L4.30712,8.1044 L4.706,8.1044 L4.706,11.672 L3.15368,11.672 L3.15368,4.3316 L3.15368,4.3316 Z M12.8456,11.672 L11.32748,11.672 L11.32748,8.1044 L11.72636,8.1044 L11.72636,4.3316 L12.8456,4.3316 L12.8456,11.672 L12.8456,11.672 Z" id="equipaje_especial"></path>
        </g>
    </g>
</svg>