<?xml version="1.0" encoding="UTF-8" standalone="no"?>
<svg width="16px" height="16px" viewBox="0 0 16 16" version="1.1" xmlns="http://www.w3.org/2000/svg" xmlns:xlink="http://www.w3.org/1999/xlink">
    <!-- Generator: Sketch 3.6.1 (26313) - http://www.bohemiancoding.com/sketch -->
    <title>obj_flores_perecederas</title>
    <desc>Created with Sketch.</desc>
    <defs></defs>
    <g id="Page-1" stroke="none" stroke-width="1" fill="none" fill-rule="evenodd">
        <g id="obj_flores_perecederas" fill="#000000">
            <path d="M8.00009517,9.3986 C8.77301517,9.3986 9.39941517,8.7722 9.39941517,7.9982 C9.39941517,7.2278 8.77301517,6.6014 8.00009517,6.6014 C7.22789517,6.6014 6.60005517,7.2278 6.60005517,7.9982 C6.60005517,8.7722 7.22789517,9.3986 8.00009517,9.3986 M10.8113352,8.1314 C12.1091352,8.8802 12.8582952,10.0106 12.4849752,10.6622 C12.1091352,11.3138 10.7522952,11.231 9.45449517,10.4822 C9.39797517,10.4498 9.34289517,10.4138 9.29069517,10.3814 C9.29069517,10.421 9.29393517,10.4606 9.29393517,10.5002 C9.29393517,12.0014 8.68553517,13.2146 7.93673517,13.2146 C7.18505517,13.2146 6.57845517,12.0014 6.57845517,10.5002 C6.57845517,10.4318 6.57989517,10.3706 6.58205517,10.3094 C6.55001517,10.3274 6.51617517,10.349 6.48197517,10.367 C5.18309517,11.1194 3.82625517,11.1986 3.45149517,10.5506 C3.07745517,9.9026 3.82337517,8.7686 5.12261517,8.0198 L5.29469517,7.9262 C5.25869517,7.9082 5.22269517,7.8902 5.18741517,7.8686 C3.88961517,7.1198 3.14153517,5.9858 3.51557517,5.3378 C3.89105517,4.6862 5.24753517,4.769 6.54641517,5.5178 C6.60221517,5.5502 6.65657517,5.5862 6.71021517,5.6186 C6.71021517,5.579 6.70661517,5.5394 6.70661517,5.4998 C6.70661517,4.0022 7.31465517,2.7854 8.06489517,2.7854 C8.81549517,2.7854 9.42137517,4.0022 9.42137517,5.4998 C9.42137517,5.5646 9.41921517,5.6294 9.41777517,5.6906 C9.45017517,5.6726 9.48545517,5.6474 9.51857517,5.6294 C10.8163752,4.8806 12.1724952,4.8014 12.5483352,5.4494 C12.9230952,6.0974 12.1753752,7.2314 10.8761352,7.9838 C10.8206952,8.0162 10.7634552,8.045 10.7072952,8.0738 L10.8113352,8.1314" id="flores_perecederas"></path>
        </g>
    </g>
</svg>