<?xml version="1.0" encoding="UTF-8" standalone="no"?>
<svg width="16px" height="16px" viewBox="0 0 16 16" version="1.1" xmlns="http://www.w3.org/2000/svg" xmlns:xlink="http://www.w3.org/1999/xlink">
    <!-- Generator: Sketch 3.6.1 (26313) - http://www.bohemiancoding.com/sketch -->
    <title>obj_corrosivos</title>
    <desc>Created with Sketch.</desc>
    <defs></defs>
    <g id="Page-1" stroke="none" stroke-width="1" fill="none" fill-rule="evenodd">
        <g id="obj_corrosivos" fill="#000000">
            <path d="M4.15391316,9.77704149 C4.15391316,10.3674415 3.67763316,10.8426415 3.09083316,10.8426415 C2.50403316,10.8426415 2.02847316,10.3674415 2.02847316,9.77704149 C2.02847316,9.19024149 3.09083316,7.74304149 3.09083316,7.74304149 C3.09083316,7.74304149 4.15391316,9.19024149 4.15391316,9.77704149 Z M9.15143316,12.4122415 L3.40367316,6.66304149 C2.76935316,6.02944149 2.65055316,5.11504149 4.11611316,3.65344149 C5.58095316,2.18824149 6.49211316,2.30704149 7.12679316,2.94064149 L12.8749132,8.68624149 C14.1449932,9.95704149 14.3401132,11.8182415 13.3119532,12.8478415 C12.2837932,13.8738415 10.4207932,13.6794415 9.15143316,12.4122415 Z M4.67051316,4.20424149 C3.95015316,4.92784149 3.55595316,5.70184149 3.79031316,5.93584149 C4.02467316,6.16984149 4.79867316,5.77744149 5.52011316,5.05384149 C6.23975316,4.33384149 6.63395316,3.55984149 6.39959316,3.32584149 C6.16487316,3.09184149 5.39159316,3.48424149 4.67051316,4.20424149 Z M7.05299316,3.97744149 C7.05299316,3.97744149 6.70235316,4.84504149 6.00647316,5.53984149 C5.40059316,6.14824149 4.44371316,6.58744149 4.44371316,6.58744149 L10.0895932,7.01584149 L7.05299316,3.97744149 Z" id="corrosivos"></path>
        </g>
    </g>
</svg>