<?xml version="1.0" encoding="UTF-8" standalone="no"?>
<svg width="16px" height="16px" viewBox="0 0 16 16" version="1.1" xmlns="http://www.w3.org/2000/svg" xmlns:xlink="http://www.w3.org/1999/xlink">
    <!-- Generator: Sketch 3.6.1 (26313) - http://www.bohemiancoding.com/sketch -->
    <title>obj_gases_comprimidos</title>
    <desc>Created with Sketch.</desc>
    <defs></defs>
    <g id="Page-1" stroke="none" stroke-width="1" fill="none" fill-rule="evenodd">
        <g id="obj_gases_comprimidos" fill="#000000">
            <path d="M6.2243315,6.42813976 L6.2243315,5.80533976 C6.1145315,5.80173976 6.0004115,5.79813976 5.8884515,5.79453976 C5.8510115,5.68653976 5.8250915,5.57493976 5.8250915,5.44533976 L5.8250915,5.03133976 L5.3606915,5.03133976 C5.2714115,5.03133976 5.1997715,4.90893976 5.1997715,4.75773976 C5.1997715,4.61013976 5.2714115,4.48773976 5.3606915,4.48773976 L5.8232915,4.48773976 C5.8110515,4.00893976 5.7041315,3.64173976 4.7425715,3.64173976 C3.6604115,3.64173976 3.6604115,4.10253976 3.6604115,4.67493976 L3.6604115,5.43813976 C3.6604115,5.56773976 3.6344915,5.68293976 3.5956115,5.79453976 L3.6136115,5.79453976 C3.4980515,5.79813976 3.3824915,5.80173976 3.2687315,5.80533976 L3.2687315,6.42813976 C3.7190915,6.50373976 4.2187715,6.54693976 4.7479715,6.54693976 C5.2757315,6.54693976 5.7746915,6.50373976 6.2243315,6.42813976 Z M6.0529715,7.03293976 C5.6566115,7.09773976 5.2163315,7.13733976 4.7508515,7.13733976 C4.2997715,7.13733976 3.8713715,7.10133976 3.4850915,7.04013976 C2.3849315,7.04013976 2.2949315,8.15253976 2.2949315,9.00213976 L2.2960115,9.05613976 C2.2520915,11.4501398 2.1455315,10.9929398 2.1566915,13.0773398 C2.8331315,14.3157398 6.6340115,14.3157398 7.3367315,13.0773398 C7.3367315,10.9749398 7.2283715,11.4501398 7.2236915,8.94813976 C7.2024515,8.11653976 7.1092115,7.03293976 6.0529715,7.03293976 Z M12.5750915,3.11613976 C12.2770115,2.47533976 11.7550115,2.05773976 11.1448115,2.00013976 C10.7887715,1.96773976 10.4377715,2.06133976 10.1216915,2.26653976 C10.0612115,2.25213976 9.9985715,2.24493976 9.9362915,2.24133976 C8.7072515,2.10453976 7.6978115,2.97573976 7.3194515,3.90093976 L6.9245315,3.91893976 L6.7704515,4.53093976 L11.0209715,4.36893976 L11.0209715,3.75333976 L8.5528115,3.85413976 C8.5873715,3.76413976 8.8757315,3.11973976 9.8480915,3.23133976 C9.9798515,3.24573976 10.1033315,3.28533976 10.2152915,3.34653976 C10.4449715,3.10173976 10.7434115,2.96493976 11.0573315,2.99373976 C11.5375715,3.03693976 11.9141315,3.46173976 12.0307715,4.02333976 L12.1884515,4.03773976 C12.6622115,4.11333976 13.1258915,4.72533976 13.0711715,5.34453976 C13.0690115,5.35893976 13.0675715,5.36973976 13.0650515,5.38053976 C13.0650515,5.39133976 13.0650515,5.40573976 13.0646915,5.41653976 C13.0096115,6.03573976 12.4616915,6.38853976 11.9810915,6.37413976 L11.8234115,6.36333976 C11.6117315,6.88893976 11.1671315,7.23813976 10.6868915,7.19493976 C10.3726115,7.16613976 10.1033315,6.97533976 9.9211715,6.69453976 C9.7987715,6.73413976 9.6702515,6.75213976 9.5384915,6.73773976 C9.0694115,6.69093976 8.5196915,6.44613976 8.3818115,5.83413976 L10.4154515,5.96013976 L10.4302115,5.29773976 L6.7704515,5.09253976 L6.8874515,5.74053976 L7.2956915,5.76573976 C7.4076515,6.73773976 8.1830915,7.71333976 9.4510115,7.73493976 C9.5132915,7.73493976 9.5766515,7.74213976 9.6396515,7.73853976 C9.9139715,7.99773976 10.2426515,8.15613976 10.5983315,8.18853976 C11.2088915,8.24613976 11.7956915,7.92573976 12.2003315,7.35333976 C12.9883715,7.21653976 13.7396915,6.50373976 13.8296915,5.48853976 C13.8296915,5.47413976 13.8307715,5.46333976 13.8318515,5.44893976 C13.8336515,5.43813976 13.8347315,5.42733976 13.8350915,5.41293976 C13.9254515,4.39773976 13.3256915,3.39333976 12.5750915,3.11613976 Z" id="gases_comprimidos"></path>
        </g>
    </g>
</svg>