<?xml version="1.0" encoding="UTF-8" standalone="no"?>
<svg width="16px" height="16px" viewBox="0 0 16 16" version="1.1" xmlns="http://www.w3.org/2000/svg" xmlns:xlink="http://www.w3.org/1999/xlink">
    <!-- Generator: Sketch 3.6.1 (26313) - http://www.bohemiancoding.com/sketch -->
    <title>obj_equipaje_voluminoso_y_pesado</title>
    <desc>Created with Sketch.</desc>
    <defs></defs>
    <g id="Page-1" stroke="none" stroke-width="1" fill="none" fill-rule="evenodd">
        <g id="obj_equipaje_voluminoso_y_pesado" fill="#000000">
            <path d="M9.68370948,2.5118 L9.68190948,2.5118 C9.68082948,2.5082 9.68082948,2.5082 9.68046948,2.5046 C9.13614948,2.3894 8.56878948,2.3282 7.98522948,2.3282 C7.40166948,2.3282 6.83394948,2.3894 6.28962948,2.5046 C6.28926948,2.5082 6.28926948,2.5082 6.28854948,2.5118 L6.28674948,2.5118 C6.14058948,3.4406 6.06534948,3.3326 6.06534948,4.2974 C6.06534948,5.2622 6.14058948,4.5818 6.28674948,5.5142 C6.83250948,5.6258 7.40022948,5.687 7.98522948,5.687 C8.56986948,5.687 9.13794948,5.6258 9.68370948,5.5142 C9.82950948,4.5818 9.90474948,5.2622 9.90474948,4.2974 C9.90474948,3.3326 9.82950948,3.4406 9.68370948,2.5118 M8.50103477,7.19012192 C8.64091821,7.07406688 8.72898948,6.9063395 8.72898948,6.7202 C8.72898948,6.3962 8.45574948,6.1262 8.10762948,6.0938 L8.10762948,5.9246 L8.33802948,5.9246 L8.33802948,5.5106 L7.53702948,5.5106 L7.53702948,5.9246 L7.74762948,5.9246 L7.74762948,6.5006 L7.96182948,6.4574 C8.15586948,6.4178 8.36898948,6.551 8.36898948,6.7202 C8.36898948,6.8714 8.22066948,6.9938 8.03850948,6.9938 C7.87830948,6.9938 7.74150948,6.9002 7.71306948,6.767 L7.36134948,6.8462 C7.39098181,6.98104376 7.46780411,7.09972131 7.57430188,7.18834919 C7.33808559,7.20463916 7.10211779,7.23342216 6.87498948,7.2746 C6.68814948,7.3106 6.53838948,7.451 6.49338948,7.6346 L6.24426948,8.6606 C5.67906948,8.7146 3.64110948,8.7866 2.97726948,8.8838 C2.90274948,8.8946 2.84334948,8.9522 2.82966948,9.0242 C2.50350948,10.727 2.54670948,12.3146 2.69502948,13.6718 L13.3042295,13.6718 C13.4539895,12.3146 13.4961095,10.727 13.1699495,9.0242 C13.1562695,8.9522 13.0975895,8.8946 13.0237895,8.8838 C12.3570695,8.783 10.3187495,8.7074 9.75498948,8.657 L9.50766948,7.6418 C9.46194948,7.4546 9.30498948,7.3214 9.11634948,7.2782 C8.92769813,7.23646771 8.7198358,7.20713987 8.50103477,7.19012192 Z M9.30390948,4.4738 C8.88054948,4.5314 8.43918948,4.5638 7.98522948,4.5638 C7.53162948,4.5638 7.09026948,4.5314 6.66690948,4.4738 C6.55422948,4.0094 6.49554948,4.1714 6.49554948,3.689 C6.49554948,3.2066 6.55422948,3.2606 6.66690948,2.7926 L6.66834948,2.7926 C6.66834948,2.7926 6.66834948,2.7926 6.66906948,2.789 C7.09134948,2.7314 7.53162948,2.7026 7.98522948,2.7026 C8.43846948,2.7026 8.87946948,2.7314 9.30138948,2.789 C9.30174948,2.7926 9.30174948,2.7926 9.30246948,2.7926 L9.30390948,2.7926 C9.41730948,3.2606 9.47562948,3.2066 9.47562948,3.689 C9.47562948,4.1714 9.41730948,4.0094 9.30390948,4.4738 Z M7.74762948,5.9246 L8.10762948,5.9246 L8.10762948,5.687 L7.74762948,5.687 L7.74762948,5.9246 Z M8.50103477,7.19012192 C8.37849515,7.29178758 8.21619499,7.3538 8.03850948,7.3538 C7.86201356,7.3538 7.69810582,7.29137934 7.57430188,7.18834919 C7.88957895,7.16660702 8.2052987,7.16712012 8.50103477,7.19012192 Z M5.51850948,11.9942 C5.51418948,11.9942 4.18542948,11.9942 3.92694948,11.9978 L4.23114948,12.4946 L3.87582948,12.4946 L3.34986948,11.8466 L3.87582948,11.1986 L4.23114948,11.1986 L3.91146948,11.7206 C4.16670948,11.7206 5.51382948,11.717 5.51850948,11.717 L5.51850948,11.9942 Z M7.07802948,8.8694 C7.10826948,8.6534 7.13022948,8.495 7.13886948,8.4374 L7.14462948,8.4014 C7.16406948,8.261 7.19142948,8.0882 7.20906948,7.9802 C7.73502948,7.8326 8.26458948,7.8326 8.78982948,7.9802 C8.80710948,8.0882 8.83410948,8.261 8.85426948,8.4014 L8.86038948,8.4374 C8.87154948,8.5094 8.89350948,8.6606 8.92230948,8.8694 L7.07802948,8.8694 Z M12.1025495,12.4946 L11.7472295,12.4946 L12.0514295,11.9978 C11.7929495,11.9942 10.4638295,11.9942 10.4598695,11.9942 L10.4598695,11.717 C10.4641895,11.717 11.8116695,11.7206 12.0669095,11.7206 L11.7472295,11.1986 L12.1025495,11.1986 L12.6285095,11.8466 L12.1025495,12.4946 Z M5.98038948,12.6206 C5.98938948,12.3938 6.00234948,12.167 6.01962948,11.9402 C6.03690948,11.7134 6.05670948,11.4866 6.07974948,11.2562 L6.37494948,11.2562 C6.39942948,11.3246 6.42570948,11.393 6.45486948,11.4686 C6.48330948,11.5406 6.51246948,11.6162 6.54198948,11.6882 C6.57186948,11.7602 6.60030948,11.8322 6.62838948,11.9006 C6.65682948,11.969 6.68310948,12.0302 6.70722948,12.0842 C6.73098948,12.0302 6.75690948,11.969 6.78354948,11.9042 C6.81054948,11.8394 6.83826948,11.771 6.86742948,11.699 C6.89586948,11.627 6.92466948,11.5514 6.95346948,11.4758 C6.98262948,11.4038 7.01034948,11.3282 7.03698948,11.2562 L7.33254948,11.2562 C7.35558948,11.4866 7.37538948,11.7134 7.39230948,11.9402 C7.40850948,12.167 7.42038948,12.3938 7.42686948,12.6206 L7.14498948,12.6206 C7.14390948,12.545 7.14210948,12.4694 7.13994948,12.3902 C7.13850948,12.311 7.13562948,12.2318 7.13310948,12.1526 C7.13058948,12.0734 7.12770948,11.9978 7.12446948,11.9222 C7.12122948,11.8466 7.11762948,11.7746 7.11330948,11.7062 C7.07226948,11.807 7.02474948,11.9186 6.97038948,12.0374 C6.91710948,12.1562 6.86166948,12.2714 6.80514948,12.383 L6.59634948,12.383 C6.53982948,12.2678 6.48726948,12.1526 6.43866948,12.041 C6.38970948,11.9294 6.34398948,11.8178 6.30078948,11.7062 C6.29682948,11.7746 6.29214948,11.8466 6.28782948,11.9258 C6.28314948,12.005 6.27882948,12.0842 6.27558948,12.1634 C6.27162948,12.2426 6.26838948,12.3254 6.26622948,12.401 C6.26370948,12.4802 6.26154948,12.5522 6.26046948,12.6206 L5.98038948,12.6206 Z M7.55790948,12.6206 C7.59138948,12.5126 7.62774948,12.3974 7.66662948,12.2822 C7.70550948,12.167 7.74582948,12.0482 7.78758948,11.9294 C7.82898948,11.8142 7.87146948,11.6954 7.91466948,11.5838 C7.95786948,11.4686 7.99998948,11.357 8.04138948,11.2562 L8.34846948,11.2562 C8.38878948,11.357 8.42982948,11.465 8.47194948,11.5802 C8.51478948,11.6954 8.55654948,11.8142 8.59758948,11.933 C8.63862948,12.0518 8.67750948,12.1706 8.71494948,12.2894 C8.75202948,12.4082 8.78658948,12.5162 8.81790948,12.6206 L8.50002948,12.6206 L8.42694948,12.3578 L7.93698948,12.3578 L7.86030948,12.6206 L7.55790948,12.6206 Z M7.99494948,12.1346 L8.35710948,12.1346 C8.32650948,12.023 8.29590948,11.9222 8.26530948,11.8286 C8.23506948,11.7314 8.20662948,11.645 8.18070948,11.5694 C8.14974948,11.6522 8.11914948,11.7386 8.08962948,11.8358 C8.05974948,11.9294 8.02878948,12.0302 7.99494948,12.1346 Z M8.84958948,12.6206 L9.32298948,11.9186 L8.88594948,11.2562 L9.20382948,11.2562 L9.49182948,11.699 L9.79098948,11.2562 L10.0908695,11.2562 L9.64194948,11.9186 L10.1110295,12.6206 L9.78738948,12.6206 L9.47130948,12.1418 L9.14982948,12.6206 L8.84958948,12.6206 Z M7.33254948,3.5162 L7.81458948,2.987 L7.69830948,2.987 L7.13022948,3.617 L7.13022948,2.987 L7.04418948,2.987 L7.04418948,4.1174 L7.13022948,4.1174 L7.13022948,3.7358 L7.27638948,3.5774 L7.74222948,4.1174 L7.85670948,4.1174 L7.33254948,3.5162 Z M8.42658948,3.5234 L8.42658948,3.6098 L8.74338948,3.6098 L8.74338948,4.0058 C8.65554948,4.0346 8.55510948,4.0526 8.46006948,4.0526 C8.19078948,4.0526 8.01330948,3.923 8.01330948,3.5558 C8.01330948,3.1886 8.19078948,3.0554 8.46006948,3.0554 C8.57634948,3.0554 8.68902948,3.0806 8.79594948,3.1238 L8.79594948,3.0374 C8.68722948,2.9978 8.57094948,2.9726 8.44962948,2.9726 C8.13822948,2.9726 7.92546948,3.1418 7.92546948,3.5558 C7.92546948,3.9698 8.14002948,4.1318 8.45142948,4.1318 C8.57994948,4.1318 8.71350948,4.1102 8.83122948,4.0526 L8.83122948,3.5234 L8.42658948,3.5234 Z" id="equipaje_voluminoso_y_pesado"></path>
        </g>
    </g>
</svg>