<?xml version="1.0" encoding="UTF-8" standalone="no"?>
<svg width="16px" height="16px" viewBox="0 0 16 16" version="1.1" xmlns="http://www.w3.org/2000/svg" xmlns:xlink="http://www.w3.org/1999/xlink">
    <!-- Generator: Sketch 3.6.1 (26313) - http://www.bohemiancoding.com/sketch -->
    <title>obj_explosivos</title>
    <desc>Created with Sketch.</desc>
    <defs></defs>
    <g id="Page-1" stroke="none" stroke-width="1" fill="none" fill-rule="evenodd">
        <g id="obj_explosivos" fill="#000000">
            <path d="M13.94324,5.7968 L10.28492,8.5148 L10.56212,7.0928 L9.3698,8.5148 L9.3698,3.86 L7.00748,7.3808 L4.79636,3.0752 L4.79636,7.9496 L2.96756,5.7968 L3.88196,9.422 L2.05676,8.0288 C2.05676,8.0288 2.70188,10.4408 2.978,10.9988 C3.43196,12.1724 4.03748,12.8276 4.03748,12.8276 C4.03748,12.8276 5.07608,12.8708 6.00704,12.9176 L5.01632,10.4408 L6.00704,11.114 L5.80868,8.8028 L6.9974,10.718 L8.2808,9.0368 L8.63396,11.2508 L10.5506,9.8684 L8.9774,12.9248 C9.9278,12.878 10.96892,12.8312 10.96892,12.8312 C10.96892,12.8312 11.72348,12.5648 12.176,11.6684 C12.42944,11.168 12.94964,10.0088 12.94964,10.0088 L11.19968,11.1284 L13.94324,5.7968" id="explosivos"></path>
        </g>
    </g>
</svg>