<?xml version="1.0" encoding="UTF-8" standalone="no"?>
<svg width="16px" height="16px" viewBox="0 0 16 16" version="1.1" xmlns="http://www.w3.org/2000/svg" xmlns:xlink="http://www.w3.org/1999/xlink">
    <!-- Generator: Sketch 3.6.1 (26313) - http://www.bohemiancoding.com/sketch -->
    <title>obj_material_radiactivo</title>
    <desc>Created with Sketch.</desc>
    <defs></defs>
    <g id="Page-1" stroke="none" stroke-width="1" fill="none" fill-rule="evenodd">
        <g id="obj_material_radiactivo" fill="#000000">
            <path d="M8.00018,3.0032 C5.24042,3.0032 3.00302,5.2388 3.00302,8 C3.00302,10.7576 5.24042,12.9968 8.00018,12.9968 C10.75994,12.9968 12.99698,10.7576 12.99698,8 C12.99698,5.2388 10.75994,3.0032 8.00018,3.0032 M8.00018,11.762 C5.92442,11.762 4.23602,10.0736 4.23602,8 C4.23602,5.9228 5.92442,4.2344 8.00018,4.2344 C10.07594,4.2344 11.76434,5.9228 11.76434,8 C11.76434,10.0736 10.07594,11.762 8.00018,11.762 Z M7.95914,8.5472 C8.25146,8.5472 8.48762,8.3096 8.48762,8.018 C8.48762,7.7264 8.25146,7.4888 7.95914,7.4888 C7.66682,7.4888 7.43102,7.7264 7.43102,8.018 C7.43102,8.3096 7.66682,8.5472 7.95914,8.5472 Z M9.40274,5.6852 L8.59094,7.1468 C8.80658,7.2728 8.98982,7.496 8.98982,7.7624 L8.98982,7.8092 L10.6271,7.8092 C10.6253,6.6716 10.18034,6.1352 9.40274,5.6852 Z M7.09154,7.82 C7.09154,7.5536 7.19306,7.3196 7.40798,7.1936 L6.53714,5.7212 C6.18038,5.93 5.86034,6.218 5.64002,6.6032 C5.41826,6.9848 5.28218,7.4312 5.2829,7.8092 L7.09154,7.8092 L7.09154,7.82 Z M7.96022,9.0224 C7.8299,9.0224 7.7057,8.9864 7.59986,8.9252 L6.74774,10.4012 C7.52426,10.8512 8.44514,10.8224 9.17054,10.4048 L8.31806,8.9288 C8.21294,8.9864 8.09054,9.0224 7.96022,9.0224 Z" id="material_radiactivo"></path>
        </g>
    </g>
</svg>