<?xml version="1.0" encoding="UTF-8" standalone="no"?>
<svg width="16px" height="16px" viewBox="0 0 16 16" version="1.1" xmlns="http://www.w3.org/2000/svg" xmlns:xlink="http://www.w3.org/1999/xlink">
    <!-- Generator: Sketch 3.6.1 (26313) - http://www.bohemiancoding.com/sketch -->
    <title>obj_materiales_oxidantes</title>
    <desc>Created with Sketch.</desc>
    <defs></defs>
    <g id="Page-1" stroke="none" stroke-width="1" fill="none" fill-rule="evenodd">
        <g id="obj_materiales_oxidantes" fill="#000000">
            <path d="M12.2381029,9.1376 C12.1034629,10.1492 11.6354629,10.934 11.1303829,11.4524 C11.1581029,10.1744 10.5191029,9.2276 9.60002292,8.8208 C9.65186292,8.2268 9.24110292,7.3268 9.24110292,7.3268 C9.24110292,7.3268 8.72666292,8.0216 8.57510292,8.3672 C8.23022292,7.64 7.46306292,6.398 7.46306292,6.398 C7.46306292,6.398 6.78122292,7.8164 6.49142292,8.9252 C5.65802292,9.2852 4.80014292,10.1744 4.85270292,11.582 C4.53050292,11.2688 4.22630292,10.8908 4.03226292,10.4444 C2.90690292,7.8524 5.19902292,4.1516 5.19902292,4.1516 C5.19902292,4.1516 5.85314292,5.3396 6.01946292,5.9516 C6.03314292,5.5232 7.01882292,2.7008 7.01882292,2.7008 C7.01882292,2.7008 7.71290292,3.7088 8.21366292,4.5908 C8.70218292,3.7304 9.38042292,2.0204 9.38042292,2.0204 C9.38042292,2.0204 9.99674292,2.8052 10.7135029,4.0904 C12.1268629,6.6284 12.3972229,7.9388 12.2381029,9.1376 M8.00018292,9.2564 C6.71354292,9.2564 5.54678292,10.3148 5.54678292,11.7008 C5.54678292,13.0832 6.71354292,13.9796 7.99226292,13.9796 C9.26882292,13.9796 10.4381029,13.0832 10.4381029,11.7008 C10.4381029,10.3148 9.60218292,9.2564 8.00018292,9.2564" id="materiales_oxidantes"></path>
        </g>
    </g>
</svg>