<?xml version="1.0" encoding="UTF-8" standalone="no"?>
<svg width="16px" height="16px" viewBox="0 0 16 16" version="1.1" xmlns="http://www.w3.org/2000/svg" xmlns:xlink="http://www.w3.org/1999/xlink">
    <!-- Generator: Sketch 3.6.1 (26313) - http://www.bohemiancoding.com/sketch -->
    <title>obj_botella</title>
    <desc>Created with Sketch.</desc>
    <defs></defs>
    <g id="Page-1" stroke="none" stroke-width="1" fill="none" fill-rule="evenodd">
        <g id="obj_botella" fill="#000000">
            <path d="M9.36166112,4.32642559 L9.29650112,2.24922559 C9.29650112,1.73082559 6.72034112,1.73082559 6.71854112,2.24562559 L6.64978112,4.32282559 C2.68618112,8.29002559 5.23966112,13.6828256 5.23966112,13.6828256 C5.23966112,13.6828256 6.18898112,14.1400256 7.99258112,14.1400256 C9.79726112,14.1400256 10.7314611,13.6036256 10.7314611,13.6036256 C10.7314611,13.6036256 13.3367811,8.29002559 9.36166112,4.32642559 M9.93586112,12.5128256 C9.93586112,12.5128256 9.27346112,12.9196256 7.99510112,12.9196256 C6.71602112,12.9196256 6.04354112,12.5704256 6.04354112,12.5704256 C6.04354112,12.5704256 4.23310112,8.49522559 7.04218112,5.49282559 L8.96494112,5.49282559 C11.7823011,8.49522559 9.93586112,12.5128256 9.93586112,12.5128256" id="botella"></path>
        </g>
    </g>
</svg>