<?xml version="1.0" encoding="UTF-8" standalone="no"?>
<svg width="16px" height="16px" viewBox="0 0 16 16" version="1.1" xmlns="http://www.w3.org/2000/svg" xmlns:xlink="http://www.w3.org/1999/xlink">
    <!-- Generator: Sketch 3.6.1 (26313) - http://www.bohemiancoding.com/sketch -->
    <title>obj_pilas_y_baterias</title>
    <desc>Created with Sketch.</desc>
    <defs></defs>
    <g id="Page-1" stroke="none" stroke-width="1" fill="none" fill-rule="evenodd">
        <g id="obj_pilas_y_baterias" fill="#000000">
            <path d="M3.3623,11.4722 L12.59918,11.4722 L12.59918,5.3486 L3.3623,5.3486 L3.3623,11.4722 Z M11.5757,3.93628213 C12.312142,3.98632374 13.0443299,4.0516322 13.77206,4.1318 C13.92866,5.5466 14.0111,6.9758 14.0111,8.423 C14.0111,9.8702 13.92866,11.2994 13.77206,12.7142 C11.87666,12.923 9.95102,13.031 7.99874,13.031 C6.04718,13.031 4.12154,12.923 2.22686,12.7178 C2.0699,11.2994 1.9889,9.8702 1.9889,8.423 C1.9889,6.9758 2.0699,5.5466 2.22686,4.1318 C2.96671911,4.05026508 3.71129914,3.98410062 4.4603,3.93373534 L4.4603,2.969 L5.67314,2.969 L5.67314,3.86622541 C6.44399129,3.8322277 7.21929832,3.815 7.99874,3.815 C8.79149299,3.815 9.57985334,3.83280801 10.36358,3.86794194 L10.36358,2.969 L11.5757,2.969 L11.5757,3.93628348 Z M10.43702,7.1882 C10.5281,7.1774 10.89422,7.1774 10.9853,7.1882 C11.0177,7.4798 11.0375,7.7714 11.04722,8.0702 C11.34386,8.0774 11.63726,8.099 11.92814,8.1314 C11.93822,8.2214 11.93822,8.5886 11.92814,8.6786 C11.63726,8.711 11.34386,8.7326 11.04866,8.7398 C11.04002,9.0494 11.01842,9.3554 10.9853,9.6578 C10.8953,9.6686 10.5281,9.6686 10.43702,9.6578 C10.40426,9.3554 10.3823,9.0494 10.37366,8.7434 C10.06622,8.7326 9.76094,8.711 9.45746,8.6786 C9.44774,8.5886 9.44774,8.2214 9.45818,8.1314 C9.76094,8.099 10.06694,8.0774 10.3751,8.0666 C10.38446,7.7714 10.4057,7.4798 10.43702,7.1882 Z M6.55298,8.1638 C6.26174,8.1314 5.76278,8.0738 5.31746,8.0738 C5.00714,8.0738 4.38542,8.1278 4.0823,8.1638 C4.07762,8.207 4.07546,8.3114 4.07546,8.423 C4.07546,8.5346 4.07762,8.6426 4.0823,8.6858 C4.38542,8.7182 5.00714,8.7722 5.31746,8.7722 C5.76278,8.7722 6.26174,8.7182 6.55298,8.6858 C6.55766,8.639 6.55982,8.5346 6.55982,8.423 C6.55982,8.3114 6.55766,8.207 6.55298,8.1638 Z M4.4603,3.93373534 C4.86331566,3.90663524 5.26761125,3.88410932 5.67314,3.86622438 L5.67314,4.0598 L4.4603,4.0598 L4.4603,3.93373669 Z M11.5757,3.93628213 C11.1729214,3.90891311 10.7688703,3.88611083 10.36358,3.86794194 L10.36358,4.0598 L11.5757,4.0598 L11.5757,3.93628348 Z" id="pilas_y_baterias"></path>
        </g>
    </g>
</svg>