<?xml version="1.0" encoding="UTF-8" standalone="no"?>
<svg width="16px" height="16px" viewBox="0 0 16 16" version="1.1" xmlns="http://www.w3.org/2000/svg" xmlns:xlink="http://www.w3.org/1999/xlink">
    <!-- Generator: Sketch 3.6.1 (26313) - http://www.bohemiancoding.com/sketch -->
    <title>obj_paraguas_lluvia</title>
    <desc>Created with Sketch.</desc>
    <defs></defs>
    <g id="Page-1" stroke="none" stroke-width="1" fill="none" fill-rule="evenodd">
        <g id="obj_paraguas_lluvia" fill="#000000">
            <path d="M7.5041,10.7288 C7.5041,11.0276 7.41986,11.2256 7.00802,11.2256 C6.67898,11.2256 6.5123,11.0564 6.5123,10.7288 L5.51978,10.7288 C5.51978,11.6036 6.13178,12.2156 7.00802,12.2156 C7.91198,12.2156 8.49662,11.6324 8.49662,10.7288 L8.49662,8.414 L7.5041,8.414 L7.5041,10.7288 Z M8.49662,4.5332 L8.49662,3.7844 L7.5041,3.7844 L7.5041,4.5332 C5.3981,4.7384 3.76262,6.2396 3.76262,8.414 C3.76262,8.414 4.38254,7.7516 5.18858,7.7516 C5.99534,7.7516 6.67718,8.414 6.67718,8.414 C6.67718,8.414 7.1729,7.7516 8.00054,7.7516 C8.82818,7.7516 9.32354,8.414 9.32354,8.414 C9.32354,8.414 9.9899,7.7516 10.81142,7.7516 C11.63294,7.7516 12.23738,8.414 12.23738,8.414 C12.23738,6.2396 10.60226,4.7384 8.49662,4.5332 Z" id="paraguas_lluvia"></path>
        </g>
    </g>
</svg>