<?xml version="1.0" encoding="UTF-8" standalone="no"?>
<svg width="16px" height="16px" viewBox="0 0 16 16" version="1.1" xmlns="http://www.w3.org/2000/svg" xmlns:xlink="http://www.w3.org/1999/xlink">
    <!-- Generator: Sketch 3.6.1 (26313) - http://www.bohemiancoding.com/sketch -->
    <title>obj_arma_de_fuego</title>
    <desc>Created with Sketch.</desc>
    <defs></defs>
    <g id="Page-1" stroke="none" stroke-width="1" fill="none" fill-rule="evenodd">
        <g id="obj_arma_de_fuego" fill="#000000">
            <path d="M13.38326,4.598 C13.38326,4.3532 13.1831,4.1552 12.93722,4.1552 L2.6873,4.1552 C2.4425,4.1552 2.17178,6.38 2.17178,6.38 L2.50694,6.38 C2.50694,6.38 2.43026,7.8272 2.41514,8.7704 C2.39426,10.0556 2.41514,11.8448 2.41514,11.8448 L6.08606,11.8412 C6.08606,11.8412 6.24842,11.1896 6.41366,9.4976 L8.04014,9.4976 C9.22598,9.4976 9.8207,8.3564 9.8207,7.7156 L9.8207,6.8264 L12.93722,6.8264 C13.1831,6.8264 13.38326,6.6248 13.38326,6.38 C13.62806,6.38 13.82822,6.182 13.82822,5.9372 L13.82822,5.0444 C13.82822,4.7996 13.62806,4.598 13.38326,4.598 M8.93006,7.7156 C8.93006,7.9316 8.66258,8.6048 8.04014,8.6048 L6.49286,8.6048 C6.51158,8.3816 6.52922,8.1476 6.5465,7.892 C6.55082,7.8416 6.5735,7.7588 6.61418,7.6616 C6.86402,7.9712 7.25354,8.1296 7.64126,8.1296 C7.82018,8.1296 7.96562,8 7.96562,7.82 C7.96562,7.55 7.38098,7.6652 7.3133,6.9704 C7.50878,6.884 7.74638,6.8264 8.0387,6.8264 L8.93006,6.8264 L8.93006,7.7156" id="arma_de_fuego"></path>
        </g>
    </g>
</svg>