<?xml version="1.0" encoding="UTF-8" standalone="no"?>
<svg width="16px" height="16px" viewBox="0 0 16 16" version="1.1" xmlns="http://www.w3.org/2000/svg" xmlns:xlink="http://www.w3.org/1999/xlink">
    <!-- Generator: Sketch 3.6.1 (26313) - http://www.bohemiancoding.com/sketch -->
    <title>obj_herramienta</title>
    <desc>Created with Sketch.</desc>
    <defs></defs>
    <g id="Page-1" stroke="none" stroke-width="1" fill="none" fill-rule="evenodd">
        <g id="obj_herramienta" fill="#000000">
            <path d="M13.2781799,4.89035713 C13.2781799,4.89035713 11.9386199,6.24035713 11.8014599,6.37715713 C11.6642999,6.51395713 11.2034999,6.49955713 11.2034999,6.49955713 C11.2034999,6.49955713 9.9805799,6.36275713 9.8045399,6.18635713 C9.6288599,6.00995713 9.5068199,4.73195713 9.5068199,4.73195713 C9.5068199,4.73195713 9.4740599,4.37555713 9.6490199,4.19915713 C9.8250599,4.02275713 11.1318599,2.71595713 11.1318599,2.71595713 C11.1318599,2.71595713 11.2999799,2.52875713 11.0573399,2.52875713 C10.2736199,2.52515713 8.6798999,2.54315713 7.9080599,3.31355713 L7.7492999,3.47555713 C6.8363399,4.38995713 6.7769399,5.77235713 7.5098999,6.76235713 L3.0005399,10.8411571 C2.6416199,11.2011571 2.1692999,12.1767571 3.0005399,13.0083571 C3.8321399,13.8399571 4.8073799,13.3683571 5.1662999,13.0083571 L9.2440199,8.50115713 C10.2318599,9.24275713 11.6128199,9.18515713 12.5297399,8.26715713 L12.6884999,8.10875713 C13.4358599,7.35995713 13.4588999,5.77955713 13.4621399,4.98035713 C13.4642999,4.72835713 13.2781799,4.89035713 13.2781799,4.89035713 M4.2018599,12.5475571 C3.7828199,12.5475571 3.4433399,12.2055571 3.4433399,11.7879571 C3.4433399,11.3703571 3.7828199,11.0283571 4.2018599,11.0283571 C4.6216199,11.0283571 4.9610999,11.3703571 4.9610999,11.7879571 C4.9610999,12.2055571 4.6216199,12.5475571 4.2018599,12.5475571" id="herramienta"></path>
        </g>
    </g>
</svg>