<?xml version="1.0" encoding="UTF-8" standalone="no"?>
<svg width="16px" height="16px" viewBox="0 0 16 16" version="1.1" xmlns="http://www.w3.org/2000/svg" xmlns:xlink="http://www.w3.org/1999/xlink">
    <!-- Generator: Sketch 3.6.1 (26313) - http://www.bohemiancoding.com/sketch -->
    <title>obj_punzantes</title>
    <desc>Created with Sketch.</desc>
    <defs></defs>
    <g id="Page-1" stroke="none" stroke-width="1" fill="none" fill-rule="evenodd">
        <g id="obj_punzantes" fill="#000000">
            <path d="M6.63081722,11.2415972 L7.59633722,10.0247972 L9.59217722,7.51559718 L13.9413372,2.88959718 L13.8488172,2.79599718 L12.7248972,3.57719718 C13.0290972,3.19199718 13.2994572,2.85359718 13.5435372,2.54759718 L13.4376972,2.46479718 C12.0628572,3.87239718 7.69857722,6.95759718 7.69857722,6.95759718 L4.93485722,8.78639718 L4.29801722,9.20759718 C3.59601722,9.33719718 2.79501722,9.35159718 2.48793722,9.57839718 C1.98825722,9.94559718 1.91373722,10.6655972 2.32269722,11.1911972 C2.73129722,11.7167972 3.46821722,11.8427972 3.96933722,11.4755972 C4.44741722,11.1227972 4.69725722,9.76199718 5.30709722,9.21119718 L5.75565722,8.91239718 L7.52613722,9.18959718 L7.52865722,9.21119718 L6.58185722,10.4027972 C5.98101722,10.9607972 4.62849722,11.2055972 4.29873722,11.6195972 C3.91425722,12.1019972 4.02225722,12.8363972 4.54101722,13.2539972 C5.05941722,13.6715972 5.79309722,13.6175972 6.17685722,13.1351972 C6.44793722,12.7931972 6.46737722,11.9435972 6.63081722,11.2415972 M3.64065722,11.0975972 C3.33177722,11.2559972 2.93217722,11.1227972 2.75145722,10.8023972 C2.56857722,10.4855972 2.67441722,10.1003972 2.98365722,9.94199718 C3.29433722,9.78719718 3.83721722,9.78719718 4.01829722,10.1075972 C4.20009722,10.4243972 3.95097722,10.9427972 3.64065722,11.0975972 M8.00601722,8.07359718 C7.80081722,7.90799718 7.75869722,7.61999718 7.91097722,7.42559718 C7.97217722,7.34999718 8.05857722,7.30679718 8.15217722,7.28519718 L8.28429722,8.17799718 C8.18709722,8.17079718 8.09025722,8.14199718 8.00601722,8.07359718 M8.41281722,8.16719718 L8.28177722,7.27439718 C8.37789722,7.28519718 8.47581722,7.31039718 8.55897722,7.37879718 C8.76417722,7.54439718 8.80629722,7.83239718 8.65509722,8.02679718 C8.59173722,8.10599718 8.50641722,8.14559718 8.41281722,8.16719718 M4.90029722,12.8327972 C4.59789722,12.5879972 4.53489722,12.1631972 4.75953722,11.8787972 C4.98237722,11.5979972 5.49573722,11.4611972 5.79741722,11.7023972 C6.09981722,11.9471972 6.07893722,12.4799972 5.85429722,12.7643972 C5.63037722,13.0451972 5.20197722,13.0775972 4.90029722,12.8327972" id="objetos_punzantes"></path>
        </g>
    </g>
</svg>