<?xml version="1.0" encoding="UTF-8" standalone="no"?>
<svg width="16px" height="16px" viewBox="0 0 16 16" version="1.1" xmlns="http://www.w3.org/2000/svg" xmlns:xlink="http://www.w3.org/1999/xlink">
    <!-- Generator: Sketch 3.6.1 (26313) - http://www.bohemiancoding.com/sketch -->
    <title>obj_liquidos</title>
    <desc>Created with Sketch.</desc>
    <defs></defs>
    <g id="Page-1" stroke="none" stroke-width="1" fill="none" fill-rule="evenodd">
        <g id="obj_liquidos" fill="#000000">
            <path d="M9.31872549,4.49022559 C12.3027655,4.78542559 12.3052855,13.9726256 9.28092549,13.9726256 L6.57264549,13.9726256 C3.73332549,13.9726256 3.73116549,4.78542559 6.61008549,4.48662559 L6.67920549,2.41302559 C6.68028549,1.89822559 9.25320549,1.89822559 9.25320549,2.41662559 L9.31872549,4.49022559 L9.31872549,4.49022559 Z M5.59452549,8.96862559 C5.60604549,9.86862559 5.72016549,11.4382256 6.40200549,12.3130256 C6.77388549,12.7918256 7.29012549,12.7270256 8.01120549,12.7270256 C8.73120549,12.7270256 9.26544549,12.6442256 9.63660549,12.1654256 C10.3026055,11.3122256 10.4041255,9.85062559 10.4055655,8.96862559 L5.59452549,8.96862559 L5.59452549,8.96862559 Z" id="liquidos"></path>
        </g>
    </g>
</svg>