<?xml version="1.0" encoding="UTF-8" standalone="no"?>
<svg width="16px" height="16px" viewBox="0 0 16 16" version="1.1" xmlns="http://www.w3.org/2000/svg" xmlns:xlink="http://www.w3.org/1999/xlink">
    <!-- Generator: Sketch 3.6.1 (26313) - http://www.bohemiancoding.com/sketch -->
    <title>obj_bolsa_de_liquido</title>
    <desc>Created with Sketch.</desc>
    <defs></defs>
    <g id="Page-1" stroke="none" stroke-width="1" fill="none" fill-rule="evenodd">
        <g id="obj_bolsa_de_liquido" fill="#000000">
            <path d="M12.41234,2.0654 C10.95758,1.9034 9.48662,1.8206 8.00018,1.8206 C6.51338,1.8206 5.04242,1.9034 3.58766,2.0654 C3.37454,4.013 3.26366,5.993 3.26366,7.9982 C3.26366,10.0034 3.37454,11.9834 3.58766,13.9346 C5.04242,14.093 6.51338,14.1794 8.00018,14.1794 C9.4859,14.1794 10.95758,14.093 12.41234,13.9346 C12.62546,11.9834 12.73634,10.0034 12.73634,7.9982 C12.73634,5.993 12.62546,4.013 12.41234,2.0654 L12.41234,2.0654 Z M4.17374,13.3874 L11.82734,13.3874 L11.82734,4.1498 L4.17374,4.1498 L4.17374,13.3874 Z M4.1759,3.6926 L11.85434,3.6926 L11.85434,3.4082 L4.1759,3.4082 L4.1759,3.6926 Z M8.95274,6.2414 L8.90738,4.8014 C8.90738,4.445 7.12286,4.4414 7.12142,4.7978 L7.07354,6.2378 C5.07734,6.443 5.07878,12.8186 7.04834,12.8186 L8.9261,12.8186 C11.02418,12.8186 11.02238,6.443 8.95274,6.2414 Z M9.70658,9.3446 C9.70586,9.9566 9.6353,10.9718 9.17306,11.5658 C8.91566,11.897 8.54558,11.951 8.0459,11.951 C7.54622,11.951 7.18766,11.9978 6.93026,11.6666 C6.4565,11.0582 6.37766,9.971 6.3701,9.3446 L9.70658,9.3446 Z M6.97022,8.5562 L6.95978,8.675 L6.46622,8.675 L6.46622,8.5562 L6.6509,8.5562 L6.6509,8.1242 C6.61274,8.1422 6.53894,8.1638 6.4835,8.171 L6.4565,8.0414 C6.54254,8.027 6.6347,7.9946 6.69446,7.9622 L6.79706,7.9622 L6.79706,8.5562 L6.97022,8.5562 Z M7.62722,8.3366 C7.62722,8.4626 7.60634,8.5418 7.5617,8.5994 C7.51382,8.657 7.4411,8.6858 7.3403,8.6858 C7.2359,8.6858 7.16282,8.657 7.1171,8.603 C7.07282,8.5454 7.05122,8.4662 7.05122,8.3366 L7.05122,8.2898 C7.05122,8.1746 7.07282,8.0882 7.1171,8.0342 C7.16282,7.9802 7.2359,7.9514 7.3403,7.9514 C7.4411,7.9514 7.51382,7.9802 7.5617,8.0414 C7.60634,8.0954 7.62722,8.1746 7.62722,8.2934 L7.62722,8.3366 Z M8.26118,8.3366 C8.26118,8.4626 8.23958,8.5418 8.19602,8.5994 C8.14742,8.657 8.0747,8.6858 7.97354,8.6858 C7.8695,8.6858 7.7975,8.657 7.7507,8.603 C7.70642,8.5454 7.6859,8.4662 7.6859,8.3366 L7.6859,8.2898 C7.6859,8.1746 7.70642,8.0882 7.7507,8.0342 C7.7975,7.9802 7.8695,7.9514 7.97354,7.9514 C8.0747,7.9514 8.14742,7.9802 8.19602,8.0414 C8.23958,8.0954 8.26118,8.1746 8.26118,8.2934 L8.26118,8.3366 Z M9.31058,8.675 L9.16802,8.675 L9.16802,8.3654 C9.16802,8.3366 9.16514,8.315 9.15506,8.3006 C9.14462,8.2862 9.12626,8.279 9.09746,8.279 C9.06398,8.279 9.02546,8.2898 8.99954,8.3114 L8.99954,8.675 L8.85734,8.675 L8.85734,8.3654 C8.85734,8.3366 8.8541,8.315 8.8433,8.3006 C8.83322,8.2862 8.81486,8.279 8.78678,8.279 C8.7533,8.279 8.71406,8.2898 8.68742,8.3114 L8.68742,8.675 L8.54558,8.675 L8.54558,8.3114 C8.54558,8.2574 8.54414,8.2214 8.53622,8.1782 L8.65718,8.1602 L8.6705,8.1998 C8.7173,8.1746 8.76374,8.1566 8.8163,8.1566 C8.87354,8.1566 8.9207,8.171 8.95886,8.2142 C9.01718,8.1746 9.0719,8.1566 9.12698,8.1566 C9.1853,8.1566 9.23138,8.1746 9.26162,8.2034 C9.29402,8.2358 9.31058,8.2826 9.31058,8.3474 L9.31058,8.675 Z M9.67958,8.6642 C9.64898,8.675 9.60578,8.6786 9.5741,8.6786 C9.46466,8.6786 9.42722,8.6174 9.42722,8.5202 L9.42722,7.9334 L9.56942,7.9334 L9.56942,8.5022 C9.5705,8.5382 9.57878,8.567 9.61802,8.567 C9.63314,8.567 9.65582,8.5598 9.66482,8.5598 L9.67958,8.6642 Z M8.08226,8.513 C8.10998,8.4662 8.1125,8.3978 8.1125,8.3402 L8.1125,8.297 C8.1125,8.2178 8.10098,8.1494 8.07902,8.1206 C8.05526,8.0882 8.02574,8.0774 7.97714,8.0774 C7.93106,8.0774 7.89398,8.0882 7.87058,8.117 C7.8461,8.1494 7.83386,8.2178 7.83386,8.297 L7.83386,8.3402 C7.83386,8.4122 7.83998,8.4734 7.86446,8.513 C7.88354,8.5454 7.9181,8.5634 7.97354,8.5634 C8.02862,8.5634 8.06282,8.5418 8.08226,8.513 Z M7.44758,8.513 C7.47566,8.4662 7.47926,8.3978 7.47926,8.3402 L7.47926,8.297 C7.47926,8.2178 7.46774,8.1494 7.44506,8.1206 C7.42094,8.0882 7.39142,8.0774 7.34246,8.0774 C7.29674,8.0774 7.26002,8.0882 7.23662,8.117 C7.21142,8.1494 7.20026,8.2178 7.20026,8.297 L7.20026,8.3402 C7.20026,8.4122 7.20602,8.4734 7.2305,8.513 C7.24922,8.5454 7.28378,8.5634 7.3403,8.5634 C7.39466,8.5634 7.42886,8.5418 7.44758,8.513 Z" id="bolsa_de_liquido"></path>
        </g>
    </g>
</svg>