<?xml version="1.0" encoding="UTF-8" standalone="no"?>
<svg width="16px" height="16px" viewBox="0 0 16 16" version="1.1" xmlns="http://www.w3.org/2000/svg" xmlns:xlink="http://www.w3.org/1999/xlink">
    <!-- Generator: Sketch 3.6.1 (26313) - http://www.bohemiancoding.com/sketch -->
    <title>obj_bandeja_de_inspeccion</title>
    <desc>Created with Sketch.</desc>
    <defs></defs>
    <g id="Page-1" stroke="none" stroke-width="1" fill="none" fill-rule="evenodd">
        <g id="obj_bandeja_de_inspeccion" fill="#000000">
            <path d="M13.98662,12.5232591 L13.98662,3.48365914 C12.06098,3.27485914 9.9611,3.18485914 7.89542,3.18845914 C5.82614,3.19205914 3.79358,3.29645914 2.01338,3.48365914 L2.01338,12.5196591 C3.79358,12.7032591 5.82614,12.8076591 7.89794,12.8112591 C9.9611,12.8184591 12.06098,12.7248591 13.98662,12.5232591 L13.98662,12.5232591 Z M8.21222,7.90085914 C8.21222,9.06005914 8.15138,10.2012591 8.03366,11.3244591 C7.23446,11.4180591 6.4259,11.4684591 5.60906,11.4684591 C4.79258,11.4684591 3.98474,11.4180591 3.1859,11.3244591 C3.06782,10.2012591 3.00734,9.06005914 3.00734,7.90085914 C3.00734,6.74165914 3.06782,5.60045914 3.18482,4.47725914 C3.98474,4.38365914 4.79258,4.33685914 5.60906,4.33685914 C6.4259,4.33685914 7.23446,4.38365914 8.03366,4.47725914 C8.15138,5.60045914 8.21222,6.74165914 8.21222,7.90085914 L8.21222,7.90085914 Z M13.05926,6.92165914 C12.99626,7.12325914 12.76982,7.68125914 12.68594,7.88645914 C13.18346,8.04845914 13.14926,8.65685914 12.9113,9.42005914 C12.83282,9.66845914 12.50378,10.4676591 12.50378,10.4676591 L12.23198,10.4676591 L12.23198,9.33365914 C11.6765,9.36245914 11.13074,9.91325914 11.08862,10.4604591 L9.06038,10.4604591 C9.06038,10.0752591 9.47366,9.70805914 9.90098,9.54965914 C10.17062,9.45245914 10.21022,9.44885914 10.21022,9.44885914 L11.89682,7.90805914 C11.89682,7.90805914 12.1211,7.83605914 12.37994,7.83605914 L12.37994,6.83165914 C11.82446,6.86405914 11.27906,7.41485914 11.23586,7.96205914 L9.20798,7.96205914 C9.20798,7.57685914 9.62126,7.20965914 10.0493,7.05125914 C10.31786,6.95405914 10.35782,6.95045914 10.35782,6.95045914 L12.04406,5.40965914 C12.04406,5.40965914 12.44294,5.28005914 12.78998,5.36645914 C13.3379,5.50685914 13.30406,6.13325914 13.05926,6.92165914 L13.05926,6.92165914 Z M11.08286,6.92885914 L12.55994,5.55725914 L12.1967,5.55725914 L10.7261,6.92885914 L11.08286,6.92885914 L11.08286,6.92885914 Z M12.41162,8.05565914 L12.04982,8.05565914 L10.57814,9.42725914 L10.93598,9.42725914 L12.41162,8.05565914 L12.41162,8.05565914 Z M3.50846,5.41325914 L7.7273,5.41325914 L7.7273,5.25125914 L3.50846,5.25125914 L3.50846,5.41325914 Z M3.50666,11.0112591 L7.71218,11.0112591 L7.71218,5.67965914 L3.50666,5.67965914 L3.50666,11.0112591 Z M6.1037,10.5252591 L5.05934,10.5252591 C3.96458,10.5252591 3.96422,7.13045914 5.07446,7.02245914 L5.10002,6.25565914 C5.1011,6.06485914 6.09326,6.06485914 6.09326,6.25565914 L6.11846,7.02245914 C7.26866,7.13045914 7.26902,10.5252591 6.1037,10.5252591 L6.1037,10.5252591 Z M6.24086,9.85925914 C6.49718,9.54245914 6.53678,9.00245914 6.5375,8.67485914 L4.68206,8.67485914 C4.68674,9.00965914 4.73066,9.58925914 4.99346,9.91325914 C5.13674,10.0860591 5.33654,10.0644591 5.6141,10.0644591 C5.89202,10.0644591 6.09758,10.0356591 6.24086,9.85925914 L6.24086,9.85925914 Z" id="bandeja_de_inspeccion"></path>
        </g>
    </g>
</svg>