<?xml version="1.0" encoding="UTF-8" standalone="no"?>
<svg width="16px" height="16px" viewBox="0 0 16 16" version="1.1" xmlns="http://www.w3.org/2000/svg" xmlns:xlink="http://www.w3.org/1999/xlink">
    <!-- Generator: Sketch 3.6.1 (26313) - http://www.bohemiancoding.com/sketch -->
    <title>obj_inflamables</title>
    <desc>Created with Sketch.</desc>
    <defs></defs>
    <g id="Page-1" stroke="none" stroke-width="1" fill="none" fill-rule="evenodd">
        <g id="obj_inflamables" fill="#000000">
            <path d="M11.0998456,4.40940757 C11.0998456,4.40940757 9.92732558,5.21580757 9.49352558,6.20580757 C8.51108558,4.12860757 6.33020558,2.04420757 6.33020558,2.04420757 C6.33020558,2.04420757 6.16352558,2.68500757 5.36720558,4.11420757 C3.79832558,6.92940757 3.11180558,8.61060757 3.28748558,9.94260757 C3.69788558,13.0278076 6.67004558,13.7478076 6.67004558,13.7478076 C8.70584558,14.3562076 11.4159256,13.6470076 12.3940456,11.3934076 C13.6436056,8.51700757 11.0998456,4.40940757 11.0998456,4.40940757 M9.69800558,11.0226076 C9.31712558,11.8974076 8.26232558,12.1746076 7.46960558,11.9370076 C7.46960558,11.9370076 6.31364558,11.6562076 6.15380558,10.4574076 C6.08612558,9.93900757 6.35252558,9.28380757 6.96308558,8.18940757 C7.27304558,7.63140757 7.33784558,7.38300757 7.33784558,7.38300757 C7.33784558,7.38300757 8.18708558,8.19660757 8.56904558,9.00300757 C8.73788558,8.61780757 9.19364558,8.30460757 9.19364558,8.30460757 C9.19364558,8.30460757 10.1840056,9.90300757 9.69800558,11.0226076" id="inflamables"></path>
        </g>
    </g>
</svg>