<?xml version="1.0" encoding="UTF-8" standalone="no"?>
<svg width="16px" height="16px" viewBox="0 0 16 16" version="1.1" xmlns="http://www.w3.org/2000/svg" xmlns:xlink="http://www.w3.org/1999/xlink">
    <!-- Generator: Sketch 3.6.1 (26313) - http://www.bohemiancoding.com/sketch -->
    <title>obj_biohazard</title>
    <desc>Created with Sketch.</desc>
    <defs></defs>
    <g id="Page-1" stroke="none" stroke-width="1" fill="none" fill-rule="evenodd">
        <g id="obj_biohazard" fill="#000000">
            <path d="M7.43909408,9.06787942 L7.19645408,9.20827942 C7.82933408,10.4358794 7.39805408,11.9514794 6.19097408,12.6462794 C5.09441408,13.2834794 3.73181408,13.0206794 2.93189408,12.0990794 L2.91929408,12.1062794 C4.03781408,13.5570794 6.08261408,13.9962794 7.71377408,13.0566794 C7.81457408,12.9990794 7.90925408,12.9306794 8.00213408,12.8658794 C8.09573408,12.9306794 8.18933408,12.9990794 8.28977408,13.0566794 C9.92057408,13.9962794 11.9642941,13.5570794 13.0824541,12.1062794 L13.0709341,12.0990794 C12.2720941,13.0206794 10.9069741,13.2834794 9.81113408,12.6498794 C8.60405408,11.9550794 8.17709408,10.4358794 8.80853408,9.21187942 L8.56301408,9.06787942 C8.42765408,9.22987942 8.23145408,9.34147942 8.00213408,9.34147942 C7.77173408,9.34147942 7.57445408,9.23347942 7.43909408,9.06787942 Z M10.6031341,5.01067942 C10.6031341,6.40387942 9.50225408,7.53427942 8.12381408,7.59907942 L8.12381408,7.88347942 C8.47409408,7.94107942 8.74517408,8.23267942 8.74517408,8.59987942 C8.74517408,8.69347942 8.72213408,8.77627942 8.69189408,8.85547942 L8.93057408,8.99587942 C9.67613408,7.83667942 11.2054141,7.44787942 12.4121341,8.14627942 C13.5083341,8.77987942 13.9655341,10.0902794 13.5655741,11.2458794 C14.2780141,9.55387942 13.6361341,7.56307942 12.0053341,6.62347942 C11.9041741,6.56227942 11.8012141,6.51547942 11.6975341,6.46507942 C11.7079741,6.35347942 11.7173341,6.23827942 11.7173341,6.12307942 C11.7173341,4.24027942 10.3136941,2.69227942 8.49785408,2.44747942 C9.69557408,2.69227942 10.6031341,3.74347942 10.6031341,5.01067942 Z M7.50821408,2.44747942 C5.69165408,2.68867942 4.28657408,4.24027942 4.28657408,6.12307942 C4.28657408,6.23827942 4.29557408,6.35347942 4.30601408,6.46507942 C4.20233408,6.51547942 4.09937408,6.56227942 3.99821408,6.62347942 C2.36885408,7.56307942 1.72805408,9.55387942 2.42537408,11.2494794 L2.43617408,11.2422794 C2.03873408,10.0866794 2.49557408,8.77627942 3.59213408,8.14267942 C4.79849408,7.44787942 6.32813408,7.83667942 7.07369408,8.99587942 L7.31165408,8.85547942 C7.28213408,8.77627942 7.25981408,8.69347942 7.25981408,8.59987942 C7.25981408,8.23627942 7.52909408,7.94467942 7.87793408,7.88347942 L7.87793408,7.59907942 C6.50165408,7.53067942 5.40293408,6.40387942 5.40293408,5.01067942 C5.40293408,3.74347942 6.30941408,2.69227942 7.50821408,2.46187942 L7.50821408,2.44747942 Z M10.9872541,8.04907942 C10.7986141,8.05627942 10.6135741,8.09947942 10.4324941,8.15347942 C10.4594941,8.30107942 10.4785741,8.44867942 10.4785741,8.59987942 C10.4785741,9.67627942 9.78773408,10.5834794 8.83013408,10.9254794 C8.89385408,11.2098794 9.01193408,11.4798794 9.17681408,11.7210794 C10.4407741,11.2458794 11.3436541,10.0326794 11.3436541,8.59987942 C11.3436541,8.41627942 11.3184541,8.23627942 11.2885741,8.05627942 C11.1884941,8.05267942 11.0873341,8.04187942 10.9872541,8.04907942 Z M5.01593408,8.04907942 C4.91549408,8.04187942 4.81361408,8.05267942 4.71281408,8.05627942 C4.68365408,8.23627942 4.65809408,8.41627942 4.65809408,8.59987942 C4.65809408,10.0326794 5.56169408,11.2422794 6.82457408,11.7210794 C6.99053408,11.4798794 7.10717408,11.2098794 7.17233408,10.9254794 C6.21509408,10.5834794 5.52533408,9.67627942 5.52533408,8.59987942 C5.52533408,8.44867942 5.54405408,8.30107942 5.57069408,8.15347942 C5.39069408,8.09947942 5.20529408,8.05627942 5.01593408,8.04907942 Z M8.00213408,5.25547942 C7.19789408,5.25547942 6.46925408,5.55427942 5.89217408,6.02947942 C6.01997408,6.28867942 6.19277408,6.52627942 6.40517408,6.72067942 C6.83789408,6.35347942 7.39085408,6.12307942 8.00213408,6.12307942 C8.61377408,6.12307942 9.16601408,6.35347942 9.59873408,6.72067942 C9.81185408,6.52627942 9.98573408,6.29227942 10.1142541,6.02947942 C9.53753408,5.55427942 8.80745408,5.25547942 8.00213408,5.25547942 Z" id="biohazard"></path>
        </g>
    </g>
</svg>