<?xml version="1.0" encoding="UTF-8" standalone="no"?>
<svg width="16px" height="16px" viewBox="0 0 16 16" version="1.1" xmlns="http://www.w3.org/2000/svg" xmlns:xlink="http://www.w3.org/1999/xlink">
    <!-- Generator: Sketch 3.6.1 (26313) - http://www.bohemiancoding.com/sketch -->
    <title>objetos_perdidos</title>
    <desc>Created with Sketch.</desc>
    <defs></defs>
    <g id="Page-1" stroke="none" stroke-width="1" fill="none" fill-rule="evenodd">
        <g id="objetos_perdidos" fill="#000000">
            <path d="M12.66668,8.1944 L10.66652,8.1944 L10.66652,9.0512 L12.66668,9.0512 C12.92408,9.0512 13.09544,9.1232 13.09544,9.4796 C13.09544,9.764 12.95108,9.908 12.66668,9.908 L12.66668,10.7648 C13.42412,10.7648 13.9526,10.2356 13.9526,9.4796 C13.9526,8.6984 13.44788,8.1944 12.66668,8.1944 Z M10.34684,7.0244 L3.32288,8.5832 L3.32288,9.0944 L10.34684,10.4264 L10.34684,7.0244 Z M9.59048,12.3164 C9.59048,12.1616 9.71612,12.0356 9.87164,12.0356 L10.3472,12.0356 L10.3472,10.754 L5.84396,9.9584 L5.84396,10.3544 L7.0874,10.7648 L4.18472,10.9448 L4.18472,11.3948 L7.0874,11.3948 L7.0874,11.6756 L4.18472,11.6756 L4.18472,12.1472 L7.0874,12.1472 L7.0874,12.428 L4.18472,12.428 L4.18472,12.8996 L7.0874,12.8996 L7.0874,13.1804 L4.18472,13.1804 L4.18472,13.5404 L10.3472,13.7564 L10.3472,12.6008 L9.87164,12.6008 C9.71612,12.6008 9.59048,12.4748 9.59048,12.3164 Z M2.0474,8.972 L3.11264,8.972 L3.11264,8.6768 L2.0474,8.6768 L2.0474,8.972 Z M6.9362,2.9888 C7.09064,2.9492 7.23248,2.9312 7.361,2.9312 C7.53524,2.9312 7.6598,2.9708 7.73432,3.0464 C7.80884,3.1256 7.84592,3.2192 7.84592,3.3308 C7.84592,3.4388 7.829,3.5216 7.79624,3.5864 C7.76348,3.6476 7.70876,3.7124 7.6346,3.7844 L7.15652,4.1876 C7.03628,4.2884 6.95312,4.3856 6.90812,4.4864 C6.86204,4.5836 6.83936,4.7168 6.83936,4.8824 L6.83936,5.3756 L7.55432,5.3756 L7.55432,5.156 C7.55432,5.03 7.56836,4.9256 7.5968,4.8464 C7.62632,4.7672 7.68248,4.6952 7.76528,4.6268 L8.23148,4.2416 C8.38016,4.1192 8.50004,3.9896 8.58824,3.8492 C8.67788,3.7088 8.72216,3.536 8.72216,3.3308 C8.72216,3.1724 8.69768,3.0284 8.64764,2.8952 C8.59796,2.762 8.522,2.6468 8.42048,2.5496 C8.31896,2.4524 8.19044,2.3768 8.03564,2.3228 C7.88048,2.2688 7.69688,2.2436 7.4852,2.2436 C7.28684,2.2436 7.0766,2.2688 6.85448,2.3264 C6.63308,2.384 6.42932,2.4488 6.24284,2.5208 L6.45416,3.1256 C6.62012,3.0716 6.78032,3.0248 6.9362,2.9888 Z M7.22456,5.7464 L7.19324,5.7464 C7.06076,5.7464 6.9524,5.7788 6.86744,5.8472 C6.78248,5.912 6.74,6.0236 6.74,6.182 L6.74,6.2144 C6.74,6.3692 6.78248,6.4808 6.86744,6.5456 C6.9524,6.6104 7.06076,6.6428 7.19324,6.6428 L7.22456,6.6428 C7.35704,6.6428 7.46612,6.6104 7.55072,6.5456 C7.63568,6.4808 7.67852,6.3692 7.67852,6.2144 L7.67852,6.182 C7.67852,6.0236 7.63568,5.912 7.55072,5.8472 C7.46612,5.7788 7.35704,5.7464 7.22456,5.7464 Z"></path>
        </g>
    </g>
</svg>