<?xml version="1.0" encoding="UTF-8" standalone="no"?>
<svg width="16px" height="16px" viewBox="0 0 16 16" version="1.1" xmlns="http://www.w3.org/2000/svg" xmlns:xlink="http://www.w3.org/1999/xlink">
    <!-- Generator: Sketch 3.6.1 (26313) - http://www.bohemiancoding.com/sketch -->
    <title>obtencion_avios</title>
    <desc>Created with Sketch.</desc>
    <defs></defs>
    <g id="Page-1" stroke="none" stroke-width="1" fill="none" fill-rule="evenodd">
        <g id="obtencion_avios" fill="#000000">
            <path d="M13.229398,7.93097458 C13.146958,6.32897458 12.844558,4.80437458 12.141478,3.29237458 C11.981638,2.94785458 11.605078,2.72969458 11.228518,2.76245458 C9.57539797,2.90609458 8.11163797,3.40433458 6.69071797,4.13405458 C5.24459797,4.87709458 3.26243797,6.49421458 2.90387797,7.12025458 C2.68859797,7.49573458 2.73323797,7.78877458 2.91215797,8.16209458 C3.31715797,9.00521458 4.47743797,10.2850146 6.72815797,11.5918146 C8.90579797,12.8561346 10.480798,13.2928146 11.648278,13.2359346 C12.045718,13.2161346 12.336598,13.0980546 12.551878,12.7225746 C12.911518,12.0965346 13.312558,9.56177458 13.229398,7.93097458 M10.896598,8.13401458 L8.71499797,9.90341458 L6.53339797,8.13401458 L6.53339797,6.93701458 L8.15339797,8.14193458 C8.14907797,7.93853458 8.14619797,7.73513458 8.14619797,7.53353458 C8.14619797,6.76061458 8.18147797,5.99777458 8.24807797,5.32529458 L8.25023797,5.30369458 L9.17975797,5.30405458 L9.18227797,5.32529458 C9.24887797,5.99741458 9.28379797,6.76061458 9.28379797,7.53173458 C9.28379797,7.73441458 9.28163797,7.93817458 9.27659797,8.14193458 L10.896598,6.93701458 L10.896598,8.13401458"></path>
        </g>
    </g>
</svg>