<?xml version="1.0" encoding="UTF-8" standalone="no"?>
<svg width="16px" height="16px" viewBox="0 0 16 16" version="1.1" xmlns="http://www.w3.org/2000/svg" xmlns:xlink="http://www.w3.org/1999/xlink">
    <!-- Generator: Sketch 3.6.1 (26313) - http://www.bohemiancoding.com/sketch -->
    <title>ocio</title>
    <desc>Created with Sketch.</desc>
    <defs></defs>
    <g id="Page-1" stroke="none" stroke-width="1" fill="none" fill-rule="evenodd">
        <g id="ocio" fill="#000000">
            <path d="M9.51902,8.3168 L9.63314,8.2952 L13.2119,7.6652 L13.2119,8.8928 C13.2119,8.8928 13.21118,8.7992 13.21118,11.5784 L13.2119,11.5928 C13.2119,12.1076 12.79466,12.5252 12.27986,12.5252 C11.76506,12.5252 11.34818,12.1076 11.34818,11.5928 C11.34818,11.078 11.76506,10.6604 12.27986,10.6604 C12.36914,10.6604 12.45518,10.6748 12.5369,10.6964 L12.5369,9.0044 L10.2545,9.4112 L10.2545,12.284 C10.25306,12.2912 10.2545,12.302 10.2545,12.3092 C10.2545,12.824 9.8369,13.2416 9.32246,13.2416 C8.80766,13.2416 8.39042,12.824 8.39042,12.3092 C8.39042,11.7944 8.80766,11.3768 9.32246,11.3768 C9.38942,11.3768 9.45458,11.384 9.51794,11.3984 L9.51902,8.3168 L9.51902,8.3168 Z M10.39454,2.7512 L11.56238,3.8708 L13.14566,3.5396 L12.4433,4.9976 L13.24538,6.4016 L11.6441,6.182 L10.55582,7.3808 L10.26818,5.786 L8.79434,5.1236 L10.21778,4.3568 L10.39454,2.7512 L10.39454,2.7512 Z M5.0813,6.0596 C5.46686,6.0596 5.77934,5.75 5.77934,5.3648 C5.77934,4.9796 5.46686,4.6664 5.0813,4.6664 C4.6961,4.6664 4.3829,4.9796 4.3829,5.3648 C4.3829,5.75 4.6961,6.0596 5.0813,6.0596 L5.0813,6.0596 Z M6.48386,5.4296 C7.1315,5.804 7.50518,6.3692 7.3187,6.6932 C7.1315,7.0172 6.45434,6.974 5.8067,6.6032 C5.77862,6.5852 5.75126,6.5672 5.72534,6.5528 C5.72534,6.5708 5.72642,6.5924 5.72642,6.6104 C5.72642,7.3592 5.4233,7.9676 5.04962,7.9676 C4.6745,7.9676 4.37174,7.3592 4.37174,6.6104 C4.37174,6.578 4.37246,6.5456 4.37354,6.5168 C4.3577,6.524 4.34078,6.5348 4.3235,6.5456 C3.6755,6.92 2.9987,6.9596 2.8115,6.6356 C2.62466,6.3116 2.99726,5.7464 3.64562,5.372 L3.73094,5.3288 C3.7133,5.318 3.6953,5.3108 3.67802,5.3 C3.03002,4.9256 2.6567,4.3604 2.84354,4.0364 C3.03038,3.7088 3.70754,3.752 4.3559,4.1264 C4.38362,4.1408 4.41062,4.1588 4.43762,4.1768 C4.43762,4.1552 4.43582,4.1372 4.43582,4.1156 C4.43582,3.3704 4.73894,2.762 5.11334,2.762 C5.4881,2.762 5.7905,3.3704 5.7905,4.1156 C5.7905,4.148 5.78942,4.1804 5.7887,4.2128 C5.80454,4.202 5.82218,4.1912 5.83874,4.1804 C6.48638,3.806 7.16318,3.7664 7.35002,4.0904 C7.53758,4.4144 7.16462,4.9796 6.51626,5.354 C6.48854,5.372 6.4601,5.3864 6.43202,5.4008 L6.48386,5.4296 L6.48386,5.4296 Z M2.85866,10.3256 C3.09518,9.5732 3.71402,8.9936 4.48658,8.8136 C4.66334,10.2176 5.78618,11.3264 7.19666,11.4848 C7.0217,12.284 6.42194,12.9248 5.64614,13.1552 C5.53274,11.6576 4.34906,10.4588 2.85866,10.3256 L2.85866,10.3256 Z M4.96214,13.2488 C3.74102,13.2272 2.75714,12.2336 2.75462,11.006 C3.94442,11.0924 4.8923,12.0536 4.96214,13.2488 L4.96214,13.2488 Z M5.17382,8.7596 C6.26642,8.8424 7.14086,9.71 7.23986,10.7972 C6.17174,10.664 5.32322,9.8252 5.17382,8.7596 L5.17382,8.7596 Z"></path>
        </g>
    </g>
</svg>