<?xml version="1.0" encoding="UTF-8" standalone="no"?>
<svg width="16px" height="16px" viewBox="0 0 16 16" version="1.1" xmlns="http://www.w3.org/2000/svg" xmlns:xlink="http://www.w3.org/1999/xlink">
    <!-- Generator: Sketch 3.6.1 (26313) - http://www.bohemiancoding.com/sketch -->
    <title>ocio_web</title>
    <desc>Created with Sketch.</desc>
    <defs></defs>
    <g id="Page-1" stroke="none" stroke-width="1" fill="none" fill-rule="evenodd">
        <g id="ocio_web" fill="#000000">
            <path d="M13.7421052,8.80298296 C13.2802252,8.47898296 12.2621452,7.63658296 11.2861852,7.15778296 C10.3019452,6.67178296 9.07038525,6.40538296 8.53110525,6.23978296 C8.13654525,6.11738296 8.09550525,6.50618296 7.95438525,6.79058296 C5.47326525,11.826983 7.65126525,13.558583 8.06634525,13.763783 C8.48106525,13.968983 11.2001452,14.606183 13.6632652,9.60218296 C13.7979052,9.33218296 14.0848252,9.04778296 13.7421052,8.80298296 M9.00558525,8.81738296 C9.48474525,9.05498296 9.69318525,9.61298296 9.69318525,9.61298296 C9.69318525,9.61298296 9.12438525,9.78938296 8.64450525,9.55178296 C8.16246525,9.31418296 7.95438525,8.75618296 7.95438525,8.75618296 C7.95438525,8.75618296 8.52498525,8.57978296 9.00558525,8.81738296 M8.55630525,12.471383 C7.58322525,11.992583 7.73658525,10.376183 7.73658525,10.376183 C7.73658525,10.376183 8.24598525,11.398583 8.91954525,11.729783 C9.59418525,12.064583 10.7145052,11.844983 10.7145052,11.844983 C10.7145052,11.844983 9.52866525,12.950183 8.55630525,12.471383 M10.9611052,10.700183 C10.4769052,10.458983 10.2659452,9.89378296 10.2659452,9.89378296 C10.2659452,9.89378296 10.8412252,9.71738296 11.3272252,9.95498296 C11.8125052,10.196183 12.0223852,10.761383 12.0223852,10.761383 C12.0223852,10.761383 11.4456652,10.937783 10.9611052,10.700183 Z M6.57306525,7.75178296 C5.88150525,7.98938296 5.24106525,8.84258296 5.24106525,8.84258296 C5.24106525,8.84258296 5.34330525,7.41698296 6.34158525,7.07498296 C6.59358525,6.98498296 6.84306525,6.98858296 7.07526525,7.04258296 C7.15698525,6.86258296 7.24338525,6.67538296 7.33698525,6.48818296 C7.35174525,6.45578296 7.36614525,6.41978296 7.37946525,6.38738296 C7.47918525,6.13178296 7.71678525,5.52698296 8.39394525,5.52698296 C8.50446525,5.52698296 8.61822525,5.54498296 8.73486525,5.58098296 C8.82810525,5.60978296 8.92134525,5.64938296 9.01566525,5.69618296 C8.95482525,4.87178296 8.76546525,3.89618296 8.36442525,2.73338296 C8.26326525,2.44178296 8.26506525,2.03138296 7.84422525,2.10338296 C7.28154525,2.20418296 5.85198525,2.31218296 4.81122525,2.67218296 C3.76182525,3.03218296 2.79450525,3.74858296 2.29050525,4.01498296 C1.92222525,4.21298296 2.17026525,4.51898296 2.27718525,4.82138296 C3.49254525,8.36378296 5.12226525,9.42578296 6.21774525,9.69578296 C6.32538525,9.09818296 6.51330525,8.43578296 6.80346525,7.69418296 C6.72462525,7.70858296 6.64650525,7.72658296 6.57306525,7.75178296 Z M7.25742525,4.53698296 C7.78950525,4.52618296 8.23158525,4.96898296 8.23158525,4.96898296 C8.23158525,4.96898296 7.81002525,5.42978296 7.27722525,5.44058296 C6.74442525,5.45498296 6.30198525,5.01218296 6.30198525,5.01218296 C6.30198525,5.01218296 6.72390525,4.55138296 7.25742525,4.53698296 Z M4.95306525,6.35858296 C4.51818525,6.68618296 3.88926525,6.57818296 3.88926525,6.57818296 C3.88926525,6.57818296 3.96774525,5.94818296 4.40226525,5.62058296 C4.83930525,5.29658296 5.46606525,5.40458296 5.46606525,5.40458296 C5.46606525,5.40458296 5.38830525,6.03818296 4.95306525,6.35858296 Z"></path>
        </g>
    </g>
</svg>