<?xml version="1.0" encoding="UTF-8" standalone="no"?>
<svg width="16px" height="16px" viewBox="0 0 16 16" version="1.1" xmlns="http://www.w3.org/2000/svg" xmlns:xlink="http://www.w3.org/1999/xlink">
    <!-- Generator: Sketch 3.6.1 (26313) - http://www.bohemiancoding.com/sketch -->
    <title>opinion</title>
    <desc>Created with Sketch.</desc>
    <defs></defs>
    <g id="Page-1" stroke="none" stroke-width="1" fill="none" fill-rule="evenodd">
        <g id="opinion" fill="#000000">
            <path d="M13.32476,2.26016 C11.57588,2.04884 9.79964,1.93976 7.99964,1.93976 C6.19856,1.93976 4.4234,2.04884 2.6756,2.25908 C2.5316,3.69548 2.456,5.147 2.456,6.61436 C2.456,8.08136 2.5316,9.53324 2.6756,10.96892 C3.69584,11.09132 4.72508,11.18024 5.7644,11.23244 L5.7644,14.06024 L10.15568,11.2364 C11.22128,11.1842 12.27824,11.09456 13.32476,10.96856 C13.46876,9.53324 13.544,8.081 13.544,6.61436 C13.544,5.147 13.46876,3.69548 13.32476,2.26016 M12.1382,10.01132 C11.33468,10.10852 10.37888,10.12076 9.55988,10.16108 L6.776,12.04964 L6.77816,10.18988 C5.97896,10.1492 4.73876,10.106 3.95468,10.01132 C3.84308,8.9072 3.78584,7.7912 3.78584,6.6626 C3.78584,5.534 3.84308,4.41728 3.95468,3.31208 C5.29784,3.15116 6.66188,3.06692 8.04572,3.06692 C9.42992,3.06692 10.7954,3.15116 12.1382,3.31244 C12.24944,4.41728 12.30812,5.534 12.30812,6.6626 C12.30812,7.79012 12.24944,8.9072 12.1382,10.01132"></path>
        </g>
    </g>
</svg>