<?xml version="1.0" encoding="UTF-8" standalone="no"?>
<svg width="16px" height="16px" viewBox="0 0 16 16" version="1.1" xmlns="http://www.w3.org/2000/svg" xmlns:xlink="http://www.w3.org/1999/xlink">
    <!-- Generator: Sketch 3.6.1 (26313) - http://www.bohemiancoding.com/sketch -->
    <title>otros</title>
    <desc>Created with Sketch.</desc>
    <defs></defs>
    <g id="Page-1" stroke="none" stroke-width="1" fill="none" fill-rule="evenodd">
        <g id="otros" fill="#000000">
            <path d="M8.86148,11.8772 C9.64448,11.9312 10.46888,12.0572 11.44772,12.2552 L11.44772,13.1912 L4.55264,13.1912 L4.55264,12.2552 C5.53148,12.0572 6.35552,11.9348 7.13744,11.8808 L7.13744,8.2988 C5.8508,8.27 4.5062,8.1692 2.82896,7.982 L6.31736,2.8088 L9.72368,2.8088 L13.17104,7.982 C12.53204,8.0468 11.9402,8.1008 11.38292,8.1476 C11.3606,8.3384 11.20004,8.486 11.00384,8.486 C10.82744,8.486 10.67984,8.3672 10.63484,8.2052 C10.01564,8.2484 9.43136,8.2772 8.86148,8.2952 L8.86148,11.8772 L8.86148,11.8772 Z M11.00384,8.9396 C10.7918,8.9396 10.61936,9.1124 10.61936,9.3248 C10.61936,9.5372 10.7918,9.71 11.00384,9.71 C11.21552,9.71 11.38832,9.5372 11.38832,9.3248 C11.38832,9.1124 11.21552,8.9396 11.00384,8.9396 L11.00384,8.9396 Z M11.00384,10.1744 C10.7918,10.1744 10.61936,10.3472 10.61936,10.556 C10.61936,10.7684 10.7918,10.9412 11.00384,10.9412 C11.21552,10.9412 11.38832,10.7684 11.38832,10.556 C11.38832,10.3472 11.21552,10.1744 11.00384,10.1744 L11.00384,10.1744 Z"></path>
        </g>
    </g>
</svg>