<?xml version="1.0" encoding="UTF-8" standalone="no"?>
<svg width="16px" height="16px" viewBox="0 0 16 16" version="1.1" xmlns="http://www.w3.org/2000/svg" xmlns:xlink="http://www.w3.org/1999/xlink">
    <!-- Generator: Sketch 3.6.1 (26313) - http://www.bohemiancoding.com/sketch -->
    <title>oxigeno</title>
    <desc>Created with Sketch.</desc>
    <defs></defs>
    <g id="Page-1" stroke="none" stroke-width="1" fill="none" fill-rule="evenodd">
        <g id="oxigeno" fill="#000000">
            <path d="M9.86192,8.5562 C9.93896,8.5346 10.0214,8.5202 10.10384,8.5202 C10.28708,8.5202 10.33856,8.6102 10.33856,8.729 C10.33856,8.8622 10.2428,9.035 9.9584,9.305 L9.40868,9.8234 L9.40868,10.2194 L10.96316,10.2194 L11.05568,9.6902 L10.2824,9.6902 C10.2824,9.6902 10.34324,9.6686 10.41776,9.5966 C10.70396,9.3194 10.96604,9.0458 10.96604,8.6714 C10.96604,8.4122 10.85156,8.2358 10.71116,8.1278 C10.56572,8.0198 10.36232,7.9766 10.17224,7.9766 C9.97676,7.9766 9.79136,8.0234 9.61208,8.0882 C9.6074,8.2826 9.58832,8.4698 9.5552,8.6426 L9.566,8.6714 C9.6632,8.6318 9.7604,8.5886 9.86192,8.5562 L9.86192,8.5562 Z M7.68536,5.993 C7.20908,5.993 6.85196,6.1334 6.59348,6.4106 C6.32924,6.7058 6.18956,7.1522 6.18956,7.7102 L6.18956,7.901 C6.18956,8.4806 6.33968,8.9378 6.62948,9.2258 C6.88292,9.4814 7.22456,9.6038 7.67492,9.6038 L7.72712,9.6038 C8.16128,9.6038 8.51336,9.4814 8.76752,9.2366 C9.0674,8.9486 9.21752,8.4914 9.21752,7.901 L9.21752,7.7102 C9.21752,7.1666 9.08828,6.7058 8.819,6.4178 C8.57096,6.1478 8.18252,5.993 7.72172,5.993 L7.68536,5.993 L7.68536,5.993 Z M5.2082,6.8498 C5.56064,5.795 6.5636,5.0354 7.74584,5.0354 C8.48456,5.0354 9.15272,5.3306 9.63692,5.8094 C9.91448,5.7158 10.2122,5.6654 10.52252,5.6654 C11.90924,5.6654 13.18184,6.8642 13.18184,8.3438 C13.18184,9.827 12.01472,10.9646 10.5866,10.9646 L10.4642,10.961 L4.88384,10.9646 C3.75956,10.907 2.81816,10.0358 2.81816,8.909 C2.81816,7.7498 3.74876,6.8282 4.9202,6.8282 C5.01812,6.8282 5.11388,6.8354 5.2082,6.8498 L5.2082,6.8498 Z M7.72172,6.6086 C7.94456,6.6086 8.09972,6.659 8.21852,6.7778 C8.405,6.965 8.4878,7.2962 8.4878,7.7138 L8.4878,7.9082 C8.4878,8.333 8.41004,8.6534 8.21852,8.8298 C8.09972,8.9414 7.94456,8.999 7.72172,8.999 L7.68536,8.999 C7.46252,8.999 7.30268,8.9414 7.18856,8.8298 C6.99704,8.6534 6.91964,8.333 6.91964,7.9082 L6.91964,7.7138 C6.91964,7.307 6.992,6.9866 7.16768,6.7994 C7.29224,6.6698 7.45784,6.6086 7.68536,6.6086 L7.72172,6.6086 L7.72172,6.6086 Z"></path>
        </g>
    </g>
</svg>