<?xml version="1.0" encoding="UTF-8" standalone="no"?>
<svg width="16px" height="16px" viewBox="0 0 16 16" version="1.1" xmlns="http://www.w3.org/2000/svg" xmlns:xlink="http://www.w3.org/1999/xlink">
    <!-- Generator: Sketch 3.6.1 (26313) - http://www.bohemiancoding.com/sketch -->
    <title>panel_de_control</title>
    <desc>Created with Sketch.</desc>
    <defs></defs>
    <g id="Page-1" stroke="none" stroke-width="1" fill="none" fill-rule="evenodd">
        <g id="panel_de_control" fill="#000000">
            <path d="M10.2777192,8.02878425 C10.2759192,8.78838425 10.2381192,9.53358425 10.1707992,10.1851843 L5.82343921,10.1851843 C5.75503921,9.53358425 5.71687921,8.78838425 5.71543921,8.02878425 C5.71435921,7.27278425 5.74783921,6.50238425 5.82343921,5.79678425 L10.1718792,5.79678425 C10.2463992,6.50238425 10.2798792,7.27278425 10.2777192,8.02878425 M7.05319921,6.71118425 L6.69787921,6.71118425 C6.69175921,6.77238425 6.68887921,6.83358425 6.68887921,6.89478425 C6.68887921,6.95598425 6.69247921,7.01718425 6.69787921,7.07118425 L7.05319921,7.07118425 C7.05859921,7.01718425 7.06111921,6.95598425 7.06111921,6.89478425 C7.06147921,6.83358425 7.05931921,6.77238425 7.05319921,6.71118425 M7.79443921,6.71118425 L7.43875921,6.71118425 C7.43299921,6.77238425 7.43011921,6.83358425 7.43047921,6.89478425 C7.43047921,6.95598425 7.43335921,7.01718425 7.43875921,7.07118425 L7.79443921,7.07118425 C7.79947921,7.01718425 7.80271921,6.95598425 7.80307921,6.89478425 C7.80307921,6.83358425 7.80019921,6.77238425 7.79443921,6.71118425 M8.54107921,6.71118425 L8.18575921,6.71118425 C8.17999921,6.77238425 8.17675921,6.83358425 8.17711921,6.89478425 C8.17711921,6.95598425 8.18035921,7.01718425 8.18575921,7.07118425 L8.54107921,7.07118425 C8.54611921,7.01718425 8.54935921,6.95598425 8.54971921,6.89478425 C8.54971921,6.83358425 8.54647921,6.77238425 8.54107921,6.71118425 M9.28195921,6.71118425 L8.92699921,6.71118425 C8.92051921,6.77238425 8.91835921,6.83358425 8.91835921,6.89478425 C8.91835921,6.95598425 8.92087921,7.01718425 8.92699921,7.07118425 L9.28195921,7.07118425 C9.28771921,7.01718425 9.29059921,6.95598425 9.29095921,6.89478425 C9.29095921,6.83358425 9.28843921,6.77238425 9.28195921,6.71118425 M7.05319921,7.44198425 L6.69787921,7.44198425 C6.69175921,7.49958425 6.68887921,7.56078425 6.68887921,7.62558425 C6.68887921,7.68678425 6.69247921,7.74798425 6.69787921,7.80198425 L7.05319921,7.80198425 C7.05859921,7.74798425 7.06111921,7.68678425 7.06111921,7.62558425 C7.06147921,7.56078425 7.05931921,7.49958425 7.05319921,7.44198425 M7.79443921,7.44198425 L7.43875921,7.44198425 C7.43299921,7.49958425 7.43011921,7.56078425 7.43047921,7.62558425 C7.43047921,7.68678425 7.43335921,7.74798425 7.43875921,7.80198425 L7.79443921,7.80198425 C7.79947921,7.74798425 7.80271921,7.68678425 7.80307921,7.62558425 C7.80307921,7.56078425 7.80019921,7.49958425 7.79443921,7.44198425 M8.54107921,7.44198425 L8.18575921,7.44198425 C8.17999921,7.49958425 8.17675921,7.56078425 8.17711921,7.62558425 C8.17711921,7.68678425 8.18035921,7.74798425 8.18575921,7.80198425 L8.54107921,7.80198425 C8.54611921,7.74798425 8.54935921,7.68678425 8.54971921,7.62558425 C8.54971921,7.56078425 8.54647921,7.49958425 8.54107921,7.44198425 M9.28195921,7.44198425 L8.92699921,7.44198425 C8.92051921,7.49958425 8.91835921,7.56078425 8.91835921,7.62558425 C8.91835921,7.68678425 8.92087921,7.74798425 8.92699921,7.80198425 L9.28195921,7.80198425 C9.28771921,7.74798425 9.29059921,7.68678425 9.29095921,7.62558425 C9.29095921,7.56078425 9.28843921,7.49958425 9.28195921,7.44198425 M7.05319921,8.18358425 L6.69787921,8.18358425 C6.69175921,8.24118425 6.68887921,8.30238425 6.68887921,8.36718425 C6.68887921,8.42838425 6.69247921,8.48958425 6.69787921,8.53998425 L7.05319921,8.53998425 C7.05859921,8.48958425 7.06111921,8.42838425 7.06111921,8.36718425 C7.06147921,8.30238425 7.05931921,8.24118425 7.05319921,8.18358425 M7.79443921,8.18358425 L7.43875921,8.18358425 C7.43299921,8.24118425 7.43011921,8.30238425 7.43047921,8.36718425 C7.43047921,8.42838425 7.43335921,8.48958425 7.43875921,8.53998425 L7.79443921,8.53998425 C7.79947921,8.48958425 7.80271921,8.42838425 7.80307921,8.36718425 C7.80307921,8.30238425 7.80019921,8.24118425 7.79443921,8.18358425 M8.54107921,8.18358425 L8.18575921,8.18358425 C8.17999921,8.24118425 8.17675921,8.30238425 8.17711921,8.36718425 C8.17711921,8.42838425 8.18035921,8.48958425 8.18575921,8.53998425 L8.54107921,8.53998425 C8.54611921,8.48958425 8.54935921,8.42838425 8.54971921,8.36718425 C8.54971921,8.30238425 8.54647921,8.24118425 8.54107921,8.18358425 M9.28195921,8.18358425 L8.92699921,8.18358425 C8.92051921,8.24118425 8.91835921,8.30238425 8.91835921,8.36718425 C8.91835921,8.42838425 8.92087921,8.48958425 8.92699921,8.53998425 L9.28195921,8.53998425 C9.28771921,8.48958425 9.29059921,8.42838425 9.29095921,8.36718425 C9.29095921,8.30238425 9.28843921,8.24118425 9.28195921,8.18358425 M7.05319921,8.94318425 L6.69787921,8.94318425 C6.69175921,9.00078425 6.68887921,9.06198425 6.68887921,9.12318425 C6.68887921,9.18798425 6.69247921,9.24918425 6.69787921,9.29958425 L7.05319921,9.29958425 C7.05859921,9.24918425 7.06111921,9.18798425 7.06111921,9.12318425 C7.06147921,9.06198425 7.05931921,9.00078425 7.05319921,8.94318425 M7.79443921,8.94318425 L7.43875921,8.94318425 C7.43299921,9.00078425 7.43011921,9.06198425 7.43047921,9.12318425 C7.43047921,9.18798425 7.43335921,9.24918425 7.43875921,9.29958425 L7.79443921,9.29958425 C7.79947921,9.24918425 7.80271921,9.18798425 7.80307921,9.12318425 C7.80307921,9.06198425 7.80019921,9.00078425 7.79443921,8.94318425 M8.54107921,8.94318425 L8.18575921,8.94318425 C8.17999921,9.00078425 8.17675921,9.06198425 8.17711921,9.12318425 C8.17711921,9.18798425 8.18035921,9.24918425 8.18575921,9.29958425 L8.54107921,9.29958425 C8.54611921,9.24918425 8.54935921,9.18798425 8.54971921,9.12318425 C8.54971921,9.06198425 8.54647921,9.00078425 8.54107921,8.94318425 M9.28195921,8.94318425 L8.92699921,8.94318425 C8.92051921,9.00078425 8.91835921,9.06198425 8.91835921,9.12318425 C8.91835921,9.18798425 8.92087921,9.24918425 8.92699921,9.29958425 L9.28195921,9.29958425 C9.28771921,9.24918425 9.29059921,9.18798425 9.29095921,9.12318425 C9.29095921,9.06198425 9.28843921,9.00078425 9.28195921,8.94318425 M10.1909592,3.55758425 L10.1909592,3.11478425 C9.60559921,2.98878425 8.59687921,2.68278425 7.93771921,2.68278425 C7.27747921,2.68278425 6.31879921,2.97438425 5.77555921,3.13998425 L5.77555921,3.56118425 C6.34363921,3.50358425 7.27747921,3.31278425 7.93771921,3.31278425 C8.59687921,3.31278425 9.57643921,3.49278425 10.1909592,3.55758425 M5.77555921,12.4459843 L5.77555921,12.8851843 C6.36127921,13.0147843 7.36927921,13.3207843 8.02879921,13.3171843 C8.68903921,13.3171843 9.64771921,13.0255843 10.1909592,12.8635843 L10.1909592,12.4423843 C9.62287921,12.4999843 8.68903921,12.6871843 8.02879921,12.6907843 C7.36927921,12.6907843 6.38971921,12.5107843 5.77555921,12.4459843 M3.52627921,5.75718425 L3.08419921,5.75718425 C2.95567921,6.34038425 2.65075921,7.34838425 2.65147921,8.01078425 C2.65255921,8.66958425 2.94343921,9.62718425 3.10831921,10.1707843 L3.52951921,10.1707843 C3.47047921,9.60198425 3.28183921,8.66958425 3.28075921,8.01078425 C3.28039921,7.34838425 3.46003921,6.36918425 3.52627921,5.75718425 M12.4744392,10.1707843 L12.9165192,10.1707843 C13.0446792,9.58398425 13.3495992,8.57958425 13.3485192,7.91718425 C13.3470792,7.25838425 13.0572792,6.30078425 12.8923992,5.75718425 L12.4708392,5.75718425 C12.5302392,6.32238425 12.7185192,7.25838425 12.7192392,7.91718425 C12.7203192,8.57958425 12.5406792,9.55518425 12.4744392,10.1707843"></path>
        </g>
    </g>
</svg>