<?xml version="1.0" encoding="UTF-8" standalone="no"?>
<svg width="16px" height="16px" viewBox="0 0 16 16" version="1.1" xmlns="http://www.w3.org/2000/svg" xmlns:xlink="http://www.w3.org/1999/xlink">
    <!-- Generator: Sketch 3.6.1 (26313) - http://www.bohemiancoding.com/sketch -->
    <title>papelera</title>
    <desc>Created with Sketch.</desc>
    <defs></defs>
    <g id="Page-1" stroke="none" stroke-width="1" fill="none" fill-rule="evenodd">
        <g id="papelera" fill="#000000">
            <path d="M11.73284,4.3082 L11.73284,3.563 C11.73284,3.563 10.65536,3.2642 9.4868,3.239 L9.4868,2.6594 C9.4868,2.6594 8.74664,2.5694 8,2.5694 C7.25336,2.5694 6.48944,2.6594 6.48944,2.6594 L6.48944,3.239 C5.33024,3.2642 4.26752,3.563 4.26752,3.563 L4.26752,4.3082 L11.73284,4.3082 L11.73284,4.3082 Z M8.78552,3.455 C8.78552,3.455 8.3204,3.5234 8.00036,3.5234 C7.67996,3.5234 7.21448,3.455 7.21448,3.455 L7.21448,3.1382 C7.21448,3.1382 7.59212,3.059 8,3.059 C8.40824,3.059 8.78552,3.1382 8.78552,3.1382 L8.78552,3.455 Z M4.26716,4.463 L4.26716,5.2082 L4.48028,5.2082 C4.48964,5.8922 4.55336,7.3466 4.8752,9.2078 C5.32772,11.8214 5.7428,13.2866 5.7428,13.2866 C5.7428,13.2866 7.02332,13.4306 7.99964,13.4306 C8.97632,13.4306 10.25684,13.2866 10.25684,13.2866 C10.25684,13.2866 10.67192,11.8214 11.12444,9.2078 C11.44592,7.3466 11.50964,5.8922 11.51972,5.2082 L11.73284,5.2082 L11.73284,4.463 L4.26716,4.463 Z M10.28708,9.1358 C9.89864,11.9222 9.4814,12.5342 9.4814,12.5342 C9.4814,12.5342 8.86472,12.545 7.99964,12.545 C7.13492,12.545 6.50852,12.5342 6.50852,12.5342 C6.50852,12.5342 6.09128,11.9222 5.7032,9.1358 C5.41016,7.0334 5.3108,5.7302 5.2802,5.2082 L10.71008,5.2082 C10.67912,5.7302 10.58012,7.0334 10.28708,9.1358 Z M7.064,8.8478 C7.154,10.3346 7.15796,11.7134 7.15796,11.7134 L6.58556,11.7494 C6.58556,11.7494 6.41456,10.0574 6.34364,8.891 C6.27308,7.721 6.23888,6.0218 6.23888,6.0218 L6.81128,5.9894 C6.81128,5.9894 6.974,7.3574 7.064,8.8478 Z M9.41444,11.7494 L8.84168,11.7134 C8.84168,11.7134 8.846,10.3346 8.936,8.8478 C9.02564,7.3574 9.188,5.9894 9.188,5.9894 L9.76076,6.0218 C9.76076,6.0218 9.72656,7.721 9.65636,8.891 C9.58544,10.0574 9.41444,11.7494 9.41444,11.7494 Z M8.29052,11.735 L7.71632,11.735 C7.71632,11.735 7.64792,10.0394 7.64792,8.8694 C7.64792,7.6994 7.71632,6.0002 7.71632,6.0002 L8.29052,6.0002 C8.29052,6.0002 8.36972,7.379 8.36972,8.8694 C8.36972,10.3598 8.29052,11.735 8.29052,11.735 Z"></path>
        </g>
    </g>
</svg>