<?xml version="1.0" encoding="UTF-8" standalone="no"?>
<svg width="16px" height="16px" viewBox="0 0 16 16" version="1.1" xmlns="http://www.w3.org/2000/svg" xmlns:xlink="http://www.w3.org/1999/xlink">
    <!-- Generator: Sketch 3.6.1 (26313) - http://www.bohemiancoding.com/sketch -->
    <title>parking_vip</title>
    <desc>Created with Sketch.</desc>
    <defs></defs>
    <g id="Page-1" stroke="none" stroke-width="1" fill="none" fill-rule="evenodd">
        <g id="parking_vip" fill="#000000">
            <path d="M7.85502941,8.2862 C7.99038941,8.2862 8.10162941,8.2718 8.18838941,8.24228 C8.27514941,8.21348 8.35290941,8.16488 8.42022941,8.0972 C8.48826941,8.02952 8.53830941,7.9442 8.57286941,7.84052 C8.60634941,7.73612 8.62290941,7.622 8.62290941,7.496 L8.62290941,7.45244 C8.62290941,7.32716 8.60634941,7.21268 8.57286941,7.10864 C8.53830941,7.00496 8.48826941,6.91892 8.42022941,6.85124 C8.35290941,6.78428 8.27514941,6.73568 8.18838941,6.70616 C8.10162941,6.67772 7.99038941,6.66332 7.85502941,6.66332 L7.08030941,6.66332 L7.08030941,8.2862 L7.85502941,8.2862 Z M9.52542941,8.26388 C9.44550941,8.46224 9.32310941,8.63144 9.15894941,8.77184 C8.99514941,8.91116 8.81370941,9.00368 8.61606941,9.04652 C8.41806941,9.09044 8.16894941,9.11204 7.86942941,9.11204 L7.08030941,9.11204 L7.08030941,10.74932 L6.07338941,10.74932 L6.07338941,5.87312 C6.16950941,5.8634 6.28398941,5.85584 6.41718941,5.84756 C6.55002941,5.84144 6.67242941,5.83748 6.78294941,5.83748 L7.63002941,5.83748 L4.84614941,3.02552 L2.37546941,3.02552 C2.19186941,4.73084 2.11230941,6.5906 2.11482941,8.42012 C2.11734941,10.2536 2.20950941,12.0536 2.37546941,13.6304 L12.8791894,13.6304 C12.9540694,12.90104 13.0134694,12.12236 13.0563094,11.31452 L9.62046941,7.847 C9.60174941,8.00144 9.57294941,8.14508 9.52542941,8.26388 Z M13.6787494,2.3696 L5.17122941,2.3696 L13.6758694,10.95596 C13.8079894,9.67976 13.8817894,8.22176 13.8850294,6.73568 C13.8893494,5.25536 13.8234694,3.75056 13.6787494,2.3696 Z M9.22842941,5.04008 C9.33966941,4.76108 9.46638941,4.4702 9.60822941,4.1696 C9.75078941,3.869 9.90666941,3.57092 10.0744294,3.27356 L10.3519894,3.55112 C10.2965494,3.63932 10.2411094,3.73688 10.1845894,3.842 C10.1280694,3.94712 10.0722694,4.05548 10.0164694,4.16708 C9.95994941,4.27796 9.90486941,4.38956 9.85122941,4.5026 C9.79686941,4.616 9.74718941,4.72544 9.70074941,4.83056 C9.80658941,4.78196 9.91530941,4.73012 10.0265494,4.67396 C10.1381494,4.61924 10.2486694,4.56236 10.3591894,4.50584 C10.4689894,4.4486 10.5755494,4.39028 10.6788694,4.33232 C10.7821894,4.274 10.8765094,4.21748 10.9636294,4.1624 L11.2368694,4.43564 C10.9395094,4.60412 10.6428694,4.76108 10.3455094,4.90868 C10.0481494,5.05592 9.76230941,5.18516 9.48690941,5.29856 L9.22842941,5.04008 Z M10.0744294,5.8868 L11.3808694,4.58 L11.6490694,4.84784 L10.3422694,6.15464 L10.0744294,5.8868 Z M12.1480294,5.786 L11.9417494,5.57972 L11.5101094,6.01172 L11.7163894,6.218 C11.7520294,6.254 11.7862294,6.27956 11.8168294,6.29468 C11.8470694,6.3098 11.8809094,6.31772 11.9165494,6.31772 C11.9529094,6.31916 11.9892694,6.30836 12.0256294,6.29036 C12.0619894,6.27092 12.0969094,6.24536 12.1307494,6.21152 L12.1419094,6.20036 C12.1761094,6.16724 12.2013094,6.13196 12.2207494,6.09524 C12.2387494,6.05888 12.2481094,6.02288 12.2481094,5.98616 C12.2481094,5.95016 12.2405494,5.91668 12.2250694,5.88644 C12.2095894,5.85584 12.1836694,5.822 12.1480294,5.786 Z M12.5825494,6.23816 C12.5472694,6.317 12.4929094,6.39296 12.4194694,6.4664 L12.3967894,6.48944 C12.3168694,6.569 12.2405494,6.6248 12.1663894,6.65576 C12.0918694,6.68708 12.0148294,6.7004 11.9341894,6.6932 C11.8524694,6.68708 11.7804694,6.66404 11.7167494,6.62264 C11.6523094,6.58088 11.5803094,6.52112 11.5003894,6.44156 L11.2901494,6.23096 L10.8545494,6.6662 L10.5867094,6.39836 L11.8834294,5.10164 C11.9118694,5.1254 11.9446294,5.15312 11.9820694,5.18696 C12.0195094,5.22008 12.0526294,5.25212 12.0828694,5.28164 L12.3849094,5.58368 C12.4569094,5.65568 12.5130694,5.72408 12.5526694,5.78888 C12.5929894,5.85224 12.6156694,5.92424 12.6239494,6.0038 C12.6318694,6.0812 12.6174694,6.15932 12.5825494,6.23816 Z"></path>
        </g>
    </g>
</svg>