<?xml version="1.0" encoding="UTF-8" standalone="no"?>
<svg width="16px" height="16px" viewBox="0 0 16 16" version="1.1" xmlns="http://www.w3.org/2000/svg" xmlns:xlink="http://www.w3.org/1999/xlink">
    <!-- Generator: Sketch 3.6.1 (26313) - http://www.bohemiancoding.com/sketch -->
    <title>pasajeros</title>
    <desc>Created with Sketch.</desc>
    <defs></defs>
    <g id="Page-1" stroke="none" stroke-width="1" fill="none" fill-rule="evenodd">
        <g id="pasajeros" fill="#000000">
            <path d="M5.5466,4.99832 C4.9922,4.99832 4.82264,4.643 4.82264,4.09292 C4.82264,3.54356 4.9922,3.18788 5.5466,3.18788 C6.10172,3.18788 6.27128,3.54356 6.27128,4.09292 C6.27128,4.643 6.10172,4.99832 5.5466,4.99832 L5.5466,4.99832 Z M6.80588,5.65928 C6.80588,5.65928 7.51796,6.88652 7.5932,8.69732 L6.63812,9.43892 C6.58412,10.47572 6.38792,11.85452 6.2792,12.81212 L4.80284,12.81212 C4.69448,11.85452 4.49792,10.47572 4.44356,9.43892 L3.4892,8.69732 C3.56408,6.88292 4.2758,5.65856 4.2758,5.65856 C4.2758,5.65856 4.85792,5.42276 5.46344,5.42276 L5.59088,5.42132 C6.14924,5.42132 6.60536,5.52428 6.80048,5.65136 L6.80588,5.65928 L6.80588,5.65928 Z M11.51468,7.77932 C11.83796,7.82972 12.0878,7.90532 12.26456,8.00252 L12.27284,8.05652 C12.42404,8.95652 12.5108,9.64772 12.5108,10.73132 C12.5108,11.45492 12.47228,12.14612 12.40208,12.79412 L8.333,12.79412 C8.2628,12.14612 8.225,11.78252 8.225,11.06252 C8.225,9.97892 8.31068,8.96012 8.46224,8.06012 L8.46944,7.99892 C8.64836,7.90172 8.891,7.82612 9.22112,7.77572 L9.26432,6.48332 C9.2654,6.1622 9.52748,5.90228 9.85076,5.90228 L10.8872,5.90228 C11.21156,5.90228 11.47364,6.16364 11.47364,6.48692 L11.51468,7.77932 L11.51468,7.77932 Z M9.83492,6.58052 L9.83528,7.74332 L10.8782,7.74332 L10.87712,6.58052 C10.87712,6.55172 10.85444,6.53012 10.82636,6.53012 L9.88532,6.53012 C9.8576,6.53012 9.83492,6.55172 9.83492,6.58052 L9.83492,6.58052 Z"></path>
        </g>
    </g>
</svg>