<?xml version="1.0" encoding="UTF-8" standalone="no"?>
<svg width="16px" height="16px" viewBox="0 0 16 16" version="1.1" xmlns="http://www.w3.org/2000/svg" xmlns:xlink="http://www.w3.org/1999/xlink">
    <!-- Generator: Sketch 3.6.1 (26313) - http://www.bohemiancoding.com/sketch -->
    <title>pasajero_adulto</title>
    <desc>Created with Sketch.</desc>
    <defs></defs>
    <g id="Page-1" stroke="none" stroke-width="1" fill="none" fill-rule="evenodd">
        <g id="pasajero_adulto" fill="#000000">
            <path d="M8.01152,5.47424 C6.87896,5.47424 6.53372,4.79096 6.53372,3.73508 C6.53372,2.67776 6.87896,1.9952 8.01152,1.9952 C9.1448,1.9952 9.49004,2.67776 9.49004,3.73508 C9.49004,4.79096 9.1448,5.47424 8.01152,5.47424 M10.57112,6.7292 C10.17224,6.48512 9.242,6.28784 8.1026,6.28784 L7.8416,6.29 C6.60608,6.29 5.417,6.7436 5.417,6.7436 C5.417,6.7436 3.96332,9.098 3.81068,12.5828 L5.76008,14.0048 L10.23992,14.0048 L12.18932,12.5828 C12.03668,9.1016 10.58336,6.7436 10.58336,6.7436 L10.57112,6.7292 Z M5,10.2274796 L6.31729519,9.54055674 L6.31729519,9.833289 C6.31729519,9.8554658 6.31175107,9.87570182 6.30066267,9.89399768 C6.28957427,9.91229354 6.27127869,9.92809427 6.24577537,9.94140035 L5.64201508,10.2507651 C5.61651176,10.2640712 5.5896228,10.2754366 5.56134738,10.2848618 C5.53307196,10.2942869 5.50285653,10.3028803 5.47070017,10.3106422 C5.50285653,10.3184041 5.53307196,10.3269974 5.56134738,10.3364226 C5.5896228,10.3458477 5.61651176,10.3572132 5.64201508,10.3705192 L6.24577537,10.6815473 C6.27127869,10.6948533 6.28957427,10.7106541 6.30066267,10.7289499 C6.31175107,10.7472458 6.31729519,10.7674818 6.31729519,10.7896586 L6.31729519,11.0823909 L5,10.3938048 L5,10.2274796 Z M7.73771197,9 C7.84859595,9 7.94866725,9.01580073 8.03792886,9.04740267 C8.12719047,9.0790046 8.20342207,9.12280312 8.26662594,9.17879954 C8.32982982,9.23479595 8.37834083,9.30049373 8.41216045,9.37589484 C8.44598006,9.45129595 8.46288962,9.53279446 8.46288962,9.62039281 C8.46288962,9.69690276 8.45429624,9.76426377 8.43710922,9.82247787 C8.4199222,9.88069196 8.39497368,9.93142062 8.3622629,9.97466538 C8.32955213,10.0179101 8.28963449,10.0545013 8.2425088,10.08444 C8.1953831,10.1143787 8.14188238,10.1393272 8.08200503,10.1592863 C8.22615421,10.2047487 8.33371006,10.2740502 8.40467582,10.3671927 C8.47564157,10.4603353 8.51112391,10.5773161 8.51112391,10.7181388 C8.51112391,10.8378935 8.48894745,10.9437861 8.44459385,11.0358198 C8.40024026,11.1278535 8.3403638,11.205194 8.26496269,11.2678434 C8.18956158,11.3304929 8.10224175,11.3778951 8.00300058,11.4100514 C7.90375941,11.4422078 7.79869841,11.4582857 7.68781442,11.4582857 C7.56695087,11.4582857 7.46161267,11.4444254 7.37179664,11.4167044 C7.28198061,11.3889834 7.20380857,11.347957 7.13727818,11.2936238 C7.07074778,11.2392907 7.0141978,11.1727613 6.96762652,11.0940336 C6.92105525,11.015306 6.88113761,10.9243825 6.84787241,10.8212604 L7.02916683,10.7464141 C7.06021434,10.733108 7.09181581,10.7264551 7.12397216,10.7264551 C7.152802,10.7264551 7.17858214,10.7325536 7.20131336,10.7447508 C7.22404458,10.7569481 7.24150854,10.7746892 7.25370578,10.7979749 C7.2736649,10.8367843 7.29556416,10.8750387 7.31940421,10.9127392 C7.34324427,10.9504398 7.37179647,10.9839817 7.40506167,11.0133659 C7.43832686,11.0427502 7.47741288,11.0665899 7.5223209,11.0848858 C7.56722891,11.1031816 7.62072963,11.1123294 7.68282467,11.1123294 C7.75268158,11.1123294 7.81366686,11.100964 7.86578233,11.0782327 C7.91789781,11.0555015 7.96141912,11.0258405 7.99634757,10.9892488 C8.03127603,10.9526571 8.05733338,10.9119078 8.07452039,10.8669998 C8.09170741,10.8220918 8.10030079,10.7769072 8.10030079,10.7314448 C8.10030079,10.6737851 8.09420226,10.6213932 8.08200503,10.5742675 C8.06980779,10.5271418 8.04430485,10.486947 8.00549546,10.4536818 C7.96668606,10.4204166 7.91096769,10.3943593 7.83833868,10.375509 C7.76570967,10.3566587 7.66841043,10.3472337 7.54643804,10.3472337 L7.54643804,10.0545014 C7.64734247,10.0533926 7.73105863,10.0439676 7.79758902,10.0262262 C7.86411941,10.0084847 7.91706572,9.98381342 7.95642954,9.95221148 C7.99579335,9.92060955 8.02323673,9.88263235 8.03876049,9.83827876 C8.05428425,9.79392516 8.06204601,9.74513694 8.06204601,9.69191262 C8.06204601,9.57770212 8.03099896,9.49149111 7.96890392,9.43327702 C7.90680889,9.37506292 7.82198391,9.34595631 7.71442645,9.34595631 C7.61684854,9.34595631 7.53590444,9.37173645 7.47159173,9.42329751 C7.40727901,9.47485856 7.36237167,9.54111075 7.33686835,9.62205606 C7.32356228,9.66419198 7.30526669,9.69440741 7.28198106,9.71270327 C7.25869542,9.73099912 7.22820278,9.74014692 7.19050222,9.74014692 C7.17276079,9.74014692 7.15391079,9.73848368 7.13395167,9.73515716 L6.91772898,9.69690238 C6.93436158,9.58158303 6.96651745,9.48040291 7.01419756,9.39335898 C7.06187768,9.30631505 7.12147693,9.23368713 7.1929971,9.17547303 C7.26451727,9.11725894 7.34657019,9.07346042 7.43915832,9.04407616 C7.53174645,9.01469191 7.63126334,9 7.73771197,9 Z M10.4737607,10.2291429 C10.4737607,10.4387136 10.451307,10.6208378 10.406399,10.775521 C10.361491,10.9302041 10.2993969,11.057996 10.2201148,11.1589004 C10.1408328,11.2598049 10.0471372,11.3349276 9.93902532,11.384271 C9.83091344,11.4336144 9.71420979,11.4582857 9.58891088,11.4582857 C9.46361198,11.4582857 9.34746274,11.4336144 9.24045969,11.384271 C9.13345665,11.3349276 9.0405927,11.2598049 8.96186507,11.1589004 C8.88313744,11.057996 8.82159775,10.9302041 8.77724415,10.775521 C8.73289056,10.6208378 8.71071409,10.4387136 8.71071409,10.2291429 C8.71071409,10.0184633 8.73289056,9.83606186 8.77724415,9.68193311 C8.82159775,9.52780437 8.88313744,9.4002897 8.96186507,9.29938527 C9.0405927,9.19848084 9.13345665,9.12335807 9.24045969,9.07401469 C9.34746274,9.02467132 9.46361198,9 9.58891088,9 C9.71420979,9 9.83091344,9.02467132 9.93902532,9.07401469 C10.0471372,9.12335807 10.1408328,9.19848084 10.2201148,9.29938527 C10.2993969,9.4002897 10.361491,9.52780437 10.406399,9.68193311 C10.451307,9.83606186 10.4737607,10.0184633 10.4737607,10.2291429 Z M10.0496315,10.2291429 C10.0496315,10.055055 10.0368801,9.91090797 10.0113768,9.79669747 C9.98587345,9.68248696 9.95177713,9.59156345 9.9090868,9.52392422 C9.86639646,9.45628499 9.81733103,9.4088828 9.76188904,9.38171622 C9.70644705,9.35454964 9.64878824,9.34096656 9.58891088,9.34096656 C9.53014237,9.34096656 9.47331518,9.35454964 9.4184276,9.38171622 C9.36354003,9.4088828 9.31502901,9.45628499 9.2728931,9.52392422 C9.23075718,9.59156345 9.19721528,9.68248696 9.17226638,9.79669747 C9.14731749,9.91090797 9.13484322,10.055055 9.13484322,10.2291429 C9.13484322,10.4032307 9.14731749,10.5473777 9.17226638,10.6615882 C9.19721528,10.7757988 9.23075718,10.8667223 9.2728931,10.9343615 C9.31502901,11.0020007 9.36354003,11.0494029 9.4184276,11.0765695 C9.47331518,11.1037361 9.53014237,11.1173192 9.58891088,11.1173192 C9.64878824,11.1173192 9.70644705,11.1037361 9.76188904,11.0765695 C9.81733103,11.0494029 9.86639646,11.0020007 9.9090868,10.9343615 C9.95177713,10.8667223 9.98587345,10.7757988 10.0113768,10.6615882 C10.0368801,10.5473777 10.0496315,10.4032307 10.0496315,10.2291429 Z"></path>
        </g>
    </g>
</svg>