<?xml version="1.0" encoding="UTF-8" standalone="no"?>
<svg width="16px" height="16px" viewBox="0 0 16 16" version="1.1" xmlns="http://www.w3.org/2000/svg" xmlns:xlink="http://www.w3.org/1999/xlink">
    <!-- Generator: Sketch 3.6.1 (26313) - http://www.bohemiancoding.com/sketch -->
    <title>pasajero_con_bebe</title>
    <desc>Created with Sketch.</desc>
    <defs></defs>
    <g id="Page-1" stroke="none" stroke-width="1" fill="none" fill-rule="evenodd">
        <g id="pasajero_con_bebe" fill="#000000">
            <path d="M5.86772,8.57186 C6.0812,8.67986 6.32888,8.70866 6.60536,8.65826 C6.81128,8.59706 7.02368,8.49626 7.22456,8.43866 C7.64324,8.19746 8.05076,7.72586 7.7624,6.80066 C7.62416,6.35174 7.41068,6.06158 7.10936,5.90822 C6.82028,5.76206 6.47,5.75882 6.07004,5.89778 C5.59376,6.06194 4.84928,6.5123 5.21252,7.67906 C5.35112,8.12906 5.56568,8.41706 5.86772,8.57186 Z M10.56248,6.75386 L10.55096,6.73946 C10.15532,6.49718 9.23228,6.30026 8.10116,6.30026 L8.07092,6.30062 C8.1206,6.41006 8.1674,6.52454 8.207,6.65306 C8.5202,7.65746 8.19944,8.26586 7.78724,8.62586 C9.07748,8.55386 10.43468,9.35306 10.43468,9.35306 C10.74032,9.47186 10.88144,9.83906 10.7522,10.17026 C10.6226,10.50146 10.27088,10.67426 9.96668,10.55546 L8.65088,10.04426 L5.318,10.91906 L5.51708,9.93986 C5.71004,9.57626 5.95664,9.29186 6.10064,9.14786 C5.94296,9.12266 5.79176,9.08666 5.65352,9.01466 C5.28488,8.82746 5.0192,8.48906 4.83488,7.99946 C4.5674,8.65826 4.26932,9.55466 4.06736,10.63106 C4.06736,10.63106 4.06556,10.63106 4.0652,10.63466 C4.04828,10.71746 4.02452,10.86866 4.00148,11.01626 C3.98816,11.09906 3.97556,11.18186 3.96404,11.26466 C3.95,11.35826 3.93992,11.42666 3.93992,11.42666 L3.94424,11.42666 C3.89816,11.78666 3.86144,12.15746 3.84416,12.54626 L5.77736,13.95746 L10.22264,13.95746 L12.15584,12.54626 C12.00464,9.09026 10.56248,6.75386 10.56248,6.75386 Z M8.01188,5.49386 C9.13652,5.49386 9.47852,4.81634 9.47852,3.76838 C9.47852,2.72006 9.13652,2.04254 8.01188,2.04254 C6.88832,2.04254 6.54488,2.72006 6.54488,3.76838 C6.54488,4.81634 6.88832,5.49386 8.01188,5.49386 Z"></path>
        </g>
    </g>
</svg>