<?xml version="1.0" encoding="UTF-8" standalone="no"?>
<svg width="16px" height="16px" viewBox="0 0 16 16" version="1.1" xmlns="http://www.w3.org/2000/svg" xmlns:xlink="http://www.w3.org/1999/xlink">
    <!-- Generator: Sketch 3.6.1 (26313) - http://www.bohemiancoding.com/sketch -->
    <title>passbook_tarjeta_embarque</title>
    <desc>Created with Sketch.</desc>
    <defs></defs>
    <g id="Page-1" stroke="none" stroke-width="1" fill="none" fill-rule="evenodd">
        <g id="passbook_tarjeta_embarque" fill="#000000">
            <path d="M13.8833,5.00696 C13.95602,5.99768 13.99526,6.9956 13.99526,8.00036 C13.99526,9.94904 13.85522,11.87108 13.5845,13.76324 C11.74418,13.91912 9.88082,14.00156 7.9991,14.00156 C6.11882,14.00156 4.2569,13.91912 2.4155,13.76324 C2.14514,11.87108 2.00474,9.94904 2.00474,8.00036 C2.00474,6.9956 2.04434,5.99768 2.1167,5.00696 C2.42342,4.95224 2.66066,4.6952 2.66066,4.373 C2.66066,4.09184 2.47958,3.85496 2.2283,3.76388 C2.28194,3.25268 2.34278,2.74292 2.4155,2.23532 C4.2569,2.08052 6.11882,1.99844 7.9991,1.99844 C9.88082,1.99844 11.74418,2.08052 13.5845,2.23532 C13.65722,2.74292 13.71842,3.25268 13.77206,3.76388 C13.5215,3.85496 13.3397,4.09076 13.3397,4.373 C13.3397,4.69664 13.57622,4.95296 13.8833,5.00696 M6.30386,5.02928 L7.35398,7.48304 C7.02638,7.5104 6.69518,7.54676 6.37658,7.58204 L6.2927,7.47152 C6.1253,7.2512 5.94674,7.03412 5.74802,6.80876 L5.69654,6.74972 L4.9121,6.74972 L5.27318,7.98344 L5.27318,8.01656 L4.9121,9.25028 L5.69654,9.24956 L5.74802,9.19088 C5.94314,8.96876 6.12746,8.74628 6.2927,8.52884 L6.37802,8.41616 C6.69878,8.45288 7.02962,8.48744 7.35398,8.51696 L6.30386,10.96928 L7.0577,10.96928 L7.11062,10.91672 C7.70894,10.28744 8.2925,9.61892 8.84726,8.92988 C8.9405,8.81288 9.03554,8.69444 9.1295,8.57348 C10.47374,8.55152 11.09978,8.44388 11.30714,8.20772 L11.34926,8.15948 L11.34926,7.8272 L11.28914,7.77428 C11.00114,7.52768 9.92474,7.45136 9.13202,7.42904 C9.03698,7.3088 8.94266,7.18892 8.84726,7.0712 C8.2925,6.38144 7.70894,5.71364 7.11062,5.08364 L7.0595,5.02928 L6.30386,5.02928"></path>
        </g>
    </g>
</svg>