<?xml version="1.0" encoding="UTF-8" standalone="no"?>
<svg width="16px" height="16px" viewBox="0 0 16 16" version="1.1" xmlns="http://www.w3.org/2000/svg" xmlns:xlink="http://www.w3.org/1999/xlink">
    <!-- Generator: Sketch 3.6.1 (26313) - http://www.bohemiancoding.com/sketch -->
    <title>passbook_tarjeta_iberia_plus</title>
    <desc>Created with Sketch.</desc>
    <defs></defs>
    <g id="Page-1" stroke="none" stroke-width="1" fill="none" fill-rule="evenodd">
        <g id="passbook_tarjeta_iberia_plus" fill="#000000">
            <path d="M13.44428,2.38076 C11.64968,2.22812 9.8342,2.14856 7.99928,2.14856 C6.1658,2.14856 4.34924,2.22812 2.55464,2.38076 C2.29112,4.22576 2.1554,6.09956 2.1554,8.00036 C2.1554,9.90044 2.29112,11.7746 2.55464,13.61888 C4.34924,13.77188 6.1658,13.85144 7.99928,13.85144 C9.8342,13.85144 11.64968,13.77188 13.44428,13.61888 C13.70852,11.7746 13.8446,9.90044 13.8446,8.00036 C13.8446,6.09956 13.70852,4.22576 13.44428,2.38076 Z M8,7.47692 C8.24876,7.47692 8.40248,7.38908 8.48996,7.23212 L8.48996,7.07804 C8.15084,7.14392 7.82504,7.14392 7.5086,7.07804 L7.5086,7.235 C7.59716,7.38908 7.75124,7.47692 8,7.47692 Z M8,5.20352 C8.83628,5.20352 9.0908,5.74928 9.0908,6.5978 C9.0908,7.44416 8.83628,7.99244 8,7.99244 C7.16408,7.99244 6.9092,7.44416 6.9092,6.5978 C6.9092,5.74928 7.16408,5.20352 8,5.20352 Z M5.20316,10.79432 C5.33348,10.13336 5.4944,9.4454 5.68052,8.819 C6.04124,8.61884 7.15004,8.44676 8,8.44676 C8.83124,8.44676 9.94976,8.61524 10.30868,8.8082 L10.3184,8.81972 C10.50524,9.44648 10.66544,10.13516 10.79684,10.7972 L5.20316,10.79432 Z"></path>
        </g>
    </g>
</svg>