<?xml version="1.0" encoding="UTF-8" standalone="no"?>
<svg width="16px" height="16px" viewBox="0 0 16 16" version="1.1" xmlns="http://www.w3.org/2000/svg" xmlns:xlink="http://www.w3.org/1999/xlink">
    <!-- Generator: Sketch 3.6.1 (26313) - http://www.bohemiancoding.com/sketch -->
    <title>pause_2</title>
    <desc>Created with Sketch.</desc>
    <defs></defs>
    <g id="Page-1" stroke="none" stroke-width="1" fill="none" fill-rule="evenodd">
        <g id="pause_2" fill="#000000">
            <path d="M8,2.08286 C4.733,2.08286 2.08304,4.73318 2.08304,8.00018 C2.08304,11.26826 4.733,13.91714 8,13.91714 C11.26808,13.91714 13.91696,11.26826 13.91696,8.00018 C13.91696,4.73318 11.26808,2.08286 8,2.08286 M8,12.45806 C5.54228,12.45806 3.5432,10.45898 3.5432,8.00018 C3.5432,5.54282 5.54228,3.54338 8,3.54338 C10.45808,3.54338 12.45752,5.54282 12.45752,8.00018 C12.45752,10.45898 10.45808,12.45806 8,12.45806 Z M6.81056,5.97662 C6.59888,5.97662 6.39152,5.98022 6.30728,5.98886 C6.24284,6.48458 6.13556,7.5005 6.13556,8.00738 C6.13556,8.73386 6.24536,9.54998 6.30728,10.02626 C6.39152,10.03382 6.59888,10.0385 6.81056,10.0385 C7.0226,10.0385 7.2296,10.03382 7.31384,10.02626 C7.3754,9.54998 7.48556,8.73386 7.48556,8.00738 C7.48556,7.5005 7.37864,6.48458 7.31384,5.98886 C7.2296,5.98022 7.0226,5.97662 6.81056,5.97662 Z M9.15308,5.97662 C8.94176,5.97662 8.73404,5.98022 8.6498,5.98886 C8.58536,6.48458 8.47808,7.5005 8.47808,8.00738 C8.47808,8.73386 8.58824,9.54998 8.6498,10.02626 C8.73404,10.03382 8.94176,10.0385 9.15308,10.0385 C9.36476,10.0385 9.57248,10.03382 9.65672,10.02626 C9.71828,9.54998 9.82808,8.73386 9.82808,8.00738 C9.82808,7.5005 9.72116,6.48458 9.65672,5.98886 C9.57248,5.98022 9.36476,5.97662 9.15308,5.97662 Z"></path>
        </g>
    </g>
</svg>