<?xml version="1.0" encoding="UTF-8" standalone="no"?>
<svg width="16px" height="16px" viewBox="0 0 16 16" version="1.1" xmlns="http://www.w3.org/2000/svg" xmlns:xlink="http://www.w3.org/1999/xlink">
    <!-- Generator: Sketch 3.6.1 (26313) - http://www.bohemiancoding.com/sketch -->
    <title>pause</title>
    <desc>Created with Sketch.</desc>
    <defs></defs>
    <g id="Page-1" stroke="none" stroke-width="1" fill="none" fill-rule="evenodd">
        <g id="pause" fill="#000000">
            <path d="M8.00018,2.03696 C4.7123,2.03696 2.03714,4.71176 2.03714,7.99892 C2.03714,11.28788 4.7123,13.96304 8.00018,13.96304 C11.28806,13.96304 13.96286,11.28788 13.96286,7.99892 C13.96286,4.71176 11.28806,2.03696 8.00018,2.03696 M7.1603,10.54052 C7.05446,10.55024 6.79202,10.55564 6.52634,10.55564 C6.25958,10.55564 5.99858,10.55024 5.89274,10.54052 C5.81498,9.94184 5.67602,8.91512 5.67602,8.00108 C5.67602,7.36136 5.81138,6.08372 5.89274,5.45912 C5.9975,5.45012 6.25958,5.44508 6.52634,5.444 C6.7931,5.44508 7.05446,5.45012 7.15922,5.45912 C7.24058,6.08372 7.37594,7.36136 7.37594,8.00108 C7.37594,8.91512 7.23662,9.94184 7.1603,10.54052 M10.10762,10.54052 C10.00142,10.55024 9.74042,10.55564 9.47402,10.55564 C9.20798,10.55564 8.94698,10.55024 8.84006,10.54052 C8.76266,9.94184 8.62442,8.91512 8.62442,8.00108 C8.62442,7.36136 8.75978,6.08372 8.84114,5.45912 C8.9459,5.45012 9.20798,5.44508 9.47402,5.444 C9.7415,5.44508 10.00286,5.45012 10.10762,5.45912 C10.18898,6.08372 10.32434,7.36136 10.32434,8.00108 C10.32434,8.91512 10.18502,9.94184 10.10762,10.54052"></path>
        </g>
    </g>
</svg>