<?xml version="1.0" encoding="UTF-8" standalone="no"?>
<svg width="16px" height="16px" viewBox="0 0 16 16" version="1.1" xmlns="http://www.w3.org/2000/svg" xmlns:xlink="http://www.w3.org/1999/xlink">
    <!-- Generator: Sketch 3.6.1 (26313) - http://www.bohemiancoding.com/sketch -->
    <title>peces</title>
    <desc>Created with Sketch.</desc>
    <defs></defs>
    <g id="Page-1" stroke="none" stroke-width="1" fill="none" fill-rule="evenodd">
        <g id="peces" fill="#000000">
            <path d="M13.174743,7.6436 C13.064223,7.3376 12.451143,6.5492 12.004023,6.1892 C11.564463,5.8328 11.111943,5.5916 10.600743,5.5232 C10.593183,5.5196 10.585263,5.5196 10.577703,5.5196 C10.570863,5.5196 10.564023,5.5232 10.557543,5.5268 L10.557543,5.5196 C10.291143,5.498 10.016103,5.4908 9.737463,5.4908 C9.399783,5.0624 9.038703,4.6556 8.503023,4.6556 C7.973823,4.6556 7.603743,5.0444 7.603743,5.5988 C7.603743,5.6852 7.620303,5.768 7.646223,5.8472 C6.546063,6.2288 5.623023,6.8444 5.003823,7.3304 C4.639143,6.866 4.262583,6.3836 3.679383,6.3836 C3.150543,6.3836 2.780103,6.7724 2.780103,7.3304 C2.780103,7.6508 3.000423,7.928 3.151623,8.0792 C3.000423,8.2304 2.780103,8.5076 2.780103,8.828 C2.780103,9.386 3.150543,9.7748 3.679383,9.7748 C4.263303,9.7748 4.639863,9.2924 5.004543,8.8244 C5.006703,8.8208 5.009223,8.8172 5.011383,8.8172 C5.523303,9.2204 6.238623,9.7064 7.091103,10.0772 C7.048983,10.178 7.020543,10.286 7.020543,10.3976 C7.020543,10.9556 7.390623,11.3444 7.919823,11.3444 C8.407983,11.3444 8.750703,11.006 9.063543,10.6244 C9.256503,10.6424 9.452343,10.6568 9.650343,10.6568 C9.966063,10.6568 10.275663,10.6424 10.576623,10.6208 L10.576623,10.6172 C10.925823,10.5992 11.381943,10.376 11.992503,9.818 C12.688383,9.1808 13.047303,8.558 13.172583,8.1512 C13.228023,7.9676 13.242063,7.8236 13.174743,7.6436 M11.607303,7.37 C11.445663,7.37 11.314263,7.2404 11.314263,7.0784 C11.314263,6.9164 11.445663,6.7832 11.607303,6.7832 C11.768583,6.7832 11.899263,6.9164 11.899263,7.0784 C11.899263,7.2404 11.768583,7.37 11.607303,7.37"></path>
        </g>
    </g>
</svg>