<?xml version="1.0" encoding="UTF-8" standalone="no"?>
<svg width="16px" height="16px" viewBox="0 0 16 16" version="1.1" xmlns="http://www.w3.org/2000/svg" xmlns:xlink="http://www.w3.org/1999/xlink">
    <!-- Generator: Sketch 3.6.1 (26313) - http://www.bohemiancoding.com/sketch -->
    <title>peliculas</title>
    <desc>Created with Sketch.</desc>
    <defs></defs>
    <g id="Page-1" stroke="none" stroke-width="1" fill="none" fill-rule="evenodd">
        <g id="peliculas" fill="#000000">
            <path d="M13.7705252,2.177 L13.0145252,2.177 L13.0145252,2.663 L11.8805252,2.663 L11.8805252,2.177 L4.11784517,2.177 L4.11784517,2.663 L2.98348517,2.663 L2.98348517,2.177 L2.23468517,2.177 C2.03272517,4.049 1.94524517,6.0938 1.94884517,8.099 C1.95172517,10.115 2.05252517,12.0914 2.23468517,13.823 L2.98348517,13.823 L2.98348517,13.2938 L4.11784517,13.2938 L4.11784517,13.823 L11.8805252,13.823 L11.8805252,13.2938 L13.0145252,13.2938 L13.0145252,13.823 L13.7683652,13.823 C13.9465652,12.0914 14.0470052,10.115 14.0509652,8.099 C14.0570852,6.0938 13.9685252,4.049 13.7705252,2.177 L13.7705252,2.177 Z M2.98384517,12.0734 L4.11784517,12.0734 L4.11784517,10.9394 L2.98384517,10.9394 L2.98384517,12.0734 Z M2.98384517,9.7226 L4.11784517,9.7226 L4.11784517,8.5886 L2.98384517,8.5886 L2.98384517,9.7226 Z M2.98384517,7.3682 L4.11784517,7.3682 L4.11784517,6.2342 L2.98384517,6.2342 L2.98384517,7.3682 Z M2.98384517,5.0138 L4.11784517,5.0138 L4.11784517,3.8834 L2.98384517,3.8834 L2.98384517,5.0138 Z M11.8805252,12.0734 L13.0145252,12.0734 L13.0145252,10.9394 L11.8805252,10.9394 L11.8805252,12.0734 Z M11.8805252,9.7226 L13.0145252,9.7226 L13.0145252,8.5886 L11.8805252,8.5886 L11.8805252,9.7226 Z M11.8805252,7.3682 L13.0145252,7.3682 L13.0145252,6.2342 L11.8805252,6.2342 L11.8805252,7.3682 Z M11.8805252,5.0138 L13.0145252,5.0138 L13.0145252,3.8834 L11.8805252,3.8834 L11.8805252,5.0138 Z"></path>
        </g>
    </g>
</svg>