<?xml version="1.0" encoding="UTF-8" standalone="no"?>
<svg width="16px" height="16px" viewBox="0 0 16 16" version="1.1" xmlns="http://www.w3.org/2000/svg" xmlns:xlink="http://www.w3.org/1999/xlink">
    <!-- Generator: Sketch 3.6.1 (26313) - http://www.bohemiancoding.com/sketch -->
    <title>perfil_login</title>
    <desc>Created with Sketch.</desc>
    <defs></defs>
    <g id="Page-1" stroke="none" stroke-width="1" fill="none" fill-rule="evenodd">
        <g id="perfil_login" fill="#000000">
            <path d="M10.04246,5.37704 C10.04246,6.96212 9.56474,7.98704 7.99946,7.98704 C6.43526,7.98704 5.95754,6.96212 5.95754,5.37704 C5.95754,3.79124 6.43526,2.76668 7.99946,2.76668 C9.56474,2.76668 10.04246,3.79124 10.04246,5.37704 M7.08182,6.27812 L7.08182,6.57044 C7.24598,6.85772 7.53398,7.02224 7.99946,7.02224 C8.4653,7.02224 8.75366,6.85772 8.91782,6.56504 L8.91782,6.27812 C8.28422,6.39908 7.67222,6.39908 7.08182,6.27812 M12.3389,9.53612 C12.68846,10.709 12.9887,11.99636 13.23422,13.23332 L2.76578,13.2326 C3.01094,11.9942 3.31082,10.70684 3.66038,9.53396 C4.33646,9.15992 6.41114,8.837 7.99946,8.837 C9.55574,8.837 11.64914,9.15272 12.31946,9.51416 L12.3389,9.53612"></path>
        </g>
    </g>
</svg>