<?xml version="1.0" encoding="UTF-8" standalone="no"?>
<svg width="16px" height="16px" viewBox="0 0 16 16" version="1.1" xmlns="http://www.w3.org/2000/svg" xmlns:xlink="http://www.w3.org/1999/xlink">
    <!-- Generator: Sketch 3.6.1 (26313) - http://www.bohemiancoding.com/sketch -->
    <title>persona</title>
    <desc>Created with Sketch.</desc>
    <defs></defs>
    <g id="Page-1" stroke="none" stroke-width="1" fill="none" fill-rule="evenodd">
        <g id="persona" fill="#000000">
            <path d="M8.0072,4.33718 C7.33004,4.33718 7.12376,3.90338 7.12376,3.23342 C7.12376,2.56238 7.33004,2.12858 8.0072,2.12858 C8.68436,2.12858 8.89028,2.56238 8.89028,3.23342 C8.89028,3.90338 8.68436,4.33718 8.0072,4.33718 M9.5426,5.14358 C9.5426,5.14358 10.412,6.63902 10.50344,8.84942 L9.33776,9.75302 C9.27224,11.01662 9.03284,12.70142 8.9,13.87142 L7.09964,13.87142 C6.9668,12.70142 6.7274,11.01662 6.66152,9.75302 L5.49656,8.84942 C5.588,6.63902 6.45596,5.1425 6.45596,5.1425 C6.45596,5.1425 7.16624,4.85486 7.90568,4.85486 L8.06084,4.85342 C8.74124,4.85342 9.29816,4.97906 9.53612,5.13458 L9.5426,5.14358"></path>
        </g>
    </g>
</svg>