<?xml version="1.0" encoding="UTF-8" standalone="no"?>
<svg width="16px" height="16px" viewBox="0 0 16 16" version="1.1" xmlns="http://www.w3.org/2000/svg" xmlns:xlink="http://www.w3.org/1999/xlink">
    <!-- Generator: Sketch 3.6.1 (26313) - http://www.bohemiancoding.com/sketch -->
    <title>play_2</title>
    <desc>Created with Sketch.</desc>
    <defs></defs>
    <g id="Page-1" stroke="none" stroke-width="1" fill="none" fill-rule="evenodd">
        <g id="play_2" fill="#000000">
            <path d="M8,2.06576 C4.72256,2.06576 2.06612,4.724 2.06612,8 C2.06612,11.2778 4.72256,13.93424 8,13.93424 C11.27744,13.93424 13.93388,11.2778 13.93388,8 C13.93388,4.724 11.27744,2.06576 8,2.06576 M8,12.47084 C5.53616,12.47084 3.53024,10.46564 3.53024,8 C3.53024,5.53616 5.53616,3.53096 8,3.53096 C10.46456,3.53096 12.47012,5.53616 12.47012,8 C12.47012,10.46564 10.46456,12.47084 8,12.47084 Z M6.00524,8.0342 C6.00524,9.39896 6.12836,9.71396 6.12836,9.71396 L10.38464,7.94852 L6.12836,6.18308 C6.12836,6.18308 6.00524,6.62336 6.00524,8.0342 Z"></path>
        </g>
    </g>
</svg>