<?xml version="1.0" encoding="UTF-8" standalone="no"?>
<svg width="16px" height="16px" viewBox="0 0 16 16" version="1.1" xmlns="http://www.w3.org/2000/svg" xmlns:xlink="http://www.w3.org/1999/xlink">
    <!-- Generator: Sketch 3.6.1 (26313) - http://www.bohemiancoding.com/sketch -->
    <title>portatil</title>
    <desc>Created with Sketch.</desc>
    <defs></defs>
    <g id="Page-1" stroke="none" stroke-width="1" fill="none" fill-rule="evenodd">
        <g id="portatil" fill="#000000">
            <path d="M9.50174,10.9144897 L9.10394,10.1811697 L6.83882,10.1415697 L6.4151,10.8604897 L9.50174,10.9144897 L9.50174,10.9144897 Z M4.8131,5.01588968 L4.74254,9.06336968 L11.32334,9.17820968 L11.3939,5.13072968 L4.8131,5.01588968 L4.8131,5.01588968 Z M13.2047,11.0822497 C13.1687,11.2824097 13.14026,11.4836497 13.10714,11.6852497 C11.42306,11.7964897 9.71306,11.8389697 7.9811,11.8087297 C6.2495,11.7784897 4.54202,11.6762497 2.86298,11.5063297 C2.83706,11.3036497 2.81546,11.1020497 2.7953,10.8990097 L3.98546,9.54216968 C3.9059,8.71056968 3.8717,7.87104968 3.88646,7.02432968 C3.90266,6.11136968 3.97502,5.20884968 4.09886,4.31712968 C5.4179,4.20876968 6.75746,4.16448968 8.11394,4.18788968 C9.47006,4.21164968 10.80746,4.30308968 12.12254,4.45716968 C12.2147,5.35284968 12.25646,6.25752968 12.24062,7.17012968 C12.22586,8.01648968 12.16214,8.85456968 12.05378,9.68292968 L13.2047,11.0822497 L13.2047,11.0822497 Z"></path>
        </g>
    </g>
</svg>