<?xml version="1.0" encoding="UTF-8" standalone="no"?>
<svg width="16px" height="16px" viewBox="0 0 16 16" version="1.1" xmlns="http://www.w3.org/2000/svg" xmlns:xlink="http://www.w3.org/1999/xlink">
    <!-- Generator: Sketch 3.6.1 (26313) - http://www.bohemiancoding.com/sketch -->
    <title>posicion_correcta</title>
    <desc>Created with Sketch.</desc>
    <defs></defs>
    <g id="Page-1" stroke="none" stroke-width="1" fill="none" fill-rule="evenodd">
        <g id="posicion_correcta" fill="#000000">
            <path d="M9.47816,4.44896 C9.43892,3.9878 9.39428,3.47408 9.34136,3.095 C8.49464,2.897 7.45856,2.7476 6.5492,2.7476 C5.64092,2.7476 4.75784,2.8538 3.9104,3.05144 C3.68432,4.67 3.5666,6.32168 3.5666,8 C3.5666,9.6794 3.68432,11.33 3.9104,12.9482 C4.75784,13.1462 5.64092,13.2524 6.5492,13.2524 C7.45856,13.2524 8.4176,13.19084 9.26432,12.9914 C9.38816,12.104 9.476,11.42144 9.53216,10.56104 C11.14604,10.47644 12.4334,9.14048 12.4334,7.50644 C12.4334,5.85368 11.1176,4.5062 9.47816,4.44896 L9.47816,4.44896 Z M6.55928,12.65012 C6.2504,12.65012 6.00056,12.39992 6.00056,12.0914 C6.00056,11.78324 6.2504,11.53268 6.55928,11.53268 C6.86816,11.53268 7.11764,11.78324 7.11764,12.0914 C7.11764,12.39992 6.86816,12.65012 6.55928,12.65012 L6.55928,12.65012 Z M4.45004,10.92932 C4.3838,10.05272 4.35104,8.87552 4.35104,8 C4.35104,6.73892 4.41944,5.46992 4.55516,4.21496 L8.75348,4.21496 C8.7596,4.28048 8.76428,4.38776 8.76932,4.50404 C7.3682,4.78448 6.30872,6.02324 6.30872,7.50644 C6.30872,8.99504 7.3772,10.23812 8.78732,10.51172 C8.78084,10.6532 8.77436,10.79504 8.76428,10.92932 L4.45004,10.92932 L4.45004,10.92932 Z M9.37088,9.84248 C8.08316,9.84248 7.0352,8.79452 7.0352,7.50644 C7.0352,6.21728 8.08316,5.16932 9.37088,5.16932 C10.65932,5.16932 11.70728,6.21728 11.70728,7.50644 C11.70728,8.79452 10.65932,9.84248 9.37088,9.84248 Z M9.3086,7.45064 L8.76392,6.90632 L8.23328,7.43768 L8.77724,7.98272 L9.30644,8.5148 L9.84068,7.98308 L10.85768,6.96428 L10.32668,6.43364 L9.3086,7.45064 Z"></path>
        </g>
    </g>
</svg>