<?xml version="1.0" encoding="UTF-8" standalone="no"?>
<svg width="16px" height="16px" viewBox="0 0 16 16" version="1.1" xmlns="http://www.w3.org/2000/svg" xmlns:xlink="http://www.w3.org/1999/xlink">
    <!-- Generator: Sketch 3.6.1 (26313) - http://www.bohemiancoding.com/sketch -->
    <title>posicion_incorrecta</title>
    <desc>Created with Sketch.</desc>
    <defs></defs>
    <g id="Page-1" stroke="none" stroke-width="1" fill="none" fill-rule="evenodd">
        <g id="posicion_incorrecta" fill="#000000">
            <path d="M9.52874,10.5542 C11.13938,10.47032 12.42458,9.13832 12.42458,7.50752 C12.42458,5.858 11.11058,4.5134 9.4751,4.45652 C9.4355,3.99536 9.39122,3.48308 9.3383,3.10508 C8.49302,2.90672 7.4591,2.7584 6.5519,2.7584 C5.64542,2.7584 4.76378,2.8646 3.91886,3.06224 C3.69278,4.67612 3.57542,6.3242 3.57542,8.00036 C3.57542,9.6758 3.69278,11.3228 3.91886,12.93704 C4.76378,13.13576 5.64542,13.2416 6.5519,13.2416 C7.4591,13.2416 8.41634,13.18004 9.26162,12.98132 C9.38546,12.09536 9.47258,11.41388 9.52874,10.5542 M11.6999,7.50752 C11.6999,8.79272 10.65374,9.8378 9.36818,9.8378 C8.08226,9.8378 7.03646,8.79272 7.03646,7.50752 C7.03646,6.2216 8.08226,5.17508 9.36818,5.17508 C10.65374,5.17508 11.6999,6.2216 11.6999,7.50752 M4.56182,4.2218 L8.75186,4.2218 C8.75762,4.28732 8.76266,4.39532 8.7677,4.51124 C7.36874,4.7906 6.31178,6.02756 6.31178,7.50752 C6.31178,8.99324 7.3781,10.23308 8.7857,10.5056 C8.77922,10.64672 8.77202,10.7882 8.7623,10.92212 L4.45706,10.92212 C4.39046,10.04912 4.35734,8.87372 4.35734,8.00036 C4.35734,6.74108 4.42646,5.47532 4.56182,4.2218 M6.56162,12.63896 C6.25418,12.63896 6.00434,12.39056 6.00434,12.08204 C6.00434,11.7746 6.25418,11.5244 6.56162,11.5244 C6.87014,11.5244 7.1189,11.7746 7.1189,12.08204 C7.1189,12.39056 6.87014,12.63896 6.56162,12.63896 Z M10.66238,6.6626 C10.5965,6.57944 10.29662,6.28028 10.21418,6.21368 C9.94958,6.42572 9.69182,6.64928 9.44234,6.88328 C9.1925,6.64928 8.93474,6.42572 8.67014,6.21368 C8.5877,6.28028 8.28782,6.57944 8.2223,6.6626 C8.43398,6.92612 8.65682,7.18352 8.89082,7.433 C8.64602,7.69328 8.4131,7.96004 8.1917,8.23544 C8.25794,8.31752 8.55854,8.61776 8.64062,8.684 C8.91566,8.46368 9.1835,8.2304 9.44234,7.98596 C9.70154,8.2304 9.9683,8.46368 10.2437,8.684 C10.32578,8.61776 10.62638,8.31752 10.69226,8.23544 C10.47122,7.96004 10.2383,7.69328 9.9935,7.433 C10.22786,7.18352 10.45034,6.92612 10.66238,6.6626 Z"></path>
        </g>
    </g>
</svg>