<?xml version="1.0" encoding="UTF-8" standalone="no"?>
<svg width="16px" height="16px" viewBox="0 0 16 16" version="1.1" xmlns="http://www.w3.org/2000/svg" xmlns:xlink="http://www.w3.org/1999/xlink">
    <!-- Generator: Sketch 3.6.1 (26313) - http://www.bohemiancoding.com/sketch -->
    <title>preload</title>
    <desc>Created with Sketch.</desc>
    <defs></defs>
    <g id="Page-1" stroke="none" stroke-width="1" fill="none" fill-rule="evenodd">
        <g id="preload" fill="#000000">
            <path d="M2.77424,8.00072 C2.77424,7.67024 3.04244,7.40168 3.37328,7.40168 C3.70376,7.40168 3.97232,7.67024 3.97232,8.00072 C3.97232,8.33156 3.70376,8.59976 3.37328,8.59976 C3.04244,8.59976 2.77424,8.33156 2.77424,8.00072 L2.77424,8.00072 Z M9.40436,5.35472 L9.44972,5.40296 C9.98324,5.96348 10.50344,6.55892 10.997,7.17164 C11.08232,7.27748 11.16584,7.38368 11.2508,7.4924 C11.9564,7.51112 12.91472,7.5788 13.17176,7.79984 L13.22576,7.84556 L13.22576,8.14184 L13.18688,8.1854 C13.00292,8.39456 12.44564,8.49104 11.24828,8.51084 C11.1644,8.61848 11.08124,8.72396 10.997,8.828 C10.50344,9.44144 9.98324,10.03688 9.44936,10.59704 L9.40436,10.64564 L8.73188,10.64564 L9.6668,8.45972 C9.37736,8.43488 9.08432,8.40356 8.79776,8.37044 L8.72216,8.47088 C8.57456,8.66456 8.41148,8.86328 8.23724,9.06056 L8.19116,9.11276 L7.49276,9.11276 L7.81424,8.01512 L7.81424,7.98488 L7.49276,6.88688 L8.19116,6.88688 L8.23724,6.93944 C8.41364,7.14032 8.5724,7.33328 8.7218,7.52876 C8.747,7.56152 8.77148,7.59464 8.79632,7.62812 C9.07964,7.59536 9.3752,7.5644 9.66644,7.5392 L8.73188,5.35436 L9.40436,5.35472 L9.40436,5.35472 Z M6.0992,8.00072 C6.0992,7.67024 6.36668,7.40168 6.69716,7.40168 C7.02872,7.40168 7.2962,7.67024 7.2962,8.00072 C7.2962,8.33156 7.02872,8.59976 6.69716,8.59976 C6.36668,8.59976 6.0992,8.33156 6.0992,8.00072 L6.0992,8.00072 Z M4.43672,8.00072 C4.43672,7.67024 4.70492,7.40168 5.0354,7.40168 C5.36624,7.40168 5.6348,7.67024 5.6348,8.00072 C5.6348,8.33156 5.36624,8.59976 5.0354,8.59976 C4.70492,8.59976 4.43672,8.33156 4.43672,8.00072 L4.43672,8.00072 Z"></path>
        </g>
    </g>
</svg>