<?xml version="1.0" encoding="UTF-8" standalone="no"?>
<svg width="16px" height="16px" viewBox="0 0 16 16" version="1.1" xmlns="http://www.w3.org/2000/svg" xmlns:xlink="http://www.w3.org/1999/xlink">
    <!-- Generator: Sketch 3.6.1 (26313) - http://www.bohemiancoding.com/sketch -->
    <title>prensa</title>
    <desc>Created with Sketch.</desc>
    <defs></defs>
    <g id="Page-1" stroke="none" stroke-width="1" fill="none" fill-rule="evenodd">
        <g id="prensa" fill="#000000">
            <path d="M13.2843975,7.9028 C13.2811575,6.7256 13.2095175,5.5772 13.2095175,5.5772 L10.5242775,2.7368 L3.00963754,2.7368 C2.82243754,4.2992 2.71875754,6.0848 2.71551754,7.8992 C2.71335754,9.2384 2.76195754,11.222 2.87031754,13.2632 L13.1331975,13.2632 C13.2397575,11.222 13.2876375,9.2384 13.2843975,7.9028 M3.66735754,12.5108 C3.58527754,10.7828 3.54855754,9.1376 3.54999754,8.126 C3.55251754,6.7436 3.70767754,4.688 3.84987754,3.5 L10.2197175,3.5036 L10.1210775,5.2712 L12.4286775,5.4944 C12.4862775,6.074 12.4736775,6.8552 12.4499175,8.126 C12.4308375,9.1376 12.4045575,10.7828 12.3307575,12.5108 L3.66735754,12.5108 Z M4.94715754,7.2692 L9.46623754,7.2692 L9.46623754,4.256 L4.94715754,4.256 L4.94715754,7.2692 Z M4.94715754,8.774 L10.9724775,8.774 L10.9724775,8.0216 L4.94715754,8.0216 L4.94715754,8.774 Z M8.71311754,11.7872 L10.9724775,11.7872 L10.9724775,9.5264 L8.71311754,9.5264 L8.71311754,11.7872 Z M4.94751754,10.2824 L7.95999754,10.2824 L7.95999754,9.5264 L4.94751754,9.5264 L4.94751754,10.2824 Z M4.94751754,11.7872 L7.95999754,11.7872 L7.95999754,11.0348 L4.94751754,11.0348 L4.94751754,11.7872 Z"></path>
        </g>
    </g>
</svg>