<?xml version="1.0" encoding="UTF-8" standalone="no"?>
<svg width="16px" height="16px" viewBox="0 0 16 16" version="1.1" xmlns="http://www.w3.org/2000/svg" xmlns:xlink="http://www.w3.org/1999/xlink">
    <!-- Generator: Sketch 3.6.1 (26313) - http://www.bohemiancoding.com/sketch -->
    <title>radio</title>
    <desc>Created with Sketch.</desc>
    <defs></defs>
    <g id="Page-1" stroke="none" stroke-width="1" fill="none" fill-rule="evenodd">
        <g id="radio" fill="#000000">
            <path d="M8.70812,8.4356 L11.7818,8.4356 L11.7818,7.6544 L8.70812,7.6544 L8.70812,8.4356 Z M3.87692,9.152 C3.87692,10.142 4.67828,10.9448 5.66684,10.9448 C6.65576,10.9448 7.45676,10.142 7.45676,9.152 C7.45676,8.1656 6.65576,7.3628 5.66684,7.3628 C4.67828,7.3628 3.87692,8.1656 3.87692,9.152 L3.87692,9.152 Z M2.78108,9.152 C2.78108,7.586 4.02992,6.3116 5.58656,6.2684 C6.54308,6.2036 7.45748,6.1712 8.71136,6.1712 C9.58688,6.1712 10.10744,6.1784 10.76696,6.2108 C10.84004,6.2144 6.53696,4.634 6.53696,4.634 L6.5348,3.8636 L13.21892,6.3296 L13.21892,11.9132 C11.53412,12.0572 10.6226,12.1364 8.71136,12.1364 C7.44056,12.1364 6.5186,12.104 5.5484,12.0356 C4.0094,11.9744 2.78108,10.7072 2.78108,9.152 L2.78108,9.152 Z M4.2668,9.152 C4.2668,8.9252 4.45292,8.738 4.68224,8.738 C4.91228,8.738 5.09768,8.9252 5.09768,9.152 C5.09768,9.3824 4.91228,9.5696 4.68224,9.5696 C4.45292,9.5696 4.2668,9.3824 4.2668,9.152 L4.2668,9.152 Z M5.25104,8.1692 C5.25104,7.9388 5.43752,7.7552 5.6672,7.7552 C5.89652,7.7552 6.08264,7.9388 6.08264,8.1692 C6.08264,8.3996 5.89652,8.5832 5.6672,8.5832 C5.43752,8.5832 5.25104,8.3996 5.25104,8.1692 L5.25104,8.1692 Z M5.25104,10.1384 C5.25104,9.908 5.43752,9.7244 5.6672,9.7244 C5.89652,9.7244 6.08264,9.908 6.08264,10.1384 C6.08264,10.3688 5.89652,10.5524 5.6672,10.5524 C5.43752,10.5524 5.25104,10.3688 5.25104,10.1384 L5.25104,10.1384 Z M6.23636,9.152 C6.23636,8.9252 6.42176,8.738 6.6518,8.738 C6.88112,8.738 7.06724,8.9252 7.06724,9.152 C7.06724,9.3824 6.88112,9.5696 6.6518,9.5696 C6.42176,9.5696 6.23636,9.3824 6.23636,9.152 L6.23636,9.152 Z"></path>
        </g>
    </g>
</svg>