<?xml version="1.0" encoding="UTF-8" standalone="no"?>
<svg width="16px" height="16px" viewBox="0 0 16 16" version="1.1" xmlns="http://www.w3.org/2000/svg" xmlns:xlink="http://www.w3.org/1999/xlink">
    <!-- Generator: Sketch 3.7.1 (28215) - http://www.bohemiancoding.com/sketch -->
    <title>recargar</title>
    <desc>Created with Sketch.</desc>
    <defs></defs>
    <g id="Page-1" stroke="none" stroke-width="1" fill="none" fill-rule="evenodd">
        <g id="recargar" fill="#000000">
            <path d="M3,7.99524246 C3,5.23839916 5.24296146,2.99426624 8.00019524,2.99426624 C8.18333398,2.99426624 8.36842516,3.00480941 8.55234488,3.02550526 L8.55234488,2.21719568 C8.55234488,2.11332594 8.61638486,2.01882792 8.71088289,1.97860768 C8.8092858,1.94033988 8.91823187,1.96181671 8.99320551,2.03639986 L10.7648483,3.81194752 C10.8655941,3.91269335 10.8655941,4.07357429 10.7648483,4.17588208 L8.99398649,5.95533461 C8.91862236,6.0287463 8.8092858,6.05139459 8.71088289,6.01117436 C8.61638486,5.97056363 8.55234488,5.87684658 8.55234488,5.77336734 L8.55234488,4.87680753 C8.36920614,4.84322559 8.18489594,4.82799657 8.00019524,4.82799657 C6.25354368,4.82799657 4.83216838,6.24898138 4.83216838,7.99524246 C4.83216838,9.74111305 6.25393416,11.1632693 8.00019524,11.1632693 C9.74645632,11.1632693 11.1674411,9.74072256 11.1674411,7.99524246 C11.1674411,7.85349542 11.282635,7.73752056 11.425944,7.73752056 L12.7414971,7.73752056 C12.8840251,7.73752056 13,7.85349542 13,7.99524246 C13,10.7516953 10.7554766,12.9969997 8.00019524,12.9969997 C5.24296146,12.9969997 3,10.7516953 3,7.99524246 Z" id="Shape"></path>
        </g>
    </g>
</svg>