<?xml version="1.0" encoding="UTF-8" standalone="no"?>
<svg width="16px" height="16px" viewBox="0 0 16 16" version="1.1" xmlns="http://www.w3.org/2000/svg" xmlns:xlink="http://www.w3.org/1999/xlink">
    <!-- Generator: Sketch 3.6.1 (26313) - http://www.bohemiancoding.com/sketch -->
    <title>recopilar</title>
    <desc>Created with Sketch.</desc>
    <defs></defs>
    <g id="Page-1" stroke="none" stroke-width="1" fill="none" fill-rule="evenodd">
        <g id="recopilar" fill="#000000">
            <path d="M6.4583,10.2032 L3.57326,13.0904 L2.78486,13.2164 L2.90906,12.4316 L5.7977,9.5408 L6.4583,10.2032 L6.4583,10.2032 Z M4.78682,6.0308 L6.07778,7.3232 C6.47234,6.8804 7.10162,6.2288 7.65278,5.6744 C8.2205,5.1092 8.82854,4.526 9.28394,4.1228 L8.64278,3.482 L9.3419,2.7836 L13.21514,6.6572 L12.51638,7.3556 L11.8565,6.6932 C11.4515,7.1504 10.87046,7.7588 10.30238,8.324 C9.75122,8.8784 9.0971,9.5048 8.65538,9.9008 L9.94994,11.1932 L9.28394,11.8628 L4.12046,6.6968 L4.78682,6.0308 L4.78682,6.0308 Z"></path>
        </g>
    </g>
</svg>