<?xml version="1.0" encoding="UTF-8" standalone="no"?>
<svg width="16px" height="16px" viewBox="0 0 16 16" version="1.1" xmlns="http://www.w3.org/2000/svg" xmlns:xlink="http://www.w3.org/1999/xlink">
    <!-- Generator: Sketch 3.6.1 (26313) - http://www.bohemiancoding.com/sketch -->
    <title>reembolsos</title>
    <desc>Created with Sketch.</desc>
    <defs></defs>
    <g id="Page-1" stroke="none" stroke-width="1" fill="none" fill-rule="evenodd">
        <g id="reembolsos" fill="#000000">
            <path d="M7.99982,2.04974 C4.71338,2.04974 2.04974,4.71374 2.04974,7.99982 C2.04974,11.28626 4.71338,13.95026 7.99982,13.95026 C11.28554,13.95026 13.95026,11.28626 13.95026,7.99982 C13.95026,4.71374 11.28554,2.04974 7.99982,2.04974 M7.99982,12.48254 C5.52842,12.48254 3.5171,10.47194 3.5171,7.99982 C3.5171,5.52914 5.52842,3.51782 7.99982,3.51782 C10.4705,3.51782 12.48182,5.52914 12.48182,7.99982 C12.48182,10.47194 10.4705,12.48254 7.99982,12.48254 Z M8.99558,9.53054 C8.84978,9.57518 8.6651,9.5975 8.4419,9.5975 C8.16686,9.5975 7.9289,9.54566 7.72802,9.44018 C7.52894,9.3365 7.40438,9.18854 7.35542,8.99774 L8.66186,8.99774 L8.79614,8.3033 L7.22186,8.3033 L7.22186,7.95698 L8.66186,7.95698 L8.79614,7.26326 L7.28162,7.26326 C7.31258,7.15274 7.3637,7.05194 7.43534,6.96302 C7.50626,6.87482 7.5905,6.79886 7.68878,6.73658 C7.78634,6.67466 7.89686,6.62678 8.0189,6.59294 C8.14094,6.55946 8.26874,6.5429 8.40266,6.5429 C8.5445,6.5429 8.69318,6.56306 8.84978,6.60266 C9.00494,6.64298 9.1619,6.69662 9.32246,6.76322 L9.6155,6.04934 C9.46466,5.97374 9.27854,5.9039 9.0557,5.83874 C8.83322,5.77502 8.59094,5.74298 8.3285,5.74298 C8.06174,5.74298 7.81442,5.77718 7.5851,5.8463 C7.35686,5.91578 7.15058,6.02054 6.96878,6.1631 C6.80822,6.29198 6.67142,6.4475 6.55874,6.62966 C6.44534,6.81254 6.35894,7.0235 6.3017,7.26326 L5.74838,7.26326 L5.74838,7.95698 L6.2549,7.95698 L6.2549,8.3033 L5.74838,8.3033 L5.74838,8.99774 L6.3215,8.99774 C6.38342,9.2105 6.46478,9.40238 6.56522,9.5705 C6.66494,9.7397 6.79238,9.88154 6.94826,9.99782 C7.12178,10.13138 7.32554,10.23038 7.55846,10.2977 C7.7921,10.3643 8.04878,10.39778 8.3285,10.39778 C8.62658,10.39778 8.88254,10.36898 9.09566,10.31102 C9.3095,10.25378 9.4985,10.18394 9.6623,10.10474 L9.40958,9.37754 C9.28034,9.43442 9.14246,9.48626 8.99558,9.53054 Z"></path>
        </g>
    </g>
</svg>