<?xml version="1.0" encoding="UTF-8" standalone="no"?>
<svg width="16px" height="16px" viewBox="0 0 16 16" version="1.1" xmlns="http://www.w3.org/2000/svg" xmlns:xlink="http://www.w3.org/1999/xlink">
    <!-- Generator: Sketch 3.6.1 (26313) - http://www.bohemiancoding.com/sketch -->
    <title>religioso</title>
    <desc>Created with Sketch.</desc>
    <defs></defs>
    <g id="Page-1" stroke="none" stroke-width="1" fill="none" fill-rule="evenodd">
        <g id="religioso" fill="#000000">
            <path d="M10.3730531,9.4598 C10.431778,9.13738709 10.4715689,8.8000078 10.4900902,8.4518 L8.27,8.4518 L8.27,9.4598 L10.3730531,9.4598 Z M10.2535559,9.9998 C9.96295135,11.107635 9.43849386,11.9849274 8.79338469,12.4311341 C8.62209202,12.4620138 8.44742845,12.4830783 8.27,12.493723 L8.27,9.9998 L10.2535559,9.9998 Z M5.8827148,9.4598 C5.82601311,9.13643275 5.7879128,8.79887569 5.77091346,8.4518 L7.73,8.4518 L7.73,9.4598 L5.8827148,9.4598 Z M5.99778106,9.9998 C6.2840754,11.1337291 6.80677425,12.03553 7.43819553,12.466595 C7.53454925,12.4787578 7.63185159,12.4878346 7.72999998,12.493723 L7.73,9.9998 L5.99778106,9.9998 Z M12.2271771,9.4598 C12.3349568,9.13848288 12.4070646,8.80091092 12.4387722,8.4518 L11.0310321,8.4518 C11.0139946,8.79922935 10.9773593,9.13619861 10.9228934,9.4598 L12.2271771,9.4598 Z M12.0054288,9.9998 C11.5600141,10.908966 10.8139845,11.6449054 9.89769591,12.0775976 C10.2993713,11.5274778 10.6154097,10.8166911 10.8126538,9.9998 L12.0054288,9.9998 Z M3.77282293,9.4598 C3.66504316,9.13848288 3.59293544,8.80091092 3.56122779,8.4518 L5.22973591,8.4518 C5.24481648,8.79922321 5.27876083,9.1362016 5.32986171,9.4598 L3.77282293,9.4598 Z M3.99457115,9.9998 C4.48664906,11.0042132 5.34562783,11.797203 6.39574038,12.2034541 C5.96883887,11.6388054 5.63474372,10.8811881 5.4337034,9.9998 L3.99457115,9.9998 Z M10.4359791,6.9506 C10.4755877,7.26073193 10.4980592,7.5822391 10.5015268,7.9118 L8.27,7.9118 L8.27,6.9506 L10.4359791,6.9506 Z M10.3476318,6.4106 C10.1062902,5.20842811 9.5995706,4.22726893 8.95323676,3.69089778 C8.73117261,3.64228703 8.50296976,3.61029218 8.27000011,3.5962912 L8.27,6.4106 L10.3476318,6.4106 Z M5.83157731,6.9506 C5.79059106,7.2612943 5.76662854,7.58297207 5.76173679,7.9118 L7.73,7.9118 L7.73,6.9506 L5.83157731,6.9506 Z M5.92195499,6.4106 C6.182233,5.13458319 6.73567457,4.1043463 7.41883517,3.62595588 C7.52151044,3.61251498 7.62527358,3.60258503 7.72999998,3.5962912 L7.73,6.4106 L5.92195499,6.4106 Z M12.3210344,6.9506 C12.3994259,7.25957647 12.4454257,7.58126203 12.4551941,7.9118 L11.041571,7.9118 C11.0383876,7.58241722 11.0177848,7.2612425 10.9811732,6.9506 L12.3210344,6.9506 Z M12.1464092,6.4106 C11.7418116,5.38873443 10.9696347,4.55027447 9.99377659,4.05984566 C10.413175,4.68326355 10.7291359,5.48984775 10.8996399,6.4106 L12.1464092,6.4106 Z M3.67896562,6.9506 C3.60057408,7.25957647 3.55457431,7.58126203 3.54480594,7.9118 L5.22162379,7.9118 C5.22593969,7.58221609 5.24715494,7.26101467 5.28387415,6.9506 L3.67896562,6.9506 Z M3.85359076,6.4106 C4.30904095,5.2602994 5.23027693,4.34240503 6.38350827,3.89174493 C5.90979827,4.52479328 5.55179965,5.39639384 5.36519866,6.4106 L3.85359076,6.4106 Z M8.50327891,2.82002034 C11.166251,3.07338997 13.24916,5.31669945 13.24916,8.045 C13.24916,10.9466 10.89908,13.2938 8,13.2938 C7.96351112,13.2938 7.92710921,13.2934282 7.89079787,13.2926881 C7.8681024,13.2934282 7.84534242,13.2938 7.82252,13.2938 L7.82252,13.2908597 C5.00561077,13.1973896 2.75084,10.8871528 2.75084,8.045 C2.75084,5.20637348 5.00561077,2.89275486 7.82252,2.79914472 L7.82252,2.7062 C8.05676348,2.7062 8.28442897,2.74536484 8.50327891,2.82002034 Z"></path>
        </g>
    </g>
</svg>