<?xml version="1.0" encoding="UTF-8" standalone="no"?>
<svg width="16px" height="16px" viewBox="0 0 16 16" version="1.1" xmlns="http://www.w3.org/2000/svg" xmlns:xlink="http://www.w3.org/1999/xlink">
    <!-- Generator: Sketch 3.6.1 (26313) - http://www.bohemiancoding.com/sketch -->
    <title>reloj</title>
    <desc>Created with Sketch.</desc>
    <defs></defs>
    <g id="Page-1" stroke="none" stroke-width="1" fill="none" fill-rule="evenodd">
        <g id="reloj" fill="#000000">
            <path d="M7.79138,3.5432 C10.2491,3.5432 12.24854,5.5448 12.24854,8 C12.24854,10.4588 10.2491,12.4568 7.79138,12.4568 C5.33366,12.4568 3.33422,10.4588 3.33422,8 C3.33422,5.5448 5.33366,3.5432 7.79138,3.5432 M12.9686814,8.8712 C12.5539542,11.3572853 10.3938757,13.2488 7.79138,13.2488 C4.8923,13.2488 2.54222,10.9016 2.54222,8 C2.54222,5.102 4.8923,2.7512 7.79138,2.7512 C10.3948219,2.7512 12.5555248,4.64699358 12.969133,7.1324 L13.09778,7.1324 C13.45778,7.1324 13.45778,7.4924 13.45778,7.4924 L13.45778,8.5112 C13.45778,8.8712 13.09778,8.8712 13.09778,8.8712 L12.9686814,8.8712 Z M8.14094,7.7012 L8.14094,8.4212 L7.42094,8.4212 L7.42094,4.85 L8.14094,4.85 L8.14094,7.7012 L10.14938,7.7012 L10.14938,8.4212 L7.42094,8.4212 L7.42094,7.7012 L8.14094,7.7012 Z M11.74166,8.3168 C11.91554,8.3168 12.05702,8.1764 12.05702,8 C12.05702,7.8272 11.91554,7.6868 11.74166,7.6868 C11.56706,7.6868 11.4263,7.8272 11.4263,8 C11.4263,8.1764 11.56706,8.3168 11.74166,8.3168 Z M3.93902,8.3168 C4.11326,8.3168 4.25438,8.1764 4.25438,8 C4.25438,7.8272 4.11326,7.6868 3.93902,7.6868 C3.76514,7.6868 3.62366,7.8272 3.62366,8 C3.62366,8.1764 3.76514,8.3168 3.93902,8.3168 Z M8.1557,4.1012 C8.1557,3.9248 8.01422,3.7844 7.84034,3.7844 C7.6661,3.7844 7.52498,3.9248 7.52498,4.1012 C7.52498,4.274 7.6661,4.4144 7.84034,4.4144 C8.01422,4.4144 8.1557,4.274 8.1557,4.1012 Z M8.1557,11.9024 C8.1557,11.7296 8.01422,11.5856 7.84034,11.5856 C7.6661,11.5856 7.52498,11.7296 7.52498,11.9024 C7.52498,12.0752 7.6661,12.2192 7.84034,12.2192 C8.01422,12.2192 8.1557,12.0752 8.1557,11.9024 Z"></path>
        </g>
    </g>
</svg>