<?xml version="1.0" encoding="UTF-8" standalone="no"?>
<svg width="16px" height="16px" viewBox="0 0 16 16" version="1.1" xmlns="http://www.w3.org/2000/svg" xmlns:xlink="http://www.w3.org/1999/xlink">
    <!-- Generator: Sketch 3.6.1 (26313) - http://www.bohemiancoding.com/sketch -->
    <title>reptiles</title>
    <desc>Created with Sketch.</desc>
    <defs></defs>
    <g id="Page-1" stroke="none" stroke-width="1" fill="none" fill-rule="evenodd">
        <g id="reptiles" fill="#000000">
            <path d="M13.2317,9.5138 L13.23098,9.0098 C13.2317,8.513 12.8771,8.0774 12.36374,7.9442 L11.70638,7.7714 C11.29922,5.7194 9.80162,5.0462 7.65566,5.0462 C5.18282,5.0462 3.5675,5.939 3.49766,8.819 L3.10598,8.9198 C2.90582,8.9738 2.7683,9.143 2.7683,9.3338 L2.7683,9.5138 L4.21298,9.5138 L4.21298,10.9538 L4.58558,10.9538 C4.98842,10.9538 5.34302,10.6658 5.4521,10.2482 L5.6447,9.5138 L9.49202,9.5138 L9.49202,10.9538 L9.86462,10.9538 C10.26782,10.9538 10.62242,10.6658 10.73114,10.2482 L10.92374,9.5138 L13.2317,9.5138"></path>
        </g>
    </g>
</svg>