<?xml version="1.0" encoding="UTF-8" standalone="no"?>
<svg width="16px" height="16px" viewBox="0 0 16 16" version="1.1" xmlns="http://www.w3.org/2000/svg" xmlns:xlink="http://www.w3.org/1999/xlink">
    <!-- Generator: Sketch 3.6.1 (26313) - http://www.bohemiancoding.com/sketch -->
    <title>reserva_de_hoteles</title>
    <desc>Created with Sketch.</desc>
    <defs></defs>
    <g id="Page-1" stroke="none" stroke-width="1" fill="none" fill-rule="evenodd">
        <g id="reserva_de_hoteles" fill="#000000">
            <path d="M11.2895,5.53778 C12.23306,5.53778 13.22126,6.1811 13.22126,6.99578 L13.22126,7.22222 L7.36334,7.22222 C7.31654,7.06022 7.29098,6.88814 7.29098,6.70886 C7.29098,5.71058 7.70678,5.06042 8.66834,5.06042 C9.27602,5.06042 9.95714,5.32178 10.37618,5.76818 C10.62242,5.62238 10.9313,5.53778 11.2895,5.53778 M6.6941,6.2531 C6.6941,6.99938 6.31826,7.22726 5.7383,7.22726 C5.1569,7.22726 4.7807,6.99938 4.7807,6.2531 C4.7807,5.50682 5.1569,5.2793 5.7383,5.2793 C6.31826,5.2793 6.6941,5.50682 6.6941,6.2531 M2.77874,8.05094 C2.77874,6.65306 2.84462,5.3243 2.96306,4.22774 L4.22558,4.22774 L4.22558,7.87634 L13.22126,7.87634 L13.22126,9.1151 C13.22126,9.81854 13.17878,11.13866 13.1003,11.77226 L11.77298,11.77226 L11.77298,9.82394 L4.22558,9.82394 L4.22558,11.77226 L2.90006,11.77226 C2.82158,10.7585 2.77874,9.17666 2.77874,8.05094"></path>
        </g>
    </g>
</svg>