<?xml version="1.0" encoding="UTF-8" standalone="no"?>
<svg width="16px" height="16px" viewBox="0 0 16 16" version="1.1" xmlns="http://www.w3.org/2000/svg" xmlns:xlink="http://www.w3.org/1999/xlink">
    <!-- Generator: Sketch 3.6.1 (26313) - http://www.bohemiancoding.com/sketch -->
    <title>rodaje</title>
    <desc>Created with Sketch.</desc>
    <defs></defs>
    <g id="Page-1" stroke="none" stroke-width="1" fill="none" fill-rule="evenodd">
        <g id="rodaje" fill="#000000">
            <path d="M2.78522,11.6999 L13.1813,11.6999 L13.1813,10.95542 L2.78522,10.95542 L2.78522,11.6999 Z M13.2101,9.31994 C13.05206,9.44342 12.54482,9.58022 11.87882,9.60362 L7.16858,9.52118 C6.7715,9.51434 3.7943,8.8901 3.7943,8.8901 C3.7943,8.8901 3.05954,7.0469 2.81186,6.5501 L3.48722,6.5501 C3.48722,6.5501 4.40162,7.51778 5.07338,8.07038 C5.61878,8.0693 6.2153,8.04122 6.81866,8.0495 L5.01974,4.3001 L5.71238,4.3001 C5.71238,4.3001 6.63182,5.06834 7.62146,6.16958 C8.65034,7.31366 9.36206,8.0891 9.43046,8.06102 C9.52046,8.07434 11.26862,8.14382 11.61386,8.17586 C12.2669,8.23598 12.7961,8.5967 13.21478,9.06326 L13.2101,9.31994 L13.2101,9.31994 Z M8.70398,10.27106 C8.6759,10.04282 8.8379,9.83582 9.06578,9.80774 C9.2933,9.78002 9.50066,9.94202 9.5291,10.16954 C9.55646,10.39778 9.39482,10.60478 9.16694,10.6325 C8.93906,10.66058 8.7317,10.49894 8.70398,10.27106 L8.70398,10.27106 Z M7.45874,10.27106 C7.43102,10.04282 7.59302,9.83582 7.8209,9.80774 C8.04878,9.78002 8.25578,9.94202 8.28386,10.16954 C8.31158,10.39778 8.14994,10.60478 7.92206,10.6325 C7.69418,10.66058 7.48682,10.49894 7.45874,10.27106 L7.45874,10.27106 Z"></path>
        </g>
    </g>
</svg>