<?xml version="1.0" encoding="UTF-8" standalone="no"?>
<svg width="16px" height="16px" viewBox="0 0 16 16" version="1.1" xmlns="http://www.w3.org/2000/svg" xmlns:xlink="http://www.w3.org/1999/xlink">
    <!-- Generator: Sketch 3.6.1 (26313) - http://www.bohemiancoding.com/sketch -->
    <title>rss_feed</title>
    <desc>Created with Sketch.</desc>
    <defs></defs>
    <g id="Page-1" stroke="none" stroke-width="1" fill="none" fill-rule="evenodd">
        <g id="rss_feed" fill="#000000">
            <path d="M5.94086473,11.6054179 C5.94086473,12.4874179 5.22626473,13.2002179 4.34426473,13.2002179 C3.46334473,13.2002179 2.74838473,12.4874179 2.74838473,11.6054179 C2.74838473,10.7234179 3.46334473,10.0070179 4.34426473,10.0070179 C5.22626473,10.0070179 5.94086473,10.7234179 5.94086473,11.6054179 L5.94086473,11.6054179 Z M2.74838473,6.32421786 C4.59626473,5.99301786 6.54926473,6.54381786 7.97738473,7.97301786 C9.39974473,9.39501786 9.94946473,11.3570179 9.62726473,13.2002179 L7.96442473,13.2002179 C8.31146473,11.7854179 7.93238473,10.2266179 6.82610473,9.12141786 C5.72090473,8.01621786 4.16354473,7.63821786 2.74838473,7.98381786 L2.74838473,6.32421786 L2.74838473,6.32421786 Z M2.74838473,2.98701786 C5.51138473,2.40741786 8.48678473,3.17061786 10.6320247,5.31621786 C12.7736647,7.45821786 13.6549447,10.4426179 13.0796647,13.2002179 L11.3642647,13.2002179 C11.9701447,10.8566179 11.3552647,8.26461786 9.51998473,6.42861786 C7.68434473,4.59261786 5.09126473,3.97701786 2.74838473,4.58181786 L2.74838473,2.98701786 L2.74838473,2.98701786 Z"></path>
        </g>
    </g>
</svg>