<?xml version="1.0" encoding="UTF-8" standalone="no"?>
<svg width="16px" height="16px" viewBox="0 0 16 16" version="1.1" xmlns="http://www.w3.org/2000/svg" xmlns:xlink="http://www.w3.org/1999/xlink">
    <!-- Generator: Sketch 3.6.1 (26313) - http://www.bohemiancoding.com/sketch -->
    <title>sala_de_conferencias</title>
    <desc>Created with Sketch.</desc>
    <defs></defs>
    <g id="Page-1" stroke="none" stroke-width="1" fill="none" fill-rule="evenodd">
        <g id="sala_de_conferencias" fill="#000000">
            <path d="M5.65298,11.55752 C5.39702,11.42072 4.5989,11.30192 4.00382,11.30192 C3.39722,11.30192 2.60594,11.42432 2.34782,11.56832 C2.21498,12.01472 2.10014,12.50792 2.0069,12.97952 L6.00254,12.97952 C5.90786,12.50792 5.79374,12.01472 5.66018,11.56832 L5.65298,11.55752 Z M3.22442,9.98072 C3.22442,10.58552 3.40694,10.97792 4.00382,10.97792 C4.60178,10.97792 4.78358,10.58552 4.78358,9.98072 C4.78358,9.37592 4.60178,8.98352 4.00382,8.98352 C3.40694,8.98352 3.22442,9.37592 3.22442,9.98072 Z M9.64862,11.55752 C9.39374,11.42072 8.59418,11.30192 7.99982,11.30192 C7.39358,11.30192 6.60194,11.42432 6.34382,11.56832 C6.21098,12.01472 6.09506,12.50792 6.00254,12.97952 L9.99782,12.97952 C9.90458,12.50792 9.78974,12.01472 9.65618,11.56832 L9.64862,11.55752 Z M7.22078,9.98072 C7.22078,10.58552 7.40258,10.97792 8.00018,10.97792 C8.59742,10.97792 8.77922,10.58552 8.77922,9.98072 C8.77922,9.37592 8.59742,8.98352 8.00018,8.98352 C7.40258,8.98352 7.22078,9.37592 7.22078,9.98072 Z M11.21606,9.98072 C11.21606,10.58552 11.39822,10.97792 11.9951,10.97792 C12.59342,10.97792 12.77522,10.58552 12.77522,9.98072 C12.77522,9.37592 12.59342,8.98352 11.9951,8.98352 C11.39822,8.98352 11.21606,9.37592 11.21606,9.98072 Z M13.64462,11.55752 C13.38902,11.42072 12.58946,11.30192 11.9951,11.30192 C11.38958,11.30192 10.59758,11.42432 10.3391,11.56832 C10.20626,12.01472 10.0907,12.50792 9.99782,12.97952 L13.9931,12.97952 C13.89986,12.50792 13.7843,12.01472 13.65146,11.56832 L13.64462,11.55752 Z M5.66018,5.60384 L5.65298,5.59556 C5.39702,5.4584 4.5989,5.3378 4.00382,5.3378 C3.39722,5.3378 2.60594,5.46056 2.34782,5.60276 C2.21498,6.0506 2.10014,6.54272 2.0069,7.01432 L6.00254,7.01432 C5.90786,6.54272 5.79374,6.05168 5.66018,5.60384 Z M4.00382,5.01272 C4.60178,5.01272 4.78358,4.6214 4.78358,4.01696 C4.78358,3.41144 4.60178,3.02048 4.00382,3.02048 C3.4073,3.02048 3.22442,3.41144 3.22442,4.01696 C3.22442,4.6214 3.4073,5.01272 4.00382,5.01272 Z M7.99982,5.01272 C8.59742,5.01272 8.77922,4.6214 8.77922,4.01696 C8.77922,3.41144 8.59742,3.02048 7.99982,3.02048 C7.40294,3.02048 7.22042,3.41144 7.22042,4.01696 C7.22042,4.6214 7.40294,5.01272 7.99982,5.01272 Z M9.65618,5.60384 L9.64862,5.59556 C9.39338,5.4584 8.59382,5.3378 7.99982,5.3378 C7.39322,5.3378 6.60194,5.46056 6.34346,5.60276 C6.21098,6.0506 6.09506,6.54272 6.00254,7.01432 L9.99782,7.01432 C9.90458,6.54272 9.78974,6.05168 9.65618,5.60384 Z M11.9951,5.01272 C12.59342,5.01272 12.77522,4.6214 12.77522,4.01696 C12.77522,3.41144 12.59342,3.02048 11.9951,3.02048 C11.39822,3.02048 11.2157,3.41144 11.2157,4.01696 C11.2157,4.6214 11.39822,5.01272 11.9951,5.01272 Z M13.65146,5.60384 L13.64462,5.59556 C13.38938,5.4584 12.5891,5.3378 11.9951,5.3378 C11.38922,5.3378 10.59794,5.46056 10.3391,5.60276 C10.20626,6.0506 10.09106,6.54272 9.99818,7.01432 L13.9931,7.01432 C13.89986,6.54272 13.78466,6.05168 13.65146,5.60384 Z"></path>
        </g>
    </g>
</svg>