<?xml version="1.0" encoding="UTF-8" standalone="no"?>
<svg width="16px" height="16px" viewBox="0 0 16 16" version="1.1" xmlns="http://www.w3.org/2000/svg" xmlns:xlink="http://www.w3.org/1999/xlink">
    <!-- Generator: Sketch 3.6.1 (26313) - http://www.bohemiancoding.com/sketch -->
    <title>sala_vip</title>
    <desc>Created with Sketch.</desc>
    <defs></defs>
    <g id="Page-1" stroke="none" stroke-width="1" fill="none" fill-rule="evenodd">
        <g id="sala_vip" fill="#000000">
            <path d="M13.1529752,2.80142 L2.85229518,2.80142 C2.67229518,4.47326 2.59381518,6.29666 2.59705518,8.09054 C2.59957518,9.88766 2.68957518,11.65274 2.85229518,13.19858 L13.1504552,13.19858 C13.3088552,11.65274 13.3984952,9.88766 13.4028152,8.08838 C13.4078552,6.29666 13.3286552,4.47326 13.1529752,2.80142 L13.1529752,2.80142 Z M6.97645518,6.47666 C6.69097518,7.51454 6.33277518,8.57006 5.96809518,9.44954 L5.95657518,9.47654 L5.31217518,9.47654 L5.30065518,9.45062 C4.90141518,8.5373 4.52845518,7.48106 4.25269518,6.47666 L4.23757518,6.42158 L4.95973518,6.42158 L4.96765518,6.4547 C5.10373518,7.01306 5.35753518,7.80074 5.63725518,8.53298 C5.91517518,7.7597 6.14989518,6.99038 6.26977518,6.45542 L6.27769518,6.42158 L6.99157518,6.42158 L6.97645518,6.47666 L6.97645518,6.47666 Z M7.75657518,9.47654 L8.45317518,9.47654 L8.45317518,6.42158 L7.75657518,6.42158 L7.75657518,9.47654 Z M11.7046952,7.4807 C11.7046952,7.84178 11.6067752,8.0927 11.3961752,8.2709 C11.1819752,8.45162 10.9378952,8.48726 10.5883352,8.48726 L10.1552552,8.48726 L10.1552552,9.47654 L9.45973518,9.47654 L9.45973518,6.4475 L9.49825518,6.44282 C9.61417518,6.43058 9.79669518,6.42158 9.93205518,6.42158 L10.6192952,6.42158 C10.9278152,6.42158 11.1780152,6.45722 11.3958152,6.63686 C11.5948952,6.79994 11.7046952,7.0811 11.7046952,7.42814 L11.7046952,7.4807 Z M10.5800552,7.00766 L10.1552552,7.00766 L10.1552552,7.9001 L10.5800552,7.9001 C10.7326952,7.9001 10.8169352,7.8731 10.8903752,7.79966 C10.9612952,7.72874 11.0001752,7.61102 11.0001752,7.46702 L11.0001752,7.4411 C11.0001752,7.29746 10.9612952,7.17974 10.8903752,7.10846 C10.8169352,7.03502 10.7326952,7.00766 10.5800552,7.00766 Z"></path>
        </g>
    </g>
</svg>