<?xml version="1.0" encoding="UTF-8" standalone="no"?>
<svg width="16px" height="16px" viewBox="0 0 16 16" version="1.1" xmlns="http://www.w3.org/2000/svg" xmlns:xlink="http://www.w3.org/1999/xlink">
    <!-- Generator: Sketch 3.6.1 (26313) - http://www.bohemiancoding.com/sketch -->
    <title>salidas_y_llegadas</title>
    <desc>Created with Sketch.</desc>
    <defs></defs>
    <g id="Page-1" stroke="none" stroke-width="1" fill="none" fill-rule="evenodd">
        <g id="salidas_y_llegadas" fill="#000000">
            <path d="M8.50454,10.87424 C8.50454,9.56168 9.56834,8.49752 10.88054,8.49752 C12.1931,8.49752 13.25654,9.56168 13.25654,10.87424 C13.25654,12.1868 12.1931,13.2506 10.88054,13.2506 C9.56834,13.2506 8.50454,12.1868 8.50454,10.87424 L8.50454,10.87424 Z M10.48814,12.482 L11.27258,12.482 L11.27258,10.51928 L10.48814,10.51928 L10.48814,12.482 Z M10.44206,9.71972 C10.44206,10.05452 10.67138,10.11068 10.86614,10.11068 L10.89458,10.11068 C11.09006,10.11068 11.31866,10.05452 11.31866,9.71972 L11.31866,9.70244 C11.31866,9.3626 11.09006,9.30104 10.89458,9.30104 L10.86614,9.30104 C10.67138,9.30104 10.44206,9.3626 10.44206,9.70244 L10.44206,9.71972 L10.44206,9.71972 Z M11.86334,5.56928 L11.79458,5.39972 C11.39066,5.21 10.94354,5.12108 10.4993,5.26292 C10.2635,5.33816 9.0989,5.7788 9.03662,5.79572 C8.99954,5.83244 8.40266,5.48252 7.41014,5.01884 C6.45542,4.5728 5.68322,4.31108 5.68322,4.31108 L5.19866,4.47488 L7.32194,6.51428 C6.92378,6.677 6.54146,6.8606 6.18398,7.01288 C5.58998,6.83828 5.09606,6.70868 4.45526,6.58232 L4.0427,6.76304 C4.34294,7.019 5.3657,7.9388 5.3657,7.9388 C5.3657,7.9388 7.69814,7.48736 7.95986,7.38188 L11.06954,6.12512 C11.49938,5.92496 11.79422,5.69384 11.86334,5.56928 L11.86334,5.56928 Z M13.05278,3.03272 C13.18922,4.30136 13.26122,5.58548 13.26122,6.88184 C13.26122,7.55072 13.24214,8.20844 13.20506,8.86184 C12.6413,8.21168 11.80898,7.8002 10.88054,7.8002 C9.18278,7.8002 7.80614,9.17648 7.80614,10.87424 C7.80614,10.91168 7.80722,10.94912 7.8083,10.98656 C6.16526,10.97972 4.54418,10.88252 2.94722,10.7036 C2.81042,9.43496 2.73878,8.17928 2.73878,6.88184 C2.73878,5.58512 2.81042,4.30136 2.94722,3.03236 C4.60574,2.84588 6.2909,2.7494 7.99946,2.7494 C9.70766,2.7494 11.39354,2.84588 13.05278,3.03272 L13.05278,3.03272 Z"></path>
        </g>
    </g>
</svg>