<?xml version="1.0" encoding="UTF-8" standalone="no"?>
<svg width="16px" height="16px" viewBox="0 0 16 16" version="1.1" xmlns="http://www.w3.org/2000/svg" xmlns:xlink="http://www.w3.org/1999/xlink">
    <!-- Generator: Sketch 3.6.1 (26313) - http://www.bohemiancoding.com/sketch -->
    <title>salida_de_emergencia</title>
    <desc>Created with Sketch.</desc>
    <defs></defs>
    <g id="Page-1" stroke="none" stroke-width="1" fill="none" fill-rule="evenodd">
        <g id="salida_de_emergencia" fill="#000000">
            <path d="M10.12137,7.19 L10.92309,7.19 L10.92309,9.4544 L11.65137,9.4544 L11.65137,7.19 L12.43329,7.19 L12.49305,6.5456 L10.12137,6.5456 L10.12137,7.19 L10.12137,7.19 Z M3.77025002,6.5636 L3.69717002,6.5744 L3.69717002,9.4148 C3.83793002,9.44 3.96789002,9.4544 4.11189002,9.4544 L5.63073002,9.4544 L5.66961002,8.8316 L4.42581002,8.8316 L4.42581002,8.2844 L5.33121002,8.2844 L5.37009002,7.6616 L4.62201002,7.6616 C4.55433002,7.6616 4.48485002,7.6652 4.42581002,7.6688 L4.42581002,7.172 L5.62137002,7.172 L5.67105002,6.5456 L4.11189002,6.5456 C3.99489002,6.5456 3.87429002,6.5528 3.77025002,6.5636 L3.77025002,6.5636 Z M6.84069002,7.9568 L5.83305002,9.4544 L6.63621002,9.4544 L7.23885002,8.5616 L7.83069002,9.4544 L8.68209002,9.4544 L7.68381002,7.964 L8.64249002,6.5456 L7.83933002,6.5456 L7.28169002,7.3664 L6.74637002,6.5456 L5.90793002,6.5456 L6.84069002,7.9568 L6.84069002,7.9568 Z M9.00141002,9.4544 L9.72969002,9.4544 L9.72969002,6.5456 L9.00141002,6.5456 L9.00141002,9.4544 Z M12.98481,2.9708 C13.15509,4.5872 13.23213,6.3512 13.22673,8.0828 C13.22313,9.8252 13.13601,11.5316 12.98229,13.0292 L3.02037002,13.0292 C2.86341002,11.5316 2.77593002,9.8252 2.77305002,8.0864 C2.77089002,6.3512 2.84649002,4.5872 3.02037002,2.9708 L12.98481,2.9708 L12.98481,2.9708 Z"></path>
        </g>
    </g>
</svg>