<?xml version="1.0" encoding="UTF-8" standalone="no"?>
<svg width="16px" height="16px" viewBox="0 0 16 16" version="1.1" xmlns="http://www.w3.org/2000/svg" xmlns:xlink="http://www.w3.org/1999/xlink">
    <!-- Generator: Sketch 3.6.1 (26313) - http://www.bohemiancoding.com/sketch -->
    <title>salidas</title>
    <desc>Created with Sketch.</desc>
    <defs></defs>
    <g id="Page-1" stroke="none" stroke-width="1" fill="none" fill-rule="evenodd">
        <g id="salidas" fill="#000000">
            <path d="M11.86244,7.40222 L11.79476,7.23302 C11.39192,7.04546 10.9466,6.95654 10.50416,7.09766 C10.26908,7.17254 9.10916,7.61174 9.04688,7.6283 C9.00944,7.66502 8.41472,7.3169 7.42616,6.85466 C6.47504,6.41006 5.70536,6.14942 5.70536,6.14942 L5.22368,6.3125 L7.33832,8.34434 C6.94232,8.50634 6.56036,8.68994 6.20432,8.8415 C5.61356,8.66726 5.12072,8.53802 4.4828,8.41202 L4.07096,8.59238 C4.37048,8.84798 5.38964,9.76418 5.38964,9.76418 C5.38964,9.76418 7.71344,9.31382 7.97444,9.20834 L11.0726,7.95626 C11.50064,7.75718 11.7944,7.52714 11.86244,7.40222 M12.99104,3.84794 C13.12604,5.21738 13.19696,6.60086 13.19696,8.00054 C13.19696,9.3995 13.12604,10.78406 12.99104,12.15278 C11.35232,12.35402 9.68696,12.45806 7.99964,12.45806 C6.31232,12.45806 4.64768,12.35402 3.00932,12.15278 C2.87324,10.78406 2.80304,9.39986 2.80304,8.00054 C2.80304,6.60086 2.87324,5.21738 3.00932,3.84722 C4.64768,3.64634 6.31232,3.54194 7.99964,3.54194 C9.68696,3.54194 11.35232,3.64634 12.99104,3.84794"></path>
        </g>
    </g>
</svg>