<?xml version="1.0" encoding="UTF-8" standalone="no"?>
<svg width="16px" height="16px" viewBox="0 0 16 16" version="1.1" xmlns="http://www.w3.org/2000/svg" xmlns:xlink="http://www.w3.org/1999/xlink">
    <!-- Generator: Sketch 3.6.1 (26313) - http://www.bohemiancoding.com/sketch -->
    <title>salud_y_bienestar</title>
    <desc>Created with Sketch.</desc>
    <defs></defs>
    <g id="Page-1" stroke="none" stroke-width="1" fill="none" fill-rule="evenodd">
        <g id="salud_y_bienestar" fill="#000000">
            <path d="M6.13646,7.24926566 L6.88238,7.60926566 L6.28118,9.49926566 L12.0851,9.49926566 L12.0851,10.2228657 C11.29742,11.0004657 10.6163,11.4972657 9.95102,11.9292657 C8.93978,12.5232657 6.81578,13.4484657 3.9059,13.1712657 L3.9059,10.2192657 L6.13646,7.24926566 L6.13646,7.24926566 Z M10.88126,4.66446566 C11.34314,4.66446566 11.74238,4.95606566 11.92778,5.37366566 C11.97062,5.46726566 12.00194,5.57166566 12.01994,5.67606566 C12.0689,5.87766566 12.0941,6.09366566 12.0941,6.31326566 C12.0941,7.58406566 11.23514,8.62446566 10.14038,8.73246566 C10.07846,8.73606566 9.88946,8.73966566 9.85742,8.73966566 C9.82502,8.73966566 9.63566,8.73606566 9.5741,8.73246566 C8.47934,8.62446566 7.62002,7.58406566 7.62002,6.31326566 C7.62002,6.09366566 7.64594,5.87766566 7.69418,5.67606566 C7.71254,5.57166566 7.74386,5.46726566 7.78634,5.37366566 C7.97246,4.95606566 8.37134,4.66446566 8.83286,4.66446566 C9.10142,4.66446566 9.34838,4.76166566 9.54494,4.92726566 C9.74618,5.06766566 9.9557,5.06766566 10.17314,4.92366566 C10.36898,4.76166566 10.61522,4.66446566 10.88126,4.66446566 L10.88126,4.66446566 Z M11.37518,2.79966566 C11.40398,3.21006566 11.25026,3.63126566 10.92014,3.93006566 C10.58858,4.22886566 10.1537,4.33686566 9.74726,4.26486566 C9.7181,3.85446566 9.87254,3.43326566 10.20266,3.13446566 C10.53386,2.83566566 10.96802,2.72766566 11.37518,2.79966566 L11.37518,2.79966566 Z"></path>
        </g>
    </g>
</svg>