<?xml version="1.0" encoding="UTF-8" standalone="no"?>
<svg width="16px" height="16px" viewBox="0 0 16 16" version="1.1" xmlns="http://www.w3.org/2000/svg" xmlns:xlink="http://www.w3.org/1999/xlink">
    <!-- Generator: Sketch 3.6.1 (26313) - http://www.bohemiancoding.com/sketch -->
    <title>seguridad</title>
    <desc>Created with Sketch.</desc>
    <defs></defs>
    <g id="Page-1" stroke="none" stroke-width="1" fill="none" fill-rule="evenodd">
        <g id="seguridad" fill="#000000">
            <path d="M11.5266708,6.58268 L10.6533108,6.58268 L10.6533108,4.8842 C10.6533108,3.3974 9.46279083,2.18852 8.00047083,2.18852 C6.53707083,2.18852 5.34655083,3.3974 5.34655083,4.8842 L5.34655083,6.58268 L4.47679083,6.58268 C4.35331083,7.74404 4.30003083,9.01232 4.30219083,10.25936 C4.30399083,11.50892 4.36555083,12.73616 4.47679083,13.81148 L11.5252308,13.81148 C11.6343108,12.73616 11.6955108,11.50892 11.6976708,10.25828 C11.7016308,9.01232 11.6472708,7.74404 11.5266708,6.58268 L11.5266708,6.58268 Z M6.39703083,4.8842 C6.39703083,3.986 7.11631083,3.25556 8.00047083,3.25556 C8.88391083,3.25556 9.60283083,3.986 9.60283083,4.8842 L9.60283083,6.58268 L6.39703083,6.58268 L6.39703083,4.8842 L6.39703083,4.8842 Z M8.41159083,10.30652 L8.41159083,11.25764 C8.41159083,11.48768 8.22691083,11.6756 8.00047083,11.6756 C7.77331083,11.6756 7.58935083,11.48768 7.58935083,11.25764 L7.58935083,10.30652 C7.34419083,10.16144 7.17787083,9.89576 7.17787083,9.58688 C7.17787083,9.12536 7.54579083,8.75132 8.00047083,8.75132 C8.45407083,8.75132 8.82235083,9.12536 8.82235083,9.58688 C8.82235083,9.89576 8.65531083,10.16144 8.41159083,10.30652 L8.41159083,10.30652 Z"></path>
        </g>
    </g>
</svg>