<svg xmlns="http://www.w3.org/2000/svg" width="272" height="133" viewBox="0 0 272 133">
    <defs>
        <linearGradient id="prefix__a" x1="43.835%" x2="87.832%" y1="45.946%" y2="59.317%">
            <stop offset="0%" stop-color="#333" stop-opacity="0"/>
            <stop offset="100%" stop-color="#333" stop-opacity=".15"/>
        </linearGradient>
        <linearGradient id="prefix__b" x1="10.469%" x2="36.935%" y1="48.715%" y2="50.261%">
            <stop offset="0%" stop-color="#333" stop-opacity=".15"/>
            <stop offset="100%" stop-color="#333" stop-opacity="0"/>
        </linearGradient>
        <linearGradient id="prefix__c" x1="22.987%" x2="99.776%" y1="66.829%" y2="39.217%">
            <stop offset="0%" stop-color="#D7D1CB"/>
            <stop offset="100%" stop-color="#D7D1CB" stop-opacity="0"/>
        </linearGradient>
        <linearGradient id="prefix__d" x1="11.76%" x2="108.065%" y1="96.252%" y2="6.195%">
            <stop offset="0%" stop-color="#D7D1CB"/>
            <stop offset="100%" stop-color="#D7D1CB" stop-opacity="0"/>
        </linearGradient>
        <linearGradient id="prefix__e" x1="50.456%" x2="49.729%" y1="-18.263%" y2="98.157%">
            <stop offset="0%" stop-color="#D7D1CB"/>
            <stop offset="100%" stop-color="#D7D1CB" stop-opacity="0"/>
        </linearGradient>
        <linearGradient id="prefix__f" x1="35.475%" x2="55.567%" y1="4.642%" y2="47.064%">
            <stop offset="0%" stop-color="#FEED99"/>
            <stop offset="92.3%" stop-color="#FEED99" stop-opacity="0"/>
        </linearGradient>
        <linearGradient id="prefix__g" x1="46.947%" x2="49.833%" y1="106.242%" y2="44.998%">
            <stop offset="0%" stop-opacity=".1"/>
            <stop offset="100%" stop-opacity=".1"/>
        </linearGradient>
        <linearGradient id="prefix__h" x1="-.198%" x2="99.949%" y1="50%" y2="50%">
            <stop offset="0%" stop-opacity=".2"/>
            <stop offset="100%" stop-opacity=".1"/>
        </linearGradient>
        <linearGradient id="prefix__i" x1="37.095%" x2="67.778%" y1="105.205%" y2="41.845%">
            <stop offset="0%" stop-opacity=".25"/>
            <stop offset="100%" stop-opacity="0"/>
        </linearGradient>
        <linearGradient id="prefix__j" x1="85.023%" x2="-5.694%" y1="247.308%" y2="247.308%">
            <stop offset="0%" stop-color="#FFF"/>
            <stop offset="34%" stop-color="#E1E1E1"/>
            <stop offset="100%" stop-color="#A8A3A1"/>
        </linearGradient>
        <linearGradient id="prefix__k" x1="85.023%" x2="-5.694%" y1="247.308%" y2="247.308%">
            <stop offset="0%" stop-color="#FFF"/>
            <stop offset="34%" stop-color="#E1E1E1"/>
            <stop offset="100%" stop-color="#A8A3A1"/>
        </linearGradient>
        <linearGradient id="prefix__l" x1="44.164%" x2="58.04%" y1="105.205%" y2="41.845%">
            <stop offset="0%" stop-opacity="0"/>
            <stop offset="100%" stop-opacity=".25"/>
        </linearGradient>
        <linearGradient id="prefix__m" x1="5.001%" x2="100.013%" y1="50.011%" y2="50.011%">
            <stop offset="0%" stop-color="#FFF" stop-opacity=".25"/>
            <stop offset="100%" stop-color="#FFF" stop-opacity="0"/>
        </linearGradient>
        <linearGradient id="prefix__n" x1="47.759%" x2="50.691%" y1="95.822%" y2="19.138%">
            <stop offset="0%" stop-opacity=".2"/>
            <stop offset="100%" stop-opacity="0"/>
        </linearGradient>
        <linearGradient id="prefix__o" x1="38.755%" x2="65.491%" y1="105.205%" y2="41.845%">
            <stop offset="0%" stop-opacity=".25"/>
            <stop offset="100%" stop-opacity="0"/>
        </linearGradient>
        <linearGradient id="prefix__p" x1="47.444%" x2="53.521%" y1="105.205%" y2="41.845%">
            <stop offset="0%" stop-opacity=".257"/>
            <stop offset="100%" stop-opacity="0"/>
        </linearGradient>
        <linearGradient id="prefix__q" x1="47.137%" x2="53.944%" y1="105.205%" y2="41.845%">
            <stop offset="0%" stop-opacity=".25"/>
            <stop offset="100%" stop-opacity="0"/>
        </linearGradient>
        <linearGradient id="prefix__r" x1="5.001%" x2="100.013%" y1="50.011%" y2="50.011%">
            <stop offset="0%" stop-color="#FFF" stop-opacity="0"/>
            <stop offset="100%" stop-color="#FFF" stop-opacity=".25"/>
        </linearGradient>
    </defs>
    <g fill="none" fill-rule="evenodd">
        <g fill-rule="nonzero">
            <g>
                <path fill="url(#prefix__a)" d="M0 0H272V94.545H0z" transform="translate(0 13)"/>
                <path fill="url(#prefix__b)" d="M0 94.545c19.862 2.228 44.35 9.543 77.84 25.455h193.973V94.545H0z" transform="translate(0 13)"/>
            </g>
            <path fill="url(#prefix__c)" d="M271.228 6.67H144.242C119.426 41.102 91.618 74.755 60.93 107.494h210.213V6.669h.086z" opacity=".156"/>
            <path fill="#FAFAFA" d="M123.392 6.669H126.223V107.49499999999999H123.392zM197.525 6.669H200.356V107.49499999999999H197.525z"/>
            <path fill="#FAFAFA" d="M210.566 2.764L200.356 0.532 171.698 59.009 178.134 60.429 184.569 61.799 191.004 63.219z"/>
            <path fill="#FFF" fill-opacity=".8" d="M238.109 6.466L227.898 4.235 171.698 59.009 178.134 60.429 184.569 61.799 191.004 63.219z"/>
            <path fill="url(#prefix__d)" d="M227.898 4.235L171.698 59.009 187.143 62.407 230.215 4.793z" opacity=".19"/>
            <path fill="#FFF" fill-opacity=".8" d="M170.411 59.618L129.742 107.495 173.758 107.495 191.347 64.182z"/>
            <path fill="#FFF" d="M179.039 50.499L179.918 50.682 182.953 72.383 182.074 72.2z" transform="rotate(-69.71 180.996 61.441)"/>
            <path fill="url(#prefix__e)" d="M170.411 59.618L162.346 107.495 173.758 107.495 191.347 64.182z" opacity=".27"/>
        </g>
        <g opacity=".568">
            <path fill="#E8E3DE" d="M20.392 0h11.943c2.01-.005 4.114.905 5.535 2.331 1.421 1.426 2.045 3.249 2.04 5.265v75.447h-1.166V8.186c.003-1.848-.736-3.674-2.039-4.98-1.303-1.308-3.11-2.044-4.952-2.04H20.974c-1.842-.004-3.65.784-4.952 2.09-1.303 1.308-2.042 3.345-2.04 5.194v74.593h-1.456V7.867c-.014-2.012.916-4.11 2.33-5.536 1.415-1.426 3.53-2.335 5.536-2.332z" transform="translate(36.958 33.69)"/>
            <path fill="#C5B9AC" d="M31.777 1.22c1.849-.003 3.623.73 4.93 2.037 1.307 1.307 2.04 3.08 2.037 4.93v74.856h-10.51V8.186c-.007-3.844-3.122-6.959-6.967-6.966h10.51zM20.109 0c-2.017-.005-3.828.793-5.254 2.219-1.426 1.425-2.334 3.36-2.329 5.377v75.447H0V7.576C.003 3.382 3.402.003 7.597 0H20.11z" transform="translate(36.958 33.69)"/>
            <path fill="#000" fill-opacity=".15" fill-rule="nonzero" d="M21.266 1.22h10.487c1.848-.003 3.645.73 4.952 2.037s2.042 3.08 2.04 4.93v74.856H28.256V8.186c-.007-3.844-3.148-6.959-6.991-6.966z" transform="translate(36.958 33.69)"/>
        </g>
        <g transform="translate(50.795 21.704)">
            <path fill="url(#prefix__f)" fill-rule="nonzero" d="M12.022 5.772L44.913 21.942 44.913 72.774 11.183 7.619z"/>
            <path fill="#C5B9AC" fill-rule="nonzero" d="M5.113 7.143l-.531.672v.531c.002.324.264.586.587.588h.616c.323-.002.585-.264.587-.588v-.811l-1.259-.392z"/>
            <path fill="#2A2A2A" d="M4.65 6.975h-.193c0-2.105-1.137-2.167-2.236-2.226-.275-.008-.55-.036-.82-.085C.964 4.554.357 4.35.108 3.828c-.174-.362-.137-.814.107-1.342.181-.46.575-.804 1.056-.922 1.047-.219 2.233.79 2.283.834l-.126.147c-.012-.01-1.163-.993-2.118-.792-.42.107-.763.411-.92.816-.218.472-.255.868-.108 1.175.215.449.766.632 1.163.731.26.047.523.073.786.08 1.078.059 2.42.132 2.42 2.42z"/>
            <path fill="#C5B9AC" fill-rule="nonzero" d="M14.231 6.22L13.644 5.717 11.658 5.381 12.189 7.507z"/>
            <path fill="#575756" d="M14.231 6.22L13.644 5.717 11.658 5.381 12.189 7.507z"/>
            <path fill="#C5B9AC" d="M13.644 5.763L4.554 0 3.295 1.958l.282.177-.673 1.082 2.185 1.365c-.092.1-.224.233-.225.37v1.47h-.778l-.008 3.893H6.81V6.423h-.389v-.97l4.594 2.828c.303.184.696.097.895-.196l1.37-2.21-.31-.193c.17-.001.34.017.506.053l.168.028z"/>
            <path fill="#E8E3DE" fill-opacity=".4" d="M12.022 5.772l-1.558.529-.316.506c-.112.154-.154.347-.116.533.037.186.15.348.312.447l.699.42c.303.183.696.097.895-.197l1.37-2.21-.262-.165c-.347-.01-.693.036-1.024.137z"/>
            <ellipse cx="11.662" cy="6.775" fill="#2A2A2A" rx="1.007" ry="1" transform="rotate(-62.038 11.662 6.775)"/>
            <circle cx="12.233" cy="6.463" r="1" fill="#FFF" fill-rule="nonzero" transform="rotate(-66.052 12.233 6.463)"/>
            <path fill="#000" fill-opacity=".2" fill-rule="nonzero" d="M5.924 7.73h-.42c-.25.004-.47-.167-.53-.411l-.392.496v.531c.002.324.264.586.587.588h.616c.323-.002.585-.264.587-.588v-.811l-.018-.007c-.102.132-.262.208-.43.203z"/>
            <path fill="#000" fill-opacity=".14" fill-rule="nonzero" d="M12.022 5.772l-1.65.56-6.809-4.253-.156.252 6.853 4.28c.788-.17 1.612-.043 2.313.357l.718-1.166-.267-.167c-.34-.007-.678.039-1.002.137z"/>
            <path fill="url(#prefix__g)" fill-rule="nonzero" d="M5.66 4.89l.403 2.824c.068-.016.132-.044.188-.084.044-.03.08-.07.11-.113.03-.038.055-.08.077-.122.03-.067-.016-.14-.017-.213V5.404l-.762-.513z"/>
            <path fill="url(#prefix__h)" fill-rule="nonzero" d="M6.354 7.528l.018.007v.811c-.002.324-.264.586-.587.588h-.616c-.069 0-.137-.013-.201-.037l1.516 1.462h.336L6.817 7.48l-.34-.224c-.012.101-.055.195-.123.27z"/>
        </g>
        <g>
            <path fill="#4BC59C" d="M20.936 11.651l-1.642 3.824c-2.027 4.722-6.132 8.494-9.288 9.854l-.026-3.285c.103-3.541 1.463-6.672 10.956-10.393zM0 5.107c8.287 2.643 9.596 5.21 9.904 8.212l.153 2.797c-2.77-.95-6.44-3.926-8.44-7.827zM13.316 0l-.154 2.54c-.205 3.132-1.745 6.108-3.284 7.546l-.693-1.874C8.518 6.16 8.646 4.106 13.315 0z" transform="translate(33.677 81.061)"/>
            <path fill="#929191" d="M10.057 7.494V23.03c.54-1.172 1.834-1.867 1.899-1.91l.103.205c-.026 0-1.77.95-2.002 2.412v7.52h-.23V14.37c-.334-2.053-2.771-3.387-2.797-3.362l.103-.205c.09.045 2.002 1.091 2.695 2.82l-.001-6.13h.23z" transform="translate(33.677 81.061)"/>
            <path fill="#A80E1F" d="M7.62 35.44h4.644c.43.003.842-.167 1.145-.47.304-.304.473-.717.471-1.146v-3.362H6.004v3.362c.013.887.73 1.603 1.616 1.617z" transform="translate(33.677 81.061)"/>
            <path fill="#FFF" fill-rule="nonzero" d="M6.004 31.155H13.881V32.155H6.004z" transform="translate(33.677 81.061)"/>
        </g>
        <g>
            <g transform="translate(79.326 41.394) translate(22.144 36.642)">
                <path stroke="#333" stroke-width=".864" d="M20.002 30.349L2.419 1.923"/>
                <path fill="#A80E1F" d="M32.35 31.69L21.56 14.265c-.629-1.017-1.64-1.74-2.806-2.005-.217-.049-.445-.009-.633.112l-6.91 4.484.84 1.362 10.94 17.684c.217.357.57.611.977.704.408.093.836.016 1.186-.213l7.196-4.703z"/>
                <path fill="url(#prefix__i)" fill-rule="nonzero" d="M22.99 35.902c.218.357.57.611.978.704.408.093.836.016 1.186-.213l7.196-4.703-10.79-17.425c-.629-1.017-1.64-1.74-2.806-2.005"/>
                <path fill="#000" fill-opacity=".25" d="M28.909 28.531C20.486 16.841 18.71 12.248 18.71 12.248L28.91 28.531z"/>
                <path fill="url(#prefix__j)" fill-rule="nonzero" d="M9.17 0C4.106 0 0 .072 0 .163c0 .09 4.106.162 9.17.162 5.065 0 9.171-.073 9.171-.163 0-.09-4.106-.162-9.17-.162" transform="translate(23.81 38.46)"/>
                <path fill="#2A2A2A" d="M30.602 28.867l1.748 2.824-7.196 4.703c-.35.228-.777.305-1.185.212-.407-.093-.76-.347-.977-.704l-.874-1.409 8.484-5.626zm-15.639-15.93l.65 1.037-1.484 1.033-.305-.505c-.19-.297-.112-.69.174-.894l.965-.671z"/>
                <ellipse cx="24.142" cy="37.25" fill="#2A2A2A" rx="1.346" ry="1.316" transform="rotate(-85.49 24.142 37.25)"/>
                <circle cx="24.142" cy="37.25" r="1" fill="#948B81" transform="rotate(-85.49 24.142 37.25)"/>
                <path fill="#333" fill-rule="nonzero" d="M1.568 0.962H3.27V2.319H1.568z"/>
            </g>
            <g>
                <path fill="url(#prefix__k)" fill-rule="nonzero" d="M28.67 0C12.837 0 0 .072 0 .163c0 .09 12.836.162 28.67.162 15.835 0 28.673-.073 28.673-.163C57.343.073 44.505 0 28.671 0" transform="translate(79.326 41.394) translate(3.427 75.103)"/>
                <g>
                    <path fill="#C8B6A1" d="M7.905.192c-1.412 10.942-2.08 19.356-3.308 36.64l.919.44L14.63 15.22l11.606 21.872h1.244L19.614 0 7.905.192z" transform="translate(79.326 41.394) translate(2.675 35.818)"/>
                    <path fill="url(#prefix__l)" fill-rule="nonzero" d="M14.63 15.22L26.236 37.092 26.856 37.092 19.103 4.489z" transform="translate(79.326 41.394) translate(2.675 35.818)"/>
                    <path fill="#7B654A" d="M26.236 37.092l-3.24 1.493c-.342.16-.56.501-.562.878h6.007v-.336c0-.304-.085-.603-.243-.863l-.713-1.177-1.25.005zM5.516 37.272l-.878 2.205H3.532L0 36.183l.017-.022c.168-.226.456-.33.73-.263l3.85.934.919.44z" transform="translate(79.326 41.394) translate(2.675 35.818)"/>
                </g>
                <g>
                    <path fill="#FECA9B" d="M3.056 1.297s.3.04.768.242l2.728.857 1.966 1.185.153.491c.746-.092 1.485-.24 2.21-.443.056.635.022 1.274-.102 1.9l-.535 2.431-.015-.01c.496.972.548 1.508.548 1.508-1.14 2.145-3.62 2.63-3.62 2.63V9.06c-.492.459-1.103.778-1.383.66-1.16-.486-3.632-4.554-3.557-6.305.037-.78.839-2.118.839-2.118z" transform="translate(79.326 41.394) translate(5.949)"/>
                    <path fill="#2A2A2A" d="M9.81.913c.585.794.954 1.727 1.071 2.707.048.531.032 1.066-.047 1.593l-.055.315-.535 2.432c-.45-.316-.916-.72-1.376-1.196l.035-.092c.391-1.085.172-1.55-.292-1.953-.169-.12-.367-.192-.574-.205-.391.067-.237.727.067 1.383-.422-.518-.83-1.093-1.21-1.71-.654.01-1.308-.02-1.959-.088-1.459-.16-2.86-.654-4.095-1.44l-.305-.202L0 2.09C1.585 1.16 3.318.51 5.125.17 7.28-.25 8.647.15 9.809.912z" transform="translate(79.326 41.394) translate(5.949)"/>
                    <path fill="#FECA9B" fill-rule="nonzero" d="M7.697 5.784L8.212 5.397 8.387 5.859 7.877 6.253z" transform="translate(79.326 41.394) translate(5.949)"/>
                    <path fill="url(#prefix__m)" fill-rule="nonzero" d="M1.648 2.756c2.767 1.146 6.007 1.07 7.877.353L8.202 1.72C7.23.782 6.11.142 3.93.444c-1.367.375-2.68.924-3.907 1.634l1.626.678z" transform="translate(79.326 41.394) translate(5.949)"/>
                    <path fill="url(#prefix__n)" fill-rule="nonzero" d="M7.192 9.243l.003 1.945s.704-1.17.475-2.476l-.478.531z" transform="translate(79.326 41.394) translate(5.949)"/>
                </g>
                <g>
                    <path fill="#FECA9B" fill-rule="nonzero" d="M8.404 10.792C7.069 12.442 6.094 18.697 3.768 23c-.17.182-2.166 1.631-2.431 2.273-.69 1.746-.487 2.838.272 3.018.595.143 1.395-2.145 1.77-2.145.33 0-.205 1.364.304 1.364.508 0 1.402-4.02 1.402-4.02l3.834-4.733c.206-.253.362-.543.46-.854l1.609-5.055-2.548-2.091-.036.034z" transform="translate(79.326 41.394) translate(.524 8.754)"/>
                    <path fill="url(#prefix__o)" fill-rule="nonzero" d="M10.988 12.849l-.827-.679-.133.025-1.568 5.799-3.365 5.498 3.834-4.732c.206-.255.363-.546.462-.858l1.597-5.053z" transform="translate(79.326 41.394) translate(.524 8.754)"/>
                    <path fill="#D7192D" d="M23.289 11.448c.041-5.549-1.83-7.8-4.352-9.57L16.017 0c.091.226.155.462.193.703-1.14 2.147-3.618 2.638-3.618 2.638V2.06l-4.397 8.608 2.632 2.164c.115 5.014-.148 10.03-.785 15.005l-.058.443 11.455-1.007v-.12h-.024c-.496-4.938-1.646-9.788-3.42-14.423l5.294-1.282z" transform="translate(79.326 41.394) translate(.524 8.754)"/>
                    <path fill="url(#prefix__p)" fill-rule="nonzero" d="M18.091 12.693L16.912 9.131 16.912 27.648 21.507 27.237 19.545 13.386z" transform="translate(79.326 41.394) translate(.524 8.754)"/>
                    <path fill="#FECA9B" d="M24.925 27.813c-.394-.435-2.015-.973-2.015-.973l-.037-.022.401-15.44-5.297 1.266c1.776 4.635 2.928 9.484 3.425 14.422h.025s-.098 1.535.425 1.946c.243.197.851.58.89.768v1.148c.486.34.51.328.953.292.593-.051 1.11-.67 1.29-1.048.18-.38.227-2.04-.06-2.36z" transform="translate(79.326 41.394) translate(.524 8.754)"/>
                    <path fill="url(#prefix__q)" fill-rule="nonzero" d="M10.849 12.832L10.849 8.139 9.617 11.818z" transform="translate(79.326 41.394) translate(.524 8.754)"/>
                    <path fill="url(#prefix__r)" fill-rule="nonzero" d="M18.34 12.496l4.672-1.13c0-5.107-1.758-7.215-4.114-8.859L16.326.858c-.215.323-.47.618-.758.878-.2 2.697.299 6.17 1.592 9.518V8.936l1.18 3.56z" transform="translate(79.326 41.394) translate(.524 8.754)"/>
                </g>
            </g>
        </g>
    </g>
</svg>
