<?xml version="1.0" encoding="UTF-8" standalone="no"?>
<svg width="16px" height="16px" viewBox="0 0 16 16" version="1.1" xmlns="http://www.w3.org/2000/svg" xmlns:xlink="http://www.w3.org/1999/xlink">
    <!-- Generator: Sketch 3.6.1 (26313) - http://www.bohemiancoding.com/sketch -->
    <title>seguros</title>
    <desc>Created with Sketch.</desc>
    <defs></defs>
    <g id="Page-1" stroke="none" stroke-width="1" fill="none" fill-rule="evenodd">
        <g id="seguros" fill="#000000">
            <path d="M6.80228,9.17346 L7.3394,8.6367 C7.27964,7.57074 6.81236,5.44854 6.78248,5.25342 C7.46,4.54602 8.15012,3.70614 8.07452,3.30294 L7.88192,3.11106 C7.50032,3.0909 6.68168,3.76698 5.97104,4.42686 C5.7698,4.3959 3.63356,3.9243 2.56724,3.86454 L2.03048,4.4013 L4.7258,5.73618 C4.41728,6.11022 4.15268,6.47058 3.8708,6.85182 C3.80096,6.83202 3.48056,6.84318 2.627,6.78774 L2.3282,7.08546 L3.5216,7.6827 C3.52052,7.6845 3.5216,7.6827 3.5216,7.6827 C3.5234,7.6809 4.11776,8.87502 4.11776,8.87502 L4.41656,8.5773 C4.37228,7.7853 4.37948,7.40874 4.35932,7.33818 C4.74164,7.05522 5.10236,6.79134 5.4746,6.48534 L6.80228,9.17346 Z M13.75712,8.7735 L13.74164,8.7735 C13.6448,8.5971 12.95216,8.44878 11.99852,8.3847 C11.98232,8.26266 11.96828,8.16978 11.96036,8.11902 C11.9438,8.00526 11.92256,7.86126 11.91176,7.79826 C11.88512,7.63878 11.7458,7.4883 11.57948,7.43862 C11.15468,7.31514 10.72124,7.31514 10.29644,7.43862 C10.13012,7.4883 9.99116,7.63842 9.96416,7.79862 C9.95372,7.8609 9.93212,8.00382 9.91736,8.11974 C9.90872,8.1705 9.89504,8.26338 9.87848,8.3847 C8.92376,8.44878 8.23076,8.5971 8.13464,8.7735 L8.11916,8.7735 C7.98308,9.66378 7.90604,10.14906 7.90604,11.21934 C7.90604,11.9307 7.94024,12.2493 8.00252,12.88938 L13.87304,12.88938 C13.93496,12.2493 13.96952,11.9307 13.96952,11.21934 C13.96952,10.14906 13.89248,9.66378 13.75712,8.7735 Z M10.41344,8.21946 L10.41704,8.19642 C10.42964,8.1111 10.44548,8.00526 10.45592,7.93902 C10.77704,7.8501 11.09888,7.8501 11.41856,7.93866 C11.42972,8.00598 11.44592,8.1111 11.45852,8.19678 L11.46212,8.21946 C11.47256,8.28714 11.501,8.48838 11.53556,8.7555 L10.34036,8.7555 C10.37564,8.47974 10.40516,8.2749 10.41344,8.21946 Z M12.15188,11.10558 C11.86568,11.1369 11.57768,11.15814 11.28716,11.16678 C11.27888,11.4699 11.258,11.76978 11.22488,12.06822 C11.13596,12.07794 10.7756,12.07794 10.68668,12.06822 C10.65356,11.77086 10.63232,11.47026 10.62404,11.1675 C10.32164,11.15958 10.0214,11.13834 9.72404,11.10558 C9.71432,11.01666 9.71432,10.65594 9.72404,10.56738 C10.02248,10.53462 10.32236,10.51374 10.62512,10.5051 C10.63448,10.21422 10.655,9.92622 10.68668,9.64002 C10.7756,9.63102 11.1356,9.63102 11.22488,9.64002 C11.2562,9.92658 11.27708,10.2153 11.28644,10.50618 C11.5766,10.51554 11.86532,10.53606 12.15188,10.56738 C12.16124,10.65594 12.16124,11.01666 12.15188,11.10558 Z"></path>
        </g>
    </g>
</svg>