<?xml version="1.0" encoding="UTF-8" standalone="no"?>
<svg width="16px" height="16px" viewBox="0 0 16 16" version="1.1" xmlns="http://www.w3.org/2000/svg" xmlns:xlink="http://www.w3.org/1999/xlink">
    <!-- Generator: Sketch 3.6.1 (26313) - http://www.bohemiancoding.com/sketch -->
    <title>senalizacion_mapas</title>
    <desc>Created with Sketch.</desc>
    <defs></defs>
    <g id="Page-1" stroke="none" stroke-width="1" fill="none" fill-rule="evenodd">
        <g id="senalizacion_mapas" fill="#000000">
            <path d="M7.99946,2.7728 C5.93558,2.7728 4.26194,4.4468 4.26194,6.5096 C4.26194,7.3016 4.52546,8.036 4.92866,8.6372 C7.25354,12.3704 7.99946,13.2272 7.99946,13.2272 C7.99946,13.2272 8.74646,12.3704 11.07098,8.6372 C11.45222,8.0864 11.73806,7.3016 11.73806,6.5096 C11.73806,4.4468 10.06442,2.7728 7.99946,2.7728 M7.99946,8.4464 C6.93098,8.4464 6.06446,7.5788 6.06446,6.5096 C6.06446,5.4404 6.93098,4.5728 7.99946,4.5728 C9.06902,4.5728 9.93518,5.4404 9.93518,6.5096 C9.93518,7.5788 9.06902,8.4464 7.99946,8.4464"></path>
        </g>
    </g>
</svg>