<?xml version="1.0" encoding="UTF-8" standalone="no"?>
<svg width="16px" height="16px" viewBox="0 0 16 16" version="1.1" xmlns="http://www.w3.org/2000/svg" xmlns:xlink="http://www.w3.org/1999/xlink">
    <!-- Generator: Sketch 3.6.1 (26313) - http://www.bohemiancoding.com/sketch -->
    <title>servicio_limusina</title>
    <desc>Created with Sketch.</desc>
    <defs></defs>
    <g id="Page-1" stroke="none" stroke-width="1" fill="none" fill-rule="evenodd">
        <g id="servicio_limusina" fill="#000000">
            <path d="M13.20218,6.1334 L13.20218,5.2622 C12.23522,5.273 11.25314,5.3522 9.94346,5.489 C9.65402,6.011 9.41786,6.515 9.2033,7.1018 L8.02502,7.1018 L8.02502,7.7822 L8.90918,8.009 L8.90342,8.0486 L8.10494,8.6318 C7.95662,10.1906 7.97534,11.339 8.04266,13.2074 L9.23174,13.2074 C9.4931,13.2074 9.70442,12.9986 9.70442,12.7358 L9.70442,11.6414 L13.20218,11.6414 L13.20218,10.2734 L10.93274,10.2734 L10.93274,9.1034 L13.20218,9.1034 L13.20218,7.7246 L10.12526,7.7246 L10.61954,6.281 C11.59442,6.173 12.43538,6.1298 13.20218,6.1334 M9.41894,9.809 L8.89334,9.809 L8.89334,9.1034 L10.12526,9.1034 C10.12526,9.4922 9.80918,9.809 9.41894,9.809 Z M4.72598,4.7186 C5.31674,4.7186 5.4971,4.3406 5.4971,3.7574 C5.4971,3.1706 5.31674,2.7926 4.72598,2.7926 C4.13594,2.7926 3.95558,3.1706 3.95558,3.7574 C3.95558,4.3406 4.13594,4.7186 4.72598,4.7186 Z M6.1613,5.5934 C6.16094,5.5934 6.16022,5.5934 6.15986,5.5898 L6.15914,5.5898 L6.15482,5.5898 C5.93342,5.453 5.32142,5.3666 4.78322,5.3414 L4.72634,5.345 L5.0291,5.6978 L5.20838,7.9262 L4.72598,8.8622 L4.24394,7.9262 L4.42322,5.6978 L4.72598,5.345 L4.63814,5.345 C4.11758,5.3702 3.51458,5.4566 3.29786,5.5898 L3.29282,5.5898 C3.29282,5.5898 3.29246,5.5898 3.2921,5.5934 L3.29102,5.5934 C3.05162,6.5078 2.88242,7.4726 2.79782,9.4022 L3.48146,10.0142 C3.54302,11.1194 3.7655,12.1886 3.88898,13.2074 L5.56334,13.2074 C5.68646,12.1886 5.9093,11.1194 5.9705,10.0142 L6.6545,9.4022 C6.5699,7.4726 6.4007,6.5078 6.1613,5.597 L6.1613,5.5934 Z"></path>
        </g>
    </g>
</svg>