<?xml version="1.0" encoding="UTF-8" standalone="no"?>
<svg width="16px" height="16px" viewBox="0 0 16 16" version="1.1" xmlns="http://www.w3.org/2000/svg" xmlns:xlink="http://www.w3.org/1999/xlink">
    <!-- Generator: Sketch 3.6.1 (26313) - http://www.bohemiancoding.com/sketch -->
    <title>sillas_de_ruedas_mecanicas</title>
    <desc>Created with Sketch.</desc>
    <defs></defs>
    <g id="Page-1" stroke="none" stroke-width="1" fill="none" fill-rule="evenodd">
        <g id="sillas_de_ruedas_mecanicas" fill="#000000">
            <path d="M6.22188887,9.68787847 L10.445012,9.73503259 C10.445012,9.73503259 10.407932,10.9770326 8.59137199,11.3982326 C8.07802581,11.519612 7.62627392,11.5825621 7.23051055,11.6131096 C7.22141668,12.8617756 6.20399126,13.8750326 4.95537199,13.8750326 C3.70077199,13.8750326 2.68017199,12.8526326 2.68017199,11.5962326 C2.68017199,10.6912078 3.21278659,9.90642043 3.98147108,9.54045112 C3.80620196,8.26259761 3.5211071,4.58299954 3.38217199,3.37023259 L2.50485199,3.37023259 L2.09805199,2.64663259 L3.30045199,2.65383259 L4.13097199,2.76903259 L5.22281034,9.33668968 C5.57680802,9.37840575 5.90624096,9.50186174 6.19169933,9.68754138 L6.22188887,9.68787847 C6.60643565,10.2441693 6.98325199,10.876577 6.98325199,11.5962326 C6.98325199,11.6070326 6.98181199,11.6178326 6.98181199,11.6286326 C7.06213646,11.6247954 7.14501715,11.6197086 7.23051055,11.6131096 C7.23055149,11.6074887 7.23057199,11.601863 7.23057199,11.5962326 C7.23057199,10.7983495 6.81645434,10.0939204 6.19169933,9.68754138 L5.60877199,9.68103259 C5.76115607,9.7325137 5.90539946,9.80166351 6.03906658,9.88603644 Z M5.56305199,4.11543259 C6.23013199,4.07223259 6.40797199,3.65463259 6.36837199,3.03543259 C6.32769199,2.41263259 6.09981199,2.02383259 5.43309199,2.06703259 C4.76565199,2.10663259 4.58817199,2.52423259 4.62705199,3.14703259 C4.66737199,3.76623259 4.89669199,4.15503259 5.56305199,4.11543259 Z M5.01513199,4.60503259 L4.95537199,4.61583259 L5.60733199,8.17983259 L5.61309199,8.21223259 L5.61561199,8.21223259 C5.68257199,8.49303259 5.95581199,9.14463259 6.22545199,9.18423259 L9.85353199,9.23103259 C10.209572,9.28503259 10.540052,9.03663259 10.591892,8.68023259 C10.644812,8.32383259 10.398932,7.99263259 10.041812,7.94223259 L8.24973199,7.91703259 L8.13597199,7.92783259 L8.14209199,7.92423259 C7.66437199,5.89383259 6.52317199,4.59783259 6.52317199,4.59783259 L6.51453199,4.59063259 C6.25317199,4.48983259 5.68473199,4.47903259 5.01513199,4.60503259 Z M3.98147108,9.54045112 C3.99558101,9.64332393 4.00897917,9.73063114 4.02153199,9.79983259 C4.30161199,9.65223259 4.61841199,9.56943259 4.95537199,9.56943259 C5.06121199,9.56943259 5.16453199,9.58023259 5.26569199,9.59463259 L5.22281034,9.33668968 C5.13507464,9.32635066 5.04583002,9.32103259 4.95537199,9.32103259 C4.60709715,9.32103259 4.27685454,9.39981958 3.98147108,9.54045112 Z M4.95537199,10.2210326 C4.19685199,10.2210326 3.58017199,10.8402326 3.58017199,11.5962326 C3.58017199,12.3558326 4.19685199,12.9750326 4.95537199,12.9750326 C5.71353199,12.9750326 6.33057199,12.3558326 6.33057199,11.5962326 C6.33057199,10.8402326 5.71353199,10.2210326 4.95537199,10.2210326 Z M11.305052,13.1478326 C11.305052,13.5834326 10.951532,13.9362326 10.514852,13.9362326 C10.078892,13.9362326 9.72501199,13.5834326 9.72501199,13.1478326 C9.72501199,12.7086326 10.078892,12.3558326 10.514852,12.3558326 C10.951532,12.3558326 11.305052,12.7086326 11.305052,13.1478326 Z M13.267052,11.9850326 L12.163652,11.9418326 L10.890692,9.94383259 L10.218572,11.3550326 L10.572812,11.9094326 L10.676132,12.0894326 C11.196332,12.1290326 11.607812,12.5610326 11.607812,13.0902326 C11.607812,13.1442326 11.599532,13.1946326 11.591972,13.2450326 L11.761892,13.2522326 L11.784572,13.2522326 L13.211972,13.3098326 C13.578452,13.3242326 13.887692,13.0398326 13.901372,12.6762326 C13.916492,12.3090326 13.632092,11.9994326 13.267052,11.9850326 Z"></path>
        </g>
    </g>
</svg>