<?xml version="1.0" encoding="UTF-8" standalone="no"?>
<svg width="16px" height="16px" viewBox="0 0 16 16" version="1.1" xmlns="http://www.w3.org/2000/svg" xmlns:xlink="http://www.w3.org/1999/xlink">
    <!-- Generator: Sketch 3.6.1 (26313) - http://www.bohemiancoding.com/sketch -->
    <title>social_googleplus</title>
    <desc>Created with Sketch.</desc>
    <defs></defs>
    <g id="Page-1" stroke="none" stroke-width="1" fill="none" fill-rule="evenodd">
        <g id="social_googleplus" fill="#000000">
            <path d="M7.99982,13.9706 C4.70798,13.9706 2.03102,11.2922 2.03102,7.9982 C2.03102,4.7078 4.70798,2.0294 7.99982,2.0294 C11.29238,2.0294 13.96898,4.7078 13.96898,7.9982 C13.96898,11.2922 11.29238,13.9706 7.99982,13.9706 L7.99982,13.9706 Z M7.99982,2.735 C5.09678,2.735 2.73482,5.0966 2.73482,7.9982 C2.73482,10.9034 5.09678,13.265 7.99982,13.265 C10.90286,13.265 13.26482,10.9034 13.26482,7.9982 C13.26482,5.0966 10.90286,2.735 7.99982,2.735 L7.99982,2.735 Z M8.3141,5.1758 L6.52706,5.1758 C5.72606,5.1758 4.97186,5.7518 4.97186,6.4538 C4.97186,7.1738 5.51798,7.739 6.33302,7.739 C6.38954,7.739 6.44498,7.7282 6.49862,7.7246 C6.44606,7.8254 6.40826,7.937 6.40826,8.0558 C6.40826,8.2538 6.51554,8.4158 6.65126,8.549 L6.34166,8.549 C5.34914,8.549 4.58558,9.179 4.58558,9.8378 C4.58558,10.4822 5.42258,10.8854 6.4151,10.8854 C7.54622,10.8854 8.17118,10.2446 8.17118,9.5966 C8.17118,9.0818 8.01854,8.7722 7.54622,8.4374 C7.38494,8.3222 7.07606,8.045 7.07606,7.8794 C7.07606,7.6886 7.13042,7.595 7.41878,7.3682 C7.71434,7.1378 7.9235,6.8786 7.9235,6.5006 C7.9235,6.0506 7.72334,5.5358 7.3475,5.5358 L7.91414,5.5358 L8.3141,5.1758 L8.3141,5.1758 Z M7.68986,9.485 C7.70426,9.5462 7.71182,9.6074 7.71182,9.6722 C7.71182,10.1906 7.37594,10.601 6.4115,10.601 C5.7257,10.601 5.23034,10.1654 5.23034,9.6434 C5.23034,9.1322 5.84486,8.7074 6.5303,8.7146 C6.6905,8.7146 6.83954,8.7434 6.9749,8.7866 C7.3475,9.0458 7.61462,9.1898 7.68986,9.485 L7.68986,9.485 Z M6.59186,7.541 C6.13142,7.5266 5.69366,7.0262 5.61446,6.4214 C5.5349,5.8166 5.84342,5.3558 6.30386,5.3666 C6.7643,5.381 7.2017,5.867 7.28126,6.4718 C7.36082,7.0766 7.05194,7.5554 6.59186,7.541 L6.59186,7.541 Z M10.2671,6.2558 L10.2671,5.1758 L9.9071,5.1758 L9.9071,6.2558 L8.8271,6.2558 L8.8271,6.6158 L9.9071,6.6158 L9.9071,7.6958 L10.2671,7.6958 L10.2671,6.6158 L11.3471,6.6158 L11.3471,6.2558 L10.2671,6.2558 L10.2671,6.2558 Z"></path>
        </g>
    </g>
</svg>