<?xml version="1.0" encoding="UTF-8" standalone="no"?>
<svg width="16px" height="16px" viewBox="0 0 16 16" version="1.1" xmlns="http://www.w3.org/2000/svg" xmlns:xlink="http://www.w3.org/1999/xlink">
    <!-- Generator: Sketch 3.6.1 (26313) - http://www.bohemiancoding.com/sketch -->
    <title>social_instagram</title>
    <desc>Created with Sketch.</desc>
    <defs></defs>
    <g id="Page-1" stroke="none" stroke-width="1" fill="none" fill-rule="evenodd">
        <g id="social_instagram" fill="#000000">
            <path d="M7.99928,2.0294 C4.70924,2.0294 2.03084,4.7078 2.03084,7.9982 C2.03084,11.2922 4.70924,13.9706 7.99928,13.9706 C11.29112,13.9706 13.96916,11.2922 13.96916,7.9982 C13.96916,4.7078 11.29112,2.0294 7.99928,2.0294 M7.99928,13.265 C5.0966,13.265 2.73428,10.9034 2.73428,7.9982 C2.73428,5.0966 5.0966,2.735 7.99928,2.735 C10.9034,2.735 13.26572,5.0966 13.26572,7.9982 C13.26572,10.9034 10.9034,13.265 7.99928,13.265 Z M9.87884,5.021 L6.13772,5.021 C5.5178,5.021 5.0156,5.5214 5.0156,6.1406 L5.0156,9.8846 C5.0156,10.5038 5.5178,11.0042 6.13772,11.0042 L9.87884,11.0042 C10.49876,11.0042 11.00096,10.5038 11.00096,9.8846 L11.00096,6.1406 C11.00096,5.5214 10.49876,5.021 9.87884,5.021 Z M8.00828,9.395 C7.2458,9.395 6.62696,8.7758 6.62696,8.0126 C6.62696,7.9658 6.62948,7.9226 6.6338,7.8758 C6.6356,7.8578 6.63884,7.8398 6.64172,7.8218 C6.64532,7.7966 6.64856,7.7714 6.65324,7.7462 C6.65828,7.721 6.6644,7.6958 6.67052,7.6742 C6.6752,7.6562 6.67916,7.6382 6.68384,7.6202 C6.69248,7.5914 6.70256,7.5662 6.71264,7.5374 C6.71696,7.5266 6.72092,7.5158 6.72524,7.5014 C6.73784,7.4726 6.75116,7.4402 6.76592,7.4114 C6.76916,7.4042 6.77276,7.397 6.776,7.3898 C6.79292,7.3574 6.81092,7.325 6.82964,7.2962 C6.83144,7.2926 6.8336,7.289 6.8354,7.2854 C6.85628,7.253 6.8786,7.217 6.902,7.1882 C6.90236,7.1882 6.90272,7.1882 6.90344,7.1846 C6.92792,7.1522 6.95384,7.1234 6.98084,7.091 C7.23356,6.8102 7.59968,6.6302 8.00828,6.6302 C8.41652,6.6302 8.783,6.8102 9.03608,7.091 L9.03572,7.091 C9.06308,7.1234 9.089,7.1522 9.11348,7.1846 C9.11384,7.1882 9.11384,7.1882 9.1142,7.1882 C9.13832,7.217 9.16028,7.253 9.18116,7.2854 C9.18296,7.289 9.18512,7.2926 9.18692,7.2962 C9.206,7.325 9.224,7.3574 9.24056,7.3898 C9.24416,7.397 9.2474,7.4042 9.25064,7.4114 C9.2654,7.4402 9.27872,7.4726 9.29132,7.5014 C9.29564,7.5158 9.29996,7.5266 9.30428,7.5374 C9.31436,7.5662 9.32372,7.5914 9.33272,7.6202 C9.33776,7.6382 9.34172,7.6562 9.34604,7.6742 C9.35216,7.6958 9.35864,7.721 9.36332,7.7462 C9.36836,7.7714 9.37124,7.7966 9.3752,7.8218 C9.37736,7.8398 9.38096,7.8578 9.38276,7.8758 C9.38708,7.9226 9.3896,7.9658 9.3896,8.0126 C9.3896,8.7758 8.77112,9.395 8.00828,9.395 Z M8.00792,7.1342 C7.84088,7.1342 7.6868,7.1846 7.55396,7.2638 C7.59572,7.253 7.63892,7.2422 7.68428,7.2422 C7.92944,7.2422 8.12852,7.4438 8.12852,7.6886 C8.12852,7.9334 7.92944,8.1314 7.68428,8.1314 C7.43804,8.1314 7.2386,7.9334 7.2386,7.6886 C7.2386,7.6418 7.24796,7.5986 7.26056,7.559 C7.17992,7.6922 7.1306,7.847 7.1306,8.0126 C7.1306,8.4986 7.52336,8.891 8.00828,8.891 C8.4932,8.891 8.88668,8.4986 8.88668,8.0126 C8.88668,7.5266 8.4932,7.1342 8.00792,7.1342 Z M10.54052,7.091 L9.60092,7.091 C9.2816,6.5402 8.68796,6.1694 8.00828,6.1694 C7.3286,6.1694 6.73496,6.5402 6.41564,7.091 L5.47604,7.091 L5.47604,6.1406 C5.47604,5.777 5.77304,5.4782 6.13772,5.4782 L9.87884,5.4782 C10.24424,5.4782 10.54052,5.777 10.54052,6.1406 L10.54052,7.091 Z M10.08044,5.7086 L9.62,5.7086 C9.49292,5.7086 9.3896,5.813 9.3896,5.939 L9.3896,6.3998 C9.3896,6.5294 9.49292,6.6302 9.62,6.6302 L10.08044,6.6302 C10.20752,6.6302 10.31084,6.5294 10.31084,6.3998 L10.31084,5.939 C10.31084,5.813 10.20752,5.7086 10.08044,5.7086 Z"></path>
        </g>
    </g>
</svg>