<?xml version="1.0" encoding="UTF-8" standalone="no"?>
<svg width="16px" height="16px" viewBox="0 0 16 16" version="1.1" xmlns="http://www.w3.org/2000/svg" xmlns:xlink="http://www.w3.org/1999/xlink">
    <!-- Generator: Sketch 3.6.1 (26313) - http://www.bohemiancoding.com/sketch -->
    <title>social_linkedin</title>
    <desc>Created with Sketch.</desc>
    <defs></defs>
    <g id="Page-1" stroke="none" stroke-width="1" fill="none" fill-rule="evenodd">
        <g id="social_linkedin" fill="#000000">
            <path d="M7.99946,13.9706 C4.70798,13.9706 2.0303,11.2922 2.0303,7.9982 C2.0303,4.7078 4.70798,2.0294 7.99946,2.0294 C11.29094,2.0294 13.9697,4.7078 13.9697,7.9982 C13.9697,11.2922 11.29094,13.9706 7.99946,13.9706 M7.99946,2.735 C5.09714,2.735 2.73518,5.0966 2.73518,7.9982 C2.73518,10.9034 5.09714,13.265 7.99946,13.265 C10.90322,13.265 13.26554,10.9034 13.26554,7.9982 C13.26554,5.0966 10.90322,2.735 7.99946,2.735 Z M6.50006,5.345 C6.50006,5.669 6.26138,5.9318 5.86862,5.9318 C5.4989,5.9318 5.26022,5.669 5.26022,5.345 C5.26022,5.0138 5.5061,4.7582 5.88374,4.7582 C6.26138,4.7582 6.4925,5.0138 6.50006,5.345 Z M5.29046,10.1618 L6.46262,10.1618 L6.46262,6.3926 L5.29046,6.3926 L5.29046,10.1618 Z M7.16354,7.595 C7.16354,7.127 7.14806,6.7346 7.13258,6.3926 L8.14958,6.3926 L8.20466,6.9182 L8.22734,6.9182 C8.38106,6.6698 8.7587,6.3098 9.39122,6.3098 C10.16234,6.3098 10.73978,6.8246 10.73978,7.9334 L10.73978,10.1618 L9.56798,10.1618 L9.56798,8.0738 C9.56798,7.5878 9.39878,7.2566 8.9747,7.2566 C8.6507,7.2566 8.45846,7.4798 8.37386,7.6958 C8.3429,7.7714 8.33498,7.8794 8.33498,7.9874 L8.33498,10.1618 L7.16354,10.1618 L7.16354,7.595 Z"></path>
        </g>
    </g>
</svg>