<?xml version="1.0" encoding="UTF-8" standalone="no"?>
<svg width="16px" height="16px" viewBox="0 0 16 16" version="1.1" xmlns="http://www.w3.org/2000/svg" xmlns:xlink="http://www.w3.org/1999/xlink">
    <!-- Generator: Sketch 3.6.1 (26313) - http://www.bohemiancoding.com/sketch -->
    <title>social_pinterest</title>
    <desc>Created with Sketch.</desc>
    <defs></defs>
    <g id="Page-1" stroke="none" stroke-width="1" fill="none" fill-rule="evenodd">
        <g id="social_pinterest" fill="#000000">
            <path d="M8,2.0294 C4.70816,2.0294 2.03084,4.7078 2.03084,7.9982 C2.03084,11.2922 4.70816,13.9706 8,13.9706 C11.29256,13.9706 13.96916,11.2922 13.96916,7.9982 C13.96916,4.7078 11.29256,2.0294 8,2.0294 M8,13.265 C5.09696,13.265 2.735,10.9034 2.735,7.9982 C2.735,5.0966 5.09696,2.735 8,2.735 C10.90304,2.735 13.265,5.0966 13.265,7.9982 C13.265,10.9034 10.90304,13.265 8,13.265 Z M8.1368,4.2434 C6.10316,4.2434 5.07788,5.7014 5.07788,6.9182 C5.07788,7.6526 5.35652,8.3078 5.95412,8.5526 C6.05312,8.5922 6.13988,8.5526 6.16868,8.4446 C6.18848,8.369 6.23528,8.1782 6.2558,8.1026 C6.28496,7.9946 6.2738,7.955 6.19424,7.8614 C6.02216,7.6598 5.91164,7.3934 5.91164,7.0226 C5.91164,5.9426 6.72128,4.9742 8.02016,4.9742 C9.17,4.9742 9.80216,5.6762 9.80216,6.6122 C9.80216,7.847 9.25532,8.8874 8.44424,8.8874 C7.99568,8.8874 7.66124,8.5202 7.76888,8.063 C7.8974,7.523 8.14688,6.9362 8.14688,6.5438 C8.14688,6.1946 7.95824,5.903 7.56944,5.903 C7.11188,5.903 6.7436,6.3746 6.7436,7.0118 C6.7436,7.415 6.88076,7.6886 6.88076,7.6886 C6.88076,7.6886 6.41168,9.6722 6.3296,10.0214 C6.16652,10.7126 6.30548,11.5622 6.31808,11.6486 C6.32456,11.699 6.38936,11.7134 6.41924,11.6738 C6.46172,11.6162 7.00712,10.943 7.1918,10.2734 C7.24508,10.0826 7.49348,9.0962 7.49348,9.0962 C7.64324,9.3806 8.07668,9.629 8.53892,9.629 C9.91592,9.629 10.84868,8.3762 10.84868,6.695 C10.8476,5.4242 9.77264,4.2434 8.1368,4.2434 Z"></path>
        </g>
    </g>
</svg>