<?xml version="1.0" encoding="UTF-8" standalone="no"?>
<svg width="16px" height="16px" viewBox="0 0 16 16" version="1.1" xmlns="http://www.w3.org/2000/svg" xmlns:xlink="http://www.w3.org/1999/xlink">
    <!-- Generator: Sketch 3.6.1 (26313) - http://www.bohemiancoding.com/sketch -->
    <title>social_twitter</title>
    <desc>Created with Sketch.</desc>
    <defs></defs>
    <g id="Page-1" stroke="none" stroke-width="1" fill="none" fill-rule="evenodd">
        <g id="social_twitter" fill="#000000">
            <path d="M10.5236,6.704 C10.52684,6.7616 10.5272,6.8156 10.5272,6.8732 C10.5272,8.594 9.21824,10.5812 6.82244,10.5812 C6.08624,10.5812 5.40116,10.3652 4.82516,9.9944 C4.92668,10.0052 5.03072,10.0124 5.13656,10.0124 C5.74568,10.0124 6.30728,9.8036 6.75404,9.4544 C6.18272,9.4436 5.70248,9.0692 5.53724,8.5508 C5.6168,8.5652 5.6978,8.5724 5.78168,8.5724 C5.90048,8.5724 6.0164,8.558 6.12476,8.5292 C5.52896,8.4068 5.07968,7.8812 5.07968,7.2512 L5.07968,7.2332 C5.25608,7.3304 5.4566,7.3916 5.67008,7.3988 C5.32016,7.1612 5.0912,6.7652 5.0912,6.3116 C5.0912,6.074 5.15492,5.8508 5.26724,5.66 C5.90912,6.4448 6.86888,6.9632 7.95248,7.0208 C7.93016,6.9236 7.91828,6.8228 7.91828,6.722 C7.91828,6.002 8.50184,5.4188 9.2204,5.4188 C9.59516,5.4188 9.93464,5.5772 10.17188,5.8292 C10.46924,5.7716 10.74788,5.6636 10.99952,5.516 C10.9016,5.8184 10.69496,6.074 10.42676,6.236 C10.68992,6.2036 10.94048,6.1352 11.17484,6.0308 C11.0006,6.29 10.77848,6.5204 10.5236,6.704 M13.98212,8 C13.98212,4.7024 11.29904,2.0168 8,2.0168 C4.70204,2.0168 2.01788,4.7024 2.01788,8 C2.01788,11.2976 4.70204,13.9832 8,13.9832 C11.29904,13.9832 13.98212,11.2976 13.98212,8 M13.27688,8 C13.27688,10.9088 10.90952,13.2776 8,13.2776 C5.09048,13.2776 2.72348,10.9088 2.72348,8 C2.72348,5.0912 5.09048,2.7224 8,2.7224 C10.90952,2.7224 13.27688,5.0912 13.27688,8"></path>
        </g>
    </g>
</svg>