<?xml version="1.0" encoding="UTF-8" standalone="no"?>
<svg width="16px" height="16px" viewBox="0 0 16 16" version="1.1" xmlns="http://www.w3.org/2000/svg" xmlns:xlink="http://www.w3.org/1999/xlink">
    <!-- Generator: Sketch 3.6.1 (26313) - http://www.bohemiancoding.com/sketch -->
    <title>social_facebook</title>
    <desc>Created with Sketch.</desc>
    <defs></defs>
    <g id="Page-1" stroke="none" stroke-width="1" fill="none" fill-rule="evenodd">
        <g id="social_facebook" fill="#000000">
            <path d="M8.00018,13.9238 C4.73282,13.9238 2.07566,11.267 2.07566,7.9982 C2.07566,4.733 4.73282,2.0762 8.00018,2.0762 C11.26718,2.0762 13.92434,4.733 13.92434,7.9982 C13.92434,11.267 11.26718,13.9238 8.00018,13.9238 M8.00018,2.7746 C5.12018,2.7746 2.7755,5.1182 2.7755,7.9982 C2.7755,10.8818 5.12018,13.2254 8.00018,13.2254 C10.88126,13.2254 13.22486,10.8818 13.22486,7.9982 C13.22486,5.1182 10.88126,2.7746 8.00018,2.7746 M9.8495,4.7222 L8.53406,4.7222 C7.3961,4.7222 6.9695,5.3414 6.9695,6.1406 L6.9695,6.8822 L6.6095,6.8822 L6.6095,7.9622 L6.9695,7.9622 L6.9695,11.5622 L8.7695,11.5622 L8.7695,7.9622 L9.4589,7.9622 L9.5831,6.8822 L8.7695,6.8822 L8.7695,6.1406 C8.7695,5.9462 8.62334,5.8022 8.87138,5.8022 L9.8495,5.8022 L9.8495,4.7222"></path>
        </g>
    </g>
</svg>