<?xml version="1.0" encoding="UTF-8" standalone="no"?>
<svg width="16px" height="16px" viewBox="0 0 16 16" version="1.1" xmlns="http://www.w3.org/2000/svg" xmlns:xlink="http://www.w3.org/1999/xlink">
    <!-- Generator: Sketch 3.6.1 (26313) - http://www.bohemiancoding.com/sketch -->
    <title>social_blog</title>
    <desc>Created with Sketch.</desc>
    <defs></defs>
    <g id="Page-1" stroke="none" stroke-width="1" fill="none" fill-rule="evenodd">
        <g id="social_blog" fill="#000000">
            <path d="M7.99964,2.0312 C4.70816,2.0312 2.03084,4.7096 2.03084,8 C2.03084,11.294 4.70816,13.9688 7.99964,13.9688 C11.29184,13.9688 13.96916,11.294 13.96916,8 C13.96916,4.7096 11.29184,2.0312 7.99964,2.0312 L7.99964,2.0312 Z M7.99964,13.2668 C5.09696,13.2668 2.73464,10.9052 2.73464,8 C2.73464,5.0984 5.09696,2.7368 7.99964,2.7368 C10.90268,2.7368 13.26428,5.0984 13.26428,8 C13.26428,10.9052 10.90268,13.2668 7.99964,13.2668 L7.99964,13.2668 Z M10.94336,7.4924 L10.8944,7.3916 L10.81016,7.3268 C10.70108,7.2404 10.15064,7.3304 10.00268,7.1972 C9.8972,7.1 9.88208,6.9236 9.8504,6.6896 C9.79028,6.2324 9.75356,6.2144 9.68192,6.0596 C9.422,5.5088 8.71856,5.0732 8.23472,5.0444 L6.9254,5.0444 C5.89616,5.0444 5.04188,5.876 5.04188,6.9056 L5.04188,9.0908 C5.04188,10.1168 5.89616,10.9556 6.9254,10.9556 L9.07748,10.9556 C10.10744,10.9556 10.94336,10.1168 10.9502,9.0872 L10.96208,7.5752 L10.94336,7.4924 L10.94336,7.4924 Z M6.94916,6.5672 L7.98776,6.5672 C8.18612,6.5672 8.34668,6.722 8.34668,6.9164 C8.34668,7.1108 8.18612,7.2692 7.98776,7.2692 L6.94916,7.2692 C6.75116,7.2692 6.59096,7.1108 6.59096,6.9164 C6.59096,6.722 6.75116,6.5672 6.94916,6.5672 L6.94916,6.5672 Z M9.05984,9.4076 L6.94916,9.4076 C6.75116,9.4076 6.59096,9.2492 6.59096,9.0548 C6.59096,8.8568 6.75116,8.702 6.94916,8.702 L9.05984,8.702 C9.25604,8.702 9.4166,8.8568 9.4166,9.0548 C9.4166,9.2492 9.25604,9.4076 9.05984,9.4076 L9.05984,9.4076 Z"></path>
        </g>
    </g>
</svg>