<?xml version="1.0" encoding="UTF-8" standalone="no"?>
<svg width="16px" height="16px" viewBox="0 0 16 16" version="1.1" xmlns="http://www.w3.org/2000/svg" xmlns:xlink="http://www.w3.org/1999/xlink">
    <!-- Generator: Sketch 3.6.1 (26313) - http://www.bohemiancoding.com/sketch -->
    <title>social_youtube</title>
    <desc>Created with Sketch.</desc>
    <defs></defs>
    <g id="Page-1" stroke="none" stroke-width="1" fill="none" fill-rule="evenodd">
        <g id="social_youtube" fill="#000000">
            <path d="M6.73928,6.4916 C6.73928,6.6608 6.78716,6.794 6.88292,6.8948 C6.98012,6.9956 7.10828,7.0424 7.27028,7.0424 C7.43732,7.0424 7.56872,6.9956 7.66412,6.8984 C7.75916,6.8012 7.80668,6.668 7.80668,6.4988 L7.80668,5.4764 C7.80668,5.3252 7.75844,5.2028 7.66124,5.1056 C7.5644,5.012 7.43948,4.9652 7.2872,4.9652 C7.1198,4.9652 6.98588,5.0084 6.88724,5.0984 C6.78752,5.192 6.73928,5.3108 6.73928,5.4656 L6.73928,6.4916 L6.73928,6.4916 Z M7.11836,5.4512 C7.11836,5.408 7.13132,5.372 7.1594,5.3468 C7.18748,5.318 7.22492,5.3072 7.2692,5.3072 C7.3178,5.3072 7.35668,5.318 7.3862,5.3468 C7.41716,5.372 7.43156,5.408 7.43156,5.4512 L7.43156,6.5276 C7.43156,6.5816 7.41788,6.6248 7.38764,6.6536 C7.35848,6.686 7.31924,6.7004 7.2692,6.7004 C7.22024,6.7004 7.1828,6.686 7.15688,6.6572 C7.1306,6.6248 7.11836,6.5852 7.11836,6.5276 L7.11836,5.4512 L7.11836,5.4512 Z M5.86088,6.9956 L6.27452,6.9956 L6.27452,5.8796 L6.75692,4.31 L6.335,4.31 L6.0794,5.3828 L6.05348,5.3828 L5.7842,4.31 L5.36804,4.31 L5.86088,5.93 L5.86088,6.9956 L5.86088,6.9956 Z M8.37764,7.0208 C8.44532,7.0208 8.5166,7.0028 8.59148,6.9596 C8.66384,6.9164 8.73476,6.8552 8.80172,6.776 L8.80172,6.9956 L9.16964,6.9956 L9.16964,5.012 L8.80172,5.012 L8.80172,6.5168 C8.76788,6.56 8.72864,6.596 8.68904,6.6248 C8.64728,6.65 8.61344,6.6644 8.58608,6.6644 C8.55188,6.6644 8.52668,6.6536 8.51048,6.632 C8.49464,6.614 8.48744,6.578 8.48744,6.5312 L8.48744,5.012 L8.11988,5.012 L8.11988,6.668 C8.11988,6.7868 8.14148,6.8732 8.18396,6.9344 C8.22716,6.992 8.29196,7.0208 8.37764,7.0208 L8.37764,7.0208 Z M10.99196,8.4932 C10.99196,8.018 10.60064,7.6292 10.11716,7.6292 C9.42524,7.6004 8.71928,7.5896 7.99892,7.5896 C7.27928,7.5896 6.57296,7.6004 5.88176,7.6292 C5.399,7.6292 5.0066,8.018 5.0066,8.4932 C4.97744,8.8748 4.96628,9.2528 4.967,9.6308 C4.96628,10.0088 4.97744,10.3904 5.0066,10.7684 C5.0066,11.2472 5.399,11.6324 5.88176,11.6324 C6.57296,11.6612 7.27928,11.6756 7.99892,11.672 C8.71928,11.6756 9.42524,11.6612 10.11716,11.6324 C10.60064,11.6324 10.99196,11.2472 10.99196,10.7684 C11.02076,10.3904 11.03516,10.0088 11.033,9.6308 C11.03516,9.2528 11.02076,8.8748 10.99196,8.4932 L10.99196,8.4932 Z M6.2792,10.934 L5.86484,10.934 L5.86484,8.6408 L5.4368,8.6408 L5.4368,8.252 L6.70688,8.252 L6.70688,8.6408 L6.2792,8.6408 L6.2792,10.934 L6.2792,10.934 Z M7.75376,10.934 L7.38584,10.934 L7.38584,10.7144 C7.3178,10.7972 7.24724,10.8584 7.17272,10.9016 C7.10144,10.9412 7.03016,10.9628 6.96068,10.9628 C6.87536,10.9628 6.812,10.934 6.7688,10.8764 C6.72416,10.8152 6.70328,10.7288 6.70328,10.61 L6.70328,8.954 L7.07192,8.954 L7.07192,10.4732 C7.07192,10.52 7.07948,10.5524 7.09496,10.574 C7.1108,10.5956 7.1342,10.6064 7.16912,10.6064 C7.19612,10.6064 7.23068,10.592 7.27208,10.5632 C7.31348,10.538 7.35092,10.502 7.38584,10.4588 L7.38584,8.954 L7.75376,8.954 L7.75376,10.934 L7.75376,10.934 Z M9.17144,10.5272 C9.17144,10.6676 9.14264,10.772 9.0836,10.8476 C9.02672,10.9232 8.94428,10.9592 8.83484,10.9592 C8.7632,10.9592 8.6984,10.9448 8.64188,10.916 C8.58608,10.8872 8.53316,10.844 8.48492,10.7828 L8.48492,10.934 L8.1134,10.934 L8.1134,8.252 L8.48492,8.252 L8.48492,9.116 C8.53424,9.0548 8.58716,9.008 8.64296,8.9756 C8.6984,8.9468 8.75564,8.9288 8.81216,8.9288 C8.92808,8.9288 9.01736,8.972 9.07892,9.0584 C9.14048,9.1412 9.17144,9.2636 9.17144,9.4256 L9.17144,10.5272 L9.17144,10.5272 Z M10.53152,9.9908 L9.82808,9.9908 L9.82808,10.3652 C9.82808,10.4696 9.83924,10.5416 9.8648,10.5812 C9.8882,10.6208 9.9296,10.6424 9.98792,10.6424 C10.04948,10.6424 10.0916,10.6244 10.11716,10.592 C10.14056,10.556 10.15208,10.4804 10.15208,10.3652 L10.15208,10.2284 L10.53152,10.2284 L10.53152,10.376 C10.53152,10.5776 10.48652,10.7324 10.39364,10.8332 C10.30148,10.9376 10.16324,10.988 9.97892,10.988 C9.81512,10.988 9.68624,10.934 9.59048,10.826 C9.49652,10.7144 9.449,10.5668 9.449,10.376 L9.449,9.4868 C9.449,9.314 9.50048,9.1736 9.60524,9.0692 C9.7082,8.9612 9.84284,8.9036 10.00736,8.9036 C10.17584,8.9036 10.3058,8.954 10.3958,9.0548 C10.48724,9.1556 10.53152,9.2996 10.53152,9.4868 L10.53152,9.9908 L10.53152,9.9908 Z M9.99152,9.2528 C9.93392,9.2528 9.89072,9.2708 9.86624,9.3068 C9.83924,9.3428 9.82808,9.4004 9.82808,9.4832 L9.82808,9.6848 L10.15208,9.6848 L10.15208,9.4832 C10.15208,9.4004 10.14056,9.3428 10.11464,9.3068 C10.08944,9.2708 10.04804,9.2528 9.99152,9.2528 L9.99152,9.2528 Z M8.63792,9.2456 C8.61236,9.2456 8.58608,9.2492 8.56016,9.2636 C8.53532,9.278 8.51012,9.296 8.48492,9.3248 L8.48492,10.5596 C8.5148,10.592 8.54324,10.6136 8.57168,10.628 C8.59976,10.6424 8.62964,10.6496 8.66168,10.6496 C8.70596,10.6496 8.73908,10.6352 8.76068,10.6064 C8.78156,10.5812 8.79164,10.5344 8.79164,10.4696 L8.79164,9.4472 C8.79164,9.3824 8.7794,9.332 8.7524,9.296 C8.72612,9.2636 8.68904,9.2456 8.63792,9.2456 L8.63792,9.2456 Z M8,13.9112 C4.73948,13.9112 2.08772,11.2616 2.08772,8 C2.08772,4.7384 4.73948,2.0888 8,2.0888 C11.26052,2.0888 13.91228,4.7384 13.91228,8 C13.91228,11.2616 11.26052,13.9112 8,13.9112 L8,13.9112 Z M8,2.7836 C5.12432,2.7836 2.78576,5.1236 2.78576,8 C2.78576,10.8764 5.12432,13.2164 8,13.2164 C10.8764,13.2164 13.21532,10.8764 13.21532,8 C13.21532,5.1236 10.8764,2.7836 8,2.7836 L8,2.7836 Z"></path>
        </g>
    </g>
</svg>