<?xml version="1.0" encoding="UTF-8" standalone="no"?>
<svg width="16px" height="16px" viewBox="0 0 16 16" version="1.1" xmlns="http://www.w3.org/2000/svg" xmlns:xlink="http://www.w3.org/1999/xlink">
    <!-- Generator: Sketch 3.6.1 (26313) - http://www.bohemiancoding.com/sketch -->
    <title>subasta_emails</title>
    <desc>Created with Sketch.</desc>
    <defs></defs>
    <g id="Page-1" stroke="none" stroke-width="1" fill="none" fill-rule="evenodd">
        <g id="subasta_emails" fill="#000000">
            <path d="M8,2.09366 C4.73876,2.09366 2.09348,4.73858 2.09348,8.0009 C2.09348,11.2625 4.73876,13.90634 8,13.90634 C11.26232,13.90634 13.90652,11.2625 13.90652,8.0009 C13.90652,4.73858 11.26232,2.09366 8,2.09366 M8,12.44978 C5.54732,12.44978 3.55112,10.4543 3.55112,8.0009 C3.55112,5.5475 5.54732,3.5513 8,3.5513 C10.4534,3.5513 12.4496,5.5475 12.4496,8.0009 C12.4496,10.4543 10.4534,12.44978 8,12.44978 Z M8.40752,5.65586 C8.891,5.17238 9.21392,4.96286 9.39896,4.87214 L9.04508,4.51826 C9.04508,4.51826 8.72252,4.56254 8.00216,5.2829 C7.28216,6.0029 7.23788,6.32546 7.23788,6.32546 L7.60328,6.69086 C7.68104,6.51554 7.883,6.18038 8.40752,5.65586 Z M11.49848,6.97166 L11.13416,6.60734 C11.04344,6.79202 10.83392,7.1153 10.35044,7.59842 C9.82592,8.12294 9.49004,8.3249 9.31508,8.40302 L9.69128,8.77922 C9.69128,8.77922 10.11284,8.63342 10.70396,8.0423 C11.29508,7.45154 11.49848,6.97166 11.49848,6.97166 Z M9.17,8.25758 C9.25964,8.22842 9.59696,8.08622 10.2176,7.46558 C10.75724,6.92594 10.93508,6.60014 10.9916,6.46478 L9.54116,5.01434 C9.40688,5.0705 9.08108,5.24798 8.54036,5.7887 C7.92188,6.40718 7.7786,6.74414 7.74872,6.8363 L8.14148,7.22906 C7.10864,8.15786 6.05528,9.21914 5.0624,10.31426 L5.14628,10.3985 L5.5934,10.84814 L5.67764,10.9331 C6.77888,9.94562 7.847,8.89766 8.78192,7.8695 L9.17,8.25758 Z"></path>
        </g>
    </g>
</svg>