<?xml version="1.0" encoding="UTF-8" standalone="no"?>
<svg width="16px" height="16px" viewBox="0 0 16 16" version="1.1" xmlns="http://www.w3.org/2000/svg" xmlns:xlink="http://www.w3.org/1999/xlink">
    <!-- Generator: Sketch 3.6.1 (26313) - http://www.bohemiancoding.com/sketch -->
    <title>subasta</title>
    <desc>Created with Sketch.</desc>
    <defs></defs>
    <g id="Page-1" stroke="none" stroke-width="1" fill="none" fill-rule="evenodd">
        <g id="subasta" fill="#000000">
            <path d="M8.20142,4.72382 C8.96642,3.95882 9.47798,3.62726 9.7703,3.48362 L9.2105,2.92346 C9.2105,2.92346 8.70002,2.9933 7.5599,4.13342 C6.42014,5.27318 6.3503,5.78366 6.3503,5.78366 L6.92882,6.36218 C7.05158,6.08498 7.3709,5.55434 8.20142,4.72382 Z M13.09346,6.80678 L12.5171,6.23006 C12.3731,6.52238 12.04154,7.03394 11.27618,7.79894 C10.44638,8.62946 9.91538,8.94878 9.63818,9.07154 L10.23362,9.66698 C10.23362,9.66698 10.9007,9.43694 11.83634,8.50094 C12.77162,7.56566 13.09346,6.80678 13.09346,6.80678 Z M9.4085,8.84186 C9.55034,8.79578 10.08422,8.57078 11.0663,7.5887 C11.92094,6.73406 12.2021,6.21854 12.29138,6.00434 L9.99566,3.70862 C9.78326,3.79754 9.26702,4.07834 8.41166,4.93406 C7.43282,5.91326 7.20638,6.44678 7.15886,6.59222 L7.78058,7.21394 C6.14582,8.68382 4.47866,10.36358 2.90654,12.09734 L3.03974,12.23054 L3.7475,12.94226 L3.8807,13.07654 C5.62346,11.51378 7.31438,9.8549 8.7947,8.2277 L9.4085,8.84186 Z"></path>
        </g>
    </g>
</svg>