<?xml version="1.0" encoding="UTF-8" standalone="no"?>
<svg width="16px" height="16px" viewBox="0 0 16 16" version="1.1" xmlns="http://www.w3.org/2000/svg" xmlns:xlink="http://www.w3.org/1999/xlink">
    <!-- Generator: Sketch 3.6.1 (26313) - http://www.bohemiancoding.com/sketch -->
    <title>subir_archivos</title>
    <desc>Created with Sketch.</desc>
    <defs></defs>
    <g id="Page-1" stroke="none" stroke-width="1" fill="none" fill-rule="evenodd">
        <g id="subir_archivos" fill="#000000">
            <path d="M11.20868,7.37774 L8.82584,5.6051 C8.8334,5.90354 8.83628,6.20414 8.83628,6.4997 C8.83628,7.63802 8.7848,8.75906 8.68652,9.74798 L8.68436,9.77966 L7.316,9.77966 L7.31312,9.74798 C7.21448,8.75906 7.16336,7.63802 7.16336,6.50222 C7.16336,6.20558 7.16696,5.90534 7.1738,5.6051 L4.79132,7.37774 L4.79132,5.61698 L8,3.01346 L11.20868,5.61698 L11.20868,7.37774 L11.20868,7.37774 Z M12.46544,12.98654 L3.53456,12.98654 L3.53456,10.75418 L4.65092,10.75418 L4.65092,11.87018 L11.34944,11.87018 L11.34944,10.75418 L12.46544,10.75418 L12.46544,12.98654 L12.46544,12.98654 Z"></path>
        </g>
    </g>
</svg>