<?xml version="1.0" encoding="UTF-8" standalone="no"?>
<svg width="16px" height="16px" viewBox="0 0 16 16" version="1.1" xmlns="http://www.w3.org/2000/svg" xmlns:xlink="http://www.w3.org/1999/xlink">
    <!-- Generator: Sketch 3.6.1 (26313) - http://www.bohemiancoding.com/sketch -->
    <title>subir_escaleras</title>
    <desc>Created with Sketch.</desc>
    <defs></defs>
    <g id="Page-1" stroke="none" stroke-width="1" fill="none" fill-rule="evenodd">
        <g id="subir_escaleras" fill="#000000">
            <path d="M4.81778,6.3962 L4.80518,6.407 L4.3163,5.9174 L4.32638,5.903 C4.64498,5.5142 5.02766,5.0966 5.43302,4.6898 C5.53958,4.5854 5.64794,4.4774 5.75738,4.373 L4.27202,4.157 L4.9013,3.527 L6.97922,3.743 L7.19486,5.8202 L6.5663,6.4502 L6.34814,4.9634 C6.2441,5.075 6.1379,5.183 6.03242,5.2874 C5.62526,5.6942 5.20622,6.0758 4.81778,6.3962 M13.23098,13.2254 L13.23098,2.7746 L11.7377,2.7746 L11.7377,4.2686 L10.24442,4.2686 L10.24442,5.7626 L8.75114,5.7626 L8.75114,7.253 L7.25786,7.253 L7.25786,8.7506 L5.76494,8.7506 L5.76494,10.241 L4.2713,10.241 L4.2713,11.7278 L2.76902,11.7278 L2.76902,13.2254 L13.23098,13.2254"></path>
        </g>
    </g>
</svg>