<?xml version="1.0" encoding="UTF-8" standalone="no"?>
<svg width="16px" height="16px" viewBox="0 0 16 16" version="1.1" xmlns="http://www.w3.org/2000/svg" xmlns:xlink="http://www.w3.org/1999/xlink">
    <!-- Generator: Sketch 3.6.1 (26313) - http://www.bohemiancoding.com/sketch -->
    <title>t_chubascos</title>
    <desc>Created with Sketch.</desc>
    <defs></defs>
    <g id="Page-1" stroke="none" stroke-width="1" fill="none" fill-rule="evenodd">
        <g id="t_chubascos" fill="#000000">
            <path d="M5.54516,11.3220056 L5.0624,11.0808056 L4.78484,11.6352056 L5.26796,11.8764056 L5.54516,11.3220056 Z M6.04232,10.3284056 L5.5592,10.0872056 L5.282,10.6416056 L5.76512,10.8828056 L6.04232,10.3284056 Z M6.53768,9.33840555 L6.05492,9.09720555 L5.77772,9.65160555 L6.26048,9.89280555 L6.53768,9.33840555 Z M7.34516,11.3220056 L6.8624,11.0808056 L6.58484,11.6352056 L7.06796,11.8764056 L7.34516,11.3220056 Z M7.84232,10.3284056 L7.3592,10.0872056 L7.082,10.6416056 L7.56512,10.8828056 L7.84232,10.3284056 Z M8.33768,9.33840555 L7.85492,9.09720555 L7.57772,9.65160555 L8.06048,9.89280555 L8.33768,9.33840555 Z M9.14516,11.3220056 L8.6624,11.0808056 L8.38484,11.6352056 L8.86796,11.8764056 L9.14516,11.3220056 Z M9.64232,10.3284056 L9.1592,10.0872056 L8.882,10.6416056 L9.36512,10.8828056 L9.64232,10.3284056 Z M10.13768,9.33840555 L9.65492,9.09720555 L9.37772,9.65160555 L9.86048,9.89280555 L10.13768,9.33840555 Z M5.90768,4.72320555 L6.23384,4.39200555 C6.4106,4.26600555 6.6176,4.17600555 6.84224,4.13640555 C8,4.00680555 8.37944,4.90320555 8.37944,4.90320555 C8.37944,4.90320555 8.88452,4.53240555 9.66968,4.81320555 C9.9314,4.92480555 10.1546,5.10840555 10.31192,5.33880555 C10.40984,5.31720555 10.51136,5.30640555 10.61468,5.30640555 C11.41532,5.30640555 12.06404,5.95800555 12.06404,6.75720555 C12.06404,7.54920555 11.42576,8.19360555 10.63448,8.20440555 L5.38496,8.20440555 C5.37056,8.20440555 5.35616,8.20800555 5.3414,8.20440555 C4.56128,8.18280555 3.93596,7.54200555 3.93596,6.75720555 C3.93596,5.95800555 4.58504,5.30640555 5.38496,5.30640555 C5.47856,5.30640555 5.57,5.31720555 5.65856,5.33160555 C5.6942,5.10840555 5.78132,4.90320555 5.90768,4.72320555 Z M5.38496,8.20440555 L5.3414,8.20440555 C5.35616,8.20800555 5.37056,8.20440555 5.38496,8.20440555 Z"></path>
        </g>
    </g>
</svg>