<?xml version="1.0" encoding="UTF-8" standalone="no"?>
<svg width="16px" height="16px" viewBox="0 0 16 16" version="1.1" xmlns="http://www.w3.org/2000/svg" xmlns:xlink="http://www.w3.org/1999/xlink">
    <!-- Generator: Sketch 3.6.1 (26313) - http://www.bohemiancoding.com/sketch -->
    <title>t_lluvia</title>
    <desc>Created with Sketch.</desc>
    <defs></defs>
    <g id="Page-1" stroke="none" stroke-width="1" fill="none" fill-rule="evenodd">
        <g id="t_lluvia" fill="#000000">
            <path d="M5.5016,10.0011743 L5.45804,10.0011743 C5.4728,10.0047743 5.4872,10.0011743 5.5016,10.0011743 Z M5.67008,12.1467743 L5.15096,11.9991743 L4.87376,12.9675743 L5.39288,13.1151743 L5.67008,12.1467743 Z M6.16724,10.4079743 L5.64812,10.2567743 L5.37092,11.2287743 L5.89004,11.3763743 L6.16724,10.4079743 Z M6.66296,8.6727743 L6.14384,8.5251743 L5.86664,9.4935743 L6.38576,9.6411743 L6.66296,8.6727743 Z M7.47008,12.1467743 L6.95096,11.9991743 L6.67376,12.9675743 L7.19288,13.1151743 L7.47008,12.1467743 Z M7.96724,10.4079743 L7.44812,10.2567743 L7.17092,11.2287743 L7.69004,11.3763743 L7.96724,10.4079743 Z M8.46296,8.6727743 L7.94384,8.5251743 L7.66664,9.4935743 L8.18576,9.6411743 L8.46296,8.6727743 Z M9.27008,12.1467743 L8.75096,11.9991743 L8.47376,12.9675743 L8.99288,13.1151743 L9.27008,12.1467743 Z M9.76724,10.4079743 L9.24812,10.2567743 L8.97092,11.2287743 L9.49004,11.3763743 L9.76724,10.4079743 Z M10.26296,8.6727743 L9.74384,8.5251743 L9.46664,9.4935743 L9.98576,9.6411743 L10.26296,8.6727743 Z M4.4216,7.8411743 L4.37804,7.8411743 C4.3928,7.8447743 4.4072,7.8411743 4.4216,7.8411743 Z M4.94432,4.3599743 L5.27048,4.0287743 C5.44724,3.9027743 5.65424,3.8127743 5.87888,3.7731743 C7.03664,3.6435743 7.41608,4.5399743 7.41608,4.5399743 C7.41608,4.5399743 7.92116,4.1691743 8.70632,4.4499743 C8.96804,4.5615743 9.19124,4.7451743 9.34856,4.9755743 C9.44648,4.9539743 9.548,4.9431743 9.65132,4.9431743 C10.45196,4.9431743 11.10068,5.5947743 11.10068,6.3939743 C11.10068,7.1895743 10.4624,7.8339743 9.67112,7.8411743 L4.4216,7.8411743 C4.4072,7.8411743 4.3928,7.8447743 4.37804,7.8411743 C3.59792,7.8195743 2.9726,7.1787743 2.9726,6.3939743 C2.9726,5.5947743 3.62168,4.9431743 4.4216,4.9431743 C4.5152,4.9431743 4.60664,4.9539743 4.6952,4.9719743 C4.73084,4.7451743 4.81796,4.5399743 4.94432,4.3599743 Z M11.89844,3.8091743 C11.8178,3.8091743 11.73896,3.8163743 11.66264,3.8307743 C11.53988,3.6507743 11.36672,3.5103743 11.16296,3.4239743 C10.5506,3.2043743 10.15784,3.4923743 10.15784,3.4923743 C10.15784,3.4923743 9.86156,2.7939743 8.96012,2.8947743 C8.7848,2.9235743 8.62352,2.9955743 8.486,3.0963743 L8.2322,3.3519743 C8.13356,3.4923743 8.06624,3.6543743 8.0378,3.8271743 C7.96868,3.8163743 7.8974,3.8091743 7.82468,3.8091743 C7.65764,3.8091743 7.49996,3.8451743 7.3574,3.9099743 C7.53416,4.0935743 7.6058,4.2627743 7.6058,4.2627743 C7.6058,4.2627743 8.11124,3.8919743 8.89604,4.1727743 C9.15776,4.2843743 9.3806,4.4679743 9.53828,4.6983743 C9.63584,4.6767743 9.73772,4.6659743 9.84104,4.6659743 C10.62404,4.6659743 11.258,5.2887743 11.285,6.0663743 L11.91392,6.0663743 C12.53024,6.0555743 13.0274,5.5551743 13.0274,4.9359743 C13.0274,4.3131743 12.52196,3.8091743 11.89844,3.8091743 Z M3.87008,12.1467743 L3.35096,11.9991743 L3.07376,12.9675743 L3.59288,13.1151743 L3.87008,12.1467743 Z M4.36724,10.4079743 L3.84812,10.2567743 L3.57092,11.2287743 L4.09004,11.3763743 L4.36724,10.4079743 Z M4.86296,8.6727743 L4.34384,8.5251743 L4.06664,9.4935743 L4.58576,9.6411743 L4.86296,8.6727743 Z"></path>
        </g>
    </g>
</svg>