<?xml version="1.0" encoding="UTF-8" standalone="no"?>
<svg width="16px" height="16px" viewBox="0 0 16 16" version="1.1" xmlns="http://www.w3.org/2000/svg" xmlns:xlink="http://www.w3.org/1999/xlink">
    <!-- Generator: Sketch 3.6.1 (26313) - http://www.bohemiancoding.com/sketch -->
    <title>t_mayormente_nublado</title>
    <desc>Created with Sketch.</desc>
    <defs></defs>
    <g id="Page-1" stroke="none" stroke-width="1" fill="none" fill-rule="evenodd">
        <g id="t_mayormente_nublado" fill="#000000">
            <path d="M4.66478,12.4676 L4.60898,12.4676 L4.66478,12.4676 L4.66478,12.4676 Z M9.38402,8 C9.43586,7.874 9.46466,7.7336 9.46466,7.586 C9.46466,6.974 8.96786,6.4772 8.35622,6.4772 C7.84178,6.4772 7.40942,6.8264 7.28414,7.3016 C7.80794,7.4312 8.24354,7.7876 8.48402,8.2556 C8.74898,8.1008 9.05606,8.0072 9.38402,8 L9.38402,8 Z M5.33114,8.0288 L4.2245,8.0288 L4.2245,7.2692 L5.7473,7.2692 L5.7473,7.604 C5.97266,7.442 6.23654,7.3268 6.52382,7.2764 C6.67106,6.398 7.43534,5.7284 8.35622,5.7284 C9.38222,5.7284 10.2149,6.56 10.2149,7.586 C10.2149,7.7804 10.18502,7.9676 10.12994,8.144 C10.46366,8.2808 10.74842,8.5148 10.94966,8.81 C11.07386,8.7848 11.20346,8.7704 11.33522,8.7704 C12.35654,8.7704 13.18418,9.5984 13.18418,10.6208 C13.18418,11.6324 12.36986,12.4532 11.36042,12.4676 L4.66478,12.4676 L4.60898,12.4676 C3.6143,12.4388 2.81582,11.6216 2.81582,10.6208 C2.81582,9.5984 3.64418,8.7704 4.66478,8.7704 C4.78394,8.7704 4.90022,8.7812 5.01326,8.8028 C5.05898,8.5184 5.16986,8.2556 5.33114,8.0288 L5.33114,8.0288 Z M9.94058,5.5052 L11.01734,4.4288 L11.55302,4.9652 L10.47626,6.0416 L9.94058,5.5052 L9.94058,5.5052 Z M10.95146,7.9964 L12.47426,7.9964 L12.47426,7.2368 L10.95146,7.2368 L10.95146,7.9964 Z M6.2189,6.0668 L5.1425,4.9904 L5.67782,4.454 L6.75458,5.5304 L6.2189,6.0668 L6.2189,6.0668 Z M7.9721,5.0552 L8.7299,5.0552 L8.7299,3.5324 L7.9721,3.5324 L7.9721,5.0552 Z"></path>
        </g>
    </g>
</svg>