<?xml version="1.0" encoding="UTF-8" standalone="no"?>
<svg width="16px" height="16px" viewBox="0 0 16 16" version="1.1" xmlns="http://www.w3.org/2000/svg" xmlns:xlink="http://www.w3.org/1999/xlink">
    <!-- Generator: Sketch 3.6.1 (26313) - http://www.bohemiancoding.com/sketch -->
    <title>t_mayormente_soleado</title>
    <desc>Created with Sketch.</desc>
    <defs></defs>
    <g id="Page-1" stroke="none" stroke-width="1" fill="none" fill-rule="evenodd">
        <g id="t_mayormente_soleado" fill="#000000">
            <path d="M10.28654,8.3168 L11.80934,8.3168 L11.80934,7.5572 L10.28654,7.5572 L10.28654,8.3168 Z M5.55398,6.3872 L4.47758,5.3108 L5.0129,4.7744 L6.08966,5.8544 L5.55398,6.3872 Z M7.30718,5.3756 L8.06462,5.3756 L8.06462,3.8528 L7.30718,3.8528 L7.30718,5.3756 Z M9.81134,9.6416 L10.8881,10.718 L10.35242,11.2544 L9.27566,10.1744 L9.81134,9.6416 Z M7.30718,12.1472 L8.06462,12.1472 L8.06462,10.6244 L7.30718,10.6244 L7.30718,12.1472 Z M3.55166,8.3168 L5.07446,8.3168 L5.07446,7.5572 L3.55166,7.5572 L3.55166,8.3168 Z M8.93942,7.2656 C8.93186,7.2656 8.92466,7.2692 8.9171,7.2656 C8.76806,7.262 8.62982,7.2152 8.51534,7.136 C8.70974,7.3376 8.83034,7.6112 8.83034,7.91 C8.83034,8.5292 8.32886,9.0332 7.70966,9.0332 C7.09082,9.0332 6.58898,8.5292 6.58898,7.91 C6.58898,7.2908 7.09082,6.7904 7.70966,6.7904 C7.96958,6.7904 8.20646,6.884 8.3969,7.0316 C8.27054,6.8984 8.19314,6.7184 8.19314,6.5204 C8.19314,6.3836 8.23238,6.2576 8.29718,6.146 C8.11142,6.0848 7.9163,6.0452 7.70966,6.0452 C6.67826,6.0452 5.84198,6.8804 5.84198,7.91 C5.84198,8.1836 5.90246,8.4392 6.0065,8.6696 C6.12134,8.6264 6.3197,8.5868 6.57494,8.6804 C6.71318,8.738 6.83054,8.8352 6.91406,8.9576 C6.96518,8.9468 7.01918,8.9396 7.07318,8.9396 C7.49582,8.9396 7.83782,9.2816 7.83782,9.7028 C7.83782,9.7244 7.83314,9.746 7.83134,9.7676 C8.80514,9.7028 9.5777,8.9 9.5777,7.91 C9.5777,7.6832 9.53126,7.4708 9.45674,7.2656 L8.93942,7.2656 Z M4.16366,10.6712 L4.14098,10.6712 L4.16366,10.6712 Z M4.43942,8.8352 L4.6115,8.6624 C4.70438,8.594 4.81346,8.5472 4.93226,8.5256 C5.54282,8.4572 5.74298,8.9324 5.74298,8.9324 C5.74298,8.9324 6.00902,8.7344 6.42302,8.882 C6.56126,8.9396 6.67898,9.0368 6.76178,9.1592 C6.81326,9.1484 6.8669,9.1448 6.92126,9.1448 C7.34354,9.1448 7.6859,9.4868 7.6859,9.908 C7.6859,10.3256 7.3493,10.6676 6.9317,10.6712 L4.16366,10.6712 L4.14098,10.6712 C3.7295,10.6604 3.39938,10.322 3.39938,9.908 C3.39938,9.4868 3.74174,9.1448 4.16366,9.1448 C4.21298,9.1448 4.26122,9.1484 4.30766,9.1556 C4.3271,9.0404 4.37246,8.9288 4.43942,8.8352 Z M9.1601,7.0964 L9.13778,7.0964 L9.1601,7.0964 Z M9.42938,5.3036 L9.59714,5.1308 C9.68822,5.066 9.79478,5.0192 9.9107,4.9976 C10.50686,4.9328 10.7027,5.3936 10.7027,5.3936 C10.7027,5.3936 10.96262,5.2028 11.3669,5.3468 C11.5019,5.4044 11.6171,5.498 11.6981,5.6168 C11.7485,5.606 11.80106,5.6024 11.85398,5.6024 C12.26654,5.6024 12.60062,5.9372 12.60062,6.3476 C12.60062,6.758 12.2723,7.0892 11.86406,7.0964 L9.1601,7.0964 L9.13778,7.0964 C8.73566,7.082 8.41346,6.7544 8.41346,6.3476 C8.41346,5.9372 8.7479,5.6024 9.1601,5.6024 C9.20834,5.6024 9.25514,5.606 9.30086,5.6168 C9.31958,5.498 9.36422,5.3936 9.42938,5.3036 Z"></path>
        </g>
    </g>
</svg>