<?xml version="1.0" encoding="UTF-8" standalone="no"?>
<svg width="16px" height="16px" viewBox="0 0 16 16" version="1.1" xmlns="http://www.w3.org/2000/svg" xmlns:xlink="http://www.w3.org/1999/xlink">
    <!-- Generator: Sketch 3.6.1 (26313) - http://www.bohemiancoding.com/sketch -->
    <title>t_nublado</title>
    <desc>Created with Sketch.</desc>
    <defs></defs>
    <g id="Page-1" stroke="none" stroke-width="1" fill="none" fill-rule="evenodd">
        <g id="t_nublado" fill="#000000">
            <path d="M3.88538,10.849655 L3.83534,10.849655 L3.88538,10.849655 M4.48622,6.84645503 L4.86134,6.46485503 C5.06474,6.31725503 5.3027,6.21285503 5.56118,6.16965503 C6.89246,6.02205503 7.32878,7.05165503 7.32878,7.05165503 C7.32878,7.05165503 7.9091,6.62325503 8.81198,6.95085503 C9.11294,7.07685503 9.36962,7.28565503 9.55034,7.55205503 C9.66302,7.53045503 9.77966,7.51605503 9.89846,7.51605503 C10.81898,7.51605503 11.5649,8.26485503 11.5649,9.18285503 C11.5649,10.097255 10.83086,10.838855 9.92114,10.849655 L3.88538,10.849655 L3.83534,10.849655 C2.93858,10.824455 2.2193,10.086455 2.2193,9.18285503 C2.2193,8.26485503 2.96558,7.51605503 3.88538,7.51605503 C3.99266,7.51605503 4.09814,7.52685503 4.20002,7.54845503 C4.24106,7.28925503 4.34114,7.05165503 4.48622,6.84645503 Z M12.48254,6.20925503 C12.39002,6.20925503 12.29858,6.22005503 12.21146,6.23805503 C12.07034,6.03285503 11.87054,5.86725503 11.63618,5.77005503 C10.9331,5.51445503 10.48058,5.84925503 10.48058,5.84925503 C10.48058,5.84925503 10.14074,5.04645503 9.10358,5.16165503 C8.9027,5.19405503 8.7173,5.27685503 8.5589,5.39205503 L8.26694,5.68725503 C8.15354,5.84565503 8.07542,6.03285503 8.04338,6.23445503 C7.96382,6.21645503 7.8821,6.20925503 7.79858,6.20925503 C7.6067,6.20925503 7.42562,6.25605503 7.26146,6.33165503 C7.46414,6.53685503 7.54694,6.73485503 7.54694,6.73485503 C7.54694,6.73485503 8.12762,6.30645503 9.0305,6.63045503 C9.33146,6.75645503 9.58778,6.96885503 9.76886,7.23525503 C9.88118,7.21005503 9.99782,7.19925503 10.11662,7.19925503 C11.01698,7.19925503 11.74634,7.91205503 11.77766,8.80485503 L12.49982,8.80485503 C13.20938,8.79765503 13.7807,8.21805503 13.7807,7.50885503 C13.7807,6.79245503 13.1993,6.20925503 12.48254,6.20925503 Z"></path>
        </g>
    </g>
</svg>