<?xml version="1.0" encoding="UTF-8" standalone="no"?>
<svg width="16px" height="16px" viewBox="0 0 16 16" version="1.1" xmlns="http://www.w3.org/2000/svg" xmlns:xlink="http://www.w3.org/1999/xlink">
    <!-- Generator: Sketch 3.6.1 (26313) - http://www.bohemiancoding.com/sketch -->
    <title>t_parcialmente_soleado_chubascos</title>
    <desc>Created with Sketch.</desc>
    <defs></defs>
    <g id="Page-1" stroke="none" stroke-width="1" fill="none" fill-rule="evenodd">
        <g id="t_parcialmente_soleado_chubascos" fill="#000000">
            <path d="M5.38496,9.8468 L5.34176,9.8468 L5.38496,9.8468 L5.38496,9.8468 Z M9.08504,6.344 C9.12572,6.2468 9.14804,6.1352 9.14804,6.02 C9.14804,5.5412 8.75888,5.1524 8.27936,5.1524 C7.8758,5.1524 7.53668,5.426 7.43876,5.7968 C7.84952,5.9012 8.19116,6.1748 8.3798,6.5456 C8.58752,6.4232 8.828,6.3512 9.08504,6.344 L9.08504,6.344 Z M5.90768,6.3656 L5.04008,6.3656 L5.04008,5.7716 L6.23384,5.7716 L6.23384,6.0344 C6.4106,5.9048 6.6176,5.8148 6.84224,5.7752 C6.95816,5.0876 7.5572,4.562 8.27936,4.562 C9.08396,4.562 9.73628,5.2136 9.73628,6.02 C9.73628,6.1712 9.71288,6.3188 9.66968,6.4556 C9.93176,6.5636 10.15496,6.7472 10.31228,6.9812 C10.40984,6.9596 10.51136,6.9488 10.61504,6.9488 C11.41568,6.9488 12.0644,7.5968 12.0644,8.396 C12.0644,9.1916 11.42612,9.836 10.63448,9.8468 L5.38496,9.8468 L5.34176,9.8468 C4.56128,9.8252 3.9356,9.1844 3.9356,8.396 C3.9356,7.5968 4.58468,6.9488 5.38496,6.9488 C5.47856,6.9488 5.56964,6.956 5.65856,6.974 C5.6942,6.7508 5.78132,6.542 5.90768,6.3656 L5.90768,6.3656 Z M9.52172,4.3892 L10.36556,3.5432 L10.78568,3.9644 L9.94148,4.8068 L9.52172,4.3892 L9.52172,4.3892 Z M10.31408,6.3404 L11.50784,6.3404 L11.50784,5.7464 L10.31408,5.7464 L10.31408,6.3404 Z M6.60356,4.8284 L5.75972,3.986 L6.17948,3.5648 L7.02368,4.4108 L6.60356,4.8284 L6.60356,4.8284 Z M7.97804,4.0364 L8.57204,4.0364 L8.57204,2.8412 L7.97804,2.8412 L7.97804,4.0364 Z M5.54084,12.6044 L5.05808,12.3632 L4.78052,12.9176 L5.26364,13.1588 L5.54084,12.6044 Z M6.038,11.6108 L5.55488,11.3696 L5.27768,11.924 L5.7608,12.1652 L6.038,11.6108 Z M6.53336,10.6208 L6.0506,10.3796 L5.7734,10.934 L6.25616,11.1752 L6.53336,10.6208 Z M7.34084,12.6044 L6.85772,12.3632 L6.58052,12.9176 L7.06364,13.1588 L7.34084,12.6044 Z M7.838,11.6108 L7.35488,11.3696 L7.07768,11.924 L7.5608,12.1652 L7.838,11.6108 Z M8.33336,10.6208 L7.8506,10.3796 L7.5734,10.934 L8.05616,11.1752 L8.33336,10.6208 Z M9.14084,12.6044 L8.65772,12.3632 L8.38052,12.9176 L8.86364,13.1588 L9.14084,12.6044 Z M9.638,11.6108 L9.15488,11.3696 L8.87768,11.924 L9.3608,12.1652 L9.638,11.6108 Z M10.13336,10.6208 L9.6506,10.3796 L9.37304,10.934 L9.85652,11.1752 L10.13336,10.6208 Z"></path>
        </g>
    </g>
</svg>