<?xml version="1.0" encoding="UTF-8" standalone="no"?>
<svg width="16px" height="16px" viewBox="0 0 16 16" version="1.1" xmlns="http://www.w3.org/2000/svg" xmlns:xlink="http://www.w3.org/1999/xlink">
    <!-- Generator: Sketch 3.6.1 (26313) - http://www.bohemiancoding.com/sketch -->
    <title>t_soleado</title>
    <desc>Created with Sketch.</desc>
    <defs></defs>
    <g id="Page-1" stroke="none" stroke-width="1" fill="none" fill-rule="evenodd">
        <g id="t_soleado" fill="#000000">
            <path d="M8.02952,6.0452 C6.9974,6.0452 6.16148,6.8804 6.16148,7.91 C6.16148,8.9432 6.9974,9.7784 8.02952,9.7784 C9.06056,9.7784 9.8972,8.9432 9.8972,7.91 C9.8972,6.8804 9.06056,6.0452 8.02952,6.0452 M8.02952,9.0332 C7.40996,9.0332 6.90848,8.5292 6.90848,7.91 C6.90848,7.2908 7.40996,6.7904 8.02952,6.7904 C8.648,6.7904 9.14984,7.2908 9.14984,7.91 C9.14984,8.5292 8.648,9.0332 8.02952,9.0332 Z M9.59552,5.8256 L10.67192,4.7492 L11.20796,5.2856 L10.1312,6.362 L9.59552,5.8256 Z M10.60604,8.3168 L12.12884,8.3168 L12.12884,7.5572 L10.60604,7.5572 L10.60604,8.3168 Z M5.87348,6.3872 L4.79708,5.3108 L5.3324,4.7744 L6.40916,5.8508 L5.87348,6.3872 Z M7.62668,5.3756 L8.38412,5.3756 L8.38412,3.8528 L7.62668,3.8528 L7.62668,5.3756 Z M10.1312,9.6416 L11.2076,10.718 L10.67192,11.2544 L9.59516,10.178 L10.1312,9.6416 Z M6.40916,10.1492 L5.3324,11.2256 L4.79708,10.6928 L5.87348,9.6128 L6.40916,10.1492 Z M7.62668,12.1472 L8.38412,12.1472 L8.38412,10.6244 L7.62668,10.6244 L7.62668,12.1472 Z M3.87116,8.3168 L5.39396,8.3168 L5.39396,7.5572 L3.87116,7.5572 L3.87116,8.3168 Z"></path>
        </g>
    </g>
</svg>