<?xml version="1.0" encoding="UTF-8" standalone="no"?>
<svg width="16px" height="16px" viewBox="0 0 16 16" version="1.1" xmlns="http://www.w3.org/2000/svg" xmlns:xlink="http://www.w3.org/1999/xlink">
    <!-- Generator: Sketch 3.6.1 (26313) - http://www.bohemiancoding.com/sketch -->
    <title>t_tormenta</title>
    <desc>Created with Sketch.</desc>
    <defs></defs>
    <g id="Page-1" stroke="none" stroke-width="1" fill="none" fill-rule="evenodd">
        <g id="t_tormenta" fill="#000000">
            <path d="M5.50178,9.8355743 L5.45822,9.8355743 L5.50178,9.8355743 Z M9.27026,11.9775743 L8.75114,11.8299743 L8.47358,12.8019743 L8.99306,12.9495743 L9.27026,11.9775743 Z M9.76742,10.2387743 L9.2483,10.0911743 L8.97074,11.0595743 L9.49022,11.2107743 L9.76742,10.2387743 Z M10.26278,8.5035743 L9.74402,8.3559743 L9.46646,9.3279743 L9.98594,9.4755743 L10.26278,8.5035743 Z M4.42178,7.6755743 L4.37822,7.6755743 L4.42178,7.6755743 Z M4.9445,4.1943743 L5.2703,3.8631743 C5.44706,3.7335743 5.65406,3.6435743 5.8787,3.6039743 C7.03646,3.4743743 7.41626,4.3743743 7.41626,4.3743743 C7.41626,4.3743743 7.92098,3.9999743 8.7065,4.2843743 C8.96822,4.3923743 9.19142,4.5759743 9.34874,4.8063743 C9.44666,4.7883743 9.54818,4.7775743 9.6515,4.7775743 C10.45214,4.7775743 11.1005,5.4255743 11.1005,6.2247743 C11.1005,7.0203743 10.46258,7.6647743 9.6713,7.6755743 L4.42178,7.6755743 L4.37822,7.6755743 C3.5981,7.6503743 2.97242,7.0131743 2.97242,6.2247743 C2.97242,5.4255743 3.62186,4.7775743 4.42178,4.7775743 C4.51502,4.7775743 4.60646,4.7847743 4.69502,4.8027743 C4.73102,4.5795743 4.81778,4.3707743 4.9445,4.1943743 Z M11.89862,3.6399743 C11.81798,3.6399743 11.73914,3.6471743 11.66282,3.6651743 C11.54006,3.4851743 11.36654,3.3411743 11.16278,3.2547743 C10.55078,3.0351743 10.15766,3.3231743 10.15766,3.3231743 C10.15766,3.3231743 9.86174,2.6247743 8.95994,2.7255743 C8.78498,2.7579743 8.6237,2.8263743 8.48618,2.9271743 L8.23202,3.1863743 C8.13374,3.3231743 8.06606,3.4851743 8.03798,3.6615743 C7.96886,3.6471743 7.89758,3.6399743 7.82486,3.6399743 C7.65782,3.6399743 7.50014,3.6795743 7.35758,3.7443743 C7.53362,3.9243743 7.60598,4.0935743 7.60598,4.0935743 C7.60598,4.0935743 8.11106,3.7227743 8.89622,4.0071743 C9.15794,4.1151743 9.38078,4.2987743 9.53846,4.5291743 C9.63602,4.5111743 9.73754,4.5003743 9.84122,4.5003743 C10.62422,4.5003743 11.25818,5.1231743 11.28518,5.8971743 L11.91374,5.8971743 C12.53042,5.8899743 13.02758,5.3859743 13.02758,4.7703743 C13.02758,4.1439743 12.52214,3.6399743 11.89862,3.6399743 Z M3.87026,11.9775743 L3.35114,11.8299743 L3.07358,12.8019743 L3.59306,12.9495743 L3.87026,11.9775743 Z M4.36742,10.2387743 L3.8483,10.0911743 L3.57074,11.0595743 L4.09022,11.2107743 L4.36742,10.2387743 Z M4.86278,8.5035743 L4.34402,8.3559743 L4.06646,9.3279743 L4.58594,9.4755743 L4.86278,8.5035743 Z M6.38414,8.4783743 L8.35622,8.4783743 L7.12214,11.3475743 L6.26822,10.7355743 L5.9381,13.2843743 L5.45822,9.4143743 L6.6779,10.1343743 L6.38414,8.4783743 Z"></path>
        </g>
    </g>
</svg>