<?xml version="1.0" encoding="UTF-8" standalone="no"?>
<svg width="16px" height="16px" viewBox="0 0 16 16" version="1.1" xmlns="http://www.w3.org/2000/svg" xmlns:xlink="http://www.w3.org/1999/xlink">
    <!-- Generator: Sketch 3.6.1 (26313) - http://www.bohemiancoding.com/sketch -->
    <title>tablas_de_snowboard</title>
    <desc>Created with Sketch.</desc>
    <defs></defs>
    <g id="Page-1" stroke="none" stroke-width="1" fill="none" fill-rule="evenodd">
        <g id="tablas_de_snowboard" fill="#000000">
            <path d="M13.23782,8.5742 L11.76398,8.5742 L12.47678,9.287 L11.94938,9.8162 L10.70954,8.5742 L10.2347,8.5742 L10.2347,9.0494 L11.47454,10.2878 L10.94786,10.817 L10.2347,10.1042 L10.2347,11.5766 L9.48734,11.5766 L9.48734,10.1078 L8.77742,10.817 L8.25038,10.2878 L9.48734,9.053 L9.48734,8.5742 L9.01538,8.5742 L7.77554,9.8162 L7.2485,9.287 L7.96166,8.5742 L6.4871,8.5742 L6.4871,7.829 L7.95842,7.829 L7.2485,7.1162 L7.77554,6.5906 L9.01286,7.829 L9.48734,7.829 L9.48734,7.3538 L8.25038,6.1154 L8.77742,5.5898 L9.48734,6.299 L9.48734,4.8266 L10.2347,4.8266 L10.2347,6.3026 L10.94786,5.5898 L11.47454,6.1154 L10.2347,7.3538 L10.2347,7.829 L10.71242,7.829 L11.94938,6.5906 L12.47678,7.1162 L11.7665,7.829 L13.23782,7.829 L13.23782,8.5742 L13.23782,8.5742 Z M5.55938,4.4486 C5.55902,3.6746 4.93298,3.0518 4.16078,3.0518 C3.38858,3.0518 2.76218,3.6746 2.76218,4.4486 C2.76218,4.5854 2.78306,4.7186 2.81978,4.8446 C3.16754,7.307 3.1499,8.837 2.76218,11.4362 L2.76794,11.4362 C2.76542,11.4722 2.76218,11.5118 2.76218,11.5514 C2.76218,12.3254 3.38858,12.9482 4.16078,12.9482 C4.93298,12.9482 5.55902,12.3254 5.55902,11.5514 C5.55902,11.5118 5.5565,11.4722 5.5529,11.4362 L5.55902,11.4362 C5.17166,8.837 5.15366,7.307 5.50214,4.8446 C5.5385,4.7186 5.55938,4.5854 5.55938,4.4486 L5.55938,4.4486 Z"></path>
        </g>
    </g>
</svg>