<?xml version="1.0" encoding="UTF-8" standalone="no"?>
<svg width="16px" height="16px" viewBox="0 0 16 16" version="1.1" xmlns="http://www.w3.org/2000/svg" xmlns:xlink="http://www.w3.org/1999/xlink">
    <!-- Generator: Sketch 3.6.1 (26313) - http://www.bohemiancoding.com/sketch -->
    <title>tablet_o_ebook</title>
    <desc>Created with Sketch.</desc>
    <defs></defs>
    <g id="Page-1" stroke="none" stroke-width="1" fill="none" fill-rule="evenodd">
        <g id="tablet_o_ebook" fill="#000000">
            <path d="M7.90890604,13.2288211 C6.74502604,13.2086611 5.59410604,13.1172211 4.45722604,12.9617011 C4.31898604,11.3096611 4.26138604,9.63242108 4.29090604,7.93502108 C4.32042604,6.23726108 4.43706604,4.56326108 4.63290604,2.91698108 C5.77410604,2.80178108 6.92754604,2.75066108 8.09142604,2.77118108 C9.25530604,2.79134108 10.406226,2.88242108 11.543106,3.03758108 C11.681346,4.68926108 11.738586,6.36650108 11.709066,8.06426108 C11.679546,9.76202108 11.562906,11.4360211 11.367426,13.0823011 C10.226226,13.1982211 9.07242604,13.2493411 7.90890604,13.2288211 L7.90890604,13.2288211 Z M5.32158604,3.73850108 L5.19594604,10.9417411 L10.699986,11.0382211 L10.825626,3.83426108 L5.32158604,3.73850108 L5.32158604,3.73850108 Z M9.95370604,5.04134108 L6.15138604,4.97474108 L6.13878604,5.71598108 L9.94074604,5.78222108 L9.95370604,5.04134108 L9.95370604,5.04134108 Z M9.92634604,6.59798108 L6.12438604,6.53174108 L6.11142604,7.27262108 L9.91302604,7.33922108 L9.92634604,6.59798108 L9.92634604,6.59798108 Z M8.11122604,8.00198108 L6.09954604,7.96742108 L6.08658604,8.70794108 L8.09790604,8.74358108 L8.11122604,8.00198108 L8.11122604,8.00198108 Z M7.92222604,12.4634611 C8.16558604,12.4674211 8.36574604,12.2737411 8.36970604,12.0307411 C8.37438604,11.7877411 8.18070604,11.5872211 7.93770604,11.5832611 C7.69506604,11.5793011 7.49454604,11.7722611 7.49022604,12.0152611 C7.48554604,12.2582611 7.67958604,12.4587811 7.92222604,12.4634611 L7.92222604,12.4634611 Z"></path>
        </g>
    </g>
</svg>