<?xml version="1.0" encoding="UTF-8" standalone="no"?>
<svg width="16px" height="16px" viewBox="0 0 16 16" version="1.1" xmlns="http://www.w3.org/2000/svg" xmlns:xlink="http://www.w3.org/1999/xlink">
    <!-- Generator: Sketch 3.6.1 (26313) - http://www.bohemiancoding.com/sketch -->
    <title>tabla_de_surf</title>
    <desc>Created with Sketch.</desc>
    <defs></defs>
    <g id="Page-1" stroke="none" stroke-width="1" fill="none" fill-rule="evenodd">
        <g id="tabla_de_surf" fill="#000000">
            <path d="M6.59528,9.485 C6.596,10.8134 6.22448,12.5558 5.75108,13.0382 C5.75108,13.0382 5.4602,13.211 4.75568,13.211 C4.14008,13.211 3.761,13.0382 3.761,13.0382 C3.2876,12.5558 2.9168,10.8134 2.9168,9.485 C2.9168,7.3178 3.70808,3.185 4.75568,2.789 C5.80364,3.185 6.596,7.3178 6.59528,9.485 M10.55204,7.4078 C11.05064,7.4078 11.40488,7.0262 11.96972,7.0262 C12.32648,7.0262 12.797,7.2314 13.08284,7.361 L13.0832,6.6122 L12.73112,6.4106 C12.50612,6.3098 12.27392,6.1982 11.96972,6.1982 C11.40488,6.1982 11.05064,6.5798 10.55204,6.5798 C10.05488,6.5798 9.74996,6.1982 9.1844,6.1982 C8.63,6.1982 8.28116,6.5654 7.79336,6.5798 L7.79336,7.4078 C8.28116,7.3934 8.63,7.0262 9.1844,7.0262 C9.74996,7.0262 10.05488,7.4078 10.55204,7.4078 M11.96972,7.739 C11.40488,7.739 11.05064,8.1206 10.55204,8.1206 C10.05488,8.1206 9.74996,7.739 9.1844,7.739 C8.63,7.739 8.28116,8.1062 7.79336,8.1206 L7.79336,8.945 C8.28116,8.9342 8.63,8.5634 9.1844,8.5634 C9.74996,8.5634 10.05488,8.9486 10.55204,8.9486 C11.05064,8.9486 11.40488,8.5634 11.96972,8.5634 C12.32648,8.5634 12.797,8.7722 13.08284,8.8982 L13.0832,8.153 L12.73112,7.9514 C12.50612,7.8506 12.27392,7.739 11.96972,7.739 M11.96972,9.3338 C11.40488,9.3338 11.05064,9.7154 10.55204,9.7154 C10.05488,9.7154 9.74996,9.3338 9.1844,9.3338 C8.63,9.3338 8.28116,9.701 7.79336,9.7154 L7.79336,10.5398 C8.28116,10.529 8.63,10.1618 9.1844,10.1618 C9.74996,10.1618 10.05488,10.5434 10.55204,10.5434 C11.05064,10.5434 11.40488,10.1618 11.96972,10.1618 C12.32648,10.1618 12.797,10.367 13.08284,10.4966 L13.0832,9.7478 L12.73112,9.5462 C12.50612,9.4454 12.27392,9.3338 11.96972,9.3338"></path>
        </g>
    </g>
</svg>