<?xml version="1.0" encoding="UTF-8" standalone="no"?>
<svg width="16px" height="16px" viewBox="0 0 16 16" version="1.1" xmlns="http://www.w3.org/2000/svg" xmlns:xlink="http://www.w3.org/1999/xlink">
    <!-- Generator: Sketch 3.6.1 (26313) - http://www.bohemiancoding.com/sketch -->
    <title>tareas</title>
    <desc>Created with Sketch.</desc>
    <defs></defs>
    <g id="Page-1" stroke="none" stroke-width="1" fill="none" fill-rule="evenodd">
        <g id="tareas" fill="#000000">
            <path d="M13.02326,4.80608 C12.64238,4.76288 12.26042,4.72652 11.87666,4.69376 L11.87666,3.29012 L11.02274,3.29012 L11.02274,4.63148 C10.54898,4.5998 10.07306,4.57388 9.59498,4.55696 L9.59498,3.29012 L8.74142,3.29012 L8.74142,4.5368 C8.49338,4.53284 8.24714,4.526 7.99874,4.526 C7.77014,4.526 7.5419,4.53284 7.3133,4.53572 L7.3133,3.29012 L6.45974,3.29012 L6.45974,4.55516 C5.98166,4.571 5.50574,4.5962 5.03198,4.62716 L5.03198,3.29012 L4.17806,3.29012 L4.17806,4.688 C3.7763,4.72256 3.37526,4.76036 2.97602,4.80608 C2.83958,6.06212 2.76938,7.33364 2.76938,8.61776 C2.76938,9.90188 2.83958,11.1734 2.97602,12.43052 C4.6241,12.61376 6.30098,12.70988 7.99874,12.70988 C9.69794,12.70988 11.3741,12.61376 13.02326,12.43016 C13.15898,11.1734 13.23062,9.90188 13.23062,8.61776 C13.23062,7.33364 13.15898,6.06212 13.02326,4.80608 L13.02326,4.80608 Z M3.65282,11.77784 L12.34718,11.77784 L12.34718,6.35768 L3.65282,6.35768 L3.65282,11.77784 Z M6.96914,9.404 L8.8739,9.404 L8.8739,8.74988 L6.96914,8.74988 L6.96914,9.404 Z M6.96914,10.94696 L10.08098,10.94696 L10.08098,10.29392 L6.96914,10.29392 L6.96914,10.94696 Z M6.96878,7.8596 L10.70342,7.8596 L10.70342,7.20584 L6.96878,7.20584 L6.96878,7.8596 Z M5.94494,11.07836 C6.2099,11.07836 6.42446,10.86416 6.42446,10.59992 C6.42446,10.33424 6.2099,10.11968 5.94494,10.11968 C5.67998,10.11968 5.46542,10.33424 5.46542,10.59992 C5.46542,10.86416 5.67998,11.07836 5.94494,11.07836 Z M5.94494,9.55448 C6.2099,9.55448 6.42446,9.3392 6.42446,9.07424 C6.42446,8.80928 6.2099,8.59508 5.94494,8.59508 C5.67998,8.59508 5.46542,8.80928 5.46542,9.07424 C5.46542,9.3392 5.67998,9.55448 5.94494,9.55448 Z M5.94494,8.02916 C6.2099,8.02916 6.42446,7.8146 6.42446,7.55 C6.42446,7.2854 6.2099,7.06976 5.94494,7.06976 C5.67998,7.06976 5.46542,7.2854 5.46542,7.55 C5.46542,7.8146 5.67998,8.02916 5.94494,8.02916 Z"></path>
        </g>
    </g>
</svg>