<?xml version="1.0" encoding="UTF-8" standalone="no"?>
<svg width="16px" height="16px" viewBox="0 0 16 16" version="1.1" xmlns="http://www.w3.org/2000/svg" xmlns:xlink="http://www.w3.org/1999/xlink">
    <!-- Generator: Sketch 3.6.1 (26313) - http://www.bohemiancoding.com/sketch -->
    <title>tarjeta_de_embarque</title>
    <desc>Created with Sketch.</desc>
    <defs></defs>
    <g id="Page-1" stroke="none" stroke-width="1" fill="none" fill-rule="evenodd">
        <g id="tarjeta_de_embarque" fill="#000000">
            <path d="M13.1493457,5.84772705 C13.0856257,5.34408705 12.6550657,4.96392705 12.1460257,4.96392705 L5.36686567,4.96392705 C4.85638567,4.96392705 4.42546567,5.34516705 4.36354567,5.85132705 C4.34914567,5.96832705 4.33726567,6.08604705 4.32610567,6.20268705 L2.74966567,7.41012705 L2.75902567,10.782247 C5.78122567,11.322967 7.42570567,10.893847 8.51614567,10.476967 C8.81602567,10.347727 9.12310567,10.204807 9.44170567,10.039567 L12.1417057,10.039567 C12.6521857,10.039567 13.0834657,9.65724705 13.1450257,9.15216705 C13.2843457,8.00952705 13.2850657,6.92844705 13.1493457,5.84772705 M12.3947857,9.06036705 C12.3793057,9.18780705 12.2709457,9.28356705 12.1417057,9.28356705 L11.3785057,9.28356705 C11.3234257,9.13344705 11.1805057,9.02544705 11.0116657,9.02544705 C10.8421057,9.02544705 10.6991857,9.13344705 10.6448257,9.28356705 L5.37046567,9.28356705 C5.24086567,9.28356705 5.13214567,9.18708705 5.11702567,9.05964705 C5.07670567,8.72196705 5.05042567,8.39004705 5.03530567,8.06064705 C5.74198567,7.71252705 6.71542567,7.40004705 7.45270567,7.10916705 L7.46530567,6.38880705 L5.07166567,6.34740705 C5.08354567,6.21276705 5.09722567,6.07812705 5.11378567,5.94312705 C5.12926567,5.81604705 5.23762567,5.71956705 5.36686567,5.71956705 L10.6253857,5.71956705 C10.6534657,5.90820705 10.8147457,6.05436705 11.0116657,6.05436705 C11.2078657,6.05436705 11.3691457,5.90820705 11.3972257,5.71956705 L12.1460257,5.71956705 C12.2745457,5.71956705 12.3832657,5.81532705 12.3991057,5.94276705 C12.5272657,6.96048705 12.5261857,7.98072705 12.3947857,9.06036705 Z M11.0116657,6.52200705 C10.7953057,6.52200705 10.6196257,6.69804705 10.6196257,6.91368705 C10.6196257,7.13040705 10.7953057,7.30500705 11.0116657,7.30500705 C11.2280257,7.30500705 11.4029857,7.13040705 11.4029857,6.91368705 C11.4029857,6.69804705 11.2280257,6.52200705 11.0116657,6.52200705 Z M11.0116657,7.77372705 C10.7953057,7.77372705 10.6196257,7.94868705 10.6196257,8.16540705 C10.6196257,8.38176705 10.7953057,8.55672705 11.0116657,8.55672705 C11.2280257,8.55672705 11.4029857,8.38176705 11.4029857,8.16540705 C11.4029857,7.94868705 11.2280257,7.77372705 11.0116657,7.77372705 Z"></path>
        </g>
    </g>
</svg>