<?xml version="1.0" encoding="UTF-8" standalone="no"?>
<svg width="16px" height="16px" viewBox="0 0 16 16" version="1.1" xmlns="http://www.w3.org/2000/svg" xmlns:xlink="http://www.w3.org/1999/xlink">
    <!-- Generator: Sketch 3.6.1 (26313) - http://www.bohemiancoding.com/sketch -->
    <title>tarjeta_de_embarque_movil</title>
    <desc>Created with Sketch.</desc>
    <defs></defs>
    <g id="Page-1" stroke="none" stroke-width="1" fill="none" fill-rule="evenodd">
        <g id="tarjeta_de_embarque_movil" fill="#000000">
            <path d="M8.00486,10.22426 L8.74862,10.22426 C8.69426,11.23442 8.6021,11.96342 8.46494,12.94874 C7.62506,13.14602 6.67394,13.20758 5.77286,13.20758 C4.87214,13.20758 3.99626,13.10246 3.15638,12.90554 C2.9321,11.30174 2.81582,9.66446 2.81582,8.00018 C2.81582,6.33554 2.9321,4.69826 3.15638,3.0941 C3.99626,2.89754 4.87214,2.79242 5.77286,2.79242 C6.67394,2.79242 7.70102,2.94074 8.5409,3.1373 C8.61542,3.66974 8.67266,4.47326 8.72306,5.01218 L7.99802,5.01218 C7.98254,4.84658 7.97282,4.41278 7.95806,4.24718 L3.79574,4.24718 C3.6611,5.4917 3.5927,6.74954 3.5927,8.00018 C3.5927,8.86814 3.62546,10.03526 3.69134,10.90358 L7.9685,10.90358 C7.98506,10.68542 7.99298,10.44242 8.00486,10.22426 L8.00486,10.22426 Z M5.78222,12.60926 C6.08894,12.60926 6.3359,12.36194 6.3359,12.05594 C6.3359,11.7503 6.08894,11.5019 5.78222,11.5019 C5.47658,11.5019 5.22854,11.7503 5.22854,12.05594 C5.22854,12.36194 5.47658,12.60926 5.78222,12.60926 L5.78222,12.60926 Z M9.71342,5.01146 L9.75482,5.05862 C10.23902,5.61122 10.71206,6.19622 11.16026,6.79922 C11.23766,6.90254 11.31362,7.00802 11.39102,7.11494 C12.03254,7.13366 12.90194,7.1999 13.13594,7.4177 L13.18418,7.46306 L13.18418,7.75394 L13.14998,7.79678 C12.98258,8.00234 12.47642,8.09738 11.38958,8.11718 C11.31254,8.22374 11.23586,8.3267 11.16062,8.42966 C10.7117,9.03338 10.23902,9.61946 9.75482,10.17098 L9.71342,10.21814 L9.10286,10.21814 L9.95174,8.06714 C9.6893,8.04266 9.20222,8.0117 8.9423,7.98002 L8.87354,8.07866 C8.73926,8.26802 8.5913,8.46386 8.43326,8.65862 L8.3915,8.7101 L7.7561,8.7101 L8.04878,7.62974 L8.04878,7.59986 L7.75646,6.51986 L8.3915,6.51914 L8.43362,6.57062 C8.59418,6.76934 8.73782,6.95762 8.87354,7.1513 C8.89586,7.18262 8.91854,7.21646 8.9405,7.2485 C9.19862,7.21682 9.6875,7.18586 9.95174,7.16102 L9.10322,5.0111 L9.71342,5.01146 L9.71342,5.01146 Z M5.96078,7.61066 C5.96078,7.25102 6.25166,6.96014 6.6113,6.96014 C6.97058,6.96014 7.26218,7.25102 7.26218,7.61066 C7.26218,7.9703 6.97058,8.26118 6.6113,8.26118 C6.25166,8.26118 5.96078,7.9703 5.96078,7.61066 L5.96078,7.61066 Z M4.22198,7.61066 C4.22198,7.25102 4.51394,6.96014 4.87322,6.96014 C5.23286,6.96014 5.52446,7.25102 5.52446,7.61066 C5.52446,7.9703 5.23286,8.26118 4.87322,8.26118 C4.51394,8.26118 4.22198,7.9703 4.22198,7.61066 L4.22198,7.61066 Z"></path>
        </g>
    </g>
</svg>