<?xml version="1.0" encoding="UTF-8" standalone="no"?>
<svg width="16px" height="16px" viewBox="0 0 16 16" version="1.1" xmlns="http://www.w3.org/2000/svg" xmlns:xlink="http://www.w3.org/1999/xlink">
    <!-- Generator: Sketch 3.6.1 (26313) - http://www.bohemiancoding.com/sketch -->
    <title>television</title>
    <desc>Created with Sketch.</desc>
    <defs></defs>
    <g id="Page-1" stroke="none" stroke-width="1" fill="none" fill-rule="evenodd">
        <g id="television" fill="#000000">
            <path d="M4.45112,12.4082 L4.45112,13.2902 L11.54096,13.2902 L11.54096,12.4082 C11.54096,12.4082 9.764,12.059 8,12.059 C6.19424,12.059 4.45112,12.4082 4.45112,12.4082 Z M13.175,2.9906 C11.47544,2.8034 9.74924,2.7098 7.99928,2.7098 C6.24968,2.7098 4.52384,2.8034 2.825,2.9906 C2.68424,4.2578 2.61116,5.543 2.61116,6.839 C2.61116,8.135 2.68424,9.4202 2.825,10.6874 C4.52384,10.8746 6.24968,10.9682 7.99928,10.9682 C9.74924,10.9682 11.47544,10.8746 13.175,10.6874 C13.31468,9.4202 13.38884,8.135 13.38884,6.839 C13.38884,5.543 13.31468,4.2578 13.175,2.9906 Z M3.6296,9.7622 L12.3704,9.7622 L12.3704,3.7538 L3.6296,3.7538 L3.6296,9.7622 Z M6.20576,8.2502 L6.83036,8.2502 L6.83036,5.6798 L7.74584,5.6798 L7.74584,5.1578 L5.28848,5.1578 L5.28848,5.6798 L6.20576,5.6798 L6.20576,8.2502 Z M9.60416,8.2502 L10.71152,5.1578 L10.04912,5.1578 L9.29204,7.4474 L8.5094,5.1578 L7.83224,5.1578 L8.93744,8.2502 L9.60416,8.2502 Z"></path>
        </g>
    </g>
</svg>