<?xml version="1.0" encoding="UTF-8" standalone="no"?>
<svg width="16px" height="16px" viewBox="0 0 16 16" version="1.1" xmlns="http://www.w3.org/2000/svg" xmlns:xlink="http://www.w3.org/1999/xlink">
    <!-- Generator: Sketch 3.6.1 (26313) - http://www.bohemiancoding.com/sketch -->
    <title>tiempo</title>
    <desc>Created with Sketch.</desc>
    <defs></defs>
    <g id="Page-1" stroke="none" stroke-width="1" fill="none" fill-rule="evenodd">
        <g id="tiempo" fill="#000000">
            <path d="M13.04306,8.9648 C13.04306,8.1836 12.4073,7.5464 11.62322,7.5464 C11.5217,7.5464 11.42234,7.5572 11.32658,7.5788 C11.17214,7.352 10.95362,7.172 10.6973,7.064 C10.73942,6.9308 10.7621,6.7868 10.7621,6.6356 C10.7621,5.8472 10.1231,5.21 9.3347,5.21 C8.62766,5.21 8.0405,5.7248 7.9271,6.398 C7.70678,6.4376 7.5041,6.524 7.33094,6.65 L7.33094,6.3944 L6.16094,6.3944 L6.16094,6.974 L7.01126,6.974 C6.88778,7.1504 6.80246,7.352 6.76718,7.5716 C6.68042,7.5536 6.59078,7.5464 6.49934,7.5464 C6.30854,7.5464 6.1271,7.586 5.96078,7.6544 L5.96078,8.72 C6.61922,9.0368 7.10522,9.6488 7.2485,10.3868 L11.6423,10.3868 C12.41738,10.376 13.04306,9.7424 13.04306,8.9648 L13.04306,8.9648 Z M10.1861,6.6356 C10.1861,6.7508 10.16414,6.8588 10.12418,6.956 C9.87254,6.9596 9.63674,7.0316 9.43334,7.1504 C9.24866,6.7904 8.91386,6.5204 8.51138,6.4196 C8.60714,6.056 8.93978,5.786 9.3347,5.786 C9.80486,5.786 10.1861,6.1676 10.1861,6.6356 L10.1861,6.6356 Z M11.32838,6.9524 L12.49802,6.9524 L12.49802,6.3692 L11.32838,6.3692 L11.32838,6.9524 Z M10.96334,5.4512 L11.79026,4.6232 L11.37878,4.2128 L10.55186,5.0372 L10.96334,5.4512 L10.96334,5.4512 Z M9.03986,4.6952 L9.62162,4.6952 L9.62162,3.5252 L9.03986,3.5252 L9.03986,4.6952 Z M7.69346,5.4692 L8.10458,5.0588 L7.27766,4.2308 L6.86618,4.6448 L7.69346,5.4692 Z M5.52266,8.9396 C5.53166,8.9072 5.54786,8.8748 5.54786,8.8388 L5.54786,6.902 L4.86062,6.902 C4.71986,6.902 4.72022,6.686 4.86062,6.686 L5.54786,6.686 L5.54786,5.7788 L4.86062,5.7788 C4.71986,5.7788 4.72022,5.5592 4.86062,5.5592 L5.54786,5.5592 L5.54786,4.6556 L4.86062,4.6556 C4.71986,4.6556 4.72022,4.436 4.86062,4.436 L5.54786,4.436 L5.54786,3.6692 C5.54786,3.3992 5.27858,3.1832 4.94558,3.1832 C4.61366,3.1832 4.34402,3.3992 4.34402,3.6692 L4.34402,8.8388 C4.34402,8.8748 4.36022,8.9072 4.3685,8.9396 C3.55382,9.188 2.95694,9.9368 2.95694,10.8332 C2.95694,11.9276 3.84686,12.8168 4.94414,12.8168 C6.0407,12.8168 6.93062,11.9276 6.93062,10.8332 C6.93062,9.9368 6.33554,9.188 5.52266,8.9396 Z M6.44894,10.8332 C6.44894,11.6648 5.77466,12.338 4.94414,12.338 C4.11254,12.338 3.43826,11.6648 3.43826,10.8332 C3.43826,10.0808 3.98906,9.4652 4.70762,9.35 L4.70762,7.4528 L5.18426,7.4528 L5.18426,9.35 C5.9003,9.4652 6.44894,10.0844 6.44894,10.8332 Z"></path>
        </g>
    </g>
</svg>