<?xml version="1.0" encoding="UTF-8" standalone="no"?>
<svg width="16px" height="16px" viewBox="0 0 16 16" version="1.1" xmlns="http://www.w3.org/2000/svg" xmlns:xlink="http://www.w3.org/1999/xlink">
    <!-- Generator: Sketch 3.6.1 (26313) - http://www.bohemiancoding.com/sketch -->
    <title>transferencia</title>
    <desc>Created with Sketch.</desc>
    <defs></defs>
    <g id="Page-1" stroke="none" stroke-width="1" fill="none" fill-rule="evenodd">
        <g id="transferencia" fill="#000000">
            <path d="M8.28512,11.4038 C8.5094,11.4038 8.73764,11.40092 8.96588,11.39516 L7.61732,13.20884 L8.95652,13.20812 L10.93796,10.76732 L8.95652,8.32472 L7.61732,8.32364 L8.9666,10.1366 C8.73692,10.13228 8.50832,10.13012 8.2826,10.13012 C7.41896,10.13012 6.56576,10.16864 5.813,10.24316 L5.78852,10.24604 L5.78852,11.28752 L5.813,11.28932 C6.5654,11.36384 7.41824,11.40308 8.28512,11.4038 Z M7.71524,4.59656 C7.49096,4.59656 7.262,4.59908 7.03448,4.60448 L8.38376,2.79116 L7.0442,2.79152 L5.06204,5.2334 L7.0442,7.676 L8.38376,7.67636 L7.03304,5.8634 C7.26344,5.86736 7.49168,5.87024 7.7174,5.8706 C8.5814,5.8706 9.4346,5.83172 10.187,5.75648 L10.21112,5.75396 L10.21112,4.7132 L10.187,4.7114 C9.43496,4.63616 8.58176,4.59728 7.71524,4.59656 Z"></path>
        </g>
    </g>
</svg>