<?xml version="1.0" encoding="UTF-8" standalone="no"?>
<svg width="16px" height="16px" viewBox="0 0 16 16" version="1.1" xmlns="http://www.w3.org/2000/svg" xmlns:xlink="http://www.w3.org/1999/xlink">
    <!-- Generator: Sketch 3.6.1 (26313) - http://www.bohemiancoding.com/sketch -->
    <title>tren_net-sat</title>
    <desc>Created with Sketch.</desc>
    <defs></defs>
    <g id="Page-1" stroke="none" stroke-width="1" fill="none" fill-rule="evenodd">
        <g id="tren_net-sat" fill="#000000">
            <path d="M7.90496,3.1616 C7.90496,3.3884 7.721,3.572 7.49384,3.572 C7.2674,3.572 7.08488,3.3884 7.08488,3.1616 C7.08488,2.9348 7.2674,2.7512 7.49384,2.7512 C7.721,2.7512 7.90496,2.9348 7.90496,3.1616 Z M8.91368,3.1616 C8.91368,3.3884 8.73188,3.572 8.50544,3.572 C8.27828,3.572 8.09576,3.3884 8.09576,3.1616 C8.09576,2.9348 8.27828,2.7512 8.50544,2.7512 C8.73188,2.7512 8.91368,2.9348 8.91368,3.1616 Z M9.92672,10.9808 L9.92888,10.8332 C10.23668,10.8116 10.54484,10.79 10.85012,10.7612 C10.98836,9.6344 11.06,8.4896 11.06,7.3304 C11.06,6.1748 10.98836,5.03 10.85012,3.9068 C9.91124,3.8132 8.96084,3.7628 7.9982,3.7628 C7.03988,3.7628 6.0884,3.8132 5.14808,3.9068 C5.01128,5.03 4.93784,6.1748 4.93784,7.3304 C4.93784,8.4896 5.01128,9.6344 5.14808,10.7612 C5.45264,10.79 5.7608,10.8116 6.0668,10.8332 L6.0668,10.9916 L4.56344,13.2488 L5.43572,13.2488 L6.51464,11.6576 L9.48284,11.6576 L10.5686,13.2488 L11.43656,13.2488 L9.92672,10.9808 Z M6.0668,10.1204 C5.79428,10.1204 5.57684,9.9008 5.57684,9.6272 C5.57684,9.3572 5.79428,9.1376 6.0668,9.1376 C6.33824,9.1376 6.55784,9.3572 6.55784,9.6272 C6.55784,9.9008 6.33824,10.1204 6.0668,10.1204 Z M7.9982,7.7408 C7.21376,7.7408 6.43616,7.7084 5.6708,7.64 C5.60744,7.19 5.57684,6.7364 5.57684,6.2756 C5.57684,5.822 5.60744,5.3648 5.6708,4.9148 C6.43616,4.85 7.21376,4.814 7.9982,4.814 C8.78732,4.814 9.56312,4.85 10.32884,4.9148 C10.39112,5.3648 10.42496,5.822 10.42496,6.2756 C10.42496,6.7364 10.39112,7.19 10.32884,7.64 C9.56312,7.7084 8.78732,7.7408 7.9982,7.7408 Z M9.44,9.6272 C9.44,9.3572 9.66104,9.1376 9.93212,9.1376 C10.205,9.1376 10.42496,9.3572 10.42496,9.6272 C10.42496,9.9008 10.205,10.1204 9.93212,10.1204 C9.66104,10.1204 9.44,9.9008 9.44,9.6272 Z"></path>
        </g>
    </g>
</svg>