<?xml version="1.0" encoding="UTF-8" standalone="no"?>
<svg width="16px" height="16px" viewBox="0 0 16 16" version="1.1" xmlns="http://www.w3.org/2000/svg" xmlns:xlink="http://www.w3.org/1999/xlink">
    <!-- Generator: Sketch 3.7.1 (28215) - http://www.bohemiancoding.com/sketch -->
    <title>tren</title>
    <desc>Created with Sketch.</desc>
    <defs></defs>
    <g id="Page-1" stroke="none" stroke-width="1" fill="none" fill-rule="evenodd">
        <g id="tren" fill="#000000">
            <path d="M12.4268808,7.12282011 C10.7750684,5.75236671 8.69603258,5 6.54985671,5 L2,5 L2,10.1267127 L2.56966243,10.1267127 C2.70518809,10.3852142 2.97303188,10.5634342 3.28518933,10.5634342 C3.59731563,10.5634342 3.86519057,10.3852142 4.00056052,10.1267127 L5.8449489,10.1267127 C5.98031885,10.3852142 6.24819379,10.5634342 6.56032009,10.5634342 C6.87247754,10.5634342 7.14032133,10.3852142 7.27584699,10.1267127 L9.1201108,10.1267127 C9.25560532,10.3852142 9.52348026,10.5634342 9.83560656,10.5634342 C10.147764,10.5634342 10.4156078,10.3852142 10.5511335,10.1267127 L11.6503176,10.1264636 C12.3720104,10.1264636 14.000467,9.52883653 13.9999999,8.80807795 C14.000249,8.5152902 13.2808295,7.83140257 12.4268808,7.12282011 Z M2.79848654,5.7986111 L6.54985671,5.7986111 C7.17196059,5.7986111 7.7872446,5.87596536 8.38829716,6.01124189 L8.38829716,6.92747258 C8.38829716,7.27864971 8.67305052,7.56343421 9.02422764,7.56343421 L11.6879048,7.56343421 C11.7636708,7.62216615 11.842987,7.67594666 11.917196,7.73738787 C12.2171773,7.98639136 12.4468422,8.1884342 12.6273666,8.3549763 L2.79848654,8.3549763 L2.79848654,5.7986111 Z M3.4971973,7.60637766 L4.3706091,7.60637766 C4.41196435,7.60637766 4.44553436,7.57277651 4.44553436,7.53154582 L4.44553436,6.65813402 C4.44553436,6.61677876 4.41196435,6.58320876 4.3706091,6.58320876 L3.4971973,6.58320876 C3.4559666,6.58320876 3.4223966,6.61677876 3.4223966,6.65813402 L3.4223966,7.53154582 C3.4223966,7.57277651 3.4559666,7.60637766 3.4971973,7.60637766 Z M5.0942638,7.60637766 L5.9676756,7.60637766 C6.00903086,7.60637766 6.04260086,7.57277651 6.04260086,7.53154582 L6.04260086,6.65813402 C6.04260086,6.61677876 6.00903086,6.58320876 5.9676756,6.58320876 L5.0942638,6.58320876 C5.05303311,6.58320876 5.0194631,6.61677876 5.0194631,6.65813402 L5.0194631,7.53154582 C5.0194631,7.57277651 5.05303311,7.60637766 5.0942638,7.60637766 Z M6.6913303,7.60637766 L7.56474211,7.60637766 C7.60609736,7.60637766 7.63969851,7.57277651 7.63969851,7.53154582 L7.63969851,6.65813402 C7.63969851,6.61677876 7.60609736,6.58320876 7.56474211,6.58320876 L6.6913303,6.58320876 C6.65009961,6.58320876 6.61652961,6.61677876 6.61652961,6.65813402 L6.61652961,7.53154582 C6.61652961,7.57277651 6.65009961,7.60637766 6.6913303,7.60637766 Z M12.7490034,10.7506228 L2,10.7506228 L2,11.5491093 L12.7490034,11.5491093 C12.969544,11.5491093 13.1482311,11.3702977 13.1482311,11.1498816 C13.1482311,10.9294344 12.969544,10.7506228 12.7490034,10.7506228 Z" id="Combined-Shape"></path>
        </g>
    </g>
</svg>