<?xml version="1.0" encoding="UTF-8" standalone="no"?>
<svg width="16px" height="16px" viewBox="0 0 16 16" version="1.1" xmlns="http://www.w3.org/2000/svg" xmlns:xlink="http://www.w3.org/1999/xlink">
    <!-- Generator: Sketch 3.6.1 (26313) - http://www.bohemiancoding.com/sketch -->
    <title>tubos_porta_planos</title>
    <desc>Created with Sketch.</desc>
    <defs></defs>
    <g id="Page-1" stroke="none" stroke-width="1" fill="none" fill-rule="evenodd">
        <g id="tubos_porta_planos" fill="#000000">
            <path d="M13.071399,5.03460004 C13.065279,5.04180004 13.000479,5.10660004 12.889239,5.21820004 C12.888879,5.21820004 12.888519,5.22180004 12.888159,5.22180004 C12.745239,5.36220004 12.648399,5.45940004 12.641919,5.46660004 C12.318279,5.79060004 11.560119,5.60700004 10.979079,5.02740004 C10.398759,4.44420004 10.214799,3.68820004 10.539879,3.36420004 C10.545999,3.35700004 10.634919,3.26700004 10.786119,3.11580004 C10.893759,3.00780004 10.963599,2.93940004 10.968999,2.93220004 C11.292639,2.61180004 12.050799,2.79180004 12.631119,3.37500004 C13.212159,3.95460004 13.395399,4.71060004 13.071399,5.03460004 M10.481919,5.50980004 C11.062599,6.09300004 11.246199,6.84900004 10.921479,7.17300004 C10.909599,7.18740004 9.70899895,8.38620004 9.09699895,8.99820004 C9.04047895,9.05580004 8.98395895,9.11340004 8.92743895,9.16740004 C6.98127895,11.115 5.04303895,13.0518 5.03151895,13.0662 C4.70715895,13.3902 3.94935895,13.2066 3.36831895,12.6234 C2.78763895,12.0438 2.60439895,11.2842 2.92911895,10.9638 C2.94207895,10.9494 5.59347895,8.29620004 7.80963895,6.08220004 L7.80927895,6.08220004 C8.31687895,5.57460004 8.81151895,5.08140004 8.81835895,5.07060004 C9.14307895,4.74660004 9.90123895,4.93020004 10.481919,5.50980004 M10.482999,6.83460004 C10.463559,6.58980004 10.293279,6.26580004 10.010319,5.98140004 C9.72735895,5.70060004 9.40479895,5.53140004 9.15999895,5.50980004 C9.17943895,5.75460004 9.35043895,6.07860004 9.63267895,6.36300004 C9.91491895,6.64380004 10.237839,6.81300004 10.482999,6.83460004"></path>
        </g>
    </g>
</svg>