<?xml version="1.0" encoding="UTF-8" standalone="no"?>
<svg width="16px" height="16px" viewBox="0 0 16 16" version="1.1" xmlns="http://www.w3.org/2000/svg" xmlns:xlink="http://www.w3.org/1999/xlink">
    <!-- Generator: Sketch 3.6.1 (26313) - http://www.bohemiancoding.com/sketch -->
    <title>upgrading_avios</title>
    <desc>Created with Sketch.</desc>
    <defs></defs>
    <g id="Page-1" stroke="none" stroke-width="1" fill="none" fill-rule="evenodd">
        <g id="upgrading_avios" fill="#000000">
            <path d="M13.2371,5.55452 L12.4991,5.0552 L12.88862,4.25492 L12.00014,4.1912 L11.93714,3.30236 L11.13578,3.6926 L10.63718,2.9546 L10.13822,3.6926 L9.33722,3.30236 L9.27386,4.1912 L8.38502,4.25492 L8.7749,5.0552 L8.0369,5.55452 L8.7749,6.05384 L8.38502,6.85448 L9.27386,6.91748 L9.33722,7.80596 L10.13822,7.4168 L10.63718,8.15444 L11.13578,7.4168 L11.93714,7.80596 L12.00014,6.91748 L12.88862,6.85448 L12.4991,6.05384 L13.2371,5.55452 L13.2371,5.55452 Z M11.74382,5.30684 L11.74382,5.9282 L11.71934,5.9102 L10.9439,5.33348 C10.94606,5.42348 10.94606,5.51384 10.94606,5.60312 C10.94606,5.8832 10.93706,6.15968 10.9187,6.42428 L10.91798,6.43868 L10.38266,6.43868 L10.38158,6.42428 C10.36358,6.16148 10.35386,5.88536 10.35386,5.60456 C10.35386,5.51636 10.35494,5.42528 10.3571,5.33348 L9.58094,5.9102 L9.55718,5.9282 L9.55718,5.29928 L9.56258,5.2946 L10.64078,4.42088 L10.6505,4.41296 L10.65986,4.42088 L11.7377,5.2946 L11.74382,5.29928 L11.74382,5.30684 Z M6.5087,9.2906 C7.62902,9.2906 7.97102,8.55728 7.97102,7.42328 C7.97102,6.2882 7.62902,5.55452 6.5087,5.55452 C5.3891,5.55452 5.0471,6.2882 5.0471,7.42328 C5.0471,8.55728 5.3891,9.2906 6.5087,9.2906 Z M9.60038,10.38392 C9.12122,10.12508 7.62254,9.89864 6.5087,9.89864 C5.37146,9.89864 3.88718,10.13048 3.40334,10.39724 C3.15278,11.23748 2.93858,12.15908 2.7629,13.04468 L10.25522,13.0454 C10.07918,12.1598 9.86462,11.23928 9.61442,10.3994 L9.60038,10.38392 Z"></path>
        </g>
    </g>
</svg>