<?xml version="1.0" encoding="UTF-8" standalone="no"?>
<svg width="16px" height="16px" viewBox="0 0 16 16" version="1.1" xmlns="http://www.w3.org/2000/svg" xmlns:xlink="http://www.w3.org/1999/xlink">
    <!-- Generator: Sketch 3.6.1 (26313) - http://www.bohemiancoding.com/sketch -->
    <title>uso_de_casco</title>
    <desc>Created with Sketch.</desc>
    <defs></defs>
    <g id="Page-1" stroke="none" stroke-width="1" fill="none" fill-rule="evenodd">
        <g id="uso_de_casco" fill="#000000">
            <path d="M12.0311,9.7982 L12.01382,9.7766 C11.38994,9.4418 9.44666,9.1466 7.99982,9.1466 C6.52454,9.1466 4.59674,9.449 3.96854,9.7946 C3.64454,10.8854 3.3659,12.0806 3.13694,13.2326 L12.86306,13.2326 C12.6341,12.0842 12.3551,10.8854 12.0311,9.7982 Z M6.10262,5.9354 C6.10262,7.4078 6.54686,8.3582 8.00018,8.3582 C9.45458,8.3582 9.8981,7.4078 9.8981,5.9354 C9.8981,5.8274 9.8945,5.7266 9.88982,5.6258 L6.1109,5.6258 C6.10622,5.7266 6.10262,5.8274 6.10262,5.9354 Z M7.14734,6.7706 C7.6949,6.8822 8.26406,6.8822 8.85302,6.7706 L8.85302,7.037 C8.70038,7.3106 8.43182,7.4618 8.00018,7.4618 C7.56818,7.4618 7.29926,7.3106 7.14734,7.0406 L7.14734,6.7706 Z M10.23506,4.8374 C10.06514,3.5594 9.44774,2.7674 7.99586,2.7674 C6.54254,2.7674 5.92622,3.5594 5.75486,4.8374 L5.5133,4.8374 L5.5133,5.237 L10.45754,5.237 L10.45754,4.8374 L10.23506,4.8374 Z M7.08614,4.841 L7.41698,4.841 L7.41698,3.3938 L7.08614,3.3938 L7.08614,4.841 Z M8.55278,4.841 L8.8847,4.841 L8.8847,3.3938 L8.55278,3.3938 L8.55278,4.841 Z"></path>
        </g>
    </g>
</svg>