<?xml version="1.0" encoding="UTF-8" standalone="no"?>
<svg width="16px" height="16px" viewBox="0 0 16 16" version="1.1" xmlns="http://www.w3.org/2000/svg" xmlns:xlink="http://www.w3.org/1999/xlink">
    <!-- Generator: Sketch 3.6.1 (26313) - http://www.bohemiancoding.com/sketch -->
    <title>utilizacion_avios</title>
    <desc>Created with Sketch.</desc>
    <defs></defs>
    <g id="Page-1" stroke="none" stroke-width="1" fill="none" fill-rule="evenodd">
        <g id="utilizacion_avios" fill="#000000">
            <path d="M11.249383,3.5765 C11.312383,3.5765 11.384383,3.62258 11.410663,3.67838 C12.011143,4.9697 12.329383,6.33302 12.413623,7.96994 C12.495343,9.57518 12.076303,11.87594 11.843023,12.28166 C11.788303,12.37706 11.769943,12.40874 11.552863,12.4199 C11.499583,12.42206 11.445583,12.4235 11.389423,12.4235 C10.293943,12.4235 8.856103,11.91122 7.116583,10.89998 C4.551943,9.4121 3.818983,8.18414 3.655183,7.84286 C3.550063,7.62434 3.564823,7.5977 3.622063,7.49906 C3.854263,7.09406 5.623303,5.5799 7.046743,4.84838 C8.496103,4.10354 9.828463,3.69998 11.238943,3.57722 L11.249383,3.5765 L11.249383,3.5765 Z M11.249383,2.84534 C11.224903,2.84534 11.200423,2.84606 11.176303,2.84894 C9.549823,2.99006 8.109823,3.4793 6.712303,4.19786 C5.289943,4.92866 3.340543,6.51878 2.987383,7.13546 C2.775703,7.50302 2.819263,7.79246 2.995663,8.15966 C3.393823,8.98946 4.535383,10.24802 6.749023,11.53322 C8.769343,12.7061 10.262263,13.15466 11.389423,13.15466 C11.457103,13.15466 11.523343,13.15358 11.588863,13.1507 C11.979823,13.13126 12.265663,13.01426 12.477343,12.64634 C12.830863,12.0293 13.225783,9.53594 13.143703,7.93214 C13.063063,6.35678 12.765703,4.85774 12.073783,3.37022 C11.926903,3.0527 11.594263,2.84534 11.249383,2.84534 L11.249383,2.84534 Z M9.163183,10.15298 L9.161383,10.17386 L8.246623,10.17386 L8.244823,10.15298 C8.178583,9.4913 8.144383,8.74178 8.144383,7.98254 C8.144383,7.78382 8.146903,7.58294 8.151583,7.38206 L6.558223,8.56754 L6.558223,7.39034 L8.704183,5.64902 L10.849783,7.39034 L10.849783,8.56754 L9.256423,7.38206 C9.261103,7.58186 9.263623,7.7831 9.263623,7.98002 C9.263623,8.74178 9.228703,9.4913 9.163183,10.15298 L9.163183,10.15298 Z"></path>
        </g>
    </g>
</svg>