<?xml version="1.0" encoding="UTF-8" standalone="no"?>
<svg width="16px" height="16px" viewBox="0 0 16 16" version="1.1" xmlns="http://www.w3.org/2000/svg" xmlns:xlink="http://www.w3.org/1999/xlink">
    <!-- Generator: Sketch 3.6.1 (26313) - http://www.bohemiancoding.com/sketch -->
    <title>validar</title>
    <desc>Created with Sketch.</desc>
    <defs></defs>
    <g id="Page-1" stroke="none" stroke-width="1" fill="none" fill-rule="evenodd">
        <g id="validar" fill="#000000">
            <path d="M8.21276,10.24694 L8.21276,10.24622 C7.85672,10.64762 7.18388,10.62854 6.79112,10.23758 C6.76196,10.20626 6.73496,10.17566 6.7094,10.14254 L4.99256,7.62506 L5.5214,7.10018 L7.47908,8.3987 L10.54412,6.2099 L11.00888,6.65738 L8.21276,10.24694 L8.21276,10.24694 Z M8.00072,2.71394 C5.0804,2.71394 2.71412,5.08166 2.71412,7.99946 C2.71412,10.91906 5.0804,13.28606 8.00072,13.28606 C10.92032,13.28606 13.28588,10.91906 13.28588,7.99946 C13.28588,5.08166 10.92032,2.71394 8.00072,2.71394 L8.00072,2.71394 Z"></path>
        </g>
    </g>
</svg>