<?xml version="1.0" encoding="UTF-8" standalone="no"?>
<svg width="16px" height="16px" viewBox="0 0 16 16" version="1.1" xmlns="http://www.w3.org/2000/svg" xmlns:xlink="http://www.w3.org/1999/xlink">
    <!-- Generator: Sketch 3.6.1 (26313) - http://www.bohemiancoding.com/sketch -->
    <title>vuelos</title>
    <desc>Created with Sketch.</desc>
    <defs></defs>
    <g id="Page-1" stroke="none" stroke-width="1" fill="none" fill-rule="evenodd">
        <g id="vuelos" fill="#000000">
            <path d="M13.21784,10.59992 L13.21784,9.42488 C11.98628,8.3258 9.13544,6.50456 8.88128,6.31916 C8.82548,4.82048 8.66888,3.1868 8.23112,2.79116 L7.76888,2.79116 C7.33112,3.1868 7.17416,4.82048 7.11872,6.31916 C6.86456,6.50456 4.01372,8.3258 2.78216,9.42488 L2.78216,10.59992 L7.18892,9.1124 C7.2602,9.85796 7.36604,10.54232 7.47332,11.26736 C7.37576,11.32208 7.03808,11.68388 6.04268,12.55688 L6.04268,13.20884 L8,12.55724 L9.95696,13.20884 L9.95696,12.55688 C8.96192,11.68388 8.62424,11.32208 8.52668,11.26736 C8.63396,10.54232 8.7398,9.85796 8.81072,9.1124 L13.21784,10.59992"></path>
        </g>
    </g>
</svg>