<?xml version="1.0" encoding="utf-8"?>
<!-- Generator: Adobe Illustrator 16.0.0, SVG Export Plug-In . SVG Version: 6.00 Build 0)  -->
<!DOCTYPE svg PUBLIC "-//W3C//DTD SVG 1.0//EN" "http://www.w3.org/TR/2001/REC-SVG-20010904/DTD/svg10.dtd">
<svg version="1.0" id="E9" xmlns="http://www.w3.org/2000/svg" xmlns:xlink="http://www.w3.org/1999/xlink" x="0px" y="0px"
	 width="157px" height="26px" viewBox="0 0 157 26" enable-background="new 0 0 157 26" xml:space="preserve">
<g opacity="0.6">
	<path fill="#818181" d="M114.805,7.277c-0.297-1.11-0.496-1.99-0.58-2.688c-0.032-0.181-0.056-0.72-0.056-0.792
		c0-1.483,1.079-3.191,3.124-3.191c2.046,0,3.125,1.708,3.125,3.191c0,0.19-0.073,0.706-0.09,0.792
		c-0.09,0.689-0.285,1.612-0.573,2.688c0,0-1.313,4.736-1.608,6.2h-1.732C116.119,12.013,114.805,7.277,114.805,7.277"/>
	<path fill-rule="evenodd" clip-rule="evenodd" fill="#818181" d="M117.271,20.275c-1.746,0-2.79-1.425-2.79-2.829
		c0-1.325,0.964-2.851,2.79-2.851c1.827,0,2.79,1.525,2.79,2.851C120.061,18.851,119.017,20.275,117.271,20.275"/>
	<path fill="#373737" d="M41.019,11.46h6.735c-0.187-0.881-1.069-2.539-3.368-2.539S41.206,10.579,41.019,11.46 M44.439,17.26
		c1.325,0,2.043-0.58,2.647-1.324l3.612,1.698c-0.583,0.829-1.27,1.51-2.037,2.031c-1.229,0.882-2.699,1.337-4.222,1.337
		c-4.25,0-7.857-3.447-7.857-7.858c0-4.142,3.26-7.963,7.777-7.963c1.986,0,3.739,0.692,5.08,1.852L48.8,5.24h4.596l2.987,9.741
		h0.053l2.995-9.741h4.597l-0.854,2.375c1.38-1.477,3.326-2.434,5.587-2.434c3.5,0,6.276,2.149,7.35,5.217V0.5h4.436v9.663
		C81.57,7.494,84.029,5.19,88.01,5.19c4.053,0,6.532,2.387,7.52,5.118V5.24h4.152v0.884c1.094-0.584,2.414-0.934,3.963-0.934
		c5.413,0,8.013,4.26,8.013,7.904s-2.6,7.904-8.013,7.904c-1.426,0-2.656-0.295-3.695-0.797V25.5H95.51v-9.595
		c-0.994,2.72-3.46,5.093-7.5,5.093c-3.98,0-6.439-2.304-7.462-4.973v4.25h-4.436v-5.822H65.368
		c0.268,1.765,1.737,2.807,3.475,2.807c1.328,0,2.046-0.584,2.651-1.33l3.611,1.699c-0.583,0.83-1.272,1.514-2.04,2.036
		c-1.229,0.882-2.699,1.337-4.222,1.337c-4.082,0-7.571-3.182-7.84-7.34l-2.377,6.613h-4.457l-2.083-5.835l-11.12,0.013
		C41.232,16.218,42.703,17.26,44.439,17.26 M103.625,16.899c2.331,0,3.724-1.903,3.724-3.778c0-1.769-1.286-3.806-3.724-3.806
		c-2.439,0-3.725,2.037-3.725,3.806C99.9,14.996,101.293,16.899,103.625,16.899 M88.01,16.886c2.332,0,3.725-1.903,3.725-3.778
		c0-1.769-1.286-3.805-3.725-3.805s-3.725,2.036-3.725,3.805C84.285,14.982,85.68,16.886,88.01,16.886 M65.421,11.46h6.734
		c-0.187-0.881-1.069-2.539-3.367-2.539S65.608,10.579,65.421,11.46"/>
</g>
</svg>
