<?xml version="1.0" encoding="utf-8"?>
<!-- Generator: Adobe Illustrator 16.0.0, SVG Export Plug-In . SVG Version: 6.00 Build 0)  -->
<!DOCTYPE svg PUBLIC "-//W3C//DTD SVG 1.0//EN" "http://www.w3.org/TR/2001/REC-SVG-20010904/DTD/svg10.dtd">
<svg version="1.0" id="Layer_1" xmlns="http://www.w3.org/2000/svg" xmlns:xlink="http://www.w3.org/1999/xlink" x="0px" y="0px"
	 width="157px" height="26px" viewBox="0 0 157 26" enable-background="new 0 0 157 26" xml:space="preserve">
<g opacity="0.5">
	<path fill="#4C4C4C" d="M83.836,8.001H74.33c-0.502,2.82-1.332,7.64-1.745,10h4.04c0.307-1.774,1.155-6.637,1.528-8.764h3.035
		c1.271,0,2.187,0.861,1.974,2.332c-0.204,1.163-0.693,3.969-1.123,6.433h4.038c0.288-1.655,0.847-4.862,1.111-6.37
		C87.547,9.579,86.466,8.001,83.836,8.001L83.836,8.001z"/>
	<path fill="#4C4C4C" d="M63.189,16.809c-1.875-0.312-1.527-2.554-1.527-2.554c1.668,0.197,3.766,0.151,5.203,0.008
		c1.242-0.122,3.694-0.43,4.392-2.342c0.692-1.896,0.167-3.428-2.119-3.854c-1.685-0.312-3.249-0.328-5.291-0.054
		c-2.917,0.39-4.519,1.378-5.233,3.114c-0.392,0.953-0.629,2.09-0.731,3.12c-0.186,1.877,0.167,3.597,2.513,3.785
		c3.146,0.253,5.622,0.196,8.246-0.213l0.817-1.168C66.97,17.069,64.136,16.966,63.189,16.809L63.189,16.809z M62.399,11.24
		c0.5-1.192,1.238-1.939,2.615-2.258c0.611-0.141,1.132-0.136,1.862,0.02c1.083,0.23,1.416,1.493,0.94,2.477
		c-0.532,1.099-1.242,1.344-2.17,1.535c-1.007,0.208-2.333,0.239-3.793,0.138C61.956,12.541,62.213,11.682,62.399,11.24
		L62.399,11.24z"/>
	<path fill="#4C4C4C" d="M102.85,16.809c-1.876-0.312-1.526-2.554-1.526-2.554c1.667,0.197,3.766,0.151,5.202,0.008
		c1.242-0.122,3.694-0.43,4.392-2.342c0.692-1.896,0.168-3.428-2.118-3.854c-1.685-0.312-3.249-0.328-5.292-0.054
		c-2.917,0.39-4.518,1.378-5.232,3.114c-0.392,0.953-0.63,2.09-0.73,3.12c-0.187,1.877,0.167,3.597,2.513,3.785
		c3.146,0.253,5.622,0.196,8.246-0.213l0.816-1.168C106.631,17.069,103.796,16.966,102.85,16.809L102.85,16.809z M102.06,11.24
		c0.5-1.192,1.237-1.939,2.614-2.258c0.611-0.141,1.133-0.136,1.863,0.02c1.082,0.23,1.415,1.493,0.939,2.477
		c-0.532,1.099-1.242,1.344-2.169,1.535c-1.008,0.208-2.334,0.239-3.794,0.138C101.616,12.541,101.873,11.682,102.06,11.24
		L102.06,11.24z"/>
	<path fill="#4C4C4C" d="M51.001,11.335c0.213-1.22,0.647-1.927,1.973-2.168c1.186-0.216,3.382-0.073,4.672,0.071L58.512,8
		c-1.954-0.142-5.252-0.301-7.206-0.018c-2.789,0.404-3.925,0.971-4.238,2.756c-0.188,1.067-1.03,5.894-1.269,7.263h4.038
		C50.115,16.408,50.803,12.462,51.001,11.335L51.001,11.335z"/>
	<path fill="#4C4C4C" d="M94.605,1.874c-2.299,1.61-3.074,3.585-3.5,6.012l-1.71,9.794c-0.388,2.23-0.556,3.395-0.934,4.485
		c-0.308,0.919-1.305,2.265-2.968,2.286l-0.728,1.038c2.148,0.104,3.865-0.517,5.078-1.363c2.298-1.609,3.145-3.909,3.568-6.332
		c0.03-0.166,0.777-4.453,1.132-6.485c0.263-1.443,1.016-2.235,2.611-2.254L97.895,8h-2.773c0.392-2.245,0.536-3.219,0.857-4.152
		c0.315-0.917,1.305-2.264,2.967-2.287l0.737-1.05C97.534,0.407,95.817,1.027,94.605,1.874L94.605,1.874z"/>
</g>
</svg>
