<?xml version="1.0" encoding="utf-8"?>
<!-- Generator: Adobe Illustrator 16.0.0, SVG Export Plug-In . SVG Version: 6.00 Build 0)  -->
<!DOCTYPE svg PUBLIC "-//W3C//DTD SVG 1.0//EN" "http://www.w3.org/TR/2001/REC-SVG-20010904/DTD/svg10.dtd">
<svg version="1.0" id="QR" xmlns="http://www.w3.org/2000/svg" xmlns:xlink="http://www.w3.org/1999/xlink" x="0px" y="0px"
	 width="157px" height="26px" viewBox="0 0 157 26" enable-background="new 0 0 157 26" xml:space="preserve">
<g>
	<path fill-rule="evenodd" clip-rule="evenodd" fill="#53626F" d="M50.458,22.701c-0.189,0.013-0.372,0.024-0.562,0.024
		c-0.213,0-0.421-0.018-0.636-0.024l0.624-1.504L50.458,22.701 M51.15,24.407c0.11-0.005,0.281-0.036,0.452-0.036
		c0.172,0,0.386,0.031,0.479,0.036c-0.276-0.593-0.68-1.516-0.912-2.049c-0.221-0.514-0.588-1.371-0.882-2.208
		c-0.066,0.019-0.129,0.03-0.195,0.03c-0.073,0-0.135-0.012-0.203-0.03c-0.146,0.501-0.502,1.296-1.12,2.68l-0.708,1.577
		c0.083-0.011,0.171-0.036,0.275-0.036c0.097,0,0.214,0.025,0.293,0.036c0.098-0.348,0.293-0.855,0.488-1.327
		c0.245-0.012,0.489-0.024,0.735-0.024c0.262,0,0.52,0.013,0.784,0.024l0.256,0.65L51.15,24.407z"/>
	<path fill="#53626F" d="M52.617,21.624c0,1.047,0,2.057-0.067,2.783c0.136-0.005,0.307-0.036,0.441-0.036
		c0.141,0,0.288,0.031,0.429,0.036c-0.049-0.494-0.061-1.155-0.061-2.066c0-0.619,0-1.676,0.067-2.129
		c-0.147,0.018-0.299,0.036-0.435,0.036c-0.091,0-0.319-0.024-0.434-0.036C52.617,20.804,52.617,21.239,52.617,21.624"/>
	<path fill-rule="evenodd" clip-rule="evenodd" fill="#53626F" d="M56.256,22.328c0.557-0.104,1.065-0.452,1.065-1.131
		c0-0.258-0.098-0.509-0.281-0.687c-0.264-0.251-0.564-0.299-0.961-0.299c-0.142,0-0.851,0.029-1.009,0.029
		c-0.312,0-0.473-0.018-0.612-0.029C54.5,21,54.5,21.086,54.5,21.888c0,1.181-0.007,1.315-0.055,2.52
		c0.134-0.017,0.281-0.036,0.421-0.036c0.154,0,0.288,0.025,0.411,0.036c0-0.158-0.025-0.947-0.025-1.125v-0.868H55.4
		c0.329,0.465,0.709,1.004,1.021,1.487c0.093,0.14,0.228,0.366,0.319,0.506c0.185-0.023,0.258-0.036,0.496-0.036
		c0.221,0,0.374,0.02,0.544,0.036c-0.385-0.482-0.55-0.695-1.034-1.376c-0.091-0.128-0.226-0.33-0.318-0.458L56.256,22.328
		 M55.252,20.541c0.092-0.006,0.318-0.03,0.435-0.03c0.202,0,0.404,0.03,0.569,0.154c0.214,0.158,0.257,0.378,0.257,0.635
		c0,0.397-0.227,0.846-0.839,0.846c-0.159,0-0.306-0.013-0.422-0.019V20.541z"/>
	<path fill="#53626F" d="M59.443,22.977c-0.286-0.85-0.685-2.043-0.875-2.765c-0.153,0.023-0.287,0.036-0.428,0.036
		c-0.146,0-0.355-0.024-0.477-0.036c0.25,0.66,0.465,1.247,0.629,1.712c0.282,0.796,0.465,1.348,0.686,2.02l0.153,0.464
		c0.085-0.017,0.184-0.036,0.251-0.036c0.067,0,0.128,0.013,0.232,0.036c0.098-0.317,0.214-0.708,0.301-0.959
		c0.238-0.697,0.269-0.795,0.581-1.664l0.184-0.508c0.067,0.195,0.184,0.508,0.25,0.702c0.068,0.191,0.379,1.127,0.453,1.335
		c0.1,0.275,0.123,0.355,0.35,1.094c0.055-0.005,0.171-0.036,0.263-0.036c0.086,0,0.153,0.02,0.245,0.036
		c0.233-0.727,0.258-0.799,0.6-1.78c0.336-0.954,0.544-1.497,0.911-2.415c-0.092,0.023-0.183,0.036-0.275,0.036
		c-0.116,0-0.214-0.019-0.281-0.036c-0.221,0.795-0.331,1.18-0.507,1.706c-0.289,0.856-0.326,0.955-0.502,1.421
		c-0.195-0.527-0.386-1.06-0.562-1.598c-0.098-0.295-0.472-1.518-0.478-1.529c-0.085,0.018-0.147,0.036-0.27,0.036
		c-0.109,0-0.189-0.024-0.269-0.036c-0.184,0.746-0.833,2.545-0.894,2.71L59.56,23.32L59.443,22.977"/>
	<path fill-rule="evenodd" clip-rule="evenodd" fill="#53626F" d="M65.617,22.701c-0.189,0.013-0.373,0.024-0.563,0.024
		c-0.214,0-0.422-0.018-0.636-0.024l0.623-1.504L65.617,22.701 M66.309,24.407c0.11-0.005,0.281-0.036,0.453-0.036
		c0.171,0,0.386,0.031,0.477,0.036c-0.275-0.593-0.679-1.516-0.912-2.049c-0.22-0.514-0.587-1.371-0.881-2.208
		c-0.067,0.019-0.128,0.03-0.195,0.03c-0.073,0-0.136-0.012-0.203-0.03c-0.146,0.501-0.501,1.296-1.12,2.68l-0.709,1.577
		c0.085-0.011,0.171-0.036,0.275-0.036c0.099,0,0.213,0.025,0.294,0.036c0.098-0.348,0.294-0.855,0.49-1.327
		c0.244-0.012,0.489-0.024,0.734-0.024c0.264,0,0.52,0.013,0.783,0.024l0.257,0.65L66.309,24.407z"/>
	<path fill="#53626F" d="M68.877,22.77c0-0.056,0.037-0.123,0.079-0.196c0.257-0.44,0.495-0.9,0.771-1.341
		c0.091-0.146,0.539-0.856,0.631-1.021c-0.068,0.023-0.135,0.036-0.258,0.036c-0.135,0-0.258-0.019-0.355-0.036
		c-0.44,0.966-0.538,1.174-1.058,2.067c-0.52-0.911-0.752-1.395-1.07-2.067c-0.177,0.029-0.356,0.036-0.502,0.036
		c-0.134,0-0.276-0.013-0.501-0.036c0.317,0.532,0.839,1.377,1.15,1.915l0.361,0.624c0,0.379-0.019,1.181-0.036,1.656
		c0.116-0.011,0.286-0.036,0.41-0.036c0.141,0,0.281,0.025,0.422,0.036c-0.025-0.567-0.043-0.897-0.043-1.412V22.77"/>
	<path fill="#53626F" d="M70.711,23.491c-0.03,0.293-0.037,0.373-0.143,0.69c0.222,0.11,0.62,0.312,1.145,0.312
		c1.121,0,1.554-0.715,1.554-1.34c0-0.172-0.042-0.532-0.299-0.808c-0.176-0.196-0.361-0.264-0.831-0.447
		c-0.538-0.207-0.851-0.33-0.851-0.776c0-0.361,0.238-0.661,0.722-0.661c0.384,0,0.71,0.184,0.801,0.532h0.086
		c0.055-0.232,0.067-0.281,0.189-0.582c-0.299-0.134-0.569-0.25-1.015-0.25c-1.107,0-1.427,0.686-1.427,1.224
		c0,0.508,0.179,0.82,0.772,1.083c0.171,0.074,0.459,0.185,0.63,0.257c0.118,0.049,0.503,0.22,0.503,0.705
		c0,0.44-0.319,0.765-0.802,0.765c-0.361,0-0.668-0.093-0.948-0.704H70.711"/>
	<path fill-rule="evenodd" clip-rule="evenodd" fill="#63003D" d="M36.717,12.183c0-4.626,2.479-5.874,4.352-5.874
		c3.01,0,4.313,2.497,4.313,5.158c0,1.524-0.183,2.957-0.937,4.113c-0.751,1.155-2,1.853-3.358,1.853
		C37.69,17.433,36.717,14.202,36.717,12.183 M45.859,21.638c0.551-0.386,1.415-0.863,2.039-1.139l-4.149-2.571
		c2.552-0.898,4.149-3.175,4.149-6.277c0-4.404-3.358-6.278-6.792-6.278c-3.708,0-6.904,2.056-6.904,6.719
		c0,0.99,0.221,2.864,1.764,4.424c1.596,1.615,3.488,1.854,5.084,1.854c0.202,0,0.403,0,0.606-0.018L45.859,21.638z"/>
	<path fill-rule="evenodd" clip-rule="evenodd" fill="#63003D" d="M56.46,12.991c-0.569,0.037-1.12,0.074-1.689,0.074
		c-0.642,0-1.267-0.056-1.908-0.074l1.871-4.516L56.46,12.991 M58.536,18.113c0.33-0.019,0.843-0.111,1.357-0.111
		c0.516,0,1.157,0.093,1.433,0.111c-0.827-1.781-2.038-4.553-2.736-6.151c-0.661-1.542-1.762-4.113-2.644-6.627
		c-0.201,0.056-0.386,0.093-0.586,0.093c-0.22,0-0.404-0.037-0.605-0.093c-0.441,1.506-1.507,3.893-3.361,8.041l-2.129,4.737
		c0.257-0.037,0.514-0.111,0.827-0.111c0.293,0,0.642,0.074,0.882,0.111c0.293-1.047,0.881-2.571,1.468-3.984
		c0.733-0.037,1.468-0.073,2.202-0.073c0.79,0,1.561,0.036,2.35,0.073l0.771,1.946L58.536,18.113z"/>
	<path fill="#63003D" d="M66.681,8.806c0-0.698,0.017-1.396,0.036-2.058c1.267,0,2.571,0.02,3.654,0.13
		c-0.055-0.294-0.093-0.459-0.093-0.661c0-0.148,0.038-0.387,0.093-0.697c-1.763,0.091-3.378,0.109-4.902,0.109
		c-1.414,0-3.451-0.019-4.902-0.109c0.057,0.22,0.092,0.458,0.092,0.679c0,0.22-0.035,0.459-0.092,0.679
		c0.937-0.092,2.7-0.13,2.864-0.13h0.918c0.019,0.717,0.037,1.36,0.037,2.039l0.019,5.121c0,1.396-0.11,2.81-0.185,4.206
		c0.662-0.073,0.937-0.111,1.249-0.111c0.22,0,0.809,0.056,1.341,0.111c-0.055-0.515-0.128-1.12-0.128-2.516V8.806"/>
	<path fill-rule="evenodd" clip-rule="evenodd" fill="#63003D" d="M76.898,12.991c-0.568,0.037-1.12,0.074-1.688,0.074
		c-0.644,0-1.267-0.056-1.911-0.074l1.873-4.516L76.898,12.991 M78.974,18.113c0.329-0.019,0.843-0.111,1.358-0.111
		c0.513,0,1.156,0.093,1.431,0.111c-0.826-1.781-2.037-4.553-2.734-6.151c-0.661-1.542-1.764-4.113-2.644-6.627
		c-0.203,0.056-0.387,0.093-0.587,0.093c-0.221,0-0.404-0.037-0.607-0.093c-0.439,1.506-1.503,3.893-3.358,8.041l-2.129,4.737
		c0.256-0.037,0.515-0.111,0.826-0.111c0.293,0,0.641,0.074,0.881,0.111c0.293-1.047,0.88-2.571,1.468-3.984
		c0.733-0.037,1.467-0.073,2.202-0.073c0.79,0,1.561,0.036,2.35,0.073l0.771,1.946L78.974,18.113z"/>
	<path fill-rule="evenodd" clip-rule="evenodd" fill="#63003D" d="M89.156,11.871c1.67-0.312,3.193-1.358,3.193-3.396
		c0-0.771-0.293-1.523-0.844-2.056c-0.789-0.752-1.688-0.899-2.883-0.899c-0.422,0-2.551,0.091-3.028,0.091
		c-0.938,0-1.413-0.055-1.836-0.091c0.129,2.368,0.129,2.624,0.129,5.029c0,3.542-0.019,3.946-0.165,7.564
		c0.403-0.056,0.845-0.111,1.265-0.111c0.46,0,0.864,0.074,1.232,0.111c0-0.479-0.074-2.847-0.074-3.379v-2.606h0.441
		c0.991,1.396,2.129,3.011,3.065,4.461c0.274,0.423,0.679,1.102,0.953,1.524c0.552-0.073,0.771-0.111,1.487-0.111
		c0.66,0,1.119,0.056,1.633,0.111c-1.156-1.451-1.65-2.093-3.101-4.131c-0.275-0.386-0.68-0.992-0.955-1.377L89.156,11.871
		 M86.146,6.51c0.275-0.017,0.954-0.091,1.302-0.091c0.606,0,1.212,0.091,1.709,0.459c0.643,0.477,0.771,1.138,0.771,1.909
		c0,1.193-0.679,2.533-2.515,2.533c-0.478,0-0.919-0.037-1.267-0.054V6.51z"/>
	<path fill="#77838F" d="M100.058,16.517c-0.922,0.011-1.729,0.017-2.362,0.017c-0.909,0-1.645-0.281-1.645-0.628
		c0-0.345,0.735-0.625,1.645-0.625c0.806,0,1.896,0.009,3.146,0.024c-0.483,0.698-0.714,1.118-0.734,1.144
		C100.092,16.469,100.074,16.493,100.058,16.517"/>
	<path fill="#77838F" d="M100.553,17.356c0.305,0.367,0.596,0.676,0.986,1.013c0,0,0.147,0.21,0.595,0.031
		c0.453-0.186,0.837-0.438,1.272-1.02c1.269,0.021,2.612,0.05,3.936,0.079c0.109,0.158,0.329,0.486,0.604,0.892
		c-3.689,0.096-7.694,0.152-9.745,0.152c-0.855,0-1.548-0.266-1.548-0.59c0-0.326,0.692-0.59,1.548-0.59
		c0.625,0,1.429,0.005,2.35,0.015C100.55,17.348,100.553,17.356,100.553,17.356"/>
	<path fill="#77838F" d="M99.126,20.433c-0.758,0-1.372-0.232-1.372-0.521s0.614-0.522,1.372-0.522c2.006,0,6.119,0.061,9.64,0.161
		c0.17,0.243,0.34,0.484,0.501,0.707C105.641,20.364,101.228,20.433,99.126,20.433"/>
	<path fill="#77838F" d="M110.823,22.106c-2.959,0.129-8.043,0.216-10.156,0.216c-0.596,0-1.078-0.185-1.078-0.409
		c0-0.228,0.482-0.411,1.078-0.411c2.021,0,6.767,0.079,9.763,0.199C110.565,21.846,110.697,21.982,110.823,22.106"/>
	<path fill="#77838F" d="M103.107,23.217c1.744,0,7.057,0.132,7.057,0.29c0,0.162-5.312,0.291-7.057,0.291
		c-0.341,0-0.615-0.129-0.615-0.291C102.492,23.349,102.767,23.217,103.107,23.217"/>
	<path fill="#77838F" d="M103.126,12.475c-2.195,0.037-4.165,0.059-5.431,0.059c-0.909,0-1.645-0.28-1.645-0.627
		c0-0.346,0.735-0.627,1.645-0.627c1.472,0,3.889,0.028,6.51,0.078C103.815,11.741,103.455,12.116,103.126,12.475"/>
	<path fill="#77838F" d="M98.2,10.488c-0.855,0-1.548-0.264-1.548-0.588c0-0.327,0.692-0.591,1.548-0.591
		c1.754,0,4.935,0.043,8.124,0.113c-0.39,0.332-0.762,0.657-1.112,0.977C102.412,10.456,99.749,10.488,98.2,10.488"/>
	<path fill="#77838F" d="M107.735,8.291c-3.263,0.083-6.797,0.133-8.609,0.133c-0.758,0-1.372-0.233-1.372-0.522
		c0-0.288,0.614-0.522,1.372-0.522c2.001,0,6.104,0.062,9.62,0.162c-0.175,0.128-0.353,0.255-0.531,0.389
		C108.054,8.05,107.894,8.169,107.735,8.291"/>
	<path fill="#77838F" d="M100.667,6.311c-0.596,0-1.078-0.183-1.078-0.411c0-0.227,0.482-0.41,1.078-0.41
		c2.242,0,7.839,0.097,10.68,0.24c-0.181,0.119-0.361,0.242-0.544,0.365C107.841,6.223,102.775,6.311,100.667,6.311"/>
	<path fill="#77838F" d="M97.525,14.544c-0.924,0-1.676-0.284-1.676-0.638c0-0.352,0.752-0.637,1.676-0.637
		c1.16,0,2.895,0.017,4.858,0.046c-0.371,0.434-0.69,0.837-0.965,1.196C99.857,14.532,98.491,14.544,97.525,14.544"/>
	<path fill="#77838F" d="M102.492,4.306c0-0.16,0.274-0.291,0.615-0.291c1.744,0,7.057,0.131,7.057,0.291s-5.312,0.292-7.057,0.292
		C102.767,4.598,102.492,4.466,102.492,4.306"/>
	<path fill="#63003D" d="M116.771,13.434c0.012,0.317,0.011,0.633-0.006,0.944c-3.091,0.121-6.021,0.309-6.021,0.518
		c0,0.205,2.865,0.39,5.92,0.512c-0.054,0.353-0.124,0.698-0.207,1.037c-3.013,0.124-5.808,0.306-5.808,0.51
		c0,0.196,2.608,0.373,5.499,0.496c-0.133,0.368-0.284,0.728-0.452,1.07c-2.48,0.119-4.531,0.278-4.531,0.452
		c0,0.162,1.792,0.312,4.05,0.429c-0.125,0.205-0.259,0.409-0.396,0.6c-0.146,0.208-0.306,0.414-0.477,0.617
		c-1.411,0.107-2.381,0.229-2.381,0.359c0,0.111,0.695,0.217,1.765,0.311c-0.586,0.578-1.275,1.117-2.087,1.588
		c0,0-0.959-0.825-1.746-1.787c-0.706-0.859-2.2-3.122-2.553-3.629c-0.351-0.506-0.582-0.654-0.995-0.508
		c-0.55,0.195-1.192,0.293-1.39,0.293s-0.306-0.076,0.025-0.208c0.33-0.132,1.632-0.747,2.273-2.018
		c0.72-1.432,0.086-3.408,0.086-3.408c-0.24,1.056-0.791,1.45-0.791,1.45c0.178-0.979-0.015-1.87-0.5-2.494l-0.271,1.241
		c0,0-0.169-0.008-0.587,0.344c-0.419,0.352-0.533,0.864-0.533,0.864c0.329,0.133,0.725-0.197,0.725-0.197
		c-0.505,1.891-1.23,3.43-1.76,4.244c-0.527,0.813-0.963,1.121-1.49,1.336c-0.447,0.179-0.595-0.031-0.595-0.031
		c-0.391-0.337-0.682-0.646-0.986-1.013c0,0-0.024-0.043,0.059-0.041c0.218,0.003,0.604-0.369,0.689-0.523
		c0.096-0.177,0.086-0.312,0.037-0.322c-0.048-0.007-0.131,0.133-0.549,0.397c-0.418,0.264-0.609,0.081-0.749-0.066
		c-0.106-0.116-0.003-0.262,0.066-0.353c0.063-0.08,2.27-4.195,8.108-8.519c7.653-5.666,12.54-7.195,12.819-7.306
		c0.186-0.073,0.487-0.169,0.556-0.099c0.077,0.079,0.113,0.143,0.103,0.235c-0.009,0.091-0.059,0.139-0.411,0.295
		c-2.939,1.294-6.367,3.452-8.315,4.707c-2.396,1.167-4.684,2.835-4.768,2.874c-0.185,0.114-0.048,0.282,0.063,0.211
		c4.046-2.691,8.79-4.524,14.031-6.026c0.251-0.071,0.389-0.071,0.43-0.016c0.047,0.062,0.067,0.132,0.075,0.208
		c0.007,0.095-0.073,0.146-0.289,0.231c-5.63,2.092-9.781,4.036-12.451,5.831c0,0-0.277,0.167-0.28,0.36
		c-0.001,0.073,0.148,0.082,0.148,0.082c1.337,0.024,3.123,0.103,3.973,0.152c0,0-0.12,0.431-0.935,0.777
		c-0.629,0.268-1.211,0.225-1.786,0.229c-0.129-0.002-0.236,0.127-0.134,0.265C111.095,11.011,112.32,12.984,116.771,13.434"/>
	<path fill="#63003D" d="M75.962,23.747h-0.754c0,0-0.103-0.464,0.171-0.642c0.274-0.18,0.583-0.318,0.583-0.318V23.747
		 M79.542,22.009c0,0-0.457,0.265-0.749,0.522c-0.29,0.256,0.06,0.354,0.06,0.354v0.862h-2.19v-3.021c0,0-0.798,0.734-0.873,0.832
		c-0.077,0.104,0.19,0.198,0.19,0.198l-0.045,0.286c0,0-0.319,0.164-0.704,0.426c-0.384,0.257-0.668,0.587-0.668,0.814
		c0,0.229-0.097,1.124-0.097,1.124h5.076V22.009z M75.01,20.905c0.249,0,0.426-0.099,0.426-0.298c0-0.2-0.118-0.339-0.426-0.339
		c-0.276,0-0.349,0.12-0.349,0.339C74.661,20.827,74.756,20.905,75.01,20.905z M75.943,20.905c0.253,0,0.424-0.099,0.424-0.298
		c0-0.2-0.116-0.339-0.424-0.339c-0.276,0-0.348,0.12-0.348,0.339C75.595,20.827,75.69,20.905,75.943,20.905z M77.357,24.667
		c-0.272,0-0.348,0.118-0.348,0.338c0,0.218,0.097,0.298,0.348,0.298c0.25,0,0.427-0.099,0.427-0.298
		C77.784,24.805,77.668,24.667,77.357,24.667z M78.327,24.667c-0.273,0-0.348,0.118-0.348,0.338c0,0.218,0.099,0.298,0.348,0.298
		c0.254,0,0.428-0.099,0.428-0.298C78.754,24.805,78.639,24.667,78.327,24.667z M89.264,20.846c0.252,0,0.429-0.097,0.429-0.296
		c0-0.198-0.116-0.338-0.429-0.338c-0.272,0-0.346,0.119-0.346,0.338C88.918,20.77,89.016,20.846,89.264,20.846z M90.232,20.846
		c0.252,0,0.426-0.097,0.426-0.296c0-0.198-0.116-0.338-0.426-0.338c-0.272,0-0.346,0.119-0.346,0.338
		C89.887,20.77,89.98,20.846,90.232,20.846z M92.911,20.928c-0.138,0.118-0.098,0.26,0.076,0.239v3.246h0.719v-4.04
		C93.706,20.373,93.044,20.81,92.911,20.928z M90.021,22.747h-0.465c0-0.255,0.465-0.396,0.465-0.396V22.747z M86.957,23.283
		c0,0.117-0.007,0.309-0.012,0.464h-4.063v-0.714c0.106-0.274,0.286-0.308,0.563-0.308h2.97
		C87.056,22.726,86.957,23.063,86.957,23.283z M91.707,21.164v2.583H90.74v-2.346c0,0-0.198,0.076-0.47,0.196
		c-0.269,0.122-1.241,0.517-1.241,1.051v0.617h0.991v0.481H87.67c0.002-0.114,0.004-0.28,0.004-0.523c0-0.77-0.654-1.189-1.24-1.189
		h-2.716c-0.477,0-0.705,0.115-0.836,0.246v-1.987c0,0-0.423,0.298-0.735,0.534c-0.311,0.238,0,0.397,0,0.397v2.522h-0.89
		l-0.021-2.166c0,0-0.619,0.453-0.797,0.592c-0.174,0.137-0.077,0.259,0.117,0.259c0,0-0.035,1.6-0.035,1.976
		c0,0.381-0.314,0.815-0.975,0.617c0,0-0.209,0.04-0.035,0.198c0.173,0.157,0.384,0.277,0.617,0.277s1.089-0.161,1.089-1.093h11.206
		v-4.036c0,0-0.66,0.436-0.795,0.554C91.492,21.043,91.531,21.185,91.707,21.164z"/>
</g>
</svg>
