<?xml version="1.0" encoding="utf-8"?>
<!-- Generator: Adobe Illustrator 16.0.0, SVG Export Plug-In . SVG Version: 6.00 Build 0)  -->
<!DOCTYPE svg PUBLIC "-//W3C//DTD SVG 1.0//EN" "http://www.w3.org/TR/2001/REC-SVG-20010904/DTD/svg10.dtd">
<svg version="1.0" id="IB" xmlns="http://www.w3.org/2000/svg" xmlns:xlink="http://www.w3.org/1999/xlink" x="0px" y="0px"
	 width="157px" height="26px" viewBox="0 0 157 26" enable-background="new 0 0 157 26" xml:space="preserve">
<g>
	<linearGradient id="SVGID_1_" gradientUnits="userSpaceOnUse" x1="61.897" y1="24.8799" x2="61.897" y2="2.9786">
		<stop  offset="0" style="stop-color:#A80E1F"/>
		<stop  offset="0.8" style="stop-color:#D7192C"/>
	</linearGradient>
	<path fill="url(#SVGID_1_)" d="M74.886,12.114c-0.529-0.745-1.027-1.35-1.485-1.8c1.623-0.571,2.625-1.941,2.625-3.605
		c0-0.952-0.341-1.854-0.936-2.476c-0.843-0.872-2.155-1.261-4.253-1.261h-8.361c-0.198,1.918-0.301,4.203-0.301,6.25
		c0,2.033,0.103,4.079,0.304,6.256h3.869c-0.168-1.619-0.249-3.008-0.302-4.643h3.891c0.284,0.312,0.75,0.908,1.238,1.68
		c0.566,0.894,1.007,1.775,1.495,2.963h4.323C76.426,14.395,75.81,13.416,74.886,12.114z M71.225,8.522h-5.183
		c0.002-0.925,0.041-1.976,0.118-3.208h3.402c1.252,0,1.862,0.153,2.251,0.568c0.232,0.232,0.37,0.604,0.37,0.996
		C72.183,7.551,71.834,8.149,71.225,8.522z M25.715,9.331c-0.005,2.123-0.08,4.165-0.304,6.148H22.08
		c-0.216-1.993-0.299-4.03-0.304-6.147c-0.005-2.211,0.107-4.57,0.304-6.359h3.334C25.596,4.746,25.721,7.125,25.715,9.331z
		 M83.463,9.331c-0.006,2.123-0.08,4.165-0.305,6.148h-3.331c-0.216-1.993-0.3-4.03-0.304-6.147
		c-0.005-2.211,0.106-4.57,0.305-6.359h3.333C83.343,4.746,83.468,7.125,83.463,9.331z M99.016,8.741
		C97.8,6.345,96.71,4.471,95.685,2.972H91.73c-1.006,1.494-2.109,3.361-3.323,5.753c-1.222,2.407-2.325,4.875-3.011,6.753h4.084
		c0.248-0.783,0.55-1.575,0.873-2.318h6.706c0.323,0.74,0.61,1.486,0.878,2.318h4.08C101.293,13.597,100.236,11.146,99.016,8.741z
		 M91.271,10.846c0.822-1.844,1.578-3.373,2.434-4.919c0.84,1.51,1.598,3.038,2.438,4.919H91.271z M41.667,8.739
		c0.911-0.512,1.49-1.498,1.49-2.561c0-0.989-0.285-1.672-0.924-2.216c-1.075-0.915-3.046-0.99-5.143-0.99h-7.104
		c-0.201,1.868-0.304,4.222-0.304,6.25c0,2.032,0.093,4.023,0.304,6.256h7.373c2.608,0,4.217-0.305,5.213-0.984
		c0.768-0.528,1.244-1.577,1.244-2.737C43.817,10.39,43.037,9.298,41.667,8.739z M33.667,5.338h3.271
		c1.323,0,1.763,0.099,2.142,0.481c0.193,0.195,0.309,0.541,0.309,0.924c0,0.529-0.213,0.984-0.601,1.285h-5.236
		C33.564,7.093,33.602,6.223,33.667,5.338z M39.63,12.624c-0.367,0.343-0.885,0.489-1.786,0.489h-4.177
		c-0.083-0.994-0.115-1.996-0.118-2.818h4.709c0.681,0,1.03,0.092,1.334,0.352c0.286,0.244,0.419,0.548,0.419,0.957
		C40.011,12.033,39.886,12.368,39.63,12.624z M58.951,15.479H47.017c-0.168-1.999-0.304-4.224-0.304-6.248
		c0-2.034,0.119-4.277,0.304-6.258h11.938c-0.08,0.881-0.129,1.616-0.168,2.493h-8.114c-0.068,0.833-0.092,1.834-0.092,2.519h7.493
		v2.359H50.58c0.001,0.84,0.031,1.703,0.093,2.642h8.123C58.838,13.884,58.887,14.645,58.951,15.479z"/>
	<linearGradient id="SVGID_2_" gradientUnits="userSpaceOnUse" x1="103.0283" y1="27.2422" x2="133.3627" y2="9.7286">
		<stop  offset="0" style="stop-color:#A80E1F"/>
		<stop  offset="0.5" style="stop-color:#D7192C"/>
	</linearGradient>
	<path fill="url(#SVGID_2_)" d="M107.898,19.568c7.248-7.287,17.615-11.334,24.487-11.532l-2.354,6.142
		c-2.805,6.527-7.614,11.321-28.009,11.321L107.898,19.568z"/>
	<linearGradient id="SVGID_3_" gradientUnits="userSpaceOnUse" x1="114.9902" y1="11.79" x2="134.9268" y2="0.2796">
		<stop  offset="0" style="stop-color:#F68400"/>
		<stop  offset="0.85" style="stop-color:#FCD100"/>
	</linearGradient>
	<path fill="url(#SVGID_3_)" d="M114.934,12.394l6.611-6.695c3.192-3.182,4.449-5.199,13.68-5.199l-1.497,3.96
		C127.494,5.165,121.209,7.887,114.934,12.394z"/>
</g>
</svg>
