<?xml version="1.0" encoding="utf-8"?>
<!-- Generator: Adobe Illustrator 16.0.0, SVG Export Plug-In . SVG Version: 6.00 Build 0)  -->
<!DOCTYPE svg PUBLIC "-//W3C//DTD SVG 1.0//EN" "http://www.w3.org/TR/2001/REC-SVG-20010904/DTD/svg10.dtd">
<svg version="1.0" id="S7" xmlns="http://www.w3.org/2000/svg" xmlns:xlink="http://www.w3.org/1999/xlink" x="0px" y="0px"
	 width="157px" height="26px" viewBox="0 0 157 26" enable-background="new 0 0 157 26" xml:space="preserve">
<g>
	<g>
		<path fill="#747679" d="M79.041,6.479h2.094v1.878h-2.094V6.479z M79.041,9.45h2.094v7.899h-2.094V9.45z"/>
		<path fill="#747679" d="M84.322,10.712h0.046c0.478-0.893,1.017-1.355,1.94-1.355c0.23,0,0.369,0.016,0.492,0.062v1.832h-0.046
			c-1.37-0.138-2.355,0.585-2.355,2.248v3.849h-2.095V9.45h2.018V10.712z"/>
		<path fill="#747679" d="M90.881,6.479h2.094v1.878h-2.094V6.479z M90.881,9.45h2.095v7.899h-2.095V9.45z"/>
		<path fill="#747679" d="M96.192,10.527h0.047c0.539-0.847,1.262-1.293,2.34-1.293c1.633,0,2.726,1.232,2.726,2.957v5.157h-2.094
			v-4.85c0-0.847-0.493-1.447-1.371-1.447c-0.924,0-1.601,0.739-1.601,1.817v4.48h-2.094V9.45h2.048L96.192,10.527L96.192,10.527z"
			/>
		<path fill="#747679" d="M102.167,13.392c0-2.341,1.585-4.158,3.895-4.158c2.541,0,3.896,1.94,3.896,4.758h-5.728
			c0.154,1.216,0.832,1.971,2.018,1.971c0.815,0,1.293-0.369,1.524-0.971h2.062c-0.292,1.401-1.539,2.588-3.572,2.588
			C103.645,17.579,102.167,15.747,102.167,13.392z M104.261,12.544h3.511c-0.062-1.001-0.724-1.694-1.679-1.694
			C104.984,10.851,104.445,11.513,104.261,12.544z"/>
		<path fill="#747679" d="M110.439,14.793h1.94c0.139,0.908,0.785,1.309,1.725,1.309c0.924,0,1.447-0.354,1.447-0.908
			c0-0.755-1.001-0.832-2.078-1.047c-1.417-0.278-2.803-0.663-2.803-2.387c0-1.709,1.416-2.525,3.218-2.525
			c2.079,0,3.233,1.032,3.388,2.618h-1.894c-0.093-0.847-0.632-1.155-1.524-1.155c-0.816,0-1.355,0.308-1.355,0.877
			c0,0.678,1.047,0.739,2.171,0.97c1.324,0.277,2.787,0.647,2.787,2.495c0,1.586-1.355,2.541-3.326,2.541
			C111.841,17.579,110.563,16.471,110.439,14.793z"/>
		<path fill="#747679" d="M74.101,6.479h-2.438l-4.406,10.869h2.494l0.815-2.232h4.496l0.832,2.232h2.51L74.101,6.479z
			 M71.167,13.284l1.617-4.62l1.663,4.619L71.167,13.284L71.167,13.284z"/>
		<rect x="87.617" y="6.479" fill="#747679" width="2.094" height="10.869"/>
	</g>
	<g>
		<path fill="#BED600" d="M64.539,13.002c0,6.906-5.593,12.498-12.496,12.498c-6.905,0-12.504-5.592-12.504-12.498
			c0-6.905,5.599-12.502,12.504-12.502C58.946,0.5,64.539,6.097,64.539,13.002"/>
		<path fill="#FFFFFF" d="M51.132,6.478c-1.969,0-3.246,0.109-4.171,0.452c-1.554,0.605-2.627,1.874-2.627,3.541
			c0,1.389,0.646,2.394,2.518,3.55c1.996,1.211,2.395,1.611,2.395,2.34c0,0.799-0.781,1.707-2.794,1.707
			c-0.702,0-1.76-0.098-2.436-0.263l-0.323-0.081c-0.18,0.482-0.588,1.623-0.713,2.037l0.319,0.094
			c0.608,0.193,2.052,0.346,3.085,0.346c3.439,0,5.491-2.078,5.491-4.254c0-1.337-0.606-2.353-2.658-3.633
			c-1.029-0.633-1.554-1.043-1.872-1.361c-0.258-0.332-0.287-0.579-0.287-0.839c0-0.249,0.056-0.536,0.22-0.746
			c0.178-0.26,0.503-0.425,0.944-0.562c0.453-0.15,1.292-0.154,2.599-0.154h1.218l0.869-2.173H51.132L51.132,6.478z M60.329,6.478
			h-6.115l-0.869,2.173h2.027c1.363,0,1.626-0.029,1.969-0.029c-0.495,1.131-3.475,8.726-3.475,8.726h2.521
			c0,0,3.773-9.454,4.174-10.445C60.672,6.681,60.617,6.478,60.329,6.478z"/>
	</g>
</g>
</svg>
