<?xml version="1.0" encoding="utf-8"?>
<!-- Generator: Adobe Illustrator 16.0.0, SVG Export Plug-In . SVG Version: 6.00 Build 0)  -->
<!DOCTYPE svg PUBLIC "-//W3C//DTD SVG 1.0//EN" "http://www.w3.org/TR/2001/REC-SVG-20010904/DTD/svg10.dtd">
<svg version="1.0" id="NT" xmlns="http://www.w3.org/2000/svg" xmlns:xlink="http://www.w3.org/1999/xlink" x="0px" y="0px"
	 width="157px" height="26px" viewBox="0 0 157 26" enable-background="new 0 0 157 26" xml:space="preserve">
<g opacity="0.9">
	<path fill-rule="evenodd" clip-rule="evenodd" fill="#7E7E7E" d="M48.468,12.02c0.473,0.214,0.747,0.329,1.012,0.462
		c1.715,0.86,2.585,2.284,2.696,4.17c0.257,4.386-2.719,7.323-6.985,8.138c-0.736,0.14-1.503,0.165-2.256,0.173
		c-3.993,0.017-7.986,0.017-11.979,0.009c-0.991,0-1.001-0.009-0.802-0.963c1.57-7.556,3.149-15.109,4.705-22.667
		c0.125-0.605,0.37-0.839,1.006-0.833c2.956,0.029,5.916-0.056,8.87,0.037c1.677,0.053,3.38,0.226,5.013,0.599
		c2.112,0.479,3.25,2.075,3.36,4.229c0.06,1.17,0.035,2.315-0.469,3.412c-0.712,1.549-1.874,2.536-3.518,2.969
		C48.963,11.795,48.818,11.875,48.468,12.02z M35.72,21.004c2.553,0,4.952,0.05,7.344-0.032c0.749-0.017,1.547-0.271,2.22-0.617
		c1.372-0.708,2.059-2.446,1.691-4.137c-0.311-1.428-1.417-2.03-2.73-2.097c-2.217-0.11-4.443-0.082-6.665-0.062
		c-0.179,0.002-0.453,0.364-0.515,0.603c-0.253,1.004-0.444,2.019-0.656,3.036C36.188,18.758,35.969,19.812,35.72,21.004z
		 M37.962,10.447c0.193,0.041,0.29,0.078,0.385,0.078c2.168,0.004,4.342,0.091,6.504-0.047c0.786-0.05,1.668-0.49,2.279-1.017
		c1.062-0.915,1.109-2.238,0.689-3.492c-0.348-1.046-1.298-1.327-2.316-1.358c-1.358-0.042-2.718-0.089-4.077-0.099
		c-2.236-0.016-2.242-0.006-2.701,2.166C38.462,7.926,38.22,9.176,37.962,10.447z"/>
	<path fill-rule="evenodd" clip-rule="evenodd" fill="#7E7E7E" d="M110.171,19.622c-0.901,2.354-2.234,4.114-4.431,5.011
		c-2.506,1.028-5.118,1.136-7.71,0.354c-2.77-0.847-4.229-2.88-4.575-5.66c-0.403-3.265,0.309-6.287,2.391-8.894
		c2.135-2.678,4.937-3.782,8.343-3.445c1.753,0.173,3.361,0.64,4.715,1.814c1.42,1.229,2.11,2.828,2.259,4.645
		c0.086,1.022-0.045,2.062-0.065,3.097c-0.017,0.565-0.305,0.697-0.831,0.697c-3.794-0.023-7.578-0.015-11.372-0.015
		c-1.114,0.002-1.218,0.119-1.103,1.228c0.206,2,0.914,2.979,2.452,3.398c1.987,0.552,3.633,0.083,4.731-1.439
		c0.436-0.609,0.893-0.84,1.629-0.799C107.73,19.663,108.862,19.622,110.171,19.622z M102.543,14.452c1.111,0,2.226,0,3.341,0
		c0.045,0,0.106,0.019,0.144-0.004c0.247-0.147,0.663-0.266,0.708-0.463c0.296-1.382-0.736-3.032-2.103-3.449
		c-2.432-0.741-4.953,0.539-6.031,3.062c-0.312,0.727-0.247,0.846,0.526,0.854C100.272,14.461,101.407,14.455,102.543,14.452z"/>
	<path fill-rule="evenodd" clip-rule="evenodd" fill="#7E7E7E" d="M61.174,24.971c0.3-1.474,0.573-2.822,0.852-4.181
		c0.859-4.178,1.736-8.348,2.571-12.527c0.14-0.699,0.413-0.985,1.151-0.932c0.93,0.065,1.87,0.028,2.804,0.01
		c0.521-0.01,0.68,0.169,0.529,0.688c-0.156,0.547-0.236,1.117-0.189,1.781c0.21-0.179,0.432-0.344,0.625-0.539
		c2.084-2.092,4.602-2.744,7.437-2.151c2.699,0.563,3.612,2.722,3.217,5.04c-0.71,4.096-1.665,8.154-2.496,12.235
		c-0.092,0.436-0.312,0.584-0.728,0.584c-1.115-0.017-2.224-0.024-3.339,0c-0.552,0.008-0.679-0.164-0.556-0.724
		c0.716-3.366,1.397-6.721,2.086-10.086c0.054-0.27,0.072-0.55,0.111-0.823c0.264-1.688-0.57-2.735-2.281-2.795
		c-1.608-0.058-2.88,0.635-3.853,1.892c-1.126,1.455-1.396,3.22-1.762,4.95c-0.479,2.271-0.962,4.542-1.415,6.82
		c-0.115,0.576-0.37,0.79-0.969,0.773C63.762,24.938,62.55,24.971,61.174,24.971z"/>
	<path fill-rule="evenodd" clip-rule="evenodd" fill="#7E7E7E" d="M91.159,21.736c-0.214,1.013-0.407,2-0.646,2.971
		c-0.041,0.156-0.312,0.354-0.481,0.362c-1.551,0.017-3.135,0.181-4.653-0.074c-1.941-0.312-2.781-1.942-2.357-4.057
		c0.646-3.187,1.312-6.373,1.971-9.557c0.062-0.286,0.065-0.58,0.111-0.992c-0.864,0-1.646-0.012-2.415,0.004
		c-0.496,0.011-0.656-0.115-0.548-0.668c0.486-2.363,0.463-2.393,2.864-2.363c0.679,0.01,0.921-0.21,1.028-0.862
		c0.193-1.244,0.498-2.471,0.729-3.711c0.103-0.563,0.365-0.804,0.967-0.786c1.238,0.041,2.473,0.012,3.826,0.012
		c-0.351,1.794-0.684,3.486-1.037,5.305c1.193,0,2.283,0,3.484,0c-0.227,0.985-0.395,1.848-0.646,2.685
		c-0.054,0.175-0.407,0.354-0.63,0.368c-0.757,0.046-1.518,0.037-2.275,0.013c-0.469-0.019-0.69,0.193-0.781,0.627
		c-0.601,2.942-1.226,5.882-1.806,8.823c-0.235,1.168,0.357,1.859,1.547,1.893C89.95,21.753,90.497,21.736,91.159,21.736z"/>
	<path fill-rule="evenodd" clip-rule="evenodd" fill="#7E7E7E" d="M112.026,24.855c0.35-1.703,0.69-3.382,1.041-5.053
		c0.781-3.81,1.594-7.608,2.343-11.421c0.156-0.777,0.403-1.14,1.259-1.055c0.913,0.088,1.818,0.026,2.74,0.017
		c0.469-0.007,0.634,0.151,0.485,0.644c-0.182,0.627-0.305,1.273-0.444,1.915c-0.033,0.201-0.033,0.413,0.115,0.666
		c0.106-0.146,0.238-0.285,0.329-0.444c1.432-2.427,3.653-3.272,6.336-3.229c0.567,0.011,0.839,0.217,0.666,0.858
		c-0.263,1.026-0.461,2.067-0.666,3.108c-0.091,0.475-0.28,0.606-0.782,0.516c-3.324-0.606-5.71,0.723-6.648,3.954
		c-0.765,2.614-1.234,5.312-1.843,7.952c-0.485,2.082-0.05,1.646-2.016,1.688c-0.892,0.016-1.771-0.009-2.66-0.017
		C112.24,24.954,112.194,24.921,112.026,24.855z"/>
	<path fill-rule="evenodd" clip-rule="evenodd" fill="#7E7E7E" d="M61.544,7.352c-0.474,2.259-0.911,4.375-1.362,6.492
		c-0.736,3.449-1.495,6.897-2.207,10.354c-0.121,0.592-0.355,0.806-0.95,0.789c-1.01-0.041-2.021-0.032-3.03-0.008
		c-0.59,0.017-0.802-0.132-0.66-0.798c1.152-5.39,2.265-10.8,3.413-16.195c0.051-0.236,0.331-0.599,0.514-0.604
		C58.644,7.329,60.028,7.352,61.544,7.352z"/>
	<path fill-rule="evenodd" clip-rule="evenodd" fill="#7E7E7E" d="M57.51,4.319c0.262-1.211,0.476-2.318,0.759-3.406
		c0.046-0.173,0.401-0.368,0.617-0.375c1.158-0.037,2.318-0.012,3.479-0.022C62.83,0.512,63,0.66,62.871,1.156
		c-0.22,0.852-0.361,1.724-0.586,2.573c-0.06,0.222-0.303,0.56-0.469,0.564C60.415,4.338,59.01,4.319,57.51,4.319z"/>
</g>
</svg>
