<svg id="Hainan" xmlns="http://www.w3.org/2000/svg" viewBox="0 0 106.43 34"><defs><style>.cls-1{fill:#e60012;}</style></defs><title>logo_pos_Hainan</title><path class="cls-1" d="M46.49,9.21h5V4.71h1.74V16.23H51.45V10.85h-5v5.38H44.75V4.71h1.74Z"/><path class="cls-1" d="M62.82,13.43H57.89l-1.28,2.8H54.74L60.44,4l5.49,12.24H64Zm-.71-1.63-1.7-3.92L58.62,11.8Z"/><path class="cls-1" d="M69.22,4.71V16.23H67.48V4.71Z"/><path class="cls-1" d="M71.79,16.23V3.93l8.39,8.78v-8h1.74V16.93l-8.4-8.77v8.07Z"/><path class="cls-1" d="M91.64,13.43H86.71l-1.28,2.8H83.56L89.26,4l5.49,12.24h-1.9Zm-.71-1.63-1.7-3.92L87.44,11.8Z"/><path class="cls-1" d="M96.3,16.23V3.93l8.4,8.78v-8h1.73V16.93L98,8.16v8.07Z"/><path class="cls-1" d="M51.35,28.37H46.71L45.51,31H43.75l5.35-11.5L54.27,31H52.48Zm-.67-1.54-1.6-3.68-1.69,3.68Z"/><path class="cls-1" d="M57.36,20.17V31H55.72V20.17Z"/><path class="cls-1" d="M70.61,20.17v9.29h3.18V31H69V20.17Z"/><path class="cls-1" d="M77.07,20.17V31H75.44V20.17Z"/><path class="cls-1" d="M79.6,31V19.44l7.89,8.25V20.17h1.63V31.65l-7.89-8.23V31Z"/><path class="cls-1" d="M97.79,21.71H93.45v2.6h4.21v1.53H93.45v3.62h4.34V31h-6V20.17h6Z"/><path class="cls-1" d="M106.15,21.78l-1.32.79a2.23,2.23,0,0,0-.71-.84,1.62,1.62,0,0,0-.9-.23,1.65,1.65,0,0,0-1.13.39,1.19,1.19,0,0,0-.45.95c0,.53.39,1,1.18,1.28l1.08.44a4.6,4.6,0,0,1,1.93,1.3,3,3,0,0,1,.6,1.88,3.32,3.32,0,0,1-1,2.47,3.44,3.44,0,0,1-2.49,1,3.37,3.37,0,0,1-2.33-.83A3.87,3.87,0,0,1,99.5,28l1.65-.37a2.82,2.82,0,0,0,.39,1.32,1.87,1.87,0,0,0,2.74.19,1.76,1.76,0,0,0,.51-1.3,1.7,1.7,0,0,0-.09-.57,1.57,1.57,0,0,0-.27-.49,2.46,2.46,0,0,0-.48-.41,5,5,0,0,0-.7-.37l-1-.43C100.72,25,100,24,100,22.83a2.62,2.62,0,0,1,.93-2,3.38,3.38,0,0,1,2.32-.83A3.24,3.24,0,0,1,106.15,21.78Z"/><path class="cls-1" d="M59.61,20.17V31h1.75V21.65c2-.12,3.27.15,3.27,1.68,0,1.29-1,1.76-3,1.69l3.94,6h2.07l-3.33-4.85a3.1,3.1,0,0,0-1.11-6Z"/><circle class="cls-1" cx="18.89" cy="5.68" r="3.66"/><path class="cls-1" d="M29.64,7.59c0-3.1-2.84-5.58-7.14-6.47,3.41.87,5.88,3.29,5.94,5.74C28.53,9.94,24,13,18.89,13c-4.93,0-9.56-2.63-9.6-6.11,0-2.48,2.35-4.84,6-5.73C11,2,8.09,4.49,8.09,7.58c0,3.58,4.47,6.36,9.49,6.78h0a2,2,0,0,1,1.29.62,1.94,1.94,0,0,1,1.31-.62h0C25.22,14,29.64,11.18,29.64,7.59Z"/><path class="cls-1" d="M32.66,9.22c0-4-3.71-7.68-11.16-8.69,4.72.59,9.78,3.62,9.54,7.91-.21,3.81-4.16,6.26-9.43,7.26a5.15,5.15,0,0,0-2.73,1.12c-.63-.48-1.2-.89-3.54-1.32-3.65-.68-8.7-3.07-8.7-7.35,0-3.47,4.66-6.91,9.59-7.62C9.68,1.12,5.05,5.05,5.05,9.07c0,2.51,1.38,4.4,3.89,6,2.86,1.86,7.14,2.71,7.92,3.07a4.09,4.09,0,0,1,2,1.48A3.67,3.67,0,0,1,21,18.14C27.42,16.51,32.66,13.9,32.66,9.22Z"/><path class="cls-1" d="M20.86,0c7.65.79,13.23,4.74,13.23,9.81,0,3.54-2.65,6.74-9.49,9.2-2.62.82-5,2-5.74,3.81-.79-1.78-3.09-3-5.71-3.81-6.84-2.46-9.49-5.66-9.49-9.2,0-5.07,5.59-9,13.23-9.81C7.94.6,0,5.35,0,11.81,0,16.66,3.69,19.9,9,22c5.66,2.27,8.33,4.34,9.88,9.66,1.54-5.32,4.25-7.39,9.91-9.66,5.29-2.13,9-5.37,9-10.22C37.75,5.35,29.81.6,20.86,0Z"/><path class="cls-1" d="M18.61,32.67c-3.06-4.55-9.2-7.56-11.87-4.61A1.68,1.68,0,0,0,8.4,30.8,1.59,1.59,0,0,0,8.65,28c3.65,1.64,1.83,6.56-2.54,6a4.75,4.75,0,0,1-4-6.38C4.4,21.34,15.62,23,18.61,32.67Z"/><path class="cls-1" d="M19.22,32.67c3.06-4.55,9.2-7.56,11.87-4.61a1.68,1.68,0,0,1-1.66,2.74A1.59,1.59,0,0,1,29.18,28c-3.65,1.64-1.83,6.56,2.54,6a4.75,4.75,0,0,0,4-6.38C33.43,21.34,22.21,23,19.22,32.67Z"/></svg>