<svg id="svg2" xmlns="http://www.w3.org/2000/svg" xmlns:xlink="http://www.w3.org/1999/xlink" viewBox="0 0 23 20">
  <defs>
    <linearGradient id="linear-gradient" x1="20.58894" y1="12.5418" x2="17.69044" y2="7.5215" gradientTransform="matrix(1, 0, 0, -1, 0, 21)" gradientUnits="userSpaceOnUse">
      <stop offset="0" stop-color="#e6ebef"/>
      <stop offset="0.0764" stop-color="#bbcee5"/>
      <stop offset="0.1854" stop-color="#85a9d8"/>
      <stop offset="0.2796" stop-color="#5d8fcf"/>
      <stop offset="0.3543" stop-color="#457ec9"/>
      <stop offset="0.4" stop-color="#3c78c7"/>
      <stop offset="0.9" stop-color="#2e5c99"/>
    </linearGradient>
  </defs>
  <title>Artboard 1</title>
  <g>
    <path d="M21.4161,9.24231a8.99737,8.99737,0,0,1-2.74862,1.4589c-.94573.35526-1.36538.481-1.89452.6532-.59892.19431-1.797.55687-1.797.55687a29.45182,29.45182,0,0,0,4.231.96453,13.38693,13.38693,0,0,0,2.10576-.94221,5.44015,5.44015,0,0,0,1.289-.82308,1.24982,1.24982,0,0,0,.38322-.63793A.86155.86155,0,0,0,23,10.33137s0-.04135-.00376-.0773a.34528.34528,0,0,0-.0087-.06908,1.03627,1.03627,0,0,0-.03218-.12594.83564.83564,0,0,0-.22839-.31627,1.94808,1.94808,0,0,0-.77726-.43562,4.5816,4.5816,0,0,0-.48191-.12289Z" style="fill: url(#linear-gradient)"/>
    <path d="M22.99976,10.31492a.667.667,0,0,0-.02068-.12758.49137.49137,0,0,0-.07143-.15437,1.32748,1.32748,0,0,0-.18374-.21617,1.63482,1.63482,0,0,0-.21757-.16965A2.90385,2.90385,0,0,0,21.344,9.24748a11.05631,11.05631,0,0,0-1.352-.06791c-.2211-.003-1.64969.0087-2.01694.01528-1.63089.0336-3.62739.03806-4.15042.03806-5.39926.02467-7.74937-.09163-10.365-.61608A30.0675,30.0675,0,0,1,0,7.755c1.96266-.0679,13.41438-.543,15.50345-.59845,1.36773-.03854,2.33883-.04676,3.11586-.00188a10.44389,10.44389,0,0,1,1.235.13534,5.93161,5.93161,0,0,1,1.01763.27467,2.41721,2.41721,0,0,1,1.05123.67647,1.769,1.769,0,0,1,.13511.16306c.08717.12124.18844.27045.22274.32613a7.23444,7.23444,0,0,1,.46429.79254c.05052.09868.09516.20113.13863.30146a1.95907,1.95907,0,0,1,.07354.20207,1.14313,1.14313,0,0,1,.03854.22321Z" style="fill: #ce210f"/>
  </g>
</svg>
