<?xml version="1.0" encoding="utf-8"?>
<!-- Generator: Adobe Illustrator 16.0.0, SVG Export Plug-In . SVG Version: 6.00 Build 0)  -->
<!DOCTYPE svg PUBLIC "-//W3C//DTD SVG 1.0//EN" "http://www.w3.org/TR/2001/REC-SVG-20010904/DTD/svg10.dtd">
<svg version="1.0" id="LA" xmlns="http://www.w3.org/2000/svg" xmlns:xlink="http://www.w3.org/1999/xlink" x="0px" y="0px"
	 width="157px" height="26px" viewBox="0 0 157 26" enable-background="new 0 0 157 26" xml:space="preserve">
<g id="layer5" transform="translate(580 -582.36)">
	<g>
		<path id="path27116" fill="#2A0088" d="M-469.188,601.586l3.237-12.512h3.579c0,0,0.908-0.087,1.375,0.282
			c0.467,0.371,0.599,0.942,0.599,0.942l1.945,6.055l2.538-7.279h3.463c0,0,0.862,0,1.308,0.35c0.447,0.35,0.581,0.874,0.581,0.874
			l2.839,11.289h-3.362l-2.537-9.622l-2.662,7.335h-3.565c0,0-0.43,0.041-0.84-0.236c-0.411-0.277-0.424-0.531-0.424-0.531
			l-2.171-6.567l-2.49,9.622L-469.188,601.586z"/>
		<path id="path27065" fill="#2A0088" d="M-502.537,589.072v2.496l6.005,0.404v9.613h3.471v-9.613l6.006-0.404v-2.496H-502.537z"/>
		<path id="path27022" fill="#2A0088" d="M-512.52,589.072l-6.256,12.513h3.846l1.093-2.301h6.975l1.068,2.301h3.824l-5.935-11.692
			c0,0-0.194-0.43-0.53-0.623c-0.336-0.192-0.69-0.198-0.69-0.198L-512.52,589.072L-512.52,589.072z M-510.396,591.774l2.299,4.967
			h-4.634L-510.396,591.774L-510.396,591.774z"/>
		<path id="path26992" fill="#2A0088" d="M-531.987,589.072v12.513h10.562l1.439-2.88h-8.382v-9.633H-531.987z"/>
		<path id="path27070" fill="#2A0088" d="M-481.321,589.072l-6.256,12.513h3.846l1.093-2.301h6.975l1.068,2.301h3.823l-5.935-11.692
			c0,0-0.193-0.43-0.53-0.623c-0.335-0.192-0.69-0.198-0.69-0.198L-481.321,589.072L-481.321,589.072z M-479.197,591.774
			l2.299,4.967h-4.634L-479.197,591.774L-479.197,591.774z"/>
	</g>
	<g>
		<path id="path27278" fill="#ED1651" d="M-553.486,593.093l2.776-0.793c0,0-0.03-0.186-0.129-0.276
			c-0.1-0.091-0.279-0.147-0.279-0.147l-3.858-1.401c0,0-0.123-0.042-0.212,0.008c-0.089,0.05-0.086,0.178-0.086,0.178v1.794
			c0,0-0.01,0.172,0.239,0.557c0.249,0.385,0.838,0.287,0.838,0.287L-553.486,593.093z"/>
		<path id="path27260" fill="#ED1651" d="M-542.434,588.763l2.583-1.447c0,0,0.039-0.25-0.061-0.341
			c-0.099-0.091-0.218-0.119-0.218-0.119l-11.153-3.98c0,0-0.123-0.041-0.212,0.008c-0.089,0.049-0.086,0.178-0.086,0.178v1.547
			c0,0-0.001,0.358,0.247,0.743c0.249,0.385,0.652,0.485,0.652,0.485L-542.434,588.763z"/>
		<path id="path27258" fill="#ED1651" d="M-542.434,593.267l2.583-1.338c0,0,0.055-0.339-0.045-0.43
			c-0.099-0.091-0.234-0.139-0.234-0.139l-14.847-5.393c0,0-0.123-0.041-0.212,0.008c-0.089,0.05-0.086,0.178-0.086,0.178v1.547
			c0,0-0.001,0.358,0.247,0.744c0.249,0.385,0.653,0.485,0.653,0.485L-542.434,593.267z"/>
	</g>
	<g>
		<path id="path27194" fill="#2A0088" d="M-540.13,586.856c0,0,0.15,0.023,0.279,0.147c0.128,0.125,0.129,0.276,0.129,0.276v2.049
			c0,0-0.006,0.28-0.121,0.532c-0.115,0.251-0.283,0.311-0.283,0.311l-0.35,0.127l-11.146,4.049c0,0-0.053,0.016-0.123,0.016
			s-0.124-0.016-0.124-0.016l-3.105-1.128c0,0-0.077-0.018-0.187-0.189c-0.123-0.192-0.114-0.574-0.114-0.574
			s0.019,0.196,0.129,0.289c0.111,0.093,0.405-0.009,0.405-0.009l14.264-5.181c0,0,0.566-0.231,0.566-0.466
			C-539.91,586.926-540.13,586.857-540.13,586.856L-540.13,586.856z"/>
		<path id="path27140" fill="#2A0088" d="M-540.13,591.359c0,0,0.15,0.023,0.279,0.147c0.128,0.125,0.129,0.276,0.129,0.276v2.048
			c0,0-0.006,0.28-0.121,0.531c-0.115,0.252-0.283,0.312-0.283,0.312l-0.35,0.127l-11.146,4.049v-2.745l11.146-4.048
			c0,0,0.566-0.231,0.566-0.466C-539.91,591.429-540.13,591.359-540.13,591.359L-540.13,591.359z"/>
		<path id="path27142" fill="#2A0088" d="M-545.664,598.569c0.107,0.107,0.107,0.342,0.107,0.342v1.532c0,0-0.006,0.28-0.121,0.532
			c-0.115,0.251-0.283,0.311-0.283,0.311l-0.35,0.127l-5.312,1.93v-2.744l5.312-1.93
			C-546.311,598.669-545.77,598.464-545.664,598.569L-545.664,598.569z"/>
		<path id="path27168" fill="#2A0088" d="M-549.09,604.297c0.107,0.107,0.107,0.342,0.107,0.342v1.532c0,0-0.006,0.279-0.121,0.531
			c-0.115,0.251-0.283,0.311-0.283,0.311l-0.35,0.127l-1.885,0.72v-2.745l1.885-0.719
			C-549.737,604.396-549.197,604.191-549.09,604.297L-549.09,604.297z"/>
	</g>
</g>
</svg>
