<svg id="LA" xmlns="http://www.w3.org/2000/svg" viewBox="0 0 166.94162 26">
  <title>logo_pos_FJ</title>
  <g>
    <path id="path66537" d="M108.19783,24.98232l-.97562-.51227-.93762.51227V13.00555l.99245.49174.92079-.49174Z" transform="translate(0)" style="fill: #473729"/>
    <path id="path66543" d="M128.89446,16.70679l2.434,8.27553.91413-.51227.91267.51227,3.52362-11.97677-1.11082.49174-.82622-.49174-2.49925,9.05579-2.65244-9.05579-.69567.49174-.69509-.49174-2.651,9.05579-2.501-9.05579-.82622.49174-1.10791-.49174,3.52159,11.97677.91354-.51227.91064.51227Z" transform="translate(0)" style="fill: #473729"/>
    <path id="path66549" d="M150.452,24.97894V20.20141l-4.1958-7.19578,1.3371.49175.77168-.49175,3.10848,5.53466,3.087-5.53466.77371.49175,1.33506-.49175-4.17374,7.19578v4.77753l-1.04293-.51314Z" transform="translate(0)" style="fill: #473729"/>
    <path id="path66555" d="M162.0928,25.15341c-2.65185,0-5.08671-1.15377-4.65155-3.80879l.94458.46978,1.01131-.46978c-.23963,1.30641,1.1082,2.15547,2.69566,2.15547,1.7827,0,2.86914-.74007,2.86914-1.764,0-2.83107-7.239-1.43678-7.239-5.661,0-2.13523,2.02088-3.24389,4.47749-3.24389,2.5889,0,4.82822,1.08814,4.30487,3.59167l-.97679-.48018-1.04495.48018c.26138-1.24107-.58631-1.98057-2.28313-1.98057-1.369,0-2.4981.65335-2.4981,1.6539,0,2.50469,7.23929,1.30582,7.23929,5.53119,0,2.35089-2.04321,3.52605-4.84882,3.52605" transform="translate(0)" style="fill: #473729"/>
    <path id="path66561" d="M113.11743,19.84305V14.71688h2.63068a2.19766,2.19766,0,0,1,2.12763,2.11268,1.58178,1.58178,0,0,1,.02.2917,3.45045,3.45045,0,0,1-.03307.40993,2.37441,2.37441,0,0,1-2.28255,2.31273Zm4.52013,1.16244a4.56023,4.56023,0,0,0,2.06555-3.77785c.00116-.05464.00813-.38044.00436-.43479a3.81488,3.81488,0,0,0-3.90482-3.79h-4.51752V24.98223l.00522-.002.92573-.51025.90135.51227V21.49377l2.11951-.00318s.19379,0,.50305-.02891l2.76992,3.52055.74383-.51227,1.70611.51227Z" transform="translate(0)" style="fill: #473729"/>
    <path id="path66567" d="M99.84454,13.00563l4.49837,11.97331-1.14707-.50909-.76588.50909-1.29387-3.49541H96.488L95.1692,24.97894l-.76355-.50909-1.14911.50909,4.5004-11.97331,1.04322.49175Zm-2.823,6.83528h3.57032l-1.79169-4.85615Z" transform="translate(0)" style="fill: #473729"/>
    <path id="path66573" d="M142.92433,13.00563,147.425,24.97894l-1.10443-.50909-.80852.50909-1.29445-3.49541h-4.64923l-1.31766,3.49541-.79634-.50909-1.11748.50909,4.50156-11.97331,1.05395.49175Zm-2.821,6.83528h3.57l-1.81548-4.85615Z" transform="translate(0)" style="fill: #473729"/>
    <g id="g66241">
      <path id="path66243" d="M5.28317,23.39851c-.029.11251-.02128.13018-.057.11055-.25674-.2048-.99012-.88948-1.24115-1.12294a9.32224,9.32224,0,0,1-.84314-.93051c.26522-.09209,2.0177-.2317,2.06321-.23248a14.70147,14.70147,0,0,1,.078,2.17538" transform="translate(0)" style="fill: #473729;fill-rule: evenodd"/>
    </g>
    <g id="g66247">
      <path id="path66249" d="M7.82006,19.83944a6.16758,6.16758,0,0,1-1.5641.02886c-.02542-.04457-.10463-1.885-.10463-1.885.04394.05812.0932.15571.12.18438.0266.02866.5724.64423.65319.73062.0798.08659.5588.63893.66816.72356a1.8636,1.8636,0,0,1,.22738.21756" transform="translate(0)" style="fill: #473729;fill-rule: evenodd"/>
    </g>
    <g id="g66253">
      <path id="path66255" d="M13.62238,13.5044c-.1202.20872-.18542.30709-.22719.38387-.04118.077-.1263.17357-.17615.25015a2.75274,2.75274,0,0,1-.19212.249c-.1732-.2366-.43211-.59514-.59033-.8235-.15941-.22816-.344-.60358-.443-.74849.22778-.2961.35724-.46437.44137-.58336.10916-.15375.29478-.42707.41359-.62637.11882-.19831.18029-.29865.18029-.29865.16079.21344.3663.54351.51132.75655.14522.21324.32177.5005.39822.60339a.96648.96648,0,0,1,.06956.10328.61353.61353,0,0,0,.043.08089c.01025.014.01241.01238.00572.02749a.73271.73271,0,0,1-.11547.15669c-.03842.04948-.07527.10093-.11034.15335-.05793.085-.11094.17338-.16847.2586-.01281.01963-.02838.03691-.04.05714" transform="translate(0)" style="fill: #473729;fill-rule: evenodd"/>
    </g>
    <g id="g66259">
      <path id="path66261" d="M7.52567,24.29992c.04512-.06813.90284-1.31084.92905-1.35718.02739-.04634.11211-.22914.16275-.32811.05064-.09915.16355-.29884.20847-.38484.04453-.08561.86264-1.49287.86264-1.49287.09833.08757.05892.03672.12788.07913.06857.04163.29832.17063.34522.20087.04611.03024.08275.05635.08275.05635-.08728.12233-.39427.67094-.47092.81938-.07606.14766-1.03545,1.9914-1.08037,2.08958-.04532.098-.17931.37876-.22345.49971a.91179.91179,0,0,1-.12019.20971c-.04887.08639-.07606.15747-.11133.22443a1.64007,1.64007,0,0,1-.08571.14588c-.094-.08953-.35428-.162-.42029-.23719a2.55769,2.55769,0,0,0-.40512-.26134c.09439-.13529.13143-.16376.19862-.26351" transform="translate(0)" style="fill: #473729;fill-rule: evenodd"/>
    </g>
    <g id="g66265">
      <path id="path66267" d="M6.36189,23.83339c-.03527-.109-.21162-2.48974-.23192-2.61246-.02128-.12351-.00079-.28216-.02345-.35167.09537-.06715,2.57808-.34774,2.63857-.36973.06049-.02061.11232.03829.05872.09759-.05438.0591-2.04469,3.24746-2.13986,3.35506a.78217.78217,0,0,1-.21418.18968c-.08414-.14471-.03291-.13882-.08788-.30847" transform="translate(0)" style="fill: #473729;fill-rule: evenodd"/>
    </g>
    <g id="g66271">
      <path id="path66273" d="M5.1706,19.97307c-.053.02887-2.38852.58553-2.49926.63677-.11034.05263-.03822-.04673-.06936-.034C2.64356,20.471,5.52922,17.2,5.52922,17.2c-.01616.28549-.32492,2.73969-.35862,2.77307" transform="translate(0)" style="fill: #473729;fill-rule: evenodd"/>
    </g>
    <g id="g66277">
      <path id="path66279" d="M1.838,19.59686c-.055.0326-.09832-.05183-.09832-.05183-.11212-.2421-.23409-.42766-.27468-.505a.85215.85215,0,0,1-.06128-.17043c.2266-.23091,1.44983-1.4,1.75031-1.74322.29911-.34263,1.16983-1.2001,1.3454-1.41648.17516-.21618.26482-.30356.29024-.34381.025-.04006.08453-.129.08453-.129.03665.15256.069.2419.11586.39152.04847.15669.14167.41862.1732.52662-.55763.67977-1.31426,1.387-1.45909,1.55962-.14542.1722-1.528,1.4964-1.60943,1.60812a2.61673,2.61673,0,0,1-.25674.27391" transform="translate(0)" style="fill: #473729;fill-rule: evenodd"/>
    </g>
    <g id="g66283">
      <path id="path66285" d="M.76933,17.73863a1.58765,1.58765,0,0,1-.11152-.335c-.02286-.06578-.04847-.25742-.07192-.36482-.02305-.10839-.04768-.32182-.05832-.37994.05162-.02121.14186-.10525.22639-.15865.08513-.05282,1.082-.97469,1.23013-1.13335.14817-.15845.48708-.46319.71131-.67682.225-.21442.91782-.95957,1.04038-1.04734.12354-.08738.361-.302.42462-.32987-.21123-.12626-1.44766-.73848-1.74834-.874-.30108-.1341-1.571-.80563-1.73947-.89084-.16788-.0864-.49221-.23681-.52945-.25232.0063-.1451.06128-.33065.07822-.48165.01695-.15139.05419-.36993.05419-.43394.19507.05655,1.98065,1.05854,2.14853,1.14493.16886.086.45753.18477.55092.22581.094.04123,1.28569.678,1.39091.72787.10562.04889.19074.09445.19074.09445.03448.03456.04079.04221.03586.20911-.00434.1671.00985.388-.00808.53114-.01852.14274.00138.76557.00138.76557-.38285.37248-.82067.90106-1.17712,1.21621-.35546.31553-1.706,1.63482-1.706,1.63482-.091.08443-.55821.57865-.6658.63834a2.04757,2.04757,0,0,0-.26758.17024" transform="translate(0)" style="fill: #473729;fill-rule: evenodd"/>
    </g>
    <g id="g66289">
      <path id="path66291" d="M.95713,13.00085c.10975.0538.37.14.49595.20421a2.52944,2.52944,0,0,0,.31093.11408c.08946.03534.56906.14628.61753.1563,0,0-.04966.03554-.1533.11192-.10995.08129-.57556.47183-.81772.66249-.24295.19026-.81062.63677-.94165.72886a1.00145,1.00145,0,0,1-.24512.12821C.13705,14.616.074,14.12948.05626,13.92115c-.01753-.20832-.0664-.92167-.05438-1.066a.68727.68727,0,0,0,.00453-.16749A3.5221,3.5221,0,0,1,.40956,12.82c.189.06932.46757.14177.54757.18084" transform="translate(0)" style="fill: #473729;fill-rule: evenodd"/>
    </g>
    <g id="g66295">
      <path id="path66297" d="M4.79424,11.194c-.45044-.17887-3.79283-1.63875-3.821-1.65269C.946,9.52658.53738,9.40465.53738,9.40465A2.2899,2.2899,0,0,1,.64752,8.891c.03153-.06813.12256-.23052.12256-.23052.1129.063.25753.10918.39566.18968.13753.07992,1.601.74908,1.96075.90675.36019.15748,1.60863.66387,1.66853.68292a1.33484,1.33484,0,0,1,.12788.04889,1.26509,1.26509,0,0,0-.08748.377c-.00966.09936-.03685.2154-.03192.25212a.23866.23866,0,0,1-.00926.07618" transform="translate(0)" style="fill: #473729;fill-rule: evenodd"/>
    </g>
    <g id="g66301">
      <path id="path66303" d="M5.39286,9.30182c.0337-.04143.00946-.08895.01616-.12783.0069-.03946-.27586-1.09407-.33221-1.31811-.05754-.22423-.40354-1.26313-.41162-1.2914-.00886-.02828-.0398-.1239-.08-.1188-.08512.01237-2.452.54665-2.60231.57865a2.46428,2.46428,0,0,0-.30364.084,2.66609,2.66609,0,0,0-.27546.13116c.0932.066.23389.10564.30955.15473s3.35047,1.756,3.4153,1.80624a1.0417,1.0417,0,0,0,.26423.10132" transform="translate(0)" style="fill: #473729;fill-rule: evenodd"/>
    </g>
    <g id="g66307">
      <path id="path66309" d="M2.5452,5.62405a1.19723,1.19723,0,0,1-.12946.04928c.11626-.19183.35763-.56981.49536-.7479a10.74077,10.74077,0,0,1,.80117-.9472c.23113-.21619.59821-.56393.70068-.65385.10324-.08954.15979-.13038.15979-.13038a.33416.33416,0,0,1,.0936-.01512c.04.02376.04217.05144.07409.13686.03763.11683.17773,1.08425.19625,1.215.01793.13038.0997.54861.1062.60693-.10206.0265-2.00212.37346-2.11621.41351-.069.02435-.29852.03515-.38147.07285" transform="translate(0)" style="fill: #473729;fill-rule: evenodd"/>
    </g>
    <g id="g66313">
      <path id="path66315" d="M6.08231,8.02975c-.04414-.22168-.16433-1.22622-.17339-1.36837-.00966-.14177-.14483-.809-.14483-.809a1.20888,1.20888,0,0,1,.2199-.00629c.11231.01218,1.94242.19478,2,.21108.05753.01689.16039.02906.19783.06931a6.01058,6.01058,0,0,0-1.07013.81663c-.42186.39113-.96254,1.00493-1.02934,1.08661" transform="translate(0)" style="fill: #473729;fill-rule: evenodd"/>
    </g>
    <g id="g66319">
      <path id="path66321" d="M9.09429,5.36194c-.20531.00255-2.662-.43119-2.78576-.45848-.12275-.02671-.35309-.05871-.35309-.05871-.057-.419-.19783-1.08151-.24315-1.30633-.0465-.22581-.13478-.59966-.15665-.77363-.025-.19124-.0134-.214.10818-.08188.06344.06892,3.23383,2.475,3.33,2.55454.09832.08031.14739.12527.10049.12449" transform="translate(0)" style="fill: #473729;fill-rule: evenodd"/>
    </g>
    <g id="g66325">
      <path id="path66327" d="M10.845,4.76635c-.18483.04025-.54226.12782-.61.14647-.0664.01885-.06384.0434-.09616.01728-.01714-.01315-.24945-.17868-.36728-.27234-.1198-.09346-2.999-2.614-3.05866-2.65683-.05931-.04379-.05419-.0595-.01281-.08326.04118-.02258.42778-.28647.51526-.3656.08631-.07933.11567-.08051.11567-.08051.05635.074.97259.95309,1.1582,1.11351.31684.27431.9322.81192,1.15249,1.00611.21931.19419.63959.61262.77023.73141.13123.12.37044.35638.38659.37268a.41146.41146,0,0,1,.04651.07108" transform="translate(0)" style="fill: #473729;fill-rule: evenodd"/>
    </g>
    <g id="g66331">
      <path id="path66333" d="M8.86608,1.00422C8.80972.94178,8.75672.89839,8.87731.85814,8.9979.81828,9.26883.706,9.44636.65491c.17616-.05046.23625-.07029.23625-.07029a10.33347,10.33347,0,0,0,.86777.9148c.27921.278,1.85671,1.79014,2.023,1.95861.1665.16828.67447.76283.67447.76283.10759-.1561.81969-2.24116.89023-2.36034.07035-.1184.5391-1.18185.57516-1.2759.03586-.09405.22266-.44493.22266-.44493.11546.02356.21379.02984.29.05125.0867.02532.30739.05144.36886.06518a.26462.26462,0,0,1,.10581.05125,1.43324,1.43324,0,0,0-.14738.3336c-.06247.15375-.36611.87534-.51211,1.22642-.1466.35127-.74324,2.10646-.80984,2.2229s-.16866.28667-.19526.35618c-.18187-.03731-1.60707.0159-1.60707.0159a1.3966,1.3966,0,0,0-.13123-.12605c-.06226-.04693-1.08569-1.075-1.23327-1.21719-.14739-.14157-1.71524-1.65466-1.79819-1.757-.06384-.07932-.27468-.22148-.40019-.358" transform="translate(0)" style="fill: #473729;fill-rule: evenodd"/>
    </g>
    <g id="g66337">
      <path id="path66339" d="M12.90426,2.349c-.15723-.2046-.506-.58651-.80806-.92914-.30167-.342-.64806-.76165-.735-.849-.08551-.08876-.305-.3391-.305-.3391a3.92609,3.92609,0,0,1,.8388-.149c.38246-.03671.823-.04869,1.04491-.06244.216-.01394.39743-.01394.535-.01492.13892-.00039.2668-.0053.2668-.0053-.1198.4522-.83743,2.349-.83743,2.349" transform="translate(0)" style="fill: #473729;fill-rule: evenodd"/>
    </g>
    <g id="g66343">
      <path id="path66345" d="M14.99935,4.69829c.07882-.13018.198-.30219.26443-.41155.06561-.11,1.21732-2.00652,1.31662-2.15713.09931-.15119.50561-.76832.57989-.88888.07409-.12194.23586-.43276.23586-.43276a1.99281,1.99281,0,0,1,.64.20853,1.89589,1.89589,0,0,1,.37635.22894c.06167.03633.11507.07265.11507.07265-.20749.29649-.28216.40292-.31684.46575-.0733.13843-.532.6725-.65615.829-.12394.15727-.26738.40821-.41181.56785-.14424.15983-.84235,1.15513-.95289,1.3075a2.54249,2.54249,0,0,0-.2061.32948c-.05143.10858-.03705.14412-.11744.11919-.09419-.02887-.344-.11133-.46974-.14255-.12591-.03083-.39724-.096-.39724-.096" transform="translate(0)" style="fill: #473729;fill-rule: evenodd"/>
    </g>
    <g id="g66349">
      <path id="path66351" d="M17.16179,5.37133c.17655-.2853.65812-1.03537.84649-1.29573.18778-.25977.82008-1.10507.96451-1.28218.14384-.17671.6126-.78992.69063-.88083.08019-.09032.03527.04064.02621.22875-.00848.17416-.1265,1.839-.12513,1.993a.55778.55778,0,0,1-.08393.3012.81689.81689,0,0,1-.30818.173c-.13773.04045-1.74223.70981-1.84469.73671a.71446.71446,0,0,1-.16591.02612" transform="translate(0)" style="fill: #473729;fill-rule: evenodd"/>
    </g>
    <g id="g66355">
      <path id="path66357" d="M19.518,7.51221c-.13792-.11938-.39014-.35972-.584-.53211-.19212-.17279-.53556-.45142-.68216-.5761a3.50738,3.50738,0,0,0-.39625-.32064,2.804,2.804,0,0,1,.559-.128c.1328-.03142.82619-.1671.89791-.19557a1.23663,1.23663,0,0,1,.19822-.06676c.09439-.01669.079-.05027.07.12193-.00926.1726-.04591,1.484-.04354,1.55236.00276.06716.02384.18241-.01912.14491" transform="translate(0)" style="fill: #473729;fill-rule: evenodd"/>
    </g>
    <g id="g66361">
      <path id="path66363" d="M20.54265,8.14959c-.06561.08227-.08788.09739-.08512.06538a4.32364,4.32364,0,0,1,.00847-.44689c.00532-.08993.03271-.35363.03271-.43375s.03449-.55.03784-.70608c.00236-.15767.05753-.78128.05458-.84843a5.02529,5.02529,0,0,1,.729-.13961c.18719-.02906,1.384-.27156,1.50165-.29217.11744-.02.198-.043.24354-.05262.04552-.00943-.01281.03848-.10936.11231-.09674.07383-.27782.25506-.41043.34342-.13241.08875-.96432,1.09839-1.1582,1.33382-.19468.235-.7929.97567-.84472,1.06462" transform="translate(0)" style="fill: #473729;fill-rule: evenodd"/>
    </g>
    <g id="g66367">
      <path id="path66369" d="M21.0643,10.37447c-.04926-.16572-.13143-.595-.1533-.699a1.91791,1.91791,0,0,0-.07231-.3336c.08689-.07717.09241-.11173.15921-.17083.0664-.05891.85121-.92659.995-1.05618.14285-.13018.73949-.72689.81121-.81132.07232-.08581.174-.27333.255-.35992.08216-.08678.57358-.67132.64648-.72944.07409-.05812.16355-.12685.16355-.12685a1.52228,1.52228,0,0,1,.22975.29591c.09438.1504.18837.25643.21871.31475a1.952,1.952,0,0,0,.1334.22678,4.41988,4.41988,0,0,1-.41379.33007,1.79967,1.79967,0,0,0-.22186.21442,1.21215,1.21215,0,0,1-.19034.22305c-.09912.08738-2.08,2.23645-2.147,2.302-.06837.06617-.12709.13686-.16847.1832a3.14494,3.14494,0,0,1-.24531.19694" transform="translate(0)" style="fill: #473729;fill-rule: evenodd"/>
    </g>
    <g id="g66373">
      <path id="path66375" d="M22.66371,4.5792a2.32587,2.32587,0,0,0-.27172.0434c-.06679.01512-1.85139.249-1.85139.249s.01774-.24289.02345-.35343c.00571-.11035.09911-1.47794.12611-1.59811a2.9317,2.9317,0,0,0,.04551-.32555c.00887-.064-.00118-.11094.02956-.13745.02266-.01865.05005.02376.07527.05321.03487.03967.02345.01277.09536.0919.07192.07952.28059.24367.37261.36128.09261.1188.86205.967.96215,1.08249.09911.11448.1793.23346.25713.33105a1.90079,1.90079,0,0,1,.136.20224" transform="translate(0)" style="fill: #473729;fill-rule: evenodd"/>
    </g>
    <g id="g66379">
      <path id="path66381" d="M21.93616,12.07067c-.04965.074-.08492.10584.00769.15512.09241.04889,2.27089.84137,2.53906.92619.26738.08483.905.33223,1.01831.37779a1.89976,1.89976,0,0,1,.21122.10269c.01261.16218.02483.29138.02345.49932a1.98768,1.98768,0,0,1-.0396.47576c-.229-.07874-.64275-.25486-.83743-.33419-.19507-.08011-.7452-.28491-.99288-.37385-.24749-.088-.68984-.25565-.90994-.33969-.22226-.08345-1.48982-.56667-1.59622-.59456.02759-.16434.03271-.45907.054-.58925a2.29508,2.29508,0,0,0-.02759-.50011c-.01458-.12743-.01537-.31966-.02266-.37817-.01261-.088.02739-.1074.10109-.1669.07251-.0589.41082-.36875.6189-.53957.20867-.17044,2.80113-2.403,2.87364-2.46226.0729-.0589.21339-.18594.21339-.18594s.24177.5971.29142.77932a1.68629,1.68629,0,0,1,.056.35049,6.82311,6.82311,0,0,0-.79151.55135c-.2329.1885-.50639.37052-.61516.45947-.10857.08934-1.847,1.4098-1.92035,1.46773a1.56425,1.56425,0,0,0-.25478.31926" transform="translate(0)" style="fill: #473729;fill-rule: evenodd"/>
    </g>
    <g id="g66385">
      <path id="path66387" d="M25.82136,12.59435c-.12768-.06951-.397-.138-.55683-.20028-.16-.06244-1.2323-.4251-1.33949-.45907a1.41777,1.41777,0,0,1-.16649-.04693c-.02818-.01787.107-.0752.15625-.12547.04808-.05027,1.64154-1.26627,1.71957-1.32969.078-.06225.15231-.16082.15-.03751-.00256.12037,0,.28432.00236.33125.013.23562.05872.74123.05872,1.03183,0,.14922,0,.322-.00493.43276-.00453.11054-.01182.309-.01911.40311" transform="translate(0)" style="fill: #473729;fill-rule: evenodd"/>
    </g>
    <g id="g66391">
      <path id="path66393" d="M25.44577,16.30357c-.03961.06951-.09675.16828-.13912.25919a2.40626,2.40626,0,0,1-.15585.27234.9683.9683,0,0,1-.18542.269c-.06167-.0322-1.23071-.70176-1.38795-.78089-.157-.07933-2.27188-1.27688-2.32311-1.31694-.05221-.04044-.05221-.09405-.05478-.18358-.00216-.08974-.00532-.41607-.00216-.51837.00335-.10171.00039-.26743.00039-.26743.23034.119.52078.257.68137.34165.16078.08463,1.40923.73494,1.635.85806.22541.12193.78126.38426.92944.49441.14679.10917.33792.21658.46738.30081a2.82337,2.82337,0,0,0,.35172.17711c.08058.03868.183.09464.183.09464" transform="translate(0)" style="fill: #473729;fill-rule: evenodd"/>
    </g>
    <g id="g66397">
      <path id="path66399" d="M24.11361,18.51981c-.18856.07972-2.648.32183-2.79777.32811-.149.00609-.35349.0216-.35349.0216-.01025-.25271-.0469-.5708-.05872-.7913-.01242-.22168-.04256-.62833-.0668-.8021-.025-.17357-.06955-.65464-.09182-.81388a1.16171,1.16171,0,0,1,.00158-.33065c.00729-.074.04039-.04948.091-.00354.03882.03829.65063.471.94776.70392.296.23248,1.93277,1.37191,2.04528,1.47559a2.41354,2.41354,0,0,0,.28295.21225" transform="translate(0)" style="fill: #473729;fill-rule: evenodd"/>
    </g>
    <g id="g66403">
      <path id="path66405" d="M19.94709,19.37444c-.44235.055-1.86577.16886-1.93158.15728-.06522-.01257-.08788-.04163-.03074-.07972.05793-.03731.46068-.323.56708-.39938a5.70789,5.70789,0,0,0,.534-.49186c.157-.16357.45694-.55921.54541-.66878a1.7396,1.7396,0,0,1,.25063-.27686c.00572.09857.01261.22817.02227.34009a14.06841,14.06841,0,0,1,.04295,1.41923" transform="translate(0)" style="fill: #473729;fill-rule: evenodd"/>
    </g>
    <g id="g66409">
      <path id="path66411" d="M20.89345,22.93408l-.04769.01414-.011-.04163c-.03586-.10446-.08887-2.68374-.10069-2.7664.34856-.02592,2.88447-.28884,3.03107-.33105.00887.055-.01537.05635-.02266.09994-.00729.04379-.47033.74025-.49555.7807-.02463.04064-.66167.78992-.8394.99157-.17694.20323-1.43268,1.16319-1.514,1.25273" transform="translate(0)" style="fill: #473729;fill-rule: evenodd"/>
    </g>
    <g id="g66415">
      <path id="path66417" d="M19.87224,23.06275c.01616.09719.11094.37974.0603.47007a.23831.23831,0,0,1-.2335-.07953c-.066-.0913-2.6963-2.5887-2.79915-2.722a2.5987,2.5987,0,0,0-.20355-.23072c.20906-.01865,2.23326-.01865,2.37809.00177a3.28214,3.28214,0,0,0,.467-.00373c.07626.161.29773,2.3576.33083,2.56416" transform="translate(0)" style="fill: #473729;fill-rule: evenodd"/>
    </g>
    <g id="g66421">
      <path id="path66423" d="M18.00172,24.6748a4.41819,4.41819,0,0,0-.25714-.41352c-.08177-.10249-.66048-.76243-.88865-1.00532-.22739-.24367-1.88371-2.12571-1.94479-2.16694-.0599-.04143-.02542-.035.05064-.05891.07487-.02258.225-.06028.35093-.08835a1.55925,1.55925,0,0,0,.23152-.07246c.20965.21756.29418.30926.55782.58081.26384.27234,2.13434,2.27749,2.33119,2.497.19645.2205.27487.31043.31526.36541a.61972.61972,0,0,1-.26108.139c-.15133.04653-.30147.16847-.4857.22325" transform="translate(0)" style="fill: #473729;fill-rule: evenodd"/>
    </g>
    <g id="g66427">
      <path id="path66429" d="M16.62378,25.22608c-.08552.05223-.33162.10524-.43842.15021-.10561.04418-.59191.137-.59191.137a10.75011,10.75011,0,0,0-.72728-.95113c-.22344-.29237-.86185-1.1088-1.0047-1.29769-.14286-.18869-1.52194-1.61381-1.52194-1.61381a2.75168,2.75168,0,0,0-.32276.46221c-.118.24328-1.77454,3.51371-1.78991,3.57871-.12552-.05694-.42167-.10368-.544-.15571a2.41806,2.41806,0,0,1-.34127-.15571,2.59736,2.59736,0,0,1,.319-.63893c.12315-.17985.10345-.08109.16079-.20538.05714-.12409.34718-.6513.42679-.8076.08039-.15649,1.1247-2.2172,1.1582-2.28651a1.5671,1.5671,0,0,1,.11823-.21874c.32354.04555,1.15386.0644,1.35445.06656a7.83859,7.83859,0,0,1,1.119,1.08269c.39251.463.66383.76675.96136,1.07581.29734.30827,1.56431,1.70335,1.66441,1.778" transform="translate(0)" style="fill: #473729;fill-rule: evenodd"/>
    </g>
    <g id="g66433">
      <path id="path66435" d="M11.63926,25.93881a1.317,1.317,0,0,1-.29378-.06734l-.04749-.01159.00926-.03c.11822-.19871.147-.34185.26561-.56255.11822-.22188.41083-.87377.47309-1.00179.06247-.128.18266-.42039.25675-.54154a3.25587,3.25587,0,0,1,.20925-.36344c.12985.16081.28059.32889.43073.49618.15173.16827.56985.5598.77674.77284a5.24914,5.24914,0,0,1,.44945.5219c.13536.17908.28176.37759.34758.4683.06522.0917.04275.11428-.172.15826-.22719.04438-.26265.04752-.5594.11408a3.55009,3.55009,0,0,1-.7655.09857c-.202-.00216-.21359.01316-.43211.00844a2.96,2.96,0,0,0-.30009-.00039,6.08363,6.08363,0,0,1-.64807-.05989" transform="translate(0)" style="fill: #473729;fill-rule: evenodd"/>
    </g>
    <g id="g66439">
      <path id="path66441" d="M12.94582,18.31694c-.029-.075-.12138-.27332-.16552-.40232a4.5553,4.5553,0,0,1-.13793-.60477c-.01872-.1506-.08059-.5488-.077-.60829a3.01017,3.01017,0,0,1,.05557-.40665,1.45392,1.45392,0,0,1,.07073-.26036c.02188-.04575.07744-.24151.11015-.325.03212-.084.03941-.15375.06877-.23464.02384-.06735.03369-.12037.06679-.20421a.94627.94627,0,0,1,.1935.32123,2.07185,2.07185,0,0,1,.12472.44867,3.05055,3.05055,0,0,1,.03311.72061c-.02779.21009-.04119.4575-.08138.65346a5.3784,5.3784,0,0,1-.15015.63186c-.04768.10917-.04768.20833-.11132.27037" transform="translate(0)" style="fill: #473729;fill-rule: evenodd"/>
    </g>
    <g id="g66445">
      <path id="path66447" d="M11.10049,17.09071a1.25931,1.25931,0,0,1-.00808-.25114c.00769-.06951.04118-.30925.07448-.47007a3.35108,3.35108,0,0,1,.18562-.51954,2.35211,2.35211,0,0,1,.318-.47616c.10108-.11368.227-.25957.25458-.28235.04137-.04673.055-.02062.06463.07992a1.00009,1.00009,0,0,1,.01458.27666,3.31512,3.31512,0,0,1-.13754.59789,1.19027,1.19027,0,0,1-.26147.47438c-.1462.153-.30738.36738-.36039.43355a.37694.37694,0,0,1-.14443.13686" transform="translate(0)" style="fill: #473729;fill-rule: evenodd"/>
    </g>
    <g id="g66451">
      <path id="path66453" d="M10.00944,15.9563c-.09576.05439-.16177.07108-.10758.00177.05359-.0697.20393-.38269.26029-.48793a2.80655,2.80655,0,0,1,.89062-.981c.20137-.117.215-.11879.29379-.13273.05458-.00884.04807.01571-.01793.13-.066.11448-.09183.22227-.20966.421a2.48045,2.48045,0,0,1-.412.55745,2.15649,2.15649,0,0,1-.49417.37758c-.12158.07658-.14581.0752-.20335.11388" transform="translate(0)" style="fill: #473729;fill-rule: evenodd"/>
    </g>
    <g id="g66457">
      <path id="path66459" d="M10.12337,14.35979c.094-.06834.19015-.13431.28847-.197.03586-.02317.07172-.04457.10817-.06695.03922-.02376.06719-.05419.10444-.07952.02049-.01316.03527-.02494.053-.0377A.42614.42614,0,0,0,10.748,13.928c.02542-.02847.01123-.04575-.0201-.05341a.42235.42235,0,0,0-.22088-.01728c-.15015.02749-.227.01983-.33.03868-.08887.0163-.097.03515-.19665.05694a1.62994,1.62994,0,0,0-.31448.12606,2.68722,2.68722,0,0,0-.49457.245,2.84108,2.84108,0,0,0-.4191.342,2.8332,2.8332,0,0,0,.6857-.03141,1.86194,1.86194,0,0,0,.6855-.27489" transform="translate(0)" style="fill: #473729;fill-rule: evenodd"/>
    </g>
    <g id="g66463">
      <path id="path66465" d="M10.802,12.86875c-.21044.05792-.2796.09071-.40945.13509a1.46668,1.46668,0,0,0-.29477.0913,2.78517,2.78517,0,0,1-.881.15806,7.36272,7.36272,0,0,1-.79329-.012c-.27408-.02219-.51723-.085-.62777-.09229a1.40916,1.40916,0,0,1-.22226-.05576c-.02995-.0057-.038-.02219.06187-.07795a1.984,1.984,0,0,1,.25911-.08856c.13241-.062.22955-.09052.32394-.12665.13714-.05281.3594-.11388.55683-.16709a1.95743,1.95743,0,0,1,.58541-.06146c.15862.01041.34758.02022.48038.01885a2.39309,2.39309,0,0,1,.45339.06892,1.259,1.259,0,0,1,.38344.11879c.0735.05439.06187.045.12414.09072" transform="translate(0)" style="fill: #473729;fill-rule: evenodd"/>
    </g>
    <g id="g66469">
      <path id="path66471" d="M13.05242,9.93132c-.06818.11-.06818.13019-.13557.02867a4.54677,4.54677,0,0,1-.17182-.603,4.67887,4.67887,0,0,1-.068-.99628,6.59889,6.59889,0,0,1,.05458-.6945,1.26426,1.26426,0,0,1,.21812-.65091,1.50583,1.50583,0,0,1,.2333.63108,4.43413,4.43413,0,0,1,.0798.795c.00394.10524.00078.159-.00119.32692-.00078.10662-.03763.33144-.04709.4471-.00965.11584-.04.24975-.05064.36717a.656.656,0,0,1-.05812.23739.95572.95572,0,0,1-.0534.11133" transform="translate(0)" style="fill: #473729;fill-rule: evenodd"/>
    </g>
    <g id="g66475">
      <path id="path66477" d="M13.90331,10.34437a1.6431,1.6431,0,0,0,.44394-.55214,5.51866,5.51866,0,0,0,.24334-.6246,6.75465,6.75465,0,0,0,.15133-.75124c-.17734.14-.4065.43885-.51566.54056a1.41534,1.41534,0,0,0-.26994.48125c-.04552.13215-.10818.42255-.14463.54606a.419.419,0,0,0-.01832.19635.40921.40921,0,0,0,.028.14864c.01537.02415.03448.0322.082.01512" transform="translate(0)" style="fill: #473729;fill-rule: evenodd"/>
    </g>
    <g id="g66481">
      <path id="path66483" d="M14.59063,11.01778a1.83167,1.83167,0,0,1,.57792-.84687c.32019-.267.28945-.25231.46068-.32653s.17556-.09032.28906-.13882c.11251-.04889.0331.04536-.016.13784a2.68787,2.68787,0,0,1-.24.43669,1.75281,1.75281,0,0,1-.32925.33517,2.74559,2.74559,0,0,1-.509.34931.606.606,0,0,1-.23349.05321" transform="translate(0)" style="fill: #473729;fill-rule: evenodd"/>
    </g>
    <g id="g66487">
      <path id="path66489" d="M15.30954,11.868a1.40857,1.40857,0,0,1-.16315.04418c-.03921.00589-.09281.02415-.08631-.031a.36248.36248,0,0,1,.03764-.11153,1.41781,1.41781,0,0,1,.09083-.18654.58345.58345,0,0,1,.14148-.13293,1.7324,1.7324,0,0,1,.38462-.24269c.16433-.06774.22423-.12723.35133-.18732a1.61771,1.61771,0,0,1,.362-.1343,2.06769,2.06769,0,0,1,.33556-.056,2.40677,2.40677,0,0,1-.51782.56706,2.762,2.762,0,0,1-.58324.36306c-.13281.04045-.26837.08443-.3529.108" transform="translate(0)" style="fill: #473729;fill-rule: evenodd"/>
    </g>
    <g id="g66493">
      <path id="path66495" d="M18.53126,12.825a4.20352,4.20352,0,0,1-.90875.21913c-.32058.03141-.58619.03868-.97535.04182a5.3307,5.3307,0,0,1-.84353-.05459c-.12512-.0214-.21536-.0534-.27428-.0644a.62052.62052,0,0,1-.2398-.0968c-.03428-.03868-.12945-.098.00316-.139.13241-.04.68294-.2421.8788-.29511a1.95769,1.95769,0,0,1,.548-.0648c.22856.013.32413.0161.493.03083a2.65351,2.65351,0,0,1,.46935.07167c.14739.03887.40531.09915.54915.14883a.58571.58571,0,0,1,.23054.12763c.03389.0324.06975.07481.06975.07481" transform="translate(0)" style="fill: #473729;fill-rule: evenodd"/>
    </g>
    <g id="g66499">
      <path id="path66501" d="M17.49333,14.48174a3.231,3.231,0,0,1-.72018-.03593,2.94959,2.94959,0,0,1-.65083-.19695,4.58433,4.58433,0,0,1-.57811-.29786.28521.28521,0,0,1-.11054-.14059,1.38765,1.38765,0,0,1,.37-.01747,1.50828,1.50828,0,0,1,.53674.06636c.211.07776.43762.20244.58954.269a3.53457,3.53457,0,0,1,.4526.23288.47025.47025,0,0,1,.11074.12056" transform="translate(0)" style="fill: #473729;fill-rule: evenodd"/>
    </g>
    <g id="g66505">
      <path id="path66507" d="M16.289,16.14653a1.24664,1.24664,0,0,1-.29379-.15964,3.90908,3.90908,0,0,0-.37851-.22894,1.39525,1.39525,0,0,1-.35783-.27057c-.07172-.09013-.26876-.43748-.39427-.64777-.12631-.2099-.14877-.28-.04454-.2046.10444.07619.21123.11742.34285.20166a3.43246,3.43246,0,0,1,.5862.48773,3.20172,3.20172,0,0,1,.42758.56236.66353.66353,0,0,1,.11231.25977" transform="translate(0)" style="fill: #473729;fill-rule: evenodd"/>
    </g>
    <g id="g66511">
      <path id="path66513" d="M14.73593,17.2a3.717,3.717,0,0,1-.69023-1.06521,2.82052,2.82052,0,0,1-.21005-.80838c-.0061-.05184-.0065-.2099-.0065-.2099-.00276-.08031.00926-.05027.08591.02434a4.06285,4.06285,0,0,1,.38738.46222,1.79257,1.79257,0,0,0,.16512.22168,1.1922,1.1922,0,0,1,.25458.60633,2.133,2.133,0,0,1,.01379.76892" transform="translate(0)" style="fill: #473729;fill-rule: evenodd"/>
    </g>
    <g id="g66517">
      <path id="path66519" d="M10.95752,11.90865a3.70349,3.70349,0,0,1-.7119-.10564,2.15943,2.15943,0,0,1-.65477-.26252c-.16788-.11762-.32334-.196-.45162-.29492a1.07473,1.07473,0,0,1-.16748-.1779.7421.7421,0,0,1-.055-.08306.47127.47127,0,0,1,.171-.002.44269.44269,0,0,1,.12354.03593c.03842.01394.439.08306.59585.13529a1.277,1.277,0,0,1,.533.23759,6.18453,6.18453,0,0,0,.53438.3821c.10049.06028.24354.13057.083.13509" transform="translate(0)" style="fill: #473729;fill-rule: evenodd"/>
    </g>
    <g id="g66523">
      <path id="path66525" d="M11.4505,11.20341c-.12847-.0591-.306-.16808-.4065-.22247a3.01858,3.01858,0,0,1-.37339-.21756,2.663,2.663,0,0,1-.38423-.31887,1.41325,1.41325,0,0,1-.26029-.35088c-.1066-.19027-.20551-.39742-.24236-.46575-.03625-.06872-.078-.13764.11527-.0648.19349.07364.24354.11408.38206.17044a1.67758,1.67758,0,0,1,.31467.20185,1.11612,1.11612,0,0,1,.18778.1506c.03606.041.07941.08777.19153.20224a1.99287,1.99287,0,0,1,.46422.82c.00316.01571.01124.09523.01124.09523" transform="translate(0)" style="fill: #473729;fill-rule: evenodd"/>
    </g>
    <g id="g66529">
      <path id="path66531" d="M11.91616,10.45327a3.40044,3.40044,0,0,1-.5458-.78541,4.93012,4.93012,0,0,1-.24492-.646,4.6151,4.6151,0,0,1-.11212-.47262.22194.22194,0,0,1-.00157-.116,4.01482,4.01482,0,0,1,.35723.44238,2.76969,2.76969,0,0,1,.28886.47831c.03764.09091.10365.16985.1332.26331a2.139,2.139,0,0,1,.0798.2582c.01734.1023.04355.22561.052.34264a1.5018,1.5018,0,0,1-.0067.23523" transform="translate(0)" style="fill: #473729;fill-rule: evenodd"/>
    </g>
    <g id="g66577">
      <path id="path66579" d="M48.34594,1.02781H31.3717V24.97312L33.68416,23.836V3.33278H47.20488l1.14106-2.305" transform="translate(0)" style="fill: #473729"/>
    </g>
    <g id="g66583">
      <path id="path66585" d="M48.34594,6.60811l-1.14658-2.306h-12.543L34.65754,23.836l2.31227,1.14081.002-8.6332H46.241l-1.14875-2.30518H36.971v-.96939h8.12575l1.14205-2.30281H36.971V6.60811Z" transform="translate(0)" style="fill: #473729"/>
    </g>
    <g id="g66589">
      <path id="path66591" d="M52.3258.81209V24.9732l2.31267-1.13708V1.94976Z" transform="translate(0)" style="fill: #473729"/>
    </g>
    <g id="g66595">
      <path id="path66597" d="M57.92453.81209V24.9732l-2.31286-1.13708V1.94976Z" transform="translate(0)" style="fill: #473729"/>
    </g>
    <g id="g66601">
      <path id="path66603" d="M81.62749.81209V24.9732l2.31207-1.13708V1.94976Z" transform="translate(0)" style="fill: #473729"/>
    </g>
    <g id="g66607">
      <path id="path66609" d="M87.22525.81209V24.9732l-2.31168-1.13708V1.94976Z" transform="translate(0)" style="fill: #473729"/>
    </g>
    <g id="g66613">
      <path id="path66615" d="M73.59675,16.41555V1.94972L71.28428.81206v15.1831c0,2.23036-.54048,3.67139-2.93826,3.67139a4.79761,4.79761,0,0,1-3.73353-2.023l-.87564,2.376a6.58812,6.58812,0,0,0,4.90689,1.95292c2.67246,0,4.953-1.90815,4.953-5.557" transform="translate(0)" style="fill: #473729"/>
    </g>
    <g id="g66619">
      <path id="path66621" d="M76.8833,16.39042V.81205L74.56985,1.94972V16.63821a5.92335,5.92335,0,0,1-5.99062,6.30486,7.47016,7.47016,0,0,1-5.511-2.2119l-2.38892.88083A10.20425,10.20425,0,0,0,68.513,25.24137c3.91834,0,8.37027-2.57182,8.37027-8.851" transform="translate(0)" style="fill: #473729"/>
    </g>
  </g>
</svg>
