<?xml version="1.0" encoding="utf-8"?>
<!-- Generator: Adobe Illustrator 23.0.4, SVG Export Plug-In . SVG Version: 6.00 Build 0)  -->
<svg version="1.1" id="AA" xmlns="http://www.w3.org/2000/svg" xmlns:xlink="http://www.w3.org/1999/xlink" x="0px" y="0px"
	 viewBox="0 0 122.6551208 26" style="enable-background:new 0 0 122.6551208 26;" xml:space="preserve">
<style type="text/css">
	.st0{fill:url(#SVGID_1_);}
	.st1{fill:#D7192C;}
	.st2{fill:url(#SVGID_2_);}
	.st3{fill:url(#SVGID_3_);}
</style>
<g>
	<linearGradient id="SVGID_1_" gradientUnits="userSpaceOnUse" x1="42.5500221" y1="36.1876183" x2="42.5500221" y2="12.223156">
		<stop  offset="0" style="stop-color:#A80E1F"/>
		<stop  offset="0.8" style="stop-color:#D7192C"/>
	</linearGradient>
	<path class="st0" d="M9.4150286,12.2155523c-0.1114922,0.4274797-0.1862659,0.9969444-0.2422857,1.4238787h-7.177763v4.0212059
		c0.7122216-0.0562077,1.5735953-0.0312271,2.246671-0.0312271h3.166265v1.4238796H1.9949796v4.2743435h7.1410065
		c0.0736637,0.5687313,0.1675501,0.9963989,0.297966,1.5669746H1.8127576c-0.5777417,0-1.2425591-0.0620956-1.8127576-0.0793629
		v-12.589572c0.5701985-0.0194883,1.2350159-0.0101204,1.8127576-0.0101204H9.4150286z M13.1575871,12.2155523
		c1.1021919,1.7095232,2.5960484,3.5856743,3.8659782,4.9667387c1.3263245-1.4181776,2.7830658-3.2572155,3.8661633-4.9667387
		h2.3726883c-1.8303852,2.4213686-3.5858459,4.5820551-5.0807915,6.226737
		c1.606081,1.7932892,3.6605988,4.3144112,5.1741104,6.4523182h-2.3908577
		c-1.2140789-1.8513393-2.6519146-3.6236916-4.0155239-5.1002789c-1.3637962,1.4942322-2.6895752,3.1052799-4.0157118,5.1002789
		h-2.2973671c1.8856888-2.5648403,3.6235037-4.715971,5.136095-6.4335823
		c-1.4576635-1.5869884-3.1940117-3.8241043-5.0431309-6.2454729H13.1575871z M31.1501808,12.2155523
		c1.7185135,0,2.8122787,0.2467251,3.7280197,0.8830633c0.8777199,0.6352282,1.4488564,1.816802,1.4488564,2.9362812v0.2619438
		c0,1.344326-0.4405136,2.3904991-1.224556,3.0801296c-0.8962708,0.7862225-2.2338066,1.1007233-3.9146614,1.1007233h-3.8358593
		v4.416914H25.358448V12.2256727c0.5696526-0.0194883,1.1593399-0.0101204,1.7570953-0.0101204H31.1501808z M27.3519802,18.9103622
		h3.7423496c1.176609,0,2.0394516-0.1950874,2.544075-0.6620522c0.5040779-0.4675274,0.6945763-1.1483154,0.6945763-1.9514694
		v-0.2050018c0-0.7090807-0.2838211-1.3568182-0.7133141-1.749197c-0.5230026-0.4849844-1.4424248-0.7032108-2.6565056-0.7032108
		h-3.6111813V18.9103622z M43.8955269,12.2155523c1.6997948,0,3.0799408,0.2099867,3.9763947,0.751894
		c0.9163017,0.5610189,1.4191017,1.5750628,1.4191017,2.8253155v0.2050209c0,1.5515299-0.801857,2.7858324-2.1467285,3.5151148
		c1.0834579,1.2510052,2.4474411,3.3867111,3.3073463,5.3817101h-2.1109123
		c-0.821701-1.8513393-2.0174026-3.8463383-3.1194229-4.986021h-4.3351631v4.986021h-2.137001V12.2256727
		c0.5700302-0.0194883,1.2796745-0.0101204,1.8770714-0.0101204H43.8955269z M40.8861427,18.3412552h5.1579552
		c0.8398895-0.4274788,1.2524719-1.2589054,1.2524719-2.3607407v-0.1139002c0-0.7087231-0.2055473-1.2803888-0.6357918-1.61656
		c-0.5044365-0.4114904-1.4207382-0.6106234-2.7283287-0.6106234h-3.0463066V18.3412552z M62.0014725,12.2155523
		c-0.1127892,0.4274797-0.1866417,0.9969444-0.2432251,1.4238787h-7.1961212v4.0212059
		c0.7124062-0.0562077,1.5926857-0.0312271,2.26614-0.0312271h3.147171v1.4238796h-5.413311v4.2743435h7.1590271
		c0.074585,0.5687313,0.1675301,0.9963989,0.2986984,1.5669746h-7.6206665c-0.5786476,0-1.2623863-0.0620956-1.8314972-0.0793629
		v-12.589572c0.5691109-0.0194883,1.2528496-0.0101204,1.8314972-0.0101204H62.0014725z M72.6733932,13.944376
		c-1.3270569-0.3176231-2.4285126-0.4296808-3.6229324-0.4296808c-2.2422714,0-3.0082932,0.8209677-3.0082932,1.8305721
		c0,0.9339476,0.7472839,1.6430273,2.3726883,2.0732527l1.1389236,0.2987003
		c1.4942322,0.3912868,2.3715973,0.7842293,2.9884644,1.3070431c0.6914368,0.5797539,0.9335556,1.250988,0.9335556,2.3348389
		c0,2.2036686-1.6624756,3.6791649-4.8746796,3.6791649c-1.7179718,0-3.2129364-0.2792301-4.6685867-0.7836838l0.3163452-1.45821
		c1.3634186,0.4504299,2.7834244,0.7289257,4.3522415,0.7289257c2.0556107,0,2.9513321-0.8398914,2.9513321-2.0905209
		c0-0.4669628-0.1491547-0.9545059-0.4111176-1.1962662c-0.3549042-0.3556404-0.9897766-0.6344948-2.3161011-0.9908676
		l-1.102211-0.2983418c-2.8018036-0.7649307-3.6420517-1.9610081-3.6420517-3.5852995
		c0-2.1107244,1.9424591-3.3620872,4.9121704-3.3620872c1.4762115,0,2.877121,0.2237568,3.9223709,0.5228138L72.6733932,13.944376z
		 M84.2972641,13.944376c-1.3270569-0.3176231-2.428154-0.4296808-3.6240463-0.4296808
		c-2.2411575,0-3.0071945,0.8209677-3.0071945,1.8305721c0,0.9339476,0.7472992,1.6430273,2.3730545,2.0732527l1.1385727,0.2987003
		c1.4938583,0.3912868,2.3723145,0.7842293,2.9877167,1.3070431c0.6918259,0.5797539,0.9346771,1.250988,0.9346771,2.3348389
		c0,2.2036686-1.6624985,3.6791649-4.8754272,3.6791649c-1.7176132,0-3.2114716-0.2792301-4.6685867-0.7836838l0.3163452-1.45821
		c1.364151,0.4504299,2.7837982,0.7289257,4.3522415,0.7289257c2.0548706,0,2.9513474-0.8398914,2.9513474-2.0905209
		c0-0.4669628-0.1488113-0.9545059-0.410759-1.1962662c-0.3545456-0.3556404-0.9901505-0.6344948-2.3157425-0.9908676
		l-1.1025696-0.2983418c-2.801796-0.7649307-3.6420517-1.9610081-3.6420517-3.5852995
		c0-2.1107244,1.9431763-3.3620872,4.912529-3.3620872c1.475853,0,2.8767624,0.2237568,3.9220123,0.5228138L84.2972641,13.944376z"
		/>
	<path class="st1" d="M73.7208633,6.4120817c-0.2105255-0.2963109-0.4078217-0.5369596-0.5900421-0.7169809
		c0.6458969-0.2270675,1.0445175-0.7715511,1.0445175-1.4347138c0-0.3787968-0.1355667-0.7638199-0.372551-1.0112784
		c-0.3361664-0.3466301-0.8575134-0.5281372-1.6926117-0.5281372H68.781517
		c-0.0778961,0.8163779-0.1190338,1.6997793-0.1190338,2.5145018c0,0.8093805,0.0407791,1.7007012,0.1204987,2.5161572h1.5405121
		C70.2559052,7.0717449,70.2246552,6.528183,70.2033615,5.84794h1.5485992
		c0.1120529,0.136662,0.2983246,0.3901777,0.4919434,0.6965895c0.2259598,0.3556409,0.4004669,0.7987332,0.5955582,1.2071009
		h1.7209167C74.334053,7.3432627,74.0889969,6.9310389,73.7208633,6.4120817z M72.2648392,5.0326719h-2.0633163
		c0.0014648-0.4083676,0.0161591-0.8163776,0.0466461-1.3601282h1.3546219c0.4978333,0,0.7410583,0.0775201,0.8953629,0.2432261
		c0.0929413,0.0918539,0.1484146,0.2737186,0.1484146,0.4289281C72.6465683,4.6134691,72.5073318,4.8963675,72.2648392,5.0326719z
		 M54.1498985,5.2782683c-0.0021973,0.8448386-0.0317688,1.6579061-0.1212349,2.473362h-1.3254013
		c-0.0856094-0.8154559-0.1194115-1.6305361-0.1210518-2.473362c-0.0020294-0.8797336,0.0424194-1.7409191,0.1210518-2.557297
		h1.3265114C54.1025162,3.5373492,54.1519356,4.4007359,54.1498985,5.2782683z M77.1351395,5.2782683
		c-0.0022049,0.8448386-0.032341,1.6579061-0.1212616,2.473362h-1.3255692
		c-0.0863419-0.8154559-0.1197891-1.6305361-0.121254-2.473362c-0.0018234-0.8797336,0.0426254-1.7409191,0.1216125-2.557297
		h1.3259506C77.0873718,3.5373492,77.1369629,4.4007359,77.1351395,5.2782683z M83.3254929,5.0436954
		c-0.4838791-0.9539618-0.9177704-1.6426694-1.3259659-2.3227241h-1.573204
		c-0.4001083,0.6800547-0.8398895,1.3645298-1.3226547,2.3168361c-0.4871674,0.9580059-0.9258575,2.0339375-1.1995544,2.7138228
		h1.6264725c0.0988312-0.2717056,0.2189789-0.6798854,0.3472137-0.9515724h2.6691589
		c0.1289749,0.271687,0.2439651,0.6798668,0.3493958,0.9515724h1.6242905
		C84.2322388,6.9361744,83.8111954,6.0013247,83.3254929,5.0436954z M80.2437286,5.84794
		c0.3266144-0.6800733,0.628624-1.3415804,0.9684601-1.9575274c0.3343277,0.6003339,0.6356049,1.2774541,0.970314,1.9575274
		H80.2437286z M60.4993401,5.068676c0.3629951-0.203177,0.5933571-0.5959315,0.5933571-1.0195365
		c0-0.3931305-0.1131477-0.6910965-0.3679428-0.9078555c-0.4280243-0.3637292-1.2129898-0.4203126-2.0471611-0.4203126h-2.8271599
		c-0.0800972,0.8163779-0.1214256,1.706589-0.1214256,2.5145018c0,0.8093805,0.0363617,1.5645847,0.1214256,2.5161572h2.9351692
		c1.0375404,0,1.678112-0.1206908,2.0747223-0.3914752c0.3047562-0.2105136,0.4956322-0.6284375,0.4956322-1.0900779
		C61.355957,5.7255936,61.0438423,5.2916803,60.4993401,5.068676z M57.3150749,3.6725438h1.302433
		c0.5257683,0,0.7017441,0.0606277,0.8521957,0.2130909c0.0773315,0.0778961,0.1232681,0.2130907,0.1232681,0.3663061
		c0,0.2101564-0.0846863,0.3723636-0.2401047,0.5090256h-2.0833549C57.2741051,4.3525987,57.2891731,4.0807233,57.3150749,3.6725438
		z M59.6883049,6.6101046c-0.1451263,0.1366806-0.3512383,0.1899533-0.7107353,0.1899533h-1.6624947
		c-0.0332413-0.4083676-0.0455627-0.8154559-0.0472145-1.0873313h1.8741188c0.2718735,0,0.4105682,0.0235138,0.5318222,0.1274819
		c0.113884,0.0968204,0.1671562,0.2097993,0.1671562,0.3720064C59.8409576,6.3836017,59.790638,6.5083375,59.6883049,6.6101046z
		 M67.3787613,7.7516303H62.629364c-0.0679626-0.8154559-0.1216125-1.7071342-0.1216125-2.5130343
		c0-0.8101139,0.0470276-1.7012467,0.1208801-2.5176246h4.7508621c-0.0308456,0.4081795-0.0510483,0.6800547-0.0657578,1.0878768
		h-3.2305603c-0.0264511,0.2718751-0.0363846,0.6800549-0.0363846,0.9521182h2.9454803v0.9517603h-2.9454803
		c0.0007553,0.2718754,0.0128708,0.6789637,0.037117,1.0873313h3.2338715
		C67.3339539,7.0717449,67.3541565,7.4799247,67.3787613,7.7516303z"/>
	<linearGradient id="SVGID_2_" gradientUnits="userSpaceOnUse" x1="89.0005646" y1="27.8958569" x2="120.6445007" y2="9.6262236">
		<stop  offset="0" style="stop-color:#A80E1F"/>
		<stop  offset="0.5" style="stop-color:#D7192C"/>
	</linearGradient>
	<path class="st2" d="M94.0815582,19.8905849c7.5604019-7.6006165,18.375412-11.8228168,25.5441666-12.0289288l-2.4559021,6.4071341
		c-2.926712,6.8088808-7.9426804,11.8099508-29.2183685,11.8099508L94.0815582,19.8905849z"/>
	<linearGradient id="SVGID_3_" gradientUnits="userSpaceOnUse" x1="101.2147675" y1="11.9568071" x2="122.4625778" y2="-0.3106214">
		<stop  offset="0" style="stop-color:#F68400"/>
		<stop  offset="0.85" style="stop-color:#FCD100"/>
	</linearGradient>
	<path class="st3" d="M101.4747849,12.4071608l6.8968735-6.9846873C111.7025223,2.1037452,113.0134048,0,122.6419144,0
		l-1.5869904,4.1343722C114.5530014,4.8691669,108.0224304,7.7051487,101.4747849,12.4071608z"/>
</g>
</svg>
