<?xml version="1.0" encoding="utf-8"?>
<!-- Generator: Adobe Illustrator 16.0.0, SVG Export Plug-In . SVG Version: 6.00 Build 0)  -->
<!DOCTYPE svg PUBLIC "-//W3C//DTD SVG 1.0//EN" "http://www.w3.org/TR/2001/REC-SVG-20010904/DTD/svg10.dtd">
<svg version="1.0" id="AV" xmlns="http://www.w3.org/2000/svg" xmlns:xlink="http://www.w3.org/1999/xlink" x="0px" y="0px"
	 width="157px" height="26px" viewBox="0 0 157 26" enable-background="new 0 0 157 26" xml:space="preserve">
<g opacity="0.7">
	<path fill="#474747" d="M112.239,0.5c0,0,2.181,9.449,8.529,17.001c0,0-7.369-0.234-9.95-5.237
		C108.447,7.667,110.115,2.965,112.239,0.5z"/>
	<path fill="#474747" d="M123.171,20.055c2.407,2.277,5.287,4.209,8.709,5.396c0,0-4.588,0.379-7.355-0.948
		c-2.769-1.327-5.649-3.564-7.432-3.716s-2.824-0.25-3.299-0.731H123.171z"/>
	<path fill="#474747" d="M127.273,20.265c-1.119-2.673-6.505-2.764-6.505-2.764s1.459,1.627,2.402,2.554
		C123.171,20.055,126.458,19.962,127.273,20.265z"/>
	<path fill="#474747" d="M38.502,8.387h3.286l2.982,7.837l2.882-7.837h3.388l-5.176,12.235c0,0-0.575,0-1.094,0
		c-0.518,0-1.264-0.051-2.022-2.073C41.99,16.527,38.502,8.387,38.502,8.387z"/>
	<rect x="52.051" y="8.387" fill="#474747" width="3.235" height="12.235"/>
	<circle fill="#474747" cx="53.668" cy="4.949" r="1.871"/>
	<path fill="#474747" d="M80.97,20.622h-3.337V12.28c0,0,0-1.77-1.871-1.365c-1.521,0.329-2.629,1.264-2.629,1.264v8.443h-3.336
		V8.387c0,0,2.932-0.91,3.185,1.163c0,0,1.871-1.567,4.196-1.567s3.792,1.668,3.792,3.387V20.622z"/>
	<path fill="#474747" d="M67.572,18.512c0,0,0-5.373,0-6.333c0-1.416-0.582-4.272-4.551-4.247C59.23,7.956,57.814,9.55,57.814,9.55
		l1.264,2.022c0,0,0.606-1.011,3.033-1.011s2.124,2.123,2.124,2.123c-6.674-0.101-7.027,2.68-7.027,4.348s1.264,3.69,3.741,3.69
		s3.741-1.213,3.741-1.213c0.101,1.062,1.314,1.112,1.314,1.112h1.921C67.622,20.622,67.572,18.512,67.572,18.512z M64.387,17.513
		c0,0-0.859,0.632-2.225,0.632s-1.77-0.885-1.77-1.567c0-0.783,0.455-1.719,3.994-1.517V17.513z"/>
	<path fill="#474747" d="M104.198,18.512c0,0,0-5.373,0-6.333c0-1.416-0.581-4.272-4.55-4.247c-3.792,0.024-5.207,1.618-5.207,1.618
		l1.264,2.022c0,0,0.606-1.011,3.033-1.011s2.124,2.123,2.124,2.123c-6.674-0.101-7.028,2.68-7.028,4.348s1.265,3.69,3.742,3.69
		c2.477,0,3.74-1.213,3.74-1.213c0.102,1.062,1.314,1.112,1.314,1.112h1.922C104.249,20.622,104.198,18.512,104.198,18.512z
		 M101.014,17.513c0,0-0.859,0.632-2.225,0.632s-1.77-0.885-1.77-1.567c0-0.783,0.455-1.719,3.994-1.517V17.513z"/>
	<path fill="#474747" d="M92.345,11.673c0,0-1.087-1.112-3.235-1.112c-2.376,0-3.286,2.326-3.286,4.297s1.466,3.337,3.589,3.337
		c1.593,0,2.832-0.961,2.832-0.961l0.859,2.376c0,0-1.795,1.265-4.651,1.265c-1.972,0-5.814-1.314-5.814-6.067
		c0-4.752,3.135-6.803,6.168-6.774c2.705,0.025,3.767,0.96,3.767,0.96L92.345,11.673z"/>
	<path fill="#474747" d="M34.068,3.634h-2.478L25.12,20.622h3.387l1.365-4.298h5.865l1.719,4.298h3.387L34.068,3.634z
		 M30.998,13.605l1.832-5.115l1.832,5.115H30.998z"/>
</g>
</svg>
