<?xml version="1.0" encoding="utf-8"?>
<!-- Generator: Adobe Illustrator 16.0.0, SVG Export Plug-In . SVG Version: 6.00 Build 0)  -->
<!DOCTYPE svg PUBLIC "-//W3C//DTD SVG 1.1//EN" "http://www.w3.org/Graphics/SVG/1.1/DTD/svg11.dtd">
<svg version="1.1"
	 id="Layer_1" sodipodi:docname="AJAX.svg" inkscape:version="0.48.1 " xmlns:dc="http://purl.org/dc/elements/1.1/" xmlns:cc="http://creativecommons.org/ns#" xmlns:rdf="http://www.w3.org/1999/02/22-rdf-syntax-ns#" xmlns:sodipodi="http://sodipodi.sourceforge.net/DTD/sodipodi-0.dtd" xmlns:svg="http://www.w3.org/2000/svg" xmlns:inkscape="http://www.inkscape.org/namespaces/inkscape"
	 xmlns="http://www.w3.org/2000/svg" xmlns:xlink="http://www.w3.org/1999/xlink" x="0px" y="0px" width="157px" height="26px"
	 viewBox="0 0 157 26" enable-background="new 0 0 157 26" xml:space="preserve">
<sodipodi:namedview  inkscape:pageopacity="0" fit-margin-right="0" inkscape:window-height="1004" inkscape:pageshadow="2" fit-margin-bottom="0" inkscape:window-maximized="1" inkscape:window-y="-8" inkscape:window-x="-8" inkscape:window-width="1280" inkscape:current-layer="Layer_1" id="namedview37" bordercolor="#666666" inkscape:zoom="1.3855368" inkscape:cx="358.12937" showgrid="false" inkscape:cy="36.629003" fit-margin-top="0" pagecolor="#ffffff" borderopacity="1" fit-margin-left="0" objecttolerance="10" gridtolerance="10" guidetolerance="10">
	</sodipodi:namedview>
<g id="g3" transform="translate(0,-3.1386552e-6)" opacity="0.6">
	<path id="path19" inkscape:connector-curvature="0" fill="#2E2E2E" d="M43.889,5.736h2.854v15.291c0,2.377-1.734,3.973-4.142,3.973
		h-1.117v-2.686h0.81c0.979,0,1.597-0.449,1.597-1.513L43.889,5.736L43.889,5.736L43.889,5.736z M43.889,0h2.854v2.854h-2.854V0
		L43.889,0z"/>
	<path id="path21" inkscape:connector-curvature="0" fill="#2E2E2E" d="M51.437,11.555c0.056-2.154,1.315-3.301,2.995-3.301
		c1.679,0,2.909,1.146,2.992,3.301H51.437L51.437,11.555L51.437,11.555z M60.279,13.904v-2.35c0-3.665-2.717-5.986-5.848-5.986
		c-2.744,0-5.85,1.789-5.85,7.303c0,5.818,3.386,7.219,6.297,7.219c1.9,0,3.721-0.674,5.117-2.295l-2.067-1.762
		c-0.841,0.865-2.017,1.369-3.106,1.369c-1.959,0-3.386-1.176-3.386-3.498H60.279L60.279,13.904z"/>
	<path id="path23" inkscape:connector-curvature="0" fill="#2E2E2E" d="M62.541,1.426h2.854v4.311h2.069v2.182h-2.069v8.253
		c0,0.782,0.309,1.063,1.005,1.063h1.064v2.687h-1.482c-1.987,0-3.44-1.263-3.44-3.498V7.918h-1.428V5.736h1.428V1.426L62.541,1.426
		L62.541,1.426z"/>
	<path id="path25" inkscape:connector-curvature="0" fill="#2E2E2E" d="M76.949,11.08c2.238,0,3.243,1.426,3.243,2.992
		c0,1.567-1.006,2.994-3.243,2.994h-4.646V11.08H76.949L76.949,11.08L76.949,11.08z M69.281,19.921h8.396
		c2.993,0,5.539-2.211,5.539-5.652c0-2.014-1.062-4.084-3.245-4.589V9.625c2.322-1.036,2.938-2.631,2.938-4.28
		C82.908,2.211,80.892,0,77.004,0h-7.723V19.921L69.281,19.921L69.281,19.921L69.281,19.921z M76.668,2.687
		c2.184,0,3.219,1.314,3.219,2.854c0,1.564-1.035,2.854-3.219,2.854h-4.363V2.687H76.668L76.668,2.687z"/>
	<path id="path27" inkscape:connector-curvature="0" fill="#2E2E2E" d="M84.855,0h2.854v16.256c0,0.643,0.363,0.979,1.065,0.979
		h0.978v2.688h-1.258c-2.071,0-3.639-0.896-3.639-3.443V0L84.855,0L84.855,0z"/>
	<path id="path29" inkscape:connector-curvature="0" fill="#2E2E2E" d="M90.955,5.736h2.854v8.448c0,1.933,1.203,3.05,2.827,3.05
		c1.595,0,2.796-1.117,2.796-3.05V5.736h2.854v14.186h-2.854V18.41h-0.054c-0.896,1.119-2.184,1.68-3.668,1.68
		c-2.235,0-4.756-1.708-4.756-4.924V5.736L90.955,5.736z"/>
	<path id="path31" inkscape:connector-curvature="0" fill="#2E2E2E" d="M106.675,11.555c0.059-2.154,1.315-3.301,2.993-3.301
		c1.68,0,2.91,1.146,2.996,3.301H106.675L106.675,11.555L106.675,11.555z M115.517,13.904v-2.35c0-3.665-2.714-5.986-5.849-5.986
		c-2.741,0-5.848,1.789-5.848,7.303c0,5.818,3.387,7.219,6.295,7.219c1.904,0,3.723-0.674,5.121-2.295l-2.072-1.762
		c-0.838,0.865-2.012,1.369-3.104,1.369c-1.958,0-3.386-1.175-3.386-3.498H115.517L115.517,13.904L115.517,13.904z"/>
</g>
</svg>
