<?xml version="1.0" encoding="utf-8"?>
<!-- Generator: Adobe Illustrator 16.0.0, SVG Export Plug-In . SVG Version: 6.00 Build 0)  -->
<!DOCTYPE svg PUBLIC "-//W3C//DTD SVG 1.0//EN" "http://www.w3.org/TR/2001/REC-SVG-20010904/DTD/svg10.dtd">
<svg version="1.0" id="EI" xmlns="http://www.w3.org/2000/svg" xmlns:xlink="http://www.w3.org/1999/xlink" x="0px" y="0px"
	 width="157px" height="26px" viewBox="0 0 157 26" enable-background="new 0 0 157 26" xml:space="preserve">
<g>
	<path fill-rule="evenodd" clip-rule="evenodd" fill="#62BA46" d="M133.982,1.309c-0.579,0.656-0.404-0.204-0.825,0.204
		c-0.366,0.354-1.494,1.329-2.198,2.913c-1.106,2.492-0.415,6.417,1.783,7.919c-0.094,0.367-0.411,1.349-0.633,1.563
		c-0.87-1.916-1.651-3.765-3.401-4.782c-0.316-0.184-0.981-0.307-0.981-0.307c-0.515-0.062-1.449-0.186-2.393,0.152
		c-0.476,0.17,0.105,0.332-0.264,0.459c-0.476,0.223-0.158,0.052-0.668,0.376c-0.364,0.245-0.837,0.731-0.933,1.651
		c-0.011,0.107,0.017,0.841,0.017,0.841c-2.563,0.781-3.111,3.728-2.741,4.523c0.404,0.868,0.687,0.902,1.108,1.123
		c0.439,0.184-0.562,0.357,0.527,0.545c1.266,0.153,2.259-0.028,2.988-0.205c1.043-0.251,3.639-1.235,6.013-3.197
		c-1.36,2.544-3.703,4.92-5.237,5.962c0.127,0.629-0.49,0.904-0.443,1.687c0.013,0.192-0.255,0.561-0.348,0.75
		c-0.064,0.093,0.048,0.261,0.237,0.107c2.827-2.28,5.554-5.134,7.167-8.628c3.434,4.919,6.506,4.969,7.816,5.1
		c1.107,0.11,1.79-0.109,2.146-0.195c1.248-0.307,2.163-0.748,2.742-1.142c0.527-0.357-0.281-0.392,0.193-0.681
		c0.264-0.171,0.639-0.649,0.914-1.191c0.282-0.555,0.492-2.044-0.773-3.485c0.615-0.278,1.253-1.184,1.336-2.186
		c0.054-0.63-0.079-1.379-1.222-1.992c0,0-0.351-0.211-0.536-0.239c-1.477-0.221-0.019-0.732-1.345-0.57
		c-0.185,0-0.088,0.008-0.623,0.06c-2.532,0.273-3.306,0.959-5.458,2.185c-2.001,1.141-3.829,2.697-4.668,3.203
		c0.333-0.582,0.507-1.127,0.507-1.127c0.253-0.521,2.081-1.546,2.998-2.114c0.965-0.598,4.926-2.605,6.04-5.467
		c0.183-0.467,0.355-1.003,0.404-1.481c0.105-1.039-0.387-0.323-0.404-0.647c-0.07-0.349-0.035-0.528-0.246-0.987
		c-0.826-1.925-3.867-1.601-4.916-0.56C137.234,0.015,134.827,0.406,133.982,1.309L133.982,1.309z"/>
	<path fill-rule="evenodd" clip-rule="evenodd" fill="#008F7E" d="M41.433,8.503h-3.347c0.212,0.198,0.287,0.289,0.404,0.494
		c0.097,0.17,0.168,0.35,0.214,0.535c0.07,0.287,0.094,0.553,0.107,1.182c0.006,0.271,0.009,0.485,0.009,0.642v5.583
		c0,0.436-0.016,1.012-0.034,1.271c-0.014,0.201-0.042,0.385-0.082,0.552c-0.083,0.339-0.257,0.662-0.482,0.897
		c-0.029,0.031-0.074,0.074-0.136,0.132h4.208c-0.213-0.199-0.287-0.289-0.404-0.494c-0.097-0.169-0.168-0.35-0.214-0.535
		c-0.07-0.286-0.094-0.56-0.107-1.181c-0.005-0.282-0.008-0.513-0.008-0.696v-2.412c0-0.926,0.006-1.061,0.074-1.613
		c0.09-0.735,0.248-1.118,0.629-1.531c0.412-0.445,0.731-0.591,1.391-0.63c0.057-0.004,0.113-0.005,0.17-0.005
		c0.26,0,0.48,0.033,0.752,0.116c0.279,0.084,0.383,0.133,0.634,0.3l0.012-2.671c-0.201-0.059-0.254-0.066-0.547-0.087
		c-0.202-0.015-0.357-0.021-0.466-0.021c-0.58,0-1.202,0.236-1.733,0.659c-0.385,0.308-0.768,0.761-0.934,1.107
		c-0.031,0.066-0.073,0.168-0.123,0.305L41.433,8.503L41.433,8.503z"/>
	<path fill-rule="evenodd" clip-rule="evenodd" fill="#008F7E" d="M59.343,19.79l0.979-2.946c-0.198,0.154-0.257,0.188-0.556,0.323
		c-0.245,0.112-0.488,0.202-0.729,0.272c-0.587,0.171-1.233,0.239-2.285,0.239H55.77h-1.437V8.923c0-1.077,0.006-1.303,0.049-1.848
		c0.028-0.345,0.074-0.642,0.137-0.886c0.117-0.454,0.357-0.962,0.613-1.296c0.025-0.033,0.065-0.083,0.119-0.148h-4.874
		c0.259,0.278,0.338,0.396,0.51,0.753c0.121,0.251,0.213,0.494,0.276,0.724c0.121,0.448,0.185,1.106,0.185,1.902V8.96v6.673
		l0.009,0.835c0,0.177-0.011,0.416-0.033,0.717c-0.028,0.386-0.062,0.69-0.103,0.914c-0.052,0.287-0.154,0.601-0.305,0.935
		c-0.159,0.353-0.237,0.474-0.49,0.757H59.343L59.343,19.79z"/>
	<path fill-rule="evenodd" clip-rule="evenodd" fill="#008F7E" d="M65.195,5.965c0-0.944-0.746-1.71-1.666-1.71
		c-0.946,0-1.712,0.773-1.712,1.729c0,0.914,0.759,1.655,1.696,1.655C64.442,7.638,65.195,6.889,65.195,5.965L65.195,5.965z"/>
	<path fill-rule="evenodd" clip-rule="evenodd" fill="#008F7E" d="M61.496,19.79h4.207c-0.212-0.199-0.287-0.289-0.404-0.494
		c-0.096-0.169-0.168-0.35-0.214-0.535c-0.07-0.286-0.095-0.56-0.107-1.181c-0.005-0.282-0.008-0.515-0.008-0.696V8.535h-3.388
		c0.144,0.176,0.197,0.251,0.276,0.388c0.145,0.255,0.252,0.559,0.304,0.868c0.037,0.22,0.054,0.484,0.062,0.96
		c0.003,0.168,0.004,0.341,0.004,0.519v5.669c0,0.436-0.015,1.012-0.033,1.271c-0.014,0.201-0.041,0.385-0.083,0.552
		c-0.082,0.339-0.256,0.662-0.481,0.897C61.603,19.689,61.558,19.732,61.496,19.79L61.496,19.79z"/>
	<path fill-rule="evenodd" clip-rule="evenodd" fill="#008F7E" d="M70.753,8.507h-3.368c0.213,0.199,0.287,0.289,0.403,0.494
		c0.097,0.169,0.169,0.35,0.215,0.534c0.07,0.288,0.094,0.554,0.106,1.183c0.006,0.271,0.009,0.486,0.009,0.643v5.578
		c0,0.434-0.015,1.012-0.033,1.271c-0.014,0.201-0.042,0.385-0.082,0.552c-0.083,0.339-0.257,0.662-0.481,0.897
		c-0.029,0.031-0.074,0.074-0.136,0.132h4.208c-0.213-0.199-0.288-0.289-0.404-0.494c-0.097-0.169-0.168-0.35-0.214-0.535
		c-0.07-0.286-0.095-0.56-0.107-1.181c-0.006-0.282-0.009-0.513-0.009-0.696v-1.152c0-1.539,0.006-1.846,0.045-2.384
		c0.043-0.577,0.185-1.113,0.416-1.563c0.371-0.725,0.922-1.199,1.704-1.471c0.338-0.116,0.666-0.175,0.985-0.175
		c0.55,0,1.1,0.172,1.46,0.459c0.194,0.154,0.368,0.366,0.511,0.622c0.262,0.472,0.32,0.76,0.328,1.621l0.009,0.832v3.266
		c0,0.434-0.014,1.012-0.033,1.271c-0.013,0.201-0.042,0.385-0.082,0.552c-0.083,0.339-0.257,0.662-0.482,0.897
		c-0.029,0.031-0.074,0.074-0.135,0.132h4.223c-0.212-0.199-0.286-0.289-0.402-0.494c-0.094-0.165-0.166-0.344-0.214-0.535
		c-0.072-0.283-0.093-0.521-0.104-1.181c-0.006-0.356-0.008-0.591-0.008-0.696v-3.816c0-0.946-0.006-1.08-0.066-1.564
		c-0.071-0.568-0.223-1.076-0.449-1.493c-0.429-0.795-1.348-1.429-2.421-1.667c-0.42-0.094-0.875-0.142-1.359-0.142
		c-1.338,0-2.342,0.33-3.181,1.042c-0.427,0.364-0.578,0.559-0.852,1.108V8.507L70.753,8.507z"/>
	<path fill-rule="evenodd" clip-rule="evenodd" fill="#008F7E" d="M114.486,8.791c-0.463-0.156-0.644-0.203-1.136-0.296
		c-0.787-0.149-1.574-0.223-2.375-0.223c-1.524,0-2.572,0.277-3.368,0.894c-0.698,0.54-1.116,1.387-1.116,2.265
		c0,0.608,0.211,1.268,0.557,1.739c0.2,0.275,0.47,0.529,0.794,0.751c0.385,0.261,0.79,0.481,1.211,0.658
		c0.231,0.098,0.621,0.255,1.169,0.473c0.971,0.387,1.42,0.606,1.737,0.845c0.293,0.221,0.502,0.598,0.502,0.904
		c0,0.264-0.18,0.675-0.375,0.856c-0.135,0.128-0.339,0.235-0.597,0.317c-0.33,0.105-0.646,0.153-1.018,0.153
		c-0.85,0-1.816-0.201-2.662-0.552c-0.22-0.092-0.545-0.247-0.976-0.466c-0.315-0.159-0.561-0.299-0.732-0.416
		c-0.041-0.025-0.116-0.082-0.227-0.169l0.921,2.887c0.56,0.2,0.746,0.248,1.486,0.383c1.149,0.207,1.901,0.292,2.6,0.292
		c0.967,0,1.771-0.165,2.514-0.519c0.456-0.217,0.85-0.515,1.152-0.873c0.475-0.561,0.756-1.334,0.756-2.078
		c0-0.78-0.303-1.558-0.825-2.121c-0.319-0.343-0.697-0.641-1.124-0.885c-0.628-0.359-1.296-0.66-2.306-1.037
		c-0.693-0.26-0.912-0.362-1.194-0.564c-0.322-0.231-0.473-0.484-0.473-0.8c0-0.29,0.158-0.56,0.42-0.715
		c0.321-0.191,0.741-0.281,1.312-0.281c0.65,0,1.502,0.136,2.286,0.363c0.436,0.128,0.624,0.197,1.087,0.404V8.791L114.486,8.791z"
		/>
	<path fill-rule="evenodd" clip-rule="evenodd" fill="#008F7E" d="M24.138,15.196l0.35,0.852c0.072,0.177,0.247,0.549,0.522,1.119
		c0.21,0.435,0.372,0.756,0.486,0.965c0.152,0.279,0.349,0.569,0.588,0.868c0.304,0.379,0.438,0.505,0.832,0.778h-5.479
		c0.276-0.179,0.375-0.267,0.548-0.477c0.196-0.242,0.273-0.449,0.273-0.732c0-0.245-0.011-0.284-0.245-0.907l-0.234-0.625
		l-0.189-0.494l-0.922-2.396l-5.607,0.009l-0.852,2.189c-0.303,0.779-0.35,0.91-0.46,1.28c-0.113,0.377-0.167,0.66-0.167,0.884
		c0,0.242,0.062,0.453,0.195,0.668c0.071,0.114,0.157,0.222,0.255,0.321c0.085,0.086,0.15,0.142,0.337,0.292l-4.512-0.004
		c0.083-0.067,0.155-0.128,0.218-0.181c0.416-0.353,0.625-0.634,0.926-1.24c0.129-0.259,0.259-0.531,0.392-0.818
		c0.248-0.54,0.419-0.938,0.642-1.494l4.557-11.37h3.091L24.138,15.196L24.138,15.196z M19.956,12.343l-2.137-5.434l-2.075,5.434
		H19.956L19.956,12.343z"/>
	<path fill-rule="evenodd" clip-rule="evenodd" fill="#008F7E" d="M29.193,14.212c0.064,0.9,0.121,1.184,0.362,1.816
		c0.178,0.466,0.463,0.894,0.836,1.255c0.664,0.646,1.483,0.943,2.593,0.943c0.892,0,1.459-0.134,2.503-0.585
		c0.518-0.225,0.631-0.288,0.951-0.531l-0.828,2.326c-0.393,0.185-0.547,0.237-1.008,0.354c-0.754,0.189-1.429,0.273-2.186,0.273
		c-0.737,0-1.402-0.084-2.062-0.261c-0.718-0.191-1.394-0.541-1.984-1.024c-1.343-1.101-2.109-2.856-2.109-4.827
		c0-1.83,0.656-3.374,1.884-4.432c0.98-0.846,2.197-1.269,3.653-1.269c1.433,0,2.598,0.415,3.438,1.223
		c0.535,0.515,0.942,1.146,1.19,1.85c0.264,0.746,0.434,1.723,0.434,2.49c0,0.113-0.003,0.202-0.014,0.398H29.193L29.193,14.212z
		 M33.915,11.191c-0.155-0.305-0.357-0.562-0.592-0.758c-0.4-0.332-0.868-0.489-1.455-0.489c-0.673,0-1.251,0.208-1.699,0.612
		c-0.208,0.188-0.395,0.433-0.556,0.725c-0.22,0.399-0.282,0.591-0.354,1.088h4.957C34.186,11.826,34.131,11.613,33.915,11.191
		L33.915,11.191z"/>
	<path fill-rule="evenodd" clip-rule="evenodd" fill="#008F7E" d="M101.572,19.79v-1.757c-0.266,0.45-0.395,0.61-0.758,0.941
		c-0.314,0.29-0.643,0.518-0.972,0.677c-0.576,0.277-1.395,0.444-2.19,0.444c-1.18,0-2.256-0.34-3.008-0.952
		c-0.415-0.337-0.721-0.786-0.881-1.295c-0.176-0.561-0.271-1.371-0.271-2.302l0.004-1.174l0.005-2.161l-0.005-0.655
		c-0.003-0.345-0.005-0.551-0.008-0.618c-0.008-0.149-0.048-0.304-0.119-0.452c-0.069-0.141-0.172-0.267-0.301-0.366
		c-0.286-0.221-0.661-0.331-1.125-0.331c-0.41,0-0.832,0.089-1.157,0.244c-0.226,0.107-0.347,0.191-0.622,0.433
		c0.253,0.423,0.318,0.55,0.409,0.804c0.131,0.361,0.223,0.953,0.223,1.428c0,1.042-0.437,2.104-1.145,2.783
		c-0.803,0.77-2.126,1.21-3.632,1.21c-0.181,0-0.378-0.006-0.593-0.018c-0.374-0.022-0.445-0.031-0.694-0.089
		c-0.052,0.048-0.089,0.085-0.111,0.11c-0.1,0.117-0.165,0.285-0.165,0.42c0,0.175,0.112,0.381,0.251,0.462
		c0.102,0.059,0.245,0.1,0.425,0.123c0.501,0.064,0.868,0.086,1.996,0.119c1.629,0.049,2.216,0.121,2.931,0.362
		c0.507,0.171,0.976,0.496,1.354,0.938c0.508,0.592,0.782,1.364,0.782,2.203c0,0.824-0.266,1.634-0.745,2.263
		c-0.374,0.493-0.855,0.883-1.404,1.142c-1.063,0.5-2.45,0.773-3.907,0.773c-1.315,0-2.823-0.245-3.885-0.629
		c-0.442-0.161-0.866-0.398-1.26-0.705c-0.68-0.529-0.979-1.085-0.979-1.812c0-0.557,0.203-0.999,0.601-1.313
		c0.368-0.288,0.843-0.439,1.384-0.439c0.185,0,0.379,0.012,0.58,0.033c0.285,0.031,0.396,0.05,0.688,0.123
		c-0.173,0.16-0.211,0.213-0.338,0.473c-0.139,0.285-0.191,0.481-0.191,0.708c0,0.481,0.268,0.989,0.682,1.293
		c0.266,0.196,0.574,0.345,0.909,0.441c0.569,0.162,1.23,0.246,1.922,0.246c1.001,0,1.901-0.181,2.582-0.519
		c0.29-0.145,0.555-0.349,0.778-0.601c0.298-0.337,0.442-0.692,0.442-1.088c0-0.524-0.258-0.996-0.678-1.239
		c-0.265-0.155-0.571-0.258-0.901-0.306c-0.614-0.087-0.886-0.104-2.733-0.169c-1.491-0.052-2.031-0.137-2.527-0.398
		c-0.526-0.278-0.87-0.896-0.87-1.565c0-0.46,0.137-0.849,0.459-1.303c0.179-0.252,0.269-0.354,0.519-0.589
		c-0.573-0.254-0.781-0.387-1.149-0.732c-0.766-0.72-1.173-1.719-1.173-2.873c0-1.362,0.586-2.577,1.609-3.338
		c0.826-0.614,1.973-0.928,3.395-0.928c0.987,0,1.658,0.148,2.447,0.54c0.439,0.218,0.589,0.321,0.931,0.646l0.568-0.938h6.339
		v5.688c0,0.653,0.001,1.141,0.004,1.462c0.004,0.396,0.042,0.764,0.115,1.091c0.074,0.334,0.244,0.636,0.486,0.868
		c0.359,0.347,0.913,0.548,1.503,0.548c0.298,0,0.603-0.051,0.905-0.152c0.714-0.239,1.265-0.702,1.642-1.379
		c0.131-0.233,0.23-0.478,0.3-0.725c0.155-0.548,0.216-1.167,0.216-2.219v-0.947v-1.384c0-0.098-0.003-0.312-0.009-0.642
		c-0.011-0.675-0.031-0.906-0.103-1.181c-0.048-0.183-0.12-0.363-0.219-0.535c-0.124-0.221-0.194-0.307-0.403-0.494h3.487
		l-0.009,8.364c0,0.105,0.003,0.338,0.009,0.696c0.01,0.661,0.03,0.897,0.103,1.181c0.048,0.191,0.121,0.37,0.214,0.535
		c0.116,0.205,0.191,0.295,0.402,0.494H101.572L101.572,19.79z M87.522,10.577c-0.406-0.349-0.964-0.535-1.602-0.535
		c-0.695,0-1.314,0.233-1.729,0.65c-0.42,0.424-0.641,1.039-0.641,1.785c0,0.348,0.057,0.707,0.159,1.031
		c0.103,0.322,0.264,0.604,0.47,0.822c0.403,0.432,1.044,0.68,1.749,0.68c0.7,0,1.347-0.248,1.754-0.676
		c0.4-0.418,0.631-1.065,0.631-1.781C88.314,11.684,88.052,11.032,87.522,10.577L87.522,10.577z"/>
</g>
</svg>
