<?xml version="1.0" encoding="utf-8"?>
<!-- Generator: Adobe Illustrator 22.1.0, SVG Export Plug-In . SVG Version: 6.00 Build 0)  -->
<svg version="1.1" id="Capa_1" xmlns="http://www.w3.org/2000/svg" xmlns:xlink="http://www.w3.org/1999/xlink" x="0px" y="0px"
	 viewBox="0 0 628.3 63.4" style="enable-background:new 0 0 628.3 63.4;" xml:space="preserve">
<style type="text/css">
	.st0{fill:#DA0828;}
	.st1{fill:url(#SVGID_1_);}
	.st2{fill:url(#SVGID_2_);}
	.st3{fill:url(#SVGID_3_);}
	.st4{fill:#0085CA;}
</style>
<g>
	<g>
		<path class="st0" d="M9.8,57.3c1.3-0.9,2-2.2,2-3.7v-0.2c0-1.4-0.6-2.7-1.7-3.3c-0.9-0.6-2.4-0.9-4.4-0.9H2.3c-0.6,0-1.4,0-1.9,0
			l-0.4,0v14h3V58h3.9c1,1,2.2,2.9,3,4.9l0.1,0.3h3.1l-0.3-0.6C12.1,60.8,10.8,58.7,9.8,57.3z M8.8,53.4v0.1c0,0.9-0.3,1.6-1,2.1H3
			v-4h2.8c1.3,0,2.1,0.2,2.6,0.5C8.7,52.4,8.8,52.8,8.8,53.4z M26.9,62.6l0.1,0.5h-8.5c-0.6,0-1.4,0-1.9,0l-0.4,0V49.2l0.4,0
			c0.5,0,1.3,0,1.9,0H27l-0.1,0.5c-0.1,0.4-0.2,0.9-0.2,1.5l0,0.4h-7.4v3.2c0.7,0,1.5,0,1.9,0h3.7v2.4h-5.6v3.5h7.3l0.1,0.4
			C26.6,61.7,26.7,62.2,26.9,62.6z M41.7,55.2l0.4,0v7.6l-0.3,0.1c-1.6,0.3-3.4,0.5-5.2,0.5c-2.3,0-4.2-0.5-5.4-1.4
			c-1.5-1.2-2.2-3-2.2-5.6V56c0-2.7,0.9-4.6,2.6-5.8c1.2-0.8,3-1.2,5.2-1.2c1.4,0,3,0.2,4.4,0.6l0.4,0.1L41.2,52l-0.4-0.1
			c-1.2-0.3-2.5-0.5-3.9-0.5c-1.5,0-2.7,0.3-3.5,0.9c-0.8,0.6-1.3,2-1.3,3.7v0.3c0,3.4,1.2,4.7,4.5,4.7c1.1,0,1.9,0,2.6-0.1v-3.3
			l-3.3,0.1v-2.4h3.7C40.4,55.1,41.2,55.2,41.7,55.2z M46.4,49.2h3v14h-3V49.2z M60.3,49c-2.1,0-3.8,0.5-5,1.6c-1.3,1.2-2,3-2,5.2
			v0.8c0,2.2,0.7,4,2,5.2c1.1,1,2.9,1.6,5,1.6c2.1,0,3.8-0.5,5-1.6c1.3-1.2,2-3,2-5.2v-0.8c0-2.2-0.7-4-2.1-5.2
			C64.1,49.5,62.4,49,60.3,49z M60.3,60.9c-1.2,0-2.2-0.3-2.8-0.9c-0.7-0.7-1.2-2-1.2-3.6v-0.6c0-1.5,0.4-2.8,1.2-3.6
			c0.6-0.6,1.6-0.9,2.8-0.9c1.3,0,2.2,0.3,2.8,0.9c0.7,0.7,1.2,2,1.2,3.6v0.6c0,1.5-0.4,2.9-1.2,3.6C62.5,60.6,61.6,60.9,60.3,60.9z
			 M81.3,49.2h2.9v14.1h-3L81,63.1c-2.3-3.7-4.8-7.3-6.9-10v10.1h-2.9v-14h2.9l0.1,0.2c2.2,2.6,5,6.3,7,9.3V49.2z M96.3,49.4
			l-0.1-0.3h-3L93,49.4c-1.7,3.6-3.9,8.8-5.6,13.2l-0.2,0.6h3.2l0.1-0.3c0.4-1,0.7-1.9,1-2.6h6.4c0.3,0.8,0.7,1.8,1,2.6l0.1,0.3h3.2
			l-0.2-0.6C100.1,58.2,97.9,53,96.3,49.4z M96.9,57.9h-4.5c0.8-1.9,1.5-3.7,2.3-5.3C95.3,54.1,96.1,55.9,96.9,57.9z M115.1,63.2
			h-7.8c-0.6,0-1.4,0-1.9,0l-0.4,0v-14h3v11.6h6.7l0,0.4c0,0.5,0.1,1,0.2,1.5L115.1,63.2z"/>
		<g>
			<g>
				<linearGradient id="SVGID_1_" gradientUnits="userSpaceOnUse" x1="205.2372" y1="67.5905" x2="281.909" y2="23.324">
					<stop  offset="0" style="stop-color:#A80E1F"/>
					<stop  offset="0.5" style="stop-color:#DA0828"/>
				</linearGradient>
				<path class="st1" d="M217.6,48.2c18.3-18.4,44.5-28.6,61.9-29.1l-6,15.5c-7.1,16.5-19.2,28.6-70.8,28.6L217.6,48.2z"/>
				<linearGradient id="SVGID_2_" gradientUnits="userSpaceOnUse" x1="234.8304" y1="28.9707" x2="286.3143" y2="-0.7535">
					<stop  offset="0" style="stop-color:#F68400"/>
					<stop  offset="0.85" style="stop-color:#FCD000"/>
				</linearGradient>
				<path class="st2" d="M235.5,30.1l16.7-16.9c8.1-8,11.2-13.1,34.6-13.1l-3.8,10C267.1,11.8,251.3,18.7,235.5,30.1z"/>
			</g>
			<linearGradient id="SVGID_3_" gradientUnits="userSpaceOnUse" x1="101.3444" y1="62.4655" x2="101.3444" y2="7.2972">
				<stop  offset="0" style="stop-color:#A80E1F"/>
				<stop  offset="0.8" style="stop-color:#DA0828"/>
			</linearGradient>
			<path class="st3" d="M130.4,24.8c4.1-1.4,6.6-4.9,6.6-9.1c0-2.4-0.9-4.7-2.4-6.3c-2.1-2.2-5.4-3.2-10.7-3.2h-21.1
				c-0.5,4.8-0.8,10.6-0.8,15.8c0,5.1,0.3,10.3,0.8,15.8h9.8c-0.4-4.1-0.6-7.6-0.8-11.7h9.8c0.7,0.8,1.9,2.3,3.1,4.2
				c1.4,2.3,2.5,4.5,3.8,7.5h10.9c-1.4-2.7-3-5.2-5.3-8.5C132.8,27.5,131.6,26,130.4,24.8z M124.9,20.3h-13.1c0-2.3,0.1-5,0.3-8.1
				h8.6c3.2,0,4.7,0.4,5.7,1.4c0.6,0.6,0.9,1.5,0.9,2.5C127.3,17.9,126.4,19.4,124.9,20.3z M9.2,6.3C9.7,10.8,10,16.8,10,22.4
				c0,5.4-0.2,10.5-0.8,15.5H0.8C0.2,32.9,0,27.7,0,22.4c0-5.6,0.3-11.5,0.8-16.1H9.2z M195.1,20.9c-3.1-6.1-5.8-10.8-8.4-14.6h-10
				c-2.5,3.8-5.3,8.5-8.4,14.5c-3.1,6.1-5.9,12.3-7.6,17.1H171c0.6-2,1.4-4,2.2-5.9h16.9c0.8,1.9,1.5,3.8,2.2,5.9h10.3
				C200.9,33.1,198.2,27,195.1,20.9z M175.5,26.2c2.1-4.7,4-8.5,6.1-12.4c2.1,3.8,4,7.7,6.2,12.4H175.5z M155.1,6.3
				c0.5,4.5,0.8,10.5,0.8,16.1c0,5.4-0.2,10.5-0.8,15.5h-8.4c-0.5-5-0.8-10.2-0.8-15.5c0-5.6,0.3-11.5,0.8-16.1H155.1z M73,12.6
				c-0.2,2.1-0.2,4.6-0.2,6.4h18.9v6H72.8c0,2.1,0.1,4.3,0.2,6.7h20.5c0.1,2.3,0.2,4.2,0.4,6.3H63.8c-0.4-5-0.8-10.7-0.8-15.8
				c0-5.1,0.3-10.8,0.8-15.8h30.2c-0.2,2.2-0.3,4.1-0.4,6.3H73z M50.2,20.9c2.3-1.3,3.8-3.8,3.8-6.5c0-2.5-0.7-4.2-2.3-5.6
				C49,6.5,44,6.3,38.7,6.3H20.7C20.2,11,20,17,20,22.1c0,5.1,0.2,10.2,0.8,15.8h18.6c6.6,0,10.6-0.8,13.2-2.5
				c1.9-1.3,3.1-4,3.1-6.9C55.7,25,53.7,22.3,50.2,20.9z M30,12.3h8.3c3.3,0,4.5,0.3,5.4,1.2c0.5,0.5,0.8,1.4,0.8,2.3
				c0,1.3-0.5,2.5-1.5,3.2H29.7C29.8,16.7,29.9,14.5,30,12.3z M45.1,30.7c-0.9,0.9-2.2,1.2-4.5,1.2H30c-0.2-2.5-0.3-5-0.3-7.1h11.9
				c1.7,0,2.6,0.2,3.4,0.9c0.7,0.6,1.1,1.4,1.1,2.4C46.1,29.2,45.7,30,45.1,30.7z"/>
		</g>
	</g>
	<g>
		<path class="st0" d="M324.3,6.8c4.2,9.1,9.3,21.4,12.9,30.7H332c-0.8-2.2-1.7-4.7-2.6-6.7h-16.2c-0.8,2.1-1.7,4.6-2.5,6.7h-5.2
			c3.6-9.3,8.8-21.5,13.1-30.7H324.3z M328,27.2c-2.3-5.8-4.5-11.2-6.6-15.7c-2.2,4.4-4.5,9.9-6.8,15.7H328z M347.1,6.8v30.7h-4.9
			V6.8H347.1z M368,6.8c4.1,0,7.5,0.5,9.7,1.8c2.2,1.4,3.5,3.9,3.5,6.9V16c0,3.8-2,6.7-5.3,8.5c2.6,3,5.9,8.3,8,13h-5.1
			c-2-4.5-4.9-9.4-7.6-12h-10.6v12h-4.9V6.9c1.4,0,2.9-0.1,4.4-0.1H368z M360.6,21.8h12.6c2-1.3,3-3.2,3-5.8v-0.3
			c0-1.7-0.5-3-1.5-3.9c-1.2-1-3.4-1.4-6.6-1.4h-7.5V21.8z"/>
		<path class="st4" d="M398.9,6.8c6,7,13.6,17.4,18,24.6V6.8h4.7v30.9h-5.5c-5.7-9.3-12.3-18.8-17.9-25.6v25.3h-4.7V6.8H398.9z
			 M428.9,21.2c0-4.6,1.4-8.7,4.4-11.4c2.4-2.2,6.2-3.4,10.9-3.4c4.7,0,8.5,1.2,10.9,3.4c3,2.8,4.4,6.8,4.4,11.4v1.9
			c0,4.6-1.4,8.7-4.4,11.4c-2.4,2.2-6.2,3.4-10.9,3.4c-4.7,0-8.5-1.2-11-3.4c-3-2.7-4.4-6.8-4.4-11.4V21.2z M433.9,22.9
			c0,4,1.2,7.3,3.1,9.1c1.5,1.4,4,2.3,7.3,2.3c3.3,0,5.7-0.8,7.2-2.3c1.9-1.8,3.1-5.1,3.1-9.1v-1.4c0-4-1.2-7.3-3.1-9.1
			c-1.5-1.5-4-2.3-7.2-2.3c-3.3,0-5.7,0.9-7.2,2.3c-1.9,1.8-3.1,5.1-3.1,9.1V22.9z M486,11.1c-3.2-0.8-5.9-1-8.8-1
			c-5.4,0-7.3,2-7.3,4.4c0,2.3,1.8,4,5.7,5l2.8,0.7c3.6,1,5.7,1.9,7.2,3.2c1.7,1.4,2.3,3,2.3,5.7c0,5.3-4,8.9-11.8,8.9
			c-4.2,0-7.8-0.7-11.3-1.9l0.8-3.5c3.3,1.1,6.7,1.8,10.5,1.8c5,0,7.2-2,7.2-5.1c0-1.1-0.4-2.3-1-2.9c-0.9-0.9-2.4-1.5-5.6-2.4
			l-2.7-0.7c-6.8-1.9-8.8-4.8-8.8-8.7c0-5.1,4.7-8.1,11.9-8.1c3.6,0,7,0.5,9.5,1.3L486,11.1z M519.3,6.8c-0.2,1.2-0.4,2.3-0.5,3.7
			h-11.6v27h-4.9v-27h-11.5V6.8H519.3z M536.4,6.8c4.1,0,7.5,0.5,9.7,1.8c2.2,1.4,3.5,3.9,3.5,6.9V16c0,3.8-2,6.7-5.2,8.5
			c2.6,3,5.9,8.3,8,13h-5.1c-2-4.5-4.9-9.4-7.6-12H529v12h-4.9V6.9c1.4,0,2.9-0.1,4.4-0.1H536.4z M529,21.8h12.6c2-1.3,3-3.2,3-5.8
			v-0.3c0-1.7-0.5-3-1.5-3.9c-1.2-1-3.4-1.4-6.6-1.4H529V21.8z M562.1,6.8v19.6c0,2.2,0.2,4.4,1.5,5.7c1.3,1.4,3.8,2.1,6.8,2.1h0.2
			c3.1,0,5.6-0.7,6.9-2.1c1.3-1.4,1.5-3.6,1.5-5.7V6.8h4.9v16.4c0,5.4,0.1,8.9-2.5,11.4c-2.2,2.2-5.5,3.3-10.6,3.3h-0.4
			c-5.1,0-8.4-1.1-10.6-3.3c-2.5-2.5-2.4-6.1-2.4-11.4V6.8H562.1z M599.3,6.8c4.1,8.8,7.8,15.9,10.4,20.7
			c2.6-4.8,6.3-11.9,10.4-20.7h6c0.9,7,2.1,23,2.4,30.7h-4.8c0-4.7-1-19.2-1.7-25.3c-3.1,6.3-7.6,15.3-10.2,19.9h-4.1
			c-2.6-4.7-7.2-13.7-10.3-20.1c-0.6,6.2-1.5,20.7-1.6,25.4h-4.8c0.3-7.6,1.6-23.7,2.4-30.7H599.3z"/>
	</g>
</g>
</svg>
