<?xml version="1.0" encoding="utf-8"?>
<!-- Generator: Adobe Illustrator 23.0.1, SVG Export Plug-In . SVG Version: 6.00 Build 0)  -->
<svg version="1.1" id="Layer_1" xmlns="http://www.w3.org/2000/svg" xmlns:xlink="http://www.w3.org/1999/xlink" x="0px" y="0px"
	 viewBox="0 0 101.1 26" style="enable-background:new 0 0 101.1 26;" xml:space="preserve">
<style type="text/css">
	.st0{fill:#002856;}
	.st1{fill:#D13239;}
</style>
<g>
	<g>
		<path class="st0" d="M79,9.8l-0.1,0.2H81c0.2,0,1.4,0,1.1,1.3c-0.4,1.3-0.6,2.3-0.6,2.3c-0.2,0.6-0.7,1.2-1.6,1.2h-2.3l-0.1,0.5
			h5.4c0.5,0,1.3-0.4,1.6-1.2l0.7-2.4c0,0,0.4-1.4,1.9-1.6c0,0,1.5-0.1,1.2,1.5l-1.5,5.3c-0.3,1-1.2,1.6-2,1.6h-8.2L76.4,19h9.8
			c5.8-0.2,9.4-4.2,10.7-6.7c0,0,1.1-2,3.4-2.2h0.6c0,0,0,0,0.1,0c0,0,0-0.1,0.1-0.3H79L79,9.8z"/>
		<path class="st1" d="M101.1,9.4L101.1,9.4l-0.6-0.1c-2.3-0.2-2.2-2.2-2.2-2.2c0-2.5-1.4-6.5-7-6.7h-9.7l-0.2,0.5h8.2
			c0.8,0,1.4,0.6,1.1,1.6l-1.5,5.3c-0.6,1.6-2,1.5-2,1.5c-1.5-0.1-1.1-1.6-1.1-1.6l0.7-2.4c0.2-0.8-0.4-1.2-0.9-1.2h-5.4l-0.1,0.5
			h2.3c0.9,0,1,0.7,0.9,1.2c0,0-0.3,1-0.6,2.3c-0.3,1.2-1.5,1.3-1.6,1.3h-2.3L79,9.8h22.1C101.1,9.6,101.1,9.4,101.1,9.4z"/>
	</g>
	<path class="st0" d="M13.7,10.2c-0.3-0.4-0.9-0.8-2-0.8H2.6L0,19h2.6l2-7.5h2.3l-2,7.5h2.6l2-7.5h1c0.4,0,0.7,0.1,0.9,0.3
		c0.2,0.3,0.2,0.7,0.1,1L9.7,19h2.6l1.8-6.7C14.3,11.6,14.2,10.8,13.7,10.2z"/>
	<path class="st0" d="M24.4,10.2c-0.5-0.6-1.3-0.9-2.1-0.9h-5.5l-0.5,2H21c0.5,0,0.9,0.1,1,0.4c0.2,0.2,0.2,0.6,0.1,1.1L22,13.1h-4
		c-1.8,0-3.3,1.1-3.8,2.9C14,17,14,17.7,14.4,18.2c0.4,0.5,1.1,0.8,2,0.8H23l1.7-6.2C25,11.8,24.9,10.9,24.4,10.2z M21,17h-3.1
		c-0.3,0-0.7,0-0.9-0.3c-0.1-0.1-0.1-0.4-0.1-0.6c0.2-0.8,0.9-0.9,1.5-0.9h3.1L21,17z"/>
	<path class="st0" d="M39.2,10.2c-0.4-0.6-1.3-0.9-2.1-0.9h-5.5l-0.5,2H36c0.5,0,0.9,0.1,1,0.4c0.2,0.2,0.2,0.6,0.1,1.1L37,13.2
		h-4.1c-1.8,0-3.3,1.1-3.8,2.9c-0.2,0.9-0.2,1.6,0.3,2.2c0.4,0.5,1.1,0.8,2,0.8H38l1.7-6.2C39.8,11.8,39.7,10.9,39.2,10.2z M35.8,17
		h-3.1c-0.3,0-0.7,0-0.9-0.3c-0.1-0.1-0.1-0.4-0.1-0.6c0.2-0.8,0.9-0.9,1.5-0.9h3.1L35.8,17z"/>
	<path class="st0" d="M48.3,9.3l-2,7.5h-2.5c-0.4,0-0.7-0.1-0.9-0.3c-0.2-0.3-0.2-0.8-0.1-1l1.7-6.2h-2.6l-1.8,6.4
		c-0.3,1-0.2,1.8,0.2,2.3c0.6,0.7,1.6,0.9,2.3,0.9h3l-0.2,1c-0.2,0.6-0.8,1.2-1.8,1.2h-4.7l-0.5,2h5.5c1.5,0,3.6-1.3,4.1-3.2
		l2.9-10.5L48.3,9.3L48.3,9.3L48.3,9.3z"/>
	<path class="st0" d="M59.8,13.9c-0.4-0.5-1.1-0.8-2-0.8h-2.6c-0.3,0-0.7,0-0.9-0.3c-0.1-0.1-0.1-0.3-0.1-0.6
		c0.2-0.8,0.9-0.9,1.5-0.9h5.1l0.5-2h-6.1c-1.8,0-3.3,1.1-3.8,2.9c-0.2,0.9-0.2,1.6,0.3,2.1c0.4,0.5,1.1,0.8,2,0.8h2.6
		c0.3,0,0.7,0,0.9,0.3c0.1,0.1,0.1,0.4,0.1,0.6c-0.2,0.8-0.9,0.9-1.5,0.9h-5.6l-0.5,2h6.6c1.8,0,3.3-1.1,3.8-2.9
		C60.3,15.1,60.2,14.4,59.8,13.9z"/>
	<polygon class="st0" points="63,9.3 60.4,19 63,19 65.6,9.3 	"/>
	<path class="st0" d="M75,10.2c-0.4-0.6-1.3-0.9-2.1-0.9h-5.5l-0.5,2h4.9c0.5,0,0.9,0.1,1,0.4c0.2,0.2,0.2,0.6,0.1,1.1l-0.1,0.4
		h-4.1c-1.8,0-3.3,1.1-3.8,2.9c-0.2,0.9-0.2,1.6,0.3,2.2c0.4,0.5,1.1,0.8,2,0.8h6.6l1.7-6.2C75.6,11.8,75.5,10.9,75,10.2z M71.6,17
		h-3.1c-0.3,0-0.7,0-0.9-0.3c-0.1-0.1-0.1-0.4-0.1-0.6c0.2-0.8,0.9-0.9,1.5-0.9h3.1L71.6,17z"/>
	<polygon class="st0" points="27.8,6.8 24.5,19 27,19 30.4,6.8 	"/>
	<g>
		<path class="st0" d="M52.7,21.5c-0.2-0.3-0.6-0.3-0.7-0.3h-2.8L49,21.8h2.5c0.2,0,0.4,0.1,0.5,0.2c0.1,0.1,0.1,0.2,0,0.4
			c0,0.1-0.1,0.5-0.1,0.5H50c-0.9,0-1.5,0.5-1.8,1.3c-0.1,0.4,0,0.7,0.2,0.9s0.5,0.4,1,0.4H52l0.8-3.1C52.9,22,52.8,21.7,52.7,21.5z
			 M51.3,24.8h-1.7c-0.3,0-0.5-0.1-0.6-0.2c-0.1-0.1-0.1-0.3-0.1-0.5c0.1-0.5,0.5-0.7,1-0.7h1.7L51.3,24.8z"/>
		<polygon class="st0" points="53.4,25.5 54.6,21.2 53.8,21.2 52.7,25.5 		"/>
		<polygon class="st0" points="57.6,25.5 59.1,20 58.3,20 56.9,25.5 		"/>
		<polygon class="st0" points="59.1,25.5 60.2,21.2 59.5,21.2 58.3,25.5 		"/>
		<path class="st0" d="M63.2,21.2H61l-1.2,4.3h0.7l1-3.7H63c0.3,0,0.5,0.1,0.6,0.2c0.1,0.2,0.1,0.4,0,0.8l-0.7,2.7h0.8l0.8-2.9
			c0.1-0.5,0.1-0.8-0.1-1.1C64.1,21.2,63.7,21.2,63.2,21.2z"/>
		<path class="st0" d="M65.7,22.8c0.2-0.5,0.7-1.2,1.6-1.2h1.5L69,21h-1.8c-1.3,0-2.1,1.1-2.4,2.2C64.6,24,64.7,24.5,65,25
			c0.2,0.3,0.6,0.5,1.1,0.5h1.8l0.2-0.6c0,0-1.2,0-1.5,0c-0.4,0-0.6-0.1-0.8-0.3c-0.2-0.2-0.2-0.6-0.1-1l0,0h2.7l0.2-0.6L65.7,22.8
			L65.7,22.8z"/>
		<path class="st0" d="M73.1,21.8l0.2-0.6h-2.4c-1.2,0-1.6,0.8-1.7,1.2c-0.1,0.3,0,0.6,0.1,0.8c0.2,0.2,0.4,0.3,0.9,0.3h1.2
			c0.7,0,0.6,0.5,0.5,0.7c-0.2,0.5-0.8,0.6-1.4,0.6h-2l-0.2,0.6h2.9c0.7,0,1.3-0.5,1.5-1.2c0.1-0.4,0-0.7-0.2-0.9
			c-0.2-0.2-0.4-0.4-0.9-0.4h-1c-0.1,0-0.4,0-0.5-0.2c-0.1-0.1-0.1-0.2,0-0.4c0.2-0.5,0.6-0.6,0.9-0.6L73.1,21.8L73.1,21.8z"/>
		<path class="st0" d="M56.5,21.2c-1.3,0-1.5,1.2-1.6,1.3c0,0.1-0.8,3.1-0.8,3.1h0.7c0,0,0.8-2.8,0.8-2.9c0-0.1,0.3-0.8,1-0.8
			c0.5,0,0.6,0,0.6,0l0.2-0.6L56.5,21.2L56.5,21.2z"/>
	</g>
</g>
</svg>
