<?xml version="1.0" encoding="utf-8"?>
<!-- Generator: Adobe Illustrator 16.0.0, SVG Export Plug-In . SVG Version: 6.00 Build 0)  -->
<!DOCTYPE svg PUBLIC "-//W3C//DTD SVG 1.0//EN" "http://www.w3.org/TR/2001/REC-SVG-20010904/DTD/svg10.dtd">
<svg version="1.0" id="IG" xmlns="http://www.w3.org/2000/svg" xmlns:xlink="http://www.w3.org/1999/xlink" x="0px" y="0px"
	 width="157px" height="26px" viewBox="0 0 157 26" enable-background="new 0 0 157 26" xml:space="preserve">
<g>
	<path fill-rule="evenodd" clip-rule="evenodd" fill="#231F20" d="M52.194,8.676c0-1.079,0-2.595,0.292-3.236
		c0.438-0.962,1.341-1.049,2.274-1.049V3.516c-1.021,0-1.953,0-2.886,0c-0.904,0-1.895,0-2.828,0l-6.384,14.283L36.25,3.458
		c-0.933,0-1.982,0-2.915,0c-0.991,0-1.924,0-2.886,0V4.42c0.933,0,2.187,0,2.565,0.99c0.146,0.379,0.262,1.137,0.262,1.895v12.418
		c0,1.312-0.408,2.535-2.624,2.535v0.789c1.021,0,2.012,0,3.061,0c1.079,0,2.157,0,3.236,0v-0.789
		c-2.361-0.114-2.798-1.194-2.798-3.468V7.509l0.059,0.059l6.675,15.537h0.292c1.749-3.79,2.74-6.006,3.76-8.279l3.265-7.258
		l0.059,0.058v11.603c0,2.769-0.087,2.799-2.886,3.03v0.789c1.458,0,3.206,0,4.664,0c1.428,0,3.119,0,4.635,0v-0.789
		c-2.798-0.231-2.478-0.262-2.478-3.03V8.676L52.194,8.676z"/>
	<path fill-rule="evenodd" clip-rule="evenodd" fill="#231F20" d="M66.158,20.161c-0.875,1.165-2.186,2.097-3.672,2.097
		c-3.12,0-4.11-2.739-4.11-5.508l0.059-1.399h8.133c0.291,0,0.729,0.117,0.729-0.262c0-3.149-2.886-5.044-5.743-5.044
		c-3.79,0-6.675,3.411-6.675,7.054c0,3.732,3.09,6.385,6.705,6.385c2.186,0,3.935-0.962,5.305-2.652L66.158,20.161L66.158,20.161z
		 M58.579,14.389c0.292-1.953,1.108-3.439,3.003-3.439c1.836,0,2.769,1.049,2.769,2.857c0,0.728,0.146,0.553-0.35,0.582H58.579
		L58.579,14.389z"/>
	<path fill-rule="evenodd" clip-rule="evenodd" fill="#231F20" d="M70.037,19.519c0,1.925,0.146,2.625-2.041,2.77v0.759
		c1.137-0.029,2.652,0.028,3.79,0c1.107,0.028,2.39-0.029,3.498,0v-0.759c-2.449-0.117-2.216-0.816-2.216-2.943v-2.712
		c0-1.34,0.117-2.652,0.788-3.848c0.437-0.729,1.34-1.224,2.186-0.816c0.671,0.321,0.467,1.517,1.953,1.545
		c0.612,0,1.253-0.523,1.253-1.457c0-0.933-0.903-1.574-1.924-1.662c-1.603-0.146-3.556,0.612-4.489,2.391h-0.058
		c-0.029-0.903-0.175-2.448-0.321-2.799c-1.399,0.351-2.944,0.642-4.518,0.963v0.699c0.933,0,1.662-0.116,1.924,0.933
		c0.204,0.671,0.175,2.739,0.175,3.527V19.519L70.037,19.519z"/>
	<path fill-rule="evenodd" clip-rule="evenodd" fill="#231F20" d="M80.033,10.716v0.816c0.584-0.029,1.75-0.088,1.953,0.641
		c0.117,0.438,0.117,2.682,0.117,3.235v4.052c-0.029,1.924,0.146,2.624-2.012,2.771v0.816c1.166,0,2.653,0,3.818,0
		c1.05,0,2.304,0,3.295,0V22.23c-2.304-0.146-2.041-1.021-2.041-2.945V9.842L80.033,10.716L80.033,10.716z M83.356,6.81
		c1.05,0,1.896-0.933,1.896-1.953c0-1.107-0.846-1.982-1.953-1.982s-1.982,0.875-1.982,1.982C81.316,5.993,82.365,6.81,83.356,6.81
		L83.356,6.81z"/>
	<path fill-rule="evenodd" clip-rule="evenodd" fill="#231F20" d="M98.393,18.207c0,2.303-0.845,4.255-3.469,4.255
		c-2.973,0-3.644-2.913-3.644-5.537c0-2.536,0.671-5.771,3.644-5.771c1.691,0,3.469,1.078,3.469,2.915V18.207L98.393,18.207z
		 M103.902,23.047v-0.934c-0.933,0-1.72,0.058-2.099-0.961c-0.292-0.759-0.292-2.508-0.292-3.324V2.991l-5.305,0.758v0.875
		c2.099,0.058,2.186,0.99,2.186,2.739v4.372c-1.049-1.224-2.564-1.69-4.168-1.69c-3.701,0-6.441,3.323-6.441,6.88
		c0,3.615,2.77,6.559,6.441,6.559c1.982,0,3.294-0.525,4.548-2.04c0.087,0.787,0.059,0.932,0.379,1.604H103.902L103.902,23.047z"/>
	<path fill-rule="evenodd" clip-rule="evenodd" fill="#231F20" d="M104.802,10.716v0.816c0.583-0.029,1.749-0.088,1.952,0.641
		c0.117,0.438,0.117,2.682,0.117,3.235v4.052c-0.03,1.924,0.146,2.624-2.011,2.771v0.816c1.165,0,2.651,0,3.817,0
		c1.05,0,2.303,0,3.294,0V22.23c-2.302-0.146-2.04-1.021-2.04-2.945V9.842L104.802,10.716L104.802,10.716z M108.125,6.81
		c1.049,0,1.895-0.933,1.895-1.953c0-1.107-0.846-1.982-1.953-1.982c-1.108,0-1.982,0.875-1.982,1.982
		C106.084,5.993,107.134,6.81,108.125,6.81L108.125,6.81z"/>
	<path fill-rule="evenodd" clip-rule="evenodd" fill="#231F20" d="M120.712,20.161c0,0.814-1.836,1.661-2.973,1.661
		c-0.875,0-1.429-0.643-1.429-1.721c0-2.331,2.652-3.294,4.401-4.139V20.161L120.712,20.161z M117.331,16.459
		c-1.778,0.844-4.11,1.895-4.11,4.343c0,1.633,1.253,2.594,2.798,2.594c2.1,0,3.44-0.757,4.811-1.865
		c0.29,1.166,1.282,1.865,2.682,1.865c0.611,0,2.041-0.67,2.594-1.546l-0.495-0.378c-0.409,0.291-0.787,0.612-1.312,0.351
		c-0.554-0.264-0.496-0.612-0.496-2.652v-4.811c0-3.79-2.157-4.314-5.393-4.314c-1.486,0-5.072,0.379-5.188,2.536
		c-0.059,0.962,0.933,1.312,1.574,1.312c0.729,0,1.224-0.642,1.282-1.283c0.087-1.545,0.729-1.72,2.128-1.72
		c2.391,0,2.478,1.341,2.478,3.322c0,0.321-0.175,0.699-0.466,0.846L117.331,16.459L117.331,16.459z"/>
	<path fill-rule="evenodd" clip-rule="evenodd" fill="#231F20" d="M140.855,13.951c0-2.77-1.981-4.139-4.751-4.139
		c-1.721,0-3.557,0.67-4.606,2.478l-0.291-2.595c-1.312,0.291-2.74,0.583-4.372,0.903v0.816c0.933,0,1.604-0.116,1.836,0.933
		c0.146,0.671,0.087,2.945,0.087,3.761v3.352c0,1.924,0.146,2.624-2.04,2.771v0.816c1.166,0,2.565,0,3.702,0c1.05,0,2.419,0,3.469,0
		V22.23c-2.303-0.146-2.04-1.021-2.04-2.945v-4.431c0-2.128,1.166-3.76,3.439-3.76c2.769,0,2.449,2.856,2.449,4.868v3.497
		c0,1.924,0.028,2.624-2.158,2.771v0.816c1.166,0,2.595,0,3.731,0c1.05,0,2.478,0,3.527,0V22.23
		c-2.273-0.146-1.982-1.021-1.982-2.945V13.951L140.855,13.951z"/>
	<path fill-rule="evenodd" clip-rule="evenodd" fill="#231F20" d="M151.607,20.161c0,0.814-1.836,1.661-2.973,1.661
		c-0.875,0-1.429-0.643-1.429-1.721c0-2.331,2.652-3.294,4.401-4.139V20.161L151.607,20.161z M148.227,16.459
		c-1.779,0.844-4.111,1.895-4.111,4.343c0,1.633,1.254,2.594,2.799,2.594c2.1,0,3.44-0.757,4.81-1.865
		c0.292,1.166,1.283,1.865,2.682,1.865c0.612,0,2.041-0.67,2.595-1.546l-0.495-0.378c-0.408,0.291-0.787,0.612-1.312,0.351
		c-0.553-0.264-0.495-0.612-0.495-2.652v-4.811c0-3.79-2.157-4.314-5.393-4.314c-1.486,0-5.072,0.379-5.189,2.536
		c-0.058,0.962,0.934,1.312,1.575,1.312c0.729,0,1.224-0.642,1.282-1.283c0.087-1.545,0.729-1.72,2.128-1.72
		c2.391,0,2.478,1.341,2.478,3.322c0,0.321-0.175,0.699-0.467,0.846L148.227,16.459L148.227,16.459z"/>
	<path fill-rule="evenodd" clip-rule="evenodd" fill="#F05C2F" d="M25.227,16.841L12.841,4.456L0.476,16.821
		c-0.169-0.599-0.294-1.214-0.375-1.846l12.74-12.74l12.762,12.761C25.522,15.626,25.396,16.242,25.227,16.841L25.227,16.841z"/>
	<path fill-rule="evenodd" clip-rule="evenodd" fill="#F05C2F" d="M24.454,18.882L12.841,7.275L1.248,18.87
		c-0.219-0.457-0.412-0.931-0.576-1.415L12.841,5.286l12.189,12.183C24.867,17.952,24.673,18.425,24.454,18.882L24.454,18.882z"/>
	<path fill-rule="evenodd" clip-rule="evenodd" fill="#F05C2F" d="M23.426,20.647L12.841,10.063l-10.57,10.57
		c-0.235-0.34-0.454-0.692-0.657-1.056L12.841,8.352l11.243,11.242C23.882,19.957,23.662,20.31,23.426,20.647L23.426,20.647z"/>
	<path fill-rule="evenodd" clip-rule="evenodd" fill="#F05C2F" d="M22.16,22.202l-9.319-9.318l-9.302,9.309
		c-0.241-0.254-0.471-0.517-0.691-0.789l9.993-10l10.011,10.011C22.632,21.686,22.401,21.949,22.16,22.202L22.16,22.202z"/>
	<path fill-rule="evenodd" clip-rule="evenodd" fill="#F05C2F" d="M20.716,23.508l-7.875-7.874l-7.862,7.861
		c-0.208-0.16-0.41-0.329-0.607-0.502l8.469-8.47l8.482,8.481l-0.1,0.087C21.058,23.235,20.889,23.373,20.716,23.508L20.716,23.508z
		"/>
	<path fill-rule="evenodd" clip-rule="evenodd" fill="#F05C2F" d="M19.015,24.628l-6.174-6.175l-6.162,6.162
		c-0.188-0.103-0.374-0.211-0.556-0.324l6.718-6.718l6.729,6.729C19.388,24.415,19.203,24.523,19.015,24.628L19.015,24.628z"/>
	<path fill-rule="evenodd" clip-rule="evenodd" fill="#F05C2F" d="M17.054,25.5l-4.213-4.212l-4.2,4.205
		c-0.17-0.06-0.339-0.122-0.505-0.188l4.705-4.711l4.719,4.718C17.393,25.378,17.225,25.44,17.054,25.5L17.054,25.5z"/>
	<path fill-rule="evenodd" clip-rule="evenodd" fill="#F05C2F" d="M25.652,14.553L12.841,1.742L0.054,14.537
		C0.018,14.151,0,13.761,0,13.366C0,10.39,1.036,7.65,2.731,5.482C5.088,2.465,8.773,0.5,12.866,0.5
		c7.093,0,12.842,5.797,12.842,12.866C25.708,13.767,25.689,14.162,25.652,14.553L25.652,14.553z"/>
</g>
</svg>
