<?xml version="1.0" encoding="utf-8"?>
<!-- Generator: Adobe Illustrator 16.0.0, SVG Export Plug-In . SVG Version: 6.00 Build 0)  -->
<!DOCTYPE svg PUBLIC "-//W3C//DTD SVG 1.0//EN" "http://www.w3.org/TR/2001/REC-SVG-20010904/DTD/svg10.dtd">
<svg version="1.0" id="LR" xmlns="http://www.w3.org/2000/svg" xmlns:xlink="http://www.w3.org/1999/xlink" x="0px" y="0px"
	 width="157px" height="26px" viewBox="0 0 157 26" enable-background="new 0 0 157 26" xml:space="preserve">
<g>
	<path fill-rule="evenodd" clip-rule="evenodd" fill="#1E3B6E" d="M83.819,23.465c0.156-0.916,0.462-2.113-0.73-2.113
		c-0.975,0-1.427,1.232-1.592,2.057c-0.315,1.578,0.083,2.071,0.779,2.071c0.775,0,1.274-0.642,1.395-1.409h-0.49
		c-0.056,0.443-0.293,0.937-0.797,0.937c-0.736,0-0.446-1.015-0.354-1.542l0.092-0.459c0.112-0.465,0.27-1.184,0.88-1.184
		c0.609,0,0.438,0.727,0.366,1.184h-1.246l-0.092,0.459H83.819L83.819,23.465z"/>
	<path fill-rule="evenodd" clip-rule="evenodd" fill="#1E3B6E" d="M70.842,23.465c0.157-0.916,0.462-2.113-0.73-2.113
		c-0.975,0-1.427,1.232-1.591,2.057c-0.316,1.578,0.083,2.071,0.779,2.071c0.775,0,1.275-0.642,1.396-1.409h-0.491
		c-0.056,0.443-0.293,0.937-0.797,0.937c-0.735,0-0.446-1.015-0.354-1.542l0.091-0.459c0.113-0.465,0.27-1.184,0.88-1.184
		s0.438,0.727,0.367,1.184h-1.247l-0.091,0.459H70.842L70.842,23.465z"/>
	<path fill-rule="evenodd" clip-rule="evenodd" fill="#1E3B6E" d="M66.269,23.465c0.156-0.916,0.462-2.113-0.731-2.113
		c-0.975,0-1.426,1.232-1.591,2.057c-0.315,1.578,0.083,2.071,0.779,2.071c0.776,0,1.275-0.642,1.396-1.409H65.63
		c-0.055,0.443-0.293,0.937-0.797,0.937c-0.736,0-0.447-1.015-0.354-1.542l0.092-0.459c0.113-0.465,0.27-1.184,0.879-1.184
		c0.61,0,0.438,0.727,0.367,1.184h-1.246l-0.092,0.459H66.269L66.269,23.465z"/>
	<path fill-rule="evenodd" clip-rule="evenodd" fill="#1E3B6E" d="M55.808,22.414c0.019-0.092,0.306-1.062-0.788-1.062
		c-0.743,0-1.191,0.352-1.327,1.162h0.471c0.085-0.459,0.198-0.691,0.675-0.691c0.424,0,0.549,0.17,0.46,0.613
		c-0.041,0.205-0.059,0.359-0.189,0.451c-0.078,0.057-0.879,0.353-1.206,0.493c-0.558,0.239-0.691,0.804-0.721,0.951
		c-0.142,0.712-0.018,1.148,0.718,1.148c0.352,0,0.748-0.289,0.942-0.635h0.013c-0.054,0.536,0.103,0.577,0.551,0.558
		c0.042-0.015,0.084-0.021,0.125-0.029l0.082-0.408c-0.074,0.008-0.155,0.014-0.224-0.007c-0.095-0.056-0.053-0.197-0.034-0.296
		l-0.453-0.451c-0.127,0.634-0.597,0.796-0.796,0.796c-0.424,0-0.466-0.253-0.387-0.647c0.053-0.268,0.191-0.557,0.46-0.676
		c0.307-0.142,0.622-0.262,0.913-0.424l-0.19,0.951l0.453,0.451L55.808,22.414L55.808,22.414z"/>
	<path fill-rule="evenodd" clip-rule="evenodd" fill="#1E3B6E" d="M73.761,22.414c0.019-0.092,0.306-1.062-0.788-1.062
		c-0.742,0-1.191,0.352-1.326,1.162h0.47c0.085-0.459,0.198-0.691,0.675-0.691c0.424,0,0.549,0.17,0.461,0.613
		c-0.041,0.205-0.059,0.359-0.19,0.451c-0.078,0.057-0.879,0.353-1.206,0.493c-0.558,0.239-0.691,0.804-0.72,0.951
		c-0.143,0.712-0.018,1.148,0.718,1.148c0.351,0,0.747-0.289,0.942-0.635h0.013c-0.054,0.536,0.104,0.577,0.552,0.558
		c0.042-0.015,0.083-0.021,0.125-0.029l0.082-0.408c-0.074,0.008-0.155,0.014-0.224-0.007c-0.095-0.056-0.053-0.197-0.034-0.296
		l-0.453-0.451c-0.127,0.634-0.597,0.796-0.795,0.796c-0.424,0-0.466-0.253-0.388-0.647c0.054-0.268,0.191-0.557,0.46-0.676
		c0.307-0.142,0.623-0.262,0.913-0.424l-0.19,0.951l0.453,0.451L73.761,22.414L73.761,22.414z"/>
	<path fill-rule="evenodd" clip-rule="evenodd" fill="#1E3B6E" d="M98.975,22.414c0.018-0.092,0.305-1.062-0.789-1.062
		c-0.742,0-1.19,0.352-1.326,1.162h0.471c0.085-0.459,0.198-0.691,0.675-0.691c0.425,0,0.55,0.17,0.461,0.613
		c-0.041,0.205-0.059,0.359-0.189,0.451c-0.077,0.057-0.879,0.353-1.205,0.493c-0.559,0.239-0.691,0.804-0.721,0.951
		c-0.143,0.712-0.018,1.148,0.718,1.148c0.352,0,0.747-0.289,0.942-0.635h0.014c-0.055,0.536,0.103,0.577,0.551,0.558
		c0.043-0.015,0.084-0.021,0.125-0.029l0.082-0.408c-0.074,0.008-0.155,0.014-0.224-0.007c-0.096-0.056-0.054-0.197-0.034-0.296
		l-0.453-0.451c-0.127,0.634-0.597,0.796-0.796,0.796c-0.424,0-0.466-0.253-0.388-0.647c0.055-0.268,0.191-0.557,0.461-0.676
		c0.307-0.142,0.622-0.262,0.913-0.424l-0.19,0.951l0.453,0.451L98.975,22.414L98.975,22.414z"/>
	<path fill-rule="evenodd" clip-rule="evenodd" fill="#1E3B6E" d="M90.342,5.691h-5.067c-2.781,0-6.427,1.916-7.23,5.129
		s0.741,6.489,4.758,6.489h4.265l1.298-4.325l-4.512,3.213c-0.803,0.556-1.606,0.124-1.298-0.927l2.163-7.725
		c0.31-1.174,1.359-1.236,1.978-0.618l2.596,2.534L90.342,5.691L90.342,5.691z"/>
	<path fill-rule="evenodd" clip-rule="evenodd" fill="#1E3B6E" d="M89.785,12.798l-1.235,4.511h7.725
		c1.854,0,2.657-1.482,2.843-1.916c0.185-0.432,0.741-2.471-0.742-3.893l-3.584-3.399c-0.989-0.927,0.371-2.41,1.606-1.298
		l3.214,3.028l1.174-4.14h-6.488c-1.545,0-2.904,0.371-3.522,1.545s-0.68,2.966,0.803,4.388l3.152,3.089
		c1.051,1.174-0.31,2.596-1.483,1.422L89.785,12.798L89.785,12.798z"/>
	<path fill-rule="evenodd" clip-rule="evenodd" fill="#1E3B6E" d="M106.965,15.764c-0.216,0.742-0.896,0.711-1.205,0.711
		c-0.309,0-1.537,0.203-0.803-2.874c0.648-2.719,1.761-2.534,2.286-2.564c0.525-0.031,0.741,0.123,0.928,0.247L106.965,15.764
		L106.965,15.764z M108.448,10.295h-4.109c-1.792,0-3.925,1.483-4.171,3.337c-0.248,1.853,1.02,3.676,3.954,3.676h7.602l2.256-8.064
		c0.433-1.606-0.247-3.553-2.225-3.553h-7.293l-1.081,3.801l4.882-2.874c0.588-0.34,1.268-0.124,1.082,0.433L108.448,10.295
		L108.448,10.295z"/>
	<path fill-rule="evenodd" clip-rule="evenodd" fill="#1E3B6E" d="M70.752,15.764c-0.216,0.742-0.896,0.711-1.205,0.711
		s-1.538,0.203-0.804-2.874c0.649-2.719,1.762-2.534,2.287-2.564c0.525-0.031,0.742,0.123,0.927,0.247L70.752,15.764L70.752,15.764z
		 M72.235,10.295h-4.109c-1.792,0-3.924,1.483-4.171,3.337c-0.247,1.853,1.02,3.676,3.955,3.676h7.601l2.256-8.064
		c0.433-1.606-0.248-3.553-2.225-3.553h-7.292l-1.082,3.801l4.882-2.874c0.587-0.34,1.267-0.124,1.081,0.433L72.235,10.295
		L72.235,10.295z"/>
	<polygon fill-rule="evenodd" clip-rule="evenodd" fill="#1E3B6E" points="49.864,0.5 45.167,17.309 46.589,17.309 51.285,0.5 
		49.864,0.5 	"/>
	<polygon fill-rule="evenodd" clip-rule="evenodd" fill="#C42032" points="53.14,0.5 48.443,17.309 51.285,17.309 55.982,0.5 
		53.14,0.5 	"/>
	<path fill-rule="evenodd" clip-rule="evenodd" fill="#1E3B6E" d="M53.263,17.309L57.959,0.5h1.298l-4.079,14.522
		c-0.371,1.174,0.927,1.729,1.854,0.988l7.292-5.994l-2.039,7.292H53.263L53.263,17.309z"/>
	<polygon fill-rule="evenodd" clip-rule="evenodd" fill="#1E3B6E" points="42.896,25.373 43.953,20.09 44.503,20.09 43.552,24.845 
		45.58,24.845 45.475,25.373 42.896,25.373 	"/>
	<polygon fill-rule="evenodd" clip-rule="evenodd" fill="#1E3B6E" points="45.89,25.373 46.674,21.456 47.197,21.456 46.414,25.373 
		45.89,25.373 	"/>
	<polygon fill-rule="evenodd" clip-rule="evenodd" fill="#1E3B6E" points="46.806,20.795 46.947,20.09 47.471,20.09 47.33,20.795 
		46.806,20.795 	"/>
	<path fill-rule="evenodd" clip-rule="evenodd" fill="#1E3B6E" d="M48.205,21.886c0.333-0.338,0.644-0.534,1.042-0.534
		c0.55,0,0.846,0.31,0.708,1l-0.604,3.021h-0.524l0.573-2.867c0.082-0.408,0.011-0.684-0.414-0.684
		c-0.192,0-0.393,0.078-0.561,0.219c-0.253,0.204-0.325,0.43-0.381,0.711l-0.524,2.621h-0.524l0.784-3.917h0.51L48.205,21.886
		L48.205,21.886z"/>
	<path fill-rule="evenodd" clip-rule="evenodd" fill="#1E3B6E" d="M52.828,23.465c0.157-0.916,0.462-2.113-0.73-2.113
		c-0.975,0-1.427,1.232-1.591,2.057c-0.316,1.578,0.083,2.071,0.779,2.071c0.775,0,1.275-0.642,1.395-1.409h-0.49
		c-0.056,0.443-0.293,0.937-0.797,0.937c-0.736,0-0.447-1.015-0.354-1.542l0.091-0.459c0.113-0.465,0.27-1.184,0.88-1.184
		s0.438,0.727,0.366,1.184h-1.246l-0.091,0.459H52.828L52.828,23.465z"/>
	<path fill-rule="evenodd" clip-rule="evenodd" fill="#1E3B6E" d="M58.294,22.506c0.113-0.465-0.003-0.684-0.447-0.684
		c-0.371,0-0.62,0.184-0.702,0.592c-0.102,0.508,0.277,0.57,0.603,0.733c0.479,0.253,0.981,0.395,0.835,1.127
		c-0.149,0.747-0.733,1.212-1.487,1.205c-0.326,0.007-0.7-0.113-0.833-0.409c-0.156-0.31-0.091-0.57-0.038-0.838h0.497
		c-0.116,0.479-0.022,0.774,0.468,0.774c0.424,0,0.739-0.183,0.835-0.662c0.111-0.557-0.409-0.605-0.753-0.774
		c-0.525-0.227-0.815-0.43-0.679-1.113c0.135-0.676,0.666-1.105,1.302-1.105c0.729,0,1.083,0.352,0.909,1.154H58.294L58.294,22.506z
		"/>
	<polygon fill-rule="evenodd" clip-rule="evenodd" fill="#1E3B6E" points="62.616,23.852 62.703,25.373 63.312,25.373 62.97,20.09 
		62.241,20.09 59.766,25.373 60.376,25.373 61.045,23.852 61.283,23.324 62.501,20.513 62.515,20.513 62.596,23.324 61.266,23.324 
		61.045,23.852 62.616,23.852 	"/>
	<path fill-rule="evenodd" clip-rule="evenodd" fill="#1E3B6E" d="M67.707,22.098h0.013c0.322-0.514,0.677-0.732,1.217-0.684
		l-0.11,0.549c-0.651-0.126-1.139,0.325-1.281,1.037l-0.475,2.373h-0.523l0.783-3.917h0.503L67.707,22.098L67.707,22.098z"/>
	<path fill-rule="evenodd" clip-rule="evenodd" fill="#1E3B6E" d="M76.188,22.506c0.113-0.465-0.002-0.684-0.446-0.684
		c-0.372,0-0.62,0.184-0.702,0.592c-0.102,0.508,0.277,0.57,0.602,0.733c0.48,0.253,0.982,0.395,0.835,1.127
		c-0.149,0.747-0.733,1.212-1.487,1.205c-0.326,0.007-0.7-0.113-0.833-0.409c-0.157-0.31-0.091-0.57-0.038-0.838h0.497
		c-0.116,0.479-0.022,0.774,0.468,0.774c0.424,0,0.739-0.183,0.835-0.662c0.111-0.557-0.409-0.605-0.753-0.774
		c-0.525-0.227-0.816-0.43-0.679-1.113c0.135-0.676,0.666-1.105,1.302-1.105c0.729,0,1.083,0.352,0.909,1.154H76.188L76.188,22.506z
		"/>
	<path fill-rule="evenodd" clip-rule="evenodd" fill="#1E3B6E" d="M81.466,20.09h-0.523l-0.354,1.769h-0.014
		c-0.178-0.339-0.369-0.507-0.747-0.507c-0.788,0-1.328,0.908-1.518,2.057c-0.056,0.345-0.494,2.071,0.667,2.071
		c0.444,0,0.7-0.155,1.018-0.62h0.014l-0.104,0.514h0.505l-0.217-1.535c-0.089,0.443-0.387,1.169-0.931,1.169
		c-0.715,0-0.588-0.768-0.419-1.613c0.24-1.204,0.599-1.571,1.036-1.571c0.703,0,0.518,0.994,0.41,1.529l-0.097,0.486l0.217,1.535
		L81.466,20.09L81.466,20.09z"/>
	<path fill-rule="evenodd" clip-rule="evenodd" fill="#1E3B6E" d="M88.48,21.675c0.112-0.627,0.026-1.162-0.662-1.162
		c-0.955,0-1.258,1.444-1.396,2.142c-0.17,0.719-0.504,2.318,0.504,2.318c0.656,0,0.91-0.571,1.092-1.148
		c0.037-0.121,0.067-0.24,0.104-0.359h0.55c-0.034,0.105-0.057,0.219-0.091,0.323c-0.119,0.43-0.203,0.755-0.516,1.12
		c-0.334,0.381-0.722,0.592-1.199,0.592c-1.53,0-1.27-1.57-1.018-2.832c0.238-1.19,0.702-2.684,2.114-2.684
		c0.941,0,1.283,0.746,1.067,1.69H88.48L88.48,21.675z"/>
	<path fill-rule="evenodd" clip-rule="evenodd" fill="#1E3B6E" d="M90.762,21.822c0.55,0,0.686,0.451,0.448,1.635
		c-0.185,0.924-0.462,1.55-1.086,1.55c-0.609,0-0.649-0.626-0.465-1.55C89.896,22.273,90.225,21.822,90.762,21.822l0.094-0.471
		c-0.907,0-1.468,0.746-1.705,1.93c-0.338,1.691,0.085,2.198,0.88,2.198c0.809,0,1.419-0.501,1.759-2.198
		c0.236-1.184-0.025-1.93-0.934-1.93L90.762,21.822L90.762,21.822z"/>
	<path fill-rule="evenodd" clip-rule="evenodd" fill="#1E3B6E" d="M94.043,22.506c0.113-0.465-0.002-0.684-0.446-0.684
		c-0.371,0-0.62,0.184-0.702,0.592c-0.102,0.508,0.277,0.57,0.604,0.733c0.479,0.253,0.981,0.395,0.834,1.127
		c-0.148,0.747-0.732,1.212-1.486,1.205c-0.326,0.007-0.7-0.113-0.833-0.409c-0.157-0.31-0.092-0.57-0.038-0.838h0.497
		c-0.115,0.479-0.022,0.774,0.468,0.774c0.425,0,0.739-0.183,0.836-0.662c0.11-0.557-0.409-0.605-0.753-0.774
		c-0.525-0.227-0.816-0.43-0.68-1.113c0.136-0.676,0.665-1.105,1.302-1.105c0.729,0,1.083,0.352,0.909,1.154H94.043L94.043,22.506z"
		/>
	<path fill-rule="evenodd" clip-rule="evenodd" fill="#1E3B6E" d="M96.15,21.456h0.616l-0.094,0.473h-0.61l-0.534,2.67
		c-0.026,0.134-0.106,0.304,0.185,0.304h0.352l-0.095,0.471h-0.576c-0.312,0.008-0.533-0.049-0.415-0.641l0.561-2.804h-0.511
		l0.095-0.473h0.511l0.212-1.063h0.518L96.15,21.456L96.15,21.456z"/>
	<path fill-rule="evenodd" clip-rule="evenodd" fill="#1E3B6E" d="M102.183,20.618h0.776c0.371,0,1.036,0.021,0.868,0.93
		c-0.172,0.923-0.896,0.966-1.156,0.973h-0.868l-0.105,0.528h0.961c0.649,0,0.758,0.451,0.652,0.979
		c-0.07,0.353-0.148,1.007-0.097,1.345h0.644l0.023-0.119c-0.133,0-0.126-0.232-0.126-0.332c0.026-0.394,0.07-0.781,0.129-1.176
		c0.062-0.705-0.054-0.924-0.684-0.986l0.003-0.014c0.593-0.084,1.04-0.529,1.184-1.148c0.276-1.219-0.328-1.508-1.369-1.508h-1.279
		l-1.057,5.283h0.551L102.183,20.618L102.183,20.618z"/>
	<polygon fill-rule="evenodd" clip-rule="evenodd" fill="#1E3B6E" points="104.391,25.373 105.175,21.456 105.698,21.456 
		104.915,25.373 104.391,25.373 	"/>
	<polygon fill-rule="evenodd" clip-rule="evenodd" fill="#1E3B6E" points="105.307,20.795 105.448,20.09 105.972,20.09 
		105.83,20.795 105.307,20.795 	"/>
	<path fill-rule="evenodd" clip-rule="evenodd" fill="#1E3B6E" d="M106.454,23.584c-0.103,0.515-0.251,1.423,0.418,1.423
		c0.57,0,0.728-0.521,0.85-1h0.497c-0.17,0.754-0.579,1.473-1.401,1.473c-1.127,0-1.086-1.001-0.883-2.015
		c0.191-0.959,0.568-2.113,1.695-2.113c0.742,0,0.978,0.611,0.826,1.338h-0.49c0.079-0.43,0.061-0.867-0.437-0.867
		C106.767,21.822,106.565,23.027,106.454,23.584L106.454,23.584z"/>
	<path fill-rule="evenodd" clip-rule="evenodd" fill="#1E3B6E" d="M111.056,22.414c0.019-0.092,0.306-1.062-0.788-1.062
		c-0.743,0-1.191,0.352-1.326,1.162h0.471c0.085-0.459,0.197-0.691,0.675-0.691c0.424,0,0.55,0.17,0.461,0.613
		c-0.041,0.205-0.06,0.359-0.19,0.451c-0.077,0.057-0.879,0.353-1.205,0.493c-0.559,0.239-0.69,0.804-0.721,0.951
		c-0.143,0.712-0.017,1.148,0.719,1.148c0.352,0,0.747-0.289,0.941-0.635h0.014c-0.054,0.536,0.104,0.577,0.552,0.558
		c0.042-0.015,0.084-0.021,0.125-0.029l0.081-0.408c-0.074,0.008-0.155,0.014-0.224-0.007c-0.095-0.056-0.053-0.197-0.033-0.296
		l-0.454-0.451c-0.127,0.634-0.597,0.796-0.795,0.796c-0.425,0-0.467-0.253-0.388-0.647c0.054-0.268,0.191-0.557,0.46-0.676
		c0.307-0.142,0.622-0.262,0.913-0.424l-0.19,0.951l0.454,0.451L111.056,22.414L111.056,22.414z"/>
</g>
</svg>
