<?xml version="1.0" encoding="utf-8"?>
<!-- Generator: Adobe Illustrator 23.0.1, SVG Export Plug-In . SVG Version: 6.00 Build 0)  -->
<svg version="1.1" id="AT" xmlns="http://www.w3.org/2000/svg" xmlns:xlink="http://www.w3.org/1999/xlink" x="0px" y="0px"
	 viewBox="0 0 35.2 26" style="enable-background:new 0 0 35.2 26;" xml:space="preserve">
<style type="text/css">
	.st0{fill:#CC1F3D;}
	.st1{fill:#CE2922;}
</style>
<g>
	<path class="st0" d="M18.4,9.8l1.1,3.4l-1.3-0.9l-0.4,0.2l2.2,1.6c-0.7,0.5-1.5,0.7-2.4,0.7c-0.8,0-1.6-0.2-2.2-0.6L15,14.5
		c0.8,0.5,1.7,0.8,2.6,0.8c1.1,0,2-0.3,2.8-0.9l0,0l-1.5-4.7L18.4,9.8L18.4,9.8z M18.7,11.6l-0.2-0.5l-2.9,2.1l0.5-1.5l-0.4-0.3
		L14.9,14c-1-0.8-1.7-2-1.7-3.4c0-0.3,0-0.6,0.1-0.9l-0.4-0.3c-0.1,0.4-0.2,0.8-0.2,1.2c0,1.6,0.8,3,2,3.9l0,0L18.7,11.6z
		 M22.4,10.5c0-0.5-0.1-1-0.2-1.5l0,0l0,0h-4.9l-0.2,0.5h3.5l-1.3,0.9l0.2,0.5l2.2-1.6c0.1,0.4,0.2,0.8,0.2,1.2
		c0,1.3-0.6,2.5-1.5,3.2l0.2,0.5C21.7,13.4,22.4,12,22.4,10.5z M21.6,8.8h0.5c-0.7-1.8-2.5-3.1-4.5-3.1l0,0l0,0l-1.5,4.7l0.4,0.3
		l1.1-3.4l0.5,1.5h0.5l-0.8-2.6C19.4,6.2,20.9,7.3,21.6,8.8z M13,9l4,2.9l0.4-0.3l-2.9-2.1h1.6L16.3,9h-2.7c0.6-1.5,2-2.7,3.7-2.8
		l0.2-0.5C15.3,5.8,13.6,7.2,13,9L13,9L13,9z M18.3,1.9c-0.2,0.4,0,0.9,0.3,1c0.4,0.1,0.8,0,0.9-0.5c0-0.1,0-0.2-0.2-0.3
		C19.2,2,19,2.1,19,2.2c0,0.1,0,0.2,0,0.3c0,0-0.1,0.1-0.3,0c-0.2-0.1-0.3-0.2-0.3-0.2c0.1,0,0.2-0.1,0.2-0.2c0.1-0.1,0-0.3-0.1-0.3
		C18.5,1.8,18.4,1.8,18.3,1.9z M19.6,4.2C19.4,3.8,19,4,18.8,4.6c0.1,0,0.3,0.1,0.4,0.1C19.4,4.2,19.6,4.2,19.6,4.2z M19.7,3.4
		c0.4-0.3,0.6-0.5,0.9-0.5S21,3,21.1,3.1c0.1,0.1,0.2,0.3,0.2,0.7c0,0.3-0.1,0.5-0.2,0.6s-0.3,0.3-0.5,0.4c-0.3,0.1-0.3,0.4-0.3,0.4
		c0.6,0,0.9-0.3,1.1-0.5s0.3-0.5,0.3-0.9s-0.1-0.7-0.3-1c-0.1-0.3-0.4-0.4-0.7-0.4c-0.4,0-0.7,0.2-0.9,0.4c-0.2,0.2-0.5,0.5-1.1,0.4
		C18.8,3.7,19.4,3.6,19.7,3.4z M20.3,4.6c-0.1-0.2-0.5-0.4-0.7,0.2c0.1,0,0.3,0.1,0.4,0.2C20.1,4.6,20.3,4.6,20.3,4.6z M16.7,4.5
		c0.2,0,0.3,0,0.5,0c-0.2-0.8-0.7-1-0.9-0.6C16.3,3.9,16.6,3.9,16.7,4.5z M17.6,3.2L17.6,3.2L17.6,3.2c-0.2,0.2-0.3,0.5-0.3,0.5
		c0.1,0.1,0.3,0.5,0.3,0.5s0.2-0.3,0.3-0.5C17.9,3.7,17.8,3.4,17.6,3.2L17.6,3.2L17.6,3.2z M18,4.5c0.2,0,0.3,0,0.5,0
		c0.1-0.6,0.4-0.6,0.4-0.6C18.6,3.5,18.2,3.7,18,4.5z M17.1,2l0.5-0.4L18.1,2l-0.2-0.6L18.4,1h-0.6l-0.2-0.5l-0.2,0.6h-0.6l0.5,0.4
		L17.1,2z M17.6,2.1c-0.2,0-0.4,0.2-0.4,0.4c0,0.2,0.2,0.4,0.4,0.4S18,2.7,18,2.5S17.8,2.1,17.6,2.1z M20.3,5.9V5.4
		c-0.8-0.4-1.7-0.7-2.7-0.7s-1.9,0.2-2.7,0.7V6c0.8-0.5,1.7-0.7,2.7-0.7C18.6,5.2,19.5,5.5,20.3,5.9z M16.5,2.9
		c0.4-0.1,0.6-0.6,0.3-1c-0.1-0.1-0.2-0.1-0.3-0.1c-0.1,0.1-0.2,0.2-0.1,0.3c0,0.1,0.1,0.1,0.2,0.2c0,0,0,0.1-0.3,0.2
		c-0.2,0.1-0.3,0-0.3,0c0.1-0.1,0.1-0.2,0-0.3c-0.1-0.1-0.2-0.2-0.3-0.1c-0.1,0-0.2,0.2-0.2,0.3C15.7,2.9,16.2,3.1,16.5,2.9z
		 M15.5,4.2c0,0,0.2,0,0.4,0.5c0.1,0,0.3-0.1,0.4-0.1C16.1,4,15.7,3.9,15.5,4.2z M15.1,5c0.1-0.1,0.3-0.1,0.4-0.2
		c-0.2-0.6-0.6-0.4-0.7-0.2C14.9,4.6,15,4.6,15.1,5z M14.7,5.2c0,0,0-0.3-0.2-0.4S14.1,4.5,14,4.4s-0.2-0.3-0.2-0.6s0.1-0.5,0.2-0.7
		c0.1-0.1,0.3-0.2,0.5-0.2c0.3,0,0.5,0.2,0.9,0.5c0.3,0.2,1,0.3,1-0.1c-0.5,0-0.9-0.3-1.1-0.4c-0.2-0.2-0.5-0.4-0.9-0.4
		s-0.7,0.1-0.9,0.4c-0.2,0.2-0.3,0.6-0.3,1s0.1,0.7,0.3,0.9C13.8,4.9,14.2,5.2,14.7,5.2z M22.4,9c0,0.2,0.1,0.3,0.1,0.5h7.7
		c-0.4,0.4-0.6,0.7-1.9,0.7H26c-0.3,0.3-0.9,0.5-0.9,0.5h3.4c1.1,0,1.6-0.3,2.1-0.9l0.8-0.9L22.4,9L22.4,9z M27.3,11.4h-2.4
		c-0.3,0.3-0.9,0.5-0.9,0.5h3.4c1.1,0,1.6-0.3,2.1-0.9l0.1-0.2H29C28.7,11.3,28.4,11.4,27.3,11.4z M26.3,12.7h-2.4
		C23.6,13,23,13.2,23,13.2h3.5c1.1,0,1.6-0.3,2.1-0.9l0.1-0.2H28C27.6,12.5,27.3,12.7,26.3,12.7z M25.2,13.9h-3.8
		c-0.2,0.2-0.3,0.3-0.5,0.5h4.5c1.1,0,1.6-0.3,2.1-0.9l0.1-0.2h-0.7C26.6,13.7,26.3,13.9,25.2,13.9z M12.1,13.2c0,0-0.6-0.2-0.9-0.5
		H8.9c-1,0-1.4-0.2-1.7-0.5H6.5l0.1,0.2c0.5,0.5,1,0.9,2.1,0.9L12.1,13.2L12.1,13.2z M13.7,13.9H9.9c-1,0-1.4-0.2-1.7-0.5H7.5
		l0.2,0.1c0.5,0.5,1,0.9,2.1,0.9h4.5C14.1,14.2,13.9,14,13.7,13.9z M10,10.7c0,0-0.6-0.2-0.9-0.5H6.8c-1.3,0-1.5-0.2-1.9-0.7h7.7
		c0-0.2,0.1-0.3,0.1-0.5H3.8l0.8,0.9c0.5,0.5,1,0.9,2.1,0.9L10,10.7L10,10.7z M11.1,11.9c0,0-0.6-0.2-0.9-0.5H7.8
		c-1,0-1.4-0.2-1.7-0.5H5.4l0.1,0.2C6,11.6,6.5,12,7.6,12L11.1,11.9L11.1,11.9z"/>
	<path class="st1" d="M7.7,19.1c0,0.8-0.5,1-0.9,1s-0.9-0.2-0.9-1s0.5-1,0.9-1S7.7,18.3,7.7,19.1z M6.8,18.5c-0.3,0-0.4,0.3-0.4,0.6
		s0.1,0.6,0.4,0.6s0.4-0.3,0.4-0.6S7.1,18.5,6.8,18.5z M5,18.4v-0.3H4.5V20H5c0,0,0-0.9,0-1.2c0.1-0.1,0.3-0.2,0.5-0.1l0.1-0.5
		C5.4,18,5.2,18.1,5,18.4z M28.7,19.1c0,0.8-0.5,1-0.9,1s-0.9-0.2-0.9-1s0.5-1,0.9-1S28.7,18.3,28.7,19.1z M27.8,18.5
		c-0.3,0-0.4,0.3-0.4,0.6s0.1,0.6,0.4,0.6s0.4-0.3,0.4-0.6S28.1,18.5,27.8,18.5z M30.1,19.7c-0.3,0-0.4-0.3-0.4-0.6s0.1-0.6,0.4-0.6
		s0.4,0.1,0.4,0.1l0.1-0.3c0,0-0.2-0.2-0.6-0.2s-0.9,0.2-0.9,1s0.5,1,0.9,1c0.3,0,0.6-0.2,0.6-0.2l-0.1-0.3
		C30.5,19.6,30.3,19.7,30.1,19.7z M26.1,18.4v-0.3h-0.5V20h0.5c0,0,0-0.9,0-1.2c0.1-0.1,0.3-0.2,0.5-0.1l0.1-0.5
		C26.4,18,26.2,18.1,26.1,18.4z M18.2,18.4v-0.3h-0.5V20h0.5c0,0,0-0.9,0-1.2c0.1-0.1,0.3-0.2,0.5-0.1l0.1-0.5
		C18.6,18,18.4,18.1,18.2,18.4z M16.6,20h0.5c0,0,0-1.4,0-1.9h-0.5V20z M13.1,20v-0.3c-0.1,0-0.2,0-0.2-0.1v-2.1h-0.5v2.2
		c0,0.2,0.1,0.4,0.4,0.4C13,20.1,13.1,20,13.1,20z M9.4,18.1l-0.5,1.4l-0.4-1.4H8l0.7,2l0,0c-0.1,0.3-0.4,0.4-0.5,0.4v0.4
		c0,0,0.1,0,0.2,0c0.3,0,0.6-0.2,0.7-0.6l0.7-2.2C9.9,18.1,9.4,18.1,9.4,18.1z M11.1,18.1c-0.5,0-0.9,0.3-0.9,1
		c0,0.5,0.2,0.9,0.7,0.9c0.3,0,0.5-0.2,0.5-0.3v0.2h0.5v-1.8C11.8,18.2,11.4,18.1,11.1,18.1z M11,19.7c-0.2,0-0.3-0.2-0.3-0.6
		s0.2-0.6,0.4-0.6c0.1,0,0.2,0,0.2,0v1C11.3,19.6,11.1,19.7,11,19.7z M15.2,18.1c-0.5,0-0.9,0.3-0.9,1c0,0.5,0.2,0.9,0.7,0.9
		c0.3,0,0.5-0.2,0.5-0.3v0.2H16v-1.8C16,18.2,15.5,18.1,15.2,18.1z M15.1,19.7c-0.2,0-0.3-0.2-0.3-0.6s0.2-0.6,0.4-0.6
		c0.1,0,0.2,0,0.2,0v1C15.4,19.6,15.3,19.7,15.1,19.7z M24.2,18.1c-0.5,0-0.9,0.3-0.9,1c0,0.5,0.2,0.9,0.7,0.9
		c0.3,0,0.5-0.2,0.5-0.3v0.2H25v-1.8C24.9,18.2,24.5,18.1,24.2,18.1z M24.1,19.7c-0.2,0-0.3-0.2-0.3-0.6s0.2-0.6,0.4-0.6
		c0.1,0,0.2,0,0.2,0v1C24.4,19.6,24.3,19.7,24.1,19.7z M16.9,17.5c-0.2,0-0.3,0.1-0.3,0.2s0.1,0.2,0.3,0.2s0.3-0.1,0.3-0.2
		S17,17.5,16.9,17.5z M22.2,18.1c-0.2,0-0.3,0.1-0.6,0.4c-0.1-0.2-0.3-0.4-0.5-0.4s-0.4,0.1-0.6,0.3v-0.3H20V20h0.5c0,0,0-0.8,0-1.4
		c0.1,0,0.2-0.1,0.3-0.1c0.2,0,0.3,0.2,0.3,0.3V20h0.5v-1.4c0.1,0,0.2-0.1,0.3-0.1c0.2,0,0.3,0.2,0.3,0.3V20h0.5v-1.4
		C22.8,18.3,22.5,18.1,22.2,18.1z"/>
	<path class="st1" d="M10.7,21.9v2.2c0,0.6,0,0.7,0,0.7c0.2,0,0.6-0.2,0.6-0.7v-1.8c0-0.3,0-0.5,0-0.5S10.9,21.8,10.7,21.9z
		 M6.4,22.4c0.2,0,0.3-0.1,0.3-0.2S6.6,22,6.4,22s-0.3,0.1-0.3,0.2S6.3,22.4,6.4,22.4z M1.4,22.5c0.2,0,0.3-0.1,0.3-0.2
		s-0.1-0.2-0.3-0.2s-0.3,0.1-0.3,0.2S1.3,22.5,1.4,22.5z M0.7,22.6c0.2,0,0.3-0.1,0.3-0.2s-0.1-0.2-0.3-0.2s-0.3,0.1-0.3,0.2
		S0.5,22.6,0.7,22.6z M2.3,24.9C2.1,24.9,2,25,2,25.1s0.1,0.2,0.3,0.2s0.3-0.1,0.3-0.2S2.5,24.9,2.3,24.9z M1.6,25
		c-0.2,0-0.3,0.1-0.3,0.2s0.1,0.2,0.3,0.2s0.3-0.1,0.3-0.2C1.9,25.1,1.7,25,1.6,25z M3.2,25c-0.2,0-0.3,0.1-0.3,0.2s0.1,0.2,0.3,0.2
		s0.3-0.1,0.3-0.2S3.4,25,3.2,25z M9.8,21.9V24c0,0.2,0,0.3-0.1,0.3S9.4,24.2,9.4,24c0-0.3-0.2-0.8-0.8-0.8c-0.7,0-0.9,0.7-0.9,0.9
		c0,0.1,0,0.2-0.4,0.2c-0.2,0-0.4-0.1-0.5-0.2c0.4-0.4,0.5-0.6,0.6-0.8c0.1-0.2,0.1-0.6-0.5-0.6H5.8l-0.4,0.2c0.2,0.5,0.4,1,0.7,1.3
		c-0.1,0-0.3,0.1-0.5,0.1c-0.3,0-0.4-0.1-0.5-0.1c0-0.3-0.1-0.6-0.2-1c0,0-0.3,0-0.5,0.1c0.1,0.4,0.4,1.6,0.1,1.7s-0.8,0.1-0.8,0.1
		c0.1,0.3,0.3,0.4,0.4,0.4s0.6-0.1,0.8-0.5C5,24.9,5,24.8,5,24.6c0.2,0.1,0.8,0.1,1.3-0.2c0.2,0.1,0.5,0.2,0.8,0.2
		c0.5,0,0.6-0.2,0.6-0.2c0.2,0.2,0.5,0.2,0.6,0.2c0.1,0,0.4,0,0.6-0.2c0,0,0.2,0.3,0.7,0.3c0.4,0,0.7-0.2,0.7-0.7v-1.7
		c0-0.3,0-0.5,0-0.5S10,21.8,9.8,21.9z M6.5,24c-0.2-0.2-0.3-0.5-0.5-0.9h0.4c0.3,0,0.3,0.4,0.2,0.7C6.6,23.9,6.6,24,6.5,24z
		 M2.2,24.7c0.2,0,0.4-0.1,0.4-0.1s0.1,0.2,0.7,0.2C3.6,24.7,4,24.5,4,24v-0.7c0-0.3,0-0.5,0-0.5s-0.4,0-0.6,0.1V24
		c0,0.2,0,0.3-0.1,0.3c-0.3,0-0.5-0.1-0.5-0.4v-0.3c0-0.3,0-0.5,0-0.5s-0.4,0-0.6,0.1V24c0,0.2-0.1,0.3-0.2,0.3H1.8
		c-0.1,0-0.1,0-0.1-0.3v-0.8c0-0.3,0-0.5,0-0.5s-0.4,0-0.6,0.1v0.4C0.5,23.4,0,23.8,0,23.8c-0.1,0.1,0,0.4,0.1,0.6s0.4,0.3,0.5,0.3
		c0.2,0,0.5-0.1,0.6-0.2c0.1,0.2,0.2,0.2,0.4,0.2H2.2L2.2,24.7z M1.2,24.3c-0.1,0.1-0.4,0.1-0.5,0S0.5,24,0.6,23.9s0.4-0.3,0.6-0.3
		V24.3z M13.6,22.5c0.2,0,0.3-0.1,0.3-0.2s-0.1-0.2-0.3-0.2s-0.3,0.1-0.3,0.2S13.5,22.5,13.6,22.5z M32.7,22.5
		c0.2,0,0.3-0.1,0.3-0.2s-0.1-0.2-0.3-0.2s-0.3,0.1-0.3,0.2S32.5,22.5,32.7,22.5z M12.9,22.6c0.2,0,0.3-0.1,0.3-0.2
		s-0.1-0.2-0.3-0.2s-0.3,0.1-0.3,0.2S12.7,22.6,12.9,22.6z M15,24.9c-0.2,0-0.3,0.1-0.3,0.2s0.1,0.2,0.3,0.2s0.3-0.1,0.3-0.2
		S15.2,24.9,15,24.9z M14.3,25c-0.2,0-0.3,0.1-0.3,0.2s0.1,0.2,0.3,0.2s0.3-0.1,0.3-0.2S14.5,25,14.3,25z M22.7,21.9v2.2
		c0,0.6,0,0.7,0,0.7c0.2,0,0.6-0.2,0.6-0.7v-1.8c0-0.3,0-0.5,0-0.5S22.9,21.8,22.7,21.9z M34.6,21.9v2.2c0,0.6,0,0.7,0,0.7
		c0.2,0,0.6-0.2,0.6-0.7v-1.8c0-0.3,0-0.5,0-0.5S34.8,21.8,34.6,21.9z M21.8,21.9V24c0,0.2,0,0.3-0.1,0.3s-0.3-0.1-0.3-0.3
		c0-0.3-0.2-0.8-0.8-0.8c-0.7,0-0.9,0.7-0.9,0.9c0,0.1,0,0.2-0.2,0.2c-0.1,0-0.2-0.1-0.3-0.2c0,0,0-0.1,0-0.2v-1.7
		c0-0.3,0-0.5,0-0.5s-0.4,0-0.6,0.1v2.1c0,0.2,0,0.3-0.1,0.3s-0.2,0-0.3-0.2c-0.1-0.1-0.2-0.3-0.3-0.5c-0.1-0.1-0.3-0.2-0.6-0.2h-1
		c-0.3,0-0.4-0.1-0.4-0.1s0.1-0.3,0.2-0.5s0.3-0.3,0.5-0.3c0.1,0,0.2,0.1,0.2,0.1s0.1-0.1,0.1-0.2S16.8,22,16.6,22
		c-0.2,0-0.5,0.2-0.8,0.6c-0.2,0.3-0.4,0.8-0.4,0.8c-0.1,0.1,0.2,0.2,0.2,0.2c0.2,0.1,0.4,0.1,0.5,0.1H17c0.4,0,0.6,0.4,0.6,0.4
		c0,0.1,0,0.1-0.1,0.1h-1.9c-0.3,0-0.5-0.1-0.5-0.4v-0.3c0-0.3,0-0.5,0-0.5s-0.4,0-0.6,0.1v0.8c0,0.2-0.1,0.3-0.2,0.3H14
		c-0.1,0-0.1,0-0.1-0.3v-0.8c0-0.3,0-0.5,0-0.5s-0.4,0-0.6,0.1v0.4c-0.6,0.2-1.1,0.6-1.1,0.6c-0.1,0.1,0,0.4,0.1,0.6
		s0.4,0.3,0.5,0.3c0.2,0,0.5-0.1,0.6-0.2c0.1,0.2,0.2,0.2,0.4,0.2h0.6c0.2,0,0.4-0.1,0.4-0.1s0.1,0.2,0.7,0.2h2.1
		c0.2,0,0.4-0.1,0.4-0.1c0.1,0.1,0.2,0.1,0.5,0.1c0.2,0,0.3,0,0.4-0.1c0.5,0.3,0.8,0,0.9-0.1c0.2,0.2,0.5,0.2,0.6,0.2s0.4,0,0.6-0.2
		c0,0,0.2,0.3,0.7,0.3c0.4,0,0.7-0.2,0.7-0.7v-1.7c0-0.3,0-0.5,0-0.5S22,21.8,21.8,21.9z M13.4,24.3c-0.1,0.1-0.4,0.1-0.5,0
		s-0.2-0.3-0.1-0.4c0.1-0.1,0.4-0.3,0.6-0.3V24.3z M20.5,24.4c-0.3,0-0.4-0.2-0.4-0.5s0.1-0.4,0.1-0.4c0.4,0,0.6,0.4,0.6,0.5
		s0,0.2,0,0.3C20.8,24.3,20.7,24.4,20.5,24.4z M8.6,24.4c-0.3,0-0.4-0.2-0.4-0.5s0.1-0.4,0.1-0.4c0.4,0,0.5,0.4,0.5,0.5s0,0.2,0,0.3
		C8.8,24.3,8.7,24.4,8.6,24.4z M33.6,23.8c0.3,0,0.6-0.2,0.6-0.7v-0.8c0-0.3,0-0.5,0-0.5s-0.4,0-0.6,0.1v1.2c0,0.2,0,0.3-0.1,0.3
		s-0.1,0-0.1-0.1c-0.2-0.4-0.4-0.6-0.8-0.6c-0.2,0-0.5,0.1-0.5,0.1c-0.1,0,0,0.2,0.1,0.4h0.1c0,0,0.2-0.2,0.3-0.1
		c0,0.1,0.3,0.9,0.6,1.1h-0.9c-0.1,0-0.2,0-0.3-0.3c-0.1-0.2-0.3-0.9-0.9-0.9c-0.5,0-1,0.5-1.2,0.8v-1.7c0-0.3,0-0.5,0-0.5
		s-0.4,0-0.6,0.1v2.2c0,0.2,0,0.2-0.1,0.2h-0.3c0-0.1,0-0.1,0-0.2c0-0.7-0.4-0.9-0.8-0.9c-0.3,0-0.9,0.3-0.9,0.8s0.4,0.7,0.6,0.7
		h0.6c0,0.2-0.1,0.3-0.2,0.4S27.6,25,27.4,25c0,0,0,0.3,0.4,0.3c0.3,0,0.7-0.3,0.9-0.8h2.5c0.2,0,0.4-0.1,0.5-0.1
		c0.1,0.1,0.3,0.1,0.5,0.1h1.5c0.1,0,0.3-0.2,0.3-0.4h-0.2C33.9,24.2,33.7,24.1,33.6,23.8z M28.3,24.3c-0.2,0-0.4-0.2-0.4-0.4
		s0.1-0.4,0.1-0.4s0.5,0,0.5,0.9h-0.2V24.3z M31.5,24.3H30c0.3-0.4,0.9-0.8,1.1-0.8c0.1,0,0.3,0.1,0.5,0.5
		C31.7,24.3,31.7,24.3,31.5,24.3z M26.2,23.2c-0.5,0-1,0.5-1.2,0.8v-1.7c0-0.3,0-0.5,0-0.5s-0.4,0-0.6,0.1v2.2c0,0.2,0,0.2-0.1,0.2
		H24c0,0.1,0.1,0.4,0.3,0.4h2.1c0.2,0,0.4-0.1,0.5-0.1c0.2-0.2,0.3-0.2,0.2-0.5C27,23.8,26.8,23.2,26.2,23.2z M26.5,24.3H25
		c0.3-0.4,0.9-0.8,1.1-0.8c0.1,0,0.3,0.1,0.5,0.5C26.7,24.3,26.6,24.3,26.5,24.3z"/>
</g>
</svg>
