<?xml version="1.0" encoding="utf-8"?>
<!-- Generator: Adobe Illustrator 23.0.3, SVG Export Plug-In . SVG Version: 6.00 Build 0)  -->
<svg version="1.1" id="Capa_1" xmlns="http://www.w3.org/2000/svg" xmlns:xlink="http://www.w3.org/1999/xlink" x="0px" y="0px"
	 viewBox="0 0 20 20" style="enable-background:new 0 0 20 20;" xml:space="preserve">
<style type="text/css">
	.st0{fill:#0060A9;}
</style>
<g>
	<path class="st0" d="M13.9,17.9c-1.1-0.3-2.5-0.3-4-0.1c-1.5,0.3-3.1,0.9-4.6,1.8c-0.2,0.1-0.5,0.3-0.7,0.4h11.8
		c0-0.1-0.1-0.2-0.1-0.3C15.9,18.9,15,18.2,13.9,17.9z"/>
	<path class="st0" d="M16.9,16.9c-0.6-1.1-1.6-1.8-3-2.2c-1.3-0.4-3-0.4-4.8-0.1c-1.8,0.3-3.7,1.1-5.5,2.1c-1.4,0.8-2.6,1.7-3.7,2.7
		V20h4c0.5-0.4,1-0.7,1.5-1c1.9-1.2,3.9-2,5.8-2.2c1.9-0.3,3.5,0,4.5,0.8c0.8,0.6,1.3,1.4,1.4,2.5h0.1l0.1-0.5
		C17.5,18.5,17.3,17.6,16.9,16.9z"/>
	<path class="st0" d="M0.4,11.2c-0.1,0.1-0.3,0.2-0.4,0.3v1.7c4.1-3,8.5-4,12.2-4.3C9.1,8,4.7,8.8,0.4,11.2z"/>
	<path class="st0" d="M14,9.3c0.1,0.1,0.3,0.3,0.4,0.4c0,0,1,1,1.3,2l-0.3-0.5c-0.5-0.8-1.2-1.4-2.1-1.8c-4,0.3-9,1.6-13.3,5.1v0.3
		c1.2-0.9,2.4-1.7,3.7-2.4c1.4-0.7,2.8-1.2,4.2-1.6c1.4-0.3,2.7-0.4,3.9-0.3c2.3,0.2,3.9,1.2,4.7,2.9c0,0,0.6,1.3,0.7,2.6l-0.2-0.7
		c-0.1-0.4-0.2-0.7-0.4-1.1c-0.6-1.2-1.8-2-3.3-2.5c-1.5-0.4-3.3-0.5-5.3-0.1c-2,0.4-4.1,1.2-6.1,2.3c-0.7,0.4-1.4,0.8-2,1.3v4
		c0.7-0.7,1.5-1.4,2.3-2.1c1.3-0.9,2.6-1.7,4.1-2.4c2.9-1.3,5.7-1.6,7.8-1.1c1.9,0.5,3,1.8,3.3,3.8c0,0,0.1,1.2-0.1,2.6H20V9.5
		C19.3,9.4,17,9.1,14,9.3z"/>
	<g>
		<path class="st0" d="M3.9,5.5C2.6,5.7,1.3,6.1,0,6.7v0.5c1.7-0.9,3.5-1.5,5.1-1.9C4.7,5.4,4.3,5.4,3.9,5.5z"/>
		<path class="st0" d="M0,0v5.3c0,0,2.3-0.8,4.6-0.4l-1,0C2.5,5,1.3,5.3,0,5.7v0.6C2,5.4,4.3,5,6.3,5.1c5-0.8,9,0.2,9,0.2
			c-0.8-0.1-3.8-0.6-7.6,0C8,5.4,8.6,5.6,9.1,5.9L8.7,5.7c-0.5-0.2-1-0.3-1.5-0.3C4.9,5.8,2.4,6.5,0,7.9v0.3c3.6-2,7.6-2.7,10.4-1.7
			c4.5-0.3,7.9,0.6,7.9,0.6c-0.8-0.1-3.5-0.5-7-0.2c0.2,0.1,1,0.6,1.4,1.1l-0.2-0.2c-0.5-0.4-1-0.7-1.6-0.9C7.6,7.3,3.6,8.3,0,10.8
			V11c0.3-0.2,0.6-0.4,1-0.6C3.5,8.9,6.3,8,8.7,7.8c1.9-0.1,3.5,0.2,4.7,1c3.8-0.1,6.5,0.6,6.6,0.7V0H0z"/>
	</g>
	<path class="st0" d="M0,8.6v1.1c3.2-1.9,6.5-2.8,9.4-3.1C6.7,6.2,3.3,6.9,0,8.6z"/>
</g>
</svg>
