<?xml version="1.0" encoding="utf-8"?>
<!-- Generator: Adobe Illustrator 23.0.2, SVG Export Plug-In . SVG Version: 6.00 Build 0)  -->
<svg version="1.1" id="Capa_1" xmlns="http://www.w3.org/2000/svg" xmlns:xlink="http://www.w3.org/1999/xlink" x="0px" y="0px"
	 viewBox="0 0 150 30.5" style="enable-background:new 0 0 150 30.5;" xml:space="preserve">
<style type="text/css">
	.st0{fill:#882130;}
	.st1{fill:#FFFFFF;}
	.st2{fill:#B35E66;}
	.st3{clip-path:url(#SVGID_2_);fill:url(#SVGID_3_);}
	.st4{clip-path:url(#SVGID_5_);fill:url(#SVGID_6_);}
	.st5{clip-path:url(#SVGID_8_);fill:url(#SVGID_9_);}
	.st6{clip-path:url(#SVGID_11_);fill:url(#SVGID_12_);}
	.st7{clip-path:url(#SVGID_14_);fill:url(#SVGID_15_);}
	.st8{clip-path:url(#SVGID_17_);fill:url(#SVGID_18_);}
	.st9{clip-path:url(#SVGID_20_);fill:url(#SVGID_21_);}
	.st10{fill:#002A4B;}
	.st11{fill-rule:evenodd;clip-rule:evenodd;fill:#00294A;}
</style>
<g>
	<path class="st0" d="M4.7,23.7c0.4,1.7,0.3,4.6-0.8,6c-1.7,2-3.2-0.2-3.7-1.9c-0.4-1.8-0.4-5,0.9-6.4c0.5-0.6,1.2-0.9,1.9-0.5
		C4.1,21.6,4.3,22.6,4.7,23.7"/>
	<path class="st1" d="M3.2,26c0.1,0.2-0.1,0.5,0.2,0.6c0.2,0.2,0.7,0.1,0.7,0.5c-0.4,0-0.7-0.4-1.2-0.3c-0.2,0-0.5,0.2-0.7,0.3
		c0,0-0.1-0.1-0.1-0.1c0.2-0.2,0.6-0.2,0.8-0.4l0-0.6C3.1,25.7,3.2,25.8,3.2,26"/>
	<path class="st1" d="M3.6,27.3c0.2,0.2,0.1,0.5,0.1,0.8c0,0.6,0,1.2,0.2,1.8c0,0.1,0,0.2-0.1,0.2c-0.1,0-0.1-0.1-0.1-0.1
		c-0.1-0.8-0.1-1.6-0.2-2.4c-0.1-0.2-0.4-0.1-0.5-0.1c-0.1,0-0.1,0-0.2,0.1c0,0.8,0,1.7-0.1,2.5c0,0-0.1,0-0.1,0l0-0.1
		c0.1-0.8,0.1-1.8,0.1-2.6c0.1-0.1,0.3-0.2,0.5-0.2C3.2,27.2,3.4,27.2,3.6,27.3"/>
	<path class="st1" d="M1.8,28.7c0,0.2,0,0.3,0,0.5c0,0.2-0.1,0.4-0.1,0.6c0,0.1-0.1,0.2,0,0.3h0.1c0.2-0.1,0.1-0.3,0.2-0.5
		c0-0.2,0-0.3,0-0.5c0-0.4,0-0.7,0-1c0-0.1,0-0.1,0-0.2c0.1-0.3,0-0.7,0-1c-0.1-0.3-0.5-0.3-0.7-0.4c-0.1,0-0.1-0.1-0.1-0.2
		c0.1-0.1,0.2-0.2,0.4-0.2c0,0,0.1,0,0.1,0c0.1,0,0.1,0,0.2-0.1c0.1,0,0.1-0.1,0.1-0.1c-0.1-0.2-0.3,0-0.4,0C1.3,26,1,25.9,1,26.2
		c0,0.1,0,0.2,0.1,0.3c0.1,0,0.1,0.1,0.2,0.1c0.2,0.1,0.4,0.1,0.5,0.3c0,0.1,0,0.3,0,0.3c0,0.1,0,0.1,0,0.2c0,0.1,0,0.2,0,0.4
		c0,0.1-0.2,0-0.3,0.1c-0.1,0-0.2,0-0.2-0.1c0-0.1,0-0.2,0-0.3c0.2-0.1,0.3-0.1,0.5-0.1c0,0,0,0,0,0c0,0,0,0,0-0.1c0,0,0,0,0,0
		c-0.1-0.1-0.1,0-0.3,0c0,0-0.1,0-0.1,0c-0.2,0-0.1-0.3-0.1-0.4c0,0-0.1-0.1-0.1-0.1c-0.1,0.1,0,0.3,0,0.4c0,0.4,0,0.8,0,1.3
		c0,0.2,0,0.4,0,0.6c0,0.1,0,0.2,0,0.3c0,0.1-0.1,0.2,0,0.3c0,0,0.1-0.1,0.1-0.1c0-0.3,0.1-0.5,0.1-0.8c0-0.1,0-0.1,0.1-0.1
		c0.1,0,0.2,0.1,0.3,0.1c0.2,0,0.1-0.2,0-0.2c-0.2,0-0.1-0.1-0.3-0.1c0,0-0.1,0-0.1,0c0-0.1,0-0.2,0-0.3c0.1,0,0.2,0,0.4,0
		c0,0,0.2,0,0.2,0.1C1.8,28.3,1.8,28.5,1.8,28.7"/>
	<path class="st1" d="M4.1,23.8l-0.2,0c-0.1-0.1-0.1-0.1-0.2-0.1c-0.2-0.1-0.4-0.2-0.6-0.4c-0.2,0-0.2,0.2-0.4,0.3c0,0-0.1,0-0.1,0
		c0.1-0.1,0.2-0.2,0.3-0.3c0.1,0,0.1-0.1,0.2-0.1c0.1,0,0.2,0.1,0.2,0.2c0.1,0.1,0.2,0.1,0.3,0.2c0.1,0.1,0.2,0.1,0.3,0.2
		C4.1,23.6,4.2,23.6,4.1,23.8L4.1,23.8z"/>
	<path class="st1" d="M3.8,21.8c0,0.1-0.1,0.1-0.2,0.1c-0.1,0-0.1,0-0.2,0.1c0,0-0.1,0.1,0,0.1c0,0.1,0.1,0.1,0.2,0.1
		c0,0,0.1,0,0,0.1c0,0-0.1,0-0.1,0c-0.1,0-0.3,0-0.5,0c-0.1,0-0.1,0-0.2,0c0,0-0.1,0-0.1,0c-0.1,0-0.3,0-0.3,0.1c0,0.1,0,0.2,0,0.3
		c0,0,0,0.1,0,0.2c0,0.2,0,0.4,0.1,0.6c0,0,0,0.1,0,0.1c0.1,0.1,0.2,0,0.3,0c0.1,0,0.2,0,0.3,0c0.1,0,0.2,0,0.3,0c0,0,0.1,0,0.1,0
		c0,0-0.1,0-0.1,0.1c-0.1,0-0.2,0-0.3,0c-0.2,0-0.4,0-0.7,0c-0.1,0-0.2,0-0.3,0c0,0-0.1,0-0.2,0c-0.1,0-0.1,0-0.3,0c0,0-0.1,0-0.1,0
		c0,0,0,0,0.1,0c0.1,0,0.3,0,0.4,0c0.2,0,0.2,0,0.3-0.1c0,0,0-0.1,0-0.1c0-0.2,0-0.3,0-0.6c0-0.1,0-0.3,0-0.4c0-0.1,0-0.3,0.1-0.4
		l0.3-0.1c0.1,0,0.2,0,0.3,0c0.1,0,0.1,0,0.2-0.1c0-0.1,0-0.1-0.1-0.1c-0.1,0-0.1,0-0.2,0c-0.1,0-0.1,0-0.2-0.1
		c-0.1-0.2-0.2-0.4-0.1-0.5c0,0,0-0.1,0.1,0c0.1,0.1,0,0.1,0,0.2c0,0.2,0.1,0.3,0.2,0.3c0.1,0,0.1,0,0.2,0c0.1-0.1,0-0.2,0.1-0.3
		c0-0.1,0-0.2,0.1-0.3c0.1,0,0.1,0.1,0.1,0.1l0,0.1c0,0.1,0,0.3,0,0.4c0,0.1,0,0,0.1,0c0.1,0,0.2-0.1,0.2-0.2c0-0.1,0-0.3,0.1-0.3
		c0,0,0,0,0,0L3.8,21.8z"/>
	<path class="st1" d="M3.8,23.1c0,0-0.1,0-0.1,0c-0.1-0.1-0.4-0.2-0.5-0.3c-0.1-0.1-0.2,0-0.2,0.1c-0.1,0.1-0.1,0.1-0.2,0.1
		C2.7,23,2.7,23,2.6,23c0,0-0.1,0,0-0.1c0.1-0.1,0.1-0.1,0.2-0.1c0.1-0.1,0.2-0.2,0.3-0.2c0.1,0.1,0.3,0.1,0.5,0.2
		C3.6,22.9,3.8,22.9,3.8,23.1C3.9,23.1,3.8,23.1,3.8,23.1"/>
	<path class="st1" d="M3.3,24.9c0,0.1,0,0.4-0.1,0.5c-0.1,0.1-0.1,0.1-0.2,0.1c-0.2,0-0.1,0-0.3,0.1l-0.3,0c-0.2,0-0.3,0-0.6,0
		c-0.1,0-0.2,0-0.3-0.1c0,0-0.1,0-0.1-0.1c0-0.1,0.1,0,0.2,0c0.2,0,0.4,0,0.6,0c0.2,0,0.3,0,0.5,0c0.1,0,0.2,0,0.2,0
		c0.2-0.1,0.2-0.1,0.2-0.2c0-0.2,0-0.2-0.2-0.2c-0.2-0.1-0.3,0-0.5-0.1c-0.1-0.1,0-0.3-0.2-0.4c-0.2,0-0.3,0-0.4,0
		c-0.1,0-0.2,0-0.2,0c0,0-0.1,0-0.2,0c-0.1,0-0.1,0-0.1,0c0,0-0.1-0.1,0-0.1c0.1,0,0.1,0,0.2,0c0.2,0,0.3,0,0.5,0c0.1,0,0.1,0,0.2,0
		c0.2,0,0.3,0,0.5,0c0.1,0,0.2,0,0.3,0c0.1,0,0.2,0,0.2,0c0.1,0,0.2,0,0.3,0c0.1,0,0.2,0,0.3,0c0,0,0.1,0.1,0.1,0.1
		c0,0,0,0.1-0.1,0.1c-0.1,0-0.2,0-0.3,0c-0.1,0-0.2,0-0.3,0c-0.1,0-0.2,0-0.3,0c-0.1,0-0.1,0-0.2,0c0,0.1,0,0.2,0.1,0.2
		c0.1,0.1,0.2,0.1,0.3,0.1C3.1,24.7,3.2,24.8,3.3,24.9"/>
	<path class="st1" d="M2.4,21.4c0,0.2,0,0.4-0.1,0.6c-0.1,0-0.3,0-0.4,0.1c-0.1,0.1,0,0.2,0,0.3c0,0.1,0.2,0.2,0.3,0.3
		c0.1,0.1,0.1,0.1,0.1,0.2c0,0-0.1,0-0.1,0l0,0L2,22.9c0,0-0.1-0.1-0.2-0.1c-0.2,0-0.3,0.2-0.5,0.3c-0.1,0-0.1,0.1-0.2,0.1
		c0,0-0.1,0.1-0.1,0.1c-0.1,0.1-0.1,0.1-0.2,0.1l0,0c0,0,0.1-0.1,0.2-0.1c0.1-0.1,0.2-0.3,0.4-0.4c0.1-0.1,0.3-0.2,0.4-0.4
		c0-0.1,0-0.1-0.1-0.1c0-0.1,0-0.2-0.1-0.3c-0.1,0-0.3-0.1-0.3-0.1c-0.2-0.2-0.2-0.5-0.1-0.7l0,0c0.1,0,0.1,0.1,0.1,0.2
		c0,0.1,0,0.3,0.1,0.3c0,0,0.1,0.1,0.1,0.1c0,0,0.1,0,0.1-0.1c0.1-0.2,0-0.3,0-0.5c0,0,0-0.1,0.1-0.1l0.1,0c0,0.1,0,0.2,0,0.3
		c0,0.1,0,0.2,0.1,0.3c0,0,0.1,0.1,0.1,0c0.1,0,0.2-0.1,0.2-0.2c0-0.1,0-0.3,0-0.3l0-0.1C2.4,21.3,2.4,21.4,2.4,21.4"/>
	<path class="st1" d="M2.1,23.5c-0.1,0-0.1-0.1-0.1-0.1c-0.1-0.1-0.1-0.2-0.3-0.1c0,0-0.1,0.1-0.2,0.1c-0.2,0.2-0.3,0.3-0.5,0.5
		c0,0-0.1,0-0.1,0c0-0.1,0.1-0.1,0.2-0.2c0.1,0,0.1-0.1,0.2-0.1c0,0,0.1-0.1,0.1-0.1c0.1-0.1,0.2-0.1,0.3-0.2c0,0,0.1-0.1,0.1,0
		c0,0.1,0.2,0.2,0.2,0.2C2.1,23.4,2.2,23.5,2.1,23.5"/>
	<path class="st2" d="M21.3,0c0.4,0,0.6,0.2,0.8,0.3c0.5,0.2,0.8,0.4,1.4,0.5c0.3,0,0.7,0,1,0.2c1.1,0.5,1.7,2.3,1.8,3.3
		c0.1,0.3,0,0.7,0,1c0,0.3-0.1,0.7,0,1c0.1,0.5,0.3,0.5,0.4,0.5h0c0.1,0,0.3,0,0.5-0.1c0.1,0,0.2-0.1,0.4-0.1c0.3,0,0.6-0.1,0.9-0.1
		c0.4,0,0.8,0,1.2,0.1c0.4,0.1,0.8,0.1,1.2,0.2c0.3,0,0.6,0.1,0.9,0.1c0.3,0.1,1.4,0.3,2,0.5c0.3,0.1,0.6,0.4,0.9,0.6
		c0.2,0.2,0.4,0.4,0.7,0.5c1.5,0.8,2,1.8,1.5,3.3c0,0.2-0.1,0.3-0.1,0.5c-0.1,0.5-0.3,1.1-0.5,1.6c-0.2,0.6-0.6,0.9-0.9,1.2
		c-0.1,0.1-0.2,0.2-0.4,0.3c-0.4,0.3-0.6,0.8-0.9,1.2c-0.4,0.6-0.8,1.3-1.5,1.7c-0.6,0.3-1,0.4-1.6,0.4c0,0-0.1,0-0.1,0
		c-0.3,0.1,0,0.7,0.2,1c0.1,0.2,0.2,0.4,0.3,0.6c0.1,0.2,0.1,0.4,0.1,0.6c0,0.2,0,0.3,0.1,0.5c0,0.1,0.1,0.1,0.2,0.2
		c0.1,0.1,0.3,0.3,0.4,0.5c0.2,0.6,0.1,1.8-0.1,2.3c0,0.1-0.2,0.2-0.3,0.4c-0.1,0.1-0.2,0.3-0.3,0.3c-0.1,0.1-0.1,0.2-0.1,0.4
		c0,0.2-0.1,0.5-0.2,0.7c-0.6,0.9-1.9,1.3-2.9,1.7c-0.3,0.1-0.5,0.2-0.7,0.3c-0.3,0.1-0.5,0.2-0.7,0.2c-0.3,0-0.5-0.1-0.8-0.2
		c-0.1-0.1-0.3-0.1-0.4-0.2c-0.4-0.2-0.8-0.2-1.3-0.2c-0.2,0-0.5,0-0.7-0.1c-0.5-0.1-0.8-0.3-1.1-0.5c0,0-0.1-0.1-0.1-0.1h0
		c-0.4,0-0.8-0.1-1-0.3c-0.5,0.7-1.2,1.2-2.3,1.7c-0.7,0.4-1.5,0.6-2.1,0.7c-0.2,0.1-0.3,0.1-0.5,0.1c-0.6,0.2-1.2,0.3-1.9,0.3
		c-0.2,0-0.5,0-0.7,0c-0.8,0-1.5-0.2-2-0.6c-0.6-0.3-1.1-0.6-1.5-1.1C9.7,27.5,9,27,8.7,26.3c-0.4-0.8-0.2-1.1,0.1-1.6
		c0.1-0.1,0.1-0.3,0.2-0.4c0,0,0-0.1,0.1-0.1c0.4-1,0.6-1.4,0.6-1.6c-0.5-0.1-0.9-0.6-1.3-1.3c-0.2-0.4-0.4-0.8-0.6-1
		c-0.1-0.1-0.2-0.2-0.3-0.4c-0.1-0.1-0.2-0.2-0.2-0.2c-0.4-0.4-1-0.7-1.5-1c-0.5-0.2-1-0.5-1.4-0.8C4,17.7,3.7,17.4,3.5,17
		c-0.6-1-1.2-2-1.4-3c-0.2-1,0.1-1.6,0.4-2.2c0.1-0.2,0.2-0.4,0.3-0.6C2.9,11,2.9,10.9,3,10.8c0.1-0.2,0.1-0.3,0.2-0.4
		c0.1-0.3,0.2-0.5,0.5-0.8C4,9.2,4.4,8.9,4.8,8.7c0.5-0.2,1-0.4,1.5-0.4c0,0,0.3,0,0.4,0c0.1,0,0.2,0,0.3,0c0,0,0,0,0.1,0
		c0.1,0,0.2-0.1,0.3-0.1c0.1-0.1,0.3-0.1,0.5-0.1h0c0.5,0,2.1,0.9,2.6,0.9c0,0,0.1,0,0.2,0c0.1,0,0.1-0.1,0.1-0.1
		c0.2-0.2,0.4-0.4,0.5-0.7c0,0,0-0.1,0-0.1l0,0c0-0.1,0-0.1,0.1-0.2l0,0c0-0.1,0-0.1,0.1-0.2c0.1-0.3,0.2-0.7,0.2-1
		c0-0.1,0-0.2,0.1-0.3l0-0.1l0-0.1c0,0,0-0.1,0-0.1c0,0,0-0.1,0-0.1l0,0c0,0,0,0,0-0.1l0,0c0,0,0-0.1,0-0.1l0,0c0,0,0-0.1,0-0.1l0,0
		c0,0,0-0.1,0-0.1v0c0,0,0-0.1,0-0.1l0,0c0,0,0-0.1,0-0.1l0,0c0,0,0-0.1,0-0.1l0,0c0,0,0-0.1,0-0.1v0c0,0,0,0,0-0.1l0,0
		c0,0,0-0.1,0-0.1c0.2-0.3,0.3-0.8,0.4-1.2c0.2-0.9,0.5-1.8,1.2-2.2c0.3-0.2,0.7-0.2,1-0.3c0.3,0,0.6-0.1,0.8-0.2
		c0.2-0.1,0.4-0.3,0.6-0.4c0.3-0.2,0.5-0.5,0.9-0.6c0,0,0.1,0,0.1,0l0,0c0,0,0.1,0,0.1,0l0,0c0,0,0.1,0,0.1,0l0,0c0,0,0.1,0,0.1,0
		l0,0c0,0,0.1,0,0.1,0l0,0c0,0,0.1,0,0.1,0c0,0,0,0,0,0c0,0,0,0,0.1,0c0,0,0,0,0.1,0c0,0,0,0,0.1,0h0.1h0.1h0h0.1h0
		c0.1,0,0.3,0,0.4,0h0c0.1,0,0.1,0,0.2,0l0,0c0.1,0,0.1,0,0.2,0c0.1,0,0.2,0,0.4,0c0.3,0,0.6-0.1,1-0.1C20.8,0.1,21.1,0,21.3,0"/>
	<g>
		<g>
			<defs>
				<path id="SVGID_1_" d="M20.9,0.2c-0.7,0.1-1.1,0.3-1.7,0.2c-0.6-0.1-1.2-0.1-1.9,0.1c-0.6,0.2-0.9,0.7-1.5,1
					c-0.6,0.3-1.3,0.1-1.8,0.4c-1.1,0.7-1,2.3-1.6,3.4c-0.6,1.1-0.3,2.9-1.4,3.8c0,0-0.1,0.1-0.2,0.1c-0.1,0-0.2,0-0.2,0
					c-0.5,0-2-0.9-2.6-0.9c-0.3,0-0.5,0.2-0.8,0.2c-0.2,0-0.3,0-0.4,0c-0.1,0-0.3,0-0.4,0c-0.5,0-1,0.2-1.4,0.4
					C4.5,9.1,4.2,9.3,3.8,9.7c-0.4,0.5-0.4,0.6-0.6,1.2c-0.5,1.2-1.1,1.7-0.9,3c0.2,1.2,1,2.4,1.7,3.4c0.8,1.2,2.3,1.3,3.4,2.3
					c0.4,0.4,0.8,0.8,1.2,1.2c0.3,0.3,1.3,1.3,1.4,1.7c0.1,0.3-0.5,1.6-0.7,1.9c-0.3,0.7-0.7,0.9-0.3,1.8c0.5,1,2,1.7,2.8,2.4
					c1.1,1,2.9,0.6,4.3,0.4c1.5-0.2,2.8-0.4,3.9-1.6c0.6-0.6,0.8-1.2,1.8-0.9c0.7,0.2,1,0.8,1.8,0.9c0.8,0.1,1.4,0.1,2.1,0.3
					c0.8,0.3,1,0.6,1.8,0.3c1-0.4,2.8-0.8,3.6-1.9c0.2-0.3,0.2-0.7,0.3-1c0.1-0.2,0.5-0.6,0.6-0.7c0.2-0.4,0.2-1.6,0.1-2.1
					c-0.1-0.3-0.5-0.5-0.6-0.7c-0.1-0.3,0-0.7-0.1-1c-0.3-0.8-1-1.6-0.5-1.9c0.1,0,1.2,0,1.8-0.4c1.1-0.7,1.5-2,2.4-2.9
					c0.5-0.5,1-0.7,1.3-1.5c0.2-0.6,0.4-1.3,0.6-2c0.5-1.6-0.1-2.4-1.4-3.1c-0.6-0.3-1-0.9-1.6-1.2c-0.5-0.2-1.4-0.4-2-0.5
					C31,7,30.4,7,29.7,6.8c-0.6-0.2-1.3-0.2-2-0.1c-0.7,0.1-1.3,0.4-1.5-0.5c-0.1-0.6,0.1-1.4,0-2c-0.2-1-0.8-2.7-1.7-3.2
					c-0.6-0.3-1.2-0.1-1.9-0.4c-0.5-0.3-0.8-0.4-1.4-0.4C21.1,0.2,21,0.2,20.9,0.2"/>
			</defs>
			<clipPath id="SVGID_2_">
				<use xlink:href="#SVGID_1_"  style="overflow:visible;"/>
			</clipPath>
			
				<radialGradient id="SVGID_3_" cx="-772.372" cy="-116.247" r="1.0239" gradientTransform="matrix(15.6279 0 0 -15.6279 12090.1387 -1801.8785)" gradientUnits="userSpaceOnUse">
				<stop  offset="0" style="stop-color:#FFFFFF"/>
				<stop  offset="6.750000e-02" style="stop-color:#FFFFFF"/>
				<stop  offset="0.1978" style="stop-color:#FBF6F8"/>
				<stop  offset="0.3804" style="stop-color:#EFDDE4"/>
				<stop  offset="0.6619" style="stop-color:#CE9C9F"/>
				<stop  offset="0.8889" style="stop-color:#B96E76"/>
				<stop  offset="1" style="stop-color:#B35E67"/>
			</radialGradient>
			<rect x="2.1" y="0.2" class="st3" width="35.2" height="29.4"/>
		</g>
	</g>
	<g>
		<g>
			<defs>
				<path id="SVGID_4_" d="M21.2,0.2c-0.1,0-0.2,0-0.3,0c-0.7,0.1-1.1,0.2-1.7,0.2c-0.1,0-0.5,0-0.7,0c-0.4,0-0.8,0-1.2,0.2
					c-0.6,0.2-0.9,0.7-1.5,1c-0.6,0.3-1.3,0.1-1.8,0.4c-1.1,0.7-1,2.3-1.6,3.4c-0.4,0.9-0.4,2.1-0.8,3c0,0.3,0.1,0.7,0.2,1
					c0.2,0.5,1.2,0.5,1,1.5l0,0.2c0.8,2.7,5.6,2,6.9,1c0.7-0.5,2-1,2.5-1.6c0.5-0.6,2-1.1,2.3-1.7c0.6-1,1.3-2.3,1.3-3.2
					c-0.2-2.8-1.9-4.1-3.2-4.7C22,0.4,21.8,0.2,21.2,0.2C21.2,0.2,21.2,0.2,21.2,0.2"/>
			</defs>
			<clipPath id="SVGID_5_">
				<use xlink:href="#SVGID_4_"  style="overflow:visible;"/>
			</clipPath>
			
				<radialGradient id="SVGID_6_" cx="-761.4125" cy="-123.7613" r="1.0258" gradientTransform="matrix(12.0161 0 0 -12.0161 9167.3867 -1484.9329)" gradientUnits="userSpaceOnUse">
				<stop  offset="0" style="stop-color:#B35E67"/>
				<stop  offset="0.2086" style="stop-color:#B35E67"/>
				<stop  offset="0.298" style="stop-color:#B5636B"/>
				<stop  offset="0.4185" style="stop-color:#BA7177"/>
				<stop  offset="0.5569" style="stop-color:#C5898E"/>
				<stop  offset="0.7085" style="stop-color:#D7AFB3"/>
				<stop  offset="0.8693" style="stop-color:#EFDDE3"/>
				<stop  offset="0.8712" style="stop-color:#EFDDE4"/>
				<stop  offset="1" style="stop-color:#EFDDE4"/>
			</radialGradient>
			<rect x="11.5" y="0.2" class="st4" width="14.3" height="13.4"/>
		</g>
	</g>
	<g>
		<g>
			<defs>
				<path id="SVGID_7_" d="M21.6,0.5c-0.1,0-0.2,0-0.3,0c-0.7,0.1-1.1,0.3-1.8,0.2c-0.1,0-0.6,0-0.7-0.1c-0.4,0-0.8,0-1.3,0.2
					c-0.6,0.2-1,0.7-1.5,1c-0.6,0.3-1.3,0.1-1.9,0.5c-0.6,0.4-1.3,1.7-1.5,3.3c-0.1,0.5,0.3,1.1,0.2,1.7c-0.3,2.7,0.4,2.1,1,3.1
					c1.1,2,1,2.6,0.4,2.5c0.6,0.7,1.1,1.6,0.7,2.2c1.8,0.4,4.1-0.1,5-0.8c0.7-0.6,1.7-1.1,2.3-1.8C22.7,12,23.6,10,24,9.4
					c0.6-1,1.3-1.2,1.8-3.1c0.8-3.1-0.8-4.5-2.5-5.2C22.7,0.8,22,0.5,21.6,0.5C21.7,0.5,21.7,0.5,21.6,0.5"/>
			</defs>
			<clipPath id="SVGID_8_">
				<use xlink:href="#SVGID_7_"  style="overflow:visible;"/>
			</clipPath>
			
				<radialGradient id="SVGID_9_" cx="-766.1955" cy="-121.9206" r="1.0244" gradientTransform="matrix(13.3773 0 0 -12.7366 10269.333 -1548.3143)" gradientUnits="userSpaceOnUse">
				<stop  offset="0" style="stop-color:#B35E67"/>
				<stop  offset="9.560000e-02" style="stop-color:#B4626A"/>
				<stop  offset="0.2053" style="stop-color:#B96D74"/>
				<stop  offset="0.3219" style="stop-color:#C18185"/>
				<stop  offset="0.4434" style="stop-color:#CF9FA3"/>
				<stop  offset="0.5675" style="stop-color:#E2C5CB"/>
				<stop  offset="0.638" style="stop-color:#EFDDE4"/>
				<stop  offset="0.7246" style="stop-color:#F1E2E8"/>
				<stop  offset="0.837" style="stop-color:#F7EEF1"/>
				<stop  offset="0.9631" style="stop-color:#FFFEFE"/>
				<stop  offset="1" style="stop-color:#FFFFFF"/>
			</radialGradient>
			<rect x="12.5" y="0.5" class="st5" width="14.1" height="15"/>
		</g>
	</g>
	<g>
		<g>
			<defs>
				<path id="SVGID_10_" d="M18.9,17.2c-1.1,0.3-3.1,0-4.1,0.7c-0.9,0.6-1.7,1.4-2.1,2.4c-1,1.1-2.1,2.1-2.7,3
					c-0.7,1-0.8,2.5-0.4,3.4c1.2,2.4,4.3,3.2,6.7,2.5c2.3-0.5,5.1-1.2,5.4-4.2c0.2-1.5,0.6-3.1,0.1-4.4c-0.4-1-0.5-3.3-2.2-3.3
					C19.4,17.2,19.2,17.2,18.9,17.2"/>
			</defs>
			<clipPath id="SVGID_11_">
				<use xlink:href="#SVGID_10_"  style="overflow:visible;"/>
			</clipPath>
			
				<radialGradient id="SVGID_12_" cx="-743.2852" cy="-136.3048" r="1.024" gradientTransform="matrix(8.6989 0 0 -8.6989 6480.1196 -1166.1995)" gradientUnits="userSpaceOnUse">
				<stop  offset="0" style="stop-color:#FFFFFF"/>
				<stop  offset="0.1712" style="stop-color:#FBF6F8"/>
				<stop  offset="0.411" style="stop-color:#EFDDE4"/>
				<stop  offset="0.6787" style="stop-color:#CE9C9F"/>
				<stop  offset="0.8944" style="stop-color:#B96E76"/>
				<stop  offset="1" style="stop-color:#B35E67"/>
			</radialGradient>
			<rect x="9.2" y="17.2" class="st6" width="13.1" height="12.7"/>
		</g>
	</g>
	<g>
		<g>
			<defs>
				<path id="SVGID_13_" d="M2.3,13.5c0,1.1,0.9,2.3,1.3,3.2c0.7,1.4,1.3,1.4,2.6,2.1c1,0.6,1.7,1.2,2.3,2.3
					c1.5,2.9,3.2,0.2,4.5-0.9c1-0.8,1.6-2.6,1.3-3.8c-0.2-0.8-0.9-2.1-1.6-2.6l0.4,0.3c-0.6-0.6-0.1-1.2-0.4-1.9
					c-0.2-0.6-0.6-1.3-0.9-2c-0.5-1-1-0.7-1.5-0.5c-0.3,0.1-0.5,0.3-0.7,0.2C9,9.9,8.1,9.7,7.6,9.4C7.2,9.3,6.7,9.2,6.3,9.2
					C4.2,9.2,2.3,11.2,2.3,13.5"/>
			</defs>
			<clipPath id="SVGID_14_">
				<use xlink:href="#SVGID_13_"  style="overflow:visible;"/>
			</clipPath>
			
				<radialGradient id="SVGID_15_" cx="-757.2492" cy="-126.6899" r="1.0247" gradientTransform="matrix(11.0578 0 0 -11.0578 8387.9062 -1383.9617)" gradientUnits="userSpaceOnUse">
				<stop  offset="0" style="stop-color:#FFFFFF"/>
				<stop  offset="6.750000e-02" style="stop-color:#FFFFFF"/>
				<stop  offset="0.2183" style="stop-color:#FBF6F8"/>
				<stop  offset="0.4294" style="stop-color:#EFDDE4"/>
				<stop  offset="0.6887" style="stop-color:#CE9C9F"/>
				<stop  offset="0.8977" style="stop-color:#B96E76"/>
				<stop  offset="1" style="stop-color:#B35E67"/>
			</radialGradient>
			<rect x="2.3" y="9.2" class="st7" width="12.3" height="14.9"/>
		</g>
	</g>
	<g>
		<g>
			<defs>
				<path id="SVGID_16_" d="M27,7.1c-0.6,0.1-1.3,0.6-1.7,0.9c-0.5,0.4-0.8,1.4-1.3,1.7c-1.2,0.5-1.2,0.8-1.8,1.8
					c-0.5,0.8-1.2,2-1.7,2.9c0,0.4,0,0.7,0.1,1c0.1,0.6,0.8,1.5,0.7,2l0-0.2c0.5,2.9,6.4,3.8,5.3,2.4c-2.8-3.6,1.6-5.4,2.1-4.7
					c3.4,4.2,4.8,1.8,5.1,1.3c0.7-1,1.2-1.9,1.4-2.9c1.1-6-2.3-5.2-4.2-6c-0.1,0-0.2,0-0.3,0c-0.7,0-1.1,0.1-1.8,0
					c-0.1,0-0.2-0.1-0.3-0.1c-0.1,0-0.2,0-0.3-0.1c-0.2,0-0.4-0.1-0.7-0.1C27.4,7.1,27.2,7.1,27,7.1"/>
			</defs>
			<clipPath id="SVGID_17_">
				<use xlink:href="#SVGID_16_"  style="overflow:visible;"/>
			</clipPath>
			
				<radialGradient id="SVGID_18_" cx="-783.1461" cy="-108.805" r="1.0235" gradientTransform="matrix(22.1936 0 0 -22.1936 17422.1973 -2408.009)" gradientUnits="userSpaceOnUse">
				<stop  offset="0" style="stop-color:#B35E67"/>
				<stop  offset="0.3067" style="stop-color:#B35E67"/>
				<stop  offset="0.368" style="stop-color:#B5666E"/>
				<stop  offset="0.4741" style="stop-color:#C07E83"/>
				<stop  offset="0.6125" style="stop-color:#D4AAAE"/>
				<stop  offset="0.7607" style="stop-color:#EFDDE4"/>
				<stop  offset="1" style="stop-color:#EFDDE4"/>
			</radialGradient>
			<rect x="20.5" y="7.1" class="st8" width="15.9" height="13.9"/>
		</g>
	</g>
	<g>
		<g>
			<defs>
				<path id="SVGID_19_" d="M26.4,19.2C26.5,19.2,26.5,19.2,26.4,19.2C26.5,19.1,26.5,19.1,26.4,19.2C26.5,19.1,26.5,19.1,26.4,19.2
					 M25.3,8c-0.2,0.2-0.4,0.4-0.5,0.5C24.6,9,24.4,9.2,24,9.5c-0.3,0.2-0.6,0.3-0.8,0.5c-0.2,0.3-0.4,0.5-0.6,0.8
					c-0.4,0.5-1.1,0.7-1.8,0.7c-0.2,0-0.3,0-0.5,0c-0.9,0.6-1.9,0.9-2.8,0.7c-0.5-0.1-1.2-1.1-1.8-1c-0.5,0.1,0.3,0.3-0.1,0.8
					c-0.5,0.5-1,0.1-1.4-0.3c-0.3-0.3-0.5-0.6-0.5-0.5c-0.1,0,0,0.3,0,0.5c0,0.3-0.3,0.5-0.3,0.8c0,0.3,0,0.5,0,0.6
					c0,0.2,0.1,0.4,0.1,0.7c0,0.5,0,0.3,0,0.9c0,1-0.5,1.4-0.7,2.4c-0.3,1.1,0.9,1.7-0.5,3.7c-0.5,0.7-2.5,1.6-2.4,2.4
					c0.6-0.1,0.9-0.7,1.3-1.2c1-1,3.6-2,5.2-2.1c1.6-0.1,0.1,1.7,0.5,2.1c0.4,0.3-0.4,1.3,0.1,1.1c0.5-0.3,1.2-2.6,1.5-3.2
					c0.2-0.4,2.8-6.4,2.8,2.7c0,0.9,0.5,1.3,0.3,2.1c-0.1,0.4-1.6,2.6,0.9,2.3c0.3-1.9-1.1-3.2-0.4-4.1c0.4-0.5,1.8-0.6,1.7-1.2
					c-0.1-1.4,0.6-1.4,1.2-1.3c0.4,0,0.7,0,0.9-0.3c0.2-0.5,0.4-0.7,0.4-0.7c0,0-0.1,0-0.1-0.2c-0.1-0.6,0.5-0.6,0.2-1.2
					c0.6,0.1,0.8-0.4,1.2-0.6c0.3-0.1,1-0.1,1.4,0c0.8,0.1,1.2,1.5,1.4,1.4c0.2-0.3-0.3-1-0.7-1.4c-0.3-0.3-0.8-1-1-1.3
					c-0.4-0.5-0.1-1.3-0.8-1.6c-0.2-0.1-0.3-0.1-0.5,0c-0.3,0.1-0.6,0.1-1.2-0.3c-3.2,2.3-0.5-1.2-0.7-2C25.3,10.8,24.4,10.4,25.3,8
					C25.3,8,25.3,8,25.3,8C25.3,8,25.3,8,25.3,8"/>
			</defs>
			<clipPath id="SVGID_20_">
				<use xlink:href="#SVGID_19_"  style="overflow:visible;"/>
			</clipPath>
			
				<radialGradient id="SVGID_21_" cx="-759.5547" cy="-125.0778" r="1.0239" gradientTransform="matrix(11.5694 0 0 -11.5694 8807.917 -1429.6444)" gradientUnits="userSpaceOnUse">
				<stop  offset="0" style="stop-color:#FFFFFF"/>
				<stop  offset="9.200000e-02" style="stop-color:#FFFFFF"/>
				<stop  offset="0.2096" style="stop-color:#FBF6F8"/>
				<stop  offset="0.3742" style="stop-color:#EFDDE4"/>
				<stop  offset="0.4169" style="stop-color:#E4CAD0"/>
				<stop  offset="0.5149" style="stop-color:#D1A3A7"/>
				<stop  offset="0.61" style="stop-color:#C28286"/>
				<stop  offset="0.7001" style="stop-color:#B96E76"/>
				<stop  offset="0.7833" style="stop-color:#B4626C"/>
				<stop  offset="0.8528" style="stop-color:#B35E67"/>
				<stop  offset="1" style="stop-color:#B35E67"/>
			</radialGradient>
			<rect x="9.9" y="8" class="st9" width="20.9" height="19.1"/>
		</g>
	</g>
	<path class="st1" d="M15,19.6c-0.3-0.2,0-1.1,0.4-1.5c0.4-0.4,1-1.1,0.9-1.2c-0.2-0.1-0.9,0.1-1.1,0c-0.2-0.1,1.2-0.6,1.4-0.7
		c0.2-0.1-1-0.4-1.5-0.5c-0.4-0.1-1.3,0.1-1.2-0.1c0.1-0.2,0.6-0.4,0.7-0.5c0.1-0.1-0.7-0.5-0.7-0.7c-0.1-0.2,0.2-0.4,1-0.2
		c0.8,0.2,1.5,0.1,1.8,0.2c0.3,0.1,0.5,0.2,0.7,0.2c0.1,0.1,0.2-0.2,0.3-0.2c0.1,0,0.4,0.2,0.4,0c0-0.2-0.1-0.5-0.3-0.7
		c-0.2-0.2-0.6-0.6-0.6-0.7c0-0.1-0.2-0.5,0-0.6c0.2-0.1,0.4,0,0.5-0.1c0.1,0,0.3-0.3,0.6-0.2c0.3,0.1,0.4,0.2,0.5,0.3
		c0.1,0.1,0.3,0.1,0.4,0.1c0.1,0,0.4-0.3,0.6-0.2c0.3,0.2,0.7,0.5,1.1,0.4c0.4-0.1,0.6-0.3,0.8-0.5c0.1-0.2,0.5-1,0.6-1.2
		c0.1-0.1,0.5-0.4,0.5-0.3c-0.1,0.1-0.4,0.9-0.4,1.3c0,0.4-0.1,0.5,0.1,0.6c0.1,0.1,0.3,0.1,0.4,0c0.1-0.1,0.4-0.2,0.4-0.1
		c0,0.1-0.8,0.7-1.1,0.9c-0.3,0.2-0.5,0.7-0.4,0.9c0.1,0.2,0.6,0.1,0.9,0.1c0.2,0,0.8,0,0.7,0.2c-0.1,0.1-0.9,0.7-0.9,0.8
		c0,0.1,0.5,0.3,0.8,0.3c0.3,0,1,0.1,1.3,0.2c0.3,0.1,0.5,0.1,0.6,0.2c0.1,0.2,0.1,0.3,0,0.3c-0.1,0-0.7-0.1-0.9-0.2
		c-0.2-0.1-1.2-0.3-1.5-0.3c-0.2,0-0.9,0-1,0.2c-0.1,0.2,0.4,0.4,0.5,0.5c0.1,0.1,0.5,0.5,0.3,0.6c-0.3,0-0.5-0.1-0.6-0.2
		c-0.1,0-0.5-0.3-0.6-0.4c-0.1-0.1-0.5-0.5-0.7-0.5c-0.2,0-0.6,0.1-0.9,0.3c-0.2,0.2-0.5,0.5-0.7,0.6c-0.1,0.2-0.7,0.5-1,0.7
		c-0.2,0.2-1.6,1.3-1.8,1.4C15.9,19.5,15.3,19.8,15,19.6"/>
	<path class="st0" d="M18.9,11.6c-0.1-0.1-0.1-0.5,0-0.7c0.1-0.2,0.6-1.2,1.2-1c0.2,0.1,0.4,0.2,0.5,0.4c0.1,0.4,0.1,1.1-0.2,1.4
		C19.9,12.2,19.1,12,18.9,11.6"/>
	<path class="st0" d="M16.1,12.9c0.2,0,0.4-0.2,0.4-0.4c0.1-0.2,0.5-0.2,0.5-0.3c0-0.1-0.5-1.2-0.7-1.4c-0.3-0.1-0.4,0.1-0.7,0.1
		c-0.2,0-0.4-0.1-0.5,0.1c-0.2,0.4-0.6,0.8-0.3,1.2C15.1,12.6,15.6,13,16.1,12.9"/>
	<path class="st0" d="M22.7,13.8c-0.1,0.1-0.3,0.2-0.4,0c0.4-0.4,0.6-0.6,1.1-0.9c0.2-0.2,0-0.9,0.1-1.1c0.1-0.2,0.8-0.7,1.1-0.6
		c0.2,0.1,0.3,0.1,0.4,0.3c0.2,0.3,0.2,0.7,0.2,0.9c0,0.3-0.1,0.5-0.2,0.8c-0.1,0.3-0.6,0.2-0.8,0.2c-0.3,0-0.6-0.2-0.8,0
		C23.3,13.6,22.9,13.7,22.7,13.8"/>
	<path class="st0" d="M19.5,14.8c0.1-0.2,0-0.4,0-0.6c0-0.1,0.1-0.4-0.1-0.5C19.4,14.1,19.3,14.5,19.5,14.8
		C19.5,14.9,19.5,14.8,19.5,14.8"/>
	<path class="st0" d="M13,15.8c0.4-0.5,0.8-0.7,1.3-0.8c0-0.1-0.1-0.1-0.2-0.1c-0.3-0.1-0.6-0.3-0.8-0.5c-0.4-0.5-0.7-0.9-1.4-0.7
		c-0.7,0.2-0.8,1.4-0.6,2C11.6,16.3,12.5,16.4,13,15.8"/>
	<path class="st0" d="M27.4,14.9c0.8-0.3,1.4,0.1,1,0.7c-0.2,0.3-0.1,0.7-0.3,1c-0.2,0.3-0.6,0.4-0.9,0.3c-0.3-0.1-0.7-0.3-0.9-0.5
		C26,16.2,26,16,25.6,15.9c-0.6-0.2-1.3,0-1.9-0.2c0.7-0.3,1.5,0,2.2,0C26.2,15.6,26.4,15.1,27.4,14.9"/>
	<path class="st0" d="M23.7,15.6c-0.2-0.1-0.4-0.1-0.5,0C23.3,15.6,23.6,15.7,23.7,15.6"/>
	<path class="st0" d="M14.5,17.8c-0.7-0.8-2.1,0.7-2.2,0.8c-0.1,0.1-0.4,0.3-0.4,0.4c-0.1,0.3,0.7,0.8,0.9,0.9
		c0.3,0.2,0.6,0.6,1,0.3c0.4-0.3,0.5-0.6,0.6-1.1c0.1-0.4,0.3-0.9,0.6-1.2c0.3-0.3,0.7-0.5,1-0.9C15.2,17.1,14.9,17.6,14.5,17.8"/>
	<path class="st0" d="M24.7,14.3c-0.1-0.5-1.1,0-1.3,0c0.3,0.1,0.6,0,1,0.1C24.5,14.4,24.7,14.4,24.7,14.3"/>
	<path class="st0" d="M20.7,17.3c0.3,0.1,0.4,0.5,0.6,0.7c0.2,0.1,0.6,0.3,0.8,0.5c0.1,0.1,0.3,0.5,0.1,0.6
		c-0.3,0.1-0.4-0.4-0.6,0.1c-0.2,0.5-0.7,0.7-0.9,1.2c-0.1,0.4-0.3,0.8-0.1,1.2c0.1,0.1,0.2,0.2,0.3,0.2c0.3,0,0.3,0,0.6,0.2
		c0.3,0.2,0.5,0.3,0.9,0.1c0.3-0.1,0.6-0.4,0.6-0.7c0-0.4-0.2-0.8-0.2-1.1s0.2-0.6,0-1c-0.2-0.3-0.3-0.5-0.6-0.7
		C22,18.3,22,18,21.8,17.8c-0.2-0.3-0.7-0.8-0.9-0.9c-0.2-0.2-0.3-0.3-0.6-0.3c-0.3,0-0.6,0.3-0.8,0.5c-0.2,0.3-0.6,0.5-0.8,0.7
		c-0.3,0.3-0.2,0.7-0.4,1c-0.1,0.3-0.3,0.6-0.4,0.9c0.2-0.1,0.3-0.4,0.4-0.6c0.1-0.1,0.2-0.3,0.3-0.4c0.1-0.1,0.3-0.1,0.4-0.2
		c0.3-0.3,0.4-0.7,0.6-1.1C19.8,17.2,20.4,17.1,20.7,17.3"/>
	<path class="st0" d="M26.9,20.5c0-0.2-0.1-0.4,0-0.6c0.1-0.3,0-0.5-0.1-0.7c-0.1-0.3-0.6-0.9-1-0.7c-0.1,0.1-0.3,0.2-0.4,0.1
		c-0.2-0.1-0.3-0.3-0.5-0.4c-0.2-0.1-0.5-0.1-0.7-0.2C24,18,23.9,18,23.7,18c0.1,0.3,0.7,0.5,0.9,0.7c0.6,0.5,0.3,1,0.3,1.6
		c0,0.2-0.1,0.4,0.1,0.6c0.1,0.2,0.6,0.2,0.7,0.3c0.1,0,0.6,0.2,0.9,0.1C26.7,21.1,27,20.7,26.9,20.5"/>
	<path class="st0" d="M20.8,25.9c0.2,0,0.4,0.1,0.8,0.3c0.4,0.1,0.7,0.2,1,0.2c0.3,0,0.8,0.4,0.9,0.5c0.1,0.2,0.2,0.7,0,1
		c-0.2,0.3-0.5,0.7-0.3,1.4c0.2,0.7,0.4,0.9-0.1,0.9c-0.5,0-0.9-0.2-1.1-0.3c-0.3-0.1-0.7-0.1-1-0.5c-0.3-0.4-0.5-0.3-1-0.6
		c-0.5-0.3-0.8-1-0.6-1.2c0.3-0.3,1-1,1.1-1.1C20.6,26.4,20.7,25.9,20.8,25.9"/>
	<path class="st0" d="M30.8,21.9c0-0.2,0.4-0.4,0.4-0.5c0-0.1,0-0.7,0-1c-0.1-0.3-0.1-0.5,0.1-0.7c0.2-0.1,0.7-0.3,1-0.2
		c0.3,0.1,0.6,0.3,0.9,0.4c0.3,0.1,1,0.5,1.2,0.8c0.1,0.3,0.3,0.6,0.1,0.9c-0.2,0.3-0.2,0.5-0.4,0.6c-0.1,0.1-0.5,0.4-0.7,0.7
		c-0.2,0.3-0.4,0.8-0.6,1c-0.3,0.1-0.8,0.3-0.9,0.1c-0.1-0.2-0.2-0.6-0.2-0.7c0-0.2,0.4-0.4,0.3-0.7c-0.1-0.3-0.3-0.3-0.6-0.4
		C31,22.2,30.8,22.1,30.8,21.9"/>
	<path class="st0" d="M7.2,24.2C7.1,24,6.9,23.9,7,23.8c0.1-0.1,0.2-0.5,0.3-0.7c0-0.2,0-0.8,0-1c0-0.2,0.1-0.4,0.1-0.6
		c0-0.2,0-0.5,0.3-0.6c0.3-0.1,0.6-0.1,0.9,0c0.3,0,0.8,0.2,0.9,0.5c0.1,0.3,0.2,0.6,0.4,0.7c0.2,0.1,0.7,0.3,0.7,0.4
		c0,0.1-0.1,0.2-0.3,0.5c-0.2,0.3-0.2,1.1-0.2,1.3s0,0.8-0.2,0.9c-0.2,0.1-0.5,0-0.8-0.1c-0.3-0.1-0.7-0.3-0.9-0.5
		C8,24.4,8,24.3,7.9,24.2C7.8,24.2,7.3,24.3,7.2,24.2"/>
	<path class="st0" d="M18.2,21.2c0.1,0.1,0.2,0.5,0.2,0.6c0,0.2,0,0.6-0.2,0.7c-0.1,0.2-0.5,0.4-0.6,0.4c-0.1,0-0.5,0.2-0.7,0
		c-0.1-0.1-0.4-0.3-0.5-0.5c-0.1-0.2-0.2-0.9,0.2-1.3c0.2-0.2,0.5-0.2,0.7-0.4c0.2-0.2,0.4-0.3,0.6-0.5c0,0.2-0.1,0.4,0,0.6
		C17.9,21.1,18.1,21.1,18.2,21.2"/>
	<path class="st0" d="M22.8,16.7c-0.3,0-0.4-0.1-0.6-0.1c0.2,0.2,0.6,0.2,0.8,0.3c0.1,0,0.2,0.1,0.3,0.2c0.3,0.2,0.8,0.3,0.9,0.4
		c0.1,0.1,0.6,0.3,0.9,0.2c0.1,0,0.3-0.1,0.3-0.2c-0.2-0.4-0.8-0.3-1.2-0.5c-0.1-0.1-0.1-0.2-0.3-0.2c-0.2,0-0.4,0-0.5-0.1
		C23.2,16.6,23,16.7,22.8,16.7"/>
	<path class="st0" d="M19.8,12.6c0,0,0,0.1,0,0.3c0,0.2-0.1,0.6,0,0.9c0,0,0.1-0.1,0.1-0.4c0-0.3,0-0.3,0-0.4
		C19.9,12.9,19.8,12.6,19.8,12.6"/>
	<path class="st0" d="M18.6,16.1c0.1,0.1,0,0.4-0.1,0.5c-0.1,0.1-0.3,0.2-0.6,0.6c-0.3,0.4-0.7,0.8-0.8,0.9
		c-0.1,0.1-0.3,0.4-0.4,0.4c-0.1-0.1,0.2-0.5,0.2-0.6c0.1-0.1,0.4-0.6,0.5-0.7c0.1-0.1,0.7-0.6,0.7-0.7c0-0.1-0.2-0.1-0.3,0
		c-0.1,0-0.6,0.2-0.7,0.2c-0.1,0-0.3-0.1-0.1-0.2c0.2-0.2,0.2-0.2,0.3-0.2c0.1,0,0.4,0,0.4-0.1c0.1-0.1,0.1-0.3,0-0.3
		c-0.1,0-0.1,0-0.2,0s-1-0.2-1.2-0.2c-0.2,0-1.1-0.3-1.2-0.3c-0.2,0-0.2-0.1,0.1-0.1s0.7,0.1,0.9,0.1c0.2,0,0.4,0,0.6,0
		c0.2,0,0.7,0.1,0.8,0.1c0.2-0.1,0.4-0.1,0.4-0.2c0-0.1,0.1-0.2,0-0.3c-0.1-0.1-0.5-0.4-0.6-0.6c-0.1-0.2-0.2-0.4-0.3-0.5
		c-0.1-0.1-0.3-0.1-0.4-0.2c-0.1-0.1-0.1-0.4,0-0.4c0.1,0.1,0.5,0.3,0.6,0.3c0.1,0.1,0.2,0.3,0.3,0.4c0.1,0.1,0.4,0.4,0.5,0.5
		c0.1,0.1,0.4,0.2,0.4,0.4c0.4,0,0.5,0,0.7,0c0.3,0,0.6,0,0.7,0.1c0.1,0,0.4,0.2,0.4,0.1c0.1-0.1,0.3-0.6,0.4-0.8
		c0.1-0.1,0.6-0.7,0.7-0.9c0.1-0.1,0.6-0.6,0.7-0.5c0,0,0.2,0.1,0,0.3c-0.2,0.2-0.8,0.7-0.9,0.9c-0.1,0.1-0.4,0.7-0.5,0.8
		c-0.1,0.1-0.2,0.2-0.2,0.3c0,0.1,0.4,0.2,0.5,0.2c0.1,0.1,0.3,0.5,0.1,0.6c-0.1,0.1-0.3,0-0.5-0.1c-0.1-0.1-0.2-0.3-0.3-0.4
		c-0.1-0.1-0.3-0.1-0.6-0.2c-0.3-0.1-0.8-0.1-1-0.1c-0.2,0-0.5,0.2-0.5,0.3C18.3,15.5,18.3,15.8,18.6,16.1"/>
	<path class="st0" d="M19.1,14.5c-0.1,0-0.4-0.3-0.5-0.5c-0.1-0.2-0.3-0.6-0.4-0.7c-0.1-0.1-0.1-0.3-0.2-0.4
		c-0.1-0.1-0.4-0.4-0.3-0.5c0.1-0.1,0.4,0.3,0.5,0.4c0,0.1,0.4,0.5,0.4,0.6c0.1,0.1,0.3,0.5,0.4,0.6C19.1,14.2,19.2,14.5,19.1,14.5"
		/>
</g>
<path id="airlines" class="st10" d="M50.7,29.2c-0.5-0.8-1-1.7-1.4-2.4l-6-10.9h-0.6l-7.1,13.3h2.8c0.2-0.7,0.5-1.3,0.7-1.7l0.8-1.6
	H46l0.8,1.6c0.2,0.5,0.5,1.1,0.7,1.7L50.7,29.2z M42.9,19.8L42.9,19.8l2.3,4.4h-4.4L42.9,19.8z M54.4,29.2c-0.1-0.7-0.1-1.4-0.1-2.1
	v-8.4c0-0.6,0-1.4,0.1-2.1h-2.7c0.1,0.7,0.1,1.5,0.1,2.1v8.4c0,0.7,0,1.4-0.1,2.1H54.4z M57.6,29.2c0.1-0.7,0.1-1.4,0.1-2.1v-8.4
	c0-0.6,0-1.4-0.1-2.1h4.9c2.8,0,4.7,1.5,4.7,3.4s-1.5,3.1-3.2,3.5l3.2,3.6c0.6,0.7,1.2,1.4,2,2v0.2h-3.3l-5.6-6.6v4.4
	c0,0.7,0,1.4,0.1,2.1L57.6,29.2z M60.2,22.3h1.5c1.7,0,2.7-0.7,2.7-2.2c0-1.3-1-2-2.8-2h-1.5L60.2,22.3L60.2,22.3z M77.8,29.2
	l0.5-2.3l-0.1-0.1c-0.7,0.4-1.5,0.6-2.5,0.6h-3v-8.8c0-0.6,0-1.4,0.1-2.1H70c0,0.7,0.1,1.5,0.1,2.1v8.4c0,0.7,0,1.4-0.1,2.1
	L77.8,29.2L77.8,29.2z M82.5,29.2c-0.1-0.7-0.1-1.4-0.1-2.1v-8.4c0-0.6,0-1.4,0.1-2.1h-2.7c0,0.7,0.1,1.5,0.1,2.1v8.4
	c0,0.7,0,1.4-0.1,2.1H82.5z M97.3,16.6c-0.1,0.6-0.1,1.5-0.1,2.2v10.6h-0.4l-8.9-9.1v6.8c0,0.7,0,1.4,0.1,2.1h-2.3
	c0.1-0.7,0.1-1.4,0.1-2.1v-9l-1.3-1.4v-0.2h3.2l7.4,7.6v-5.4c0-0.7,0-1.4-0.1-2.1L97.3,16.6z M108.8,29.2l0.5-2.3l-0.1-0.1
	c-0.7,0.4-1.5,0.6-2.5,0.6h-4.1v-4.1h3.3c0.8,0,1.5,0.1,2.2,0.2l0.5-1.9h-6v-3.4h3.5c0.9,0,1.8,0.1,2.5,0.3l0.5-2h-9.2
	c0.1,0.7,0.1,1.5,0.1,2.1v8.4c0,0.7,0,1.4-0.1,2.1L108.8,29.2L108.8,29.2z M119.4,19.4c-0.8-0.8-2.4-1.3-3.7-1.3
	c-1.8,0-2.7,0.6-2.7,1.4c0,1,1.2,1.5,3.5,2.4c3.2,1.4,4,2.2,4,3.9c0,2.2-2.1,3.7-5.3,3.7c-1.8,0-3.7-0.7-4.8-1.4l0.5-2.3h0.2
	c0.8,1.1,2.6,1.8,4.1,1.8c1.7,0,2.8-0.6,2.8-1.6c0-0.9-0.9-1.3-3.5-2.4c-2.9-1.2-4.1-2.2-4.1-4c0-1.9,1.7-3.4,5.2-3.4
	c1.4,0,3.2,0.5,4.3,1l-0.5,2.1L119.4,19.4z"/>
<path id="china_1_" class="st10" d="M58,4.1l-0.1,0.1c-0.9-0.5-2.3-0.9-3.6-0.9c-2.7,0-4.8,1.9-4.8,4.7c0,3,2.4,4.6,4.9,4.6
	c1.6,0,3.2-0.6,4.1-1.4l0.1,0.1l-0.5,2.4c-0.9,0.5-2.5,0.8-3.8,0.8c-4.1,0-7.6-2.5-7.6-6.6c0-3.7,2.8-6.7,7.5-6.7
	c1.6,0,3.1,0.4,4.1,0.8L58,4.1z M72.3,14.2c-0.1-0.7-0.1-1.4-0.1-2.1V3.7c0-0.6,0-1.4,0.1-2.1h-2.7c0.1,0.7,0.1,1.5,0.1,2.1v3.1
	h-6.6V3.7c0-0.6,0-1.4,0.1-2.1h-2.7c0.1,0.7,0.1,1.5,0.1,2.1v8.4c0,0.7,0,1.4-0.1,2.1h2.7c-0.1-0.7-0.1-1.4-0.1-2.1V8.7h6.6v3.4
	c0,0.7,0,1.4-0.1,2.1H72.3z M78.2,14.2c0-0.7-0.1-1.4-0.1-2.1V3.7c0-0.6,0-1.4,0.1-2.1h-2.7c0.1,0.7,0.1,1.5,0.1,2.1v8.4
	c0,0.7,0,1.4-0.1,2.1H78.2z M93,1.5c0,0.6-0.1,1.5-0.1,2.2v10.6h-0.4l-8.9-9.1v6.8c0,0.7,0,1.4,0.1,2.1h-2.3
	c0.1-0.7,0.1-1.4,0.1-2.1V3l-1.3-1.4V1.5h3.2l7.4,7.6V3.7c0-0.7,0-1.4-0.1-2.1L93,1.5z M108.9,14.2c-0.5-0.8-1-1.7-1.4-2.4l-6-10.9
	h-0.6l-7.1,13.3h2.8c0.2-0.7,0.5-1.3,0.7-1.7l0.8-1.6h6.1l0.8,1.6c0.2,0.5,0.5,1.1,0.7,1.7L108.9,14.2z M101.1,4.7L101.1,4.7
	l2.3,4.4H99L101.1,4.7z"/>
<polyline class="st11" points="145.1,5.3 144.9,5.3 145,5.2 145.3,5.4 145.3,5.4 145.2,5.4 145,5.7 144.9,5.7 145.1,5.3 "/>
<polyline class="st11" points="145.4,5.4 145.5,5.5 145.5,5.8 145.5,5.8 145.7,5.6 145.9,5.6 145.7,6.1 145.6,6 145.8,5.7 
	145.8,5.7 145.5,6 145.4,5.9 145.4,5.5 145.4,5.5 145.3,5.9 145.2,5.8 145.4,5.4 "/>
<path class="st11" d="M146.4,9.2L146.4,9.2c1.7,1.7,2.8,3.9,2.9,6.5c0.4,5.6-3.8,10.5-9.5,10.9c-2.6,0.2-5.1-0.7-7-2.2l0,0
	c2,1.9,4.7,2.9,7.7,2.7c5.6-0.4,9.8-5.3,9.5-10.9C149.8,13.4,148.4,10.9,146.4,9.2"/>
<path class="st11" d="M128.4,20.8c-0.3,0.2-0.4,0.5-0.2,0.9c0.2,0.4,0.4,0.5,0.6,0.4c0.2-0.1,0.2-0.3,0.2-0.7l0-0.2
	c-0.1-0.5-0.1-0.6,0-0.8c0.1-0.2,0.2-0.4,0.4-0.4c0.5-0.2,0.9,0.1,1.2,0.7c0.3,0.7,0.1,1.2-0.4,1.5l-0.1-0.3c0.4-0.2,0.5-0.5,0.3-1
	c-0.2-0.4-0.4-0.6-0.7-0.5c-0.2,0.1-0.3,0.3-0.2,0.8l0,0.2l0,0.2c0.1,0.4,0.1,0.5,0,0.6c0,0.2-0.2,0.3-0.4,0.4
	c-0.4,0.2-0.8-0.1-1.1-0.7c-0.3-0.6-0.1-1.1,0.4-1.3L128.4,20.8"/>
<polyline class="st11" points="128.1,17.1 129.6,15.8 129.6,16.3 128.3,17.3 128.7,17.8 129.7,17.8 129.7,18.2 127,18.2 127,17.9 
	128.1,17.8 128.2,17.8 128.3,17.8 128.3,17.7 128.2,17.6 127,16.4 127,15.9 128.1,17.1 "/>
<path class="st11" d="M129.2,13l1,0.4l-0.1,0.4l-1-0.4l-1.8,0.5l0.2-0.4l1.1-0.3l0.1,0c0.1,0,0.1,0,0.2,0c-0.1-0.1-0.1-0.1-0.2-0.3
	l-0.7-0.9l0.1-0.4L129.2,13"/>
<polyline class="st11" points="131,8.2 130.5,8.9 132.1,10.2 131.7,10.7 130.1,9.4 129.5,10 129.1,9.7 130.6,7.9 131,8.2 "/>
<polyline class="st11" points="134.6,5.7 133.2,6.5 133.5,7 134.7,6.2 135,6.6 133.7,7.3 134.1,7.9 135.4,7.1 135.7,7.5 133.8,8.6 
	132.4,6.4 134.3,5.3 134.6,5.7 "/>
<path class="st11" d="M138.1,5.4c-0.1-0.2-0.2-0.3-0.3-0.5c0,0.2,0,0.3-0.1,0.6l-0.1,0.5l0.8-0.1L138.1,5.4 M139.7,6.7l-0.7,0
	l-0.3-0.6l-1.1,0.2L137.4,7l-0.7,0.2l0.7-2.9l0.6-0.1L139.7,6.7z"/>
<path class="st11" d="M143.9,7.6l-0.6-0.2l0.2-0.8c0-0.1,0.1-0.2,0.1-0.4c0-0.2,0.1-0.3,0.1-0.4c0-0.1,0.1-0.2,0.1-0.3l0.1-0.2
	c-0.2,0.3-0.2,0.4-0.4,0.6c-0.1,0.1-0.1,0.2-0.2,0.2l-0.7,1L142.2,7L142,5.8c0-0.1,0-0.2,0-0.3c0-0.2,0-0.3,0-0.4c0-0.1,0-0.2,0-0.3
	l-0.1,0.3c-0.1,0.3-0.1,0.5-0.2,0.9l-0.2,0.8l-0.6-0.1l0.7-2.6l0.9,0.2l0.1,1.2c0,0.3,0,0.5,0,0.9c0.1-0.2,0.1-0.3,0.2-0.4
	c0.1-0.1,0.1-0.2,0.2-0.3l0.7-1l0.8,0.3L143.9,7.6"/>
<path class="st11" d="M143.8,16c0.8-0.5,1.4-0.8,1.8-0.8c0.2,0,0.5,0.1,0.5,0.4c0,0.3-0.3,0.5-0.8,0.7c-0.5,0.2-1.2,0.2-2,0.1
	C143.5,16.3,143.7,16.1,143.8,16 M133.1,17c-0.5,0-0.7-0.2-0.7-0.6c0,0,0-1.2,2.7-1.3c0.3,0,0.6,0,1.1,0c0,0-0.3,0.3-0.3,0.3
	l-0.2,0.1C135.2,16.1,134.1,17,133.1,17z M138.8,12.6c-0.3,0.3-1,0.9-1.6,1.5l-0.7,0.7c-0.6-0.1-1.1-0.2-1.7-0.2
	c-1.3,0-2.5,0.4-3,0.9c-0.2,0.2-0.3,0.4-0.3,0.7c0,0.6,0.7,0.9,0.9,1c1.1,0.4,2.1,0.3,3.1-0.4c0.6-0.4,1.2-1,1.7-1.5
	c0.4,0.1,0.9,0.2,1.4,0.4l0.5,0.1c-0.6,0.6-1.2,1.2-1.8,1.7l0,0c-0.8,0.7-1.3,1.2-2.2,1.4c-0.6,0.1-1,0-1.1-0.1c0,0,0,0,0,0
	c0.5,0.4,0.9,0.6,1.7,0.5c0.7-0.1,1.6-0.5,2.4-1.3l1.2-1.1l0.8-0.8c0,0,1.7,0.5,1.7,0.5c0,0,0,0,0,0c0,0-1,1-1,1l-0.9,0.9
	c-0.9,0.9-1.4,1.3-1.9,1.7c-0.9,0.6-1.6,0.9-2.3,1c-0.3,0-0.8,0-1.2-0.2c0,0,0,0,0,0c0.4,0.4,1,0.8,1.9,0.8c1.1,0,2-0.5,3.5-1.9
	c0.7-0.6,1.3-1.3,1.9-1.9l1.1-1.1c0.7,0.2,1.4,0.2,2.1,0.2c1,0,1.9-0.5,1.9-1.1c0-0.4-0.3-0.6-0.5-0.8c-0.2-0.1-0.6-0.4-1.3-0.4
	c-0.8,0-1.6,0.3-2.4,1l-0.5,0.5c0,0-0.2-0.1-0.2-0.1l-1.5-0.4c0.4-0.4,0.8-0.8,1.2-1.1c0.8-0.7,1.7-1,2.3-1.1c0.4,0,1.1,0,1.3,0.2
	c0,0,0,0,0,0c-0.7-0.6-1.4-0.7-1.9-0.7c-0.5,0-1.4,0.2-2.4,1c-0.4,0.3-1,0.9-1.5,1.4c0,0-0.8-0.2-0.8-0.2l-0.2-0.1
	c0,0-0.8-0.2-0.8-0.2c0,0,0.5-0.4,0.5-0.4c0.5-0.5,1.1-1,1.5-1.4c1.5-1.2,2.4-1.4,3-1.4c0.7,0,1.2,0.1,1.6,0.4c0,0,0,0,0,0
	c-0.8-0.7-1.4-1-2.4-1C140.9,11.2,139.9,11.7,138.8,12.6z"/>
</svg>
