<?xml version="1.0" encoding="utf-8"?>
<!-- Generator: Adobe Illustrator 22.1.0, SVG Export Plug-In . SVG Version: 6.00 Build 0)  -->
<svg version="1.1" id="IB" xmlns="http://www.w3.org/2000/svg" xmlns:xlink="http://www.w3.org/1999/xlink" x="0px" y="0px"
	 viewBox="0 0 157 26" style="enable-background:new 0 0 157 26;" xml:space="preserve">
<style type="text/css">
	.st0{fill:#777777;}
</style>
<path class="st0" d="M155.1709747,2.4791744c-0.1474304-0.0397213-0.2913666-0.0397213-0.4346161-0.0397213
	c-1.2344513,0-2.2657013,1.0079095-2.2657013,2.262568c0,1.2323532,1.03125,2.2639952,2.2657013,2.2639952
	c0.1432495,0,0.2871857-0.023376,0.4346161-0.0435758C156.2189636,6.7161264,157,5.7915139,157,4.7020211
	C157,3.5892236,156.2189636,2.6656458,155.1709747,2.4791744z M155.1709747,6.5526743
	c-0.1474304,0.0207348-0.2913666,0.0365806-0.4346161,0.0365806c-1.0479889,0-1.8914032-0.8409595-1.8914032-1.8872337
	c0-1.050236,0.8434143-1.9128225,1.8914032-1.9128225c0.1432495,0,0.2871857,0.0168808,0.4346161,0.060456
	c0.8402863,0.1831524,1.4794617,0.9472749,1.4794617,1.8523664C156.6504364,5.586556,156.011261,6.3475733,155.1709747,6.5526743z
	 M155.7422028,5.4415898l-0.0571747-0.2908597c-0.0243683-0.1845088-0.0637817-0.2855778-0.1261597-0.3460698
	c-0.0404358-0.0608125-0.1219788-0.0820827-0.2436066-0.0820827c0.1620636-0.041791,0.2857971-0.1054235,0.3453979-0.1859365
	c0.081543-0.0806556,0.1250763-0.1834736,0.1250763-0.350245c0-0.1033535-0.0180817-0.1866498-0.0626984-0.2681975
	c-0.0380096-0.081548-0.0846863-0.1407905-0.1641693-0.1812253c-0.0602722-0.0418267-0.1219788-0.0635967-0.2268677-0.0851882
	c-0.0404358-0.0218055-0.0805206-0.0218055-0.161026-0.0218055h-1.192276v2.1406207h0.2829742V4.8243604h0.5764771
	c0.1421814,0,0.2481384,0.0195217,0.3328247,0.040792c0.0390472,0,0.0571289,0,0.0805054,0.020021
	c0.0805206,0.0425048,0.1230316,0.1240883,0.1418304,0.227406l0.0606689,0.3485322
	c0,0.0822258,0.0233459,0.1453228,0.0233459,0.2061357c0.0212708,0.0407915,0.0411072,0.0646672,0.0411072,0.103353h0.3276215
	c-0.0181274-0.0386858-0.0414734-0.0625615-0.060318-0.124445C155.7857361,5.6064343,155.7676544,5.5433373,155.7422028,5.4415898z
	 M155.1709747,4.5577331c-0.0846863,0.0207348-0.2046051,0.0207348-0.3519897,0.0207348h-0.557312v-0.69842h0.557312
	c0.1473846,0,0.2673035,0,0.3519897,0.0207348c0.0805054,0,0.1442871,0.017416,0.1812286,0.0360808
	c0.0846863,0.0628829,0.1251221,0.1461792,0.1251221,0.2680192c0,0.1482849-0.0404358,0.2511029-0.1251221,0.2902889
	C155.3152618,4.5148716,155.2514801,4.5366411,155.1709747,4.5577331z M134.3086548,6.4927177h11.0292206
	c0.3063507,0,0.8594513,0,0.9029846,0.7799683v2.8585625c-0.0435333,0.5112705-0.3296814,0.782609-0.9029846,0.782609h-3.6845703
	c-1.0723572,0-1.9339142,0.9230423-1.9339142,2.0764532c0,1.1339245,0.861557,2.056468,1.9339142,2.056468h6.7874298
	c1.0291748,0,1.871521-0.8615522,1.931839-1.9531145V4.2048826c-0.0986481-1.026931-0.9260406-1.8492613-1.931839-1.8492613
	h-14.1320801c-1.068222,0-1.9520721,0.9251482-1.9520721,2.0581808
	C132.3565826,5.5656424,133.2404327,6.4927177,134.3086548,6.4927177z M146.7549591,16.0163231
	c-0.6604462-0.8646564-1.9120026-1.0093012-2.8390503-0.3098106c-0.9061584,0.6797905-1.1319885,1.9356632-0.4938507,2.7763004
	l3.2722321,4.383667c0.6548767,0.8622303,1.912674,1.0054836,2.8348541,0.3272629
	c0.9068451-0.6792564,1.1358185-1.9527588,0.4747009-2.7981071L146.7549591,16.0163231z M125.5838165,21.5490818
	c0-1.1333885-0.8838577-2.0799503-1.9517212-2.0799503h-5.7205887c-1.0657501,0-1.951683,0.9465618-1.951683,2.0799503
	c0,1.1305695,0.8859329,2.0782013,1.951683,2.0782013h5.7205887
	C124.6999588,23.6272831,125.5838165,22.6796513,125.5838165,21.5490818z M130.2985687,4.3092356
	c0-1.0676875-0.9270477-1.9536142-2.0590363-1.9536142c0,0,0,0-0.019165,0h-1.258873c-0.0581741,0-0.1418228,0-0.2233734,0.0212703
	c-0.410202,0.0625615-0.8002014,0.2479625-1.1118011,0.5745106l-4.7105713,5.0424018L109.481575,20.2302914
	c-0.7416763,0.782753-0.6611633,2.0597153,0.1843643,2.8397198c0.8204041,0.7650146,2.099472,0.7650146,2.836937-0.0170956
	l8.4128723-8.9928122l4.4659424-4.7924767c0.6175766-0.5971727,0.7806702,0.1864719,0.7806702,0.4520283v11.9918451
	c0,0.5168381,0.2248001,0.9897785,0.5757599,1.3414154c0.3896484,0.366663,0.9291458,0.5914631,1.5014114,0.5914631
	c1.1319885,0,2.0590363-0.8608379,2.0590363-1.9328785V4.3092356z M107.3824234,21.7115002V4.3092356
	c0-1.0676875-0.9273987-1.9536142-2.0761261-1.9536142h-1.2578049c-0.4927826,0.0212703-0.9877014,0.2072065-1.3372803,0.5957808
	l-0.4736176,0.4959605l-3.7866669,4.0522299V4.3092356c0-0.9674747-0.7597733-1.7864859-1.7474518-1.932344
	c-0.1024551,0-0.2063446-0.0212703-0.3303986-0.0212703H95.121521c-0.4959259,0.0212703-0.9866333,0.2072065-1.3372421,0.5957808
	l-2.8805084,3.0868607L87.4482193,9.761981L85.78125,11.5727348c-0.7416763,0.7808609-0.6377792,2.0583591,0.1832962,2.8181276
	c0.4377518,0.3882532,0.9675064,0.5949249,1.4836731,0.576973c0.4948883,0,0.9876709-0.205636,1.3341293-0.5982428
	l2.1214218-2.2826242l2.6121368-2.8193417C94.1348877,8.670454,94.320282,9.4540987,94.320282,9.719655v3.3342876
	c0,1.0702925,0.9263611,1.9318447,2.0527954,1.9318447h0.3303986c1.2166519-0.1000347,1.6693954-1.0708284,1.9353104-1.2933807
	l3.5988083-4.1783876l0.2087784-0.2463923c0.614418-0.5971727,0.8008804,0.1864719,0.8008804,0.4520283v11.9918451
	c0,1.0720406,0.9242554,1.9328785,2.0590439,1.9328785C106.4550247,23.6443787,107.3824234,22.7835407,107.3824234,21.7115002z
	 M80.6998444,23.6070843c1.3797836-0.1237316,2.465065-1.2790699,2.465065-2.6959667V5.0474124
	c0-1.3956273-1.0852814-2.568238-2.465065-2.6917911H67.8426285c0,0-0.0181351,0-0.0414734,0
	c-1.459259,0.0212703-2.6557083,1.2336023-2.6557083,2.6917911v15.8637047c0,1.4785671,1.1964493,2.674696,2.6557083,2.6959667
	c0.0233383,0.0201988,0.0414734,0.0201988,0.0414734,0.0201988h12.6317444
	C80.5579758,23.6272831,80.6193314,23.6070843,80.6998444,23.6070843z M79.0349808,17.8253269
	c0,0.9049129-0.6590576,1.6438046-1.4622192,1.6438046h-6.8287125c-0.802269,0-1.4613266-0.7388916-1.4613266-1.6438046V8.160718
	c0-0.9090881,0.6590576-1.6504059,1.4613266-1.6504059h6.8287125c0.8031616,0,1.4622192,0.7413177,1.4622192,1.6504059V17.8253269z
	 M61.5668716,20.3956356l-3.2680855-4.3793125c-0.6379623-0.8646564-1.8915863-1.0093012-2.8156662-0.3098106
	c-0.9103355,0.6797905-1.1349602,1.9356632-0.4959602,2.7763004l3.2724419,4.383667
	c0.6571274,0.8622303,1.9096794,1.0054836,2.8346519,0.3272629C62.0035553,22.5144863,62.2281761,21.240984,61.5668716,20.3956356z
	 M40.1979675,2.3556213H26.0869427c-1.0714989,0-1.9572544,0.9251482-1.9572544,2.0581808
	c0,1.1518402,0.8857555,2.0789156,1.9572544,2.0789156h14.1110249c1.0690727,0,1.9529266-0.9270754,1.9529266-2.0789156
	C42.1508942,3.2807696,41.2670403,2.3556213,40.1979675,2.3556213z M60.0060081,15.0467787
	c1.0300713,0,1.8713875-0.8615522,1.930809-1.9531145V4.2048826c-0.1007118-1.026931-0.9261818-1.8492613-1.930809-1.8492613
	H45.8737564c-1.0702934,0-1.9541473,0.9251482-1.9541473,2.0581808c0,1.1518402,0.8838539,2.0789156,1.9541473,2.0789156h11.0250473
	c0.3115616,0,0.8669434,0,0.9082336,0.7799683v2.8585625c-0.0412903,0.5112705-0.3326492,0.782609-0.9082336,0.782609h-1.8372345
	c0,0-0.0001755,0-0.0004921,0h-1.8468056c-1.0671883,0-1.9308014,0.9230423-1.9308014,2.0764532
	c0,1.1339245,0.8636131,2.056468,1.9308014,2.056468H60.0060081z M40.1979675,10.9138575H26.0869427
	c-1.0714989,0-1.9572544,0.9230423-1.9572544,2.0764532c0,1.1339245,0.8857555,2.056468,1.9572544,2.056468h14.1110249
	c1.0690727,0,1.9529266-0.9225435,1.9529266-2.056468C42.1508942,11.8368998,41.2670403,10.9138575,40.1979675,10.9138575z
	 M40.1979675,19.4691315H26.0869427c-1.0714989,0-1.9572544,0.9465618-1.9572544,2.0799503
	c0,1.1305695,0.8857555,2.0782013,1.9572544,2.0782013h14.1110249c1.0690727,0,1.9529266-0.9476318,1.9529266-2.0782013
	C42.1508942,20.4156933,41.2670403,19.4691315,40.1979675,19.4691315z M19.2729015,2.3556213h-1.2726078
	c-0.4949265,0.0212703-0.9887447,0.2072065-1.3374557,0.5957808L11.8072643,8.160718L0.4927842,20.2302914
	C0.1843658,20.5615501,0.0201996,20.9949131,0,21.4249935v0.1676273c0.0201996,0.5297585,0.2659136,1.0703297,0.7015609,1.4773903
	c0.8223301,0.7650146,2.0970454,0.7650146,2.8390408-0.0170956l8.2666626-8.8492384l4.6086464-4.9360504
	c0.6158371-0.5971727,0.7800026,0.1864719,0.7800026,0.4520283v11.9918451c0,1.0720406,0.9282532,1.9328785,2.0769882,1.9328785
	c1.1349602,0,2.0569687-0.8608379,2.0569687-1.9328785V4.3092356C21.3298702,3.2415481,20.4078617,2.3556213,19.2729015,2.3556213z
	 M14.6663618,19.4691315H8.9471674c-1.0713634,0-1.9510088,0.9465618-1.9510088,2.0799503
	c0,1.1305695,0.8796453,2.0782013,1.9510088,2.0782013h5.7191944c1.0692577,0,1.9328794-0.9476318,1.9328794-2.0782013
	C16.5992413,20.4156933,15.7356195,19.4691315,14.6663618,19.4691315z"/>
</svg>
