<?xml version="1.0" encoding="utf-8"?>
<!-- Generator: Adobe Illustrator 23.0.2, SVG Export Plug-In . SVG Version: 6.00 Build 0)  -->
<svg version="1.1" id="Capa_1" xmlns="http://www.w3.org/2000/svg" xmlns:xlink="http://www.w3.org/1999/xlink" x="0px" y="0px"
	 viewBox="0 0 566.9 237.8" style="enable-background:new 0 0 566.9 237.8;" xml:space="preserve">
<style type="text/css">
	.st0{fill-rule:evenodd;clip-rule:evenodd;fill:#5E0E24;}
	.st1{fill-rule:evenodd;clip-rule:evenodd;fill:#D9002D;}
	.st2{fill-rule:evenodd;clip-rule:evenodd;fill:#0E2787;}
</style>
<g>
	<path class="st0" d="M359.1,0c3.5,1.5,6.8,3.5,10.1,5.5c28.5,16.1,59.3,28,91.2,35.5c4.1,0.9,8.3,1.5,12.3,3
		c-22.6,1.5-45.4-1.3-67.2-7c-14.3-4.2-29.1-9.8-39.1-21.1C362.4,11.4,359.8,5.9,359.1,0L359.1,0z"/>
	<path class="st1" d="M347.4,38.2c5.9,1.4,11.7,3.3,17.5,4.3c17.4,3.9,35.4,4.4,53.2,5.9c24.3,2.1,48.6,0.2,72.9-1.1
		c-8.8,3.3-18.2,4.8-27.4,6.4c-21.2,3.3-42.7,6-64.3,4.6c-12.4-0.7-24.9-2.1-36.4-6.8C356.7,48.9,350.3,44.8,347.4,38.2L347.4,38.2
		L347.4,38.2z M483.4,65.5c20.1-9.4,41.5-18.8,64.2-17.8c-6.1,1.7-12.4,2.9-18.3,5c-21.1,6.9-40.1,18.3-58.7,30.2
		c-21.8,14.4-42.8,29.9-63.6,45.6c-12.3,8.9-23.9,18.9-36.2,27.8c-37.1,27.4-76.3,52-118,71.5c-8.3,3.7-16.6,7.8-25.5,9.9
		c46.5-28.9,91.3-60.7,135.4-93.4c15.7-11.4,30.7-23.8,46.8-34.7C433.2,93.4,457.6,78.1,483.4,65.5L483.4,65.5L483.4,65.5z
		 M490.6,51.5c6-1.5,12-3.3,18.3-3.4C472,61.8,436.7,79.8,398.6,89.8c-6.3,1-13.7,4-19.4-0.2c17-7.5,34.7-13.3,52.1-19.7
		C450.9,63.4,470.6,57.1,490.6,51.5L490.6,51.5L490.6,51.5z M510.3,67.4c11.9-6.2,24-12.5,37.2-15.3c5.2-0.9,11.2-1.6,15.6,1.7
		c2.9,2.2,3.5,6.1,3.8,9.4c-11.3-2.3-22.9-0.5-33.5,3.5c-24.8,9.2-46.9,23.7-69.7,36.8c-12.9,7.3-25.3,16-39.3,21.1
		c5.6-5.1,11.7-9.3,17.8-13.7C464.1,95.2,486.6,80.3,510.3,67.4L510.3,67.4L510.3,67.4z M354.3,134.8c23.5-13.6,46.5-28,70-41.5
		c-8,7.1-16.9,13-25.5,19.4c-20.3,14.5-40.9,28.7-61.5,42.6c-12.4,8-25,15.9-38.7,21.7c-10.1,4.2-21,7.5-32,6.5
		c3.3-2.6,7-4.6,10.6-6.5C303.1,163.3,329.1,149.9,354.3,134.8L354.3,134.8z"/>
	<path class="st2" d="M5.9,43.6c25.8-0.2,51.5-0.1,77.3,0c-2.9,4.2-5.9,9.9-11.6,10.4c-8,0.4-15.8-0.2-23.8,0.2
		c-0.2,16.4,0,32.7-0.1,49.2c-4.9,0.1-9.8,0.1-14.6,0C33,86.9,33.2,70.4,33,54C22,53.8,11,54,0,54C1.7,50.3,3.8,47,5.9,43.6
		L5.9,43.6L5.9,43.6z M106,43.5c4.3,0,8.7,0,13.1,0c13,19.8,25.9,39.7,38.4,59.7c-4.6,0.1-9.3,0.5-13.9-0.1
		c-4.9-2.3-6.8-7.9-9.5-12.1c-14.4-0.4-28.8-0.2-43.2-0.1c-2.6,4.1-4.5,8.9-8.4,11.8c-4.8,1.4-10,0.4-15,0.5
		C80.1,83.1,92.9,63.3,106,43.5L106,43.5L106,43.5z M112.2,55.2c-5,8.7-10.6,17-15.1,25.9c10.2,0.3,20.5,0.3,30.7,0
		C123,72.4,118.2,63.4,112.2,55.2L112.2,55.2L112.2,55.2z M189.2,44.1c13.9-2.7,28.2-1.4,41.8,1.9c-0.9,2.8-1.2,6.2-3.5,8.5
		c-3.6,1.6-7.8,0.3-11.7,0.1c-10.8-0.9-22.8-1.1-32.4,4.8c-10,6.1-9.7,22.6,0,28.9c7.7,5.2,17.4,5.6,26.4,5.2
		c5.3-0.1,10.7-1.5,16-1.1c4.2,0.5,3.9,5.7,5.1,8.7c-14.5,3.6-29.8,5-44.5,1.4c-9.7-2.4-19.3-8.4-23-18.1
		c-3.4-9.6-2.4-21.4,4.4-29.3C173.3,49,181.4,45.7,189.2,44.1L189.2,44.1L189.2,44.1z M277.1,43.7c4.6-0.3,9.2-0.3,13.8-0.1
		c12.7,19.9,25.7,39.7,38.3,59.7c-5-0.1-9.9,0.6-14.7-0.5c-4.7-2.5-6-8.3-9.5-11.9c-14.1-0.3-28.3,0-42.4-0.1
		c-3,4.1-4.7,9.5-9.1,12.3c-4.9,0.6-9.9,0.2-14.7,0.2C251.5,83.3,264.4,63.6,277.1,43.7L277.1,43.7L277.1,43.7z M283.2,56.2
		c-5.1,8.2-10.1,16.4-14.7,24.9c10.3,0.3,20.6,0.3,30.8,0c-4.4-8.7-9.7-16.9-14.6-25.2C284.3,55.9,283.6,56.1,283.2,56.2L283.2,56.2
		z"/>
</g>
</svg>
