<?xml version="1.0" encoding="utf-8"?>
<!-- Generator: Adobe Illustrator 22.1.0, SVG Export Plug-In . SVG Version: 6.00 Build 0)  -->
<svg version="1.1" id="AA" xmlns="http://www.w3.org/2000/svg" xmlns:xlink="http://www.w3.org/1999/xlink" x="0px" y="0px"
	 viewBox="0 0 139.6 26" style="enable-background:new 0 0 139.6 26;" xml:space="preserve">
<style type="text/css">
	.st0{fill:url(#SVGID_1_);}
	.st1{fill:url(#SVGID_2_);}
	.st2{fill:url(#SVGID_3_);}
	.st3{fill:url(#SVGID_4_);}
	.st4{fill:#36495A;}
</style>
<g>
	<g>
		
			<linearGradient id="SVGID_1_" gradientUnits="userSpaceOnUse" x1="121.75" y1="24.6245" x2="121.75" y2="15.3319" gradientTransform="matrix(1 0 0 -1 0 25.89)">
			<stop  offset="0" style="stop-color:#00D9FF"/>
			<stop  offset="1" style="stop-color:#0E518A"/>
		</linearGradient>
		<path class="st0" d="M115.5,1.1c2.6,0,4.3-0.4,6.2,1.8l6.3,7.7h-4.6c-1,0-2.2-0.3-3.2-1.9L115.5,1.1z"/>
		
			<linearGradient id="SVGID_2_" gradientUnits="userSpaceOnUse" x1="125.0445" y1="6.99" x2="139.619" y2="6.99" gradientTransform="matrix(1 0 0 -1 0 25.89)">
			<stop  offset="0" style="stop-color:#F12E1F"/>
			<stop  offset="1" style="stop-color:#9F1E1C"/>
		</linearGradient>
		<path class="st1" d="M129.7,12.9l9.9,12h-6.9c-2.4,0-3.8-1.4-4.7-3l-3-5.1l0.9-2.7L129.7,12.9z"/>
		<g>
			<g>
				
					<linearGradient id="SVGID_3_" gradientUnits="userSpaceOnUse" x1="133.7615" y1="15.9662" x2="125.5187" y2="8.6599" gradientTransform="matrix(1 0 0 -1 0 25.89)">
					<stop  offset="0" style="stop-color:#F12E1F"/>
					<stop  offset="1" style="stop-color:#9F1E1C"/>
				</linearGradient>
				<path class="st2" d="M125.8,18.2c0.4-1.9,3.8-3.6,5.6-3.3l-1.8-2.2l-2.9,0.6l-1.9,3.1L125.8,18.2z"/>
			</g>
		</g>
		
			<linearGradient id="SVGID_4_" gradientUnits="userSpaceOnUse" x1="125.6131" y1="11.2712" x2="133.3962" y2="11.4216" gradientTransform="matrix(1 0 0 -1 0 25.89)">
			<stop  offset="0" style="stop-color:#E6EAEF"/>
			<stop  offset="1" style="stop-color:#95AAB1"/>
		</linearGradient>
		<path class="st3" d="M125.7,18.1l-2.3-3.9c-0.7-1.2-0.1-2.6,2.4-2.9c2.4-0.3,6.7-0.7,7.9,1.8C130.4,12.8,125.5,13.8,125.7,18.1z"
			/>
	</g>
	<g>
		<polygon class="st4" points="81.9,8.8 75.5,8.8 75.5,20.4 81.9,20.4 81.9,19 77.6,19 77.6,15.2 81.8,15.2 81.8,13.6 77.7,13.6 
			77.7,10.3 81.9,10.3 		"/>
		<path class="st4" d="M100.5,13v-0.1v-1.3h-0.1c0,0,0,0.1-0.1,0.1s-2,0-2.3,0c-0.1,0-0.3,0-0.5-0.1c-0.1,0-0.2-0.1-0.4-0.1l0,0l0,0
			c-0.3-0.1-0.7-0.1-1-0.1c-2.1,0-3.9,1.5-3.9,3.3c0,1.4,0.5,2.2,1.4,2.6c-0.4,0.2-1,0.8-1,1.4c-0.1,1,1,1.4,1,1.4s-1.5,0.7-1.5,2.3
			s2,2.6,3.5,2.6c2.1,0,3.6-0.6,4.3-1.6c0.7-1,0.8-2.3,0.1-3.5c-0.7-1.1-4.2-0.8-4.2-0.8s-1.2,0-1.2-0.7c0-0.4,0.2-0.6,0.4-0.7
			c0.4,0,0.7,0.1,1.1,0.1c2.1,0,3.9-0.8,3.9-3.1c0-0.6-0.2-1.1-0.5-1.6L100.5,13C100.4,13,100.4,13,100.5,13z M96.3,20.5
			c1.9,0,2.3,0.5,2.3,1.4c0,0.8-1,1.5-2.3,1.5S94,22.7,94,21.9C94,21,94.4,20.5,96.3,20.5z M96.1,16.2c-1,0-1.8-0.6-1.8-1.6
			s0.8-1.8,1.8-1.8s1.8,0.8,1.8,1.8S97.1,16.2,96.1,16.2z"/>
		<path class="st4" d="M85.7,20.4c-1.8,0-2.7-1.3-2.7-2.5c0-2.1,1.8-3.2,5.1-3.2h0.1v-0.2c0-0.6-0.2-1.6-1.9-1.6
			c-0.8,0-1.7,0.2-2.3,0.6l-0.4-1.3c0.4-0.2,1.4-0.7,3.1-0.7c2.9,0,3.5,2,3.5,3.6v3.2c0,0.9,0,1.6,0.1,2h-1.9l-0.2-1h0.1l0,0
			C87.7,20,86.8,20.4,85.7,20.4L85.7,20.4z M88.1,16c-2,0-3,0.6-3,1.7c0,0.8,0.5,1.3,1.3,1.3c1,0,1.6-0.6,1.8-1.3
			c0.1-0.2,0.1-0.3,0.1-0.5V16H88.1z"/>
		<rect x="102" y="7.8" class="st4" width="2.1" height="12.6"/>
		<path class="st4" d="M109.6,20.3c-2.7,0-4.4-1.7-4.4-4.4c0-2.2,1.3-4.6,4.2-4.6c2.7,0,3.7,2.3,3.7,4.2c0,0.4,0,0.7-0.1,0.9h-5.9
			v0.1c0.1,1.7,1.5,2.3,2.8,2.3c1.1,0,1.8-0.2,2.4-0.4l0.3,1.4C112,20,111,20.3,109.6,20.3L109.6,20.3z M109.3,12.7
			c-1.5,0-2,1.4-2.1,2.2V15h4v-0.1c0-0.3,0-1.1-0.6-1.7C110.2,12.8,109.8,12.7,109.3,12.7L109.3,12.7z"/>
		<path class="st4" d="M22.2,20v-4.8c0-1.6-0.6-2.4-1.6-2.4c-0.7,0-1.3,0.5-1.6,1.2c-0.1,0.2-0.1,0.5-0.1,0.8V20h-2v-5
			c0-1.4-0.6-2.2-1.6-2.2c-0.9,0-1.5,0.7-1.7,1.3c-0.1,0.2-0.1,0.5-0.1,0.8V20h-2v-6.1c0-1,0-1.8-0.1-2.5h1.7l0.1,1.3h0.1l0,0
			c0.4-0.7,1.2-1.5,2.6-1.5c1.1,0,2,0.6,2.4,1.6l0,0h0.1l0,0c0.3-0.5,0.6-0.8,1-1.1c0.5-0.3,1.1-0.5,1.8-0.5s2.8,0.3,2.8,3.7V20
			H22.2z"/>
		<path class="st4" d="M30,20.2c-2.7,0-4.4-1.7-4.4-4.4c0-2.2,1.3-4.6,4.2-4.6c2.7,0,3.7,2.3,3.7,4.2c0,0.4,0,0.7-0.1,0.9h-5.9v0.1
			c0.1,1.7,1.5,2.3,2.8,2.3c1.1,0,1.8-0.2,2.4-0.4l0.3,1.4C32.4,19.9,31.4,20.2,30,20.2L30,20.2z M29.7,12.6c-1.5,0-2,1.4-2.1,2.2
			v0.1h4v-0.1c0-0.3,0-1.1-0.6-1.7C30.6,12.7,30.2,12.6,29.7,12.6L29.7,12.6z"/>
		<path class="st4" d="M35.1,20v-5.9c0-1.2,0-2-0.1-2.8h1.8l0.1,1.7h0.2l0,0c0.4-1.1,1.3-1.8,2.3-1.8c0.2,0,0.3,0,0.8,0v1.9
			c-0.5,0-0.7,0-1,0c-1.1,0-1.8,0.7-2.1,1.7c0,0.2-0.1,0.4-0.1,0.7V20H35.1z"/>
		<path class="st4" d="M49.3,20.2c-2.7,0-4.4-1.7-4.4-4.4s1.9-4.6,4.8-4.6c0.7,0,1.5,0.1,2.1,0.4l-0.5,1.5c-0.5-0.2-1-0.3-1.6-0.3
			c-0.8,0-1.5,0.3-2,0.8s-0.8,1.3-0.8,2.2c0,1.7,1.1,2.9,2.8,2.9c0.6,0,1.2-0.1,1.7-0.3l0.3,1.5C51.2,20,50.3,20.2,49.3,20.2
			L49.3,20.2z"/>
		<path class="st4" d="M55.3,20.2c-1.8,0-2.7-1.3-2.7-2.5c0-2.1,1.8-3.2,5.1-3.2h0.1v-0.2c0-0.6-0.2-1.6-1.9-1.6
			c-0.8,0-1.7,0.2-2.3,0.6l-0.3-1.4c0.4-0.2,1.4-0.7,3.1-0.7c2.9,0,3.5,2,3.5,3.6V18c0,0.9,0,1.6,0.1,2h-1.9l-0.2-1h-0.2l0,0
			C57.3,19.8,56.4,20.2,55.3,20.2L55.3,20.2z M57.7,15.7c-2,0-3,0.6-3,1.7c0,0.8,0.5,1.3,1.3,1.3c1,0,1.6-0.6,1.8-1.3
			c0.1-0.2,0.1-0.3,0.1-0.5v-1.3L57.7,15.7z"/>
		<path class="st4" d="M67.3,20v-4.9c0-1.5-0.6-2.3-1.7-2.3c-1,0-1.6,0.7-1.8,1.3c-0.1,0.2-0.1,0.4-0.1,0.7V20h-2.1v-6.1
			c0-1,0-1.8-0.1-2.5h1.8l0.1,1.3h0.2l0,0c0.4-0.7,1.4-1.5,2.7-1.5c1.5,0,3,1,3,3.7V20H67.3z"/>
		<path class="st4" d="M8.2,20h2.2L6.5,8H3.8L0,20h2.1l0.8-2.6h4.5L8.2,20z M3.3,15.9L4.4,12c0.1-0.5,0.3-1,0.4-1.5
			C4.9,10.2,4.9,9.9,5,9.7V9.6h0.1l0.1,0.5c0.1,0.6,0.3,1.3,0.5,1.9l1.2,3.9H3.3z"/>
		<g>
			<path class="st4" d="M41.3,20v-8.6h2.1V20H41.3z"/>
			<rect x="41.5" y="8.1" class="st4" width="1.9" height="1.8"/>
		</g>
	</g>
</g>
</svg>
