<?xml version="1.0" encoding="utf-8"?>
<!-- Generator: Adobe Illustrator 16.0.0, SVG Export Plug-In . SVG Version: 6.00 Build 0)  -->
<!DOCTYPE svg PUBLIC "-//W3C//DTD SVG 1.0//EN" "http://www.w3.org/TR/2001/REC-SVG-20010904/DTD/svg10.dtd">
<svg version="1.0" id="RO" xmlns="http://www.w3.org/2000/svg" xmlns:xlink="http://www.w3.org/1999/xlink" x="0px" y="0px"
	 width="157px" height="26px" viewBox="0 0 157 26" enable-background="new 0 0 157 26" xml:space="preserve">
<g opacity="0.7">
	<polygon fill="#DCDCDC" points="58.295,25.498 61.547,25.498 72.056,0.5 68.773,0.5 	"/>
	<g>
		<path fill="#414141" d="M71.625,11.406l0.307-0.747c0.045-0.118,0.175-0.249,0.293-0.249h8.35c0.176,0,0.279,0.189,0.221,0.308
			l-0.338,0.82c-0.087,0.191-0.209,0.322-0.443,0.338h-1.681c-0.102,0-0.308,0.175-0.35,0.292l-2.549,6.167
			c-0.045,0.133-0.278,0.367-0.44,0.367h-3.355c-0.16,0-0.337-0.177-0.264-0.352l2.682-6.314c0.028-0.059-0.118-0.161-0.146-0.161
			h-1.95C71.727,11.876,71.507,11.656,71.625,11.406L71.625,11.406z"/>
		<path fill="#414141" d="M82.979,15.801l-0.909,1.363h0.938l-0.188,1.113c-0.045,0.308-0.017,0.426,0.248,0.426h2.389
			c0.233,0,0.513-0.191,0.556-0.426l1.276-7.53c0.027-0.206-0.104-0.307-0.266-0.307h-4.629c-0.146,0-0.338,0.102-0.41,0.22
			l-5.187,7.631c-0.087,0.133,0.045,0.412,0.293,0.412h2.874c0.422,0,0.569-0.045,0.848-0.412l2.711-4.174l-0.264,1.685
			L82.979,15.801L82.979,15.801z"/>
		<path fill="#414141" d="M91.812,16.4l0.63-1.492h0.176c0.146,0,0.323-0.146,0.383-0.293l0.98-2.316
			c0.045-0.102-0.045-0.293-0.146-0.293h-0.615l-2.813,6.697H87.05c-0.233,0-0.526-0.191-0.438-0.44l3.166-7.501
			c0.146-0.335,0.366-0.322,0.513-0.322h5.009h0.015h1.685c0.659,0,1.157,0.645,0.88,1.363l-1.407,3.28
			c-0.146,0.411-0.659,0.792-1.172,0.792c0.353,0.293,0.484,1.23,0.321,1.655l-0.293,0.747c-0.087,0.205-0.395,0.426-0.614,0.426
			h-2.77c-0.22,0-0.438-0.294-0.336-0.514l0.497-1.172c0.132-0.324-0.102-0.601-0.189-0.601L91.812,16.4L91.812,16.4z"/>
		<path fill="#414141" d="M112.205,14.016l-0.073-3.269c0-0.146-0.234-0.307-0.352-0.307h-2.784c-0.204,0-0.38,0-0.512,0.293
			l-3.15,7.457c-0.146,0.336,0.088,0.514,0.338,0.514h2.899c0.279,0,0.601-0.207,0.718-0.484l1.231-2.959l0.248,3.018
			c0.015,0.468,0.527,0.248,0.719,0l2.403-3.178l-1.246,3.119c-0.146,0.41,0.279,0.484,0.513,0.484h2.651
			c0.249,0,0.513-0.221,0.614-0.454l2.843-7.37c0.073-0.22-0.073-0.439-0.262-0.439h-3.767c-0.221,0-0.439,0.119-0.572,0.307
			L112.205,14.016L112.205,14.016z"/>
		<path fill="#414141" d="M107.18,11.64l-2.563,6.096c-0.206,0.513-0.938,0.967-1.494,0.967h-5.538
			c-0.586,0-1.158-1.041-0.922-1.626l2.621-6.198c0.146-0.321,0.585-0.439,0.952-0.439h6.285
			C106.975,10.439,107.341,11.274,107.18,11.64L107.18,11.64z M102.742,12.051h0.336c0.118,0,0.233,0.264,0.177,0.38l-1.803,4.307
			c-0.073,0.176-0.308,0.339-0.513,0.339h-0.294c-0.118,0-0.293-0.251-0.233-0.384l1.817-4.262
			C102.303,12.242,102.522,12.051,102.742,12.051L102.742,12.051z"/>
		<g>
			<path fill="#414141" d="M71.559,21.643l-0.171,0.035v-1.986h0.321c0.188,0,0.339,0.052,0.452,0.157
				c0.113,0.104,0.17,0.244,0.17,0.419c0,0.148-0.042,0.273-0.126,0.373c-0.085,0.102-0.197,0.163-0.338,0.185l0.601,0.747
				L72.31,21.67l-0.75-0.984l0.136,0.002c0.142,0,0.252-0.035,0.332-0.109c0.079-0.072,0.119-0.175,0.119-0.305
				c0-0.132-0.04-0.234-0.119-0.307c-0.08-0.074-0.19-0.11-0.332-0.11H71.56L71.559,21.643L71.559,21.643z"/>
			<path fill="#414141" d="M73.541,20.057c0.164-0.164,0.364-0.246,0.6-0.246c0.236,0,0.435,0.082,0.598,0.246
				s0.245,0.367,0.245,0.609c0,0.24-0.082,0.443-0.246,0.607c-0.164,0.164-0.363,0.246-0.599,0.246c-0.236,0-0.437-0.081-0.6-0.245
				s-0.245-0.366-0.245-0.608S73.377,20.221,73.541,20.057z M73.202,21.07c0.056,0.131,0.135,0.246,0.235,0.342
				c0.094,0.09,0.201,0.158,0.32,0.204s0.247,0.069,0.384,0.069c0.137,0,0.264-0.023,0.382-0.069s0.224-0.114,0.318-0.204
				c0.101-0.096,0.179-0.208,0.235-0.34c0.057-0.131,0.084-0.268,0.084-0.406c0-0.145-0.027-0.28-0.082-0.408
				c-0.055-0.127-0.134-0.239-0.238-0.335c-0.096-0.092-0.203-0.159-0.32-0.206c-0.118-0.045-0.244-0.068-0.38-0.068
				c-0.137,0-0.265,0.023-0.384,0.07c-0.119,0.045-0.226,0.113-0.32,0.204c-0.101,0.097-0.179,0.21-0.235,0.34
				s-0.084,0.265-0.084,0.403S73.146,20.939,73.202,21.07z"/>
			<path fill="#414141" d="M76.012,21.683l-0.168-0.037l0.405-2.02l0.661,1.626l0.664-1.626l0.402,2.02l-0.168,0.037l-0.291-1.481
				l-0.607,1.481l-0.606-1.481L76.012,21.683z"/>
			<path fill="#414141" d="M79.867,20.697h-0.704l0.351-0.704L79.867,20.697z M79.077,20.859h0.869l0.405,0.803l0.167-0.052
				l-0.997-1.979L78.5,21.615l0.165,0.047L79.077,20.859z"/>
			<path fill="#414141" d="M81.379,21.643l-0.171,0.037v-2.022l1.318,1.573v-1.539l0.171-0.034v2.022l-1.318-1.578V21.643z"/>
			<path fill="#414141" d="M83.809,21.643l-0.177,0.025v-1.977l0.177-0.025V21.643z"/>
			<path fill="#414141" d="M85.874,20.697h-0.703l0.351-0.704L85.874,20.697z M85.085,20.859h0.869l0.404,0.803l0.168-0.052
				l-0.997-1.979l-1.022,1.984l0.164,0.047L85.085,20.859z"/>
			<path fill="#414141" d="M87.387,21.643l-0.171,0.037v-2.022l1.318,1.573v-1.539l0.171-0.034v2.022l-1.318-1.578V21.643z"/>
			<path fill="#414141" d="M92.113,20.697h-0.704l0.351-0.704L92.113,20.697z M91.323,20.859h0.869l0.404,0.803l0.169-0.052
				l-0.998-1.979l-1.022,1.984l0.164,0.047L91.323,20.859z"/>
			<path fill="#414141" d="M93.642,21.643l-0.177,0.025v-1.977l0.177-0.025V21.643z"/>
			<path fill="#414141" d="M94.753,21.643l-0.171,0.035v-1.986h0.321c0.188,0,0.339,0.052,0.452,0.157
				c0.113,0.104,0.17,0.244,0.17,0.419c0,0.148-0.043,0.273-0.127,0.373c-0.085,0.102-0.197,0.163-0.338,0.185l0.601,0.747
				l-0.156,0.098l-0.752-0.984l0.137,0.002c0.142,0,0.253-0.035,0.332-0.109c0.079-0.072,0.118-0.175,0.118-0.305
				c0-0.132-0.039-0.234-0.118-0.307c-0.079-0.074-0.19-0.11-0.332-0.11h-0.137V21.643L94.753,21.643z"/>
			<path fill="#414141" d="M98.296,21.643l-0.174,0.025v-1.809h-0.541l0.044-0.168h1.169v0.168h-0.498V21.643z"/>
			<path fill="#414141" d="M99.758,21.643l-0.171,0.035v-1.986h0.321c0.188,0,0.339,0.052,0.452,0.157
				c0.113,0.104,0.169,0.244,0.169,0.419c0,0.148-0.041,0.273-0.126,0.373c-0.084,0.102-0.197,0.163-0.337,0.185l0.601,0.747
				l-0.158,0.098l-0.751-0.984l0.137,0.002c0.142,0,0.252-0.035,0.332-0.109c0.078-0.072,0.118-0.175,0.118-0.305
				c0-0.132-0.04-0.234-0.118-0.307c-0.08-0.074-0.19-0.11-0.332-0.11h-0.137V21.643L99.758,21.643z"/>
			<path fill="#414141" d="M102.579,20.697h-0.704l0.351-0.704L102.579,20.697z M101.789,20.859h0.869l0.404,0.803l0.168-0.052
				l-0.997-1.979l-1.021,1.984l0.163,0.047L101.789,20.859z"/>
			<path fill="#414141" d="M104.091,21.643l-0.172,0.037v-2.022l1.318,1.573v-1.539l0.172-0.034v2.022l-1.318-1.578V21.643z"/>
			<path fill="#414141" d="M106.258,21.336l0.141-0.104c0.059,0.094,0.126,0.164,0.205,0.211c0.078,0.047,0.167,0.071,0.265,0.071
				c0.127,0,0.23-0.036,0.312-0.108s0.124-0.164,0.124-0.273c0-0.185-0.156-0.322-0.468-0.416c-0.033-0.01-0.058-0.018-0.074-0.023
				c-0.16-0.048-0.276-0.113-0.351-0.195c-0.074-0.084-0.11-0.189-0.11-0.32c0-0.146,0.055-0.271,0.166-0.374
				c0.11-0.102,0.25-0.153,0.418-0.153c0.104,0,0.195,0.018,0.277,0.055c0.082,0.036,0.166,0.095,0.249,0.176l-0.114,0.133
				c-0.075-0.072-0.146-0.122-0.21-0.152c-0.066-0.03-0.137-0.046-0.214-0.046c-0.109,0-0.203,0.036-0.279,0.106
				c-0.076,0.072-0.113,0.157-0.113,0.259c0,0.062,0.015,0.118,0.043,0.165c0.03,0.047,0.074,0.088,0.136,0.119
				c0.045,0.025,0.127,0.055,0.244,0.09c0.065,0.018,0.115,0.033,0.149,0.043c0.144,0.051,0.251,0.117,0.324,0.203
				c0.072,0.087,0.107,0.191,0.107,0.314c0,0.16-0.058,0.295-0.175,0.404c-0.116,0.107-0.266,0.162-0.444,0.162
				c-0.125,0-0.239-0.03-0.345-0.09C106.416,21.531,106.329,21.446,106.258,21.336z"/>
			<path fill="#414141" d="M109.043,19.986c0.091,0.086,0.136,0.205,0.136,0.357s-0.045,0.271-0.136,0.356
				c-0.09,0.087-0.216,0.13-0.378,0.13h-0.152v-0.974h0.152C108.827,19.856,108.953,19.899,109.043,19.986z M108.513,20.996h0.155
				c0.208,0,0.374-0.061,0.5-0.179c0.125-0.12,0.188-0.276,0.188-0.474s-0.062-0.355-0.188-0.475
				c-0.126-0.118-0.292-0.178-0.5-0.178h-0.326v1.986l0.171-0.035V20.996z"/>
			<path fill="#414141" d="M110.532,20.057c0.164-0.164,0.364-0.246,0.601-0.246c0.235,0,0.436,0.082,0.598,0.246
				c0.164,0.164,0.245,0.367,0.245,0.609c0,0.24-0.082,0.443-0.245,0.607c-0.164,0.164-0.365,0.246-0.601,0.246
				s-0.436-0.081-0.599-0.245c-0.164-0.164-0.245-0.366-0.245-0.608S110.368,20.221,110.532,20.057z M110.193,21.07
				c0.057,0.131,0.135,0.246,0.235,0.342c0.095,0.09,0.201,0.158,0.32,0.204s0.247,0.069,0.384,0.069s0.265-0.023,0.382-0.069
				c0.119-0.046,0.224-0.114,0.318-0.204c0.1-0.096,0.179-0.208,0.234-0.34c0.058-0.131,0.086-0.268,0.086-0.406
				c0-0.145-0.028-0.28-0.083-0.408c-0.054-0.127-0.133-0.239-0.237-0.335c-0.096-0.092-0.202-0.159-0.32-0.206
				c-0.117-0.045-0.244-0.068-0.38-0.068c-0.137,0-0.265,0.023-0.384,0.07c-0.119,0.045-0.226,0.113-0.32,0.204
				c-0.101,0.097-0.179,0.21-0.235,0.34c-0.056,0.13-0.083,0.265-0.083,0.403S110.138,20.939,110.193,21.07z"/>
			<path fill="#414141" d="M113.163,21.643l-0.171,0.035v-1.986h0.322c0.188,0,0.339,0.052,0.452,0.157
				c0.112,0.104,0.17,0.244,0.17,0.419c0,0.148-0.043,0.273-0.127,0.373c-0.085,0.102-0.198,0.163-0.339,0.185l0.602,0.747
				l-0.157,0.098l-0.752-0.984l0.137,0.002c0.142,0,0.253-0.035,0.333-0.109c0.078-0.072,0.118-0.175,0.118-0.305
				c0-0.132-0.04-0.234-0.118-0.307c-0.08-0.074-0.19-0.11-0.333-0.11h-0.137V21.643z"/>
			<path fill="#414141" d="M115.348,21.643l-0.174,0.025v-1.809h-0.541l0.043-0.168h1.17v0.168h-0.498V21.643L115.348,21.643z"/>
		</g>
		<polygon fill="#606060" points="60.89,25.498 62.329,25.498 72.838,0.5 71.368,0.5 		"/>
		<polygon fill="#414141" points="38.354,25.5 58.498,25.5 58.692,25.485 58.869,25.439 59.046,25.352 59.226,25.246 59.389,25.129 
			59.523,24.98 59.64,24.817 59.714,24.639 69.455,1.362 69.512,1.183 69.529,1.034 69.512,0.886 69.469,0.752 69.38,0.648 
			69.261,0.575 69.127,0.515 68.949,0.5 61.051,0.5 60.888,0.529 60.725,0.589 60.562,0.678 60.414,0.797 60.116,1.065 
			59.834,1.362 37.849,24.639 37.76,24.787 37.715,24.936 37.729,25.068 37.789,25.203 37.892,25.32 38.026,25.426 38.175,25.485 		
			"/>
		<path fill="#FFFFFF" d="M55.989,9.215c3.273,0,5.931,2.675,5.931,5.946c0,3.287-2.658,5.962-5.931,5.962
			c-3.288,0-5.977-2.675-5.977-5.962C50.012,11.89,52.701,9.215,55.989,9.215L55.989,9.215z M53.569,16.729
			c-0.479-0.058-0.747-0.133-1.137-0.089c-0.448,0.031-1.061,0.434-1.449,0.853c-0.328-0.704-0.508-1.494-0.508-2.332
			c0-3.018,2.465-5.498,5.514-5.498c1.299,0,2.525,0.478,3.465,1.256L53.569,16.729L53.569,16.729z M55.601,17.089l5.081,0.928
			c0.509-0.853,0.791-1.793,0.791-2.855c0-1.599-0.716-3.064-1.822-4.079L55.601,17.089L55.601,17.089z M55.854,17.941l2.555,2.092
			l-4.736-2.332c-0.434-0.119-0.851-0.149-1.255-0.164c-0.463-0.015-0.882,0.061-1.359,0.135c0.926,1.779,2.779,3.003,4.931,3.003
			c1.882,0,3.571-0.972,4.558-2.466L55.854,17.941L55.854,17.941z"/>
	</g>
</g>
</svg>
