<?xml version="1.0" encoding="utf-8"?>
<!-- Generator: Adobe Illustrator 16.0.0, SVG Export Plug-In . SVG Version: 6.00 Build 0)  -->
<!DOCTYPE svg PUBLIC "-//W3C//DTD SVG 1.0//EN" "http://www.w3.org/TR/2001/REC-SVG-20010904/DTD/svg10.dtd">
<svg version="1.0" id="LX" xmlns="http://www.w3.org/2000/svg" xmlns:xlink="http://www.w3.org/1999/xlink" x="0px" y="0px"
	 width="157px" height="26px" viewBox="0 0 157 26" enable-background="new 0 0 157 26" xml:space="preserve">
<g>
	<path fill="#FF0000" d="M97.531,25.5h19.301l14.434-25h-19.3L97.531,25.5z M116.702,15.331v5.486h-4.649v-5.486h-5.485v-4.648
		h5.485V5.196h4.649v5.486h5.484v4.648H116.702z"/>
	<path d="M95.57,11.58v-1.058h-3.803v10.27h3.796v-4.936c-0.006-1.638,1.53-2.698,3.754-2.043l-0.007-3.372
		C98.353,10.2,96.913,10.254,95.57,11.58z"/>
	<path d="M82.317,19.753v1.04h3.717V10.522h-3.717v0.974c-1.001-0.982-1.729-1.303-3.201-1.326
		c-2.418-0.039-4.995,1.847-4.992,5.315c0.004,3.714,2.476,5.529,4.957,5.524C80.604,21.006,81.869,20.37,82.317,19.753z
		 M80.271,17.858c-1.238,0-2.243-1.005-2.243-2.244c0-1.238,1.005-2.243,2.243-2.243c1.24,0,2.244,1.005,2.244,2.243
		C82.516,16.854,81.511,17.858,80.271,17.858z"/>
	<path d="M66.123,17.388l-1.346,2.639c1.227,0.744,3.016,1.151,4.38,1.15c1.116-0.001,2.251-0.271,3.156-0.913
		c1.025-0.727,1.618-1.853,1.521-3.258c-0.088-1.27-0.685-2.01-1.574-2.407c-0.894-0.399-1.827-0.396-2.587-0.598
		c-0.287-0.076-0.489-0.22-0.433-0.644c0.064-0.487,0.717-0.609,1.218-0.586c0.742,0.037,1.265,0.293,1.739,0.484l1.237-2.426
		c-0.741-0.434-2.387-0.716-3.479-0.683c-1.011,0.03-1.99,0.206-2.791,0.647c-1.079,0.594-1.719,1.618-1.763,2.878
		c-0.042,1.219,0.531,2.441,1.869,2.874c0.646,0.21,1.336,0.156,2.104,0.332c0.355,0.081,0.688,0.385,0.591,0.79
		c-0.123,0.509-0.613,0.651-1.115,0.66C67.955,18.344,66.792,17.879,66.123,17.388z"/>
	<rect x="87.009" y="10.522" width="3.796" height="10.271"/>
	<polygon points="45.139,10.522 41.373,10.522 39.769,15.989 38.334,10.521 34.425,10.521 37.869,20.792 41.475,20.792 
		43.127,15.161 44.605,20.792 48.271,20.792 51.936,10.522 48.244,10.522 46.604,16.108 	"/>
	<circle cx="88.922" cy="6.821" r="2.14"/>
	<rect x="52.038" y="10.522" width="3.797" height="10.271"/>
	<circle cx="53.953" cy="6.821" r="2.14"/>
	<path d="M27.079,17.391l-1.345,2.638c1.227,0.746,3.016,1.152,4.379,1.151c1.117-0.002,2.251-0.271,3.157-0.913
		c1.025-0.728,1.618-1.853,1.521-3.258c-0.087-1.27-0.686-2.01-1.575-2.408c-0.893-0.398-1.827-0.395-2.586-0.597
		c-0.287-0.075-0.489-0.219-0.434-0.644c0.064-0.487,0.718-0.609,1.219-0.585c0.742,0.036,1.264,0.293,1.739,0.483l1.236-2.425
		c-0.741-0.433-2.386-0.717-3.478-0.684c-1.01,0.03-1.99,0.206-2.791,0.647c-1.08,0.594-1.72,1.618-1.763,2.879
		c-0.042,1.219,0.53,2.44,1.869,2.874c0.646,0.209,1.336,0.156,2.104,0.331c0.354,0.081,0.689,0.385,0.591,0.789
		c-0.123,0.51-0.612,0.653-1.115,0.662C28.912,18.347,27.749,17.88,27.079,17.391z"/>
	<path d="M57.347,17.388l-1.345,2.639c1.226,0.744,3.016,1.151,4.379,1.15c1.116-0.001,2.251-0.271,3.157-0.913
		c1.025-0.727,1.618-1.853,1.521-3.258c-0.089-1.27-0.686-2.01-1.575-2.407c-0.893-0.399-1.827-0.396-2.586-0.598
		c-0.288-0.076-0.489-0.22-0.434-0.644c0.064-0.487,0.717-0.609,1.218-0.586c0.743,0.037,1.265,0.293,1.739,0.484l1.237-2.426
		c-0.741-0.434-2.387-0.716-3.479-0.683c-1.011,0.03-1.99,0.206-2.79,0.647c-1.08,0.594-1.72,1.618-1.763,2.878
		c-0.043,1.219,0.53,2.441,1.868,2.874c0.646,0.21,1.336,0.156,2.103,0.332c0.356,0.081,0.689,0.385,0.593,0.79
		c-0.123,0.509-0.613,0.651-1.115,0.66C59.18,18.344,58.016,17.879,57.347,17.388z"/>
</g>
</svg>
