<?xml version="1.0" encoding="utf-8"?>
<!-- Generator: Adobe Illustrator 23.0.3, SVG Export Plug-In . SVG Version: 6.00 Build 0)  -->
<svg version="1.1" id="Capa_1" xmlns="http://www.w3.org/2000/svg" xmlns:xlink="http://www.w3.org/1999/xlink" x="0px" y="0px"
	 viewBox="0 0 20.1 20" style="enable-background:new 0 0 20.1 20;" xml:space="preserve">
<style type="text/css">
	.st0{fill:#CD1025;}
</style>
<path class="st0" d="M4.3,5.8l4.4,0.7L8.6,9.1L3,9.1C3,9.4,3,9.7,3,10c0,1.2,0.3,2.4,0.9,3.4l-3,0.6C0.3,12.8,0,11.4,0,10
	C0,4.8,4,0.5,9.1,0l-0.3,3C7,3.3,5.4,4.4,4.3,5.8z M10,20c3.4,0,6.4-1.7,8.2-4.2l-5,0.5c-1,0.5-2.1,0.8-3.2,0.8l0,0
	c-1.2,0-2.2-0.3-3.2-0.8l-5-0.5C3.6,18.3,6.6,20,10,20 M11.2,3l-0.3-3C16,0.5,20,4.8,20,10c0,1.4-0.3,2.8-0.8,4l-3-0.6
	c0.6-1,0.9-2.2,0.9-3.4c0-0.3,0-0.6-0.1-0.9l-5.6,0l-0.2-2.6l4.4-0.7C14.6,4.4,13,3.3,11.2,3z"/>
</svg>
