<?xml version="1.0" encoding="utf-8"?>
<!-- Generator: Adobe Illustrator 22.1.0, SVG Export Plug-In . SVG Version: 6.00 Build 0)  -->
<svg version="1.1" id="svg2" xmlns:svg="http://www.w3.org/2000/svg"
	 xmlns="http://www.w3.org/2000/svg" xmlns:xlink="http://www.w3.org/1999/xlink" x="0px" y="0px" viewBox="0 0 183 51"
	 style="enable-background:new 0 0 183 51;" xml:space="preserve">
<style type="text/css">
	.st0{fill:#0E0E0E;}
	.st1{fill:#828282;}
</style>
<path id="path25" class="st0" d="M59.5,25H55v9.7c0,1.8,1,2.1,2.6,2.1c0.6,0,1.2-0.1,1.9-0.1v5.4c-1.3,0-2.7,0.2-4,0.2
	c-6.2,0-7.8-1.8-7.8-7.8V25h-3.7v-4.9h3.7v-7H55v7h4.5V25z M96.2,25h-4.5v9.7c0,1.8,1,2.1,2.6,2.1c0.6,0,1.2-0.1,1.9-0.1v5.4
	c-1.3,0-2.7,0.2-4,0.2c-6.2,0-7.8-1.8-7.8-7.8V25h-3.7v-4.9h3.7v-7h7.3v7h4.5V25z M20.8,32.9c0,6.5-3.3,9.8-10.2,9.8
	c-7.7,0-10.1-4.4-10.1-10.9v-1.3h7.1v2.7c0,1.9,1.1,3,2.9,3c1.7,0,2.7-1,2.7-3.8V13h7.6V32.9z M37.7,28.7c-0.1-2.5-1.9-4.5-4.3-4.5
	c-2.5,0-4.2,1.8-4.7,4.5H37.7z M28.8,32.7c0.1,3,1.9,5,4.9,5c1.7,0,3.4-0.8,4.1-2.4h6.7c-1.3,5.1-6,7.3-10.9,7.3
	c-7.2,0-12.1-4.3-12.1-11.7c0-6.7,5.4-11.6,11.9-11.6c7.9,0,11.8,5.9,11.5,13.4H28.8z M66.6,34.8c0,1.1,0.5,1.9,1.2,2.5
	c0.7,0.5,1.7,0.8,2.7,0.8c1.4,0,3.4-0.6,3.4-2.3c0-1.7-2.2-2-3.5-2.3c-4.5-1.1-10.2-1.3-10.2-7.2c0-5.3,5.7-6.7,10-6.7
	c4.8,0,9.9,1.4,10.1,7.1h-6.6c0-0.9-0.3-1.5-0.9-1.9c-0.6-0.4-1.4-0.5-2.3-0.5c-1.2,0-3.1,0.1-3.1,1.7c0,2.1,4.8,2.5,8.1,3.2
	c4.4,0.9,5.6,4.1,5.6,5.9c0,5.9-5.6,7.8-10.5,7.8c-5.2,0-10.5-1.7-10.8-7.9H66.6z M106.8,38.2c3.4,0,4.6-1.9,4.4-6.5
	c-1,0.6-2.9,0.8-4.4,1.2c-1.6,0.4-3,1.1-3,2.8C103.8,37.5,105.2,38.2,106.8,38.2 M97.5,26.8c0.1-2.9,1.5-4.7,3.4-5.9
	c1.9-1.1,4.5-1.5,7-1.5c5.2,0,10.2,1.1,10.2,7.3v9.6c0,1.9,0,3.9,0.8,5.6h-7.2c-0.3-0.7-0.3-1.4-0.4-2.1c-1.9,1.9-4.6,2.7-7.2,2.7
	c-4.2,0-7.5-2.1-7.5-6.6c0-7.1,7.8-6.6,12.8-7.6c1.2-0.3,1.9-0.7,1.9-2c0-1.6-2-2.3-3.5-2.3c-2,0-3.2,0.9-3.6,2.7H97.5z M129.1,20.8
	c-1.1,0.7-2,1.8-2.5,3.1h-0.1v-3.9h-7v22h7.2V31.1c0-2.7,1.9-5.2,5.4-5.2c0.8,0,1.6,0.1,2.3,0.3L129.1,20.8z"/>
<path id="path53" class="st1" d="M160.8,0.5l0.9,15.1h20.8l-19.9,13.2l4.4,21.7l-16.9-14.7l-22.8,11.8L140.9,29L128,15.6h20.9
	L160.8,0.5z"/>
</svg>
