<svg id="Layer_1" data-name="Layer 1" xmlns="http://www.w3.org/2000/svg" viewBox="0 0 59.00315 21.3453">
  <defs>
    <style>
      .cls-1 {
        fill: #3fc8eb;
      }
    </style>
  </defs>
  <path class="cls-1" d="M24.51606,17.78325a1.27553,1.27553,0,0,1-1.43022-1.36275V1.03893L21.29133,0,19.49681,1.03893V16.58241a4.416,4.416,0,0,0,4.628,4.64146h1.55166V17.78325ZM0,12.845c0,5.03274,3.38665,8.37891,8.47336,8.37891l1.17385-1.76753-1.17385-1.754c-3.07632,0-4.85734-1.781-4.85734-4.87083,0-3.40014,2.11833-5.20815,6.09865-5.20815a16.9774,16.9774,0,0,1,2.22629.16192V21.22387H15.53V4.81686a23.9177,23.9177,0,0,0-5.07322-.62065C3.77792,4.19621,0,7.32649,0,12.845Zm43.47316,0c0,5.12719,3.48109,8.37891,8.97259,8.37891V17.7023c-3.49459,0-5.35657-1.68658-5.35657-4.87083,0-3.40014,2.11834-5.20815,6.09866-5.20815a16.97723,16.97723,0,0,1,2.22628.16192V20.30637l1.79452,1.03893,1.79451-1.03893V4.81686a23.9177,23.9177,0,0,0-5.07322-.62065C47.2511,4.19621,43.47316,7.32649,43.47316,12.845ZM31.937,9.24244c0-1.1702.97473-1.60562,4.03428-1.60562a27.89184,27.89184,0,0,1,4.29065.35081V4.547a24.18949,24.18949,0,0,0-4.16921-.3643c-5.32454,0-7.75824,1.71356-7.75824,5.01924,0,3.00886,1.69965,4.385,6.42247,5.27562,2.30724.43176,2.99536.89051,2.99536,1.9969,0,.904-.66113,1.30878-2.15881,1.30878H29.46785l-1.16037,1.71356,1.16037,1.72706h6.382c3.42713,0,5.505-1.889,5.505-5.00575,0-2.82-1.70007-4.23669-6.12564-5.07322C32.67971,10.65928,31.937,10.23386,31.937,9.24244Z"/>
</svg>
