<?xml version="1.0" encoding="utf-8"?>
<!-- Generator: Adobe Illustrator 16.0.0, SVG Export Plug-In . SVG Version: 6.00 Build 0)  -->
<!DOCTYPE svg PUBLIC "-//W3C//DTD SVG 1.0//EN" "http://www.w3.org/TR/2001/REC-SVG-20010904/DTD/svg10.dtd">
<svg version="1.0" id="VY" xmlns="http://www.w3.org/2000/svg" xmlns:xlink="http://www.w3.org/1999/xlink" x="0px" y="0px"
	 width="157px" height="26px" viewBox="0 0 157 26" enable-background="new 0 0 157 26" xml:space="preserve">
<g opacity="0.7">
	<g id="_x23_757575ff">
		<path fill="#757575" d="M78.246,0.574c0.545-0.163,1.181-0.058,1.61,0.329c0.363,0.338,0.518,0.844,0.52,1.331
			c0.002,4.786,0.001,9.572,0.001,14.358c-0.025,0.717,0.126,1.521-0.318,2.145c-0.441,0.644-1.369,0.813-2.05,0.474
			c-0.556-0.275-0.853-0.912-0.846-1.514c0.002-4.951,0-9.903,0.001-14.854c0.006-0.441-0.046-0.9,0.11-1.323
			C77.429,1.078,77.794,0.708,78.246,0.574z"/>
		<path fill="#757575" d="M65.494,9.601c0.815-1.163,2.174-1.879,3.575-2.015c1.489-0.165,3.132,0.088,4.285,1.111
			c1.071,0.941,1.549,2.384,1.646,3.773c0.03,0.546,0.11,1.146-0.175,1.642c-0.222,0.392-0.71,0.494-1.126,0.498
			c-2.068,0.004-4.137-0.004-6.206,0.003c0.131,0.769,0.492,1.593,1.256,1.916c1.066,0.454,2.269,0.188,3.335-0.132
			c0.423-0.126,0.859-0.281,1.307-0.22c0.625,0.135,1.068,0.805,0.997,1.431c-0.06,0.478-0.454,0.82-0.846,1.048
			c-0.721,0.399-1.545,0.559-2.355,0.654c-1.534,0.179-3.196,0.06-4.512-0.822c-1.304-0.843-2.051-2.345-2.235-3.856
			C64.229,12.909,64.468,11.042,65.494,9.601 M68.534,10.316c-0.771,0.406-0.961,1.345-1.039,2.136
			c1.508,0.001,3.017-0.002,4.525,0.001c-0.057-0.807-0.326-1.72-1.094-2.125C70.19,9.967,69.274,9.971,68.534,10.316z"/>
		<path fill="#757575" d="M53.037,7.671c0.553-0.155,1.208-0.062,1.623,0.358c0.352,0.346,0.492,0.849,0.49,1.33
			c0.003,1.777-0.001,3.553,0.001,5.33c-0.004,0.641,0.258,1.323,0.817,1.677c0.492,0.319,1.105,0.348,1.673,0.281
			c0.487-0.061,0.973-0.289,1.256-0.702c0.319-0.452,0.364-1.024,0.371-1.561c0.001-1.741-0.001-3.482,0-5.222
			c0.005-0.606,0.371-1.215,0.946-1.438c0.625-0.252,1.433-0.132,1.87,0.411c0.342,0.393,0.408,0.934,0.399,1.436
			c-0.011,1.602,0.012,3.206-0.011,4.809c-0.033,1.371-0.405,2.839-1.449,3.796c-1.12,1.032-2.725,1.282-4.194,1.226
			c-1.353-0.047-2.792-0.453-3.713-1.501c-0.846-0.956-1.163-2.268-1.177-3.517c0.002-1.741-0.003-3.482,0.002-5.222
			C51.948,8.502,52.394,7.856,53.037,7.671z"/>
		<path fill="#757575" d="M92.492,7.688c1.508-0.189,3.151-0.12,4.481,0.696c0.914,0.548,1.537,1.495,1.806,2.516
			c0.185,0.676,0.246,1.38,0.247,2.079c-0.002,1.539-0.001,3.077,0,4.615c0.009,0.509-0.156,1.045-0.546,1.391
			c-0.575,0.514-1.517,0.526-2.113,0.044c-0.392-0.318-0.597-0.831-0.582-1.331c0.006-1.54,0-3.08,0.003-4.621
			c0.004-0.679,0.028-1.424-0.384-2.004c-0.338-0.499-0.949-0.728-1.532-0.749c-0.576-0.017-1.206,0.093-1.638,0.506
			c-0.401,0.401-0.541,0.989-0.539,1.541c0.003,1.746-0.001,3.491,0.003,5.234c0.001,0.416-0.09,0.847-0.35,1.181
			c-0.552,0.738-1.779,0.8-2.411,0.134c-0.316-0.319-0.457-0.777-0.454-1.219c-0.001-1.172,0.001-2.343,0-3.514
			c0.011-1.071-0.072-2.161,0.217-3.206c0.241-0.995,0.817-1.919,1.667-2.504C90.999,8.046,91.74,7.801,92.492,7.688z"/>
		<path fill="#757575" d="M102.901,8.952c1.097-0.964,2.59-1.382,4.03-1.347c1.412,0.002,2.852,0.291,4.089,0.991
			c0.568,0.309,0.995,0.909,0.981,1.573c0,3.314-0.001,6.63,0.001,9.945c-0.021,1.5-0.502,3.091-1.675,4.094
			c-1.178,1.015-2.791,1.312-4.303,1.291c-1.163-0.049-2.334-0.342-3.335-0.947c-0.362-0.232-0.703-0.521-0.913-0.9
			c-0.384-0.708,0.062-1.719,0.852-1.896c0.58-0.09,1.124,0.194,1.646,0.406c0.709,0.312,1.481,0.489,2.259,0.461
			c0.663-0.001,1.373-0.167,1.854-0.65c0.446-0.466,0.583-1.136,0.578-1.761c-0.002-0.578-0.005-1.155-0.001-1.733
			c-0.907,0.798-2.182,0.989-3.351,0.914c-1.224-0.075-2.424-0.621-3.226-1.561c-1.127-1.292-1.461-3.091-1.369-4.759
			C101.099,11.53,101.711,9.969,102.901,8.952 M106.283,10.35c-0.491,0.084-0.969,0.301-1.315,0.665
			c-0.633,0.687-0.776,1.668-0.775,2.566c0.013,0.808,0.076,1.687,0.577,2.358c0.475,0.617,1.318,0.758,2.051,0.7
			c0.701-0.034,1.393-0.415,1.715-1.054c0.603-1.143,0.389-2.474,0.431-3.713c-0.021-0.368,0.11-0.844-0.258-1.083
			C108.021,10.283,107.1,10.228,106.283,10.35z"/>
		<path fill="#757575" d="M40.109,8.523c0.34-0.66,1.18-0.917,1.874-0.775c0.551,0.102,0.943,0.591,1.081,1.112
			c0.635,2.142,1.271,4.282,1.901,6.426c0.034,0.125,0.094,0.243,0.162,0.354c0.665-2.193,1.309-4.394,1.959-6.592
			c0.123-0.471,0.35-0.966,0.812-1.187c0.742-0.338,1.763-0.099,2.184,0.626c0.268,0.481,0.2,1.069,0.006,1.563
			c-0.902,2.513-1.788,5.032-2.688,7.546c-0.189,0.484-0.37,0.999-0.746,1.375c-0.39,0.37-0.96,0.407-1.47,0.411
			c-0.566,0.003-1.197-0.049-1.631-0.457c-0.399-0.382-0.607-0.911-0.796-1.418c-0.893-2.522-1.778-5.047-2.675-7.566
			C39.915,9.489,39.875,8.961,40.109,8.523z"/>
		<path fill="#757575" d="M83.881,7.825c0.676-0.268,1.534-0.064,1.946,0.554c0.245,0.342,0.301,0.777,0.299,1.188
			c-0.004,2.678-0.002,5.356-0.001,8.034c-0.001,0.448-0.112,0.916-0.418,1.256c-0.578,0.683-1.761,0.702-2.363,0.043
			c-0.289-0.324-0.437-0.762-0.434-1.193c0.001-2.78,0.002-5.561,0-8.341C82.894,8.722,83.266,8.057,83.881,7.825z"/>
	</g>
	<g id="_x23_fbe666ff">
		<path fill="#DEDEDE" d="M114.206,1.709c0.508-0.161,1.068-0.161,1.576,0.002c0.632,0.203,1.131,0.768,1.242,1.424
			c0.069,0.563,0.044,1.186-0.302,1.663c-0.673,0.941-2.134,1.07-3.051,0.429C112.492,4.348,112.734,2.141,114.206,1.709z"/>
	</g>
</g>
</svg>
