<svg id="Capa_1" data-name="Capa 1" xmlns="http://www.w3.org/2000/svg" xmlns:xlink="http://www.w3.org/1999/xlink" viewBox="0 0 147.03 22.26"><defs><style>.cls-1{fill:none;}.cls-2{fill:#003563;}.cls-3{clip-path:url(#clip-path);}.cls-4{fill:#00488a;}.cls-5{fill:#bb0a13;}</style><clipPath id="clip-path" transform="translate(-4.97 -2.19)"><rect class="cls-1" x="5" y="2.19" width="147" height="22.26"/></clipPath></defs><path class="cls-2" d="M128.83,19a.73.73,0,1,1,.71-.73.7.7,0,0,1-.71.73Zm0-1.6a.87.87,0,1,0,.89.87.87.87,0,0,0-.89-.87Z" transform="translate(-4.97 -2.19)"/><path class="cls-2" d="M128.65,18.2v-.31h.21c.1,0,.21,0,.21.15s-.11.16-.24.16Zm.32.12c.15,0,.26-.09.26-.27s-.11-.29-.35-.29h-.38v1h.15v-.44h.17l.27.44h.17l-.29-.45Z" transform="translate(-4.97 -2.19)"/><g class="cls-3"><path class="cls-2" d="M24.56,8.93a2.1,2.1,0,0,1,1,.25c.52.24,1.12.52,1.87.89l1.28-.91a.64.64,0,0,1,.94.17,23.47,23.47,0,0,1,1.73,4.25.48.48,0,0,1-.31.59,6.37,6.37,0,0,1-.8.14c-.44,0-.43.41-.43.62V17.6a1.61,1.61,0,0,1-1.69,1.61H24.9a2.23,2.23,0,0,1-2.22-2.14V10.74a1.87,1.87,0,0,1,1.88-1.81Z" transform="translate(-4.97 -2.19)"/><path class="cls-2" d="M19.44,19.21H8.9v1.17H21.26a6.21,6.21,0,0,0,.45-2.18V10.26a1.9,1.9,0,0,1,1.55-2l.1,0a16.18,16.18,0,0,1,9.53.84c.38.18.47-.12.46-.25a3.9,3.9,0,0,0-3.81-3.94A6.56,6.56,0,0,0,26,5.8a.1.1,0,0,1-.13,0,5.42,5.42,0,0,0-2.07-1.18.12.12,0,0,1,0-.24,16.67,16.67,0,0,1,4.29.12c.17,0,.29-.07.22-.21s-.09-.17-.17-.34A1.9,1.9,0,0,0,26.94,3a27.7,27.7,0,0,0-6.37-.8,30.52,30.52,0,0,0-6,.66l-.43.1c-.19,0-.23.21-.15.3l.26.26a.29.29,0,0,1,0,.42L9.47,8.2h3.29a.43.43,0,0,1,0,.86H8.52l-1.3,1.18H12.8a.42.42,0,0,1,.38.43.42.42,0,0,1-.38.42H6.27L5,12.26H16.21a.43.43,0,0,1,.39.43.41.41,0,0,1-.38.43H5v1.17H16.19a.42.42,0,0,1,.41.44.43.43,0,0,1-.41.41H5v1.17H19.61a.41.41,0,0,1,.39.45.41.41,0,0,1-.39.4H8.91v1.18H19.66c.2,0,.37.25.37.44a.43.43,0,0,1-.38.42Z" transform="translate(-4.97 -2.19)"/><path class="cls-2" d="M12.84,23.25v1.2h2.48A6.34,6.34,0,0,0,19,23.25Z" transform="translate(-4.97 -2.19)"/></g><path class="cls-2" d="M12.84,21.24v1.17H20a7.09,7.09,0,0,0,.86-1.17Z" transform="translate(-4.97 -2.19)"/><path class="cls-2" d="M123.28,18h-.47a2,2,0,0,1-1.12-.45,1.6,1.6,0,0,1-.26-.26,3.92,3.92,0,0,1-.78-2.13c-.14-1.65.19-4.06,2.22-4.22h.34c2,.16,2.36,2.57,2.23,4.22a3.8,3.8,0,0,1-.78,2.13,2.17,2.17,0,0,1-.27.26,2.14,2.14,0,0,1-1.11.45Zm4.85-4a.2.2,0,0,1,0-.07,4.53,4.53,0,0,0-.77-2.35,5.44,5.44,0,0,0-8.62,0,4.62,4.62,0,0,0-.77,2.35.2.2,0,0,1,0,.07,4.67,4.67,0,0,0,4.56,5.4l.53,0,.53,0a4.67,4.67,0,0,0,4.56-5.4Z" transform="translate(-4.97 -2.19)"/><path class="cls-2" d="M108,11.73c0-.76.07-2.08.07-2.08h-2.48s.07,1.32.07,2.08v5.43c0,.76-.06,2-.06,2h2.48s-.06-1.28-.06-2V11.73Z" transform="translate(-4.97 -2.19)"/><path class="cls-2" d="M93.47,17.72H91.74c0-1,0-1.89,0-2.74v-.13h0v0h2.87V13.49H91.71c0-1.45,0-2.41,0-2.41H95.3V9.64H89.22s0,1.32,0,2.08v5.42c0,.69,0,1.87,0,2.06h6.32V17.68s-1.24,0-2.07,0Z" transform="translate(-4.97 -2.19)"/><path class="cls-2" d="M52.06,17.72H50.33c0-1,0-1.89,0-2.74v-.13h0v0h2.87V13.49H50.29c0-1.45,0-2.41,0-2.41h3.56V9.64H47.81s0,1.32,0,2.08v5.42c0,.69,0,1.87,0,2.06h6.31V17.68s-1.25,0-2.07,0Z" transform="translate(-4.97 -2.19)"/><path class="cls-2" d="M101.6,14.06l2.74-4.41h-1.9v0c-.58,1-1.29,2.19-1.58,2.64l-.11.17L99.15,9.65H96.29l2.76,4.94L96.18,19.2h1.89c1.22-2.09,1.85-3.05,1.85-3.05l1.71,3.05h2.84l-2.87-5.14Z" transform="translate(-4.97 -2.19)"/><path class="cls-2" d="M115.73,17.9a3.24,3.24,0,0,1-3.34-3.62c0-1.75.84-3.23,2.74-3.35a6.56,6.56,0,0,1,2.34.35l-.1-1.5a8.91,8.91,0,0,0-2.1-.32,5.49,5.49,0,0,0-4.14,1.29,5.07,5.07,0,0,0-1.61,3.64,4.81,4.81,0,0,0,1.74,3.78,5.64,5.64,0,0,0,4,1.23,8.44,8.44,0,0,0,2.54-.32l-.15-1.47a5.93,5.93,0,0,1-1.9.29Z" transform="translate(-4.97 -2.19)"/><path class="cls-2" d="M83.82,8.21h2.77l.08.64,1,10.35H84.78l-.29-3.95-.26-3.53L81.79,19.2H80.25s-.78-2.66-.92-3l-1.4-4.49s-.21,2.5-.29,3.57c-.17,2.14-.32,3.95-.32,3.95H75.17s.88-8.93.94-9.48.18-1.51.18-1.51h2.82l2.34,6.44,2.37-6.44Z" transform="translate(-4.97 -2.19)"/><path class="cls-2" d="M69.18,18h-.47a2.11,2.11,0,0,1-1.11-.44,3.25,3.25,0,0,1-.27-.26,3.93,3.93,0,0,1-.77-2.12c-.14-1.64.19-4,2.21-4.2h.35c2,.16,2.35,2.56,2.21,4.2a3.77,3.77,0,0,1-.78,2.12,1.94,1.94,0,0,1-1.37.7ZM74,14s0,0,0-.06a4.53,4.53,0,0,0-.77-2.35,5.42,5.42,0,0,0-8.58,0A4.62,4.62,0,0,0,63.89,14s0,0,0,.06a4.65,4.65,0,0,0,4.54,5.38h1.06A4.65,4.65,0,0,0,74,14Z" transform="translate(-4.97 -2.19)"/><path class="cls-2" d="M40.16,14.52,41.36,11l.07-.21,1.26,3.77Zm7.05,4.68c-.09-.2-.6-1.41-1-2.39L43,8.21H40.49s-.71,2-.82,2.35l-2.36,6.67c-.3.85-.73,2-.73,2h2.05s.58-1.85.7-2.19l.32-.92H43.2l.49,1.41c.1.26.52,1.68.53,1.7Z" transform="translate(-4.97 -2.19)"/><path class="cls-2" d="M59.62,13.87A4,4,0,0,1,58,14l0-2.73.23,0a3.65,3.65,0,0,1,1.55.15,1,1,0,0,1,.56,1,1.43,1.43,0,0,1-.75,1.48ZM64,19.2c-.59-.85-.81-1.21-1.27-1.83L61,14.71a2.87,2.87,0,0,0,1.71-2.52,2.39,2.39,0,0,0-.69-1.88,2.28,2.28,0,0,0-1.38-.59c-.46-.06-.79-.06-1.06-.08h-4s0,1.32,0,2.08v5.4c0,.76,0,2.08,0,2.08h2.48S58,17.88,58,17.12l0-1.73h.92l1.57,2.88c.21.37.52.82.59.93Z" transform="translate(-4.97 -2.19)"/><polygon class="cls-4" points="142.99 2.4 142.88 2.35 142.91 2.3 143.19 2.42 143.16 2.48 143.06 2.43 142.92 2.74 142.85 2.71 142.99 2.4 142.99 2.4 142.99 2.4"/><g class="cls-3"><polygon class="cls-4" points="143.25 2.45 143.36 2.5 143.31 2.82 143.31 2.82 143.53 2.59 143.65 2.64 143.47 3 143.4 2.97 143.55 2.67 143.55 2.67 143.31 2.92 143.24 2.88 143.29 2.54 143.28 2.54 143.14 2.84 143.07 2.8 143.25 2.45 143.25 2.45 143.25 2.45"/><path class="cls-4" d="M149.07,7.74h0A8.35,8.35,0,0,1,138,20.19h0A8.35,8.35,0,1,0,149.07,7.74Z" transform="translate(-4.97 -2.19)"/></g><path class="cls-4" d="M134.26,17.24c-.26.15-.32.37-.18.72s.32.45.53.36.2-.21.13-.59l0-.14a1.56,1.56,0,0,1,0-.69.48.48,0,0,1,.3-.36c.38-.15.74.08.95.61s.11,1-.34,1.2l-.11-.28c.31-.14.39-.43.22-.85s-.35-.49-.58-.4-.23.24-.16.63l0,.16,0,.15a1.18,1.18,0,0,1,0,.51.44.44,0,0,1-.29.32c-.36.15-.69-.06-.89-.54s-.09-.91.3-1.09l.11.28Z" transform="translate(-4.97 -2.19)"/><polygon class="cls-4" points="129.06 12.04 130.32 10.97 130.33 11.36 129.26 12.25 129.61 12.63 130.36 12.62 130.37 12.93 128.21 12.97 128.21 12.66 129.05 12.65 129.17 12.65 129.28 12.64 129.21 12.57 129.13 12.49 128.18 11.46 128.17 11.05 129.06 12.04 129.06 12.04 129.06 12.04"/><path class="cls-4" d="M135,10.89l.83.29-.1.29-.83-.29-1.49.45.13-.35.92-.26.12,0,.15,0-.16-.21L134,10l.12-.34.88,1.26Z" transform="translate(-4.97 -2.19)"/><polygon class="cls-4" points="131.47 4.74 131.01 5.3 132.37 6.41 132.04 6.81 130.68 5.7 130.23 6.25 129.92 6 131.16 4.49 131.47 4.74 131.47 4.74 131.47 4.74"/><polygon class="cls-4" points="134.38 2.7 133.29 3.34 133.52 3.73 134.52 3.15 134.7 3.47 133.7 4.05 133.97 4.51 135.08 3.86 135.28 4.21 133.73 5.12 132.64 3.25 134.17 2.36 134.38 2.7 134.38 2.7 134.38 2.7"/><path class="cls-4" d="M142.29,4.62a2.36,2.36,0,0,1-.23-.44,4.75,4.75,0,0,1-.1.49l-.09.41.63-.1-.21-.36Zm1.23,1.11-.56,0-.28-.47-.87.14-.12.53-.54.14.57-2.35.53-.09,1.27,2.06Z" transform="translate(-4.97 -2.19)"/><path class="cls-4" d="M147,6.42l-.45-.17.17-.64c0-.08,0-.18.08-.31l.09-.32.09-.27,0-.15c-.13.22-.18.29-.3.47a1.74,1.74,0,0,1-.13.2l-.61.85-.39-.1-.12-1s0-.13,0-.23,0-.24,0-.31a1.78,1.78,0,0,1,0-.26l0,.26c-.06.28-.09.41-.18.75l-.18.69-.47-.08.54-2.1.72.14.1,1a3.94,3.94,0,0,1,0,.7c.09-.16.11-.21.21-.36a2.56,2.56,0,0,0,.16-.25l.57-.81.69.23L147,6.42Z" transform="translate(-4.97 -2.19)"/><path class="cls-4" d="M146.93,13.37a3,3,0,0,1,1.46-.63c.19,0,.42.06.42.3s-.23.44-.68.6a4.06,4.06,0,0,1-1.66.11,3.93,3.93,0,0,1,.46-.38Zm-8.74.77c-.39,0-.58-.19-.58-.48,0,0,0-1,2.19-1.09a5.15,5.15,0,0,1,.94,0,2.57,2.57,0,0,0-.24.21l-.14.12c-.52.48-1.39,1.27-2.17,1.22Zm4.67-3.57c-.26.23-.78.73-1.28,1.21l-.56.54a7.25,7.25,0,0,0-1.39-.12,3.63,3.63,0,0,0-2.45.73.77.77,0,0,0-.25.55c0,.51.59.77.77.83a2.51,2.51,0,0,0,2.54-.33,12.37,12.37,0,0,0,1.42-1.23c.33.08.71.17,1.11.29l.38.11c-.49.48-1,1-1.44,1.39l0,0a4.08,4.08,0,0,1-1.77,1.12,1.34,1.34,0,0,1-.91-.07l0,0a1.76,1.76,0,0,0,1.39.44,3.65,3.65,0,0,0,2-1.09l1-.94.67-.67,1.36.4h0l-.83.81-.72.72a14,14,0,0,1-1.57,1.39,3.85,3.85,0,0,1-1.87.81,1.76,1.76,0,0,1-1-.2h0a2.16,2.16,0,0,0,1.58.67c.87,0,1.64-.44,2.84-1.55.55-.5,1.09-1.06,1.57-1.55l.89-.9a7,7,0,0,0,1.69.17c.84,0,1.56-.42,1.57-.89a.75.75,0,0,0-.44-.63,1.93,1.93,0,0,0-1-.3,3.15,3.15,0,0,0-2,.83l-.44.39-.17,0-1.24-.35,1-.88a3.43,3.43,0,0,1,1.87-.88,2.19,2.19,0,0,1,1.1.17s0,0,0,0a2.24,2.24,0,0,0-1.57-.59,3.24,3.24,0,0,0-2,.79A14.12,14.12,0,0,0,143.33,13l-.63-.2-.15,0-.66-.2s.38-.35.38-.35c.44-.44.86-.85,1.19-1.12a3.77,3.77,0,0,1,2.46-1.14,2.27,2.27,0,0,1,1.34.35l0,0a2.58,2.58,0,0,0-2-.8,3.93,3.93,0,0,0-2.45,1.14Z" transform="translate(-4.97 -2.19)"/><path class="cls-5" d="M75.43,24.14s4.34-3.55,15.32-3.55c8.27,0,13.23,2.64,22.89,2.64a34.39,34.39,0,0,0,14.51-3s-5.1,4-15.33,4-13.49-2.68-23.6-2.68-13.79,2.6-13.79,2.6Z" transform="translate(-4.97 -2.19)"/></svg>