<?xml version="1.0" encoding="utf-8"?>
<!-- Generator: Adobe Illustrator 16.0.0, SVG Export Plug-In . SVG Version: 6.00 Build 0)  -->
<!DOCTYPE svg PUBLIC "-//W3C//DTD SVG 1.1//EN" "http://www.w3.org/Graphics/SVG/1.1/DTD/svg11.dtd">
<svg version="1.1" id="Layer_1" xmlns="http://www.w3.org/2000/svg" xmlns:xlink="http://www.w3.org/1999/xlink" x="0px" y="0px"
	 width="157px" height="26px" viewBox="0 0 157 26" style="enable-background:new 0 0 157 26;" xml:space="preserve">
<g>
	<rect x="86.145" y="6.861" style="fill:none;" width="0" height="0.749"/>
	<rect x="94.157" y="0.462" style="fill:none;" width="0.001" height="7.576"/>
	<polygon style="fill:none;" points="65.461,14.942 55.538,18.64 65.461,14.942 	"/>
	<rect x="84.437" y="7.439" style="fill:none;" width="0" height="0.865"/>
	<rect x="88.121" y="5.801" style="fill:none;" width="0.001" height="1.397"/>
	<rect x="76.08" y="4.706" style="fill:none;" width="0.001" height="12.56"/>
	<rect x="68.182" y="12.913" style="fill:none;" width="0" height="2.031"/>
	<rect x="82.66" y="8.092" style="fill:none;" width="0.001" height="0.884"/>
	<path style="fill:#DC011F;" d="M84.843,7.72V7.127l0,0c-0.056-0.01-0.114-0.017-0.18-0.024c-0.063-0.006-0.121-0.01-0.172-0.01
		c-0.225,0-0.402,0.04-0.534,0.121c-0.13,0.08-0.195,0.21-0.195,0.389c0,0.119,0.025,0.211,0.075,0.275
		c0.052,0.064,0.111,0.111,0.182,0.141c0.005,0.002,0.009,0.003,0.014,0.004L84.843,7.72z"/>
	<polygon style="fill:#DC011F;" points="69.133,13.574 66.482,12.477 67.23,14.283 	"/>
	<path style="fill:#DC011F;" d="M72.28,7.051c-0.078-0.008-0.175-0.019-0.293-0.03c-0.117-0.012-0.229-0.018-0.334-0.018
		c-0.345,0-0.611,0.065-0.799,0.193c-0.188,0.129-0.283,0.312-0.283,0.552c0,0.151,0.029,0.272,0.087,0.365
		c0.058,0.092,0.132,0.162,0.224,0.21s0.193,0.081,0.303,0.096c0.11,0.016,0.221,0.024,0.331,0.024c0.142,0,0.275-0.006,0.399-0.021
		c0.124-0.013,0.245-0.032,0.365-0.055V7.051z"/>
	<path style="fill:#DC011F;" d="M97.707,0.5H72.016L57.652,10.916l-2.114,2.009v5.715l9.923-3.697l1.021-2.465l-5.14,2.128
		l2.129-2.128l-2.129-2.129l5.14,2.129l-2.129-5.138l2.129,2.127l2.128-2.127l-2.128,5.138l5.139-2.129l-2.128,2.129l0.702,0.701
		l11.77-4.385c-0.07,0.005-0.14,0.009-0.208,0.009c-0.16,0-0.323-0.014-0.488-0.042V6.749c0-0.249-0.031-0.438-0.093-0.571
		s-0.188-0.2-0.376-0.2c-0.077,0-0.154,0.012-0.23,0.035c-0.076,0.023-0.145,0.065-0.208,0.127c-0.062,0.062-0.11,0.15-0.149,0.262
		c-0.039,0.111-0.06,0.258-0.06,0.438V8.76c-0.165,0.028-0.328,0.042-0.489,0.042c-0.16,0-0.323-0.014-0.488-0.042V6.749
		c0-0.249-0.031-0.438-0.094-0.571c-0.062-0.134-0.187-0.2-0.375-0.2c-0.078,0-0.156,0.012-0.233,0.035
		c-0.079,0.023-0.148,0.068-0.211,0.134c-0.062,0.066-0.111,0.159-0.148,0.28c-0.036,0.119-0.055,0.275-0.055,0.468V8.76
		c-0.165,0.028-0.328,0.042-0.489,0.042c-0.16,0-0.323-0.014-0.488-0.042V5.2L77.08,5.199c0.064-0.014,0.129-0.024,0.192-0.031
		c0.065-0.007,0.136-0.011,0.215-0.011c0.077,0,0.146,0.004,0.206,0.011c0.059,0.006,0.121,0.017,0.186,0.031l0.038,0.1
		c0.012,0.043,0.022,0.089,0.03,0.138c0.01,0.048,0.018,0.095,0.024,0.141l0.017,0.117c0.038-0.069,0.086-0.138,0.146-0.207
		c0.06-0.07,0.131-0.131,0.214-0.186c0.083-0.055,0.176-0.1,0.279-0.134c0.103-0.034,0.219-0.051,0.348-0.051
		c0.556,0,0.911,0.211,1.067,0.633c0.092-0.169,0.222-0.319,0.391-0.444c0.166-0.126,0.379-0.189,0.636-0.189
		c0.404,0,0.701,0.111,0.892,0.333c0.191,0.224,0.286,0.571,0.286,1.043v2.194l0.828-0.308c-0.044-0.055-0.083-0.113-0.115-0.178
		c-0.075-0.152-0.113-0.337-0.113-0.558s0.047-0.405,0.141-0.555c0.094-0.149,0.217-0.269,0.365-0.358
		c0.149-0.089,0.316-0.154,0.5-0.194c0.184-0.038,0.367-0.058,0.551-0.058c0.133,0,0.28,0.008,0.441,0.021V6.417h-0.001
		c0-0.11-0.018-0.199-0.056-0.268c-0.037-0.069-0.086-0.123-0.151-0.162c-0.063-0.039-0.143-0.065-0.237-0.079
		c-0.094-0.014-0.199-0.021-0.314-0.021c-0.247,0-0.512,0.048-0.791,0.144c-0.064-0.118-0.112-0.231-0.145-0.336
		c-0.032-0.106-0.048-0.232-0.048-0.379c0.202-0.069,0.403-0.12,0.605-0.151c0.202-0.033,0.391-0.048,0.565-0.048
		c0.477,0,0.851,0.115,1.119,0.345c0.269,0.229,0.403,0.597,0.403,1.101v0.805l0.702-0.262V3.926l0,0
		c0.166-0.026,0.329-0.04,0.489-0.04c0.156,0,0.317,0.014,0.481,0.04v2.817l1.309-0.488V5.943h-0.447V5.76l1.253-1.602h0.158v1.04
		h0.834c0.014,0.069,0.022,0.131,0.027,0.187c0.005,0.055,0.007,0.112,0.007,0.172c0,0.005,0,0.01,0,0.015l7.1-2.646v0.001
		l2.01-0.749l1.743,1.456v0.001h0.002V0.5H97.707z M73.939,4.174c0,0.042-0.001,0.092-0.005,0.151
		c-0.001,0.061-0.004,0.111-0.009,0.152c-0.037,0.005-0.083,0.008-0.138,0.011c-0.056,0.002-0.103,0.003-0.139,0.003
		c-0.041,0-0.092-0.001-0.15-0.003c-0.061-0.002-0.111-0.006-0.152-0.011c-0.005-0.041-0.008-0.091-0.011-0.152
		c-0.003-0.059-0.004-0.11-0.004-0.151c0-0.037,0.001-0.082,0.004-0.139c0.003-0.054,0.006-0.099,0.011-0.137
		c0.041-0.004,0.092-0.009,0.152-0.011c0.058-0.001,0.109-0.003,0.15-0.003c0.036,0,0.083,0.001,0.139,0.003
		c0.055,0.002,0.101,0.007,0.138,0.011c0.004,0.037,0.008,0.082,0.009,0.137C73.938,4.092,73.939,4.137,73.939,4.174z M72.149,8.795
		c-0.23,0.032-0.448,0.048-0.655,0.048c-0.426,0-0.764-0.085-1.009-0.256c-0.245-0.169-0.368-0.445-0.368-0.826
		c0-0.184,0.035-0.348,0.107-0.492c0.07-0.146,0.169-0.267,0.295-0.366c0.127-0.098,0.279-0.173,0.455-0.223
		c0.178-0.05,0.371-0.076,0.582-0.076c0.165,0,0.309,0.006,0.427,0.018c0.12,0.011,0.219,0.021,0.297,0.031V6.438l0,0
		c0-0.303-0.072-0.524-0.214-0.665c-0.142-0.14-0.354-0.21-0.634-0.21c-0.184,0-0.351,0.013-0.503,0.038
		c-0.151,0.026-0.286,0.056-0.406,0.093c-0.022-0.041-0.042-0.1-0.059-0.178c-0.016-0.079-0.024-0.152-0.024-0.221
		c0.119-0.037,0.266-0.068,0.44-0.093c0.175-0.025,0.354-0.038,0.539-0.038c0.444,0,0.774,0.097,0.991,0.292
		c0.215,0.196,0.323,0.502,0.323,0.921v2.32C72.574,8.731,72.378,8.762,72.149,8.795z M73.916,8.77
		c-0.049,0.002-0.087,0.003-0.115,0.003c-0.022,0-0.059-0.001-0.11-0.003c-0.05-0.003-0.089-0.006-0.117-0.011V5.633l0,0h-0.44
		L73.122,5.55l-0.003-0.104l0.003-0.11l0.011-0.089h0.896v3.512C74.001,8.764,73.964,8.767,73.916,8.77z M75.282,8.758
		c-0.027,0.005-0.065,0.008-0.113,0.011c-0.049,0.001-0.087,0.003-0.114,0.003c-0.022,0-0.06-0.001-0.11-0.003
		c-0.051-0.003-0.089-0.006-0.116-0.011V5.247l0,0l0.105-0.011l0.101-0.003l0.103,0.003l0.104,0.011
		c0.009,0.082,0.016,0.18,0.021,0.292c0.004,0.113,0.008,0.215,0.008,0.307c0.09-0.169,0.22-0.313,0.385-0.43
		s0.384-0.176,0.654-0.176h0.072l0.086,0.007c0.014,0.078,0.021,0.151,0.021,0.22c0,0.074-0.007,0.145-0.021,0.214l-0.086-0.007
		h-0.064c-0.313,0-0.563,0.098-0.752,0.296c-0.188,0.197-0.282,0.526-0.282,0.985V8.758z"/>
	
		<linearGradient id="SVGID_1_" gradientUnits="userSpaceOnUse" x1="153.8486" y1="-195.7881" x2="154.3524" y2="-195.7881" gradientTransform="matrix(269.4115 0 0 -269.4115 -41450.5 -52739.75)">
		<stop  offset="0" style="stop-color:#DF2133"/>
		<stop  offset="0.17" style="stop-color:#DF2133"/>
		<stop  offset="0.2113" style="stop-color:#D12330"/>
		<stop  offset="0.27" style="stop-color:#B6282A"/>
		<stop  offset="0.47" style="stop-color:#B6282A"/>
		<stop  offset="0.5105" style="stop-color:#CD242F"/>
		<stop  offset="0.55" style="stop-color:#DF2133"/>
		<stop  offset="1" style="stop-color:#DF2133"/>
	</linearGradient>
	<path style="fill:url(#SVGID_1_);" d="M84.033,8.023c0.067,0.027,0.138,0.045,0.214,0.051c0.081,0.006,0.149,0.01,0.21,0.01
		c0.069,0,0.138-0.006,0.206-0.017c0.069-0.012,0.129-0.022,0.18-0.032V7.721L84.033,8.023z"/>
	
		<linearGradient id="SVGID_2_" gradientUnits="userSpaceOnUse" x1="153.8428" y1="-195.8076" x2="154.3554" y2="-195.8076" gradientTransform="matrix(269.4115 0 0 -269.4115 -41450.5 -52739.75)">
		<stop  offset="0" style="stop-color:#DF2133"/>
		<stop  offset="0.17" style="stop-color:#DF2133"/>
		<stop  offset="0.2113" style="stop-color:#D12330"/>
		<stop  offset="0.27" style="stop-color:#B6282A"/>
		<stop  offset="0.47" style="stop-color:#B6282A"/>
		<stop  offset="0.5105" style="stop-color:#CD242F"/>
		<stop  offset="0.55" style="stop-color:#DF2133"/>
		<stop  offset="1" style="stop-color:#DF2133"/>
	</linearGradient>
	<path style="fill:url(#SVGID_2_);" d="M97.707,2.928l-7.1,2.645c-0.001,0.059-0.002,0.116-0.007,0.17
		c-0.005,0.061-0.014,0.126-0.027,0.2h-0.834v1.398c0,0.142,0.013,0.257,0.034,0.344c0.024,0.086,0.058,0.156,0.101,0.206
		c0.045,0.051,0.098,0.085,0.162,0.104c0.064,0.019,0.14,0.028,0.228,0.028c0.069,0,0.136-0.006,0.203-0.018
		c0.066-0.011,0.125-0.021,0.175-0.03c0.033,0.087,0.056,0.178,0.07,0.271c0.013,0.095,0.02,0.178,0.02,0.251
		c0,0.051-0.001,0.093-0.004,0.127l-0.01,0.1c-0.211,0.051-0.43,0.076-0.655,0.076c-0.417,0-0.736-0.097-0.956-0.292
		c-0.221-0.195-0.331-0.514-0.331-0.954V6.256l-1.309,0.487v0.599c0,0.142,0.01,0.257,0.024,0.344
		c0.016,0.087,0.041,0.154,0.075,0.203c0.035,0.048,0.08,0.081,0.135,0.1c0.055,0.019,0.125,0.028,0.207,0.028l0.12-0.008
		l0.127-0.02c0.051,0.188,0.076,0.372,0.076,0.551v0.1l-0.014,0.1c-0.073,0.022-0.162,0.039-0.265,0.048
		c-0.104,0.009-0.198,0.013-0.286,0.013c-0.354,0-0.638-0.097-0.851-0.292c-0.214-0.195-0.32-0.514-0.32-0.954v-0.45l-0.702,0.261
		v1.263c-0.161,0.05-0.355,0.099-0.587,0.144c-0.229,0.047-0.488,0.07-0.777,0.07c-0.234,0-0.448-0.021-0.644-0.062
		c-0.196-0.042-0.363-0.11-0.504-0.207c-0.079-0.056-0.148-0.121-0.207-0.194l-0.829,0.308V8.76
		c-0.094,0.016-0.188,0.026-0.28,0.033l-11.771,4.385l1.426,1.425l-2.487-1.029l-1.903,0.709l1.38,3.332l-2.128-2.128l-2.129,2.128
		l1.107-2.673l-9.923,3.697v4.607L101.46,7.92V3.636h-3.753V2.928z"/>
	<polygon style="fill:#DC011F;" points="99.717,2.179 97.707,2.928 97.707,3.636 101.46,3.636 101.46,3.634 	"/>
	
		<linearGradient id="SVGID_3_" gradientUnits="userSpaceOnUse" x1="153.8486" y1="-195.7695" x2="154.3542" y2="-195.7695" gradientTransform="matrix(269.4115 0 0 -269.4115 -41450.5 -52739.75)">
		<stop  offset="0" style="stop-color:#DF2133"/>
		<stop  offset="0.17" style="stop-color:#DF2133"/>
		<stop  offset="0.2113" style="stop-color:#D12330"/>
		<stop  offset="0.27" style="stop-color:#B6282A"/>
		<stop  offset="0.47" style="stop-color:#B6282A"/>
		<stop  offset="0.5105" style="stop-color:#CD242F"/>
		<stop  offset="0.55" style="stop-color:#DF2133"/>
		<stop  offset="1" style="stop-color:#DF2133"/>
	</linearGradient>
	<polygon style="fill:url(#SVGID_3_);" points="99.717,2.179 97.707,2.928 97.707,3.636 101.46,3.636 101.46,3.634 	"/>
	<polygon style="fill:#00913D;" points="72.016,0.5 68.611,0.5 57.652,10.916 	"/>
	
		<linearGradient id="SVGID_4_" gradientUnits="userSpaceOnUse" x1="153.8408" y1="-195.7891" x2="154.3562" y2="-195.7891" gradientTransform="matrix(269.4061 0 0 -269.4061 -41449.75 -52730)">
		<stop  offset="0" style="stop-color:#DF2133"/>
		<stop  offset="0.35" style="stop-color:#DF2133"/>
		<stop  offset="0.3585" style="stop-color:#E13230"/>
		<stop  offset="0.3755" style="stop-color:#E55F29"/>
		<stop  offset="0.399" style="stop-color:#EDA61E"/>
		<stop  offset="0.4" style="stop-color:#EDA91E"/>
		<stop  offset="0.45" style="stop-color:#EDA91E"/>
		<stop  offset="0.546" style="stop-color:#E77027"/>
		<stop  offset="0.6498" style="stop-color:#E13730"/>
		<stop  offset="0.7" style="stop-color:#DF2133"/>
		<stop  offset="1" style="stop-color:#DF2133"/>
	</linearGradient>
	<polygon style="fill:url(#SVGID_4_);" points="101.456,7.921 55.538,23.248 55.538,25.5 55.541,25.5 70.312,21.129 101.462,9.371 
		101.462,7.921 	"/>
	<polygon style="fill:#009EE3;" points="70.312,21.129 101.462,11.915 101.462,9.371 	"/>
	<polygon style="fill:#FFFFFF;" points="68.61,7.339 66.482,9.466 64.354,7.339 66.482,12.477 	"/>
	<polygon style="fill:#FFFFFF;" points="63.472,12.477 61.343,14.605 66.482,12.477 61.343,10.348 	"/>
	<polygon style="fill:#FFFFFF;" points="64.354,17.615 66.482,15.487 68.61,17.615 67.23,14.283 67.23,14.283 66.482,12.477 
		65.461,14.942 65.461,14.942 	"/>
	<polygon style="fill:#FFFFFF;" points="69.134,13.574 71.621,14.604 70.195,13.178 70.195,13.178 69.493,12.477 71.621,10.348 
		66.482,12.477 69.133,13.574 	"/>
	<path style="fill:#FFFFFF;" d="M72.734,6.378c0-0.419-0.108-0.725-0.323-0.921c-0.217-0.195-0.547-0.292-0.991-0.292
		c-0.185,0-0.364,0.012-0.539,0.038c-0.175,0.025-0.321,0.056-0.44,0.093c0,0.069,0.009,0.142,0.024,0.221
		c0.017,0.079,0.036,0.137,0.059,0.178c0.12-0.037,0.255-0.067,0.406-0.093c0.152-0.025,0.319-0.038,0.503-0.038
		c0.28,0,0.492,0.07,0.634,0.21c0.142,0.141,0.214,0.362,0.214,0.665l0,0v0.214c-0.078-0.01-0.177-0.02-0.297-0.031
		c-0.118-0.012-0.262-0.018-0.427-0.018c-0.211,0-0.404,0.026-0.582,0.076c-0.176,0.05-0.328,0.125-0.455,0.223
		c-0.126,0.1-0.225,0.22-0.295,0.366c-0.072,0.144-0.107,0.308-0.107,0.492c0,0.381,0.123,0.656,0.368,0.826
		c0.245,0.17,0.583,0.256,1.009,0.256c0.207,0,0.425-0.016,0.655-0.048c0.229-0.033,0.425-0.064,0.585-0.097V6.378z M71.915,8.422
		c-0.124,0.015-0.258,0.021-0.399,0.021c-0.11,0-0.221-0.008-0.331-0.024c-0.109-0.016-0.211-0.048-0.303-0.096
		s-0.166-0.118-0.224-0.21c-0.058-0.092-0.087-0.214-0.087-0.365c0-0.239,0.095-0.423,0.283-0.552
		c0.188-0.128,0.454-0.193,0.799-0.193c0.105,0,0.217,0.006,0.334,0.018c0.118,0.011,0.215,0.022,0.293,0.03v1.316
		C72.16,8.391,72.039,8.409,71.915,8.422z"/>
	<path style="fill:#FFFFFF;" d="M74.028,5.247h-0.896l-0.011,0.089l-0.003,0.11l0.003,0.104l0.011,0.083h0.44l0,0v3.126
		c0.028,0.005,0.067,0.008,0.117,0.011c0.052,0.002,0.088,0.003,0.11,0.003c0.028,0,0.066-0.001,0.115-0.003
		c0.048-0.003,0.085-0.006,0.112-0.011V5.247z"/>
	<path style="fill:#FFFFFF;" d="M73.788,3.887c-0.056-0.001-0.103-0.003-0.139-0.003c-0.041,0-0.093,0.002-0.15,0.003
		c-0.061,0.002-0.111,0.007-0.152,0.011c-0.005,0.038-0.008,0.083-0.011,0.137c-0.003,0.057-0.004,0.102-0.004,0.139
		c0,0.041,0.001,0.092,0.004,0.151c0.003,0.061,0.006,0.111,0.011,0.152c0.041,0.005,0.092,0.008,0.152,0.011
		c0.059,0.002,0.109,0.003,0.15,0.003c0.036,0,0.083-0.001,0.139-0.003c0.055-0.002,0.101-0.006,0.138-0.011
		c0.005-0.041,0.008-0.091,0.009-0.152c0.004-0.059,0.005-0.109,0.005-0.151c0-0.037-0.001-0.082-0.005-0.139
		c-0.001-0.055-0.005-0.1-0.009-0.137C73.889,3.894,73.843,3.89,73.788,3.887z"/>
	<path style="fill:#FFFFFF;" d="M75.564,5.97c0.188-0.198,0.438-0.296,0.752-0.296h0.064l0.086,0.007
		c0.014-0.07,0.021-0.14,0.021-0.214c0-0.068-0.007-0.142-0.021-0.22l-0.086-0.007h-0.072c-0.271,0-0.489,0.059-0.654,0.176
		s-0.295,0.261-0.385,0.43c0-0.091-0.004-0.193-0.008-0.307c-0.005-0.112-0.012-0.21-0.021-0.292l-0.104-0.011l-0.103-0.003
		l-0.101,0.003l-0.105,0.011l0,0v3.512c0.027,0.005,0.065,0.008,0.116,0.011c0.051,0.001,0.088,0.003,0.11,0.003
		c0.027,0,0.065-0.001,0.114-0.003c0.048-0.003,0.086-0.006,0.113-0.011V6.955C75.282,6.496,75.376,6.167,75.564,5.97z"/>
	<path style="fill:#FFFFFF;" d="M82.246,8.76V8.688v0V6.494c0-0.473-0.095-0.82-0.286-1.043c-0.19-0.222-0.487-0.333-0.892-0.333
		c-0.257,0-0.47,0.062-0.636,0.189c-0.169,0.125-0.299,0.274-0.391,0.444c-0.156-0.422-0.512-0.633-1.067-0.633
		c-0.129,0-0.245,0.017-0.348,0.051c-0.104,0.034-0.196,0.08-0.279,0.134c-0.083,0.055-0.154,0.116-0.214,0.186
		c-0.06,0.068-0.107,0.138-0.146,0.207l-0.017-0.117c-0.007-0.046-0.015-0.093-0.024-0.141c-0.008-0.049-0.019-0.095-0.03-0.138
		l-0.038-0.1c-0.064-0.014-0.127-0.025-0.186-0.031c-0.061-0.007-0.129-0.011-0.206-0.011c-0.079,0-0.149,0.004-0.215,0.011
		c-0.063,0.006-0.128,0.017-0.192,0.031L77.081,5.2v3.56c0.165,0.028,0.328,0.042,0.488,0.042c0.161,0,0.324-0.014,0.489-0.042
		V6.894c0-0.192,0.019-0.349,0.055-0.468c0.037-0.121,0.087-0.213,0.148-0.28c0.062-0.066,0.132-0.111,0.211-0.134
		c0.077-0.023,0.155-0.035,0.233-0.035c0.188,0,0.313,0.066,0.375,0.2c0.062,0.134,0.094,0.323,0.094,0.571V8.76
		c0.165,0.028,0.328,0.042,0.488,0.042c0.161,0,0.324-0.014,0.489-0.042V6.839c0-0.179,0.021-0.326,0.06-0.438
		c0.039-0.112,0.088-0.2,0.149-0.262c0.063-0.062,0.132-0.104,0.208-0.127c0.076-0.023,0.153-0.035,0.23-0.035
		c0.188,0,0.314,0.066,0.376,0.2s0.093,0.323,0.093,0.571V8.76c0.165,0.028,0.328,0.042,0.488,0.042
		c0.068,0,0.138-0.004,0.208-0.009h0.001C82.059,8.786,82.152,8.776,82.246,8.76z"/>
	<path style="fill:#FFFFFF;" d="M83.282,8.574c0.141,0.096,0.308,0.165,0.504,0.207c0.195,0.042,0.409,0.062,0.644,0.062
		c0.289,0,0.549-0.023,0.777-0.07c0.231-0.045,0.426-0.093,0.587-0.144V7.366l0,0V6.562c0-0.504-0.135-0.872-0.403-1.101
		c-0.269-0.23-0.643-0.345-1.119-0.345c-0.175,0-0.363,0.016-0.565,0.048c-0.202,0.031-0.403,0.083-0.605,0.151
		c0,0.146,0.016,0.273,0.048,0.379c0.032,0.105,0.08,0.218,0.145,0.336c0.279-0.096,0.544-0.144,0.791-0.144
		c0.115,0,0.221,0.007,0.314,0.021c0.095,0.013,0.174,0.04,0.237,0.079c0.065,0.039,0.114,0.093,0.151,0.162
		c0.038,0.069,0.056,0.158,0.056,0.268h0.001V6.5c-0.161-0.013-0.309-0.021-0.441-0.021c-0.184,0-0.367,0.02-0.551,0.058
		c-0.184,0.04-0.351,0.104-0.5,0.194c-0.148,0.089-0.271,0.208-0.365,0.358c-0.094,0.15-0.141,0.334-0.141,0.555
		s0.038,0.406,0.113,0.558c0.032,0.064,0.071,0.123,0.115,0.178c0,0,0,0,0.001,0C83.134,8.453,83.203,8.518,83.282,8.574z
		 M84.019,8.018c-0.07-0.029-0.13-0.077-0.182-0.141c-0.05-0.064-0.075-0.157-0.075-0.275c0-0.179,0.065-0.309,0.195-0.389
		c0.132-0.081,0.31-0.121,0.534-0.121c0.051,0,0.108,0.004,0.172,0.01c0.065,0.008,0.124,0.015,0.18,0.024l0,0V7.72v0v0.315
		c-0.051,0.009-0.11,0.02-0.18,0.032c-0.068,0.011-0.137,0.017-0.206,0.017c-0.061,0-0.129-0.003-0.21-0.01
		c-0.076-0.006-0.146-0.024-0.214-0.051c-0.001,0-0.001,0-0.001,0C84.027,8.021,84.023,8.02,84.019,8.018z"/>
	<path style="fill:#FFFFFF;" d="M86.496,7.555c0,0.44,0.106,0.759,0.32,0.954c0.213,0.196,0.496,0.292,0.851,0.292
		c0.088,0,0.183-0.004,0.286-0.013c0.103-0.009,0.191-0.026,0.265-0.048l0.014-0.1v-0.1c0-0.179-0.025-0.362-0.076-0.551
		l-0.127,0.02l-0.12,0.008c-0.082,0-0.152-0.009-0.207-0.028c-0.055-0.019-0.1-0.051-0.135-0.1c-0.034-0.049-0.06-0.116-0.075-0.203
		c-0.015-0.087-0.024-0.202-0.024-0.344V6.743v0V3.926c-0.164-0.026-0.325-0.04-0.481-0.04c-0.16,0-0.323,0.014-0.489,0.04l0,0
		v3.179v0V7.555z"/>
	<path style="fill:#FFFFFF;" d="M88.775,7.555c0,0.44,0.11,0.759,0.331,0.954c0.22,0.195,0.539,0.292,0.956,0.292
		c0.226,0,0.444-0.025,0.655-0.076l0.01-0.1c0.003-0.034,0.004-0.076,0.004-0.127c0-0.073-0.007-0.157-0.02-0.251
		c-0.015-0.094-0.037-0.185-0.07-0.271c-0.05,0.008-0.108,0.019-0.175,0.03c-0.067,0.012-0.134,0.018-0.203,0.018
		c-0.088,0-0.163-0.009-0.228-0.028c-0.064-0.019-0.117-0.053-0.162-0.104c-0.043-0.05-0.076-0.12-0.101-0.206
		c-0.021-0.087-0.034-0.202-0.034-0.344V5.943h0.834c0.014-0.074,0.022-0.14,0.027-0.2c0.005-0.054,0.006-0.111,0.007-0.17v0
		c0-0.005,0-0.01,0-0.015c0-0.06-0.002-0.118-0.007-0.172c-0.005-0.056-0.014-0.118-0.027-0.187h-0.834v-1.04h-0.158L88.328,5.76
		v0.183h0.447v0.312v0.001V7.555z"/>
</g>
</svg>
