<?xml version="1.0" encoding="utf-8"?>
<!-- Generator: Adobe Illustrator 16.0.0, SVG Export Plug-In . SVG Version: 6.00 Build 0)  -->
<!DOCTYPE svg PUBLIC "-//W3C//DTD SVG 1.1//EN" "http://www.w3.org/Graphics/SVG/1.1/DTD/svg11.dtd">
<svg version="1.1"
	 id="svg2" sodipodi:docname="New document 1" inkscape:version="0.48.1 r9760" xmlns:cc="http://creativecommons.org/ns#" xmlns:sodipodi="http://sodipodi.sourceforge.net/DTD/sodipodi-0.dtd" xmlns:dc="http://purl.org/dc/elements/1.1/" xmlns:rdf="http://www.w3.org/1999/02/22-rdf-syntax-ns#" xmlns:inkscape="http://www.inkscape.org/namespaces/inkscape" xmlns:svg="http://www.w3.org/2000/svg"
	 xmlns="http://www.w3.org/2000/svg" xmlns:xlink="http://www.w3.org/1999/xlink" x="0px" y="0px" width="157px" height="26px"
	 viewBox="0 0 157 26" enable-background="new 0 0 157 26" xml:space="preserve">
<g>
	
		<sodipodi:namedview  inkscape:document-units="px" inkscape:pageshadow="2" inkscape:window-width="1280" fit-margin-right="0" inkscape:window-maximized="0" fit-margin-bottom="0" inkscape:window-y="0" inkscape:current-layer="layer1" inkscape:window-height="752" inkscape:pageopacity="0.0" inkscape:window-x="0" fit-margin-left="0" borderopacity="1.0" pagecolor="#ffffff" fit-margin-top="0" inkscape:cy="8.4295474" showgrid="false" inkscape:cx="382.96397" inkscape:zoom="0.85459154" bordercolor="#666666" id="base">
		</sodipodi:namedview>
	<g>
		<g id="g4288_1_" transform="matrix(1.25,0,0,-1.25,575.12438,364.60531)">
			<path id="path4290_1_" inkscape:connector-curvature="0" fill="#231916" d="M-336.16,280.394
				c-0.605-1.573-2.694-2.062-4.948-2.062c-2.256,0-3.702,0.49-3.363,2.062h2.866c-0.077-0.422,0.179-0.689,1.027-0.689
				c0.847,0,1.395,0.275,1.552,0.689c0.396,1.027-5.276,0.023-4.373,2.374c0.505,1.317,2.495,1.936,4.739,1.936
				c2.242,0,3.52-0.486,3.248-1.934h-2.809c0.045,0.387-0.075,0.683-0.92,0.683c-0.845,0-1.296-0.302-1.442-0.684
				C-340.992,281.721-335.261,282.743-336.16,280.394"/>
		</g>
		<g id="g4292_1_" transform="matrix(1.25,0,0,-1.25,506.75564,367.17155)">
			<path id="path4294_1_" inkscape:connector-curvature="0" fill="#231916" d="M-331.622,280.565h-2.867l2.309,6.01h2.867"/>
		</g>
		<g id="g4296_1_" transform="matrix(1.25,0,0,-1.25,536.30314,367.17155)">
			<path id="path4298_1_" inkscape:connector-curvature="0" fill="#231916" d="M-333.586,280.565h-2.864l2.308,6.01h2.865"/>
		</g>
		<g id="g4300_1_" transform="matrix(1.25,0,0,-1.25,561.47188,367.17155)">
			<path id="path4302_1_" inkscape:connector-curvature="0" fill="#231916" d="M-335.256,280.565h-6.966l2.306,6.01h6.969
				l-0.443-1.153h-4.103l-0.466-1.214h3.413l-0.441-1.152h-3.413l-0.466-1.216h4.1"/>
		</g>
		<g id="g4304_1_" transform="matrix(1.25,0,0,-1.25,483.84313,367.17155)">
			<path id="path4306_1_" inkscape:connector-curvature="0" fill="#231916" d="M-330.103,280.565h-2.317l-1.944,3.549l-1.364-3.549
				h-2.312l2.306,6.01h2.691l1.717-3.159l1.211,3.159h2.317"/>
		</g>
		<g id="g4308_1_" transform="matrix(1.25,0,0,-1.25,549.55313,367.17155)">
			<path id="path4310_1_" inkscape:connector-curvature="0" fill="#231916" d="M-334.464,280.565h-2.32l-1.944,3.549l-1.363-3.549
				h-2.312l2.305,6.01h2.694l1.716-3.159l1.21,3.159h2.32"/>
		</g>
		<g id="g4312_1_" transform="matrix(1.25,0,0,-1.25,436.40314,364.42905)">
			<path id="path4314_1_" inkscape:connector-curvature="0" fill="#231916" d="M-326.955,280.383
				c-0.784-2.045-2.72-2.213-4.097-2.213c-0.772,0-1.439,0.078-1.991,0.202l0.49,1.273c1.312-0.152,2.436-0.037,2.873,1.109
				l1.395,3.628h2.866"/>
		</g>
		<g id="g4316_1_" transform="matrix(1.25,0,0,-1.25,458.81939,361.59031)">
			<path id="path4318_1_" inkscape:connector-curvature="0" fill="#231916" d="M-328.443,280.195
				c-0.17-0.441-0.709-0.761-1.23-0.761h-1.591l0.584,1.522h1.595C-328.565,280.956-328.275,280.632-328.443,280.195
				 M-328.648,282.111h-4.455l-2.307-6.011h2.866l0.837,2.181h1.593c2.648,0,4.074,0.709,4.537,1.914
				C-325.115,281.4-325.996,282.111-328.648,282.111"/>
		</g>
		<g id="g4320_1_" transform="matrix(1.25,0,0,-1.25,518.67687,361.59031)">
			<path id="path4322_1_" inkscape:connector-curvature="0" fill="#231916" d="M-332.415,280.195
				c-0.171-0.441-0.71-0.761-1.23-0.761h-1.591l0.584,1.522h1.595C-332.538,280.956-332.246,280.632-332.415,280.195
				 M-332.619,282.111h-4.457l-2.307-6.011h2.866l0.836,2.181h0.866l0.566-2.181h3.128l-0.766,2.399
				c1.27,0.298,2.023,0.88,2.334,1.696C-329.085,281.4-329.968,282.111-332.619,282.111"/>
		</g>
		<g id="g4324_1_" transform="matrix(1.25,0,0,-1.25,526.95562,365.43531)">
			<path id="path4326_1_" inkscape:connector-curvature="0" fill="#231916" d="M-332.964,280.449l1.822,4.737h-2.866l-2.305-6.011
				h6.505l0.489,1.273"/>
		</g>
		<g id="g4328_1_" transform="matrix(1.25,0,0,-1.25,442.10688,363.98781)">
			<path id="path4330_1_" inkscape:connector-curvature="0" fill="#231916" d="M-327.334,280.354l1.543,1.923l0.072-1.923H-327.334z
				 M-323.341,284.029h-2.562c-0.312,0-0.653-0.184-0.88-0.445l-4.804-5.566h2.37l0.952,1.182h2.589l0.045-1.182h2.867"/>
		</g>
		<g id="g4332_1_" transform="matrix(1.25,0,0,-1.25,465.80563,363.98781)">
			<path id="path4334_1_" inkscape:connector-curvature="0" fill="#231916" d="M-328.906,280.354l1.544,1.923l0.07-1.923H-328.906z
				 M-324.913,284.029h-2.564c-0.311,0-0.652-0.184-0.88-0.445l-4.8-5.566h2.367l0.952,1.182h2.588l0.045-1.182h2.867"/>
		</g>
		<g id="g4336_1_" transform="matrix(1.25,0,0,-1.25,495.62938,363.98781)">
			<path id="path4338_1_" inkscape:connector-curvature="0" fill="#231916" d="M-330.886,280.354l1.545,1.923l0.072-1.923H-330.886z
				 M-326.89,284.029h-2.562c-0.313,0-0.652-0.184-0.881-0.445l-4.804-5.566h2.371l0.951,1.182h2.588l0.045-1.182h2.864"/>
		</g>
	</g>
	<g>
		<path fill="#E2001A" d="M15.005,13.887c0.034-0.291,0.053-0.587,0.053-0.888c0-0.26-0.014-0.519-0.039-0.771
			c-0.387,1.098-1.134,1.987-2.074,2.566c1.014-0.86,1.723-2.08,1.918-3.488c-0.146-0.627-0.371-1.223-0.664-1.775
			c0.011,0.237,0.008,0.479-0.012,0.723c-0.125,1.574-0.877,2.947-1.988,3.887c1.041-1.021,1.686-2.45,1.677-4.023
			c-0.002-0.49-0.067-0.965-0.188-1.416c-1.347-1.894-3.558-3.127-6.058-3.127S2.918,6.807,1.571,8.7
			c-0.12,0.451-0.187,0.926-0.188,1.416c-0.009,1.573,0.636,3.002,1.677,4.023c-1.111-0.939-1.863-2.312-1.988-3.887
			C1.052,10.01,1.05,9.769,1.06,9.53c-0.293,0.553-0.519,1.148-0.664,1.775c0.195,1.408,0.905,2.628,1.918,3.488
			c-0.94-0.579-1.688-1.471-2.074-2.566C0.214,12.481,0.2,12.739,0.2,12.999c0,0.301,0.019,0.597,0.053,0.888
			c0.361,0.729,0.872,1.36,1.491,1.862c-0.505-0.276-0.961-0.637-1.353-1.065c0.764,3.291,3.713,5.743,7.236,5.743
			s6.473-2.452,7.236-5.743c-0.391,0.429-0.848,0.789-1.353,1.065C14.133,15.249,14.645,14.616,15.005,13.887z M2.815,10.583
			c0-2.657,2.154-4.813,4.814-4.813c2.659,0,4.814,2.156,4.814,4.813c0,1.016-0.313,1.955-0.85,2.73l-0.008-0.002
			c-2.848,3.646-7.243-0.684-0.999-4.213C10.255,8.882,9.522,7.717,8.69,7.717c-0.533,0-1.133,0.35-1.266,0.649L3.645,8.749
			l4.062,0.217c0.434,0.033,0.666,0.232,0.666,0.582s-0.566,0.75-0.949,1.049c-0.339,0.266-2.306,1.926-2.052,4.24
			c0.032,0.303,0.103,0.615,0.22,0.938c-0.25-0.223-0.429-0.613-0.535-1.119c-0.16-0.103-0.312-0.211-0.459-0.33
			C3.511,13.442,2.815,12.094,2.815,10.583z"/>
		<g>
			<path fill="#FFFFFF" d="M4.37,17.979c0.184,0.047,0.297,0.039,0.506,0.039c0.152,0,0.413-0.155,0.535-0.495l0.476-1.215h0.946
				L6.401,17.51c-0.188,0.522-0.441,1.014-1.443,1.014c-0.273,0-0.755-0.047-0.755-0.047L4.37,17.979z"/>
			<path fill="#FFFFFF" d="M7.864,16.308h1.27l0.234,2.127H8.364l-0.037-0.354H7.375l-0.29,0.354H6.024L7.864,16.308z M8.274,17.616
				l0.021-0.608l-0.542,0.608H8.274z"/>
			<path fill="#FFFFFF" d="M10.418,16.308h1.013l-0.545,1.675h1.236l-0.153,0.452H9.653L10.418,16.308z"/>
		</g>
	</g>
</g>
</svg>
