<?xml version="1.0" encoding="utf-8"?>
<!-- Generator: Adobe Illustrator 16.0.0, SVG Export Plug-In . SVG Version: 6.00 Build 0)  -->
<!DOCTYPE svg PUBLIC "-//W3C//DTD SVG 1.0//EN" "http://www.w3.org/TR/2001/REC-SVG-20010904/DTD/svg10.dtd">
<svg version="1.0" id="AB" xmlns="http://www.w3.org/2000/svg" xmlns:xlink="http://www.w3.org/1999/xlink" x="0px" y="0px"
	 width="157px" height="26px" viewBox="0 0 157 26" enable-background="new 0 0 157 26" xml:space="preserve">
<g>
	<path fill="#CA002F" d="M67.88,16.062c-1.356,0-2.454,1.135-2.454,2.576c0,1.437,1.098,2.546,2.454,2.546
		c1.338,0,2.455-1.135,2.455-2.546C70.335,17.212,69.204,16.062,67.88,16.062 M71.518,22.062h-1.153v-1.064
		c-0.567,0.744-1.485,1.242-2.513,1.242c-2.005,0-3.626-1.548-3.626-3.601c0-2.067,1.636-3.615,3.656-3.615
		c2.06,0,3.637,1.588,3.637,3.615V22.062z"/>
	<rect x="72.841" y="15.2" fill="#CA002F" width="1.197" height="6.861"/>
	<path fill="#CA002F" d="M74.156,13.276c0-0.391-0.317-0.708-0.711-0.708c-0.391,0-0.708,0.317-0.708,0.708s0.317,0.707,0.708,0.707
		C73.839,13.983,74.156,13.667,74.156,13.276"/>
	<path fill="#CA002F" d="M88.996,19.092l4.485-1.788c-0.453-0.743-1.257-1.212-2.075-1.212c-1.157,0-2.454,0.958-2.454,2.532
		C88.952,18.797,88.967,18.944,88.996,19.092 M94.934,19.932c-0.564,1.464-1.776,2.292-3.453,2.292
		c-2.089,0-3.726-1.573-3.726-3.585c0-1.986,1.637-3.615,3.651-3.615c1.582,0,3.118,1.039,3.542,2.83l-5.572,2.222
		c0.465,0.692,1.271,1.08,2.104,1.08c1.028,0,1.747-0.428,2.211-1.224H94.934z"/>
	<path fill="#CA002F" d="M83.285,16.062c-1.342,0-2.455,1.135-2.455,2.55c0,1.427,1.128,2.572,2.455,2.572
		c1.341,0,2.439-1.124,2.439-2.572C85.725,17.183,84.626,16.062,83.285,16.062 M83.285,22.224c-2.061,0-3.652-1.573-3.652-3.611
		v-6.468h1.157v4.039c0.59-0.708,1.507-1.16,2.51-1.16c2.016,0,3.626,1.537,3.626,3.589C86.926,20.676,85.289,22.224,83.285,22.224z
		"/>
	<path fill="#CA002F" d="M107.492,22.062h-1.183v-4.171c0-1.732,1.297-2.867,3.032-2.867c1.736,0,3.019,1.135,3.019,2.867v4.171
		h-1.183v-4.208c0-1.028-0.719-1.776-1.836-1.776c-1.128,0-1.85,0.748-1.85,1.776V22.062"/>
	<rect x="103.737" y="15.2" fill="#CA002F" width="1.197" height="6.861"/>
	<path fill="#CA002F" d="M105.057,13.276c0-0.391-0.316-0.708-0.707-0.708c-0.395,0-0.712,0.317-0.712,0.708
		s0.317,0.707,0.712,0.707C104.74,13.983,105.057,13.667,105.057,13.276"/>
	<path fill="#CA002F" d="M75.413,17.986v4.075h1.183v-4.105c0-1.242,0.808-1.897,2.049-1.838v-1.055
		C76.898,14.905,75.413,15.992,75.413,17.986"/>
	<path fill="#CA002F" d="M95.902,17.986v4.075h1.187v-4.105c0-1.242,0.808-1.897,2.046-1.838v-1.055
		C97.388,14.905,95.902,15.992,95.902,17.986"/>
	<path fill="#CA002F" d="M102.765,20.997c-0.771,0.025-1.452-0.376-1.452-1.482v-7.37h-1.187v7.411c0,1.666,1.072,2.617,2.639,2.51
		V20.997"/>
	<path fill="#FFFFFF" d="M56.582,17.393c-0.029-0.074-0.191-0.52-0.229-0.615c-0.607-1.585-1.172-3.174-1.946-4.481
		c-0.158-0.276-0.332-0.531-0.512-0.774c-0.199-0.262-0.413-0.504-0.645-0.715c-0.751-0.686-1.725-0.969-2.487-0.969h-2.86
		c0,0,0,0.04,0,0.047c0.59,0,1.275,0.398,1.636,0.682c0.361,0.284,0.722,0.608,1.253,1.379c0.531,0.77,1.234,2.292,2.042,4.492
		c1.15,3.136,2.48,5.056,4.345,5.409c0.896,0.174,1.658,0.218,2.211,0.222c0.089-0.1,0.177-0.199,0.258-0.299
		C58.402,21.077,57.301,19.21,56.582,17.393"/>
	<path fill="#CA002F" d="M57.215,16.438c-0.807-2.2-1.529-3.723-2.06-4.492c-0.531-0.771-0.877-1.109-1.238-1.394
		c-0.31-0.239-0.951-0.667-1.61-0.667c0-0.007,0-0.047,0-0.047h2.837c0.763,0,1.717,0.283,2.469,0.969
		c0.232,0.21,0.446,0.453,0.645,0.715c0.18,0.243,0.354,0.498,0.512,0.774c0.774,1.308,1.338,2.896,1.946,4.481
		c0.037,0.096,0.199,0.541,0.229,0.615c0.107,0.27,0.221,0.534,0.343,0.8L64.07,6.989c0.885-3.571-2.042-6.478-6.533-6.489
		c-4.496-0.015-8.856,2.871-9.744,6.441l-2.996,12.069c-0.884,3.574,2.042,6.479,6.538,6.489c3.121,0.011,6.183-1.382,8.055-3.431
		c-0.553-0.004-1.315-0.048-2.211-0.222c-1.865-0.354-3.195-2.273-4.345-5.409c-0.807-2.2-1.511-3.723-2.042-4.492
		c-0.531-0.771-0.892-1.095-1.253-1.379c-0.361-0.284-1.046-0.682-1.636-0.682c0-0.007,0-0.047,0-0.047h2.86
		c0.763,0,1.736,0.283,2.487,0.969c0.232,0.21,0.446,0.453,0.645,0.715c0.18,0.243,0.354,0.498,0.512,0.774
		c0.774,1.308,1.338,2.896,1.946,4.481c0.037,0.096,0.199,0.541,0.229,0.615c0.719,1.817,1.821,3.685,3.066,4.378
		c0.162-0.191,0.31-0.387,0.449-0.59C58.955,20.312,58.041,18.687,57.215,16.438"/>
	<path fill="#FFFFFF" d="M61.288,18.192c-0.122-0.266-0.236-0.53-0.343-0.8c-0.029-0.074-0.191-0.52-0.229-0.615
		c-0.607-1.585-1.172-3.174-1.946-4.481c-0.158-0.276-0.332-0.531-0.512-0.774c-0.199-0.262-0.413-0.504-0.645-0.715
		c-0.752-0.686-1.706-0.969-2.469-0.969h-2.837c0,0,0,0.04,0,0.047c0.66,0,1.301,0.428,1.61,0.667
		c0.361,0.284,0.708,0.623,1.238,1.394c0.531,0.77,1.253,2.292,2.06,4.492c0.826,2.248,1.74,3.873,2.882,4.742
		c0.457-0.663,0.793-1.378,0.977-2.123L61.288,18.192"/>
	<path fill="#FFFFFF" d="M46.499,18.631c0,1.99,1.614,3.604,3.608,3.604c1.566,0,2.9-0.999,3.398-2.392
		c-0.085-0.133-0.169-0.27-0.254-0.409c-0.67-1.095-1.179-2.588-1.78-4.146c-0.42-0.169-0.881-0.265-1.364-0.265
		C48.113,15.023,46.499,16.638,46.499,18.631"/>
</g>
</svg>
