<?xml version="1.0" encoding="utf-8"?>
<!-- Generator: Adobe Illustrator 16.0.0, SVG Export Plug-In . SVG Version: 6.00 Build 0)  -->
<!DOCTYPE svg PUBLIC "-//W3C//DTD SVG 1.0//EN" "http://www.w3.org/TR/2001/REC-SVG-20010904/DTD/svg10.dtd">
<svg version="1.0" id="_x34_O" xmlns="http://www.w3.org/2000/svg" xmlns:xlink="http://www.w3.org/1999/xlink" x="0px" y="0px"
	 width="157px" height="26px" viewBox="0 0 157 26" enable-background="new 0 0 157 26" xml:space="preserve">
<g opacity="0.6">
	<path fill="#404040" d="M41.961,9.557c0-0.81,0.224-1.464,0.675-1.959c0.45-0.5,1.038-0.749,1.757-0.749
		c0.72,0,1.305,0.249,1.758,0.749c0.448,0.495,0.675,1.149,0.675,1.959v12.989c0,0.811-0.227,1.465-0.675,1.959
		c-0.453,0.497-1.038,0.744-1.758,0.744c-0.72,0-1.307-0.247-1.757-0.744c-0.451-0.494-0.675-1.148-0.675-1.959V9.557z"/>
	<path fill="#404040" d="M49.544,9.557c0-0.81,0.224-1.464,0.676-1.959c0.453-0.5,1.038-0.749,1.763-0.749
		c0.632,0,1.143,0.164,1.524,0.48c0.384,0.317,0.622,0.76,0.714,1.327c0.476-0.653,1.092-1.148,1.85-1.486
		c0.758-0.337,1.715-0.507,2.871-0.507c0.952,0,1.839,0.148,2.667,0.442c0.826,0.29,1.534,0.719,2.124,1.283
		c0.586,0.564,1.052,1.249,1.392,2.06c0.339,0.812,0.508,1.738,0.508,2.771v9.328c0,0.812-0.223,1.466-0.674,1.959
		c-0.45,0.497-1.035,0.744-1.756,0.744c-0.723,0-1.307-0.247-1.758-0.744c-0.45-0.493-0.675-1.146-0.675-1.959v-8.48
		c0-1.149-0.315-1.995-0.94-2.535c-0.629-0.542-1.386-0.813-2.275-0.813c-1.025,0-1.807,0.322-2.342,0.962
		c-0.536,0.646-0.804,1.44-0.804,2.387v8.48c0,0.812-0.225,1.466-0.675,1.959c-0.451,0.497-1.036,0.744-1.757,0.744
		c-0.719,0-1.306-0.247-1.757-0.744c-0.45-0.494-0.674-1.148-0.674-1.959V9.557z"/>
	<path fill="#404040" d="M69.537,11.287h-1.084c-0.654,0-1.175-0.188-1.558-0.57c-0.385-0.383-0.577-0.898-0.577-1.55
		c0-0.605,0.205-1.113,0.611-1.514c0.405-0.403,0.914-0.605,1.523-0.605h1.084V4.133c0-0.812,0.224-1.466,0.673-1.963
		c0.452-0.496,1.036-0.746,1.758-0.746c0.721,0,1.306,0.25,1.757,0.746c0.45,0.497,0.676,1.152,0.676,1.963v2.915h1.389
		c0.632,0,1.179,0.157,1.642,0.47c0.462,0.315,0.696,0.863,0.696,1.649c0,0.763-0.233,1.308-0.696,1.632
		c-0.463,0.327-1.009,0.488-1.642,0.488h-1.389v11.259c0,0.815-0.226,1.469-0.676,1.968c-0.451,0.496-1.036,0.744-1.757,0.744
		c-0.722,0-1.306-0.248-1.758-0.744c-0.449-0.499-0.673-1.152-0.673-1.968V11.287z"/>
	<path fill="#404040" d="M82.395,17.705c0.181,1.228,0.707,2.13,1.576,2.699c0.868,0.568,1.879,0.854,3.031,0.854
		c0.631,0,1.214-0.103,1.744-0.304c0.528-0.203,1.02-0.43,1.473-0.678c0.452-0.251,0.869-0.476,1.254-0.678
		c0.383-0.205,0.734-0.305,1.049-0.305c0.519,0,0.983,0.22,1.387,0.663c0.406,0.438,0.612,0.916,0.612,1.434
		s-0.243,1.023-0.729,1.516c-0.486,0.494-1.112,0.933-1.878,1.314c-0.77,0.381-1.628,0.688-2.576,0.923
		c-0.947,0.236-1.875,0.355-2.777,0.355c-1.377,0-2.623-0.239-3.743-0.713c-1.119-0.473-2.079-1.129-2.884-1.965
		c-0.803-0.834-1.425-1.821-1.865-2.963c-0.442-1.141-0.664-2.389-0.664-3.743c0-1.241,0.216-2.434,0.644-3.577
		c0.427-1.138,1.021-2.144,1.789-3.012c0.766-0.871,1.684-1.563,2.752-2.083c1.072-0.52,2.248-0.782,3.531-0.782
		c1.307,0,2.498,0.273,3.581,0.813c1.081,0.543,2.003,1.243,2.769,2.1c0.765,0.859,1.358,1.814,1.772,2.863
		c0.418,1.048,0.627,2.083,0.627,3.097c0,0.724-0.169,1.267-0.505,1.627c-0.339,0.361-0.878,0.543-1.62,0.543H82.395z
		 M90.004,14.459c-0.135-1.089-0.527-1.982-1.182-2.685c-0.652-0.704-1.553-1.057-2.701-1.057c-1.081,0-1.965,0.367-2.65,1.089
		c-0.688,0.727-1.088,1.612-1.199,2.653H90.004z"/>
	<path fill="#404040" d="M96.531,9.287c0-0.811,0.266-1.42,0.794-1.827c0.529-0.405,1.099-0.611,1.706-0.611
		c0.654,0,1.212,0.144,1.673,0.424c0.463,0.284,0.691,0.816,0.691,1.606h0.068c0.451-0.676,0.942-1.183,1.474-1.52
		c0.529-0.338,1.18-0.51,1.946-0.51c0.587,0,1.129,0.215,1.626,0.643c0.496,0.43,0.745,1.085,0.745,1.962
		c0,0.407-0.085,0.722-0.255,0.95c-0.171,0.224-0.39,0.415-0.66,0.573c-0.271,0.157-0.581,0.299-0.931,0.422
		c-0.351,0.126-0.706,0.265-1.066,0.424c-0.361,0.179-0.719,0.354-1.065,0.521c-0.352,0.17-0.666,0.379-0.949,0.629
		c-0.282,0.247-0.508,0.541-0.678,0.878c-0.171,0.339-0.255,0.744-0.255,1.216v7.478c0,0.811-0.226,1.465-0.673,1.959
		c-0.453,0.497-1.037,0.744-1.759,0.744c-0.721,0-1.307-0.247-1.756-0.744c-0.449-0.494-0.677-1.148-0.677-1.959V9.287z"/>
	<path fill="#404040" d="M122.204,17.705c0.183,1.228,0.708,2.13,1.576,2.699c0.87,0.568,1.88,0.854,3.029,0.854
		c0.633,0,1.214-0.103,1.744-0.304c0.532-0.203,1.023-0.43,1.477-0.678c0.449-0.251,0.866-0.476,1.251-0.678
		c0.384-0.205,0.733-0.305,1.05-0.305c0.519,0,0.983,0.22,1.388,0.663c0.407,0.438,0.61,0.916,0.61,1.434s-0.242,1.023-0.728,1.516
		c-0.485,0.494-1.111,0.933-1.88,1.314c-0.768,0.381-1.626,0.688-2.575,0.923c-0.946,0.236-1.872,0.355-2.775,0.355
		c-1.379,0-2.625-0.239-3.744-0.713c-1.118-0.473-2.079-1.129-2.882-1.965c-0.803-0.834-1.428-1.821-1.868-2.963
		c-0.439-1.141-0.661-2.389-0.661-3.743c0-1.241,0.213-2.434,0.642-3.577c0.429-1.138,1.024-2.144,1.792-3.012
		c0.764-0.871,1.682-1.563,2.752-2.083c1.069-0.52,2.245-0.782,3.53-0.782c1.306,0,2.497,0.273,3.58,0.813
		c1.081,0.543,2.003,1.243,2.769,2.1c0.767,0.859,1.357,1.814,1.774,2.863c0.417,1.048,0.625,2.083,0.625,3.097
		c0,0.724-0.17,1.267-0.506,1.627c-0.336,0.361-0.877,0.543-1.617,0.543H122.204z M129.813,14.459
		c-0.135-1.089-0.527-1.982-1.181-2.685c-0.653-0.704-1.553-1.057-2.701-1.057c-1.081,0-1.967,0.367-2.651,1.089
		c-0.688,0.727-1.088,1.612-1.198,2.653H129.813z"/>
	<path fill="#404040" d="M137.562,11.287h-1.082c-0.656,0-1.175-0.188-1.559-0.57c-0.383-0.383-0.576-0.898-0.576-1.55
		c0-0.605,0.205-1.113,0.61-1.514c0.405-0.403,0.913-0.605,1.524-0.605h1.082V4.133c0-0.812,0.226-1.466,0.677-1.963
		c0.449-0.496,1.036-0.746,1.756-0.746c0.721,0,1.306,0.25,1.756,0.746c0.45,0.497,0.678,1.152,0.678,1.963v2.915h1.388
		c0.633,0,1.181,0.157,1.643,0.47c0.463,0.315,0.695,0.863,0.695,1.649c0,0.763-0.232,1.308-0.695,1.632
		c-0.462,0.327-1.01,0.488-1.643,0.488h-1.388v11.259c0,0.815-0.228,1.469-0.678,1.968c-0.45,0.496-1.035,0.744-1.756,0.744
		c-0.72,0-1.307-0.248-1.756-0.744c-0.451-0.499-0.677-1.152-0.677-1.968V11.287z"/>
	<g>
		<g>
			<path fill="#404040" d="M110.151,20.972c0.48,0.224,0.74,0.025,0.74,0.025c0.238-0.179,0.412-0.404,0.518-0.673
				c0.104-0.272,0.165-0.561,0.186-0.863c0.023-0.305,0.032-0.583,0.032-0.832V8.842c0-0.794,0.226-1.399,0.672-1.818
				c0.449-0.419,0.999-0.631,1.671-0.631c0.675,0,1.225,0.212,1.673,0.631c0.447,0.419,0.673,1.021,0.673,1.816v10.087
				c0,1.315-0.179,2.481-0.476,3.256c-0.333,0.873-0.831,1.536-1.427,2.038c-0.593,0.502-1.376,0.85-2.114,1.046
				c0,0-1.828,0.222-2.668,0.028c-0.839-0.193-1.39-0.321-1.879-0.591c-0.491-0.27-0.838-0.457-1.473-1.092
				c-0.535-0.534-0.595-1.235-0.595-1.743s0.3-1.046,0.485-1.237c0.187-0.192,0.457-0.408,0.563-0.456
				c0.106-0.049,0.303-0.171,0.706-0.171c0.4,0,0.697,0.094,0.924,0.188s0.907,0.393,0.907,0.393L110.151,20.972z"/>
		</g>
		<g>
			<path fill="#404040" d="M110.151,20.972c0.48,0.224,0.74,0.025,0.74,0.025c0.238-0.179,0.412-0.404,0.518-0.673
				c0.104-0.272,0.165-0.561,0.186-0.863c0.023-0.305,0.032-0.583,0.032-0.832V8.842c0-0.794,0.226-1.399,0.672-1.818
				c0.449-0.419,0.999-0.631,1.671-0.631c0.675,0,1.225,0.212,1.673,0.631c0.447,0.419,0.673,1.021,0.673,1.816v10.087
				c0,1.315-0.179,2.481-0.476,3.256c-0.333,0.873-0.831,1.536-1.427,2.038c-0.593,0.502-1.376,0.85-2.114,1.046
				c0,0-1.828,0.222-2.668,0.028c-0.839-0.193-1.39-0.321-1.879-0.591c-0.491-0.27-0.838-0.457-1.473-1.092
				c-0.535-0.534-0.595-1.235-0.595-1.743s0.3-1.046,0.485-1.237c0.187-0.192,0.457-0.408,0.563-0.456
				c0.106-0.049,0.303-0.171,0.706-0.171c0.4,0,0.697,0.094,0.924,0.188s0.907,0.393,0.907,0.393L110.151,20.972z"/>
		</g>
	</g>
	<g>
		<path fill="#9F9F9F" d="M24.842,9.299V5.14l-0.004-3.119c0-0.84-0.682-1.521-1.521-1.521c-0.84,0-1.52,0.681-1.52,1.521v3.128
			v4.151l-2.94-2.94l-2.209-2.203c-0.593-0.594-1.557-0.594-2.151,0s-0.594,1.557,0,2.15l2.212,2.213l2.93,2.93h-6.274h-0.993
			c-0.842,0-1.526,0.683-1.526,1.526c0,0.842,0.684,1.525,1.526,1.525h0.92l2.197-0.006h4.155l-2.937,2.938l-1.504,1.505
			L14.5,19.641c-0.595,0.596-0.595,1.562,0,2.157c0.596,0.597,1.562,0.597,2.159,0l0.648-0.65l1.551-1.557l2.939-2.938v4.154v2.126
			v0.994c0,0.843,0.683,1.526,1.525,1.526s1.525-0.684,1.525-1.526v-0.92l-0.005-2.196v-4.157l2.937,2.938l1.505,1.505l0.703,0.702
			c0.595,0.597,1.561,0.597,2.157,0c0.596-0.596,0.596-1.562,0-2.157l-0.651-0.649l-1.556-1.551l-2.938-2.944h4.16l3.12-0.004
			c0.839,0,1.52-0.681,1.52-1.521c0-0.84-0.681-1.521-1.52-1.521H31.15h-4.153l2.941-2.941l2.202-2.208
			c0.593-0.594,0.593-1.557,0-2.151c-0.594-0.594-1.557-0.594-2.15,0l-2.212,2.212L24.842,9.299z"/>
		
			<path fill="none" stroke="#8C8C8C" stroke-width="0.0152" stroke-linecap="round" stroke-linejoin="round" stroke-miterlimit="10" d="
			M22.683,11.451"/>
		<path fill="#404040" d="M29.933,17.438c0.595,0.595,0.595,1.56,0,2.153c-0.595,0.595-1.559,0.595-2.154,0l-2.688-2.688
			l-2.406-2.406h-7.191c-0.842,0-1.523-0.681-1.523-1.522c0-0.842,0.681-1.523,1.523-1.523h7.189l2.159-2.151l2.936-2.937
			c0.595-0.595,1.561-0.595,2.154,0c0.596,0.595,0.596,1.559,0,2.154l-2.935,2.934h4.153c0.84,0,1.522,0.682,1.522,1.523
			c0,0.841-0.682,1.522-1.522,1.522h-4.151L29.933,17.438z"/>
	</g>
</g>
</svg>
