<?xml version="1.0" encoding="utf-8"?>
<!-- Generator: Adobe Illustrator 16.0.0, SVG Export Plug-In . SVG Version: 6.00 Build 0)  -->
<!DOCTYPE svg PUBLIC "-//W3C//DTD SVG 1.0//EN" "http://www.w3.org/TR/2001/REC-SVG-20010904/DTD/svg10.dtd">
<svg version="1.0" id="Layer_1" xmlns="http://www.w3.org/2000/svg" xmlns:xlink="http://www.w3.org/1999/xlink" x="0px" y="0px"
	 width="157px" height="26px" viewBox="0 0 157 26" enable-background="new 0 0 157 26" xml:space="preserve">
<g opacity="0.6">
	<path fill="#212121" d="M106.929,9.761l-0.077,0.283h2.134c0.243,0,1.396,0.045,1.056,1.275c-0.36,1.275-0.628,2.28-0.628,2.28
		c-0.168,0.574-0.694,1.203-1.562,1.229h-2.323l-0.129,0.489l5.414,0.004c0.521-0.021,1.325-0.409,1.575-1.245l0.672-2.434
		c0,0,0.357-1.425,1.931-1.553c0,0,1.514-0.083,1.186,1.511l-1.459,5.32c-0.271,0.987-1.188,1.598-2.021,1.607h-8.183l-0.141,0.494
		h9.76c5.758-0.232,9.392-4.223,10.735-6.729c0,0,1.079-2.044,3.427-2.205l0.578-0.037c0,0,0.041,0,0.051-0.037
		c0.017-0.047,0.045-0.15,0.073-0.253H106.929z"/>
	<path fill="#626262" d="M129.064,9.503c0.004-0.024-0.009-0.029-0.027-0.032c-0.021-0.003-0.571-0.039-0.571-0.039
		c-2.253-0.16-2.209-2.204-2.209-2.204c0.04-2.504-1.396-6.494-7.028-6.728h-9.745l-0.134,0.489h8.17
		c0.83,0.018,1.407,0.624,1.136,1.607L117.19,7.92c-0.557,1.594-2.021,1.511-2.021,1.511c-1.499-0.129-1.078-1.55-1.078-1.55
		l0.67-2.439c0.211-0.827-0.378-1.223-0.892-1.237l-5.407,0.004l-0.133,0.481h2.313c0.853,0.02,1.034,0.657,0.884,1.229
		c0,0-0.289,1.012-0.629,2.283c-0.332,1.229-1.475,1.266-1.638,1.266h-2.252l-0.079,0.293h22.066
		C129.029,9.637,129.062,9.516,129.064,9.503z"/>
</g>
<path opacity="0.6" fill="#212121" d="M41.681,10.275c-0.303-0.386-0.895-0.844-1.986-0.844h-9.139l-2.619,9.59h2.567l2.046-7.489
	h2.289l-2.044,7.489h2.567l2.042-7.489h0.982c0.407,0,0.696,0.103,0.857,0.311c0.237,0.299,0.163,0.746,0.098,0.986l-1.691,6.192
	h2.566l1.817-6.653C42.248,11.591,42.118,10.827,41.681,10.275z"/>
<path opacity="0.6" fill="#212121" d="M52.315,10.345c-0.453-0.571-1.254-0.914-2.147-0.914H44.62l-0.546,1.998h4.852
	c0.503,0,0.854,0.119,1.039,0.354c0.188,0.234,0.214,0.592,0.088,1.059l-0.104,0.376h-4.061c-1.83,0-3.271,1.104-3.758,2.884
	c-0.242,0.895-0.155,1.644,0.255,2.16c0.394,0.496,1.071,0.758,1.957,0.758h6.588l1.682-6.158
	C52.901,11.809,52.802,10.96,52.315,10.345z M48.911,17.023H45.79c-0.298,0-0.715-0.025-0.894-0.252
	c-0.109-0.143-0.128-0.354-0.052-0.634c0.223-0.812,0.87-0.921,1.479-0.921h3.08L48.911,17.023z"/>
<path opacity="0.6" fill="#212121" d="M67.132,10.343c-0.45-0.569-1.254-0.912-2.147-0.912h-5.55l-0.544,1.998h4.853
	c0.503,0,0.854,0.119,1.038,0.354c0.188,0.234,0.216,0.592,0.088,1.059l-0.103,0.376h-4.058c-1.833,0-3.273,1.104-3.758,2.884
	c-0.246,0.895-0.157,1.644,0.254,2.16c0.393,0.496,1.068,0.758,1.957,0.758h6.588l1.68-6.158
	C67.719,11.809,67.62,10.96,67.132,10.343z M63.729,17.023h-3.12c-0.296,0-0.715-0.025-0.896-0.252
	c-0.111-0.143-0.127-0.354-0.052-0.634c0.223-0.812,0.872-0.921,1.478-0.921h3.083L63.729,17.023z"/>
<path opacity="0.6" fill="#212121" d="M76.192,9.432l-2.045,7.49h-2.524c-0.404,0-0.694-0.104-0.855-0.311
	c-0.237-0.3-0.159-0.756-0.094-1.002l1.688-6.179h-2.566l-1.752,6.417c-0.271,0.989-0.188,1.771,0.245,2.313
	c0.56,0.711,1.572,0.857,2.322,0.857h2.964l-0.265,0.945c-0.157,0.579-0.834,1.194-1.773,1.194h-4.711l-0.547,1.997h5.483
	c1.534,0,3.605-1.322,4.125-3.226L78.76,9.429h-2.567V9.432z"/>
<path opacity="0.6" fill="#212121" d="M87.693,13.979c-0.396-0.495-1.071-0.758-1.957-0.758h-2.645
	c-0.312,0-0.747-0.025-0.932-0.261c-0.109-0.135-0.127-0.34-0.054-0.606c0.221-0.812,0.888-0.922,1.51-0.922h5.104l0.543-1.998
	h-6.11c-1.834,0-3.273,1.104-3.759,2.884c-0.241,0.885-0.15,1.627,0.255,2.145c0.394,0.496,1.069,0.76,1.963,0.76h2.643
	c0.312,0,0.745,0.025,0.93,0.261c0.107,0.14,0.13,0.351,0.054,0.625c-0.224,0.812-0.89,0.92-1.511,0.92H78.11l-0.544,1.998h6.624
	c1.832,0,3.273-1.104,3.76-2.884C88.191,15.248,88.104,14.502,87.693,13.979z"/>
<polygon opacity="0.6" fill="#212121" points="90.969,9.432 88.352,19.021 90.919,19.021 93.537,9.432 "/>
<path opacity="0.6" fill="#212121" d="M102.979,10.343c-0.448-0.569-1.254-0.912-2.148-0.912h-5.546l-0.545,1.998h4.851
	c0.504,0,0.854,0.119,1.04,0.354c0.187,0.234,0.215,0.592,0.088,1.059l-0.101,0.376h-4.062c-1.832,0-3.271,1.104-3.758,2.884
	c-0.246,0.895-0.156,1.644,0.251,2.16c0.395,0.496,1.07,0.758,1.96,0.758h6.588l1.683-6.158
	C103.564,11.809,103.464,10.96,102.979,10.343z M99.57,17.023h-3.116c-0.297,0-0.715-0.025-0.896-0.252
	c-0.108-0.143-0.129-0.354-0.052-0.634c0.22-0.812,0.871-0.921,1.479-0.921h3.082L99.57,17.023z"/>
<polygon opacity="0.6" fill="#212121" points="55.744,6.832 52.418,19.021 54.984,19.021 58.312,6.832 "/>
<g opacity="0.6">
	<path fill="#212121" d="M80.605,21.477c-0.226-0.295-0.628-0.316-0.746-0.316h-2.775l-0.167,0.612h2.539
		c0.208,0,0.373,0.06,0.463,0.177c0.071,0.094,0.071,0.249,0.042,0.393c-0.027,0.132-0.145,0.527-0.145,0.527h-1.931
		c-0.909,0-1.543,0.461-1.76,1.329c-0.098,0.396-0.005,0.705,0.161,0.925c0.176,0.229,0.514,0.353,0.978,0.353h2.597l0.828-3.061
		C80.802,22.009,80.771,21.693,80.605,21.477z M79.27,24.87H77.58c-0.314,0-0.518-0.065-0.617-0.196
		c-0.086-0.115-0.121-0.274-0.06-0.494c0.129-0.479,0.48-0.707,1.038-0.707h1.714L79.27,24.87z"/>
	<polygon fill="#212121" points="81.341,25.475 82.51,21.158 81.764,21.158 80.593,25.475 	"/>
	<polygon fill="#212121" points="85.537,25.475 87.031,19.977 86.284,19.977 84.79,25.475 	"/>
	<polygon fill="#212121" points="87.014,25.475 88.186,21.158 87.438,21.158 86.268,25.475 	"/>
	<path fill="#212121" d="M91.162,21.158h-2.246l-1.171,4.313h0.747l1.006-3.703h1.389c0.306,0,0.506,0.062,0.618,0.228
		c0.132,0.19,0.078,0.445-0.015,0.791l-0.73,2.688h0.756l0.783-2.893c0.128-0.465,0.079-0.82-0.104-1.057
		C92.014,21.282,91.663,21.158,91.162,21.158z"/>
	<path fill="#212121" d="M93.611,22.936c0.189-0.482,0.696-1.163,1.582-1.163h1.508l0.165-0.612h-1.771
		c-1.274,0-2.142,1.09-2.435,2.171c-0.188,0.691-0.128,1.306,0.163,1.688c0.229,0.306,0.597,0.457,1.082,0.457h1.787l0.164-0.604
		c0,0-1.188,0-1.535,0c-0.375,0-0.648-0.079-0.808-0.269c-0.185-0.215-0.198-0.6-0.094-0.995l0.01-0.028h2.681l0.162-0.597h-2.679
		L93.611,22.936z"/>
	<path fill="#212121" d="M101.033,21.795l0.168-0.611h-2.363c-1.218,0-1.598,0.779-1.729,1.25c-0.093,0.332-0.028,0.627,0.104,0.804
		c0.172,0.228,0.444,0.343,0.908,0.343h1.165c0.71,0,0.591,0.528,0.536,0.698c-0.176,0.546-0.756,0.594-1.357,0.594h-2.028
		l-0.162,0.604h2.854c0.729,0,1.335-0.454,1.511-1.231c0.084-0.372,0.013-0.69-0.166-0.906c-0.164-0.195-0.437-0.352-0.937-0.352h-1
		c-0.1,0-0.431,0.01-0.545-0.166c-0.075-0.114-0.077-0.239-0.024-0.42c0.153-0.527,0.649-0.604,0.871-0.604L101.033,21.795
		L101.033,21.795z"/>
	<path fill="#212121" d="M84.471,21.157c-1.295,0-1.547,1.204-1.569,1.291c-0.025,0.088-0.83,3.052-0.83,3.052h0.748
		c0,0,0.771-2.848,0.8-2.939c0.045-0.139,0.251-0.782,0.973-0.782c0.503,0,0.626,0,0.626,0l0.172-0.619L84.471,21.157L84.471,21.157
		z"/>
</g>
</svg>
