<?xml version="1.0" encoding="utf-8"?>
<!-- Generator: Adobe Illustrator 16.0.0, SVG Export Plug-In . SVG Version: 6.00 Build 0)  -->
<!DOCTYPE svg PUBLIC "-//W3C//DTD SVG 1.1//EN" "http://www.w3.org/Graphics/SVG/1.1/DTD/svg11.dtd" [
	<!ENTITY ns_flows "http://ns.adobe.com/Flows/1.0/">
	<!ENTITY ns_extend "http://ns.adobe.com/Extensibility/1.0/">
	<!ENTITY ns_ai "http://ns.adobe.com/AdobeIllustrator/10.0/">
	<!ENTITY ns_graphs "http://ns.adobe.com/Graphs/1.0/">
]>
<svg version="1.1" id="Layer_1" xmlns:x="&ns_extend;" xmlns:i="&ns_ai;" xmlns:graph="&ns_graphs;"
	 xmlns="http://www.w3.org/2000/svg" xmlns:xlink="http://www.w3.org/1999/xlink" xmlns:a="http://ns.adobe.com/AdobeSVGViewerExtensions/3.0/"
	 x="0px" y="0px" width="157px" height="26px" viewBox="0 0 157 26" style="enable-background:new 0 0 157 26;"
	 xml:space="preserve">
<style type="text/css">
<![CDATA[
	.st0{fill:#5F6367;}
	.st1{fill:#A6844B;}
]]>
</style>
<g id="Layer_2">
	<path class="st0" d="M86.6,5.6C86.8,4.4,86.8,3.2,87,2h-0.1l-0.1,0.5c-0.3,2.1-2.3,2.7-3.9,3.8c0.6-0.2,1.3-0.4,1.9-0.6
		c0.8-0.3,1.4-1,1.8-1.6C86.6,4.6,86.3,5.1,86.6,5.6 M86.2,10.4c0.2,0.4,0.4,0.8,0.9,1c0.4,0.1,1.1-0.2,1.5-1.8
		c0.2,0.3,0.3,0.6,0.6,0.9c1.3,1.3,2.3-0.7,3.5-0.9c0.1-0.3,0.2-0.7,0.2-1c-0.4,0-0.8,0.3-1.3,0.2c-0.1,0-0.3-0.1-0.3-0.3
		c0.2-2-0.2-4-1.5-5.4c-0.6,1.7,0.2,3.4,0.3,5.1C90.5,7,90.2,5.8,90,4.6c0.9,1.3,1.1,2.8,1,4.4c-0.1,0.9-0.9,0.8-1.3,0.6
		c-1.4-1.1-1.2-3.3-1.9-4.7c-0.3,0.6-0.1,1.4,0.1,2c0.2,0.8,0.8,2.3-0.1,3.1c-0.5,0.5-1.1,0.1-1.3-0.4c-0.5-1.3-0.6-2.6-0.9-4
		l-0.1-0.1c-0.1,0.3-0.2,0.6-0.1,1c0.1,0.6,0.4,2.2,0.7,3.3c-0.4,1-1,1.1-1.3,1c-0.6-0.3-0.5-1.1-0.5-1.6c-1.5,0.8-3,1.7-4.2,2.1
		c-2.9,0.9-6.5,1.6-9.4,0.2c-1.1-0.5-1.9-1.5-1.9-2.8c0-0.1-0.2-0.2-0.3-0.2c-1.2,0.4-1.4,1.7-1.8,2.7c-0.4,1.1-1.4,0.4-1.5-0.1
		c-0.1-1.6,1.4-2.6,2.3-3.6C68,6.9,68.4,6,68.5,5c-0.5,0.3-1.2,0.4-1.8,0.6c-0.3,0.2-0.3,0.8-0.4,1.1l1.6-0.5l0,0
		c-0.6,1.5-2.5,2-3,3.7c-0.2,0.8-0.2,2.2,0.4,2.8c0.3,0.2,0.8,0.4,1.2,0.2c0.8-0.8,0.6-1.9,1.3-2.7c0.2-0.2,0.5-0.6,0.7-0.5l0.1,0.8
		c0.4,1.5,2,2.3,3.4,2.6c3.5,0.6,7.1-0.2,10.1-1.7c0.6-0.3,1.2-0.7,1.8-1c0,0.8,0.3,1.4,0.8,1.5C85.1,12,85.7,11.7,86.2,10.4
		 M34.4,22.6c-0.1,0.1-0.1,0.1-0.2,0.2c-0.8,0.5-2.5,0.2-3.1-0.5c-0.3-0.4-0.4-1-0.4-1.5c0-0.4,0.1-0.9,0.3-1.3
		c0.5-0.8,2.7-0.5,3.3,0.3C34.9,20.6,34.6,22.2,34.4,22.6 M26.1,20.9c-0.1,0-0.1-0.1-0.1-0.2V19c0.6-0.2,1.6-0.2,1.8,0.2
		c0.2,0.4,0.2,1.1-0.1,1.4C27.4,21,26.2,20.9,26.1,20.9 M33.9,18.5c-1.2-0.2-2.7-0.1-3.5,0.8c-0.6,0.6-0.9,2.6,0,3.7l0,0l0,0
		l0.1,0.1l0.1,0.1c-0.2,0.5-0.8,0.5-1,0.3c-0.9-0.7-1.1-1.8-1.8-2.3c0.4-0.2,0.8-0.5,1-0.9c0.2-0.4,0.2-1.1-0.2-1.5
		c-0.3-0.3-0.9-0.5-1.7-0.5h-2c-0.4,0,0.2,0.1,0.2,0.5c0.1,1.7,0,4.9,0,4.9h1.3c0-0.1-0.3-0.1-0.4-0.3c0,0,0-1.8,0-1.9
		s0.1-0.1,0.1-0.1c0.4,0,0.7-0.1,0.9,0.2c0.2,0.3,1,2.1,2.1,2.4c0.7,0.2,1.4-0.1,1.9-0.5l0.1-0.1c0.9,0.5,2.3,0.4,3.2-0.1
		c1.4-0.8,1.5-2.4,1.1-3.8C35,18.9,34.5,18.6,33.9,18.5 M38.4,23.4v-1.6c0.9-1.1,1.7-2.2,2.1-3.4h-0.9c-0.4,0,0.2,0.1,0.2,0.5
		c-0.1,0.8-0.8,1.7-1.5,2.5l-1.8-2.9h-1.3l0,0c0,0.1,0.3,0.1,0.5,0.4c0.7,1,1.3,2,1.9,3.1c0,0.6,0,1.9,0,1.9h1.3
		C38.8,23.6,38.5,23.6,38.4,23.4 M72.8,21.3c0.4-1,0.6-1.9,0.6-1.9c0.3,0.6,0.8,1.9,0.8,1.9H72.8z M76.2,23.2
		c-0.9-1.5-1.6-3.2-2.3-4.8h-1.3l0,0c0,0,0.5,0.2,0.4,0.8c-0.2,0.9-0.6,2-1.8,4.3l-0.1,0.2c0,0,0,0,0.1,0h1.1l0,0
		c0-0.1-0.5-0.1-0.4-0.4c0.1-0.4,0.5-1.1,0.7-1.6h1.8c0.3,0.6,0.6,1.3,1,1.9c0,0.1,0.1,0.1,0.1,0.2h0.2c0.2,0,1,0,1,0l0,0
		C76.8,23.7,76.5,23.7,76.2,23.2 M69.9,22.8c-0.7,0.6-2.2,0.3-3.1,0.2v-4c0.4-0.1,0.6-0.1,1.2-0.1c0.7,0,1.6,0.2,2,0.9
		C70.5,20.5,70.6,22.2,69.9,22.8 M61.9,20.9c-0.1,0-0.1-0.1-0.1-0.2V19c0.6-0.2,1.5-0.2,1.8,0.2c0.2,0.4,0.2,1.1-0.1,1.4
		C63.2,21,62,20.9,61.9,20.9 M71.1,19.9c-0.5-1.8-2.8-1.5-4.7-1.5h-0.7c-0.4,0,0.1,0.1,0.2,0.4c0.1,2.1,0,3.9,0,3.9
		c0,0.2,0,0.4,0,0.6c0,0.4-0.4,0.5-0.6,0.4c-0.9-0.7-1.1-1.8-1.8-2.3c0.4-0.2,0.8-0.5,1-0.9s0.2-1.1-0.2-1.5
		c-0.3-0.3-0.9-0.5-1.7-0.5h-2c-0.4,0,0.2,0.1,0.2,0.5c0.1,1.7,0,4.9,0,4.9h1.3c0-0.1-0.3-0.1-0.4-0.3c0,0,0-1.8,0-1.9
		c0-0.1,0.1-0.1,0.1-0.1c0.4,0,0.7-0.1,0.9,0.2c0.2,0.3,1,2.1,2.1,2.4c0.1,0,0.3,0.1,0.4,0c0.4,0,0.8-0.1,1.1-0.3
		c1.3,0.1,2.8,0.3,3.9-0.6C71.4,22.4,71.4,21.1,71.1,19.9 M58.9,22.6c-0.1,0.1-0.1,0.1-0.2,0.2c-0.8,0.5-2.5,0.2-3.1-0.5
		c-0.3-0.4-0.4-1-0.3-1.5c0-0.4,0-0.9,0.3-1.3c0.5-0.8,2.7-0.5,3.3,0.3C59.4,20.6,59.2,22.2,58.9,22.6 M58.5,18.5
		c-1.2-0.2-2.7-0.1-3.5,0.8c-0.8,0.8-1,3.3,0.5,4.2c0.9,0.5,2.3,0.5,3.2-0.1c1.3-0.8,1.5-2.4,1.1-3.8C59.6,18.9,59,18.6,58.5,18.5
		 M81.1,18.4c0,0.1,0.4,0.1,0.4,0.4c0.2,1.2,0.1,3.9,0.1,3.9c-1.5-1.2-2.7-2.7-3.9-4.2c-0.1-0.1-0.3-0.1-0.4-0.1h-0.8l0,0
		c0,0.1,0.2,0.1,0.4,0.4c0.1,0.2,0.2,0.3,0.2,0.5c0,0.6,0,1,0,1.6c0,0.6-0.1,2.6-0.1,2.7v0.2h0.2H78l0,0c0-0.1-0.3-0.1-0.4-0.4
		c0-0.2,0-0.8-0.1-1.4c0-0.7,0-1.3,0-2c1.2,1.4,4,4.1,4.2,4.2c0.1,0.1,0.1,0,0.1,0c0.1-1.8,0.1-4,0.2-5.8H81.1L81.1,18.4z M58.2,8
		c0.5,0.8,0.9,2,0.2,3.1C57.8,10.3,57.9,9,58.2,8 M56,11.2c-0.5-0.9-0.4-2.2,0-3.1C56.4,8.9,56.8,10.3,56,11.2 M61.9,10.2
		c0.3-1.8-0.5-3.6-1.5-4.8c-0.2,1,0,3.7,0.2,5.3c0.6-1.2,0-2.4,0.1-3.7c0.3,0.5,0.5,1,0.7,1.5c0.3,0.9,0.1,2.1-0.6,2.8
		c-0.4,0.5-1.1,0.7-1.6,0.5c-0.2-0.1-0.4-0.3-0.4-0.3s0.1-0.4,0.3-1c0.3-1.4,0.1-2.6-0.8-4.1C57.5,8,57.4,10,58,11.6
		c-0.6,0.6-1.4,0.3-1.6,0.1c0.8-1.5,0.6-3.6-0.3-5.2c-0.7,1.4-1,3.4-0.5,5.2c-0.8,0.7-1.8,1.1-2.7,1.6c1.2-0.1,2.2-0.2,3.1-0.8
		c0.3,0.4,0.7,0.6,1.1,0.6c0.6,0,1-0.4,1.3-0.6c0.6,0.7,1.5,0.6,1.9,0.3C61.3,12.2,61.7,11.2,61.9,10.2 M86.8,21.3
		c0.4-1,0.6-1.9,0.6-1.9c0.3,0.6,0.8,1.9,0.8,1.9H86.8z M90.3,23.2c-1-1.5-1.6-3.2-2.3-4.8h-1.3l0,0c0,0,0.5,0.2,0.4,0.8
		c-0.2,0.9-0.6,2-1.8,4.3l-0.1,0.2c0,0,0,0,0.1,0h1.1l0,0c0-0.1-0.5-0.1-0.4-0.4c0.1-0.4,0.4-1.1,0.7-1.6h1.8c0.3,0.6,0.6,1.3,1,1.9
		c0,0.1,0.1,0.1,0.1,0.2h0.2c0.2,0,1,0,1,0l0,0C90.9,23.7,90.6,23.7,90.3,23.2 M95.2,18.4c0,0.1,0.4,0.1,0.4,0.4
		c0.2,1.2,0.1,3.9,0.1,3.9c-1.5-1.2-2.7-2.7-3.9-4.2c-0.1-0.1-0.3-0.1-0.4-0.1h-0.8l0,0c0,0.1,0.2,0.1,0.4,0.4
		c0.1,0.2,0.2,0.3,0.2,0.5c0,0.6,0,1,0,1.6c0,0.6-0.1,2.6-0.1,2.7v0.2h0.2H92l0,0c0-0.1-0.3-0.1-0.4-0.4c0-0.2,0-0.8-0.1-1.4
		c0-0.7,0-1.3,0-2c1.2,1.4,4,4.1,4.2,4.2c0.1,0.1,0.1,0,0.1,0c0.1-1.8,0.1-4,0.2-5.8H95.2L95.2,18.4z M53.2,18.4h-1l0,0
		c0,0.1,0.3,0.1,0.4,0.4c0,0.3,0,1.4,0.1,2V23c0,0,0,0.4-0.1,0.8c-0.2,0.5-1,1.1-1.6,1.1c-0.9,0-2-0.4-1.5-1.9
		c-0.1,0-0.2,0.2-0.4,0.3c-0.6,0.2-1.6,0.2-2.2,0c0-0.7,0-1.3,0-2v-2.6v-0.2h-0.2h-1l0,0c0,0.1,0.3,0.1,0.4,0.4c0,0.1,0,0.5,0,0.9
		c0,1.3,0.1,2.8,0,4h3.2c0,0-0.1,0.9,0.2,1.3c0.4,0.5,1.2,0.5,1.9,0.3c1-0.3,2.3-1.2,2.4-2.3c0-0.6,0-1.2,0-1.8v-2.7v-0.2
		C53.4,18.4,53.3,18.4,53.2,18.4 M91.4,13L91.4,13c1.2,0,2.1,0.1,3.1-0.3c0.8-0.5,1.1-1.2,1.4-2c0.6-2.2,0-4.5-1.7-6
		c-0.5,1.4,0.1,2.8,0.2,4.2c0.1,0.5,0,1,0.1,1.5C95,9,94.6,7.6,94.4,6.3V6.2c0.8,1.1,1.4,2.1,1.4,3.3C95.6,11.8,93.1,12.4,91.4,13
		 M84.4,23.3c0-0.2-0.1-1.4-0.1-2v-2.7v-0.2c-0.1,0-0.2,0-0.2,0h-1l0,0c0,0.1,0.3,0.1,0.4,0.4c0,0.3,0.1,1.4,0.1,2v2.3
		c0,0.2,0,0.4,0,0.4s0,0.1,0,0.2h0.2h1l0,0C84.8,23.7,84.4,23.7,84.4,23.3 M83.5,12.6c-0.4,0.2-1,0.3-1.5,0.4
		c-0.5,0.2-0.5,0.8-0.6,1.1c0.4-0.2,1-0.3,1.4-0.4C83.3,13.6,83.3,13,83.5,12.6 M26.6,13c0.3-0.1,0.4-0.2,0.6-0.6
		c0.5-1.1,0.8-2.4,1.7-2.6C29,9.9,29,10.1,29,10.3c0.3,1.5,1.7,2.1,2.9,2.4c4.1,0.8,7.9-0.3,11-3l0,0c-0.2,1,0.4,1.4,0.9,1.3
		c0.6-0.1,0.9-0.9,1.1-1.3c0.1-0.3,0.2-0.6,0.3-0.8c0.1-0.2,0.1-0.4,0.1-0.5l-0.1,0.1c-0.4,0.3-0.5,0.9-0.9,1.3
		c-0.2,0.1-0.4,0.2-0.6,0.2c-0.3-0.1-0.4-0.4-0.4-0.6c0-0.2,0.1-0.5,0.1-0.6V8.5c-2.5,2.1-5.4,3.3-8.7,3.5c-2,0-4.1-0.2-5.3-1.9
		c-0.2-0.4-0.3-0.8-0.4-1.2c-0.3-0.1-0.7,0.2-0.9,0.4c-0.8,0.8-0.9,1.9-1.7,2.7c-0.4,0.2-1.1-0.2-1.1-0.9c0-0.9,0.7-1.7,1.4-2.3
		c1.2-0.9,2.1-2.2,2.4-3.5c-0.5,0.2-1.2,0.3-1.8,0.5C27,6,26.9,6.4,26.8,6.9c0.5-0.2,1.1-0.2,1.6-0.4l0,0C28.1,7.6,26.8,8,26,8.9
		s-1.1,2.4-0.6,3.4C25.7,12.9,26.1,13.1,26.6,13 M36,8.6c0.1,0.4,0.7,0.2,0.9-0.2c0,0.1,0.1,0.1,0.2,0.1s0.2,0,0.3-0.2
		c0.1-0.2,0.1-0.4,0-0.6v0.2c0,0.1-0.1,0.2-0.2,0.2c-0.1,0-0.1-0.1-0.1-0.2c-0.2,0-0.1,0.3-0.4,0.4c-0.1,0.1-0.3,0.1-0.4,0
		c-0.1-0.1,0-0.3,0.1-0.4C36.1,8.1,36,8.3,36,8.6 M49.1,13.2c0.9,0,2.2-0.2,2.7-0.4c0.9-0.5,1.2-1.3,1.4-2.3
		c0.2-0.8-0.1-1.3,0.5-1.7c0.2-0.1,0.1-0.6,0.2-0.9l-0.1-0.1c-0.7,0.2-0.6,0.9-0.7,1.5c-0.3,2-2.1,3.2-3.7,3.8L49.1,13.2z
		 M48.3,11.2v-0.4c0.1-0.9-1-1.2-1.2-2c0-0.2,0.1-0.4,0.3-0.6c0.4-0.3,0.8-0.5,1.3-0.3c0.6,0.2,0.8,0.8,0.9,1.3
		c-0.5,2.1-2.8,3.1-4.5,4h0.2c1.1-0.1,1.8-0.3,2.7-0.6c0.9-0.3,1.5-1.3,1.8-2.1c0.3-1,0.5-2.5-0.2-3.4c-0.4-0.4-1.1-0.6-1.7-0.3
		c-0.6,0.2-1,0.8-1.1,1.5C46.7,9.4,47.4,10.5,48.3,11.2 M32.6,7.5c2.4-0.5,4.7-1.1,7-1.7c0.3-0.1,0.9-0.2,0.8-0.6
		c-2.5,0.7-5,1.3-7.6,1.8l-0.1,0.2C32.7,7.3,32.5,7.5,32.6,7.5 M45.2,6.4C45,6.1,44.7,6,44.4,5.8C44.2,6.1,44,6.4,44,6.7
		c0.3,0.2,0.6,0.4,0.9,0.5C45.1,6.9,45.2,6.6,45.2,6.4 M40.7,13.7c0.5-0.2,1-0.3,1.5-0.4c0.4-0.2,0.4-0.7,0.6-1.1
		c-0.5,0.2-1,0.3-1.5,0.5C40.8,12.8,40.8,13.4,40.7,13.7 M41.5,21.3c0.4-1,0.6-1.9,0.6-1.9c0.3,0.6,0.8,1.9,0.8,1.9H41.5z
		 M44.9,23.2c-0.9-1.5-1.6-3.2-2.3-4.8h-1.3l0,0c0,0,0.5,0.2,0.4,0.8c-0.2,0.9-0.6,2-1.8,4.3l-0.1,0.2c0,0,0,0,0.1,0H41l0,0
		c0-0.1-0.5-0.1-0.4-0.4c0.1-0.4,0.4-1.1,0.7-1.6h1.8c0.3,0.6,0.6,1.3,1,1.9c0,0.1,0.1,0.1,0.1,0.2h0.2c0.2,0,1.1,0,1.1,0l0,0
		C45.5,23.7,45.2,23.7,44.9,23.2 M80.8,4.8c-2.6,0.8-5.3,1.6-8,2.2l-0.3,0.7C75.2,7,78,6.2,80.6,5.2L80.8,4.8z M76.4,8.1
		c-0.1,0.1-0.1,0.2-0.2,0.3c-0.1,0.2-0.1,0.4,0.1,0.5c0.2,0.1,0.5,0,0.6-0.3c0.1,0,0.2,0.1,0.3,0c0.3-0.1,0.3-0.5,0.3-0.8
		c-0.1,0.1,0,0.3-0.2,0.4c-0.2,0.1-0.3,0-0.3-0.1c-0.1,0.1-0.1,0.4-0.3,0.4c-0.1,0-0.2,0.1-0.3,0C76.2,8.4,76.4,8.2,76.4,8.1
		 M54.2,6.3c0.4-0.1,0.9-0.2,1.1-0.5c0.2-0.2,0.4-0.5,0.4-0.8c-0.1-0.4-0.4,0.2-0.7,0.1c-0.1-0.1,0.2-0.4,0.4-0.4
		c0.1-0.1,0.1-0.2,0.1-0.3s-0.2-0.1-0.2,0c-0.3,0.2-0.5,0.4-0.5,0.8c0.1,0.4,0.5-0.1,0.7,0C55.2,5.8,54.5,6,54.2,6.3"/>
	<path class="st0" d="M127.5,15c0,0,0.6,0.6,0.8,1.4c0,0-1.2-0.1-1.7,0.3c0,0,0,0.3,0.6,0.9c0,0,0.1,0.2-0.1,0.3
		c-0.2,0.1-1.4,0.2-1.4-1c0,0-0.7,0.9-1.8,0.8c0,0-0.8-0.1-0.9-0.9c0,0,0.8,0.2,1.4-0.1c0,0,0-0.5-0.7-1c0,0,0.6-0.7,1.8-1.1
		c0,0-0.2-1.1,0.1-2.2c0.4-1.1,0.5-1.4,0.6-1.6c0.1-0.2,0.2-0.8,0-1.4c0,0,2.9-0.1,2.9,3.1C129.2,12.5,129.2,14.2,127.5,15
		 M124.3,20.3l-1.7-0.8l1.7-0.6l1.6,0.7L124.3,20.3z M121.4,17.5c-1-0.1-1.3-1-1.3-1c-0.5,0.6-1.5,0.5-1.5,0.5
		c-0.8-0.2-0.9-0.9-0.9-0.9c0.9-0.2,1.1-0.5,1.1-0.5c-0.2-0.6-1.2-0.9-1.2-0.9c0.6-0.9,1.8-1.4,1.8-1.4c-0.5-0.5-0.6-1-0.8-1.8
		c-0.1-0.9,0.1-2.2,0.1-2.2c0.3-1.2,0.7-1.7,1.1-2.2c0.4-0.5,0.8-0.4,0.8-0.4c0.5,0.1,1,0.4,1,0.4c0.6,0.4,1.1,0.9,1.3,1.2
		c0.2,0.3,0.8,1.7,0,3.5c-0.8,1.8-1.6,2.1-1.6,2.1c1.2,1.2,1.2,1.7,1.2,1.7c-1,0-1.3,0.6-1.3,0.6c0.2,0.5,1,0.7,1,0.7
		C122.2,17.6,121.4,17.5,121.4,17.5 M120.7,20.1c-0.3,0-0.6-0.3-0.6-0.6c0-0.4,0.3-0.6,0.6-0.6s0.6,0.3,0.6,0.6
		C121.4,19.8,121.1,20.1,120.7,20.1 M117.3,20.1l-1.6-0.7l1.6-0.7l1.7,0.7L117.3,20.1z M114.5,16.5c0,0-0.4,1-1.3,1c0,0-0.8,0-1-0.8
		c0,0,0.7-0.2,1-0.7c0,0-0.3-0.6-1.3-0.6c0,0,0-0.5,1.2-1.7c0,0-0.8-0.3-1.6-2.1c-0.8-1.8-0.2-3.2,0-3.5c0.2-0.3,0.7-0.9,1.3-1.2
		c0,0,0.5-0.3,1-0.4c0,0,0.4-0.1,0.8,0.4c0.4,0.5,0.9,1.1,1.1,2.2c0,0,0.2,1.3,0.1,2.2c-0.1,0.8-0.3,1.3-0.8,1.8
		c0,0,1.2,0.5,1.8,1.4c0,0-1,0.3-1.2,0.9c0,0,0.2,0.3,1.1,0.5c0,0,0,0.7-0.9,0.9C116,17,115,17.1,114.5,16.5 M113.9,20.1
		c-0.3,0-0.6-0.3-0.6-0.6s0.3-0.6,0.6-0.6c0.3,0,0.6,0.3,0.6,0.6S114.2,20.1,113.9,20.1 M110.3,20.3l-1.6-0.6l1.6-0.7l1.7,0.6
		L110.3,20.3z M107.5,18c-0.2-0.2-0.1-0.3-0.1-0.3c0.6-0.6,0.6-0.9,0.6-0.9c-0.5-0.4-1.7-0.3-1.7-0.3c0.2-0.8,0.7-1.4,0.7-1.4
		c-1.7-0.8-1.6-2.5-1.6-2.5c0-3.1,2.9-3.1,2.9-3.1c-0.2,0.6-0.1,1.2,0,1.4c0.1,0.2,0.3,0.5,0.6,1.6c0.4,1.1,0.1,2.2,0.1,2.2
		c1.2,0.3,1.8,1.1,1.8,1.1c-0.7,0.5-0.7,1-0.7,1c0.6,0.3,1.4,0.1,1.4,0.1c-0.1,0.8-0.9,0.9-0.9,0.9c-1,0.1-1.8-0.8-1.8-0.8
		C108.9,18.2,107.8,18.1,107.5,18 M131.8,12.4c0.6-0.2,0.5-0.9,0.5-0.9c-0.1-0.8-1-0.7-1-0.7c0.5-0.6,0.1-1.1,0.1-1.1
		c-0.4-0.5-1.1-0.2-1.1-0.2c0.3-0.7-0.1-1-0.1-1c-0.5-0.5-1.1,0-1.1,0c0-0.6-0.5-0.8-0.5-0.8c-0.6-0.2-1,0.3-1,0.3
		c-0.4-1.1-1.2-0.5-1.4-0.5c-0.2,0.1-0.2,0-0.2,0c0-1.3-1.2-0.8-1.2-0.8c0.3-0.7-0.2-1.1-0.2-1.1c-0.6-0.4-1.1,0.1-1.1,0.1
		c-0.1-0.9-0.7-0.6-0.9-0.5c-0.2,0-0.6,0.1-0.6,0.1c-1.4-0.2-1.9-0.1-1.9-0.1c-1.7,0-3,2.7-3,2.7l0,0l0,0c0,0-1.4-2.7-3.1-2.7
		c0,0-0.5-0.1-1.9,0.1c0,0-0.4,0-0.6-0.1c-0.2-0.1-0.9-0.3-0.9,0.5c0,0-0.5-0.5-1.1-0.1c0,0-0.5,0.4-0.2,1.1c0,0-1.1-0.5-1.2,0.8
		c0,0,0,0.1-0.2,0c-0.2-0.1-1-0.6-1.4,0.5c0,0-0.4-0.5-1-0.3c0,0-0.5,0.1-0.5,0.8c0,0-0.6-0.5-1.1,0c0,0-0.4,0.3-0.1,1
		c0,0-0.6-0.3-1,0.2c0,0-0.4,0.5,0.1,1.1c0,0-0.9-0.1-1,0.7c0,0-0.1,0.7,0.5,0.9c0,0-0.7,0.3-0.6,0.9c0,0,0,0.6,0.8,0.7
		c0,0-0.6,0.4-0.4,1c0,0,0.2,0.7,1,0.5c0,0-0.3,0.7,0.2,1c0,0,0.4,0.4,1,0c0,0,0.3-0.1,0.4,0.1c0,0,0.2,0.3-0.2,0.8
		c0,0,2.3-0.2,2.9,3.5h18.9c0.6-3.7,3-3.5,3-3.5c-0.4-0.5-0.2-0.8-0.2-0.8c0.1-0.2,0.4-0.1,0.4-0.1c0.5,0.4,1,0,1,0
		c0.4-0.3,0.2-1,0.2-1c0.8,0.2,1.1-0.5,1.1-0.5c0.2-0.6-0.4-1-0.4-1c0.7-0.1,0.8-0.7,0.8-0.7C132.6,12.7,131.8,12.4,131.8,12.4
		 M108.1,22.9c0,0.4,0.1,0.8,0.1,0.8h18.3c0,0,0-0.4,0.1-0.8c0-0.4,0.1-0.8,0.1-0.8H108C108,22.2,108,22.6,108.1,22.9 M116.3,4.6
		c0,0-0.6,0-1,0.2c0,0,1.4,0.4,2,2c0.7-1.6,2-2,2-2c-0.4-0.2-1-0.2-1-0.2c-0.1-0.2-0.3-0.4-0.3-0.4c0.2-0.2,0.5-0.5,0.5-0.5
		l-1.3-3.1L116,3.8c0,0,0.4,0.2,0.5,0.5C116.5,4.3,116.3,4.4,116.3,4.6"/>
</g>
<g id="Layer_1_1_">
	<g>
		<path class="st1" d="M86.4,5.4c0.3-1.2,0.2-2.4,0.4-3.6h-0.1l-0.1,0.5c-0.3,2.1-2.3,2.7-3.8,3.8C83.4,6,84,5.8,84.6,5.6
			c0.8-0.3,1.4-1,1.8-1.6C86.4,4.4,86.2,4.9,86.4,5.4 M86,10.1c0.2,0.4,0.4,0.8,0.9,1c0.4,0.1,1.1-0.2,1.5-1.8
			c0.2,0.3,0.3,0.6,0.6,0.9c1.3,1.3,2.3-0.7,3.5-0.9c0.1-0.3,0.2-0.7,0.2-1c-0.4,0-0.8,0.3-1.3,0.2c-0.1,0-0.3-0.1-0.3-0.3
			c0.2-2-0.2-4-1.5-5.4C89.1,4.5,90,6.2,90,7.9c0.4-1.2,0.1-2.4-0.1-3.6c0.9,1.3,1.2,2.8,1,4.4c-0.1,0.9-0.9,0.8-1.3,0.6
			c-1.4-1.1-1.2-3.3-1.9-4.7c-0.3,0.6-0.1,1.4,0.1,2C88,7.5,88.5,9,87.7,9.8c-0.5,0.5-1.1,0.1-1.3-0.4c-0.5-1.3-0.6-2.6-0.9-4
			l-0.1-0.1c-0.1,0.3-0.2,0.6-0.1,1c0.1,0.6,0.4,2.2,0.7,3.3c-0.4,1-1,1.1-1.3,1c-0.6-0.3-0.5-1.1-0.5-1.6c-1.5,0.8-3,1.7-4.2,2.1
			c-2.9,0.9-6.5,1.6-9.4,0.2c-1.1-0.5-1.9-1.5-1.9-2.8c0-0.1-0.2-0.2-0.3-0.2C67.2,8.7,67,10,66.6,11c-0.6,1.2-1.6,0.5-1.7,0
			c-0.1-1.6,1.4-2.6,2.3-3.6c0.7-0.7,1-1.6,1.1-2.7c-0.5,0.3-1.2,0.4-1.8,0.6c-0.3,0.2-0.3,0.8-0.4,1.1L67.7,6l0,0
			c-0.6,1.5-2.6,2-3,3.7c-0.2,0.8-0.2,2.2,0.4,2.8c0.3,0.2,0.8,0.4,1.2,0.2c0.8-0.8,0.6-1.9,1.3-2.7c0.2-0.2,0.5-0.6,0.7-0.5
			l0.1,0.8c0.4,1.5,2,2.3,3.4,2.6c3.5,0.6,7.1-0.2,10.1-1.7c0.6-0.3,1.2-0.7,1.8-1c0,0.8,0.3,1.4,0.8,1.5
			C84.9,11.8,85.5,11.4,86,10.1 M34.2,22.4c-0.1,0.1-0.1,0.1-0.2,0.2c-0.8,0.5-2.5,0.2-3.1-0.5c-0.3-0.4-0.4-1-0.4-1.5
			c0-0.4,0.1-0.9,0.3-1.3c0.5-0.8,2.7-0.5,3.3,0.3C34.7,20.3,34.5,22,34.2,22.4 M25.9,20.6c-0.1,0-0.1-0.1-0.1-0.2v-1.7
			c0.6-0.2,1.6-0.2,1.8,0.2c0.2,0.4,0.2,1.1-0.1,1.4C27.2,20.7,26.1,20.6,25.9,20.6 M33.7,18.2C32.5,18,31,18.1,30.2,19
			c-0.6,0.6-0.9,2.6,0,3.7l0,0l0,0l0.1,0.1l0.1,0.1c-0.2,0.5-0.8,0.5-1,0.4c-0.9-0.7-1.1-1.8-1.8-2.3c0.4-0.2,0.8-0.5,1-0.9
			c0.2-0.4,0.2-1.1-0.2-1.5c-0.3-0.3-0.9-0.5-1.7-0.5h-2c-0.4,0,0.2,0.1,0.2,0.5c0.1,1.7,0,4.9,0,4.9h1.3c0-0.1-0.3-0.1-0.4-0.3
			c0,0,0-1.8,0-1.9c0-0.1,0.1-0.1,0.1-0.1c0.4,0,0.7-0.1,0.9,0.2c0.2,0.3,1,2.1,2.1,2.4c0.7,0.2,1.4-0.1,1.9-0.5l0.1-0.1
			c0.9,0.5,2.3,0.4,3.2-0.1c1.4-0.8,1.5-2.4,1.1-3.8C34.9,18.7,34.3,18.4,33.7,18.2 M38.3,23.2v-1.6c0.9-1.1,1.7-2.2,2-3.5h-0.9
			c-0.4,0,0.2,0.1,0.2,0.5c-0.1,0.8-0.8,1.7-1.5,2.5l-1.7-3H35l0,0c0,0.1,0.3,0.1,0.5,0.4c0.7,1,1.3,2,1.9,3.1c0,0.5,0,1.9,0,1.9
			h1.3C38.6,23.4,38.3,23.4,38.3,23.2 M72.6,21.1c0.4-1,0.6-1.9,0.6-1.9c0.3,0.6,0.8,1.9,0.8,1.9H72.6z M76,22.9
			c-0.9-1.5-1.6-3.2-2.3-4.8h-1.3l0,0c0,0,0.5,0.2,0.4,0.8c-0.2,0.9-0.6,2-1.8,4.4l-0.1,0.2c0,0,0,0,0.1,0h1.1l0,0
			c0-0.1-0.4-0.1-0.4-0.4c0.1-0.4,0.5-1.1,0.7-1.6h1.8c0.3,0.6,0.6,1.3,1,1.9c0,0.1,0.1,0.1,0.1,0.2h0.2c0.2,0,1,0,1,0l0,0
			C76.7,23.4,76.4,23.4,76,22.9 M69.8,22.6c-0.7,0.6-2.2,0.3-3.1,0.2v-4c0.4-0.1,0.6-0.1,1.2-0.1c0.7,0,1.6,0.2,2,0.9
			C70.3,20.3,70.5,22,69.8,22.6 M61.8,20.6c-0.1,0-0.1-0.1-0.1-0.2v-1.7c0.6-0.2,1.5-0.2,1.8,0.2c0.2,0.4,0.2,1.1,0,1.4
			C63,20.7,61.9,20.6,61.8,20.6 M70.9,19.7c-0.5-1.8-2.8-1.5-4.7-1.5h-0.7c-0.4,0,0.1,0.1,0.2,0.4c0.1,2.1,0,3.9,0,3.9
			c0,0.2,0,0.4,0,0.6c0,0.4-0.4,0.5-0.6,0.4c-0.9-0.7-1.1-1.8-1.8-2.3c0.4-0.2,0.8-0.5,1-0.9c0.2-0.4,0.2-1.1-0.2-1.5
			c-0.3-0.4-0.9-0.5-1.7-0.5h-2c-0.4,0,0.2,0.1,0.2,0.5c0.1,1.7,0,4.9,0,4.9H62c0-0.1-0.3-0.1-0.4-0.3c0,0,0-1.8,0-1.9
			s0.1-0.1,0.1-0.1c0.4,0,0.7-0.1,0.9,0.2c0.2,0.3,1,2.1,2.1,2.4c0.1,0,0.3,0.1,0.4,0c0.4,0,0.8-0.1,1.1-0.3
			c1.3,0.1,2.8,0.3,3.9-0.6C71.3,22.2,71.2,20.8,70.9,19.7 M58.7,22.4c-0.1,0.1-0.1,0.1-0.2,0.2c-0.8,0.5-2.5,0.2-3.1-0.5
			c-0.3-0.4-0.4-1-0.3-1.5c0-0.4,0-0.9,0.3-1.3c0.5-0.8,2.7-0.5,3.3,0.3C59.2,20.3,59,22,58.7,22.4 M58.3,18.2
			c-1.2-0.2-2.7-0.1-3.5,0.8c-0.8,0.8-1,3.3,0.5,4.2c0.9,0.5,2.3,0.5,3.2-0.1c1.3-0.8,1.5-2.4,1.1-3.8
			C59.4,18.7,58.9,18.4,58.3,18.2 M81,18.2c0,0.1,0.3,0.1,0.4,0.4c0.2,1.2,0.1,3.9,0.1,3.9c-1.5-1.2-2.7-2.7-3.9-4.2
			c-0.1-0.1-0.3,0-0.4,0h-0.8l0,0c0,0.1,0.2,0.1,0.4,0.4c0.1,0.2,0.2,0.3,0.2,0.5c0,0.6,0,1,0,1.6c0,0.6-0.1,2.6-0.1,2.7v0.2h0.2
			h0.7l0,0c0-0.1-0.3-0.1-0.4-0.4c0-0.2,0-0.8-0.1-1.4c0-0.7,0-1.3,0-2c1.2,1.4,4,4.1,4.2,4.2c0.1,0.1,0.1,0,0.1,0
			c0.1-1.8,0.1-4,0.2-5.8L81,18.2L81,18.2z M58,7.8c0.5,0.8,0.9,2,0.2,3.1C57.6,10.1,57.8,8.7,58,7.8 M55.8,10.9
			c-0.5-0.9-0.4-2.2,0-3.1C56.3,8.6,56.6,10,55.8,10.9 M61.7,9.9c0.3-1.8-0.5-3.6-1.5-4.8c-0.2,1,0,3.7,0.2,5.3
			c0.6-1.2,0-2.4,0.1-3.7c0.3,0.5,0.5,1,0.7,1.5c0.3,0.9,0.1,2.1-0.6,2.8c-0.4,0.5-1.1,0.7-1.6,0.5c-0.2-0.1-0.4-0.3-0.4-0.3
			s0.1-0.4,0.3-1c0.3-1.4,0.1-2.6-0.8-4.1c-0.8,1.6-0.9,3.6-0.3,5.2c-0.6,0.6-1.4,0.3-1.6,0.1c0.8-1.5,0.6-3.6-0.3-5.2
			c-0.7,1.4-1,3.4-0.5,5.2c-0.8,0.7-1.8,1.1-2.7,1.6c1.2-0.1,2.2-0.2,3.1-0.8c0.3,0.4,0.7,0.6,1.1,0.6c0.6,0,1-0.4,1.3-0.6
			c0.6,0.7,1.5,0.6,1.9,0.3C61.1,12,61.6,10.9,61.7,9.9 M86.6,21.1c0.4-1,0.6-1.9,0.6-1.9c0.3,0.6,0.8,1.9,0.8,1.9H86.6z M90.1,22.9
			c-1-1.5-1.6-3.2-2.3-4.8h-1.3l0,0c0,0,0.5,0.2,0.4,0.8c-0.2,0.9-0.6,2-1.8,4.4L85,23.5c0,0,0,0,0.1,0h1.1l0,0
			c0-0.1-0.5-0.1-0.4-0.4c0.1-0.4,0.4-1.1,0.7-1.6h1.8c0.3,0.6,0.6,1.3,1,1.9c0,0.1,0.1,0.1,0.1,0.2h0.2c0.2,0,1,0,1,0l0,0
			C90.7,23.4,90.4,23.4,90.1,22.9 M95,18.2c0,0.1,0.3,0.1,0.4,0.4c0.2,1.2,0.1,3.9,0.1,3.9c-1.5-1.2-2.7-2.7-3.9-4.2
			c-0.1-0.1-0.3,0-0.4,0h-0.8l0,0c0,0.1,0.2,0.1,0.4,0.4c0.1,0.2,0.2,0.3,0.2,0.5c0,0.6,0,1,0,1.6c0,0.6-0.1,2.6-0.1,2.7v0.2h0.2
			h0.7l0,0c0-0.1-0.3-0.1-0.4-0.4c0-0.2,0-0.8-0.1-1.4c0-0.7,0-1.3,0-2c1.2,1.4,4,4.1,4.2,4.2c0.1,0.1,0.1,0,0.1,0
			c0.1-1.8,0.1-4,0.2-5.8L95,18.2L95,18.2z M53,18.2h-1l0,0c0,0.1,0.3,0.1,0.4,0.4c0,0.3,0,1.4,0.1,2v2.1c0,0,0,0.4-0.1,0.8
			c-0.2,0.5-1,1.1-1.6,1.1c-0.9,0-2-0.4-1.5-1.9c-0.1-0.1-0.2,0.2-0.4,0.3c-0.6,0.2-1.6,0.2-2.2,0c0-0.7,0-1.3,0-2v-2.6v-0.2h-0.2
			h-1l0,0c0,0.1,0.3,0.1,0.4,0.4c0,0.1,0,0.5,0,0.9c0,1.3,0.1,2.8,0,4h3.2c0,0-0.1,0.9,0.2,1.3c0.4,0.5,1.2,0.5,1.9,0.3
			c1-0.3,2.4-1.2,2.4-2.3c0-0.6,0-1.2,0-1.8v-2.7v-0.2C53.2,18.1,53.1,18.2,53,18.2 M91.3,12.8L91.3,12.8c1.1,0,2.1,0.1,3.1-0.3
			c0.8-0.5,1.1-1.2,1.4-2c0.6-2.2,0-4.5-1.7-6c-0.5,1.4,0.1,2.8,0.2,4.2c0.1,0.5,0,1,0.1,1.5c0.5-1.4,0.1-2.8-0.1-4.1V6
			c0.8,1,1.4,2,1.3,3.3C95.4,11.5,92.9,12.1,91.3,12.8 M84.2,23.1c0-0.3-0.1-1.4-0.1-2v-2.7v-0.2c-0.1,0-0.2,0-0.2,0h-1l0,0
			c0,0.1,0.3,0.1,0.4,0.4c0,0.3,0.1,1.4,0.1,2v2.3c0,0.2,0,0.4,0,0.4s0,0.1,0,0.2h0.2h1l0,0C84.6,23.4,84.3,23.4,84.2,23.1
			 M83.3,12.4c-0.4,0.2-1,0.3-1.5,0.4c-0.5,0.2-0.5,0.8-0.6,1.1c0.4-0.2,1-0.3,1.4-0.4C83.1,13.3,83.1,12.8,83.3,12.4 M26.4,12.8
			c0.3-0.1,0.4-0.2,0.6-0.6c0.5-1.1,0.8-2.4,1.7-2.6c0.1,0.1,0.1,0.3,0.1,0.5c0.3,1.5,1.7,2.1,2.9,2.4c4.1,0.8,7.9-0.4,11-3l0,0
			c-0.2,1,0.4,1.4,0.9,1.3c0.6-0.1,0.9-0.9,1.1-1.3c0.1-0.3,0.2-0.6,0.3-0.8c0.1-0.2,0.1-0.4,0.1-0.5L45,8.3
			c-0.4,0.3-0.5,0.9-0.9,1.3c-0.2,0.1-0.4,0.2-0.6,0.2c-0.3-0.1-0.4-0.4-0.4-0.6c0-0.2,0.1-0.5,0.1-0.6V8.2
			c-2.5,2.1-5.4,3.3-8.7,3.5c-2,0-4.1-0.2-5.3-1.9c0-0.4-0.1-0.8-0.2-1.2c-0.3-0.1-0.7,0.2-0.9,0.4c-0.8,0.8-0.9,2-1.7,2.7
			c-0.4,0.2-1.1-0.2-1.1-0.9c0-0.9,0.7-1.7,1.4-2.3c1.2-0.9,2.1-2.2,2.4-3.5c-0.5,0.2-1.2,0.3-1.8,0.5c-0.3,0.1-0.4,0.5-0.5,1
			c0.5-0.2,1.1-0.2,1.6-0.4l0,0c-0.5,1.2-1.8,1.6-2.6,2.6c-0.8,0.9-1.1,2.4-0.6,3.4C25.5,12.7,25.9,12.8,26.4,12.8 M35.8,8.3
			c0.1,0.4,0.7,0.2,0.9-0.2c0,0.1,0.1,0.1,0.2,0.1s0.2,0,0.3-0.2c0.1-0.2,0.1-0.4,0-0.6v0.2c0,0.1-0.1,0.2-0.2,0.2s-0.1-0.1-0.1-0.2
			c-0.2,0.1-0.1,0.3-0.4,0.4c-0.1,0.1-0.3,0.1-0.4,0s0-0.3,0.1-0.4C35.9,7.8,35.8,8.1,35.8,8.3 M49,12.9c0.9,0,2.2-0.2,2.7-0.4
			c0.9-0.5,1.2-1.3,1.4-2.3c0.2-0.8-0.1-1.3,0.5-1.7c0.2-0.1,0.1-0.6,0.2-0.9l-0.1-0.1c-0.8,0.3-0.7,1-0.8,1.5
			c-0.3,2-2.1,3.2-3.7,3.8L49,12.9z M48.1,11v-0.4c0.1-0.9-1-1.2-1.2-2c0-0.2,0.1-0.4,0.3-0.6c0.4-0.3,0.8-0.5,1.3-0.3
			c0.6,0.2,0.8,0.8,0.9,1.3c-0.4,2-2.7,3-4.4,3.9h0.2c1.1-0.1,1.8-0.3,2.7-0.6c0.9-0.3,1.5-1.3,1.8-2.1c0.3-1,0.5-2.5-0.2-3.4
			c-0.4-0.4-1.1-0.6-1.7-0.3c-0.6,0.2-1,0.8-1.1,1.5C46.5,9.2,47.2,10.3,48.1,11 M32.4,7.2c2.4-0.5,4.8-1.1,7.1-1.7
			c0.3-0.1,0.9-0.2,0.8-0.6c-2.5,0.7-5,1.3-7.6,1.8L32.5,7C32.5,7,32.3,7.2,32.4,7.2 M45.1,6.1c-0.2-0.2-0.6-0.4-0.9-0.5
			c-0.2,0.2-0.4,0.6-0.4,0.9c0.3,0.2,0.6,0.4,0.9,0.5C44.9,6.7,45,6.3,45.1,6.1 M40.5,13.5c0.5-0.2,1-0.3,1.5-0.4
			c0.4-0.2,0.4-0.7,0.6-1.1c-0.5,0.2-1,0.3-1.5,0.5C40.6,12.5,40.7,13.1,40.5,13.5 M41.3,21.1c0.4-1,0.6-1.9,0.6-1.9
			c0.3,0.6,0.8,1.9,0.8,1.9H41.3z M44.7,22.9c-0.9-1.5-1.6-3.2-2.3-4.8h-1.3l0,0c0,0,0.5,0.2,0.4,0.8c-0.2,0.9-0.6,2-1.8,4.4
			l-0.1,0.2c0,0,0,0,0.1,0h1.1l0,0c0-0.1-0.5-0.1-0.4-0.4c0.1-0.4,0.4-1.1,0.7-1.6h1.8c0.3,0.6,0.6,1.3,1,1.9c0,0.1,0.1,0.1,0.1,0.2
			h0.2c0.2,0,1,0,1,0l0,0C45.4,23.4,45.1,23.4,44.7,22.9 M80.6,4.5c-2.6,0.8-5.3,1.6-8,2.2l-0.3,0.7C75,6.7,77.8,6,80.4,5L80.6,4.5z
			 M76.2,7.8C76.1,7.9,76,8,76,8.1c-0.1,0.2-0.1,0.4,0.1,0.5c0.2,0.1,0.5,0,0.6-0.3c0.1,0,0.2,0.1,0.3,0c0.3-0.1,0.3-0.5,0.3-0.8
			c-0.1,0.1,0,0.3-0.2,0.4C77,8,76.8,7.8,76.8,7.7c-0.1,0.1-0.1,0.4-0.3,0.4c-0.1,0-0.2,0.1-0.3,0C76,8.1,76.2,8,76.2,7.8 M54,6
			c0.4-0.1,0.9-0.2,1.1-0.5c0.2-0.2,0.4-0.5,0.4-0.8C55.3,4.4,55,5,54.8,4.8c-0.1-0.1,0.2-0.4,0.4-0.4c0.1-0.1,0.1-0.2,0.1-0.3
			s-0.2-0.1-0.2,0c-0.3,0.2-0.5,0.4-0.5,0.8c0.1,0.4,0.5-0.1,0.7,0C55,5.5,54.4,5.7,54,6"/>
		<path class="st1" d="M127.4,14.7c0,0,0.6,0.6,0.8,1.4c0,0-1.2-0.1-1.7,0.3c0,0,0,0.3,0.6,0.9c0,0,0.1,0.2-0.1,0.3
			c-0.2,0.1-1.4,0.2-1.4-1c0,0-0.7,0.9-1.8,0.8c0,0-0.8-0.1-0.9-0.9c0,0,0.8,0.1,1.4-0.1c0,0,0-0.5-0.7-1c0,0,0.5-0.7,1.8-1.1
			c0,0-0.2-1.1,0.1-2.2c0.4-1.1,0.5-1.4,0.6-1.6c0.1-0.2,0.2-0.8,0-1.4c0,0,2.9-0.1,2.9,3.1C129,12.3,129,14,127.4,14.7 M124.1,20.1
			l-1.7-0.8l1.7-0.5l1.6,0.7L124.1,20.1z M121.2,17.3c-1-0.1-1.3-1-1.3-1c-0.5,0.6-1.5,0.5-1.5,0.5c-0.8-0.2-0.9-0.9-0.9-0.9
			c0.9-0.2,1.1-0.5,1.1-0.5c-0.2-0.6-1.2-0.9-1.2-0.9c0.6-0.9,1.8-1.4,1.8-1.4c-0.5-0.5-0.6-1-0.8-1.8c-0.1-0.9,0.1-2.2,0.1-2.2
			c0.2-1.2,0.7-1.7,1.1-2.2c0.4-0.5,0.8-0.4,0.8-0.4c0.5,0.1,1,0.4,1,0.4c0.6,0.4,1.1,0.9,1.3,1.2c0.2,0.3,0.8,1.7,0,3.5
			c-0.8,1.8-1.6,2.1-1.6,2.1c1.2,1.2,1.2,1.7,1.2,1.7c-1,0-1.3,0.6-1.3,0.6c0.2,0.5,1,0.7,1,0.7C122.1,17.3,121.2,17.3,121.2,17.3
			 M120.6,19.9c-0.3,0-0.6-0.3-0.6-0.6c0-0.4,0.3-0.6,0.6-0.6c0.3,0,0.6,0.3,0.6,0.6S120.9,19.9,120.6,19.9 M117.1,19.9l-1.6-0.7
			l1.6-0.7l1.7,0.7L117.1,19.9z M114.4,16.2c0,0-0.4,1-1.3,1c0,0-0.8,0-1-0.8c0,0,0.7-0.2,1-0.7c0,0-0.3-0.6-1.3-0.6
			c0,0,0-0.5,1.2-1.7c0,0-0.8-0.3-1.6-2.1c-0.8-1.8-0.2-3.2,0-3.5c0.2-0.3,0.7-0.9,1.3-1.2c0,0,0.5-0.3,1-0.4c0,0,0.4-0.1,0.8,0.4
			s0.9,1.1,1.1,2.2c0,0,0.2,1.3,0.1,2.2c-0.1,0.8-0.3,1.3-0.8,1.8c0,0,1.2,0.5,1.8,1.4c0,0-1,0.3-1.2,0.9c0,0,0.2,0.3,1.1,0.5
			c0,0,0,0.7-0.9,0.9C115.9,16.8,114.9,16.9,114.4,16.2 M113.7,19.9c-0.3,0-0.6-0.3-0.6-0.6s0.3-0.6,0.6-0.6s0.6,0.3,0.6,0.6
			S114,19.9,113.7,19.9 M110.2,20.1l-1.6-0.6l1.6-0.7l1.7,0.6L110.2,20.1z M107.4,17.7c-0.2-0.2-0.1-0.3-0.1-0.3
			c0.6-0.6,0.6-0.9,0.6-0.9c-0.5-0.4-1.7-0.3-1.7-0.3c0.2-0.8,0.7-1.4,0.7-1.4c-1.7-0.8-1.6-2.5-1.6-2.5c0-3.1,2.9-3.1,2.9-3.1
			c-0.2,0.6-0.1,1.2,0,1.4c0.1,0.2,0.3,0.5,0.7,1.6c0.4,1.1,0.1,2.2,0.1,2.2c1.2,0.3,1.8,1.1,1.8,1.1c-0.7,0.5-0.7,1-0.7,1
			c0.6,0.3,1.4,0.1,1.4,0.1c-0.1,0.8-0.9,0.9-0.9,0.9c-1,0.1-1.8-0.8-1.8-0.8C108.8,17.9,107.6,17.9,107.4,17.7 M131.7,12.2
			c0.6-0.2,0.5-0.9,0.5-0.9c-0.1-0.8-1-0.7-1-0.7c0.5-0.6,0.1-1.1,0.1-1.1c-0.4-0.5-1.1-0.2-1.1-0.2c0.3-0.7-0.1-1-0.1-1
			c-0.5-0.5-1.1,0-1.1,0c0-0.6-0.5-0.8-0.5-0.8c-0.6-0.2-1,0.3-1,0.3c-0.4-1.1-1.2-0.5-1.4-0.5c-0.2,0.1-0.2,0-0.2,0
			c0-1.3-1.2-0.8-1.2-0.8c0.3-0.7-0.2-1.1-0.2-1.1c-0.6-0.4-1.1,0.1-1.1,0.1c-0.1-0.9-0.7-0.6-0.9-0.5c-0.2,0-0.6,0.1-0.6,0.1
			C120.5,4.9,120,5,120,5c-1.7,0-3,2.7-3,2.7l0,0l0,0c0,0-1.4-2.7-3.1-2.7c0,0-0.5-0.1-1.9,0.1c0,0-0.4,0-0.6-0.1
			c-0.2-0.1-0.9-0.3-0.9,0.5c0,0-0.5-0.5-1.1-0.1c0,0-0.5,0.4-0.2,1.1c0,0-1.1-0.5-1.2,0.8c0,0,0,0.1-0.2,0c-0.2-0.1-1-0.6-1.4,0.5
			c0,0-0.4-0.5-1-0.3c0,0-0.5,0.1-0.5,0.8c0,0-0.6-0.5-1.1,0c0,0-0.4,0.3-0.1,1c0,0-0.6-0.3-1,0.2c0,0-0.4,0.5,0.1,1.1
			c0,0-0.9-0.1-1,0.7c0,0-0.1,0.7,0.5,0.9c0,0-0.7,0.3-0.6,0.9c0,0,0,0.6,0.8,0.7c0,0-0.6,0.4-0.4,1c0,0,0.2,0.7,1,0.5
			c0,0-0.3,0.7,0.2,1c0,0,0.4,0.4,1,0c0,0,0.3-0.1,0.4,0.1c0,0,0.2,0.3-0.2,0.8c0,0,2.3-0.2,2.9,3.5h18.9c0.6-3.7,3-3.5,3-3.5
			c-0.4-0.5-0.2-0.8-0.2-0.8c0.1-0.2,0.4-0.1,0.4-0.1c0.5,0.4,1,0,1,0c0.4-0.3,0.2-1,0.2-1c0.8,0.2,1.1-0.5,1.1-0.5
			c0.2-0.6-0.4-1-0.4-1c0.7-0.1,0.8-0.7,0.8-0.7C132.4,12.5,131.7,12.2,131.7,12.2 M107.9,22.7c0,0.4,0.1,0.8,0.1,0.8h18.3
			c0,0,0-0.4,0.1-0.8c0-0.4,0.1-0.8,0.1-0.8h-18.6C107.8,22,107.9,22.3,107.9,22.7 M116.1,4.4c0,0-0.6,0-1,0.2c0,0,1.4,0.4,2,2
			c0.7-1.6,2-2,2-2c-0.4-0.2-1-0.2-1-0.2C118,4.2,117.8,4,117.8,4c0.2-0.2,0.5-0.5,0.5-0.5L117,0.4l-1.3,3.1c0,0,0.4,0.2,0.5,0.5
			C116.4,4,116.1,4.2,116.1,4.4"/>
	</g>
</g>
</svg>
