<?xml version="1.0" encoding="utf-8"?>
<!-- Generator: Adobe Illustrator 16.0.0, SVG Export Plug-In . SVG Version: 6.00 Build 0)  -->
<!DOCTYPE svg PUBLIC "-//W3C//DTD SVG 1.0//EN" "http://www.w3.org/TR/2001/REC-SVG-20010904/DTD/svg10.dtd">
<svg version="1.0" id="SN" xmlns="http://www.w3.org/2000/svg" xmlns:xlink="http://www.w3.org/1999/xlink" x="0px" y="0px"
	 width="157px" height="26px" viewBox="0 0 157 26" enable-background="new 0 0 157 26" xml:space="preserve">
<g>
	<path fill="#757575" d="M5.113,24.115C5.113,25.159,3.971,26,2.553,26C1.14,26,0,25.159,0,24.115c0-1.038,1.142-1.888,2.556-1.888
		C3.971,22.225,5.113,23.075,5.113,24.115"/>
	<path fill="#757575" d="M6.898,19.615c0,0.873-0.999,1.578-2.239,1.586c-1.244-0.008-2.246-0.713-2.246-1.586
		c0-0.874,1.002-1.568,2.246-1.568C5.899,18.044,6.898,18.741,6.898,19.615"/>
	<path fill="#757575" d="M8.365,15.86c0,0.699-0.854,1.27-1.908,1.271c-1.058,0-1.915-0.569-1.915-1.271
		c0-0.698,0.859-1.269,1.915-1.269C7.512,14.592,8.365,15.165,8.365,15.86"/>
	<path fill="#757575" d="M12.269,5.609c-0.004,0.275-0.445,0.501-0.996,0.501s-0.999-0.226-0.999-0.501
		c0-0.281,0.448-0.501,0.999-0.501S12.265,5.326,12.269,5.609"/>
	<path fill="#757575" d="M13.421,2.708c0,0.2-0.334,0.358-0.748,0.358c-0.417,0-0.748-0.159-0.752-0.358
		c0-0.197,0.335-0.363,0.752-0.363C13.087,2.345,13.421,2.511,13.421,2.708"/>
	<path fill="#757575" d="M12.878,4.083c0,0.233-0.385,0.415-0.867,0.418c-0.476,0-0.862-0.185-0.862-0.418
		c0-0.229,0.387-0.415,0.862-0.415C12.492,3.669,12.878,3.854,12.878,4.083"/>
	<path fill="#757575" d="M9.604,12.561c0,0.566-0.728,1.023-1.628,1.023c-0.893,0-1.622-0.457-1.622-1.023
		c0-0.563,0.728-1.025,1.622-1.025C8.877,11.538,9.604,11.998,9.604,12.561"/>
	<path fill="#757575" d="M10.678,9.813c0,0.448-0.62,0.817-1.393,0.817c-0.766,0-1.386-0.369-1.386-0.817
		c0-0.457,0.62-0.825,1.386-0.825C10.058,8.988,10.678,9.356,10.678,9.813"/>
	<path fill="#757575" d="M11.077,23.803c0,0.94-1.038,1.694-2.32,1.694c-1.281,0-2.323-0.757-2.323-1.694
		c0-0.938,1.042-1.701,2.32-1.701C10.039,22.102,11.077,22.864,11.077,23.803"/>
	<path fill="#757575" d="M16.183,22.393c0,0.827-0.938,1.493-2.094,1.493c-1.152,0-2.091-0.666-2.091-1.493
		c0-0.825,0.938-1.501,2.091-1.501C15.243,20.892,16.183,21.565,16.183,22.393"/>
	<path fill="#757575" d="M18.788,19.516c0,0.647-0.766,1.177-1.717,1.177c-0.941,0-1.707-0.529-1.707-1.177
		c0-0.658,0.766-1.188,1.707-1.188C18.019,18.328,18.788,18.857,18.788,19.516"/>
	<path fill="#757575" d="M16.295,14.383c0,0.436-0.56,0.782-1.243,0.782c-0.692,0-1.253-0.347-1.253-0.782
		c0-0.431,0.561-0.788,1.253-0.788C15.736,13.595,16.295,13.95,16.295,14.383"/>
	<path fill="#757575" d="M11.596,7.514c0,0.362-0.526,0.657-1.18,0.657c-0.648,0-1.176-0.297-1.176-0.657
		c0-0.359,0.527-0.651,1.176-0.651C11.068,6.863,11.596,7.157,11.596,7.514"/>
	<path fill="#757575" d="M18.331,16.53c0,0.529-0.648,0.955-1.455,0.955c-0.802,0-1.451-0.429-1.451-0.955
		c0-0.521,0.649-0.954,1.455-0.954C17.681,15.579,18.331,16.01,18.331,16.53"/>
	<path fill="#494949" d="M26.466,23.723V9.762h2.227v5.156c0.713-0.251,1.393-0.376,2.03-0.376c1.392,0,2.468,0.46,3.233,1.387
		c0.663,0.806,0.998,1.858,0.998,3.15c0,1.694-0.565,2.97-1.697,3.811c-0.981,0.747-2.348,1.115-4.092,1.115
		C28.421,24.005,27.519,23.914,26.466,23.723 M28.692,16.626v5.52c0.317,0.05,0.605,0.079,0.86,0.079c2.079,0,3.12-1.003,3.12-3
		c0-0.973-0.26-1.707-0.769-2.199c-0.453-0.434-1.052-0.656-1.819-0.656C29.646,16.372,29.184,16.456,28.692,16.626"/>
	<path fill="#494949" d="M37.241,23.886v-8.535c1.296-0.527,2.604-0.792,3.933-0.792c0.634,0,1.234,0.086,1.79,0.262v1.879
		c-0.473-0.176-0.996-0.256-1.561-0.256c-0.655,0-1.295,0.116-1.93,0.353v7.095"/>
	<path fill="#494949" d="M44.44,14.707h2.232v5.479c0,0.767,0.162,1.287,0.479,1.557c0.278,0.241,0.755,0.362,1.421,0.362
		c0.449,0,0.944-0.062,1.49-0.171v-7.228H52.3v8.86c-1.493,0.291-2.796,0.438-3.917,0.438c-1.413,0-2.441-0.286-3.082-0.852
		c-0.334-0.325-0.561-0.715-0.693-1.188c-0.111-0.421-0.167-0.979-0.167-1.688"/>
	<path fill="#494949" d="M54.748,23.569v-2.034c0.877,0.552,1.706,0.827,2.485,0.827c0.993,0,1.491-0.312,1.491-0.935
		c0-0.426-0.296-0.763-0.877-1.033l-0.901-0.43c-0.834-0.384-1.41-0.812-1.754-1.27c-0.296-0.399-0.444-0.882-0.444-1.428
		c0-0.893,0.354-1.58,1.07-2.08c0.627-0.428,1.43-0.646,2.422-0.646c0.814,0,1.608,0.168,2.364,0.504v1.92
		c-0.751-0.463-1.488-0.698-2.209-0.698c-0.992,0-1.485,0.298-1.485,0.889c0,0.235,0.101,0.441,0.304,0.598
		c0.187,0.146,0.613,0.362,1.271,0.682c0.915,0.465,1.531,0.879,1.842,1.229c0.396,0.459,0.599,1.014,0.599,1.674
		c0,0.927-0.369,1.64-1.094,2.144c-0.634,0.442-1.47,0.664-2.511,0.664C56.431,24.141,55.57,23.948,54.748,23.569"/>
	<path fill="#494949" d="M62.71,23.569v-2.034c0.885,0.552,1.716,0.827,2.493,0.827c0.993,0,1.491-0.312,1.491-0.935
		c0-0.426-0.296-0.763-0.885-1.033l-0.896-0.43c-0.836-0.384-1.414-0.812-1.752-1.27c-0.299-0.399-0.452-0.882-0.452-1.428
		c0-0.893,0.36-1.58,1.077-2.08c0.619-0.428,1.421-0.646,2.42-0.646c0.819,0,1.603,0.168,2.368,0.504v1.92
		c-0.756-0.463-1.488-0.698-2.215-0.698c-0.988,0-1.482,0.298-1.482,0.889c0,0.235,0.101,0.441,0.303,0.598
		c0.191,0.146,0.61,0.362,1.273,0.682c0.916,0.465,1.529,0.879,1.839,1.229c0.4,0.459,0.596,1.014,0.596,1.674
		c0,0.927-0.366,1.64-1.093,2.144c-0.63,0.442-1.469,0.664-2.507,0.664C64.4,24.141,63.539,23.948,62.71,23.569"/>
	<path fill="#494949" d="M79.041,19.721h-6.295c0.095,1.697,1.043,2.555,2.842,2.555c1.1,0,2.101-0.318,2.987-0.974v1.872
		c-1.029,0.623-2.142,0.933-3.327,0.933c-1.564,0-2.763-0.462-3.588-1.405c-0.719-0.807-1.076-1.908-1.076-3.278
		c0-1.57,0.458-2.811,1.386-3.729c0.812-0.793,1.842-1.193,3.087-1.193c0.877,0,1.64,0.221,2.285,0.643
		c0.568,0.371,0.987,0.868,1.263,1.488c0.296,0.659,0.436,1.677,0.436,3.052 M72.891,18.124h3.995
		c-0.099-1.281-0.719-1.922-1.861-1.922c-0.607,0-1.096,0.194-1.478,0.575C73.207,17.112,72.989,17.557,72.891,18.124"/>
	<rect x="81.339" y="9.762" fill="#494949" width="2.234" height="14.128"/>
	<path fill="#494949" d="M86.042,23.569v-2.034c0.876,0.552,1.709,0.827,2.491,0.827c0.988,0,1.485-0.312,1.485-0.935
		c0-0.426-0.292-0.763-0.881-1.033l-0.896-0.43c-0.83-0.384-1.412-0.812-1.75-1.27c-0.304-0.399-0.449-0.882-0.449-1.428
		c0-0.893,0.356-1.58,1.077-2.08c0.623-0.428,1.425-0.646,2.417-0.646c0.817,0,1.604,0.168,2.36,0.504v1.92
		c-0.746-0.463-1.487-0.698-2.199-0.698c-1.002,0-1.489,0.298-1.489,0.889c0,0.235,0.098,0.441,0.303,0.598
		c0.178,0.146,0.61,0.362,1.27,0.682c0.917,0.465,1.532,0.879,1.843,1.229c0.397,0.459,0.601,1.014,0.601,1.674
		c0,0.927-0.366,1.64-1.098,2.144c-0.636,0.442-1.471,0.664-2.506,0.664C87.724,24.141,86.872,23.948,86.042,23.569"/>
	<path fill="#494949" d="M98.299,17.402V15.48c1.164-0.627,2.359-0.938,3.564-0.938c1.319,0,2.179,0.388,2.574,1.163
		c0.198,0.392,0.304,1.114,0.304,2.18v5.818c-1.579,0.229-2.865,0.338-3.855,0.338c-1.157,0-1.978-0.23-2.479-0.709
		c-0.435-0.422-0.645-1.047-0.645-1.882c0-1.253,0.524-2.133,1.576-2.643c0.695-0.34,1.75-0.583,3.16-0.741l0.187-0.016v-0.328
		c0-0.545-0.104-0.909-0.329-1.097c-0.197-0.17-0.522-0.254-0.99-0.254C100.401,16.372,99.374,16.716,98.299,17.402 M102.729,22.175
		V19.73c-1.147,0.096-1.93,0.266-2.362,0.528c-0.373,0.229-0.553,0.567-0.553,1.025c0,0.693,0.399,1.037,1.218,1.037
		C101.484,22.325,102.046,22.275,102.729,22.175"/>
	<path fill="#494949" d="M107.467,10.587h2.297v2.388h-2.297V10.587z M107.506,14.729h2.232v9.161h-2.232V14.729z"/>
	<path fill="#494949" d="M112.613,23.886v-8.535c1.298-0.527,2.604-0.792,3.94-0.792c0.627,0,1.226,0.086,1.785,0.262v1.879
		c-0.477-0.176-0.998-0.256-1.56-0.256c-0.661,0-1.301,0.116-1.932,0.353v7.095"/>
	<rect x="120.134" y="9.762" fill="#494949" width="2.236" height="14.128"/>
	<path fill="#494949" d="M125.23,10.587h2.299v2.388h-2.299V10.587z M125.266,14.729h2.232v9.161h-2.232V14.729z"/>
	<path fill="#494949" d="M130.382,23.886v-8.712c1.441-0.416,2.823-0.617,4.158-0.617c1.441,0,2.458,0.307,3.047,0.936
		c0.49,0.528,0.737,1.363,0.737,2.509v5.885h-2.236v-5.733c0-0.693-0.155-1.164-0.471-1.428c-0.283-0.23-0.737-0.353-1.354-0.353
		c-0.527,0-1.08,0.087-1.646,0.254v7.26"/>
	<path fill="#494949" d="M148.982,19.721h-6.297c0.093,1.697,1.039,2.555,2.832,2.555c1.11,0,2.106-0.318,2.995-0.974v1.872
		c-1.029,0.623-2.146,0.933-3.326,0.933c-1.562,0-2.761-0.462-3.591-1.405c-0.712-0.807-1.077-1.908-1.077-3.278
		c0-1.57,0.464-2.811,1.384-3.729c0.812-0.793,1.843-1.193,3.085-1.193c0.879,0,1.643,0.221,2.289,0.643
		c0.569,0.371,0.985,0.868,1.27,1.488c0.285,0.659,0.431,1.677,0.431,3.052 M142.832,18.124h3.997
		c-0.102-1.281-0.721-1.922-1.87-1.922c-0.601,0-1.092,0.194-1.475,0.575C143.145,17.112,142.932,17.557,142.832,18.124"/>
	<path fill="#494949" d="M150.832,23.569v-2.034c0.88,0.552,1.71,0.827,2.49,0.827c0.99,0,1.487-0.312,1.487-0.935
		c0-0.426-0.3-0.763-0.886-1.033l-0.896-0.43c-0.826-0.384-1.416-0.812-1.752-1.27c-0.296-0.399-0.444-0.882-0.444-1.43
		c0-0.891,0.352-1.58,1.072-2.078c0.623-0.43,1.425-0.648,2.419-0.648c0.817,0,1.608,0.168,2.358,0.504v1.92
		c-0.745-0.463-1.487-0.696-2.212-0.696c-0.981,0-1.479,0.296-1.479,0.887c0,0.237,0.102,0.442,0.299,0.598
		c0.187,0.145,0.617,0.361,1.275,0.681c0.917,0.465,1.532,0.882,1.843,1.229c0.396,0.46,0.592,1.013,0.592,1.673
		c0,0.926-0.362,1.642-1.087,2.145c-0.64,0.441-1.474,0.664-2.51,0.664C152.516,24.141,151.653,23.948,150.832,23.569"/>
</g>
</svg>
