<?xml version="1.0" encoding="utf-8"?>
<!-- Generator: Adobe Illustrator 16.0.0, SVG Export Plug-In . SVG Version: 6.00 Build 0)  -->
<!DOCTYPE svg PUBLIC "-//W3C//DTD SVG 1.0//EN" "http://www.w3.org/TR/2001/REC-SVG-20010904/DTD/svg10.dtd">
<svg version="1.0" id="Layer_1" xmlns="http://www.w3.org/2000/svg" xmlns:xlink="http://www.w3.org/1999/xlink" x="0px" y="0px"
	 width="157px" height="26px" viewBox="0 0 157 26" enable-background="new 0 0 157 26" xml:space="preserve">
<g>
	<path fill-rule="evenodd" clip-rule="evenodd" fill="#535353" d="M21.715,10.695V4.542c-0.263-0.324-0.607-0.601-1.036-0.828
		c-0.42-0.236-0.936-0.354-1.549-0.354c-0.884,0-1.618,0.323-2.205,0.971c-0.577,0.638-0.865,1.702-0.865,3.189
		c0,1.182,0.271,2.131,0.812,2.849c0.542,0.707,1.304,1.062,2.283,1.062c0.561,0,1.086-0.087,1.574-0.263
		C21.221,10.993,21.549,10.836,21.715,10.695 M27.267,12.665l-3.163,2.584c-0.482-0.157-0.901-0.407-1.262-0.749
		c-0.356-0.341-0.594-0.729-0.708-1.166l-2.466,1.402c-0.098,0.054-0.263,0.105-0.499,0.159c-0.227,0.061-0.419,0.092-0.577,0.093
		c-1.898,0-3.469-0.653-4.712-1.957c-1.233-1.304-1.85-3.114-1.85-5.432c0-2.206,0.643-4.021,1.929-5.447
		C15.244,0.718,16.886,0,18.879,0c0.797,0,1.542,0.159,2.232,0.474c0.691,0.314,1.146,0.595,1.364,0.839l2.284-0.827l0.802,0.236
		v9.003c0,0.788,0.134,1.414,0.405,1.878C26.248,12.064,26.68,12.419,27.267,12.665z"/>
	<polyline fill="#535353" points="43.461,1.876 36.794,14.83 33.591,14.83 27.292,1.876 30.927,0.159 35.311,9.776 40.035,0.159 
		43.461,1.876 	"/>
	<path fill-rule="evenodd" clip-rule="evenodd" fill="#535353" d="M53.673,10.695V4.542c-0.263-0.324-0.609-0.601-1.039-0.828
		c-0.419-0.236-0.937-0.354-1.549-0.354c-0.883,0-1.618,0.323-2.205,0.971c-0.576,0.638-0.865,1.702-0.865,3.189
		c0,1.182,0.271,2.131,0.813,2.849c0.542,0.707,1.303,1.062,2.284,1.062c0.561,0,1.084-0.087,1.574-0.263
		C53.176,10.993,53.505,10.836,53.673,10.695 M59.222,12.665l-3.163,2.584c-0.481-0.157-0.9-0.407-1.26-0.749
		c-0.358-0.341-0.594-0.729-0.708-1.166l-2.466,1.402c-0.098,0.054-0.264,0.105-0.501,0.159c-0.228,0.061-0.419,0.092-0.576,0.093
		c-1.899,0-3.469-0.653-4.712-1.957c-1.233-1.304-1.85-3.114-1.85-5.432c0-2.206,0.644-4.021,1.928-5.447
		C47.201,0.718,48.841,0,50.836,0c0.797,0,1.539,0.159,2.231,0.474s1.146,0.595,1.365,0.839l2.282-0.827l0.802,0.236v9.003
		c0,0.788,0.136,1.414,0.406,1.878C58.202,12.064,58.636,12.419,59.222,12.665z"/>
	<path fill="#535353" d="M74.394,14.83h-4.003V5.971c0-0.515-0.184-0.97-0.553-1.365c-0.366-0.401-0.932-0.603-1.691-0.603
		c-0.727,0-1.334,0.154-1.824,0.459c-0.49,0.298-0.88,0.577-1.168,0.84v9.528h-4.017V0.722l4.017-0.288v1.379l1.667-0.959
		c0.498-0.29,1.005-0.495,1.521-0.617c0.524-0.131,1.045-0.196,1.562-0.196c1.392,0,2.483,0.434,3.28,1.299
		c0.805,0.858,1.208,1.99,1.208,3.399V14.83"/>
	<polyline fill="#535353" points="90.432,14.83 77.453,14.83 77.453,12.337 85.089,4.174 77.871,4.174 77.871,0.722 90.051,0.722 
		90.051,3.203 82.36,11.378 90.432,11.378 90.432,14.83 	"/>
	<path fill-rule="evenodd" clip-rule="evenodd" fill="#535353" d="M101.806,10.695V4.542c-0.266-0.324-0.611-0.601-1.038-0.828
		C100.346,3.478,99.83,3.36,99.22,3.36c-0.886,0-1.618,0.323-2.205,0.971c-0.577,0.638-0.867,1.702-0.867,3.189
		c0,1.182,0.272,2.131,0.815,2.849c0.54,0.707,1.301,1.062,2.281,1.062c0.562,0,1.087-0.087,1.575-0.263
		C101.311,10.993,101.638,10.836,101.806,10.695 M107.356,12.665l-3.163,2.584c-0.482-0.157-0.904-0.407-1.262-0.749
		c-0.356-0.341-0.595-0.729-0.708-1.166l-2.467,1.402c-0.098,0.054-0.263,0.105-0.498,0.159c-0.229,0.061-0.421,0.092-0.577,0.093
		c-1.898,0-3.472-0.653-4.711-1.957c-1.233-1.304-1.854-3.114-1.854-5.432c0-2.206,0.645-4.021,1.93-5.447
		C95.336,0.718,96.976,0,98.969,0c0.797,0,1.539,0.159,2.232,0.474c0.689,0.314,1.145,0.595,1.364,0.839l2.284-0.827l0.8,0.236
		v9.003c0,0.788,0.135,1.414,0.406,1.878C106.337,12.064,106.771,12.419,107.356,12.665z"/>
	<path fill="#B9B9B9" d="M56.268,22.812c0,0,14.963,2.176,30.543,2.473c38.426,0.731,58.159-3.351,58.159-7.901
		c0-3.809-5.197-10.438-46.682-11.229c4.244,1.379,15.162,1.938,15.162,8.896C113.45,21.175,83.26,23.327,56.268,22.812"/>
	<path fill="#C2C2C2" d="M127.877,9.543c0.538-2.777,3.228-4.589,6.003-4.049c2.778,0.541,4.592,3.228,4.052,6.005
		c-0.54,2.778-3.228,4.59-6.006,4.05C129.15,15.01,127.337,12.32,127.877,9.543"/>
	<path fill="#8B8B8B" d="M18.605,25.387c-0.356,0.163-0.744,0.304-1.166,0.426c-0.419,0.119-0.826,0.18-1.218,0.18
		c-0.507,0-0.973-0.07-1.394-0.211c-0.423-0.139-0.782-0.35-1.078-0.629c-0.301-0.28-0.531-0.633-0.695-1.055
		c-0.162-0.426-0.244-0.922-0.244-1.49c0-1.039,0.303-1.859,0.908-2.457c0.608-0.604,1.442-0.904,2.503-0.904
		c0.369,0,0.745,0.046,1.13,0.136c0.388,0.086,0.804,0.237,1.249,0.449v1.025h-0.078c-0.091-0.07-0.221-0.16-0.393-0.274
		c-0.172-0.113-0.342-0.209-0.506-0.284c-0.201-0.09-0.431-0.165-0.687-0.223c-0.254-0.062-0.542-0.093-0.865-0.093
		c-0.728,0-1.305,0.234-1.729,0.703c-0.422,0.468-0.634,1.1-0.634,1.895c0,0.843,0.22,1.498,0.665,1.967
		c0.441,0.466,1.044,0.697,1.807,0.697c0.279,0,0.558-0.025,0.834-0.082c0.279-0.054,0.524-0.125,0.734-0.214v-1.594h-1.743v-0.759
		h2.599V25.387"/>
	<path fill-rule="evenodd" clip-rule="evenodd" fill="#8B8B8B" d="M27.73,21.194c0-0.188-0.033-0.352-0.101-0.495
		c-0.064-0.145-0.171-0.267-0.324-0.366c-0.125-0.085-0.271-0.144-0.445-0.176c-0.171-0.033-0.373-0.052-0.607-0.052h-1.017v2.455
		h0.874c0.273,0,0.512-0.022,0.716-0.07c0.205-0.049,0.378-0.141,0.52-0.271c0.131-0.122,0.226-0.262,0.288-0.419
		C27.698,21.64,27.73,21.437,27.73,21.194 M29.752,25.865H28.63l-2.176-2.586h-1.218v2.586h-0.864v-6.502h1.821
		c0.392,0,0.721,0.026,0.981,0.078c0.263,0.051,0.499,0.139,0.708,0.271c0.235,0.147,0.419,0.335,0.55,0.563
		c0.135,0.225,0.201,0.51,0.201,0.855c0,0.469-0.117,0.862-0.354,1.179c-0.235,0.315-0.561,0.552-0.975,0.711L29.752,25.865z"/>
	<path fill="#8B8B8B" d="M39.742,23.254c0,0.472-0.052,0.884-0.159,1.236c-0.101,0.35-0.269,0.64-0.507,0.873
		c-0.223,0.222-0.485,0.383-0.784,0.484C37.991,25.948,37.643,26,37.244,26c-0.409,0-0.763-0.054-1.065-0.16
		c-0.304-0.108-0.559-0.268-0.765-0.477c-0.235-0.238-0.406-0.528-0.512-0.864c-0.101-0.337-0.152-0.752-0.152-1.245v-3.891h0.864
		v3.935c0,0.353,0.024,0.631,0.07,0.834c0.05,0.204,0.131,0.389,0.244,0.554c0.128,0.189,0.302,0.333,0.521,0.428
		c0.22,0.098,0.484,0.145,0.794,0.145c0.311,0,0.576-0.046,0.794-0.139c0.219-0.096,0.393-0.239,0.523-0.434
		c0.113-0.165,0.194-0.354,0.24-0.568c0.05-0.215,0.074-0.48,0.074-0.798v-3.956h0.866V23.254"/>
	<path fill-rule="evenodd" clip-rule="evenodd" fill="#8B8B8B" d="M49.002,21.35c0-0.225-0.041-0.42-0.118-0.584
		c-0.08-0.167-0.199-0.303-0.357-0.406c-0.141-0.092-0.301-0.154-0.481-0.192c-0.179-0.041-0.404-0.062-0.678-0.062h-0.854v2.599
		h0.728c0.352,0,0.636-0.03,0.853-0.092c0.218-0.064,0.396-0.165,0.534-0.302c0.134-0.14,0.232-0.286,0.288-0.441
		C48.972,21.715,49.002,21.542,49.002,21.35 M49.901,21.328c0,0.287-0.053,0.556-0.152,0.804c-0.1,0.244-0.24,0.456-0.422,0.638
		c-0.223,0.225-0.486,0.394-0.793,0.507c-0.306,0.11-0.692,0.165-1.156,0.165h-0.865v2.424h-0.866v-6.502h1.766
		c0.391,0,0.72,0.034,0.99,0.102c0.271,0.063,0.513,0.164,0.723,0.305c0.245,0.167,0.437,0.373,0.57,0.62
		C49.833,20.637,49.9,20.95,49.901,21.328z"/>
	<path fill-rule="evenodd" clip-rule="evenodd" fill="#8B8B8B" d="M60.064,22.617c0-0.843-0.188-1.495-0.568-1.953
		c-0.378-0.459-0.895-0.689-1.548-0.689c-0.662,0-1.182,0.23-1.56,0.689c-0.376,0.458-0.562,1.11-0.562,1.953
		c0,0.852,0.191,1.507,0.574,1.962c0.385,0.45,0.899,0.675,1.548,0.675c0.646,0,1.159-0.225,1.541-0.675
		C59.874,24.124,60.064,23.469,60.064,22.617 M60.144,20.11c0.266,0.292,0.468,0.647,0.607,1.07c0.143,0.421,0.214,0.9,0.214,1.437
		c0,0.534-0.073,1.015-0.22,1.441c-0.142,0.421-0.342,0.773-0.602,1.055c-0.267,0.294-0.585,0.516-0.952,0.665
		C58.828,25.927,58.412,26,57.942,26c-0.455,0-0.873-0.075-1.249-0.228c-0.372-0.149-0.689-0.369-0.951-0.659
		c-0.261-0.287-0.465-0.642-0.607-1.062c-0.139-0.418-0.209-0.896-0.209-1.435c0-0.53,0.07-1.005,0.209-1.423
		c0.139-0.423,0.344-0.785,0.612-1.084c0.255-0.285,0.574-0.504,0.951-0.655c0.382-0.152,0.797-0.228,1.244-0.228
		c0.467,0,0.883,0.077,1.255,0.23C59.568,19.611,59.884,19.828,60.144,20.11z"/>
</g>
</svg>
