<?xml version="1.0" encoding="utf-8"?>
<!-- Generator: Adobe Illustrator 16.0.0, SVG Export Plug-In . SVG Version: 6.00 Build 0)  -->
<!DOCTYPE svg PUBLIC "-//W3C//DTD SVG 1.0//EN" "http://www.w3.org/TR/2001/REC-SVG-20010904/DTD/svg10.dtd">
<svg version="1.0" id="Layer_1" xmlns="http://www.w3.org/2000/svg" xmlns:xlink="http://www.w3.org/1999/xlink" x="0px" y="0px"
	 width="157px" height="26px" viewBox="0 0 157 26" enable-background="new 0 0 157 26" xml:space="preserve">
<g opacity="0.5">
	<path fill="#5F5F5F" d="M76.232,12.418c0.532,0.097,1.042,0.286,1.535,0.503c0.56,0.249,0.714,0.996,1.223,1.29
		c0.584,0.042,1.016-0.229,1.53-0.232c0.431-0.006,0.885-0.021,1.277,0.186c-0.739,0.045-1.64,0.066-2.333,0.354
		c-0.067,0.024-0.088,0.23-0.199,0.326c-0.134,0.114-0.357,0.122-0.386,0.187c-0.053,0.117,0.32,0.329,0.194,0.502
		c-0.411-0.024-0.885,0.04-1.211-0.268c-0.259-0.221-0.266-0.577-0.292-0.888c0.099-0.118,0.645,0.278,0.823,0.16
		c0.168-0.211-0.613-0.881-0.999-1.233C77.03,12.978,76.542,12.81,76.232,12.418L76.232,12.418z"/>
	<path fill="#676767" d="M100.406,0.506c0.195-0.037,0.301,0.094,0.149,0.259c-0.085,0.092-0.178,0.228-0.182,0.381
		c-0.003,0.123,0.143,0.294,0.1,0.409c-0.036,0.097-0.259,0.129-0.282,0.229c-0.034,0.15,0.081,0.341,0.029,0.476
		c-0.047,0.125-0.29,0.198-0.322,0.307c-0.067,0.23,0.035,0.451,0.01,0.522c-0.081,0.23-0.348,0.172-0.403,0.332
		s0.145,0.403,0.104,0.519c-0.04,0.116-0.474,0.155-0.517,0.395c-0.018,0.081,0.146,0.366,0.089,0.449
		c-0.086,0.127-0.312,0.184-0.346,0.29c-0.049,0.151-0.021,0.571-0.064,0.637c-0.081,0.126-0.525,0.204-0.598,0.316
		s0.131,0.339,0.15,0.52c-0.276,0.57-0.996,0.618-1.231,1.218c-0.142,0.353-0.376,0.688-0.539,1.06
		c-0.046,0.103,0.008,0.26-0.043,0.358c-0.16,0.309-0.393,0.554-0.521,0.874c-0.088,0.22-0.101,0.495-0.169,0.712
		c-0.099,0.24-0.262,0.447-0.357,0.688c-0.173,0.436-0.275,0.906-0.449,1.34c-0.101,0.119-0.399,0.173-0.494,0.296
		c-0.214,0.279-0.516,0.78-0.409,0.928c0.247,0.208,0.495,0.454,0.827,0.505c0.865,0.125,1.77-0.068,2.609,0.223
		c0.123,0.043,0.12,0.186,0.014,0.259c-0.108,0.075-0.195,0.106-0.237,0.267c-0.042,0.159,0.144,0.329,0.138,0.404
		c-0.007,0.076-0.182,0.009-0.218,0.149s0.153,0.226,0.137,0.335c-0.017,0.11-0.371,0.149-0.417,0.225
		c-0.046,0.074,0.069,0.261,0.011,0.358c-0.06,0.098-0.549-0.162-0.66-0.065c-0.195,0.17,0.117,0.501,0.04,0.574
		s-0.292-0.236-0.429-0.223c-0.121,0.013-0.104,0.278-0.345,0.301c-0.24,0.023-0.517-0.511-0.786-0.457
		c-0.291,0.059,0.235,0.534,0.044,0.615c-0.192,0.082-0.437-0.225-0.621-0.37c-0.228-0.178-0.329-0.474-0.539-0.691
		c-0.443-0.471-1.131-0.659-1.722-0.86c-1.02-0.329-1.964-0.755-2.912-1.248c-0.478-0.242-1.032-0.592-1.593-0.558
		c-0.578-0.053-1.025,0.459-1.544,0.632c0.105-0.403,0.481-0.728,0.768-1.015c0.358-0.354,0.322-0.924,0.761-1.204
		c0.535-0.285,1.288-0.253,1.874-0.313c-0.046-0.839-0.505-1.645-0.948-2.335c-0.256-0.393-0.676-0.787-0.675-1.287
		c0.146-1.519,0.705-3.044,1.884-4.018c0.223-0.045,0.028,0.364,0.074,0.473c0.046,0.109,0.164,0.083,0.244,0.112
		s-0.077,0.214-0.048,0.29c0,0,0.185,0.021,0.253,0.167c0.016,0.033-0.065,0.231-0.009,0.396c0.026,0.075,0.178,0.082,0.209,0.173
		c0.041,0.122-0.038,0.333,0.007,0.466c0.034,0.1,0.19,0.123,0.224,0.22c0.03,0.089-0.119,0.354-0.092,0.434
		c0.092,0.269,0.343,0.294,0.36,0.321c0.392,0.611,0.548,1.33,0.646,2.04c-0.073,0.376-0.128,1.193,0.186,1.106
		c0.501-0.222,1.306-2.257,1.509-2.668c0.446-0.844,0.897-1.721,1.628-2.359C96.586,3.701,98.494,2.099,100.406,0.506L100.406,0.506
		z"/>
	<path fill="#141414" d="M58.511,16.957c2.365-2.557,5.588-0.633,5.532,2.688c-0.052,3.094-3.327,5.188-5.264,2.995L58.774,25.5
		h-2.401v-9.531l2.059,0.008L58.511,16.957L58.511,16.957z M58.797,18.952l0.006,1.536c0.002,0.7,0.724,1.221,1.381,1.214
		c1.127-0.013,1.577-1.143,1.554-2.116c-0.022-0.947-0.471-2.02-1.579-1.983C59.479,17.625,58.794,18.274,58.797,18.952
		L58.797,18.952z M64.641,13.741h2.278v9.579l-2.278-0.023V13.741L64.641,13.741z M67.76,15.969l2.277,0.011v3.998
		c0,2.439,2.376,1.792,2.376,0.442v-4.451h2.327v7.328h-1.964l-0.113-0.993c-0.53,0.7-1.368,1.126-2.26,1.15
		c-2.188,0.06-2.644-1.806-2.644-3.589V15.969L67.76,15.969z M82.564,23.297l-2.277-0.01v-3.999c0-2.438-2.377-1.792-2.377-0.441
		v4.45h-2.327v-7.328h1.964l0.113,0.993c0.53-0.7,1.368-1.126,2.26-1.15c2.188-0.06,2.645,1.806,2.645,3.589V23.297L82.564,23.297z
		 M88.251,16.805l0.04-0.837h2.14l0.002,7.353h-2.17l-0.107-0.966c-0.695,0.627-1.079,0.983-2.081,1.003
		c-1.616,0.031-2.837-1.302-3.011-2.848C82.651,16.834,86.073,14.16,88.251,16.805L88.251,16.805z M86.205,17.73
		c-0.533,0.244-0.822,0.819-0.885,1.372c-0.076,0.692-0.045,1.479,0.442,2.031c0.454,0.515,1.29,0.597,1.843,0.186
		c0.451-0.336,0.573-0.926,0.56-1.454c-0.015-0.58,0.069-1.224-0.29-1.729C87.506,17.619,86.77,17.472,86.205,17.73L86.205,17.73z"
		/>
</g>
</svg>
