<?xml version="1.0" encoding="utf-8"?>
<!-- Generator: Adobe Illustrator 16.0.0, SVG Export Plug-In . SVG Version: 6.00 Build 0)  -->
<!DOCTYPE svg PUBLIC "-//W3C//DTD SVG 1.0//EN" "http://www.w3.org/TR/2001/REC-SVG-20010904/DTD/svg10.dtd">
<svg version="1.0" id="CM" xmlns="http://www.w3.org/2000/svg" xmlns:xlink="http://www.w3.org/1999/xlink" x="0px" y="0px"
	 width="157px" height="26px" viewBox="0 0 157 26" enable-background="new 0 0 157 26" xml:space="preserve">
<g>
	<path fill="#0060A9" d="M152.275,23.719c0-0.328-0.267-0.404-0.542-0.404h-0.651v1.535h0.213v-0.707h0.245l0.459,0.707h0.257
		l-0.459-0.707C152.068,24.133,152.275,24.025,152.275,23.719z M151.541,23.922h-0.246v-0.393h0.395
		c0.166,0,0.374,0.029,0.374,0.189C152.062,23.962,151.73,23.922,151.541,23.922z"/>
	<path fill="#0060A9" d="M151.589,22.714c-0.77,0-1.39,0.599-1.39,1.378s0.62,1.399,1.39,1.399c0.784,0,1.405-0.62,1.405-1.399
		S152.373,22.714,151.589,22.714z M151.589,25.277c-0.626,0-1.178-0.524-1.178-1.186c0-0.658,0.552-1.187,1.178-1.187
		c0.641,0,1.192,0.528,1.192,1.187C152.781,24.753,152.229,25.277,151.589,25.277z"/>
	<g>
		<path fill="#0060A9" d="M139.766,22.873c-1.396-0.401-3.107-0.428-4.947-0.076c-1.896,0.36-3.885,1.12-5.754,2.192
			c-0.283,0.163-0.562,0.333-0.836,0.511h14.764c-0.047-0.111-0.098-0.221-0.151-0.324C142.258,24.08,141.192,23.283,139.766,22.873
			z"/>
		<path fill="#0060A9" d="M143.559,21.592c-0.703-1.32-1.982-2.279-3.702-2.772c-1.681-0.485-3.739-0.518-5.956-0.095
			c-2.281,0.435-4.674,1.348-6.92,2.641c-1.695,0.973-3.24,2.119-4.569,3.384V25.5h4.967c0.578-0.457,1.194-0.889,1.843-1.295
			c2.328-1.459,4.912-2.441,7.277-2.768c2.344-0.322,4.359,0.013,5.68,0.945c1.033,0.73,1.611,1.787,1.723,3.117h0.174l0.062-0.628
			C144.262,23.65,144.065,22.546,143.559,21.592z"/>
		<path fill="#0060A9" d="M122.949,14.506c-0.181,0.105-0.36,0.21-0.538,0.317v2.103c5.116-3.74,10.654-5.042,15.215-5.336
			C133.783,10.483,128.25,11.458,122.949,14.506z"/>
		<path fill="#0060A9" d="M139.886,12.076c0.183,0.153,0.36,0.314,0.526,0.488c0,0,1.214,1.258,1.615,2.448l-0.389-0.615
			c-0.617-0.971-1.498-1.725-2.588-2.259c-4.941,0.411-11.221,1.947-16.64,6.421v0.338c1.45-1.157,3.014-2.163,4.655-2.998
			c1.756-0.893,3.527-1.553,5.27-1.962c1.753-0.412,3.392-0.554,4.877-0.419c2.852,0.257,4.896,1.504,5.916,3.612
			c0,0,0.781,1.583,0.851,3.191l-0.22-0.917c-0.114-0.472-0.283-0.925-0.508-1.344c-0.778-1.461-2.195-2.525-4.098-3.07
			c-1.859-0.535-4.138-0.57-6.588-0.104c-2.527,0.482-5.176,1.491-7.658,2.92c-0.873,0.5-1.707,1.041-2.497,1.619v4.944
			c0.875-0.91,1.853-1.771,2.929-2.568c1.584-1.181,3.306-2.173,5.11-2.95c3.628-1.562,7.177-2.051,9.737-1.346
			c2.371,0.658,3.784,2.293,4.086,4.729c0,0,0.162,1.558-0.148,3.266h3.283V12.4C146.527,12.252,143.66,11.847,139.886,12.076z"/>
		<g>
			<path fill="#0060A9" d="M127.271,7.359c-1.592,0.272-3.24,0.785-4.86,1.505v0.623c2.167-1.126,4.344-1.859,6.416-2.319
				C128.32,7.205,127.803,7.268,127.271,7.359z"/>
			<path fill="#0060A9" d="M122.411,0.5v6.667c0,0,2.812-0.971,5.798-0.518l-1.189,0.046c-1.462,0.055-3.035,0.393-4.608,0.977v0.74
				c2.448-1.125,5.327-1.696,7.827-1.521c6.262-1.06,11.247,0.233,11.247,0.233c-0.972-0.163-4.802-0.702-9.522,0.012
				c0.446,0.104,1.156,0.315,1.874,0.734l-0.583-0.208c-0.572-0.204-1.193-0.348-1.855-0.435c-2.842,0.484-5.971,1.433-8.987,3.188
				v0.369c4.545-2.482,9.435-3.412,12.981-2.136c5.679-0.409,9.857,0.747,9.857,0.747c-0.953-0.161-4.346-0.641-8.717-0.233
				c0.245,0.136,1.309,0.757,1.761,1.393l-0.259-0.209c-0.592-0.473-1.283-0.849-2.055-1.129c-4.121,0.45-9.032,1.704-13.569,4.726
				v0.341c0.39-0.252,0.786-0.498,1.188-0.732c3.242-1.897,6.666-3.056,9.641-3.262c2.336-0.162,4.339,0.264,5.887,1.237
				c4.699-0.094,8.059,0.812,8.281,0.873V0.5H122.411z"/>
		</g>
		<path fill="#0060A9" d="M122.411,11.242v1.363c3.999-2.379,8.13-3.449,11.761-3.845C130.841,8.234,126.564,9.093,122.411,11.242z"
			/>
	</g>
	<g>
		<path fill="#0060A9" d="M56.314,6.238h3.144c0.548,1.179,5.07,10.932,5.07,10.932h-2.869l-1.187-2.55h-5.208l-1.152,2.552h-2.885
			l0,0L56.314,6.238z M59.573,12.624l-1.687-3.745l-1.706,3.745H59.573L59.573,12.624z"/>
		<path fill="#0060A9" d="M93.453,8.683c-1.824,0-2.707,0.957-2.707,0.957l-0.15-0.79h-2.451c0.092,0.295,0.259,0.853,0.259,1.336
			v6.988h2.423V12.34c0-1.314,0.803-1.985,2.627-1.985c1.002,0,1.611,0.333,1.611,1.985v4.834h2.423V12.34
			C97.487,9.853,96.686,8.683,93.453,8.683z"/>
		<path fill="#0060A9" d="M104.355,8.708c-4.127,0-5.049,1.939-5.049,4.31c0,2.392,0.9,4.33,5.25,4.33
			c1.594,0,3.076-0.295,3.416-0.367c0.064-0.42,0.204-1.342,0.252-1.656c-0.229,0.023-2.113,0.369-3.667,0.369
			c-2.017,0-2.563-0.768-2.726-1.838h6.984v-0.837C108.816,10.028,107.225,8.708,104.355,8.708z M101.831,12.181
			c0.143-1.035,0.607-1.818,2.524-1.818c1.409,0,1.916,0.903,1.996,1.818H101.831z"/>
		<path fill="#0060A9" d="M22.436,8.702c-3.031,0-5.051,1.336-5.051,4.326c0,3.011,2.02,4.33,5.051,4.33
			c3.031,0,5.048-1.318,5.048-4.33C27.484,10.038,25.467,8.702,22.436,8.702z M22.436,15.704c-2.027,0-2.625-1.003-2.625-2.676
			c0-1.649,0.599-2.654,2.625-2.654c2.018,0,2.625,1.005,2.625,2.654C25.061,14.701,24.454,15.704,22.436,15.704z"/>
		<path fill="#0060A9" d="M49.409,11.36c0-1.675-1.796-2.677-4.441-2.677c-1.363,0-3.04,0.529-3.618,0.727
			c-0.056,0.354-0.229,1.454-0.263,1.685c0.528-0.116,2.596-0.74,3.881-0.74c1.328,0,2.017,0.453,2.017,1.105v0.713
			c0,0-1.632-0.166-2.219-0.166c-2.645,0-4.245,0.95-4.245,2.675c0,2.176,2.41,2.656,3.635,2.656c1.661,0,2.526-0.446,2.931-0.815
			l0.139,0.651h2.432c-0.031-0.13-0.249-0.707-0.249-1.488V11.36z M46.985,14.014c0,1.538-1.468,1.672-2.829,1.672
			c-0.464,0-1.205-0.099-1.205-1.004c0-0.602,0.821-1.002,1.814-1.002h2.219V14.014L46.985,14.014z"/>
		<path fill="#0060A9" d="M10.622,5.914c2.842-0.002,4.615,0.895,5.594,2.315l0,0l-2.542,0.977C13.123,8.436,12.2,7.92,10.657,7.912
			l0,0H10.59C9.072,7.919,8.159,8.403,7.604,9.144l0,0C7.118,9.798,6.85,10.633,6.85,11.58l0,0v0.16H6.849
			c0.01,0.907,0.277,1.773,0.755,2.41l0,0c0.555,0.74,1.467,1.222,2.984,1.23l0,0l0.067-0.002c1.518-0.007,2.436-0.502,2.989-1.252
			l0,0l2.571,0.98c-0.984,1.395-2.773,2.25-5.582,2.25l0,0c-0.005,0-0.009,0-0.014,0l0,0c-2.499,0.001-4.179-0.661-5.206-1.795l0,0
			c-0.933-1.017-1.409-2.378-1.408-3.88l0,0V11.58c0-1.468,0.478-2.832,1.408-3.847l0,0C6.441,6.603,8.119,5.914,10.622,5.914
			L10.622,5.914z"/>
		<path fill="#0060A9" d="M81.127,15.855V6.243h-2.426v9.613c0,0.586,0.204,1.178,0.254,1.318h2.427
			C81.344,17.035,81.127,16.469,81.127,15.855z"/>
		<path fill="#0060A9" d="M73.021,12.32c0.009-1.287,0.951-1.965,2.625-1.965c0.276,0,1.374,0.144,1.846,0.2
			c-0.028-0.213-0.196-1.254-0.265-1.674c-0.344-0.064-1.119-0.198-1.581-0.198c-1.42,0-2.219,0.52-2.666,0.918l-0.206-0.75H70.34
			c0.046,0.168,0.252,0.733,0.256,1.317v7.005h2.425L73.021,12.32L73.021,12.32z"/>
		<path fill="#0060A9" d="M34.355,8.692c-1.517,0-2.688,0.887-2.688,0.887s-0.129-0.494-0.182-0.719h-2.44
			c0.087,0.298,0.256,0.882,0.256,1.504v9.458h2.425v-3.289c0.485,0.354,1.396,0.814,2.628,0.814c4.062,0,4.648-1.936,4.648-4.328
			C39.004,10.65,38.417,8.692,34.355,8.692z M34.355,15.695c-2.064,0-2.628-1.171-2.628-2.675c0.039-1.603,0.564-2.655,2.628-2.655
			c1.861,0,2.226,1.169,2.226,2.655C36.581,14.524,36.216,15.695,34.355,15.695z"/>
		<path fill="#0060A9" d="M117.559,9.127v1.886c-0.475-0.254-0.97-0.448-1.484-0.578c-0.516-0.13-1.031-0.195-1.549-0.195
			c-0.575,0-1.01,0.07-1.306,0.209c-0.292,0.14-0.44,0.348-0.44,0.624c0,0.393,0.63,0.713,1.889,0.958l0.098,0.023l0.738,0.147
			c0.942,0.188,1.631,0.487,2.068,0.903c0.438,0.415,0.656,0.978,0.656,1.68c0,0.853-0.331,1.492-1,1.916
			c-0.667,0.424-1.672,0.639-3.011,0.639c-0.594,0-1.203-0.043-1.825-0.131c-0.623-0.086-1.256-0.211-1.896-0.385v-1.889
			c0.57,0.271,1.15,0.476,1.743,0.619c0.59,0.146,1.161,0.217,1.714,0.217c0.604,0,1.062-0.076,1.376-0.225
			c0.312-0.148,0.466-0.359,0.466-0.641c0-0.273-0.109-0.486-0.33-0.635c-0.22-0.147-0.745-0.304-1.574-0.472l-0.713-0.132
			c-0.988-0.184-1.708-0.479-2.162-0.875c-0.451-0.397-0.678-0.934-0.678-1.601c0-0.796,0.342-1.416,1.032-1.858
			c0.687-0.442,1.654-0.663,2.9-0.663c0.56,0,1.115,0.038,1.671,0.112C116.498,8.86,117.035,8.975,117.559,9.127z"/>
		<path fill="#0060A9" d="M85.978,15.855v-7.01h-2.425v7.01c0,0.621,0.23,1.232,0.264,1.318h2.416
			C86.189,17.016,85.978,16.453,85.978,15.855z M84.757,8.209c0.527,0,0.885-0.071,1.081-0.216c0.194-0.144,0.29-0.406,0.29-0.782
			c0-0.362-0.095-0.615-0.28-0.758c-0.19-0.14-0.545-0.212-1.07-0.212c-0.535,0-0.895,0.073-1.086,0.22
			c-0.188,0.147-0.285,0.409-0.285,0.787c0,0.363,0.094,0.613,0.275,0.751C83.867,8.139,84.225,8.209,84.757,8.209z"/>
		<path fill="#0060A9" d="M68.167,15.855v-7.01h-2.424v7.01c0,0.621,0.23,1.232,0.264,1.318h2.417
			C68.38,17.016,68.167,16.453,68.167,15.855z M66.948,8.209c0.525,0,0.884-0.071,1.079-0.216c0.194-0.144,0.292-0.406,0.292-0.782
			c0-0.362-0.095-0.615-0.281-0.758c-0.192-0.14-0.545-0.212-1.071-0.212c-0.534,0-0.894,0.073-1.086,0.22
			c-0.188,0.147-0.286,0.409-0.286,0.787c0,0.363,0.092,0.613,0.275,0.751C66.058,8.139,66.416,8.209,66.948,8.209z"/>
	</g>
</g>
</svg>
