<?xml version="1.0" encoding="utf-8"?>
<!-- Generator: Adobe Illustrator 23.0.2, SVG Export Plug-In . SVG Version: 6.00 Build 0)  -->
<svg version="1.1" id="Capa_2" xmlns="http://www.w3.org/2000/svg" xmlns:xlink="http://www.w3.org/1999/xlink" x="0px" y="0px"
	 viewBox="0 0 574.8 304" style="enable-background:new 0 0 574.8 304;" xml:space="preserve">
<style type="text/css">
	.st0{fill:#0D2B60;}
	.st1{fill:#FFFFFF;}
	.st2{fill:#D6430D;}
	.st3{fill:#F5A300;}
	.st4{fill:#AABC14;}
</style>
<g id="Boliviana">
	<g>
		<path class="st0" d="M574.3,279.7c2,6.6-8.4,17.8-8.4,23.7c-2,0-4,0-6,0c1.1-3.9,2.4-6.9,4.2-11.2c1.8-4.4,7.5-12.3,0.5-14
			c-14.3-3.2-15.3,17.2-20.5,25.1c-1.9,0-3.7,0-5.6,0c3.8-9.4,7.7-18.7,11.6-27.9c1.5,0,3.1,0,4.7,0c1.8-0.1,0.2,0.4,0.5,1.4
			C561.2,275.5,572.7,274.2,574.3,279.7z"/>
		<path class="st0" d="M539.4,279.3c1.8,4.2-4.5,17.2-7.4,20c-5.8,5.4-19.3,6.2-25.1,0.5c2-12.2,5.4-23.3,20-24.2
			C530.7,275.3,538,276,539.4,279.3z M533.3,280.2c-12.7-6.8-20.4,8.3-20,19.1C526.7,304.9,532,291.1,533.3,280.2z"/>
		<path class="st0" d="M539.4,268.6c0,0.5,0,0.9,0,1.4c-2.3,2.6-7.3,2.6-10.2,4.7C529.4,271.6,536,268.5,539.4,268.6z"/>
		<path class="st1" d="M513.3,299.3c-0.4-10.8,7.3-25.9,20-19.1C532,291.1,526.7,304.9,513.3,299.3z"/>
		<path class="st0" d="M512.4,270c-0.4,1.2-1.3,1.8-1.4,3.3c-2,0-4,0-6,0c0.6-1.2,1.3-2.5,1.9-3.7
			C509.3,270.1,509.6,269.4,512.4,270z"/>
		<path class="st0" d="M504,275.5c1.9,0,3.7,0,5.6,0c-3.3,9.7-7.7,18.4-11.2,27.9c-2,0-4,0-6,0C496.4,294.3,500.3,285,504,275.5z"/>
		<path class="st0" d="M484,275.5c5.3-0.2,14.6,0.4,12.6,7.4c-1.9,0-3.7,0-5.6,0c-1.6,0.2,0.5-3.2-1.4-3.7
			c-9.8-3.5-14.2,2.3-17.2,9.3c-1.2,2.9-3.8,7.2-3.3,9.3c1.4,5.4,14.4,3,15.8-1.9c1.9,0,3.7,0,5.6,0c-1.8,8.6-21.5,10.1-27,3.7
			C465.6,287.9,469,276.1,484,275.5z"/>
		<path class="st0" d="M462.6,280.2c1.6,6.9-8.4,16.8-8.4,23.3c-2.2,0-4.3,0-6.5,0c2.3-5,4.2-10.4,6.5-15.4
			c-16.3-5.6-27.6,17.2-7.9,11.6c-2,7.1-16.2,3.4-16.7-0.9c-1.2-10.7,12.7-14.9,25.6-13.5c0.8-1.4,1.5-2.9,0.9-4.7
			c-2.3-6.7-14.8,3.5-15.4-3.3C447.3,275.6,461.1,273.4,462.6,280.2z"/>
		<path class="st0" d="M433.8,269.5c1.3,1-0.8,2.6-0.9,3.7c-1.9,0-3.7,0-5.6,0c0.3-1.4,1-2.4,1.4-3.7
			C430.4,269.9,432.6,269.9,433.8,269.5z"/>
		<path class="st0" d="M426.4,275.5c1.9,0,3.7,0,5.6,0c-3.9,9.3-7.7,18.7-11.6,27.9c-1.9,0-3.7,0-5.6,0
			C418.4,293.9,422.3,284.7,426.4,275.5z"/>
		<path class="st0" d="M415.2,276.5c1.9,0,3.7,0,5.6,0c-7.4,9.2-15.1,18-22.8,27c-2.5,0-5,0-7.4,0c0.6-8.9,1.2-17.7,1.9-26.5
			c1.9,0,3.7,0,5.6,0c-0.2,7.4-1.2,14-1.4,21.4C402.5,292.6,408.9,283.4,415.2,276.5z"/>
		<path class="st0" d="M382.6,270.4c-0.4,11-0.7,21.9-0.9,33c-2,0-4,0-6,0c0.7-2.5,0.4-6.1,0.5-9.3c-4.6-0.1-9.4-1.6-13-0.5
			c-4.2,1.3-5.3,7.3-7.9,9.8c-2,0-4,0-6,0c7.4-10.9,16.2-20.4,23.3-31.6c-0.3-1-2.6-0.2-3.7-0.5
			C369.7,267.3,380.1,268.8,382.6,270.4z M376.1,290c0.4-4.2,1-10.8,0-14.9c-3.3,5.2-7.5,9.5-10.7,14.9C369,290,372.6,290,376.1,290
			z"/>
		<path class="st1" d="M376.1,275.1c1,4.1,0.4,10.7,0,14.9c-3.6,0-7.1,0-10.7,0C368.6,284.6,372.8,280.3,376.1,275.1z"/>
		<path class="st0" d="M327.3,278.3c2.8,4.1-1.4,7.7-2.3,12.6c-7.1,0-14.3,0-21.4,0c-1.5,1.8-3,5.3-2.3,7.9
			c4.3,4.1,14.3,1.3,15.8-3.3c1.9,0,3.7,0,5.6,0c-0.1,8.8-25.7,11.6-27.4,3.3c-0.8-3.8,5.5-16.6,7.4-18.6
			C307.4,275.5,323.7,273.2,327.3,278.3z M319.8,288.1c0.6-2.6,2.4-4.1,1.9-7.9c-6.9-4.7-16.6,0.4-17.2,7.9
			C309.6,288.1,314.7,288.1,319.8,288.1z"/>
		<path class="st1" d="M321.7,280.2c0.5,3.8-1.2,5.3-1.9,7.9c-5.1,0-10.2,0-15.4,0C305,280.6,314.8,275.5,321.7,280.2z"/>
		<path class="st0" d="M292.9,269c2.3-0.2,4.3-0.7,6-1.4c-3.4,11.5-9.8,24-14.4,35.8c-1.8-0.4-7.3,1-5.6-1.4
			c-5.8,2.1-17.1,2.6-18.6-2.8c-1.1-3.9,4.9-16.6,7.4-19.1c5.6-5.6,14.3-4.3,21.9-4.7C291.2,273.9,291.6,271,292.9,269z
			 M288.7,278.3c-17.1-3-21,9.6-22.3,20.9C281.8,305.7,284.6,287.9,288.7,278.3z"/>
		<path class="st1" d="M266.3,299.3c1.3-11.3,5.2-23.9,22.3-20.9C284.6,287.9,281.8,305.7,266.3,299.3z"/>
		<path class="st0" d="M235.6,280.7c1.2,6.6-8.2,16-8.4,22.8c-2.2,0-4.3,0-6.5,0c2.2-5.1,4.3-10.3,6.5-15.4
			c-10.7-1.2-19.6,1.7-18.6,10.7c1.5,2.8,8,2.1,10.7,0.9c-1.8,7-16.3,3.5-16.7-0.9c-1.1-10.4,12.4-14.9,25.1-13.5
			c1.4-0.9,2-2.8,1.4-4.7c-2.2-6.6-14.8,3.4-15.4-3.3C220.7,275.4,234.4,273.6,235.6,280.7z"/>
		<path class="st0" d="M201.7,279.7c2,6.7-8.3,17.8-8.4,23.7c-2,0-4,0-6,0c1.9-8.2,7.8-14.8,7.9-23.3c-16.2-7.6-18.6,13.7-23.7,23.3
			c-1.9,0-3.7,0-5.6,0c3.9-9.2,7.7-18.6,11.6-27.9c1.6,0,3.1,0,4.7,0c1.6-0.3,0.8,1,0.5,1.4C188.6,275.4,200,274.2,201.7,279.7z"/>
		<path class="st0" d="M167.7,279.3c2.9,6.5-8.1,18.2-8.4,24.2c-2,0-4,0-6,0c1.9-5.1,4.2-9.8,6-14.9c-15.5-6.9-27.5,16.8-7.4,11.2
			c-2,6.8-15.7,3.6-16.7-0.5c-0.8-3.1,1.8-7.9,3.7-9.8c4.3-4.1,13.5-4.4,21.4-4.2c5.9-7.6-8.4-8.5-12.1-4.7c0.1-1.8-2-1.4-1.9-3.3
			C152.8,275.7,165.2,273.6,167.7,279.3z"/>
		<path class="st0" d="M134.2,269.5c1.9,0.6,2.9-0.1,5.6,0c-0.1,1.6-1.3,2.1-1.4,3.7c-1.9,0-3.7,0-5.6,0
			C132.7,271.4,133.8,270.8,134.2,269.5z"/>
		<path class="st0" d="M131.4,275.5c1.9,0,3.7,0,5.6,0c-3.2,9.8-7.6,18.4-11.2,27.9c-1.9,0-3.7,0-5.6,0
			C123.5,293.7,128,285.1,131.4,275.5z"/>
		<path class="st0" d="M123.5,276.5c1.7,0,3.4,0,5.1,0c-7.3,9.3-15.1,18.1-22.8,27c-2.4-0.2-5.8,0.5-7.4-0.5
			c0.8-8.5,1.4-17.2,1.9-26.1c1.9,0,3.7,0,5.6,0c-0.2,7.4-0.9,14.3-1.4,21.4C110.7,292.8,116.7,283,123.5,276.5z"/>
		<path class="st0" d="M97.9,269.5c1,0.8-0.6,2.7-0.9,3.7c-1.9,0-3.7,0-5.6,0c0.1-1.3,0.9-1.9,0.9-3.3
			C94.5,269.2,95.8,270.3,97.9,269.5z"/>
		<path class="st0" d="M90,275.5c1.9,0,3.7,0,5.6,0c-3.2,9.9-7.6,18.5-11.2,27.9c-1.9,0-3.7,0-5.6,0C82.1,293.7,86.7,285.2,90,275.5
			z"/>
		<path class="st0" d="M85.8,267.6c0.8-0.2,0.9,0.4,0.9,0.9c-5.2,11.2-10,22.9-14.4,34.9c-2,0-4,0-6,0c4.4-11.5,9.3-22.6,14-34
			C81.7,268.4,84.6,268.9,85.8,267.6z"/>
		<path class="st0" d="M56.5,276c12.1-0.8,14.7,3.3,10.2,14c-1,2.4-3.3,7.4-4.7,8.8c-3.9,4.1-23.4,8.3-25.6,0.5
			c-1.2-4.3,5.6-17.5,7.9-19.5C47.4,277.1,51.3,276.3,56.5,276z M63,280.2c-12.9-7-20,8.7-20.5,18.6C56.1,306.4,61.5,290.1,63,280.2
			z"/>
		<path class="st1" d="M42.6,298.8c0.5-9.9,7.6-25.6,20.5-18.6C61.5,290.1,56.1,306.4,42.6,298.8z"/>
		<path class="st0" d="M38.4,273.2c1.3,4.7-2.9,10.2-7,12.1c0.5,1.7,2.5,1.8,2.8,3.7c-0.2,15.9-17.6,14.7-34,14.4
			c4.1-10.5,8.6-20.6,12.6-31.2c0-1.7-3.5,0.1-3.3-1.9c0.5,0,0.4-0.6,0.5-0.9C18.1,269.9,36.3,265.9,38.4,273.2z M32.8,275.1
			c-2.2-3.5-9.5-2-14.9-2.3c-0.9,4.2-3.1,7.2-4.2,11.2C23.5,284.4,32.8,284.4,32.8,275.1z M28.6,290.4c-2.5-3.9-10.2-2.5-16.3-2.8
			c-2.1,3.7-3.8,7.6-5.1,12.1C17.6,299.8,28.1,300.2,28.6,290.4z"/>
		<path class="st1" d="M17.9,272.8c5.4,0.3,12.6-1.2,14.9,2.3c0,9.3-9.3,9.3-19.1,8.8C14.9,279.9,17,277,17.9,272.8z"/>
		<path class="st1" d="M12.3,287.6c6.1,0.2,13.8-1.1,16.3,2.8c-0.5,9.7-11,9.4-21.4,9.3C8.5,295.3,10.3,291.3,12.3,287.6z"/>
	</g>
	<g>
	</g>
</g>
<path class="st0" d="M269.1,167.2c17-0.9,51.4-0.8,53.5,15.4c1,7.5-4.3,15.2-7,21.4c-5.5,12.7-9,22.3-20,28.8
	c-11.4,6.8-29.5,9.3-48.8,9.3c-17.1,0-41.2-1-43.7-14.4c-1.3-6.7,3.6-15.3,6.5-22.3c3.6-8.6,5.8-16,10.2-21.4
	C229.5,172.1,249.2,168.2,269.1,167.2z"/>
<path class="st0" d="M171.4,183.9c12.9,3.1,28.5,3.2,26.5,20.5c-0.6,5.7-3.5,11.1-6.5,14.9c-23.1,29.5-96.7,22.1-145.1,22.8
	c11.1-27.7,24.5-59.9,36.7-89.8c1.4-3.5,5.3-9.9,4.7-13c-0.9-4.1-6.9-3.5-9.8-3.7c0.1-2.7,2-3.6,2.3-6c33.1-0.5,73.2,0.2,101.9,1.9
	c5.2,0.3,25.4,5.5,27,17.7c0.7,5.6-2.3,12.1-5.1,16.3C197.5,174.9,184,181.1,171.4,183.9z"/>
<path class="st0" d="M445.8,242.3c0,0-6.3-52.8-7.4-62c-3.5-29.2-5.2-46.4-7.9-49.9c-9.4-1.9-22.2-0.5-33-0.9
	c-1,2.3-6.3,4.6-4.7,6.5c1.5-0.3,6.3-1,7.4,1.4c-1.7,5.8-6.4,10.2-10.2,14.4c-25.5,27.8-51.2,55.4-76.8,84.2c-1.9,2.2-5.1,4.2-4.7,6
	c5,0,9.9,0,14.9,0c13.7-14.8,78-86.2,86.1-93.5c1.2,12.1,11.6,93.5,11.6,93.5L445.8,242.3z"/>
<path class="st1" d="M226.3,226.7c-0.3-8,4-15.1,7-21.9c3-6.7,5-14.1,9.3-19.1c6.4-7.4,18.3-10.6,32.1-10.7
	c7.6-0.1,20.4,0.9,22.3,7.4c1.7,5.8-4.3,14.8-6.5,20c-4.5,10.5-6.9,20.2-15.4,25.6C265.2,234.4,235.6,238.1,226.3,226.7z"/>
<path class="st1" d="M93.8,188.6c15.3,0.9,75.6-7.5,78.2,14.4c1.2,10.2-8.3,20.4-15.4,24.7c-18.8,11.4-54.8,6-82.8,7.4
	C80.6,219.7,86.4,203.3,93.8,188.6z"/>
<path class="st1" d="M116.1,135.5c12.3,0.3,24.7-0.4,38.1,0c10.9,0.3,25.6,1.7,28.4,9.3c4.5,12.3-7.8,25.4-15.4,29.8
	c-16.5,9.5-49,7.2-70.7,7.4c5.6-15.6,12.1-30.4,18.1-45.6C115,136,115.5,135.7,116.1,135.5z"/>
<path class="st2" d="M528.1,0c0,0-15.3,5.2-25.8,23.6c-10,17.5-30.2,72.6-35.8,96.1c-3.9,16.6-17.6,36.5-21.4,44.1
	c-17.7,35-35.4,40.5-42.1,40.8c-19.2,0.9-28.6-12.4-28.6-12.4l11-0.9c0,0,7.9,7.5,19.7,0.5c13.2-7.9,23.2-31.2,30.6-49.8
	c10.6-26.4,21.5-68.7,26.7-79c22.7-45.1,31.8-49.8,42.8-56.4C516.4-0.2,528.1,0,528.1,0z"/>
<path class="st2" d="M517.9,9.1c-5.5,3.8-12.6,12.9-12.6,12.9s12.1-20.4,25.3-18.5c17.7,2.5,27.9,37.2,27.9,37.2s-13-20.1-24.2-29.3
	C529.8,7.8,522.5,5.9,517.9,9.1z"/>
<path class="st3" d="M541.4,43.1c0,0-17.2,2.1-27.7,20.5c-10,17.5-14.7,24.9-25.4,46.5c-7.6,15.2-24.1,52.7-27.9,60.3
	c-17.7,35-33.2,39-39.9,39.3c-19.2,0.9-30.8-10.9-30.8-10.9l11-0.9c0,0,8.1,6.4,18.3-1.9c19.8-16.1,31.6-55.5,44.6-80.9
	c7.2-14.2,17.1-33,23.9-42.3c11.8-16.2,22.8-25.5,36.1-29.2C530.4,41.7,541.4,43.1,541.4,43.1z"/>
<path class="st3" d="M517.9,60.6c0,0,10.5-16.2,23.6-14c16.2,2.7,27.1,39.9,27.1,39.9S551.5,56,537.7,50.1
	C529.7,46.7,517.9,60.6,517.9,60.6z"/>
<path class="st4" d="M526.9,107.9c0,0-15.3,1.9-24.2,16.3c-5.3,8.6-25.5,43.8-25.5,43.8s-15.1,21.4-20.4,28.1
	c-7.2,9.3-20.1,17.2-26.8,17.5c-17.8,0.8-24.1-9.4-24.1-9.4l8.2-0.6c0,0,8,4.3,15.2,0.4c10.5-5.7,22.7-26.8,28.9-36.6
	c5.4-8.6,15.7-24.5,22.3-33.9c6.2-8.9,19.1-21.3,32.3-25.2C518.2,106.8,526.9,107.9,526.9,107.9z"/>
<path class="st4" d="M509,119.2c0,0,8.4-9.7,15.9-8.5c11.9,1.8,17.4,27.4,17.4,27.4s-9-20.5-18.3-24.8
	C518.5,110.7,509,119.2,509,119.2z"/>
</svg>
