<?xml version="1.0" encoding="utf-8"?>
<!-- Generator: Adobe Illustrator 16.0.0, SVG Export Plug-In . SVG Version: 6.00 Build 0)  -->
<!DOCTYPE svg PUBLIC "-//W3C//DTD SVG 1.0//EN" "http://www.w3.org/TR/2001/REC-SVG-20010904/DTD/svg10.dtd">
<svg version="1.0" id="AY" xmlns="http://www.w3.org/2000/svg" xmlns:xlink="http://www.w3.org/1999/xlink" x="0px" y="0px"
	 width="157px" height="26px" viewBox="0 0 157 26" enable-background="new 0 0 157 26" xml:space="preserve">
<g opacity="0.5">
	<path fill="#222222" d="M22.971,21.645c0,0,3.773,0,4.851,0c1.197,0,2.033-0.498,2.478-1.426C30.827,19.118,37.9,4.355,37.9,4.355
		l0,0c0,0-3.772,0-4.85,0c-1.198,0-2.033,0.499-2.479,1.426C30.045,6.882,22.971,21.645,22.971,21.645z"/>
	<path fill="#222222" d="M116.015,21.645c0,0,3.772,0,4.851,0c1.197,0,2.032-0.498,2.478-1.426
		c0.527-1.101,7.602-15.863,7.602-15.863l0,0c0,0-3.773,0-4.851,0c-1.198,0-2.033,0.499-2.477,1.426
		C123.089,6.882,116.015,21.645,116.015,21.645z"/>
	<path fill="#222222" d="M16.826,4.355c-1.18,0-1.852,0.144-2.712,0.597c-0.284,0.149-3.392,1.774-5.639,2.966
		c-1.778,0.942-3.017,2.272-3.797,3.9C2.429,16.51,0,21.645,0,21.645s3.774,0,4.851,0c1.198,0,2.033-0.498,2.478-1.426
		c0.196-0.409,1.288-2.688,2.389-4.984c3.031,0,7.22,0,7.896,0c1.082,0,1.498-0.196,1.915-1.065l0.406-0.87c0,0-5.506,0-9.503,0
		c0.862-1.799,2.149-4.504,2.149-4.504c0.542-1.132,1.182-1.587,2.623-1.587h5.375c0,0,3.772,0,4.85,0
		c1.197,0,2.033-0.499,2.478-1.426l0.687-1.425C28.593,4.355,20.332,4.355,16.826,4.355z"/>
	<path fill="#222222" d="M91.199,4.364c0,0-1.151,0-2.229,0c-1.197,0-2.032,0.498-2.478,1.425
		c-0.303,0.635-3.507,7.344-5.147,10.777c-0.068-0.359-0.316-0.83-0.537-1.133c-2.995-4.096-6.522-8.938-7.702-10.582
		c-0.4-0.558-1.072-0.625-1.729-0.279c-0.553,0.291-0.811,0.428-1.389,0.734c-1.681,0.89-2.656,2.027-3.466,3.718
		c-2.249,4.691-5.964,12.62-5.964,12.62s1.138,0,2.215,0c1.198,0,2.033-0.498,2.478-1.426c0.241-0.504,2.961-6.224,4.542-9.537
		c0.034,0.291,0.194,0.594,0.343,0.794c2.456,3.287,6.226,8.333,6.603,8.832c0.645,0.854,1.311,1.337,2.508,1.337
		c0.521,0,2.416,0,3.654,0L91.199,4.364z"/>
	<path fill="#222222" d="M64.195,4.364c0,0-1.152,0-2.229,0c-1.197,0-2.033,0.498-2.478,1.425
		c-0.304,0.635-3.507,7.344-5.148,10.777c-0.068-0.359-0.317-0.83-0.538-1.133c-2.994-4.096-6.522-8.938-7.702-10.582
		c-0.399-0.558-1.072-0.625-1.728-0.279c-0.553,0.291-0.812,0.428-1.389,0.734c-1.682,0.89-2.656,2.027-3.467,3.718
		c-2.249,4.691-5.965,12.62-5.964,12.62c0,0,1.137,0,2.214,0c1.198,0,2.033-0.498,2.477-1.426c0.242-0.504,2.961-6.224,4.543-9.537
		c0.035,0.291,0.194,0.594,0.343,0.794c2.456,3.287,6.226,8.333,6.602,8.832c0.645,0.854,1.311,1.337,2.509,1.337
		c0.521,0,2.415,0,3.654,0L64.195,4.364z"/>
	<path fill="#222222" d="M116.591,8.328c-0.245-0.177-3.616-2.733-3.821-2.887c-0.958-0.723-2.175-1.085-3.455-1.085
		c-2.362,0-3.724,0-5.342,0c-1.18,0-1.853,0.144-2.713,0.597c-0.283,0.149-3.318,1.741-5.565,2.932
		c-1.884,0.998-3.073,2.289-3.896,4.006c-2.249,4.691-4.652,9.754-4.651,9.754c0,0,3.773,0,4.851,0c1.197,0,2.032-0.498,2.478-1.426
		c0.177-0.369,1.235-2.571,2.396-4.984c3.186,0,8.445,0,11.113,0c-0.816,1.705-1.582,3.302-2.135,4.457
		c-0.489,1.02,0.042,1.953,1.343,1.953c0.836,0,4.358,0,4.358,0s5.132-10.718,5.402-11.268
		C117.423,9.422,117.366,8.887,116.591,8.328z M97.802,13.299c1.263-2.627,2.11-4.414,2.11-4.414
		c0.595-1.24,1.157-1.679,2.692-1.679h4.604c0,0,1.863,0,3.346,0c0.809,0,1.062,0.441,0.776,1.036
		c-0.682,1.422-1.549,3.233-2.421,5.056C105.779,13.299,101.18,13.299,97.802,13.299z"/>
	<path fill="#222222" d="M156.339,8.328c-0.246-0.177-3.375-2.571-3.579-2.727c-1.017-0.766-2.359-1.246-3.774-1.246
		c-2.363,0-3.419,0-5.035,0c-1.181,0-1.853,0.144-2.713,0.597c-0.283,0.149-3.062,1.604-5.31,2.796
		c-2.224,1.177-3.279,2.303-4.22,4.265c-2.249,4.691-4.585,9.632-4.585,9.632s3.774,0,4.851,0c1.199,0,2.033-0.498,2.479-1.426
		c0.196-0.409,1.479-3.043,2.58-5.34c0,0,0.775,0,2.825,0.001h-0.001c1.346,0,1.812,0.415,2.353,1.331
		c1.021,1.73,2.178,3.678,2.373,4.008c0.639,1.08,1.203,1.426,2.638,1.426c1.077,0,5.538,0,5.538,0s-1.438-2.322-3.083-5.113
		c-0.258-0.438-0.554-0.742-1.379-0.879c-0.253-0.041-1.289-0.213-2.371-0.392l0.052-0.379c2.097,0.001,3.874,0.001,4.484,0.001
		c3.033,0,4.383-0.662,5.039-1.939c0.311-0.603,1.113-2.393,1.199-2.567C157.171,9.422,157.113,8.887,156.339,8.328z M151.078,8.243
		c-0.507,1.059-0.926,1.977-1.564,3.31c-0.463,0.967-1.307,1.39-3.302,1.39c-3.195,0-6.054,0-8.474,0
		c0.862-1.799,2.066-4.301,2.066-4.301c0.479-0.998,1.194-1.435,2.448-1.435h4.703c0,0,1.864,0,3.346,0
		C151.111,7.207,151.363,7.648,151.078,8.243z"/>
</g>
</svg>
