<?xml version="1.0" encoding="utf-8"?>
<!-- Generator: Adobe Illustrator 22.0.0, SVG Export Plug-In . SVG Version: 6.00 Build 0)  -->
<svg version="1.1" id="I2" xmlns="http://www.w3.org/2000/svg" xmlns:xlink="http://www.w3.org/1999/xlink" x="0px" y="0px"
	 viewBox="0 0 157 26" style="enable-background:new 0 0 157 26;" xml:space="preserve">
<style type="text/css">
	.st0{fill:#BB112B;}
	.st1{fill:url(#SVGID_1_);}
	.st2{fill:url(#SVGID_2_);}
	.st3{fill:url(#SVGID_3_);}
	.st4{fill:#4B84C6;}
</style>
<g>
	<g>
		<path class="st0" d="M2.4,19c0.3-0.2,0.5-0.5,0.5-0.9v-0.1c0-0.4-0.2-0.7-0.4-0.8C2.3,17.1,1.9,17,1.4,17H0.6c-0.2,0-0.3,0-0.5,0
			L0,17v3.5h0.7v-1.3h1c0.3,0.3,0.5,0.7,0.8,1.2l0,0.1h0.8l-0.1-0.2C3,19.9,2.7,19.4,2.4,19z M2.2,18.1L2.2,18.1
			c0,0.3-0.1,0.4-0.3,0.5H0.7v-1h0.7c0.3,0,0.5,0,0.6,0.1C2.2,17.8,2.2,17.9,2.2,18.1z M6.7,20.4l0,0.1H4.6c-0.2,0-0.3,0-0.5,0
			l-0.1,0V17l0.1,0c0.1,0,0.3,0,0.5,0h2.1l0,0.1c0,0.1,0,0.2-0.1,0.4l0,0.1H4.8v0.8c0.2,0,0.4,0,0.5,0h0.9V19H4.8v0.9h1.8l0,0.1
			C6.7,20.1,6.7,20.3,6.7,20.4z M10.4,18.5l0.1,0v1.9l-0.1,0c-0.4,0.1-0.8,0.1-1.3,0.1c-0.6,0-1-0.1-1.4-0.4
			c-0.4-0.3-0.5-0.8-0.5-1.4v-0.1c0-0.7,0.2-1.1,0.7-1.4C8.2,17.1,8.7,17,9.2,17c0.3,0,0.7,0.1,1.1,0.2l0.1,0l-0.1,0.6l-0.1,0
			c-0.3-0.1-0.6-0.1-1-0.1c-0.4,0-0.7,0.1-0.9,0.2C8.1,18,8,18.3,8,18.7v0.1c0,0.9,0.3,1.2,1.1,1.2c0.3,0,0.5,0,0.6,0v-0.8l-0.8,0
			v-0.6h0.9C10.1,18.5,10.3,18.5,10.4,18.5z M11.6,17h0.7v3.5h-0.7V17z M15.1,17c-0.5,0-1,0.1-1.2,0.4c-0.3,0.3-0.5,0.8-0.5,1.3v0.2
			c0,0.6,0.2,1,0.5,1.3c0.3,0.3,0.7,0.4,1.2,0.4c0.5,0,1-0.1,1.2-0.4c0.3-0.3,0.5-0.8,0.5-1.3v-0.2c0-0.6-0.2-1-0.5-1.3
			C16,17.1,15.6,17,15.1,17z M15.1,19.9c-0.3,0-0.6-0.1-0.7-0.2c-0.2-0.2-0.3-0.5-0.3-0.9v-0.2c0-0.4,0.1-0.7,0.3-0.9
			c0.1-0.1,0.4-0.2,0.7-0.2c0.3,0,0.6,0.1,0.7,0.2c0.2,0.2,0.3,0.5,0.3,0.9v0.2c0,0.4-0.1,0.7-0.3,0.9
			C15.6,19.9,15.4,19.9,15.1,19.9z M20.3,17H21v3.5h-0.8l0-0.1c-0.6-0.9-1.2-1.8-1.7-2.5v2.5h-0.7V17h0.7l0,0
			c0.5,0.6,1.2,1.6,1.7,2.3V17z M24.1,17.1L24.1,17.1L23.3,17l0,0.1c-0.4,0.9-1,2.2-1.4,3.3l-0.1,0.1h0.8l0-0.1
			c0.1-0.3,0.2-0.5,0.2-0.7h1.6c0.1,0.2,0.2,0.4,0.2,0.7l0,0.1h0.8l-0.1-0.1C25,19.3,24.5,18,24.1,17.1z M24.2,19.2h-1.1
			c0.2-0.5,0.4-0.9,0.6-1.3C23.8,18.2,24,18.7,24.2,19.2z M28.8,20.5h-1.9c-0.2,0-0.3,0-0.5,0l-0.1,0V17H27v2.9h1.7l0,0.1
			c0,0.1,0,0.3,0.1,0.4L28.8,20.5z"/>
		<g>
			<g>
				<linearGradient id="SVGID_1_" gradientUnits="userSpaceOnUse" x1="51.2831" y1="21.6102" x2="70.4412" y2="10.5492">
					<stop  offset="0" style="stop-color:#8F1624"/>
					<stop  offset="0.5" style="stop-color:#BB112B"/>
				</linearGradient>
				<path class="st1" d="M54.4,16.8c4.6-4.6,11.1-7.2,15.5-7.3l-1.5,3.9c-1.8,4.1-4.8,7.2-17.7,7.2L54.4,16.8z"/>
				<linearGradient id="SVGID_2_" gradientUnits="userSpaceOnUse" x1="58.6776" y1="11.9602" x2="71.542" y2="4.5329">
					<stop  offset="0" style="stop-color:#DC831F"/>
					<stop  offset="0.85" style="stop-color:#F0CF30"/>
				</linearGradient>
				<path class="st2" d="M58.8,12.2L63,8c2-2,2.8-3.3,8.6-3.3l-1,2.5C66.8,7.7,62.8,9.4,58.8,12.2z"/>
			</g>
			<linearGradient id="SVGID_3_" gradientUnits="userSpaceOnUse" x1="25.3231" y1="20.3296" x2="25.3231" y2="6.5445">
				<stop  offset="0" style="stop-color:#8F1624"/>
				<stop  offset="0.8" style="stop-color:#BB112B"/>
			</linearGradient>
			<path class="st3" d="M32.6,10.9c1-0.4,1.7-1.2,1.7-2.3c0-0.6-0.2-1.2-0.6-1.6c-0.5-0.6-1.4-0.8-2.7-0.8h-5.3
				c-0.1,1.2-0.2,2.7-0.2,3.9c0,1.3,0.1,2.6,0.2,3.9h2.4c-0.1-1-0.2-1.9-0.2-2.9h2.5c0.2,0.2,0.5,0.6,0.8,1.1
				c0.4,0.6,0.6,1.1,0.9,1.9h2.7c-0.4-0.7-0.7-1.3-1.3-2.1C33.2,11.6,32.9,11.2,32.6,10.9z M31.2,9.8h-3.3c0-0.6,0-1.2,0.1-2h2.1
				c0.8,0,1.2,0.1,1.4,0.4c0.1,0.1,0.2,0.4,0.2,0.6C31.8,9.2,31.6,9.6,31.2,9.8z M2.3,6.3c0.1,1.1,0.2,2.6,0.2,4
				c0,1.3-0.1,2.6-0.2,3.9H0.2C0.1,12.9,0,11.6,0,10.3c0-1.4,0.1-2.9,0.2-4H2.3z M48.8,9.9c-0.8-1.5-1.5-2.7-2.1-3.6h-2.5
				c-0.6,0.9-1.3,2.1-2.1,3.6c-0.8,1.5-1.5,3.1-1.9,4.3h2.6c0.2-0.5,0.3-1,0.6-1.5h4.2c0.2,0.5,0.4,0.9,0.6,1.5h2.6
				C50.2,13,49.5,11.5,48.8,9.9z M43.9,11.3c0.5-1.2,1-2.1,1.5-3.1c0.5,1,1,1.9,1.5,3.1H43.9z M38.7,6.3c0.1,1.1,0.2,2.6,0.2,4
				c0,1.3-0.1,2.6-0.2,3.9h-2.1c-0.1-1.3-0.2-2.5-0.2-3.9c0-1.4,0.1-2.9,0.2-4H38.7z M18.2,7.9c0,0.5-0.1,1.2-0.1,1.6h4.7v1.5h-4.7
				c0,0.5,0,1.1,0.1,1.7h5.1c0,0.6,0.1,1,0.1,1.6h-7.5c-0.1-1.3-0.2-2.7-0.2-3.9c0-1.3,0.1-2.7,0.2-3.9h7.5c-0.1,0.6-0.1,1-0.1,1.6
				H18.2z M12.6,9.9c0.6-0.3,0.9-0.9,0.9-1.6c0-0.6-0.2-1.1-0.6-1.4C12.2,6.3,11,6.3,9.7,6.3H5.2C5.1,7.5,5,9,5,10.2
				c0,1.3,0.1,2.5,0.2,3.9h4.7c1.6,0,2.7-0.2,3.3-0.6c0.5-0.3,0.8-1,0.8-1.7C13.9,11,13.4,10.3,12.6,9.9z M7.5,7.8h2.1
				c0.8,0,1.1,0.1,1.4,0.3c0.1,0.1,0.2,0.3,0.2,0.6c0,0.3-0.1,0.6-0.4,0.8H7.4C7.4,8.9,7.5,8.3,7.5,7.8z M11.3,12.4
				c-0.2,0.2-0.6,0.3-1.1,0.3H7.5c-0.1-0.6-0.1-1.3-0.1-1.8h3c0.4,0,0.6,0.1,0.8,0.2c0.2,0.2,0.3,0.3,0.3,0.6
				C11.5,12,11.4,12.2,11.3,12.4z"/>
		</g>
	</g>
	<g>
		<path class="st0" d="M81,6.4c1.1,2.3,2.3,5.3,3.2,7.7H83c-0.2-0.5-0.4-1.2-0.6-1.7h-4.1c-0.2,0.5-0.4,1.1-0.6,1.7h-1.3
			c0.9-2.3,2.2-5.4,3.3-7.7H81z M82,11.5c-0.6-1.4-1.1-2.8-1.6-3.9c-0.5,1.1-1.1,2.5-1.7,3.9H82z M86.7,6.4v7.7h-1.2V6.4H86.7z
			 M92,6.4c1,0,1.9,0.1,2.4,0.5c0.6,0.3,0.9,1,0.9,1.7v0.1c0,0.9-0.5,1.7-1.3,2.1c0.7,0.8,1.5,2.1,2,3.2h-1.3
			c-0.5-1.1-1.2-2.3-1.9-3h-2.7v3h-1.2V6.4c0.3,0,0.7,0,1.1,0H92z M90.1,10.2h3.2C93.8,9.8,94,9.4,94,8.7V8.6c0-0.4-0.1-0.8-0.4-1
			c-0.3-0.2-0.9-0.4-1.7-0.4h-1.9V10.2z"/>
		<path class="st4" d="M99.7,6.4c1.5,1.8,3.4,4.4,4.5,6.1V6.4h1.2v7.7H104c-1.4-2.3-3.1-4.7-4.5-6.4v6.3h-1.2V6.4H99.7z M107.2,10
			c0-1.2,0.4-2.2,1.1-2.8c0.6-0.6,1.5-0.9,2.7-0.9c1.2,0,2.1,0.3,2.7,0.8c0.8,0.7,1.1,1.7,1.1,2.9v0.5c0,1.2-0.4,2.2-1.1,2.9
			c-0.6,0.5-1.5,0.8-2.7,0.8c-1.2,0-2.1-0.3-2.7-0.8c-0.8-0.7-1.1-1.7-1.1-2.9V10z M108.4,10.4c0,1,0.3,1.8,0.8,2.3
			c0.4,0.4,1,0.6,1.8,0.6c0.8,0,1.4-0.2,1.8-0.6c0.5-0.5,0.8-1.3,0.8-2.3v-0.4c0-1-0.3-1.8-0.8-2.3c-0.4-0.4-1-0.6-1.8-0.6
			c-0.8,0-1.4,0.2-1.8,0.6c-0.5,0.5-0.8,1.3-0.8,2.3V10.4z M121.4,7.5c-0.8-0.2-1.5-0.3-2.2-0.3c-1.4,0-1.8,0.5-1.8,1.1
			c0,0.6,0.5,1,1.4,1.3l0.7,0.2c0.9,0.2,1.4,0.5,1.8,0.8c0.4,0.4,0.6,0.8,0.6,1.4c0,1.3-1,2.2-3,2.2c-1,0-1.9-0.2-2.8-0.5l0.2-0.9
			c0.8,0.3,1.7,0.4,2.6,0.4c1.2,0,1.8-0.5,1.8-1.3c0-0.3-0.1-0.6-0.3-0.7c-0.2-0.2-0.6-0.4-1.4-0.6l-0.7-0.2
			c-1.7-0.5-2.2-1.2-2.2-2.2c0-1.3,1.2-2,3-2c0.9,0,1.7,0.1,2.4,0.3L121.4,7.5z M129.8,6.4c-0.1,0.3-0.1,0.6-0.1,0.9h-2.9v6.8h-1.2
			V7.3h-2.9V6.4H129.8z M134,6.4c1,0,1.9,0.1,2.4,0.5c0.6,0.3,0.9,1,0.9,1.7v0.1c0,0.9-0.5,1.7-1.3,2.1c0.7,0.8,1.5,2.1,2,3.2h-1.3
			c-0.5-1.1-1.2-2.3-1.9-3h-2.7v3H131V6.4c0.3,0,0.7,0,1.1,0H134z M132.2,10.2h3.2c0.5-0.3,0.8-0.8,0.8-1.5V8.6c0-0.4-0.1-0.8-0.4-1
			c-0.3-0.2-0.9-0.4-1.7-0.4h-1.9V10.2z M140.5,6.4v4.9c0,0.5,0.1,1.1,0.4,1.4c0.3,0.3,0.9,0.5,1.7,0.5h0c0.8,0,1.4-0.2,1.7-0.5
			c0.3-0.3,0.4-0.9,0.4-1.4V6.4h1.2v4.1c0,1.3,0,2.2-0.6,2.9c-0.6,0.5-1.4,0.8-2.7,0.8h-0.1c-1.3,0-2.1-0.3-2.7-0.8
			c-0.6-0.6-0.6-1.5-0.6-2.9V6.4H140.5z M149.7,6.4c1,2.2,1.9,4,2.6,5.2c0.7-1.2,1.6-3,2.6-5.2h1.5c0.2,1.8,0.5,5.8,0.6,7.7h-1.2
			c0-1.2-0.3-4.8-0.4-6.3c-0.8,1.6-1.9,3.8-2.6,5h-1c-0.7-1.2-1.8-3.4-2.6-5c-0.2,1.5-0.4,5.2-0.4,6.4h-1.2c0.1-1.9,0.4-5.9,0.6-7.7
			H149.7z"/>
	</g>
</g>
</svg>
