<?xml version="1.0" encoding="utf-8"?>
<!-- Generator: Adobe Illustrator 16.0.0, SVG Export Plug-In . SVG Version: 6.00 Build 0)  -->
<!DOCTYPE svg PUBLIC "-//W3C//DTD SVG 1.0//EN" "http://www.w3.org/TR/2001/REC-SVG-20010904/DTD/svg10.dtd">
<svg version="1.0" id="OK" xmlns="http://www.w3.org/2000/svg" xmlns:xlink="http://www.w3.org/1999/xlink" x="0px" y="0px"
	 width="157px" height="26px" viewBox="0 0 157 26" enable-background="new 0 0 157 26" xml:space="preserve">
<g id="layer1_1_" transform="translate(-304.098, -514.158)" opacity="0.7">
	<path id="path2612" fill="#292929" d="M422.209,522.193l-0.494,0.086l-0.536,2.189l0.493-0.129l0.129-0.494l0.794-0.129
		l0.258,0.429l0.536-0.043L422.209,522.193z M424.827,522.193l-0.515,1.953l0.45,0.064l0.172-0.644
		c0.08-0.316,0.114-0.423,0.172-0.687l0.043-0.236c-0.001,0.111-0.002,0.184,0,0.236c0.004,0.067,0.015,0.155,0.021,0.279
		c0.006,0.097,0.012,0.166,0.021,0.214l0.107,0.966l0.364,0.107l0.58-0.794c0.035-0.053,0.062-0.121,0.106-0.193
		c0.109-0.163,0.161-0.225,0.279-0.429l-0.043,0.129c-0.027,0.087-0.058,0.177-0.086,0.257c-0.02,0.073-0.052,0.176-0.086,0.3
		c-0.035,0.124-0.049,0.212-0.064,0.279l-0.171,0.601l0.429,0.15l0.516-1.953l-0.645-0.215l-0.515,0.751
		c-0.046,0.071-0.111,0.144-0.172,0.236c-0.086,0.134-0.096,0.195-0.172,0.343c0.009-0.257,0.002-0.447-0.021-0.665l-0.106-0.923
		L424.827,522.193z M422.016,522.665c0.063,0.142,0.104,0.226,0.215,0.408l0.214,0.343l-0.601,0.086l0.086-0.386
		C421.981,522.91,421.998,522.808,422.016,522.665z M427.724,522.944c-0.128-0.001-0.246,0.089-0.301,0.215
		c-0.071,0.168,0.002,0.356,0.172,0.429c0.167,0.074,0.357-0.004,0.429-0.172s-0.001-0.357-0.171-0.429
		C427.81,522.969,427.766,522.945,427.724,522.944z M419.312,523.009l-1.416,0.837l1.009,1.738l1.438-0.858l-0.172-0.322
		l-1.029,0.622l-0.258-0.429l0.923-0.558l-0.172-0.279l-0.923,0.537l-0.215-0.365l1.009-0.601L419.312,523.009z M427.66,523.009
		c0.068-0.019,0.127-0.015,0.193,0.021c0.132,0.071,0.203,0.252,0.128,0.386c-0.073,0.137-0.255,0.18-0.386,0.107
		c-0.132-0.073-0.183-0.251-0.107-0.386C427.524,523.07,427.59,523.028,427.66,523.009z M427.702,523.052l-0.172,0.322l0.043,0.021
		l0.086-0.128l0.043,0.021l0.021,0.193l0.064,0.021l-0.021-0.193c0.057,0.029,0.115,0.041,0.15-0.021
		c0.037-0.068-0.008-0.12-0.064-0.15L427.702,523.052z M427.724,523.138l0.086,0.043c0.032,0.018,0.081,0.053,0.064,0.086
		c-0.027,0.05-0.091-0.001-0.129-0.021l-0.064-0.043L427.724,523.138z M416.523,525.004l-1.159,1.395l0.279,0.236l0.429-0.515
		l1.267,1.03l0.3-0.365l-1.266-1.03l0.429-0.515L416.523,525.004z M428.539,525.992c1.27,1.28,2.118,2.996,2.253,4.935
		c0.299,4.283-2.931,8.004-7.21,8.305c-2.014,0.141-3.897-0.492-5.364-1.652c1.52,1.409,3.605,2.217,5.836,2.06
		c4.281-0.299,7.509-4.004,7.21-8.283c-0.151-2.168-1.175-4.06-2.703-5.364H428.539z M425.041,527.558
		c-0.677-0.005-1.484,0.36-2.274,1.051c-0.242,0.214-0.715,0.69-1.181,1.137l-0.536,0.494c-0.429-0.078-0.85-0.107-1.287-0.107
		c-0.977,0-1.866,0.269-2.274,0.687c-0.154,0.161-0.241,0.334-0.236,0.515c0.01,0.474,0.564,0.711,0.729,0.772
		c0.869,0.322,1.596,0.216,2.36-0.321c0.422-0.295,0.913-0.754,1.309-1.138c0.31,0.072,0.675,0.169,1.052,0.279l0.344,0.086
		c-0.45,0.443-0.924,0.912-1.353,1.287l-0.021,0.043c-0.595,0.525-1.03,0.889-1.652,1.03c-0.438,0.096-0.756,0.018-0.857-0.043
		c0.354,0.29,0.687,0.479,1.266,0.429c0.559-0.049,1.207-0.411,1.867-1.029l0.879-0.858l0.645-0.622
		c0,0.002,1.244,0.364,1.244,0.364c-0.032,0.021-0.751,0.772-0.751,0.772l-0.665,0.665c-0.687,0.666-1.057,1.003-1.459,1.288
		c-0.661,0.471-1.238,0.717-1.738,0.751c-0.258,0.017-0.633,0.008-0.944-0.172c0.335,0.289,0.733,0.64,1.438,0.622
		c0.809-0.025,1.524-0.415,2.64-1.438c0.51-0.467,1.013-0.997,1.459-1.459l0.837-0.837c0.546,0.122,1.027,0.183,1.566,0.172
		c0.785-0.018,1.451-0.406,1.459-0.837c0.009-0.318-0.251-0.479-0.407-0.58c-0.129-0.085-0.481-0.278-0.966-0.278
		c-0.589,0-1.201,0.259-1.824,0.772l-0.407,0.364c0.006-0.002-0.172-0.043-0.172-0.043l-1.138-0.321
		c0.341-0.317,0.62-0.583,0.88-0.815c0.633-0.562,1.329-0.79,1.738-0.815c0.298-0.021,0.816,0,1.03,0.15
		c0.009-0.001,0.021-0.021,0.021-0.021c-0.568-0.485-1.055-0.559-1.459-0.559c-0.398,0-1.04,0.122-1.824,0.729
		c-0.319,0.249-0.744,0.678-1.181,1.116c0-0.003-0.579-0.193-0.579-0.193l-0.129-0.043l-0.622-0.171
		c0.015,0,0.365-0.344,0.365-0.344c0.412-0.406,0.789-0.791,1.094-1.052c1.107-0.929,1.812-1.047,2.296-1.051
		c0.53-0.001,0.944,0.104,1.245,0.321C426.252,527.755,425.806,527.564,425.041,527.558z M414.613,527.729l-0.107,0.322l0.537,0.729
		c0.071,0.099,0.081,0.113,0.149,0.192c-0.076,0.018-0.106,0.009-0.149,0.021l-0.107,0.043l-0.858,0.236l-0.107,0.322l1.373-0.408
		l0.772,0.258l0.107-0.258l-0.772-0.279L414.613,527.729z M419.935,530.476c0.229-0.013,0.467-0.022,0.857,0.021
		c-0.016,0-0.214,0.193-0.214,0.193l-0.129,0.129c-0.483,0.44-1.292,1.167-2.018,1.116c-0.357-0.026-0.536-0.174-0.536-0.451
		C417.896,531.449,417.925,530.576,419.935,530.476z M427.917,530.626c0.176,0.006,0.386,0.062,0.386,0.279
		c0,0.226-0.204,0.429-0.622,0.579c-0.366,0.132-0.932,0.154-1.545,0.086c0.168-0.152,0.309-0.266,0.429-0.343
		C427.142,530.835,427.618,530.615,427.917,530.626z M415.729,531.034l-1.159,0.987l-0.837-0.923l0.021,0.386l0.88,0.966
		l0.064,0.064l0.064,0.064h-0.215l-0.772,0.021v0.3l1.996-0.042v-0.301l-0.708,0.021l-0.322-0.365l1.009-0.815L415.729,531.034z
		 M415.707,534.124c-0.084-0.009-0.191,0.009-0.279,0.043c-0.146,0.061-0.237,0.176-0.278,0.343
		c-0.042,0.149-0.021,0.299,0.042,0.645l0.021,0.128c0.064,0.352,0.051,0.498-0.106,0.559c-0.196,0.08-0.377-0.055-0.494-0.344
		c-0.126-0.32-0.077-0.527,0.172-0.665l-0.107-0.258c-0.369,0.166-0.471,0.525-0.279,1.009c0.179,0.445,0.485,0.627,0.815,0.493
		c0.146-0.057,0.244-0.158,0.279-0.3c0.024-0.114,0.024-0.207-0.021-0.473l-0.021-0.128l-0.021-0.15
		c-0.062-0.359-0.043-0.534,0.129-0.601c0.212-0.089,0.432,0.069,0.558,0.386c0.157,0.389,0.076,0.649-0.214,0.772l0.106,0.258
		c0.42-0.174,0.536-0.562,0.322-1.095C416.181,534.377,415.958,534.15,415.707,534.124z"/>
	<path id="path2670" fill="#292929" d="M363.929,522.387c-0.893,0-1.625,0.155-2.189,0.493c-0.11,0.067-0.202,0.156-0.3,0.236
		c-0.101,0.082-0.196,0.166-0.279,0.257c-0.302,0.333-0.537,0.755-0.687,1.266c-0.147,0.502-0.214,1.086-0.214,1.76
		c0,0.499,0.048,0.951,0.15,1.352c0.021,0.083,0.042,0.164,0.064,0.236c0.022,0.073,0.057,0.14,0.086,0.214
		c0.1,0.256,0.214,0.5,0.365,0.708c0.152,0.211,0.335,0.397,0.537,0.559c0.222,0.179,0.464,0.324,0.708,0.429
		c0.048,0.021,0.081,0.025,0.129,0.043c0.05,0.019,0.102,0.029,0.15,0.043v0.021c0.146,0.044,0.324,0.061,0.515,0.086
		c0.039,0.006,0.071,0.018,0.107,0.021c0.236,0.025,0.501,0.043,0.794,0.043h2.833v-1.138h-2.747c-0.319,0-0.575-0.03-0.794-0.107
		c-0.21-0.072-0.375-0.197-0.494-0.343c-0.121-0.149-0.215-0.356-0.279-0.622c-0.065-0.276-0.107-0.612-0.107-1.009
		c0-0.66,0.074-2.102,0.214-2.489c0.025-0.071,0.054-0.15,0.086-0.215c0.031-0.063,0.073-0.122,0.107-0.171
		c0.126-0.183,0.287-0.316,0.494-0.408c0.214-0.094,0.468-0.15,0.772-0.15h2.747v-1.116H363.929z M367.362,522.387v1.116h4.485
		l-4.485,5.45v1.202h6.609v-1.138h-4.292l4.292-5.428v-1.202H367.362z M378.198,522.387c-0.892,0-1.604,0.155-2.167,0.493
		c-0.11,0.067-0.224,0.156-0.322,0.236c-0.101,0.082-0.195,0.166-0.279,0.257c-0.301,0.333-0.516,0.755-0.665,1.266
		c-0.148,0.502-0.236,1.086-0.236,1.76c0,0.499,0.049,0.951,0.15,1.352c0.021,0.083,0.042,0.164,0.064,0.236
		c0.022,0.073,0.057,0.14,0.085,0.214c0.1,0.256,0.236,0.5,0.386,0.708c0.152,0.211,0.312,0.397,0.515,0.559
		c0.223,0.179,0.464,0.324,0.708,0.429c0.049,0.021,0.103,0.025,0.15,0.043c0.05,0.019,0.103,0.029,0.15,0.043v0.021
		c0.145,0.044,0.303,0.061,0.493,0.086c0.038,0.006,0.093,0.018,0.129,0.021c0.236,0.025,0.5,0.043,0.794,0.043h2.811v-1.138h-2.725
		c-0.318,0-0.595-0.03-0.815-0.107c-0.209-0.072-0.374-0.197-0.494-0.343c-0.12-0.149-0.216-0.356-0.279-0.622
		c-0.064-0.276-0.086-0.612-0.086-1.009c0-0.037-0.001-0.066,0-0.107h4.399v-1.138h-4.356c0.034-0.533,0.096-1.037,0.172-1.244
		c0.026-0.071,0.054-0.15,0.085-0.215c0.032-0.063,0.052-0.122,0.086-0.171c0.125-0.183,0.309-0.316,0.515-0.408
		c0.215-0.094,0.47-0.15,0.772-0.15h2.725v-1.116H378.198z M385.237,522.387c-0.892,0-1.626,0.155-2.189,0.493
		c-0.11,0.067-0.223,0.156-0.322,0.236c-0.101,0.082-0.174,0.166-0.258,0.257c-0.301,0.333-0.536,0.755-0.687,1.266
		c-0.147,0.502-0.214,1.086-0.214,1.76c0,0.499,0.048,0.951,0.15,1.352c0.02,0.083,0.041,0.164,0.064,0.236
		c0.023,0.073,0.036,0.14,0.064,0.214h0.021c0.1,0.256,0.213,0.5,0.365,0.708c0.152,0.211,0.335,0.397,0.536,0.559
		c0.223,0.179,0.443,0.324,0.687,0.429c0.049,0.021,0.104,0.025,0.15,0.043c0.051,0.019,0.103,0.029,0.15,0.043v0.021
		c0.145,0.044,0.324,0.061,0.515,0.086c0.039,0.006,0.071,0.018,0.107,0.021c0.236,0.025,0.501,0.043,0.794,0.043h2.833v-1.138
		h-2.747c-0.319,0-0.575-0.03-0.794-0.107c-0.211-0.072-0.374-0.197-0.493-0.343h-0.021c-0.122-0.149-0.195-0.356-0.258-0.622
		c-0.065-0.276-0.107-0.612-0.107-1.009c0-0.66,0.074-2.102,0.215-2.489c0.026-0.071,0.054-0.15,0.086-0.215
		c0.031-0.063,0.071-0.122,0.106-0.171c0.127-0.183,0.287-0.316,0.494-0.408c0.213-0.094,0.47-0.15,0.772-0.15h2.747v-1.116H385.237
		z M388.841,522.387v7.768h1.867v-3.326h2.575v3.326h1.888v-7.768h-1.888v3.304h-2.575v-3.154v-0.15H388.841z M361.59,531.742
		l-0.043,0.086l-3.154,7.467l-0.086,0.215h1.996l0.043-0.107l0.794-2.081h2.704l0.794,2.081l0.043,0.107h2.082l-0.086-0.215
		l-3.176-7.467l-0.043-0.086h-1.76H361.59z M367.104,531.742v7.768h1.802h0.15v-7.768H367.104z M370.108,531.742v7.768h1.889v-2.939
		h1.588l1.609,2.854l0.042,0.086h2.125l-0.15-0.236l-1.738-2.939c0.285-0.088,0.525-0.226,0.729-0.407
		c0.05-0.046,0.107-0.082,0.15-0.129c0.041-0.045,0.064-0.112,0.107-0.172h0.021c0.141-0.195,0.23-0.414,0.301-0.665
		c0.068-0.247,0.107-0.516,0.107-0.815c0-0.583-0.111-1.069-0.343-1.438c-0.046-0.072-0.096-0.15-0.15-0.215
		c-0.056-0.063-0.129-0.115-0.193-0.172c-0.228-0.194-0.506-0.333-0.858-0.429c-0.342-0.094-0.759-0.15-1.223-0.15h-3.862H370.108z
		 M377.726,531.742v4.592c0,0.298,0.017,0.559,0.043,0.794c0.026,0.238,0.075,0.451,0.129,0.622
		c0.078,0.249,0.185,0.476,0.343,0.687c0.229,0.309,0.543,0.599,0.88,0.773c0.048,0.024,0.102,0.044,0.15,0.063
		c0.223,0.097,0.447,0.139,0.687,0.172c0.042,0.006,0.088,0.017,0.128,0.021c0.264,0.031,0.574,0.043,0.923,0.043h2.146
		c0-0.377,0-0.759,0-1.137h-1.996c-0.279,0-0.593,0.005-0.858-0.086c-0.498-0.172-0.655-0.526-0.687-1.03
		c-0.009-0.154,0-0.347,0-0.558v-4.957H377.726z M383.692,531.742v7.768h1.803h0.149v-7.768H383.692z M386.674,531.742v7.768h1.932
		l-0.021-0.15l-0.064-5.042l2.918,5.106l0.043,0.086h2.082v-7.768h-1.932v0.15l0.064,4.764l-2.747-4.828l-0.043-0.086h-2.081
		H386.674z M397.961,531.742c-0.893,0-1.626,0.176-2.188,0.515c-0.109,0.066-0.224,0.134-0.322,0.215
		c-0.101,0.082-0.174,0.167-0.258,0.258c-0.302,0.331-0.536,0.757-0.687,1.266c-0.146,0.504-0.214,1.086-0.214,1.76
		c0,0.499,0.048,0.95,0.149,1.352c0.021,0.082,0.041,0.164,0.064,0.236c0.022,0.073,0.037,0.141,0.064,0.215h0.021v0.021
		c0.102,0.255,0.213,0.475,0.365,0.687c0.15,0.209,0.335,0.396,0.536,0.558c0.222,0.179,0.464,0.324,0.708,0.43
		c0.048,0.02,0.081,0.047,0.129,0.063c0.051,0.019,0.104,0.029,0.15,0.043c0.145,0.044,0.324,0.083,0.515,0.107
		c0.039,0.006,0.072-0.004,0.107,0c0.235,0.026,0.501,0.043,0.794,0.043h2.833v-1.137h-2.747c-0.318,0-0.574-0.03-0.794-0.107
		c-0.21-0.074-0.374-0.178-0.493-0.322c-0.122-0.148-0.217-0.357-0.279-0.622c-0.064-0.276-0.107-0.612-0.107-1.009
		c0-0.037,0-0.089,0-0.129h4.421v-1.137h-4.378c0.035-0.534,0.097-1.037,0.172-1.245c0.026-0.07,0.053-0.128,0.086-0.192
		c0.029-0.062,0.072-0.123,0.107-0.172v-0.021c0.127-0.183,0.287-0.315,0.493-0.408c0.213-0.094,0.471-0.129,0.772-0.129h2.747
		v-1.137H397.961z M404.141,531.742c-0.714,0-1.543,0.09-2.103,0.579c-0.529,0.464-0.665,1.193-0.665,1.867
		c0,0.527,0.242,1.088,0.644,1.438c0.532,0.459,1.32,0.558,1.995,0.558h1.738c0.89,0,1.122,0.633,1.095,1.159
		c-0.02,0.396-0.33,0.966-1.202,0.966h-3.97c0,0.547,0,0.654,0,1.201h4.335c0.938,0,1.633-0.194,2.081-0.579
		c0.524-0.45,0.665-1.137,0.666-1.803c0-0.705-0.065-1.084-0.58-1.545c-0.167-0.148-0.385-0.258-0.644-0.343
		c-0.414-0.137-0.854-0.193-1.287-0.193h-1.867c-0.881-0.012-1.089-0.619-1.095-0.987c-0.011-0.78,0.646-1.116,1.417-1.116h3.712
		c0-0.546,0-0.654,0-1.201H404.141z M371.997,532.879h1.759c0.257,0,0.472,0.011,0.644,0.064c0.16,0.051,0.283,0.141,0.365,0.236
		c0.154,0.181,0.236,0.51,0.236,0.987c0,0.352-0.046,0.604-0.129,0.794c-0.017,0.037-0.047,0.079-0.064,0.107
		c-0.017,0.027-0.042,0.059-0.064,0.086c-0.176,0.203-0.499,0.3-0.987,0.3h-1.759V532.879z M362.469,533.802l0.923,2.382h-1.824
		L362.469,533.802z"/>
	<g>
		<path fill="#4B4B4B" d="M358.195,516.404c-0.082-0.987-0.926-1.77-1.922-1.745c-7.694,0.179-15.207,2.62-21.561,6.954
			c-0.823,0.561-1.035,1.703-0.521,2.531c0.833,1.345,1.726,2.62,2.697,3.853l1.113-4.565c0.107-0.393,0.368-0.656,0.711-0.816
			c0.381-0.177,0.922-0.246,1.698-0.237h0.342l-0.232,0.906l2.417-0.906h1.92l-0.372,1.542h-2.793
			c-0.84,0.022-1.468,0.473-1.648,1.225h-0.001l-0.407,1.625l-0.003,0.016c-0.008,0.049-0.15,0.644-0.154,0.692
			c-0.03,0.189,0.01,0.426,0.146,0.635c0.134,0.208,0.373,0.381,0.783,0.435c0.077,0.009,0.155,0.006,0.232,0.007h2.724
			l-0.384,1.556h-4.31c3.456,3.829,7.614,6.979,12.333,9.226c0.885,0.421,1.987,0.062,2.454-0.804c1.444-2.68,2.586-5.516,3.4-8.438
			h-0.922l-0.025-1.045c-0.004-0.1-0.089-0.115-0.128-0.113h-2.039c-0.134-0.002-0.182,0.03-0.226,0.134l-0.459,1.024h-2.843
			l3.891-7.691l4.104,0.002C358.362,520.411,358.358,518.405,358.195,516.404z M351.401,523.934h-2.915
			c-0.802-0.014-0.977,0.868-0.458,1.191l1.865,1.386c1.539,1.161,0.637,3.596-1.731,3.6h-4.607l0.37-1.567h2.964
			c1.013,0.005,1.505-0.883,0.782-1.379c-0.71-0.496-1.171-0.891-1.875-1.393c-1.426-1.011-0.755-3.369,1.639-3.382h4.344
			L351.401,523.934z"/>
		<path fill="#4B4B4B" d="M355.622,524.388l-1.432,3.179c-0.059,0.124-0.023,0.244,0.085,0.234h1.437
			c0.124-0.007,0.164-0.106,0.15-0.258l-0.093-3.147C355.765,524.286,355.672,524.278,355.622,524.388z"/>
	</g>
</g>
</svg>
