<?xml version="1.0" encoding="utf-8"?>
<!-- Generator: Adobe Illustrator 23.0.3, SVG Export Plug-In . SVG Version: 6.00 Build 0)  -->
<svg version="1.1" id="Capa_1" xmlns="http://www.w3.org/2000/svg" xmlns:xlink="http://www.w3.org/1999/xlink" x="0px" y="0px"
	 viewBox="0 0 21.7 20" style="enable-background:new 0 0 21.7 20;" xml:space="preserve">
<style type="text/css">
	.st0{fill:#E30613;}
</style>
<path class="st0" d="M14.2,15.7c0,0,2.2-0.3,2.9-0.3c1.3-0.1,1.9,0.5,1.9,1.4c0,0.9-0.6,1.3-1.9,1.3h-2.9V15.7z M11.6,20h5.6
	c0.9,0,1.9,0,2.5-0.2c0.6-0.2,0.9-0.5,1.3-0.9c0.4-0.5,0.6-1.3,0.6-2c0-0.7-0.1-1.4-0.7-2c-0.1-0.1-0.2-0.3-0.1-0.5s0.6-0.5,0.9-0.6
	c-4.3,0.2-7.5,0.6-10,1.1L11.6,20z"/>
<path class="st0" d="M10,16.5c0-0.1-0.1-0.3,0-0.6c0.1-0.3,0.7-0.6,0.8-0.7c0,0-0.4,0.1-0.4,0.1c-0.7,0.2-0.9,0.2-1.4,0.3
	c-0.8,0.2-4.5,1.1-7.7,2.9c0,0-0.1,0.3-0.1,0.3C0.7,19.7,0,20,0,20h3.3l0.5-1.5c0.1-0.2,0.5-0.6,1-0.7l3.1-0.4L8.7,20h2.6L10,16.5z"
	/>
<path class="st0" d="M14,9.2h-3.3v0.1c0.4,0.2,1,0.7,1,1.6v2.7c0.9-0.1,1.5-0.1,2.6-0.2v-2.3h2.2c1.2,0,1.8,0.4,1.8,1.2
	c0,0.5-0.5,0.7-1.1,0.9c0.3,0,0.8,0,1.1,0c1.1-0.1,1.7-0.1,2.3-0.8c0.5-0.6,0.4-1.3,0.1-1.8c-0.2-0.3-0.4-0.6-0.8-0.8
	c-0.4-0.2-1.2-0.4-2-0.5C17.2,9.3,14.6,9.2,14,9.2"/>
<path class="st0" d="M6,11.7l0.9,2.6c0.8-0.2,1.5-0.3,2.3-0.4L7.5,9.3H4.6l0,0H3.5v0.1C3.8,9.5,4.3,9.9,4,10.9l-1.6,4.5
	c0.7-0.2,2-0.5,2.7-0.7L6,11.7z"/>
<path class="st0" d="M8.6,3.7C8.3,3.5,7.6,3,7.1,2.2C7,3,6.6,3.7,6.4,4.1c0.2,0.1,0.3,0.1,0.6,0.1C7.6,4.2,8.2,4.1,8.6,3.7"/>
<path class="st0" d="M14.7,4.1c0.2,0,0.4-0.1,0.6-0.1c-0.2-0.3-0.6-1-0.7-1.9C14.1,3,13.3,3.5,13,3.7C13.4,4.1,14,4.2,14.7,4.1"/>
<path class="st0" d="M10.8,6.5c2,0,3.8,0.4,5.2,1h0c0.5-1.3,2.4-5.7,2.4-5.7c-0.3,0.3-1.6,2.6-3.9,2.8c-2.3,0.2-3.2-2.1-3.7-4.6l0,0
	l0,0c-0.6,2.5-1.5,4.8-3.7,4.6C4.8,4.4,3.5,2.1,3.2,1.8c0,0,1.9,4.4,2.4,5.7C7,6.9,8.8,6.5,10.8,6.5"/>
</svg>
