<?xml version="1.0" encoding="utf-8"?>
<!-- Generator: Adobe Illustrator 16.0.0, SVG Export Plug-In . SVG Version: 6.00 Build 0)  -->
<!DOCTYPE svg PUBLIC "-//W3C//DTD SVG 1.0//EN" "http://www.w3.org/TR/2001/REC-SVG-20010904/DTD/svg10.dtd">
<svg version="1.0" id="Layer_1" xmlns="http://www.w3.org/2000/svg" xmlns:xlink="http://www.w3.org/1999/xlink" x="0px" y="0px"
	 width="157px" height="26px" viewBox="0 0 157 26" style="enable-background:new 0 0 157 26;" xml:space="preserve">
<style type="text/css">
<![CDATA[
	.st0{fill:#868686;}
	.st1{fill:#202020;}
	.st2{fill:url(#SVGID_1_);}
	.st3{fill:url(#SVGID_2_);}
	.st4{fill:url(#SVGID_3_);}
	.st5{fill:url(#SVGID_4_);}
	.st6{fill:url(#SVGID_5_);}
	.st7{fill:url(#SVGID_6_);}
	.st8{fill:url(#SVGID_7_);}
	.st9{fill:url(#SVGID_8_);}
	.st10{fill:url(#SVGID_9_);}
	.st11{opacity:0.7;}
	.st12{fill:none;}
	.st13{fill:url(#SVGID_10_);}
	.st14{fill:url(#SVGID_11_);}
	.st15{fill:url(#SVGID_12_);}
	.st16{fill:url(#SVGID_13_);}
	.st17{fill:url(#SVGID_14_);}
	.st18{fill:url(#SVGID_15_);}
	.st19{fill:url(#SVGID_16_);}
	.st20{fill:url(#SVGID_17_);}
	.st21{fill:url(#SVGID_18_);}
	.st22{fill:url(#SVGID_19_);}
]]>
</style>
<g class="st11">
	<g>
		
			<linearGradient id="SVGID_1_" gradientUnits="userSpaceOnUse" x1="732.6455" y1="536.5234" x2="715.4468" y2="530.332" gradientTransform="matrix(0.9995 0.144 -0.0412 1.0131 -594.625 -633.6899)">
			<stop  offset="0" style="stop-color:#E7E7E7"/>
			<stop  offset="0.1211" style="stop-color:#EFEFEF"/>
			<stop  offset="0.2637" style="stop-color:#FFFFFF"/>
			<stop  offset="0.4549" style="stop-color:#FBFBFB"/>
			<stop  offset="0.6346" style="stop-color:#F0F0F0"/>
			<stop  offset="0.8097" style="stop-color:#DDDDDD"/>
			<stop  offset="0.9809" style="stop-color:#C2C2C2"/>
			<stop  offset="1" style="stop-color:#BFBFBF"/>
		</linearGradient>
		<path class="st2" d="M120.61,16.1c-0.81-2.15-2.83-3.75-5.83-5.13C107.7,7.72,97.66,5.15,96.68,0.5c0.27,4.52,3.77,6.95,7.99,8.73
			c4.46,1.5,10.3,3.2,13.32,5.31c3.39,2.37,2.66,5.3,0.54,7.27c-0.04,0.05-0.08,0.09-0.13,0.14
			C121.27,19.86,121.04,17.24,120.61,16.1z"/>
		
			<linearGradient id="SVGID_2_" gradientUnits="userSpaceOnUse" x1="319.8291" y1="629.333" x2="319.9402" y2="644.3889" gradientTransform="matrix(1.0238 -0.2068 0.5626 0.9176 -573.9304 -505.9277)">
			<stop  offset="0.0934" style="stop-color:#A7A7A7"/>
			<stop  offset="0.2607" style="stop-color:#949494"/>
			<stop  offset="0.4422" style="stop-color:#828282"/>
			<stop  offset="0.587" style="stop-color:#787878"/>
			<stop  offset="0.6758" style="stop-color:#747474"/>
			<stop  offset="0.8846" style="stop-color:#5D5D5D"/>
		</linearGradient>
		<path class="st3" d="M118.63,21.58c-0.39,0.46-0.95,0.91-1.64,1.34c-0.03,0.02-0.06,0.04-0.09,0.06c0.59-0.33,1.15-0.72,1.63-1.17
			c0.17-0.18,0.33-0.4,0.47-0.63C118.89,21.31,118.77,21.44,118.63,21.58z"/>
		
			<linearGradient id="SVGID_3_" gradientUnits="userSpaceOnUse" x1="317.8564" y1="629.3818" x2="317.9673" y2="644.4069" gradientTransform="matrix(1.0238 -0.2068 0.5626 0.9176 -573.9304 -505.9277)">
			<stop  offset="0.0934" style="stop-color:#A7A7A7"/>
			<stop  offset="0.2607" style="stop-color:#949494"/>
			<stop  offset="0.4422" style="stop-color:#828282"/>
			<stop  offset="0.587" style="stop-color:#787878"/>
			<stop  offset="0.6758" style="stop-color:#747474"/>
			<stop  offset="0.8846" style="stop-color:#5D5D5D"/>
		</linearGradient>
		<path class="st4" d="M119.71,19.12c0,0.08,0,0.16,0,0.23c0.27-1.26,0.14-2.57-0.59-3.31c-0.83-0.84-2.21-2.09-3.84-2.86
			c-3.03-1.43-7.07-2.46-10.61-3.95c-2.96-0.99-5.32-1.9-5.84-2.76c1.15,2.93,4.16,4.51,7.55,5.7
			C112.05,13.79,119.6,15.43,119.71,19.12z"/>
		
			<linearGradient id="SVGID_4_" gradientUnits="userSpaceOnUse" x1="732.2305" y1="537.6719" x2="715.0304" y2="531.48" gradientTransform="matrix(0.9995 0.144 -0.0412 1.0131 -594.625 -633.6899)">
			<stop  offset="0" style="stop-color:#E7E7E7"/>
			<stop  offset="0.1211" style="stop-color:#EFEFEF"/>
			<stop  offset="0.2637" style="stop-color:#FFFFFF"/>
			<stop  offset="0.4549" style="stop-color:#FBFBFB"/>
			<stop  offset="0.6346" style="stop-color:#F0F0F0"/>
			<stop  offset="0.8097" style="stop-color:#DDDDDD"/>
			<stop  offset="0.9809" style="stop-color:#C2C2C2"/>
			<stop  offset="1" style="stop-color:#BFBFBF"/>
		</linearGradient>
		<path class="st5" d="M117.99,14.54c-3.02-2.11-8.86-3.81-13.32-5.31c3.54,1.49,7.58,2.52,10.61,3.95
			c1.63,0.77,3.01,2.02,3.84,2.86c0.73,0.74,0.85,2.06,0.59,3.31c-0.02,0.79-0.29,1.32-0.71,1.82c-0.14,0.23-0.3,0.45-0.47,0.63
			C120.65,19.84,121.38,16.91,117.99,14.54z"/>
		
			<linearGradient id="SVGID_5_" gradientUnits="userSpaceOnUse" x1="319.876" y1="629.3691" x2="319.9869" y2="644.3931" gradientTransform="matrix(1.0238 -0.2068 0.5626 0.9176 -573.9304 -505.9277)">
			<stop  offset="0.0934" style="stop-color:#A7A7A7"/>
			<stop  offset="0.2607" style="stop-color:#949494"/>
			<stop  offset="0.4422" style="stop-color:#828282"/>
			<stop  offset="0.587" style="stop-color:#787878"/>
			<stop  offset="0.6758" style="stop-color:#747474"/>
			<stop  offset="0.8846" style="stop-color:#5D5D5D"/>
		</linearGradient>
		<path class="st6" d="M117.99,14.54c-3.02-2.11-8.86-3.81-13.32-5.31c3.54,1.49,7.58,2.52,10.61,3.95
			c1.63,0.77,3.01,2.02,3.84,2.86c0.73,0.74,0.85,2.06,0.59,3.31c-0.02,0.79-0.29,1.32-0.71,1.82c-0.14,0.23-0.3,0.45-0.47,0.63
			C120.65,19.84,121.38,16.91,117.99,14.54z"/>
		
			<linearGradient id="SVGID_6_" gradientUnits="userSpaceOnUse" x1="434.0811" y1="607.6885" x2="434.1511" y2="617.1671" gradientTransform="matrix(1.0478 4.300000e-03 0.3879 0.9557 -582.0137 -572.2216)">
			<stop  offset="0.0659" style="stop-color:#9C9C9C"/>
			<stop  offset="0.3516" style="stop-color:#5B5B5B"/>
			<stop  offset="0.5461" style="stop-color:#5A5A5A"/>
			<stop  offset="0.6474" style="stop-color:#575757"/>
			<stop  offset="0.7272" style="stop-color:#515151"/>
			<stop  offset="0.7953" style="stop-color:#494949"/>
			<stop  offset="0.85" style="stop-color:#3F3F3F"/>
		</linearGradient>
		<path class="st7" d="M118.16,16.9c-2.51-2.31-7.46-3.21-11.78-4.73c-2.41-0.69-4.48-1.37-5.49-2.2
			c4.07,6.65,17.46,6.27,18.38,9.76c0.15,0.58-0.09,1.15-0.46,1.63c-0.04,0.05-0.07,0.1-0.12,0.15
			C119.65,20.39,120.21,18.78,118.16,16.9z"/>
		
			<linearGradient id="SVGID_7_" gradientUnits="userSpaceOnUse" x1="319.249" y1="629.373" x2="319.3599" y2="644.3977" gradientTransform="matrix(1.0238 -0.2068 0.5626 0.9176 -573.9304 -505.9277)">
			<stop  offset="0.0934" style="stop-color:#A7A7A7"/>
			<stop  offset="0.2607" style="stop-color:#949494"/>
			<stop  offset="0.4422" style="stop-color:#828282"/>
			<stop  offset="0.587" style="stop-color:#787878"/>
			<stop  offset="0.6758" style="stop-color:#747474"/>
			<stop  offset="0.8846" style="stop-color:#5D5D5D"/>
		</linearGradient>
		<path class="st8" d="M118.7,21.5c-0.02,0.02-0.04,0.05-0.06,0.07c0.13-0.13,0.26-0.27,0.37-0.4c0.32-0.53,0.57-1.16,0.71-1.82
			c0-0.08,0-0.15,0-0.23c-0.11-3.69-7.66-5.34-13.33-6.95c4.32,1.52,9.27,2.43,11.78,4.73C120.21,18.78,119.65,20.39,118.7,21.5z"/>
		
			<linearGradient id="SVGID_8_" gradientUnits="userSpaceOnUse" x1="436.418" y1="607.6719" x2="436.488" y2="617.1526" gradientTransform="matrix(1.0478 4.300000e-03 0.3879 0.9557 -582.0137 -572.2216)">
			<stop  offset="0.0659" style="stop-color:#9C9C9C"/>
			<stop  offset="0.3516" style="stop-color:#5B5B5B"/>
			<stop  offset="0.5461" style="stop-color:#5A5A5A"/>
			<stop  offset="0.6474" style="stop-color:#575757"/>
			<stop  offset="0.7272" style="stop-color:#515151"/>
			<stop  offset="0.7953" style="stop-color:#494949"/>
			<stop  offset="0.85" style="stop-color:#3F3F3F"/>
		</linearGradient>
		<path class="st9" d="M118.7,21.5c-0.02,0.02-0.04,0.05-0.06,0.07c0.13-0.13,0.26-0.27,0.37-0.4c0.32-0.53,0.57-1.16,0.71-1.82
			c0-0.08,0-0.15,0-0.23c-0.11-3.69-7.66-5.34-13.33-6.95c4.32,1.52,9.27,2.43,11.78,4.73C120.21,18.78,119.65,20.39,118.7,21.5z"/>
		
			<linearGradient id="SVGID_9_" gradientUnits="userSpaceOnUse" x1="731.7676" y1="539.0508" x2="714.6794" y2="532.8993" gradientTransform="matrix(0.9995 0.144 -0.0412 1.0131 -594.625 -633.6899)">
			<stop  offset="0" style="stop-color:#E7E7E7"/>
			<stop  offset="0.1211" style="stop-color:#EFEFEF"/>
			<stop  offset="0.2637" style="stop-color:#FFFFFF"/>
			<stop  offset="0.4549" style="stop-color:#FBFBFB"/>
			<stop  offset="0.6346" style="stop-color:#F0F0F0"/>
			<stop  offset="0.8097" style="stop-color:#DDDDDD"/>
			<stop  offset="0.9809" style="stop-color:#C2C2C2"/>
			<stop  offset="1" style="stop-color:#BFBFBF"/>
		</linearGradient>
		<path class="st10" d="M119.71,19.36c-0.14,0.65-0.38,1.29-0.71,1.82C119.42,20.68,119.69,20.15,119.71,19.36z"/>
		
			<linearGradient id="SVGID_10_" gradientUnits="userSpaceOnUse" x1="322.0254" y1="629.3301" x2="322.1364" y2="644.374" gradientTransform="matrix(1.0238 -0.2068 0.5626 0.9176 -573.9304 -505.9277)">
			<stop  offset="0.0934" style="stop-color:#A7A7A7"/>
			<stop  offset="0.2607" style="stop-color:#949494"/>
			<stop  offset="0.4422" style="stop-color:#828282"/>
			<stop  offset="0.587" style="stop-color:#787878"/>
			<stop  offset="0.6758" style="stop-color:#747474"/>
			<stop  offset="0.8846" style="stop-color:#5D5D5D"/>
		</linearGradient>
		<path class="st13" d="M119.71,19.36c-0.14,0.65-0.38,1.29-0.71,1.82C119.42,20.68,119.69,20.15,119.71,19.36z"/>
		
			<linearGradient id="SVGID_11_" gradientUnits="userSpaceOnUse" x1="440.5205" y1="607.6416" x2="440.5905" y2="617.1197" gradientTransform="matrix(1.0478 4.300000e-03 0.3879 0.9557 -582.0137 -572.2216)">
			<stop  offset="0.0659" style="stop-color:#9C9C9C"/>
			<stop  offset="0.3516" style="stop-color:#5B5B5B"/>
			<stop  offset="0.5461" style="stop-color:#5A5A5A"/>
			<stop  offset="0.6474" style="stop-color:#575757"/>
			<stop  offset="0.7272" style="stop-color:#515151"/>
			<stop  offset="0.7953" style="stop-color:#494949"/>
			<stop  offset="0.85" style="stop-color:#3F3F3F"/>
		</linearGradient>
		<path class="st14" d="M119.71,19.36c-0.14,0.65-0.38,1.29-0.71,1.82C119.42,20.68,119.69,20.15,119.71,19.36z"/>
		
			<linearGradient id="SVGID_12_" gradientUnits="userSpaceOnUse" x1="766.8662" y1="592.4443" x2="770.5707" y2="585.694" gradientTransform="matrix(0.9996 0.029 -0.029 0.9996 -633.6558 -591.2638)">
			<stop  offset="0.0659" style="stop-color:#9C9C9C"/>
			<stop  offset="0.3516" style="stop-color:#5B5B5B"/>
			<stop  offset="0.5461" style="stop-color:#5A5A5A"/>
			<stop  offset="0.6474" style="stop-color:#575757"/>
			<stop  offset="0.7272" style="stop-color:#515151"/>
			<stop  offset="0.7953" style="stop-color:#494949"/>
			<stop  offset="0.85" style="stop-color:#3F3F3F"/>
		</linearGradient>
		<path class="st15" d="M118.61,21.6c-0.05,0.05-0.09,0.1-0.14,0.14c0.12-0.12,0.24-0.25,0.35-0.39c0.88-1.2,0.49-2.38-1.91-3.12
			c2.63,1.26,0.46,4.99-4.15,6.53c1.65-0.5,3.11-1.15,4.24-1.85C117.36,22.68,118.04,22.23,118.61,21.6z"/>
		
			<linearGradient id="SVGID_13_" gradientUnits="userSpaceOnUse" x1="319.6172" y1="629.3662" x2="319.7281" y2="644.3945" gradientTransform="matrix(1.0238 -0.2068 0.5626 0.9176 -573.9304 -505.9277)">
			<stop  offset="0.0934" style="stop-color:#A7A7A7"/>
			<stop  offset="0.2607" style="stop-color:#949494"/>
			<stop  offset="0.4422" style="stop-color:#828282"/>
			<stop  offset="0.587" style="stop-color:#787878"/>
			<stop  offset="0.6758" style="stop-color:#747474"/>
			<stop  offset="0.8846" style="stop-color:#5D5D5D"/>
		</linearGradient>
		<path class="st16" d="M118.63,21.58c-0.01,0.01-0.02,0.02-0.03,0.03c-0.57,0.63-1.25,1.08-1.61,1.31
			C117.69,22.49,118.25,22.03,118.63,21.58z"/>
		
			<linearGradient id="SVGID_14_" gradientUnits="userSpaceOnUse" x1="768.0303" y1="593.082" x2="771.7327" y2="586.3355" gradientTransform="matrix(0.9996 0.029 -0.029 0.9996 -633.6558 -591.2638)">
			<stop  offset="0.0659" style="stop-color:#9C9C9C"/>
			<stop  offset="0.3516" style="stop-color:#5B5B5B"/>
			<stop  offset="0.5461" style="stop-color:#5A5A5A"/>
			<stop  offset="0.6474" style="stop-color:#575757"/>
			<stop  offset="0.7272" style="stop-color:#515151"/>
			<stop  offset="0.7953" style="stop-color:#494949"/>
			<stop  offset="0.85" style="stop-color:#3F3F3F"/>
		</linearGradient>
		<path class="st17" d="M118.63,21.58c-0.01,0.01-0.02,0.02-0.03,0.03c-0.57,0.63-1.25,1.08-1.61,1.31
			C117.69,22.49,118.25,22.03,118.63,21.58z"/>
		
			<linearGradient id="SVGID_15_" gradientUnits="userSpaceOnUse" x1="439.3359" y1="607.626" x2="439.406" y2="617.1257" gradientTransform="matrix(1.0478 4.300000e-03 0.3879 0.9557 -582.0137 -572.2216)">
			<stop  offset="0.0659" style="stop-color:#9C9C9C"/>
			<stop  offset="0.3516" style="stop-color:#5B5B5B"/>
			<stop  offset="0.5461" style="stop-color:#5A5A5A"/>
			<stop  offset="0.6474" style="stop-color:#575757"/>
			<stop  offset="0.7272" style="stop-color:#515151"/>
			<stop  offset="0.7953" style="stop-color:#494949"/>
			<stop  offset="0.85" style="stop-color:#3F3F3F"/>
		</linearGradient>
		<path class="st18" d="M118.61,21.6c0.03-0.03,0.06-0.07,0.09-0.1c0.04-0.05,0.08-0.1,0.12-0.15c-0.11,0.14-0.23,0.27-0.35,0.39
			C118.51,21.7,118.56,21.65,118.61,21.6z"/>
		
			<linearGradient id="SVGID_16_" gradientUnits="userSpaceOnUse" x1="768.3496" y1="593.2559" x2="772.0515" y2="586.5103" gradientTransform="matrix(0.9996 0.029 -0.029 0.9996 -633.6558 -591.2638)">
			<stop  offset="0.0659" style="stop-color:#9C9C9C"/>
			<stop  offset="0.3516" style="stop-color:#5B5B5B"/>
			<stop  offset="0.5461" style="stop-color:#5A5A5A"/>
			<stop  offset="0.6474" style="stop-color:#575757"/>
			<stop  offset="0.7272" style="stop-color:#515151"/>
			<stop  offset="0.7953" style="stop-color:#494949"/>
			<stop  offset="0.85" style="stop-color:#3F3F3F"/>
		</linearGradient>
		<path class="st19" d="M118.61,21.6c0.03-0.03,0.06-0.07,0.09-0.1c0.04-0.05,0.08-0.1,0.12-0.15c-0.11,0.14-0.23,0.27-0.35,0.39
			C118.51,21.7,118.56,21.65,118.61,21.6z"/>
		
			<linearGradient id="SVGID_17_" gradientUnits="userSpaceOnUse" x1="320.7275" y1="629.4736" x2="320.8377" y2="644.4053" gradientTransform="matrix(1.0238 -0.2068 0.5626 0.9176 -573.9304 -505.9277)">
			<stop  offset="0.0934" style="stop-color:#A7A7A7"/>
			<stop  offset="0.2607" style="stop-color:#949494"/>
			<stop  offset="0.4422" style="stop-color:#828282"/>
			<stop  offset="0.587" style="stop-color:#787878"/>
			<stop  offset="0.6758" style="stop-color:#747474"/>
			<stop  offset="0.8846" style="stop-color:#5D5D5D"/>
		</linearGradient>
		<path class="st20" d="M118.61,21.6c0.01-0.01,0.02-0.02,0.03-0.03c0.02-0.02,0.04-0.05,0.06-0.07
			C118.67,21.54,118.64,21.57,118.61,21.6z"/>
		
			<linearGradient id="SVGID_18_" gradientUnits="userSpaceOnUse" x1="439.3447" y1="607.6572" x2="439.4146" y2="617.1297" gradientTransform="matrix(1.0478 4.300000e-03 0.3879 0.9557 -582.0137 -572.2216)">
			<stop  offset="0.0659" style="stop-color:#9C9C9C"/>
			<stop  offset="0.3516" style="stop-color:#5B5B5B"/>
			<stop  offset="0.5461" style="stop-color:#5A5A5A"/>
			<stop  offset="0.6474" style="stop-color:#575757"/>
			<stop  offset="0.7272" style="stop-color:#515151"/>
			<stop  offset="0.7953" style="stop-color:#494949"/>
			<stop  offset="0.85" style="stop-color:#3F3F3F"/>
		</linearGradient>
		<path class="st21" d="M118.61,21.6c0.01-0.01,0.02-0.02,0.03-0.03c0.02-0.02,0.04-0.05,0.06-0.07
			C118.67,21.54,118.64,21.57,118.61,21.6z"/>
		
			<linearGradient id="SVGID_19_" gradientUnits="userSpaceOnUse" x1="768.3799" y1="593.2227" x2="772.0253" y2="586.5798" gradientTransform="matrix(0.9996 0.029 -0.029 0.9996 -633.6558 -591.2638)">
			<stop  offset="0.0659" style="stop-color:#9C9C9C"/>
			<stop  offset="0.3516" style="stop-color:#5B5B5B"/>
			<stop  offset="0.5461" style="stop-color:#5A5A5A"/>
			<stop  offset="0.6474" style="stop-color:#575757"/>
			<stop  offset="0.7272" style="stop-color:#515151"/>
			<stop  offset="0.7953" style="stop-color:#494949"/>
			<stop  offset="0.85" style="stop-color:#3F3F3F"/>
		</linearGradient>
		<path class="st22" d="M118.61,21.6c0.01-0.01,0.02-0.02,0.03-0.03c0.02-0.02,0.04-0.05,0.06-0.07
			C118.67,21.54,118.64,21.57,118.61,21.6z"/>
	</g>
	<g>
		<path class="st12" d="M79.42,16.94c0.08,0.06,0.26,0.11,0.55,0.11c0,0,0.01,0,0.02,0c0.53,0,0.8-0.1,1-0.31
			c0.2-0.21,0.35-0.58,0.51-1.16l0,0c0.13-0.5,0.24-0.91,0.25-1.18c0-0.02,0-0.03,0-0.04c0-0.2-0.04-0.29-0.13-0.37
			c-0.09-0.08-0.3-0.15-0.67-0.15h-0.01c-0.53,0.01-0.77,0.15-0.98,0.44c-0.2,0.29-0.34,0.77-0.51,1.38
			c-0.1,0.38-0.16,0.67-0.16,0.87c0,0.01,0,0.02,0,0.04C79.29,16.8,79.34,16.88,79.42,16.94z"/>
		<path class="st12" d="M51.72,23.87c-0.02,0.22,0.06,0.37,0.24,0.37c0.2,0,0.46-0.22,0.6-0.77l0.14-0.52
			c-0.05-0.01-0.11-0.02-0.18-0.02C52.1,22.94,51.75,23.46,51.72,23.87z"/>
		<path class="st12" d="M89.23,23.16c-0.17,0-0.27,0.05-0.34,0.15c-0.07,0.1-0.15,0.37-0.2,0.58c-0.06,0.24-0.05,0.39,0.23,0.39
			c0.11,0,0.24-0.02,0.32-0.1c0.07-0.07,0.14-0.24,0.19-0.42c0.05-0.17,0.08-0.31,0.09-0.39C89.53,23.24,89.47,23.16,89.23,23.16z"
			/>
		<polygon class="st12" points="90.19,13.36 89.17,15.28 90.06,15.28 		"/>
		<path class="st12" d="M64.42,16.94c0.08,0.06,0.26,0.11,0.55,0.11h0.02c0.53,0,0.8-0.1,1-0.31c0.2-0.21,0.35-0.58,0.52-1.16
			l0.01-0.02c0.13-0.49,0.23-0.89,0.24-1.15c0-0.02,0-0.03,0-0.04c0-0.2-0.04-0.29-0.13-0.37c-0.09-0.08-0.31-0.15-0.67-0.15l0,0
			h-0.01c-0.53,0.01-0.77,0.15-0.98,0.44c-0.2,0.29-0.34,0.77-0.51,1.38c-0.1,0.38-0.16,0.67-0.16,0.87c0,0.01,0,0.03,0,0.04
			C64.3,16.8,64.34,16.88,64.42,16.94z"/>
		<path class="st12" d="M42.41,15.36c-0.06-0.07-0.13-0.12-0.23-0.15c-0.09-0.03-0.27-0.05-0.54-0.05h-0.01h-1.08L40,17.02h0.87
			c0.22,0,0.39-0.01,0.51-0.03s0.23-0.05,0.34-0.09c0.12-0.05,0.21-0.09,0.27-0.14c0.07-0.05,0.13-0.11,0.19-0.19
			s0.12-0.17,0.17-0.28c0.05-0.1,0.09-0.21,0.12-0.32c0.02-0.09,0.03-0.16,0.04-0.23c0-0.02,0-0.03,0-0.04c0-0.04,0-0.07-0.01-0.1
			C42.5,15.5,42.46,15.43,42.41,15.36z"/>
		<path class="st12" d="M43.21,12.71l0.01-0.02c0.01-0.06,0.02-0.12,0.02-0.18c0-0.01,0-0.03,0-0.04c0-0.03,0-0.06,0-0.08
			c-0.01-0.09-0.04-0.15-0.08-0.2c-0.05-0.05-0.11-0.09-0.2-0.12c-0.08-0.03-0.25-0.04-0.47-0.04c0,0-0.01,0-0.02,0
			c0,0-0.49-0.01-0.73,0c-0.19,0.02-0.25,0.04-0.36,0.36c-0.07,0.26-0.29,0.95-0.39,1.31h0.54c0.33,0,0.55-0.01,0.65-0.03
			c0.1-0.02,0.22-0.05,0.35-0.1c0.11-0.04,0.21-0.11,0.31-0.2c0.1-0.1,0.18-0.2,0.25-0.32C43.13,12.95,43.18,12.83,43.21,12.71z"/>
		<path class="st12" d="M58.2,17.02L58.2,17.02c0.62,0,0.89-0.14,1.09-0.41c0.2-0.27,0.37-0.92,0.5-1.39
			c0.14-0.47,0.17-0.66,0.17-0.87c0-0.01,0-0.03,0-0.04c0-0.2-0.04-0.29-0.13-0.37s-0.31-0.14-0.66-0.14h-0.01
			c-0.44,0-0.67,0.07-0.86,0.27c-0.19,0.2-0.36,0.58-0.54,1.23c-0.13,0.5-0.24,0.91-0.25,1.18c0,0.01,0,0.03,0,0.04
			c0,0.18,0.04,0.28,0.11,0.35C57.71,16.96,57.88,17.03,58.2,17.02z"/>
		<path class="st12" d="M68.4,22.92c-0.31,0-0.5,0.25-0.56,0.46c0.51,0,0.77-0.07,0.79-0.27l0,0C68.64,23,68.55,22.92,68.4,22.92z"
			/>
		<path class="st12" d="M40.17,23.87c-0.02,0.22,0.06,0.37,0.24,0.37c0.2,0,0.46-0.22,0.6-0.77l0.14-0.52
			c-0.05-0.01-0.11-0.02-0.18-0.02C40.55,22.94,40.2,23.46,40.17,23.87z"/>
		<path class="st12" d="M98.49,23.15c-0.14,0-0.24,0.03-0.3,0.09c-0.07,0.07-0.12,0.2-0.19,0.43c-0.05,0.17-0.08,0.32-0.09,0.41
			c0,0.12,0.04,0.18,0.24,0.18c0.16,0,0.3-0.02,0.38-0.14c0.07-0.1,0.13-0.32,0.18-0.49c0.05-0.16,0.09-0.32,0.04-0.41
			C98.71,23.18,98.63,23.15,98.49,23.15z"/>
		<path class="st12" d="M59.78,23.87c-0.02,0.22,0.06,0.37,0.24,0.37c0.2,0,0.46-0.22,0.6-0.77l0.14-0.52
			c-0.05-0.01-0.11-0.02-0.18-0.02C60.16,22.94,59.81,23.46,59.78,23.87z"/>
		<path class="st12" d="M46.82,22.94c-0.38,0-0.61,0.55-0.63,0.9c-0.02,0.26,0.1,0.43,0.32,0.43c0.36,0,0.6-0.52,0.63-0.91
			C47.15,23.16,47.08,22.94,46.82,22.94z"/>
		<path class="st12" d="M96.04,23.15c-0.21,0-0.32,0.05-0.4,0.16c-0.07,0.1-0.13,0.31-0.2,0.56c-0.07,0.25-0.07,0.45,0.23,0.45
			c0.31,0,0.43-0.17,0.53-0.54c0.05-0.17,0.08-0.31,0.09-0.41C96.31,23.2,96.14,23.15,96.04,23.15z"/>
		<g>
			<path class="st0" d="M53.96,17.28l1.75-6.48H54l-0.01,0.04l-2.06,7.62h0.64C53.24,18.46,53.79,17.99,53.96,17.28z"/>
		</g>
		<g>
			<g>
				<path class="st0" d="M43.77,17.26c0.22-0.31,0.38-0.66,0.47-1.03c0.04-0.17,0.06-0.33,0.07-0.49l0,0v-0.02c0-0.03,0-0.06,0-0.08
					c0-0.13-0.01-0.26-0.04-0.37c-0.03-0.14-0.08-0.28-0.16-0.41c-0.07-0.13-0.16-0.24-0.27-0.32c-0.06-0.05-0.13-0.1-0.19-0.13
					c0,0,0,0,0.01,0c0.13-0.07,0.26-0.15,0.4-0.26c0.15-0.12,0.29-0.25,0.41-0.41c0.13-0.16,0.24-0.34,0.33-0.54
					c0.09-0.2,0.17-0.4,0.22-0.62c0.04-0.17,0.06-0.33,0.07-0.49c0-0.01,0-0.02,0-0.03l0,0c0-0.02,0-0.03,0-0.05
					c0-0.16-0.02-0.31-0.06-0.45c-0.04-0.16-0.1-0.3-0.19-0.42l0,0c-0.09-0.12-0.21-0.23-0.35-0.31c-0.15-0.08-0.31-0.14-0.49-0.17
					c-0.2-0.04-0.47-0.05-0.83-0.05c-0.26,0-0.56-0.01-0.96,0c-0.26,0.01-0.49,0.01-0.69,0.01c-0.95,0-1.62,0.66-1.89,1.68
					c-0.11,0.41-0.28,0.92-0.45,1.51c-0.35,1.19-0.6,2.02-0.75,2.51c-0.1,0.32-0.29,0.88-0.38,1.15c-0.08,0.24-0.26,0.53-0.43,0.65
					l-0.46,0.34h2.89c0.97,0,1.61-0.03,1.96-0.09c0.33-0.06,0.66-0.18,0.96-0.36C43.28,17.82,43.55,17.57,43.77,17.26z M42.52,15.74
					c0,0.07-0.01,0.14-0.04,0.23c-0.03,0.11-0.07,0.21-0.12,0.32c-0.05,0.1-0.11,0.2-0.17,0.28s-0.13,0.14-0.19,0.19
					c-0.06,0.04-0.15,0.09-0.27,0.14c-0.12,0.05-0.23,0.08-0.34,0.09c-0.12,0.02-0.29,0.03-0.51,0.03H40l0.54-1.86h1.08
					c0.01,0,0.01,0,0.01,0c0.26,0,0.45,0.02,0.54,0.05c0.1,0.04,0.17,0.08,0.23,0.15c0.06,0.07,0.09,0.14,0.11,0.24
					c0.01,0.03,0.01,0.06,0.01,0.1C42.52,15.71,42.52,15.73,42.52,15.74z M42.51,13.59c-0.13,0.05-0.25,0.08-0.35,0.1
					c-0.09,0.02-0.32,0.03-0.65,0.03h-0.54c0.1-0.36,0.32-1.06,0.39-1.31c0.11-0.32,0.17-0.34,0.36-0.36c0.24-0.01,0.73,0,0.73,0
					c0.01,0,0.01,0,0.02,0c0.23,0,0.39,0.02,0.47,0.04c0.09,0.03,0.15,0.07,0.2,0.12c0.04,0.05,0.07,0.11,0.08,0.2
					c0,0.03,0,0.05,0,0.08c0,0.01,0,0.02,0,0.04c0,0.05-0.01,0.11-0.02,0.18l-0.01,0.02c-0.03,0.12-0.07,0.24-0.14,0.36
					c-0.06,0.12-0.14,0.22-0.25,0.32C42.72,13.49,42.62,13.55,42.51,13.59z"/>
			</g>
		</g>
		<g>
			<path class="st0" d="M50.47,17.82c0.01-0.09,0.04-0.19,0.06-0.27l1.31-4.99h-1.68L49.3,15.7c-0.11,0.5-0.23,0.86-0.42,1.07
				c-0.19,0.21-0.44,0.33-0.94,0.33l0,0c-0.29,0-0.47-0.05-0.55-0.12c-0.08-0.06-0.11-0.13-0.11-0.29c0-0.01,0-0.02,0-0.02
				c0-0.11,0.03-0.24,0.07-0.4l1-3.73h-1.71l-1.02,3.76c-0.08,0.31-0.12,0.58-0.13,0.82c0,0.03,0,0.06,0,0.08
				c0,0.38,0.12,0.71,0.38,0.93c0.28,0.22,0.69,0.31,1.24,0.31h0.07c0.54,0,1.08-0.05,1.55-0.4l-0.08,0.37h2.15l-0.25-0.31
				C50.5,18.04,50.45,17.94,50.47,17.82z"/>
		</g>
		<g>
			<g>
				<path class="st0" d="M88.53,16.59h1.4l-0.13,1.87h2.27l-0.11-0.09c0,0-0.14-0.11-0.25-0.26c-0.1-0.13-0.14-0.25-0.14-0.45l0,0
					v-0.08l0,0c0.01-0.26,0.31-5.56,0.33-5.89v-0.01c0-0.02,0-0.05,0-0.07c0-0.49-0.26-0.91-0.76-0.95
					c-0.1-0.01-0.19-0.02-0.28-0.02h-0.01c-0.3,0-0.56,0.09-0.83,0.29c-0.21,0.15-0.44,0.41-0.58,0.66
					c-0.13,0.23-3.55,6.58-3.55,6.59l-0.15,0.27h0.3c0,0,0.06,0,0.16,0c0.05,0,0.12,0,0.19,0h0.01c0.55,0,1.27-0.21,1.67-1
					C88.18,17.26,88.42,16.79,88.53,16.59z M90.19,13.36l-0.13,1.92h-0.88L90.19,13.36z"/>
			</g>
		</g>
		<g>
			<path class="st0" d="M99.01,12.59c0,0-0.01,0-0.02,0c-0.83,0-1.55,0.53-1.81,1.5l-1.17,4.37h0.65c0.7,0,1.21-0.48,1.38-1.18
				l0.65-2.42c0.08-0.32,0.17-0.51,0.28-0.62c0.12-0.11,0.29-0.18,0.66-0.18h0.42c0.79,0,1.3-0.64,1.38-1.27l0.02-0.15l0.01-0.06
				L99.01,12.59L99.01,12.59z"/>
		</g>
		<g>
			<g>
				<path class="st0" d="M79.33,18.46h0.06c0.54,0,1.01-0.05,1.48-0.37l-0.07,0.3h2.04l-0.17-0.29c-0.04-0.07-0.07-0.14-0.07-0.26
					c0-0.01,0-0.02,0-0.03c0-0.08,0.02-0.18,0.06-0.3l1.37-4.99h-1.72l-0.09,0.35c-0.12-0.13-0.26-0.22-0.41-0.28
					c-0.3-0.12-0.63-0.13-0.97-0.13h-0.01c-0.93,0-1.6,0.29-2.07,0.79c-0.47,0.51-0.73,1.2-0.94,2c-0.17,0.63-0.31,1.19-0.32,1.67
					c0,0.03,0,0.07,0,0.1c0,0.41,0.1,0.78,0.39,1.03C78.2,18.33,78.66,18.46,79.33,18.46z M79.29,16.54
					c0.01-0.21,0.06-0.49,0.16-0.87c0.17-0.61,0.3-1.09,0.51-1.38s0.45-0.44,0.98-0.44h0.01c0.37,0,0.58,0.07,0.67,0.15
					c0.09,0.08,0.13,0.17,0.13,0.37c0,0.01,0,0.03,0,0.04c-0.01,0.27-0.11,0.68-0.25,1.18l0,0c-0.16,0.57-0.31,0.95-0.51,1.16
					c-0.2,0.21-0.47,0.31-1,0.31c-0.01,0-0.01,0-0.02,0c-0.29,0-0.47-0.04-0.55-0.11c-0.08-0.06-0.12-0.14-0.12-0.37
					C79.29,16.56,79.29,16.55,79.29,16.54z"/>
			</g>
		</g>
		<g>
			<path class="st0" d="M96.08,12.59h-1.71l-0.01,0.04l-1.57,5.83h0.65c0.68,0,1.19-0.47,1.39-1.17L96.08,12.59z"/>
		</g>
		<path class="st0" d="M57.54,18.43c0.01,0,0.03,0,0.04,0c0.46,0,0.97-0.04,1.43-0.34l-0.03,0.1c-0.08,0.33-0.19,0.53-0.37,0.66
			c-0.17,0.13-0.46,0.21-0.92,0.21H56.3c-0.54,0-0.92,0.23-1.15,0.51c-0.23,0.29-0.38,0.96-0.38,0.97l-0.01,0.06h3.14
			c0.05,0,0.1,0,0.15,0h0.01c0.68,0,1.23-0.12,1.66-0.49c0.43-0.38,0.71-0.96,0.96-1.85l1.3-4.78c0.09-0.37,0.18-0.5,0.36-0.64
			l0.44-0.34h-2.22l-0.04,0.14l-0.05,0.19c-0.12-0.12-0.25-0.21-0.41-0.26c-0.29-0.1-0.61-0.1-1-0.1h-0.02
			c-1.01,0-1.7,0.3-2.15,0.86c-0.46,0.55-0.69,1.31-0.92,2.22c-0.14,0.49-0.24,0.93-0.25,1.33c0,0.03,0,0.06,0,0.1
			c0,0.41,0.11,0.78,0.39,1.04C56.41,18.3,56.88,18.43,57.54,18.43z M57.52,16.5c0.01-0.28,0.12-0.69,0.25-1.18
			c0.18-0.65,0.35-1.04,0.54-1.23c0.19-0.2,0.42-0.27,0.86-0.27h0.01c0.35,0,0.56,0.06,0.66,0.14c0.09,0.07,0.13,0.16,0.13,0.37
			c0,0.01,0,0.02,0,0.04c-0.01,0.21-0.04,0.41-0.17,0.87c-0.14,0.47-0.3,1.12-0.5,1.39c-0.21,0.27-0.48,0.4-1.09,0.41l0,0
			c-0.31,0-0.49-0.06-0.57-0.14c-0.07-0.07-0.11-0.17-0.11-0.35C57.52,16.53,57.52,16.51,57.52,16.5z"/>
		<g>
			<path class="st0" d="M74.36,12.79l0.02-0.15l0.01-0.06H71.9c-0.83,0-1.55,0.53-1.81,1.5l-1.17,4.37h0.65
				c0.7,0,1.21-0.48,1.38-1.18l0.65-2.42c0.08-0.32,0.17-0.51,0.28-0.62c0.11-0.11,0.3-0.18,0.66-0.18h0.42
				C73.77,14.06,74.28,13.42,74.36,12.79z"/>
		</g>
		<g>
			<g>
				<path class="st0" d="M62.51,17.02c0,0.41,0.1,0.78,0.39,1.04c0.31,0.28,0.77,0.4,1.44,0.4h0.06c0,0,0,0,0.01,0
					c0.54,0,1.01-0.06,1.47-0.37l-0.07,0.3h2.03l-0.17-0.29c-0.1-0.17-0.08-0.33-0.01-0.59l1.37-4.99h-1.71l-0.09,0.35
					c-0.12-0.13-0.26-0.22-0.41-0.28c-0.3-0.12-0.64-0.13-0.97-0.13h-0.01c-0.93,0-1.6,0.29-2.07,0.79c-0.46,0.51-0.72,1.2-0.94,2
					c-0.17,0.63-0.31,1.19-0.32,1.67C62.51,16.96,62.51,16.99,62.51,17.02z M64.3,16.54c0.01-0.2,0.06-0.49,0.16-0.87
					c0.17-0.61,0.3-1.09,0.51-1.38c0.21-0.29,0.45-0.44,0.98-0.44h0.01l0,0c0.37,0,0.58,0.07,0.67,0.15
					c0.09,0.08,0.13,0.17,0.13,0.37c0,0.01,0,0.03,0,0.04c-0.01,0.27-0.11,0.66-0.24,1.15l-0.01,0.02
					c-0.16,0.58-0.31,0.95-0.52,1.16c-0.2,0.21-0.47,0.31-1,0.31h-0.02c-0.29,0-0.47-0.04-0.55-0.11c-0.08-0.06-0.12-0.14-0.12-0.36
					C64.3,16.56,64.3,16.55,64.3,16.54z"/>
			</g>
		</g>
		<g>
			<path class="st0" d="M75.4,12.59l-1.58,5.87h0.65c0.68,0,1.19-0.47,1.39-1.17l1.23-4.7H75.4z"/>
		</g>
		<g>
			<path class="st1" d="M90.46,24.75c0,0,0.06,0,0.22,0c0.23,0,0.41-0.15,0.48-0.41s0.46-1.65,0.46-1.65h-0.59L90.46,24.75z"/>
		</g>
		<g>
			<path class="st1" d="M93.73,22.7c-0.19,0-0.92,0-0.92,0c-0.29,0-0.55,0.18-0.64,0.52l-0.41,1.53c0,0,0.12,0,0.23,0
				c0.27,0,0.43-0.17,0.49-0.41l0.23-0.85c0.03-0.11,0.06-0.18,0.1-0.22c0.04-0.04,0.1-0.06,0.23-0.06c0,0,0.12,0,0.21,0
				C93.57,23.22,93.64,22.98,93.73,22.7z"/>
		</g>
		<g>
			<g>
				<path class="st1" d="M90.3,22.7h-0.6l-0.03,0.12c-0.04-0.04-0.16-0.14-0.48-0.14c-0.32,0-0.57,0.1-0.73,0.28
					s-0.25,0.42-0.33,0.7c-0.06,0.22-0.1,0.42-0.11,0.58c-0.01,0.17,0.04,0.31,0.13,0.4c0.11,0.1,0.27,0.14,0.5,0.14
					c0.21,0,0.37-0.01,0.55-0.14l-0.02,0.12h0.69c0,0-0.03-0.04-0.06-0.1c-0.03-0.06-0.03-0.12,0-0.21L90.3,22.7z M89.51,23.37
					c-0.01,0.08-0.04,0.22-0.09,0.39c-0.05,0.17-0.11,0.34-0.19,0.42c-0.09,0.09-0.22,0.1-0.32,0.1c-0.28,0-0.29-0.15-0.23-0.39
					c0.06-0.21,0.13-0.48,0.2-0.58c0.07-0.1,0.17-0.15,0.34-0.15C89.47,23.16,89.53,23.24,89.51,23.37z"/>
			</g>
		</g>
		<path d="M86.77,24.56c-0.02,0.08-0.05,0.2-0.05,0.2h0.6l0.15-0.55h-0.23C87.01,24.21,86.82,24.35,86.77,24.56z"/>
		<path d="M93.35,24.56c-0.02,0.08-0.05,0.2-0.05,0.2h0.6l0.15-0.55h-0.23C93.6,24.21,93.41,24.36,93.35,24.56z"/>
		<path d="M96.29,22.68c-0.23,0-0.39,0.02-0.56,0.14c0.02-0.06,0.28-1,0.28-1s-0.05,0-0.11,0c-0.25,0-0.5,0.12-0.59,0.46
			c-0.08,0.3-0.56,2.04-0.59,2.15c-0.04,0.12-0.09,0.19-0.15,0.25c-0.06,0.05-0.1,0.08-0.1,0.08h0.73l0.04-0.13
			c0.04,0.05,0.19,0.15,0.42,0.15c0.3,0,0.54-0.04,0.8-0.31c0.16-0.17,0.27-0.41,0.37-0.77c0.06-0.2,0.1-0.42,0.08-0.6
			C96.86,22.77,96.55,22.68,96.29,22.68z M96.2,23.78c-0.1,0.37-0.22,0.54-0.53,0.54c-0.29,0-0.29-0.2-0.23-0.45
			c0.07-0.25,0.13-0.46,0.2-0.56c0.08-0.1,0.19-0.15,0.4-0.16c0.11,0,0.27,0.04,0.25,0.22C96.28,23.47,96.25,23.61,96.2,23.78z"/>
		<g>
			<g>
				<path class="st1" d="M98.94,22.81c-0.1-0.09-0.16-0.12-0.49-0.13c-0.33-0.01-0.6,0.11-0.76,0.3c-0.16,0.19-0.24,0.46-0.32,0.78
					c-0.05,0.17-0.08,0.33-0.09,0.47c-0.01,0.17,0.04,0.31,0.13,0.4c0.11,0.1,0.27,0.15,0.5,0.14c0.21,0,0.36-0.01,0.51-0.12
					c-0.04,0.14-0.08,0.23-0.14,0.28C98.22,24.98,98.13,25,97.97,25c0,0-0.23,0-0.46,0s-0.35,0.09-0.43,0.19
					c-0.09,0.11-0.13,0.31-0.13,0.31s0.88,0,1.14,0s0.45-0.05,0.6-0.18c0.15-0.13,0.25-0.3,0.33-0.61s0.46-1.67,0.46-1.67
					c0.03-0.13,0.06-0.2,0.12-0.24c0.06-0.04,0.15-0.1,0.15-0.1h-0.76L98.94,22.81z M98.7,23.65c-0.05,0.17-0.11,0.39-0.18,0.49
					c-0.08,0.12-0.22,0.14-0.38,0.14c-0.2,0-0.24-0.06-0.24-0.18c0-0.1,0.04-0.24,0.09-0.41c0.06-0.23,0.12-0.36,0.19-0.43
					s0.16-0.09,0.3-0.09c0.14,0,0.23,0.03,0.26,0.08C98.79,23.33,98.75,23.48,98.7,23.65z"/>
			</g>
		</g>
		<path d="M86.6,22.68c-0.21,0-0.35,0.1-0.44,0.29l-0.39,0.87c-0.01-0.22-0.05-1.05-0.06-1.16c-0.03,0-0.11,0-0.16,0
			c-0.19,0-0.38,0.1-0.51,0.36c-0.18,0.32-0.35,0.62-0.45,0.79l-0.05-1.15h-0.68c0,0,0.13,0.07,0.13,0.33
			c0.01,0.26,0.06,1.72,0.06,1.72s0.06,0,0.24,0s0.41-0.12,0.58-0.39c0.17-0.28,0.39-0.61,0.39-0.61l0.06,1h0.26
			c0.21,0,0.41-0.11,0.54-0.37l0.83-1.68C86.95,22.68,86.71,22.68,86.6,22.68z"/>
		<path d="M82.69,22.98l-0.38,0.87c-0.01-0.22-0.05-1.05-0.06-1.16c-0.03,0-0.11,0-0.16,0c-0.19,0-0.38,0.1-0.51,0.36
			c-0.18,0.32-0.35,0.62-0.45,0.79l-0.05-1.15h-0.69c0,0,0.13,0.07,0.13,0.33c0.01,0.26,0.06,1.72,0.06,1.72s0.06,0,0.24,0
			s0.41-0.12,0.58-0.39c0.17-0.28,0.39-0.61,0.39-0.61l0.06,1h0.26c0.22,0,0.41-0.11,0.54-0.37l0.83-1.68c0,0-0.24,0-0.35,0
			C82.92,22.68,82.78,22.78,82.69,22.98z"/>
		<path d="M79.21,22.98l-0.39,0.87c-0.01-0.22-0.05-1.05-0.06-1.16c-0.03,0-0.11,0-0.16,0c-0.19,0-0.38,0.1-0.51,0.36
			c-0.18,0.32-0.35,0.62-0.45,0.79l-0.05-1.15h-0.68c0,0,0.13,0.07,0.13,0.33s0.06,1.72,0.06,1.72s0.06,0,0.24,0
			c0.18,0,0.41-0.12,0.58-0.39c0.17-0.28,0.39-0.61,0.39-0.61l0.06,1h0.26c0.21,0,0.41-0.11,0.54-0.37l0.82-1.68c0,0-0.23,0-0.34,0
			C79.44,22.68,79.3,22.78,79.21,22.98z"/>
		<path class="st0" d="M38.48,22.76c-0.12,0.45-0.19,0.79-0.22,1.11h-0.01c-0.05-0.34-0.11-0.66-0.2-1.05l-0.32-1.17h-0.77
			l-0.81,3.08h0.61l0.28-1.08c0.13-0.48,0.23-0.92,0.29-1.22h0.01c0.05,0.38,0.12,0.66,0.22,1.07l0.34,1.23h0.68l0.81-3.08h-0.61
			L38.48,22.76z"/>
		<path class="st0" d="M39.48,24c-0.04,0.47,0.22,0.78,0.62,0.78c0.26,0,0.55-0.12,0.79-0.49h0.01c-0.03,0.16-0.05,0.31-0.06,0.44
			h0.61c0.01-0.28,0.08-0.72,0.16-1l0.32-1.17c-0.18-0.06-0.47-0.11-0.73-0.11C40.09,22.44,39.53,23.24,39.48,24z M41.01,23.47
			c-0.14,0.55-0.4,0.77-0.6,0.77c-0.18,0-0.26-0.15-0.24-0.37c0.03-0.42,0.38-0.94,0.81-0.94c0.06,0,0.13,0.01,0.18,0.02
			L41.01,23.47z"/>
		<path class="st0" d="M43.6,21.88l-0.69,0.19l-0.11,0.42h-0.29l-0.13,0.5h0.28l-0.24,0.89c-0.04,0.17-0.07,0.29-0.08,0.42
			c-0.02,0.28,0.15,0.48,0.54,0.48c0.14,0,0.31-0.02,0.39-0.05l0.12-0.52c-0.06,0.01-0.12,0.01-0.18,0.01
			c-0.14,0-0.18-0.08-0.17-0.19c0.01-0.08,0.03-0.2,0.06-0.28l0.21-0.76h0.48l0.13-0.5h-0.48L43.6,21.88z"/>
		<polygon class="st0" points="43.93,24.72 44.59,24.72 45.18,22.49 44.52,22.49 		"/>
		<path class="st0" d="M45.07,21.52c-0.2,0-0.39,0.15-0.41,0.38c-0.01,0.2,0.11,0.32,0.29,0.32l0,0c0.21,0,0.4-0.14,0.42-0.37
			C45.39,21.64,45.26,21.52,45.07,21.52z"/>
		<path class="st0" d="M46.94,22.44c-0.79,0-1.38,0.64-1.44,1.41c-0.04,0.55,0.31,0.92,0.88,0.92c0.78,0,1.38-0.6,1.44-1.42
			C47.86,22.85,47.54,22.44,46.94,22.44z M47.14,23.36c-0.03,0.38-0.27,0.91-0.63,0.91c-0.23,0-0.34-0.17-0.32-0.43
			c0.02-0.35,0.25-0.9,0.63-0.9C47.08,22.94,47.15,23.16,47.14,23.36z"/>
		<path class="st0" d="M50.03,22.44c-0.3,0-0.58,0.13-0.82,0.42H49.2l0.07-0.37H48.7c-0.04,0.2-0.1,0.44-0.17,0.73l-0.4,1.51h0.66
			l0.26-0.99c0.13-0.49,0.4-0.76,0.61-0.76c0.16,0,0.21,0.11,0.2,0.26c-0.01,0.08-0.02,0.17-0.04,0.25l-0.33,1.24h0.66l0.34-1.3
			c0.03-0.11,0.06-0.28,0.06-0.38C50.59,22.66,50.4,22.44,50.03,22.44z"/>
		<path class="st0" d="M51.02,24c-0.03,0.47,0.22,0.78,0.62,0.78c0.26,0,0.55-0.12,0.79-0.49h0.01c-0.03,0.16-0.05,0.31-0.06,0.44
			h0.61c0.01-0.28,0.08-0.72,0.16-1l0.32-1.17c-0.18-0.06-0.47-0.11-0.73-0.11C51.64,22.44,51.08,23.24,51.02,24z M52.56,23.47
			c-0.14,0.55-0.4,0.77-0.6,0.77c-0.18,0-0.26-0.15-0.24-0.37c0.03-0.42,0.38-0.94,0.81-0.94c0.06,0,0.13,0.01,0.18,0.02
			L52.56,23.47z"/>
		<path class="st0" d="M54.38,22.03c-0.1,0.35-0.72,2.7-0.72,2.7h0.66c0,0,0.1-0.4,0.86-3.24C54.79,21.48,54.5,21.6,54.38,22.03z"/>
		<path class="st0" d="M57.62,22.4c0.2-0.16,0.46-0.24,0.72-0.24c0.26,0,0.46,0.05,0.55,0.1l0.22-0.53
			c-0.08-0.06-0.33-0.13-0.66-0.13c-0.43,0-0.82,0.1-1.16,0.33c-0.49,0.31-0.84,0.85-0.89,1.54c-0.06,0.81,0.45,1.31,1.26,1.31
			c0.37,0,0.65-0.06,0.82-0.14l-0.02-0.53c-0.16,0.06-0.38,0.1-0.59,0.1c-0.54,0-0.79-0.33-0.76-0.82
			C57.16,22.96,57.35,22.61,57.62,22.4z"/>
		<path class="st0" d="M59.08,24c-0.03,0.47,0.22,0.78,0.62,0.78c0.26,0,0.55-0.12,0.79-0.49h0.01c-0.03,0.16-0.05,0.31-0.07,0.44
			h0.61c0.01-0.28,0.08-0.72,0.16-1l0.32-1.17c-0.18-0.06-0.47-0.11-0.73-0.11C59.7,22.44,59.14,23.24,59.08,24z M60.62,23.47
			c-0.14,0.55-0.4,0.77-0.6,0.77c-0.18,0-0.26-0.15-0.24-0.37c0.03-0.42,0.38-0.94,0.81-0.94c0.06,0,0.13,0.01,0.18,0.02
			L60.62,23.47z"/>
		<path class="st0" d="M63.54,22.44c-0.31,0-0.57,0.21-0.75,0.51h-0.01c0.03-0.15,0.05-0.31,0.08-0.46h-0.57
			c-0.04,0.19-0.09,0.57-0.18,0.91l-0.35,1.33h0.66l0.22-0.83c0.12-0.44,0.34-0.81,0.76-0.81c0.04,0,0.07,0,0.1,0l0.18-0.64
			C63.62,22.44,63.58,22.44,63.54,22.44z"/>
		<path class="st0" d="M65.44,22.44c-0.31,0-0.57,0.21-0.75,0.51h-0.01c0.03-0.15,0.05-0.31,0.08-0.46h-0.57
			c-0.04,0.19-0.09,0.57-0.18,0.91l-0.35,1.33h0.66l0.22-0.83c0.12-0.44,0.34-0.81,0.76-0.81c0.04,0,0.07,0,0.1,0l0.18-0.64
			C65.52,22.44,65.48,22.44,65.44,22.44z"/>
		<polygon class="st0" points="65.55,24.72 66.21,24.72 66.8,22.49 66.15,22.49 		"/>
		<path class="st0" d="M66.69,21.52c-0.2,0-0.39,0.15-0.41,0.38c-0.01,0.2,0.11,0.32,0.29,0.32l0,0c0.21,0,0.4-0.14,0.42-0.37
			C67.01,21.64,66.88,21.52,66.69,21.52z"/>
		<path class="st0" d="M68.52,22.44c-0.81,0-1.35,0.71-1.41,1.39c-0.04,0.58,0.26,0.95,0.9,0.95c0.25,0,0.57-0.05,0.84-0.18
			l-0.01-0.48c-0.19,0.09-0.39,0.14-0.64,0.14c-0.19,0-0.34-0.06-0.42-0.17c-0.04-0.06-0.06-0.16-0.05-0.23
			c0.89,0.02,1.46-0.18,1.5-0.75C69.28,22.69,68.97,22.44,68.52,22.44z M68.63,23.11c-0.02,0.2-0.28,0.27-0.79,0.27
			c0.06-0.21,0.25-0.46,0.56-0.46C68.55,22.92,68.64,23,68.63,23.11L68.63,23.11z"/>
		<path class="st0" d="M70.48,22.95L70.48,22.95c0.02-0.15,0.04-0.31,0.07-0.46h-0.57c-0.04,0.19-0.09,0.57-0.18,0.91l-0.35,1.33
			h0.66l0.22-0.83c0.12-0.44,0.34-0.81,0.76-0.81c0.04,0,0.07,0,0.1,0l0.18-0.64c-0.04,0-0.08,0-0.12,0
			C70.92,22.44,70.66,22.65,70.48,22.95z"/>
	</g>
</g>
</svg>
