<svg width="99" height="18" viewBox="0 0 99 18" fill="none" xmlns="http://www.w3.org/2000/svg">
<path fill-rule="evenodd" clip-rule="evenodd" d="M0 8.91H17.82V0H0V8.91Z" fill="#00AADB"/>
<path fill-rule="evenodd" clip-rule="evenodd" d="M0 17.8199H17.82V8.90991H0V17.8199Z" fill="#3FA74D"/>
<path fill-rule="evenodd" clip-rule="evenodd" d="M67.4907 0.399329L62.9938 12.2972C62.9185 12.4969 62.6316 12.4969 62.5564 12.2972L58.0593 0.399329C57.9685 0.159202 57.7359 0 57.4757 0H54.6595C54.3882 0 54.2002 0.266484 54.2948 0.516942L60.7023 17.4706C60.7818 17.6807 60.9854 17.82 61.213 17.82H64.3369C64.5646 17.82 64.7682 17.6807 64.8477 17.4706L71.2553 0.516942C71.3498 0.266484 71.1618 0 70.8904 0H68.0743C67.8141 0 67.5814 0.159202 67.4907 0.399329" fill="#1C1C1B"/>
<path fill-rule="evenodd" clip-rule="evenodd" d="M44.0699 3.44959C44.0699 3.23794 44.2441 3.06642 44.459 3.06629H44.4592H44.4593H52.2608C52.4757 3.06629 52.65 2.89477 52.65 2.68299V0.38317C52.65 0.171519 52.4757 0 52.2608 0H43.6807H40.8892C40.6743 0 40.5 0.171519 40.5 0.38317V2.68299V7.265V9.56482V15.1369V17.4367C40.5 17.6483 40.6743 17.82 40.8892 17.82H43.6807H52.2608C52.4757 17.82 52.65 17.6483 52.65 17.4367V15.1369C52.65 14.9252 52.4757 14.7537 52.2608 14.7537H44.4592C44.2441 14.7537 44.0699 14.5821 44.0699 14.3704V10.3314C44.0699 10.1198 44.2441 9.94812 44.4592 9.94812H51.5777C51.7926 9.94812 51.9669 9.7766 51.9669 9.56482V7.265C51.9669 7.05335 51.7926 6.88183 51.5777 6.88183H44.3921C44.2091 6.85031 44.0699 6.69429 44.0699 6.50515V6.49853V3.44959Z" fill="#1C1C1B"/>
<path fill-rule="evenodd" clip-rule="evenodd" d="M75.6599 3.44959C75.6599 3.23794 75.8341 3.06642 76.0491 3.06629H76.0493H76.0494H83.8507C84.0658 3.06629 84.2401 2.89477 84.2401 2.68299V0.38317C84.2401 0.171519 84.0658 0 83.8507 0H75.2705H72.4793C72.2643 0 72.0901 0.171519 72.0901 0.38317V2.68299V7.265V9.56482V15.1369V17.4367C72.0901 17.6483 72.2643 17.82 72.4793 17.82H75.2705H83.8507C84.0658 17.82 84.2401 17.6483 84.2401 17.4367V15.1369C84.2401 14.9252 84.0658 14.7537 83.8507 14.7537H76.0493C75.8342 14.7537 75.6599 14.5821 75.6599 14.3704V10.3314C75.6599 10.1198 75.8342 9.94812 76.0493 9.94812H83.1676C83.3827 9.94812 83.557 9.7766 83.557 9.56482V7.265C83.557 7.05335 83.3827 6.88183 83.1676 6.88183H75.9821C75.7992 6.85031 75.6599 6.69429 75.6599 6.50515V6.49853V3.44959Z" fill="#1C1C1B"/>
<path fill-rule="evenodd" clip-rule="evenodd" d="M38.4907 14.7537H30.6892C30.4742 14.7537 30.2999 14.5822 30.2999 14.3704V0.383303C30.2999 0.171652 30.1256 0 29.9107 0H27.1192C26.9043 0 26.73 0.171652 26.73 0.383303V15.137V17.4368C26.73 17.6485 26.9043 17.82 27.1192 17.82H29.9107H38.4907C38.7057 17.82 38.88 17.6485 38.88 17.4368V15.137C38.88 14.9254 38.7057 14.7537 38.4907 14.7537" fill="#1C1C1B"/>
<path fill-rule="evenodd" clip-rule="evenodd" d="M97.6209 14.7537H89.8191C89.6044 14.7537 89.43 14.5821 89.43 14.3704V0.38317C89.43 0.171519 89.2557 0 89.0407 0H86.2492C86.0344 0 85.8601 0.171519 85.8601 0.38317V15.137V17.4367C85.8601 17.6483 86.0344 17.82 86.2492 17.82H89.0407H97.6209C97.8358 17.82 98.0101 17.6483 98.0101 17.4367V15.137C98.0101 14.9252 97.8358 14.7537 97.6209 14.7537" fill="#1C1C1B"/>
</svg>
