<?xml version="1.0" encoding="utf-8"?>
<!-- Generator: Adobe Illustrator 16.0.0, SVG Export Plug-In . SVG Version: 6.00 Build 0)  -->
<!DOCTYPE svg PUBLIC "-//W3C//DTD SVG 1.0//EN" "http://www.w3.org/TR/2001/REC-SVG-20010904/DTD/svg10.dtd">
<svg version="1.0" id="_x39_W" xmlns="http://www.w3.org/2000/svg" xmlns:xlink="http://www.w3.org/1999/xlink" x="0px" y="0px"
	 width="157px" height="26px" viewBox="0 0 157 26" enable-background="new 0 0 157 26" xml:space="preserve">
<path opacity="0.7" fill-rule="evenodd" clip-rule="evenodd" fill="#B4B4B4" d="M153.835,5.621c0.08-1.694-0.282-3.153-1.145-4.177
	c-2.618-3.105-8.847-1.037-13.907,4.627c-5.064,5.663-7.041,12.771-4.426,15.883c2.619,3.103,8.846,1.032,13.91-4.628
	c0.811-0.91,1.543-1.856,2.189-2.816l-8.351-0.849l12.075-1.544l-13.318-1.902L157,8.54l-13.174-1.352L153.835,5.621z"/>
<path opacity="0.7" fill="#080808" d="M122.398,5.166c0.965,0,1.838,0.293,2.424,0.273c0.156-0.007,0.295,0.009,0.295,0.257
	c0,0.055-0.018,0.083-0.018,0.162c0,0.293,0.14,0.926,0.142,1.76c0,0.313-0.077,0.425-0.335,0.425c-0.242,0-0.297-0.155-0.332-0.374
	c-0.072-0.489-0.161-0.718-0.409-0.987c-0.414-0.443-1.049-0.643-1.94-0.643c-1.482,0-2.279,0.895-2.223,1.971
	c0.066,1.227,1.055,1.88,2.781,2.92c2.4,1.456,3.103,2.394,3.103,4.001c0,1.751-1.351,3.684-4.756,3.684
	c-0.866,0-1.712-0.137-2.446-0.456c-0.317-0.141-0.341-0.216-0.355-0.778c-0.02-0.679-0.028-1.592,0.031-1.921
	c0.035-0.196,0.084-0.313,0.328-0.313c0.2,0,0.303,0.091,0.328,0.347c0.015,0.16,0.038,0.504,0.115,0.777
	c0.361,1.307,1.597,1.483,2.453,1.483c1.697,0,2.668-1.052,2.668-2.162c0-1.412-0.805-2.161-3.103-3.455
	c-2.269-1.286-2.735-2.613-2.702-3.784C118.501,6.419,119.971,5.166,122.398,5.166z M56.13,11.894c0-0.764,0.03-3.964,0.047-6.301
	c0.002-0.082-0.047-0.143-0.14-0.143h-2.758c-0.3,0-0.425,0.084-0.425,0.338c0,0.192,0.097,0.294,0.288,0.313
	c0.905,0.085,1.028,0.49,1.056,1.604c0.045,1.634,0.042,2.875,0.042,4.188c0,1.705-0.02,3.917-0.094,6.298
	c-0.002,0.083,0.048,0.142,0.142,0.142h1.741c0.097,0,0.142-0.059,0.142-0.142C56.153,15.858,56.13,13.824,56.13,11.894z
	 M108.556,11.525c0.341,0.531,0.651,1,0.931,1.429c-0.006,1.521-0.031,3.323-0.09,5.237c-0.002,0.083,0.047,0.142,0.145,0.142h1.738
	c0.096,0,0.145-0.059,0.145-0.142c-0.02-1.915-0.037-3.632-0.04-5.252c1.46-2.334,3.159-4.947,4.749-7.318
	c0.062-0.094,0.02-0.171-0.082-0.171h-2.482c-0.299,0-0.423,0.084-0.423,0.338c0,0.192,0.099,0.28,0.288,0.313
	c0.533,0.09,0.657,0.441,0.361,0.934c-0.926,1.531-1.918,3.131-2.912,4.706c-0.271-0.425-0.525-0.823-0.799-1.247
	c-1.053-1.623-1.958-3.042-3.139-4.902c-0.07-0.109-0.102-0.143-0.24-0.143h-2.038c-0.103,0-0.146,0.077-0.082,0.171
	C106.022,7.694,107.624,10.091,108.556,11.525z M102.26,18.191c0.035,0.081,0.093,0.142,0.188,0.142h1.93
	c0.094,0,0.137-0.054,0.102-0.136c-1.047-2.263-2.17-4.82-2.834-6.39c-1.259-2.963-1.835-4.481-2.457-6.214
	C99.16,5.511,99.097,5.45,99,5.45h-2.133c-0.297,0-0.425,0.084-0.425,0.338c0,0.192,0.101,0.285,0.29,0.313
	c0.446,0.062,0.758,0.245,0.758,0.797c0,0.301-0.127,0.657-0.278,1.038c-0.601,1.521-1.089,2.662-1.599,3.871
	c-0.668,1.57-1.783,4.102-2.826,6.384c-0.039,0.081,0.002,0.142,0.1,0.142h1.222c0.098,0,0.157-0.059,0.189-0.142
	c0.46-1.172,0.867-2.213,1.259-3.2c1.073-0.026,1.896-0.032,2.682-0.032c0.791,0,1.615,0.006,2.688,0.032
	C101.37,16.063,101.819,17.152,102.26,18.191z M95.975,13.932c0.181-0.462,0.367-0.922,0.553-1.386
	c0.471-1.161,0.938-2.282,1.654-4.031c0.751,1.747,1.227,2.872,1.72,4.031c0.192,0.45,0.388,0.912,0.583,1.386
	c-0.8,0.007-1.496,0.012-2.246,0.012C97.486,13.943,96.785,13.938,95.975,13.932z M89.464,5.45c-0.298,0-0.437,0.077-0.437,0.33
	c0,0.191,0.113,0.283,0.302,0.322c0.557,0.114,0.688,0.562,0.5,1.11c-0.5,1.446-0.935,2.713-1.394,4.028
	c-0.387,1.104-0.771,2.197-1.344,3.812c-0.635-1.672-1.003-2.657-1.449-3.812c-0.687-1.781-1.234-3.247-2.051-5.417
	c-0.088-0.229-0.161-0.372-0.398-0.372c-0.219,0-0.295,0.143-0.377,0.372c-0.791,2.171-1.322,3.637-1.986,5.417
	c-0.406,1.104-0.814,2.197-1.415,3.812c-0.603-1.672-0.952-2.657-1.371-3.812c-0.653-1.781-1.254-3.476-2.029-5.646
	C75.984,5.511,75.92,5.45,75.826,5.45h-1.854c-0.097,0-0.133,0.052-0.102,0.135c0.88,2.2,1.873,4.821,2.449,6.395
	c1.086,2.959,1.609,4.302,2.251,6.134c0.111,0.312,0.186,0.452,0.411,0.452c0.26,0,0.357-0.257,0.43-0.452
	c0.549-1.523,1.846-4.931,2.32-6.134c0.332-0.853,0.688-1.743,1.105-2.763c0.46,1.115,0.646,1.586,1.099,2.763
	c1.142,2.959,1.694,4.302,2.375,6.134c0.118,0.312,0.194,0.452,0.421,0.452c0.259,0,0.344-0.247,0.417-0.452
	c0.522-1.523,1.749-4.931,2.19-6.134c0.525-1.41,1.674-4.391,2.481-6.387c0.034-0.082-0.007-0.143-0.1-0.143H89.464z M24.754,5.45
	c-1.935,0-2.89-0.027-5.225-0.047c-0.083,0-0.113,0.036-0.134,0.131l-0.248,1.09C19.124,6.731,19.18,6.805,19.291,6.8
	c1.372-0.06,3.024-0.132,4.522-0.174c0.041,1.634,0.024,3.981,0.024,5.268c0,1.705-0.02,3.917-0.095,6.298
	c-0.002,0.083,0.048,0.142,0.146,0.142h1.74c0.097,0,0.143-0.059,0.143-0.142c-0.02-2.333-0.042-4.368-0.042-6.298
	c0-0.659,0.021-3.12,0.04-5.278c1.441,0.037,2.888,0.106,4.381,0.18c0.082,0.004,0.138-0.04,0.158-0.133l0.247-1.121
	c0.019-0.092-0.027-0.143-0.113-0.141C28.107,5.419,26.688,5.45,24.754,5.45z M48.278,18.191c0.034,0.081,0.094,0.142,0.189,0.142
	h1.924c0.096,0,0.139-0.054,0.103-0.136c-1.046-2.263-2.167-4.82-2.834-6.39c-1.257-2.963-1.836-4.481-2.455-6.214
	c-0.029-0.082-0.09-0.143-0.186-0.143h-2.135c-0.299,0-0.424,0.084-0.424,0.338c0,0.192,0.098,0.285,0.29,0.313
	c0.446,0.062,0.759,0.245,0.759,0.797c0,0.301-0.131,0.657-0.281,1.038c-0.6,1.521-1.087,2.662-1.601,3.871
	c-0.668,1.57-1.778,4.102-2.825,6.384c-0.038,0.081,0.004,0.142,0.1,0.142h1.224c0.091,0,0.154-0.059,0.187-0.142
	c0.464-1.172,0.868-2.213,1.257-3.2c1.077-0.026,1.899-0.032,2.689-0.032c0.787,0,1.61,0.006,2.683,0.032
	C47.386,16.063,47.838,17.152,48.278,18.191z M41.987,13.932c0.186-0.462,0.372-0.922,0.558-1.386
	c0.468-1.161,0.937-2.282,1.656-4.031c0.749,1.747,1.225,2.872,1.716,4.031c0.191,0.45,0.386,0.912,0.583,1.386
	c-0.801,0.007-1.497,0.012-2.242,0.012C43.502,13.943,42.802,13.938,41.987,13.932z M63.806,6.436
	c0.32-0.034,0.779-0.067,1.229-0.067c1.89,0,3.129,0.879,3.129,2.951c0,1.608-0.876,2.872-2.827,2.872
	c-0.628,0-1.244-0.08-1.567-0.186C63.775,10.924,63.789,9.066,63.806,6.436z M66,13.141c1.425,2.153,2.238,3.318,3.276,4.237
	c0.833,0.742,1.838,1.064,3.035,1.064c0.895,0,1.861-0.137,1.861-0.421c0-0.186-0.151-0.223-0.667-0.305
	c-0.96-0.149-1.637-0.437-2.774-1.456c-0.927-0.826-1.961-2.174-2.977-3.673c1.263-0.689,2.322-1.974,2.322-3.648
	c0-2.762-2.685-3.489-4.73-3.489h-4.43c-0.299,0-0.426,0.084-0.426,0.338c0,0.192,0.101,0.294,0.29,0.313
	c0.907,0.085,1.028,0.49,1.059,1.604c0.043,1.634,0.042,2.875,0.042,4.188c0,1.705-0.02,3.917-0.096,6.298
	c-0.002,0.083,0.047,0.142,0.145,0.142h1.742c0.092,0,0.139-0.059,0.139-0.142c-0.016-1.881-0.034-3.563-0.038-5.159
	c0.585,0.085,1.187,0.144,1.918,0.124C65.79,13.156,65.895,13.15,66,13.141z M13.001,17.187c-0.015-1.791-0.03-3.41-0.031-4.956
	c0.852,0.024,2.353,0.152,3.554,0.225c0.082,0.004,0.138-0.039,0.157-0.134l0.246-1.122c0.02-0.092-0.027-0.145-0.109-0.14
	c-1.388,0.046-2.519,0.089-3.844,0.101c0.004-1.082,0.022-2.955,0.035-4.631c1.09,0.029,2.296,0.154,3.845,0.267
	c0.081,0.007,0.135-0.04,0.156-0.133l0.245-1.121c0.02-0.092-0.025-0.143-0.108-0.141c-1.743,0.013-3.161,0.049-4.691,0.049h-2.341
	c-0.3,0-0.424,0.084-0.424,0.338c0,0.192,0.1,0.294,0.291,0.313c0.905,0.085,1.027,0.49,1.058,1.604
	c0.043,1.634,0.04,2.875,0.04,4.188c0,1.705-0.02,3.917-0.093,6.298c-0.003,0.083,0.048,0.142,0.144,0.142h1.74
	c1.464,0,2.906,0.03,4.436,0.052c0.085,0.002,0.14-0.038,0.159-0.132l0.246-1.127c0.021-0.094-0.026-0.146-0.109-0.141
	C15.815,17.098,14.211,17.172,13.001,17.187z M5.375,5.593c0-0.082-0.047-0.143-0.14-0.143H2.357c-0.3,0-0.427,0.084-0.427,0.338
	c0,0.192,0.099,0.294,0.292,0.313C3.154,6.19,3.356,6.485,3.388,7.706C3.433,9.34,3.44,10.581,3.44,11.894
	c0,2.42-0.003,4.17-0.039,5.844c-0.054,2.506-0.176,4.079-0.803,5.288C1.435,25.279,0,25.292,0,25.723
	c0,0.175,0.152,0.301,0.319,0.273c0.635-0.109,5.044-1.746,5.044-7.786c0-2.123-0.036-3.935-0.036-6.316
	C5.328,11.13,5.356,7.93,5.375,5.593z"/>
</svg>
