<?xml version="1.0" encoding="utf-8"?>
<!-- Generator: Adobe Illustrator 16.0.0, SVG Export Plug-In . SVG Version: 6.00 Build 0)  -->
<!DOCTYPE svg PUBLIC "-//W3C//DTD SVG 1.0//EN" "http://www.w3.org/TR/2001/REC-SVG-20010904/DTD/svg10.dtd" [
	<!ENTITY ns_flows "http://ns.adobe.com/Flows/1.0/">
	<!ENTITY ns_extend "http://ns.adobe.com/Extensibility/1.0/">
	<!ENTITY ns_ai "http://ns.adobe.com/AdobeIllustrator/10.0/">
	<!ENTITY ns_graphs "http://ns.adobe.com/Graphs/1.0/">
]>
<svg version="1.0" id="Layer_1" xmlns:x="&ns_extend;" xmlns:i="&ns_ai;" xmlns:graph="&ns_graphs;"
	 xmlns="http://www.w3.org/2000/svg" xmlns:xlink="http://www.w3.org/1999/xlink" xmlns:a="http://ns.adobe.com/AdobeSVGViewerExtensions/3.0/"
	 x="0px" y="0px" width="157px" height="26px" viewBox="0 0 157 26" style="enable-background:new 0 0 157 26;"
	 xml:space="preserve">
<style type="text/css">
<![CDATA[
	.st0{fill:#545454;}
	.st1{fill:#C0C0C0;}
	.st2{fill:url(#SVGID_1_);}
	.st3{fill:url(#SVGID_2_);}
	.st4{fill:url(#SVGID_3_);}
	.st5{fill:url(#SVGID_4_);}
	.st6{fill:url(#SVGID_5_);}
	.st7{fill:url(#SVGID_6_);}
	.st8{fill:url(#SVGID_7_);}
	.st9{opacity:0.6;}
	.st10{fill:none;}
]]>
</style>
<g class="st9">
	<path class="st10" d="M106.6,11.6c-0.2,0.9-0.7,2.6-0.7,2.6l-0.4,1.4c1.6,0.3,2.4,0.8,2.4,0.8c-0.3-0.9-0.5-1.7-0.6-2.1
		C107,13.3,106.6,11.6,106.6,11.6z"/>
	<rect x="99.2" y="9.5" class="st0" width="2.1" height="9.6"/>
	<path class="st0" d="M107.7,9.5h-2.1l-3.1,9.6h2l0.5-1.8c0,0,2.4,0.2,3.6,1.8h2L107.7,9.5z M105.5,15.7l0.4-1.4
		c0,0,0.5-1.7,0.7-2.6c0,0,0.3,1.6,0.7,2.8c0.1,0.4,0.4,1.3,0.6,2.1C107.9,16.6,107.1,16,105.5,15.7z"/>
	
		<linearGradient id="SVGID_1_" gradientUnits="userSpaceOnUse" x1="694.5391" y1="592.9814" x2="716.6442" y2="608.4597" gradientTransform="matrix(1 0 0 1 -635 -585)">
		<stop  offset="0" style="stop-color:#868686"/>
		<stop  offset="0.1319" style="stop-color:#838383"/>
		<stop  offset="0.2766" style="stop-color:#7A7A7A"/>
		<stop  offset="0.4274" style="stop-color:#6B6B6B"/>
		<stop  offset="0.5815" style="stop-color:#575757"/>
		<stop  offset="0.5989" style="stop-color:#545454"/>
		<stop  offset="1" style="stop-color:#545454"/>
		<a:midPointStop  offset="0" style="stop-color:#868686"/>
		<a:midPointStop  offset="0.5" style="stop-color:#868686"/>
		<a:midPointStop  offset="0.1319" style="stop-color:#838383"/>
		<a:midPointStop  offset="0.5" style="stop-color:#838383"/>
		<a:midPointStop  offset="0.2766" style="stop-color:#7A7A7A"/>
		<a:midPointStop  offset="0.5" style="stop-color:#7A7A7A"/>
		<a:midPointStop  offset="0.4274" style="stop-color:#6B6B6B"/>
		<a:midPointStop  offset="0.5" style="stop-color:#6B6B6B"/>
		<a:midPointStop  offset="0.5815" style="stop-color:#575757"/>
		<a:midPointStop  offset="0.5" style="stop-color:#575757"/>
		<a:midPointStop  offset="0.5989" style="stop-color:#545454"/>
		<a:midPointStop  offset="0.5" style="stop-color:#545454"/>
		<a:midPointStop  offset="1" style="stop-color:#545454"/>
	</linearGradient>
	<path class="st2" d="M61.9,19.8c0,0-1.5,1.6-2.8,2l-11.8,3.6h32.9l6.2-24.6c0,0-7.9,0-9.1,0.3L61.9,19.8z M81.8,14.1
		c0,3.6-2.9,6.4-6.4,6.4c-3.6,0-6.4-2.9-6.4-6.4c0-3.5,2.9-6.4,6.4-6.4C79,7.7,81.8,10.6,81.8,14.1z"/>
	
		<linearGradient id="SVGID_2_" gradientUnits="userSpaceOnUse" x1="696.6738" y1="589.4893" x2="718.988" y2="605.1138" gradientTransform="matrix(1 0 0 1 -635 -585)">
		<stop  offset="0" style="stop-color:#868686"/>
		<stop  offset="0.1319" style="stop-color:#838383"/>
		<stop  offset="0.2766" style="stop-color:#7A7A7A"/>
		<stop  offset="0.4274" style="stop-color:#6B6B6B"/>
		<stop  offset="0.5815" style="stop-color:#575757"/>
		<stop  offset="0.5989" style="stop-color:#545454"/>
		<stop  offset="1" style="stop-color:#545454"/>
		<a:midPointStop  offset="0" style="stop-color:#868686"/>
		<a:midPointStop  offset="0.5" style="stop-color:#868686"/>
		<a:midPointStop  offset="0.1319" style="stop-color:#838383"/>
		<a:midPointStop  offset="0.5" style="stop-color:#838383"/>
		<a:midPointStop  offset="0.2766" style="stop-color:#7A7A7A"/>
		<a:midPointStop  offset="0.5" style="stop-color:#7A7A7A"/>
		<a:midPointStop  offset="0.4274" style="stop-color:#6B6B6B"/>
		<a:midPointStop  offset="0.5" style="stop-color:#6B6B6B"/>
		<a:midPointStop  offset="0.5815" style="stop-color:#575757"/>
		<a:midPointStop  offset="0.5" style="stop-color:#575757"/>
		<a:midPointStop  offset="0.5989" style="stop-color:#545454"/>
		<a:midPointStop  offset="0.5" style="stop-color:#545454"/>
		<a:midPointStop  offset="1" style="stop-color:#545454"/>
	</linearGradient>
	<path class="st3" d="M69.4,14.1c0,3.3,2.7,6,6,6c3.3,0,6-2.7,6-6c0-3.3-2.7-6-6-6C72.1,8.1,69.4,10.8,69.4,14.1z M81.2,14.1
		c0,1.5-0.6,2.9-1.6,4v-1.2c0,0-1.4-2.2-3.8-3.6h5.3C81.2,13.6,81.2,13.8,81.2,14.1z M81.1,12.8H78v-0.3h3
		C81,12.6,81,12.7,81.1,12.8z M80.8,12.1h-8v1.2c0,0,1.2,0.2,1.8,0.7c0,0-1-0.4-3.5-0.4V15l0.3-0.3c0,0,4.4-0.3,8.1,3.5
		c-1.1,1.1-2.5,1.7-4.1,1.7c-3.2,0-5.8-2.6-5.8-5.8c0-3.2,2.6-5.8,5.8-5.8C77.9,8.3,80,9.9,80.8,12.1z"/>
	
		<linearGradient id="SVGID_3_" gradientUnits="userSpaceOnUse" x1="693.8652" y1="592.7734" x2="709.0341" y2="603.3948" gradientTransform="matrix(1 0 0 1 -635 -585)">
		<stop  offset="0" style="stop-color:#868686"/>
		<stop  offset="0.1319" style="stop-color:#838383"/>
		<stop  offset="0.2766" style="stop-color:#7A7A7A"/>
		<stop  offset="0.4274" style="stop-color:#6B6B6B"/>
		<stop  offset="0.5815" style="stop-color:#575757"/>
		<stop  offset="0.5989" style="stop-color:#545454"/>
		<stop  offset="1" style="stop-color:#545454"/>
		<a:midPointStop  offset="0" style="stop-color:#868686"/>
		<a:midPointStop  offset="0.5" style="stop-color:#868686"/>
		<a:midPointStop  offset="0.1319" style="stop-color:#838383"/>
		<a:midPointStop  offset="0.5" style="stop-color:#838383"/>
		<a:midPointStop  offset="0.2766" style="stop-color:#7A7A7A"/>
		<a:midPointStop  offset="0.5" style="stop-color:#7A7A7A"/>
		<a:midPointStop  offset="0.4274" style="stop-color:#6B6B6B"/>
		<a:midPointStop  offset="0.5" style="stop-color:#6B6B6B"/>
		<a:midPointStop  offset="0.5815" style="stop-color:#575757"/>
		<a:midPointStop  offset="0.5" style="stop-color:#575757"/>
		<a:midPointStop  offset="0.5989" style="stop-color:#545454"/>
		<a:midPointStop  offset="0.5" style="stop-color:#545454"/>
		<a:midPointStop  offset="1" style="stop-color:#545454"/>
	</linearGradient>
	<path class="st4" d="M61.7,19.7L77.2,1.1c0.5-0.1,1.9-0.2,3.5-0.2c1.6,0,3.3,0,4.5,0c0.7,0,1.2,0,1.2,0V0.7c0,0-0.5,0-1.2,0
		c0,0-3.3,0-4.5,0c-1.6,0-3,0.1-3.5,0.2l0,0L61.4,19.7c0,0-0.1,0.1-0.2,0.2c-0.4,0.4-1.5,1.4-2.8,1.7l-12,3.8H47l12-3.8
		C60.4,21.2,61.7,19.7,61.7,19.7z"/>
	<path class="st1" d="M78,12.8h3.1c0-0.1,0-0.2-0.1-0.3h-3V12.8z"/>
	<path class="st1" d="M79.6,16.9v1.2c1-1,1.6-2.4,1.6-4c0-0.3,0-0.6-0.1-0.8h-5.3C78.3,14.7,79.6,16.9,79.6,16.9z"/>
	
		<linearGradient id="SVGID_4_" gradientUnits="userSpaceOnUse" x1="696.6699" y1="589.4932" x2="718.9855" y2="605.1187" gradientTransform="matrix(1 0 0 1 -635 -585)">
		<stop  offset="0" style="stop-color:#868686"/>
		<stop  offset="0.1319" style="stop-color:#838383"/>
		<stop  offset="0.2766" style="stop-color:#7A7A7A"/>
		<stop  offset="0.4274" style="stop-color:#6B6B6B"/>
		<stop  offset="0.5815" style="stop-color:#575757"/>
		<stop  offset="0.5989" style="stop-color:#545454"/>
		<stop  offset="1" style="stop-color:#545454"/>
		<a:midPointStop  offset="0" style="stop-color:#868686"/>
		<a:midPointStop  offset="0.5" style="stop-color:#868686"/>
		<a:midPointStop  offset="0.1319" style="stop-color:#838383"/>
		<a:midPointStop  offset="0.5" style="stop-color:#838383"/>
		<a:midPointStop  offset="0.2766" style="stop-color:#7A7A7A"/>
		<a:midPointStop  offset="0.5" style="stop-color:#7A7A7A"/>
		<a:midPointStop  offset="0.4274" style="stop-color:#6B6B6B"/>
		<a:midPointStop  offset="0.5" style="stop-color:#6B6B6B"/>
		<a:midPointStop  offset="0.5815" style="stop-color:#575757"/>
		<a:midPointStop  offset="0.5" style="stop-color:#575757"/>
		<a:midPointStop  offset="0.5989" style="stop-color:#545454"/>
		<a:midPointStop  offset="0.5" style="stop-color:#545454"/>
		<a:midPointStop  offset="1" style="stop-color:#545454"/>
	</linearGradient>
	<path class="st5" d="M69.6,14.1c0,3.2,2.6,5.8,5.8,5.8c1.6,0,3.1-0.7,4.1-1.7c-3.7-3.8-8.1-3.5-8.1-3.5L71.1,15v-1.4
		c2.5,0,3.5,0.4,3.5,0.4c-0.6-0.4-1.8-0.7-1.8-0.7v-1.2h8c-0.8-2.2-2.9-3.8-5.4-3.8C72.2,8.3,69.6,10.9,69.6,14.1z"/>
	
		<linearGradient id="SVGID_5_" gradientUnits="userSpaceOnUse" x1="704.8223" y1="597.6074" x2="715.2876" y2="600.4116" gradientTransform="matrix(1 0 0 1 -635 -585)">
		<stop  offset="0" style="stop-color:#EEEEEE"/>
		<stop  offset="7.661083e-02" style="stop-color:#ECECEC"/>
		<stop  offset="0.1876" style="stop-color:#E6E6E6"/>
		<stop  offset="0.3195" style="stop-color:#DCDCDC"/>
		<stop  offset="0.4662" style="stop-color:#CFCFCF"/>
		<stop  offset="0.6044" style="stop-color:#C0C0C0"/>
		<stop  offset="1" style="stop-color:#C0C0C0"/>
		<a:midPointStop  offset="0" style="stop-color:#EEEEEE"/>
		<a:midPointStop  offset="0.5" style="stop-color:#EEEEEE"/>
		<a:midPointStop  offset="7.661083e-02" style="stop-color:#ECECEC"/>
		<a:midPointStop  offset="0.5" style="stop-color:#ECECEC"/>
		<a:midPointStop  offset="0.1876" style="stop-color:#E6E6E6"/>
		<a:midPointStop  offset="0.5" style="stop-color:#E6E6E6"/>
		<a:midPointStop  offset="0.3195" style="stop-color:#DCDCDC"/>
		<a:midPointStop  offset="0.5" style="stop-color:#DCDCDC"/>
		<a:midPointStop  offset="0.4662" style="stop-color:#CFCFCF"/>
		<a:midPointStop  offset="0.5" style="stop-color:#CFCFCF"/>
		<a:midPointStop  offset="0.6044" style="stop-color:#C0C0C0"/>
		<a:midPointStop  offset="0.5" style="stop-color:#C0C0C0"/>
		<a:midPointStop  offset="1" style="stop-color:#C0C0C0"/>
	</linearGradient>
	<path class="st6" d="M69.6,14.1c0,3.2,2.6,5.8,5.8,5.8c1.6,0,3.1-0.7,4.1-1.7c-3.7-3.8-8.1-3.5-8.1-3.5L71.1,15v-1.4
		c2.5,0,3.5,0.4,3.5,0.4c-0.6-0.4-1.8-0.7-1.8-0.7v-1.2h8c-0.8-2.2-2.9-3.8-5.4-3.8C72.2,8.3,69.6,10.9,69.6,14.1z"/>
	
		<linearGradient id="SVGID_6_" gradientUnits="userSpaceOnUse" x1="696.6768" y1="589.4893" x2="718.9872" y2="605.1111" gradientTransform="matrix(1 0 0 1 -635 -585)">
		<stop  offset="0" style="stop-color:#868686"/>
		<stop  offset="0.1319" style="stop-color:#838383"/>
		<stop  offset="0.2766" style="stop-color:#7A7A7A"/>
		<stop  offset="0.4274" style="stop-color:#6B6B6B"/>
		<stop  offset="0.5815" style="stop-color:#575757"/>
		<stop  offset="0.5989" style="stop-color:#545454"/>
		<stop  offset="1" style="stop-color:#545454"/>
		<a:midPointStop  offset="0" style="stop-color:#868686"/>
		<a:midPointStop  offset="0.5" style="stop-color:#868686"/>
		<a:midPointStop  offset="0.1319" style="stop-color:#838383"/>
		<a:midPointStop  offset="0.5" style="stop-color:#838383"/>
		<a:midPointStop  offset="0.2766" style="stop-color:#7A7A7A"/>
		<a:midPointStop  offset="0.5" style="stop-color:#7A7A7A"/>
		<a:midPointStop  offset="0.4274" style="stop-color:#6B6B6B"/>
		<a:midPointStop  offset="0.5" style="stop-color:#6B6B6B"/>
		<a:midPointStop  offset="0.5815" style="stop-color:#575757"/>
		<a:midPointStop  offset="0.5" style="stop-color:#575757"/>
		<a:midPointStop  offset="0.5989" style="stop-color:#545454"/>
		<a:midPointStop  offset="0.5" style="stop-color:#545454"/>
		<a:midPointStop  offset="1" style="stop-color:#545454"/>
	</linearGradient>
	<path class="st7" d="M69,14.1c0,3.6,2.9,6.4,6.4,6.4c3.6,0,6.4-2.9,6.4-6.4c0-3.5-2.8-6.4-6.4-6.4C71.9,7.7,69,10.6,69,14.1z
		 M81.4,14.1c0,3.3-2.7,6-6,6c-3.3,0-6-2.7-6-6c0-3.3,2.7-6,6-6C78.7,8.1,81.4,10.8,81.4,14.1z"/>
	
		<linearGradient id="SVGID_7_" gradientUnits="userSpaceOnUse" x1="704.1982" y1="597.4375" x2="716.6349" y2="600.7699" gradientTransform="matrix(1 0 0 1 -635 -585)">
		<stop  offset="0" style="stop-color:#EEEEEE"/>
		<stop  offset="7.661083e-02" style="stop-color:#ECECEC"/>
		<stop  offset="0.1876" style="stop-color:#E6E6E6"/>
		<stop  offset="0.3195" style="stop-color:#DCDCDC"/>
		<stop  offset="0.4662" style="stop-color:#CFCFCF"/>
		<stop  offset="0.6044" style="stop-color:#C0C0C0"/>
		<stop  offset="1" style="stop-color:#C0C0C0"/>
		<a:midPointStop  offset="0" style="stop-color:#EEEEEE"/>
		<a:midPointStop  offset="0.5" style="stop-color:#EEEEEE"/>
		<a:midPointStop  offset="7.661083e-02" style="stop-color:#ECECEC"/>
		<a:midPointStop  offset="0.5" style="stop-color:#ECECEC"/>
		<a:midPointStop  offset="0.1876" style="stop-color:#E6E6E6"/>
		<a:midPointStop  offset="0.5" style="stop-color:#E6E6E6"/>
		<a:midPointStop  offset="0.3195" style="stop-color:#DCDCDC"/>
		<a:midPointStop  offset="0.5" style="stop-color:#DCDCDC"/>
		<a:midPointStop  offset="0.4662" style="stop-color:#CFCFCF"/>
		<a:midPointStop  offset="0.5" style="stop-color:#CFCFCF"/>
		<a:midPointStop  offset="0.6044" style="stop-color:#C0C0C0"/>
		<a:midPointStop  offset="0.5" style="stop-color:#C0C0C0"/>
		<a:midPointStop  offset="1" style="stop-color:#C0C0C0"/>
	</linearGradient>
	<path class="st8" d="M69,14.1c0,3.6,2.9,6.4,6.4,6.4c3.6,0,6.4-2.9,6.4-6.4c0-3.5-2.8-6.4-6.4-6.4C71.9,7.7,69,10.6,69,14.1z
		 M81.4,14.1c0,3.3-2.7,6-6,6c-3.3,0-6-2.7-6-6c0-3.3,2.7-6,6-6C78.7,8.1,81.4,10.8,81.4,14.1z"/>
	<path class="st0" d="M97.4,9.5h-2.1c0,0,0,4.3,0,5.6c0,1.3-0.8,2-1.9,2c-1,0-1.5-1.4-1.5-2c0-0.6,0-5.6,0-5.6h-2.1c0,0,0,4.4,0,5
		s0.1,4.6,3.6,4.7c3.5,0.1,4-3.3,4-4.2C97.4,14.2,97.4,9.5,97.4,9.5z"/>
</g>
</svg>
