<?xml version="1.0" encoding="utf-8"?>
<!-- Generator: Adobe Illustrator 23.0.3, SVG Export Plug-In . SVG Version: 6.00 Build 0)  -->
<svg version="1.1" id="Capa_1" xmlns="http://www.w3.org/2000/svg" xmlns:xlink="http://www.w3.org/1999/xlink" x="0px" y="0px"
	 viewBox="0 0 20.1 20" style="enable-background:new 0 0 20.1 20;" xml:space="preserve">
<style type="text/css">
	.st0{fill:#231F20;}
</style>
<path id="koru" class="st0" d="M12.4,0C10.1,0,8,1.6,6.8,2.8C2.6,6.9,0.3,9.7,0.3,9.7h18.9l0.9-1.9H4.8c0,0,1.2-1.6,3.6-3.9
	c0.6-0.6,2.3-2,3.9-2c1.1,0,1.9,0.7,1.9,1.6c0,0.9-0.8,1.2-0.8,1.2c0.1-0.4-0.2-1.5-1.2-1.5c-1.1,0-1.5,0.8-1.5,1.4
	c0,1.1,1,1.9,2.2,1.9c2.3,0,3.3-1.6,3.3-3.2C16.4,1.7,14.8,0,12.4,0z M0,10.7c0,0,1,2.9,2.3,5.6c1.1,2.3,3,3.7,5.2,3.7
	c2.1,0,3.6-1.6,3.6-3.2c0-1.7-1.3-2.9-2.9-2.9c-1.7,0-2,1.3-2,1.6c0,0.7,0.6,1.4,1.4,1.4c1.2,0,1.3-1,1.3-1s0.4,0.2,0.4,0.9
	c0,0.6-0.5,1.4-1.7,1.4c-0.9,0-2.3-0.5-3.3-2.5C3.1,13.3,3,12.6,3,12.6h14.9l0.9-1.9H0z"/>
</svg>
