<?xml version="1.0" encoding="utf-8"?>
<!-- Generator: Adobe Illustrator 16.0.0, SVG Export Plug-In . SVG Version: 6.00 Build 0)  -->
<!DOCTYPE svg PUBLIC "-//W3C//DTD SVG 1.0//EN" "http://www.w3.org/TR/2001/REC-SVG-20010904/DTD/svg10.dtd">
<svg version="1.0" id="Layer_1" xmlns="http://www.w3.org/2000/svg" xmlns:xlink="http://www.w3.org/1999/xlink" x="0px" y="0px"
	 width="157px" height="26px" viewBox="0 0 157 26" enable-background="new 0 0 157 26" xml:space="preserve">
<g>
	<path fill-rule="evenodd" clip-rule="evenodd" fill="#265CA9" d="M152.836,6.539c-1.757,1.666-5.457,3.146-7.216,3.793
		c-2.497,0.925-3.608,1.296-4.996,1.758c-1.572,0.463-4.718,1.48-4.718,1.48c6.476,1.942,11.102,2.497,11.102,2.497
		s2.128-0.646,5.551-2.497c1.851-0.925,2.684-1.48,3.331-2.128c0.277-0.186,0.925-0.833,1.018-1.666
		c0-0.093,0.093-0.185,0.093-0.371c0,0,0-0.092,0-0.185c-0.093-0.092-0.093-0.185-0.093-0.185s0-0.185-0.093-0.37
		c0-0.092-0.185-0.555-0.555-0.833c-0.277-0.185-0.647-0.647-2.035-1.11c-0.463-0.185-1.296-0.37-1.296-0.37L152.836,6.539
		L152.836,6.539z"/>
	<path fill-rule="evenodd" clip-rule="evenodd" fill="#EB1E2A" d="M157,9.314c0,0,0-0.186-0.093-0.278
		c0-0.185-0.093-0.277-0.185-0.462c-0.093-0.093-0.278-0.278-0.463-0.556c-0.185-0.092-0.37-0.277-0.555-0.462
		c-0.926-0.555-2.035-0.833-3.054-1.018c-1.572-0.185-3.423-0.185-3.608-0.185c-0.555,0-4.348,0-5.273,0.092
		c-4.255,0.093-9.529,0.093-10.916,0.093c-14.155,0-20.355-0.277-27.201-1.666c-5.828-1.11-9.066-2.22-9.066-2.22
		c5.182-0.185,35.249-1.48,40.707-1.573c3.609-0.093,6.107-0.185,8.143,0c1.109,0,2.035,0.092,3.238,0.37
		c1.109,0.185,2.127,0.462,2.683,0.648c1.202,0.462,2.313,1.11,2.775,1.85c0,0,0.186,0.093,0.37,0.37
		c0.186,0.37,0.463,0.741,0.556,0.833c0.74,1.203,1.109,1.851,1.202,2.128c0.185,0.278,0.277,0.555,0.37,0.833
		c0.185,0.185,0.185,0.37,0.185,0.462c0.093,0.277,0.093,0.555,0.186,0.647V9.314L157,9.314z"/>
	<path fill-rule="evenodd" clip-rule="evenodd" fill="#265CA9" d="M0,24.841c0.37-0.186,0.462-0.555,0.462-0.925v-8.234
		c0-0.277-0.092-0.74-0.462-0.926h3.886c1.758,0,3.516,0.74,3.516,2.776c0,1.018-0.925,1.851-1.943,2.034
		c1.48,0,2.775,0.834,2.775,2.406c0,2.313-2.313,2.868-3.978,2.868H0L0,24.841z M3.146,15.682c-0.185,0-0.277,0-0.647,0v3.516H2.96
		c1.203,0,2.313-0.37,2.313-1.759C5.273,16.051,4.348,15.682,3.146,15.682L3.146,15.682z M3.423,20.123c-0.277,0-0.555,0-0.925,0
		v3.7c0.462,0.093,0.925,0.093,1.388,0.093c1.018,0,2.035-0.37,2.035-1.943C5.921,20.493,4.718,20.123,3.423,20.123L3.423,20.123z
		 M12.12,15.682c-0.185,0-0.277,0-0.462,0v3.516c0.185,0,0.277,0,0.462,0c1.11,0,1.943-0.647,1.943-1.851
		C14.062,16.145,13.23,15.682,12.12,15.682L12.12,15.682z M17.208,24.933c-0.37,0-0.833,0-1.202-0.184
		c-0.648-0.186-1.573-1.665-1.943-2.313c-0.647-0.925-1.11-2.312-2.405-2.312v3.793c0,0.37,0.092,0.739,0.462,0.925H9.067
		c0.37-0.186,0.462-0.555,0.462-0.925v-8.234c0-0.277-0.093-0.74-0.462-0.926h3.701c1.572,0,3.516,0.648,3.516,2.591
		c0,1.573-1.295,2.405-2.776,2.405c2.036,0,3.331,4.903,5.644,4.903C18.503,24.841,17.856,24.933,17.208,24.933L17.208,24.933z
		 M19.244,24.841c0.277-0.092,0.555-0.463,0.555-0.925v-8.234c0-0.463-0.278-0.74-0.555-0.926h3.146
		c-0.277,0.186-0.555,0.463-0.555,0.926v8.234c0,0.462,0.278,0.833,0.555,0.925H19.244L19.244,24.841z M25.998,24.841
		c0.277-0.186,0.462-0.555,0.462-0.925v-7.957h-2.22c-0.555,0-1.11,0.092-1.573,0.277l0.74-1.48h7.309c0.555,0,1.203,0,1.758-0.092
		c-0.277,0.74-1.11,1.295-1.573,1.295c-0.555,0-1.572,0-2.405,0v7.957c0,0.37,0.186,0.739,0.556,0.925H25.998L25.998,24.841z
		 M32.844,24.841c0.278-0.092,0.555-0.463,0.555-0.925v-8.234c0-0.463-0.277-0.74-0.555-0.926h3.146
		c-0.277,0.186-0.555,0.463-0.555,0.926v8.234c0,0.462,0.278,0.833,0.555,0.925H32.844L32.844,24.841z M42.003,22.527
		c0-1.85-4.534-2.312-4.534-5.366c0-1.85,1.758-2.497,3.331-2.497c0.74,0,1.757,0.092,2.405,0.37l0.093,1.943
		c-0.37-0.833-1.388-1.481-2.313-1.481c-0.739,0-1.48,0.371-1.48,1.203c0,1.943,4.626,2.498,4.626,5.366
		c0,2.035-1.85,2.961-3.701,2.961c-1.017,0-2.312-0.186-3.145-0.74c0-0.37-0.093-0.74-0.093-1.019c0-0.461,0.093-0.832,0.186-1.295
		c0.462,1.203,1.48,2.128,2.868,2.128C41.17,24.101,42.003,23.639,42.003,22.527L42.003,22.527z M51.625,24.841
		c0.185-0.092,0.462-0.463,0.462-0.925v-3.701c-0.555-0.092-1.295-0.092-2.128-0.092c-0.925,0-1.665,0-2.22,0.092v3.701
		c0,0.462,0.277,0.833,0.462,0.925h-2.96c0.185-0.092,0.462-0.463,0.462-0.925v-8.234c0-0.463-0.277-0.74-0.462-0.926h2.96
		c-0.185,0.186-0.462,0.463-0.462,0.926v3.424c0.555,0,1.295,0.092,2.22,0.092c0.833,0,1.573-0.092,2.128-0.092v-3.424
		c0-0.463-0.278-0.74-0.462-0.926h2.96c-0.278,0.186-0.463,0.463-0.463,0.926v8.234c0,0.462,0.185,0.833,0.463,0.925H51.625
		L51.625,24.841z"/>
	<path fill-rule="evenodd" clip-rule="evenodd" fill="#265CA9" d="M69.055,24.842c0.093-0.093,0.185-0.186,0.185-0.37
		c0,0-0.092-0.186-0.092-0.371c0,0-0.833-2.22-0.925-2.497c-0.648,0-1.295,0-1.943,0c-0.555,0-1.203,0-1.758,0
		c-0.092,0.277-1.018,2.497-1.018,2.497c-0.093,0.277-0.185,0.371-0.185,0.463c0,0.186,0.185,0.186,0.277,0.278h-2.035
		c0.278-0.186,0.555-0.464,0.74-0.741l3.238-8.604c0.093,0,0.093-0.093,0.093-0.093c0-0.277-0.186-0.462-0.371-0.555h2.591
		l3.33,9.251c0.186,0.371,0.463,0.556,0.741,0.741H69.055L69.055,24.842z M66.372,16.7l-1.48,3.885
		c0.463,0.094,0.925,0.094,1.388,0.094s1.018,0,1.573-0.094L66.372,16.7L66.372,16.7z M72.385,24.842
		c0.278-0.093,0.555-0.464,0.555-0.925v-8.234c0-0.463-0.277-0.74-0.555-0.833h3.146c-0.277,0.093-0.556,0.37-0.556,0.833v8.234
		c0,0.461,0.278,0.832,0.556,0.925H72.385L72.385,24.842z M80.156,15.683c-0.184,0-0.277,0-0.463,0v3.515c0.186,0,0.279,0,0.463,0
		c1.111,0,1.943-0.555,1.943-1.85C82.1,16.146,81.268,15.683,80.156,15.683L80.156,15.683z M85.523,24.934
		c-0.463,0-0.834,0-1.203-0.092c-0.648-0.278-1.666-1.758-2.036-2.406c-0.555-0.925-1.294-2.312-2.591-2.312v3.794
		c0,0.369,0.094,0.739,0.463,0.925h-3.052c0.37-0.186,0.462-0.556,0.462-0.925v-8.234c0-0.278-0.092-0.74-0.462-0.833h3.701
		c1.572,0,3.516,0.555,3.516,2.498c0,1.572-1.48,2.405-2.498,2.405c2.127,0.092,3.424,4.903,5.551,4.903
		C86.818,24.842,86.17,24.934,85.523,24.934L85.523,24.934z M98.013,15.774l-3.052,9.067c-0.279,0-0.557-0.093-0.648-0.186
		c-0.278-0.278-0.74-1.48-0.926-1.943L92,19.197l-2.036,5.645h-0.925l-3.424-9.067c-0.092-0.37-0.369-0.739-0.74-0.925h2.961
		c-0.094,0.093-0.186,0.186-0.186,0.37c0,0.093,0,0.277,0.092,0.37l2.222,6.014l2.313-6.754l2.59,6.477l2.035-5.922
		c0-0.092,0.093-0.185,0.093-0.277c0-0.185-0.093-0.185-0.185-0.277h1.943C98.383,15.035,98.105,15.404,98.013,15.774L98.013,15.774
		z M101.621,16.7l-1.479,3.885c0.462,0.094,0.924,0.094,1.387,0.094c0.462,0,1.019,0,1.481-0.094L101.621,16.7L101.621,16.7z
		 M104.212,24.842c0.185-0.093,0.185-0.186,0.185-0.37c0,0,0-0.186-0.092-0.371c0,0-0.74-2.22-0.926-2.497c-0.555,0-1.203,0-1.851,0
		c-0.555,0-1.202,0-1.757,0c-0.093,0.277-1.018,2.497-1.018,2.497c-0.094,0.277-0.186,0.371-0.186,0.463
		c0,0.186,0.186,0.186,0.277,0.278h-2.035c0.277-0.186,0.555-0.464,0.647-0.741l3.33-8.604l0.093-0.093
		c0-0.277-0.185-0.462-0.37-0.555h2.591l3.33,9.251c0.186,0.371,0.463,0.556,0.74,0.741H104.212L104.212,24.842z M113.277,15.867
		l-2.312,4.163v3.887c0,0.369,0.094,0.739,0.371,0.925h-2.868c0.277-0.186,0.369-0.556,0.369-0.925V20.03l-2.034-3.33
		c-0.186-0.277-1.019-1.758-2.129-1.758c0.277-0.093,1.203-0.278,1.758-0.278c1.019,0,1.48,0.094,2.036,1.019l1.942,3.052
		c0.186-0.277,1.666-2.96,1.666-2.96c0.185-0.277,0.277-0.555,0.277-0.647c0-0.092,0-0.185-0.186-0.277h2.129
		C113.926,15.035,113.556,15.497,113.277,15.867L113.277,15.867z M118.83,22.529c0-1.851-4.441-2.313-4.441-5.367
		c0-1.85,1.758-2.498,3.33-2.498c0.74,0,1.758,0.094,2.406,0.371l0.092,1.942c-0.37-0.832-1.387-1.48-2.312-1.48
		c-0.74,0-1.48,0.37-1.48,1.203c0,1.942,4.533,2.497,4.533,5.366c0,2.128-1.758,2.96-3.607,2.96c-1.019,0-2.312-0.185-3.146-0.74
		c0-0.369-0.092-0.647-0.092-1.018c0-0.462,0.092-0.833,0.092-1.202c0.557,1.109,1.573,2.034,2.868,2.034
		C118.09,24.101,118.83,23.639,118.83,22.529L118.83,22.529z"/>
</g>
</svg>
