<svg id="Cathay_Dragon" data-name="Cathay Dragon" xmlns="http://www.w3.org/2000/svg" viewBox="0 0 150 19.96"><defs><style>.cls-1{fill:#b70031;fill-rule:evenodd;}</style></defs><title>logo_pos_CathayDragon</title><g id="icons"><g id="cathaydragon"><g id="cathaydragon-en"><path id="Fill-4" class="cls-1" d="M28.1,26c-2.1,0-3.56-1.4-3.56-3.94s1.41-4.2,3.64-4.2a3.44,3.44,0,0,1,3.14,1.81l.06.05V17.56A8.24,8.24,0,0,0,28,16.87c-3.55,0-5.79,2.22-5.79,5.18,0,2.39,1.85,5,5.65,5A11.37,11.37,0,0,0,31,26.5l.76-2.65-.08.06A4.51,4.51,0,0,1,28.1,26Zm44.61-.4-4.32-9-4.28,9c-.64,1.23-1.35,1.26-1.35,1.26l-.06.07h2.93l-.07-.07s-.82-.16-.3-1.26L66,24H69.7l.75,1.6c.52,1.1-.3,1.26-.3,1.26l-.07.07h4l-.07-.07s-.74,0-1.34-1.26Zm-6.28-2.44L68,19.93l1.38,3.21Z" transform="translate(-0.1 -7.12)"/><path id="Fill-6" class="cls-1" d="M123.68,23l.06.07s.66.1.66,1.26v1.21a3.81,3.81,0,0,1-1.52.32c-2.11,0-3.55-1.39-3.55-3.93s1.41-4.2,3.63-4.2a3.44,3.44,0,0,1,3.13,1.82l0,0V17.45a8.18,8.18,0,0,0-3.34-.68c-3.55,0-5.77,2.2-5.77,5.16,0,2.38,1.83,5,5.62,5a8.3,8.3,0,0,0,1.75-.21,12.23,12.23,0,0,0,1.35-.36l.71-.24V24.32c0-1.16.65-1.26.65-1.26l.07-.07Z" transform="translate(-0.1 -7.12)"/><path id="Fill-8" class="cls-1" d="M138.73,21.88a5.92,5.92,0,0,1-.3,1.88,5.1,5.1,0,0,1-1.08,1.73A5.48,5.48,0,0,1,133.27,27a4.93,4.93,0,0,1-5.32-5.1c0-3.38,2.63-5.28,5.56-5.28a5,5,0,0,1,5.22,5.22M136,24.79a4.53,4.53,0,0,0,.79-2.81c0-2.26-1.15-4.25-3.45-4.25-2,0-3.37,1.56-3.37,4,0,2,1.15,4.27,3.52,4.27a3.11,3.11,0,0,0,2.51-1.2" transform="translate(-0.1 -7.12)"/><path id="Fill-10" class="cls-1" d="M147.5,17l.06.07s.66.09.66,1.27v5.49L142.42,17h-2.7l.07.06s.65.1.65,1.27v7.21c0,1.17-.65,1.26-.65,1.26l-.07.07h2.6l-.06-.07s-.66-.1-.66-1.26V19l6.85,8h.92V18.37c0-1.18.66-1.27.66-1.27l.07-.07Z" transform="translate(-0.1 -7.12)"/><path id="Fill-12" class="cls-1" d="M93.75,17.64a7.11,7.11,0,0,0-3-.6H86.14l.07.07s.65.09.65,1.26v7.21c0,1.17-.65,1.26-.65,1.26l-.07.07h4.08a6,6,0,0,0,4.42-1.34,5.08,5.08,0,0,0,1.51-3.72,4.53,4.53,0,0,0-2.4-4.21M91.4,25.71a6.26,6.26,0,0,1-1.43.15h-1c0-.08,0-.17,0-.28V18.37c0-.1,0-.19,0-.28h1c1,0,3.08,0,3.92,2.08a4.45,4.45,0,0,1,.32,1.77,3.57,3.57,0,0,1-2.74,3.77" transform="translate(-0.1 -7.12)"/><path id="Fill-14" class="cls-1" d="M43.24,17c-1.16,0-1.32-.12-1.32-.12v2l.07-.05A2,2,0,0,1,43.66,18h1.65v7.59c0,1.17-.65,1.27-.65,1.27l-.07.06h3.5L48,26.85s-.66-.1-.66-1.27V18H49a2.1,2.1,0,0,1,1.71.85l.07.05v-2a3.31,3.31,0,0,1-1.32.12Z" transform="translate(-0.1 -7.12)"/><path id="Fill-16" class="cls-1" d="M61.63,25.58V18.35c0-1.17.65-1.25.65-1.25l.07-.07h-3.5l.06.07s.66.08.66,1.25v2.83H54.75V18.35c0-1.17.66-1.25.66-1.25l.06-.06H52l.07.06s.65.08.65,1.25v7.23c0,1.17-.65,1.27-.65,1.27l-.07.06h3.5l-.06-.06s-.66-.1-.66-1.27V22.15h4.82v3.43c0,1.17-.65,1.27-.65,1.27l-.07.06h3.51l-.07-.06s-.66-.1-.66-1.27" transform="translate(-0.1 -7.12)"/><path id="Fill-18" class="cls-1" d="M39.27,26.84l-.06.07h4l-.07-.07s-.75,0-1.35-1.26l-4.31-9-4.28,9c-.64,1.24-1.35,1.26-1.35,1.26l-.07.07h2.94l-.08-.07s-.81-.16-.29-1.26L35.15,24h3.68l.74,1.59c.52,1.1-.3,1.26-.3,1.26Zm-3.71-3.69,1.51-3.21,1.38,3.21Z" transform="translate(-0.1 -7.12)"/><path id="Fill-20" class="cls-1" d="M79.63,17l.06.06s.87.25.22,1.28c-.32.49-1.29,1.89-2.17,3.23-.88-1.34-1.83-2.75-2.15-3.24-.65-1,.22-1.27.22-1.27l.06-.06h-4l.06.06s.59.1,1.35,1.27c.32.49,2,2.8,2.85,4.15v3.06c0,1.17-.66,1.27-.66,1.27l-.06.06h3.5l-.07-.06s-.65-.1-.65-1.27c0-.49,0-1.72,0-3.06.89-1.35,2.53-3.65,2.85-4.14a2.58,2.58,0,0,1,1.63-1.28L82.7,17Z" transform="translate(-0.1 -7.12)"/><path id="Fill-22" class="cls-1" d="M99.8,25.58V17H97l.07.07s.65.09.65,1.26v7.22c0,1.16-.65,1.25-.65,1.25L97,26.9h3.49l-.06-.07s-.66-.09-.66-1.25" transform="translate(-0.1 -7.12)"/><path id="Fill-24" class="cls-1" d="M102.61,17.16a8.08,8.08,0,0,0-1.74-.12H97l.07.06s.65.1.65,1.26v7.22c0,1.16-.65,1.26-.65,1.26l-.07.07h3.49l-.06-.07s-.66-.1-.66-1.26v-2.8h1.89a4.12,4.12,0,0,0,1.87-.45,2.92,2.92,0,0,0,1.55-2.45c0-.8-.32-2.21-2.5-2.71M102,21.75c-.27.13-.45.21-1.57.21H99.8V18h.47a5.91,5.91,0,0,1,1.49.11A1.71,1.71,0,0,1,103.15,20a2,2,0,0,1-1.17,1.8" transform="translate(-0.1 -7.12)"/><path id="Fill-26" class="cls-1" d="M101.24,22.67l1.83,3.38a1.33,1.33,0,0,0,1.24.86H106l0-.07c-.46-.18-.57-.39-1.11-1.4l-1.62-3.05" transform="translate(-0.1 -7.12)"/><path id="Fill-28" class="cls-1" d="M116.22,25.59l-4.3-9-4.27,9c-.64,1.23-1.34,1.25-1.34,1.25l-.07.07h2.92l-.06-.07s-.82-.16-.3-1.25l.77-1.6h3.65l.75,1.6c.52,1.09-.3,1.25-.3,1.25l-.06.07h4l-.06-.07s-.75,0-1.35-1.25ZM110,23.16,111.48,20l1.37,3.21Z" transform="translate(-0.1 -7.12)"/><path id="Fill-1" class="cls-1" d="M16.48,20.4c-.08-.31-1-.18-1.7-.24a10.12,10.12,0,0,1-2.53-.54,18.45,18.45,0,0,1-2.69-1.16l-.36-.19L9,18.15l-.14-.08L8.72,18l-.17-.1-.19-.13-.12-.07-.13-.08-.17-.13-.12-.07-.13-.1-.08-.06-.14-.12L7.34,17l-.11-.08L7,16.79l-.13-.12-.16-.12-.1-.09-.1-.11-.11-.09-.17-.17L6.21,16l0-.06,0-.05L6,15.85l0-.07,0-.06-.08-.09-.06-.07,0-.05,0,0,0,0v.07l.06.1h0l0,0,0,.05.09.1,0,0,0,.06L6,16l0,0,0,0,0,.05.08.08.06.06.17.19.11.09.09.11.09.09a.61.61,0,0,0,.16.16L7,17l.1.12c.06.08.09.15.08.15L7,17.12,6.87,17,6.77,17l-.09-.09a2,2,0,0,0-.2-.21c-.07-.06-.16-.12-.22-.18L6.2,16.4l-.07-.06L6,16.19l-.11-.08,0,0,0-.05-.14-.18-.07-.08-.13-.18c-.06-.09-.15-.15-.21-.23s-.1-.19-.16-.28L5,15l0-.07-.1-.14a2,2,0,0,0-.12-.19l0-.09-.08-.11-.06-.11,0-.08,0-.08L4.39,14l-.07-.06v0l0,.08.07.13.07.12.06.1.06.13.06.1a1,1,0,0,0,.11.17l.06.13.15.2.08.15.09.11.08.15.08.11a1.27,1.27,0,0,0,.13.19l.08.1.1.14.09.11.15.23c-.08,0-.21-.15-.27-.2l-.13-.13-.13-.19-.06-.06-.1-.13,0,0A1.88,1.88,0,0,1,5,15.42l-.08-.09,0-.08-.07-.1,0-.08-.1-.13,0-.12-.19-.29,0-.08-.15-.24,0-.09L4.09,14l0-.08L4,13.82l0-.07q-.08-.13-.15-.3l-.09-.15-.08-.18,0-.12-.1-.18-.05-.12,0,0v.06c0,.07.06.14.07.18s0,.15.09.23l.06.12.1.21,0,.12,0,.06,0,.14.08.14a6.23,6.23,0,0,0,.36.68l.1.2.13.17.07.17c0,.08.1.15.15.23l0,.06.06.09.06.12.1.11.1.16.09.09.23.3a2.78,2.78,0,0,1,.23.31l.06.13-.2-.16c-.06-.06-.11-.14-.16-.2l-.16-.17,0,0L5,16,5,15.93l-.08-.14c0-.06-.11-.12-.16-.19s-.09-.16-.15-.23l-.08-.11,0,0-.06-.09,0-.09-.17-.27-.06-.12c0-.07-.1-.12-.14-.19s-.08-.17-.12-.25l-.11-.15-.08-.18-.09-.15-.08-.17,0-.1,0-.11c-.05-.11-.12-.21-.17-.32a2.44,2.44,0,0,1-.1-.24l0-.13c0-.1-.1-.2-.14-.3l-.06-.16v0L2.85,12l-.05-.16c-.07-.17-.13-.37-.2-.55l0-.11a2.31,2.31,0,0,1-.1-.28l-.06,0,0,.13v.08l0,.09,0,.16.08.23,0,.11,0,.11c0,.09.07.18.11.28l0,.16,0,.09,0,.07.07.19.07.15,0,.07c.06.16.12.33.19.48l0,.11,0,.1,0,.06.08.13a2.71,2.71,0,0,0,.18.34,1.84,1.84,0,0,1,.15.35l.09.15,0,.08.09.16.05.12,0,.13L4,15l-.1-.13,0-.11c0-.08-.1-.14-.14-.21l-.06-.14-.12-.24-.06-.1L3.4,14a1.76,1.76,0,0,1-.14-.23l-.06-.17,0-.05,0-.09-.07-.13C3,13.22,3,13.13,3,13l-.07-.11c0-.07,0-.14-.06-.21a5,5,0,0,1-.23-.53l0-.09c0-.08-.07-.15-.1-.23l0-.1-.06-.16v-.06l-.06-.16,0-.08,0-.17-.09-.22,0-.13-.05-.15,0-.15,0-.12a1.29,1.29,0,0,0-.06-.21v0l0,0,0,.05,0,.14,0,.13v.09l0,.12,0,.11c0,.09,0,.19.08.28l0,.13.05.13,0,.11.05.12,0,.16.1.24,0,.09c0,.07,0,.15.07.22l.12.29a2.81,2.81,0,0,0,.08.31l.08.11,0,.09,0,.11,0,.1,0,.11L3,13.5l.08.11.05.15a1.15,1.15,0,0,1,.1.23c0,.07,0,.14.07.2l.11.18.06.13.07.11.07.14,0,.1.09.13.07.15.05.11.08.09,0,.16-.11-.08c-.06-.07-.08-.16-.13-.23A.92.92,0,0,1,3.55,15l-.1-.19-.08-.13,0-.12-.11-.15c0-.07-.05-.13-.08-.19l-.05-.1,0-.11c0-.08-.1-.15-.13-.23s-.06-.16-.1-.25l-.08-.12-.07-.18,0-.11-.06-.16-.16-.36,0-.14-.06-.13c0-.1-.06-.23-.11-.33l-.07-.16c0-.1,0-.19-.08-.28l-.14-.44,0-.12,0-.13,0-.12c0-.12-.07-.24-.11-.37l0-.11,0-.07,0-.08-.07-.28,0-.1c0-.12-.06-.28-.11-.39l0,0v.05l0,.15v.15a1.68,1.68,0,0,1,.07.24V10c0,.12.06.26.1.37a2.49,2.49,0,0,1,.08.32v.13l.05.12,0,.08a1.87,1.87,0,0,0,.07.22l.06.16v.07l0,.15L2,12l0,.16.24.67,0,.15.07.14.06.18c0,.07.06.13.08.2l0,.11,0,.08.05.14.08.12.05.13c0,.07.07.13.1.21l0,.08,0,.1H3v.05l0,.07,0,0,0,0,.06.16.09.14v.14c-.1,0-.11-.14-.14-.21L3,14.69l0-.06,0-.06,0,0-.05-.07h0l-.09-.2-.05-.07-.06-.13-.07-.12,0-.16,0-.08-.07-.18-.05-.08-.06-.14A3,3,0,0,1,2.22,13l-.06-.17-.07-.15,0-.1L2,12.4l0-.15-.06-.13-.06-.19-.06-.15,0-.12,0-.09,0-.15-.06-.15,0-.16c-.06-.16-.11-.33-.16-.5s0-.15-.05-.22l0-.1-.05-.14,0-.1,0-.1c0-.1,0-.2-.07-.3l0-.13c0-.12,0-.25-.08-.38l0-.1C1,8.8,1,8.54.9,8.32V8.18L.85,8V8l0-.07L.77,8l0,.13v.1a2,2,0,0,1,0,.24v.1l0,.11v.16l0,.13L1,9l0,.11v.14c.05.2.07.44.13.64V10c.05.18.09.36.14.53v.08l.05.19v.08l.06.18,0,.09,0,.08,0,.1,0,.06,0,.11.06.13,0,.1.07.2.05.16,0,.11,0,.08.05.1,0,.13,0,.11,0,.12.05.08,0,.1L2,13l.05.11,0,.19v.07L2,13.31,2,13.17l0-.06L1.89,13l0-.09,0-.12-.05-.09,0-.08-.06-.09,0-.1,0-.12-.06-.12,0-.07,0-.09,0-.07,0-.1,0-.09-.06-.16,0-.12-.06-.14,0-.11-.06-.15,0-.12-.09-.3c0-.11,0-.24-.07-.35S1,10.15,1,10.07L1,10c0-.09-.06-.2-.09-.3l0-.14,0-.18,0-.1,0-.13L.69,8.84V8.72l0-.12,0-.09,0-.17V8.23l0-.14,0-.17,0-.11,0-.09V7.6l0-.13,0-.16V7.24L.35,7.12l0,.06,0,.14V7.5l0,0v.2l0,0v.12l0,.16,0,.18v.1l0,.15v.12l.06.15v.13L.62,9v.06l0,.14v.06l0,.16v.08l0,.14v.09l0,.13,0,.1a1.55,1.55,0,0,0,0,.21l.05.13,0,.11,0,.1v.09l0,.1v.08l0,.09,0,.11,0,.12,0,.12a2.13,2.13,0,0,0,.08.27l0,.13,0,.09v.09l.05.17.07.17,0,.18.07.15,0,.14.08.14,0,.17V13c0,.07.07.14.09.21l0,.09.07.15.06.14,0,.12.05.13,0,.07c.05.12.11.23.16.34l.07.19.07.15,0,.09.1.19,0,.1h0L2.37,15c-.07-.07-.08-.2-.13-.29l0-.09,0-.05-.09-.18L2,14.2c-.08-.18-.17-.35-.25-.53a2.58,2.58,0,0,1-.08-.26l-.07-.15,0-.12L1.52,13l0-.11-.06-.11a1.09,1.09,0,0,1-.05-.17l0-.11,0-.09c0-.06-.06-.12-.09-.19l0-.15L1.14,12v-.14l0-.13,0-.08L1,11.44l0-.08,0-.1,0-.17c0-.07-.05-.12-.07-.19v-.07l0-.19,0-.08-.05-.17,0-.11c0-.09,0-.19-.08-.28V9.92A1.41,1.41,0,0,1,.54,9.7l0-.11,0-.15V9.29c0-.12-.08-.27-.11-.4V8.76l0-.1,0-.1V8.4h0l0-.24L.21,8V7.84l0-.19V7.53l0-.06,0,.06c0,.07,0,.15,0,.2A1.62,1.62,0,0,1,.12,8l0,.13a1.64,1.64,0,0,1,0,.22h0v.1h0v.12c0,.09,0,.18,0,.26s.06.26.09.38v.11l0,.11v.15l0,.12,0,.16L.5,10l0,.2,0,.18v.07l0,.12v.06a2.5,2.5,0,0,0,.07.26V11l0,.12,0,.09,0,.12,0,.09,0,.1a1.74,1.74,0,0,0,.05.22l0,.12L1,12l.08.21c0,.09.05.18.07.25l0,.1.08.24,0,.12a1.11,1.11,0,0,0,.09.19l0,.17c0,.08.07.15.09.22l.05.16.06.13,0,.11.06.11.05.17.1.25,0,.09.08.15.05.15a.35.35,0,0,1,.06.21v0L2,15a.46.46,0,0,1-.09-.17c0-.11-.12-.22-.17-.33l-.06-.17,0-.11L1.55,14l-.09-.22,0-.08-.05-.09,0-.15a2.39,2.39,0,0,1-.13-.28c0-.08,0-.17-.07-.26l0-.11,0-.09a2.44,2.44,0,0,0-.1-.24l0-.12-.06-.15a1.46,1.46,0,0,0-.05-.2c0-.15-.12-.3-.16-.45l0-.1a2.17,2.17,0,0,0-.07-.24,2.74,2.74,0,0,0,0-.28c0-.11-.07-.23-.11-.34v-.1l-.09-.27,0-.12-.06,0,0,.13v.1l0,.16,0,.17,0,.09,0,.18,0,.14,0,.08.05.16v.09l0,.12,0,.13c0,.08.05.15.07.22s0,.16.06.24.09.3.14.44l0,.11,0,.18L1,13l0,.11,0,.09,0,.14,0,.1,0,.12.05.09,0,.09.05.1,0,.12.05.09,0,.11.08.16,0,.12.06.13.08.18c0,.11.06.22.1.31l.11.22,0,.12.07.13,0,.13.09.16,0,.09.1.17,0,.12.11.18.07.14.11.19.09.15.08.14.07.14.09.13c0,.08.08.16.13.24l.11.16c.1.13.24.38.31.47s.09.14.14.21l.12.17.09.13,0,0a15,15,0,0,0,3.71,3.44h0a5.06,5.06,0,0,0,.91.48c.07,0,0,.09,0,.11L1.82,27l-.05.09h.1c5.31-1.88,9.16-3.42,11.51-4.55s3.19-1.8,3.1-2.12M2.37,14.09l0-.08,0-.09-.13-.28,0-.16h0l0,0,0,0,.06.1c0,.07,0,.16.08.23l.08.14,0,.08v.11c-.07,0-.09-.08-.11-.13m.27,2,0,0c-.07,0-.09-.11-.12-.16l-.07-.12-.06-.09-.05-.12,0-.06a1,1,0,0,1-.1-.17v-.07l-.05-.13v-.08h0l.14.19.1.15,0,.16.08.1.07.15.09.16v.08m1.49-.3-.07,0a.23.23,0,0,1-.1-.2H4c.06,0,.13.1.15.15l0,.07,0,0m.44,0-.18-.16-.17-.25a.58.58,0,0,1-.13-.26v0l.15.15.06.09.08.14.12.15.06.09v.1m1.56.87c-.06,0-.13-.09-.16-.13l0-.1.11,0a.29.29,0,0,1,.11.19h0" transform="translate(-0.1 -7.12)"/></g></g></g></svg>