<?xml version="1.0" encoding="utf-8"?>
<!-- Generator: Adobe Illustrator 22.1.0, SVG Export Plug-In . SVG Version: 6.00 Build 0)  -->
<svg version="1.1" id="Capa_1" xmlns="http://www.w3.org/2000/svg" xmlns:xlink="http://www.w3.org/1999/xlink" x="0px" y="0px"
	 viewBox="0 0 150.2 34.2" style="enable-background:new 0 0 150.2 34.2;" xml:space="preserve">
<style type="text/css">
	.st0{fill-rule:evenodd;clip-rule:evenodd;fill:#0C2355;}
</style>
<g>
	<path class="st0" d="M23.5,6V0h6v6H23.5L23.5,6z M23.5,33.7V8.3h6v25.4H23.5L23.5,33.7z"/>
	<path class="st0" d="M38,33.7h-6V8.3h5.9V13c1.9-2.7,4.6-5.2,8.2-5.2c0.7,0,1,0,1.4,0.1v5.7c-0.5-0.1-1.4-0.1-1.8-0.1
		c-2.8,0-7.7,2.6-7.7,7.7V33.7L38,33.7z"/>
	<path class="st0" d="M49.1,33.7V0h10.8c2.8,0,12.5,0,12.5,8.2c0,5.7-4.4,7.2-6.7,8c2.6,0.7,7.4,2.1,7.4,8.3c0,5.1-3.9,9.2-12.5,9.2
		H49.1L49.1,33.7z M55.5,13.7h4.5c5.7,0,6.2-3.4,6.2-4.6C66.2,5,61.8,5,60.5,5h-5V13.7L55.5,13.7z M55.5,28.7h4c4.2,0,7.3-1.4,7.3-5
		c0-2.4-1.3-5.1-6.8-5.1h-4.4V28.7L55.5,28.7z"/>
	<path class="st0" d="M90.3,33.7L89.6,31c-1.5,1.3-3.9,3.2-7.7,3.2c-4.5,0-7.8-2.9-7.8-7c0-2.6,0.9-5.7,6.5-7.6l7.3-2.4
		c1-0.3,1.1-0.4,1.1-1.1v-1c0-2.1-2-2.8-4.3-2.8c-4,0-7.7,2.4-9.1,3.4v-5.3c1.6-0.9,4.7-2.6,10-2.6c7.9,0,9.4,3.9,9.4,8.8v17.1H90.3
		L90.3,33.7z M83.8,22.9c-2.5,0.9-3.4,2.1-3.4,3.9c0,2.5,2.2,3.1,3.3,3.1c1,0,3.1-0.3,5.5-2.8v-6.2c-0.3,0.3-0.5,0.3-1.6,0.7
		L83.8,22.9L83.8,22.9z"/>
	<path class="st0" d="M16.1,33.7L15.4,31c-1.5,1.3-3.9,3.2-7.7,3.2c-4.5,0-7.8-2.9-7.8-7c0-2.6,0.9-5.7,6.5-7.6l7.3-2.4
		c1-0.3,1.1-0.4,1.1-1.1v-1c0-2.1-1.9-2.8-4.3-2.8c-4,0-7.7,2.4-9.1,3.4v-5.3c1.6-0.9,4.7-2.6,10-2.6c7.9,0,9.4,3.9,9.4,8.8v17.1
		H16.1L16.1,33.7z M9.6,22.9C7,23.8,6.1,25,6.1,26.8c0,2.5,2.2,3.1,3.3,3.1c1,0,3.1-0.3,5.5-2.8v-6.2c-0.3,0.3-0.5,0.3-1.6,0.7
		L9.6,22.9L9.6,22.9z"/>
	<polygon class="st0" points="97.7,33.7 103.7,33.7 103.7,0 97.7,0 97.7,33.7 	"/>
	<path class="st0" d="M108.7,12.9H105V8.3h3.7V0h6v8.3h4.6v4.6h-4.6v12.8c0,1.9,0.2,3.6,3,3.6c0.7,0,1.3-0.1,1.8-0.2v4.6
		c-0.8,0.1-1.6,0.2-2.8,0.2c-6.7,0-8-3.4-8-7.8V12.9L108.7,12.9z"/>
	<path class="st0" d="M121.7,6V0h6.1v6H121.7L121.7,6z M121.7,33.7V8.3h6.1v25.4H121.7L121.7,33.7z"/>
	<path class="st0" d="M149.7,15.2c-1.2-1-3.2-2.6-6.6-2.6c-5.2,0-7.3,4.3-7.3,8.5c0,1.8,0.5,8.5,7.1,8.5c3.5,0,5.7-1.6,7.3-2.7v5.4
		c-1.2,0.6-4,2-8.2,2c-8.6,0-12.2-6.5-12.2-13.2c0-7,4-13.2,12.5-13.2c4.1,0,6.4,1.3,7.5,1.9V15.2L149.7,15.2z"/>
</g>
</svg>
