<?xml version="1.0" encoding="utf-8"?>
<!-- Generator: Adobe Illustrator 16.0.0, SVG Export Plug-In . SVG Version: 6.00 Build 0)  -->
<!DOCTYPE svg PUBLIC "-//W3C//DTD SVG 1.0//EN" "http://www.w3.org/TR/2001/REC-SVG-20010904/DTD/svg10.dtd">
<svg version="1.0" id="QF" xmlns="http://www.w3.org/2000/svg" xmlns:xlink="http://www.w3.org/1999/xlink" x="0px" y="0px"
	 width="157px" height="26px" viewBox="0 0 157 26" enable-background="new 0 0 157 26" xml:space="preserve">
<g>
	<g>
		<path d="M121.482,10.82c-1.218-0.157-6.525-1.314-10.955,3.116c-3.617,3.616-7.885,7.755-7.885,7.755h4.857
			c0,0,0.59-0.598,1.798-1.848h5.051l-0.438,1.85h5.013L121.482,10.82z M114.996,17.099h-3.063c0.153-0.159,0.31-0.321,0.469-0.49
			c3.004-3.216,3.516-2.984,3.516-2.984L114.996,17.099z"/>
		<path d="M76.48,10.82c-1.216-0.157-6.524-1.314-10.954,3.116c-3.616,3.616-7.885,7.755-7.885,7.755h4.857
			c0,0,0.59-0.598,1.798-1.848h5.05l-0.436,1.85h5.012L76.48,10.82z M69.994,17.099h-3.062c0.153-0.159,0.311-0.321,0.469-0.49
			c3.005-3.216,3.515-2.984,3.515-2.984L69.994,17.099z"/>
		<path d="M94.12,10.714c-2.055,0-3.475,0.786-4.378,2.335l-1.75,3.092l-2.447-5.428l-0.947,0.001c-2.054,0-4.142,1.445-5.128,3.146
			l-4.601,7.834h4.747l3.117-5.363l2.403,5.363h4.257l6.365-10.98L94.12,10.714z"/>
		<path d="M55.817,10.478c-6.006,0-9.806,3.081-11.417,5.879c-1.544,2.678-0.052,5.953,5.743,5.693c0,0.002,1.176,1.518,3.584,1.602
			c2.41,0.083,3.904-1.952,3.904-1.952s-0.821,0.278-1.711,0.173c-1.113-0.133-1.495-0.764-1.49-0.765
			c3.188-1.327,5-2.994,6.012-4.751C62.056,13.559,61.82,10.478,55.817,10.478z M54.654,16.312
			c-1.215,1.822-2.588,3.138-4.306,3.049c-2.07-0.107-1.458-1.627-0.391-3.096c1.288-1.773,2.884-3.296,4.613-3.217
			C56.645,13.142,55.87,14.488,54.654,16.312z"/>
		<path d="M99.689,10.712c-2.08,0-3.558,0.915-4.199,2.042l-0.533,0.916h4.73l-4.655,8.023h5.18l4.647-8.012l1.441-0.038
			c1.87,0,3.558-0.914,4.199-2.042l0.516-0.888L99.689,10.712z"/>
		<path d="M129.476,14.188c3.723,1.041,5.368,1.966,5.161,3.648c-0.31,2.519-3.96,4.195-8.456,4.113
			c-4.494-0.081-6.581-1.626-6.581-1.626l2.778-2.288c0,0,1.956,1.035,4.623,1.084c1.707,0.031,1.914-0.379,1.949-0.496
			c0.105-0.346-0.367-0.486-1.556-0.88c-2.367-0.782-4.674-1.548-4.411-3.698c0.315-2.562,4.467-3.732,8.066-3.636
			c2.495,0.066,5.001,0.976,5.001,0.976c-0.995,1.785-2.702,2.003-3.33,1.991c-0.853-0.015-1.545-0.206-2.84-0.236
			c-1.058-0.025-1.398,0.416-1.223,0.666C128.79,13.993,128.979,14.049,129.476,14.188z"/>
	</g>
	<polygon fill="#EC1C24" points="20.95,25.5 48.136,25.499 20.949,0.5 	"/>
	<g>
		<path fill="#FFFFFF" d="M20.949,6.965c0.006,0.191,0.04,0.604,0.111,0.825c1.083,3.394,7.224,2.052,11.226,7.769
			c0.003,0,0.759,0.084,1.271-0.837c0,0-1.062-0.081-1.126-0.882c0,0,2.173,0.434,3.479,1.492c0,0,0.018,0.473-1.502,0.481
			c-0.304,0.021-0.432,0.04-0.913,0.513c0,0-1.218,1.322-2.454,1.303c-0.377-0.014-0.665-0.156-0.685-0.27
			c0,0-0.051-0.159,0.233-0.102c0,0,0.661,0.178,0.972-0.108c0,0-0.281-0.404-0.772-0.4c-0.296-0.017-0.608,0.083-0.805,0.351
			c0,0-0.98,1.235,1.818,2.535c4.071,1.781,6.337,4.404,6.009,5.086c0.005,0.002,0,0,0,0c-0.396-0.285-3.704-4.404-9.407-4.876
			c0,0,0.029-0.087,0.053-0.204c0.595-2.853-0.732-4.783-2.233-5.885c-1.515-1.223-4.407-2.233-5.275-4.944V6.965z"/>
	</g>
</g>
</svg>
