<?xml version="1.0" encoding="utf-8"?>
<!-- Generator: Adobe Illustrator 16.0.0, SVG Export Plug-In . SVG Version: 6.00 Build 0)  -->
<!DOCTYPE svg PUBLIC "-//W3C//DTD SVG 1.0//EN" "http://www.w3.org/TR/2001/REC-SVG-20010904/DTD/svg10.dtd">
<svg version="1.0" id="RB" xmlns="http://www.w3.org/2000/svg" xmlns:xlink="http://www.w3.org/1999/xlink" x="0px" y="0px"
	 width="157px" height="26px" viewBox="0 0 157 26" enable-background="new 0 0 157 26" xml:space="preserve">
<g>
	<path fill-rule="evenodd" clip-rule="evenodd" fill="#3D68AC" d="M31.944,18.021h-2.428l1.707-3.019v-4.33h0.721h1.837v2.492
		l2.362-2.492h1.378h0.852l-0.852,0.853l-3.675,3.609l-1.444,2.887H31.944L31.944,18.021z M91.065,14.148h0.328
		c0.395,0,0.919-0.395,1.116-0.788l0.132-0.393c0.195-0.394,0-0.786-0.394-0.786h-1.183h-0.786l-0.919,1.967H91.065L91.065,14.148z
		 M91.065,10.672h2.494c1.312,0,2.165,0.59,1.444,2.1l-0.788,1.509c-0.394,0.656-0.722,1.181-1.968,1.246l0.262,2.494h-1.444h-1.05
		l-0.327-2.494h-0.985l-1.181,2.494h-2.297h-0.394l0.394-0.656l3.478-6.692h0.854h1.378H91.065L91.065,10.672z M85.226,11.327
		l0.329-0.655h-0.329H82.93l-4.003,7.349h2.69L85.226,11.327L85.226,11.327z M75.252,16.381l0.065-0.198h-0.065h-2.099l-1.313,1.838
		h-1.247H69.74l0.853-1.182l4.396-6.167h0.263h3.675l-1.902,7.349h-1.772h-0.591L75.252,16.381L75.252,16.381z M75.252,15.002h0.394
		l0.853-3.15l-1.247,1.575l-1.312,1.575H75.252L75.252,15.002z M70.593,12.378l0.853-1.706h-0.853h-0.918l-2.231,4.659l-0.131-4.659
		h-1.247h-1.378h-0.328l-3.609,7.349h1.771l2.231-4.66l0.131,4.66h1.247h1.312h0.394L70.593,12.378L70.593,12.378z M56.878,16.381
		l0.066-0.198h-0.066h-2.1l-1.312,1.838h-1.181h-0.853l0.853-1.182l4.397-6.167h0.196h3.675l-1.837,7.349h-1.838h-0.59
		L56.878,16.381L56.878,16.381z M56.878,15.002h0.459l0.854-3.15l-1.313,1.575l-1.247,1.575H56.878L56.878,15.002z M52.285,12.247
		l0.854-1.575h-0.854h-1.771l-3.74,6.824l-0.262,0.524h0.262h2.363L52.285,12.247L52.285,12.247z M46.773,12.771
		c0.394-0.788,0.394-1.378,0-1.707c-0.262-0.261-0.787-0.393-1.443-0.393h-2.494h-0.066h-1.377h-0.919l-2.952,5.709l-0.854,1.64
		h0.854h1.836l1.182-2.494h0.984l0.262,2.494h1.05h1.444l-0.197-2.494c1.247-0.065,1.575-0.59,1.903-1.246L46.773,12.771
		L46.773,12.771z M42.836,14.148h0.328c0.46,0,0.985-0.395,1.182-0.788l0.131-0.393c0.197-0.394,0-0.786-0.46-0.786h-1.181h-0.788
		l-0.853,1.967H42.836L42.836,14.148z M31.944,8.769l0.066-0.065l2.362-0.066V6.274h-2.428h-1.378
		c-5.708,7.218-11.483,11.812-17.389,11.681l0.065,2.033h8.466L31.944,8.769L31.944,8.769z"/>
	<path fill-rule="evenodd" clip-rule="evenodd" fill="#3D68AC" d="M126.04,24.32c-0.458,0.13-0.982,0.13-1.508,0.13
		c-6.3,0-11.483-5.117-11.483-11.416c0-2.23,0.656-4.331,1.771-6.037c1.836,1.837,3.148,3.87,4.33,5.841
		c0.788,1.507,1.838,2.033,3.217,2.688c0.065-0.13,0.195-0.195,0.326-0.195c0.197,0,0.329,0.195,0.329,0.393c0,0,0,0.065,0,0.131
		c0.197,0.132,0.459,0.262,0.723,0.395l2.163-2.035c-0.326-0.13-0.655-0.262-0.917-0.394c-0.066,0.132-0.198,0.198-0.329,0.198
		c-0.196,0-0.327-0.132-0.327-0.329c0-0.065,0-0.065,0-0.131c-2.56-1.247-4.462-2.821-6.037-4.463
		c-2.1-2.23-3.676-4.527-6.364-5.971h-2.757c1.902,0.919,3.478,1.969,4.789,3.084c-1.246,1.968-1.968,4.33-1.968,6.825
		c0,6.889,5.645,12.466,12.534,12.466c0.525,0,1.05,0,1.508-0.064c3.282-0.394,6.234-2.1,8.203-4.593
		c0.262,0.196,0.524,0.393,0.853,0.589l1.575-1.049l-7.087-2.689l7.612,2.164l2.428-1.442c-3.74-0.066-7.219-0.46-9.712-1.708
		c3.478,0.789,7.218,0.986,11.09,0.919l2.821-2.033c-5.117,1.05-10.172,0.918-15.355-0.591l-2.428,2.559l0,0
		c2.362,1.575,4.79,1.575,7.219,2.757C131.487,22.481,128.928,23.926,126.04,24.32L126.04,24.32z M126.04,16.773l1.838-1.771
		L126.5,14.28l-0.46,0.46l-0.196,0.196c0.126,0.062,0.191,0.244,0.196,0.375v0.006v0.007v0.007v0.015
		c-0.008,0.323-0.268,0.641-0.59,0.641c-0.197,0-0.393-0.132-0.459-0.263l-0.788,0.657l1.379,0.853L126.04,16.773L126.04,16.773z
		 M126.04,13.559l2.034,0.853c0.525-0.853,0.525-0.853,1.378-0.524c6.497,2.558,11.353,2.362,14.108-0.328
		c-2.23,1.115-4.462,1.51-6.759,1.312c0.132-0.591,0.132-1.247,0.132-1.837c0-6.365-4.725-11.681-10.894-12.402
		c-0.458-0.066-0.982-0.132-1.508-0.132c-3.478,0-6.629,1.444-8.924,3.675c-0.657-0.459-1.379-0.722-2.299-0.591
		c2.822,1.312,4.069,4.987,7.219,4.133c-1.772-0.655-2.952-1.903-4.067-2.821c2.1-2.034,4.92-3.347,8.071-3.347
		c0.525,0,1.05,0.066,1.508,0.132c5.579,0.787,9.909,5.577,9.909,11.352c0,0.59-0.065,1.18-0.132,1.706
		c-2.625-0.329-5.249-1.511-7.939-2.953c-0.723-0.394-1.378-0.525-1.838-0.263c-0.458,0.195-0.787,0.723-0.917,1.574L126.04,13.559
		L126.04,13.559z"/>
</g>
</svg>
