<?xml version="1.0" encoding="utf-8"?>
<!-- Generator: Adobe Illustrator 16.0.0, SVG Export Plug-In . SVG Version: 6.00 Build 0)  -->
<!DOCTYPE svg PUBLIC "-//W3C//DTD SVG 1.0//EN" "http://www.w3.org/TR/2001/REC-SVG-20010904/DTD/svg10.dtd">
<svg version="1.0" id="TP" xmlns="http://www.w3.org/2000/svg" xmlns:xlink="http://www.w3.org/1999/xlink" x="0px" y="0px"
	 width="157px" height="26px" viewBox="0 0 157 26" enable-background="new 0 0 157 26" xml:space="preserve">
<g>
	<polyline points="53.716,18.345 55.766,18.345 55.766,9.306 59.243,9.306 59.243,7.637 50.269,7.637 50.269,9.306 53.716,9.306 	
		"/>
	<path d="M64.49,7.639h-2.672l-3.781,10.706h2.142l1.038-3.112h3.82l1.11,3.112h2.25 M61.568,13.711l0.945-2.724
		c0.223-0.605,0.383-1.262,0.552-1.846h0.04c0.164,0.584,0.357,1.215,0.577,1.865l0.979,2.706H61.568z"/>
	<path d="M76.143,8.433c-0.692-0.558-1.8-0.9-3.323-0.9c-1.495,0-2.569,0.113-3.34,0.227v10.583h2.041v-3.996
		c0.294,0.072,0.693,0.096,1.12,0.096c1.541,0,2.809-0.377,3.657-1.168c0.627-0.578,0.95-1.44,0.95-2.434
		C77.248,9.807,76.803,8.958,76.143,8.433 M72.664,12.88c-0.484,0-0.855-0.027-1.143-0.119V9.176c0.221-0.035,0.68-0.09,1.317-0.09
		c1.433,0,2.383,0.564,2.383,1.793C75.221,12.157,74.242,12.88,72.664,12.88"/>
	<path d="M86.854,8.46c-0.656-0.576-1.724-0.926-3.209-0.926c-1.266,0-2.243,0.106-2.968,0.216v10.595h1.442v-4.247
		c0.367,0.088,0.83,0.109,1.312,0.109c1.49,0,2.729-0.38,3.52-1.153c0.587-0.574,0.895-1.374,0.895-2.354
		C87.846,9.749,87.455,8.983,86.854,8.46 M83.495,13.077c-0.544,0-1.009-0.034-1.376-0.156V8.79c0.26-0.066,0.798-0.128,1.525-0.128
		c1.562,0,2.752,0.603,2.752,2.114C86.396,12.242,85.335,13.077,83.495,13.077"/>
	<path d="M94.405,7.451c-3.173,0-5.568,2.323-5.568,5.686c0,3.105,2.259,5.408,5.444,5.408h0.022c3.041,0,5.572-2.094,5.572-5.665
		C99.876,9.774,97.708,7.451,94.405,7.451 M94.334,17.395H94.32c-2.438,0-3.956-2.004-3.956-4.316c0-2.403,1.373-4.49,3.995-4.49
		c2.617,0,3.972,2.181,3.972,4.36C98.331,15.49,96.812,17.395,94.334,17.395"/>
	<path d="M107.643,15.324c-0.262-1.004-0.801-1.787-1.629-2.087v-0.03c1.149-0.353,2.129-1.305,2.129-2.731
		c0-0.83-0.345-1.566-0.867-2.023c-0.707-0.616-1.733-0.919-3.327-0.919c-1.073,0-2.202,0.106-2.973,0.234v10.577h1.434v-4.633
		h1.612c1.316,0.046,1.922,0.626,2.261,2.101c0.321,1.346,0.587,2.236,0.748,2.532h1.511
		C108.284,17.904,108.032,16.842,107.643,15.324 M104.127,12.634h-1.718V8.789c0.263-0.071,0.816-0.142,1.612-0.142
		c1.513,0,2.671,0.539,2.671,1.981C106.692,11.852,105.71,12.634,104.127,12.634"/>
	<polyline points="112.562,18.345 114.006,18.345 114.006,8.827 117.726,8.827 117.726,7.637 108.857,7.637 108.857,8.827 
		112.562,8.827 	"/>
	<path d="M118.601,7.639v6.029c0,3.552,1.839,4.878,4.217,4.878c2.574,0,4.496-1.434,4.496-4.899V7.639h-1.452v6.072
		c0,2.516-1.162,3.681-2.968,3.681c-1.655,0-2.861-1.145-2.861-3.681V7.639"/>
	<path d="M138.551,12.733h-3.873v1.124h2.438v3.099c-0.399,0.184-1.132,0.328-2.212,0.328c-2.917,0-4.652-1.783-4.652-4.306
		c0-2.486,1.777-4.272,4.797-4.272c1.25,0,2.093,0.234,2.745,0.52l0.376-1.147c-0.505-0.239-1.647-0.551-3.066-0.551
		c-4.164,0-6.389,2.633-6.389,5.517c0,1.551,0.592,2.967,1.575,3.875c1.14,1.087,2.635,1.541,4.49,1.541
		c1.702,0,3.065-0.404,3.771-0.66"/>
	<path d="M145.26,7.639h-1.77l-4.053,10.706h1.525l1.24-3.417h4.277l1.3,3.417h1.553 M142.52,13.815l1.216-3.241
		c0.242-0.626,0.396-1.188,0.579-1.746h0.028c0.165,0.544,0.342,1.099,0.594,1.78l1.223,3.207H142.52z"/>
	<polyline points="150.18,18.345 156.752,18.345 156.752,17.137 151.643,17.137 151.643,7.637 150.18,7.637 	"/>
	<path fill="#666666" d="M35.977,0.5H23.471v25h7.142v-7.155h5.364c4.927,0,8.938-3.996,8.938-8.924
		C44.914,4.483,40.903,0.5,35.977,0.5 M35.977,11.208h-5.364V7.637h5.364c0.979,0,1.791,0.792,1.791,1.784
		C37.768,10.403,36.956,11.208,35.977,11.208"/>
	<path fill="#BCBCBC" d="M0.248,0.502v7.137h5.351v17.859h7.162l1.349-4.453h8.026l1.335,4.453V0.502 M16.23,13.893l1.89-6.254
		l1.876,6.254H16.23z"/>
	<polyline fill="#999999" points="5.599,25.5 12.763,25.5 12.763,7.639 18.12,7.639 18.12,0.5 12.763,0.5 	"/>
	<polyline fill="#5C5C5C" points="23.471,25.5 30.612,25.5 23.471,0.5 	"/>
</g>
</svg>
