<?xml version="1.0" encoding="utf-8"?>
<!-- Generator: Adobe Illustrator 16.0.0, SVG Export Plug-In . SVG Version: 6.00 Build 0)  -->
<!DOCTYPE svg PUBLIC "-//W3C//DTD SVG 1.0//EN" "http://www.w3.org/TR/2001/REC-SVG-20010904/DTD/svg10.dtd">
<svg version="1.0" id="CX" xmlns="http://www.w3.org/2000/svg" xmlns:xlink="http://www.w3.org/1999/xlink" x="0px" y="0px"
	 width="157px" height="26px" viewBox="0 0 157 26" enable-background="new 0 0 157 26" xml:space="preserve">
<g opacity="0.7">
	<path fill="#4B4B4B" d="M6.684,12.583c-0.072,0.01-0.152-0.094-0.186-0.143c-0.01-0.014-0.05-0.097-0.04-0.11
		c0.016-0.012,0.097,0.016,0.118,0.033c0.053,0.042,0.096,0.101,0.123,0.202C6.7,12.578,6.689,12.583,6.684,12.583 M4.956,11.625
		c-0.049,0.017-0.168-0.118-0.202-0.168c-0.062-0.092-0.124-0.195-0.188-0.286c-0.061-0.08-0.128-0.138-0.143-0.279
		c-0.002-0.016-0.011-0.058-0.001-0.058C4.487,10.839,4.55,10.955,4.583,11c0.023,0.032,0.052,0.065,0.073,0.099
		c0.033,0.05,0.046,0.109,0.08,0.155c0.042,0.056,0.092,0.109,0.136,0.166c0.023,0.03,0.055,0.057,0.07,0.098
		C4.949,11.539,4.969,11.618,4.956,11.625 M4.461,11.605c-0.038-0.003-0.053-0.026-0.076-0.043
		c-0.061-0.045-0.112-0.117-0.113-0.222c-0.002-0.01,0.003-0.013,0.01-0.013c0.072,0,0.146,0.111,0.173,0.163
		c0.008,0.016,0.027,0.058,0.024,0.087C4.48,11.597,4.472,11.605,4.461,11.605 M2.816,11.938c-0.002,0.009-0.009,0.018-0.021,0.019
		c-0.079-0.002-0.102-0.119-0.136-0.172c-0.028-0.045-0.053-0.093-0.082-0.138c-0.021-0.03-0.047-0.062-0.064-0.098
		c-0.021-0.045-0.031-0.093-0.057-0.134c-0.014-0.022-0.036-0.04-0.051-0.06c-0.042-0.058-0.081-0.118-0.108-0.19
		c-0.006-0.026-0.014-0.051-0.02-0.077c-0.016-0.044-0.036-0.092-0.05-0.139c-0.009-0.022-0.013-0.07-0.009-0.087
		c0.004-0.007,0.007-0.012,0.013-0.01c0.06,0.009,0.117,0.154,0.146,0.208c0.033,0.057,0.083,0.103,0.111,0.161
		c0.025,0.054,0.034,0.121,0.062,0.173c0.023,0.04,0.06,0.072,0.085,0.11c0.032,0.05,0.055,0.114,0.08,0.169
		c0.028,0.062,0.068,0.11,0.093,0.169C2.819,11.867,2.823,11.911,2.816,11.938 M2.511,9.697c-0.016-0.027-0.032-0.06-0.043-0.089
		C2.456,9.575,2.454,9.544,2.441,9.513C2.395,9.41,2.342,9.297,2.297,9.196C2.277,9.153,2.25,9.074,2.269,9.021
		c0.003-0.008,0.018-0.003,0.025,0.004c0.016,0.014,0.027,0.023,0.04,0.039c0.009,0.015,0.012,0.031,0.022,0.046
		c0.023,0.035,0.053,0.069,0.07,0.108c0.039,0.083,0.049,0.177,0.087,0.258c0.024,0.053,0.066,0.1,0.093,0.153
		C2.62,9.659,2.628,9.69,2.637,9.721c0.006,0.023,0.004,0.055,0.006,0.073c0,0.028-0.003,0.045-0.012,0.047
		C2.559,9.837,2.538,9.749,2.511,9.697 M18.143,16.621c-0.091-0.335-1.073-0.19-1.879-0.265c-0.735-0.067-1.677-0.198-2.81-0.592
		c-1.061-0.368-2.085-0.789-2.979-1.272c0,0-0.361-0.19-0.4-0.212c-0.075-0.045-0.133-0.078-0.206-0.124
		c-0.043-0.025-0.111-0.065-0.16-0.087c-0.063-0.025-0.105-0.06-0.159-0.093c-0.055-0.035-0.13-0.071-0.187-0.104
		c-0.083-0.051-0.133-0.09-0.21-0.145C9.104,13.69,9.08,13.68,9.016,13.641c-0.039-0.022-0.109-0.06-0.143-0.083
		c-0.072-0.047-0.117-0.086-0.189-0.136c-0.044-0.031-0.076-0.05-0.129-0.083c-0.052-0.031-0.102-0.072-0.147-0.105
		c-0.024-0.02-0.063-0.041-0.085-0.064c-0.053-0.051-0.105-0.096-0.16-0.14c-0.05-0.038-0.098-0.084-0.147-0.122
		c-0.032-0.023-0.085-0.068-0.117-0.091c-0.082-0.058-0.132-0.102-0.213-0.16c-0.051-0.038-0.095-0.089-0.146-0.127
		c-0.058-0.042-0.111-0.092-0.171-0.135c-0.038-0.026-0.083-0.061-0.112-0.091c-0.039-0.046-0.074-0.078-0.115-0.124
		c-0.029-0.032-0.086-0.069-0.12-0.102c-0.049-0.064-0.12-0.131-0.186-0.181c-0.039-0.036-0.051-0.053-0.066-0.073
		c-0.011-0.016-0.026-0.035-0.058-0.069c-0.031-0.032-0.043-0.041-0.055-0.055c-0.015-0.012-0.032-0.027-0.076-0.07
		c-0.013-0.014-0.036-0.046-0.059-0.077c-0.02-0.027-0.038-0.055-0.051-0.069c-0.039-0.042-0.065-0.07-0.093-0.1
		c-0.02-0.02-0.041-0.042-0.067-0.069c-0.016-0.017-0.028-0.037-0.042-0.055c-0.011-0.019-0.024-0.038-0.038-0.053
		c-0.024-0.026-0.042-0.017-0.046-0.014c-0.014,0.009-0.021,0.038-0.004,0.07c0.021,0.04,0.051,0.083,0.069,0.108
		c0.004,0.006,0.008,0.011,0.01,0.014c0.007,0.013,0.014,0.024,0.021,0.037c0.01,0.018,0.021,0.038,0.035,0.056
		c0.03,0.041,0.062,0.075,0.094,0.107c0.011,0.01,0.021,0.021,0.031,0.032c0.021,0.022,0.038,0.046,0.054,0.071
		c0.018,0.024,0.036,0.051,0.059,0.076c0.011,0.01,0.021,0.023,0.029,0.036c0.01,0.013,0.021,0.028,0.033,0.04
		c0.018,0.018,0.036,0.036,0.054,0.053c0.029,0.032,0.061,0.063,0.09,0.088c0.023,0.019,0.046,0.043,0.07,0.066
		c0.06,0.072,0.125,0.143,0.179,0.212c0.03,0.039,0.087,0.067,0.122,0.094c0.039,0.029,0.069,0.079,0.1,0.118
		c0.023,0.028,0.075,0.074,0.1,0.103c0.06,0.077,0.101,0.118,0.18,0.177c0.048,0.035,0.084,0.067,0.121,0.113
		c0.022,0.029,0.09,0.095,0.116,0.126c0.065,0.083,0.094,0.16,0.085,0.163c-0.044,0.012-0.152-0.083-0.216-0.125
		c-0.053-0.036-0.062-0.05-0.111-0.088c-0.011-0.01-0.091-0.065-0.118-0.1c-0.021-0.02-0.081-0.083-0.099-0.106
		c-0.09-0.115-0.121-0.122-0.224-0.223c-0.076-0.074-0.169-0.139-0.242-0.205c-0.022-0.023-0.044-0.045-0.065-0.071
		c-0.024-0.024-0.055-0.047-0.077-0.071c-0.035-0.042-0.08-0.127-0.121-0.158c-0.042-0.033-0.075-0.063-0.118-0.096
		c-0.016-0.01-0.029-0.031-0.045-0.043c-0.021-0.015-0.045-0.033-0.062-0.053c-0.05-0.064-0.099-0.13-0.151-0.194
		c-0.023-0.031-0.057-0.056-0.079-0.087c-0.049-0.069-0.09-0.141-0.14-0.206c-0.07-0.091-0.17-0.156-0.237-0.248
		c-0.069-0.095-0.111-0.204-0.176-0.303c-0.028-0.042-0.071-0.073-0.102-0.114c-0.018-0.023-0.027-0.051-0.045-0.077
		C5.366,10.532,5.325,10.48,5.29,10.43c-0.045-0.068-0.076-0.141-0.123-0.213c-0.007-0.01-0.022-0.058-0.052-0.093
		c-0.027-0.035-0.051-0.074-0.083-0.125C5,9.949,4.985,9.916,4.962,9.882C4.939,9.846,4.924,9.814,4.909,9.791
		c-0.014-0.025-0.048-0.07-0.06-0.088C4.807,9.638,4.795,9.607,4.752,9.547C4.725,9.51,4.695,9.48,4.67,9.489
		C4.651,9.503,4.658,9.526,4.663,9.542c0.019,0.054,0.019,0.044,0.04,0.082c0.035,0.063,0.048,0.094,0.085,0.152
		C4.806,9.805,4.835,9.868,4.86,9.902c0.024,0.036,0.049,0.078,0.065,0.106c0.018,0.031,0.044,0.112,0.07,0.146
		c0.019,0.024,0.045,0.073,0.063,0.109c0.037,0.072,0.082,0.129,0.12,0.186c0.025,0.046,0.05,0.095,0.074,0.141
		c0.05,0.075,0.11,0.146,0.159,0.223c0.031,0.054,0.06,0.107,0.089,0.162c0.03,0.044,0.071,0.082,0.1,0.127
		c0.035,0.054,0.054,0.113,0.09,0.166c0.028,0.042,0.063,0.081,0.091,0.123c0.048,0.071,0.091,0.141,0.142,0.209
		c0.028,0.037,0.064,0.068,0.091,0.105c0.038,0.051,0.068,0.112,0.107,0.155c0.047,0.044,0.061,0.07,0.098,0.113
		c0.055,0.067,0.191,0.259,0.167,0.261c-0.08,0.011-0.234-0.164-0.299-0.228c-0.05-0.05-0.106-0.086-0.141-0.133
		c-0.052-0.069-0.089-0.147-0.141-0.215c-0.019-0.025-0.046-0.044-0.065-0.067c-0.035-0.046-0.069-0.094-0.11-0.134
		c-0.017-0.016-0.035-0.031-0.05-0.05c-0.063-0.08-0.117-0.167-0.177-0.251c-0.027-0.034-0.059-0.064-0.085-0.097
		c-0.019-0.027-0.031-0.057-0.048-0.086c-0.024-0.038-0.057-0.074-0.082-0.112c-0.018-0.028-0.03-0.056-0.049-0.085
		c-0.033-0.05-0.077-0.094-0.111-0.145c-0.025-0.042-0.033-0.095-0.061-0.137c-0.068-0.105-0.143-0.212-0.21-0.317
		c-0.017-0.027-0.025-0.057-0.041-0.084c-0.056-0.086-0.106-0.179-0.161-0.264C4.537,9.796,4.528,9.76,4.509,9.729
		C4.483,9.69,4.445,9.661,4.42,9.624c-0.019-0.03-0.027-0.062-0.042-0.095C4.358,9.483,4.33,9.44,4.307,9.397
		C4.293,9.372,4.286,9.345,4.27,9.321C4.204,9.218,4.149,9.11,4.097,8.996C4.068,8.938,4.027,8.883,4,8.823
		C3.968,8.757,3.938,8.69,3.909,8.626C3.892,8.583,3.876,8.54,3.862,8.496C3.83,8.428,3.781,8.369,3.75,8.299
		C3.729,8.251,3.717,8.206,3.697,8.166C3.684,8.142,3.661,8.121,3.644,8.132c-0.018,0.01-0.02,0.032-0.008,0.069
		c0.021,0.072,0.06,0.154,0.079,0.196c0.037,0.081,0.057,0.166,0.093,0.249c0.019,0.046,0.05,0.09,0.071,0.134
		C3.915,8.859,3.95,8.938,3.986,9.013c0.02,0.043,0.036,0.086,0.06,0.127c0.012,0.021,0.031,0.046,0.041,0.069
		c0.023,0.054,0.03,0.11,0.055,0.16c0.025,0.052,0.065,0.096,0.09,0.147c0.125,0.266,0.25,0.519,0.401,0.755
		c0.042,0.065,0.063,0.146,0.106,0.21c0.043,0.069,0.103,0.121,0.146,0.188c0.036,0.055,0.045,0.132,0.078,0.191
		c0.047,0.089,0.112,0.163,0.166,0.247c0.014,0.023,0.019,0.05,0.033,0.074c0.021,0.032,0.047,0.062,0.067,0.095
		c0.026,0.044,0.041,0.094,0.071,0.133c0.031,0.044,0.077,0.08,0.109,0.125c0.039,0.054,0.067,0.118,0.109,0.173
		c0.028,0.038,0.072,0.064,0.101,0.103c0.045,0.06,0.205,0.268,0.25,0.327c0.069,0.089,0.195,0.22,0.253,0.338
		c0.018,0.036,0.081,0.123,0.068,0.14c-0.033,0.022-0.19-0.15-0.217-0.175c-0.065-0.063-0.123-0.15-0.18-0.222
		c-0.014-0.016-0.164-0.164-0.177-0.18c-0.014-0.019-0.03-0.041-0.043-0.06c-0.042-0.063-0.067-0.138-0.112-0.197
		c-0.019-0.025-0.048-0.043-0.065-0.068c-0.035-0.046-0.059-0.098-0.093-0.144c-0.052-0.074-0.122-0.139-0.175-0.212
		c-0.058-0.08-0.1-0.174-0.16-0.254c-0.03-0.039-0.067-0.074-0.096-0.117c-0.012-0.018-0.017-0.037-0.029-0.056
		c-0.021-0.033-0.05-0.069-0.066-0.105c-0.016-0.034-0.026-0.065-0.046-0.096c-0.062-0.097-0.124-0.199-0.185-0.296
		c-0.029-0.043-0.044-0.09-0.072-0.134c-0.046-0.071-0.105-0.136-0.151-0.208c-0.055-0.086-0.084-0.189-0.14-0.275
		C4.145,9.757,4.103,9.705,4.067,9.648c-0.04-0.062-0.059-0.133-0.095-0.197c-0.031-0.057-0.073-0.109-0.1-0.165
		c-0.031-0.062-0.05-0.123-0.08-0.187C3.775,9.065,3.75,9.031,3.736,8.997C3.715,8.952,3.712,8.909,3.691,8.868
		c-0.053-0.119-0.134-0.232-0.19-0.35c-0.039-0.083-0.075-0.171-0.108-0.26C3.375,8.209,3.368,8.162,3.345,8.117
		c-0.049-0.109-0.11-0.223-0.157-0.33C3.167,7.728,3.147,7.671,3.126,7.613C3.123,7.597,3.12,7.582,3.114,7.564
		C3.091,7.513,3.061,7.463,3.041,7.413C3.023,7.354,3.005,7.296,2.986,7.237C2.91,7.046,2.841,6.831,2.769,6.632
		C2.76,6.597,2.758,6.551,2.744,6.512C2.706,6.411,2.668,6.308,2.632,6.207c-0.021-0.052-0.07-0.035-0.059,0.019
		c0.015,0.07,0.023,0.087,0.036,0.143c0.005,0.028,0.01,0.056,0.016,0.084C2.634,6.486,2.651,6.521,2.66,6.554
		c0.02,0.061,0.021,0.121,0.042,0.179c0.03,0.083,0.06,0.162,0.087,0.246c0.007,0.042,0.016,0.084,0.025,0.127
		c0.012,0.039,0.028,0.08,0.042,0.115c0.042,0.104,0.083,0.205,0.119,0.307C2.99,7.587,3.006,7.645,3.02,7.704
		C3.036,7.737,3.058,7.77,3.072,7.802C3.085,7.831,3.088,7.857,3.1,7.887c0.026,0.066,0.05,0.133,0.081,0.201
		c0.024,0.054,0.054,0.11,0.076,0.168c0.01,0.029,0.01,0.053,0.021,0.082C3.341,8.511,3.41,8.694,3.485,8.859
		C3.503,8.9,3.509,8.943,3.528,8.984C3.542,9.02,3.565,9.056,3.58,9.09c0.007,0.022,0.016,0.045,0.023,0.067
		c0.023,0.048,0.063,0.088,0.086,0.137c0.064,0.135,0.122,0.264,0.203,0.38C3.967,9.782,4,9.924,4.055,10.052
		c0.028,0.061,0.063,0.112,0.098,0.165c0.018,0.028,0.028,0.059,0.042,0.089c0.038,0.066,0.057,0.124,0.101,0.183
		c0.035,0.049,0.032,0.059,0.062,0.127c0.008,0.021,0.042,0.147,0.035,0.147c-0.011,0.008-0.074-0.03-0.096-0.053
		c-0.028-0.032-0.074-0.075-0.104-0.144c-0.016-0.035-0.047-0.095-0.064-0.128c-0.039-0.084-0.106-0.155-0.155-0.233
		c-0.029-0.045-0.044-0.095-0.068-0.144C3.864,9.972,3.816,9.882,3.773,9.79C3.754,9.751,3.728,9.714,3.707,9.68
		C3.683,9.645,3.673,9.607,3.649,9.571c-0.049-0.078-0.105-0.165-0.146-0.25C3.475,9.259,3.459,9.196,3.431,9.135
		c-0.01-0.02-0.025-0.039-0.038-0.057c-0.02-0.032-0.028-0.066-0.045-0.102C3.326,8.929,3.292,8.884,3.27,8.835
		C3.225,8.739,3.199,8.639,3.155,8.543C3.133,8.499,3.098,8.46,3.077,8.416C3.044,8.348,3.041,8.262,3.009,8.192
		C2.925,8.002,2.828,7.808,2.758,7.611C2.747,7.578,2.742,7.54,2.732,7.505C2.701,7.419,2.66,7.339,2.629,7.255
		C2.615,7.217,2.611,7.182,2.597,7.142C2.576,7.085,2.549,7.025,2.528,6.967c-0.005-0.02-0.008-0.04-0.016-0.06
		C2.487,6.853,2.472,6.788,2.447,6.731C2.433,6.701,2.412,6.671,2.4,6.639C2.38,6.583,2.386,6.511,2.366,6.458
		C2.337,6.377,2.303,6.29,2.274,6.211C2.256,6.165,2.253,6.12,2.237,6.073c-0.019-0.054-0.04-0.112-0.06-0.166
		C2.159,5.853,2.16,5.794,2.141,5.736C2.127,5.692,2.109,5.647,2.094,5.605c-0.027-0.078-0.039-0.16-0.067-0.232
		c-0.004-0.013-0.01-0.027-0.014-0.04C2.005,5.314,1.992,5.294,1.972,5.3C1.949,5.307,1.949,5.335,1.95,5.354
		C1.955,5.412,1.977,5.463,1.992,5.51C2.011,5.559,2.02,5.611,2.033,5.658C2.041,5.688,2.04,5.721,2.047,5.752
		c0.01,0.046,0.027,0.089,0.039,0.134c0.011,0.044,0.005,0.088,0.016,0.123c0.029,0.097,0.061,0.207,0.094,0.298
		c0.013,0.048,0.015,0.104,0.03,0.145c0.018,0.048,0.036,0.098,0.053,0.148c0.016,0.041,0.019,0.08,0.036,0.119
		C2.334,6.76,2.354,6.803,2.37,6.85c0.018,0.06,0.016,0.119,0.037,0.175c0.034,0.092,0.076,0.179,0.107,0.267
		c0.011,0.033,0.014,0.067,0.025,0.1C2.566,7.468,2.585,7.55,2.614,7.627c0.04,0.109,0.091,0.216,0.131,0.324
		c0.038,0.106,0.044,0.234,0.088,0.333c0.023,0.05,0.07,0.079,0.092,0.127c0.015,0.03,0.011,0.066,0.021,0.102
		c0.013,0.041,0.032,0.082,0.047,0.12c0.009,0.035,0.018,0.068,0.027,0.101c0.014,0.041,0.042,0.082,0.06,0.12
		c0.029,0.064,0.044,0.13,0.08,0.187c0.028,0.043,0.063,0.083,0.087,0.131c0.024,0.053,0.034,0.109,0.058,0.165
		C3.341,9.418,3.384,9.496,3.414,9.58C3.443,9.657,3.453,9.738,3.49,9.806c0.037,0.066,0.082,0.126,0.118,0.192
		c0.023,0.05,0.045,0.1,0.069,0.149c0.018,0.04,0.055,0.074,0.077,0.116c0.028,0.05,0.056,0.104,0.079,0.154
		c0.018,0.04,0.025,0.076,0.047,0.11c0.032,0.053,0.057,0.095,0.091,0.146C4,10.72,4.034,10.779,4.055,10.834
		c0.016,0.042,0.033,0.085,0.056,0.12c0.026,0.035,0.06,0.067,0.081,0.106s0.051,0.163,0.04,0.169
		c-0.027,0.01-0.104-0.063-0.125-0.089c-0.061-0.073-0.09-0.172-0.146-0.25c-0.059-0.084-0.096-0.132-0.143-0.229
		c-0.025-0.056-0.072-0.156-0.104-0.205c-0.031-0.047-0.072-0.089-0.096-0.141c-0.019-0.043-0.028-0.095-0.048-0.138
		c-0.029-0.061-0.087-0.102-0.116-0.166C3.421,9.94,3.406,9.867,3.37,9.801C3.352,9.768,3.329,9.732,3.313,9.698
		c-0.021-0.042-0.03-0.083-0.05-0.126C3.223,9.485,3.162,9.412,3.123,9.325C3.08,9.236,3.057,9.141,3.013,9.051
		c-0.022-0.049-0.062-0.09-0.085-0.139c-0.03-0.064-0.045-0.131-0.076-0.197C2.833,8.677,2.806,8.639,2.787,8.6
		C2.762,8.544,2.751,8.483,2.725,8.424c-0.058-0.133-0.119-0.27-0.178-0.401C2.524,7.973,2.519,7.92,2.495,7.868
		C2.474,7.823,2.451,7.779,2.428,7.734C2.377,7.618,2.359,7.482,2.307,7.365C2.28,7.305,2.248,7.249,2.223,7.186
		C2.187,7.085,2.172,6.982,2.135,6.879C2.079,6.723,2.034,6.56,1.978,6.405C1.961,6.358,1.959,6.312,1.941,6.264
		c-0.016-0.045-0.033-0.091-0.05-0.136C1.879,6.09,1.872,6.038,1.863,5.99C1.82,5.858,1.778,5.726,1.737,5.592
		c-0.01-0.031-0.012-0.088-0.022-0.128c-0.006-0.023-0.02-0.05-0.028-0.071c-0.009-0.03-0.009-0.056-0.019-0.088
		C1.636,5.208,1.61,5.095,1.579,4.998C1.57,4.967,1.567,4.924,1.558,4.89c-0.043-0.138-0.064-0.307-0.12-0.435
		C1.428,4.43,1.412,4.403,1.388,4.41c-0.024,0.006-0.02,0.034-0.017,0.057C1.378,4.53,1.402,4.583,1.412,4.636
		C1.417,4.66,1.417,4.692,1.418,4.72c0.003,0.023,0.006,0.052,0.013,0.077c0.026,0.083,0.057,0.179,0.08,0.259
		c0.009,0.039,0.001,0.1,0.012,0.145c0.036,0.13,0.061,0.286,0.108,0.404c0.043,0.107,0.052,0.236,0.083,0.352
		c0.009,0.05,0.012,0.101,0.019,0.151c0.008,0.048,0.035,0.082,0.05,0.123c0.011,0.03,0.01,0.056,0.021,0.088
		c0.024,0.083,0.045,0.166,0.074,0.25c0.021,0.058,0.052,0.112,0.073,0.169C1.96,6.764,1.958,6.786,1.964,6.814
		C1.979,6.873,1.989,6.93,2.005,6.987c0.041,0.114,0.081,0.238,0.121,0.352c0.022,0.063,0.03,0.125,0.051,0.186
		C2.269,7.771,2.36,8.016,2.45,8.26c0.015,0.054,0.03,0.109,0.044,0.163c0.02,0.055,0.053,0.101,0.075,0.151
		c0.029,0.063,0.039,0.129,0.063,0.197C2.66,8.85,2.698,8.91,2.728,8.992c0.014,0.039,0.028,0.082,0.046,0.12
		c0.013,0.028,0.038,0.056,0.052,0.084C2.85,9.245,2.854,9.306,2.876,9.354C2.901,9.403,2.942,9.444,2.97,9.489
		C2.995,9.531,2.998,9.585,3.02,9.633c0.034,0.074,0.078,0.143,0.11,0.222c0.014,0.033,0.02,0.063,0.034,0.095
		c0.017,0.036,0.044,0.071,0.061,0.109c0,0,0.001,0,0.003,0.004c0.001,0.005,0.005,0.012,0.005,0.021
		c0.004,0.015,0.01,0.034,0.015,0.048c0.007,0.021,0.031,0.059,0.041,0.073c0.006,0.007,0.024,0.026,0.037,0.044
		c0.006,0.006,0.012,0.015,0.019,0.023c0.032,0.051,0.036,0.123,0.062,0.18c0.027,0.054,0.073,0.098,0.1,0.155
		c0.021,0.043,0.032,0.15,0.005,0.154c-0.11,0-0.119-0.155-0.156-0.236c-0.03-0.063-0.074-0.116-0.108-0.177
		c-0.007-0.012-0.018-0.036-0.025-0.062c-0.007-0.021-0.016-0.044-0.025-0.062c-0.014-0.03-0.014-0.025-0.024-0.047
		c-0.01-0.021-0.042-0.06-0.05-0.078c0-0.001-0.001-0.002-0.001-0.004c-0.042-0.068-0.071-0.164-0.101-0.211
		C3.005,9.86,2.983,9.835,2.966,9.809C2.938,9.765,2.924,9.712,2.901,9.663C2.881,9.62,2.848,9.576,2.827,9.53
		C2.803,9.475,2.801,9.406,2.775,9.351c-0.013-0.03-0.038-0.061-0.052-0.088c-0.031-0.064-0.05-0.131-0.081-0.193
		c-0.014-0.03-0.042-0.058-0.056-0.088C2.562,8.928,2.549,8.872,2.521,8.823C2.463,8.718,2.4,8.602,2.353,8.491
		c-0.029-0.065-0.039-0.13-0.066-0.193C2.262,8.243,2.228,8.188,2.204,8.136c-0.017-0.035-0.021-0.07-0.035-0.109
		C2.145,7.966,2.117,7.902,2.094,7.841C2.082,7.798,2.07,7.706,2.057,7.668C2.04,7.623,2.017,7.572,1.996,7.526
		c-0.031-0.067-0.04-0.138-0.07-0.206C1.902,7.267,1.877,7.212,1.857,7.159C1.84,7.113,1.836,7.07,1.818,7.027
		C1.804,6.996,1.784,6.959,1.772,6.926C1.757,6.886,1.747,6.82,1.735,6.767C1.715,6.708,1.69,6.653,1.673,6.596
		C1.662,6.552,1.66,6.453,1.651,6.427c-0.062-0.179-0.119-0.37-0.175-0.549C1.45,5.795,1.438,5.713,1.415,5.633
		C1.406,5.6,1.406,5.559,1.396,5.526C1.38,5.475,1.359,5.422,1.343,5.369C1.333,5.332,1.328,5.295,1.321,5.26
		C1.313,5.223,1.293,5.185,1.278,5.148C1.245,5.04,1.226,4.925,1.193,4.82c-0.01-0.043-0.01-0.101-0.022-0.14
		c-0.042-0.13-0.051-0.281-0.089-0.418c-0.009-0.04-0.014-0.08-0.023-0.116C0.991,3.89,0.961,3.604,0.886,3.358
		C0.872,3.311,0.891,3.251,0.878,3.2C0.863,3.143,0.847,3.092,0.831,3.042c-0.007-0.027-0.007-0.047-0.012-0.07
		C0.805,2.931,0.787,2.897,0.764,2.903C0.736,2.911,0.742,2.936,0.743,2.97c0.003,0.058,0.009,0.105,0.02,0.151
		c0.009,0.04,0.003,0.072,0.014,0.106c0.023,0.079,0.031,0.191,0.045,0.264c0.004,0.03,0,0.07,0.006,0.105
		C0.836,3.633,0.864,3.681,0.872,3.72C0.88,3.772,0.879,3.841,0.887,3.899c0.01,0.048,0.025,0.094,0.037,0.139
		c0.011,0.04,0.003,0.077,0.015,0.113c0.011,0.038,0.031,0.075,0.039,0.116c0.005,0.045-0.001,0.111,0.009,0.152
		c0.058,0.224,0.075,0.49,0.14,0.705c0.008,0.031,0.01,0.064,0.017,0.095c0.055,0.189,0.097,0.39,0.154,0.577
		c0.007,0.028,0.007,0.059,0.014,0.091C1.33,5.953,1.346,6.024,1.36,6.09c0.007,0.032,0.006,0.06,0.015,0.089
		c0.02,0.069,0.043,0.135,0.066,0.203c0.008,0.034,0.012,0.066,0.018,0.099c0.006,0.025,0.02,0.055,0.027,0.081
		c0.012,0.039,0.008,0.077,0.02,0.113c0.009,0.021,0.026,0.044,0.031,0.066c0.009,0.041,0.014,0.081,0.025,0.12
		c0.017,0.047,0.042,0.094,0.061,0.14c0.015,0.04,0.015,0.079,0.03,0.118c0.026,0.065,0.056,0.144,0.081,0.214
		C1.754,7.391,1.757,7.45,1.777,7.508c0.014,0.04,0.033,0.079,0.046,0.117c0.009,0.03,0.014,0.06,0.024,0.091
		c0.01,0.027,0.041,0.071,0.061,0.109C1.925,7.866,1.917,7.921,1.93,7.966c0.014,0.045,0.039,0.081,0.055,0.122
		C1.999,8.13,1.998,8.175,2.01,8.218c0.012,0.033,0.034,0.065,0.048,0.096c0.013,0.038,0.026,0.072,0.04,0.109
		c0.011,0.022,0.03,0.048,0.042,0.07c0.019,0.041,0.036,0.087,0.052,0.13C2.216,8.684,2.218,8.76,2.238,8.83
		C2.243,8.851,2.242,8.899,2.23,8.904C2.202,8.91,2.17,8.865,2.151,8.837C2.117,8.79,2.086,8.738,2.062,8.682
		C2.052,8.66,2.048,8.641,2.041,8.619C2.022,8.572,2.008,8.518,1.987,8.472C1.975,8.442,1.955,8.411,1.944,8.38
		C1.93,8.335,1.937,8.282,1.919,8.243C1.904,8.21,1.877,8.184,1.863,8.151C1.853,8.121,1.847,8.09,1.834,8.06
		C1.818,8.023,1.796,7.991,1.775,7.957C1.761,7.923,1.763,7.891,1.751,7.852C1.739,7.806,1.724,7.759,1.704,7.717
		c-0.02-0.042-0.045-0.085-0.063-0.13c-0.009-0.024-0.014-0.049-0.02-0.074C1.608,7.48,1.591,7.445,1.579,7.413
		C1.571,7.388,1.564,7.361,1.554,7.338C1.538,7.302,1.52,7.261,1.504,7.221C1.493,7.189,1.492,7.155,1.48,7.123
		c-0.02-0.057-0.039-0.12-0.059-0.176C1.41,6.905,1.406,6.861,1.392,6.817c-0.016-0.05-0.038-0.101-0.057-0.151
		C1.321,6.625,1.317,6.582,1.306,6.54C1.287,6.486,1.259,6.436,1.241,6.379C1.229,6.333,1.228,6.287,1.218,6.244
		C1.187,6.139,1.153,6.021,1.12,5.914C1.081,5.793,1.078,5.657,1.043,5.535C1.018,5.447,0.987,5.363,0.96,5.277
		C0.951,5.232,0.949,5.191,0.938,5.148C0.914,5.051,0.879,4.925,0.847,4.824C0.831,4.771,0.835,4.716,0.82,4.66
		C0.804,4.602,0.804,4.534,0.785,4.473C0.773,4.436,0.759,4.409,0.75,4.361C0.74,4.312,0.741,4.256,0.734,4.22
		C0.728,4.184,0.666,3.971,0.658,3.931C0.65,3.893,0.65,3.82,0.646,3.794C0.642,3.777,0.61,3.686,0.606,3.661
		C0.602,3.638,0.602,3.61,0.593,3.563C0.583,3.516,0.556,3.411,0.551,3.38C0.546,3.35,0.546,3.288,0.54,3.258
		C0.533,3.228,0.514,3.157,0.5,3.106C0.482,3.045,0.497,2.98,0.479,2.923C0.466,2.88,0.452,2.839,0.436,2.798
		C0.426,2.765,0.415,2.717,0.412,2.695C0.41,2.662,0.408,2.596,0.406,2.57C0.405,2.537,0.39,2.479,0.387,2.429
		C0.383,2.36,0.368,2.288,0.357,2.246C0.351,2.22,0.353,2.191,0.348,2.168C0.331,2.101,0.314,2.039,0.28,2.043
		C0.256,2.047,0.246,2.067,0.257,2.111c0.011,0.053,0.017,0.094,0.031,0.145c0.006,0.027,0.008,0.096,0.008,0.119
		C0.299,2.412,0.3,2.419,0.304,2.456c0.003,0.013,0.009,0.047,0.013,0.062C0.323,2.542,0.331,2.576,0.33,2.593
		c0,0.023-0.001,0.049-0.001,0.083c0,0.018,0.001,0.024,0.008,0.054c0.007,0.029,0.01,0.036,0.012,0.06c0.001,0.021,0,0.042,0,0.061
		c0,0.023,0.003,0.046,0.01,0.067C0.373,2.964,0.401,3.025,0.39,3.091c-0.014,0.07,0.008,0.136,0.024,0.197
		c0.007,0.039,0,0.082,0.007,0.12c0.014,0.052,0.027,0.106,0.041,0.161c0.011,0.044,0.004,0.084,0.016,0.127
		C0.494,3.754,0.534,3.833,0.54,3.86c0.004,0.027,0.003,0.098,0.011,0.144C0.56,4.049,0.57,4.102,0.573,4.131
		c0.004,0.029,0,0.042,0.002,0.063c0.002,0.021,0.032,0.124,0.036,0.15c0.006,0.027,0.004,0.041,0.01,0.068
		C0.627,4.441,0.65,4.551,0.655,4.587C0.661,4.624,0.66,4.644,0.667,4.68c0.01,0.055,0.032,0.101,0.043,0.153
		c0.008,0.04,0.005,0.064,0.01,0.095c0.011,0.05,0.027,0.094,0.037,0.14c0.007,0.038,0.008,0.072,0.015,0.11
		c0.017,0.079,0.028,0.159,0.05,0.238c0.013,0.047,0.04,0.089,0.054,0.134C0.886,5.592,0.89,5.637,0.901,5.678
		c0.011,0.035,0.035,0.067,0.044,0.104c0.006,0.033,0.005,0.065,0.011,0.099c0.008,0.037,0.024,0.074,0.032,0.112
		C0.994,6.023,0.991,6.051,1,6.081c0.009,0.033,0.026,0.063,0.035,0.095c0.007,0.041,0.007,0.081,0.018,0.123
		c0.011,0.047,0.031,0.094,0.046,0.138c0.014,0.04,0.007,0.085,0.02,0.129c0.026,0.097,0.058,0.203,0.09,0.292
		C1.222,6.907,1.219,6.957,1.237,7.01C1.25,7.044,1.265,7.068,1.28,7.098c0.011,0.031,0.001,0.064,0.011,0.1
		c0.015,0.058,0.023,0.137,0.045,0.194c0.022,0.064,0.06,0.117,0.083,0.179c0.023,0.066,0.024,0.131,0.047,0.201
		c0.02,0.058,0.05,0.112,0.072,0.165c0.018,0.046,0.011,0.109,0.029,0.159c0.021,0.054,0.058,0.096,0.08,0.151
		c0.023,0.063,0.039,0.127,0.058,0.19c0.007,0.027,0.011,0.054,0.017,0.081C1.745,8.6,1.789,8.669,1.818,8.747
		c0.011,0.036,0.014,0.067,0.024,0.101c0.02,0.057,0.043,0.115,0.07,0.168c0.021,0.049,0.053,0.097,0.075,0.146
		c0.02,0.045,0.023,0.09,0.043,0.137c0.018,0.045,0.04,0.094,0.057,0.141c0.011,0.028,0.012,0.054,0.024,0.081
		c0.056,0.125,0.124,0.251,0.182,0.374c0.03,0.067,0.045,0.139,0.078,0.208c0.024,0.053,0.055,0.104,0.079,0.162
		c0.015,0.037,0.019,0.071,0.035,0.105c0.031,0.067,0.075,0.135,0.104,0.201c0.008,0.018,0.033,0.088,0.022,0.116
		c-0.001,0.004-0.001,0.009-0.007,0.011c-0.021,0.006-0.062-0.03-0.085-0.054c-0.081-0.077-0.093-0.225-0.148-0.326
		c-0.016-0.03-0.036-0.062-0.049-0.092c-0.008-0.022-0.013-0.042-0.023-0.063c-0.035-0.065-0.078-0.125-0.109-0.194
		C2.167,9.917,2.164,9.86,2.143,9.812C2.051,9.616,1.946,9.428,1.859,9.23C1.819,9.142,1.81,9.04,1.775,8.943
		C1.754,8.885,1.719,8.838,1.695,8.784c-0.018-0.042-0.022-0.086-0.042-0.13C1.627,8.598,1.591,8.546,1.569,8.485
		c-0.012-0.04-0.018-0.079-0.033-0.118C1.518,8.324,1.489,8.288,1.47,8.247C1.442,8.185,1.438,8.123,1.418,8.052
		C1.406,8.014,1.391,7.975,1.379,7.939c-0.01-0.032-0.014-0.066-0.025-0.097C1.327,7.768,1.283,7.703,1.255,7.627
		C1.236,7.576,1.241,7.511,1.218,7.461C1.2,7.42,1.167,7.388,1.151,7.346C1.133,7.3,1.15,7.247,1.135,7.194
		c-0.013-0.05-0.034-0.096-0.05-0.144c-0.009-0.03-0.012-0.06-0.02-0.088C1.042,6.901,1.02,6.84,0.999,6.78
		C0.987,6.749,0.987,6.72,0.974,6.691c-0.017-0.036-0.043-0.07-0.057-0.109c-0.015-0.06-0.02-0.122-0.034-0.18
		C0.86,6.325,0.831,6.263,0.808,6.188C0.804,6.165,0.804,6.142,0.796,6.115C0.778,6.049,0.769,5.974,0.75,5.907
		c-0.007-0.032-0.006-0.06-0.014-0.091C0.718,5.753,0.697,5.69,0.678,5.63c-0.01-0.04-0.011-0.079-0.021-0.116
		C0.626,5.416,0.598,5.3,0.569,5.206C0.562,5.177,0.563,5.151,0.555,5.12C0.531,5.045,0.5,4.955,0.483,4.877
		c-0.008-0.045-0.009-0.089-0.019-0.13c-0.012-0.053-0.03-0.103-0.041-0.155c-0.004-0.024,0-0.042-0.002-0.062
		C0.417,4.496,0.415,4.462,0.409,4.428C0.374,4.292,0.321,4.125,0.292,3.989C0.283,3.939,0.281,3.89,0.276,3.841
		C0.27,3.807,0.268,3.768,0.258,3.732C0.247,3.697,0.231,3.66,0.226,3.623C0.218,3.564,0.218,3.507,0.209,3.451
		c0-0.004-0.003-0.008-0.003-0.012c-0.012-0.07-0.046-0.212-0.055-0.27C0.143,3.102,0.134,3.033,0.126,2.967
		C0.124,2.923,0.117,2.877,0.112,2.832C0.102,2.762,0.085,2.7,0.077,2.627c-0.005-0.048-0.003-0.09-0.009-0.132
		c-0.003-0.026-0.004-0.07-0.038-0.07c-0.032,0-0.027,0.038-0.029,0.068c-0.004,0.072,0.01,0.168,0.015,0.213
		c0.01,0.083,0.003,0.165,0.011,0.25c0.006,0.048,0.021,0.095,0.026,0.14c0.011,0.081,0.02,0.162,0.03,0.239V3.34
		c0.002,0.036,0.007,0.071,0.014,0.105C0.099,3.449,0.099,3.453,0.1,3.456c0,0.002,0,0.004,0.001,0.005
		c0.001,0.002,0.001,0.003,0.001,0.006h0c0.003,0.017,0.006,0.032,0.01,0.047c0.008,0.03,0.005,0.056,0.014,0.087
		c0.024,0.093,0.019,0.194,0.045,0.285C0.209,4.021,0.228,4.17,0.268,4.304c0.01,0.039,0,0.078,0.011,0.12
		C0.289,4.467,0.3,4.507,0.311,4.55c0.01,0.05,0.003,0.103,0.017,0.154C0.339,4.752,0.353,4.8,0.366,4.845
		C0.38,4.9,0.382,4.957,0.397,5.017c0.018,0.06,0.038,0.125,0.048,0.187c0.012,0.069,0.02,0.148,0.033,0.222
		c0.011,0.061,0.044,0.134,0.059,0.2C0.542,5.647,0.539,5.67,0.543,5.692c0.008,0.048,0.023,0.094,0.033,0.14
		c0.005,0.021,0.003,0.041,0.01,0.063C0.607,5.983,0.635,6.093,0.663,6.18c0.006,0.023,0.009,0.049,0.015,0.074
		c0.018,0.062,0.037,0.107,0.044,0.141C0.728,6.424,0.73,6.458,0.739,6.49c0.013,0.047,0.027,0.089,0.036,0.13
		c0.007,0.033,0.013,0.061,0.021,0.094c0.011,0.039,0.026,0.075,0.042,0.113c0.027,0.078,0.03,0.162,0.058,0.238
		c0.017,0.045,0.039,0.089,0.053,0.138c0.013,0.044,0.016,0.098,0.029,0.148C1.005,7.427,1.034,7.514,1.062,7.59
		c0.032,0.091,0.052,0.189,0.083,0.274c0.013,0.035,0.01,0.068,0.022,0.105c0.025,0.085,0.055,0.182,0.083,0.268
		c0.015,0.046,0.015,0.09,0.033,0.134C1.311,8.443,1.353,8.504,1.38,8.579c0.022,0.064,0.027,0.128,0.053,0.186
		C1.465,8.844,1.5,8.924,1.532,9.007C1.552,9.065,1.56,9.122,1.583,9.176c0.02,0.046,0.046,0.094,0.069,0.142
		C1.666,9.359,1.68,9.399,1.694,9.44c0.011,0.032,0.045,0.085,0.068,0.127c0.026,0.057,0.029,0.117,0.051,0.179
		c0.034,0.093,0.08,0.188,0.118,0.275c0.016,0.034,0.018,0.065,0.032,0.102c0.024,0.062,0.064,0.108,0.089,0.166
		c0.025,0.054,0.032,0.112,0.056,0.165c0.036,0.078,0.062,0.117,0.062,0.228c-0.001,0.011-0.003,0.018-0.015,0.022
		c-0.021,0.008-0.044-0.027-0.058-0.04c-0.059-0.057-0.067-0.113-0.105-0.194c-0.056-0.122-0.128-0.237-0.184-0.354
		c-0.029-0.062-0.042-0.13-0.07-0.194C1.721,9.883,1.695,9.844,1.678,9.805C1.652,9.749,1.639,9.69,1.61,9.641
		C1.569,9.567,1.536,9.479,1.503,9.396C1.49,9.366,1.489,9.335,1.476,9.305C1.461,9.273,1.438,9.245,1.423,9.213
		c-0.021-0.05-0.035-0.112-0.055-0.165C1.323,8.95,1.272,8.846,1.234,8.742C1.2,8.646,1.184,8.555,1.148,8.458
		c-0.015-0.04-0.034-0.083-0.048-0.123C1.09,8.298,1.088,8.266,1.076,8.232c-0.032-0.087-0.072-0.18-0.11-0.264
		c-0.018-0.042-0.023-0.082-0.04-0.126C0.908,7.788,0.883,7.729,0.864,7.677c-0.026-0.07-0.027-0.152-0.053-0.225
		c-0.056-0.158-0.13-0.323-0.179-0.489C0.624,6.924,0.626,6.885,0.615,6.847C0.589,6.764,0.562,6.672,0.536,6.583
		C0.507,6.484,0.51,6.381,0.479,6.285C0.44,6.16,0.395,6.03,0.357,5.907C0.346,5.871,0.351,5.831,0.339,5.792
		C0.313,5.697,0.28,5.584,0.248,5.497C0.233,5.453,0.233,5.404,0.216,5.363c-0.02-0.051-0.071-0.032-0.066,0.024
		c0.004,0.051,0.021,0.117,0.026,0.144C0.182,5.567,0.182,5.602,0.19,5.64c0.016,0.066,0.037,0.122,0.055,0.183
		c0.021,0.063,0.021,0.122,0.038,0.187c0.011,0.032,0.023,0.067,0.033,0.098c0.02,0.065,0.02,0.134,0.042,0.193
		c0.017,0.045,0.03,0.102,0.044,0.151C0.41,6.484,0.409,6.511,0.419,6.543C0.436,6.603,0.455,6.661,0.474,6.72
		c0.009,0.033,0.006,0.063,0.013,0.094C0.5,6.861,0.511,6.908,0.524,6.952c0.012,0.042,0.01,0.099,0.025,0.144
		c0.025,0.081,0.056,0.166,0.083,0.243c0.031,0.085,0.035,0.173,0.065,0.26C0.752,7.75,0.802,7.926,0.857,8.08
		c0.015,0.039,0.01,0.08,0.022,0.123C0.897,8.269,0.912,8.334,0.935,8.4c0.011,0.031,0.032,0.062,0.044,0.091
		c0.018,0.038,0.022,0.079,0.04,0.118c0.014,0.03,0.034,0.062,0.046,0.093c0.017,0.049,0.011,0.11,0.03,0.156
		c0.014,0.037,0.034,0.077,0.049,0.115C1.16,9.015,1.16,9.061,1.177,9.101c0.014,0.034,0.039,0.067,0.055,0.101
		c0.017,0.032,0.02,0.066,0.031,0.102c0.015,0.037,0.035,0.074,0.05,0.109C1.331,9.451,1.332,9.496,1.35,9.537
		c0.015,0.035,0.039,0.067,0.052,0.105c0.014,0.04,0.015,0.082,0.029,0.123c0.023,0.06,0.061,0.112,0.086,0.169
		c0.02,0.042,0.021,0.09,0.041,0.134c0.021,0.05,0.052,0.099,0.074,0.146c0.03,0.067,0.052,0.136,0.082,0.198
		c0.049,0.111,0.065,0.232,0.117,0.34c0.037,0.082,0.088,0.158,0.124,0.236c0.02,0.045,0.026,0.092,0.046,0.134
		c0.022,0.048,0.063,0.089,0.084,0.138c0.017,0.048,0.031,0.097,0.052,0.144c0.029,0.061,0.068,0.117,0.096,0.176
		c0.016,0.034,0.023,0.067,0.039,0.102c0.031,0.067,0.082,0.122,0.112,0.188C2.4,11.913,2.417,11.956,2.431,12
		c0.033,0.071,0.085,0.13,0.121,0.201c0.023,0.053,0.04,0.107,0.071,0.155c0.047,0.074,0.079,0.123,0.125,0.199
		c0.03,0.049,0.071,0.12,0.095,0.173c0.024,0.054,0.065,0.097,0.088,0.148c0.024,0.051,0.056,0.107,0.083,0.155
		c0.031,0.054,0.062,0.094,0.097,0.146c0.055,0.083,0.089,0.173,0.144,0.258c0.038,0.059,0.081,0.119,0.123,0.175
		c0.112,0.153,0.271,0.424,0.337,0.516c0.057,0.074,0.104,0.163,0.156,0.239c0.039,0.062,0.089,0.12,0.132,0.177
		c0.037,0.046,0.064,0.096,0.1,0.145l0.028,0.037c1.418,1.804,2.877,2.997,4.112,3.781h0c0.651,0.406,1.002,0.524,1.002,0.524
		c0.082,0.035,0.026,0.095-0.016,0.121l-7.323,4.684c-0.023,0.016-0.079,0.057-0.056,0.104c0.017,0.034,0.09,0.015,0.111,0.008
		c5.877-2.062,10.141-3.759,12.748-4.995C17.352,17.696,18.239,16.979,18.143,16.621"/>
	<path fill="#4B4B4B" d="M98.37,14.381v-0.419h0.508c0.626,0,1.273,0,1.661,0.127c1.024,0.304,1.542,1.086,1.542,2.313
		c0,1.004-0.639,2.497-2.404,2.497c-0.51,0-1.041-0.203-1.307-0.324V14.381z M100.435,19.939c2.396,0,3.823-1.813,3.823-3.563
		c0-0.968-0.358-2.692-2.779-3.303c-0.539-0.138-1.143-0.146-1.932-0.146l-4.261-0.004l0.072,0.071c0,0,0.728,0.109,0.728,1.388
		v7.951c0,1.277-0.728,1.385-0.728,1.385l-0.072,0.076h3.879l-0.072-0.076c0,0-0.723-0.107-0.723-1.385v-2.771
		C98.707,19.711,99.391,19.939,100.435,19.939 M157,20.418l-0.854,2.909c0,0-1.852,0.63-3.438,0.63
		c-4.215,0-6.257-2.896-6.257-5.519c0-3.26,2.476-5.689,6.415-5.689c2.178,0,3.718,0.751,3.718,0.751v2.35l-0.064-0.052
		c0,0-0.92-1.991-3.479-1.991c-2.468,0-4.036,1.826-4.036,4.617c0,2.792,1.617,4.323,3.948,4.323c2.574,0,3.952-2.271,3.952-2.271
		L157,20.418z M129.613,14.381v7.951c0,1.277,0.729,1.385,0.729,1.385l0.073,0.076h-3.884l0.075-0.076c0,0,0.725-0.107,0.725-1.385
		v-7.951c0-1.279-0.725-1.388-0.725-1.388l-0.075-0.071h3.884l-0.073,0.071C130.342,12.993,129.613,13.102,129.613,14.381
		 M138.687,12.922c1.28,0,1.465-0.122,1.465-0.122v1.94l-0.073-0.059c0,0-0.534-0.734-1.815-0.734h-2.752v3.475h2.29
		c1.277,0,1.386-0.56,1.386-0.56l0.076-0.075v2.335l-0.076-0.075c0,0-0.108-0.562-1.386-0.562h-2.29v3.844v0.004
		c0,1.277,0.722,1.385,0.722,1.385l0.076,0.076h-3.878l0.069-0.076c0,0,0.726-0.107,0.726-1.385v-7.948
		c0-1.279-0.726-1.387-0.726-1.387l-0.069-0.075L138.687,12.922L138.687,12.922z M125.035,20.478l0.093-0.06l-0.851,2.909
		c0,0-1.851,0.63-3.441,0.63c-4.21,0-6.253-2.896-6.253-5.519c0-3.26,2.472-5.687,6.414-5.687c2.181,0,3.715,0.749,3.715,0.749v2.35
		l-0.062-0.052c0,0-0.923-1.991-3.476-1.991c-2.471,0-4.036,1.826-4.036,4.617c0,2.792,1.611,4.323,3.946,4.323
		C123.652,22.748,125.035,20.478,125.035,20.478 M144.554,14.381v7.951c0,1.277,0.726,1.385,0.726,1.385l0.073,0.076h-3.883
		l0.073-0.076c0,0,0.726-0.107,0.726-1.385v-7.951c0-1.279-0.726-1.388-0.726-1.388l-0.073-0.071h3.883l-0.073,0.071
		C145.279,12.993,144.554,13.102,144.554,14.381 M106.612,19.637l1.676-3.524l1.529,3.524H106.612L106.612,19.637z M113.559,22.312
		l-4.773-9.935l-4.743,9.935c-0.712,1.358-1.493,1.388-1.493,1.388l-0.073,0.075h3.243l-0.071-0.075c0,0-0.909-0.18-0.334-1.388
		l0.855-1.754h4.064l0.826,1.754c0.575,1.208-0.332,1.388-0.332,1.388l-0.073,0.075h4.473l-0.074-0.075
		C115.053,23.7,114.229,23.694,113.559,22.312 M68.155,22.317c0-1.279-0.004-6.673-0.004-7.952c0-1.279,0.726-1.372,0.726-1.372
		l0.075-0.071h-3.883l0.071,0.071c0,0,0.727,0.093,0.727,1.372c0,1.279,0.006,3.122,0.006,3.122h-5.341v-3.122
		c0-1.279,0.729-1.367,0.729-1.367l0.07-0.074h-3.88l0.076,0.074c0,0,0.724,0.088,0.724,1.367v7.952
		c0,1.281-0.724,1.392-0.724,1.392l-0.076,0.072h3.88l-0.07-0.072c0,0-0.729-0.11-0.729-1.392v-3.766h5.341v3.766
		c0,1.281-0.724,1.392-0.724,1.392l-0.075,0.072h3.884l-0.075-0.072C68.882,23.709,68.155,23.599,68.155,22.317 M47.777,12.924
		c-1.281,0-1.461-0.123-1.461-0.123l-0.004,2.162l0.074-0.056c0,0,0.584-0.936,1.86-0.936h1.823v8.346
		c0,1.281-0.722,1.392-0.722,1.392l-0.075,0.072h3.881l-0.072-0.072c0,0-0.727-0.11-0.727-1.392l0.009-8.346h1.779
		c1.281,0,1.895,0.936,1.895,0.936l0.076,0.056l0.004-2.162c0,0-0.18,0.123-1.461,0.123H47.777z M73.47,19.637l1.678-3.524
		l1.527,3.524H73.47L73.47,19.637z M80.42,22.312l-4.776-9.935l-4.745,9.935c-0.709,1.358-1.493,1.388-1.493,1.388l-0.074,0.075
		h3.246L72.508,23.7c0,0-0.909-0.18-0.336-1.388l0.852-1.754h4.069l0.826,1.754c0.578,1.208-0.331,1.388-0.331,1.388l-0.074,0.075
		h4.471L81.911,23.7C81.911,23.7,81.087,23.694,80.42,22.312 M88.083,12.924l0.075,0.074c0,0,0.96,0.27,0.235,1.395
		c-0.354,0.548-1.423,2.076-2.396,3.556c-0.979-1.479-2.031-3.018-2.383-3.564c-0.723-1.127,0.24-1.386,0.24-1.386l0.07-0.074
		h-4.471l0.071,0.074c0,0,0.647,0.107,1.497,1.386c0.355,0.54,2.172,3.077,3.149,4.558v3.376c0,1.281-0.727,1.392-0.727,1.392
		l-0.072,0.072h3.881l-0.074-0.072c0,0-0.723-0.11-0.723-1.392c0-0.541-0.008-1.897-0.008-3.376c0.979-1.48,2.799-4.008,3.156-4.549
		c0.841-1.277,1.807-1.395,1.807-1.395l0.076-0.074H88.083z M31.016,22.748c-2.335,0-3.946-1.531-3.946-4.323
		c0-2.791,1.566-4.617,4.031-4.617c2.559,0,3.479,1.99,3.479,1.99l0.061,0.053v-2.35c0,0-1.532-0.749-3.715-0.749
		c-3.941,0-6.414,2.427-6.414,5.687c0,2.623,2.042,5.519,6.254,5.519c1.589,0,3.441-0.63,3.441-0.63l0.852-2.909l-0.094,0.06
		C34.966,20.478,33.584,22.748,31.016,22.748 M39.271,19.637l1.677-3.524l1.528,3.524H39.271z M46.222,22.312l-4.777-9.935
		l-4.744,9.935c-0.71,1.358-1.495,1.388-1.495,1.388l-0.071,0.075h3.249L38.306,23.7c0,0-0.907-0.18-0.33-1.388l0.85-1.754h4.067
		l0.827,1.754c0.574,1.208-0.333,1.388-0.333,1.388l-0.071,0.075h4.473L47.712,23.7C47.712,23.7,46.888,23.694,46.222,22.312"/>
</g>
</svg>
