<?xml version="1.0" encoding="utf-8"?>
<!-- Generator: Adobe Illustrator 16.0.0, SVG Export Plug-In . SVG Version: 6.00 Build 0)  -->
<!DOCTYPE svg PUBLIC "-//W3C//DTD SVG 1.0//EN" "http://www.w3.org/TR/2001/REC-SVG-20010904/DTD/svg10.dtd">
<svg version="1.0" id="AT" xmlns="http://www.w3.org/2000/svg" xmlns:xlink="http://www.w3.org/1999/xlink" x="0px" y="0px"
	 width="157px" height="26px" viewBox="0 0 157 26" enable-background="new 0 0 157 26" xml:space="preserve">
<g opacity="0.7">
	<path fill="#565656" d="M79.305,9.273l1.094,3.369l-1.267-0.921l-0.426,0.308l2.213,1.608c-0.691,0.467-1.523,0.738-2.42,0.738
		c-0.802,0-1.553-0.219-2.198-0.598l-0.438,0.318c0.759,0.492,1.664,0.779,2.636,0.779c1.065,0,2.049-0.344,2.85-0.926h0.002
		l-1.521-4.676H79.305z M79.63,11.059l-0.165-0.499L76.6,12.642l0.484-1.49l-0.425-0.309l-0.845,2.6
		c-1.012-0.797-1.664-2.031-1.664-3.417c0-0.32,0.036-0.632,0.103-0.932l-0.438-0.318c-0.106,0.399-0.164,0.817-0.164,1.25
		c0,1.613,0.788,3.042,1.999,3.922l0,0L79.63,11.059z M83.348,10.027c0-0.522-0.084-1.026-0.237-1.497h-0.001V8.529h-4.917
		l-0.162,0.5h3.543L80.306,9.95l0.162,0.499l2.215-1.609c0.106,0.377,0.165,0.776,0.165,1.187c0,1.291-0.566,2.452-1.461,3.249
		l0.166,0.516C82.648,12.902,83.348,11.547,83.348,10.027z M82.483,8.286h0.54c-0.699-1.817-2.46-3.106-4.524-3.106c0,0,0,0,0,0l0,0
		l-1.52,4.676l0.425,0.309l1.095-3.369l0.484,1.49h0.525l-0.846-2.6C80.371,5.749,81.831,6.8,82.483,8.286z M73.889,8.53
		l3.979,2.891l0.425-0.31l-2.866-2.082h1.567l0.162-0.499h-2.737c0.564-1.535,1.971-2.666,3.656-2.83l0.167-0.514
		C76.199,5.293,74.494,6.663,73.889,8.53C73.889,8.529,73.889,8.53,73.889,8.53L73.889,8.53z M79.22,1.407
		c-0.234,0.386-0.016,0.867,0.341,1.012c0.354,0.145,0.847-0.046,0.948-0.486c0.024-0.118-0.038-0.241-0.151-0.287
		c-0.13-0.053-0.279,0.01-0.333,0.139c-0.036,0.089-0.018,0.187,0.038,0.257c0,0-0.1,0.077-0.341-0.021
		c-0.24-0.098-0.259-0.223-0.259-0.223c0.089-0.01,0.17-0.068,0.208-0.157c0.051-0.13-0.011-0.278-0.141-0.331
		C79.415,1.262,79.285,1.306,79.22,1.407z M80.55,3.71c-0.192-0.36-0.594-0.239-0.797,0.359c0.147,0.031,0.292,0.068,0.437,0.109
		C80.342,3.714,80.55,3.71,80.55,3.71z M80.649,2.903c0.378-0.291,0.588-0.501,0.928-0.501c0.252,0.002,0.412,0.081,0.529,0.211
		c0.116,0.132,0.209,0.336,0.209,0.656c-0.003,0.309-0.089,0.492-0.213,0.635c-0.12,0.142-0.33,0.279-0.519,0.368
		c-0.292,0.135-0.251,0.426-0.251,0.426c0.555-0.047,0.931-0.265,1.125-0.489c0.196-0.223,0.346-0.531,0.344-0.939
		c0-0.398-0.113-0.73-0.332-0.978c-0.216-0.248-0.532-0.385-0.886-0.383c-0.367-0.002-0.679,0.183-0.881,0.413
		c-0.184,0.176-0.527,0.453-1.063,0.439C79.688,3.188,80.341,3.14,80.649,2.903z M81.222,4.069C81.154,3.87,80.76,3.695,80.563,4.3
		c0.136,0.048,0.269,0.102,0.398,0.159C81.041,4.132,81.222,4.069,81.222,4.069z M77.63,4.002c0.151-0.021,0.306-0.038,0.461-0.048
		c-0.177-0.759-0.653-0.982-0.888-0.572C77.203,3.382,77.488,3.449,77.63,4.002z M78.499,2.659L78.499,2.659L78.499,2.659
		c-0.212,0.203-0.311,0.503-0.311,0.503c0.14,0.103,0.311,0.451,0.311,0.451s0.171-0.348,0.312-0.451
		C78.811,3.162,78.712,2.861,78.499,2.659L78.499,2.659L78.499,2.659z M78.909,3.955c0.155,0.01,0.309,0.026,0.461,0.048
		c0.141-0.554,0.426-0.62,0.426-0.62C79.561,2.972,79.085,3.195,78.909,3.955z M78.002,1.531l0.497-0.362l0.497,0.362l-0.189-0.585
		l0.497-0.361h-0.614L78.499,0L78.31,0.585h-0.615l0.498,0.361L78.002,1.531z M78.499,1.576c-0.222,0-0.4,0.18-0.4,0.4
		c0,0.221,0.179,0.401,0.4,0.401s0.4-0.18,0.4-0.401C78.899,1.755,78.721,1.576,78.499,1.576z M81.19,5.43V4.876
		c-0.806-0.423-1.719-0.663-2.691-0.663c-0.97,0-1.886,0.24-2.69,0.663V5.43c0.79-0.464,1.709-0.731,2.69-0.731
		C79.481,4.699,80.4,4.966,81.19,5.43z M77.439,2.419c0.355-0.145,0.574-0.626,0.34-1.012c-0.064-0.101-0.194-0.145-0.311-0.098
		c-0.13,0.052-0.192,0.201-0.139,0.331c0.036,0.089,0.117,0.147,0.207,0.157c0,0-0.021,0.125-0.26,0.223
		c-0.24,0.098-0.342,0.021-0.342,0.021c0.057-0.07,0.075-0.167,0.039-0.257c-0.054-0.129-0.202-0.192-0.332-0.139
		c-0.115,0.046-0.178,0.169-0.152,0.287C76.591,2.373,77.084,2.564,77.439,2.419z M76.449,3.71c0,0,0.207,0.003,0.361,0.468
		c0.144-0.042,0.289-0.078,0.437-0.109C77.043,3.472,76.641,3.351,76.449,3.71z M76.037,4.459C76.168,4.402,76.3,4.349,76.435,4.3
		c-0.195-0.605-0.591-0.43-0.656-0.231C75.778,4.069,75.958,4.132,76.037,4.459z M75.666,4.697c0,0,0.042-0.291-0.249-0.426
		c-0.19-0.089-0.399-0.226-0.521-0.368c-0.121-0.143-0.209-0.326-0.211-0.635c0-0.319,0.092-0.524,0.209-0.656
		c0.117-0.131,0.276-0.209,0.53-0.211c0.338,0,0.548,0.21,0.927,0.501c0.307,0.236,0.961,0.284,1.009-0.143
		c-0.534,0.014-0.88-0.264-1.062-0.439c-0.204-0.23-0.514-0.415-0.88-0.413c-0.356-0.002-0.67,0.135-0.888,0.383
		c-0.219,0.248-0.331,0.58-0.331,0.978c-0.002,0.409,0.147,0.716,0.344,0.939C74.735,4.433,75.111,4.65,75.666,4.697z M83.366,8.529
		c0.049,0.163,0.092,0.33,0.126,0.5h7.701c-0.438,0.43-0.641,0.71-1.885,0.71h-2.397c-0.265,0.333-0.867,0.5-0.867,0.5h3.45
		c1.077,0,1.566-0.315,2.058-0.858l0.754-0.852H83.366z M88.265,10.949h-2.399c-0.263,0.333-0.867,0.5-0.867,0.5h3.449
		c1.078,0,1.567-0.315,2.057-0.858l0.143-0.16h-0.695C89.618,10.75,89.311,10.949,88.265,10.949z M87.217,12.159h-2.397
		c-0.265,0.333-0.869,0.5-0.869,0.5h3.452c1.075,0,1.566-0.315,2.058-0.858l0.141-0.16h-0.695
		C88.574,11.959,88.265,12.159,87.217,12.159z M86.171,13.369h-3.835c-0.154,0.178-0.322,0.344-0.501,0.5h4.52
		c1.077,0,1.566-0.316,2.058-0.859l0.143-0.16h-0.695C87.526,13.17,87.217,13.369,86.171,13.369z M73.047,12.659
		c0,0-0.604-0.167-0.867-0.5h-2.397c-1.047,0-1.355-0.199-1.688-0.519h-0.695l0.142,0.16c0.49,0.543,0.98,0.858,2.058,0.858H73.047z
		 M74.663,13.369h-3.835c-1.047,0-1.355-0.199-1.688-0.52h-0.696l0.143,0.16c0.49,0.543,0.98,0.859,2.057,0.859h4.52
		C74.985,13.713,74.818,13.547,74.663,13.369z M70.956,10.239c0,0-0.604-0.167-0.868-0.5h-2.398c-1.244,0-1.445-0.28-1.884-0.71
		h7.701c0.034-0.17,0.076-0.337,0.127-0.5h-8.939l0.753,0.852c0.491,0.543,0.981,0.858,2.058,0.858H70.956z M72.001,11.449
		c0,0-0.604-0.167-0.867-0.5h-2.398c-1.047,0-1.355-0.198-1.688-0.519h-0.695l0.142,0.16c0.49,0.543,0.98,0.858,2.058,0.858H72.001z
		"/>
	<path fill="#5A5A5A" d="M68.63,18.596c0,0.812-0.52,0.975-0.931,0.975c-0.412,0-0.932-0.162-0.932-0.975
		c0-0.814,0.52-0.975,0.932-0.975C68.11,17.621,68.63,17.781,68.63,18.596z M67.699,18.014c-0.288,0-0.397,0.262-0.397,0.582
		s0.109,0.582,0.397,0.582c0.287,0,0.396-0.262,0.396-0.582S67.986,18.014,67.699,18.014z M65.939,17.9v-0.252h-0.466v1.869h0.488
		c0,0,0-0.861,0-1.223c0.099-0.066,0.318-0.191,0.493-0.129l0.052-0.51C66.333,17.549,66.11,17.633,65.939,17.9z M89.672,18.596
		c0,0.812-0.519,0.975-0.931,0.975s-0.931-0.162-0.931-0.975c0-0.814,0.519-0.975,0.931-0.975S89.672,17.781,89.672,18.596z
		 M88.741,18.014c-0.289,0-0.396,0.262-0.396,0.582s0.107,0.582,0.396,0.582c0.288,0,0.396-0.262,0.396-0.582
		S89.029,18.014,88.741,18.014z M91.003,19.178c-0.287,0-0.435-0.262-0.435-0.582s0.147-0.582,0.435-0.582
		c0.27,0,0.41,0.078,0.41,0.078l0.113-0.285c0,0-0.225-0.186-0.562-0.186c-0.41,0-0.931,0.16-0.931,0.975
		c0,0.812,0.521,0.975,0.931,0.975c0.337,0,0.562-0.188,0.562-0.188L91.413,19.1C91.413,19.1,91.272,19.178,91.003,19.178z
		 M86.982,17.9v-0.252h-0.466v1.869h0.488c0,0,0-0.861,0-1.223c0.098-0.066,0.317-0.191,0.493-0.129l0.051-0.51
		C87.376,17.549,87.154,17.633,86.982,17.9z M79.113,17.9v-0.252h-0.466v1.869h0.489c0,0,0-0.861,0-1.223
		c0.098-0.066,0.316-0.191,0.493-0.129l0.05-0.51C79.508,17.549,79.285,17.633,79.113,17.9z M77.542,19.518h0.487
		c0,0,0-1.391,0-1.869h-0.487V19.518z M73.999,19.5l-0.022-0.34c-0.106,0.018-0.188-0.018-0.188-0.125v-2.084H73.3v2.176
		c0,0.25,0.141,0.439,0.394,0.439C73.911,19.566,73.999,19.5,73.999,19.5z M70.279,17.648l-0.406,1.369l-0.43-1.369h-0.547
		l0.73,2.008l-0.014,0.045c-0.104,0.225-0.352,0.309-0.516,0.281l0.034,0.352c0,0,0.1,0.021,0.242,0.021
		c0.325,0,0.585-0.152,0.737-0.551l0.715-2.156H70.279z M71.988,17.615c-0.494,0-0.941,0.289-0.941,1.01
		c0,0.502,0.194,0.941,0.688,0.941c0.318,0,0.454-0.176,0.529-0.283v0.234h0.488v-1.779C72.753,17.738,72.318,17.615,71.988,17.615z
		 M71.918,19.154c-0.183,0-0.347-0.168-0.347-0.553c0-0.412,0.217-0.574,0.446-0.574c0.082,0,0.178,0.02,0.247,0.041v0.998
		C72.195,19.104,72.072,19.154,71.918,19.154z M76.146,17.615c-0.495,0-0.941,0.289-0.941,1.01c0,0.502,0.194,0.941,0.688,0.941
		c0.318,0,0.455-0.176,0.53-0.283v0.234h0.487v-1.779C76.909,17.738,76.475,17.615,76.146,17.615z M76.075,19.154
		c-0.184,0-0.348-0.168-0.348-0.553c0-0.412,0.218-0.574,0.447-0.574c0.081,0,0.178,0.02,0.247,0.041v0.998
		C76.352,19.104,76.229,19.154,76.075,19.154z M85.114,17.615c-0.495,0-0.941,0.289-0.941,1.01c0,0.502,0.194,0.941,0.687,0.941
		c0.319,0,0.454-0.176,0.529-0.283v0.234h0.487v-1.779C85.876,17.738,85.443,17.615,85.114,17.615z M85.042,19.154
		c-0.183,0-0.348-0.168-0.348-0.553c0-0.412,0.219-0.574,0.447-0.574c0.082,0,0.179,0.02,0.247,0.041v0.998
		C85.32,19.104,85.196,19.154,85.042,19.154z M77.785,16.959c-0.156,0-0.282,0.098-0.282,0.217s0.126,0.217,0.282,0.217
		s0.283-0.098,0.283-0.217S77.941,16.959,77.785,16.959z M83.116,17.621c-0.202,0-0.335,0.07-0.584,0.352
		c-0.066-0.227-0.27-0.352-0.521-0.352c-0.197,0-0.356,0.066-0.56,0.318v-0.291h-0.487v1.869h0.487c0,0,0-0.77,0-1.359
		c0.059-0.033,0.183-0.094,0.34-0.094c0.226,0,0.278,0.162,0.278,0.262v1.191h0.488v-1.35c0.068-0.041,0.192-0.104,0.34-0.104
		c0.224,0,0.309,0.162,0.309,0.262v1.191h0.488v-1.377C83.695,17.805,83.422,17.621,83.116,17.621z"/>
	<path fill="#5A5A5A" d="M71.644,21.436v2.17c0,0.566-0.041,0.703-0.041,0.703c0.225-0.021,0.593-0.164,0.593-0.654v-1.838
		c0-0.326,0.021-0.48,0.021-0.48S71.841,21.328,71.644,21.436z M67.354,21.949c0.169,0,0.307-0.105,0.307-0.234
		s-0.138-0.236-0.307-0.236c-0.169,0-0.307,0.107-0.307,0.236S67.184,21.949,67.354,21.949z M62.362,22.004
		c0.169,0,0.307-0.102,0.307-0.232s-0.138-0.236-0.307-0.236c-0.169,0-0.307,0.105-0.307,0.236S62.192,22.004,62.362,22.004z
		 M61.62,22.096c0.169,0,0.307-0.105,0.307-0.234s-0.137-0.234-0.307-0.234c-0.169,0-0.307,0.105-0.307,0.234
		S61.451,22.096,61.62,22.096z M63.244,24.424c-0.169,0-0.307,0.105-0.307,0.234s0.137,0.234,0.307,0.234
		c0.17,0,0.307-0.105,0.307-0.234S63.414,24.424,63.244,24.424z M62.501,24.514c-0.169,0-0.306,0.105-0.306,0.236
		c0,0.129,0.137,0.232,0.306,0.232c0.17,0,0.307-0.104,0.307-0.232C62.808,24.619,62.672,24.514,62.501,24.514z M64.156,24.514
		c-0.169,0-0.307,0.105-0.307,0.236c0,0.129,0.138,0.232,0.307,0.232c0.169,0,0.307-0.104,0.307-0.232
		C64.463,24.619,64.326,24.514,64.156,24.514z M70.734,21.436v2.057c0,0.219-0.009,0.342-0.146,0.342
		c-0.137,0-0.312-0.053-0.312-0.338c0-0.289-0.203-0.805-0.829-0.805c-0.677,0-0.907,0.711-0.907,0.939
		c0,0.143-0.019,0.209-0.352,0.209c-0.209,0-0.383-0.057-0.531-0.162c0.354-0.35,0.489-0.566,0.577-0.777
		c0.098-0.232,0.053-0.625-0.469-0.625h-1.057l-0.365,0.184c0.189,0.518,0.382,0.994,0.71,1.311
		c-0.133,0.049-0.285,0.076-0.462,0.076c-0.307,0-0.45-0.072-0.519-0.143c-0.013-0.266-0.079-0.586-0.189-1.002
		c0,0-0.27-0.027-0.525,0.145c0.099,0.365,0.404,1.564,0.09,1.693c-0.315,0.131-0.782,0.096-0.782,0.096
		c0.018,0.277,0.216,0.357,0.382,0.357c0.166,0,0.57-0.08,0.84-0.521c0.07-0.113,0.118-0.227,0.149-0.35
		c0.239,0.09,0.82,0.109,1.269-0.152c0.223,0.135,0.499,0.211,0.849,0.211c0.463,0,0.62-0.184,0.62-0.184
		c0.169,0.176,0.483,0.176,0.554,0.176c0.072,0,0.437-0.031,0.561-0.232c0,0,0.196,0.254,0.731,0.254
		c0.352,0,0.665-0.227,0.665-0.719v-1.658c0-0.326,0.021-0.48,0.021-0.48S70.932,21.328,70.734,21.436z M67.472,23.51
		c-0.184-0.211-0.328-0.521-0.464-0.914h0.45c0.312,0,0.333,0.391,0.15,0.73C67.574,23.389,67.528,23.451,67.472,23.51z
		 M63.141,24.176c0.25,0,0.382-0.145,0.382-0.145s0.133,0.162,0.667,0.162c0.382,0,0.738-0.227,0.738-0.719v-0.717
		c0-0.326,0.021-0.484,0.021-0.484s-0.375-0.006-0.572,0.102v1.117c0,0.219-0.009,0.342-0.146,0.342
		c-0.278,0-0.466-0.072-0.466-0.359v-0.312c0-0.326,0.021-0.484,0.021-0.484s-0.361-0.006-0.559,0.104v0.787
		c0,0.25-0.057,0.268-0.194,0.268h-0.262c-0.12,0-0.146-0.031-0.146-0.252v-0.826c0-0.326,0.021-0.484,0.021-0.484
		s-0.362-0.006-0.559,0.102v0.385c-0.62,0.17-1.106,0.557-1.106,0.557c-0.101,0.078-0.048,0.381,0.071,0.602
		c0.12,0.221,0.43,0.264,0.489,0.264c0.215,0,0.454-0.137,0.578-0.24c0.062,0.156,0.201,0.234,0.406,0.234H63.141z M62.088,23.756
		c-0.086,0.08-0.366,0.104-0.48,0.031c-0.113-0.072-0.214-0.328-0.131-0.436c0.079-0.1,0.391-0.26,0.611-0.342V23.756z
		 M74.559,22.004c0.17,0,0.307-0.102,0.307-0.232s-0.137-0.236-0.307-0.236c-0.169,0-0.307,0.105-0.307,0.236
		S74.39,22.004,74.559,22.004z M93.6,22.004c0.168,0,0.306-0.102,0.306-0.232s-0.138-0.236-0.306-0.236
		c-0.169,0-0.308,0.105-0.308,0.236S93.431,22.004,93.6,22.004z M73.817,22.096c0.169,0,0.307-0.105,0.307-0.234
		s-0.138-0.234-0.307-0.234c-0.17,0-0.306,0.105-0.306,0.234S73.647,22.096,73.817,22.096z M75.975,24.424
		c-0.169,0-0.307,0.105-0.307,0.234s0.138,0.234,0.307,0.234c0.17,0,0.307-0.105,0.307-0.234S76.145,24.424,75.975,24.424z
		 M75.233,24.514c-0.17,0-0.307,0.105-0.307,0.236c0,0.129,0.137,0.232,0.307,0.232c0.169,0,0.307-0.104,0.307-0.232
		C75.54,24.619,75.402,24.514,75.233,24.514z M83.596,21.436v2.17c0,0.566-0.04,0.703-0.04,0.703
		c0.224-0.021,0.591-0.164,0.591-0.654v-1.838c0-0.326,0.021-0.48,0.021-0.48S83.793,21.328,83.596,21.436z M95.499,21.436v2.17
		c0,0.566-0.041,0.703-0.041,0.703c0.225-0.021,0.592-0.164,0.592-0.654v-1.838c0-0.326,0.021-0.48,0.021-0.48
		S95.696,21.328,95.499,21.436z M82.687,21.436v2.057c0,0.219-0.01,0.342-0.146,0.342c-0.138,0-0.314-0.053-0.314-0.338
		c0-0.289-0.201-0.805-0.828-0.805c-0.677,0-0.906,0.711-0.906,0.939c0,0.096-0.033,0.209-0.165,0.209
		c-0.113,0-0.22-0.086-0.292-0.213c0.007-0.049,0.01-0.098,0.01-0.152v-1.658c0-0.326,0.021-0.48,0.021-0.48s-0.375-0.008-0.572,0.1
		v2.057c0,0.219-0.009,0.342-0.146,0.342c-0.139,0-0.228-0.039-0.285-0.174c-0.06-0.131-0.171-0.348-0.289-0.475
		c-0.116-0.127-0.312-0.223-0.596-0.223h-0.964c-0.264,0-0.361-0.084-0.361-0.084c-0.044-0.025,0.117-0.328,0.249-0.514
		c0.133-0.186,0.298-0.332,0.46-0.332c0.137,0,0.2,0.102,0.2,0.102c0.039-0.027,0.117-0.131,0.117-0.248s-0.098-0.27-0.288-0.27
		c-0.191,0-0.503,0.158-0.797,0.6c-0.181,0.275-0.377,0.789-0.377,0.789c-0.063,0.117,0.216,0.238,0.216,0.238
		c0.176,0.074,0.396,0.074,0.469,0.074h0.816c0.44,0,0.582,0.422,0.582,0.422c0.015,0.072-0.006,0.094-0.147,0.094h-1.924
		c-0.279,0-0.466-0.072-0.466-0.359v-0.312c0-0.326,0.02-0.484,0.02-0.484s-0.36-0.006-0.558,0.104v0.787
		c0,0.25-0.057,0.268-0.193,0.268h-0.263c-0.119,0-0.146-0.031-0.146-0.252v-0.826c0-0.326,0.021-0.484,0.021-0.484
		s-0.36-0.006-0.558,0.102v0.385c-0.619,0.17-1.106,0.557-1.106,0.557c-0.102,0.078-0.047,0.381,0.071,0.602
		c0.119,0.221,0.43,0.264,0.489,0.264c0.215,0,0.453-0.137,0.578-0.24c0.062,0.156,0.2,0.234,0.405,0.234h0.615
		c0.25,0,0.381-0.145,0.381-0.145s0.134,0.162,0.668,0.162h2.058c0.245,0,0.392-0.127,0.392-0.127
		c0.104,0.068,0.237,0.127,0.544,0.127c0.161,0,0.314-0.049,0.431-0.146c0.478,0.305,0.823,0.035,0.916-0.051
		c0.17,0.176,0.482,0.176,0.555,0.176s0.436-0.031,0.56-0.232c0,0,0.195,0.254,0.731,0.254c0.353,0,0.665-0.227,0.665-0.719v-1.658
		c0-0.326,0.019-0.48,0.019-0.48S82.885,21.328,82.687,21.436z M74.286,23.756c-0.087,0.08-0.367,0.104-0.48,0.031
		s-0.215-0.328-0.131-0.436c0.079-0.1,0.391-0.26,0.611-0.342V23.756z M81.471,23.873c-0.287,0-0.443-0.217-0.443-0.471
		s0.11-0.443,0.11-0.443c0.431,0.027,0.55,0.367,0.55,0.496c0,0.092-0.007,0.172,0.048,0.291
		C81.681,23.812,81.598,23.873,81.471,23.873z M69.519,23.873c-0.287,0-0.444-0.217-0.444-0.471s0.111-0.443,0.111-0.443
		c0.431,0.027,0.548,0.367,0.548,0.496c0,0.092-0.004,0.172,0.048,0.291C69.729,23.812,69.645,23.873,69.519,23.873z M94.489,23.309
		c0.344-0.01,0.643-0.238,0.643-0.719v-0.773c0-0.326,0.021-0.48,0.021-0.48s-0.375-0.008-0.572,0.1v1.174
		c0,0.217-0.009,0.34-0.146,0.34c-0.065,0-0.095-0.031-0.124-0.074c-0.182-0.426-0.371-0.568-0.759-0.568
		c-0.244,0-0.475,0.113-0.475,0.113c-0.057,0.025,0,0.221,0.136,0.361c0.043,0.047,0.065,0.033,0.113-0.008s0.249-0.209,0.318-0.068
		c0.048,0.1,0.343,0.9,0.626,1.129h-0.904c-0.145,0-0.21-0.025-0.289-0.273c-0.08-0.248-0.337-0.859-0.883-0.859
		c-0.482,0-0.965,0.479-1.216,0.773v-1.658c0-0.326,0.021-0.48,0.021-0.48s-0.374-0.008-0.573,0.1v2.17
		c0,0.189-0.045,0.223-0.069,0.229h-0.336c0.007-0.061,0.01-0.123,0.01-0.188c0-0.666-0.393-0.945-0.8-0.945
		c-0.337,0-0.905,0.348-0.905,0.809c0,0.459,0.373,0.684,0.609,0.684h0.559c-0.012,0.244-0.05,0.32-0.16,0.395
		c-0.141,0.092-0.625,0.107-0.759,0.088c0,0,0.024,0.324,0.443,0.324c0.322,0,0.748-0.268,0.927-0.807h2.453
		c0.24,0,0.419-0.094,0.493-0.141c0.144,0.111,0.3,0.141,0.483,0.141h1.5c0.13,0,0.251-0.176,0.29-0.359H94.98
		C94.812,23.746,94.63,23.588,94.489,23.309z M89.21,23.834c-0.213,0-0.375-0.166-0.375-0.414s0.09-0.402,0.12-0.461
		c0,0,0.493,0.008,0.538,0.875H89.21z M92.461,23.834h-1.517c0.328-0.406,0.886-0.789,1.098-0.789c0.111,0,0.288,0.098,0.482,0.498
		C92.638,23.812,92.579,23.834,92.461,23.834z M87.147,22.701c-0.483,0-0.964,0.479-1.217,0.773v-1.658
		c0-0.326,0.021-0.48,0.021-0.48s-0.374-0.008-0.571,0.1v2.17c0,0.189-0.045,0.223-0.07,0.229h-0.335
		c-0.014,0.145,0.104,0.359,0.302,0.359h2.073c0.238,0,0.421-0.094,0.493-0.141c0.249-0.189,0.268-0.244,0.187-0.492
		C87.949,23.312,87.693,22.701,87.147,22.701z M87.413,23.834h-1.517c0.328-0.406,0.887-0.789,1.098-0.789
		c0.113,0,0.288,0.098,0.48,0.498C87.59,23.812,87.531,23.834,87.413,23.834z"/>
</g>
</svg>
