<?xml version="1.0" encoding="utf-8"?>
<!-- Generator: Adobe Illustrator 25.2.3, SVG Export Plug-In . SVG Version: 6.00 Build 0)  -->
<svg version="1.1" id="Layer_1" xmlns="http://www.w3.org/2000/svg" xmlns:xlink="http://www.w3.org/1999/xlink" x="0px" y="0px"
	 viewBox="0 0 59 21.3" style="enable-background:new 0 0 59 21.3;" xml:space="preserve">
<style type="text/css">
	.st0{fill:#767676;}
</style>
<path class="st0" d="M24.5,17.8c-0.9,0-1.4-0.5-1.4-1.4V1l-1.8-1l-1.8,1v15.5c0,2.8,1.9,4.6,4.6,4.6h1.6v-3.4L24.5,17.8L24.5,17.8z
	 M0,12.8c0,5,3.4,8.4,8.5,8.4l1.2-1.8l-1.2-1.8c-3.1,0-4.9-1.8-4.9-4.9c0-3.4,2.1-5.2,6.1-5.2c0.7,0,1.8,0.1,2.2,0.2v13.4h3.6V4.8
	c-1.1-0.3-3.6-0.6-5.1-0.6C3.8,4.2,0,7.3,0,12.8z M43.5,12.8c0,5.1,3.5,8.4,9,8.4v-3.5c-3.5,0-5.4-1.7-5.4-4.9
	c0-3.4,2.1-5.2,6.1-5.2c0.7,0,1.8,0.1,2.2,0.2v12.5l1.8,1l1.8-1V4.8c-1.1-0.3-3.6-0.6-5.1-0.6C47.3,4.2,43.5,7.3,43.5,12.8z
	 M31.9,9.2c0-1.2,1-1.6,4-1.6c1.4,0,3.1,0.1,4.3,0.4V4.5c-1.1-0.2-2.8-0.4-4.2-0.4c-5.3,0-7.8,1.7-7.8,5c0,3,1.7,4.4,6.4,5.3
	c2.3,0.4,3,0.9,3,2c0,0.9-0.7,1.3-2.2,1.3h-6.1l-1.2,1.7l1.2,1.7h6.4c3.4,0,5.5-1.9,5.5-5c0-2.8-1.7-4.2-6.1-5.1
	C32.7,10.7,31.9,10.2,31.9,9.2z"/>
</svg>
