<?xml version="1.0" encoding="utf-8"?>
<!-- Generator: Adobe Illustrator 16.0.0, SVG Export Plug-In . SVG Version: 6.00 Build 0)  -->
<!DOCTYPE svg PUBLIC "-//W3C//DTD SVG 1.0//EN" "http://www.w3.org/TR/2001/REC-SVG-20010904/DTD/svg10.dtd">
<svg version="1.0" id="Layer_1" xmlns="http://www.w3.org/2000/svg" xmlns:xlink="http://www.w3.org/1999/xlink" x="0px" y="0px"
	 width="157px" height="26px" viewBox="0 0 157 26" enable-background="new 0 0 157 26" xml:space="preserve">
<g opacity="0.7">
	<path fill="#545454" d="M152.836,6.539c-1.757,1.666-5.457,3.146-7.216,3.793c-2.497,0.925-3.608,1.296-4.996,1.758
		c-1.572,0.463-4.718,1.48-4.718,1.48c6.476,1.941,11.102,2.496,11.102,2.496s2.129-0.646,5.551-2.496
		c1.852-0.925,2.685-1.48,3.332-2.128c0.276-0.186,0.924-0.833,1.018-1.666c0-0.093,0.093-0.185,0.093-0.371c0,0,0-0.092,0-0.185
		c-0.093-0.092-0.093-0.185-0.093-0.185s0-0.185-0.094-0.37c0-0.092-0.185-0.555-0.555-0.833c-0.277-0.185-0.646-0.647-2.035-1.11
		c-0.463-0.185-1.295-0.37-1.295-0.37L152.836,6.539L152.836,6.539z"/>
	<path fill="#5D5D5D" d="M157,9.314c0,0,0-0.186-0.093-0.278c0-0.185-0.093-0.277-0.185-0.462c-0.094-0.093-0.279-0.278-0.464-0.556
		c-0.185-0.092-0.37-0.277-0.555-0.462c-0.927-0.555-2.035-0.833-3.054-1.018c-1.572-0.185-3.424-0.185-3.608-0.185
		c-0.556,0-4.349,0-5.272,0.092c-4.256,0.093-9.529,0.093-10.916,0.093c-14.155,0-20.355-0.277-27.201-1.666
		c-5.828-1.11-9.066-2.22-9.066-2.22c5.182-0.185,35.249-1.48,40.707-1.573c3.609-0.093,6.107-0.185,8.143,0
		c1.109,0,2.035,0.092,3.238,0.37c1.109,0.185,2.127,0.462,2.684,0.648c1.201,0.462,2.312,1.11,2.774,1.85
		c0,0,0.187,0.093,0.37,0.37c0.186,0.37,0.463,0.741,0.557,0.833c0.739,1.203,1.108,1.851,1.201,2.128
		c0.186,0.278,0.277,0.555,0.37,0.833c0.185,0.185,0.185,0.37,0.185,0.462c0.094,0.277,0.094,0.555,0.187,0.647L157,9.314L157,9.314
		z"/>
	<path fill="#545454" d="M0,24.841c0.37-0.187,0.462-0.555,0.462-0.925v-8.234c0-0.277-0.092-0.74-0.462-0.926h3.886
		c1.758,0,3.516,0.74,3.516,2.776c0,1.018-0.925,1.851-1.943,2.034c1.48,0,2.775,0.834,2.775,2.406c0,2.312-2.313,2.867-3.978,2.867
		L0,24.841L0,24.841z M3.146,15.682c-0.185,0-0.277,0-0.647,0v3.517H2.96c1.203,0,2.313-0.37,2.313-1.759S4.348,15.682,3.146,15.682
		L3.146,15.682z M3.423,20.123c-0.277,0-0.555,0-0.925,0v3.7c0.462,0.093,0.925,0.093,1.388,0.093c1.018,0,2.035-0.37,2.035-1.943
		C5.921,20.493,4.718,20.123,3.423,20.123L3.423,20.123z M12.12,15.682c-0.185,0-0.277,0-0.462,0v3.517c0.185,0,0.277,0,0.462,0
		c1.11,0,1.943-0.647,1.943-1.851C14.062,16.145,13.23,15.682,12.12,15.682L12.12,15.682z M17.208,24.934
		c-0.37,0-0.833,0-1.202-0.185c-0.648-0.187-1.573-1.665-1.943-2.313c-0.647-0.925-1.11-2.312-2.405-2.312v3.793
		c0,0.37,0.092,0.739,0.462,0.925H9.067c0.37-0.186,0.462-0.555,0.462-0.925v-8.233c0-0.277-0.093-0.74-0.462-0.927h3.701
		c1.572,0,3.516,0.647,3.516,2.591c0,1.573-1.295,2.405-2.776,2.405c2.036,0,3.331,4.903,5.644,4.903
		C18.503,24.841,17.856,24.934,17.208,24.934L17.208,24.934z M19.244,24.841c0.277-0.092,0.555-0.463,0.555-0.925v-8.234
		c0-0.463-0.278-0.74-0.555-0.926h3.146c-0.277,0.186-0.555,0.463-0.555,0.926v8.234c0,0.462,0.278,0.833,0.555,0.925H19.244
		L19.244,24.841z M25.998,24.841c0.277-0.187,0.462-0.555,0.462-0.925v-7.957h-2.22c-0.555,0-1.11,0.092-1.573,0.277l0.74-1.48
		h7.309c0.555,0,1.203,0,1.758-0.092c-0.277,0.74-1.11,1.295-1.573,1.295c-0.555,0-1.572,0-2.405,0v7.957
		c0,0.37,0.186,0.738,0.556,0.925H25.998L25.998,24.841z M32.844,24.841c0.278-0.092,0.555-0.463,0.555-0.925v-8.234
		c0-0.463-0.277-0.74-0.555-0.926h3.146c-0.277,0.186-0.555,0.463-0.555,0.926v8.234c0,0.462,0.278,0.833,0.555,0.925H32.844
		L32.844,24.841z M42.003,22.527c0-1.851-4.534-2.312-4.534-5.366c0-1.851,1.758-2.497,3.331-2.497c0.74,0,1.757,0.092,2.405,0.37
		l0.093,1.942c-0.37-0.832-1.388-1.48-2.313-1.48c-0.739,0-1.48,0.371-1.48,1.203c0,1.943,4.626,2.498,4.626,5.365
		c0,2.035-1.85,2.961-3.701,2.961c-1.017,0-2.312-0.186-3.145-0.739c0-0.37-0.093-0.74-0.093-1.019c0-0.461,0.093-0.832,0.186-1.295
		c0.462,1.202,1.48,2.127,2.868,2.127C41.17,24.102,42.003,23.639,42.003,22.527L42.003,22.527z M51.625,24.841
		c0.185-0.092,0.462-0.463,0.462-0.925v-3.701c-0.555-0.092-1.295-0.092-2.128-0.092c-0.925,0-1.665,0-2.22,0.092v3.701
		c0,0.462,0.277,0.833,0.462,0.925h-2.96c0.185-0.092,0.462-0.463,0.462-0.925v-8.234c0-0.463-0.277-0.74-0.462-0.926h2.96
		c-0.185,0.186-0.462,0.463-0.462,0.926v3.424c0.555,0,1.295,0.093,2.22,0.093c0.833,0,1.573-0.093,2.128-0.093v-3.424
		c0-0.463-0.278-0.74-0.462-0.926h2.96c-0.278,0.186-0.463,0.463-0.463,0.926v8.234c0,0.462,0.185,0.833,0.463,0.925H51.625
		L51.625,24.841z"/>
	<path fill="#545454" d="M69.055,24.842c0.093-0.093,0.185-0.186,0.185-0.369c0,0-0.092-0.187-0.092-0.371
		c0,0-0.833-2.221-0.925-2.498c-0.648,0-1.295,0-1.943,0c-0.555,0-1.203,0-1.758,0c-0.092,0.277-1.018,2.498-1.018,2.498
		c-0.093,0.276-0.185,0.371-0.185,0.463c0,0.186,0.185,0.186,0.277,0.277h-2.035c0.278-0.186,0.555-0.464,0.74-0.74l3.238-8.604
		c0.093,0,0.093-0.093,0.093-0.093c0-0.277-0.186-0.463-0.371-0.555h2.591l3.33,9.25c0.186,0.371,0.463,0.557,0.741,0.741
		L69.055,24.842L69.055,24.842z M66.372,16.7l-1.48,3.885c0.463,0.095,0.925,0.095,1.388,0.095c0.463,0,1.018,0,1.573-0.095
		L66.372,16.7L66.372,16.7z M72.385,24.842c0.278-0.093,0.555-0.464,0.555-0.925v-8.233c0-0.463-0.277-0.74-0.555-0.834h3.146
		c-0.277,0.094-0.556,0.371-0.556,0.834v8.233c0,0.461,0.278,0.832,0.556,0.925H72.385L72.385,24.842z M80.156,15.684
		c-0.184,0-0.277,0-0.463,0v3.515c0.186,0,0.279,0,0.463,0c1.111,0,1.943-0.556,1.943-1.851
		C82.1,16.146,81.268,15.684,80.156,15.684L80.156,15.684z M85.523,24.934c-0.463,0-0.834,0-1.203-0.092
		c-0.648-0.277-1.666-1.758-2.036-2.406c-0.556-0.925-1.294-2.312-2.591-2.312v3.794c0,0.369,0.094,0.739,0.463,0.925h-3.052
		c0.37-0.186,0.462-0.556,0.462-0.925v-8.234c0-0.277-0.092-0.74-0.462-0.832h3.701c1.572,0,3.516,0.555,3.516,2.498
		c0,1.571-1.479,2.404-2.498,2.404c2.128,0.092,3.425,4.903,5.552,4.903C86.818,24.842,86.17,24.934,85.523,24.934L85.523,24.934z
		 M98.014,15.773l-3.053,9.067c-0.279,0-0.557-0.093-0.648-0.187c-0.277-0.277-0.739-1.479-0.926-1.942L92,19.197l-2.036,5.645
		h-0.925l-3.424-9.066c-0.092-0.371-0.369-0.739-0.74-0.926h2.961c-0.094,0.094-0.186,0.187-0.186,0.371
		c0,0.092,0,0.276,0.092,0.369l2.222,6.014l2.313-6.754l2.59,6.478l2.035-5.923c0-0.092,0.093-0.184,0.093-0.276
		c0-0.185-0.093-0.185-0.185-0.276h1.942C98.383,15.035,98.105,15.404,98.014,15.773L98.014,15.773z M101.621,16.7l-1.479,3.885
		c0.461,0.095,0.924,0.095,1.387,0.095c0.462,0,1.019,0,1.48-0.095L101.621,16.7L101.621,16.7z M104.212,24.842
		c0.185-0.093,0.185-0.186,0.185-0.369c0,0,0-0.187-0.092-0.371c0,0-0.74-2.221-0.926-2.498c-0.555,0-1.203,0-1.852,0
		c-0.555,0-1.201,0-1.756,0c-0.094,0.277-1.019,2.498-1.019,2.498c-0.094,0.276-0.187,0.371-0.187,0.463
		c0,0.186,0.187,0.186,0.277,0.277h-2.035c0.277-0.186,0.555-0.464,0.647-0.74l3.33-8.604l0.093-0.093
		c0-0.277-0.186-0.463-0.37-0.555h2.591l3.33,9.25c0.187,0.371,0.463,0.557,0.74,0.741L104.212,24.842L104.212,24.842z
		 M113.277,15.867l-2.312,4.162v3.888c0,0.369,0.094,0.739,0.371,0.925h-2.868c0.277-0.186,0.369-0.556,0.369-0.925v-3.888
		l-2.034-3.329c-0.186-0.277-1.019-1.759-2.129-1.759c0.277-0.092,1.203-0.277,1.758-0.277c1.02,0,1.48,0.094,2.036,1.02
		l1.942,3.051c0.186-0.276,1.666-2.959,1.666-2.959c0.186-0.277,0.277-0.555,0.277-0.647c0-0.092,0-0.185-0.187-0.276h2.129
		C113.926,15.035,113.557,15.497,113.277,15.867L113.277,15.867z M118.83,22.529c0-1.852-4.441-2.313-4.441-5.367
		c0-1.85,1.758-2.498,3.33-2.498c0.74,0,1.758,0.094,2.406,0.371l0.092,1.941c-0.369-0.832-1.387-1.479-2.312-1.479
		c-0.739,0-1.479,0.37-1.479,1.203c0,1.942,4.533,2.497,4.533,5.366c0,2.127-1.758,2.959-3.606,2.959
		c-1.02,0-2.312-0.185-3.146-0.739c0-0.369-0.092-0.647-0.092-1.019c0-0.461,0.092-0.832,0.092-1.201
		c0.557,1.108,1.572,2.033,2.868,2.033C118.09,24.102,118.83,23.639,118.83,22.529L118.83,22.529z"/>
</g>
</svg>
