<?xml version="1.0" encoding="utf-8"?>
<!-- Generator: Adobe Illustrator 16.0.0, SVG Export Plug-In . SVG Version: 6.00 Build 0)  -->
<!DOCTYPE svg PUBLIC "-//W3C//DTD SVG 1.1//EN" "http://www.w3.org/Graphics/SVG/1.1/DTD/svg11.dtd">
<svg version="1.1" id="MS" xmlns="http://www.w3.org/2000/svg" xmlns:xlink="http://www.w3.org/1999/xlink" x="0px" y="0px"
	 width="157px" height="26px" viewBox="0 0 157 26" enable-background="new 0 0 157 26" xml:space="preserve">
<g>
	<path fill="#00285D" d="M36.215,14.505L39.224,7.5L26.603,7.502c-1.591-0.034-2.435,0.759-2.981,1.967L17.199,24.43L29.8,24.447
		c1.595,0.08,2.442-0.772,2.988-1.963l2.788-6.498l0.004-0.01h-6.99l-1.256,2.926h2.649l-0.208,0.49
		c-0.201,0.502-0.745,0.879-1.222,0.879h-5.021l3.55-8.273c0.085-0.198,0.312-0.366,0.51-0.366h5.503l-1.229,2.873H36.215z"/>
	<path fill="#00285D" d="M52.247,16.925c0.62-1.358,2.415-5.578,4.048-9.426l-2.313,0.005c-1.603-0.035-2.432,0.771-2.978,1.966
		c-0.633,1.388-1.201,2.796-1.771,4.211c-0.195,0.48-0.743,0.877-1.217,0.877l-5.012-0.004l2.994-7.058l-2.312,0.008
		c-1.591-0.08-2.43,0.771-2.975,1.964c-0.619,1.357-2.414,5.577-4.046,9.426h5.162l-2.393,5.561l2.326-0.007
		c1.591,0.081,2.432-0.772,2.975-1.964c0.301-0.656,0.876-1.963,1.574-3.592l2.963-0.002C50.863,18.971,51.704,18.117,52.247,16.925
		z"/>
	<path fill="#00285D" d="M157,5.148c-5.494-4.419-12.846-4.436-18.541-2.036c-1.289,1.4-2.273,3.086-2.843,4.949
		C143.339,1.52,153.543,3.392,157,5.148z"/>
	<path fill="#00285D" d="M57.77,9.468l-6.403,14.978l2.325,0.002c1.612,0.027,2.432-0.771,2.977-1.963
		c0.298-0.657,0.873-1.984,1.571-3.615l8.109,0.021c1.648-0.004,2.432-0.772,2.977-1.966c0.62-1.358,2.414-5.578,4.048-9.426
		L60.747,7.504C59.147,7.462,58.315,8.275,57.77,9.468z M61.68,11.632h5.455l-0.896,2.048c-0.209,0.477-0.741,0.877-1.216,0.877
		h-4.941l1.09-2.559C61.256,11.801,61.485,11.632,61.68,11.632z"/>
	<path fill="#00285D" d="M8.469,15.227h5.841l1.821-4.234h-5.839l2.076-4.817c0.085-0.202,0.313-0.371,0.51-0.371h5.542L22.809,5.8
		l1.835-4.248l-12.65,0.014c-1.605-0.044-2.444,0.782-3,1.991C8.783,4.02,8.436,4.81,8.005,5.803L0,24.443l12.709,0.006
		c1.606,0.005,2.444-0.784,2.998-1.992c0.212-0.463,0.559-1.253,0.989-2.246L6.331,20.188L8.469,15.227z"/>
	<path fill="#00285D" d="M153.941,5.405c-3.307-0.478-5.145,2.182-5.1,2.146c0.506-0.385,0.943-0.708,1.346-0.965
		c0.625,0.729,1.543,0.989,2.115,0.571c0.367-0.268,0.512-0.753,0.437-1.283c0.329,0.051,0.68,0.157,1.071,0.316
		C154.016,6.262,154.247,5.43,153.941,5.405z M152.084,6.883c-0.445,0.353-1.172,0.137-1.686-0.43
		c0.692-0.417,1.278-0.626,1.916-0.617C152.436,6.246,152.322,6.693,152.084,6.883z"/>
	<path fill="#00285D" d="M148.105,6.905c-5.25,2.912-8.52,8.507-9.35,13.867c0.771,0.779,1.641,1.465,2.59,2.028
		c0.137-6.06,3.168-10.86,6.235-13.956C147.545,8.136,147.727,7.475,148.105,6.905z"/>
	<path fill="#00285D" d="M149.055,5.681c-6.212,0.962-10.836,5.373-13.231,10.446c0.397,1.1,0.942,2.13,1.61,3.068
		C139.512,11.572,145.963,6.848,149.055,5.681z"/>
	<path fill="#00285D" d="M148.628,11.48c-0.474-0.633-0.782-1.274-0.938-1.893c-2.856,3.529-4.436,9.287-4.467,14.134
		c0.945,0.369,1.941,0.629,2.978,0.766c-0.749-11.361,6.132-16.7,10.548-18.372C153.516,6.944,150.898,8.82,148.628,11.48z"/>
	<path fill="#00285D" d="M151.57,4.608c-6.326-1.319-12.361,1.365-16.393,5.462c-0.184,1.357-0.146,2.738,0.105,4.084
		C139.8,6.988,148.104,4.615,151.57,4.608z"/>
	<path fill="#00285D" d="M90.413,7.507L77.826,7.501c-1.6-0.078-2.439,0.773-2.982,1.967l-0.915,2.17l5.116-0.012l-5.473,12.815
		l2.329,0.006c1.588,0.08,2.427-0.771,2.97-1.963c0.604-1.323,2.316-5.359,3.914-9.124c0.044-0.102,0.691-1.634,0.734-1.735h5.144
		L90.413,7.507z"/>
	<path fill="#00285D" d="M94.917,7.505c-1.683-0.006-2.438,0.771-2.983,1.964c-0.623,1.357-2.424,5.577-4.062,9.426l-2.367,5.549
		l2.262,0.002c1.639,0.084,2.482-0.77,3.029-1.961c0.301-0.656,0.874-1.963,1.574-3.594h5.76l-2.299,5.558h2.256
		c1.596,0.081,2.439-0.772,2.984-1.964l6.426-14.979L94.917,7.505z M100.355,13.68c-0.207,0.479-0.744,0.877-1.223,0.877h-4.916
		l1.094-2.559c0.086-0.198,0.314-0.366,0.51-0.366h5.42L100.355,13.68z"/>
	<path fill="#00285D" d="M111.997,7.503c-1.597-0.08-2.44,0.771-2.987,1.964c-0.621,1.357-2.422,5.578-4.062,9.426l-2.37,5.549
		l2.324,0.006c1.598,0.08,2.44-0.771,2.986-1.963l6.432-14.981H111.997z"/>
	<path fill="#00285D" d="M127.34,16.925c0.624-1.358,2.426-5.578,4.062-9.426l-12.609,0.005c-1.595-0.08-2.439,0.771-2.986,1.964
		c-0.621,1.357-2.422,5.577-4.062,9.425l-2.362,5.549h2.299c1.613,0.023,2.443-0.767,2.988-1.957
		c0.303-0.657,0.879-1.984,1.58-3.615h2.244l3.76,5.574h6.031l-3.93-5.553C125.95,18.971,126.794,18.117,127.34,16.925z
		 M124.414,13.68c-0.209,0.477-0.744,0.877-1.221,0.877h-4.996l1.094-2.559c0.086-0.198,0.312-0.366,0.509-0.366h5.513
		L124.414,13.68z"/>
</g>
</svg>
