<?xml version="1.0" encoding="utf-8"?>
<!-- Generator: Adobe Illustrator 16.0.0, SVG Export Plug-In . SVG Version: 6.00 Build 0)  -->
<!DOCTYPE svg PUBLIC "-//W3C//DTD SVG 1.0//EN" "http://www.w3.org/TR/2001/REC-SVG-20010904/DTD/svg10.dtd">
<svg version="1.0"
	 id="svg2" sodipodi:docname="ZZ1.svg" inkscape:version="0.48.1 " xmlns:dc="http://purl.org/dc/elements/1.1/" xmlns:cc="http://creativecommons.org/ns#" xmlns:rdf="http://www.w3.org/1999/02/22-rdf-syntax-ns#" xmlns:sodipodi="http://sodipodi.sourceforge.net/DTD/sodipodi-0.dtd" xmlns:svg="http://www.w3.org/2000/svg" xmlns:inkscape="http://www.inkscape.org/namespaces/inkscape"
	 xmlns="http://www.w3.org/2000/svg" xmlns:xlink="http://www.w3.org/1999/xlink" x="0px" y="0px" width="157px" height="26px"
	 viewBox="0 0 157 26" enable-background="new 0 0 157 26" xml:space="preserve">
<sodipodi:namedview  inkscape:pageopacity="0" fit-margin-right="0" inkscape:window-height="1004" inkscape:pageshadow="2" fit-margin-bottom="0" inkscape:window-maximized="1" inkscape:window-y="-8" inkscape:window-x="-8" inkscape:window-width="1280" inkscape:current-layer="svg2" id="namedview58" bordercolor="#666666" inkscape:zoom="0.27847449" inkscape:cx="1776.9939" showgrid="false" inkscape:cy="-190.26831" fit-margin-top="0" pagecolor="#ffffff" borderopacity="1" fit-margin-left="0" objecttolerance="10" gridtolerance="10" guidetolerance="10">
	</sodipodi:namedview>
<g opacity="0.6">
	<path id="path6" inkscape:connector-curvature="0" fill="#888888" d="M29.03,3.591c0.229-0.105,0.486-0.076,0.729-0.08
		c0.683,0.012,1.364-0.008,2.047,0.008c0.312,0.004,0.627,0.234,0.659,0.558c0.039,0.58-0.029,1.164,0.027,1.742
		c0.051,0.36,0.41,0.58,0.76,0.548c2.981,0.002,5.965,0,8.946,0.001c0.845,0.019,1.65,0.433,2.202,1.062
		c0.825,0.969,1.139,2.367,0.74,3.584c-0.209,0.606-0.526,1.17-0.785,1.756c-1.314,2.798-2.637,5.593-3.946,8.394
		c-0.184,0.336-0.301,0.704-0.502,1.03c-0.119,0.205-0.364,0.275-0.588,0.263c-1.011-0.003-2.021-0.002-3.033,0
		c-0.267-0.007-0.571-0.038-0.765-0.245c-0.128-0.222-0.05-0.5,0.053-0.718c1.65-3.507,3.298-7.017,4.948-10.524
		c0.136-0.245,0.159-0.617-0.125-0.769c-0.421-0.229-0.923-0.116-1.379-0.122c-0.582-0.027-1.164,0.016-1.746-0.017
		c-0.988,0.046-1.978-0.037-2.965,0.013c-1.69-0.02-3.383,0.01-5.074-0.021c-0.255-0.002-0.465-0.209-0.546-0.438
		c-0.046-0.226-0.023-0.455-0.027-0.682c0.004-1.57,0.002-3.14,0-4.71C28.655,3.968,28.791,3.695,29.03,3.591z"/>
	<path id="path8" inkscape:connector-curvature="0" fill="#888888" d="M91.028,3.595c0.202-0.099,0.434-0.082,0.65-0.084
		c0.684,0.009,1.365-0.002,2.05,0.002c0.286-0.004,0.609,0.134,0.71,0.421c0.119,0.622-0.025,1.259,0.059,1.884
		c0.037,0.357,0.413,0.564,0.746,0.549c2.959-0.002,5.919,0.001,8.879-0.002c0.626,0.003,1.254,0.208,1.761,0.578
		c0.984,0.725,1.495,1.993,1.438,3.195c-0.033,0.705-0.342,1.343-0.646,1.964c-1.386,2.963-2.787,5.917-4.172,8.88
		c-0.217,0.418-0.37,0.866-0.617,1.268c-0.122,0.188-0.372,0.199-0.572,0.205c-0.963-0.001-1.926-0.004-2.889,0.001
		c-0.271-0.002-0.558-0.009-0.799-0.145c-0.227-0.153-0.19-0.477-0.1-0.697c1.599-3.405,3.206-6.81,4.802-10.217
		c0.104-0.236,0.239-0.461,0.295-0.715c0.054-0.255-0.14-0.5-0.382-0.556c-0.553-0.138-1.126-0.011-1.687-0.062
		c-2.049-0.019-4.1,0.011-6.147-0.006c-1.013,0.006-2.024-0.017-3.036,0.021c-0.379,0.034-0.729-0.314-0.707-0.691
		c0-1.721,0.001-3.442,0-5.163C90.654,3.968,90.796,3.706,91.028,3.595z"/>
	<path id="path10" inkscape:connector-curvature="0" sodipodi:nodetypes="cccccccccccccccccc" fill="#121212" d="M67.602,8.587
		c0.552-1.172,1.679-2.102,2.981-2.265c2.227-0.012,4.452,0,6.679-0.006c0.385-0.037,0.718,0.342,0.689,0.716
		c0,4.907,0,9.812,0,14.719c0.034,0.379-0.297,0.775-0.689,0.733c-0.862-0.002-1.725-0.001-2.585,0
		c-0.354,0.038-0.689-0.296-0.672-0.648c-0.04-0.765,0.035-1.53-0.027-2.296c-1.89,0.002-3.779,0.002-5.67,0
		c-0.535,0.008-1.07-0.011-1.605,0.008c-0.185,0.184-0.242,0.455-0.365,0.681c-0.285,0.559-0.506,1.148-0.825,1.689
		c-0.173,0.305-0.479,0.562-0.843,0.565c-0.838,0.001-1.678-0.001-2.515,0.001c-0.241,0.008-0.506-0.089-0.629-0.308
		c-0.127-0.222-0.013-0.475,0.068-0.69C63.597,17.187,65.598,12.886,67.602,8.587L67.602,8.587z"/>
	<path id="path12" inkscape:connector-curvature="0" sodipodi:nodetypes="ccccccccccccccccccccccccccccccccc" fill="#121212" d="
		M1.847,7.044C2.451,6.638,3.159,6.368,3.89,6.318c3.895-0.002,7.789,0.001,11.684-0.002c0.19,0.006,0.401-0.033,0.565,0.089
		c0.243,0.141,0.317,0.439,0.312,0.703c-0.003,0.836,0.004,1.672-0.003,2.508c0.016,0.242-0.157,0.516-0.424,0.494
		c-3.716-0.001-7.432,0-11.148-0.001c-0.282-0.017-0.561,0.172-0.656,0.437c-0.047,0.371,0.003,0.746-0.032,1.117
		c-0.015,0.27-0.022,0.594,0.207,0.783c0.12,0.132,0.303,0.178,0.477,0.174c3.365,0.001,6.731-0.002,10.099,0.002
		c0.339-0.011,0.613,0.301,0.606,0.631c0.012,0.659-0.002,1.319,0.005,1.979c-0.002,0.226,0.021,0.469-0.107,0.666
		c-0.072,0.127-0.213,0.188-0.328,0.271c-3.399-0.009-6.8-0.002-10.2-0.005c-0.243-0.009-0.503,0.08-0.645,0.287
		C4.151,16.644,4.215,16.9,4.2,17.124c0.022,0.383-0.074,0.774,0.036,1.15c0.104,0.245,0.369,0.393,0.632,0.386
		c3.593,0,7.185,0,10.776,0c0.317,0.002,0.639-0.019,0.952,0.04c0.041,0.271-0.12,0.501-0.229,0.734
		c-0.385,0.802-0.767,1.604-1.149,2.404c-0.158,0.298-0.399,0.674-0.784,0.645c-4.604-0.002-9.208,0-13.812-0.001
		c-0.241,0.011-0.462-0.168-0.557-0.382c-0.068-0.287-0.057-0.587-0.062-0.88c0.018-1.947-0.014-3.896,0.007-5.843
		c0.018-1.795-0.053-3.592,0.038-5.387C0.188,8.812,0.869,7.716,1.847,7.044L1.847,7.044z"/>
	<path id="path14" inkscape:connector-curvature="0" sodipodi:nodetypes="cccccccccccccccc" fill="#121212" d="M18.444,7.04
		c-0.017-0.326,0.189-0.683,0.534-0.72c0.889-0.008,1.776,0,2.665-0.003c0.343-0.025,0.629,0.307,0.617,0.637
		c0,3.67,0,7.34,0,11.008c-0.028,0.369,0.287,0.719,0.662,0.698c3.342,0.003,6.684,0,10.024,0.001
		c0.341,0.006,0.687-0.021,1.022,0.042c0,0.132,0.002,0.267-0.065,0.386c-0.407,0.854-0.819,1.702-1.221,2.558
		c-0.17,0.337-0.373,0.784-0.793,0.836c-4.279,0.004-8.558,0.001-12.838,0.002c-0.312,0.012-0.58-0.271-0.597-0.574
		c-0.038-0.43-0.006-0.862-0.018-1.293c0.001-0.354,0.001-0.709,0-1.063C18.444,15.382,18.438,11.212,18.444,7.04L18.444,7.04z"/>
	<path id="path16" inkscape:connector-curvature="0" fill="#888888" d="M48.56,6.476c0.184-0.127,0.416-0.109,0.628-0.112
		c0.911,0.011,1.822-0.005,2.731,0.006c0.3-0.01,0.569,0.212,0.623,0.505c0.826,3.75,1.678,7.492,2.5,11.241
		c0.068,0.269,0.087,0.573,0.273,0.793c0.246,0.03,0.347-0.233,0.436-0.413c1.682-3.92,3.384-7.833,5.064-11.753
		c0.074-0.214,0.266-0.381,0.501-0.37c1.065-0.015,2.131,0.004,3.196-0.008c0.201,0,0.44-0.018,0.584,0.157
		c0.232,0.214,0.256,0.56,0.111,0.832c-1.691,3.813-3.398,7.62-5.096,11.431c-0.492,1.072-1.077,2.177-2.062,2.874
		c-0.917,0.651-2.08,0.793-3.178,0.798c-3.768-0.004-7.535,0-11.304,0c-0.259-0.011-0.562-0.038-0.719-0.272
		c-0.185-0.21-0.021-0.496,0.062-0.716c0.393-0.802,0.759-1.614,1.146-2.418c0.116-0.289,0.442-0.365,0.725-0.356
		c2.051-0.001,4.101,0.003,6.148-0.003c-0.208-1.111-0.495-2.208-0.729-3.316c-0.628-2.75-1.243-5.505-1.872-8.257
		C48.255,6.88,48.339,6.599,48.56,6.476L48.56,6.476z"/>
	<path id="path18" inkscape:connector-curvature="0" sodipodi:nodetypes="cccccccccccccc" fill="#121212" d="M80.462,7.035
		c-0.062-0.35,0.225-0.729,0.589-0.718c0.86,0,1.722,0.001,2.583,0c0.343-0.027,0.632,0.309,0.629,0.636
		c0.001,3.695-0.001,7.39,0.001,11.082c-0.009,0.349,0.312,0.644,0.655,0.625c3.087,0.003,6.173,0,9.259,0.001
		c0.595,0.02,1.194-0.044,1.786,0.043c0.035,0.27-0.124,0.498-0.229,0.732c-0.391,0.803-0.77,1.61-1.16,2.414
		c-0.154,0.294-0.391,0.66-0.77,0.634c-4.252-0.002-8.504,0-12.755,0c-0.333,0.01-0.628-0.316-0.589-0.648
		C80.464,16.902,80.464,11.968,80.462,7.035L80.462,7.035z"/>
	<path id="path20" inkscape:connector-curvature="0" fill="#888888" d="M109.617,6.894c-0.133-0.194-0.058-0.49,0.201-0.506
		c0.829-0.051,1.663-0.006,2.493-0.021c0.429,0.014,0.888-0.064,1.285,0.139c0.454,0.239,0.638,0.746,0.896,1.158
		c1.16,2.053,2.331,4.102,3.492,6.153c0.135,0.249,0.265,0.504,0.467,0.708c1.21-2.581,2.409-5.167,3.612-7.751
		c0.092-0.231,0.307-0.422,0.567-0.407c0.887,0,1.772-0.006,2.661,0.003c0.354-0.01,0.691,0.24,0.769,0.591
		c0.056,0.389-0.064,0.772-0.186,1.137c-0.229,0.707-0.601,1.354-0.896,2.033c-1.34,2.885-2.687,5.768-4.03,8.65
		c-0.083,0.13,0.009,0.268,0.071,0.385c0.497,0.875,0.996,1.749,1.489,2.627c0.059,0.148,0.188,0.353,0.056,0.495
		c-0.156,0.159-0.401,0.158-0.608,0.167c-0.964-0.005-1.928,0-2.89-0.002c-0.358,0.002-0.73-0.162-0.896-0.493
		c-1.5-2.626-2.979-5.262-4.485-7.883c-0.229,0.214-0.311,0.521-0.444,0.794c-0.657,1.387-1.308,2.777-1.964,4.165
		c-0.307,0.642-0.562,1.318-1.026,1.868c-0.416,0.479-0.897,0.924-1.487,1.179c-0.742,0.322-1.567,0.381-2.368,0.373
		c-0.272-0.002-0.566,0.008-0.811-0.138c-0.172-0.12-0.159-0.367-0.07-0.535c1.873-3.967,3.73-7.941,5.604-11.908
		c0.066-0.146,0.024-0.312-0.057-0.441C110.575,8.589,110.092,7.743,109.617,6.894L109.617,6.894z"/>
	<path id="path22" inkscape:connector-curvature="0" sodipodi:nodetypes="ccccccccccccc" fill="#121212" d="M131.665,6.333
		c1.743-0.035,3.491-0.006,5.235-0.016c6.552,0,13.104,0,19.655,0c0.201-0.014,0.401,0.141,0.436,0.344
		c0.042,0.235-0.072,0.458-0.167,0.665c-0.318,0.663-0.618,1.334-0.936,1.998c-0.146,0.319-0.415,0.567-0.729,0.715
		c-0.349,0.154-0.74,0.117-1.109,0.121c-7.688,0-15.377,0-23.065,0c-0.376-0.019-0.765,0.056-1.127-0.067
		c-0.298-0.127-0.269-0.519-0.16-0.768c0.354-0.745,0.694-1.495,1.046-2.24C130.919,6.71,131.28,6.458,131.665,6.333L131.665,6.333z
		"/>
	<path id="path24" inkscape:connector-curvature="0" fill="#FFFFFF" d="M71.025,10.188c0.091-0.167,0.25-0.329,0.455-0.318
		c0.688-0.021,1.377-0.006,2.063-0.007c0.317-0.025,0.604,0.278,0.582,0.589c0.002,1.644,0.004,3.288,0,4.933
		c0.022,0.315-0.273,0.598-0.584,0.584c-1.741-0.002-3.483,0.004-5.227-0.004C69.214,14.035,70.128,12.114,71.025,10.188
		L71.025,10.188z"/>
	<path id="path26" inkscape:connector-curvature="0" sodipodi:nodetypes="ccccccccccccccccccc" fill="#121212" d="M139.484,12.587
		c0.462-0.502,0.863-1.065,1.376-1.52c0.088,0.102,0.174,0.21,0.222,0.339c0.146,0.394,0.296,0.786,0.442,1.181
		c0.611,0.018,1.229-0.035,1.839,0.026c0.241,0.036,0.204,0.353,0.085,0.5c-0.374,0.49-0.81,0.931-1.196,1.41
		c0.163,0.386,0.307,0.778,0.45,1.171c0.053,0.16,0.073,0.423-0.142,0.463c-0.586,0.137-1.193,0.031-1.786,0.075
		c-0.411,0.422-0.763,0.897-1.174,1.321c-0.064,0.084-0.17,0.104-0.268,0.089c-0.231-0.452-0.378-0.942-0.562-1.414
		c-0.618-0.026-1.242,0.038-1.855-0.034c-0.263-0.032-0.227-0.357-0.099-0.516c0.373-0.494,0.831-0.924,1.196-1.426
		c-0.135-0.44-0.353-0.854-0.469-1.301c-0.06-0.21,0.166-0.341,0.348-0.345C138.421,12.562,138.953,12.599,139.484,12.587z"/>
	<path id="path28" inkscape:connector-curvature="0" sodipodi:nodetypes="cccccccccccc" fill="#121212" d="M125.996,18.673
		c3.733-0.025,7.47-0.004,11.204-0.012c4.504,0.001,9.009-0.001,13.514,0.002c0.248-0.025,0.521,0.172,0.502,0.438
		c0.021,0.196-0.084,0.37-0.159,0.542c-0.311,0.656-0.615,1.316-0.921,1.977c-0.23,0.498-0.752,0.923-1.324,0.865
		c-8.191-0.005-16.383,0.003-24.574-0.004c-0.358,0-0.498-0.436-0.354-0.718c0.242-0.569,0.521-1.124,0.776-1.688
		c0.179-0.347,0.288-0.748,0.584-1.021C125.451,18.86,125.71,18.705,125.996,18.673z"/>
</g>
</svg>
