<?xml version="1.0" encoding="utf-8"?>
<!-- Generator: Adobe Illustrator 24.0.1, SVG Export Plug-In . SVG Version: 6.00 Build 0)  -->
<svg version="1.1" id="IB" xmlns="http://www.w3.org/2000/svg" xmlns:xlink="http://www.w3.org/1999/xlink" x="0px" y="0px"
	 viewBox="0 0 59 26" style="enable-background:new 0 0 59 26;" xml:space="preserve">
<style type="text/css">
	.st0{fill-rule:evenodd;clip-rule:evenodd;fill:#1A3171;}
</style>
<g transform="matrix(1.25 0 0 -1.25 0 128.79)">
	<g transform="matrix(1.0365 0 0 1.0365 0 -1.2716)">
		<path class="st0" d="M7.05333,85.79506h5.21546c-0.49511,0.82498-0.77968,1.79079-0.77968,2.82282
			c0,4.2358,3.43365,7.66916,7.66974,7.66916l26.25628-0.12115l-1.35521-4.7249h-5.17996L35.9046,81.06992H30.3306l2.97419,10.37107
			h-5.23336c0.49511-0.82519,0.77959-1.79076,0.77959-2.82317c0-4.23492-3.43365-7.66886-7.66945-7.66886l-0.13787,0.00082
			L0.12289,81.06987l4.3291,15.09596h5.57517L7.05333,85.79506z M16.98459,88.61768c0,1.75922,1.42633,3.18513,3.18543,3.18513
			c1.75949,0,3.18573-1.42597,3.18573-3.18513c0-1.75925-1.4261-3.18543-3.18573-3.18543
			C18.4108,85.43224,16.98459,86.85834,16.98459,88.61768z M19.4323,88.0696l1.7753,3.56069
			c0.2189-0.1068,0.36616-0.34014,0.36616-0.59997c0-0.1232-0.03289-0.23874-0.09192-0.33718l-1.52808-2.5433l0.51609,0.07966
			c0.02661,0.00414,0.0541,0.00607,0.08195,0.00607c0.28847,0,0.52228-0.23413,0.52228-0.52261h1.43812l-0.1293,0.16275h-0.263
			L22.062,87.95535h0.76445c0.0825-0.13751,0.2292-0.2324,0.39882-0.24238l-0.02462-0.07965h-3.23326l1.33725-1.02611
			c0.14843-0.11369,0.2415-0.2951,0.2415-0.49649c0-0.1734-0.06901-0.33315-0.18258-0.44696l-2.00438,1.96956h-2.21942
			l-0.02465,0.07965l2.31706,0.35677"/>
		<path class="st0" d="M7.2276,100.24437h0.42499l-0.58486-2.03983H6.64265L7.2276,100.24437z M28.95057,99.90453l0.09776,0.33984
			h-0.97705c-0.26793,0-0.54531-0.12851-0.62324-0.40002l-0.09248-0.32342c-0.06361-0.2219,0.06326-0.42405,0.38051-0.42405h0.47642
			c0.06795,0,0.16216-0.03793,0.10853-0.22383l-0.02315-0.08195c-0.04322-0.14993-0.17706-0.24675-0.29994-0.24675h-0.9218
			l-0.09741-0.33981h1.02288c0.26934,0,0.58257,0.10521,0.68538,0.46243l0.07221,0.25135
			c0.10234,0.35587-0.15186,0.51862-0.39656,0.51862H27.9137c-0.06338,0-0.15242,0.01569-0.11633,0.14209l0.03406,0.11862
			c0.04583,0.16081,0.13294,0.20688,0.25385,0.20688H28.95057z M21.72151,100.24467h0.42499l-0.5851-2.04012h-0.42496
			L21.72151,100.24467z M16.56239,100.24467h0.42519l-0.5851-2.04012h-0.42484L16.56239,100.24467z M20.02215,100.24467h0.42487
			l-0.48734-1.70031h0.9343l-0.09741-0.33981h-1.35961L20.02215,100.24467z M10.58673,100.24437l-0.58439-2.03983h0.408
			l0.23173,0.80717h1.03664l-0.23149-0.80717h0.40788l0.58498,2.03983h-0.4078l-0.25614-0.89284h-1.03687l0.25602,0.89284H10.58673z
			 M24.93775,98.20454l0.5851,2.03983h1.44578l-0.09741-0.33984h-1.05671l-0.1342-0.46759l0.87767,0.00021l-0.09741-0.34002
			h-0.87755l-0.15852-0.55276h1.05671l-0.09764-0.33981H24.93775z M22.32641,98.20454l0.58448,2.04012h0.53261l0.42748-1.53014
			c0.0353-0.12572,0.0353-0.17017,0.0353-0.17017l0.48789,1.7003h0.36308l-0.58451-2.04012h-0.54622L23.21175,99.734
			c-0.02978,0.11058-0.03277,0.18062-0.03277,0.18062l-0.48927-1.71008H22.32641z M9.71935,99.90453l0.09788,0.33984H8.84007
			c-0.26784,0-0.54519-0.12851-0.62312-0.40002l-0.0926-0.32342c-0.06373-0.2219,0.06349-0.42405,0.38063-0.42405h0.47619
			c0.06807,0,0.1624-0.03793,0.10876-0.22383l-0.02338-0.08195c-0.0431-0.14993-0.17683-0.24675-0.29982-0.24675H7.84503
			l-0.09753-0.33981h1.02311c0.26934,0,0.58234,0.10521,0.68526,0.46243l0.07221,0.25135
			c0.10234,0.35587-0.15186,0.51862-0.39679,0.51862H8.68248c-0.06337,0-0.15242,0.01569-0.11633,0.14209l0.03418,0.11862
			c0.04595,0.16081,0.13294,0.20688,0.25385,0.20688H9.71935z M5.52815,100.24467h0.42487l-0.48754-1.70031h0.93451
			l-0.09741-0.33981H4.94308L5.52815,100.24467z M1.61127,99.90453c0.13352,0,0.15552-0.11436,0.13432-0.18795l-0.06762-0.23586
			c-0.05547-0.19165-0.22899-0.25617-0.32309-0.25617H0.83765l0.19506,0.67999H1.61127z M0.70816,100.24467l-0.58542-2.04012
			h0.42508L0.754,98.92715h0.64375c0.20859,0,0.57512,0.10175,0.66335,0.4095l0.10659,0.37188
			c0.11346,0.39559-0.22956,0.53613-0.38027,0.53613H0.70816z M17.71415,100.24437h1.07939
			c0.15072,0,0.49306-0.13995,0.38016-0.5356l-0.06566-0.2292c-0.09213-0.32207-0.48525-0.35381-0.48525-0.35381
			c0.31288-0.12915,0.32377-0.20514,0.28445-0.49625c-0.03897-0.29111,0.00264-0.40914,0.02042-0.42496h-0.38567
			c0,0-0.07907,0.10979-0.02465,0.39515c0.06499,0.34304-0.037,0.36813-0.13179,0.36998h-0.61408l-0.21773-0.76513h-0.42487
			L17.71415,100.24437z M18.61729,99.90453c0.1335,0,0.1553-0.11436,0.13443-0.18795l-0.06763-0.23586
			c-0.04677-0.12804-0.20344-0.17079-0.29777-0.17079h-0.51712l0.16964,0.5946H18.61729z M15.46736,98.20454l-0.21224,2.03983
			H14.7875l-1.40224-2.03983h0.45157l0.26875,0.42531l0.91939-0.00035l0.01778-0.42496H15.46736z M15.01215,98.93552
			l-0.04046,0.96936c-0.00197,0.04572,0.00687,0.10509,0.00687,0.10509l-0.06475-0.10545l-0.61488-0.96924L15.01215,98.93552z
			 M3.10778,98.54469h0.57673c0.15345,0,0.33122,0.12414,0.39172,0.33488l0.20746,0.72375
			c0.05214,0.18108-0.10064,0.29856-0.19405,0.29832l-0.5868-0.00114c-0.16275-0.00032-0.3382-0.13557-0.38382-0.29454
			l-0.19735-0.68741C2.84763,98.66045,2.99617,98.54469,3.10778,98.54469z M3.54583,100.24173h0.57283
			c0.29912,0,0.64926-0.27245,0.55045-0.61742l-0.24675-0.86127c-0.09571-0.33374-0.45832-0.55849-0.79561-0.55849H3.17679
			c-0.42945,0-0.75803,0.30921-0.64181,0.71401l0.22555,0.78654c0.0957,0.33351,0.44937,0.53663,0.78531,0.53663"/>
	</g>
</g>
</svg>
