<svg id="Alaska" xmlns="http://www.w3.org/2000/svg" viewBox="0 0 110 32.71"><defs><style>.cls-1{fill:#08426a;}</style></defs><title>logo_pos_Alaska</title><path class="cls-1" d="M73.06,2,60.79,22.75a15.51,15.51,0,0,0-2.24,6.32H53.78c.29-2.62,1.36-5.06,3.41-8.66l8.66-14.5C67.6,3,69.26,2,72.37,2Zm-1,21.71c-.87.88-2.72,2.14-4.09,2.14-1.07,0-1.07-1-.39-2.34,2.63-5,5.36-7.59,8.77-7.59H77l-4.87,7.79Zm4.58-10.61c-6.23,0-10,3.6-13.53,11.58-.88,2-1.37,4.48,1.55,4.38A13,13,0,0,0,71,26.74,22.22,22.22,0,0,0,70.82,29H75.2a16.79,16.79,0,0,1,2.24-6.43l5.45-9.15c-2-.1-4.09-.29-6.23-.29Zm40.49,10.61c-.87.88-2.72,2.14-4.09,2.14-1.07,0-1.07-1-.38-2.34,2.62-5,5.35-7.59,8.76-7.59H122l-4.87,7.79Zm4.58-10.61c-6.23,0-10,3.6-13.53,11.58-.88,2-1.37,4.48,1.55,4.38a13,13,0,0,0,6.33-2.33,5.52,5.52,0,0,0-.19,2.14h4.38a16.84,16.84,0,0,1,2.24-6.43L128,13.3c-1.95,0-4.09-.19-6.23-.19Z" transform="translate(-20.1 -0.75)"/><path class="cls-1" d="M107.42,33.45H106a4.23,4.23,0,0,1-4-3.11l-2.14-8.18-4,6.82H91.16l13-22.1C105.86,4,107.52,3,110.63,3h.59l-8.67,14.7,6.52-4.47h5.16l-10.9,7.59,4.09,12.65ZM64.39.75C60,.75,57.68,1.91,53.39,5L38.79,15.54H29.54c-2.72,0-4.86.1-6.62,1.75l-2.43,2.24s7-.29,13.63-.48l-14,10h6L40.45,18.75c2.82-.09,4.67-.19,4.67-.19a6.9,6.9,0,0,0,5.16-3H44.83L56.41,7.17,47.84,21.09a22,22,0,0,0-3.11,8h5a13.89,13.89,0,0,1,2.24-6.32L63.61,3.18C64.49,1.82,65.17.75,65.17.75ZM87.75,17.59c-.09.39.1.68,1,1.26l1.36.88a3.68,3.68,0,0,1,1.85,3.5c-.49,3.22-2.92,5.94-8,5.94A33.91,33.91,0,0,1,78,28.68l2-3.31a25.36,25.36,0,0,0,4.29.49c1.94,0,2.72-.88,2.82-1.56.1-.39-.1-.87-1.07-1.55L85,22c-1.75-1.27-2.14-2.24-2-3.6.39-2.92,3.7-5.07,8.47-5.07a40.57,40.57,0,0,1,4.77.3l-1.85,3.21a30.27,30.27,0,0,0-4.28-.1c-1.56-.19-2.34.2-2.44.88Zm39.82,6.71a2.58,2.58,0,0,1,2.53,2.53,2.48,2.48,0,1,1-5,0A2.62,2.62,0,0,1,127.57,24.3Zm0,4.58a2,2,0,1,0-1.95-2.05A2,2,0,0,0,127.57,28.88Zm-.29-.68h-.49V25.47h1a1,1,0,0,1,1,.88.85.85,0,0,1-.59.78l.59,1.07h-.59l-.58-1h-.2l-.09,1Zm.39-1.46a.44.44,0,0,0,.48-.39c0-.29-.19-.39-.48-.39h-.39v.78Z" transform="translate(-20.1 -0.75)"/></svg>