<?xml version="1.0" encoding="utf-8"?>
<!-- Generator: Adobe Illustrator 23.0.2, SVG Export Plug-In . SVG Version: 6.00 Build 0)  -->
<svg version="1.1" id="Layer_1" xmlns="http://www.w3.org/2000/svg" xmlns:xlink="http://www.w3.org/1999/xlink" x="0px" y="0px"
	 viewBox="0 0 170.1 85.8" style="enable-background:new 0 0 170.1 85.8;" xml:space="preserve">
<style type="text/css">
	.st0{fill:#24275F;}
	.st1{fill:#A7A9AC;}
	.st2{fill:#FFFFFF;}
	.st3{fill:#549F60;}
	.st4{fill:url(#SVGID_1_);}
	.st5{fill:url(#SVGID_2_);}
	.st6{fill:#F15D4A;}
	.st7{fill:url(#SVGID_3_);}
	.st8{fill:url(#SVGID_4_);}
	.st9{fill:#5C5A91;}
	.st10{fill:url(#SVGID_5_);}
	.st11{fill:url(#SVGID_6_);}
	.st12{fill:url(#SVGID_7_);}
	.st13{fill:url(#SVGID_8_);}
	.st14{fill:#010101;}
	.st15{opacity:0.15;fill:#FFFFFF;enable-background:new    ;}
	.st16{fill:url(#SVGID_9_);}
	.st17{fill:url(#SVGID_10_);}
	.st18{fill:none;stroke:#000000;stroke-miterlimit:10;}
	.st19{fill:#D9D9D9;}
	.st20{fill:#262626;}
	.st21{fill:#9E9E9E;}
</style>
<path class="st0" d="M78.9,52.7c0.1-0.3,0.2-0.5,0.4-0.6h-2.5c0.2,0.2,0.3,0.4,0.4,0.7c0,0.2,0.1,0.2,0.1,0.4v6
	c0,0.2-0.1,0.3-0.1,0.5c-0.1,0.3-0.2,0.5-0.4,0.6h2.5c-0.2-0.2-0.2-0.3-0.4-0.6c0-0.2-0.1-0.2-0.1-0.5v-6
	C78.9,52.9,78.9,52.8,78.9,52.7z M75.7,60.4c-0.5-0.5-0.7-0.8-1.1-1.3c-0.7-1-1.1-1.5-1.7-2.4c-0.1-0.1-0.2-0.2-0.2-0.3
	c0.3-0.2,0.5-0.2,0.8-0.4c0.2-0.2,0.4-0.3,0.6-0.6c0.2-0.4,0.2-0.6,0.2-1c0.1-0.2,0-0.2,0-0.5c0-1.1-1.1-1.8-2.3-1.8h-4
	c0.2,0.2,0.2,0.3,0.3,0.6c0.1,0.2,0.1,0.3,0.1,0.5v6.2c0,0.2,0,0.2-0.1,0.4c-0.1,0.3-0.2,0.5-0.3,0.6h2.5c-0.2-0.2-0.3-0.3-0.4-0.6
	C70,59.5,70,59.3,70,59.1v-6.2c0.5,0,0.7-0.1,1.2,0c0.8,0,1.4,0.6,1.4,1.3v0.5c0,0.2-0.1,0.4-0.2,0.7c-0.2,0.3-0.3,0.4-0.6,0.6
	c-0.3,0.2-0.6,0.2-1,0.3c0.1,0.2,0.2,0.2,0.3,0.4c0.2,0.4,0.3,0.6,0.6,0.9c0.5,0.7,0.7,1.1,1.2,1.8c0.4,0.6,0.6,0.9,1.1,1.3
	c0.3,0.3,0.5,0.5,0.9,0.6c0.3,0.1,0.6,0.2,0.9,0.2H77c-0.2-0.2-0.3-0.2-0.5-0.3C76.2,60.9,76,60.7,75.7,60.4z M82.8,54.8
	c0.5-1.3,1.4-2.1,2.8-2.1h0.6c0.7,0,1.2,0.2,1.7,0.6c0.2,0.2,0.2,0.3,0.3,0.5l0.5-1.4c-0.2-0.1-0.4-0.2-0.6-0.2
	c-0.4-0.2-0.6-0.2-1-0.3c-0.3,0-0.5-0.1-0.8-0.1h-1.1c-0.3,0-0.5,0.1-0.7,0.2c-0.4,0.1-0.6,0.1-1,0.2c-0.9,0.4-1.4,0.9-1.9,1.7
	c-0.2,0.4-0.3,0.6-0.5,1c-0.1,0.3-0.2,0.5-0.2,0.8v0.9c0,0.1,0,0.2,0,0.2c0.1,0.2,0.1,0.2,0.1,0.5c0.1,0.3,0.2,0.6,0.3,0.9
	c0.2,0.6,0.4,0.8,0.9,1.2c0.4,0.3,0.6,0.6,1.1,0.8c0.5,0.2,0.7,0.2,1.2,0.4c0.3,0,0.5,0.1,0.7,0.1h1.1c0.2,0,0.3-0.1,0.6-0.1
	c0.2-0.1,0.5-0.1,0.8-0.2c0.1-0.1,0.1-0.1,0.3-0.2c0.1-0.1,0-0.2,0.1-0.3c0.1-0.2,0.1-0.4,0.2-0.7c-0.6,0.2-1,0.5-1.7,0.5h-0.7
	c-0.5,0-0.7-0.1-1.2-0.2c-1-0.4-1.6-1-1.8-2.1c-0.1-0.2-0.2-0.4-0.2-0.6v-1C82.7,55.3,82.8,55.1,82.8,54.8z M58.2,57.5
	c-0.2-0.3-0.2-0.6-0.4-0.8c-0.2-0.6-0.5-1.3-0.9-2.1c-0.6-1.4-1-2.3-1.6-3.7c-0.3-0.8-0.6-1.2-0.9-2.1c-0.9,2.3-1.4,3.5-2.3,5.8
	c-0.4,0.8-0.6,1.3-0.9,2.1c-0.2,0.2-0.2,0.5-0.3,0.8c-0.5,1.2-0.7,2-1.7,2.8h2.5c-0.2-0.2-0.2-0.4-0.2-0.6c0-0.6,0.2-0.8,0.4-1.3
	l0.3-0.9c0.1-0.2,0.1-0.2,0.2-0.4h3.6c0.1,0.2,0.1,0.2,0.2,0.4c0.2,0.3,0.2,0.5,0.3,0.8c0.2,0.5,0.4,0.7,0.4,1.2
	c0.1,0.1,0.1,0.1,0.1,0.2c0,0.3-0.1,0.4-0.2,0.6h3.2C58.8,59.6,58.7,58.7,58.2,57.5z M52.8,56.1l1.3-3.3l1.3,3.3H52.8z M44.9,52.7
	c0.1-0.3,0.2-0.5,0.4-0.6h-2.5c0.2,0.2,0.3,0.3,0.4,0.6c0,0.2,0.1,0.2,0.1,0.5v2.4h-4v-2.4c0-0.5,0.2-0.8,0.5-1.1h-2.5
	c0.2,0.2,0.3,0.4,0.4,0.7c0,0.2,0.1,0.2,0.1,0.5v5.9c0,0.6-0.1,0.9-0.5,1.2h2.5c-0.3-0.3-0.5-0.6-0.5-1.1v-2.5c0-0.1,0-0.1,0-0.2h4
	v2.6c0,0.2-0.1,0.4-0.2,0.6c-0.1,0.2-0.2,0.4-0.3,0.6h2.5c-0.2-0.2-0.2-0.3-0.4-0.6c0-0.2-0.1-0.3-0.1-0.6v-6
	C44.8,52.9,44.9,52.8,44.9,52.7z M60.9,52.7C61,52.9,61,53,61,53.1v6c0,0.2-0.1,0.3-0.1,0.6c-0.1,0.2-0.2,0.4-0.4,0.6h2.5
	c-0.3-0.3-0.4-0.6-0.5-1.1v-2.7h2.3c0.4,0,0.7,0.1,1,0.2c0.1,0.1,0.2,0.2,0.2,0.2v-1.8c-0.2,0.1-0.2,0.1-0.2,0.2
	c-0.4,0.2-0.6,0.2-1,0.2h-2.3V53h2.5c0.5,0,0.9,0.1,1.2,0.5l0.4-1.5h-6.2C60.8,52.3,60.9,52.4,60.9,52.7z M104.2,52.6
	c0.1,0.2,0.1,0.3,0.1,0.6v4.6l-0.8-1L99.8,52h-2c0.3,0.3,0.4,0.6,0.4,1.2v6c0,0.2,0,0.2-0.1,0.4c-0.1,0.3-0.2,0.5-0.3,0.6h2.1
	c-0.2-0.2-0.2-0.3-0.4-0.6c0-0.2-0.1-0.3-0.1-0.5v-5.2l2.1,2.6l2.8,3.6h1.3v-7.1c0-0.5,0.2-0.8,0.5-1.1h-2.1
	C104.1,52.2,104.2,52.3,104.2,52.6z M6.4,54.3c-0.9-0.4-1.4-0.6-2.2-1.1c-0.5-0.3-0.7-0.6-0.7-1.2c0-0.1,0-0.2,0-0.2
	c0.1-0.6,0.5-1,1-1.3c0.2-0.1,0.4-0.2,0.7-0.2h0.5c0.4,0,0.6,0.1,1,0.2c0.4,0.2,0.6,0.3,0.9,0.6c0.2,0.2,0.2,0.4,0.4,0.6l0.6-1.5
	c0-0.1-0.1-0.1-0.1-0.1c-0.2-0.1-0.2-0.1-0.3-0.2c-0.3-0.2-0.5-0.2-0.9-0.4c-0.2-0.1-0.5-0.1-0.7-0.2H4.3c-0.3,0.1-0.5,0.2-0.8,0.2
	c-1.1,0.4-1.8,1.1-1.9,2.3v0.2c0,1.5,1,2.3,2.4,2.9c0.9,0.5,1.3,0.6,2.1,1.2c0.1,0.1,0.2,0.2,0.3,0.2c0.2,0.3,0.4,0.6,0.4,1
	c0,1-1,1.7-2,1.7H4.4c-0.4,0-0.6,0-0.9-0.2c-0.8-0.2-1.1-0.6-1.6-1.2l-0.6,1.7c0.6,0.3,1,0.4,1.6,0.6c0.4,0.1,0.6,0.2,1.1,0.2
	c0.5,0,0.8,0.1,1.3,0c1-0.1,1.5-0.2,2.3-0.7c0.8-0.6,1.1-1.2,1.2-2.1v-0.4c0-0.2-0.1-0.4-0.1-0.6C8.3,55.6,7.5,54.9,6.4,54.3z
	 M29.1,53.4c0.2-0.2,0.3-0.3,0.6-0.4s0.4-0.2,0.6-0.2h1.4v6.3c0,0.6-0.2,0.9-0.5,1.2h2.5c-0.2-0.2-0.2-0.3-0.3-0.6
	c-0.1-0.2-0.2-0.3-0.2-0.6v-6.3c0.6,0,1-0.1,1.5,0c0.3,0,0.6,0,0.9,0.2c0.1,0.1,0.2,0.2,0.2,0.2l0.3-1.3h-7.5L29.1,53.4z M26.1,52.7
	c0,0.1,0.1,0.2,0.1,0.3v4.4c0,0.3-0.1,0.6-0.2,0.9c-0.1,0.3-0.2,0.5-0.4,0.8c-0.2,0.2-0.3,0.3-0.6,0.4c-0.2,0.1-0.3,0.2-0.6,0.2H24
	c-0.2,0-0.4-0.1-0.6-0.2c-0.3-0.2-0.5-0.2-0.6-0.5c-0.2-0.2-0.3-0.5-0.4-0.8c-0.1-0.2-0.1-0.4-0.1-0.6v-4.4c0-0.5,0.2-0.8,0.4-1.1
	h-2.5c0.2,0.2,0.2,0.3,0.3,0.6c0.1,0.2,0.2,0.3,0.2,0.6v4.2c0,0.5,0,0.8,0.2,1.2c0.2,0.5,0.3,0.7,0.6,1.1c0.2,0.2,0.3,0.3,0.6,0.4
	c0.2,0.2,0.3,0.2,0.6,0.3c0.4,0.1,0.6,0.2,1.1,0.2h1c0.6,0,0.8-0.1,1.3-0.2c0.4-0.2,0.6-0.3,1-0.7c0.4-0.5,0.6-0.8,0.6-1.4
	c0.1-0.2,0.1-0.4,0.1-0.7v-0.7c0.1-1.3,0-2.1,0.1-3.6c0-0.5,0.1-0.8,0.4-1.1h-2.2C26,52.2,26,52.4,26.1,52.7z M96.6,59.3
	c-0.2-0.5-0.3-0.7-0.6-1.2c-0.2-0.6-0.5-1-0.6-1.4c-0.2-0.2-0.2-0.5-0.4-0.8c-0.4-0.7-0.6-1-0.9-1.7c-0.2-0.6-0.4-0.9-0.6-1.4
	c-0.2-0.2-0.2-0.4-0.3-0.7c-0.2-0.2-0.2-0.3-0.3-0.6c-0.1,0.3-0.2,0.6-0.4,0.9c-0.2,0.5-0.3,0.8-0.6,1.3c-0.4,0.9-0.6,1.3-1,2.2
	c-0.2,0.3-0.3,0.6-0.4,0.8c-0.2,0.4-0.4,0.8-0.6,1.3c-0.5,1-0.7,1.5-1.3,2.3h2.1c-0.2-0.1-0.2-0.3-0.2-0.6c0-0.4,0.2-0.6,0.3-1
	c0.2-0.4,0.2-0.6,0.4-1h2.9c0.2,0.4,0.2,0.6,0.4,1c0.2,0.4,0.3,0.6,0.3,1c0,0.2-0.1,0.4-0.3,0.6h2.8C96.9,59.9,96.8,59.7,96.6,59.3z
	 M93.7,56.8h-2.1l0.1-0.1l1-2.3L93.7,56.8L93.7,56.8L93.7,56.8z M15.6,51.5c-0.3-0.1-0.5-0.1-0.8-0.1H14c-0.3,0-0.4,0-0.7,0.1
	c-0.2,0.1-0.5,0.1-0.7,0.2c-0.7,0.2-1,0.5-1.5,1c-0.4,0.6-0.6,1-0.8,1.7C10.1,55,10,55.2,10,55.6v1.1c0.1,0.2,0.1,0.3,0.2,0.5
	c0.1,0.3,0.1,0.6,0.2,0.9c0.6,1.3,1.3,2,2.5,2.3c0.4,0.2,0.6,0.2,1,0.2h0.8c0.4,0,0.6,0,1-0.2c1.3-0.4,2.1-1.1,2.6-2.5
	c0.1-0.3,0.2-0.6,0.2-0.9v-0.3c0.1-0.1,0.1-0.2,0.1-0.3v-0.8c0-0.6-0.1-0.9-0.3-1.4C17.9,52.7,17,51.9,15.6,51.5z M17,56.5
	c0,0.1,0,0.1-0.1,0.2c0,0.2,0,0.3-0.1,0.6c-0.3,1.3-1.1,2.4-2.5,2.4c-1.3,0-2.1-1-2.5-2.3c0-0.2-0.1-0.4-0.1-0.6
	c-0.1-0.1-0.1-0.2-0.1-0.3v-0.8c0-0.4,0.1-0.6,0.2-1c0.2-0.6,0.3-1,0.7-1.4c0.2-0.3,0.5-0.4,0.8-0.6c0.2-0.1,0.4-0.2,0.6-0.2h0.5
	c0.2,0,0.2,0,0.4,0.1c0.4,0.1,0.6,0.2,0.9,0.5c0.4,0.3,0.6,0.6,0.8,1.1c0.1,0.4,0.2,0.6,0.2,1c0,0.2,0.1,0.2,0.1,0.5L17,56.5
	L17,56.5z M123.1,52.9c0.1-0.3,0.2-0.5,0.4-0.6h-2.5c0.2,0.2,0.3,0.4,0.4,0.7v6.3c0,0.2,0,0.3-0.1,0.5c-0.1,0.2-0.2,0.4-0.3,0.6h2.5
	c-0.2-0.2-0.2-0.4-0.4-0.6c0-0.2-0.1-0.3-0.1-0.5v-5.9C123,53.1,123.1,53,123.1,52.9z M133.9,61.1c-0.3-0.2-0.6-0.4-0.9-0.7
	c-0.5-0.5-0.7-0.8-1.1-1.3c-0.7-1-1.1-1.6-1.9-2.6c0.3-0.2,0.5-0.2,0.8-0.4c0.2-0.2,0.3-0.3,0.6-0.6c0.2-0.3,0.2-0.6,0.2-1v-0.5
	c-0.1-1.1-1.1-1.8-2.3-1.8h-3.9c0.2,0.2,0.3,0.3,0.4,0.6s0.1,0.3,0.1,0.5v6c0,0.2,0,0.3-0.1,0.5c-0.1,0.2-0.2,0.4-0.4,0.6h2.5
	c-0.2-0.2-0.3-0.4-0.4-0.6c-0.1-0.2-0.1-0.3-0.1-0.6v-6c0.5,0,0.7-0.1,1.2,0c0.7,0,1.3,0.6,1.3,1.3v0.4c0,0.3-0.1,0.5-0.2,0.7
	c-0.2,0.3-0.3,0.4-0.6,0.6c-0.3,0.2-0.5,0.2-0.9,0.3c0.1,0.2,0.2,0.2,0.3,0.4c0.2,0.3,0.3,0.5,0.6,0.8c0.5,0.7,0.7,1.1,1.2,1.7
	c0.4,0.6,0.6,0.9,1,1.3c0.3,0.3,0.5,0.5,0.8,0.6c0.3,0.1,0.6,0.2,0.9,0.2h1.3C134.2,61.3,134.1,61.3,133.9,61.1z M150.9,59.3
	c-0.2-0.4-0.3-0.6-0.6-1.1c-0.4-0.8-0.6-1.3-1-2.1c-0.3-0.6-0.5-1-0.8-1.7c-0.2-0.6-0.4-0.8-0.6-1.3c-0.1-0.3-0.2-0.5-0.3-0.7
	c-0.1-0.2-0.2-0.3-0.2-0.6c-0.1,0.3-0.2,0.6-0.4,0.9c-0.2,0.5-0.3,0.8-0.6,1.3c-0.4,0.9-0.6,1.3-1,2.1c-0.3,0.8-0.6,1.3-1,2.1
	c-0.4,0.9-0.6,1.4-1.3,2.2h2.1c-0.2-0.2-0.2-0.3-0.2-0.6c0-0.4,0.1-0.6,0.2-1c0.2-0.4,0.2-0.6,0.4-1h2.9c0.2,0.3,0.2,0.6,0.4,1
	c0.2,0.3,0.3,0.6,0.3,1c0,0.2-0.2,0.3-0.3,0.6h2.7C151.3,60,151.1,59.8,150.9,59.3z M146.1,56.9l1-2.3l1,2.3H146.1z M162.1,55.7
	c-0.7-0.3-1.1-0.5-1.7-0.9c-0.4-0.2-0.6-0.5-0.6-1c0,0,0-0.1,0.1-0.1c0-0.5,0.3-0.8,0.8-1c0.2-0.1,0.3-0.2,0.5-0.2h0.4
	c0.3,0,0.6,0.1,0.8,0.2c0.3,0.1,0.5,0.2,0.7,0.5c0.1,0.2,0.2,0.2,0.2,0.4l0.5-1.1c0-0.1-0.1-0.1-0.1-0.1c-0.1-0.1-0.2-0.1-0.2-0.2
	c-0.2-0.2-0.4-0.2-0.6-0.2c-0.2-0.1-0.4-0.1-0.6-0.2h-1.7c-0.2,0.1-0.4,0.1-0.6,0.2c-0.8,0.3-1.3,0.9-1.4,1.7v0.2
	c0,1.1,0.8,1.7,1.8,2.2c0.6,0.3,1,0.5,1.7,1c0.3,0.2,0.6,0.5,0.6,1c0,0.8-0.7,1.3-1.5,1.3h-0.4c-0.3,0-0.4-0.1-0.7-0.2
	c-0.6-0.2-0.8-0.5-1.2-1l-0.5,1.3c0.5,0.2,0.7,0.4,1.3,0.5c0.3,0.1,0.5,0.1,0.8,0.2h1c0.7-0.1,1.2-0.2,1.7-0.6c0.6-0.5,0.9-1,1-1.7
	c0-0.2,0-0.2,0-0.3C163.8,56.9,163.1,56.2,162.1,55.7z M155.9,52.6c0.1,0.2-0.1,0.5-0.2,0.7c-0.2,0.3-1.4,2.4-1.4,2.4
	s-1.1-1.9-1.3-2.3c-0.2-0.3-0.2-0.4-0.2-0.6s0.1-0.3,0.2-0.5h-2.3c0.3,0.2,0.6,0.4,0.8,0.8c0.2,0.3,1.7,3,2,3.6c0,0,0,2.5,0,2.8
	c0,0.2,0.1,0.6-0.2,1h2.1c-0.3-0.3-0.3-0.6-0.3-1c0-0.2,0-2.8,0-2.8s1.2-2.1,1.6-2.8c0.4-0.7,0.5-1,1.3-1.6h-2.1
	C155.9,52.3,155.9,52.4,155.9,52.6z M143.9,52.3H142c0,0,0.4,0.2,0.2,0.9c-0.2,1.3-1.4,4.9-1.4,4.9l-2.2-5.9l-1.9,5.9
	c0,0-1.4-4.9-1.4-5.2c0-0.2,0-0.5,0.3-0.6h-2.5c0.6,0.5,0.7,0.9,0.8,1.1l1.8,6.9h1.3l1.4-4.3l1.4,4.3h1.4l1.8-6.7
	C143.2,53,143.4,52.7,143.9,52.3z M118.2,57.5c-0.2-0.3-0.2-0.6-0.4-0.8c-0.2-0.6-0.5-1.3-0.9-2.1c-0.6-1.4-1-2.3-1.6-3.7
	c-0.3-0.8-0.6-1.2-0.9-2.1c-0.9,2.3-1.4,3.5-2.3,5.8c-0.4,0.8-0.6,1.3-0.9,2.1c-0.2,0.2-0.2,0.5-0.3,0.8c-0.5,1.2-0.7,2-1.7,2.8h2.5
	c-0.2-0.2-0.2-0.4-0.2-0.6c0-0.6,0.2-0.8,0.4-1.3l0.3-0.9c0.1-0.2,0.1-0.2,0.2-0.4h3.6c0.1,0.2,0.1,0.2,0.2,0.4
	c0.2,0.3,0.2,0.5,0.3,0.8c0.2,0.5,0.4,0.7,0.4,1.2c0.1,0.1,0.1,0.1,0.1,0.2c0,0.3-0.1,0.4-0.2,0.6h3.2
	C118.8,59.6,118.8,58.7,118.2,57.5z M112.9,56.1l1.3-3.3l1.3,3.3H112.9z"/>
<g>
	<path class="st1" d="M61.6,44.4L44.5,0.2l0.1,0l-0.1,0L44.4,0h19.1l48.7,44.4H61.6L61.6,44.4z"/>
	<polygon class="st2" points="44.6,0.1 63.4,0.1 111.9,44.3 61.7,44.3 	"/>
	<polygon class="st3" points="64.3,15.1 66.3,15.1 81.1,33 78.6,34.7 	"/>
	
		<linearGradient id="SVGID_1_" gradientUnits="userSpaceOnUse" x1="69.273" y1="63.9573" x2="57.1619" y2="59.6493" gradientTransform="matrix(1 0 0 -1 0 88)">
		<stop  offset="0" style="stop-color:#549F60"/>
		<stop  offset="0.3571" style="stop-color:#268142"/>
		<stop  offset="0.5" style="stop-color:#217E3F"/>
		<stop  offset="0.6484" style="stop-color:#1E793C"/>
		<stop  offset="1" style="stop-color:#0C552B"/>
	</linearGradient>
	<path class="st4" d="M51.7,14.8L62.3,42l16.6-8.9L65.6,15.9L51.7,14.8z"/>
	
		<linearGradient id="SVGID_2_" gradientUnits="userSpaceOnUse" x1="73.3934" y1="63.1196" x2="82.3337" y2="69.3778" gradientTransform="matrix(1 0 0 -1 0 88)">
		<stop  offset="0" style="stop-color:#549F60"/>
		<stop  offset="0.3571" style="stop-color:#268142"/>
		<stop  offset="0.5" style="stop-color:#217E3F"/>
		<stop  offset="0.6484" style="stop-color:#1E793C"/>
		<stop  offset="1" style="stop-color:#0C552B"/>
	</linearGradient>
	<polygon class="st5" points="80.4,17 66.1,15.9 79.5,32.8 90.9,26.7 	"/>
	<polygon class="st6" points="55.4,0.9 53,0.9 64,15.2 67.1,15.2 	"/>
	
		<linearGradient id="SVGID_3_" gradientUnits="userSpaceOnUse" x1="56.823" y1="80.2044" x2="49.3454" y2="78.0911" gradientTransform="matrix(1 0 0 -1 0 88)">
		<stop  offset="0" style="stop-color:#F15D4A"/>
		<stop  offset="0.3626" style="stop-color:#EE342A"/>
		<stop  offset="0.5" style="stop-color:#EE2F26"/>
		<stop  offset="0.6429" style="stop-color:#E92E26"/>
		<stop  offset="1" style="stop-color:#C52228"/>
	</linearGradient>
	<path class="st7" d="M46.4,1.3l5.1,13.7l13.5,0L54.4,1.3H46.4z"/>
	
		<linearGradient id="SVGID_4_" gradientUnits="userSpaceOnUse" x1="62.5838" y1="76.9211" x2="68.5164" y2="81.3909" gradientTransform="matrix(1 0 0 -1 0 88)">
		<stop  offset="0" style="stop-color:#F15D4A"/>
		<stop  offset="0.3626" style="stop-color:#EE342A"/>
		<stop  offset="0.5" style="stop-color:#EE2F26"/>
		<stop  offset="0.6429" style="stop-color:#E92E26"/>
		<stop  offset="1" style="stop-color:#C52228"/>
	</linearGradient>
	<polygon class="st8" points="62.9,1.3 54.6,1.3 65.4,15 78.3,15 	"/>
	<polygon class="st9" points="78.5,33.8 80.9,32.5 89.8,43.2 85.4,43.4 	"/>
	
		<linearGradient id="SVGID_5_" gradientUnits="userSpaceOnUse" x1="82.7286" y1="49.1598" x2="63.0055" y2="43.3078" gradientTransform="matrix(1 0 0 -1 0 88)">
		<stop  offset="0" style="stop-color:#5C5A91"/>
		<stop  offset="0.3791" style="stop-color:#2F3578"/>
		<stop  offset="0.4835" style="stop-color:#2B3175"/>
		<stop  offset="0.6044" style="stop-color:#292E6F"/>
		<stop  offset="1" style="stop-color:#1E1B4D"/>
	</linearGradient>
	<path class="st10" d="M61.9,42l0.4,1.2l24.4,0.1l-7.1-9.2L61.9,42z"/>
	
		<linearGradient id="SVGID_6_" gradientUnits="userSpaceOnUse" x1="88.308" y1="44.2583" x2="99.0371" y2="53.3618" gradientTransform="matrix(1 0 0 -1 0 88)">
		<stop  offset="0" style="stop-color:#5C5A91"/>
		<stop  offset="0.3791" style="stop-color:#2F3578"/>
		<stop  offset="0.4835" style="stop-color:#2B3175"/>
		<stop  offset="0.6044" style="stop-color:#292E6F"/>
		<stop  offset="1" style="stop-color:#1E1B4D"/>
	</linearGradient>
	<polygon class="st11" points="92.6,28.4 80.3,33.8 87.7,43.3 108.5,43.3 108.8,42.6 	"/>
	
		<linearGradient id="SVGID_7_" gradientUnits="userSpaceOnUse" x1="64.5596" y1="74.9305" x2="72.0372" y2="49.1651" gradientTransform="matrix(1 0 0 -1 0 88)">
		<stop  offset="0" style="stop-color:#995624"/>
		<stop  offset="0.2033" style="stop-color:#DC9C4E"/>
		<stop  offset="0.4176" style="stop-color:#F7DDA4"/>
		<stop  offset="0.533" style="stop-color:#FDEAB6"/>
		<stop  offset="0.6319" style="stop-color:#F7DDA4"/>
		<stop  offset="0.8407" style="stop-color:#DC9C4E"/>
		<stop  offset="1" style="stop-color:#995624"/>
	</linearGradient>
	<polygon class="st12" points="50.6,14.5 81.9,23.2 61.9,42 61.7,41.3 69.5,26.8 	"/>
	
		<linearGradient id="SVGID_8_" gradientUnits="userSpaceOnUse" x1="57.113" y1="83.462" x2="57.113" y2="75.93" gradientTransform="matrix(1 0 0 -1 0 88)">
		<stop  offset="0" style="stop-color:#FBF8CD"/>
		<stop  offset="0.5055" style="stop-color:#E8B86E"/>
		<stop  offset="1" style="stop-color:#CE7C29"/>
	</linearGradient>
	<circle class="st13" cx="57.1" cy="8.3" r="3.8"/>
	<polygon class="st14" points="51.6,15.3 69.5,26.8 61.7,41.3 	"/>
	<path class="st15" d="M54.7,1.7l9.8,12.7l0.5,0l-10-12.7H54.7z M65.9,16.2l12.8,16.6l0.5-0.3L66.4,16.3L65.9,16.2z M80.6,34.3
		L80,34.5l6.3,8.2h0.9L80.6,34.3z"/>
	
		<linearGradient id="SVGID_9_" gradientUnits="userSpaceOnUse" x1="60.5872" y1="63.0649" x2="56.6478" y2="61.1435" gradientTransform="matrix(1 0 0 -1 0 88)">
		<stop  offset="0" style="stop-color:#FFFFFF"/>
		<stop  offset="1" style="stop-color:#B3B3B3"/>
	</linearGradient>
	<polygon class="st16" points="86.7,42.7 62.8,42.7 62.7,42.5 80.3,34.4 78.9,32.7 62.3,41.6 52,15 66.2,16.3 64.7,14.4 51.8,14.4 
		46.8,1.7 54.9,1.7 53.7,0.1 44.6,0.1 61.7,44.3 87.9,44.3 	"/>
	
		<linearGradient id="SVGID_10_" gradientUnits="userSpaceOnUse" x1="81.8104" y1="64.8624" x2="84.4113" y2="67.4633" gradientTransform="matrix(1 0 0 -1 0 88)">
		<stop  offset="0" style="stop-color:#FFFFFF"/>
		<stop  offset="1" style="stop-color:#B3B3B3"/>
	</linearGradient>
	<polygon class="st17" points="54.9,1.7 62.8,1.7 76.8,14.4 64.7,14.4 66.2,16.3 80.2,17.5 90.2,26.6 78.9,32.7 80.3,34.4 
		92.6,28.8 107.9,42.7 86.7,42.7 87.9,44.3 111.9,44.3 63.4,0.1 53.7,0.1 	"/>
</g>
<line class="st18" x1="0.5" y1="66" x2="164" y2="66"/>
<g>
	<g>
		<path class="st19" d="M151,75.9l-3.2,0.1l3.1,1.8l3.2-1.6L151,75.9z"/>
		<path class="st20" d="M150.9,77.8l-0.1,3.6l1.8-2.5l1.5-2.7L150.9,77.8z"/>
		<path class="st21" d="M150.8,81.4l0.1-3.6l-3.1-1.8l1.4,2.8L150.8,81.4z"/>
		<path class="st19" d="M159.2,73.2v3.1l0.5,3.1l1.6-3.2L159.2,73.2z"/>
		<path class="st20" d="M164.7,76l-3.5,0.2l-1.6,3.2l2.6-1.6L164.7,76z"/>
		<path class="st21" d="M161.2,76.2l3.5-0.2l-2.7-1.6l-2.8-1.1L161.2,76.2z"/>
		<path class="st21" d="M158.1,75.7l-0.7-3.1l-1-2.8l-0.9,3.4L158.1,75.7z"/>
		<path class="st20" d="M155,75.2l3.1,0.6l-2.6-2.5l-3.4,1L155,75.2z"/>
		<path class="st19" d="M156.4,69.8l-2.4,2l-1.9,2.4l3.4-1L156.4,69.8z"/>
		<path class="st21" d="M162.2,82.8l0.1-3.1l-2.2,2.8l1.2,3.3L162.2,82.8z"/>
		<path class="st19" d="M160.2,82.6l2.2-2.8l-2.9,0.9l-2.7,1.4L160.2,82.6z"/>
		<path class="st20" d="M156.7,82l2.3,2.2l2.5,1.7l-1.2-3.3L156.7,82z"/>
		<path class="st20" d="M157.3,84.7h-0.1l-3.3-1.1l-2.7,2.3l3.1-0.3l2.9-0.7L157.3,84.7z"/>
		<path class="st21" d="M157.1,84.7l-1.7-2.5l-2.3-2.2l0.7,3.5L157.1,84.7z"/>
		<path class="st21" d="M157.1,84.8h0.1v-0.1L157.1,84.8z"/>
		<path class="st19" d="M151.1,85.8l2.7-2.3l-0.7-3.5L151.1,85.8z"/>
		<path d="M167.1,74v1.5h0.1V74h0.7v-0.1h-1.5V74H167.1z"/>
		<polyline points="169.9,73.9 169.2,75.3 168.5,73.9 168.3,73.9 168.3,75.5 168.5,75.5 168.5,74.2 169.1,75.5 169.3,75.5 170,74.2 
			170,75.5 170.1,75.5 170.1,73.9 169.9,73.9 		"/>
	</g>
	<path d="M86.8,76.2h4.3v-0.7h-4.9v6.2h5v-0.6h-4.4v-2.4H91v-0.6h-4.2L86.8,76.2L86.8,76.2z"/>
	<path d="M103.6,75.5h-1L99.8,81l-2.7-5.4h-1v6.2h0.7v-5.3l0,0l2.7,5.3h0.7l2.7-5.3v5.3h0.7L103.6,75.5L103.6,75.5z"/>
	<path d="M110.5,76.2v-0.7h-4.9v6.2h5v-0.6h-4.3v-2.4h4.1v-0.6h-4.1v-2H110.5z"/>
	<path d="M119.7,75.5h-0.9l-2.7,5.4l-2.8-5.4h-0.9v6.2h0.7v-5.3l2.7,5.3h0.6l2.7-5.3v5.3h0.7L119.7,75.5L119.7,75.5z"/>
	<path d="M125.3,75.5h-3.5v6.2h3.4c1.4,0,2-0.6,2-1.7c0-0.9-0.5-1.5-1.2-1.6c0.7-0.2,1-0.7,1-1.4C127,76.1,126.4,75.5,125.3,75.5z
		 M125.1,76.2c0.8-0.1,1.1,0.2,1.2,0.9c-0.1,0.8-0.6,1.1-1.5,1.1h-2.6v-2H125.1z M125.3,78.8c0.8,0,1.2,0.5,1.2,1.2
		s-0.5,1.1-1.5,1.1h-2.7v-2.4C122.3,78.8,125.3,78.8,125.3,78.8z"/>
	<path d="M141.3,77.2c0-1.1-0.7-1.7-1.9-1.7h-3.4v6.2h0.6V79h2.6c0.9,0,1.5,0.5,1.5,1.5c0,0.5,0,0.9,0.1,1.2h0.7l-0.2-1.2
		c0-1.1-0.3-1.7-1-1.7C140.9,78.6,141.3,78,141.3,77.2z M139.3,76.2c0.9-0.1,1.2,0.2,1.2,1c0,0.8-0.5,1.2-1.2,1.2h-2.8v-2.3
		L139.3,76.2L139.3,76.2z"/>
	<path d="M134,76.2v-0.7h-4.9v6.2h5v-0.6h-4.4v-2.4h4.2v-0.6h-4.2v-2H134z"/>
	<path d="M3.6,75.5H2.8L0,81.8h0.7l0.9-1.8h3.3l0.8,1.8h0.7L3.6,75.5z M4.5,79.4H1.8l1.4-3.2L4.5,79.4z"/>
	<path d="M15.3,77.3h0.6c-0.1-1.2-0.9-1.9-2.6-1.9s-2.5,0.6-2.5,1.8c0,0.8,0.8,1.4,2.3,1.7c1.6,0.1,2.3,0.6,2.4,1.1
		c-0.1,0.9-0.7,1.2-1.9,1.2c-1.4,0-2.2-0.5-2.2-1.6h-0.7c0.1,1.5,1,2.3,2.8,2.3c1.7,0,2.6-0.7,2.6-1.9c0-0.9-0.8-1.5-2.3-1.7
		c-1.6-0.2-2.3-0.7-2.3-1.2c0-0.8,0.6-1.1,1.7-1.1C14.5,76,15.2,76.4,15.3,77.3z"/>
	<path d="M20.2,76.2h2.4v-0.7h-5.4v0.7h2.4v5.6h0.7V76.2z"/>
	<path d="M26.7,75.5h-0.8L23,81.8h0.7l0.9-1.8h3.3l0.8,1.8h0.7L26.7,75.5z M27.6,79.4h-2.7l1.4-3.2L27.6,79.4z"/>
	<path d="M34.3,75.5H31v6.2h0.6V79H34c1,0,1.5,0.5,1.5,1.5l0.2,1.2h0.7c-0.1-0.1-0.2-0.6-0.2-1.2c0-1.1-0.5-1.7-1-1.7
		c0.8-0.2,1.1-0.8,1.1-1.6C36.3,76.1,35.6,75.5,34.3,75.5z M34.4,76.2c0.8-0.1,1.2,0.2,1.2,1c0,0.8-0.5,1.2-1.4,1.2h-2.7v-2.3
		L34.4,76.2L34.4,76.2z"/>
	<path d="M44.4,75.5h-0.8l-2.8,6.2h0.7l0.8-1.8h3.3l0.9,1.8h0.7L44.4,75.5z M45.3,79.4h-2.7l1.4-3.2L45.3,79.4z"/>
	<path d="M49.1,75.5h-0.7v6.2h4.7v-0.6h-4C49.1,81.2,49.1,75.5,49.1,75.5z"/>
	<path d="M55.1,75.5h-0.7v6.2h4.7v-0.6h-4V75.5z"/>
	<path d="M61.2,75.5h-0.6v6.2h0.6V75.5z"/>
	<path d="M84.2,77.7c-0.1-1.5-1.1-2.3-2.9-2.3c-1.1,0-1.9,0.5-2.6,1.1c-0.5,0.6-0.8,1.2-0.8,2.2c0,2.2,1.1,3.2,3.4,3.3
		c1.8,0,2.8-0.9,3.1-2.5h-0.7c-0.2,1.2-1,1.8-2.4,1.8c-1.8,0-2.6-0.9-2.6-2.6c0-1.8,0.8-2.7,2.6-2.7c1.4,0,2.2,0.6,2.4,1.7
		L84.2,77.7L84.2,77.7z"/>
	<path d="M71.1,75.5h-0.8v6.2H71v-5.2l0,0l4.3,5.2h0.8v-6.2h-0.7v5.3L71.1,75.5z"/>
	<path d="M66.1,75.5h-0.7l-2.8,6.2h0.7l0.8-1.8h3.3l0.8,1.8H69L66.1,75.5z M67.2,79.4h-2.7l1.4-3.2L67.2,79.4z"/>
</g>
</svg>
