<?xml version="1.0" encoding="utf-8"?>
<!-- Generator: Adobe Illustrator 16.0.0, SVG Export Plug-In . SVG Version: 6.00 Build 0)  -->
<!DOCTYPE svg PUBLIC "-//W3C//DTD SVG 1.0//EN" "http://www.w3.org/TR/2001/REC-SVG-20010904/DTD/svg10.dtd">
<svg version="1.0"
	 id="svg2" sodipodi:docname="SriLankan_Airlines_Logo.svg" inkscape:version="0.91 r13725" xmlns:dc="http://purl.org/dc/elements/1.1/" xmlns:cc="http://creativecommons.org/ns#" xmlns:rdf="http://www.w3.org/1999/02/22-rdf-syntax-ns#" xmlns:sodipodi="http://sodipodi.sourceforge.net/DTD/sodipodi-0.dtd" xmlns:svg="http://www.w3.org/2000/svg" xmlns:inkscape="http://www.inkscape.org/namespaces/inkscape" sodipodi:version="0.32" inkscape:output_extension="org.inkscape.output.svg.inkscape"
	 xmlns="http://www.w3.org/2000/svg" xmlns:xlink="http://www.w3.org/1999/xlink" x="0px" y="0px" width="157px" height="26px"
	 viewBox="0 0 157 26" enable-background="new 0 0 157 26" xml:space="preserve">
<defs>
	
	
		<inkscape:perspective  id="perspective58" inkscape:persp3d-origin="812.49998 : 443.75 : 1" inkscape:vp_z="1624.9999 : 665.62501 : 1" inkscape:vp_y="0 : 1000 : 0" sodipodi:type="inkscape:persp3d" inkscape:vp_x="0 : 665.62501 : 1">
		</inkscape:perspective>
</defs>
<sodipodi:namedview  inkscape:pageopacity="0.0" inkscape:window-height="705" inkscape:pageshadow="2" inkscape:window-maximized="1" inkscape:window-y="-8" inkscape:window-x="-8" inkscape:window-width="1366" inkscape:current-layer="svg2" id="base" bordercolor="#666666" inkscape:zoom="1.8252894" inkscape:cx="201.30292" showgrid="false" inkscape:cy="103.30974" pagecolor="#ffffff" borderopacity="1.0" objecttolerance="10.0" gridtolerance="10.0" guidetolerance="10.0">
	</sodipodi:namedview>
<g id="g5647" opacity="0.6">
	<g id="g4768" transform="translate(1014.3228,-257.57523)">
		<g id="_x23_dc001cff" transform="matrix(0.54137589,0,0,0.54677317,-1104.1884,257.6033)">
			<path id="path5" inkscape:connector-curvature="0" fill="#454545" d="M275.268,1.163c0.281-0.157,0.59-0.268,0.913-0.3
				c-0.177,0.277-0.427,0.497-0.597,0.779c-0.444,0.707-0.682,1.518-0.844,2.329c-0.162,0.766-0.224,1.556-0.469,2.304
				c-0.325,1.057-0.848,2.058-1.544,2.918c-0.886,1.082-2.002,1.954-3.16,2.729c-1.407,0.957-2.893,1.832-4.113,3.036
				c-0.866,0.861-1.566,1.907-1.945,3.074c-0.741,2.154-1.369,4.362-2.403,6.401c-0.74,1.473-1.714,2.826-2.883,3.988
				c-1.515,1.525-3.332,2.711-5.182,3.79c-4.086,2.336-8.572,3.908-13.145,4.976c-5.11,1.175-10.358,1.736-15.6,1.729
				c-0.18,0.004-0.359-0.004-0.538-0.025c4.632-0.625,9.232-1.704,13.551-3.519c3.958-1.65,7.67-3.938,10.769-6.908
				c0.682-0.657,1.34-1.34,1.955-2.061c1.393-1.677,2.381-3.638,3.319-5.592c0.491-1.006,0.961-2.024,1.533-2.99
				c0.866-1.463,2.046-2.738,3.449-3.699c1.699-1.168,3.651-1.89,5.579-2.575c1.127-0.404,2.257-0.797,3.361-1.257
				c0.732-0.309,1.468-0.622,2.139-1.05c1.281-0.8,2.417-1.886,3.07-3.261c0.449-0.929,0.664-1.947,1.046-2.901
				c-0.419,0.188-0.714,0.577-0.855,1.007c-0.18,0.564-0.754,0.898-1.313,0.989c0.253-0.218,0.474-0.486,0.568-0.811
				c0.231-0.747,0.904-1.373,1.705-1.418C274.015,2.151,274.57,1.545,275.268,1.163 M274.238,2.446
				c-0.182,0.111-0.202,0.402-0.032,0.532c0.184,0.164,0.53,0.029,0.534-0.225C274.771,2.501,274.448,2.299,274.238,2.446
				L274.238,2.446z"/>
		</g>
		<g id="_x23_00a61cff" transform="matrix(0.54137589,0,0,0.54677317,-1104.1884,257.6033)">
			<path id="path8" inkscape:connector-curvature="0" fill="#4A4A4A" d="M255.846,13.833c1.402-0.568,2.857-0.988,4.326-1.347
				c-0.256,0.141-0.538,0.229-0.805,0.354c-1.656,0.734-3.117,1.872-4.336,3.204c-1.369,1.504-2.46,3.243-3.344,5.072
				c-1.232,2.733-3.211,5.101-5.601,6.905c-3.343,2.529-7.38,4.047-11.505,4.678c-0.891,0.127-1.788,0.238-2.688,0.263
				c1.163-0.368,2.329-0.736,3.454-1.206c3.045-1.241,5.877-3.059,8.132-5.469c1.263-1.381,2.448-2.838,3.444-4.426
				c0.536-0.838,1.041-1.695,1.652-2.481c0.705-0.918,1.521-1.743,2.379-2.518C252.383,15.566,254.053,14.546,255.846,13.833
				L255.846,13.833z"/>
		</g>
		<g id="_x23_f16c00ff" transform="matrix(0.54137589,0,0,0.54677317,-1104.1884,257.6033)">
			<path id="path11" inkscape:connector-curvature="0" fill="#707070" d="M265.603,16.048c0.29-0.504,0.59-1.011,0.994-1.432
				c-0.206,0.936-0.429,1.874-0.512,2.829c-0.152,1.5-0.06,3.011-0.004,4.513c0.097,1.786-0.023,3.627-0.723,5.294
				c-0.698,1.649-1.715,3.179-3.059,4.369c-1.845,1.62-4.216,2.54-6.624,2.897c-0.976,0.138-1.968,0.223-2.957,0.155
				c0.516-0.33,1.073-0.593,1.602-0.904c1.584-0.898,3.13-1.89,4.477-3.12c1.357-1.241,2.489-2.718,3.388-4.317
				c0.888-1.575,1.299-3.347,1.703-5.09C264.297,19.465,264.709,17.655,265.603,16.048z"/>
		</g>
	</g>
	<g id="g4790" transform="translate(439.80201,-589.94262)">
		<path id="path14" inkscape:connector-curvature="0" fill="#565656" d="M-381.896,597.974c0.767-0.555,1.747-0.695,2.672-0.697
			c0.716,0.008,1.429,0.125,2.112,0.338c0.527,0.178,1.067,0.444,1.384,0.926c0.243,0.375,0.233,0.844,0.209,1.272
			c-0.163-0.286-0.293-0.604-0.554-0.819c-0.728-0.66-1.756-0.854-2.709-0.838c-0.633,0.023-1.283,0.092-1.86,0.365
			c-0.394,0.194-0.755,0.536-0.831,0.984c-0.086,0.456,0.079,0.922,0.341,1.293c0.513,0.747,1.291,1.259,2.089,1.658
			c0.938,0.44,1.906,0.861,2.711,1.529c0.498,0.411,0.941,0.933,1.117,1.565c0.249,0.908-0.008,1.918-0.604,2.637
			c-0.445,0.532-1.041,0.923-1.683,1.179c-1.079,0.427-2.276,0.527-3.418,0.332c-0.821-0.153-1.639-0.492-2.231-1.095
			c-0.379-0.38-0.527-0.931-0.512-1.454c0.016-0.279,0.018-0.572,0.146-0.83c0.038,0.631,0.392,1.215,0.905,1.573
			c0.91,0.646,2.072,0.837,3.168,0.761c0.595-0.047,1.209-0.207,1.671-0.601c0.483-0.423,0.76-1.08,0.706-1.724
			c-0.053-0.547-0.383-1.021-0.771-1.389c-0.809-0.738-1.798-1.226-2.729-1.781c-0.702-0.433-1.43-0.868-1.961-1.513
			c-0.281-0.344-0.502-0.759-0.535-1.21C-383.142,599.489-382.674,598.52-381.896,597.974z"/>
		<path id="path16" inkscape:connector-curvature="0" fill="#565656" d="M-367.095,597.489c0.599-0.236,1.341,0.263,1.328,0.908
			c0.036,0.606-0.586,1.133-1.177,1.01c-0.553-0.076-0.922-0.696-0.781-1.225C-367.655,597.862-367.405,597.596-367.095,597.489z"/>
		<path id="path18" inkscape:connector-curvature="0" fill="#565656" d="M-370.85,600.827c0.436-0.28,0.975-0.37,1.484-0.311
			c0.418,0.057,0.791,0.312,1.027,0.659c-0.404-0.108-0.832-0.235-1.249-0.11c-0.7,0.18-1.168,0.789-1.507,1.389
			c-0.532,0.896-0.695,1.945-0.824,2.963c-0.095,0.814-0.15,1.633-0.164,2.451c0.01,0.57,0.061,1.191,0.438,1.651
			c-0.574-0.005-1.153,0.032-1.724-0.012c-0.174-0.49-0.209-1.015-0.236-1.529c-0.069-1.313,0.215-2.604,0.354-3.903
			c0.086-0.899,0.135-1.807,0.072-2.709c-0.031-0.289-0.182-0.543-0.327-0.789c0.479-0.018,0.959-0.008,1.438-0.012
			c0.089,0.004,0.184-0.003,0.268,0.035c0.215,0.229,0.215,0.566,0.24,0.859C-371.335,601.237-371.118,601-370.85,600.827
			L-370.85,600.827z"/>
		<path id="path20" inkscape:connector-curvature="0" fill="#565656" d="M-367.588,600.577c0.59,0.086,1.234,0.252,1.617,0.748
			c0.328,0.416,0.311,0.983,0.241,1.481c-0.169,1.5-0.371,3-0.414,4.511c-0.011,0.741-0.068,1.534,0.315,2.202
			c-0.535,0.003-1.074,0.023-1.608-0.009c-0.293-0.447-0.283-1.02-0.31-1.534c0.017-1.976,0.338-3.93,0.563-5.888
			C-367.128,601.552-367.346,601.045-367.588,600.577L-367.588,600.577z"/>
	</g>
	<g id="g4796" transform="translate(886.48142,-604.18694)">
		<path id="path22" inkscape:connector-curvature="0" fill="#565656" d="M-779.555,625.005c0.218-0.01,0.436-0.012,0.652,0
			c0.367,0.55,0.514,1.209,0.689,1.838c0.255,0.935,0.412,1.937,0.995,2.736c-0.22,0.004-0.442,0.025-0.66-0.009
			c-0.243-0.223-0.336-0.56-0.447-0.858c-0.228-0.691-0.388-1.402-0.569-2.106c-0.101-0.362-0.192-0.731-0.36-1.069
			c-0.025,0.267-0.039,0.537-0.104,0.799c-0.095,0.386-0.298,0.73-0.41,1.109c0.371-0.042,0.826-0.009,1.043,0.346
			c-0.373-0.071-0.814-0.123-1.127,0.144c-0.467,0.411-0.625,1.053-0.683,1.647c-0.226,0.008-0.45,0.008-0.676,0
			c0.089-0.785,0.47-1.492,0.821-2.187C-780.022,626.638-779.586,625.869-779.555,625.005L-779.555,625.005z"/>
		<path id="path24" inkscape:connector-curvature="0" fill="#565656" d="M-776.693,625.036c0.241-0.129,0.57,0.092,0.539,0.364
			c-0.005,0.278-0.359,0.455-0.584,0.292C-776.983,625.553-776.95,625.142-776.693,625.036z"/>
		<path id="path26" inkscape:connector-curvature="0" fill="#565656" d="M-773.172,625.003c0.207-0.004,0.415-0.004,0.623,0.003
			c0.15,0.989,0.104,1.997-0.01,2.987c-0.043,0.527-0.139,1.08,0.054,1.592c-0.214,0.005-0.429,0.006-0.642-0.002
			c-0.057-0.158-0.086-0.325-0.078-0.493C-773.201,627.73-772.912,626.359-773.172,625.003L-773.172,625.003z"/>
		<path id="path28" inkscape:connector-curvature="0" fill="#565656" d="M-771.633,625.038c0.229-0.117,0.564,0.035,0.574,0.306
			c0.062,0.347-0.452,0.553-0.672,0.299C-771.915,625.475-771.852,625.142-771.633,625.038z"/>
		<path id="path30" inkscape:connector-curvature="0" fill="#565656" d="M-769.049,626.29c0.332-0.179,0.722-0.213,1.091-0.168
			c0.481,0.055,0.91,0.485,0.912,0.979c-0.004,0.391-0.078,0.773-0.097,1.164c-0.021,0.441-0.056,0.904,0.13,1.32
			c-0.199,0-0.397-0.002-0.597-0.008c-0.166-0.646-0.084-1.322,0.021-1.973c0.023-0.302,0.083-0.693-0.203-0.896
			c-0.592-0.389-1.523-0.119-1.781,0.552c-0.16,0.386-0.188,0.807-0.203,1.218c-0.011,0.371-0.074,0.77,0.123,1.105
			c-0.222,0.002-0.441,0.002-0.66-0.006c-0.291-1.119,0.346-2.26,0-3.373c0.218-0.006,0.437,0,0.652,0.01
			c0.031,0.175,0.059,0.35,0.084,0.525C-769.414,626.578-769.257,626.399-769.049,626.29L-769.049,626.29z"/>
		<path id="path32" inkscape:connector-curvature="0" fill="#565656" d="M-765.914,626.517c0.312-0.312,0.771-0.406,1.196-0.408
			c0.391,0.001,0.821,0.167,1.011,0.529c0.18,0.377-0.023,0.859-0.402,1.021c-0.523,0.244-1.115,0.408-1.513,0.856
			c-0.112,0.101-0.088,0.274-0.015,0.392c0.156,0.289,0.494,0.422,0.808,0.445c0.383,0.007,0.728-0.186,1.043-0.378
			c-0.183,0.258-0.401,0.517-0.713,0.617c-0.411,0.141-0.899,0.14-1.267-0.118c-0.455-0.32-0.68-0.893-0.67-1.436
			C-766.457,627.494-766.307,626.913-765.914,626.517 M-765.534,626.94c-0.297,0.367-0.36,0.862-0.323,1.32
			c0.262-0.177,0.522-0.359,0.815-0.482c0.337-0.163,0.726-0.356,0.856-0.731c0.1-0.301-0.209-0.551-0.48-0.575
			C-765.024,626.43-765.322,626.681-765.534,626.94z"/>
		<path id="path34" inkscape:connector-curvature="0" fill="#565656" d="M-762.998,626.523c0.193-0.275,0.54-0.393,0.864-0.404
			c0.368-0.015,0.765,0.032,1.069,0.256c0.142,0.097,0.153,0.281,0.188,0.434c-0.137-0.107-0.252-0.242-0.4-0.334
			c-0.324-0.152-0.711-0.13-1.037,0.003c-0.147,0.058-0.297,0.185-0.283,0.356c0.029,0.168,0.141,0.312,0.271,0.418
			c0.373,0.311,0.888,0.399,1.229,0.754c0.236,0.226,0.344,0.578,0.255,0.896c-0.073,0.286-0.31,0.503-0.569,0.627
			c-0.384,0.177-0.833,0.205-1.238,0.093c-0.222-0.063-0.434-0.186-0.569-0.373c-0.112-0.16-0.084-0.363-0.089-0.549
			c0.111,0.183,0.216,0.389,0.412,0.492c0.356,0.184,0.799,0.25,1.175,0.087c0.315-0.135,0.458-0.599,0.214-0.858
			c-0.418-0.457-1.08-0.586-1.489-1.055C-763.21,627.132-763.176,626.763-762.998,626.523L-762.998,626.523z"/>
		<path id="path36" inkscape:connector-curvature="0" fill="#565656" d="M-774.712,626.525c0.158-0.16,0.335-0.34,0.575-0.35
			c0.24-0.043,0.484,0.06,0.632,0.255c-0.237-0.026-0.521-0.099-0.718,0.083c-0.453,0.389-0.604,1.005-0.647,1.577
			c-0.045,0.495-0.133,1.022,0.075,1.495c-0.22,0.002-0.439,0.002-0.659-0.006c-0.069-0.435-0.098-0.881-0.024-1.315
			c0.088-0.548,0.152-1.103,0.133-1.658c-0.004-0.142-0.061-0.272-0.11-0.401c0.222,0,0.442-0.002,0.663,0
			C-774.768,626.31-774.738,626.415-774.712,626.525L-774.712,626.525z"/>
		<path id="path38" inkscape:connector-curvature="0" fill="#565656" d="M-776.846,626.194c0.225,0.06,0.494,0.093,0.633,0.306
			c0.118,0.16,0.1,0.369,0.079,0.557c-0.078,0.673-0.175,1.348-0.164,2.027c0.004,0.172,0.056,0.34,0.112,0.502
			c-0.215,0.006-0.432,0.008-0.646-0.01c-0.091-0.205-0.104-0.435-0.094-0.656c0.032-0.681,0.129-1.355,0.206-2.031
			C-776.684,626.647-776.766,626.413-776.846,626.194L-776.846,626.194z"/>
		<path id="path40" inkscape:connector-curvature="0" fill="#565656" d="M-771.756,626.189c0.287,0.061,0.661,0.182,0.695,0.525
			c0.024,0.499-0.074,0.996-0.101,1.494c-0.021,0.457-0.142,0.938,0.054,1.377c-0.211,0.006-0.425,0.019-0.631-0.03
			c-0.132-0.342-0.086-0.712-0.055-1.067c0.044-0.553,0.121-1.102,0.182-1.65C-771.585,626.61-771.679,626.396-771.756,626.189
			L-771.756,626.189z"/>
	</g>
	<g id="_x23_3e4e7aff" transform="translate(439.80201,-589.94262)">
		<path id="path43" inkscape:connector-curvature="0" fill="#242424" d="M-363.938,597.431c0.551,0,1.102-0.002,1.65,0.008
			c0.297,1.475,0.308,2.987,0.254,4.484c-0.058,2.092-0.535,4.163-0.41,6.262c0.908,0.014,1.84-0.033,2.713,0.266
			c0.607,0.203,1.156,0.594,1.811,0.66c-1.074-0.403-1.773-1.66-1.464-2.779c0.157-0.565,0.581-1.047,1.115-1.286
			c1.335-0.576,2.805-0.763,4.127-1.374c0.36-0.176,0.748-0.396,0.912-0.785c0.159-0.5-0.041-1.091-0.474-1.389
			c-0.485-0.35-1.104-0.442-1.688-0.438c-1.118,0.001-2.2,0.385-3.162,0.932c0.203-0.399,0.559-0.688,0.923-0.935
			c0.82-0.541,1.821-0.72,2.789-0.737c0.632-0.004,1.277,0.021,1.884,0.22c0.604,0.183,1.106,0.653,1.34,1.239
			c0.158,0.397,0.09,0.834,0.063,1.248c-0.095,1.049-0.342,2.08-0.422,3.133c-0.043,0.475-0.021,0.953-0.026,1.43
			c0.002,0.656,0.045,1.343,0.356,1.938c-0.55,0.006-1.099,0.018-1.647-0.008c-0.4-1.811-0.162-3.674,0-5.496
			c-1.158,0.848-2.672,0.93-3.878,1.687c-0.433,0.263-0.85,0.602-1.062,1.075c-0.244,0.535-0.069,1.201,0.353,1.598
			c0.341,0.318,0.825,0.436,1.281,0.418c0.901-0.039,1.76-0.434,2.455-0.995c-0.361,0.659-1.022,1.082-1.693,1.376
			c-0.792,0.348-1.666,0.495-2.526,0.442c-0.738-0.039-1.465-0.202-2.198-0.271c-1.08-0.097-2.163,0.021-3.229,0.176
			c-0.326-0.881-0.303-1.84-0.227-2.763c0.128-1.635,0.363-3.261,0.398-4.901C-363.612,600.386-363.409,598.849-363.938,597.431
			L-363.938,597.431z"/>
		<path id="path45" inkscape:connector-curvature="0" fill="#242424" d="M-340.159,597.431c0.562,0.003,1.125-0.007,1.688,0.008
			c0.238,1.687,0.234,3.395,0.186,5.092c-0.021,0.494-0.088,0.984-0.111,1.479c0.801-0.57,1.367-1.393,2.101-2.037
			c0.679-0.625,1.501-1.104,2.396-1.338c0.609-0.164,1.24-0.244,1.871-0.273c-0.491,0.219-1.014,0.369-1.473,0.657
			c-1.371,0.781-2.26,2.126-3.346,3.228c0.754,0.729,1.234,1.675,1.783,2.556c0.479,0.796,1.001,1.59,1.722,2.19
			c0.242,0.207,0.526,0.353,0.794,0.522c-0.585,0.021-1.174,0.03-1.758,0.004c-0.295-0.12-0.523-0.358-0.766-0.562
			c-0.769-0.713-1.299-1.629-1.812-2.531c-0.426-0.766-0.858-1.557-1.539-2.128c-0.069,0.729-0.146,1.458-0.202,2.188
			c-0.057,0.688-0.092,1.383-0.019,2.07c0.036,0.337,0.132,0.668,0.294,0.967c-0.557,0.006-1.114,0.024-1.67-0.014
			c-0.247-0.473-0.249-1.02-0.256-1.538c0.046-2.315,0.429-4.612,0.421-6.93c0.008-0.847,0.004-1.694-0.06-2.539
			C-339.948,598.137-340.024,597.775-340.159,597.431L-340.159,597.431z"/>
		<path id="path47" inkscape:connector-curvature="0" fill="#242424" d="M-346.864,600.872c0.896-0.506,1.97-0.629,2.977-0.484
			c0.822,0.121,1.592,0.616,1.996,1.35c0.316,0.555,0.431,1.215,0.341,1.844c-0.194,1.328-0.31,2.672-0.271,4.014
			c0.025,0.66,0.082,1.352,0.434,1.93c-0.484,0-0.973,0.025-1.456-0.01c-0.333-0.345-0.358-0.865-0.394-1.318
			c-0.016-0.808-0.043-1.621,0.074-2.425c0.113-0.932,0.34-1.86,0.266-2.805c-0.028-0.417-0.221-0.84-0.571-1.081
			c-0.552-0.382-1.247-0.495-1.905-0.451c-0.938,0.051-1.875,0.475-2.459,1.225c-0.328,0.408-0.469,0.926-0.613,1.42
			c-0.246,0.893-0.311,1.82-0.32,2.742c-0.03,0.903-0.166,1.914,0.385,2.703c-0.57-0.006-1.146,0.036-1.715-0.016
			c-0.154-0.458-0.199-0.941-0.229-1.422c-0.08-1.055,0.098-2.104,0.25-3.145c0.16-1.037,0.293-2.086,0.209-3.137
			c-0.041-0.438-0.152-0.874-0.385-1.25c0.525,0.002,1.051,0.006,1.576,0.004c0.156-0.021,0.229,0.143,0.273,0.264
			c0.143,0.441,0.138,0.912,0.14,1.369C-347.889,601.668-347.44,601.178-346.864,600.872z"/>
		<path id="path49" inkscape:connector-curvature="0" fill="#242424" d="M-329.319,600.594c0.729-0.233,1.506-0.291,2.269-0.272
			c0.62,0.03,1.267,0.08,1.821,0.387c0.408,0.217,0.719,0.587,0.925,0.996c0.144,0.289,0.106,0.621,0.103,0.934
			c-0.063,1.202-0.379,2.375-0.438,3.577c-0.033,0.696-0.058,1.397-0.003,2.096c0.031,0.419,0.126,0.839,0.318,1.214
			c-0.467,0.008-0.936,0.01-1.402,0.008c-0.081-0.01-0.221,0.021-0.229-0.096c-0.168-0.617-0.189-1.263-0.211-1.898
			c-0.007-1.174,0.106-2.346,0.211-3.514c-0.777,0.558-1.699,0.842-2.603,1.119c-0.798,0.272-1.64,0.607-2.169,1.297
			c-0.529,0.692-0.252,1.832,0.535,2.207c0.475,0.213,1.02,0.18,1.516,0.062c0.675-0.161,1.318-0.461,1.859-0.898
			c-0.37,0.698-1.031,1.192-1.737,1.519c-0.628,0.278-1.336,0.417-2.019,0.293c-0.537-0.093-1.039-0.388-1.369-0.82
			c-0.52-0.666-0.601-1.626-0.232-2.381c0.372-0.778,1.087-1.353,1.9-1.618c1.076-0.412,2.223-0.613,3.291-1.051
			c0.345-0.143,0.685-0.325,0.939-0.602c0.244-0.287,0.26-0.703,0.141-1.045c-0.108-0.334-0.379-0.592-0.685-0.75
			c-0.394-0.209-0.843-0.276-1.282-0.293c-0.701-0.027-1.397,0.109-2.062,0.33c-0.465,0.146-0.89,0.394-1.326,0.603
			C-330.827,601.292-330.089,600.838-329.319,600.594L-329.319,600.594z"/>
		<path id="path51" inkscape:connector-curvature="0" fill="#242424" d="M-318.995,600.614c0.693-0.27,1.451-0.321,2.188-0.26
			c0.663,0.068,1.319,0.34,1.789,0.821c0.487,0.487,0.771,1.163,0.806,1.849c0.022,0.368-0.059,0.73-0.102,1.094
			c-0.167,1.276-0.27,2.568-0.188,3.856c0.03,0.538,0.125,1.093,0.427,1.55c-0.504-0.002-1.011,0.036-1.513-0.021
			c-0.312-0.422-0.329-0.968-0.346-1.472c-0.001-0.662-0.022-1.326,0.036-1.987c0.078-0.826,0.269-1.642,0.305-2.472
			c0.018-0.471,0-0.98-0.283-1.379c-0.303-0.394-0.787-0.604-1.261-0.705c-0.897-0.164-1.868-0.013-2.642,0.487
			c-0.478,0.308-0.881,0.75-1.088,1.283c-0.317,0.802-0.521,1.649-0.558,2.515c-0.024,0.623-0.048,1.248-0.069,1.873
			c-0.018,0.645,0.035,1.336,0.42,1.877c-0.588,0.004-1.176,0.03-1.764-0.021c-0.262-1.24-0.273-2.526-0.07-3.776
			c0.197-1.272,0.43-2.559,0.338-3.853c-0.024-0.459-0.149-0.909-0.359-1.318c0.566,0.001,1.134,0.009,1.7,0
			c0.309,0.491,0.261,1.091,0.282,1.644C-320.485,601.486-319.801,600.904-318.995,600.614L-318.995,600.614z"/>
	</g>
</g>
</svg>
