<svg id="AA" xmlns="http://www.w3.org/2000/svg" xmlns:xlink="http://www.w3.org/1999/xlink" viewBox="0 0 122.64191 26.07874">
  <defs>
    <style>
      .cls-1 {
        fill: url(#linear-gradient);
      }

      .cls-2 {
        fill: #545454;
      }

      .cls-3 {
        fill: url(#linear-gradient-2);
      }

      .cls-4 {
        fill: url(#linear-gradient-3);
      }
    </style>
    <linearGradient id="linear-gradient" x1="42.55002" y1="-9.18762" x2="42.55002" y2="14.77684" gradientTransform="matrix(1, 0, 0, -1, 0, 27)" gradientUnits="userSpaceOnUse">
      <stop offset="0" stop-color="#3e3e3e"/>
      <stop offset="0.8" stop-color="#545454"/>
    </linearGradient>
    <linearGradient id="linear-gradient-2" x1="89.00057" y1="-0.89586" x2="120.6445" y2="17.37378" gradientTransform="matrix(1, 0, 0, -1, 0, 27)" gradientUnits="userSpaceOnUse">
      <stop offset="0" stop-color="#3e3e3e"/>
      <stop offset="0.5" stop-color="#545454"/>
    </linearGradient>
    <linearGradient id="linear-gradient-3" x1="101.21477" y1="15.0432" x2="122.46258" y2="27.31062" gradientTransform="matrix(1, 0, 0, -1, 0, 27)" gradientUnits="userSpaceOnUse">
      <stop offset="0" stop-color="#989898"/>
      <stop offset="0.85" stop-color="#c7c7c7"/>
    </linearGradient>
  </defs>
  <title>logo_pos_I2_neg</title>
  <g>
    <path class="cls-1" d="M9.415,12.21555a12.74773,12.74773,0,0,0-.24229,1.42388H1.995v4.02121c.71222-.05621,1.5736-.03123,2.24667-.03123H7.40792v1.42388H1.995v4.27434H9.136a15.31646,15.31646,0,0,0,.298,1.567H1.81276c-.57774,0-1.24256-.0621-1.81276-.07937V12.22567c.5702-.01949,1.235-.01012,1.81276-.01012Zm3.74256,0a39.56945,39.56945,0,0,0,3.866,4.96674,35.6705,35.6705,0,0,0,3.86616-4.96674h2.37269c-1.83039,2.42137-3.58585,4.58206-5.08079,6.22674a79.25008,79.25008,0,0,1,5.17411,6.45232H20.96488a40.25412,40.25412,0,0,0-4.01553-5.10028,41.37789,41.37789,0,0,0-4.01571,5.10028H10.63628c1.88568-2.56484,3.6235-4.716,5.13609-6.43358-1.45766-1.587-3.194-3.82411-5.04313-6.24548Zm17.99259,0a6.14511,6.14511,0,0,1,3.728.88307,3.75607,3.75607,0,0,1,1.44886,2.93628v.26194A3.93793,3.93793,0,0,1,35.1025,19.377a5.81534,5.81534,0,0,1-3.91466,1.10072H27.352v4.41692H25.35845V12.22567c.56965-.01949,1.15934-.01012,1.75709-.01012ZM27.352,18.91036h3.74235a3.74465,3.74465,0,0,0,2.54407-.66205,2.53852,2.53852,0,0,0,.69458-1.95147v-.205a2.3908,2.3908,0,0,0-.71331-1.7492,3.939,3.939,0,0,0-2.65651-.70321H27.352Zm16.54355-6.69481a8.00909,8.00909,0,0,1,3.97639.7519,3.159,3.159,0,0,1,1.4191,2.82531v.205a3.88292,3.88292,0,0,1-2.14673,3.51512,22.9545,22.9545,0,0,1,3.30735,5.38171H48.34073a18.79875,18.79875,0,0,0-3.11942-4.986H40.88614v4.986h-2.137V12.22567c.57-.01949,1.27968-.01012,1.87707-.01012Zm-3.00939,6.12571h5.158a2.44244,2.44244,0,0,0,1.25247-2.36075v-.1139a1.96338,1.96338,0,0,0-.63579-1.61656,4.47522,4.47522,0,0,0-2.72833-.61062H40.88614Zm21.11533-6.12571a12.584,12.584,0,0,0-.24322,1.42388H54.56213v4.02121c.7124-.05621,1.59268-.03123,2.26614-.03123h3.14717v1.42388H54.56213v4.27434h7.159a15.36694,15.36694,0,0,0,.2987,1.567H54.39919c-.57865,0-1.26239-.0621-1.8315-.07937V12.22567c.56911-.01949,1.25285-.01012,1.8315-.01012Zm10.67192,1.72883a14.83754,14.83754,0,0,0-3.62293-.42968c-2.24227,0-3.00829.821-3.00829,1.83057,0,.93394.74728,1.643,2.37269,2.07325l1.13892.2987a7.38222,7.38222,0,0,1,2.98846,1.307,2.68844,2.68844,0,0,1,.93356,2.33484c0,2.20367-1.66248,3.67917-4.87468,3.67917a13.90054,13.90054,0,0,1-4.66859-.78369l.31635-1.45821a13.65817,13.65817,0,0,0,4.35224.72893c2.05561,0,2.95133-.83989,2.95133-2.09052a1.71317,1.71317,0,0,0-.41112-1.19627,5.236,5.236,0,0,0-2.3161-.99087L67.723,18.9493c-2.8018-.76493-3.64205-1.961-3.64205-3.5853,0-2.11072,1.94246-3.36208,4.91217-3.36208a14.7574,14.7574,0,0,1,3.92237.52281Zm11.62387,0a14.838,14.838,0,0,0-3.624-.42968c-2.24116,0-3.0072.821-3.0072,1.83057,0,.93394.7473,1.643,2.37306,2.07325l1.13857.2987a7.37093,7.37093,0,0,1,2.98772,1.307A2.68805,2.68805,0,0,1,85.1,21.3591c0,2.20367-1.66249,3.67917-4.87542,3.67917a13.90838,13.90838,0,0,1-4.66859-.78369l.31635-1.45821a13.6634,13.6634,0,0,0,4.35224.72893c2.05487,0,2.95134-.83989,2.95134-2.09052a1.71316,1.71316,0,0,0-.41075-1.19627,5.23628,5.23628,0,0,0-2.31575-.99087l-1.10257-.29834c-2.80179-.76493-3.642-1.961-3.642-3.5853,0-2.11072,1.94318-3.36208,4.91253-3.36208a14.75666,14.75666,0,0,1,3.922.52281Z"/>
    <path class="cls-2" d="M73.72086,6.41208a5.49039,5.49039,0,0,0-.59-.717,1.52486,1.52486,0,0,0,.672-2.446A2.22538,2.22538,0,0,0,72.11018,2.721H68.78152c-.0779.81638-.119,1.69978-.119,2.5145,0,.80938.04078,1.7007.1205,2.51616h1.54051c-.06758-.67989-.09883-1.22345-.12013-1.90369H71.752a7.54425,7.54425,0,0,1,.49194.69659,11.84371,11.84371,0,0,1,.59556,1.2071h1.72092A13.48489,13.48489,0,0,0,73.72086,6.41208Zm-1.456-1.37941H70.20152c.00147-.40837.01616-.81638.04665-1.36013h1.35462c.49783,0,.74106.07752.89536.24323a.65156.65156,0,0,1,.14842.42893A.79858.79858,0,0,1,72.26484,5.03267Zm-18.11494.2456a23.08507,23.08507,0,0,1-.12124,2.47336h-1.3254a24.00405,24.00405,0,0,1-.121-2.47336c-.002-.87974.04242-1.74092.121-2.5573h1.32651C54.10252,3.53735,54.15194,4.40074,54.1499,5.27827Zm22.98524,0a23.23147,23.23147,0,0,1-.12126,2.47336H75.68831a23.75345,23.75345,0,0,1-.12126-2.47336c-.00182-.87974.04263-1.74092.12162-2.5573h1.32595C77.08737,3.53735,77.137,4.40074,77.13514,5.27827Zm6.19035-.23457c-.48388-.954-.91777-1.64267-1.326-2.32273H80.42632c-.40011.68006-.83989,1.36453-1.32265,2.31684-.48717.958-.92586,2.03393-1.19956,2.71382h1.62648c.09883-.27171.219-.67989.34721-.95157H82.547c.129.27168.244.67986.34939.95157h1.6243A23.6802,23.6802,0,0,0,83.32549,5.0437Zm-3.08176.80424c.32661-.68007.62862-1.34158.96846-1.95753.33433.60034.6356,1.27746.97031,1.95753ZM60.49934,5.06868a1.172,1.172,0,0,0,.59336-1.01954,1.11193,1.11193,0,0,0-.368-.90786A3.36317,3.36317,0,0,0,58.67759,2.721H55.85043c-.08009.81638-.12142,1.70659-.12142,2.5145,0,.80938.03636,1.56459.12142,2.51616H58.7856a3.77506,3.77506,0,0,0,2.07472-.39147A1.32023,1.32023,0,0,0,61.356,6.27008,1.26937,1.26937,0,0,0,60.49934,5.06868ZM57.31507,3.67254h1.30244c.52577,0,.70174.06063.85219.21309a.526.526,0,0,1,.12327.36631.6464.6464,0,0,1-.2401.509H57.26951C57.27411,4.3526,57.28917,4.08072,57.31507,3.67254ZM59.6883,6.6101a.97038.97038,0,0,1-.71073.19h-1.6625c-.03324-.40837-.04556-.81546-.04721-1.08733H59.142a.73829.73829,0,0,1,.53182.12748.44854.44854,0,0,1,.16716.372A.5239.5239,0,0,1,59.6883,6.6101Zm7.69046,1.14153h-4.7494c-.068-.81546-.12161-1.70713-.12161-2.513,0-.81012.047-1.70125.12088-2.51763h4.75086c-.03084.40818-.051.68006-.06575,1.08788H64.08318c-.02646.27187-.03639.68005-.03639.95212h2.94548v.95176H64.04679c.00076.27187.01287.679.03712,1.08733h3.23387C67.334,7.07174,67.35416,7.47992,67.37876,7.75163Z"/>
    <path class="cls-3" d="M94.08156,19.89058C101.642,12.29,112.457,8.06777,119.62572,7.86166l-2.4559,6.40713c-2.92671,6.80888-7.94268,11.81-29.21837,11.81Z"/>
    <path class="cls-4" d="M101.47478,12.40716l6.89688-6.98469C111.70252,2.10375,113.0134,0,122.64191,0l-1.587,4.13437C114.553,4.86917,108.02243,7.70515,101.47478,12.40716Z"/>
  </g>
</svg>
