<svg width="305" height="115" viewBox="0 0 305 115" fill="none" xmlns="http://www.w3.org/2000/svg">
<path fill-rule="evenodd" clip-rule="evenodd" d="M149.166 28.6134C148.456 28.6134 147.766 28.6963 147.104 28.854C144.716 29.4205 142.222 28.4207 140.796 26.4223C137.316 21.5495 131.624 18.3691 125.179 18.3691C124.823 18.3691 124.47 18.3796 124.12 18.3994C122.195 18.5092 120.336 17.5795 119.218 16.0086C112.468 6.5293 101.396 0.342529 88.8727 0.342529C76.6311 0.342529 65.7725 6.25249 58.9853 15.3721C57.898 16.8332 55.9369 17.2945 54.2539 16.5961C51.5944 15.4924 48.6826 14.8757 45.6214 14.8757C33.082 14.8757 22.9159 25.0417 22.9159 37.5811H51.6341H68.328H105.966H126.111H140.198H144.391H158.134C158.134 32.6277 154.119 28.6134 149.166 28.6134Z" fill="white"/>
<path fill-rule="evenodd" clip-rule="evenodd" d="M191.673 17.3534C191.402 17.3534 191.139 17.385 190.886 17.445C189.973 17.6617 189.02 17.2795 188.475 16.5161C187.145 14.6536 184.969 13.4382 182.507 13.4382C182.371 13.4382 182.236 13.4423 182.102 13.4496C181.366 13.492 180.655 13.1367 180.228 12.5362C177.649 8.91321 173.417 6.54907 168.631 6.54907C163.952 6.54907 159.803 8.8077 157.209 12.2926C156.793 12.8512 156.044 13.0276 155.4 12.7607C154.384 12.3386 153.271 12.1033 152.102 12.1033C147.309 12.1033 143.424 15.9885 143.424 20.7804H154.4H160.779H175.164H182.862H188.246H189.849H195.1C195.1 18.888 193.566 17.3534 191.673 17.3534Z" fill="white"/>
<path fill-rule="evenodd" clip-rule="evenodd" d="M283.856 74.1888C282.684 74.4047 281.506 74.5656 280.319 74.6695L227.692 79.2381H227.69L173.656 83.9268L127.283 87.9536C96.989 90.5791 78.4639 89.6645 78.4639 89.6645C78.4639 89.6645 63.6528 88.5687 48.6323 86.4097C48.2586 86.3567 47.8849 86.2997 47.5113 86.2468C40.6313 85.2324 33.7822 83.994 28.3743 82.5316C28.325 82.5194 28.2778 82.5031 28.2265 82.4909C22.0158 80.8064 17.733 78.8266 17.5318 76.5556C17.0329 70.8891 64.6403 66.2411 118.551 61.0574C183.324 54.8288 257.252 48.588 268.624 48.977C279.099 49.3375 284.797 52.0913 292.375 55.0895C292.465 55.1262 292.557 55.1608 292.652 55.1995C294.202 55.8085 295.748 56.7393 297.138 57.4298C297.405 57.5622 297.668 57.6885 297.92 57.7985C303.078 60.0573 304.765 62.1899 304.991 64.7481C305.43 69.7302 289.505 73.1398 283.856 74.1888Z" fill="white"/>
<path fill-rule="evenodd" clip-rule="evenodd" d="M283.413 69.4694C282.234 69.6581 281.062 69.8409 279.875 69.9433L126.838 83.0383C96.5442 85.6308 78.021 84.7291 78.021 84.7291C78.021 84.7291 54.6524 84.7593 27.2166 79.5903C23.6832 78.9256 17.528 76.7408 17.528 76.7408C17.7292 78.9799 22.012 80.9338 28.2247 82.5945C33.9467 84.1307 41.3133 85.4179 48.6306 86.4561C63.6492 88.5868 78.4624 89.6671 78.4624 89.6671C78.4624 89.6671 96.9857 90.5688 127.279 87.9763L280.317 74.8813C281.503 74.7809 282.682 74.6222 283.854 74.4074C289.502 73.3732 305.43 70.0116 304.991 65.1017C304.991 65.1017 291.802 68.1199 283.413 69.4694Z" fill="#938A80"/>
<mask id="mask0_426_2449" style="mask-type:alpha" maskUnits="userSpaceOnUse" x="173" y="74" width="61" height="10">
<path fill-rule="evenodd" clip-rule="evenodd" d="M233.384 74.6859L227.863 79.1208H227.859L173.873 83.7657V83.7617L179.061 79.5145L233.384 74.6859Z" fill="white"/>
</mask>
<g mask="url(#mask0_426_2449)">
<path fill-rule="evenodd" clip-rule="evenodd" d="M179.061 79.5145L173.873 83.7617V83.7657L227.859 79.1208H227.863L233.384 74.6859L179.061 79.5145Z" fill="url(#paint0_linear_426_2449)"/>
</g>
<path fill-rule="evenodd" clip-rule="evenodd" d="M297.435 57.5134L295.492 57.7419C295.173 57.8594 294.886 58.0683 294.67 58.3425C294.29 58.83 293.712 59.0889 293.122 59.0432L288.577 58.299C287.934 58.1945 287.441 57.6331 287.384 56.9432L287.352 56.5428C287.305 55.9792 287.698 55.4786 288.225 55.4308L292.715 55.0129C292.804 55.0521 292.896 55.0891 292.99 55.1305C294.526 55.7811 296.058 56.7756 297.435 57.5134Z" fill="#938A80"/>
<path fill-rule="evenodd" clip-rule="evenodd" d="M56.8644 72.8854L15.3851 68.1281L0.884521 69.3833L32.4781 78.2167L57.2172 76.0773C57.2295 76.0732 57.2418 76.0692 57.2562 76.0651C58.9585 75.5359 58.6427 73.0436 56.8644 72.8854Z" fill="#938A80"/>
<mask id="mask1_426_2449" style="mask-type:alpha" maskUnits="userSpaceOnUse" x="28" y="75" width="30" height="12">
<path fill-rule="evenodd" clip-rule="evenodd" d="M57.8751 75.1902C57.6515 75.432 53.3842 80.0487 47.6401 86.2877L46.2737 86.0786C39.9026 85.0889 33.638 83.9025 28.6236 82.5161V82.5058L33.7513 77.1143L57.8751 75.1902Z" fill="white"/>
</mask>
<g mask="url(#mask1_426_2449)">
<path fill-rule="evenodd" clip-rule="evenodd" d="M33.7513 77.1143L28.6236 82.5058V82.5161C33.9962 84.0016 40.8039 85.2574 47.6401 86.2877C53.5353 79.8845 57.8751 75.1902 57.8751 75.1902L33.7513 77.1143Z" fill="url(#paint1_linear_426_2449)"/>
</g>
<path fill-rule="evenodd" clip-rule="evenodd" d="M263.44 58.7899L262.943 58.8297C262.418 58.8734 262.03 59.3009 262.075 59.786L262.192 61.0067C262.237 61.4938 262.7 61.8517 263.225 61.8099L263.722 61.7701C264.247 61.7264 264.637 61.299 264.59 60.8139L264.473 59.5911C264.428 59.106 263.965 58.7482 263.44 58.7899Z" fill="#938A80"/>
<path fill-rule="evenodd" clip-rule="evenodd" d="M258.456 59.0519L257.961 59.0917C257.434 59.1354 257.046 59.5628 257.091 60.048L257.208 61.2687C257.253 61.7538 257.716 62.1136 258.243 62.0719L258.738 62.0321C259.263 61.9884 259.653 61.5609 259.606 61.0758L259.491 59.8531C259.444 59.368 258.981 59.0101 258.456 59.0519Z" fill="#938A80"/>
<path fill-rule="evenodd" clip-rule="evenodd" d="M253.096 59.3071L252.599 59.3469C252.074 59.3906 251.686 59.8181 251.731 60.3032L251.848 61.5239C251.893 62.009 252.356 62.3689 252.881 62.3271L253.378 62.2874C253.903 62.2436 254.293 61.8162 254.246 61.3311L254.129 60.1084C254.084 59.6233 253.621 59.2654 253.096 59.3071Z" fill="#938A80"/>
<path fill-rule="evenodd" clip-rule="evenodd" d="M246.857 60.0607L246.362 60.1004C245.835 60.1442 245.447 60.5716 245.493 61.0567L245.609 62.2775C245.654 62.7626 246.117 63.1224 246.644 63.0807L247.139 63.0389C247.665 62.9972 248.054 62.5697 248.007 62.0846L247.891 60.8619C247.845 60.3768 247.383 60.0189 246.857 60.0607Z" fill="#938A80"/>
<path fill-rule="evenodd" clip-rule="evenodd" d="M240.805 60.565L240.307 60.6047C239.782 60.6485 239.395 61.0759 239.44 61.561L239.556 62.7817C239.601 63.2668 240.064 63.6267 240.589 63.5849L241.087 63.5452C241.612 63.5014 242.001 63.074 241.954 62.5889L241.838 61.3662C241.793 60.8811 241.33 60.5232 240.805 60.565Z" fill="#938A80"/>
<path fill-rule="evenodd" clip-rule="evenodd" d="M234.752 61.0694L234.257 61.1091C233.729 61.1529 233.342 61.5803 233.387 62.0654L233.503 63.2881C233.548 63.7732 234.011 64.1311 234.539 64.0893L235.034 64.0496C235.559 64.0058 235.948 63.5784 235.901 63.0933L235.785 61.8706C235.74 61.3855 235.277 61.0276 234.752 61.0694Z" fill="#938A80"/>
<path fill-rule="evenodd" clip-rule="evenodd" d="M229.204 61.5611L228.707 61.6008C228.181 61.6446 227.794 62.072 227.839 62.5571L227.955 63.7778C228 64.2649 228.463 64.6228 228.989 64.581L229.486 64.5413C230.011 64.4975 230.401 64.0701 230.353 63.585L230.237 62.3623C230.192 61.8772 229.729 61.5193 229.204 61.5611Z" fill="#938A80"/>
<path fill-rule="evenodd" clip-rule="evenodd" d="M222.648 62.0654L222.153 62.1052C221.625 62.1489 221.238 62.5764 221.283 63.0615L221.399 64.2822C221.445 64.7673 221.907 65.1272 222.435 65.0854L222.93 65.0457C223.455 65.0019 223.845 64.5745 223.797 64.0894L223.681 62.8667C223.636 62.3816 223.173 62.0237 222.648 62.0654Z" fill="#938A80"/>
<path fill-rule="evenodd" clip-rule="evenodd" d="M217.1 62.5828L216.605 62.6225C216.08 62.6663 215.69 63.0937 215.735 63.5788L215.852 64.7996C215.897 65.2847 216.362 65.6445 216.887 65.6028L217.382 65.563C217.907 65.5193 218.297 65.0918 218.25 64.6067L218.135 63.384C218.088 62.8989 217.625 62.541 217.1 62.5828Z" fill="#938A80"/>
<path fill-rule="evenodd" clip-rule="evenodd" d="M211.049 63.0872L210.554 63.1269C210.027 63.1707 209.639 63.5981 209.684 64.0832L209.801 65.304C209.846 65.7891 210.309 66.1489 210.836 66.1072L211.331 66.0654C211.856 66.0237 212.246 65.5962 212.199 65.1111L212.082 63.8884C212.037 63.4033 211.574 63.0454 211.049 63.0872Z" fill="#938A80"/>
<path fill-rule="evenodd" clip-rule="evenodd" d="M204.996 63.5918L204.501 63.6316C203.974 63.6753 203.586 64.1028 203.632 64.5879L203.748 65.8086C203.793 66.2937 204.256 66.6536 204.783 66.6118L205.278 66.572C205.804 66.5283 206.193 66.1008 206.146 65.6157L206.032 64.393C205.984 63.9079 205.522 63.5501 204.996 63.5918Z" fill="#938A80"/>
<path fill-rule="evenodd" clip-rule="evenodd" d="M198.943 64.0833L198.448 64.123C197.921 64.1668 197.533 64.5942 197.579 65.0793L197.695 66.302C197.74 66.7871 198.203 67.145 198.728 67.1032L199.225 67.0635C199.751 67.0197 200.14 66.5923 200.093 66.1072L199.977 64.8845C199.931 64.3994 199.469 64.0415 198.943 64.0833Z" fill="#938A80"/>
<path fill-rule="evenodd" clip-rule="evenodd" d="M193.101 64.4791L192.606 64.5189C192.078 64.5626 191.691 64.9901 191.736 65.4752L191.852 66.6959C191.897 67.183 192.36 67.5409 192.888 67.4991L193.383 67.4594C193.908 67.4156 194.297 66.9882 194.25 66.5031L194.136 65.2804C194.089 64.7953 193.626 64.4374 193.101 64.4791Z" fill="#938A80"/>
<path fill-rule="evenodd" clip-rule="evenodd" d="M186.84 65.1049L186.342 65.1446C185.817 65.1884 185.43 65.6158 185.475 66.1009L185.591 67.3217C185.636 67.8068 186.099 68.1666 186.624 68.1249L187.122 68.0851C187.647 68.0414 188.036 67.6139 187.989 67.1288L187.873 65.9061C187.828 65.421 187.365 65.0631 186.84 65.1049Z" fill="#938A80"/>
<path fill-rule="evenodd" clip-rule="evenodd" d="M181.292 65.6093L180.797 65.649C180.269 65.6928 179.882 66.1202 179.927 66.6053L180.043 67.826C180.089 68.3112 180.551 68.671 181.079 68.6293L181.574 68.5895C182.099 68.5458 182.489 68.1183 182.441 67.6332L182.325 66.4105C182.28 65.9254 181.817 65.5675 181.292 65.6093Z" fill="#938A80"/>
<path fill-rule="evenodd" clip-rule="evenodd" d="M175.241 66.1138L174.744 66.1535C174.218 66.1973 173.831 66.6247 173.876 67.1098L173.992 68.3306C174.038 68.8157 174.5 69.1755 175.026 69.1338L175.523 69.092C176.048 69.0503 176.438 68.6228 176.39 68.1377L176.274 66.915C176.229 66.4299 175.766 66.072 175.241 66.1138Z" fill="#8FC7E6"/>
<path fill-rule="evenodd" clip-rule="evenodd" d="M169.188 67.1228L168.693 67.1626C168.166 67.2063 167.778 67.6338 167.823 68.1189L167.94 69.3396C167.985 69.8247 168.448 70.1846 168.975 70.1428L169.47 70.103C169.995 70.0593 170.385 69.6319 170.338 69.1467L170.221 67.924C170.176 67.4389 169.713 67.0811 169.188 67.1228Z" fill="#8FC7E6"/>
<path fill-rule="evenodd" clip-rule="evenodd" d="M163.135 67.6271L162.638 67.6669C162.113 67.7106 161.725 68.138 161.77 68.6231L161.887 69.8458C161.932 70.3309 162.395 70.6888 162.92 70.6471L163.417 70.6073C163.942 70.5636 164.332 70.1361 164.285 69.651L164.168 68.4283C164.123 67.9432 163.66 67.5853 163.135 67.6271Z" fill="#8FC7E6"/>
<path fill-rule="evenodd" clip-rule="evenodd" d="M157.587 67.6271L157.092 67.6669C156.565 67.7106 156.177 68.138 156.223 68.6231L156.339 69.8439C156.384 70.3309 156.847 70.6888 157.374 70.6471L157.869 70.6073C158.395 70.5636 158.784 70.1361 158.737 69.651L158.621 68.4283C158.575 67.9432 158.113 67.5853 157.587 67.6271Z" fill="#8FC7E6"/>
<path fill-rule="evenodd" clip-rule="evenodd" d="M151.033 68.1314L150.538 68.1711C150.013 68.2149 149.624 68.6423 149.669 69.1274L149.785 70.3481C149.83 70.8332 150.295 71.1931 150.82 71.1514L151.315 71.1116C151.841 71.0678 152.23 70.6404 152.183 70.1553L152.069 68.9326C152.022 68.4475 151.559 68.0896 151.033 68.1314Z" fill="#8FC7E6"/>
<path fill-rule="evenodd" clip-rule="evenodd" d="M145.486 68.6359L144.991 68.6756C144.463 68.7194 144.076 69.1468 144.121 69.6319L144.237 70.8527C144.282 71.3378 144.745 71.6976 145.273 71.6559L145.768 71.6161C146.293 71.5724 146.683 71.1449 146.635 70.6598L146.519 69.4371C146.474 68.952 146.011 68.5941 145.486 68.6359Z" fill="#8FC7E6"/>
<path fill-rule="evenodd" clip-rule="evenodd" d="M139.433 69.6449L138.938 69.6847C138.41 69.7284 138.023 70.1559 138.068 70.641L138.184 71.8617C138.229 72.3468 138.694 72.7067 139.22 72.6649L139.715 72.6231C140.24 72.5814 140.63 72.1539 140.582 71.6688L140.468 70.4461C140.421 69.961 139.958 69.6032 139.433 69.6449Z" fill="#8FC7E6"/>
<path fill-rule="evenodd" clip-rule="evenodd" d="M133.38 70.1492L132.885 70.1889C132.357 70.2327 131.97 70.6601 132.015 71.1452L132.131 72.366C132.177 72.8511 132.639 73.2109 133.167 73.1692L133.662 73.1294C134.187 73.0857 134.577 72.6582 134.529 72.1731L134.413 70.9504C134.368 70.4653 133.905 70.1074 133.38 70.1492Z" fill="#8FC7E6"/>
<path fill-rule="evenodd" clip-rule="evenodd" d="M127.329 70.1492L126.834 70.1889C126.307 70.2327 125.919 70.6601 125.964 71.1452L126.081 72.3679C126.126 72.853 126.589 73.2109 127.116 73.1692L127.611 73.1294C128.136 73.0857 128.526 72.6582 128.478 72.1731L128.364 70.9504C128.317 70.4653 127.854 70.1074 127.329 70.1492Z" fill="#938A80"/>
<path fill-rule="evenodd" clip-rule="evenodd" d="M121.781 70.6537L121.284 70.6935C120.759 70.7372 120.371 71.1647 120.416 71.6498L120.533 72.8705C120.578 73.3576 121.041 73.7154 121.566 73.6737L122.063 73.6339C122.588 73.5902 122.978 73.1627 122.931 72.6776L122.814 71.4549C122.769 70.9698 122.306 70.612 121.781 70.6537Z" fill="#938A80"/>
<path fill-rule="evenodd" clip-rule="evenodd" d="M115.225 71.6624L114.73 71.7021C114.203 71.7459 113.815 72.1733 113.861 72.6584L113.977 73.8791C114.022 74.3643 114.485 74.7241 115.012 74.6824L115.507 74.6426C116.032 74.5989 116.422 74.1714 116.375 73.6863L116.259 72.4636C116.213 71.9785 115.751 71.6206 115.225 71.6624Z" fill="#938A80"/>
<path fill-rule="evenodd" clip-rule="evenodd" d="M109.677 72.167L109.18 72.2068C108.655 72.2505 108.268 72.678 108.313 73.1631L108.429 74.3838C108.474 74.8689 108.937 75.2287 109.462 75.187L109.959 75.1472C110.485 75.1035 110.874 74.676 110.827 74.1909L110.711 72.9682C110.665 72.4831 110.203 72.1253 109.677 72.167Z" fill="#938A80"/>
<path fill-rule="evenodd" clip-rule="evenodd" d="M103.625 72.6714L103.129 72.7112C102.602 72.7549 102.215 73.1824 102.26 73.6675L102.376 74.8882C102.421 75.3733 102.884 75.7331 103.411 75.6914L103.907 75.6496C104.432 75.6079 104.821 75.1804 104.774 74.6953L104.658 73.4726C104.613 72.9875 104.15 72.6297 103.625 72.6714Z" fill="white"/>
<path fill-rule="evenodd" clip-rule="evenodd" d="M97.5717 72.6714L97.0744 72.7112C96.5492 72.7549 96.1618 73.1824 96.207 73.6675L96.3232 74.8882C96.3684 75.3733 96.8312 75.7331 97.3564 75.6914L97.8537 75.6516C98.3789 75.6079 98.7685 75.1804 98.7212 74.6953L98.6049 73.4726C98.5597 72.9875 98.0969 72.6297 97.5717 72.6714Z" fill="white"/>
<path fill-rule="evenodd" clip-rule="evenodd" d="M91.5208 73.1759L91.0257 73.2157C90.4983 73.2594 90.1109 73.6869 90.1561 74.172L90.2723 75.3947C90.3175 75.8798 90.7803 76.2376 91.3077 76.1959L91.8028 76.1561C92.328 76.1124 92.7176 75.6849 92.6703 75.1998L92.554 73.9771C92.5088 73.492 92.046 73.1342 91.5208 73.1759Z" fill="white"/>
<path fill-rule="evenodd" clip-rule="evenodd" d="M233.189 69.2142C231.416 68.5377 229.549 68.1326 227.653 68.0131L124.953 64.4625C119.528 64.1243 114.401 61.8983 110.482 58.1796L107.213 55.0807C106.02 53.9485 104.389 53.3793 102.739 53.5211L98.7784 53.8634C98.7353 53.8675 98.7107 53.914 98.7333 53.9505L101.994 59.3908C105.027 64.4524 109.934 68.1549 115.68 69.7145H115.686L177.823 80.2347C177.827 80.2347 232.241 75.5377 232.241 75.5377C234.139 75.4607 235.584 73.816 235.381 71.9405C235.248 70.705 234.363 69.6619 233.189 69.2142Z" fill="#C4B8AB"/>
<path fill-rule="evenodd" clip-rule="evenodd" d="M206.96 74.6859L207.663 82.2524L204.676 81.3378L202.987 80.8196L202.62 76.8666L204.188 76.0781L206.96 74.6859Z" fill="#C4B8AB"/>
<path fill-rule="evenodd" clip-rule="evenodd" d="M227.019 69.6446L225.314 69.7759L226.751 84.2701L228.541 84.1326C229.03 84.0936 229.391 83.7139 229.345 83.2829L227.976 70.3485C227.929 69.9216 227.503 69.6076 227.019 69.6446Z" fill="#C4B8AB"/>
<path fill-rule="evenodd" clip-rule="evenodd" d="M225.043 70.146L226.323 84.5281L223.558 84.7276C220.923 85.135 213.672 85.5178 211.049 85.0942C210.022 84.9313 209.017 84.6462 208.063 84.2491C207.576 84.0535 207.1 83.8275 206.641 83.577L205.997 83.2247C205.504 82.9579 205.181 82.4691 205.131 81.9172L204.643 76.4185C204.591 75.8341 204.856 75.2679 205.338 74.9278L206.359 74.2069C207.262 73.5694 208.235 73.0379 209.27 72.6347C211.924 71.596 219.312 70.6164 222.175 70.5126L224.304 70.2397L225.043 70.146Z" fill="#E7E2DD"/>
<defs>
<linearGradient id="paint0_linear_426_2449" x1="166.779" y1="76.1553" x2="167.477" y2="83.524" gradientUnits="userSpaceOnUse">
<stop stop-color="#7B6449"/>
<stop offset="1" stop-color="#7B6449"/>
</linearGradient>
<linearGradient id="paint1_linear_426_2449" x1="28.6139" y1="86.289" x2="57.8744" y2="86.289" gradientUnits="userSpaceOnUse">
<stop stop-color="#7B6449"/>
<stop offset="1" stop-color="#7B6449"/>
</linearGradient>
</defs>
</svg>
