<svg xmlns="http://www.w3.org/2000/svg" width="105" height="142" viewBox="0 0 105 142">
    <g fill="none" fill-rule="nonzero">
        <path fill="#D71B2D" d="M52.704 74.311S50.186 36.065 48.21 27.24c-1.977-8.826-2.385-11.418-7.902-9.98-5.516 1.436-22.917 6.351-27.21 7.218-4.294.868-4.385 3.758-4.017 6.36.368 2.602 4.393 40.882 4.393 40.882s8.435 2.127 19.452 9.378c2.026 1.334 8.793 6.187 10.564 7.818 1.733 1.597 1.637 3.637 1.466 3.922-.612 1.023-.185.713-3.16 1.291-1.758.342-18.855-7.383-18.855-7.383L13.452 82.3s1.17 8.058 3.393 11.491c2.118 3.269 27.28 14.184 30.384 15.755 2.298 1.164 3.646.584 4.928 0 1.987-.904 33.299-14.038 35.302-15.04 2.003-1.004 2.648-2.016.875-3.461-1.774-1.446-34.607-17.2-34.607-17.2"/>
        <g fill="#000" stroke="#000" stroke-width=".7">
            <path d="M27.846 44.977c0-.006-.087-.606.706-.959.407-.18.72-.257 1.289-.397.674-.165 1.692-.414 3.609-1.02 3.092-.975 3.974-1.013 4.121-1.01l.767.39.171-.268-.827-.42-.03-.005c-.074-.011-.831-.077-4.318 1.024a50.83 50.83 0 0 1-3.585 1.013c-.57.14-.915.224-1.351.418-1.015.451-.9 1.245-.895 1.278l.343-.044zM76.67 69.41c-.819 0-1.486.593-1.486 1.322 0 .73.667 1.323 1.487 1.323.82 0 1.486-.594 1.486-1.323s-.667-1.322-1.486-1.322zm0 2.337c-.628 0-1.14-.455-1.14-1.015 0-.559.512-1.014 1.14-1.014.63 0 1.141.455 1.141 1.014 0 .56-.511 1.015-1.14 1.015z"/>
            <path d="M103.898 110.33c-1.214-2.374-9.84-5.724-12.456-6.694l-.17-.063.457-2.335a9.45 9.45 0 0 0 .568-.3l.139-.085c1.323-.803 1.405-1.418.985-7.312-.365-5.11-4.615-6.87-8.383-8.432-.99-.41-1.924-.798-2.767-1.235-3.703-1.921-22.499-9.113-26.934-10.803.42-1.186.76-3.478.714-7.823 4.025 1.46 17.962 6.515 19.127 6.947.38.141.939.39 1.586.676 1.695.753 4.016 1.783 5.767 2.08 1.025.173 1.566.237 1.932.237.315 0 .502-.047.759-.111.154-.039.328-.083.577-.127 1.167-.208 1.46-1.018 1.499-1.143a.85.85 0 0 0 .1-.368l.013-.046-.01.007c.028-.677-.439-2.187-3.809-4.819-4.42-3.452-13.814-7.74-19.02-9.99-3-1.296-7.146-2.376-9.023-2.833-.15-1.813-.338-3.796-.57-5.978-1.88-17.67-5.341-24.552-6.928-26.864 1.322-.652 3.148-1.888 3.472-3.04.413-1.47 1.04-7.108.004-11.099-.513-1.976-2.612-3.782-6.24-5.37-3.091-1.353-6.286-2.114-7.19-2.316-3.152-.698-16.723 2.774-21.25 4.632-1.876.77-4.657 2.528-7.251 6.528-2.43 3.747-4.11 8.56-4.99 14.303-.938 6.114-.426 15.21 1.519 27.039 1.434 8.72 3.183 15.863 3.2 15.93l.12.526A3.3 3.3 0 0 0 9.035 70h-.001c-.713.002-1.532.229-3.794.958-.052.017-1.271.42-2.4 1.734-1.868 2.176-1.985 5.12-1.754 7.206.79 7.12 2.334 12.216 5.165 17.042.152.259.302.517.45.774 2.097 3.616 4.101 7.068 11.6 11.935-4.77 2.046-6.827 6.302-5.498 11.424 1.042 4.014 11.748 9.105 20.365 13.201 2.819 1.34 5.253 2.497 6.819 3.374 3.08 1.725 5.57 2.72 7.84 3.13.82.149 1.607.221 2.405.221 1.14 0 2.327-.151 3.628-.462 2.5-.597 11.08-4.901 25.504-12.792 10.385-5.682 21.085-11.753 21.53-12.095.11-.085.286-.197.49-.328 1.142-.732 3.814-2.447 2.513-4.993zm-13.715-2.982l-40.204 19.854-12.144-6.795c1.75.904 3.038 1.548 3.902 1.962v.001h.002c.763.366 1.198.554 1.331.584.093.02.198.03.312.03.545 0 1.292-.222 1.825-.563.705-.451 2.08-2.547 2.08-3.583v-.152l3.8 1.757.467-.219c3.712-1.738 33.92-15.889 39.785-18.791l-1.156 5.915zM41.89 122.096l.009.002v.002l-.009-.004zm-1.274-6.37c-3.428-2.06-25.116-15.865-27.754-19.355-2.655-3.515-3.957-10.084-4.036-12.66a62.108 62.108 0 0 1-.009-3.82l1.46.636.05.213c.032.142 3.417 14.35 6.2 17.027 6.604 6.35 29.065 19.996 30.05 20.591l.363.168v.312c0 .976-1.374 2.974-1.936 3.333-.613.391-1.467.569-1.851.484-.091-.02-.388-.146-.91-.391.222-.125.518-.352.92-.747.494-.484.574-.638.757-1.806.034-.218.008-.448.049-.717.165-1.107-.501-1.553-3.353-3.267zm4.61-25.43l-.026.01a3.8 3.8 0 0 0-.01-.5c-.077-.848-1.611-2.375-4.56-4.54-1.437-1.054-3.171-2.224-5.079-3.436a4005.089 4005.089 0 0 0 18.713-7.216c3.926 1.496 23.386 8.938 26.99 10.808.932.484 1.958.909 2.95 1.32 3.556 1.474 6.915 2.867 7.204 6.912.211 2.97.262 4.415.179 5.158-.047.412-.047.412-.29.56l-.168.105c-1.009.621-29.107 13.816-40.05 18.943l-3.432-1.581c-.948-.576-23.294-14.19-29.64-20.29-.633-.61-1.366-2.156-2.1-4.126.027-.81.307-1.818.646-2.572.14 1.099.64 1.95 1.465 2.466.902.563 5.289 2.484 10.369 4.71 6.404 2.805 14.375 6.296 17.472 8.01 5.368 2.971 5.993 12.09 5.999 12.182l.345-.017c-.001-.023-.153-2.361-.98-5.04-.767-2.486-2.288-5.785-5.18-7.386-3.113-1.722-10.758-5.071-17.503-8.026-5.067-2.22-9.443-4.136-10.323-4.685-1.095-.685-1.346-1.885-1.358-2.797.149-.236.298-.405.432-.47.105-.05.717-.28 1.564-.598 1.064-.399 2.613-.98 4.53-1.719l.31-.12c7.415 3.214 14.935 6.45 15.774 6.72 1.83.592 3.145.592 4.85 0 .491-.171.834-.456 1.019-.848.4-.85-.09-1.893-.112-1.937zM16.972 71.938c-.127-1.066-1.438-11.933-2.734-19.233-1.354-7.629-1.346-17.17-1.345-17.266h-.347c0 .095-.009 9.66 1.35 17.314 1.246 7.022 2.507 17.35 2.713 19.06-1.275-.425-3.319-.945-4.977-1.32l-.335-1.341c-.07-.28-6.883-28.075-4.693-42.355C8.865 12.049 15.662 8.184 17.69 7.352 19.84 6.47 24.167 5.204 28.46 4.2c5.51-1.287 8.371-1.543 9.147-1.37.874.194 1.94.473 3.071.824-2.473.328-6.573 1.194-12.131 2.445-6.81 1.533-8.987 4.09-11.743 7.327l-.13.154c-2.795 3.28-3 7.19-3.009 7.403-.034.23-.808 5.433-1.117 7.21-.332 1.915.836 2.289 2.074 2.684l.085.027a2.7 2.7 0 0 0 .815.107c1.47 0 3.805-.741 6.435-1.577l.169-.054 23.457-6.367.506.482c.046.044 4.564 4.652 6.883 26.453 1.976 18.578.644 22.295.342 22.872l-1.721.777.126.048a4214.673 4214.673 0 0 1-17.73 6.833l-.374.143a151.937 151.937 0 0 0-2.987-1.782c-7.76-4.508-11.831-6.167-13.363-6.791a8.815 8.815 0 0 0-.293-.11zM49.562 9.18c.97 3.735.338 9.075.005 10.26-.03.107-.039.216-.046.334-.02.331-.054.796-1.327 1.719-.865.484-1.705.921-1.836.989l-24.337 6.606-.18.057c-2.997.952-5.828 1.851-7.017 1.47l-.085-.027c-1.241-.396-2.138-.683-1.848-2.347.314-1.811 1.11-7.17 1.119-7.224L14.01 21c.001-.04.145-3.955 2.938-7.234l.131-.154c2.821-3.314 4.86-5.708 11.552-7.214 3.875-.873 9.791-2.205 12.75-2.52 3.602 1.188 7.6 3.065 8.18 5.301zm-33.23 78.042c-.729.35-1.223 1.122-1.548 1.869a113.52 113.52 0 0 1-2.03-7.485c2.292.999 5.3 2.308 8.474 3.685-4.454 1.718-4.67 1.821-4.897 1.931zM85.73 74.648c-.262.047-.45.094-.603.132-.514.13-.707.177-2.532-.132-1.704-.289-4-1.308-5.677-2.052-.653-.29-1.217-.54-1.608-.685-1.179-.437-15.42-5.602-19.263-6.997a117.94 117.94 0 0 0-.26-5.984c1.935.776 6.016 2.403 9.668 3.806 4.963 1.906 13.504 6.94 15.057 8.015.37.256.846.646 1.35 1.06.902.739 1.834 1.503 2.408 1.707.137.049.279.105.425.162.632.248 1.39.546 2.081.383-.173.223-.489.486-1.046.585zm-21.31-15.78c5.19 2.242 14.553 6.516 18.943 9.944 4.136 3.23 3.729 4.628 3.641 4.825-.635.36-1.449.045-2.169-.239a14.9 14.9 0 0 0-.436-.166c-.515-.183-1.464-.961-2.302-1.648-.51-.418-.99-.812-1.372-1.076-1.561-1.08-10.144-6.14-15.133-8.055a787.24 787.24 0 0 1-9.829-3.87c-.054-.792-.116-1.626-.188-2.499 1.916.47 5.929 1.525 8.844 2.784zM7.01 97.574l-.452-.776c-2.81-4.789-4.343-9.852-5.127-16.929-.407-3.667.684-5.816 1.671-6.973 1.066-1.25 2.244-1.644 2.256-1.647 2.22-.716 3.016-.939 3.677-.94.074 0 .246.024.483.065l.039.172 2.19.416-.032-.129c1.917.437 4.324 1.055 5.404 1.496 1.526.622 5.58 2.274 13.319 6.769 8.35 4.85 14.274 9.263 14.406 10.732.145 1.613-.713 1.731-1.226 1.802l-.026.005c-.026.007-.648.172-1.476-.289-.888-.493-3.545-2.837-3.572-2.86l-.028-.02c-.458-.263-1.615-1.005-3.08-1.945-3.64-2.337-9.143-5.868-11.937-7.215l-1.09-.526C14.745 75.08 9.837 72.78 9.118 72.78a.29.29 0 0 0-.024.001l.034.307h.009c.757 0 9.406 4.177 13.108 5.965l1.09.526c2.774 1.337 8.266 4.861 11.9 7.194 1.453.932 2.604 1.67 3.08 1.945.226.2 2.721 2.393 3.619 2.891.909.506 1.633.355 1.75.326.585-.083 1.16-.29 1.401-.98.077.337.115.777-.065 1.159-.148.312-.425.54-.825.68-1.617.561-2.866.561-4.607-.002C37.938 92.26 9.022 79.636 8.73 79.51l-.237-.104-.012.236c0 .015-.075 1.593 0 4.079.08 2.605 1.4 9.257 4.095 12.823 2.664 3.526 24.411 17.374 27.847 19.439 2.884 1.733 3.338 2.077 3.203 2.971-.043.287-.01.538-.052.753-.199 1.021-.018.967-.667 1.606-.706.694-.99.765-1.04.772-2.261-1.088-7.615-3.838-17.418-9.175C11.96 106.111 9.556 101.964 7.01 97.574zm16.315 15.078l26.641 14.908 40.456-19.979.072-.035.423-2.16c5.012 1.864 10.534 4.493 11.144 5.687.519 1.015-.252 1.765-1.856 2.796a9.45 9.45 0 0 0-.6.404c-.544.36-10.64 6.119-21.496 12.054-13.74 7.513-22.537 11.945-24.772 12.48-3.33.794-6.406.612-12.276-2.675-1.625-.91-4.086-2.08-6.957-3.446-6.92-3.289-18.5-8.794-19.337-12.015-1.07-4.126 1.01-8.057 5.177-9.781l.201-.083a95.842 95.842 0 0 0 3.18 1.845z"/>
        </g>
    </g>
</svg>
