<svg xmlns="http://www.w3.org/2000/svg" width="78" height="132" viewBox="0 0 78 132">
    <g fill="none" fill-rule="nonzero">
        <path fill="#D71B2D" d="M52.035 118.996l-42.945-1.53c-3.382-.12-6.112-3.085-6.09-6.587l.44-69.74c.022-3.46 2.77-6.447 6.13-6.643l42.653-2.484c3.72-.217 6.783 2.61 6.777 6.288l-.117 74.163c-.006 3.726-3.1 6.666-6.848 6.533z"/>
        <g fill="#000">
            <path d="M53.688 126.964c-.165 0-.33-.005-.494-.015l-43.709-2.524C4.678 124.148.76 119.234.75 113.472l-.123-72.21c-.01-5.964 3.967-11.077 8.866-11.397l44.686-2.914c2.295-.15 4.543.627 6.33 2.186 2.411 2.102 3.77 5.353 3.726 8.919l-.947 78.153c-.041 3.4-1.423 6.517-3.79 8.552-1.665 1.43-3.71 2.203-5.81 2.203zM54.756 28.1c-.162 0-.325.005-.488.015L9.582 31.03c-4.25.278-7.702 4.867-7.692 10.231l.122 72.209c.009 5.158 3.397 9.55 7.552 9.79l43.709 2.524c1.948.113 3.805-.537 5.365-1.878 2.115-1.819 3.35-4.629 3.387-7.71l.948-78.153c.04-3.24-1.174-6.177-3.33-8.057-1.42-1.239-3.102-1.885-4.887-1.885z"/>
            <path d="M53.688 127.544c-.178 0-.356-.005-.534-.016l-43.708-2.524c-5.13-.296-9.313-5.47-9.324-11.53L0 41.263C-.01 35 4.228 29.627 9.449 29.287l44.686-2.914c2.477-.166 4.889.67 6.804 2.342 2.538 2.213 3.968 5.62 3.923 9.347l-.947 78.153c-.043 3.558-1.498 6.828-3.99 8.971-1.769 1.52-3.984 2.358-6.237 2.358zm1.05-100.03a8.24 8.24 0 0 0-.515.016L9.537 30.444c-4.577.298-8.292 5.151-8.283 10.818l.123 72.209c.01 5.462 3.664 10.116 8.147 10.375l43.71 2.524c.6.037 1.198 0 1.788-.102a8.093 8.093 0 0 1-1.789.095l-43.708-2.524c-4.48-.26-8.13-4.91-8.14-10.368l-.123-72.209c-.01-5.663 3.703-10.512 8.276-10.81l44.686-2.914c2.137-.145 4.176.568 5.85 2.027 2.282 1.99 3.567 5.083 3.526 8.484l-.947 78.154c-.04 3.24-1.347 6.202-3.588 8.127-.48.414-.986.765-1.514 1.055a8.701 8.701 0 0 0 1.52-1.049c2.242-1.927 3.55-4.892 3.59-8.134l.947-78.153c.042-3.404-1.245-6.498-3.529-8.49-1.524-1.33-3.403-2.046-5.34-2.046zm.018 1.167c-.147 0-.295.004-.443.014L9.626 31.609c-3.929.257-7.118 4.586-7.11 9.65l.123 72.21c.008 4.858 3.132 8.99 6.964 9.212l43.709 2.524c1.77.102 3.467-.493 4.9-1.724 1.99-1.711 3.15-4.368 3.186-7.291l.948-78.153c.037-3.08-1.105-5.86-3.133-7.628-1.296-1.13-2.838-1.728-4.457-1.728z"/>
            <path d="M59.65 127.195c-3.027 0-4.872-.22-5-.236l.166-1.158c.052.006 5.218.618 12.52-.226 6.83-.79 7.396-6.11 7.396-11.966 0-1.12.037-4.453.088-9.065.215-19.174.66-59.072-.084-65.276-.75-6.245-1.925-6.515-6.295-7.522-.766-.177-1.636-.377-2.603-.633-6.506-1.72-9.213-2.754-9.325-2.797l.485-1.078c.027.01 2.767 1.054 9.187 2.752.946.25 1.804.448 2.562.622 4.654 1.073 6.396 1.474 7.243 8.527.754 6.274.307 46.22.093 65.417-.052 4.609-.089 7.939-.089 9.053 0 4.541 0 12.142-8.501 13.125-3.065.354-5.739.46-7.842.46z"/>
            <path d="M59.65 127.775c-3.114 0-5.004-.231-5.083-.24l-.62-.079.33-2.305.62.075c.052.006 5.184.603 12.361-.226 6.332-.733 6.847-5.592 6.847-11.39 0-1.1.033-4.163.088-9.072.215-19.162.66-59.035-.08-65.206-.703-5.844-1.585-6.047-5.823-7.023-.793-.183-1.659-.383-2.624-.638-6.517-1.723-9.28-2.776-9.394-2.82l-.579-.222.966-2.147.578.219c.113.043 2.847 1.072 9.12 2.73.937.249 1.79.445 2.541.618 4.683 1.08 6.82 1.572 7.715 9.025.758 6.307.312 46.259.097 65.458-.055 4.932-.089 7.991-.089 9.077 0 4.423 0 12.654-9.05 13.7-2.671.31-5.336.466-7.92.466zm-4.294-1.328c.78.068 2.263.167 4.295.167a67.94 67.94 0 0 0 7.764-.456c1.017-.118 1.905-.335 2.678-.634-.774.296-1.662.51-2.68.627-5.895.681-10.453.42-12.055.286l-.002.01zm1.982-98.456c1.107.387 3.833 1.285 8.673 2.564.944.25 1.8.447 2.553.621 4.76 1.096 6.028 1.645 6.795 8.028.75 6.24.303 46.162.088 65.347-.047 4.244-.088 7.91-.088 9.058 0 3.73-.247 7.435-2.3 9.86 2.308-2.69 2.308-6.794 2.308-9.86 0-1.092.034-4.153.089-9.059.214-19.207.66-59.11-.089-65.348-.8-6.65-2.184-6.97-6.772-8.027-.762-.175-1.625-.374-2.582-.627-4.786-1.266-7.553-2.176-8.671-2.565l-.004.008z"/>
            <path d="M49.777 131.355a5.288 5.288 0 0 1-3.849-1.623c-.987-1.028-1.476-2.365-1.378-3.763l.02-.289 10.496.537-.017.292a5.06 5.06 0 0 1-1.748 3.528 5.331 5.331 0 0 1-3.524 1.318zm-4.608-5.06a4.342 4.342 0 0 0 1.231 3.05 4.64 4.64 0 0 0 3.129 1.42 4.686 4.686 0 0 0 3.339-1.153 4.5 4.5 0 0 0 1.524-2.844l-9.223-.472z"/>
            <path d="M49.776 131.558a5.511 5.511 0 0 1-4.013-1.69c-1.025-1.07-1.534-2.46-1.432-3.913l.034-.488 10.932.559-.03.494a5.257 5.257 0 0 1-1.815 3.665 5.585 5.585 0 0 1-3.676 1.373zm-5.001-5.664l-.007.088a4.703 4.703 0 0 0 1.324 3.616 5.064 5.064 0 0 0 3.414 1.547 5.099 5.099 0 0 0 3.645-1.256 4.863 4.863 0 0 0 1.678-3.391l.006-.09-10.06-.514zm5.002 5.08a4.866 4.866 0 0 1-3.541-1.494 4.557 4.557 0 0 1-1.287-3.186l.001-.213 9.686.495-.027.215a4.722 4.722 0 0 1-1.59 2.97 4.903 4.903 0 0 1-3.242 1.213zm-4.385-4.464a4.177 4.177 0 0 0 1.173 2.7 4.417 4.417 0 0 0 2.975 1.352 4.457 4.457 0 0 0 3.177-1.098 4.33 4.33 0 0 0 1.424-2.506l-8.749-.448zM13.469 129.278a5.288 5.288 0 0 1-3.846-1.624c-.986-1.03-1.475-2.366-1.377-3.764l.02-.289 10.496.54-.017.292c-.164 2.725-2.503 4.845-5.276 4.845zm-4.604-5.061a4.34 4.34 0 0 0 1.23 3.05 4.64 4.64 0 0 0 3.128 1.42c2.448.132 4.568-1.643 4.864-3.995l-9.222-.475z"/>
            <path d="M13.469 129.48a5.511 5.511 0 0 1-4.01-1.692c-1.026-1.07-1.534-2.459-1.432-3.911l.034-.49 10.932.563-.03.494c-.17 2.825-2.583 5.037-5.494 5.037zm-4.998-5.665l-.006.088a4.698 4.698 0 0 0 1.322 3.616 5.058 5.058 0 0 0 3.413 1.549c2.813.151 5.163-1.95 5.325-4.646l.006-.089-10.06-.518zm5.006 5.082a4.868 4.868 0 0 1-3.546-1.496 4.554 4.554 0 0 1-1.286-3.186l.001-.213 9.686.499-.026.214c-.301 2.391-2.396 4.182-4.83 4.182zm-4.389-4.466a4.171 4.171 0 0 0 1.171 2.7 4.415 4.415 0 0 0 2.976 1.354c2.232.12 4.22-1.447 4.602-3.603l-8.749-.45zM28.838 29.153v-7.16l.48-.343V7.646l2.366-.498 1.044.302v13.794h.741v7.607l-4.63.302zm.631-6.874v6.247l3.369-.22v-6.478h-.741V7.878l-.439-.126-1.71.36v13.825l-.479.342z"/>
            <path d="M28.618 28.21v-6.317l.48-.343V7.483l2.595-.545 1.254.362V21.04h.742v6.838l-5.07.331zm.44-6.117v6.261l4.192-.273v-6.634h-.742V7.599l-.833-.24-2.138.448V21.75l-.48.343zm.192 6.07V22.18l.479-.342V7.95l1.938-.408.65.187v13.896h.74v6.29l-3.807.249zm.439-5.784v5.929l2.93-.191V22.03h-.742V8.028l-.228-.065-1.481.31v13.764l-.48.342z"/>
            <g>
                <path d="M47.832 28.091V19.9l.479-.362V4.415l2.367-.526 1.044.319v14.904h.74v8.66l-4.63.32zm.63-7.915v7.286l3.37-.232v-7.534h-.742V4.63l-.439-.134-1.709.38v14.938l-.48.362z"/>
                <path d="M47.612 27.15v-7.347l.48-.363V4.255l2.596-.577 1.253.383v14.848h.741V26.8l-5.07.349zm.44-7.154v6.716l4.191-.289v-7.108h-.741V4.355l-.833-.255-2.139.475v15.058l-.479.363zm.191 7.685V20.08l.48-.363V4.716l1.937-.431.65.198v15.01h.741v7.926l-3.808.262zm.44-7.409v6.971l2.93-.202v-7.143h-.742V4.777l-.23-.07-1.48.329V19.91l-.479.362z"/>
            </g>
            <g>
                <path d="M29.47 8.842l-1.08-.826V5.272l.093-.086a15.722 15.722 0 0 1 2.503-1.841c1.362-.787 6.67-2.342 9.793-2.869 3.075-.519 8.444-.174 9.428 0 1.053.188 2.41 1.812 2.562 1.997l.083.101-.455 2.42-1.08-.295-.658-.2-2.513.684-1.225-.346V2.96c-.937.051-3.665.217-5.755.494-2.24.296-6.318 1.926-7.234 2.3v2.418h-.874l-1.364-.842-2.225.366v1.147zm3.78-1.255h.051V5.376l.186-.078c.202-.085 4.981-2.078 7.59-2.423 2.578-.341 6.108-.516 6.143-.517l.332-.017v2.064l.597.168 2.521-.687.835.255.392.107.286-1.522c-.539-.633-1.512-1.572-2.095-1.676-.959-.17-6.195-.506-9.196 0-3.005.508-8.283 2.046-9.571 2.79-1.074.62-2.01 1.42-2.3 1.676v1.66l2.812-.463 1.416.874z"/>
                <path d="M29.689 9.274L28.17 8.112V5.187l.157-.145a15.84 15.84 0 0 1 2.542-1.87c1.377-.795 6.727-2.366 9.87-2.896 3.102-.522 8.517-.175 9.508.001 1.109.197 2.44 1.761 2.696 2.073l.14.171-.512 2.732-1.916-.542-2.512.684-1.443-.408V3.174c-1.166.068-3.597.228-5.504.48-2.123.28-5.994 1.807-7.045 2.232v2.487h-1.16l-1.346-.83-1.957.322v1.41zM28.61 7.92l.64.49v-.885l2.493-.41 1.381.853h.589V5.62l.131-.053c1.148-.47 5.067-2.022 7.291-2.316 2.06-.273 4.724-.438 5.773-.496l.232-.013v1.944l1.007.284 2.516-.685.722.22.838.229.396-2.109-.024-.03c-.532-.647-1.64-1.78-2.43-1.92-.974-.173-6.296-.517-9.347 0-3.104.524-8.37 2.064-9.715 2.841-1.275.737-2.345 1.703-2.463 1.811l-.03.027V7.92zm4.91-.13h-.285l-.108-.035-1.342-.828-2.983.49V5.43l.068-.06c.269-.238 1.232-1.065 2.335-1.701 1.303-.753 6.623-2.307 9.648-2.817 3.026-.509 8.309-.171 9.276 0 .685.121 1.722 1.157 2.226 1.75l.06.07-.344 1.837-1.405-.409-2.518.686-.815-.23v-2l-.101.006c-.036.001-3.567.176-6.124.515-2.606.344-7.482 2.386-7.53 2.407l-.057.023V7.79zM31.883 6.5l1.2.74V5.244l.314-.132c.202-.085 4.983-2.087 7.65-2.44 2.576-.34 6.128-.516 6.163-.518l.563-.028v2.128l.378.106 2.524-.687 1.049.315.227-1.208c-.607-.697-1.46-1.453-1.904-1.531-.95-.169-6.141-.5-9.115 0-2.987.504-8.223 2.027-9.494 2.762-.989.571-1.865 1.303-2.195 1.591v1.33l2.64-.434z"/>
            </g>
            <path d="M62.223 127.043l-.038-.869.187-.014c1.79-.301 3.734-5.962 3.986-11.726.227-5.236.815-62.824.815-72.698 0-9.172-1.261-10.667-1.415-10.816l-3.985-1.878 4.361 1.09c.002 0 1.53.382 2.697.653 1.655.385 1.784 8.48 1.784 10.95 0 3.876-.633 71.279-1.044 76.03-.28 3.242-1.206 8.728-4.263 9.047l-2.827.213c-.085.012-.17.018-.258.018zm4.77-95.8c.538 1.32 1.12 4.203 1.12 10.493 0 9.877-.588 67.492-.815 72.733-.15 3.445-1.223 9.238-3.227 11.563l1.147-.086c1.702-.178 2.984-3.263 3.415-8.25.41-4.738 1.041-72.087 1.041-75.96 0-4.382-.48-9.644-1.124-10.127-.494-.112-1.069-.248-1.557-.367z"/>
            <g>
                <path d="M6.224 122.623l-.63-.045 7.58-92.049.63.045z"/>
                <path d="M6.426 122.84l-1.067-.075.017-.202 7.597-92.252 1.067.076-.017.202-7.597 92.252zm-.596-.449l.192.014 7.547-91.644-.192-.014-7.547 91.644z"/>
            </g>
            <g>
                <path d="M57.577 125.204l-5.745-97.687.63-.032 5.746 97.687z"/>
                <path d="M57.37 125.417L51.6 27.325l1.07-.053 5.769 98.093-1.069.052zM52.063 27.71l5.722 97.281.191-.01-5.72-97.28-.193.009z"/>
            </g>
        </g>
    </g>
</svg>
