<?xml version="1.0" encoding="UTF-8"?>
<svg width="226px" height="188px" viewBox="0 0 226 188" version="1.1" xmlns="http://www.w3.org/2000/svg" xmlns:xlink="http://www.w3.org/1999/xlink">
    <!-- Generator: Sketch 63.1 (92452) - https://sketch.com -->
    <title>Group 2</title>
    <desc>Created with Sketch.</desc>
    <g id="Page-1" stroke="none" stroke-width="1" fill="none" fill-rule="evenodd">
        <g id="Artboard" transform="translate(-247.000000, -127.000000)" fill-rule="nonzero">
            <g id="Group-2" transform="translate(247.000000, 127.000000)">
                <g id="Group" transform="translate(160.125749, 63.365288)">
                    <g transform="translate(7.706587, 2.568862)">
                        <path d="M0.672459641,57.8218959 C0.672459641,57.8218959 12.3080357,56.7005019 17.5623095,50.5600647 C22.8165834,44.4196276 30.6980926,33.5032302 37.4119854,14.7407911 L32.4495429,14.0585013 L49.0882437,0.0719880838 L54.3425004,16.7875749 L50.2558686,16.1052851 C50.2558686,16.1052851 38.7344357,35.8773043 34.1056028,43.0864737 C26.4263315,55.0465656 8.89244216,56.9318707 0.672459641,57.8218959 Z" id="Path" fill="#D31A2D"></path>
                        <path d="M0.676501317,57.8645219 L0.667296228,57.7792271 L0.694894371,57.7767181 L0.806948144,57.7641735 C2.94881477,57.499192 5.0655745,57.0604017 7.13628228,56.4521443 C10.3841805,55.498026 14.8227977,53.6959777 17.5296422,50.5325608 C25.5364262,41.1761136 32.2069395,29.1454465 37.3546998,14.7758732 L32.3482612,14.0876664 L49.1102588,-0.00219209581 L49.129491,0.0588440719 L54.40435,16.8409131 L54.3357871,16.8296186 L50.2776183,16.1527063 C49.8018051,16.9692705 38.642479,36.0994338 34.1419522,43.1102871 C26.493062,55.0213822 9.21679527,56.9396629 0.815314072,57.8494683 C0.727510359,57.859504 0.679840838,57.8645219 0.676501317,57.8645219 Z M32.5506276,14.0291306 L37.4701016,14.7055977 L37.4525392,14.7549284 C32.2989219,29.1566981 25.6183815,41.212874 17.5948656,50.5877143 C16.0930145,52.3429408 13.0633925,54.7997493 7.15886257,56.5348959 C5.77759689,56.9381492 4.37611893,57.2686312 2.96021132,57.5249782 C11.8701132,56.4897267 27.048313,53.9986496 34.0700326,43.0634225 C38.6449879,35.9371759 50.1036807,16.2814491 50.2190825,16.083681 L50.234136,16.0581807 L50.2625648,16.06319 L54.2805908,16.7338429 L49.0667765,0.145782934 L32.5506276,14.0291306 Z" id="Shape" fill="#000000"></path>
                    </g>
                    <path d="M10.4450968,61.9538252 C7.22246395,61.9481261 4.00459603,61.7058881 0.817429102,61.2290635 L0.973958443,59.9118366 C1.13237162,59.9256913 16.9718908,61.2631438 22.6515596,55.0252611 C31.555065,45.2467156 38.9971447,32.7145895 44.7794824,17.7646674 L38.4136704,16.9423917 L59.3011838,0.441647365 L65.9183932,20.2256374 L60.6666968,19.4017348 C59.0138051,22.5682857 49.0651239,41.4558456 43.2296022,48.6043899 C36.1918614,57.225406 24.3278793,61.9538252 10.4450968,61.9538252 Z M41.7091782,16.0301031 L46.6206716,16.6647833 L46.3213135,17.451112 C40.4375914,32.9035037 32.8040459,45.8456887 23.6326081,55.9187971 C21.4030069,58.3674366 17.8661117,59.7456312 14.2378507,60.5053294 C26.0733698,59.7297043 36.062562,55.2854013 42.2012866,47.7653138 C48.3581644,40.2231342 59.5962519,18.5849907 59.7093674,18.367254 L59.9290051,17.9428779 L63.9673423,18.5766162 L58.6414914,2.65376317 L41.7091782,16.0301031 Z" id="Shape" fill="#000000"></path>
                </g>
                <path d="M110.358084,96.0190124 L135.016336,94.910634 L146.323697,100.014364 C146.198336,99.9605035 167.191079,77.6764795 175.550071,69.5349672 C183.909063,61.3934548 203.331546,21.6219352 203.331546,21.6219352 C204.560746,18.9175226 204.314906,15.4754098 201.118814,15.4754098 C197.922721,15.4754098 174.694554,15.505731 171.616458,15.4754098 C168.656101,15.4466472 165.715952,18.9175226 164.978432,20.1468089 L110.358084,96.0190124 Z" id="Path" fill="#D41426"></path>
                <path d="M51.9179225,111.024593 C47.0008632,111.762114 43.5589303,113.307969 45.2798968,119.208475 C47.0008632,125.10898 49.5265686,136.66398 50.7222884,139.614232 C51.9180081,142.564485 55.7648794,140.612406 59.7852345,140.168404 C63.8055896,139.724402 116.708482,133.328483 116.708482,133.328483 C116.708482,133.328483 122.570797,127.249956 124.170428,124.644016 C125.770058,122.038077 127.86899,118.047178 127.86899,118.047178 C123.93059,115.7854 119.814644,113.847905 115.561914,112.25388 C114.364652,111.832843 72.5376748,108.811861 72.5376748,108.811861 L51.9179225,111.024593 Z" id="Path" fill="#D41426"></path>
                <path d="M105.374362,96.4601889 L104.584137,96.1378309 C104.693263,95.8100269 109.476013,89.2168707 127.078808,65.0434656 C135.267485,53.7984166 144.252637,41.4595974 151.353384,31.6549436 L152.046608,32.1575073 C144.945862,41.9621696 135.960281,54.3018194 127.771194,65.5477076 C116.440875,81.1068098 105.739406,95.8029198 105.374362,96.4601889 Z" id="Path" fill="#070707"></path>
                <path d="M46.8645937,142.67713 C46.6330009,141.596758 46.8670305,140.468805 47.5093181,139.569748 C49.0709552,136.949038 52.7256413,134.268122 55.4897628,133.715379 C59.1632359,132.980351 118.182718,129.19646 120.693481,129.035906 L120.747839,129.890481 C120.133641,129.929784 59.2757692,133.831578 55.6578692,134.554901 C53.1395963,135.058304 49.6755626,137.607103 48.244792,140.007885 C47.732974,140.701818 47.5298449,141.576045 47.6832729,142.42455 L46.8645937,142.67713 Z" id="Path" fill="#070707"></path>
                <path d="M56.3113449,156.144467 L53.5020714,156.144467 L53.3745531,155.958833 C53.350714,155.925377 51.0017806,152.502737 48.5616954,148.110958 C48.4504808,147.910262 38.7449166,116.504413 38.9217743,114.911419 C39.2027393,112.38353 42.6625943,108.88396 45.9522793,108.631407 C49.1135983,108.388067 70.1143814,106.893743 70.3259443,106.878689 L70.386989,107.733307 C70.1750065,107.748361 49.1767495,109.241846 46.0183419,109.484346 C42.9372913,109.721838 39.9908748,113.04413 39.7730438,115.005893 C39.7287224,116.464262 48.705526,146.042973 49.3334929,147.743842 C51.4110774,151.477555 53.4372333,154.52307 53.9536003,155.288197 L55.3283441,155.288197 C55.0945776,153.594024 54.4080834,148.559148 54.4080834,147.902718 C54.4080834,146.838215 55.6277022,144.314505 59.3969595,143.309378 C60.5885691,142.99161 65.2233104,142.500751 71.6383589,141.821741 C85.3305918,140.372577 106.022392,138.181663 112.201628,135.611945 C121.03502,131.939277 127.415363,118.011222 127.478917,117.87074 L128.259106,118.223624 C127.994864,118.808974 121.677681,132.599046 112.530262,136.403009 C106.236464,139.019532 85.4698669,141.218769 71.7286716,142.672968 C65.5920792,143.32271 60.7449443,143.836149 59.617719,144.137219 C56.0211491,145.096364 55.2643537,147.474565 55.2643537,147.902709 C55.2643537,148.422005 55.8501228,152.824649 56.2435612,155.657796 L56.3113449,156.144467 Z" id="Path" fill="#070707"></path>
                <path d="M131.858228,156.005611 L131.226879,155.42695 C135.745708,150.438852 140.001692,145.218799 143.977538,139.787999 C149.239424,132.372413 150.305622,122.947394 149.369057,120.782434 C148.820149,119.505555 148.133743,118.292289 147.321991,117.164114 L148.002671,116.643988 C148.858916,117.82649 149.580838,119.100652 150.155095,120.442924 C151.273124,123.027679 150.009595,132.766279 144.67578,140.283044 C140.679415,145.743099 136.40109,150.991078 131.858228,156.005611 L131.858228,156.005611 Z" id="Path" fill="#070707"></path>
                <path d="M149.810157,111.996291 L149.190521,111.405915 C149.433861,111.15087 173.608927,85.8000783 181.626586,77.0532393 C185.808514,72.4912481 192.980761,57.7880224 198.298271,45.5491319 C204.37256,31.5696574 208.783614,19.2546772 208.559506,16.9032263 C208.097111,12.0489843 202.833914,9.48092694 202.781236,9.45545239 L203.149174,8.68237041 C203.384148,8.7940046 208.903186,11.4790993 209.412445,16.8221188 C209.904982,21.9924508 190.596702,68.5355171 182.257096,77.6319012 C174.23442,86.3845972 150.053496,111.741237 149.810157,111.996291 Z" id="Path" fill="#070707"></path>
                <path d="M142.44182,97.8917987 L142.116114,97.6492895 L141.66456,97.7350039 C141.61898,97.488316 141.593899,97.3520208 155.367248,82.8047763 C160.737883,77.1327284 170.463073,66.9203877 175.251261,62.2563871 C183.46209,54.2600497 202.752807,14.8591141 202.946807,14.4623362 L203.71613,14.8377926 C202.921718,16.464653 184.166181,54.7697205 175.848324,62.8701653 C167.666764,70.8388789 143.111634,96.99244 142.44182,97.8917987 Z" id="Path" fill="#070707"></path>
                <path d="M156.280812,30.7163413 C156.04681,30.7162565 155.856204,30.528354 155.852776,30.2943764 C155.849348,30.0603989 156.034368,29.8669935 156.268268,29.8600539 L157.388386,29.8266073 C157.621986,29.8268092 157.815159,30.0086267 157.829494,30.2417868 C157.836481,30.4781819 157.650691,30.6755712 157.414306,30.6828947 L156.294196,30.7163413 L156.280812,30.7163413 Z" id="Path" fill="#262525"></path>
                <path d="M191.504829,31.7979436 L156.268268,30.7163413 C156.03188,30.7090272 155.846087,30.5116307 155.852897,30.2752334 C155.87522,30.0458126 156.063857,29.8682643 156.294196,29.8600539 L191.518213,30.941699 C194.102129,30.941699 195.99616,29.1133113 197.296483,25.3520003 L203.294674,13.7314949 C203.812005,12.4772408 203.687899,11.0498575 202.961861,9.90371029 C202.215984,8.94146238 201.044013,8.40833332 199.828551,8.4783685 L166.134814,8.4783685 C163.578907,8.4783685 161.562787,10.7825695 159.613141,13.0106978 C159.252738,13.4225721 158.896505,13.8297796 158.541112,14.217361 C158.437744,14.3301391 158.282061,14.3792043 158.132708,14.346074 C157.983356,14.3129438 157.863023,14.2026515 157.817038,14.0567431 C157.771053,13.9108347 157.806403,13.7514772 157.909771,13.638699 C158.260977,13.2557159 158.612612,12.8534835 158.968416,12.4470895 C160.947296,10.1855402 163.190067,7.62210676 166.134814,7.62210676 L199.828551,7.62210676 C201.321748,7.54736344 202.75537,8.21550355 203.658425,9.40702077 C204.54665,10.8002189 204.703772,12.5377455 204.079881,14.0676819 L198.08169,25.6886069 C196.671822,29.7809843 194.51271,31.7979436 191.504829,31.7979436 Z" id="Path" fill="#262525"></path>
                <g id="POLYLINE" transform="translate(131.868263, 10.275467)" fill="#FFFFFF">
                    <path d="M0.802238563,1.50626952 C1.11614421,1.07121327 1.38678682,0.606524431 1.61030844,0.118827006" id="Path"></path>
                </g>
                <path d="M134.386793,4.04613916 C136.256154,2.47432083 140.386542,0.0545724487 142.866436,0.452061071 C144.215621,0.632073713 145.540687,0.961128862 146.817346,1.4331952 C148.568197,1.95475987 149.418585,1.7373485 151.193403,2.24290059 C152.968222,2.74845269 160.349,3.92439221 162.206202,7.66756706 C163.044755,9.42125313 163.907255,11.1748513 164.189461,13.0550129 C164.757965,16.8425919 163.895465,20.8541271 162.206202,24.3869216 C159.078098,30.8251754 157.187501,31.5338218 157.187501,31.5338218 L156.393902,31.3696886 C156.587025,30.6429773 156.378837,29.8684038 155.847411,29.3364341 C154.005356,27.6989092 153.279695,25.1419794 153.986955,22.7809545 C154.899501,19.2390072 155.16906,17.7073487 154.777052,17.7073487 C154.385043,17.7073487 156.039134,14.5539162 154.519566,13.4775629 C153.602759,12.8683775 152.391594,12.9484601 151.562977,13.6730533 C150.473133,14.3250593 149.292136,14.8108667 148.058963,15.1144419 C146.795511,15.2503347 146.212808,18.0976617 146.212808,18.0976617 C146.212808,18.0976617 145.619143,20.1384515 144.639645,19.4761132 C143.660146,18.8137748 143.34904,18.0035557 143.995537,15.9712431 C144.642034,13.9389305 146.085392,13.0358898 144.40998,11.3269114 C142.734568,9.61793293 141.623801,9.54232275 142.144329,7.61567604 C142.664858,5.68902933 143.127441,5.95336526 142.492239,4.93541077 C141.857036,3.91745628 141.81072,4.03947724 138.541671,5.30806706 C136.793998,5.89370224 135.225227,6.91675362 133.984595,8.2798982 C133.984595,8.2798982 132.517432,5.61795748 134.386793,4.04613916 Z" id="Path" fill="#DADADA"></path>
                <path d="M68.3211271,99.2236767 C68.3211271,99.2236767 70.7649714,99.0004597 74.7280751,98.6555214 C79.3351669,98.2546077 85.9988385,97.6892182 93.2595051,97.1190678 C90.1906908,94.5642144 86.8143581,91.8536708 86.8143581,91.8536708 C81.4565677,94.7194935 74.1725672,95.6901296 74.1725672,95.6901296 C71.0506153,96.2158879 67.8819726,96.4113862 64.7190684,96.2733898 L52.1000634,98.2653198 C52.6292675,100.056284 52.6880724,101.953395 52.2708071,103.773697 C51.9669519,105.511137 51.4467322,107.203692 50.7222884,108.811861 C50.7222884,108.811861 36.524041,109.07344 35.1872907,108.737364 C32.7144868,108.115699 24.6899262,111.184299 24.6899262,111.184299 C24.6899262,111.184299 25.3991976,124.633458 26.571104,129.463467 C27.7430104,134.293476 27.4305854,140.348678 27.2163508,143.239419 C27.0021249,146.129972 26.7860664,146.974965 27.8291957,149.444164 C28.8723251,151.913363 28.1506204,151.007265 27.8348387,153.49496 C27.6631601,155.083004 27.5857986,156.679831 27.6031616,158.277034 C27.4206929,159.978449 27.1527445,161.669608 26.8003322,163.344097 C26.6092602,164.959201 25.8057029,166.539231 25.2841126,168.391407 C24.7625222,170.243582 26.9546694,170.394931 27.8348387,170.671143 C28.715008,170.947356 35.3518692,172.204754 38.1921317,171.905054 C41.0323943,171.605353 42.8229341,170.344898 43.2808338,169.011736 C43.7387335,167.678573 43.2403314,165.86839 43.183885,162.744388 C43.1274385,159.620386 43.5473276,158.782619 43.183885,157.486165 C42.8204937,156.189875 43.0410305,155.733637 42.5867786,154.386175 C42.1325267,153.038713 42.9175539,154.099515 42.9872728,152.928182 C43.0569917,151.756849 42.9872728,149.76409 42.9872728,149.76409 C42.9872728,149.76409 43.5382338,144.78435 44.5905597,139.685929 C45.6428856,134.587508 44.6131914,122.117403 44.6131914,122.117403 C44.6131914,122.117403 43.427336,119.214529 46.7804549,120.333491 C50.3317186,121.518516 72.125184,122.810679 77.2858485,122.391792 C82.4801737,121.97013 97.2479977,124.55587 106.810416,125.012185 C116.372835,125.468501 119.797094,118.473635 119.797094,118.473635 C119.797094,118.473635 113.539251,114.853337 111.590341,113.496036 C111.14955,113.189031 110.265562,112.43477 109.126948,111.422262 C96.1997992,110.133284 72.7465404,108.811801 72.7465404,108.811801 C72.7465404,108.811801 67.583641,107.090869 68.3211271,99.2236767 Z" id="Path" fill="#989898"></path>
                <path d="M35.7802441,90.2961011 C35.5261836,88.6270256 38.3063776,86.9384268 38.7746812,86.0656987 C39.4322243,84.8402486 39.5877347,79.5959334 40.09148,78.282731 C40.5952253,76.9695286 42.6123046,73.3543687 43.3637824,70.2363693 C44.1152602,67.1183699 44.3429471,62.1871648 45.8813531,60.3849538 C47.419759,58.5827427 50.3095578,53.6252496 54.4872129,53.8113208 C58.664868,53.9973921 58.2918692,52.4704604 62.0835956,54.7571588 C65.8753219,57.0438572 73.9834219,65.2931077 74.1115311,65.913231 C74.2396402,66.5333544 77.6475614,68.1033574 75.892001,68.2646819 C74.7471829,68.3832395 73.6169652,68.6151752 72.5179802,68.9570759 L75.1895028,83.086161 C75.1895028,83.086161 75.0532674,85.0110095 77.2953704,84.8455747 C78.8115585,84.7104533 80.3127747,84.4411232 81.7813746,84.0407502 L85.4812213,85.215919 L86.4692914,86.1112532 L90.5120041,87.5505011 L92.1722513,88.9877795 L86.7957167,90.984813 L85.2633818,92.6020831 C82.0904944,93.8839454 70.9850459,96.4392783 69.8593704,96.3169148 C68.733695,96.1945514 59.5787836,77.3871229 59.5787836,77.3871229 C59.3328798,78.9452284 58.7922492,80.442185 57.9858321,81.7978594 C56.8095501,83.5618115 55.7268602,83.7830077 55.2458836,84.5799372 C54.7068507,85.4732334 54.7896537,87.4779735 54.0575279,88.7226558 C53.3254022,89.9673381 52.8831297,89.7786466 53.1001986,90.7920627 C53.3172674,91.8054789 53.8822459,91.696131 53.6394884,92.8021975 C53.3967309,93.9082639 53.9478375,92.7994402 53.3967309,93.9082639 C52.8456243,95.0170877 51.7957303,97.4385657 51.7957303,97.4385657 C51.7957303,97.4385657 48.0241267,92.3215633 43.8415908,91.327328 C41.1953405,90.7170004 38.4949166,90.3715556 35.7802441,90.2961011 L35.7802441,90.2961011 Z" id="Path" fill="#969696"></path>
                <path d="M3.05790515,99.2236681 C3.38965956,97.5694821 4.73765111,96.3100071 6.41052731,96.0911975 C9.37610754,95.5936089 19.9308776,96.0278322 22.868286,95.0509795 C25.8056944,94.0741268 33.8868213,90.2961011 36.347192,90.2961011 C38.8075626,90.2961011 47.7676686,91.100155 49.9977836,94.910634 C51.3369578,97.1955068 52.2228689,99.7172266 52.606977,102.337626 C52.606977,102.337626 51.1239728,100.36724 49.2604345,100.069766 C47.3968962,99.7722915 44.599585,99.8889178 39.3454824,100.56196 C34.0913798,101.235002 29.3585251,101.66443 25.4258453,99.830519 C21.4931654,97.9966083 13.3591285,93.7367496 3.05790515,99.2236681 Z" id="Path" fill="#DADADA"></path>
                <path d="M134.799233,41.178855 C134.824456,40.5507052 134.60655,39.9370106 134.19084,39.4654238 C134.023359,39.2921969 134.023359,39.2921969 134.587473,38.7912687 C135.715803,37.7894981 147.211204,33.5452067 147.211204,33.5452067 C147.211204,33.5452067 154.255367,30.9846675 155.849089,31.5337875 C157.442812,32.0829075 158.281982,32.925443 158.086483,33.7560418 C157.890984,34.5866406 157.512085,38.5378077 157.512085,38.5378077 C157.512085,38.5378077 156.721475,39.2865454 153.369281,37.8652795 C152.635015,37.554019 151.434671,37.860039 143.9121,41.178855 C142.493318,41.8048011 136.091798,46.2776184 136.091798,46.2776184" id="Path" fill="#969696"></path>
                <g id="Group" transform="translate(86.485030, 37.676665)" fill="#DCDCDC">
                    <path d="M76.2111907,10.0371186 C74.857048,7.89218689 73.710492,5.62303378 72.7870856,3.26045994 C72.0989816,1.19003401 71.1220176,0.861142575 71.1220176,0.861142575 C71.1220176,0.861142575 68.5990438,0.638602036 66.034677,0.242903054 C63.4703102,-0.152795928 60.8101934,1.72023862 59.3308713,2.47043204 C57.8515491,3.22062545 50.425405,8.52209784 49.701765,8.60096192 C48.9781251,8.67982599 48.5572941,4.13550006 48.5572941,4.13550006 C48.5572941,4.13550006 47.004845,5.63923497 45.7032281,6.73854533 C44.4016113,7.83785569 34.5403484,20.695919 32.545704,23.0201314 C30.5510595,25.3443438 26.9451304,31.0646264 26.0278496,34.3479578 C25.1105688,37.6312892 19.2935257,41.9318044 19.2935257,41.9318044 C19.2935257,41.9318044 12.487231,40.689083 10.742571,40.1416756 C8.99791108,39.5942681 9.3789076,38.61286 7.73458743,36.7557181 C6.09026725,34.8985763 5.38700695,37.3403912 3.85218024,38.3947636 C2.31735353,39.449136 0.145645928,47.5875143 0.145645928,47.5875143 L0.0792151497,48.4345538 C0.0792151497,48.4345538 1.54181401,49.0100817 4.12191934,49.8737932 C4.9035369,50.1560879 5.66330818,50.4955502 6.39507132,50.8894271 C6.84667731,51.1233049 7.31799503,51.3816468 7.79411653,51.6466763 L5.78217503,51.3110887 L0.405606228,53.3081394 C0.405606228,53.3081394 -0.564301976,53.8016607 1.81598868,55.2345207 C3.63705498,56.5131573 5.36992974,57.9130017 7.00284701,59.4245491 C13.9108944,58.8829387 21.3423647,58.3384084 28.0619004,57.9277587 C28.0619004,57.9277587 44.986644,61.5947325 46.7555626,61.8427048 C48.2645635,62.0376219 49.7839321,62.1415005 51.3054201,62.1537769 C51.8046178,62.0558818 52.2742498,61.8433601 52.6772868,61.5329685 C52.8862209,61.2387824 53.0079593,61.0670368 53.0079593,61.0670368 C53.4526208,60.8258463 53.9215323,60.5444532 54.4457344,60.2256488 C54.4740604,60.2084546 54.5063081,60.1816956 54.5357816,60.1617269 C54.7714404,59.9712287 54.9499763,59.8221234 55.0439453,59.742677 C58.1910499,56.7317221 65.3342339,43.9212769 66.9792391,41.1198384 C68.739004,38.1228324 74.8951882,26.2627549 76.2296351,23.9227526 C77.564082,21.5827502 76.5125439,20.2953392 77.3537264,16.4352041 C78.1950887,12.5752487 77.0871727,11.4122306 76.2111907,10.0371186 Z" id="Path"></path>
                    <path d="M22.4943367,73.7309199 C26.2493711,76.627372 30.1976268,79.2301519 31.4172028,79.949459 C33.3466666,81.0875506 37.3320852,81.1103364 37.955745,80.9548517 C38.6441642,80.4327781 39.2442831,79.8035459 39.7331837,79.091185 C36.5753904,76.9250482 33.0273655,75.3920763 29.2857321,74.577223 C27.7974703,74.3066019 25.4052087,74.0194117 22.4943367,73.7309199 Z" id="Path"></path>
                </g>
                <path d="M72.9860183,72.7103892 C72.654297,71.9683092 72.3919539,71.1971259 72.2023441,70.406702 C72.0684293,69.619106 72.1804231,68.8963138 72.9860183,68.7337904 C74.8204429,68.3636002 83.5995297,67.5630742 83.5995297,67.5630742 C83.5995297,67.5630742 81.2500483,68.6960281 79.6916908,69.324115 C78.1333333,69.9522018 77.7176057,70.3483204 77.523571,71.301882 C77.4426531,72.4468199 77.4790348,73.5970317 77.6321483,74.7345671 C78.2639948,75.3768116 78.5563947,76.2791714 78.4213028,77.1699341 C78.2411399,78.7685371 77.6647728,78.6434335 78.5481189,79.6084695 C79.431465,80.5735054 79.7575393,80.0781431 80.1503183,81.5040329 C80.4745605,82.4721111 81.0351696,83.3440159 81.7813746,84.0407844 L80.8946034,84.5799715 L75.6577207,84.4900613" id="Path" fill="#DADADA"></path>
                <path d="M52.3326225,105.937065 C52.3077915,105.937294 52.2829982,105.935053 52.2586136,105.93036 C52.1467803,105.910904 52.0472575,105.847816 51.9819417,105.754977 C51.9166259,105.662138 51.8908682,105.547154 51.9103358,105.435323 C52.0056577,104.890938 52.0738096,104.353249 52.1135328,103.836471 C52.3903192,100.215643 51.8200232,97.6242089 50.3696007,95.9137233 C49.1126852,94.5740397 47.6074857,93.4912883 45.9376454,92.7256368 C43.7509215,91.5075792 41.3079662,90.8218911 38.806792,90.7241506 L38.7896662,90.7241506 C36.2608561,90.8505979 33.7706591,91.3965651 31.4209105,92.3397252 C30.4040692,92.6972081 29.3905759,93.1638162 28.4101097,93.6145402 C27.1008791,94.259257 25.7424883,94.7989208 24.3477623,95.2284365 C22.0108369,95.7687177 19.6139247,96.0049543 17.2164893,95.9312858 C16.8163633,95.9362951 16.4183266,95.9413129 16.0240491,95.9492678 C15.5122804,95.9597231 14.9984223,95.9668303 14.483314,95.9743571 C11.8071342,95.9418343 9.13259431,96.1217687 6.48488731,96.5124652 C5.48518886,96.6893228 4.27015982,97.0229752 3.74669419,98.0414863 C3.27130054,98.9646754 3.52383683,100.19391 3.86752491,101.38385 C3.93310392,101.611071 3.80206705,101.848433 3.57484585,101.914012 C3.34762465,101.979591 3.11026315,101.848554 3.04468407,101.621333 C2.65208485,100.261643 2.3732006,98.839255 2.98531766,97.6497177 C3.6885694,96.2812505 5.23432234,95.863973 6.33603886,95.669553 C9.02875791,95.2695228 11.7491177,95.0851206 14.471189,95.1181039 C14.9846275,95.1105771 15.4963962,95.1034699 16.0065123,95.0930147 C16.4032988,95.0850683 16.8034248,95.0800505 17.2060683,95.0750326 C20.9604651,95.3713161 24.7217972,94.595154 28.0522329,92.8368942 C29.0502616,92.3773847 30.0821565,91.9028388 31.1366231,91.5319721 C33.5770166,90.5544438 36.1637287,89.991992 38.7896919,89.8678974 L38.8085302,89.8678974 C41.4439276,89.9644805 44.0192679,90.6820565 46.3248843,91.9622052 C48.0975676,92.7774569 49.6935289,93.9318171 51.0227511,95.3601763 C52.6262007,97.2512871 53.2625678,100.045088 52.9673798,103.901729 C52.9255673,104.446105 52.8536563,105.011392 52.7541643,105.582527 C52.7183055,105.787341 52.5405521,105.936834 52.3326225,105.937065 Z" id="Path" fill="#333333"></path>
                <path d="M122.723379,119.273917 C121.430671,119.262307 120.149484,119.029544 118.935309,118.585688 C117.178974,117.861256 115.529885,116.900189 114.033817,115.729165 L113.293343,115.204021 C112.367653,114.555118 111.853795,114.238189 111.440705,113.983143 C110.487068,113.400759 109.607508,112.704973 108.821253,111.910996 C108.646682,111.751435 108.634513,111.480567 108.794075,111.305995 C108.953636,111.131423 109.224504,111.119255 109.399076,111.278816 C110.146653,112.035357 110.983108,112.698569 111.89017,113.253963 C112.290724,113.501482 112.83886,113.839313 113.78504,114.503287 L114.530532,115.031779 C115.964501,116.15516 117.543792,117.079476 119.225479,117.779605 C120.643593,118.309662 122.163992,118.509008 123.670818,118.362454 C124.095918,118.340416 124.4884,118.127812 124.73908,117.783784 C125.025936,117.455158 125.172661,117.286238 125.27092,117.198434 C125.318581,117.142407 125.429384,117.007782 125.688608,116.695031 C125.786002,116.577173 125.938873,116.520227 126.089638,116.545643 C126.240403,116.571059 126.366156,116.674977 126.419527,116.818251 C126.472898,116.961525 126.44578,117.122389 126.348386,117.240247 C126.068252,117.578917 125.923582,117.753685 125.827841,117.845642 L125.829091,117.847312 C125.794839,117.880767 125.694046,117.991168 125.385063,118.345671 C124.99538,118.850017 124.409702,119.164969 123.774087,119.211986 C123.425439,119.254004 123.074549,119.274679 122.723379,119.273917 Z" id="Path" fill="#333333"></path>
                <path d="M92.7754801,97.1450905 C92.67757,97.1450905 92.582632,97.1114215 92.5066058,97.0497256 C92.0386882,96.64805 91.598917,96.2147047 91.1903978,95.7527499 C90.7034201,95.181963 90.152825,94.6686814 89.549323,94.2228896 C89.2725366,94.0422644 88.9744202,93.8670765 88.6708749,93.6889602 C87.8861747,93.2735404 87.1591874,92.7572576 86.5084151,92.1532515 C86.2252021,91.9146948 86.0781009,91.5516465 86.1153792,91.183232 C86.212799,90.7568008 86.6526482,90.5464538 87.0247565,90.4114087 C87.5453022,90.2215869 88.0771337,90.0739887 88.5914114,89.9310315 C89.2388092,89.7665195 89.8749518,89.5605251 90.4958974,89.3143247 C91.1837326,89.0221201 91.8550994,88.6925754 92.5069997,88.3271623 C92.6408892,88.2523213 92.8045747,88.2547738 92.9361619,88.3335925 C93.0677491,88.4124112 93.1471555,88.5555669 93.1443553,88.7089284 C93.1415551,88.8622898 93.0569756,89.0024514 92.9225988,89.0764138 C92.2434944,89.456564 91.5442195,89.7995025 90.8278714,90.1037104 C90.1733631,90.3638521 89.5028822,90.5818543 88.8205368,90.7563813 C88.3221775,90.8947744 87.807035,91.0377659 87.3178465,91.2158822 C87.1930957,91.2551579 87.074351,91.3114342 86.9649619,91.3831237 C86.9883814,91.4011057 87.0310245,91.4629811 87.120498,91.5545524 C87.7198707,92.102231 88.386543,92.5713589 89.1044303,92.9506178 C89.4196811,93.1358413 89.7295201,93.3177168 90.0171642,93.5054492 C90.6806525,93.9877137 91.284952,94.5465414 91.8175428,95.1703545 C92.1987598,95.6022887 92.6088933,96.0078133 93.0451078,96.3841248 C93.1861619,96.4982686 93.2399446,96.6889316 93.1793331,96.8599617 C93.1187216,97.0309918 92.9568813,97.1452399 92.7754287,97.1450905 L92.7754801,97.1450905 Z" id="Path" fill="#333333"></path>
                <path d="M139.632975,99.2732311 C139.444791,99.2732311 139.278589,99.1505835 139.223421,98.9706675 C139.168253,98.7907515 139.23706,98.5959068 139.392975,98.490532 C141.869435,96.8197611 143.72501,93.9101392 145.361906,91.3433748 C145.624478,90.9315006 145.883282,90.5263824 146.139167,90.1333636 C148.652002,86.2775613 151.301981,82.1290799 153.66053,77.920393 C154.635148,76.1814787 155.509828,74.3480732 156.355669,72.5748732 C157.46233,70.1358116 158.709983,67.7632134 160.092302,65.469109 L160.182615,65.326109 C161.009727,64.123278 161.69153,62.8267556 162.213788,61.4636105 C162.4732,60.5669833 162.62011,59.6415779 162.651137,58.7086941 C162.685003,58.2642809 162.718869,57.8193711 162.775299,57.3765934 C162.859335,56.7176545 162.975987,56.0599744 163.092639,55.4031249 C163.472282,53.266585 163.831024,51.2487865 163.076369,49.2393625 C162.563432,48.0236229 161.91458,46.8698261 161.142196,45.7999899 C160.967847,45.5378375 160.79349,45.2761047 160.6229,45.0126935 C160.143141,44.2321427 159.742556,43.4056178 159.427112,42.5454298 C159.323005,42.2882952 159.218058,42.0278126 159.105148,41.7627317 C158.607581,40.6928972 157.960576,39.6991608 157.183519,38.8112973 C157.032501,38.6293364 157.057585,38.3594035 157.239546,38.2083853 C157.421507,38.0573672 157.69144,38.0824513 157.842458,38.2644122 C158.673121,39.2156796 159.36357,40.28078 159.892864,41.4274095 C160.007846,41.6975083 160.115302,41.9630087 160.221088,42.2247416 C160.517438,43.0336439 160.892613,43.8114445 161.341197,44.546916 C161.510117,44.8073986 161.682376,45.0662115 161.855055,45.3254354 C162.664996,46.448658 163.343816,47.6608287 163.878283,48.9383175 C164.714918,51.1672337 164.318971,53.3966208 163.935979,55.5528039 C163.821425,56.1958758 163.706862,56.839744 163.624907,57.4844685 C163.570105,57.9134685 163.537566,58.3436844 163.504916,58.7734979 C163.468934,59.7768758 163.307974,60.7718513 163.025763,61.7353961 C162.483569,63.1641825 161.772322,64.5229429 160.907196,65.78269 L160.817286,65.92569 C159.452835,68.1916394 158.221104,70.534903 157.128314,72.9436505 C156.276625,74.7293951 155.396045,76.5753453 154.407256,78.3393487 C152.036581,82.5697768 149.377423,86.7324726 146.856624,90.6008195 C146.601999,90.991749 146.344864,91.3943924 146.083962,91.803715 C144.401905,94.4411487 142.495749,97.4297974 139.872119,99.1996493 C139.801666,99.2477671 139.718292,99.2732311 139.632975,99.2732311 L139.632975,99.2732311 Z" id="Path" fill="#333333"></path>
                <path d="M35.6090979,172.637162 C35.5191877,172.637162 35.4292775,172.63545 35.3389992,172.632975 C34.0499795,172.545045 32.7759821,172.304197 31.543822,171.9155 C30.887392,171.736536 30.2455875,171.615303 29.624702,171.497392 C28.666504,171.344095 27.7230619,171.109668 26.8045537,170.796641 C26.1536321,170.566205 25.5917608,170.136721 25.1985951,169.569076 C24.9680062,169.217159 24.8486869,168.803982 24.8561658,168.383315 C24.9413136,167.559432 25.2566002,166.776142 25.7659712,166.123016 C26.0042469,165.778298 26.2082787,165.411128 26.3751598,165.026737 C26.6089331,164.253923 26.6813696,163.441308 26.5879729,162.63933 C26.5745977,162.334115 26.5616335,162.028891 26.5633032,161.726185 C26.5958594,160.874493 26.7276185,160.029503 26.955911,159.208332 C27.0357684,158.87468 27.1160368,158.538518 27.1829385,158.19483 C27.3006704,157.444145 27.335025,156.682742 27.2853762,155.924504 C27.2728316,155.477128 27.2607065,155.028074 27.2791081,154.577358 C27.3150095,154.011051 27.3908771,153.447987 27.5061442,152.892373 C27.6427879,152.27687 27.7152291,151.648854 27.7223054,151.018405 C27.6607243,150.282139 27.4728998,149.561962 27.1670544,148.889401 C27.0173753,148.498882 26.8626699,148.095828 26.7464374,147.677754 C26.4712096,146.392422 26.4612504,145.064436 26.7171695,143.775121 L26.7911699,143.188093 C27.1891246,139.107322 27.0495384,134.991961 26.3759904,130.947533 C26.1610622,129.442343 25.8579365,127.921259 25.5648635,126.450354 C24.8757042,123.516849 24.4937232,120.519585 24.4250936,117.506997 C24.4526917,115.025939 24.4025133,113.077551 24.2628699,111.189369 C24.2452568,110.953508 24.4221251,110.748002 24.6579781,110.730287 C24.7716874,110.719952 24.884721,110.756221 24.9711892,110.830785 C25.0576574,110.90535 25.1101516,111.011822 25.1166484,111.125815 C25.2583897,113.039087 25.3093987,115.010055 25.281381,117.517033 C25.3520859,120.470019 25.7285793,123.407732 26.4048301,126.283113 C26.7000181,127.765723 27.0052332,129.298512 27.2239119,130.827122 C27.908349,134.945232 28.0487801,139.135417 27.6416003,143.290111 L27.5663412,143.885505 C27.3272711,145.061057 27.3288353,146.272858 27.5709395,147.447789 C27.6767166,147.826602 27.8172077,148.193701 27.9664672,148.582541 C28.3093368,149.345543 28.5164805,150.162507 28.5785843,150.996698 C28.572981,151.686554 28.4959146,152.373973 28.3486197,153.047943 C28.2402277,153.563725 28.1686896,154.086568 28.1345478,154.612509 C28.1174221,155.043162 28.12953,155.472975 28.141244,155.901119 C28.1930278,156.722174 28.1534819,157.54644 28.0233332,158.358766 C27.9539226,158.714126 27.8711453,159.062027 27.7887704,159.407385 C27.5760796,160.16508 27.4521854,160.944931 27.4195821,161.731237 C27.4178695,162.019729 27.4308765,162.31073 27.4434126,162.601739 C27.5457975,163.520887 27.4541996,164.45129 27.1745383,165.332825 C26.9880071,165.771764 26.7578669,166.190862 26.4875817,166.58381 C26.0711473,167.108538 25.8034161,167.735558 25.7124104,168.399242 C25.7090489,168.651094 25.7814442,168.898145 25.9202057,169.10835 C26.2122184,169.520819 26.6266298,169.830932 27.1047166,169.994745 C27.9777982,170.289521 28.8739997,170.510774 29.7839544,170.656193 C30.4211521,170.776604 31.0796799,170.901202 31.7106011,171.073462 C32.8970263,171.449875 34.1234882,171.685906 35.3648762,171.776722 C36.7762133,171.751902 38.1784936,171.545616 39.537188,171.162944 L40.109188,171.031658 C40.986723,170.926781 41.8193535,170.58575 42.518327,170.044915 C43.0064015,169.484298 43.2376149,168.745022 43.1559443,168.006214 C43.1312747,167.31299 43.0413816,166.594676 42.9544171,165.899747 C42.7895076,164.847622 42.7232855,163.782387 42.7566147,162.717937 C42.8842696,161.46347 42.8582946,160.19811 42.6792662,158.949939 C42.5845436,158.245321 42.601901,157.530154 42.7306949,156.830961 C42.7758554,156.503166 42.8230968,156.165335 42.8427486,155.794049 C42.8360139,155.498679 42.7637526,155.208493 42.6311857,154.944457 C42.4183599,154.516975 42.3297072,154.038367 42.3753013,153.563017 C42.4406856,153.177762 42.5394537,152.798922 42.6704893,152.430783 C42.8614212,151.961787 42.954062,151.458594 42.9426774,150.952351 C42.8119367,147.9702 43.0813672,144.983976 43.7437771,142.073387 C43.8930365,141.244689 44.0410458,140.424357 44.1673225,139.619079 C44.8512751,135.477851 45.010853,131.266962 44.642288,127.085848 C44.5908594,126.528927 44.5331628,125.968658 44.4758857,125.407525 C44.3312159,124.000165 44.1819565,122.543474 44.1246708,121.117722 C44.0908438,120.771163 44.210303,120.427149 44.4516356,120.176139 C44.9534911,119.829164 45.5756613,119.703127 46.1729874,119.827434 C47.5968623,119.933759 49.0134965,120.121378 50.4159601,120.389372 C51.2007475,120.524845 51.985535,120.66031 52.7707505,120.765676 C55.0147374,121.065873 57.3645099,121.29249 59.7552644,121.438829 C62.5984041,121.613598 65.4988295,121.647883 68.3039243,121.680499 C70.1536336,121.702241 72.0664513,121.724812 73.9488108,121.786679 C78.7809007,121.948072 83.4850441,122.519207 88.6925903,123.1932 C93.1578172,123.835979 97.6571268,124.21433 102.166992,124.326273 C106.134848,124.363094 110.678857,124.269407 114.48532,122.681431 C116.612244,121.794206 117.974443,120.183641 119.533572,118.169199 C119.678934,117.98407 119.946451,117.950943 120.13258,118.095022 C120.318708,118.239101 120.353684,118.506383 120.210895,118.693503 C118.57274,120.809141 117.135282,122.504154 114.814777,123.471656 C110.858626,125.122355 106.207162,125.218482 102.158618,125.182518 C97.6149141,125.070518 93.0818088,124.689934 88.5830369,124.042757 C83.3972318,123.371273 78.7144099,122.802638 73.9203735,122.642924 C72.0472447,122.580209 70.1390082,122.558468 68.2938801,122.536744 C65.4783299,122.503289 62.5670298,122.469842 59.7025685,122.293404 C57.2917512,122.145395 54.9214962,121.9171 52.6570356,121.613512 C51.8613733,121.507332 51.0661306,121.370172 50.2704683,121.233038 C48.9235293,120.975164 47.5632612,120.792583 46.1959959,120.686144 C45.7377451,120.658555 45.2138342,120.625939 45.0507885,120.787332 C44.9890366,120.872787 44.9636315,120.979217 44.9801277,121.08335 C45.0365741,122.483183 45.1845834,123.925659 45.3275834,125.320466 C45.3852801,125.884083 45.4429767,126.446852 45.4952445,127.007121 C45.8701496,131.259048 45.7083236,135.541258 45.0135828,139.752762 C44.8860559,140.56305 44.7372075,141.39007 44.5866893,142.225455 C43.9406205,145.059774 43.6744583,147.967442 43.7952057,150.871954 C43.8219139,151.494981 43.7161764,152.116588 43.4849728,152.695744 C43.3694107,153.017341 43.281841,153.348319 43.2232399,153.684987 C43.2039302,154.01055 43.2737494,154.335216 43.4251868,154.62406 C43.6078396,155.003183 43.7012336,155.419103 43.6982054,155.83992 C43.6768839,156.237126 43.6271336,156.597537 43.5790445,156.947913 C43.4618236,157.562649 43.4434767,158.192156 43.5246959,158.812676 C43.715512,160.123709 43.744578,161.453216 43.6112409,162.771335 C43.5825235,163.782483 43.6470464,164.794125 43.8039912,165.793431 C43.8934647,166.506718 43.9858666,167.244264 44.0113754,167.975962 C44.1070939,168.95054 43.7861704,169.920141 43.1279095,170.645164 C42.3199025,171.315517 41.3364489,171.739839 40.2943859,171.86772 L39.734117,171.996497 C38.3886633,172.369552 37.0043216,172.584557 35.6090979,172.637162 Z" id="Path" fill="#333333"></path>
                <path d="M52.099738,98.693729 C51.8785665,98.6934825 51.6939751,98.5248349 51.6738045,98.3045849 C51.653634,98.0843349 51.8045223,97.884964 52.02197,97.8445487 C54.8805828,97.3143869 57.4598918,96.8477788 60.0806023,96.5124566 C62.4596428,96.2080721 64.885094,96.0379021 67.2306879,95.873161 C69.4943265,95.7142854 71.8349026,95.5495443 74.1194517,95.2651969 C78.4761126,94.7739023 82.7048747,93.4836597 86.5937356,91.4591535 C86.7286228,91.3870048 86.8917545,91.3922981 87.0216806,91.4730395 C87.1516068,91.5537809 87.2285884,91.6977037 87.2238535,91.8505938 C87.2186664,92.0034838 87.1325164,92.1421133 86.9976293,92.214262 C83.0161784,94.2886232 78.686303,95.6109159 74.225246,96.1147968 C71.9177056,96.4020384 69.5654241,96.5676101 67.2909106,96.7273248 C64.9570222,96.8912268 62.5441155,97.0605577 60.1893251,97.3620136 C57.5907753,97.6944159 55.024011,98.1585151 52.1783538,98.686168 C52.1524439,98.6911503 52.1261225,98.693729 52.099738,98.693729 L52.099738,98.693729 Z" id="Path" fill="#333333"></path>
                <path d="M35.8842145,91.0452648 C35.8633577,91.0452648 35.8425243,91.04384 35.821911,91.0406601 C35.7095182,91.0243812 35.6082211,90.9640517 35.5403707,90.8729831 C35.4725203,90.7819146 35.443693,90.6675916 35.4602495,90.5552393 C35.5094333,90.2168814 35.580097,89.8819958 35.6718124,89.5526124 C35.8476115,88.8639122 36.1466427,88.2127283 36.5544392,87.6305639 C36.8380734,87.2729045 37.1695313,86.9559365 37.5395037,86.6885621 C37.875544,86.4538928 38.1708769,86.1657654 38.4137732,85.8356228 C38.7298008,85.1389904 38.859743,84.3723009 38.7909078,83.6104401 C38.792158,83.3959572 38.7934168,83.1889925 38.8017741,82.9945724 C38.8119408,81.9231795 38.935838,80.8558943 39.171382,79.8106646 C39.6939562,77.9848188 40.3732618,76.2075224 41.2017251,74.4985914 C41.7067977,73.3751423 42.2294328,72.2136226 42.6446208,71.0579686 C43.2146683,69.3332474 43.647915,67.5662863 43.9403378,65.7734935 C44.159008,64.6215985 44.3852049,63.4304085 44.6891698,62.2588703 C45.0351102,60.684744 45.9013383,59.2730893 47.1480676,58.2517106 C47.6084077,57.8741563 48.0620602,57.4731912 48.5186327,57.0697171 C49.8057643,55.8136906 51.2725011,54.7560282 52.8707307,53.9314237 C56.1631635,52.5367409 59.9112765,52.7156838 63.0558671,54.4176836 C65.2271821,55.7701731 67.1700576,57.4587384 68.8119768,59.4203545 C69.1769864,59.8121232 69.5398981,60.2013829 69.9040772,60.5810265 C72.2084019,62.8909028 74.3278925,65.3780618 76.2430274,68.0195953 C76.3783448,68.2135636 76.3307988,68.4805023 76.1368306,68.6158196 C75.9428624,68.751137 75.6759237,68.7035911 75.5406063,68.5096229 C73.6506894,65.9046862 71.5594503,63.4519309 69.2861117,61.1739027 C68.9190127,60.7913307 68.5535835,60.3991424 68.1856453,60.0040257 C66.6028713,58.1117489 64.7327429,56.4797782 62.6436075,55.1677572 C59.7303503,53.6138174 56.274227,53.4464436 53.2244459,54.7116043 C51.7054173,55.5035931 50.3109225,56.5143537 49.0855892,57.7115388 C48.6210704,58.1221201 48.1594715,58.5297728 47.6916132,58.9140147 C46.5826787,59.8183467 45.8157836,61.0742296 45.517859,62.4737984 C45.2214209,63.6181666 44.9977329,64.7951423 44.7815717,65.9331996 C44.4814993,67.7704581 44.0364961,69.5810874 43.4507298,71.3481301 C43.0238449,72.5343108 42.4945137,73.7112865 41.9827535,74.8497977 C41.1756658,76.5141891 40.5126279,78.2446547 40.0009105,80.022219 C39.7812614,81.010032 39.6660685,82.0181996 39.657231,83.0300998 C39.6497042,83.2153233 39.6484454,83.4122523 39.6471953,83.6158689 C39.7280443,84.5393805 39.5508737,85.4672035 39.1354265,86.2959458 C38.8437024,86.7086109 38.483702,87.0684723 38.0709243,87.3600371 C37.7627664,87.5808368 37.4853557,87.8416555 37.2459941,88.135628 C36.8990832,88.6352013 36.6451273,89.1932524 36.496323,89.7829794 C36.4145697,90.0773833 36.3514504,90.3766465 36.3073404,90.67899 C36.2766093,90.8890966 36.0965565,91.0452648 35.8842145,91.0452648 Z" id="Path" fill="#333333"></path>
                <path d="M69.8597557,96.5321092 C69.721205,96.5323681 69.591105,96.4655232 69.5106388,96.3527333 C66.279026,91.8303045 63.4486774,87.0342021 61.051872,82.0191241 C60.4255405,80.7050054 59.8146822,79.3369493 59.1841721,77.8363569 C59.1248691,77.6953452 59.1452997,77.5334073 59.237768,77.4115435 C59.3302362,77.2896798 59.4806939,77.2264043 59.6324651,77.2455522 C59.7842363,77.2647002 59.9142634,77.3633626 59.9735663,77.5043743 C60.5990586,78.9924306 61.2044795,80.3487727 61.8245344,81.6511859 C64.2003761,86.6207921 67.0055276,91.3735014 70.2080421,95.8551875 C70.3012509,95.9856652 70.3137252,96.1572927 70.2403633,96.2998771 C70.1670014,96.4424616 70.0201063,96.5321092 69.8597557,96.5321092 L69.8597557,96.5321092 Z" id="Path" fill="#333333"></path>
                <path d="M51.8104242,97.8667096 C51.6186784,97.8667096 51.4502151,97.7395027 51.3980781,97.5549812 C51.3459411,97.3704596 51.4228456,97.1737743 51.5863166,97.0735561 C52.1449072,96.7315463 52.1879699,96.3991441 52.2665771,95.7962321 C52.2994654,95.4937447 52.3553746,95.194206 52.4338186,94.9002216 C52.5377319,94.5752832 52.6831858,94.2651296 52.8665691,93.9774605 C53.1145521,93.6630434 53.2391485,93.2688732 53.2169362,92.8690478 C53.1647906,92.6134517 53.086037,92.364015 52.9819624,92.1248142 C52.7844719,91.7015997 52.6790161,91.2413016 52.6725601,90.7743205 C52.7471234,90.1398508 52.989762,89.5368017 53.3754008,89.0274941 C53.483293,88.8573241 53.5894726,88.6896545 53.6793828,88.5211628 C53.9473901,87.9583026 54.1343301,87.3603218 54.2346338,86.7450343 C54.3554034,85.734333 54.7721488,84.7818568 55.43252,84.0072522 C55.6679134,83.7626623 55.9221195,83.537296 56.1759145,83.3123578 C56.6164545,82.958419 57.0070443,82.546462 57.3370402,82.0877127 C57.6768221,81.5090159 57.9419213,80.8896042 58.1260063,80.2442714 C58.2309529,79.9298513 58.3358995,79.6158507 58.4563192,79.310216 C59.8430301,75.9871061 60.3642044,72.3665625 59.9710917,68.7872484 C59.9519715,68.635482 60.0152702,68.4850436 60.1371437,68.3926019 C60.2590172,68.3001602 60.42095,68.2797593 60.5619436,68.3390839 C60.7029373,68.3984086 60.8015714,68.5284461 60.8206915,68.6802125 C61.2321795,72.4022102 60.6928649,76.1677666 59.2531974,79.6246362 C59.1382151,79.9156369 59.0382693,80.2154231 58.9383662,80.5156289 C58.732122,81.2300378 58.4353694,81.9151408 58.0553284,82.5542695 C57.6841031,83.0785952 57.2426365,83.5494616 56.7432991,83.9536743 C56.5062274,84.1631479 56.2687446,84.3730411 56.04885,84.6009077 C55.5058545,85.2645604 55.1666298,86.0712384 55.0721514,86.9235017 C54.9566269,87.6175874 54.7420379,88.2914891 54.4349537,88.9245769 C54.3354446,89.1110507 54.2183729,89.2971133 54.099212,89.4852568 C53.799204,89.8708194 53.6026134,90.3266002 53.5280683,90.8094111 C53.5432318,91.1574325 53.6287084,91.4987799 53.7793458,91.8128772 C53.9070579,92.1090801 54.0019771,92.4183677 54.0624087,92.7352187 C54.1234288,93.3307247 53.9606782,93.9276304 53.6058363,94.4097487 C53.4597556,94.6353833 53.3427355,94.8785522 53.2575499,95.1334914 C53.1909889,95.3872705 53.1436082,95.6456961 53.1158087,95.9065819 C53.1163663,96.6858704 52.7048125,97.4073621 52.033744,97.8035411 C51.9665478,97.844775 51.889263,97.8667096 51.8104242,97.8667096 Z" id="Path" fill="#333333"></path>
                <g id="Group" transform="translate(2.568862, 95.904210)">
                    <path d="M43.2873159,14.2590266 C41.3219355,14.4985678 39.3314269,14.4349234 37.3853634,14.070318 C35.7844399,13.7323414 34.2647866,12.9395905 32.6184113,12.833154 C30.8408357,12.7179833 29.1132758,13.5173276 27.472886,14.0774252 C25.6558874,14.7486018 23.7501332,15.1491694 21.8166794,15.2662947 C16.9558782,15.4473138 11.9508782,13.8305575 7.64966084,11.6727989 C5.14357299,10.4159402 1.73339976,8.54073922 0.889614132,5.60514617 C-0.016680479,2.45383719 3.20587162,1.32970305 5.6576794,1.00054617 C10.8244637,0.298814326 16.084865,0.929390434 20.9394129,2.83240186 C22.9501471,3.68329467 24.7862842,4.74046713 26.9577435,5.14206593 C29.2670626,5.48785825 31.6165184,5.46655946 33.919189,5.07895754 C36.6348189,4.71741587 39.3356351,4.19458389 42.0672776,3.95867671 C43.6085217,3.74710014 45.1753782,3.81719727 46.6915722,4.16555575 C48.8113974,4.77780126 49.717692,6.65623898 49.783549,8.74266892 C49.8608632,11.2004707 48.7713231,13.0059528 46.3453752,13.7070809 C45.3446395,13.9824092 44.3211601,14.1671359 43.2873159,14.2590266 Z" id="Path" fill="#969696"></path>
                    <path d="M21.0739871,15.7074316 C15.8605838,15.708276 10.8273863,13.7465215 7.45784389,12.0556535 C4.32662341,10.4852224 1.31373329,8.63136012 0.478347844,5.72297132 C0.150439294,4.77563389 0.268631661,3.73081073 0.79987521,2.88066222 C1.7811806,1.37714994 3.95241725,0.797648862 5.60101886,0.57605024 C10.8435641,-0.137097504 16.1813953,0.503719219 21.1061749,2.43747353 C21.6350865,2.66158108 22.1522841,2.89986874 22.6661422,3.13654659 C24.0498789,3.84695456 25.5179548,4.37939657 27.0353831,4.72118353 C29.3007969,5.053871 31.6042317,5.03129933 33.8626911,4.6542818 C34.8327021,4.52550473 35.8010433,4.37498653 36.7693845,4.2252818 C38.4869772,3.95936174 40.2635167,3.68424515 42.0304144,3.53205719 C43.6239011,3.31383821 45.2438767,3.38922425 46.8102108,3.75448641 C48.8911434,4.35572862 50.1308335,6.1686518 50.2111105,8.72914814 C50.298075,11.4803054 48.9672331,13.3944161 46.4644334,14.1185784 C45.4390923,14.402126 44.3900382,14.5916158 43.330293,14.6846957 L43.330293,14.6846957 C41.3209871,14.9309102 39.2856896,14.8649068 37.2965578,14.4890254 C36.6426968,14.338018 35.9976845,14.1509763 35.3644737,13.9287566 C34.4722011,13.5885709 33.5400425,13.3640334 32.5907361,13.2606212 C31.1880938,13.2808553 29.8041822,13.5858299 28.5229598,14.1570428 C28.216486,14.2690966 27.9121015,14.3803112 27.6110565,14.4831684 C25.7558858,15.1723361 23.8081575,15.5804553 21.8323751,15.6940102 C21.5794393,15.7032239 21.3266432,15.7076937 21.0739871,15.7074316 Z M9.75953593,1.15973 C8.40688443,1.15819449 7.05563239,1.24675077 5.71475096,1.4248109 C4.51059677,1.58664922 2.36360162,2.05155335 1.51651072,3.34894868 C1.12238364,3.99123459 1.04309072,4.77832708 1.30118868,5.48631916 C2.14827958,8.43482503 5.99364377,10.3631501 7.84166617,11.2896787 C11.2852175,13.0181377 16.5040496,15.0350799 21.8006583,14.8377485 C23.6930117,14.727211 25.5581958,14.3343026 27.3343301,13.6720587 C27.6299377,13.571719 27.9288847,13.4630047 28.2299211,13.3526635 C29.6199736,12.7330764 31.1241143,12.4106587 32.6459923,12.4060635 C33.6680598,12.5139393 34.6720572,12.7525375 35.6333822,13.1160114 C36.2363869,13.3282671 36.8506936,13.5069343 37.4734754,13.651191 C39.3761582,14.0090721 41.3227418,14.0705637 43.244219,13.833486 L43.244219,13.833486 C44.2527627,13.7453177 45.2511625,13.5653426 46.2270106,13.2957975 C48.3777649,12.6736533 49.4305617,11.1458824 49.3557222,8.75596707 C49.3155794,7.48408054 48.9008195,5.24970982 46.572788,4.57738719 C45.1070185,4.24411469 43.5930218,4.17895372 42.104038,4.38505647 C40.3659544,4.53557467 38.6040402,4.80818234 36.9002509,5.07159347 C35.9260527,5.22295084 34.9518631,5.37346904 33.9755755,5.50391587 C31.6278216,5.89292275 29.2336991,5.91267293 26.879847,5.56245168 C25.2925826,5.20754985 23.7564436,4.653782 22.3078287,3.91426964 C21.8019084,3.68096557 21.2930768,3.44682234 20.7725054,3.22606287 C17.2710502,1.82682785 13.5300235,1.12491158 9.75950168,1.15973 L9.75953593,1.15973 Z" id="Shape" fill="#333333"></path>
                </g>
                <path d="M76.6193229,85.3196754 C76.1199322,85.3543882 75.6350227,85.1432238 75.3202578,84.7539691 C74.9620593,84.1713747 74.7551011,83.5085151 74.718185,82.8256098 C74.6876584,82.6127881 74.6592296,82.4112609 74.6215958,82.2390016 L72.0222326,70.2999401 C71.8288112,69.7761687 71.8818031,69.1931127 72.1664828,68.7127942 C72.5773265,68.2233337 73.2004752,67.9641571 73.8372451,68.0178999 L74.0977277,67.9995068 L83.5607913,67.1365232 C83.6507014,67.1285854 83.7451756,67.1147821 83.8421759,67.1009873 C84.1297415,67.0468634 84.423575,67.0341903 84.7147328,67.0633535 C85.5521682,67.1863267 86.1388975,67.95448 86.0372173,68.7947666 C86.0305778,68.9089635 85.9773857,69.015438 85.890062,69.0893269 C85.8027383,69.1632158 85.688928,69.1980503 85.5752074,69.1856961 C85.4620583,69.1763743 85.3572628,69.1224325 85.2839267,69.035764 C85.2105906,68.9490955 85.1747363,68.8368177 85.1842694,68.7236862 C85.2168083,68.5361284 85.1715295,68.3434087 85.0588731,68.189964 C84.9462168,68.0365193 84.7759074,67.9355948 84.5872144,67.9104615 C84.378368,67.8957616 84.1684953,67.9085555 83.9629809,67.9485149 C83.8509357,67.9647844 83.7418019,67.9798721 83.638114,67.9894883 L74.1754701,68.8524633 C74.0822289,68.8608292 73.9864874,68.8666777 73.8894701,68.8725347 C73.375201,68.9043115 73.0499145,68.9419368 72.8697088,69.2015888 C72.7112443,69.4294554 72.7589052,69.681966 72.8567446,70.1084657 L75.458651,82.0567665 C75.500044,82.2474274 75.5322404,82.4694371 75.5656869,82.7044195 C75.5935682,83.237393 75.7402823,83.7573861 75.9950894,84.2263333 C76.2074487,84.4993606 76.518144,84.4843071 77.0478862,84.4370657 L77.2640474,84.4186641 L82.6167001,84.0235559 C82.7694587,84.0119177 82.9167895,84.0828078 83.0030186,84.2094379 C83.0892477,84.3360679 83.1012252,84.4991271 83.0344251,84.636998 C82.967625,84.7748689 82.8322342,84.8665263 82.6794146,84.8773344 L77.1256714,85.2895854 C76.9696986,85.3038084 76.7974393,85.3196754 76.6193229,85.3196754 Z" id="Path" fill="#333333"></path>
                <path d="M86.326985,85.6955513 C86.0277958,85.6947228 85.7289054,85.6765762 85.4318135,85.6412027 C84.0794435,85.4823148 82.7699491,85.0662059 81.5739219,84.4153074 C80.666102,84.0739662 80.0272988,83.2512143 79.9215526,82.2871249 C79.893192,82.0803738 79.8395495,81.8778877 79.7618293,81.6842129 C79.5535274,81.3158208 79.2825782,80.9865757 78.9611577,80.7112735 C78.3484338,80.2425199 77.9380068,79.5573332 77.813861,78.7959212 C77.8031623,78.4289588 77.8364317,78.0620351 77.9129592,77.7029816 C77.9850224,77.3841339 78.013155,77.0569308 77.9965756,76.7304617 C77.9255002,76.3115669 77.7747701,75.9101838 77.5525478,75.5480487 C77.4421638,75.3373163 77.3313687,75.1240836 77.2372884,74.8999761 C76.7773354,73.7096824 76.7335763,72.398795 77.1131268,71.1804776 C77.4367526,70.0209706 78.3874066,69.1436234 79.5691047,68.9138848 L80.0833738,68.7654559 C80.5697387,68.6389906 81.0476165,68.4818849 81.5141444,68.2950801 L81.7658501,68.1863744 C82.3734508,67.855699 83.0617964,67.7025539 83.7522828,67.7444274 C84.3681308,67.8410581 84.9689103,68.0168654 85.5396972,68.267482 C85.7612958,68.3536159 85.9808051,68.4393303 86.198636,68.5129196 C86.860815,68.7219298 87.5357937,68.8879837 88.2193631,69.0100459 C88.4861137,69.063992 88.7536864,69.1179381 89.0212934,69.1768763 C91.2899584,69.6778045 92.9356315,71.4367559 93.6543649,74.130208 C93.6944757,74.2803829 93.6500429,74.4405006 93.5382801,74.5485305 C93.4265172,74.6565603 93.264983,74.6955301 93.1162568,74.6503426 C91.9915404,74.3091635 90.3140904,76.5121769 89.5100622,77.5716699 L89.2332759,77.9337511 C88.6567033,78.6729669 87.553728,82.7804749 86.9524944,85.3610426 C86.9087523,85.5498016 86.7435114,85.6855274 86.5498509,85.6917665 C86.4758334,85.6942754 86.4018673,85.6955513 86.326985,85.6955513 Z M83.455408,68.583589 C82.9845694,68.6174517 82.5260015,68.7493236 82.1091015,68.9707508 L81.8486189,69.0836438 C81.3491172,69.2842246 80.8374461,69.4530581 80.3166607,69.5891359 L79.8140971,69.7342253 C78.910833,69.8803976 78.1760725,70.5404708 77.9342807,71.4229611 C77.6097013,72.4520309 77.642262,73.5605709 78.0266827,74.5688155 C78.1111383,74.7703427 78.2119062,74.9614233 78.3109701,75.1508255 C78.5870523,75.6075131 78.7698082,76.1144263 78.8486587,76.6422213 C78.8748843,77.0471808 78.8439192,77.4538157 78.7566763,77.8501346 C78.6929113,78.1427207 78.6633141,78.441718 78.6684787,78.7411274 C78.7019253,79.2591813 79.0999705,79.6484238 79.560302,80.0991478 C79.958443,80.4443834 80.2900322,80.8595765 80.5386789,81.324204 C80.6479134,81.5826176 80.7236472,81.8539416 80.7640366,82.1315717 C80.7924011,82.3418457 80.8477717,82.5475824 80.9287778,82.7436888 C81.1816461,83.150265 81.5507328,83.471579 81.9882622,83.6660388 C83.0865648,84.2631912 84.2888716,84.6449414 85.5304835,84.7907466 C85.7633937,84.8175056 85.9837165,84.8333983 86.19611,84.8379966 C86.5393785,83.3980294 87.7648286,78.4241983 88.5575966,77.4069374 L88.8281149,77.0540613 C89.7412598,75.8511573 91.1837616,73.9512696 92.6500425,73.7714835 C92.1384516,71.929193 90.6860241,70.4977841 88.8364723,70.013101 C88.5743199,69.9554043 88.3117479,69.9022974 88.0500065,69.8496186 C87.3306964,69.7199383 86.6204152,69.5443922 85.9235109,69.324055 C85.6939659,69.246287 85.4623316,69.1563939 85.2290618,69.0652507 C84.7257458,68.8437296 84.1968121,68.6857229 83.6544605,68.5948749 C83.5883617,68.5874268 83.5218994,68.583589 83.4553823,68.583589 L83.455408,68.583589 Z" id="Shape" fill="#333333"></path>
                <path d="M157.286787,32.717785 C157.124083,32.717785 156.975544,32.6252095 156.90345,32.4793486 C156.831357,32.3334878 156.848171,32.1593687 156.946841,32.0299975 C161.599145,25.936896 164.01498,20.3166706 164.127034,15.3244464 C164.323752,11.7719792 162.81404,8.3387702 160.063017,6.08253622 C158.575287,4.94802193 156.851121,4.16318084 155.018525,3.78628161 C153.511987,3.39688811 152.029144,2.9209879 150.577373,2.36094838 C150.037868,2.15671134 149.466324,2.05010592 148.889468,2.04611718 L148.482646,2.04903712 C147.870559,2.09228385 147.255805,2.01980178 146.670562,1.83538484 C146.368171,1.71914968 146.07203,1.5872689 145.783337,1.4402767 C145.38393,1.22120828 144.957016,1.05654572 144.51395,0.950668676 C142.661732,0.594855563 140.557389,1.28890221 138.701822,1.89935808 L138.516179,1.96040281 C136.783114,2.53028778 135.48154,3.19926233 134.760725,4.61205095 C134.191294,5.59997572 134.02164,6.76840164 134.28659,7.87747736 C134.386635,8.15933883 134.521472,8.42760975 134.687975,8.67606814 C134.81544,8.87511784 134.757409,9.13981002 134.558359,9.26727466 C134.359309,9.39473931 134.094617,9.33670814 133.967152,9.13765844 C133.761744,8.82952876 133.595982,8.49674281 133.473785,8.14716508 C133.148549,6.81980507 133.335771,5.41861715 133.99809,4.22321083 C134.902047,2.45084143 136.575318,1.69741125 138.24859,1.1467585 L138.433813,1.08613335 C140.291049,0.473605263 142.604447,-0.286495396 144.675343,0.109434784 C145.193303,0.228357386 145.692655,0.417266254 146.159632,0.670953826 C146.421279,0.804976436 146.689797,0.925139795 146.964071,1.03094562 C147.451643,1.17951949 147.962938,1.23443273 148.47094,1.19278395 C148.610173,1.19111419 148.751075,1.18944442 148.895316,1.18986401 C149.570819,1.19397741 150.240198,1.318282 150.872141,1.55696299 C152.293994,2.10580312 153.746259,2.57234655 155.22173,2.9542785 C157.173528,3.3648869 159.009496,4.20467868 160.596518,5.41276532 C163.538534,7.84947204 165.163377,11.5278569 164.983279,15.3436872 C164.866627,20.5207153 162.391836,26.3094324 157.627487,32.549293 C157.546484,32.6556037 157.420442,32.717785 157.286787,32.717785 L157.286787,32.717785 Z" id="Path" fill="#333333"></path>
                <path d="M156.368197,32.2561944 C156.353982,32.2561944 156.339768,32.2553381 156.325134,32.2541051 C156.212126,32.2428188 156.108235,32.1870894 156.036328,32.0991836 C155.964421,32.0112779 155.930392,31.8984011 155.941731,31.785399 C156.015626,31.1677788 155.943152,30.5414367 155.730168,29.9570113 C155.541392,29.5807429 155.241218,29.2718114 154.870533,29.0722951 C154.468099,28.830196 154.122451,28.5043647 153.85704,28.1169096 C153.470521,27.3173672 153.307827,26.4280479 153.386244,25.543449 L153.386244,25.4489577 C153.366474,23.9099551 153.548366,22.3749918 153.927281,20.8832332 C154.272324,19.9028107 154.290805,18.8370494 153.97996,17.8452538 C153.903757,17.6214967 154.023373,17.3783309 154.24713,17.3021278 C154.470887,17.2259248 154.714053,17.345541 154.790256,17.5692981 C155.158181,18.7204954 155.145872,19.9595358 154.755148,21.1031963 C154.395192,22.5231948 154.222858,23.984239 154.242549,25.4490177 L154.242549,25.5443481 C154.175602,26.2697476 154.293856,27.0002712 154.586237,27.6675042 C154.791594,27.9518882 155.054048,28.1902784 155.35681,28.367425 C155.869567,28.6584935 156.278136,29.1030333 156.525009,29.6384724 C156.789019,30.3510474 156.88114,31.1158692 156.793883,31.8707538 C156.771915,32.0894318 156.587975,32.2559811 156.368197,32.2561944 L156.368197,32.2561944 Z" id="Path" fill="#333333"></path>
                <path d="M136.32238,46.7721399 C136.196797,46.7732087 136.072542,46.7463576 135.95862,46.6935001 C135.614362,46.4777726 135.386017,46.1180399 135.337315,45.7147036 C135.15627,44.9842905 135.0091,44.244638 134.862341,43.5041634 C134.714751,42.7611885 134.567573,42.0173659 134.384027,41.2827483 C134.351411,41.1527211 134.303331,41.005962 134.252322,40.8487562 C134.030304,40.1630583 133.725919,39.223985 134.245626,38.5336804 C134.767756,38.001181 135.43135,37.6291981 136.158058,37.4616513 L137.794124,36.8792217 C138.930545,36.4732387 140.106262,36.0538805 141.246452,35.6035761 C142.438061,35.1323697 143.640126,34.611824 144.802887,34.1084212 C146.6204,33.3215359 148.500225,32.5078916 150.40764,31.8523008 C151.876924,31.2893993 153.448938,31.0447114 155.019801,31.1344065 C157.619181,31.3534962 158.352549,32.6462933 158.510174,33.6924025 C158.609115,34.6088992 158.599711,35.5338625 158.482156,36.4481581 C158.462924,36.6693371 158.443272,36.8875877 158.427808,37.1012399 L158.419442,37.2308562 C158.470356,37.8615808 158.220327,38.4792898 157.74503,38.8970202 C157.43489,39.056734 157.082581,39.1155016 156.737393,39.0651009 L156.737393,39.0651009 C156.067613,39.0012168 155.404734,38.8786569 154.75639,38.6988325 C154.004061,38.4740346 153.223964,38.3556771 152.438813,38.3472066 C150.674913,38.485357 148.956276,38.9738977 147.383455,39.7842453 C144.797302,41.0423201 142.346326,42.5610998 140.068637,44.3169686 C139.76927,44.5423263 139.472832,44.791523 139.173466,45.0423896 C138.514841,45.6418091 137.78607,46.1592891 137.00306,46.5835357 C136.793054,46.6963326 136.56049,46.7607606 136.32238,46.7721399 L136.32238,46.7721399 Z M154.320685,31.961426 C153.078495,31.9915043 151.849995,32.2283303 150.685642,32.6621774 C148.809593,33.3069019 146.945661,34.1138501 145.143193,34.8944588 C143.974155,35.4003705 142.765403,35.9238447 141.560829,36.399658 C140.407273,36.8553913 139.225271,37.2776865 138.081733,37.6857589 L136.431462,38.273172 C135.874295,38.4032202 135.358199,38.6697467 134.929611,39.0487715 C134.677494,39.3832545 134.893647,40.0493005 135.066754,40.5844802 C135.124451,40.7621769 135.177969,40.9285878 135.214763,41.0753469 C135.401656,41.8233397 135.55214,42.5805375 135.702282,43.3377354 C135.846523,44.0648262 135.990774,44.7914974 136.16847,45.508972 C136.187917,45.6568785 136.24223,45.7980473 136.326935,45.9208463 C136.432294,45.9012541 136.533893,45.8651296 136.627971,45.8138104 C137.347052,45.418416 138.016786,44.9392702 138.62319,44.3863792 C138.934262,44.1254856 139.242405,43.867469 139.553477,43.632949 C141.877687,41.8421467 144.378522,40.2931189 147.017144,39.0099217 C148.695305,38.1484081 150.529188,37.632165 152.410333,37.4917241 C153.274299,37.4953254 154.133352,37.6218985 154.961642,37.8676343 C155.561864,38.0352934 156.175628,38.1500154 156.795886,38.2104832 L156.795886,38.2104832 C156.964989,38.2428336 157.139764,38.2273415 157.300539,38.1657508 C157.510433,38.0286078 157.54179,37.5360713 157.564781,37.176499 L157.573986,37.0393646 C157.58987,36.8211055 157.609522,36.5982567 157.629174,36.3724794 C157.738525,35.5256152 157.749889,34.6689681 157.66304,33.8195013 C157.501202,32.7420348 156.587663,32.1257647 154.947838,31.9873459 C154.741741,31.970203 154.532702,31.961426 154.320719,31.961426 L154.320685,31.961426 Z" id="Shape" fill="#333333"></path>
                <path d="M138.540866,37.5122408 C138.511795,37.5122408 138.482801,37.5092563 138.454313,37.5034638 C138.343085,37.4806307 138.245486,37.4145427 138.182991,37.3197418 C138.120496,37.2249409 138.098226,37.1091946 138.12108,36.9979717 C138.274439,36.3701586 138.232279,35.7104724 138.000249,35.107289 C137.239712,33.3073729 135.580235,33.1183389 133.659026,32.8996687 C132.221849,32.8765939 130.820497,32.4475509 129.616741,31.662068 C128.606596,30.8576287 127.798843,29.2261614 128.255381,27.9931589 C128.389284,27.6504368 128.546728,27.3173855 128.726588,26.996389 C128.946769,26.6189133 129.122166,26.2170421 129.249223,25.7989224 C129.486159,25.1733156 129.540249,24.4932176 129.405178,23.8380242 C129.373821,23.7255594 129.329089,23.6126665 129.284767,23.4976842 C129.145488,23.1943669 129.069245,22.8659278 129.06066,22.5322715 C129.077242,22.2850249 129.141261,22.0432813 129.249223,21.8202342 C129.300587,21.7105441 129.339843,21.5955823 129.366294,21.4773853 C129.422517,21.3113254 129.408181,21.1294745 129.326633,20.9742754 C129.245085,20.8190763 129.103459,20.7041089 128.934811,20.6562057 C128.795782,20.6086223 128.654076,20.5692536 128.510427,20.5383035 C127.851561,20.4901366 127.305941,20.0079848 127.177076,19.360052 C127.036216,18.4701655 127.44379,17.5827787 128.210615,17.1097886 C128.529213,16.8865202 128.862035,16.6891716 129.191064,16.494332 C130.120609,16.0921665 130.875833,15.3710502 131.320496,14.4610689 C131.435479,14.163372 131.520354,13.8744607 131.603559,13.5914063 C131.760177,12.9408785 132.027479,12.3221225 132.393784,11.7621794 C132.879936,11.0780822 133.285139,10.33993 133.601278,9.56250544 C133.665671,9.40488005 133.728805,9.24139766 133.792358,9.07582592 C134.045202,8.25668647 134.467423,7.49984908 135.031629,6.85441083 C135.828299,6.16077664 136.734891,5.60461592 137.714223,5.20873772 C139.737451,4.25795041 141.275257,3.9773964 142.350215,4.34868263 C143.500012,4.74379933 143.074797,6.06418598 142.764144,7.0283485 C142.62558,7.38479821 142.535848,7.75834638 142.497385,8.13884197 C142.526233,8.91234353 143.038002,9.35470161 143.630878,9.86688993 C144.078357,10.2151515 144.465777,10.6343493 144.777755,11.1078388 C145.677525,12.6180472 144.979702,14.5258727 144.419014,16.0590811 C144.262647,16.4863685 144.113799,16.891538 144.011361,17.2577978 C143.821173,17.7646152 143.874033,18.3306746 144.154772,18.7935151 C144.396081,19.0289981 144.740823,19.1251534 145.069176,19.0485603 C145.580105,18.9887743 145.742329,18.339032 145.93132,17.3548238 C145.997839,16.8441637 146.144887,16.3472764 146.366991,15.8826602 C146.881438,15.071318 147.765637,14.5688819 148.72596,14.5422021 C149.173579,14.4924328 149.61017,14.3704338 150.018748,14.1809516 C150.285601,14.0299673 150.543073,13.8629714 150.789749,13.6808798 C151.668189,13.0620751 152.870673,12.2158233 154.170997,13.181236 C155.52692,14.1880417 155.276464,16.3684834 154.914811,17.4982177 C154.264586,19.432134 152.883947,21.0351477 151.067786,21.9648698 C149.894739,22.5755494 148.518993,22.6649199 147.276796,22.211138 C147.133843,22.1569149 147.030677,22.0305462 147.006159,21.8796339 C146.981642,21.7287216 147.039497,21.5761928 147.157932,21.4795036 C147.276367,21.3828145 147.437389,21.3566543 147.580341,21.4108775 C148.604122,21.7726683 149.732064,21.6939518 150.695669,21.1934661 C152.296541,20.3611988 153.515478,18.9444711 154.099497,17.2373154 C154.478302,16.0532326 154.502552,14.4940959 153.660479,13.8686122 C152.912084,13.3121024 152.262324,13.6921656 151.282697,14.3812116 C151.006693,14.5839827 150.718642,14.7698244 150.420133,14.9377127 C149.93073,15.1709219 149.406462,15.3224694 148.868112,15.3863474 C148.107575,15.5147049 147.506752,15.6163034 147.109546,16.3086974 C146.940872,16.6933302 146.827294,17.0998323 146.772169,17.5161911 C146.580258,18.5167287 146.341097,19.7618563 145.168719,19.8989993 C144.555842,20.0212423 143.923777,19.8128265 143.503814,19.3500163 C143.025384,18.6739642 142.907075,17.8069398 143.186885,17.0274223 C143.294777,16.6419302 143.450296,16.2150367 143.614609,15.7647323 C144.139333,14.3314527 144.733468,12.7066816 144.041896,11.5460096 C143.775132,11.1527813 143.447244,10.8047077 143.070635,10.5149539 C142.266554,9.98767391 141.74201,9.12694453 141.641954,8.1706188 C141.668553,7.68890705 141.77231,7.21458881 141.949267,6.76576796 C142.266607,5.78070347 142.372393,5.2618361 142.071767,5.15813969 C141.23848,4.87128341 139.842851,5.15480017 138.140286,5.95506071 C137.229276,6.31917381 136.383118,6.82816617 135.634558,7.46234065 C135.159743,8.02510118 134.804773,8.67884355 134.591377,9.38354993 C134.525734,9.55497868 134.460511,9.72430951 134.393198,9.88779191 C134.053493,10.7245841 133.617388,11.518918 133.093714,12.2547074 C132.781926,12.7388606 132.555775,13.2730547 132.425159,13.8339069 C132.335248,14.1382914 132.242864,14.4493635 132.119104,14.7696321 C131.610427,15.8621824 130.726244,16.7356806 129.62759,17.2310389 C129.316929,17.4150122 129.002501,17.6006468 128.701481,17.8113791 C128.227097,18.0992051 127.960334,18.634026 128.015775,19.1861229 C128.089784,19.5431947 128.230703,19.5916863 128.708169,19.705033 C128.884181,19.743524 129.057728,19.7925316 129.227876,19.8517921 C129.964884,20.0951199 130.392291,20.8628148 130.210893,21.6174568 C130.175039,21.8010379 130.117496,21.9797077 130.039473,22.149708 C129.975462,22.2770794 129.934012,22.4145821 129.916964,22.5561105 C129.933043,22.7755526 129.989454,22.9901478 130.083367,23.1891296 C130.138169,23.3300317 130.191259,23.4696836 130.229706,23.6080768 C130.410176,24.4106578 130.356926,25.2481425 130.076259,26.021403 C129.933081,26.5021934 129.733805,26.9644585 129.482544,27.3986557 C129.321167,27.6860359 129.179385,27.9839886 129.058168,28.290479 C128.749605,29.1241862 129.385963,30.3835366 130.150268,30.9922971 C131.23146,31.670934 132.479574,32.0366566 133.756043,32.0488616 C135.760878,32.2771478 137.833855,32.5129693 138.788821,34.7745186 C139.08986,35.5367418 139.149554,36.3730287 138.95983,37.1702824 C138.919062,37.3692738 138.743991,37.5122408 138.540866,37.5122408 Z" id="Path" fill="#333333"></path>
                <path d="M105.683748,80.0364505 C105.657666,80.0364505 105.631643,80.0339867 105.60598,80.0293347 C104.808639,79.881745 97.7864998,78.5667958 96.6810156,77.8380267 C96.4835738,77.7077908 96.4290926,77.4421555 96.5593286,77.2447137 C96.6895645,77.0472719 96.9551998,76.9927908 97.1526416,77.1230267 C97.8609197,77.5900544 102.616911,78.5997886 105.578801,79.1533698 C107.846182,77.4770066 109.80383,75.4180514 111.363759,73.0690452 C112.551827,71.1865885 113.585428,69.2109699 114.454417,67.1615782 C114.831132,66.3358174 115.209526,65.5071196 115.61258,64.6821894 C116.595979,62.8635535 117.817444,61.1841373 119.244694,59.6883211 C119.785731,59.0691054 120.345572,58.4289792 120.863609,57.7788002 C121.760878,56.6528336 122.567826,55.4302863 123.348015,54.2474708 C124.304421,52.7265587 125.361531,51.2713525 126.512263,49.8916052 C128.966151,47.0764832 131.674657,44.4081118 134.293698,41.8279465 L134.646582,41.4800798 C134.755014,41.3703179 134.914115,41.3273866 135.063043,41.3677036 C135.211972,41.4080206 135.327688,41.5253494 135.365942,41.6748209 C135.404195,41.8242924 135.359067,41.982785 135.247816,42.0896879 L134.89452,42.4375547 C132.286774,45.006828 129.590385,47.6634768 127.157826,50.4543744 C126.032637,51.8057308 124.998599,53.2304481 124.062561,54.7190883 C123.271917,55.9173854 122.454514,57.1566645 121.533422,58.3123186 C121.002841,58.9779451 120.436724,59.6255981 119.889419,60.251921 C118.510787,61.6899349 117.331113,63.306241 116.381903,65.0576714 C115.982188,65.876325 115.607143,66.6983181 115.233356,67.5169889 C114.343717,69.6071357 113.287959,71.6226037 112.076224,73.5440278 C110.426522,76.0278998 108.347708,78.1981735 105.937123,79.9532279 C105.863696,80.0072698 105.774918,80.0364505 105.683748,80.0364505 L105.683748,80.0364505 Z" id="Path" fill="#333333"></path>
                <g id="Group" transform="translate(0.000000, 168.688641)">
                    <path d="M43.4823611,2.00432054 C44.2362658,3.96447735 44.7782083,5.99969541 45.098929,8.07520144 C45.4615153,10.9717906 43.982921,17.8671821 43.982921,17.8671821 L29.1920543,17.82209 L29.1920543,16.1095151 C29.1920543,16.1095151 20.4779425,18.2518264 14.5595493,18.0369582 C8.64115605,17.82209 0.472208263,18.743344 0.472208263,13.5656308 C0.268020755,12.5013533 0.810685858,11.4339346 1.7908909,10.9717906 C3.50346575,10.1155032 9.16866335,10.7972107 11.0456454,10.0282132 C12.9226274,9.25921575 14.4962782,9.14930269 17.9908814,6.63539695 C21.4854846,4.1214912 25.7669302,0.696341497 25.7669302,0.696341497 C26.3301944,1.30061692 27.0438258,1.74447497 27.8348644,1.98253659 C29.1920799,2.40891635 32.5084811,3.26228383 32.5084811,3.26228383 C33.9577735,3.45001108 35.4209447,3.50782357 36.8805306,3.43503126 C38.6112074,3.26520377 42.8926445,1.55262892 42.8926445,1.55262892 L43.4823611,2.00432054 Z" id="Path" fill="#DBDBDB"></path>
                    <path d="M15.4357454,18.4803181 C15.1326196,18.4803181 14.8353452,18.4753003 14.543922,18.4652646 C13.6157065,18.4310131 12.6319093,18.425961 11.63305,18.4201126 C6.21811952,18.3891663 0.0827858683,18.35405 0.0439018563,13.6118532 C-0.181468274,12.3683406 0.456462997,11.1284873 1.59926234,10.5889274 C2.56718395,10.1047568 4.48212521,10.0713102 6.5099594,10.0361853 C7.97944409,10.1031406 9.45113822,9.96694441 10.8833789,9.63145246 C11.3432995,9.44330898 11.7856575,9.29362138 12.2413994,9.13892449 C14.2266256,8.51599914 16.0877407,7.55098592 17.7407855,6.28741886 C21.1860066,3.80970838 25.4565689,0.396264132 25.4992205,0.361978383 C25.6820035,0.216476909 25.9476081,0.243983311 26.0966951,0.423853713 C26.6092494,0.961882145 27.2522014,1.35825356 27.9631362,1.57448994 C29.2939781,1.99260653 32.5819506,2.83885826 32.6150119,2.84721563 C33.6626648,2.97232977 34.7162638,3.04127676 35.7712873,3.05376072 C36.1454849,3.05376072 36.5100835,3.04121611 36.8387181,3.00860868 C38.4894176,2.84721563 42.6914426,1.17227461 42.7336405,1.15555132 C42.8734755,1.09874428 43.0329509,1.12038751 43.1525877,1.2124088 L43.7425697,1.66397198 C43.8043999,1.71128963 43.8521122,1.77461581 43.8805433,1.8470976 C44.6503603,3.83969811 45.20132,5.91006825 45.523716,8.02173485 C45.8912346,10.9568655 44.4625533,17.6725308 44.4015086,17.956844 C44.3593124,18.1543008 44.184896,18.2954375 43.982981,18.2955142 L43.9817308,18.2955142 L29.1907013,18.2503536 C28.9548004,18.249505 28.7639704,18.0581123 28.7638163,17.8222099 L28.7638163,16.6515108 C24.3922033,17.6985996 19.9278259,18.3111778 15.4357454,18.4803181 Z M25.7333552,1.27011401 C24.6960315,2.09378545 21.1730424,4.8733715 18.2408402,6.9831524 C16.5174285,8.2942325 14.5806064,9.29793855 12.5157025,9.95005132 C12.076684,10.0988998 11.6510492,10.2427304 11.2078519,10.4241948 C9.67894034,10.8126131 8.10058053,10.9704476 6.52503006,10.8924727 C4.68200838,10.9242495 2.77626365,10.9576961 1.9822797,11.3548679 C1.17664792,11.7284861 0.727006639,12.6009148 0.890179281,13.4738453 C0.896658124,13.5040828 0.900020923,13.5349046 0.90021497,13.5658277 C0.90021497,17.501907 6.35904731,17.5336838 11.6380593,17.5637909 C12.6456955,17.5696393 13.6382868,17.5754963 14.5748511,17.6089429 C20.3731929,17.8163272 29.0029603,15.7149122 29.0899334,15.6940017 C29.2176383,15.6625002 29.3527354,15.6915076 29.4562527,15.7726558 C29.55977,15.8538041 29.6201945,15.978068 29.6200952,16.1096008 L29.6200952,17.3957445 L43.634686,17.4383876 C43.9219277,16.0226705 44.9784922,10.5596595 44.6741077,8.12877078 C44.365052,6.12731564 43.8462511,4.16393637 43.126274,2.27106263 L42.8243984,2.04026749 C40.9185012,2.83105329 38.9424579,3.44084589 36.9223688,3.86159084 C35.4304253,3.93853052 33.9345783,3.88003496 32.4531992,3.68682257 C32.2658863,3.64167054 29.0589872,2.81632078 27.7064041,2.39068599 C26.9760323,2.16283783 26.3031573,1.78068566 25.7333552,1.27011401 L25.7333552,1.27011401 Z" id="Shape" fill="#333333"></path>
                </g>
                <path d="M131.10145,121.050854 L130.967235,120.925425 C130.894451,120.857693 123.586354,114.110234 115.694133,112.675293 C107.699885,111.22195 73.0712532,109.259348 72.7221277,109.239277 L72.6109131,109.218375 C72.5561107,109.199973 67.1345183,107.295907 67.8946446,99.1837566 L67.9280912,98.8300328 L68.282226,98.7974168 C68.282226,98.7974168 70.7264984,98.5741484 74.6910065,98.2287906 C83.6034172,97.4531997 100.629237,96.0257771 114.520916,95.1769822 L114.572765,96.0315571 C100.691121,96.8799067 83.6736328,98.3064901 74.7654264,99.0816529 C71.6914916,99.3492427 69.5315408,99.5440481 68.7178965,99.6176888 C68.2236987,106.411131 72.3015107,108.18642 72.8329313,108.387947 C74.5062025,108.483278 107.963287,110.39905 115.84716,111.832329 C123.483086,113.220448 130.338814,119.200246 131.415031,120.174444 C135.772146,119.911033 144.189126,119.140905 146.03631,118.032869 C148.565868,116.515134 149.736567,112.507974 149.516647,106.122613 C149.416718,103.226786 147.781911,101.00663 144.372235,99.1335011 L144.784486,98.3825798 C148.434582,100.387834 150.26255,102.909866 150.372095,106.092506 C150.607078,112.907698 149.333093,117.053662 146.476989,118.767067 C143.957047,120.278954 131.800942,121.009804 131.284584,121.039911 L131.10145,121.050854 Z" id="Path" fill="#070707"></path>
                <path d="M144.372235,99.1335781 L144.128056,98.9989441 C143.279926,98.4972682 142.384654,98.0799528 141.455086,97.7529859 L141.759471,96.9527254 C142.726253,97.2938764 143.657683,97.7279524 144.540692,98.248862 L144.784452,98.3826569 L144.372235,99.1335781 Z" id="Path" fill="#070707"></path>
                <polygon id="Path" fill="#070707" points="71.8176826 104.088605 67.9917904 99.4980483 68.6502754 98.9500244 72.1995868 103.209198 145.693024 99.0142459 145.741832 99.8688208"></polygon>
                <path d="M136.076111,100.256625 C134.76276,100.21305 133.456544,100.044485 132.175157,99.7532134 C131.833978,99.6863202 131.496121,99.6202577 131.163744,99.5608913 C126.862613,98.7890595 122.544843,97.8194595 118.368772,96.881645 L116.399894,96.4401175 C114.275907,95.965563 112.098394,95.547455 109.992791,95.1431503 C107.461143,94.6568818 104.842942,94.1538986 102.288294,93.5476385 C100.594482,93.1820335 98.9500047,92.6168475 97.3893108,91.8639205 C96.2579068,91.2977947 95.1586821,90.6438736 94.0958667,90.0116938 C93.2190969,89.4898893 92.312631,88.950531 91.4003167,88.4684498 C90.2919783,87.8410046 89.0962835,87.3823153 87.8526665,87.1075093 C87.7732202,87.0928754 87.6816574,87.081581 87.5842375,87.0690449 C87.0900313,87.0067414 86.3428691,86.9126697 86.0748597,86.2779809 C85.9382228,85.6783894 86.0024212,85.05051 86.2575743,84.4909775 C86.3060744,84.3396287 86.3499763,84.2041213 86.3738068,84.0983783 C86.449905,83.7546902 86.5226552,83.4105911 86.5945748,83.0681532 C87.0942099,80.6974787 87.610988,78.2461076 89.4255895,76.2960414 C92.2946575,73.2137407 94.0850004,73.5565896 95.0796553,74.3877963 C95.5590897,74.8276295 95.962313,75.3438814 96.2729347,75.9155672 C96.5236041,76.3731787 96.837326,76.793301 97.2049008,77.1636147 C97.9859335,77.7103712 98.9186927,77.9985795 99.872022,77.9877143 C102.076868,78.2624126 104.255619,78.7165907 106.38658,79.3457262 C108.15219,79.8525575 109.945495,80.257394 111.757608,80.5582292 C112.964271,80.7342562 114.138319,81.0122927 115.273524,81.2811413 C117.152573,81.8059637 119.088992,82.0979018 121.03925,82.1503929 C123.118261,82.1159297 125.191528,81.9213506 127.240646,81.5683829 C128.174451,81.3830717 129.058207,81.0014067 129.833339,80.4486844 C130.664126,79.9135047 130.662868,79.3415047 130.583849,78.2013495 L130.555832,77.8066523 C130.434797,76.7499001 130.447862,75.6820846 130.594716,74.6286101 C130.886086,73.2959431 131.331145,72.0015964 131.920959,70.771549 L132.23371,70.0444582 C133.066669,68.0740147 133.777679,66.0542176 134.362714,63.9965001 C134.694697,62.8253815 134.949742,61.6091023 135.19643,60.4329572 C135.390807,59.505598 135.591958,58.5468643 135.830699,57.607791 C136.398774,55.5325453 137.161152,53.5154515 138.107722,51.583261 C138.172849,51.4447899 138.306903,51.3515825 138.459387,51.3387493 C138.61187,51.325916 138.759617,51.3954065 138.846972,51.5210444 C138.934328,51.6466822 138.948021,51.80938 138.882893,51.947851 C137.959586,53.8307407 137.21542,55.7962987 136.660228,57.8185576 C136.426084,58.7400684 136.227066,59.6900166 136.034282,60.6085989 C135.784674,61.7989583 135.526281,63.0302825 135.18636,64.2298384 C134.591934,66.3214975 133.869185,68.3745407 133.022222,70.3772971 L132.706552,71.1123342 C132.144631,72.2821628 131.718858,73.5126305 131.437594,74.7795735 C131.303633,75.7627343 131.29422,76.7588662 131.409576,77.7443831 L131.438424,78.1420002 C131.516192,79.2700647 131.589782,80.3349523 130.297404,81.1686936 C129.42373,81.7824634 128.431132,82.2063381 127.383604,82.4129906 C125.290358,82.7730177 123.172522,82.9715083 121.048832,83.006706 C119.029439,82.9490015 117.024242,82.6494476 115.07615,82.1144545 C113.958961,81.8497932 112.803726,81.576355 111.633875,81.4053458 C109.788989,81.1002471 107.963269,80.6888292 106.165837,80.1731482 C104.079612,79.5568695 101.946804,79.1109549 99.7884227,78.8397974 C98.6504735,78.8422683 97.5422452,78.4766246 96.6291931,77.7974558 C96.2004992,77.3739855 95.8348244,76.8911601 95.5433607,76.3637566 C95.2792476,75.872497 94.9374199,75.4271867 94.5311176,75.045074 C93.2416686,73.970536 91.3844326,75.4485566 90.0527344,76.8797383 C88.3999541,78.6554472 87.9299978,80.8843891 87.4324435,83.2446169 C87.359659,83.5903944 87.2865235,83.937422 87.2095947,84.2844496 C87.1815769,84.4103238 87.1309875,84.5716912 87.0737104,84.7510577 C86.9137745,85.127784 86.8418471,85.5360198 86.8633977,85.9447224 C86.9394959,86.1245427 87.3918897,86.1817856 87.6912563,86.2194194 C87.8074888,86.2340533 87.9161945,86.2482677 88.0111054,86.2662498 C89.3392341,86.5557097 90.6164191,87.0427927 91.8000146,87.7112348 C92.7315611,88.2033432 93.6476345,88.7485585 94.534029,89.2757918 C95.5834863,89.9004535 96.6688905,90.5460086 97.7722854,91.0979115 C99.2741797,91.8207477 100.856276,92.3634599 102.485625,92.7147448 C105.022291,93.3163981 107.631296,93.8177116 110.154587,94.3023017 C112.266457,94.7078651 114.449819,95.1272319 116.586359,95.6047149 L118.556488,96.0462338 C122.723362,96.9819676 127.032397,97.9494696 131.315085,98.7179533 C131.651666,98.7781589 131.993675,98.8450607 132.339033,98.9119538 C134.791243,99.3894368 137.327909,99.8828039 139.392949,98.4905063 C139.519616,98.4043989 139.682645,98.3925572 139.820425,98.4594563 C139.958205,98.5263555 140.049723,98.6617924 140.060392,98.8145832 C140.071062,98.9673741 139.999256,99.114216 139.87211,99.199615 C138.74434,99.931179 137.419676,100.300036 136.076111,100.256625 L136.076111,100.256625 Z" id="Path" fill="#333333"></path>
            </g>
        </g>
    </g>
</svg>