<?xml version="1.0" encoding="UTF-8"?>
<svg width="103px" height="28px" viewBox="0 0 103 28" version="1.1" xmlns="http://www.w3.org/2000/svg" xmlns:xlink="http://www.w3.org/1999/xlink">
    <title>accorhotels</title>
    <g id="ALP" stroke="none" stroke-width="1" fill="none" fill-rule="evenodd">
        <g id="01_Currents_flight_campaigns-ALP_1280_uncheck_age" transform="translate(-1179.000000, -1393.000000)" fill="#B7B7B7">
            <g id="Combined-Shape" transform="translate(1179.000000, 1393.000000)">
                <path d="M54.310748,24 L54.310748,27.3284421 C54.310748,27.6424964 54.4996252,27.6687947 54.7377904,27.5902811 L54.7377904,27.5902811 L54.7870784,27.9470224 C54.6971369,27.9729395 54.5978414,28 54.4827162,28 C54.2200869,28 53.9157248,27.9039543 53.9157248,27.3112911 L53.9157248,27.3112911 L53.9157248,24 L54.310748,24 Z M42.6395743,24 L42.6395743,27.3284421 C42.6395743,27.6424964 42.8288113,27.6687947 43.0673362,27.5902811 L43.0673362,27.5902811 L43.1166242,27.9470224 C43.0259631,27.9729395 42.9273872,28 42.812262,28 C42.5489132,28 42.244551,27.9039543 42.244551,27.3112911 L42.244551,27.3112911 L42.244551,24 L42.6395743,24 Z M51.8513866,25.0808957 C52.6241643,25.0808957 53.0767501,25.7429252 53.0767501,26.5616008 C53.0767501,26.5882801 53.0767501,26.6317294 53.0684755,26.6927108 L53.0684755,26.6927108 L50.9875881,26.6927108 C51.0451507,27.285374 51.4484485,27.6337303 51.9172238,27.6337303 C52.2708739,27.6337303 52.5335032,27.4767032 52.7392895,27.2411625 L52.7392895,27.2411625 L52.9778144,27.4683182 C52.7234598,27.7816103 52.4021886,27.9908528 51.9003148,27.9908528 C51.1850997,27.9908528 50.5929246,27.4073368 50.5929246,26.5356837 C50.5929246,25.733778 51.1275371,25.0808957 51.8513866,25.0808957 Z M37.0383751,25.0808957 C37.8115125,25.0808957 38.2637386,25.7429252 38.2637386,26.5616008 C38.2637386,26.5882801 38.2637386,26.6317294 38.2558237,26.6927108 L38.2558237,26.6927108 L36.1745765,26.6927108 C36.2324989,27.285374 36.635437,27.6337303 37.1042123,27.6337303 C37.4578624,27.6337303 37.7212112,27.4767032 37.9266377,27.2411625 L37.9266377,27.2411625 L38.1651626,27.4683182 C37.9104482,27.7816103 37.5895368,27.9908528 37.087663,27.9908528 C36.3720881,27.9908528 35.7799131,27.4073368 35.7799131,26.5356837 C35.7799131,25.733778 36.3148853,25.0808957 37.0383751,25.0808957 Z M40.1719382,25.0808957 C40.9450757,25.0808957 41.3976615,25.7429252 41.3976615,26.5616008 C41.3976615,26.5882801 41.3976615,26.6317294 41.3893869,26.6927108 L41.3893869,26.6927108 L39.3084995,26.6927108 C39.3660621,27.285374 39.7690001,27.6337303 40.2377754,27.6337303 C40.5914256,27.6337303 40.8547744,27.4767032 41.0605606,27.2411625 L41.0605606,27.2411625 L41.2987258,27.4683182 C41.0440114,27.7816103 40.7231,27.9908528 40.221586,27.9908528 C39.5060111,27.9908528 38.9134762,27.4073368 38.9134762,26.5356837 C38.9134762,25.733778 39.4484485,25.0808957 40.1719382,25.0808957 Z M67.7742767,25.0808957 C68.5474142,25.0808957 69,25.7429252 69,26.5616008 C69,26.5882801 69,26.6317294 68.9913656,26.6927108 L68.9913656,26.6927108 L66.910838,26.6927108 C66.9684005,27.285374 67.3709789,27.6337303 67.8404737,27.6337303 C68.1937641,27.6337303 68.4567531,27.4767032 68.6625393,27.2411625 L68.6625393,27.2411625 L68.9014241,27.4683182 C68.6463499,27.7816103 68.3254385,27.9908528 67.8235647,27.9908528 C67.1083496,27.9908528 66.5158147,27.4073368 66.5158147,26.5356837 C66.5158147,25.733778 67.050787,25.0808957 67.7742767,25.0808957 Z M59.5082896,25.0808957 C60.3066107,25.0808957 60.8818768,25.7429252 60.8818768,26.5356837 C60.8818768,27.3200572 60.2979763,27.9908528 59.4996552,27.9908528 C58.7193224,27.9908528 58.135422,27.3372082 58.135422,26.5444497 C58.135422,25.7516913 58.7193224,25.0808957 59.5082896,25.0808957 Z M56.5394993,25.0808957 C57.0327387,25.0808957 57.3453755,25.3072892 57.5921751,25.5775131 L57.5921751,25.5775131 L57.3284665,25.8736541 C57.1233998,25.6384945 56.8852346,25.446403 56.5312247,25.446403 C55.9962524,25.446403 55.5853995,25.9258695 55.5853995,26.5356837 C55.5853995,27.145879 56.0048868,27.6245831 56.5556888,27.6245831 C56.8927897,27.6245831 57.1564983,27.4424011 57.361565,27.2072415 L57.361565,27.2072415 L57.6083646,27.450405 C57.3453755,27.7648404 57.0327387,27.9908528 56.5394993,27.9908528 C55.7660021,27.9908528 55.1903763,27.3284421 55.1903763,26.5444497 C55.1903763,25.7516913 55.7660021,25.0808957 56.5394993,25.0808957 Z M47.8867636,24.1482611 L48.8491381,27.2941401 L49.8690751,24.1574083 L50.2964773,24.1574083 L49.0218258,27.9557885 L48.6847249,27.9557885 L47.7058012,24.8979514 L46.7272373,27.9557885 L46.3901364,27.9557885 L45.1233998,24.1574083 L45.5590766,24.1574083 L46.5790136,27.2941401 L47.5496627,24.1482611 L47.8867636,24.1482611 Z M64.7310148,25.0808957 C65.3311048,25.0808957 65.6930295,25.5165317 65.6930295,26.2044783 L65.6930295,26.2044783 L65.6930295,27.9298714 L65.3066407,27.9298714 L65.3066407,26.3092901 C65.3066407,25.7688423 65.0602009,25.4555503 64.6327987,25.4555503 C64.2377754,25.4555503 63.9006746,25.7779895 63.9006746,26.3264412 L63.9006746,26.3264412 L63.9006746,27.9298714 L63.5142857,27.9298714 L63.5142857,26.2921391 C63.5142857,25.7688423 63.2592115,25.4555503 62.8397242,25.4555503 C62.4202368,25.4555503 62.1076001,25.8298237 62.1076001,26.3443545 L62.1076001,26.3443545 L62.1076001,27.9298714 L61.7125768,27.9298714 L61.7125768,25.141496 L62.1076001,25.141496 L62.1076001,25.6125774 C62.2802878,25.3423535 62.518453,25.0808957 62.9624044,25.0808957 C63.3818918,25.0808957 63.653875,25.3335874 63.8017389,25.6384945 C63.9827012,25.3335874 64.2701544,25.0808957 64.7310148,25.0808957 Z M35.3111378,24.1574083 L35.3111378,24.5488328 L33.4029381,24.5488328 L33.4029381,25.8908051 L35.0808874,25.8908051 L35.0808874,26.2921391 L33.4029381,26.2921391 L33.4029381,27.9298714 L33,27.9298714 L33,24.1574083 L35.3111378,24.1574083 Z M59.4996552,25.446403 C58.9412982,25.446403 58.5462749,25.9258695 58.5462749,26.5356837 C58.5462749,27.1371129 58.9657623,27.6245831 59.5082896,27.6245831 C60.0839155,27.6245831 60.4785789,27.145879 60.4785789,26.5444497 C60.4785789,25.9350167 60.0590916,25.446403 59.4996552,25.446403 Z M37.0301004,25.429252 C36.5695998,25.429252 36.2242243,25.847737 36.1745765,26.3794188 L36.1745765,26.3794188 L37.8690751,26.3794188 C37.8280618,25.8736541 37.5564383,25.429252 37.0301004,25.429252 Z M67.7660021,25.429252 C67.3058612,25.429252 66.9684005,25.847737 66.910838,26.3794188 L66.910838,26.3794188 L68.6049768,26.3794188 C68.5636037,25.8736541 68.29234,25.429252 67.7660021,25.429252 Z M40.1636636,25.429252 C39.7031629,25.429252 39.3660621,25.847737 39.3084995,26.3794188 L39.3084995,26.3794188 L41.0026383,26.3794188 C40.9616249,25.8736541 40.6903613,25.429252 40.1636636,25.429252 Z M51.8427522,25.429252 C51.3822515,25.429252 51.0451507,25.847737 50.9875881,26.3794188 L50.9875881,26.3794188 L52.6817269,26.3794188 C52.6403538,25.8736541 52.3690901,25.429252 51.8427522,25.429252 Z M32.9214873,12 C35.5820762,12 37.4913337,14.0014604 37.4913337,16.4749909 L37.4913337,16.4749909 L37.4913337,16.4998175 C37.4913337,18.9744432 35.5571162,21 32.896889,21 C30.2363001,21 28.3270427,18.9985396 28.3270427,16.5250091 L28.3270427,16.5250091 L28.3270427,16.4998175 C28.3270427,14.0259219 30.2608983,12 32.9214873,12 Z M65.8145066,12 C68.4849809,12 70.4013322,14.0014604 70.4013322,16.4749909 L70.4013322,16.4749909 L70.4013322,16.4998175 C70.4013322,18.9744432 68.4602913,21 65.7905431,21 C63.1197056,21 61.2037174,18.9985396 61.2037174,16.5250091 L61.2037174,16.5250091 L61.2037174,16.4998175 C61.2037174,14.0259219 63.1443953,12 65.8145066,12 Z M23.6099686,12 C25.2356228,12 26.2087002,12.5465498 27.0095899,13.3424608 L27.0095899,13.3424608 L25.8024675,14.747353 C25.1372299,14.1380066 24.4596931,13.7652428 23.5976695,13.7652428 C22.1438412,13.7652428 21.0969691,14.9832055 21.0969691,16.4749909 L21.0969691,16.4749909 L21.0969691,16.4998175 C21.0969691,17.9916028 22.119243,19.2343921 23.5976695,19.2343921 C24.583046,19.2343921 25.1864263,18.8375319 25.8639631,18.2157722 L25.8639631,18.2157722 L27.0710855,19.4465133 C26.184102,20.4034319 25.1987254,21 23.5361739,21 C20.9985761,21 19.1139169,19.0233662 19.1139169,16.5250091 L19.1139169,16.5250091 L19.1139169,16.4998175 C19.1139169,14.0259219 20.9616788,12 23.6099686,12 Z M14.3968429,12 C16.0224971,12 16.9955745,12.5465498 17.7964642,13.3424608 L17.7964642,13.3424608 L16.5893418,14.747353 C15.9241041,14.1380066 15.2465673,13.7652428 14.3845437,13.7652428 C12.9310772,13.7652428 11.8842051,14.9832055 11.8842051,16.4749909 L11.8842051,16.4749909 L11.8842051,16.4998175 C11.8842051,17.9916028 12.906479,19.2343921 14.3845437,19.2343921 C15.3699203,19.2343921 15.9733006,18.8375319 16.6508374,18.2157722 L16.6508374,18.2157722 L17.8579598,19.4465133 C16.971338,20.4034319 15.9855997,21 14.3230481,21 C11.7858121,21 9.90115295,19.0233662 9.90115295,16.5250091 L9.90115295,16.5250091 L9.90115295,16.4998175 C9.90115295,14.0259219 11.748553,12 14.3968429,12 Z M99.5260233,12.0244615 C100.787373,12.0244615 101.862461,12.4224169 102.740396,13.1310697 L102.740396,13.1310697 L101.750995,14.5728368 C100.985253,14.0387003 100.230767,13.7152245 99.5016967,13.7152245 C98.7719002,13.7152245 98.3884847,14.0511135 98.3884847,14.4738956 L98.3884847,14.4738956 L98.3884847,14.4983571 C98.3884847,15.0700986 98.7599184,15.2570281 100.255457,15.6422052 C102.011325,16.101862 103,16.736035 103,18.252647 L103,18.252647 L103,18.2774735 C103,20.0054765 101.689634,20.9751734 99.823025,20.9751734 C98.512659,20.9751734 97.189222,20.5151515 96.1511681,19.5834246 L96.1511681,19.5834246 L97.2763619,18.2278204 C98.0551746,18.8744067 98.8713849,19.2844104 99.8600595,19.2844104 C100.639235,19.2844104 101.108701,18.9744432 101.108701,18.4636729 L101.108701,18.4636729 L101.108701,18.4395765 C101.108701,17.954728 100.812426,17.705732 99.3655406,17.3326031 C97.6223799,16.8849945 96.4971861,16.4008762 96.4971861,14.6725082 L96.4971861,14.6725082 L96.4971861,14.6476816 C96.4971861,13.0690033 97.7585359,12.0244615 99.5260233,12.0244615 Z M5.44416908,12.0865279 L9.13969275,20.8510405 L7.15627886,20.8510405 L6.36805,18.8995984 L2.72208454,18.8995984 L1.93385567,20.8510405 L0,20.8510405 L3.69516194,12.0865279 L5.44416908,12.0865279 Z M43.4896866,12.1489595 C45.5219352,12.1489595 46.7413568,13.230376 46.7413568,15.0200803 L46.7413568,15.0200803 L46.7413568,15.045272 C46.7413568,16.4501643 45.9900252,17.3326031 44.8939567,17.7429719 L44.8939567,17.7429719 L47,20.8510405 L44.7829028,20.8510405 L42.9355027,18.0664476 L41.4447771,18.0664476 L41.4447771,20.8510405 L39.5481805,20.8510405 L39.5481805,12.1489595 Z M52.9036434,12.1489595 L52.9036434,15.5929171 L57.2344957,15.5929171 L57.2344957,12.1489595 L59.1385021,12.1489595 L59.1385021,20.8510405 L57.2344957,20.8510405 L57.2344957,17.3577948 L52.9036434,17.3577948 L52.9036434,20.8510405 L51,20.8510405 L51,12.1489595 L52.9036434,12.1489595 Z M78.6473069,12.1489595 L78.6473069,13.9142023 L76.0142301,13.9142023 L76.0142301,20.8510405 L74.1102236,20.8510405 L74.1102236,13.9142023 L71.4764206,13.9142023 L71.4764206,12.1489595 L78.6473069,12.1489595 Z M87.0043849,12.1489595 L87.0043849,13.8521358 L82.36818,13.8521358 L82.36818,15.6170135 L86.4485051,15.6170135 L86.4485051,17.3205549 L82.36818,17.3205549 L82.36818,19.1474991 L87.066109,19.1474991 L87.066109,20.8510405 L80.4768814,20.8510405 L80.4768814,12.1489595 L87.0043849,12.1489595 Z M91.0346046,12.1489595 L91.0346046,19.1106243 L94.9399238,19.1106243 L94.9399238,20.8510405 L89.1313243,20.8510405 L89.1313243,12.1489595 L91.0346046,12.1489595 Z M32.896889,13.7652428 C31.3692661,13.7652428 30.3100948,14.9832055 30.3100948,16.4749909 L30.3100948,16.4749909 L30.3100948,16.4998175 C30.3100948,17.9916028 31.394226,19.2343921 32.9214873,19.2343921 C34.4487485,19.2343921 35.5082815,18.0167945 35.5082815,16.5250091 L35.5082815,16.5250091 L35.5082815,16.4998175 C35.5082815,15.0080321 34.4241503,13.7652428 32.896889,13.7652428 Z M65.7905431,13.7652428 C64.2572442,13.7652428 63.1934114,14.9832055 63.1934114,16.4749909 L63.1934114,16.4749909 L63.1934114,16.4998175 C63.1934114,17.9916028 64.2819338,19.2343921 65.8145066,19.2343921 C67.3478054,19.2343921 68.410549,18.0167945 68.410549,16.5250091 L68.410549,16.5250091 L68.410549,16.4998175 C68.410549,15.0080321 67.3227527,13.7652428 65.7905431,13.7652428 Z M4.5448864,14.3866375 L3.39962133,17.2088353 L5.69051321,17.2088353 L4.5448864,14.3866375 Z M43.3294363,13.8769624 L41.4447771,13.8769624 L41.4447771,16.3756846 L43.3663337,16.3756846 C44.2902146,16.3756846 44.8198002,15.8780577 44.8198002,15.1449434 L44.8198002,15.1449434 L44.8198002,15.1201168 C44.8198002,14.2993793 44.2533172,13.8769624 43.3294363,13.8769624 L43.3294363,13.8769624 Z M45.4344771,0 C45.6656798,0 46.1927793,0.50116384 48.2184538,0.853087744 C48.7918646,0.949892027 49.5130471,1.06383874 50.5212886,1.18719697 C52.2690956,1.39828409 53.6842396,2.37439394 54.3036081,3.47352591 C54.4701164,3.50007986 54.6274332,3.51755841 54.7939415,3.51755841 C56.3289291,3.51755841 58.040677,2.36565467 59.0853311,2.36565467 C59.5293533,2.36565467 59.9733755,2.57674178 60.0568064,2.90177561 C60.9536888,3.12193813 61,3.13941668 61,3.20092773 C61,3.4294934 57.7815462,3.19218846 55.2379637,4.55517932 C54.9407537,4.71427895 54.6802184,4.87787551 54.4256573,5.04157278 L54.1210866,5.23777649 C53.4079434,5.69438497 52.6453597,6.13799657 51.1593937,6.4721058 C49.4854725,6.85024753 47.7189288,6.99982359 45.9431936,6.99982359 L45.9431936,6.99982359 L45.5669083,6.99927811 C45.2494396,6.99609009 45,6.97977826 45,6.90301931 C45,6.8149543 45.619722,6.8240297 47.1175899,6.2173223 C48.4033452,5.69834379 49.0782165,5.34641988 49.0782165,5.05634316 C49.0782165,4.52862537 47.8854372,3.42075413 47.1639011,2.65573139 C46.0633907,1.4863491 45.3697828,0.448392061 45.3697828,0.0793257319 C45.3697828,0.0440325037 45.3881659,0 45.4344771,0 Z"></path>
            </g>
        </g>
    </g>
</svg>