<?xml version="1.0" encoding="UTF-8"?>
<svg width="39px" height="12px" viewBox="0 0 39 12" version="1.1" xmlns="http://www.w3.org/2000/svg" xmlns:xlink="http://www.w3.org/1999/xlink">
    <title>Avis</title>
    <g id="ALP" stroke="none" stroke-width="1" fill="none" fill-rule="evenodd" opacity="0.707682292">
        <g id="01_Currents_flight_campaigns-ALP_1280_uncheck_age" transform="translate(-741.000000, -1463.000000)" fill="#9F9F9F">
            <g id="Fill-1-Copy" transform="translate(741.296774, 1463.038000)">
                <path d="M34.0018581,3.10985901 C33.2877781,2.46535001 32.6351391,2.25234597 31.9365331,2.25234597 C31.2379271,2.25234597 30.3641008,2.4928344 30.3641008,3.38790945 C30.3641008,4.13731722 31.0317587,4.392464 32.0958244,4.72868973 C33.6200142,5.22478302 35.5883991,5.86471129 35.5883991,8.11751533 C35.5883991,10.7221196 33.5085103,11.8888321 31.2861696,11.8888321 C29.6823342,11.8888321 28.0621144,11.2974595 27.0786047,10.2580914 L28.7434259,8.53940075 C29.4065327,9.25765954 30.395959,9.63511187 31.2861696,9.63511187 C32.1103881,9.63511187 32.8422177,9.31491869 32.8422177,8.40472723 C32.8422177,7.5417173 31.9834102,7.25358926 30.5074629,6.77215431 C29.0797581,6.3090423 27.6352139,5.59169966 27.6352139,3.54731893 C27.6352139,1.03845196 29.8885026,9.09494702e-13 31.9834102,9.09494702e-13 C33.2545545,9.09494702e-13 34.6831696,0.480060722 35.6675896,1.38933604 L34.0018581,3.10985901 Z M7.43207527,7.19083323 L4.60670336,7.19083323 L6.03486332,3.30728857 L7.43207527,7.19083323 Z M12.0669959,11.6002459 L7.46939493,0.286753829 L4.7655395,0.286753829 L0,11.6002459 L3.00286789,11.6002459 L3.8270864,9.37950702 L8.17937885,9.37950702 L9.05229498,11.6002459 L12.0669959,11.6002459 Z M21.7132198,0.286753829 L18.7130826,0.286753829 L16.1093531,8.46198638 L13.4587465,0.286753829 L10.4103668,0.286753829 L14.6648089,11.6002459 L17.3800423,11.6002459 L21.7132198,0.286753829 Z M22.8000413,11.6002459 L25.5302936,11.6002459 L25.5302936,0.286753829 L22.8000413,0.286753829 L22.8000413,11.6002459 Z M36.7789875,1.24962371 C36.7789875,1.78511129 37.2095291,2.20379021 37.7374658,2.20379021 C38.2726845,2.20379021 38.703226,1.78511129 38.703226,1.24962371 C38.703226,0.714136132 38.2726845,0.286753829 37.7374658,0.286753829 C37.2095291,0.286753829 36.7789875,0.714136132 36.7789875,1.24962371 Z M36.931452,1.24962371 C36.931452,0.798879676 37.2932708,0.434711475 37.7374658,0.434711475 C38.1875774,0.434711475 38.5516717,0.798879676 38.5516717,1.24962371 C38.5516717,1.69532894 38.1875774,2.0654521 37.7374658,2.0654521 C37.2932708,2.0654521 36.931452,1.69532894 36.931452,1.24962371 Z M37.3651794,1.78923395 L37.5595147,1.78923395 L37.5595147,1.33482533 L37.7019666,1.33482533 L37.9518264,1.78923395 L38.1875774,1.78923395 L37.896302,1.31283782 C38.0483113,1.2789404 38.1461617,1.17679007 38.1461617,1.01967096 C38.1461617,0.786511699 37.9463649,0.700852009 37.7401965,0.700852009 L37.3651794,0.700852009 L37.3651794,1.78923395 Z M37.5595147,1.17679007 L37.5595147,0.867590657 L37.7361005,0.867590657 C37.8375918,0.867590657 37.9518264,0.896449269 37.9518264,1.0155483 C37.9518264,1.14701531 37.8248485,1.17679007 37.7119792,1.17679007 L37.5595147,1.17679007 L37.5595147,1.17679007 Z"></path>
            </g>
        </g>
    </g>
</svg>