<?xml version="1.0" encoding="UTF-8"?>
<svg width="57px" height="19px" viewBox="0 0 57 19" version="1.1" xmlns="http://www.w3.org/2000/svg" xmlns:xlink="http://www.w3.org/1999/xlink">
    <title>barcelo</title>
    <defs>
        <filter color-interpolation-filters="auto" id="filter-1">
            <feColorMatrix in="SourceGraphic" type="matrix" values="0 0 0 0 0.717647 0 0 0 0 0.717647 0 0 0 0 0.717647 0 0 0 1.000000 0"></feColorMatrix>
        </filter>
    </defs>
    <g id="ALP" stroke="none" stroke-width="1" fill="none" fill-rule="evenodd">
        <g id="01_Currents_flight_campaigns-ALP_1280_uncheck_age" transform="translate(-1215.000000, -1366.000000)">
            <g id="barcelo" transform="translate(1215.000000, 1366.000000)" filter="url(#filter-1)">
                <g>
                    <path d="M2.8930814,2.68098837 L2.8930814,4.74690698 L5.0657093,4.74690698 C5.32419767,4.7522093 5.57539535,4.67797674 5.81930233,4.52222093 C6.06387209,4.3677907 6.19444186,4.10068605 6.21101163,3.72156977 C6.20040698,3.33516279 6.08375581,3.0634186 5.85906977,2.907 C5.63504651,2.7505814 5.37059302,2.67502326 5.0657093,2.68098837 L2.8930814,2.68098837 Z M0.0888139535,11.2767209 L0.0888139535,0.509686047 L5.12536047,0.509686047 C5.75766279,0.491790698 6.36875581,0.554093023 6.95863953,0.696593023 C7.54918605,0.838430233 8.03567442,1.10752326 8.42009302,1.5032093 C8.80384884,1.89889535 9.00334884,2.46756977 9.01660465,3.20923256 C9.01063953,3.69439535 8.88006977,4.12454651 8.62489535,4.49836047 C8.36905814,4.87084884 8.02705814,5.16512791 7.59889535,5.38053488 C8.17817442,5.55484884 8.63086047,5.86901163 8.95695349,6.32037209 C9.28238372,6.77305814 9.4480814,7.30859302 9.4547093,7.92896512 C9.44476744,8.77733721 9.25388372,9.44609302 8.88006977,9.93589535 C8.50625581,10.4270233 8.00386047,10.7736628 7.3742093,10.9791279 C6.74389535,11.1832674 6.03934884,11.282686 5.26189535,11.2767209 L0.0888139535,11.2767209 Z M2.8930814,6.55566279 L2.8930814,9.02919767 L5.14126744,9.02919767 C5.59262791,9.03516279 5.95517442,8.94502326 6.22824419,8.76010465 C6.50197674,8.57452326 6.64248837,8.26234884 6.64911628,7.8235814 C6.63851163,7.35498837 6.49269767,7.0249186 6.21101163,6.83337209 C5.92932558,6.64182558 5.57274419,6.54969767 5.14126744,6.55566279 L2.8930814,6.55566279 L2.8930814,6.55566279 Z" id="Fill-1" fill="#233C65"></path>
                    <path d="M13.1736279,5.86172093 L10.776314,5.86172093 C10.8034884,5.35004651 10.9247791,4.92453488 11.1435,4.5812093 C11.3608953,4.23854651 11.6458953,3.96613953 11.9971744,3.76531395 C12.3484535,3.57111628 12.7395,3.43193023 13.1676628,3.34643023 C13.5964884,3.26159302 14.0359186,3.21983721 14.4859535,3.22182558 C15.1142791,3.21387209 15.7048256,3.27617442 16.2562674,3.41005814 C16.8070465,3.54394186 17.2557558,3.80110465 17.6010698,4.18088372 C17.9463837,4.56066279 18.1246744,5.1160814 18.1346163,5.84581395 L18.1346163,9.2697907 C18.129314,9.6045 18.141907,9.94451163 18.1723953,10.2891628 C18.2042093,10.6344767 18.2923605,10.9625581 18.4375116,11.2753953 L15.8579302,11.2753953 C15.7777326,11.0367907 15.7273605,10.7895698 15.706814,10.5363837 C15.3674651,10.8803721 14.9717791,11.127593 14.519093,11.2787093 C14.0670698,11.4304884 13.6031163,11.5040581 13.1285581,11.5007442 C12.3643605,11.5033953 11.7320581,11.311186 11.2336395,10.9227907 C10.7352209,10.5350581 10.4773953,9.93854651 10.4588372,9.1339186 C10.4687791,8.50559302 10.6232093,8.02175581 10.9201395,7.68572093 C11.2183953,7.34769767 11.6014884,7.10577907 12.0687558,6.95665116 C12.536686,6.80818605 13.0304651,6.70081395 13.5507558,6.63784884 C14.0717093,6.57422093 14.5581977,6.50065116 15.0135349,6.4197907 C15.2335814,6.37936047 15.4006047,6.30777907 15.5172558,6.20372093 C15.6325814,6.10032558 15.690907,5.93131395 15.6922326,5.69536047 C15.6736744,5.40373256 15.5338256,5.1942907 15.2720233,5.06836047 C15.0095581,4.94044186 14.737814,4.87813953 14.4554651,4.8807907 C13.7343488,4.87615116 13.3068488,5.20290698 13.1736279,5.86172093 M13.0231744,9.02853488 C13.0317907,9.34269767 13.1385,9.57003488 13.3433023,9.70988372 C13.5481047,9.85172093 13.7979767,9.92065116 14.0942442,9.918 C14.6967209,9.92263953 15.1189186,9.7397093 15.358186,9.36987209 C15.5981163,8.99937209 15.6995233,8.41280233 15.6617442,7.61082558 C15.472186,7.71819767 15.2335814,7.79773256 14.9439419,7.85009302 C14.6543023,7.90245349 14.3653256,7.96409302 14.0783372,8.03302326 C13.7833953,8.09532558 13.5361744,8.2007093 13.3353488,8.34917442 C13.1345233,8.49830233 13.0304651,8.72497674 13.0231744,9.02853488" id="Fill-2" fill="#233C65"></path>
                    <path d="M19.896314,11.2846744 L19.896314,3.45777907 L22.3837674,3.45777907 L22.3837674,4.82975581 L22.4142558,4.82975581 C22.6077907,4.33133721 22.9093605,3.95288372 23.3196279,3.69505814 C23.7285698,3.43789535 24.2104186,3.30798837 24.7665,3.30666279 C24.9679884,3.30401163 25.1694767,3.32389535 25.3703023,3.36697674 L25.3703023,5.70463953 C25.0515,5.60919767 24.7247442,5.55882558 24.3900349,5.55352326 C23.7550814,5.57009302 23.2745581,5.75567442 22.9491279,6.1135814 C22.6243605,6.47016279 22.461314,6.90230233 22.4593256,7.40933721 L22.4593256,11.2846744 L19.896314,11.2846744" id="Fill-3" fill="#233C65"></path>
                    <path d="M33.5557674,6.32633721 L31.0669884,6.32633721 C31.049093,5.98963953 30.919186,5.71789535 30.678593,5.51176744 C30.4386628,5.30696512 30.1503488,5.2015814 29.8156395,5.19561628 C29.3437326,5.20356977 28.987814,5.3222093 28.7485465,5.55286047 C28.5092791,5.78218605 28.3488837,6.07182558 28.268686,6.42177907 C28.1878256,6.77239535 28.1513721,7.13295349 28.1560116,7.5027907 C28.1553488,7.84677907 28.2070465,8.17353488 28.3097791,8.48372093 C28.4131744,8.79324419 28.5782093,9.0484186 28.8022326,9.24659302 C29.0262558,9.44410465 29.3185465,9.54683721 29.6797674,9.55346512 C30.1225116,9.54948837 30.4625233,9.42886047 30.6991395,9.19356977 C30.9370814,8.95827907 31.0835581,8.62953488 31.1418837,8.21197674 L33.6313256,8.21197674 C33.4987674,9.26581395 33.0739186,10.0783953 32.3587674,10.6490581 C31.6429535,11.2197209 30.7554767,11.5073721 29.6943488,11.5146628 C28.9036395,11.5100233 28.2010814,11.3403488 27.5853488,11.0063023 C26.9709419,10.6742442 26.4871047,10.2083023 26.1338372,9.60847674 C25.7805698,9.00997674 25.5996279,8.3074186 25.5923372,7.5027907 C25.5969767,6.66701163 25.7653256,5.92932558 26.0960581,5.28973256 C26.4287791,4.65146512 26.9000233,4.15172093 27.5117791,3.78917442 C28.1241977,3.42662791 28.8506163,3.2417093 29.6943488,3.2350814 C30.3511744,3.2350814 30.9602791,3.34974419 31.5196744,3.57774419 C32.0803953,3.80574419 32.5430233,4.14973256 32.9075581,4.60705814 C33.2714302,5.06438372 33.4875,5.63836047 33.5557674,6.32633721" id="Fill-4" fill="#233C65"></path>
                    <path d="M42.8421279,7.99988372 L37.0950698,7.99988372 C37.1209186,8.54337209 37.2819767,8.97352326 37.5802326,9.29232558 C37.8784884,9.61046512 38.3000233,9.77284884 38.8455,9.78013953 C39.1616512,9.78013953 39.4519535,9.70855814 39.7177326,9.56539535 C39.9835116,9.42223256 40.1796977,9.20815116 40.3076163,8.92116279 L42.7062558,8.92116279 C42.5432093,9.52231395 42.2674884,10.0147674 41.8784302,10.3978605 C41.4893721,10.7802907 41.0280698,11.0626395 40.4971744,11.244907 C39.9656163,11.425186 39.4048953,11.5159884 38.8150116,11.5146771 C37.5205814,11.5053837 36.4892791,11.140186 35.7184535,10.4170814 C34.9463023,9.69530233 34.5512791,8.67394186 34.5320581,7.35233721 C34.5413372,6.54638372 34.7355349,5.8352093 35.1133256,5.21881395 C35.4924419,4.6030814 35.9994767,4.11990698 36.6337674,3.77061628 C37.2693837,3.42 37.9765814,3.2417093 38.7546977,3.2350814 C39.6912209,3.24502326 40.4680116,3.46043023 41.0877209,3.88063953 C41.7074302,4.30151163 42.164093,4.86952326 42.4590349,5.58533721 C42.7539767,6.30115116 42.8812326,7.10644186 42.8421279,7.99988372 M37.0950698,6.56759302 L40.2777907,6.56759302 C40.2486279,6.11822093 40.0968488,5.7430814 39.8211279,5.44018605 C39.5467326,5.13795349 39.1914767,4.98153488 38.7546977,4.96960465 C38.2993605,4.97689535 37.9281977,5.12403488 37.6425349,5.41234884 C37.3562093,5.7 37.1746047,6.08574419 37.0950698,6.56759302" id="Fill-5" fill="#233C65"></path>
                    <polygon id="Fill-6" fill="#233C65" points="44.1942209 11.2886512 46.7572326 11.2886512 46.7572326 0.520290698 44.1942209 0.520290698"></polygon>
                    <path d="M48.2027791,7.38216279 C48.2087442,6.59012791 48.3843837,5.88359302 48.7303605,5.26189535 C49.077,4.63953488 49.5575233,4.14840698 50.1732558,3.78784884 C50.7896512,3.4272907 51.5048023,3.24303488 52.3206977,3.2350814 C53.1359302,3.24303488 53.8517442,3.4272907 54.4707907,3.78784884 C55.0885116,4.14840698 55.5723488,4.63953488 55.920314,5.26189535 C56.2682791,5.88359302 56.445907,6.59012791 56.4525349,7.38216279 C56.445907,8.17353488 56.2682791,8.88006977 55.920314,9.49911628 C55.5723488,10.1188256 55.0885116,10.6079651 54.4707907,10.9652093 C53.8517442,11.3244419 53.1359302,11.5067093 52.3206977,11.514 C51.5048023,11.5067093 50.7896512,11.3244419 50.1732558,10.9652093 C49.5575233,10.6079651 49.077,10.1188256 48.7303605,9.49911628 C48.3843837,8.88006977 48.2087442,8.17353488 48.2027791,7.38216279 M50.7671163,7.38216279 C50.7644651,7.72283721 50.8101977,8.05754651 50.9056395,8.38761628 C50.999093,8.71702326 51.160814,8.99274419 51.3874884,9.21212791 C51.6154884,9.43283721 51.9256744,9.54617442 52.3206977,9.55412791 C52.7137326,9.54617442 53.0265698,9.43283721 53.2565581,9.21212791 C53.4858837,8.99274419 53.6489302,8.71702326 53.7463605,8.38761628 C53.8431279,8.05754651 53.8921744,7.72283721 53.8888605,7.38216279 C53.8921744,7.04215116 53.8431279,6.70545349 53.7463605,6.37273256 C53.6489302,6.04001163 53.4858837,5.76296512 53.2565581,5.54093023 C53.0265698,5.31955814 52.7137326,5.20423256 52.3206977,5.19627907 C51.9256744,5.20423256 51.6154884,5.31955814 51.3874884,5.54093023 C51.160814,5.76296512 50.999093,6.04001163 50.9056395,6.37273256 C50.8101977,6.70545349 50.7644651,7.04215116 50.7671163,7.38216279 M52.2444767,0.3705 L54.9592674,0.3705 L52.5924419,2.61669767 L50.7816977,2.61669767 L52.2444767,0.3705" id="Fill-7" fill="#233C65"></path>
                    <polyline id="Fill-8" fill="#233C65" points="0.0888139535 18.721186 0.0888139535 14.693407 0.793360465 14.693407 0.793360465 16.2947093 2.62730233 16.2947093 2.62730233 14.693407 3.33251163 14.693407 3.33251163 18.721186 2.62730233 18.721186 2.62730233 16.903814 0.793360465 16.903814 0.793360465 18.721186 0.0888139535 18.721186"></polyline>
                    <path d="M6.00952326,15.1726047 C5.72319767,15.1759186 5.48989535,15.2528023 5.30895349,15.3979535 C5.12867442,15.5437674 4.99677907,15.7333256 4.91127907,15.9653023 C4.82710465,16.1972791 4.78534884,16.4438372 4.78600386,16.7063023 C4.78534884,16.9687674 4.82710465,17.2159884 4.91127907,17.4473023 C4.99677907,17.6799419 5.12867442,17.8688372 5.30895349,18.015314 C5.48989535,18.1604651 5.72319767,18.236686 6.00952326,18.2413256 C6.29717442,18.236686 6.53047674,18.1604651 6.7114186,18.015314 C6.89169767,17.8688372 7.0249186,17.6799419 7.10909302,17.4473023 C7.19326744,17.2159884 7.23568605,16.9687674 7.23436047,16.7063023 C7.23568605,16.4438372 7.19326744,16.1972791 7.10909302,15.9653023 C7.0249186,15.7333256 6.89169767,15.5437674 6.7114186,15.3979535 C6.53047674,15.2528023 6.29717442,15.1759186 6.00952326,15.1726047 M6.00952326,14.5966395 C6.41448837,14.6006163 6.75980233,14.6980465 7.0467907,14.8882674 C7.33444186,15.0778256 7.55515116,15.3303488 7.70759302,15.6471628 C7.86069767,15.9653023 7.93824419,16.3185698 7.93956977,16.7063023 C7.93824419,17.0946977 7.86069767,17.4473023 7.70759302,17.7654419 C7.55515116,18.0822558 7.33444186,18.3347791 7.0467907,18.525 C6.75980233,18.7145581 6.41448837,18.8119884 6.00952326,18.8166279 C5.60654651,18.8119884 5.26189535,18.7145581 4.9735814,18.525 C4.68526744,18.3347791 4.46588372,18.0822558 4.31277907,17.7654419 C4.15901163,17.4473023 4.08212791,17.0946977 4.08080233,16.7063023 C4.08212791,16.3185698 4.15901163,15.9653023 4.31277907,15.6471628 C4.46588372,15.3303488 4.68526744,15.0778256 4.9735814,14.8882674 C5.26189535,14.6980465 5.60654651,14.6006163 6.00952326,14.5966395" id="Fill-9" fill="#233C65"></path>
                    <polyline id="Fill-10" fill="#233C65" points="8.30476744 15.3025116 8.30476744 14.6927442 11.5650349 14.6927442 11.5650349 15.3025116 10.285186 15.3025116 10.285186 18.7198605 9.57931395 18.7198605 9.57931395 15.3025116 8.30476744 15.3025116"></polyline>
                    <polyline id="Fill-11" fill="#233C65" points="12.144314 18.721186 12.144314 14.693407 15.044686 14.693407 15.044686 15.3025116 12.850186 15.3025116 12.850186 16.3570116 14.880314 16.3570116 14.880314 16.9316512 12.850186 16.9316512 12.850186 18.1114186 15.0837907 18.1114186 15.0837907 18.721186 12.144314 18.721186"></polyline>
                    <polyline id="Fill-12" fill="#233C65" points="15.8115349 18.721186 15.8115349 14.693407 16.5160814 14.693407 16.5160814 18.1114186 18.5641047 18.1114186 18.5641047 18.721186 15.8115349 18.721186"></polyline>
                    <path d="M18.924,17.3777093 L19.6285465,17.3777093 C19.6365,17.6852442 19.7359186,17.9072791 19.9287907,18.0424884 C20.1203372,18.1770349 20.3609302,18.2426512 20.649907,18.2413256 C20.9567791,18.2340349 21.1768256,18.170407 21.3093837,18.0497791 C21.4412791,17.929814 21.504907,17.7906279 21.501593,17.6302326 C21.4989419,17.4784535 21.463814,17.3651163 21.3968721,17.2895581 C21.330593,17.2153256 21.2550349,17.1629651 21.1688721,17.1344651 C21.0310116,17.0834302 20.8646512,17.0330581 20.6704535,16.9846744 C20.4762558,16.9362907 20.2416279,16.8759767 19.9678953,16.8030698 C19.6298721,16.7036512 19.3945814,16.5631395 19.2640116,16.3782209 C19.1334419,16.1933023 19.0711395,15.9951279 19.0764419,15.7810465 C19.0810814,15.5119535 19.1539884,15.2905814 19.2964884,15.1149419 C19.4383256,14.9399651 19.620593,14.8093953 19.8439535,14.7232326 C20.0659884,14.6383953 20.3012791,14.5966395 20.5491628,14.5972946 C20.8328372,14.5972946 21.0906628,14.645686 21.3233023,14.7431163 C21.5559419,14.8405465 21.742186,14.9850349 21.8807093,15.1752558 C22.0198953,15.3668023 22.0914767,15.602093 22.0941279,15.8817907 L21.3895814,15.8817907 C21.3690349,15.6252907 21.2802209,15.4423605 21.1244651,15.3323372 C20.9680465,15.2229767 20.7672209,15.1686279 20.5213256,15.1719419 C20.4086512,15.1692907 20.2966395,15.1851977 20.1833023,15.2170116 C20.0706279,15.2488256 19.9771744,15.3031744 19.9009535,15.3800581 C19.8240698,15.4556163 19.7856279,15.5616628 19.782314,15.6962093 C19.7843023,15.8367209 19.8273837,15.9487326 19.9135465,16.0315814 C19.9990465,16.115093 20.1156977,16.1767326 20.2608488,16.2151744 C20.2807326,16.2211395 20.3403837,16.2357209 20.4398023,16.2622326 C20.5385581,16.2880814 20.6552093,16.3185698 20.7871047,16.3536977 C20.9203256,16.3875 21.0449302,16.4219651 21.1622442,16.4531163 C21.2802209,16.4849302 21.3663837,16.5087907 21.4233837,16.5260233 C21.6878372,16.6115233 21.8853488,16.7493837 22.014593,16.9422558 C22.1438372,17.1331395 22.2081279,17.3366163 22.2074702,17.5520233 C22.2021628,17.8522674 22.1232907,18.0955116 21.9695233,18.281093 C21.8170814,18.4666744 21.618907,18.6032093 21.3763256,18.6880465 C21.134407,18.7748721 20.8772442,18.8179535 20.6055,18.8159651 C20.295314,18.8166279 20.0149535,18.7662558 19.7644186,18.664186 C19.5132209,18.5634419 19.3137209,18.4063605 19.1632674,18.1942674 C19.012814,17.9815116 18.9339419,17.7097674 18.924,17.3777093" id="Fill-13" fill="#233C65"></path>
                    <path d="M27.1293488,18.721186 L26.7628256,18.2685 C26.4705349,18.6290581 26.0947326,18.8060233 25.634093,18.7993953 C25.2576279,18.7967442 24.9540698,18.6920233 24.7227558,18.4845698 C24.4907791,18.2777791 24.3721395,17.9841628 24.364186,17.6037209 C24.3675,17.4148256 24.4125698,17.2464767 24.5013837,17.1 C24.5901977,16.9535233 24.7048605,16.8269302 24.8447093,16.7175698 C24.9845581,16.6082093 25.1330233,16.5147558 25.2894419,16.4358837 C25.181407,16.305314 25.0879535,16.1687791 25.0084186,16.0276047 C24.9288837,15.8857674 24.8871279,15.728686 24.883814,15.5556977 C24.8904419,15.2614186 24.9872093,15.0294419 25.1727907,14.8591047 C25.3570465,14.6874419 25.5903488,14.6006163 25.8700465,14.5966395 C26.0463488,14.5966395 26.2100581,14.6317674 26.3618372,14.7033488 C26.5136163,14.7749302 26.6362326,14.8823023 26.729686,15.0254651 C26.8238023,15.1686279 26.872186,15.3462558 26.8755,15.5616628 C26.8688721,15.7989419 26.7966279,16.0024186 26.6567791,16.1714302 C26.517593,16.3411047 26.3479186,16.4776395 26.147093,16.5816977 L26.7734302,17.3379419 C26.7966279,17.2776279 26.8198256,17.2040581 26.8416977,17.1178953 C26.8642326,17.0317326 26.8827907,16.9250233 26.8967093,16.7964419 L27.461407,16.7964419 C27.442186,16.973407 27.4077209,17.1457326 27.3573488,17.3160698 C27.306314,17.4857442 27.2360581,17.6408372 27.1459186,17.784 L27.9193953,18.721186 L27.1293488,18.721186 Z M26.4181744,17.841 L25.6281279,16.859407 C25.5466047,16.9051395 25.4571279,16.9568372 25.3623488,17.0138372 C25.266907,17.0701744 25.1847209,17.1450698 25.1157907,17.239186 C25.0468605,17.3319767 25.0110698,17.4572442 25.0077558,17.6143256 C25.0110698,17.8330465 25.0733721,17.999407 25.1920116,18.1160581 C25.3119767,18.2327093 25.466407,18.2903721 25.6566279,18.2916977 C25.8103953,18.2897093 25.9376512,18.2612093 26.0337558,18.2108372 C26.1325116,18.1598023 26.2100581,18.0994884 26.2697093,18.0298953 C26.3286977,17.9609651 26.378407,17.8973372 26.4181744,17.841 L26.4181744,17.841 Z M25.8879419,15.0758372 C25.7659884,15.0778256 25.665907,15.1182558 25.5843837,15.1977907 C25.5035233,15.2766628 25.4617674,15.3840349 25.4591163,15.5218953 C25.4650814,15.6531279 25.5075,15.7724302 25.5876977,15.8811279 C25.6665698,15.9891628 25.7461047,16.0925581 25.8256395,16.1933023 C25.9515698,16.1137674 26.0609302,16.0256163 26.1530581,15.9255349 C26.2465116,15.8254535 26.2955581,15.6968721 26.2995349,15.5384651 C26.2982093,15.4032558 26.2597674,15.2932326 26.1868605,15.2077326 C26.1126279,15.1228953 26.0138721,15.0784884 25.8879419,15.0758372 L25.8879419,15.0758372 Z" id="Fill-14" fill="#233C65"></path>
                    <path d="M30.0535814,18.721186 L30.0535814,14.693407 L31.9776628,14.693407 C32.4184186,14.6947326 32.7491512,14.7915 32.9725116,14.9810581 C33.1958721,15.1692907 33.3078837,15.4377209 33.3085465,15.7810465 C33.3025814,16.0355581 33.2548605,16.2350581 33.1640581,16.3775581 C33.0745814,16.5207209 32.9771512,16.6234535 32.873093,16.685093 C32.7683721,16.7480581 32.6921512,16.7845116 32.6417791,16.7964419 L32.6417791,16.8077093 C32.7266163,16.8169884 32.8147674,16.8488023 32.9055698,16.9024884 C32.9970349,16.9555116 33.0745814,17.043 33.1401977,17.1629651 C33.2044884,17.2842558 33.2376279,17.4486279 33.2409419,17.6600581 C33.2409419,17.8986628 33.2581744,18.1127442 33.2933023,18.3049535 C33.329093,18.4945116 33.3854302,18.6343605 33.4603256,18.721186 L32.7040814,18.721186 C32.6537093,18.6317093 32.6225581,18.5356047 32.6106279,18.4315465 C32.6000233,18.3301395 32.5953837,18.2280698 32.5980349,18.1273256 C32.6046628,17.7601395 32.5529651,17.4903837 32.4402907,17.3180581 C32.3282791,17.1450698 32.1135349,17.0595698 31.7967209,17.0622209 L30.7581279,17.0622209 L30.7581279,18.721186 L30.0535814,18.721186 Z M30.7581279,15.2680465 L30.7581279,16.5260233 L31.9146977,16.5260233 C32.3667209,16.5233721 32.5967093,16.3079651 32.604,15.8824535 C32.5973721,15.6325814 32.5264535,15.4662209 32.3912442,15.3827093 C32.2553721,15.2998605 32.0936512,15.2614186 31.9034302,15.2680465 L30.7581279,15.2680465 L30.7581279,15.2680465 Z" id="Fill-15" fill="#233C65"></path>
                    <polyline id="Fill-16" fill="#233C65" points="34.1363721 18.721186 34.1363721 14.693407 37.0360814 14.693407 37.0360814 15.3025116 34.8415814 15.3025116 34.8415814 16.3570116 36.8723721 16.3570116 36.8723721 16.9316512 34.8415814 16.9316512 34.8415814 18.1114186 37.075186 18.1114186 37.075186 18.721186 34.1363721 18.721186"></polyline>
                    <path d="M37.5649884,17.3777093 L38.2708605,17.3777093 C38.2768256,17.6852442 38.376907,17.9072791 38.5697791,18.0424884 C38.7613256,18.1770349 39.0025814,18.2426512 39.2915581,18.2413256 C39.599093,18.2340349 39.817814,18.170407 39.9503721,18.0497791 C40.0822674,17.929814 40.1458953,17.7906279 40.1432442,17.6302326 C40.1399302,17.4784535 40.1048023,17.3651163 40.0378605,17.2895581 C39.9722442,17.2153256 39.8960233,17.1629651 39.8105233,17.1344651 C39.672,17.0834302 39.5056395,17.0330581 39.3114419,16.9846744 C39.1172442,16.9362907 38.8826163,16.8759767 38.6088837,16.8030698 C38.2708605,16.7036512 38.0362326,16.5631395 37.905,16.3782209 C37.7744302,16.1933023 37.7121279,15.9951279 37.7174302,15.7810465 C37.7227326,15.5119535 37.7949767,15.2905814 37.936814,15.1149419 C38.079314,14.9399651 38.2615814,14.8093953 38.4849419,14.7232326 C38.7076395,14.6383953 38.9429302,14.5966395 39.1901512,14.5972946 C39.4744884,14.5972946 39.732314,14.645686 39.9642907,14.7431163 C40.197593,14.8405465 40.3825116,14.9850349 40.5223605,15.1752558 C40.6608837,15.3668023 40.7324651,15.602093 40.7357791,15.8817907 L40.0305698,15.8817907 C40.0100233,15.6252907 39.9218721,15.4423605 39.7654535,15.3323372 C39.6096977,15.2229767 39.4082093,15.1686279 39.162314,15.1719419 C39.0496395,15.1692907 38.9376279,15.1851977 38.8249535,15.2170116 C38.7122791,15.2488256 38.6181628,15.3031744 38.5419419,15.3800581 C38.4650581,15.4556163 38.4259535,15.5616628 38.4233023,15.6962093 C38.4252907,15.8367209 38.4690349,15.9487326 38.5545349,16.0315814 C38.6400349,16.115093 38.756686,16.1767326 38.9018372,16.2151744 C38.9223837,16.2211395 38.9813721,16.2357209 39.0807907,16.2622326 C39.1802093,16.2880814 39.2961977,16.3185698 39.428093,16.3536977 C39.561314,16.3875 39.6859186,16.4219651 39.8032326,16.4531163 C39.9218721,16.4849302 40.0073721,16.5087907 40.0637093,16.5260233 C40.3294884,16.6115233 40.5263372,16.7493837 40.6555814,16.9422558 C40.7841628,17.1331395 40.8491163,17.3366163 40.8491163,17.5520233 C40.8431512,17.8522674 40.7649419,18.0955116 40.6105116,18.281093 C40.4580698,18.4666744 40.2598953,18.6032093 40.017314,18.6880465 C39.7760581,18.7748721 39.5188953,18.8179535 39.2464884,18.8159651 C38.9363023,18.8166279 38.6559419,18.7662558 38.4060698,18.664186 C38.1542093,18.5634419 37.9547093,18.4063605 37.803593,18.1942674 C37.6544651,17.9815116 37.575593,17.7097674 37.5649884,17.3777093" id="Fill-17" fill="#233C65"></path>
                    <path d="M43.2895116,15.1726047 C43.003186,15.1759186 42.7692209,15.2528023 42.5889419,15.3979535 C42.408,15.5437674 42.2761047,15.7333256 42.1912674,15.9653023 C42.1064302,16.1972791 42.0646744,16.4438372 42.0653294,16.7063023 C42.0646744,16.9687674 42.1064302,17.2159884 42.1912674,17.4473023 C42.2761047,17.6799419 42.408,17.8688372 42.5889419,18.015314 C42.7692209,18.1604651 43.003186,18.236686 43.2895116,18.2413256 C43.5758372,18.236686 43.8104651,18.1604651 43.9907442,18.015314 C44.1710233,17.8688372 44.3042442,17.6799419 44.3884186,17.4473023 C44.472593,17.2159884 44.5150116,16.9687674 44.513686,16.7063023 C44.5150116,16.4438372 44.472593,16.1972791 44.3884186,15.9653023 C44.3042442,15.7333256 44.1710233,15.5437674 43.9907442,15.3979535 C43.8104651,15.2528023 43.5758372,15.1759186 43.2895116,15.1726047 M43.2895116,14.5966395 C43.693814,14.6006163 44.0391279,14.6980465 44.3261163,14.8882674 C44.6137674,15.0778256 44.8351395,15.3303488 44.9875814,15.6471628 C45.140686,15.9653023 45.2182326,16.3185698 45.2195581,16.7063023 C45.2182326,17.0946977 45.140686,17.4473023 44.9875814,17.7654419 C44.8351395,18.0822558 44.6137674,18.3347791 44.3261163,18.525 C44.0391279,18.7145581 43.693814,18.8119884 43.2895116,18.8166279 C42.8858721,18.8119884 42.5405581,18.7145581 42.252907,18.525 C41.964593,18.3347791 41.7458721,18.0822558 41.5927674,17.7654419 C41.439,17.4473023 41.3621163,17.0946977 41.3601279,16.7063023 C41.3621163,16.3185698 41.439,15.9653023 41.5927674,15.6471628 C41.7458721,15.3303488 41.964593,15.0778256 42.252907,14.8882674 C42.5405581,14.6980465 42.8858721,14.6006163 43.2895116,14.5966395" id="Fill-18" fill="#233C65"></path>
                    <path d="M45.9685116,18.721186 L45.9685116,14.693407 L47.8912674,14.693407 C48.3313605,14.6947326 48.6640814,14.7915 48.8874419,14.9810581 C49.1108023,15.1692907 49.222814,15.4377209 49.222814,15.7810465 C49.2168488,16.0355581 49.1697907,16.2350581 49.080314,16.3775581 C48.9888488,16.5207209 48.8914186,16.6234535 48.7873605,16.685093 C48.6826395,16.7480581 48.6064186,16.7845116 48.5573721,16.7964419 L48.5573721,16.8077093 C48.6408837,16.8169884 48.7290349,16.8488023 48.8198372,16.9024884 C48.9113023,16.9555116 48.9895116,17.043 49.0544651,17.1629651 C49.118093,17.2842558 49.1518953,17.4486279 49.1545465,17.6600581 C49.1545465,17.8986628 49.1724419,18.1127442 49.2082326,18.3049535 C49.2433605,18.4945116 49.2996977,18.6343605 49.3752558,18.721186 L48.6203372,18.721186 C48.567314,18.6317093 48.5361628,18.5356047 48.5255581,18.4315465 C48.5136279,18.3301395 48.5096512,18.2280698 48.5123023,18.1273256 C48.5189302,17.7601395 48.4672326,17.4903837 48.3552209,17.3180581 C48.2425465,17.1450698 48.0284651,17.0595698 47.7109884,17.0622209 L46.6730581,17.0622209 L46.6730581,18.721186 L45.9685116,18.721186 Z M46.6730581,15.2680465 L46.6730581,16.5260233 L47.8296279,16.5260233 C48.2816512,16.5233721 48.5116395,16.3079651 48.5176047,15.8824535 C48.5116395,15.6325814 48.4407209,15.4662209 48.3055116,15.3827093 C48.1703023,15.2998605 48.0079186,15.2614186 47.8176977,15.2680465 L46.6730581,15.2680465 L46.6730581,15.2680465 Z" id="Fill-19" fill="#233C65"></path>
                    <polyline id="Fill-20" fill="#233C65" points="49.5654767 15.3025116 49.5654767 14.6927442 52.8257442 14.6927442 52.8257442 15.3025116 51.5458953 15.3025116 51.5458953 18.7198605 50.840686 18.7198605 50.840686 15.3025116 49.5654767 15.3025116"></polyline>
                    <path d="M53.1690698,17.3777093 L53.8736163,17.3777093 C53.8815698,17.6852442 53.9816512,17.9072791 54.1731977,18.0424884 C54.3647442,18.1770349 54.606,18.2426512 54.8949767,18.2413256 C55.2018488,18.2340349 55.4218953,18.170407 55.5537907,18.0497791 C55.6863488,17.929814 55.7506395,17.7906279 55.7466628,17.6302326 C55.7433488,17.4784535 55.7082209,17.3651163 55.6412791,17.2895581 C55.5756628,17.2153256 55.4994419,17.1629651 55.4132791,17.1344651 C55.2747558,17.0834302 55.1090581,17.0330581 54.9148605,16.9846744 C54.7213256,16.9362907 54.4866977,16.8759767 54.2129651,16.8030698 C53.8742791,16.7036512 53.6396512,16.5631395 53.5090814,16.3782209 C53.3785116,16.1933023 53.3155465,15.9951279 53.3208488,15.7810465 C53.3254884,15.5119535 53.3983953,15.2905814 53.5408953,15.1149419 C53.6820698,14.9399651 53.865,14.8093953 54.0883605,14.7232326 C54.3110581,14.6383953 54.5463488,14.5966395 54.7935698,14.5972946 C55.0772442,14.5972946 55.3357326,14.645686 55.5677093,14.7431163 C55.8010116,14.8405465 55.986593,14.9850349 56.1257791,15.1752558 C56.2643023,15.3668023 56.3352209,15.602093 56.3391977,15.8817907 L55.6346512,15.8817907 C55.6134419,15.6252907 55.5252907,15.4423605 55.3688721,15.3323372 C55.2131163,15.2229767 55.0116279,15.1686279 54.7650698,15.1719419 C54.6537209,15.1692907 54.5403837,15.1851977 54.4277093,15.2170116 C54.3156977,15.2488256 54.2215814,15.3031744 54.1460233,15.3800581 C54.0684767,15.4556163 54.0293721,15.5616628 54.0267209,15.6962093 C54.0287093,15.8367209 54.0724535,15.9487326 54.1586163,16.0315814 C54.2434535,16.115093 54.3601047,16.1767326 54.5052558,16.2151744 C54.5258023,16.2211395 54.5847907,16.2357209 54.6842093,16.2622326 C54.7829651,16.2880814 54.9002791,16.3185698 55.0321744,16.3536977 C55.1647326,16.3875 55.2893372,16.4219651 55.407314,16.4531163 C55.5252907,16.4849302 55.6121163,16.5087907 55.6684535,16.5260233 C55.932907,16.6115233 56.129093,16.7493837 56.259,16.9422558 C56.3875814,17.1331395 56.4518721,17.3366163 56.4518721,17.5520233 C56.4472326,17.8522674 56.3676977,18.0955116 56.2139302,18.281093 C56.0608256,18.4666744 55.863314,18.6032093 55.6213953,18.6880465 C55.3794767,18.7748721 55.122314,18.8179535 54.8505698,18.8159651 C54.5390581,18.8166279 54.2593605,18.7662558 54.0088256,18.664186 C53.7582907,18.5634419 53.5574651,18.4063605 53.4076744,18.1942674 C53.2578837,17.9815116 53.177686,17.7097674 53.1690698,17.3777093" id="Fill-21" fill="#233C65"></path>
                </g>
            </g>
        </g>
    </g>
</svg>