<?xml version="1.0" encoding="UTF-8"?>
<svg width="85px" height="18px" viewBox="0 0 85 18" version="1.1" xmlns="http://www.w3.org/2000/svg" xmlns:xlink="http://www.w3.org/1999/xlink">
    <title>Budget</title>
    <defs>
        <filter color-interpolation-filters="auto" id="filter-1">
            <feColorMatrix in="SourceGraphic" type="matrix" values="0 0 0 0 0.717654 0 0 0 0 0.717638 0 0 0 0 0.717641 0 0 0 1.000000 0"></feColorMatrix>
        </filter>
    </defs>
    <g id="ALP" stroke="none" stroke-width="1" fill="none" fill-rule="evenodd">
        <g id="01_Currents_flight_campaigns-ALP_1280_uncheck_age" transform="translate(-645.000000, -1461.000000)">
            <g id="Group-Copy" transform="translate(645.000000, 1461.000000)" filter="url(#filter-1)">
                <g>
                    <polyline id="Fill-1" fill="#E98236" points="10.8092238 13.2050889 19.5178376 13.2050889 19.5178376 0.209430456 10.8092238 13.2050889"></polyline>
                    <polyline id="Fill-2" fill="#E15D34" points="0 4.54747351e-13 0 13.2050889 19.5178376 4.54747351e-13 0 4.54747351e-13"></polyline>
                    <path d="M82.8958173,0.499640038 C83.656793,0.505624958 84.2691406,1.13291904 84.2612138,1.89883613 C84.2542778,2.66475323 83.6320216,3.28107714 82.8710459,3.27409613 C82.1170062,3.26711511 81.508622,2.65178849 81.5046586,1.89285241 C81.5056494,1.12294616 82.1269147,0.498643943 82.8918539,0.499640038 C82.8938356,0.499640038 82.8948264,0.499640038 82.8958173,0.499640038 Z M82.8958173,3.07264398 C83.5428448,3.07264398 84.0660156,2.5440814 84.0660156,1.89285241 C84.0650247,1.24162342 83.5398722,0.714058126 82.8938356,0.715054002 C82.2468081,0.716052702 81.7236373,1.24262071 81.7236373,1.89285241 C81.7236373,2.54507868 82.2477989,3.07463855 82.8958173,3.07663313 L82.8958173,3.07264398 Z M82.3518386,1.10499498 L82.9017624,1.10499498 C83.1950551,1.10499498 83.4814119,1.22965596 83.4814119,1.56574198 C83.4853753,1.7781643 83.3308021,1.96066798 83.1217319,1.98859204 L83.5418539,2.6757234 L83.2010002,2.6757234 L82.836366,2.01950797 L82.6312593,2.01950797 L82.6312593,2.6757234 L82.3508477,2.6757234 L82.3508477,1.10499498 L82.3518386,1.10499498 Z M82.8581648,1.79312362 C83.0176923,1.79312362 83.2000094,1.75024024 83.2000094,1.55975825 C83.2000094,1.38822474 83.0355277,1.34434407 82.8878904,1.34434407 L82.6312593,1.34434407 L82.6312593,1.79312362 L82.8581648,1.79312362 Z M79.5011523,11.293288 C78.405268,11.293288 77.89696,10.7567471 77.89696,9.59789861 L77.89696,5.16894311 L80.0064877,5.16894311 L80.0064877,3.24617207 L77.89696,3.24617207 L77.89696,0.499641231 L75.7428439,0.499641231 L75.7428439,9.59789861 C75.7428439,11.8976445 77.0537434,13.2768936 79.1622803,13.2768936 C79.455573,13.2739018 79.746884,13.2529587 80.0372041,13.2130672 L80.0372041,11.2663612 C79.7667011,11.2892989 79.6141096,11.293288 79.5011523,11.293288 Z M73.2974168,4.41898262 C72.3997033,3.47056184 71.1769897,3.0297606 69.9017609,3.0297606 C67.1719588,3.0297606 65.0753122,5.30856342 65.0753122,8.17177694 C65.0753122,11.0629145 67.1283612,13.2768936 69.9522945,13.2768936 C71.4415477,13.2768936 72.9417003,12.5010036 73.8631943,11.3152284 L72.1817155,10.1284558 C71.6525995,10.8385247 70.8301909,11.2673585 69.9493219,11.2952826 C68.7959681,11.2952826 67.6237881,10.4665364 67.3374314,9.0473957 L74.5667005,9.0473957 C74.5676913,9.0473957 75.2305725,6.4544472 73.3043528,4.41898262 L73.2974168,4.41898262 Z M67.3711204,7.24230463 C67.448407,6.65490206 68.1558766,5.01635806 69.9166237,5.01635806 C71.6238648,5.01635806 72.3719594,6.60503767 72.4393374,7.24230463 L67.3711204,7.24230463 Z M61.8381929,3.24617207 L61.8381929,4.14173659 C61.065327,3.41371643 60.0437568,3.01180941 58.9845341,3.01772727 C56.226988,3.01772727 54.0649451,5.23476411 54.0649451,8.13786915 C54.0649451,11.0409742 56.2279789,13.2719072 58.9845341,13.2719072 C60.0179946,13.2758963 61.0167752,12.8959296 61.7876594,12.2038119 C61.7876594,12.2038119 62.2226442,15.9496252 58.9340005,15.9496252 C57.548787,15.9496252 56.5767594,14.95134 56.1318661,14.1943985 L54.4097622,15.412087 C55.2589239,17.0067503 57.0503875,17.9820979 58.9340005,17.9820979 C60.2022934,17.9820979 61.4487874,17.6200824 62.3356015,16.8372114 C63.3769889,15.9117282 63.9487115,14.6252268 63.9487115,12.8919405 L63.9487115,3.24617207 L61.8381929,3.24617207 Z M58.9845341,11.2733423 C57.4338479,11.2733423 56.2200521,9.88212566 56.2200521,8.11991796 C56.2200521,6.40657738 57.460601,5.01835264 58.9845341,5.01835264 C60.5084672,5.01835264 61.7876594,6.44148245 61.7876594,8.1249044 C61.7876594,9.85619617 60.5292751,11.2783287 58.9894884,11.2783287 L58.9845341,11.2733423 Z M47.9186792,13.2719072 C45.1611331,13.2719072 42.9951268,11.0549362 42.9951268,8.15183118 C42.9951268,5.24872614 45.162124,3.0297606 47.9236335,3.0297606 C48.9551122,3.02776602 49.9509203,3.40972728 50.7188319,4.10184507 L50.7188319,0 L52.872948,0 L52.872948,13.0744442 L50.772338,13.0744442 L50.772338,12.1579366 C49.9994721,12.8829649 48.9808744,13.2828773 47.9236335,13.2769598 L47.9186792,13.2719072 Z M47.9186792,5.02932281 C46.367993,5.02932281 45.1541972,6.40358551 45.1541972,8.17277422 C45.1541972,9.88511752 46.3957369,11.2733423 47.9186792,11.2733423 C49.4426123,11.2733423 50.7188319,9.86517176 50.7188319,8.18174981 C50.7188319,6.44846347 49.4634202,5.0382984 47.9236335,5.0382984 L47.9186792,5.02932281 Z M41.9359041,8.31837825 L41.9359041,3.24617207 L39.7778246,3.24617207 L39.7778246,8.31837825 C39.7778246,10.1214748 38.8622757,11.2833151 37.4275195,11.2833151 C35.9937541,11.2833151 35.0811777,10.1214748 35.0811777,8.31837825 L35.0811777,3.24617207 L32.9221074,3.24617207 L32.9221074,8.31837825 C32.9221074,11.3421551 34.9246228,13.2768936 37.4285103,13.2768936 C39.9323978,13.2768936 41.9359041,11.3431524 41.9359041,8.31837825 Z M22.8044995,13.2050889 L22.8044995,0 L27.3574726,0 C29.1281283,0 31.2663907,0.9384479 31.2663907,3.42069745 C31.2663907,4.90466182 30.5767565,5.85707175 29.9554912,6.21110895 C31.6260706,6.85635421 31.9520615,8.45899585 31.9520615,9.39445188 C31.9520615,11.504713 30.2230217,13.2050889 27.4734025,13.2050889 L22.8044995,13.2050889 Z M27.2237073,11.2264697 C27.6834635,11.2434236 28.1412379,11.1736135 28.5752319,11.0200311 C29.5294241,10.6131377 29.9753083,9.50415355 29.5710399,8.54276803 C29.380796,8.0919939 29.0230978,7.73197298 28.5752319,7.5404937 C28.0788141,7.33206054 27.666619,7.31610393 27.0512988,7.31610393 L24.9952772,7.31610393 L24.9952772,11.2244752 L27.2286616,11.2244752 L27.2237073,11.2264697 Z M26.8679908,5.4252461 C27.2633415,5.4252461 27.9024422,5.40131119 28.2799575,5.21980479 C28.8477167,4.9066564 29.0240886,4.41399618 29.0240886,3.66702756 C29.0429149,3.04471991 28.696116,2.47028209 28.1392562,2.19901979 C27.8311007,2.0414483 27.4317866,1.9756273 26.8105213,1.9756273 L24.9952772,1.9756273 L24.9952772,5.4252461 L26.8679908,5.4252461 L26.8679908,5.4252461 Z" id="Fill-3" fill="#1A2743"></path>
                </g>
            </g>
        </g>
    </g>
</svg>