<?xml version="1.0" encoding="UTF-8"?>
<svg width="58px" height="22px" viewBox="0 0 58 22" version="1.1" xmlns="http://www.w3.org/2000/svg" xmlns:xlink="http://www.w3.org/1999/xlink">
    <title>hilton</title>
    <g id="ALP" stroke="none" stroke-width="1" fill="none" fill-rule="evenodd">
        <g id="01_Currents_flight_campaigns-ALP_1280_uncheck_age" transform="translate(-1341.000000, -1363.000000)" fill="#B7B7B7">
            <g id="hilton" transform="translate(1341.000000, 1363.000000)">
                <path d="M0,21.550418 L58,21.550418 L58,0 L0,0 L0,21.550418 Z M0.989640048,20.56146 L57.011724,20.56146 L57.011724,0.989640048 L0.989640048,0.989640048 L0.989640048,20.56146 Z M16.1834452,5.53543668 L16.1834452,4.92501088 L12.2480744,4.92501088 L12.2480744,5.53543668 L13.1115371,5.59818436 L13.1115371,10.0389468 L8.06034878,10.0389468 L8.06034878,5.59818436 L8.79695199,5.53543668 L8.79695199,4.92501088 L4.92432884,4.92501088 L4.92432884,5.53543668 L5.72436176,5.59818436 L5.72436176,15.889486 L4.92432884,16.0156634 L4.92432884,16.6260892 L8.79695199,16.6260892 L8.79695199,16.0156634 L8.06034878,15.889486 L8.06034878,11.1963687 L13.1115371,11.1963687 L13.1115371,15.889486 L12.2480744,16.0156634 L12.2480744,16.6260892 L16.1834452,16.6260892 L16.1834452,16.0156634 L15.3840944,15.889486 L15.3840944,5.59818436 L16.1834452,5.53543668 Z M20.7503851,15.9529157 L20.7503851,8.31338562 L17.8462588,8.31338562 L17.8462588,8.86038171 L18.6040052,8.92381143 L18.6040052,15.9529157 L17.8462588,16.0784111 L17.8462588,16.6260892 L21.4869883,16.6260892 L21.4869883,16.0784111 L20.7503851,15.9529157 Z M21.0661696,5.66161408 C21.0661696,5.32468632 20.9434024,5.03345524 20.697868,4.78792084 C20.4523336,4.54306847 20.1611026,4.40597843 19.8248568,4.37801479 C19.4592834,4.37801479 19.1653241,4.51169463 18.940933,4.77769024 C18.7158598,5.04436788 18.6040052,5.3601524 18.6040052,5.72436176 C18.6040052,6.08993521 18.7158598,6.39821729 18.940933,6.65057209 C19.1653241,6.90292689 19.4592834,7.02910429 19.8248568,7.02910429 C20.1611026,7.02910429 20.4523336,6.90292689 20.697868,6.65057209 C20.9434024,6.39821729 21.0661696,6.06879197 21.0661696,5.66161408 Z M23.0863721,16.0784111 L23.0863721,16.6260892 L26.7271017,16.6260892 L26.7271017,16.0784111 L25.9911805,15.9529157 L25.9911805,4.60922635 L23.0863721,4.60922635 L23.0863721,5.114618 L23.8229753,5.2407954 L23.8229753,15.9529157 L23.0863721,16.0784111 Z M31.0839732,8.31338562 L31.1467209,8.31338562 L31.1467209,5.97739861 L29.0630887,6.58782441 L29.0630887,8.31338562 L27.4637049,8.31338562 L27.4637049,9.11273651 L29.000341,9.11273651 L29.000341,14.5219958 C29.000341,15.2654194 29.1299286,15.8226461 29.3897859,16.1950399 C29.6489611,16.5667517 30.2000494,16.7522666 31.0416868,16.7522666 C31.4058961,16.7522666 31.8062536,16.7065699 32.2413951,16.6151766 C32.6758546,16.5244652 33.1532826,16.3805548 33.6723151,16.1841273 L33.6723151,15.6371312 C33.4895283,15.6650948 33.3040135,15.6828279 33.1144063,15.6896483 C32.9254812,15.6971507 32.7249615,15.6998789 32.5148932,15.6998789 C31.9256106,15.6998789 31.539576,15.5846141 31.3574713,15.3527205 C31.1746846,15.121509 31.0839732,14.6829572 31.0839732,14.0377474 L31.0839732,9.11273651 L33.0618893,9.11273651 L33.0618893,8.31338562 L31.0839732,8.31338562 Z M42.7850516,12.564541 C42.7850516,11.1192982 42.4058373,10.0109832 41.6480909,9.23891391 C40.8903444,8.46752666 39.8386387,8.09581486 38.4916097,8.1237785 C37.8041134,8.1237785 37.1868672,8.22881266 36.6391891,8.43956302 C36.092193,8.66395419 35.6297699,8.96882607 35.2505556,9.35486071 C34.8720234,9.74089535 34.5773821,10.2074107 34.3666318,10.7544068 C34.1558814,11.3014029 34.0508473,11.9050083 34.0508473,12.564541 C34.0508473,14.1639248 34.4368819,15.2824704 35.2082691,15.9208598 C35.9796564,16.5592493 37.0320441,16.878444 38.3654323,16.878444 C39.0386058,16.878444 39.6490316,16.7734098 40.1960277,16.5633415 C40.7437058,16.3525912 41.2095392,16.0579499 41.5955738,15.6787356 C41.9816084,15.3002034 42.2796599,14.8514211 42.4904103,14.3323887 C42.6861558,13.7990334 42.7850516,13.2097508 42.7850516,12.564541 Z M40.4490645,12.5011113 C40.4490645,13.8201766 40.2730982,14.7675302 39.9225297,15.3424899 C39.5719611,15.9181317 39.0733899,16.2195934 38.42818,16.246875 C37.8388974,16.246875 37.3621515,15.9529157 36.9972601,15.3629511 C36.6323687,14.7743506 36.450264,13.8201766 36.450264,12.5011113 C36.450264,11.1827279 36.6255483,10.2251438 36.9767989,9.62835875 C37.3266854,9.03225579 37.8109338,8.73420431 38.42818,8.73420431 C39.0454262,8.73420431 39.536495,9.03225579 39.9013864,9.62835875 C40.2662778,10.2251438 40.4490645,11.1827279 40.4490645,12.5011113 Z M53.0756712,16.0784111 L52.339068,16.0156634 L52.339068,11.0285869 C52.339068,10.1023766 52.1494608,9.39646515 51.7709286,8.91289879 C51.3923964,8.42933242 50.8031139,8.18720822 50.0030809,8.18720822 C49.3858347,8.18720822 48.8422489,8.30997542 48.3723233,8.55550982 C47.9023977,8.80104423 47.4358824,9.11273651 46.9727772,9.49195075 L46.9727772,8.31338562 L44.0897941,8.31338562 L44.0897941,8.86038171 L44.8263973,8.98655911 L44.8263973,15.9529157 L44.0897941,16.0784111 L44.0897941,16.6260892 L47.7093804,16.6260892 L47.7093804,16.0156634 L46.9727772,15.889486 L46.9727772,9.97551712 C47.2530956,9.79341243 47.5586496,9.63586119 47.8880749,9.50218135 C48.2175002,9.36918355 48.4882701,9.30234363 48.6983384,9.30234363 C49.1894072,9.30234363 49.5577088,9.45716671 49.8032432,9.76544879 C50.0487776,10.0744129 50.1715448,10.5511589 50.1715448,11.1963687 L50.1715448,15.9529157 L49.4349416,16.0784111 L49.4349416,16.6260892 L53.0756712,16.6260892 L53.0756712,16.0784111 L53.0756712,16.0784111 Z"></path>
            </g>
        </g>
    </g>
</svg>