<?xml version="1.0" encoding="UTF-8"?>
<svg width="26px" height="22px" viewBox="0 0 26 22" version="1.1" xmlns="http://www.w3.org/2000/svg" xmlns:xlink="http://www.w3.org/1999/xlink">
    <title>nh-hotels-seeklogo.com</title>
    <g id="ALP" stroke="none" stroke-width="1" fill="none" fill-rule="evenodd">
        <g id="01_Currents_flight_campaigns-ALP_1280_uncheck_age" transform="translate(-1169.000000, -1365.000000)" fill="#B7B7B7">
            <path d="M1194.21734,1382.70237 C1194.06962,1382.45883 1193.66252,1382.22766 1193.19433,1382.22766 C1192.59043,1382.22766 1192.301,1382.47715 1192.301,1382.79395 C1192.301,1383.1652 1192.74366,1383.26965 1193.26193,1383.32955 C1194.16126,1383.43894 1195,1383.6711 1195,1384.68784 C1195,1385.63825 1194.14974,1386.04762 1193.18782,1386.04762 C1192.30651,1386.04762 1191.62851,1385.77933 1191.30853,1384.9992 L1191.98654,1384.65121 C1192.17782,1385.12097 1192.67656,1385.32838 1193.20034,1385.32838 C1193.71159,1385.32838 1194.1923,1385.15116 1194.1923,1384.68784 C1194.1923,1384.28689 1193.76768,1384.12254 1193.19433,1384.06166 C1192.31302,1383.9582 1191.49932,1383.72604 1191.49932,1382.7687 C1191.49932,1381.89205 1192.37411,1381.53218 1193.16929,1381.52674 C1193.84128,1381.52674 1194.53731,1381.71632 1194.8648,1382.37369 L1194.21734,1382.70237 Z M1188.76827,1381.67227 L1188.76827,1385.19374 L1190.98656,1385.19374 L1190.98656,1385.93723 L1187.95457,1385.93723 L1187.95457,1381.67227 L1188.76827,1381.67227 Z M1187.09129,1385.93723 L1183.86251,1385.93723 L1183.86251,1381.67227 L1187.09129,1381.67227 L1187.09129,1382.45289 L1184.6702,1382.45289 L1184.6702,1383.433 L1187.00566,1383.433 L1187.00566,1384.18343 L1184.6702,1384.18343 L1184.6702,1385.14522 L1187.09129,1385.14522 L1187.09129,1385.93723 Z M1181.17803,1382.40339 L1179.81001,1382.40339 L1179.81001,1381.67227 L1183.35976,1381.67227 L1183.35976,1382.40339 L1181.99174,1382.40339 L1181.99174,1385.93723 L1181.17803,1385.93723 L1181.17803,1382.40339 Z M1177.5086,1385.29818 C1178.5246,1385.29818 1178.90717,1384.54181 1178.91969,1383.84188 C1178.93171,1383.12857 1178.5191,1382.33657 1177.52713,1382.31825 C1176.60877,1382.31825 1176.06696,1383.00086 1176.0915,1383.84782 C1176.10953,1384.54775 1176.49109,1385.29818 1177.5086,1385.29818 L1177.5086,1385.29818 Z M1179.72088,1383.8295 C1179.70786,1384.93237 1179.02434,1386.03475 1177.5086,1386.03475 C1175.99235,1386.03475 1175.28981,1384.95712 1175.28981,1383.83544 C1175.28981,1382.48952 1176.27627,1381.58762 1177.52713,1381.58762 C1178.99981,1381.6 1179.73289,1382.72069 1179.72088,1383.8295 L1179.72088,1383.8295 Z M1173.83566,1385.94317 L1173.83566,1384.21907 L1171.71602,1384.21907 L1171.71602,1385.94317 L1170.90182,1385.94317 L1170.90182,1381.67821 L1171.71602,1381.67821 L1171.71602,1383.47557 L1173.83566,1383.47557 L1173.83566,1381.67821 L1174.64336,1381.67821 L1174.64336,1385.94317 L1173.83566,1385.94317 Z M1178.96025,1368.21753 C1179.15754,1368.57394 1179.2627,1369.08082 1179.2627,1369.6778 L1179.2627,1379.00518 L1181.77792,1379.00518 L1181.77792,1368.89569 C1181.77792,1367.93538 1181.56861,1367.11912 1181.155,1366.46522 C1180.51856,1365.50887 1179.47151,1365 1178.13052,1365 C1176.36891,1365 1175.04796,1365.83012 1173.88223,1366.95379 L1173.30387,1367.51215 L1173.30387,1365.23216 L1169,1365.23216 L1169,1367.22554 L1170.90582,1367.22554 L1170.90582,1379.00518 L1173.42105,1379.00518 L1173.42105,1368.85362 L1173.54373,1368.75214 C1174.41051,1368.0428 1175.72546,1367.19634 1177.07546,1367.19634 C1178.1836,1367.19634 1178.71288,1367.75223 1178.96025,1368.21753 L1178.96025,1368.21753 Z M1192.11122,1379.00518 L1192.11122,1373.30718 L1186.1504,1373.30718 L1186.1504,1379.00518 L1183.56507,1379.00518 L1183.56507,1365.23216 L1186.1504,1365.23216 L1186.1504,1370.94452 L1192.11122,1370.94452 L1192.11122,1365.23216 L1194.67602,1365.23216 L1194.67602,1379.00518 L1192.11122,1379.00518 L1192.11122,1379.00518 Z" id="nh-hotels-seeklogo.com"></path>
        </g>
    </g>
</svg>