<?xml version="1.0" encoding="UTF-8"?>
<svg width="29px" height="18px" viewBox="0 0 29 18" version="1.1" xmlns="http://www.w3.org/2000/svg" xmlns:xlink="http://www.w3.org/1999/xlink">
    <title>Riu</title>
    <g id="ALP" stroke="none" stroke-width="1" fill="none" fill-rule="evenodd">
        <g id="01_Currents_flight_campaigns-ALP_1280_uncheck_age" transform="translate(-1292.000000, -1367.000000)" fill="#B7B7B7">
            <g id="Fill-1" transform="translate(1292.000000, 1367.000000)">
                <path d="M28.7655278,15.3080715 C28.7038035,15.2597836 28.6304558,15.2209078 28.5450839,15.1918532 C28.459712,15.1627987 28.3731376,15.148476 28.2853609,15.148476 C28.1430743,15.148476 28.0340548,15.1803951 27.9579014,15.2446425 C27.8821489,15.3088899 27.8440722,15.3976905 27.8440722,15.5114534 C27.8440722,15.5769285 27.8589021,15.6342192 27.8885618,15.6841439 C27.9182215,15.7336595 27.9675208,15.7782643 28.0364596,15.8183678 C28.1049977,15.8584713 28.2152196,15.902667 28.3671255,15.9509548 C28.5827598,16.0213405 28.7406778,16.1138241 28.840078,16.2288147 C28.9398789,16.3438053 28.989579,16.487032 28.989579,16.6593133 C28.989579,16.8888852 28.9178345,17.0701693 28.7743456,17.2019379 C28.6308566,17.3341157 28.4344611,17.4 28.1855599,17.4 C28.0552976,17.4 27.933853,17.3856773 27.8212262,17.3566228 C27.7081986,17.3275682 27.620021,17.2886924 27.5562927,17.2399953 C27.4969732,17.2015287 27.4673135,17.1565146 27.4673135,17.1057714 C27.4673135,17.0816275 27.4773337,17.0497084 27.497374,17.0096049 C27.5174144,16.9695014 27.543066,16.9289887 27.5739282,16.8880668 C27.6641098,16.9629539 27.7619067,17.021063 27.867319,17.0623942 C27.9727313,17.1037253 28.0789452,17.1241863 28.1855599,17.1241863 C28.3422755,17.1241863 28.4621168,17.0873565 28.5450839,17.0132879 C28.628051,16.9396284 28.6693341,16.8369144 28.6693341,16.7063735 C28.6693341,16.6261665 28.6553059,16.5574177 28.6268486,16.4993086 C28.5983912,16.4411994 28.5518976,16.3912747 28.4881693,16.3487159 C28.4240401,16.3061571 28.3278464,16.2644167 28.1999889,16.2230856 C28.0220306,16.1702963 27.8873594,16.1138241 27.7959753,16.0544873 C27.7049921,15.9951505 27.6364541,15.9231279 27.5915637,15.8384196 C27.5466733,15.7537112 27.5242281,15.6530433 27.5242281,15.536825 C27.5242281,15.3964628 27.5562927,15.2765616 27.620021,15.1775306 C27.6841502,15.0780903 27.773931,15.0019755 27.8885618,14.948777 C28.0035934,14.8951693 28.1358598,14.8685701 28.2853609,14.8685701 C28.3799514,14.8685701 28.4773475,14.8808467 28.5771485,14.9049906 C28.6765486,14.9291345 28.7595157,14.9618721 28.8260497,15.0032032 C28.8733449,15.0318485 28.9078144,15.0604939 28.9290571,15.0883208 C28.9502999,15.1161477 28.9611217,15.1460207 28.9611217,15.1775306 C28.9611217,15.2282738 28.9222434,15.2937488 28.844086,15.3735466 C28.8340658,15.3637253 28.8228432,15.3534948 28.8100174,15.3424459 C28.7967908,15.3318062 28.7819609,15.3203481 28.7655278,15.3080715 L28.7655278,15.3080715 Z M26.2436493,15.1918532 L25.4893302,15.1918532 C25.4821157,15.1578881 25.4789093,15.1243321 25.4789093,15.0903669 C25.4789093,15.0392145 25.4989496,14.9978833 25.5390303,14.9647366 C25.5795118,14.9324083 25.6316168,14.9160395 25.6957459,14.9160395 L27.3282334,14.9160395 C27.3330431,14.9500047 27.3354479,14.9774224 27.3354479,14.9995202 C27.3354479,15.0576294 27.3162092,15.1042803 27.2769301,15.1394732 C27.237651,15.174666 27.1851453,15.1918532 27.1186113,15.1918532 L26.5566797,15.1918532 L26.5566797,17.3455738 L26.2436493,17.3455738 L26.2436493,15.1918532 Z M24.3867098,16.0814958 C24.7778976,16.0814958 24.9738923,15.9219003 24.9738923,15.6023001 C24.9738923,15.4447507 24.9298035,15.3318062 24.8420267,15.2626482 C24.7542499,15.1938993 24.6035465,15.1591157 24.3903171,15.1591157 C24.2788927,15.1591157 24.1935207,15.1640263 24.1342013,15.1734384 L24.1342013,16.0814958 L24.3867098,16.0814958 Z M23.8247782,14.9229962 C23.9718744,14.9013076 24.1578489,14.8906679 24.3831025,14.8906679 C24.7009426,14.8906679 24.9326091,14.9455033 25.0785029,15.0555833 C25.2243967,15.1660724 25.2973436,15.3420367 25.2973436,15.5842944 C25.2973436,15.7074694 25.2752992,15.8183678 25.2316112,15.9165804 C25.1875225,16.0143838 25.1257982,16.0958184 25.0464383,16.1596566 C24.9670785,16.223904 24.8764961,16.2680997 24.7742903,16.2922437 L25.4252011,17.3455738 C25.3851204,17.3676717 25.3294082,17.3783114 25.2580645,17.3783114 C25.1514498,17.3783114 25.0672803,17.330842 25.005556,17.2367215 L24.4508389,16.3503528 L24.1342013,16.3503528 L24.1342013,17.3455738 L23.8247782,17.3455738 L23.8247782,14.9229962 Z M23.0031235,16.1215992 C23.0031235,15.8069097 22.9442049,15.5662888 22.8267684,15.3989182 C22.7097327,15.2315475 22.5381872,15.148476 22.3129336,15.148476 C22.0804655,15.148476 21.9037095,15.2311383 21.7830666,15.3972813 C21.6620228,15.5630151 21.601501,15.8044544 21.601501,16.1215992 C21.601501,16.4411994 21.6612212,16.6875494 21.7810626,16.8606491 C21.9009039,17.0337488 22.0744534,17.1205033 22.3021118,17.1205033 C22.5297703,17.1205033 22.7037206,17.0333396 22.8235619,16.8590122 C22.9430025,16.6842756 23.0031235,16.4387441 23.0031235,16.1215992 L23.0031235,16.1215992 Z M23.3265749,16.1179163 C23.3265749,16.5148589 23.2363933,16.8279116 23.0564309,17.0570743 C22.8760677,17.2854186 22.6199519,17.4 22.2880836,17.4 C22.0696437,17.4 21.8856732,17.3484384 21.7349697,17.2457244 C21.5842662,17.1426011 21.4700362,16.9944638 21.391478,16.8009031 C21.3133206,16.6069332 21.2740415,16.380635 21.2740415,16.1215992 C21.2740415,15.8674741 21.3169279,15.6448589 21.4022998,15.4533443 C21.4876717,15.2622389 21.6087155,15.1169661 21.7650303,15.0175259 C21.9217459,14.9184948 22.106518,14.8685701 22.3201482,14.8685701 C22.5357824,14.8685701 22.7185505,14.918904 22.8680515,15.019572 C23.0171518,15.1198307 23.130981,15.2638758 23.2091384,15.4517074 C23.2876966,15.6391298 23.3265749,15.8613358 23.3265749,16.1179163 L23.3265749,16.1179163 Z M20.6872599,15.3080715 C20.6259364,15.2597836 20.5521879,15.2209078 20.4668159,15.1918532 C20.381444,15.1627987 20.2948697,15.148476 20.2074937,15.148476 C20.0648064,15.148476 19.9557868,15.1803951 19.8800343,15.2446425 C19.8038809,15.3088899 19.766205,15.3976905 19.766205,15.5114534 C19.766205,15.5769285 19.7810349,15.6342192 19.8106946,15.6841439 C19.8403544,15.7336595 19.8896536,15.7782643 19.9581917,15.8183678 C20.0271305,15.8584713 20.1373525,15.902667 20.2892584,15.9509548 C20.5048926,16.0213405 20.6624098,16.1138241 20.7622108,16.2288147 C20.861611,16.3438053 20.9117119,16.487032 20.9117119,16.6593133 C20.9117119,16.8888852 20.8399674,17.0701693 20.6964784,17.2019379 C20.5529895,17.3341157 20.356594,17.4 20.1076927,17.4 C19.9774304,17.4 19.855585,17.3856773 19.7429582,17.3566228 C19.6303314,17.3275682 19.5421539,17.2886924 19.4780247,17.2399953 C19.4187053,17.2015287 19.3890455,17.1565146 19.3890455,17.1057714 C19.3890455,17.0816275 19.3990657,17.0497084 19.4195069,17.0096049 C19.4395472,16.9695014 19.4651989,16.9289887 19.4956602,16.8880668 C19.5858418,16.9629539 19.6836388,17.021063 19.7894519,17.0623942 C19.8948641,17.1037253 20.001078,17.1241863 20.1076927,17.1241863 C20.2640075,17.1241863 20.3838489,17.0873565 20.4668159,17.0132879 C20.549783,16.9396284 20.591467,16.8369144 20.591467,16.7063735 C20.591467,16.6261665 20.5774387,16.5574177 20.5485806,16.4993086 C20.5201233,16.4411994 20.4740305,16.3912747 20.4099013,16.3487159 C20.346173,16.3061571 20.2499793,16.2644167 20.1221218,16.2230856 C19.9441634,16.1702963 19.8094922,16.1138241 19.7181082,16.0544873 C19.6267242,15.9951505 19.5585869,15.9231279 19.5136965,15.8384196 C19.4684053,15.7537112 19.4459601,15.6530433 19.4459601,15.536825 C19.4459601,15.3964628 19.4780247,15.2765616 19.5421539,15.1775306 C19.606283,15.0780903 19.695663,15.0019755 19.8106946,14.948777 C19.9257263,14.8951693 20.0575918,14.8685701 20.2074937,14.8685701 C20.3020842,14.8685701 20.3990795,14.8808467 20.4988805,14.9049906 C20.5986815,14.9291345 20.6816486,14.9618721 20.7477817,15.0032032 C20.7954778,15.0318485 20.8295464,15.0604939 20.85119,15.0883208 C20.8724328,15.1161477 20.8832546,15.1460207 20.8832546,15.1775306 C20.8832546,15.2282738 20.8439755,15.2933396 20.7658181,15.3735466 C20.7561987,15.3637253 20.7449761,15.3534948 20.7317495,15.3424459 C20.7189236,15.3318062 20.7040938,15.3203481 20.6872599,15.3080715 L20.6872599,15.3080715 Z M17.7597645,14.9156303 L19.1333306,14.9156303 C19.1377394,14.9401834 19.1401443,14.965555 19.1401443,14.9921543 C19.1401443,15.1231044 19.0675982,15.1881703 18.9229068,15.1881703 L18.0691876,15.1881703 L18.0691876,15.9366322 L18.8772148,15.9366322 L18.8772148,16.2161289 L18.0691876,16.2161289 L18.0691876,17.0730339 L18.9726069,17.0730339 C19.0439506,17.0730339 19.0984603,17.0902211 19.136537,17.1241863 C19.1746137,17.1577422 19.1934516,17.2064393 19.1934516,17.2694591 C19.1934516,17.293603 19.1922492,17.3189746 19.1898444,17.3455738 L17.7597645,17.3455738 L17.7597645,14.9156303 Z M16.3477209,16.0814958 C16.7389087,16.0814958 16.9349034,15.9219003 16.9349034,15.6023001 C16.9349034,15.4447507 16.8908146,15.3318062 16.8030378,15.2626482 C16.7152611,15.1938993 16.5645576,15.1591157 16.3513282,15.1591157 C16.2399038,15.1591157 16.1545319,15.1640263 16.0952124,15.1734384 L16.0952124,16.0814958 L16.3477209,16.0814958 Z M15.7857893,14.9229962 C15.9328855,14.9013076 16.11886,14.8906679 16.3441137,14.8906679 C16.6619537,14.8906679 16.8940211,14.9455033 17.0395141,15.0555833 C17.1854079,15.1660724 17.2583548,15.3420367 17.2583548,15.5842944 C17.2583548,15.7074694 17.2363104,15.8183678 17.1926224,15.9165804 C17.1489344,16.0143838 17.0872101,16.0958184 17.0078503,16.1596566 C16.9280897,16.223904 16.8375073,16.2680997 16.7357022,16.2922437 L17.386613,17.3455738 C17.3461315,17.3672625 17.2904193,17.3783114 17.2194765,17.3783114 C17.112461,17.3783114 17.0282915,17.330842 16.9665672,17.2367215 L16.4118501,16.3503528 L16.0952124,16.3503528 L16.0952124,17.3455738 L15.7857893,17.3455738 L15.7857893,14.9229962 Z M13.242668,16.0598071 C13.0955718,16.1228269 12.9841474,16.2038523 12.907994,16.3032926 C12.8322415,16.4027328 12.7945656,16.5160865 12.7945656,16.6445814 C12.7945656,16.7849436 12.837452,16.8987065 12.9240263,16.9858702 C13.0106007,17.0730339 13.1252315,17.1168203 13.267518,17.1168203 C13.3789424,17.1168203 13.4771402,17.0918579 13.5625121,17.0423424 C13.647884,16.9928269 13.7344584,16.9097554 13.8222351,16.7935372 L13.242668,16.0598071 Z M14.0001935,17.007968 C13.8815546,17.1385089 13.7629157,17.2342662 13.6446776,17.2948307 C13.5260386,17.3553951 13.3977804,17.3856773 13.2603035,17.3856773 C13.099179,17.3856773 12.9617022,17.3558043 12.847873,17.2964675 C12.7336429,17.2371308 12.6466678,17.1528316 12.5861459,17.0439793 C12.525624,16.935127 12.4955635,16.8090875 12.4955635,16.66627 C12.4955635,16.4776199 12.5468668,16.3127046 12.650275,16.1723424 C12.7532825,16.0319802 12.8999779,15.9219003 13.0895597,15.8421025 C13.0302402,15.7647601 12.9893579,15.693556 12.9669127,15.6297178 C12.9440667,15.5654704 12.9332449,15.4934478 12.9332449,15.4132408 C12.9332449,15.3068438 12.9609006,15.211905 13.0166128,15.1284243 C13.072325,15.0445343 13.1472759,14.9806961 13.240664,14.9360913 C13.3344528,14.8910771 13.4370595,14.8685701 13.5484838,14.8685701 C13.7192277,14.8685701 13.8627166,14.9086736 13.9789507,14.9884713 C14.0310556,15.0273471 14.0571081,15.0707244 14.0571081,15.1194214 C14.0571081,15.165254 14.0214363,15.2282738 13.9504934,15.3080715 L13.9148216,15.3080715 C13.8530973,15.2475071 13.7949802,15.204539 13.7404705,15.1791675 C13.6859607,15.1537959 13.6254388,15.1411101 13.5589048,15.1411101 C13.4667192,15.1411101 13.3917683,15.1677093 13.3348536,15.2209078 C13.277939,15.2745155 13.2494817,15.344492 13.2494817,15.4316557 C13.2494817,15.4848542 13.2611051,15.5376435 13.2835503,15.5896143 C13.3059955,15.6415851 13.3456754,15.7050141 13.40259,15.7803104 C13.4643143,15.8576529 13.5288443,15.9394967 13.5965807,16.0254327 C13.6639163,16.1113688 13.7320535,16.1973048 13.8009923,16.2832408 C13.8695304,16.3691769 13.9348619,16.4510207 13.9965862,16.5283631 C14.0679299,16.3519897 14.1044034,16.164158 14.1068082,15.9652775 C14.1068082,15.878523 14.1056058,15.8142756 14.1032009,15.7729445 L14.6759543,15.7729445 L14.6759543,16.009064 L14.362924,16.009064 C14.3508997,16.2901976 14.2891754,16.5418674 14.1781519,16.7644826 L14.6334688,17.3345249 C14.5717445,17.3639887 14.5136274,17.3783114 14.4591177,17.3783114 C14.3665312,17.3783114 14.2883738,17.3418909 14.2242447,17.2694591 L14.0001935,17.007968 Z M11.2294137,15.3080715 C11.1676894,15.2597836 11.0939409,15.2209078 11.008569,15.1918532 C10.9235979,15.1627987 10.8366227,15.148476 10.7492468,15.148476 C10.6065594,15.148476 10.4975399,15.1803951 10.4217873,15.2446425 C10.3460348,15.3088899 10.3079581,15.3976905 10.3079581,15.5114534 C10.3079581,15.5769285 10.322788,15.6342192 10.3524477,15.6841439 C10.3821074,15.7336595 10.4314067,15.7782643 10.4999447,15.8183678 C10.5688835,15.8584713 10.6791055,15.902667 10.8310114,15.9509548 C11.0466457,16.0213405 11.2041629,16.1138241 11.3039638,16.2288147 C11.403364,16.3438053 11.4530641,16.487032 11.4530641,16.6593133 C11.4530641,16.8888852 11.3817204,17.0701693 11.2382315,17.2019379 C11.0947425,17.3341157 10.898347,17.4 10.6494458,17.4 C10.5191835,17.4 10.3973381,17.3856773 10.2851121,17.3566228 C10.1720845,17.327159 10.0839069,17.2886924 10.0197778,17.2399953 C9.9604583,17.2015287 9.93079857,17.1565146 9.93079857,17.1057714 C9.93079857,17.0816275 9.94081875,17.0497084 9.96125992,17.0096049 C9.98130027,16.9695014 10.0069519,16.9289887 10.0378141,16.8880668 C10.1279957,16.9629539 10.2253918,17.021063 10.3312049,17.0623942 C10.4366172,17.1037253 10.5428311,17.1241863 10.6494458,17.1241863 C10.8061614,17.1241863 10.9256019,17.0869473 11.008569,17.0132879 C11.0919369,16.9396284 11.13322,16.8369144 11.13322,16.7063735 C11.13322,16.6261665 11.1191918,16.5574177 11.0907344,16.4993086 C11.0618763,16.4411994 11.0157835,16.3908655 10.9516544,16.3487159 C10.887926,16.3061571 10.7917323,16.2644167 10.6638748,16.2230856 C10.4859165,16.1702963 10.3512453,16.1138241 10.2598612,16.0544873 C10.1684772,15.9951505 10.10034,15.9231279 10.0554496,15.8384196 C10.0101584,15.7537112 9.98771319,15.6530433 9.98771319,15.536825 C9.98771319,15.3964628 10.0197778,15.2765616 10.0839069,15.1771214 C10.148036,15.0780903 10.237416,15.0019755 10.3524477,14.948777 C10.4674793,14.8951693 10.5997457,14.8685701 10.7492468,14.8685701 C10.8438372,14.8685701 10.9412334,14.8808467 11.0406336,14.9049906 C11.1404345,14.9291345 11.2234016,14.9618721 11.2895348,15.0032032 C11.3372308,15.0318485 11.3717003,15.0604939 11.392943,15.0883208 C11.4141858,15.1161477 11.4250076,15.1460207 11.4250076,15.1771214 C11.4250076,15.2282738 11.3857285,15.2933396 11.3075711,15.3735466 C11.2979517,15.3637253 11.2867291,15.3534948 11.2739033,15.3424459 C11.2606767,15.3318062 11.2458468,15.3203481 11.2294137,15.3080715 L11.2294137,15.3080715 Z M8.40853305,14.9123565 C8.44660972,14.9074459 8.47626945,14.9049906 8.49751223,14.9049906 C8.64460845,14.9049906 8.71795616,14.9811054 8.71795616,15.1337441 L8.71795616,17.0693509 L9.54321807,17.0693509 C9.61175609,17.0693509 9.66466263,17.0865381 9.70153689,17.1205033 C9.73801034,17.1540593 9.75684827,17.2015287 9.75684827,17.2620931 C9.75684827,17.2886924 9.75564585,17.3165193 9.7528402,17.3455738 L8.40853305,17.3455738 L8.40853305,14.9123565 Z M6.59808718,14.9156303 L7.97125245,14.9156303 C7.97566133,14.9401834 7.97806617,14.965555 7.97806617,14.9921543 C7.97806617,15.1226952 7.90552008,15.1881703 7.76122951,15.1881703 L6.9075103,15.1881703 L6.9075103,15.936223 L7.71473588,15.936223 L7.71473588,16.2161289 L6.9075103,16.2161289 L6.9075103,17.0730339 L7.8109296,17.0730339 C7.88227327,17.0730339 7.93638223,17.0898119 7.97445891,17.1241863 C8.01253559,17.1577422 8.03137352,17.2064393 8.03137352,17.2694591 C8.03137352,17.293603 8.0301711,17.3189746 8.02776626,17.3455738 L6.59808718,17.3455738 L6.59808718,14.9156303 Z M5.19285734,15.1918532 L4.4389391,15.1918532 C4.43172458,15.1578881 4.42811731,15.1239229 4.42811731,15.0903669 C4.42811731,15.0392145 4.44815767,14.9978833 4.48863919,14.9647366 C4.5287199,14.9319991 4.58122564,14.9156303 4.64535478,14.9156303 L6.27784228,14.9156303 C6.28265196,14.9500047 6.2850568,14.9774224 6.2850568,14.9995202 C6.2850568,15.0576294 6.26541725,15.1042803 6.22653896,15.1394732 C6.18685905,15.1742568 6.13435332,15.1918532 6.06781933,15.1918532 L5.50588772,15.1918532 L5.50588772,17.3455738 L5.19285734,17.3455738 L5.19285734,15.1918532 Z M3.98362219,16.1215992 C3.98362219,15.8069097 3.92470354,15.5662888 3.80766786,15.3989182 C3.69023136,15.2315475 3.51868591,15.148476 3.29343229,15.148476 C3.06096415,15.148476 2.8842082,15.2311383 2.76356525,15.3972813 C2.64252149,15.5630151 2.58199961,15.8044544 2.58199961,16.1215992 C2.58199961,16.4411994 2.64212068,16.6875494 2.76156121,16.8606491 C2.88140255,17.0337488 3.05495204,17.1205033 3.2826105,17.1205033 C3.51026896,17.1205033 3.68421926,17.0329304 3.80365978,16.8590122 C3.92350112,16.6842756 3.98362219,16.4387441 3.98362219,16.1215992 L3.98362219,16.1215992 Z M4.30747436,16.1179163 C4.30747436,16.5148589 4.21689195,16.8279116 4.03692954,17.0570743 C3.85656633,17.2854186 3.60045056,17.4 3.26858225,17.4 C3.05014236,17.4 2.86617188,17.3484384 2.71546839,17.2457244 C2.56476491,17.1426011 2.45053487,16.9944638 2.37237748,16.8009031 C2.29381928,16.6069332 2.25494098,16.380635 2.25494098,16.1215992 C2.25494098,15.8674741 2.29742654,15.6448589 2.38279846,15.4533443 C2.46817038,15.2622389 2.58921414,15.1169661 2.74592973,15.0175259 C2.90224452,14.9184948 3.08701661,14.8685701 3.30064682,14.8685701 C3.51628106,14.8685701 3.69904912,14.918904 3.84855018,15.019572 C3.99765044,15.1198307 4.11147967,15.2638758 4.19003787,15.4517074 C4.26819526,15.6391298 4.30747436,15.8613358 4.30747436,16.1179163 L4.30747436,16.1179163 Z M0.0104209857,14.9123565 C0.0480968571,14.9074459 0.0777565857,14.9049906 0.0994001714,14.9049906 C0.246095586,14.9049906 0.3198441,14.9811054 0.3198441,15.1337441 L0.3198441,15.9435889 L1.45092186,15.9435889 L1.45092186,14.9123565 C1.48899853,14.9074459 1.51825746,14.9049906 1.53990104,14.9049906 C1.68699726,14.9049906 1.76034497,14.9811054 1.76034497,15.1337441 L1.76034497,17.3455738 L1.45092186,17.3455738 L1.45092186,16.2198119 L0.3198441,16.2198119 L0.3198441,17.3455738 L0.0104209857,17.3455738 L0.0104209857,14.9123565 Z M26.5803273,0.00163687676 L26.5803273,6.75989182 C26.5803273,8.61283631 25.9903392,9.90105833 24.0484286,9.90105833 C22.0948945,9.90105833 21.568234,8.61079022 21.568234,6.76030103 L21.568234,1.83575729 C21.568234,-0.0781608655 19.1485612,0.00163687676 19.1485612,0.00163687676 L19.1485612,6.93667451 C19.1485612,9.98944967 20.5369572,12.1951411 24.0484286,12.1951411 C27.5570943,12.1951411 29,9.7598777 29,6.93667451 L29,0.00163687676 L26.5803273,0.00163687676 Z M13.1601017,0.00163687676 L13.1601017,12.000762 L15.5797744,12.000762 L15.5797744,1.83575729 C15.5797744,-0.0781608655 13.1601017,0.00163687676 13.1601017,0.00163687676 L13.1601017,0.00163687676 Z M5.4265279,5.73520696 L2.41967272,5.73520696 L2.41967272,2.15290216 L5.4265279,2.15290216 C6.53275562,2.15290216 7.3283578,2.77041392 7.3283578,3.95305738 C7.3283578,5.06449671 6.53275562,5.73520696 5.4265279,5.73520696 L5.4265279,5.73520696 Z M8.39731045,8.99832079 C7.98087182,8.25517874 7.66182934,7.73792568 7.42775797,7.38313264 C8.85262736,6.83314205 9.85143876,5.5633349 9.85143876,3.89985889 C9.85143876,0.953071496 7.48427177,0 5.1680073,0 L0,0 L0,11.9995343 L2.41967272,11.9995343 L2.41967272,7.6765428 L3.59483926,7.6765428 C3.7820162,7.6765428 3.96478426,7.68022578 4.14755231,7.68472719 C4.43252619,7.70273283 4.92191171,7.83286453 5.27863007,8.42336783 C5.6505791,9.04947319 5.8469746,9.47547037 6.40529895,10.4236312 C7.01853388,11.4614111 7.63657849,12.1951411 8.7259723,12.1951411 C10.0991376,12.1951411 10.2851121,10.8348965 10.2851121,10.8348965 C9.42417835,10.55008 8.8101418,9.73491533 8.39731045,8.99832079 L8.39731045,8.99832079 Z"></path>
            </g>
        </g>
    </g>
</svg>