<?xml version="1.0" encoding="utf-8"?>
<!-- Generator: Adobe Illustrator 16.0.0, SVG Export Plug-In . SVG Version: 6.00 Build 0)  -->
<!DOCTYPE svg PUBLIC "-//W3C//DTD SVG 1.1//EN" "http://www.w3.org/Graphics/SVG/1.1/DTD/svg11.dtd">
<svg version="1.1" id="Layer_1" xmlns="http://www.w3.org/2000/svg" xmlns:xlink="http://www.w3.org/1999/xlink" x="0px" y="0px"
	 width="77px" height="75px" viewBox="0 0 77 75" enable-background="new 0 0 77 75" xml:space="preserve">
<title>asiento / estandar</title>
<desc>Created with Sketch.</desc>
<g id="Symbols">
	<g id="asiento-_x2F_-estandar">
		<g id="Group" transform="translate(1.000000, 11.000000)">
			<polygon id="Path" fill="#777777" points="69.746,41.779 73.746,41.779 73.746,62.779 0.746,62.779 0.746,41.779 4.746,41.779 
				4.746,0.78 69.746,0.78 			"/>
			<polygon id="relleno" fill="#EEEEEE" points="66.746,41.779 66.744,3.78 7.746,3.761 7.746,41.779 7.746,44.779 3.746,44.777 
				3.731,59.777 70.746,59.721 70.756,44.779 66.746,44.779 			"/>
			<rect id="linea" x="7.75" y="41.8" fill="#D8D8D8" width="58.99" height="3"/>
		</g>
	</g>
</g>
<g>
	<path fill="#A20067" d="M32.698,25.56c2.602-0.171,3.299-1.791,3.147-4.22c-0.159-2.435-1.052-3.949-3.665-3.792
		c-2.604,0.172-3.296,1.788-3.147,4.225C29.192,24.204,30.085,25.723,32.698,25.56"/>
	<path fill="#A20067" d="M30.554,27.479l-0.233,0.047l2.541,13.922l0.03,0.128h0.011c0.255,1.099,1.333,3.65,2.38,3.799
		l14.181,0.188c1.396,0.201,2.687-0.756,2.89-2.155c0.211-1.392-0.756-2.687-2.152-2.886l-7.002-0.09l-0.445,0.043l0.021-0.024
		c-1.859-7.935-6.33-13.003-6.33-13.003l-0.036-0.026C35.394,27.029,33.172,26.979,30.554,27.479"/>
	<path fill="#A20067" d="M59.23,57.303l-5.709-8.955l-2.623,5.51l3.961,6.224c0.768,1.212,2.375,1.569,3.576,0.798
		C59.641,60.104,59.998,58.504,59.23,57.303"/>
	<path fill="#A20067" d="M51.777,47.538l-20.181-0.237L27.099,26.04v0.005l-3.251-0.455c0,0,0.755,7.826,1.447,13.782
		c-4.659,2.669-7.817,7.683-7.817,13.435c0,8.541,6.931,15.469,15.467,15.469c8.55,0,15.472-6.928,15.472-15.469
		c0-0.121-0.015-0.238-0.015-0.365C51.879,50.289,51.777,47.538,51.777,47.538 M32.944,64.463c-6.42,0-11.65-5.232-11.65-11.656
		c0-3.744,1.78-7.068,4.529-9.201c0-0.017-0.006-0.041-0.006-0.054c0.05,0.341,0.099,0.655,0.145,0.939
		c0.745,4.725,2.23,10.397,7.674,10.397c4.785,0.229,8.299-0.158,10.899-0.85C43.922,59.889,38.959,64.463,32.944,64.463
		 M25.688,42.615c0.003,0.044,0.017,0.085,0.018,0.124C25.704,42.7,25.69,42.659,25.688,42.615"/>
</g>
</svg>
