<?xml version="1.0" encoding="utf-8"?>
<!-- Generator: Adobe Illustrator 16.0.0, SVG Export Plug-In . SVG Version: 6.00 Build 0)  -->
<!DOCTYPE svg PUBLIC "-//W3C//DTD SVG 1.1//EN" "http://www.w3.org/Graphics/SVG/1.1/DTD/svg11.dtd">
<svg version="1.1" id="Layer_1" xmlns="http://www.w3.org/2000/svg" xmlns:xlink="http://www.w3.org/1999/xlink" x="0px" y="0px"
	 width="77px" height="75px" viewBox="0 0 77 75" enable-background="new 0 0 77 75" xml:space="preserve">
<title>asiento / estandar</title>
<desc>Created with Sketch.</desc>
<g id="Symbols">
	<g id="asiento-_x2F_-estandar">
		<g id="Group" transform="translate(1.000000, 11.000000)">
			<polygon id="Path" fill="#777777" points="69.746,41.779 73.746,41.779 73.746,62.779 0.746,62.779 0.746,41.779 4.746,41.779 
				4.746,0.78 69.746,0.78 			"/>
			<polygon id="relleno" fill="#EEEEEE" points="66.746,41.779 66.744,3.78 7.746,3.761 7.746,41.779 7.746,44.779 3.746,44.777 
				3.731,59.777 70.746,59.721 70.756,44.779 66.746,44.779 			"/>
			<rect id="linea" x="7.75" y="41.8" fill="#D8D8D8" width="58.99" height="3"/>
		</g>
	</g>
</g>
<g>
	<path fill="#A20067" d="M35.709,59.916l2.153-3.008c-1.198-2.591-3.975-4.492-6.045-4.425c0,0-2.749,3.984-2.827,4.197
		c-1.177,1.682-0.396,3.116,0.188,3.723l5.191,7.143c0.71,0.742,2.432,0.436,3.252-0.621c0.536-0.683,0.827-1.316,0.241-2.705
		L35.709,59.916z"/>
	<path fill="#A20067" d="M45.135,52.483c-2.075-0.067-4.843,1.834-6.05,4.425l2.156,3.008l-2.156,4.304
		c-0.576,1.389-0.291,2.022,0.245,2.705c0.82,1.057,2.543,1.363,3.252,0.621l5.191-7.143c0.582-0.606,1.365-2.041,0.188-3.723
		C47.893,56.468,45.135,52.483,45.135,52.483"/>
	<path fill="#A20067" d="M53.542,43.544c0,0-7.674-8.887-9.26-9.227c-1.503-0.325-9.407-0.325-11.206-0.022
		c-1.686,0.279-9.617,9.249-9.617,9.249c-1.119,1.113-1.119,2.914,0,4.027c1.105,1.118,2.913,1.118,4.023,0l3.913-3.917
		c-0.025,0.557-0.037,1.079-0.037,1.554c0,2.42,0.206,3.609,0.206,3.609s3.198,0.514,6.937,0.514c3.743,0,6.904-0.514,6.904-0.514
		c0.238-2.179,0.069-4.712,0.069-4.712l-0.038-0.607l4.082,4.073c1.109,1.118,2.914,1.118,4.023,0
		C54.659,46.458,54.659,44.657,53.542,43.544"/>
	<path fill="#A20067" d="M38.181,31.236c4.976,0,6.492-2.7,6.492-6.893c0-4.186-1.517-6.888-6.492-6.888
		c-4.959,0-6.479,2.702-6.479,6.888C31.702,28.536,33.222,31.236,38.181,31.236"/>
</g>
</svg>
