<?xml version="1.0" encoding="utf-8"?>
<!-- Generator: Adobe Illustrator 16.0.0, SVG Export Plug-In . SVG Version: 6.00 Build 0)  -->
<!DOCTYPE svg PUBLIC "-//W3C//DTD SVG 1.1//EN" "http://www.w3.org/Graphics/SVG/1.1/DTD/svg11.dtd">
<svg version="1.1" id="Layer_1" xmlns="http://www.w3.org/2000/svg" xmlns:xlink="http://www.w3.org/1999/xlink" x="0px" y="0px"
	 width="77px" height="75px" viewBox="0 0 77 75" enable-background="new 0 0 77 75" xml:space="preserve">
<title>asiento / ocupado</title>
<desc>Created with Sketch.</desc>
<g id="Symbols">
	<g id="asiento-_x2F_-ocupado">
		<polygon id="Path" fill="#777777" points="70.746,52.779 74.746,52.779 74.746,73.779 1.746,73.779 1.746,52.779 5.746,52.779 
			5.746,11.78 70.746,11.78 		"/>
		<polygon id="relleno" fill="#EEEEEE" points="67.746,52.779 67.744,14.78 8.746,14.761 8.746,52.779 8.746,55.779 4.746,55.777 
			4.731,70.777 71.746,70.721 71.756,55.779 67.746,55.779 		"/>
		<path id="Combined-Shape" fill="#D7192D" d="M10.793,17.303H9.402C6.006,17.303,3,19.524,3,22.543v0.759h13.5v-0.759
			C16.5,19.524,14.19,17.303,10.793,17.303L10.793,17.303L10.793,17.303z M68.41,17.303H67.02c-3.396,0-6.645,2.222-6.645,5.241
			v0.759H75v-0.759C75,19.524,71.807,17.303,68.41,17.303L68.41,17.303z M24.484,56.256H14.287c-4.111,0-7.715-2.023-9.616-5.005
			C3.643,50.192,3,48.832,3,47.436V25.303h13.5v11.321h0.759l4.454-4.031l0,0V11.49c0-3.019,2.779-5.49,6.175-5.49h2.464
			c3.397,0,6.176,2.471,6.176,5.49v12.998h4.516V11.49c0-3.019,2.778-5.49,6.174-5.49h2.465c3.396,0,6.176,2.471,6.176,5.49v20.352
			l4.516,4.546V25.303H75v22.133c0,1.33-0.619,2.627-1.604,3.661c-1.873,3.066-5.531,5.159-9.713,5.159H53.521
			c0.331-1.163,0.508-2.389,0.508-3.652v-6.902C54.029,38.157,47.73,32,40.035,32H37.97c-7.694,0-13.994,6.158-13.994,13.701v6.902
			C23.976,53.867,24.153,55.093,24.484,56.256L24.484,56.256L24.484,56.256z"/>
		<path id="cabeza" fill="#D7192D" d="M37.97,64.305c-6.599,0-11.994-5.273-11.994-11.701v-6.902C25.976,39.272,31.371,34,37.97,34
			h2.065c6.6,0,11.994,5.272,11.994,11.701v6.902c0,6.428-5.395,11.701-11.994,11.701H37.97z"/>
	</g>
</g>
</svg>
