<?xml version="1.0" encoding="UTF-8" standalone="no"?>
<svg width="77px" height="75px" viewBox="0 0 77 75" version="1.1" xmlns="http://www.w3.org/2000/svg" xmlns:xlink="http://www.w3.org/1999/xlink">
    <!-- Generator: Sketch 39.1 (31720) - http://www.bohemiancoding.com/sketch -->
    <title>asiento / ocupado</title>
    <desc>Created with Sketch.</desc>
    <defs></defs>
    <g id="Symbols" stroke="none" stroke-width="1" fill="none" fill-rule="evenodd">
        <g id="asiento-/-ocupado">
            <polygon id="Path" fill="#777777" points="70.746 52.78 74.746 52.78 74.746 73.78 1.746 73.78 1.746 52.78 5.746 52.78 5.746 11.78 70.746 11.78"></polygon>
            <polygon id="relleno" fill="#EEEEEE" points="67.746 52.78 67.7439694 14.78 8.746 14.760748 8.746 52.78 8.746 55.78 4.746 55.7770109 4.73113246 70.7774722 71.746 70.720725 71.7557596 55.78 67.746 55.78"></polygon>
            <path d="M10.7936625,17.3025 L9.4020375,17.3025 C6.0056625,17.3025 2.9996625,19.5245 2.9996625,22.5435 L2.9996625,23.3025 L16.4996625,23.3025 L16.4996625,22.5435 C16.4996625,19.5245 14.1900375,17.3025 10.7936625,17.3025 L10.7936625,17.3025 L10.7936625,17.3025 Z M68.41065,17.3025 L67.019025,17.3025 C63.62265,17.3025 60.374775,19.5245 60.374775,22.5435 L60.374775,23.3025 L74.999775,23.3025 L74.999775,22.5435 C74.999775,19.5245 71.807025,17.3025 68.41065,17.3025 L68.41065,17.3025 Z M24.4840361,56.2565 L14.287125,56.2565 C10.1763442,56.2565 6.57159891,54.2328162 4.6708831,51.2509524 C3.64319239,50.1925083 3,48.8323554 3,47.4356 L3,25.3026 L16.5,25.3026 L16.5,36.6235 L17.2590496,36.6235 L21.713475,32.592987 L21.713475,32.592987 L21.713475,11.4898 C21.713475,8.4708 24.492225,5.9998 27.8886,5.9998 L30.35235,5.9998 C33.74985,5.9998 36.5286,8.4708 36.5286,11.4898 L36.5286,24.4876 L41.04435,24.4876 L41.04435,11.4898 C41.04435,8.4708 43.8231,5.9998 47.219475,5.9998 L49.683225,5.9998 C53.080725,5.9998 55.859475,8.4708 55.859475,11.4898 L55.859475,31.84138 L60.375,36.3870689 L60.375,25.3026 L75,25.3026 L75,47.4356 C75,48.7654804 74.3804678,50.0621794 73.3969045,51.0968754 C71.523035,54.1628906 67.8648238,56.2565 63.683625,56.2565 L53.5216777,56.2565 C53.8524073,55.0926712 54.0293125,53.8674624 54.0293125,52.6033282 L54.0293125,45.7008718 C54.0293125,38.1573909 47.7299341,32 40.0355625,32 L37.9700625,32 C30.276441,32 23.9763125,38.1577564 23.9763125,45.7008718 L23.9763125,52.6033282 C23.9763125,53.8674473 24.1532516,55.0926585 24.4840361,56.2565 L24.4840361,56.2565 L24.4840361,56.2565 Z" id="Combined-Shape" fill="#777777"></path>
            <path d="M37.9700625,64.3042 C31.3709081,64.3042 25.9763125,59.0315131 25.9763125,52.6033282 L25.9763125,45.7008718 C25.9763125,39.2726869 31.3709081,34 37.9700625,34 L40.0355625,34 C46.6354409,34 52.0293125,39.2722941 52.0293125,45.7008718 L52.0293125,52.6033282 C52.0293125,59.0319059 46.6354409,64.3042 40.0355625,64.3042 L37.9700625,64.3042 Z" id="cabeza" fill="#777777"></path>
        </g>
    </g>
</svg>