<?xml version="1.0" encoding="UTF-8" standalone="no"?>
<svg width="77px" height="75px" viewBox="0 0 77 75" version="1.1" xmlns="http://www.w3.org/2000/svg" xmlns:xlink="http://www.w3.org/1999/xlink">
    <!-- Generator: Sketch 39.1 (31720) - http://www.bohemiancoding.com/sketch -->
    <title>asiento / bloqueado</title>
    <desc>Created with Sketch.</desc>
    <defs></defs>
    <g id="Symbols" stroke="none" stroke-width="1" fill="none" fill-rule="evenodd">
        <g id="asiento-/-bloqueado">
            <polygon id="Path" fill="#777777" points="70.746 52.78 74.746 52.78 74.746 73.78 1.746 73.78 1.746 52.78 5.746 52.78 5.746 11.78 70.746 11.78"></polygon>
            <polygon id="relleno" fill="#EEEEEE" points="67.746 52.78 67.7439694 14.78 8.746 14.760748 8.746 52.78 8.746 55.78 4.746 55.7770109 4.73113246 70.7774722 71.746 70.720725 71.7557596 55.78 67.746 55.78"></polygon>
            <rect id="linea" fill="#D8D8D8" x="8.75" y="52.7999992" width="58.9900017" height="3"></rect>
            <path d="M41.1213203,34.9999999 L47.5606602,41.4393398 C48.1464466,42.0251263 48.1464466,42.9748737 47.5606602,43.5606602 C46.9748737,44.1464466 46.0251263,44.1464466 45.4393398,43.5606602 L38.9999999,37.1213203 L32.5606602,43.5606599 C31.9748737,44.1464463 31.0251262,44.1464463 30.4393398,43.5606598 C29.8535534,42.9748734 29.8535534,42.0251259 30.4393398,41.4393395 L36.8786796,34.9999999 L30.4393398,28.5606602 C29.8535534,27.9748737 29.8535534,27.0251263 30.4393398,26.4393398 C31.0251263,25.8535534 31.9748737,25.8535534 32.5606602,26.4393398 L38.9999999,32.8786796 L45.4393398,26.4393398 C46.0251263,25.8535534 46.9748738,25.8535534 47.5606602,26.4393398 C48.1464466,27.0251263 48.1464466,27.9748738 47.5606602,28.5606602 L41.1213203,34.9999999 Z" id="Combined-Shape" fill="#777777"></path>
        </g>
    </g>
</svg>