<?xml version="1.0" encoding="UTF-8" standalone="no"?>
<svg width="41px" height="157px" viewBox="0 0 41 157" version="1.1" xmlns="http://www.w3.org/2000/svg" xmlns:xlink="http://www.w3.org/1999/xlink">
    <!-- Generator: Sketch 39.1 (31720) - http://www.bohemiancoding.com/sketch -->
    <title>asientos / exit</title>
    <desc>Created with Sketch.</desc>
    <defs></defs>
    <g id="Symbols" stroke="none" stroke-width="1" fill="none" fill-rule="evenodd">
        <g id="asientos-/-exit">
            <polygon id="Fill-27" fill="#BC2C39" transform="translate(20.750000, 78.720000) rotate(-180.000000) translate(-20.750000, -78.720000) " points="0.75 156.72 40.75 156.72 40.75 0.72 0.75 0.72"></polygon>
            <path d="M23.64,32.6 L23.64,21.23 L28.02,21.23 L28.02,33.25 L33.54,33.25 L33.54,14.46 L7.21,14.46 L7.21,33.91 L12.74,33.91 L12.74,21.23 L18.15,21.23 L18.15,32.6 L23.64,32.6 L23.64,32.6 L23.64,32.6 L23.64,32.6 L23.64,32.6 Z M15.7999878,62.2599999 C14.577327,63.1059035 7.21,68.61 7.21,68.61 L7.21,76.79 L20.67,66.54 L33.54,76.63 L33.54,68.44 C33.54,68.44 26.4702765,63.1728407 25.2703867,62.4400002 C24.8771593,62.7046535 33.54,56.66 33.54,56.66 L33.54,48.51 L20.52,58.22 L7.21,48.14 L7.21,56.28 C7.21,56.28 16.2170645,62.5324692 15.7999878,62.2599999 L15.7999878,62.2599999 L15.7999878,62.2599999 L15.7999878,62.2599999 L15.7999878,62.2599999 Z M33.54,92.7 L7.21,92.7 L7.21,99.48 L33.54,99.48 L33.54,92.7 L33.54,92.7 L33.54,92.7 L33.54,92.7 L33.54,92.7 Z M27.98,115.79 L33.54,115.79 L33.54,140.45 L27.98,140.45 L27.98,131.51 L7.21,131.51 L7.21,124.69 L27.9800005,124.69 L27.98,115.79 L27.98,115.79 L27.98,115.79 L27.98,115.79 L27.98,115.79 Z" id="exit" fill="#FFFFFF" transform="translate(20.375000, 77.455000) rotate(-180.000000) translate(-20.375000, -77.455000) "></path>
        </g>
    </g>
</svg>