<?xml version="1.0" encoding="UTF-8" standalone="no"?>
<svg width="47px" height="54px" viewBox="0 0 47 54" version="1.1" xmlns="http://www.w3.org/2000/svg" xmlns:xlink="http://www.w3.org/1999/xlink">
    <!-- Generator: Sketch 39.1 (31720) - http://www.bohemiancoding.com/sketch -->
    <title>asientos / comida</title>
    <desc>Created with Sketch.</desc>
    <defs></defs>
    <g id="Symbols" stroke="none" stroke-width="1" fill="none" fill-rule="evenodd">
        <g id="asientos-/-comida" fill="#6D6E6C">
            <path d="M23.2212057,0.541081052 L19.6941149,0.13619094 C19.6941149,0.13619094 20.421618,5.07974764 20.1977375,9.29883252 C19.8781558,15.2517998 19.1796663,15.2517998 19.1796663,15.2517998 L16.1141934,16.5682339 L15.5014453,0.0621415182 C14.6150174,0.0318288895 14.344802,0.00194929834 13.4419187,0.00194929834 C12.5533256,0.00194929834 12.4567582,0.0231681384 11.5638348,0.0517486169 L10.7679118,16.5682339 L7.93324797,15.3284474 C7.93324797,15.3284474 7.14771785,15.3284474 6.80042173,9.42441341 C6.55575551,5.30232895 7.61366626,0.207642136 7.61366626,0.207642136 C6.12834745,0.295548759 3.68644869,0.506871085 3.68644869,0.506871085 L0,14.9452092 C0.871704594,20.9072702 9.24145442,22.7346887 9.24145442,22.7346887 C9.02406957,25.2805165 8.29656648,35.9570573 8.29656648,35.9570573 C8.2922361,42.2681466 8.93356472,49.7523346 9.45364282,53.8891424 C10.1646905,53.9571293 11.9046354,53.9909062 13.6831206,54 C15.4646371,53.9909062 17.2102115,53.9571293 17.9121653,53.8891424 C18.4309443,49.7523346 19.0891614,42.2018919 19.0852641,35.8942669 C19.0852641,35.8942669 18.4785785,25.2839808 18.2646579,22.7398851 C18.2646579,22.7398851 26.1563343,20.4486834 27.0258737,14.9452092 L23.2212057,0.541081052 Z M44.9787445,0.920854986 C45.8907216,8.51633366 48.028628,44.8226351 46.1232628,53.8800486 C45.4122151,53.9480355 43.6281004,53.9553971 41.8496152,53.9640579 C40.0685317,53.9553971 38.1415146,53.9246515 37.4395608,53.8566646 C37.0225456,50.5283379 36.4336145,45.5536025 36.7055621,41.0716639 C36.7895714,39.6703543 38.9573574,31.3426092 38.9573574,31.3426092 C34.9872691,31.3426092 33.4815975,27.7449332 32.9900999,25.4160572 L37.4018865,4.16647144 C42.2501749,-2.61359752 44.9787445,0.920854986 44.9787445,0.920854986 Z" id="Combined-Shape"></path>
        </g>
    </g>
</svg>