<?xml version="1.0" encoding="UTF-8" standalone="no"?>
<svg width="55px" height="54px" viewBox="0 0 55 54" version="1.1" xmlns="http://www.w3.org/2000/svg" xmlns:xlink="http://www.w3.org/1999/xlink">
    <!-- Generator: Sketch 39.1 (31720) - http://www.bohemiancoding.com/sketch -->
    <title>asientos / baño</title>
    <desc>Created with Sketch.</desc>
    <defs></defs>
    <g id="Symbols" stroke="none" stroke-width="1" fill="none" fill-rule="evenodd">
        <g id="asientos-/-baño" fill="#6D6E6C">
            <path d="M13.1776068,10.6730253 C16.7928932,10.6730253 17.8923919,8.64384458 17.8923919,5.50568291 C17.8923919,2.36838325 16.7928932,0.339202477 13.1776068,0.339202477 C9.56490646,0.339202477 8.46325267,2.36838325 8.46325267,5.50568291 C8.46325267,8.64384458 9.56490646,10.6730253 13.1776068,10.6730253 Z M13.2224315,54 L15.7024456,53.93578 L17.3829417,38.8341581 L21.2525222,37.8743056 C21.2525222,37.8743056 20.4482632,35.1223262 19.5724571,32.1798416 C18.6962199,29.2373571 17.7484356,26.5483047 17.7484356,26.5483047 L18.8436243,18.4203755 L25.0466765,23.6040962 L26.3603857,21.300364 L19.3466094,13.4081955 C19.3466094,13.4081955 17.5471554,11.8841549 13.2224315,11.8634666 L13.2224315,11.8604495 L13.1810548,11.8621736 L13.1396782,11.8604495 L13.1396782,11.8634666 C8.81366132,11.8841549 7.01550029,13.4081955 7.01550029,13.4081955 L0,21.300364 L1.31370921,23.6040962 L7.51848541,18.4203755 L8.61324309,26.5483047 C8.61324309,26.5483047 7.66373476,29.2373571 6.78792861,32.1798416 C5.91212247,35.1223262 5.11001852,37.8743056 5.11001852,37.8743056 L8.97787498,38.8341581 L10.6562161,53.93578 L13.1383852,54 L13.2224315,54 Z M43.6092842,10.0773737 C40.0858023,10.0773737 39.0100089,8.09905178 39.0100089,5.0406264 C39.0100089,1.98004597 40.0858023,0 43.6092842,0 C47.1327661,0 48.2064044,1.98004597 48.2064044,5.0406264 C48.2064044,8.09905178 47.1327661,10.0773737 43.6092842,10.0773737 Z M43.6071292,11.4647851 L43.6032501,11.4647851 L43.6049741,11.4660782 L43.6071292,11.4647851 Z M50.0299949,12.7823734 L50.0011174,12.7409967 C49.1981515,12.1699125 47.5223964,11.6936498 45.4130483,11.5281432 C45.1298768,11.9160494 44.8540323,12.2832674 44.7169721,12.4388609 C44.5191399,12.6612605 43.6049741,13.3241492 43.6049741,13.3241492 C43.6049741,13.3241492 42.7050316,12.6772077 42.5287498,12.4785135 C42.4084988,12.3423153 42.111966,11.953978 41.8162953,11.5540036 C39.2694751,11.8363131 37.1118543,12.7793564 37.1118543,12.7793564 C37.1118543,12.7793564 33.4784656,19.6047826 33.0970245,29.6976726 L37.9708512,33.8159441 C38.2471266,39.5910063 39.2487868,48.4559575 39.8056478,53.7913926 L47.3405115,53.7913926 C47.8939244,48.4559575 48.8960156,39.5910063 49.1731531,33.8159441 L54.0482728,29.6976726 C53.6664006,19.6060756 50.0299949,12.7823734 50.0299949,12.7823734 Z" id="Combined-Shape"></path>
        </g>
    </g>
</svg>