<svg class="ib-payment-loading" xmlns="http://www.w3.org/2000/svg" viewBox="0 0 320 320" width="320" height="320" preserveAspectRatio="xMidYMid meet" style="width: 100%; height: 100%;"><defs><clipPath id="animationMask_kTU2kUggMA"><rect width="320" height="320" x="0" y="0"></rect></clipPath><clipPath id="cp_WylCUMPO"><path d="M0,0 L69,0 L69,69 L0,69z"></path></clipPath></defs><g clip-path="url(#animationMask_kTU2kUggMA)"><g clip-path="url(#cp_WylCUMPO)" transform="matrix(1,0,0,1,206.5,64.5)" opacity="1" style="display: block;"><g style="user-select: none; display: block;" transform="matrix(-0.7501,0.6613,-0.6613,-0.7501,83.1941,37.3946)" opacity="1"><g opacity="1" transform="matrix(1,0,0,1,34.419,36.75)"><path fill="rgb(255,255,255)" fill-opacity="1" style="display: block;" class="ib-payment-loading__cicle" d="M0 0 M0,-22.844 C-11.329,-22.844 -20.514,-13.661 -20.514,-2.331 C-20.514,8.998000000000001 -11.329,18.183 0,18.183 C0,18.183 0,16.318 0,16.318 C0,16.318 0,18.183 0,18.183 C0,18.183 0,22.844 0,22.844 C0,22.844 7.926,14.92 7.926,14.92 C7.926,14.92 0,6.993 0,6.993 C0,6.993 0,11.656 0,11.656 C0,11.656 0,13.521 0,13.521 C0,13.521 0,11.656 0,11.656 C-7.724,11.656 -13.986,5.393000000000001 -13.986,-2.331 C-13.986,-10.056 -7.724,-16.318 0,-16.318 C7.725,-16.318 13.986,-10.056 13.986,-2.331 C13.986,-2.331 20.514,-2.331 20.514,-2.331 C20.514,-13.661 11.329,-22.844 0,-22.844z"></path></g></g></g><g transform="matrix(1,0,0,1,0,10)" style="user-select: none; display: block;" opacity="0"><g opacity="1" transform="matrix(1,0,0,1,101.926,186.462)"><path fill="rgb(255,255,255)" fill-opacity="1" style="display: block;" d="M0 0 M132.91,-75.905 C132.746,-76.083 132.594,-76.256 132.45,-76.444 C132.45,-76.444 122.793,-90.734 122.793,-90.734 C122.793,-90.734 125.767,-93.713 125.767,-93.713 C125.767,-93.713 136.78,-86.342 136.78,-86.342 C136.78,-86.342 154.022,-98.766 154.022,-98.766 C154.022,-98.766 156.636,-96.226 156.636,-96.226 C156.636,-96.226 140.907,-75.852 140.907,-75.852 C138.904,-73.578 135.119,-73.686 132.91,-75.905z"></path></g></g><g transform="matrix(1,0,0,1,207.069,74.892)" style="user-select: none; display: block;" opacity="0"><g opacity="1" transform="matrix(1,0,0,1,34.5,34.5)"><path fill="rgb(255,255,255)" fill-opacity="1" style="display: block;" d="M0 0 M14.945,-9.629 C14.139,-10.645999999999999 10.465,-14.314 9.456,-15.133 C6.217,-12.532 3.061,-9.792 -0.001,-6.925 C-3.06,-9.792 -6.2139999999999995,-12.532 -9.456,-15.133 C-10.463,-14.314 -14.136000000000001,-10.645999999999999 -14.941,-9.629 C-12.351,-6.398999999999999 -9.619,-3.2470000000000003 -6.756,-0.188 C-9.754000000000001,2.997 -12.604,6.261 -15.314,9.638 C-14.504,10.646 -10.822000000000001,14.322999999999999 -9.816,15.133 C-6.4510000000000005,12.428999999999998 -3.171,9.577 -0.001,6.581 C3.174,9.577 6.448,12.428999999999998 9.816,15.133 C10.823,14.322999999999999 14.505,10.646 15.314,9.638 C12.607,6.261 9.756,2.997 6.751,-0.188 C9.624,-3.2470000000000003 12.35,-6.398999999999999 14.945,-9.629z"></path></g></g><g transform="matrix(1,0,0,1,0,0)" opacity="1" style="user-select: none;"><g opacity="1" transform="matrix(1,0,0,1,101.926,186.462)"><path stroke-linecap="round" stroke-linejoin="butt" fill-opacity="0" stroke="rgb(255,255,255)" stroke-opacity="1" stroke-width="4" d="M0 0 M139.014,-122.434 C158.11200000000002,-122.434 173.594,-106.952 173.594,-87.854 C173.594,-68.756 158.11200000000002,-53.273 139.014,-53.273 C119.91600000000001,-53.273 104.434,-68.756 104.434,-87.854 C104.434,-106.952 119.91600000000001,-122.434 139.014,-122.434z"></path></g></g><g transform="matrix(1,0,0,1,0,-0.0158)" style="user-select: none; display: block;" opacity="0"><g opacity="1" transform="matrix(1,0,0,1,0,0)"><path stroke-linecap="round" stroke-linejoin="round" fill-opacity="0" stroke="rgb(255,255,255)" stroke-opacity="1" stroke-width="2" style="display: block;" d="M0 0 M241.523,227.32 C241.523,227.32 63.614,227.32 63.614,227.32 C57.128,227.32 51.821,222.013 51.821,215.526 C51.821,215.526 51.821,91.102 51.821,91.102 C51.821,84.61500000000001 57.128,79.308 63.614,79.308 C63.614,79.308 241.523,79.308 241.523,79.308 C248.01,79.308 253.317,84.61500000000001 253.317,91.102 C253.317,91.102 253.317,215.526 253.317,215.526 C253.317,222.013 248.01,227.32 241.523,227.32zM0 0 M133.432,207.815 C133.432,207.815 70.616,207.815 70.616,207.815 C68.516,207.815 66.797,206.097 66.797,203.997 C66.797,203.997 66.797,168.949 66.797,168.949 C66.797,166.84900000000002 68.516,165.131 70.616,165.131 C70.616,165.131 133.432,165.131 133.432,165.131 C135.53199999999998,165.131 137.25,166.84900000000002 137.25,168.949 C137.25,168.949 137.25,203.997 137.25,203.997 C137.25,206.097 135.53199999999998,207.815 133.432,207.815zM0 0 M253.317,130.484 C253.317,130.484 51.821,130.484 51.821,130.484 C51.821,130.484 51.821,99.081 51.821,99.081 C51.821,99.081 253.317,99.081 253.317,99.081 C253.317,99.081 253.317,130.484 253.317,130.484zM0 0 M160,153.634 C160,153.634 191.135,153.634 191.135,153.634M0 0 M206.609,153.634 C206.609,153.634 237.244,153.634 237.244,153.634M0 0 M160,168.635 C160,168.635 171.52,168.635 171.52,168.635M0 0 M186.83,168.635 C186.83,168.635 237.244,168.635 237.244,168.635"></path></g></g><g transform="matrix(1,0,0,1,0,0)" opacity="1" style="user-select: none; display: none;"><path stroke-linecap="round" stroke-linejoin="round" fill-opacity="0" stroke="rgb(255,255,255)" stroke-opacity="1" stroke-width="2" d="M0 0 M253.317,135.06 C253.317,135.06 253.317,215.527 253.317,215.527 C253.317,222.01299999999998 248.01,227.32 241.523,227.32 C241.523,227.32 63.615,227.32 63.615,227.32 C57.128,227.32 51.821,222.01299999999998 51.821,215.527 C51.821,215.527 51.821,91.102 51.821,91.102 C51.821,84.61500000000001 57.128,79.308 63.615,79.308 C63.615,79.308 207.992,79.308 207.992,79.308M0 0 M133.432,207.815 C133.432,207.815 70.616,207.815 70.616,207.815 C68.516,207.815 66.797,206.097 66.797,203.997 C66.797,203.997 66.797,168.949 66.797,168.949 C66.797,166.84900000000002 68.516,165.131 70.616,165.131 C70.616,165.131 133.432,165.131 133.432,165.131 C135.53199999999998,165.131 137.25,166.84900000000002 137.25,168.949 C137.25,168.949 137.25,203.997 137.25,203.997 C137.25,206.097 135.53199999999998,207.815 133.432,207.815zM0 0 M51.82,99.081 C51.82,99.081 201.609,99.081 201.609,99.081M0 0 M160,153.634 C160,153.634 191.135,153.634 191.135,153.634M0 0 M206.609,153.634 C206.609,153.634 237.244,153.634 237.244,153.634M0 0 M160,168.635 C160,168.635 171.52,168.635 171.52,168.635M0 0 M219.786,130.484 C219.786,130.484 51.821,130.484 51.821,130.484M0 0 M186.83,168.635 C186.83,168.635 237.244,168.635 237.244,168.635" style="display: none;"></path><g opacity="1" transform="matrix(1,0,0,1,0,0)"></g></g><g transform="matrix(1,0,0,1,0,0)" opacity="1" style="user-select: none;"><path stroke-linecap="round" stroke-linejoin="round" fill-opacity="0" stroke="rgb(255,255,255)" stroke-opacity="1" stroke-width="2" d="M0 0 M253.317,131.415 C253.317,131.415 253.317,215.527 253.317,215.527 C253.317,222.01299999999998 248.01,227.32 241.523,227.32 C241.523,227.32 63.615,227.32 63.615,227.32 C57.128,227.32 51.821,222.01299999999998 51.821,215.527 C51.821,215.527 51.821,91.102 51.821,91.102 C51.821,84.61500000000001 57.128,79.308 63.615,79.308 C63.615,79.308 212.384,79.308 212.384,79.308M0 0 M133.432,207.815 C133.432,207.815 70.616,207.815 70.616,207.815 C68.516,207.815 66.797,206.097 66.797,203.997 C66.797,203.997 66.797,168.949 66.797,168.949 C66.797,166.84900000000002 68.516,165.131 70.616,165.131 C70.616,165.131 133.432,165.131 133.432,165.131 C135.53199999999998,165.131 137.25,166.84900000000002 137.25,168.949 C137.25,168.949 137.25,203.997 137.25,203.997 C137.25,206.097 135.53199999999998,207.815 133.432,207.815zM0 0 M51.82,99.081 C51.82,99.081 206.002,99.081 206.002,99.081M0 0 M160,153.634 C160,153.634 191.135,153.634 191.135,153.634M0 0 M206.609,153.634 C206.609,153.634 237.244,153.634 237.244,153.634M0 0 M160,168.635 C160,168.635 171.52,168.635 171.52,168.635M0 0 M227.094,130.484 C227.094,130.484 51.821,130.484 51.821,130.484M0 0 M186.83,168.635 C186.83,168.635 237.244,168.635 237.244,168.635"></path><g opacity="1" transform="matrix(1,0,0,1,0,0)"></g></g></g></svg>