<svg xmlns="http://www.w3.org/2000/svg" width="80" height="25" viewBox="0 0 80 25">
    <path fill="#E41E30" fill-rule="evenodd" d="M77.636 2.417V1.78H78c.209 0 .445.06.445.305 0 .27-.262.33-.495.33h-.315zm-.402 1.257h.402V2.74h.293l.517.933h.488l-.602-.978c.314-.07.517-.28.517-.602 0-.48-.413-.655-.84-.655h-.775v2.235zm-.896-1.109A1.67 1.67 0 0 1 78.004.892c.93 0 1.683.749 1.683 1.673 0 .916-.753 1.676-1.683 1.676-.918 0-1.666-.76-1.666-1.676zm-.315 0c0 1.101.889 1.96 1.98 1.96 1.106 0 1.997-.859 1.997-1.96A1.98 1.98 0 0 0 78.004.59a1.976 1.976 0 0 0-1.981 1.976zM47.128 23.823h5.643V.59h-5.643v23.234zM44.88.59h-6.2l-5.383 16.79L27.82.588h-6.3l8.793 23.234h5.613L44.88.59zM24.943 23.823L15.439.59H9.85L0 23.823h6.207l1.704-4.56h8.996l1.803 4.56h6.233zm-9.58-9.055h-5.84l2.95-7.976 2.89 7.976zm54.92-8.381c-1.477-1.324-2.826-1.761-4.27-1.761-1.444 0-3.251.493-3.251 2.332 0 1.539 1.381 2.063 3.58 2.753 3.15 1.019 7.22 2.332 7.22 6.96 0 5.349-4.3 7.745-8.893 7.745-3.316 0-6.664-1.215-8.697-3.35l3.441-3.53c1.37 1.476 3.416 2.251 5.256 2.251 1.704 0 3.216-.657 3.216-2.527 0-1.772-1.775-2.363-4.826-3.352-2.95-.951-5.938-2.424-5.938-6.623C57.121 2.133 61.78 0 66.111 0c2.627 0 5.58.986 7.614 2.852l-3.443 3.535z"/>
</svg>