<svg id="Capa_1" data-name="Capa 1" xmlns="http://www.w3.org/2000/svg" viewBox="0 0 90 19.09"><title>logo_budget</title><g id="Page-1"><g id="budget"><polygon id="Shape" points="11.55 14.01 20.84 14.01 20.84 0.23 11.55 14.01" style="fill:#f78b00"/><polygon id="Shape-2" data-name="Shape" points="0 0 0 14.01 20.84 0 0 0" style="fill:#ed5505"/><path id="Shape-3" data-name="Shape" d="M88.51.53a1.48,1.48,0,1,1,0,3A1.47,1.47,0,0,1,87,2,1.5,1.5,0,0,1,88.51.53Zm0,2.75A1.26,1.26,0,1,0,87.26,2,1.29,1.29,0,0,0,88.51,3.28Zm-.57-2.1h.59c.32,0,.62.13.62.49a.43.43,0,0,1-.39.45l.45.74h-.36l-.39-.7h-.22v.7h-.3Zm.54.73c.18,0,.37,0,.37-.25s-.18-.23-.34-.23h-.27v.48ZM84.89,12c-1.17,0-1.72-.57-1.72-1.8V5.48h2.25v-2H83.17V.53H80.88v9.64c0,2.44,1.4,3.9,3.65,3.9a7.11,7.11,0,0,0,.94-.07V11.94A4.14,4.14,0,0,1,84.89,12Zm-6.61-7.3a4.9,4.9,0,0,0-3.62-1.47,5.25,5.25,0,0,0-5.15,5.45,5.18,5.18,0,0,0,5.21,5.42A5.48,5.48,0,0,0,78.89,12L77.1,10.75A3.1,3.1,0,0,1,74.72,12,2.89,2.89,0,0,1,71.93,9.6h7.72A5.67,5.67,0,0,0,78.28,4.69Zm-6.35,3a2.87,2.87,0,0,1,2.71-2.37,2.83,2.83,0,0,1,2.7,2.37ZM66,3.45v1A4.4,4.4,0,0,0,63,3.22a5.26,5.26,0,0,0-5.25,5.42A5.28,5.28,0,0,0,63,14.09,4.51,4.51,0,0,0,66,13s.46,4-3,4a3.61,3.61,0,0,1-3-1.86l-1.84,1.3a5.49,5.49,0,0,0,4.84,2.72,5.59,5.59,0,0,0,3.64-1.21,5.28,5.28,0,0,0,1.71-4.18V3.46H66ZM63,12a3.13,3.13,0,0,1-3-3.34,3.13,3.13,0,0,1,3-3.29,3.19,3.19,0,0,1,3,3.29A3.19,3.19,0,0,1,63,12ZM51.18,14.09a5.27,5.27,0,0,1-5.26-5.43,5.27,5.27,0,0,1,5.26-5.44,4.46,4.46,0,0,1,3,1.14V0h2.3V13.87H54.22v-1A4.43,4.43,0,0,1,51.18,14.09Zm0-8.74a3.12,3.12,0,0,0-3,3.34,3.13,3.13,0,0,0,3,3.29,3.19,3.19,0,0,0,3-3.29A3.18,3.18,0,0,0,51.18,5.35Zm-6.4,3.48V3.45H42.49V8.83c0,1.91-1,3.15-2.51,3.15s-2.51-1.23-2.51-3.15V3.45H35.16V8.83c0,3.21,2.13,5.26,4.8,5.26S44.78,12,44.78,8.83ZM24.35,14V0h4.86c1.89,0,4.17,1,4.17,3.64a3.32,3.32,0,0,1-1.4,3A3.43,3.43,0,0,1,34.12,10c0,2.24-1.85,4-4.78,4Zm4.72-2.09a3.89,3.89,0,0,0,1.44-.22,2,2,0,0,0,1.23-1.86A1.93,1.93,0,0,0,30.51,8a3.86,3.86,0,0,0-1.63-.23H26.69v4.14Zm-.38-6.16a4,4,0,0,0,1.5-.22A1.62,1.62,0,0,0,31,3.9a1.69,1.69,0,0,0-.94-1.56,2.94,2.94,0,0,0-1.42-.23H26.69V5.77h2Z" style="fill:#00285f"/></g></g></svg>