<?xml version="1.0" encoding="utf-8"?>
<!-- Generator: Adobe Illustrator 22.0.0, SVG Export Plug-In . SVG Version: 6.00 Build 0)  -->
<svg version="1.1" id="Layer_1" xmlns="http://www.w3.org/2000/svg" xmlns:xlink="http://www.w3.org/1999/xlink" x="0px" y="0px"
	 viewBox="0 0 109 79" style="enable-background:new 0 0 109 79;" xml:space="preserve">
<style type="text/css">
	.st0{fill:#C4B8AB;}
	.st1{fill:none;stroke:#000000;stroke-miterlimit:10;}
	.st2{fill:none;stroke:#000000;stroke-width:0.5;stroke-miterlimit:10;}
</style>
<path class="st0" d="M85.8,8c0.9,2.1,1.5,5.8,3.6,6.2c2,0.4,13.1,1.7,13.8,9c0.8,7.3,0.6,38.5,0.6,40.5s1.8,8.7-3.7,8.8
	s-73.3,0-73.3,0s-3.2,1.4-11,1.4S3.3,73.8,3.2,65.8c-0.1-7.9,0-29.7,0-31.3c0-1.5-0.4-14.8,6.7-16.9c0,0,2.2-3,8.2-2.8
	c6,0.2,6,0.2,6,0.2s-0.1-1.3,0-2c0.1-0.7,0.9-3.1,9.3-2.9c8.5,0.2,10.1,0.3,10.2,1.7s0,2.6,0,2.6s3.6,0.3,4.6-0.2
	c1-0.6,2.7-5.3,4.8-6.9s2.7-2.5,6.7-2.7c3.9-0.2,19.7,0,20.3,0C80.3,4.6,84.7,4.9,85.8,8L52.2,8"/>
<g>
	<path class="st1" d="M14.3,78c-8.1,0-13.5,0-13.6-9.2c-0.1-7.4,0-25.6,0-32.4c0-1.4,0-2.3,0-2.6l0-0.3c-0.1-6.2,0.8-16.8,7.1-18.8
		c0.3-0.4,2.8-3.4,8.8-3.1l6.2,0.3c0-0.4-0.1-1.5,0-2.1c0.4-3.2,7.1-3.4,10-3.4c9.1,0.2,10.8,0.4,10.9,2c0.1,1.3,0,2.4,0,2.8
		c0.7,0.1,3.8,0.3,4.7-0.3c0.4-0.3,1.1-1.5,1.8-2.8c0.9-1.8,2.1-3.9,3.3-4.9c0.3-0.2,0.5-0.4,0.8-0.6c1.6-1.3,2.7-2.2,6.4-2.4
		c2.4-0.1,9.3-0.1,20.5,0c0.6,0,1,0,1.1,0c0,0,1.4,0,2.9,0.6c1.8,0.7,3,1.8,3.5,3.3l0.1,0.2h0c0.2,0.6,0.4,1.2,0.7,1.9
		c0.7,2.1,1.4,4.4,3,4.8c0.2,0,0.4,0.1,0.7,0.1c3.3,0.6,13.4,2.4,14.1,10.1c0.5,4.9,0.7,20.2,0.6,44.2c0,0.6,0,1,0,1.2
		c0,0.4,0.1,0.9,0.1,1.5c0.2,2.2,0.5,5.4-1,7.3c-0.7,0.8-1.8,1.3-3.1,1.3c-5.7,0.2-76.1,0-77.9,0C25.7,76.6,22.2,78,14.3,78z
		 M16,11.8c-5.7,0-7.9,3-7.9,3l0,0l0,0c-2.7,0.8-7.1,4.4-7,18.6l0,0.3C1,34,1,35,1,36.4c0,6.8-0.1,25,0,32.4
		c0.1,8.5,4.6,8.9,13.3,8.9c8.2,0,11.6-1.5,11.7-1.5l0.1,0c0.7,0,72.2,0.2,77.9,0c1.3,0,2.3-0.4,2.9-1.2c1.5-1.7,1.2-4.9,1-7
		c-0.1-0.6-0.1-1.1-0.1-1.5c0-0.2,0-0.6,0-1.2c0.1-24-0.1-39.3-0.6-44.2c-0.7-7.4-10.7-9.2-13.9-9.8c-0.3-0.1-0.5-0.1-0.7-0.1
		c-1.7-0.4-2.5-2.8-3.2-5c-0.2-0.7-0.5-1.4-0.7-2H53c-0.9,1.1-1.8,2.7-2.5,4.1c-0.8,1.4-1.3,2.6-1.9,2.9c-1.1,0.7-4.8,0.3-5,0.3
		l-0.1,0l0-0.1c0,0,0.1-1.4,0-2.9c-0.1-1.4-2-1.6-10.7-1.8c-8.5-0.2-9.6,2.1-9.8,3.1c-0.1,0.8,0,2.2,0,2.2l0,0.2l-6.5-0.3
		C16.4,11.8,16.2,11.8,16,11.8z M53.3,3.8h35.2c-1.3-3.4-6-3.5-6.1-3.5c-0.1,0-0.5,0-1.1,0c-11.2-0.1-18.1-0.1-20.5,0
		c-3.6,0.2-4.6,1-6.2,2.3c-0.2,0.2-0.5,0.4-0.8,0.6C53.6,3.5,53.5,3.6,53.3,3.8z"/>
	<path class="st1" d="M70.9,74.5c-16.7,0-30.3-13.6-30.3-30.3c0-16.7,13.6-30.3,30.3-30.3c16.7,0,30.3,13.6,30.3,30.3
		C101.2,60.9,87.6,74.5,70.9,74.5z M70.9,14.2c-16.6,0-30,13.5-30,30s13.5,30,30,30s30-13.5,30-30S87.5,14.2,70.9,14.2z"/>
	<path class="st2" d="M70.9,67.9c-13.1,0-23.7-10.6-23.7-23.7s10.6-23.7,23.7-23.7c13.1,0,23.7,10.6,23.7,23.7S84,67.9,70.9,67.9z
		 M70.9,20.8c-12.9,0-23.4,10.5-23.4,23.4S58,67.6,70.9,67.6s23.4-10.5,23.4-23.4S83.8,20.8,70.9,20.8z"/>
	<path class="st2" d="M38.7,19.4c-1.5,0-2.8-1.2-2.8-2.8s1.2-2.8,2.8-2.8c1.5,0,2.8,1.2,2.8,2.8S40.3,19.4,38.7,19.4z M38.7,14.2
		c-1.4,0-2.5,1.1-2.5,2.5s1.1,2.5,2.5,2.5c1.4,0,2.5-1.1,2.5-2.5S40.1,14.2,38.7,14.2z"/>
	<path class="st2" d="M38.7,18c-0.2,0-0.4,0-0.6-0.1c-0.3-0.2-0.6-0.4-0.7-0.8c-0.2-0.7,0.1-1.5,0.8-1.7l0,0c0.3-0.1,0.7-0.1,1,0.1
		c0.3,0.2,0.6,0.4,0.7,0.8c0.2,0.7-0.1,1.5-0.8,1.7C39,18,38.9,18,38.7,18z M38.4,15.7c-0.5,0.2-0.8,0.8-0.6,1.3
		c0.1,0.3,0.3,0.5,0.5,0.6c0.3,0.1,0.5,0.1,0.8,0c0.5-0.2,0.8-0.8,0.6-1.3c-0.1-0.3-0.3-0.5-0.5-0.6C39,15.6,38.7,15.6,38.4,15.7
		L38.4,15.7z"/>
	<path class="st2" d="M23.1,12.1l0-0.3c0.1,0,14.4-0.9,20.7-0.7l0,0.3C37.4,11.2,23.2,12.1,23.1,12.1z"/>
	<path class="st2" d="M23.6,12V8.7c0-0.5,0.3-0.9,0.7-0.9c0.4,0,0.7,0.4,0.7,0.9v3.2L23.6,12z M24.3,8.1c-0.2,0-0.4,0.3-0.4,0.6v3
		l0.9-0.1V8.7C24.7,8.4,24.5,8.1,24.3,8.1z"/>
	<path class="st2" d="M25.6,11.9V7.8c0-0.5,0.3-0.9,0.7-0.9c0.4,0,0.7,0.4,0.7,0.9v4L25.6,11.9z M26.3,7.2c-0.2,0-0.4,0.3-0.4,0.6
		v3.8l0.9-0.1V7.8C26.8,7.5,26.6,7.2,26.3,7.2z"/>
	<path class="st2" d="M27.6,11.8V7.4c0-0.5,0.3-0.9,0.7-0.9c0.4,0,0.7,0.4,0.7,0.9v4.4L27.6,11.8z M28.3,6.8c-0.2,0-0.4,0.3-0.4,0.6
		v4.1l0.9,0V7.4C28.8,7.1,28.6,6.8,28.3,6.8z"/>
	<path class="st2" d="M29.6,11.7V7.2c0-0.5,0.3-0.9,0.7-0.9c0.4,0,0.7,0.4,0.7,0.9v4.4L29.6,11.7z M30.4,6.7c-0.2,0-0.4,0.3-0.4,0.6
		v4.2l0.9,0V7.2C30.8,6.9,30.6,6.7,30.4,6.7z"/>
	<path class="st2" d="M31.7,11.6V7.1c0-0.5,0.3-0.9,0.7-0.9c0.4,0,0.7,0.4,0.7,0.9v4.4L31.7,11.6z M32.4,6.5c-0.2,0-0.4,0.3-0.4,0.6
		v4.2l0.9,0V7.1C32.8,6.8,32.6,6.5,32.4,6.5z"/>
	<path class="st2" d="M33.7,11.5V7.2c0-0.5,0.3-0.9,0.7-0.9c0.4,0,0.7,0.4,0.7,0.9v4.2L33.7,11.5z M34.4,6.7c-0.2,0-0.4,0.3-0.4,0.6
		v4l0.9,0v-4C34.9,6.9,34.7,6.7,34.4,6.7z"/>
	<path class="st2" d="M35.7,11.5V7.3c0-0.5,0.3-0.9,0.7-0.9c0.4,0,0.7,0.4,0.7,0.9v4.1L35.7,11.5z M36.4,6.7c-0.2,0-0.4,0.3-0.4,0.6
		v3.9l0.9,0V7.3C36.9,6.9,36.7,6.7,36.4,6.7z"/>
	<path class="st2" d="M39.2,11.3h-1.4v-4c0-0.5,0.3-0.9,0.7-0.9c0.4,0,0.7,0.4,0.7,0.9V11.3z M38,11h0.9V7.3c0-0.3-0.2-0.6-0.4-0.6
		C38.2,6.7,38,7,38,7.3V11z"/>
	<path class="st2" d="M39.8,11.3V7.4c0-0.5,0.3-0.9,0.7-0.9c0.4,0,0.7,0.4,0.7,0.9v3.9L39.8,11.3z M40.5,6.8c-0.2,0-0.4,0.3-0.4,0.6
		v3.6l0.9,0V7.4C40.9,7.1,40.7,6.8,40.5,6.8z"/>
	<path class="st2" d="M43.2,11.3h-1.4V7.8c0-0.5,0.3-0.9,0.7-0.9c0.4,0,0.7,0.4,0.7,0.9V11.3z M42.1,11H43V7.8
		c0-0.3-0.2-0.6-0.4-0.6c-0.2,0-0.4,0.3-0.4,0.6V11z"/>
	<path class="st2" d="M7.6,72.9c-0.6,0-1.1,0-1.5,0c-3.9-0.2-4.8-0.4-4.8-0.4l0.1-0.3c0,0,0.9,0.2,4.7,0.4c3.9,0.2,19.7-0.7,22-1.3
		c1.4-0.4,5.1-0.2,8.3-0.1c2.2,0.1,4.1,0.2,4.8,0.1c0.4-0.1,0.7-0.2,0.8-0.4c0.2-0.4,0-1.1-0.3-1.7c-0.1-0.3-0.2-0.5-0.3-0.8
		c0-0.2-0.2-0.5-0.3-1c-0.7-2.3-2.4-7.7-4.1-17c-2.1-11,2.7-22.8,3-23.4v-1.2c0-0.6-1.5-1.8-3.9-1.8H1.7v-0.3h34.4
		c2.5,0,4.1,1.2,4.1,2.1l0,1.2c-0.1,0.1-5.1,12.1-3,23.3c1.8,9.3,3.4,14.7,4.1,16.9c0.2,0.5,0.3,0.8,0.3,1c0.1,0.2,0.2,0.5,0.3,0.8
		c0.3,0.7,0.5,1.4,0.2,2c-0.2,0.3-0.5,0.5-1,0.5c-0.8,0.1-2.7,0-4.9-0.1c-3.2-0.1-6.8-0.3-8.2,0.1C26,72.2,13,72.9,7.6,72.9z"/>
	<path class="st1" d="M70.9,56.7c-6.9,0-12.4-5.6-12.4-12.4c0-6.9,5.6-12.4,12.4-12.4c6.9,0,12.4,5.6,12.4,12.4
		C83.3,51.1,77.8,56.7,70.9,56.7z M70.9,32c-6.7,0-12.2,5.5-12.2,12.2c0,6.7,5.5,12.2,12.2,12.2s12.2-5.5,12.2-12.2
		C83.1,37.5,77.6,32,70.9,32z"/>
	<path class="st2" d="M49.9,76.4l-0.8-1.2C43,66.4,42.6,55.1,42.6,55l0.3,0c0,0.1,0.4,11.4,6.4,20.1l0.8,1.2L49.9,76.4z"/>
	<path class="st2" d="M92,76.4l-0.2-0.2l0.8-1.2c6-8.8,6.4-20,6.4-20.1l0.3,0c0,0.1-0.4,11.4-6.4,20.3L92,76.4z"/>
	<polygon class="st2" points="42.3,26 40.1,26 40.1,25.8 42.1,25.8 48.5,10.9 48.8,11 	"/>
	
		<rect x="97.3" y="11.2" transform="matrix(0.9752 -0.2212 0.2212 0.9752 -3.0219 22.1529)" class="st2" width="0.3" height="26.7"/>
	<path class="st2" d="M13.4,18.7c-1.3,0-2.5,0-3.4-0.1c-1-0.1-1.8-0.5-2.1-1.1c-0.7-1.1,0-2.7,0-2.8l0.2,0.1c0,0-0.6,1.5,0,2.5
		c0.3,0.6,1,0.9,1.9,1c3.4,0.3,9.8,0,12-0.3c1.9-0.2,4.5-0.7,5.1-1.9c0.6-1.2,1-4.4,1.1-4.5l0.3,0c0,0.1-0.5,3.3-1.1,4.5
		c-0.7,1.3-3.2,1.8-5.3,2C20.4,18.4,16.6,18.7,13.4,18.7z"/>
	<path class="st2" d="M16.2,14.4c-1.7,0-3.4-0.3-3.4-0.9c0-0.6,1.8-0.9,3.4-0.9c1.7,0,3.4,0.3,3.4,0.9
		C19.6,14.1,17.9,14.4,16.2,14.4z M16.2,12.9c-2.1,0-3.2,0.4-3.2,0.6c0,0.2,1.1,0.6,3.2,0.6s3.2-0.4,3.2-0.6
		C19.4,13.3,18.2,12.9,16.2,12.9z"/>
	<path class="st2" d="M81.6,11.1H60.2c-1,0-1.8-0.8-1.8-1.8V7.4c0-1,0.8-1.8,1.8-1.8h21.4c1,0,1.8,0.8,1.8,1.8v1.9
		C83.3,10.3,82.5,11.1,81.6,11.1z M60.2,5.9c-0.8,0-1.5,0.7-1.5,1.5v1.9c0,0.8,0.7,1.5,1.5,1.5h21.4c0.8,0,1.5-0.7,1.5-1.5V7.4
		c0-0.8-0.7-1.5-1.5-1.5H60.2z"/>
</g>
</svg>
