<?xml version="1.0" encoding="utf-8"?>
<!-- Generator: Adobe Illustrator 22.0.0, SVG Export Plug-In . SVG Version: 6.00 Build 0)  -->
<svg version="1.1" id="Layer_1" xmlns="http://www.w3.org/2000/svg" xmlns:xlink="http://www.w3.org/1999/xlink" x="0px" y="0px"
	 viewBox="0 0 109 109" style="enable-background:new 0 0 109 109;" xml:space="preserve">
<style type="text/css">
	.st0{fill:#D71F2E;}
	.st1{stroke:#000000;stroke-width:0.5;stroke-miterlimit:10;}
	.st2{fill:#D690A3;stroke:#000000;stroke-width:1.5;stroke-miterlimit:10;}
	.st3{stroke:#000000;stroke-miterlimit:10;}
	.st4{stroke:#000000;stroke-width:1.5;stroke-miterlimit:10;}
</style>
<g>
	<g>
		<path class="st0" d="M12,31.7l-0.4-1l-0.3-0.6c0,0-0.9-10-1.6-10.1c-0.6-0.1-1.9-0.2-2.7,0c-0.8,0.2-1.4,0.9-1.5,2
			c-0.1,1-0.6,5.6-0.6,5.9s0.1,0.9-0.6,0.9c-0.6-0.1-2.1,0.9-2.3,1.6C1.9,31.2,1.6,33,1.4,36s-0.6,6.4,0,7.4c0.6,1,0.5,1.7,2.9,2.1
			s3.7,0.6,4-1.1c0.2-1.7,2-12.6,1.9-13.6c-0.1-0.9,0.3-1.3-0.5-1.5c-0.8-0.2-1.4-0.7-1.4-0.7l0.1-1c0,0-0.1,0.3,0.6,0.5
			c0.7,0.2,2.1,0.4,2.1,0.4L12,31.7z"/>
		<path class="st0" d="M95.8,67.8c0.2-3.4-0.3-21.6-1.1-36.6s-4.1-18.1-4.8-21c-0.3-1.2-1.2-2.5-2-3.2c-0.8-0.6-7.8-1.7-8.3-1.7
			c-0.5,0-0.9,0.5-0.9,0.5S71.9,5,67.7,4.4c-4-0.5-15-0.6-16.1-0.6v0c0,0,0,0,0,0c0,0-0.1,0-0.1,0v0c-0.9,0-9.3,0.1-13.3,0.6
			C34,5,27.2,5.7,27.2,5.7s-0.5-0.5-0.9-0.5c-0.5,0-7.4,1.1-8.3,1.7c-0.8,0.6-1.7,1.9-2,3.2c-0.6,2.9-4,6.1-4.8,21
			c-0.8,15-1.2,33.2-1.1,36.6c0.2,3.4,1.1,17,1.2,19.9c0.2,2.9-0.2,5.4-0.5,6.5c-0.3,1.1,0.9,5.7,0.9,5.7s-1.1,0.8,4.5,0.8
			c5.4,0,33.5,0.6,35.3,0.6v0c0,0,0,0,0,0c0,0,0,0,0,0v0c1.9,0,32.7-0.6,38-0.6c5.5,0,4.5-0.8,4.5-0.8s1.2-4.6,0.9-5.7
			c-0.3-1.1-0.6-3.6-0.5-6.5C94.7,84.8,95.7,71.2,95.8,67.8z"/>
	</g>
	<path class="st1" d="M53.2,59.8c0,0-37.7-0.9-38.8-1c-0.3,0-0.6-0.2-0.8-0.4c-0.4-0.6-0.2-1.6-0.2-1.6c0-0.1,0.2-7.5,1.1-24.1
		c0.8-15.1,2.3-12.5,2.7-14.5c0.1-0.2,0.1-0.4,0.1-0.6c0.3-1.4,0.6-1.5,1.4-2.1l0.1-0.1c1-0.6,33.4-0.4,37.1-0.4
		c3.4,0,33.5-0.2,34.4,0.4l0.1,0.1c0.9,0.5,1.2,0.7,1.4,2.1c0,0.1,0.1,0.3,0.1,0.6c0.5,2.1,2-0.6,2.7,14.5
		C95.8,49.3,96,56.7,96,56.8c0,0,0.2,1-0.2,1.6c-0.2,0.2-0.4,0.4-0.8,0.4l0,0C92.5,58.9,53.2,59.8,53.2,59.8z M40.9,15.2
		c-10.4,0-21.3,0.1-21.8,0.4L19,15.7c-0.9,0.5-1.1,0.7-1.3,1.9c0,0.1-0.1,0.3-0.1,0.6c-0.5,2.1-2-0.6-2.7,14.5
		c-0.8,16.6-1.1,24.1-1.1,24.2c0,0-0.2,1,0.2,1.5c0.1,0.2,0.3,0.3,0.6,0.3c1.1,0.1,35.5,0.9,38.7,1c3.6,0,40.7-0.9,41.8-1l0,0
		c0.3,0,0.5-0.1,0.6-0.3c0.4-0.5,0.2-1.4,0.2-1.4c0-0.1-0.2-7.5-1.1-24.2c-0.8-15.1-2.2-12.4-2.7-14.5c-0.1-0.2-0.1-0.4-0.1-0.6
		c-0.3-1.3-0.5-1.4-1.3-1.9l-0.1-0.1c-0.7-0.4-20.9-0.4-34.3-0.3C52.5,15.2,46.8,15.2,40.9,15.2z"/>
	<path class="st2" d="M70.1,82"/>
	<path class="st1" d="M77.7,98.8h-46v-4.6h46V98.8z M32,98.5h45.5v-4.1H32V98.5z"/>
	<path class="st1" d="M64.4,103.8H45.3c-0.5,0-0.9-0.3-0.9-0.7v-2.3c0-0.4,0.4-0.7,0.9-0.7h19.1c0.5,0,0.9,0.3,0.9,0.7v2.3
		C65.3,103.4,64.9,103.8,64.4,103.8z M45.3,100.3c-0.4,0-0.7,0.2-0.7,0.5v2.3c0,0.3,0.3,0.5,0.7,0.5h19.1c0.4,0,0.7-0.2,0.7-0.5
		v-2.3c0-0.3-0.3-0.5-0.7-0.5H45.3z"/>
	<path class="st1" d="M19.8,95.7c-1.2,0-2.2-1-2.2-2.2c0-1.2,1-2.2,2.2-2.2c1.2,0,2.2,1,2.2,2.2C22,94.7,21,95.7,19.8,95.7z
		 M19.8,91.6c-1.1,0-1.9,0.9-1.9,1.9s0.9,1.9,1.9,1.9c1.1,0,1.9-0.9,1.9-1.9S20.9,91.6,19.8,91.6z"/>
	<path class="st1" d="M89.9,95.7c-1.2,0-2.2-1-2.2-2.2c0-1.2,1-2.2,2.2-2.2c1.2,0,2.2,1,2.2,2.2C92.1,94.7,91.1,95.7,89.9,95.7z
		 M89.9,91.6c-1.1,0-1.9,0.9-1.9,1.9s0.9,1.9,1.9,1.9s1.9-0.9,1.9-1.9S91,91.6,89.9,91.6z"/>
	<path class="st3" d="M102.7,44.4c-0.5,0-0.9-0.1-1.2-0.3c-0.3-0.2-0.5-0.6-0.6-1.2c-0.1-0.4-0.2-1.4-0.4-2.7
		c-0.6-4-1.6-10-1.5-10.7c0-0.3,0-0.5,0-0.6c0-0.5,0-0.8,0.6-1c0.6-0.1,1.1-0.5,1.3-0.6l-0.1-0.6c-0.1,0.1-0.3,0.2-0.5,0.2
		c-0.7,0.2-2.1,0.4-2.1,0.4l-0.1,0l-0.8-6.1l0.4-1l0.4-0.6c0,0,1-0.8,1.6-1c0.6-0.1,1.9-0.2,2.7,0c0.8,0.2,1.5,1,1.6,2
		c0.1,0.8,0.6,5.5,0.6,5.9c0,0.2,0,0.5,0.1,0.6c0.1,0.1,0.2,0.1,0.3,0.1c0.7-0.1,2.2,0.9,2.4,1.7c0.1,0.4,0.5,2.1,0.7,5.6
		c0,0.5,0.1,1,0.1,1.6c0.2,2.6,0.4,5-0.1,5.8c-0.1,0.1-0.2,0.3-0.2,0.4c-0.4,0.8-0.7,1.4-2.8,1.7C104.1,44.3,103.3,44.4,102.7,44.4z
		 M101.1,26.3l0.1,1.1l-0.1,0c0,0-0.7,0.5-1.5,0.7c-0.4,0.1-0.4,0.2-0.4,0.7c0,0.2,0,0.4,0,0.7c0,0.7,0.9,6.9,1.5,10.7
		c0.2,1.3,0.4,2.3,0.4,2.7c0.1,0.5,0.2,0.8,0.5,1c0.6,0.4,1.6,0.3,3.3,0c2-0.4,2.2-0.9,2.6-1.6c0.1-0.1,0.1-0.3,0.2-0.4
		c0.4-0.8,0.3-3.3,0.1-5.7c0-0.5-0.1-1.1-0.1-1.6c-0.2-2.7-0.5-4.6-0.7-5.5c-0.2-0.7-1.5-1.6-2.1-1.5c-0.2,0-0.4,0-0.5-0.2
		c-0.2-0.3-0.2-0.7-0.1-0.8c0.1-0.3-0.4-4.6-0.6-5.8c-0.1-0.9-0.7-1.6-1.4-1.8c-0.7-0.2-2-0.1-2.6,0c-0.5,0.1-1.4,0.8-1.5,0.9
		L98,20.3l-0.3,0.9l0.7,5.8c0.4-0.1,1.4-0.2,2-0.4c0.5-0.1,0.5-0.3,0.5-0.4l0,0L101.1,26.3C101.1,26.3,101.1,26.3,101.1,26.3z"/>
	<path class="st4" d="M6.6,44.4c-0.6,0-1.4-0.1-2.3-0.3c-2.1-0.4-2.4-1-2.8-1.7c-0.1-0.1-0.1-0.3-0.2-0.4c-0.5-0.9-0.3-3.3-0.1-5.8
		c0-0.5,0.1-1.1,0.1-1.6C1.5,31.1,1.9,29.4,2,29c0.2-0.8,1.7-1.8,2.4-1.7c0.2,0,0.3,0,0.3-0.1c0.1-0.1,0.1-0.4,0.1-0.6
		c-0.1-0.3,0.5-5.1,0.6-5.9c0.1-1,0.8-1.8,1.6-2c0.8-0.2,2.1-0.1,2.7,0c0.6,0.1,1.6,0.9,1.6,1l0,0l0.3,0.6l0.4,1l0,0l-0.8,6.1
		l-0.1,0C11,27.3,9.7,27.1,9,27c-0.2-0.1-0.4-0.2-0.5-0.2l-0.1,0.6c0.2,0.1,0.7,0.5,1.3,0.6c0.6,0.2,0.6,0.5,0.6,1
		c0,0.2,0,0.4,0,0.6c0,0.7-0.9,6.7-1.5,10.7c-0.2,1.3-0.4,2.3-0.4,2.7c-0.1,0.6-0.3,1-0.6,1.2C7.5,44.3,7.1,44.4,6.6,44.4z
		 M4.3,27.5c-0.6,0-1.9,0.9-2.1,1.5c-0.2,0.9-0.5,2.8-0.7,5.5c0,0.5-0.1,1-0.1,1.6c-0.2,2.4-0.4,4.9,0.1,5.7
		c0.1,0.2,0.2,0.3,0.2,0.4c0.4,0.8,0.6,1.3,2.6,1.6c1.7,0.3,2.7,0.4,3.3,0c0.3-0.2,0.4-0.5,0.5-1c0.1-0.4,0.2-1.4,0.4-2.7
		c0.6-3.7,1.6-10,1.5-10.7c0-0.3,0-0.5,0-0.7c0-0.5,0-0.6-0.4-0.7c-0.8-0.2-1.4-0.7-1.5-0.7l-0.1,0l0.1-1.1c0,0,0,0,0,0l0.2,0l0,0
		c0,0,0,0.2,0.5,0.4c0.6,0.2,1.6,0.3,2,0.4l0.7-5.8l-0.4-1l-0.3-0.5c-0.1-0.1-0.9-0.8-1.5-0.9c-0.6-0.1-1.9-0.2-2.6,0
		c-0.7,0.2-1.3,0.9-1.4,1.8C5.4,21.9,5,26.2,5,26.5c0,0.1,0.1,0.6-0.1,0.8C4.8,27.5,4.6,27.5,4.3,27.5C4.3,27.5,4.3,27.5,4.3,27.5z"
		/>
	<path class="st1" d="M54.7,105.7l-30.3-0.5l0.2-0.2c0.1-0.2,3.7-4.6,4.3-5.3c0.5-0.6,1.5-1.2,2.7-1.2H78c0.9,0,1.8,0.1,2.5,0.9
		c0.7,0.7,4.2,5.4,4.3,5.6l0.1,0.2L54.7,105.7z M24.9,105l29.8,0.5l29.8-0.5c-0.7-0.9-3.6-4.8-4.2-5.4c-0.6-0.7-1.5-0.8-2.3-0.8
		H31.5c-1.1,0-2.1,0.6-2.6,1.1C28.5,100.5,25.6,104.1,24.9,105z"/>
	<path class="st4" d="M53.1,105.7L53.1,105.7c-3.8-0.1-32.4-0.7-38-0.7c-4.8,0-5-0.5-5-0.7c0-0.1,0-0.2,0.1-0.3
		c-0.2-0.6-1.3-5-1-6.1C9.5,96.7,9.8,94,9.6,91c-0.1-1.3-0.3-4.8-0.5-8.5c-0.3-5.1-0.7-10.8-0.8-12.9c-0.2-3.8,0.4-24,1.2-39.3
		c0.7-14.2,3.7-18.2,4.8-23.1c0.2-0.7,0.3,0.8,0.4,0.4c0.3-1.5,1.3-2.8,2.2-3.5c1-0.7,8.6-1.8,9-1.8c0.5,0,0.9,0.4,1,0.5
		c0.7-0.1,7.6-0.9,11.9-1.4C43,0.9,51.6,0.7,53.1,0.7v0l0.1,0l0.1,0l0.2,0v0c1.8,0,13.1,0.1,17.3,0.7C75,1.9,81.9,2.7,82.6,2.8
		c0.1-0.1,0.6-0.5,1-0.5c0.4,0,8.1,1.1,9,1.8c0.9,0.6,1.9,2,2.2,3.5c0.1,0.4,0.2,0.9,0.4,1.6c1.1,4.9,4.1,6.9,4.8,21.1
		c0.8,15.4,1.3,35.5,1.2,39.3l-0.1,0l0.1,0c-0.1,2.1-0.5,7.9-0.8,12.9c-0.2,3.7-0.5,7.1-0.5,8.5c-0.2,3,0.1,5.7,0.5,6.9
		c0.3,1.1-0.8,5.5-1,6.1c0.1,0.1,0.1,0.2,0.1,0.3c-0.1,0.2-0.2,0.7-5,0.7c-5.6,0-36.8,0.6-41,0.7v0l-0.2,0L53.1,105.7z M99.1,104.2
		l0-0.1c0,0,1.3-5,1-6.1c-0.4-1.2-0.7-4-0.5-7c0.1-1.3,0.3-4.8,0.5-8.5c0.3-5.1,0.7-10.8,0.8-12.9c0.2-3.4-0.3-22.8-1.2-39.3
		C99,16.1,96.1,14.2,95,9.3c-0.2-0.7-0.3-1.2-0.4-1.6c-0.3-1.4-1.3-2.7-2.1-3.3c-0.8-0.6-8.3-1.8-8.9-1.8c-0.4,0-0.9,0.5-0.9,0.5
		l0,0l-0.1,0c-0.1,0-7.4-0.8-11.9-1.4C66.4,1.1,54.6,1,53.3,1l-0.1,0l0,0c-1,0-10.1,0.1-14.4,0.7C34.3,2.2,26.9,3,26.9,3l-0.1,0l0,0
		c0,0-0.5-0.5-0.9-0.5c-0.6,0-8,1.2-8.9,1.8c-0.8,0.6-1.8,1.9-2.1,3.3c-0.1,0.4-0.2,0.9-0.4,1.6c-1.1,4.9-4.1,6.9-4.8,21
		C8.9,46.8,8.4,66.2,8.6,69.6c0.1,2.1,0.5,7.8,0.8,12.9c0.2,3.7,0.5,7.2,0.5,8.5c0.2,3-0.1,5.8-0.5,7c-0.3,1.1,1,6,1,6.1l0,0.1
		l-0.1,0.1l0,0c0,0,0,0,0,0.1c0,0.1,0.4,0.5,4.8,0.5c5.6,0,34.8,0.6,38.1,0.7l0.1,0l0,0c3.6-0.1,35.4-0.7,41.1-0.7
		C98.8,104.8,99.2,104.4,99.1,104.2"/>
	<path class="st1" d="M26.5,6h-0.2c0-1.1-0.6-3.5-0.6-3.5l0.2-0.1C25.9,2.5,26.5,4.9,26.5,6z"/>
	<path class="st1" d="M81.9,6.4h-0.2c0-1.1,0.6-3.5,0.6-3.6l0.2,0.1C82.5,2.9,81.9,5.3,81.9,6.4z"/>
	<path class="st4" d="M91.2,72.9c-0.1,0-0.2,0-0.2,0c-0.2,0-0.3-0.1-0.4-0.2c-0.1-0.2,0-0.4,0.3-0.9c0.2-0.3,0.4-0.7,0.6-1.3
		c0.8-1.9,4.1-6.1,5.4-7.3c1.3-1.2,3.9-3.4,3.9-3.4l0.2-0.2v10.6l0,0c-0.1,0-1.5,1.2-2.5,1.7C97.5,72.4,92.5,72.9,91.2,72.9z
		 M100.8,60.2c-0.6,0.5-2.6,2.2-3.7,3.2c-1.3,1.2-4.6,5.3-5.4,7.2c-0.2,0.6-0.5,1-0.6,1.3c-0.2,0.3-0.3,0.6-0.3,0.7c0,0,0,0,0.2,0.1
		c0.7,0.1,6.4-0.4,7.3-0.9c0.9-0.4,2.2-1.4,2.4-1.6V60.2z"/>
	<path class="st4" d="M86.1,108.3c-2.1,0-4.8-0.2-5.2-0.7c-0.7-0.8-0.6-2.3-0.6-2.4l0-0.1l11.1-0.1l0,0.1c0,0.1-0.3,1.4-1.1,2.5
		c-0.4,0.5-2,0.7-3.3,0.7C86.7,108.2,86.4,108.3,86.1,108.3z M80.5,105.2c0,0.4,0,1.5,0.6,2.1c0.4,0.4,3.3,0.7,5.9,0.6
		c1.7-0.1,2.9-0.3,3.1-0.6c0.6-0.8,0.9-1.9,1-2.3L80.5,105.2z"/>
	<path class="st4" d="M22.5,108.3c-0.3,0-0.6,0-0.9,0c-1.3,0-2.9-0.2-3.3-0.7c-0.8-1.1-1.1-2.5-1.1-2.5l0-0.1l11.1,0.1l0,0.1
		c0,0.1,0.1,1.6-0.6,2.4C27.3,108,24.7,108.3,22.5,108.3z M17.5,105.1c0.1,0.4,0.4,1.4,1,2.3c0.3,0.3,1.4,0.6,3.1,0.6
		c2.6,0.1,5.6-0.2,5.9-0.6c0.5-0.6,0.6-1.7,0.6-2.1L17.5,105.1z"/>
	<path class="st4" d="M18.1,72.9c-1.1,0-6.2-0.6-7.2-1.1c-1-0.5-2.5-1.2-2.5-1.2l-0.1,0l0-11.1l0.2,0.2c0,0,2.5,2.3,3.8,3.5
		c1.3,1.2,4.7,5.4,5.4,7.3c0.2,0.6,0.5,1,0.6,1.3c0.2,0.5,0.4,0.7,0.3,0.9c-0.1,0.1-0.2,0.2-0.4,0.2C18.2,72.9,18.1,72.9,18.1,72.9z
		 M8.5,70.4c0.3,0.1,1.6,0.7,2.5,1.1c1,0.5,6.6,1.2,7.2,1.1c0.2,0,0.2-0.1,0.2-0.1c0-0.1-0.1-0.4-0.3-0.7c-0.2-0.3-0.4-0.8-0.6-1.3
		c-0.8-1.8-4.1-6-5.4-7.2c-1.1-1-3-2.7-3.6-3.3L8.5,70.4z"/>
	<path class="st1" d="M85.8,84.5C85.8,84.5,85.8,84.5,85.8,84.5c-0.3-0.1-0.7-0.5-0.9-0.9c-0.1-0.2-0.4-0.8-0.3-1.2
		c0.2-0.6,3-7.3,3.2-7.8c0-0.2,0.1-1,1.3-1.2c0.3,0,0.8-0.1,1.5-0.2c2.3-0.3,6.1-0.8,7-1.1c1.1-0.4,1.5-0.7,1.5-0.7l0.2-0.1l0,0.2
		c0,0.1-0.2,3-0.6,4.4l-0.1,0.3c-0.3,1.1-0.3,1.3-1.5,2.1C96.3,78.9,86.6,84.5,85.8,84.5z M99,71.6c-0.2,0.1-0.6,0.3-1.4,0.6
		c-0.9,0.3-4.7,0.8-7,1.1c-0.7,0.1-1.2,0.2-1.5,0.2c-1.1,0.2-1.1,1-1.1,1l0,0c0,0.1-3,7.2-3.2,7.8c-0.1,0.2,0,0.6,0.3,1
		c0.2,0.4,0.5,0.8,0.7,0.8c0.6,0,9.7-5.2,11.2-6.2c1-0.7,1.1-0.9,1.4-1.9l0.1-0.3C98.8,74.6,99,72.3,99,71.6z"/>
	<path class="st1" d="M23.5,84.5c-0.8,0-10.5-5.6-11.4-6.2c-1.1-0.8-1.2-1-1.5-2.1l-0.1-0.3c-0.4-1.4-0.6-4.3-0.6-4.4l0-0.2l0.2,0.1
		c0,0,0.4,0.2,1.5,0.7c0.9,0.3,4.7,0.8,7,1.1c0.7,0.1,1.2,0.2,1.5,0.2c1.2,0.2,1.3,1,1.3,1.2c0.2,0.5,3,7.2,3.2,7.8
		c0.1,0.4-0.1,1-0.3,1.2C24.2,83.9,23.9,84.4,23.5,84.5C23.5,84.5,23.5,84.5,23.5,84.5z M10.3,71.6c0.1,0.7,0.2,3,0.5,4.1l0.1,0.3
		c0.3,1.1,0.3,1.2,1.4,1.9c1.5,1,10.6,6.2,11.2,6.2c0.2-0.1,0.5-0.4,0.7-0.8c0.2-0.4,0.3-0.8,0.3-1c-0.2-0.6-3.1-7.8-3.2-7.8l0,0
		c0,0,0-0.8-1.1-1c-0.3,0-0.8-0.1-1.5-0.2c-2.3-0.3-6.1-0.8-7-1.1C10.9,71.9,10.5,71.7,10.3,71.6z"/>
	<path class="st4" d="M78.1,94.4H31.5c-1.8,0-2.4-1.9-2.6-2.7c-0.3-0.9-2-4.2-2.6-5.2c-0.6-1-1.7-1.6-1.7-1.6L24,84.5
		c-0.5,0,1.7,0.8,2.4,1.9c0.7,1,2.4,4.4,2.7,5.3c0.3,0.8,0.8,2.6,2.4,2.6h46.6c1.6,0,2.1-1.7,2.4-2.6c0.3-0.9,2-4.3,2.7-5.3
		c0.7-1,1.7-2.2,1.7-2.2l0.1,0.2c0,0-1,1.2-1.7,2.1c-0.7,1-2.4,4.3-2.6,5.2C80.5,92.5,79.8,94.4,78.1,94.4z"/>
	<path class="st1" d="M91,81.4c-2.2,0-4-1.8-4-4c0-2.2,1.8-4,4-4c2.2,0,4,1.8,4,4C95,79.6,93.2,81.4,91,81.4z M91,73.7
		c-2.1,0-3.7,1.7-3.7,3.7c0,2.1,1.7,3.7,3.7,3.7s3.7-1.7,3.7-3.7C94.8,75.3,93.1,73.7,91,73.7z"/>
	<path class="st1" d="M18,81.1c-2.2,0-4-1.8-4-4c0-2.2,1.8-4,4-4c2.2,0,4,1.8,4,4C22,79.3,20.2,81.1,18,81.1z M18,73.4
		c-2.1,0-3.7,1.7-3.7,3.7s1.7,3.7,3.7,3.7s3.7-1.7,3.7-3.7S20.1,73.4,18,73.4z"/>
</g>
</svg>
