<?xml version="1.0" encoding="utf-8"?>
<!-- Generator: Adobe Illustrator 22.0.0, SVG Export Plug-In . SVG Version: 6.00 Build 0)  -->
<svg version="1.1" id="Layer_1" xmlns="http://www.w3.org/2000/svg" xmlns:xlink="http://www.w3.org/1999/xlink" x="0px" y="0px"
	 viewBox="0 0 109 83" style="enable-background:new 0 0 109 83;" xml:space="preserve">
<style type="text/css">
	.st0{fill:#EE8322;}
	.st1{fill:none;stroke:#231F20;stroke-miterlimit:10;}
	.st2{fill:#231F20;stroke:#231F20;stroke-width:0.5;stroke-miterlimit:10;}
	.st3{fill:none;stroke:#231F20;stroke-width:0.5;stroke-miterlimit:10;}
</style>
<g>
	<g>
		<rect x="3.9" y="62.3" class="st0" width="98.3" height="10.4"/>
		<path class="st0" d="M99.8,65.4H6c-3.4-9.2-3.5-12.2-3.5-12.2c0-2,1.6-3.6,3.5-3.6h93.8c1.9,0,3.5,1.6,3.5,3.6
			C103.3,53.2,102.8,57.1,99.8,65.4z"/>
		<polyline class="st0" points="3.1,51.1 24.4,37.1 83.4,37.1 101.6,50.2 		"/>
		<path class="st0" d="M51,42.5c8.5,0,38.5-1.1,39.5-0.3c1,0.7,4.2,3,4.2,3s-35.4,0.5-42.3,0.5s-40.5,0-40.5,0l4.1-3
			c0,0,1.3-0.2,3.7-0.3C22.1,42.3,51,42.5,51,42.5z"/>
		<path class="st0" d="M54.1,37.1c0,0-3.1,0.3-3.8,0.1c-0.7-0.2-19.4-0.1-20.5-0.1c-1,0-6.3,0.1-6.3,0s0-0.3,0.2-0.6
			s0.8-1.4,0.7-1.6c0-0.2-0.2-0.6,0-1.3c0.2-0.7,0.4-1,0.4-1.2c0-0.2-0.1-6.8,0-7.1c0.1-0.2-0.2-1.2-0.3-1.7
			c-0.1-0.6-0.4-0.8-0.4-1.3c0-0.6-0.1-0.6-0.2-0.8c0-0.2-0.5-0.6-0.5-0.8c0-0.3-1.2-0.7,1.7-0.3s15.2,0.5,15.2,0.5s8.7,0,10.1-0.2
			c1.4-0.2,3.4-0.7,3.5-0.5c0.1,0.3-0.2,0.4-0.4,0.9c-0.3,0.5-0.4,0.7-0.4,1.2s0.1,1.5-0.2,2.1c-0.3,0.6-0.2,5.1-0.2,6.8
			c0,1.7,0.2,2.6,0.2,2.9s0.2,0.8,0.4,1.2c0.1,0.4,0.1,0.7,0.3,0.9C53.9,36.4,54.3,37.1,54.1,37.1z"/>
		<path class="st0" d="M84.4,37.1c0,0-3.1,0.2-3.7,0C80,36.9,62,37,61,37.1c-1,0-6.1,0.1-6,0c0.1-0.1,0-0.3,0.2-0.6
			c0.2-0.3,0.7-1.4,0.7-1.6c0-0.2-0.2-0.6,0-1.3c0.2-0.7,0.4-1,0.4-1.2s-0.1-6.8,0-7.1c0.1-0.2-0.2-1.2-0.3-1.7
			c-0.1-0.6-0.4-0.8-0.4-1.3c0-0.6-0.1-0.6-0.2-0.8c0-0.2-0.5-0.6-0.5-0.8s-1.1-0.7,1.6-0.3c2.7,0.4,14.7,0.5,14.7,0.5
			s8.4,0,9.8-0.2c1.4-0.2,3.3-0.7,3.4-0.5c0.1,0.3-0.2,0.4-0.4,0.9c-0.3,0.5-0.4,0.7-0.4,1.2s0.1,1.5-0.2,2.1
			c-0.3,0.6-0.2,5.1-0.2,6.8s0.2,2.6,0.2,2.9c-0.1,0.3,0.2,0.8,0.3,1.2c0.1,0.4,0.1,0.7,0.3,0.9C84.3,36.4,84.6,37.1,84.4,37.1z"/>
		<path class="st0" d="M85.5,27c0.1-6.5,3.1-9.9,3.1-9.9s-3.9-0.9-5.4-2.2c-1.6-1.3-1.9-2.5-1.9-2.5s-4.3,0.9-7.1,0
			c-2.9-0.9-9.1-4.3-9.1-4.3s-2,1.2-3.3,0.7C60.5,8.5,59,4.7,54,4.7c-5,0-6.6,3.8-7.9,4.2c-1.3,0.4-3.3-0.7-3.3-0.7
			s-6.3,3.5-9.1,4.3c-2.9,0.9-7.1,0-7.1,0s-0.3,1.2-1.9,2.5c-1.6,1.3-5.4,2.2-5.4,2.2s3,3.3,3.1,9.9c0.1,6.5-1.3,7.8-1.3,7.8
			l1.3,3.2H54h31.6l1.3-3.2C86.8,34.8,85.4,33.5,85.5,27z"/>
	</g>
	<path class="st1" d="M107.1,76.4H2.2V65.2h104.9V76.4z M2.4,76.1h104.5V65.4H2.4V76.1z"/>
	<path class="st1" d="M5,82.3H3.4l-1.2-6.1h4L5,82.3z M3.5,82h1.3l1-5.7H2.4L3.5,82z"/>
	<path class="st1" d="M104.5,64.6H4.4l0-0.1c-3.6-9.6-3.7-12.8-3.7-12.9c0-2.1,1.7-3.9,3.9-3.9h99.9c2.1,0,3.9,1.7,3.9,3.9
		C108.2,51.6,107.7,55.8,104.5,64.6L104.5,64.6z M4.5,64.3h99.8c3.1-8.6,3.7-12.7,3.7-12.8c0-2-1.6-3.6-3.6-3.6H4.5
		c-2,0-3.6,1.6-3.6,3.6C0.8,51.6,1,54.9,4.5,64.3z"/>
	<polygon class="st1" points="1.5,49.5 1.4,49.3 24,34.5 87,34.5 106.4,48.3 106.2,48.5 86.9,34.7 24.1,34.7 	"/>
	<path class="st2" d="M53.9,43.7H10.4l4.6-3.3l0,0c0,0,1.4-0.2,4-0.3c2.6-0.1,33,0.1,33.3,0.1l0,0c3.1,0,0.4,0.1,6.5-0.1
		c15.5-0.4,34.9-0.8,35.6-0.3l4.7,3.4l-0.3,0C98.5,43.2,61.2,43.7,53.9,43.7z M11.1,43.5h42.8c6.9,0,40.9-0.4,44.7-0.5l-4.2-3
		c-0.7-0.5-15.3-0.2-27.1,0.1c-6.1,0.1-11.9,0.3-15,0.3h0c-0.3,0-30.7-0.2-33.3-0.1c-2.4,0.1-3.7,0.3-3.9,0.3L11.1,43.5z"/>
	<path class="st3" d="M52.7,34.9c-0.5,0-0.9,0-1.1-0.1c-0.7-0.2-20.4-0.1-21.8-0.1c-0.5,0-2.2,0.1-3.7,0.1c-3,0-3,0-3-0.1l0-0.1
		l0-0.1c0,0,0-0.1,0.1-0.2c0-0.1,0.1-0.3,0.2-0.5c0.3-0.5,0.8-1.4,0.8-1.6c0,0,0,0,0-0.1c-0.1-0.2-0.2-0.6,0-1.3
		c0.1-0.4,0.2-0.7,0.3-0.9c0.1-0.1,0.1-0.2,0.1-0.3c0,0,0-0.2,0-0.5c-0.1-6,0-6.9,0-7c0-0.1-0.1-0.6-0.1-1c-0.1-0.3-0.1-0.6-0.2-0.8
		c0-0.3-0.1-0.4-0.2-0.6c-0.1-0.2-0.2-0.4-0.2-0.8c0-0.4-0.1-0.5-0.1-0.7c0,0,0-0.1-0.1-0.2c0-0.1-0.1-0.2-0.2-0.3
		c-0.2-0.2-0.3-0.4-0.3-0.6c0,0-0.1-0.1-0.1-0.1c-0.1-0.1-0.2-0.2-0.1-0.3c0.1-0.1,0.3-0.2,2.1,0.1c3,0.4,16,0.6,16.1,0.6
		c0.1,0,9.2,0,10.8-0.2c0.5-0.1,1-0.2,1.6-0.3c1.6-0.3,2.2-0.4,2.3-0.2c0.1,0.2,0,0.4-0.2,0.7c-0.1,0.1-0.2,0.2-0.3,0.4
		c-0.3,0.5-0.4,0.7-0.4,1.2c0,0.1,0,0.2,0,0.3c0,0.5,0.1,1.4-0.2,1.9c-0.3,0.6-0.3,4.6-0.2,6.5l0,0.6c0,1,0.1,1.7,0.1,2.2
		c0,0.4,0.1,0.7,0,0.9c0,0.2,0.1,0.4,0.2,0.7c0.1,0.2,0.1,0.3,0.2,0.5c0,0.1,0.1,0.3,0.1,0.4c0,0.2,0.1,0.4,0.2,0.6
		c0.1,0.2,0.6,0.8,0.5,1.1c0,0.1-0.1,0.1-0.2,0.1C55.6,34.7,53.9,34.9,52.7,34.9z M42.4,34.4c4.7,0,9,0,9.4,0.1
		c0.7,0.2,3.6-0.1,3.9-0.1c0-0.1-0.3-0.5-0.5-0.8c-0.2-0.2-0.2-0.4-0.3-0.7c0-0.1,0-0.2-0.1-0.4c0-0.1-0.1-0.3-0.2-0.4
		c-0.1-0.3-0.3-0.6-0.2-0.8c0-0.1,0-0.4,0-0.8c-0.1-0.5-0.1-1.3-0.1-2.3l0-0.6c0-2.9,0-6,0.3-6.6c0.2-0.5,0.2-1.3,0.2-1.8
		c0-0.1,0-0.3,0-0.3c0-0.5,0.1-0.7,0.4-1.3c0.1-0.2,0.2-0.3,0.3-0.4c0.2-0.2,0.2-0.3,0.2-0.4c-0.1-0.1-1.3,0.1-2.1,0.3
		c-0.5,0.1-1.1,0.2-1.6,0.3c-1.5,0.2-10.4,0.2-10.8,0.2C41,17.7,28,17.6,25,17.1C23.8,17,23.3,17,23.1,17c0,0,0,0,0,0
		c0.1,0.1,0.2,0.2,0.2,0.3c0,0.1,0.2,0.3,0.3,0.5c0.1,0.1,0.2,0.3,0.2,0.4c0,0,0,0.1,0,0.1C24,18.4,24,18.6,24,19
		c0,0.3,0.1,0.5,0.2,0.7c0.1,0.2,0.2,0.4,0.3,0.7c0,0.2,0.1,0.5,0.2,0.8c0.1,0.6,0.2,0.9,0.1,1.1c0,0.1-0.1,1.4,0,6.9
		c0,0.3,0,0.4,0,0.5c0,0.1-0.1,0.2-0.1,0.4c-0.1,0.2-0.2,0.5-0.3,0.9c-0.1,0.6,0,1,0,1.2c0,0,0,0.1,0,0.1c0.1,0.3-0.8,1.7-0.8,1.8
		c-0.1,0.2-0.2,0.3-0.2,0.4c0,0,0,0.1,0,0.1c0.8,0.1,5.3,0,6.5,0C30.6,34.5,36.7,34.4,42.4,34.4z M55.7,34.5l0,0.1L55.7,34.5
		C55.7,34.5,55.7,34.5,55.7,34.5z"/>
	<path class="st3" d="M85.3,34.8c-0.6,0-1.1,0-1.3-0.1c-0.7-0.2-19.8,0-21,0c-0.5,0-2.1,0.1-3.6,0.1c-2.8,0-2.9-0.1-2.9-0.1l0-0.1
		l0-0.1c0,0,0-0.1,0-0.2c0-0.1,0.1-0.3,0.2-0.5c0.3-0.5,0.7-1.4,0.7-1.6c0,0,0,0,0-0.1c-0.1-0.2-0.2-0.6,0-1.3
		c0.1-0.4,0.2-0.7,0.3-0.9c0.1-0.1,0.1-0.2,0.1-0.3c0,0,0-0.2,0-0.5c-0.1-6,0-6.9,0-7c0-0.1-0.1-0.6-0.1-1c-0.1-0.3-0.1-0.6-0.2-0.8
		c0-0.3-0.1-0.4-0.2-0.6c-0.1-0.2-0.2-0.4-0.2-0.8c0-0.4-0.1-0.5-0.1-0.7c0,0,0-0.1-0.1-0.2c0-0.1-0.1-0.2-0.2-0.3
		c-0.2-0.2-0.3-0.4-0.3-0.6c0,0-0.1-0.1-0.1-0.1c-0.1-0.1-0.2-0.2-0.1-0.3c0.1-0.1,0.2-0.2,2.1,0.1c2.9,0.4,15.5,0.6,15.6,0.6
		c0.1,0,8.9,0,10.4-0.2c0.5-0.1,1-0.2,1.5-0.3c1.6-0.3,2.2-0.4,2.3-0.2c0.1,0.2,0,0.4-0.2,0.7c-0.1,0.1-0.2,0.2-0.3,0.4
		c-0.3,0.5-0.4,0.7-0.4,1.2c0,0.1,0,0.2,0,0.3c0,0.5,0.1,1.4-0.2,1.9c-0.3,0.6-0.2,4.6-0.2,6.5l0,0.6c0,1,0.1,1.7,0.1,2.2
		c0,0.4,0.1,0.7,0,0.9c0,0.2,0.1,0.4,0.2,0.7c0.1,0.2,0.1,0.3,0.2,0.5c0,0.1,0.1,0.3,0.1,0.4c0,0.2,0.1,0.4,0.2,0.6
		c0.1,0.2,0.6,0.8,0.5,1.1c0,0.1-0.1,0.1-0.2,0.1c0,0,0,0,0,0C87.9,34.7,86.4,34.8,85.3,34.8z M77.3,34.4c3.6,0,6.5,0,6.7,0.1
		c0.6,0.2,3.6,0,3.9,0c0-0.1-0.2-0.5-0.5-0.8c-0.2-0.2-0.2-0.4-0.3-0.7c0-0.1,0-0.2-0.1-0.4c0-0.1-0.1-0.3-0.2-0.4
		c-0.1-0.3-0.3-0.6-0.2-0.8c0-0.1,0-0.4,0-0.8c-0.1-0.5-0.1-1.3-0.1-2.3l0-0.6c0-2.9,0-6,0.3-6.6c0.2-0.5,0.2-1.3,0.2-1.8
		c0-0.1,0-0.3,0-0.3c0-0.5,0.1-0.7,0.4-1.3c0.1-0.2,0.2-0.3,0.3-0.4c0.2-0.2,0.2-0.3,0.2-0.4c-0.1-0.1-1.2,0.1-2,0.3
		c-0.5,0.1-1,0.2-1.5,0.3c-1.5,0.2-10.1,0.2-10.4,0.2c-0.1,0-12.8-0.1-15.6-0.6C57.2,17,56.7,17,56.5,17c0,0,0,0,0,0
		c0.1,0.1,0.2,0.2,0.2,0.3c0,0.1,0.2,0.3,0.3,0.5c0.1,0.1,0.2,0.3,0.2,0.4c0,0,0,0.1,0,0.1c0.1,0.1,0.1,0.3,0.1,0.7
		c0,0.3,0.1,0.5,0.2,0.7c0.1,0.2,0.2,0.4,0.2,0.7c0,0.2,0.1,0.5,0.1,0.8c0.1,0.6,0.2,0.9,0.1,1.1c0,0.1-0.1,1.4,0,6.9
		c0,0.3,0,0.4,0,0.5c0,0.1-0.1,0.2-0.1,0.4c-0.1,0.2-0.2,0.5-0.3,0.9c-0.1,0.6,0,1,0,1.2c0,0,0,0.1,0,0.1C57.8,32.5,57,34,57,34
		c-0.1,0.2-0.1,0.3-0.2,0.4c0,0,0,0.1,0,0.1c0.8,0.1,5.1,0,6.2,0C63.8,34.5,71.4,34.4,77.3,34.4z M88,34.5l0,0.1L88,34.5
		C88,34.5,88,34.5,88,34.5z"/>
	<path class="st1" d="M89.3,35.7H21.9l-1.4-3.5l0.1-0.1c0,0,1.5-1.5,1.3-8.1c-0.1-6.7-3.3-10.2-3.3-10.3l-0.1-0.1l0.2,0
		c0,0,4.1-0.9,5.7-2.3c1.6-1.3,1.9-2.5,1.9-2.5l0-0.1l0.1,0c0,0,4.6,0.9,7.6,0c3-0.9,9.6-4.5,9.7-4.6l0.1,0l0.1,0
		c0,0,2.1,1.2,3.4,0.8c0.4-0.1,0.8-0.6,1.3-1.1c1.3-1.3,3.3-3.3,7.1-3.3c3.8,0,5.8,2,7.1,3.3c0.5,0.5,0.9,1,1.3,1.1
		c1.3,0.4,3.4-0.7,3.4-0.8l0.1,0l0.1,0c0.1,0,6.7,3.7,9.7,4.6c3,0.9,7.5,0,7.6,0l0.1,0l0,0.1c0,0,0.3,1.2,1.9,2.5
		c1.6,1.3,5.7,2.2,5.7,2.3l0.2,0l-0.1,0.1c0,0-3.2,3.6-3.3,10.3l-0.1,0l0.1,0c-0.1,6.7,1.3,8.1,1.3,8.1l0.1,0.1l0,0.1L89.3,35.7z
		 M22,35.5h67.1l1.3-3.2c-0.3-0.3-1.5-2.1-1.3-8.2c0.1-3.6,1-6.2,1.7-7.8c0.6-1.3,1.3-2.2,1.5-2.5c-0.8-0.2-4.2-1-5.6-2.3
		c-1.4-1.2-1.9-2.2-2-2.5c-0.7,0.1-4.8,0.8-7.6,0c-2.9-0.9-9.1-4.2-9.7-4.5c-0.4,0.2-2.2,1.2-3.5,0.7C63.5,5,63,4.5,62.5,4
		c-1.3-1.3-3.2-3.3-6.9-3.3s-5.6,2-6.9,3.3c-0.6,0.6-1,1-1.4,1.1c-1.3,0.4-3.2-0.5-3.5-0.7c-0.7,0.4-6.8,3.7-9.7,4.5
		c-2.8,0.8-6.9,0.1-7.6,0c-0.1,0.3-0.6,1.4-2,2.5c-1.5,1.2-4.8,2.1-5.6,2.3c0.3,0.3,0.9,1.1,1.5,2.5c0.8,1.6,1.7,4.2,1.7,7.8
		c0.1,6.2-1.1,7.9-1.3,8.2L22,35.5z"/>
	<path class="st1" d="M103.2,76.1h4l-1.2,6.1h-1.7L103.2,76.1z M106.9,76.4h-3.4l1,5.7h1.3L106.9,76.4z"/>
</g>
</svg>
