<svg width="40" height="26" viewBox="0 0 40 26" fill="none" xmlns="http://www.w3.org/2000/svg">
<rect width="40" height="26" fill="white"/>
<path fill-rule="evenodd" clip-rule="evenodd" d="M20.979 23H10.6594C9.74329 23 9 22.2621 9 21.3526V4.64736C9 3.73788 9.74329 3 10.6594 3H20.979C30.7714 3 32.2321 9.25483 32.2321 12.9785C32.2321 19.4393 28.2304 23 20.979 23ZM10.6594 3.54912C10.0458 3.54912 9.55314 4.03818 9.55314 4.64736V21.3526C9.55314 21.9618 10.0458 22.4509 10.6594 22.4509H20.979C27.876 22.4509 31.6789 19.0875 31.6789 12.9785C31.6789 4.77606 24.972 3.54912 20.979 3.54912H10.6594ZM12.4401 14.36C13.3327 14.36 14.0563 13.6416 14.0563 12.7555C14.0563 11.8694 13.3327 11.151 12.4401 11.151C11.5475 11.151 10.8238 11.8694 10.8238 12.7555C10.8238 13.6416 11.5475 14.36 12.4401 14.36ZM11.2128 18.4012C11.2128 19.7397 12.3018 20.8294 13.6588 20.8294H13.6674V16.505C13.6674 15.8272 13.1143 15.2867 12.4401 15.2867C11.7573 15.2867 11.2128 15.8358 11.2128 16.505V18.4012Z" fill="black"/>
<path d="M15.3267 6.26047V20.8293H21.7137C27.5131 20.8293 30.0282 17.5775 30.0282 12.9786C30.0282 8.57708 27.5131 5.16223 21.7137 5.16223H16.4329C15.8193 5.16223 15.3267 5.65987 15.3267 6.26047Z" fill="#CC0066"/>
<path fill-rule="evenodd" clip-rule="evenodd" d="M18.2048 11.1167C18.006 11.048 17.7985 11.0137 17.5738 11.0137V11.0051H16.0786V14.4886H17.5911C17.859 14.4886 18.0924 14.4371 18.2912 14.3513C18.49 14.257 18.6542 14.1368 18.7838 13.9824C18.9135 13.8279 19.0085 13.6392 19.0777 13.4247C19.1382 13.2102 19.1728 12.9785 19.1728 12.7211C19.1728 12.4294 19.1295 12.1806 19.0518 11.9661C18.9653 11.7602 18.853 11.58 18.7147 11.4341C18.5678 11.2968 18.4035 11.1853 18.2048 11.1167ZM17.8504 13.8022C17.738 13.8365 17.6343 13.8537 17.522 13.8537V13.8623H16.8392V11.6658H17.3923C17.5825 11.6658 17.738 11.6915 17.8677 11.743C17.9973 11.7945 18.101 11.8803 18.1788 11.9747C18.2566 12.069 18.3171 12.1977 18.3517 12.335C18.3863 12.4723 18.4035 12.6353 18.4035 12.8069C18.4035 13.0043 18.3776 13.1587 18.3258 13.296C18.2739 13.4333 18.2048 13.5362 18.127 13.622C18.0492 13.7078 17.9541 13.7679 17.8504 13.8022ZM22.2928 11.6572V11.0137V11.0051H19.6741V14.4886H22.3361V13.8451H20.4433V12.9957H22.1459V12.4037H20.4433V11.6572H22.2928ZM24.9378 11.0139L26.2515 14.4973H25.4477L25.1798 13.7251H23.866L23.5895 14.4973H22.8116L24.134 11.0139H24.9378ZM24.981 13.1503L24.5402 11.8719H24.5315L24.0735 13.1503H24.981ZM27.5045 13.8538V11.0139H26.7353V14.4973H29.2158V13.8538H27.5045Z" fill="white"/>
</svg>
