<svg width="40" height="26" viewBox="0 0 40 26" fill="none" xmlns="http://www.w3.org/2000/svg">
<path d="M0 0.019989H40V26H0V0.019989Z" fill="white"/>
<g clip-path="url(#clip0_1922_2994)">
<path d="M35.3334 20.3333H2L4.53334 5.66666H38L35.3334 20.3333Z" fill="#EDEDED"/>
<path d="M13.0583 10.7333C11.5607 10.7333 10.4238 11.8606 10.4238 13.2039C10.4238 14.4192 11.3569 15.2666 12.6271 15.2666C14.1247 15.2666 15.2537 14.1073 15.2537 12.7641C15.2616 11.5409 14.3285 10.7333 13.0583 10.7333ZM12.7212 14.1233C12.1488 14.1233 11.7489 13.7396 11.7489 13.1479C11.7489 12.4923 12.2429 11.8686 12.9564 11.8686C13.5288 11.8686 13.9286 12.2684 13.9286 12.8601C13.9365 13.5237 13.4347 14.1233 12.7212 14.1233Z" fill="#393A41"/>
<path d="M22.0671 10.7333C20.5695 10.7333 19.4404 11.8606 19.4404 13.2039C19.4404 14.4192 20.3735 15.2666 21.6437 15.2666C23.1413 15.2666 24.2703 14.1073 24.2703 12.7641C24.2782 11.5409 23.3452 10.7333 22.0671 10.7333ZM21.7378 14.1233C21.1654 14.1233 20.7656 13.7396 20.7656 13.1479C20.7656 12.4923 21.2595 11.8686 21.973 11.8686C22.5454 11.8686 22.9452 12.2684 22.9452 12.8601C22.9452 13.5237 22.4513 14.1233 21.7378 14.1233Z" fill="#393A41"/>
<path d="M28.6776 12.1644C28.6776 11.3489 28.0582 10.8293 26.9291 10.8293H25.3453L24.6475 15.1707H25.9803L26.1999 13.8035H26.2627L26.9683 15.1707H28.4973L27.5171 13.6516C28.2463 13.3957 28.6776 12.844 28.6776 12.1644ZM26.5449 12.884H26.3489L26.4979 11.9726H26.6782C27.0938 11.9726 27.3133 12.1005 27.3133 12.3804C27.3133 12.7081 26.9997 12.884 26.5449 12.884Z" fill="#393A41"/>
<path d="M8.89428 12.5642C8.38462 12.3004 8.27484 12.2365 8.27484 12.0925C8.27484 11.9166 8.47871 11.8287 8.75314 11.8287C9.07461 11.8287 9.56075 11.8686 10.039 12.3324C10.1566 11.9566 10.3527 11.6208 10.6036 11.3249C9.92926 10.9332 9.302 10.7333 8.72961 10.7333C7.59269 10.7333 6.93407 11.3569 6.93407 12.1085C6.93407 12.7561 7.41236 13.0919 7.9769 13.3877C8.48655 13.6516 8.612 13.7396 8.612 13.8994C8.612 14.0753 8.4003 14.1713 8.11803 14.1713C7.6319 14.1713 7.06736 13.8595 6.7302 13.5397L6.53418 14.7469C6.87918 15.0028 7.381 15.2666 8.14156 15.2666C9.31768 15.2666 9.95279 14.659 9.95279 13.8835C9.95279 13.2438 9.54506 12.9001 8.89428 12.5642Z" fill="#393A41"/>
<path d="M18.7736 12.7321H17.2054L17.3308 11.9726H19.0088C19.2283 11.5168 19.5655 11.1251 19.981 10.8293H17.2368C16.6252 10.8293 16.1076 11.253 16.0214 11.8287L15.4883 15.1787H16.8212L17.0408 13.8115H18.6246L18.7422 13.068C18.75 12.948 18.7579 12.844 18.7736 12.7321Z" fill="#393A41"/>
<path d="M28.709 10.8293C29.0697 11.1091 29.2892 11.5008 29.3363 11.9726H30.4496L29.94 15.1707H31.2729L31.7826 11.9726H33.0215L33.2018 10.8293H28.709Z" fill="#393A41"/>
</g>
<defs>
<clipPath id="clip0_1922_2994">
<rect width="36" height="20" fill="white" transform="translate(2 3)"/>
</clipPath>
</defs>
</svg>
