<?xml version="1.0" encoding="UTF-8"?>
<svg width="1400px" height="1179px" viewBox="0 0 1400 1179" version="1.1" xmlns="http://www.w3.org/2000/svg" xmlns:xlink="http://www.w3.org/1999/xlink">
    <!-- Generator: Sketch 41 (35326) - http://www.bohemiancoding.com/sketch -->
    <title>morro</title>
    <desc>Created with Sketch.</desc>
    <defs></defs>
    <g id="Page-1" stroke="none" stroke-width="1" fill="none" fill-rule="evenodd">
        <g id="morro">
            <path d="M201.720001,1178.99999 C201.720001,1011.6107 359.618189,0 700,0 C1040.38181,0 1198.28,1011.6107 1198.28,1178.99999 C1103.67434,1179 296.325657,1179 201.720001,1178.99999 Z" id="Combined-Shape" fill="#FFFFFF"></path>
            <path d="M365.749917,776.741554 L416.231359,621.481246 L524.071551,634.419515 L459.8247,767.499933 L365.749917,776.741554 L365.749917,776.741554 L365.749917,776.741554 Z M434.587757,575.275302 L533.249209,604.847408 L592.910469,488.405146 L542.431186,401.531752 L434.587757,575.275302 L434.587757,575.275302 L434.587757,575.275302 Z M572.955376,379.348623 L610.01684,468.071421 L686.083894,418.163431 L686.083894,314.657278 L572.955376,379.348623 L572.955376,379.348623 L572.955376,379.348623 Z M1028.87086,776.741554 L978.390496,621.481246 L870.549225,634.419515 L934.796076,767.499933 L1028.87086,776.741554 L1028.87086,776.741554 L1028.87086,776.741554 Z M960.035178,575.275302 L861.372646,604.847408 L801.713545,488.405146 L852.196066,401.531752 L960.035178,575.275302 L960.035178,575.275302 L960.035178,575.275302 Z M822.313082,379.348623 L785.576539,468.071421 L709.832247,418.163431 L709.832247,314.657278 L822.313082,379.348623 L822.313082,379.348623 L822.313082,379.348623 Z" id="parabrisas" fill="#EEEEEE"></path>
        </g>
    </g>
</svg>