<?xml version="1.0" encoding="UTF-8"?>
<svg width="70px" height="93px" viewBox="0 0 70 93" version="1.1" xmlns="http://www.w3.org/2000/svg" xmlns:xlink="http://www.w3.org/1999/xlink">
    <title>ILUSTRA 03</title>
    <defs>
        <polygon id="path-1" points="3.25115098 7.74867729 0 21.2633423 0 21.2633423 4.27280927 16.1701923 31.6972272 3.32594088 8.59970474 0"></polygon>
        <polygon id="path-3" points="3.18184455 2.32341804 31.0481929 2.32341804 31.0481929 2.32341804 0 0"></polygon>
        <path d="M1.10102095,0 L2.67713067,0.256960447 L2.67713067,0.261808757 L2.65647358,0.352393005 C2.18887318,2.28093295 0.0187367787,3.95105798 0.000271789916,3.96537914 L0.000271789916,3.96537914 L0,3.96537914 L0.720786857,2.21675522 L1.10102095,0 Z" id="path-5"></path>
        <path d="M0,0 L4.6601099,11.4043033 L4.57377009,11.4190347 C1.73613337,11.7849122 0.0462803869,0.322431491 0,0.00430960917 L0,0.00430960917 L0,0 Z" id="path-7"></path>
        <polygon id="path-9" points="8.49615278 0 15.875249 18.6557594 12.7757568 31.9856499 0 31.3146976 0 31.3128122"></polygon>
        <path d="M4.93005841,0 L6.68826738,2.82494881 L6.77135934,2.97221466 C7.87152135,4.93718816 8.65878405,6.96212763 8.6929898,9.38444332 L8.6929898,9.38444332 L8.6929898,9.71520583 L8.69099862,9.82264784 C8.60904564,13.3769155 6.91451618,17.7939965 2.29831665,24.0761703 L2.29831665,24.0761703 L2.25197868,23.8858934 C1.736012,21.7550711 1.0186418,18.4008666 0.576255747,16.1225173 L0.576255747,16.1225173 L0.556618029,16.0197989 C0.0712713066,13.4375079 0.00406249823,9.79403078 0,8.17925643 L0,7.8322437 C0.000809446903,7.57816237 0.0029531192,7.4151168 0.00364673794,7.36782609 L0.00384011755,7.35514199 L0.00384011755,7.35514199 L0.00386618329,7.35354 C0.00950985963,7.28519119 0.18933384,5.24492683 1.63080062,4.42866212 L1.63080062,4.42866212 L1.47696753,3.01807317 L1.76723916,0.724014341 L4.93005841,0 Z" id="path-11"></path>
        <path d="M1.36710328,0 L1.49427601,0.120872648 C1.78819079,0.402435008 2.06132267,0.679537827 2.29200436,0.928182075 L2.29200436,0.928182075 L2.29200436,0.927912725 L2.31021429,0.947878336 L2.31021429,0.947878336 L2.32842421,0.967237908 L2.38104073,1.02471932 C2.41566877,1.06258801 2.44937072,1.09957882 2.48198551,1.13585137 L2.48198551,1.13585137 L2.48480533,1.13857854 L2.48480533,1.13857854 L2.48742131,1.14150773 L2.54649174,1.20724392 C2.7588998,1.44455705 2.92488983,1.64018787 3.03127293,1.76882521 L3.03127293,1.76882521 L3.04581369,1.78606365 L3.04581369,1.78606365 L3.05953909,1.80249404 L3.08516787,1.83365889 L3.08516787,1.83365889 L3.09650251,1.84747558 L3.1150706,1.87033897 C3.14970123,1.91302672 3.16907042,1.93716932 3.16907042,1.93716932 L3.16907042,1.93716932 L3.68954811,2.02336151 L3.68519947,2.3977588 L3.69958523,2.62211468 C3.73105128,3.14120005 3.74784705,3.62953264 3.75070084,4.0898191 L3.75070084,4.0898191 L3.75070084,4.3715598 L3.74912608,4.52931082 C3.69975909,8.13103159 2.74543536,9.90642165 1.3448165,11.0571104 L1.3448165,11.0571104 L1.2745363,10.838759 C0.490949767,8.38003284 0.144421396,6.45862657 0,4.65922622 L0,4.65922622 L0,4.65141505 C0.103008378,2.55694499 0.606091513,1.10433735 1.36710328,0" id="path-13"></path>
        <polygon id="path-15" points="12.3898151 0 12.7325422 3.40028164 0 0.804550162 0 0.804280812 1.75657823 0"></polygon>
        <path d="M6.74337961,0 L6.87036499,0.000105703155 C10.502548,0.00615719966 13.4327449,0.271285563 13.4856721,0.599843727 L13.4856721,0.599843727 L13.4856721,0.617890215 L13.4826924,0.629252674 C13.3657868,0.9504598 10.4959609,1.20895186 6.93635045,1.21800329 L6.93635045,1.21800329 L6.55013698,1.21800329 L6.42508356,1.21758468 C2.84858727,1.20264533 0,0.935696027 0,0.609001646 C0,0.506860277 0.277854046,0.410643566 0.768961436,0.326157239 L0.881580498,0.307577953 C2.04234942,0.123763205 4.23259047,0 6.74337961,0" id="path-17"></path>
        <path d="M0.908593689,0 L0.888618218,0.070968489 C0.863987528,0.166297044 0.847984538,0.264556133 0.847984538,0.367124831 L0.847984538,0.367124831 L0.847984538,4.82757032 L0.849317466,4.88580528 C0.880306357,5.56155562 1.44768144,6.10536944 2.13708411,6.10536944 L2.13708411,6.10536944 L16.2223247,6.10536944 L16.3012656,6.10235056 C16.4054676,6.09445536 16.5055298,6.07170062 16.602287,6.04153336 L16.602287,6.04153336 L16.5838625,6.09718278 C16.4069474,6.59307435 15.9330917,6.952477 15.3740684,6.952477 L15.3740684,6.952477 L1.28882778,6.952477 L1.2293657,6.95112542 C0.559158608,6.92060216 0.0184817143,6.3769133 0,5.70969345 L0,5.70969345 L0,1.17975551 C0.0152202353,0.624354629 0.395454328,0.159455539 0.908593689,0" id="path-19"></path>
        <linearGradient x1="-0.00224294017%" y1="50.0020835%" x2="100.001453%" y2="50.0020835%" id="linearGradient-21">
            <stop stop-color="#7B6449" offset="0%"></stop>
            <stop stop-color="#7B6449" offset="100%"></stop>
        </linearGradient>
    </defs>
    <g id="Alerta-Priority-Boarding" stroke="none" stroke-width="1" fill="none" fill-rule="evenodd">
        <g id="01_landing_ancilliaries_modal_prioridad-de-embarque_1280_1024_768" transform="translate(-1179.000000, -512.000000)">
            <g id="ALERTA" transform="translate(620.000000, 130.000000)">
                <g id="Group-7" transform="translate(536.000000, 382.000000)">
                    <g id="ILUSTRA-03" transform="translate(24.000000, 0.000000)">
                        <g id="Group-17" transform="translate(34.500000, 46.500000) scale(-1, 1) translate(-34.500000, -46.500000) ">
                            <g id="Group-35200" transform="translate(0.000000, 47.505045)">
                                <path d="M8.59562789,27.7326313 L8.86986391,31.4394339 L7.29647209,32.1960397 L0,29.9685104 L0.00815369748,29.925953 C0.0929521513,29.4931067 0.429971647,29.1518395 0.864835513,29.0581055 L6.98635979,27.7401731 L8.59562789,27.7326313 Z" id="Fill-35192" fill="#7B654A"></path>
                                <polygon id="Fill-35194" fill="#C5B9AC" points="6.94991277 27.8844104 8.56026802 27.7545834 21.1811046 12.7094684 15.0144632 10.4216046"></polygon>
                                <path d="M3.27740588,28.5387168 L3.86800537,29.4141061 L4.68962629,29.5754471 C6.01215602,29.8348317 7.36865949,29.328722 8.19082399,28.2696355 L8.60041139,27.7422471 L6.98652287,27.7400923 L3.27740588,28.5387168 Z" id="Fill-35196" fill="#7B654A"></path>
                                <polygon id="Fill-35198" fill="#C5B9AC" points="15.0144632 10.4217124 19.644948 0 43.4605394 5.99870662 21.1811046 12.7095761"></polygon>
                            </g>
                            <g id="Group-35203" transform="translate(11.763149, 50.177838)">
                                <mask id="mask-2" fill="white">
                                    <use xlink:href="#path-1"></use>
                                </mask>
                                <g id="Clip-35202"></g>
                                <polygon id="Fill-35201" mask="url(#mask-2)" points="3.25115098 7.74867729 0 21.2633423 0 21.2633423 4.27280927 16.1701923 31.6972272 3.32594088 8.59970474 0"></polygon>
                            </g>
                            <path d="M16.0360671,67.7195363 L15.4536213,61.4603677 L41.9816761,52.8675457 L51.0651668,52.5707214 L51.9058131,62.2975093 C51.9058131,62.2975093 50.3511747,67.214504 45.5266319,67.214504 C40.7018173,67.214504 22.0426242,65.1033342 22.0426242,65.1033342 L22.5370101,68.7406443 L16.0360671,67.7195363 Z" id="Fill-35204" fill="#C5B9AC"></path>
                            <g id="Group-35208" transform="translate(18.860671, 62.779943)">
                                <mask id="mask-4" fill="white">
                                    <use xlink:href="#path-3"></use>
                                </mask>
                                <g id="Clip-35207"></g>
                                <polygon id="Fill-35206" mask="url(#mask-4)" points="3.18184455 2.32341804 31.0481929 2.32341804 31.0481929 2.32341804 0 0"></polygon>
                            </g>
                            <g id="Group-35270" transform="translate(28.776880, 0.000000)">
                                <path d="M17.7095784,21.7993577 C17.408707,22.8403977 16.2775174,23.4326996 15.1830194,23.1221384 C14.0885214,22.8115772 13.4449229,21.715859 13.7457943,20.6745497 C14.046394,19.6332404 15.1775836,19.0412078 16.2723534,19.3517691 C17.3668514,19.6623303 18.0104499,20.7580484 17.7095784,21.7993577 Z" id="Stroke-35209" stroke="#8E191B" stroke-width="1.45149996"></path>
                                <path d="M20.0725472,15.9630426 L25.9470144,26.9568556 L22.9450948,42.1288346 C22.9450948,42.1288346 25.5330784,37.2659794 22.9450948,42.1288346 C20.3571112,46.9916899 22.7263039,57.6372326 22.7263039,57.6372326 L1.40329782,55.154359 C1.25653126,54.8920116 1.66475972,54.6819181 1.51826495,54.4195706 C1.78951129,53.8070674 1.61284784,53.2252702 1.92975489,52.4950608 C5.55760669,44.1276852 11.8897682,28.7076343 14.4853618,21.8604734 C15.0137214,20.4663148 15.8948644,19.229457 17.0556791,18.2557546 L17.4872815,17.9772461" id="Fill-35211" fill="#D7192C"></path>
                                <path d="M23.141925,17.5246025 C23.141925,17.5246025 23.5770607,16.0698401 22.831541,12.9402557 L23.2017188,7.88616159 L20.9583648,5.06390629 L16.4023505,1.45972627 L18.5217683,13.5180127 L16.2178051,19.1091919 L23.141925,17.5246025 Z" id="Fill-35213" fill="#E29052"></path>
                                <g id="Group-35217" transform="translate(17.261424, 12.610975)">
                                    <mask id="mask-6" fill="white">
                                        <use xlink:href="#path-5"></use>
                                    </mask>
                                    <g id="Clip-35216"></g>
                                    <path d="M0.720786857,2.21675522 L0,3.96537914 L0.000271789916,3.96537914 C0.0190252941,3.95083421 2.25721525,2.22833729 2.67713067,0.261808757 L2.67713067,0.261808757 L2.67713067,0.256960447 L1.10102095,0 L0.720786857,2.21675522 Z" id="Fill-35215" mask="url(#mask-6)"></path>
                                </g>
                                <path d="M19.5048867,5.38855453 C18.2505763,2.47660548 16.4021331,1.45980707 16.4021331,1.45980707 C16.4021331,1.45980707 14.4289383,2.87659109 13.9217783,3.95534013 C12.781076,6.38191945 14.0921906,13.5819296 15.536754,14.9510386 C16.1599682,15.5419937 19.1760209,14.7751527 19.7524873,13.5619977 C20.1041835,12.8188594 20.2694318,12.6524008 20.3697222,11.9811792 C20.641784,10.1622547 20.4213623,7.51534666 19.5048867,5.38855453" id="Fill-35218" fill="#E29052"></path>
                                <path d="M21.3346852,11.8307199 C21.1107303,10.4637658 21.1466065,8.75419768 21.9388742,8.9279288 C22.2851345,9.00388567 22.6754248,9.55470759 22.6754248,9.55470759 C23.1817694,10.4909702 23.209492,11.3477744 21.5189587,12.941791 L21.3346852,11.8307199 Z" id="Fill-35220" fill="#E29052"></path>
                                <polygon id="Fill-35222" fill="#E29052" points="20.6933697 10.5227805 21.6859465 10.2798263 21.6788799 11.0334692 20.6884775 11.2909683"></polygon>
                                <path d="M23.141925,17.5246025 L34.4948616,23.1736921 C34.4948616,23.1736921 32.4382273,28.1935787 27.8031221,28.9318686 L23.141925,17.5246025 Z" id="Fill-35224" fill="#D7192C"></path>
                                <polygon id="Fill-35226" fill="#D7192C" points="27.8030406 28.931734 22.7262767 57.6372326 17.6492411 55.6787846 20.8196705 18.0561659 23.1418435 17.5244678"></polygon>
                                <g id="Group-35230" transform="translate(23.142958, 17.527161)">
                                    <mask id="mask-8" fill="white">
                                        <use xlink:href="#path-7"></use>
                                    </mask>
                                    <g id="Clip-35229"></g>
                                    <path d="M0,0.00430960917 C0.0467478656,0.325644843 1.77043951,12.0176145 4.6601099,11.4043033 L4.6601099,11.4043033 L0,0 L0,0.00430960917 Z" id="Fill-35228" mask="url(#mask-8)"></path>
                                </g>
                                <path d="M8.72923193,42.4014982 C7.43741446,47.4755243 3.82559827,51.9128057 0.744044198,53.7540862 L0.119470971,50.4354178 C-0.406170727,46.8315071 0.462198055,43.4826714 9.77018731,38.2769329 L8.72923193,42.4014982 Z" id="Fill-35231" fill="#D7192C"></path>
                                <g id="Group-35235" transform="translate(7.558252, 25.373074)">
                                    <mask id="mask-10" fill="white">
                                        <use xlink:href="#path-9"></use>
                                    </mask>
                                    <g id="Clip-35234"></g>
                                    <polygon id="Fill-35233" mask="url(#mask-10)" points="0 31.3128122 0 31.3146976 12.7757568 31.9856499 15.875249 18.6557594 8.49615278 0"></polygon>
                                </g>
                                <path d="M23.0052962,25.9024827 C23.0052962,25.9024827 24.0840304,34.3980692 23.8222967,38.3884979 L23.4537496,43.4312793 C23.4537496,43.4312793 23.1762521,45.3401668 21.8789988,45.4659536 C20.5817456,45.5917403 19.1605561,44.4230281 18.8624026,43.8905221 C18.5639772,43.3582853 17.2881954,37.546508 16.6263869,34.1419168 C15.9648503,30.7373255 16.0542691,25.3732089 16.0542691,25.3732089 C16.0542691,25.3732089 16.3975398,20.7479208 20.8527201,22.5121671 C20.8527201,22.5121671 22.6875738,23.0985433 23.0052962,25.9024827" id="Fill-35236" fill="#D7192C"></path>
                                <path d="M18.3614394,39.9159311 C16.6622088,42.5684956 9.84571773,45.1965491 8.9974614,48.1443218 C8.8599357,48.6224191 9.57746108,50.0723332 9.57746108,50.0723332 C9.57746108,50.0723332 21.9550457,47.6435991 23.1761977,44.3480948 C23.508325,43.4522348 21.9966295,40.6302489 21.9966295,40.6302489 C21.9966295,40.6302489 18.8397896,39.1692913 18.3614394,39.9159311" id="Fill-35238" fill="#D7192C"></path>
                                <path d="M8.99751576,48.1441602 L6.89766687,48.0951384 C6.89766687,48.0951384 6.28423703,48.1312314 4.94077947,48.0620083 C3.46550381,47.985782 3.29128647,49.6377091 3.29128647,49.6377091 C3.29128647,49.6377091 0.921006613,50.0834843 0.714174486,50.8454771 C0.505983411,51.6109714 3.16707848,53.7054415 5.01416275,53.4234314 C5.41260677,53.3620195 5.80806109,53.2507777 6.18340297,53.1144863 C7.62470489,52.5903301 8.77981204,51.5382468 9.49081446,50.2316271 L9.57751544,50.0721716 L8.99751576,48.1441602 Z" id="Fill-35240" fill="#E29052"></path>
                                <path d="M3.85054858,48.4472873 C3.85054858,48.4472873 4.48436267,51.6889215 5.97812004,53.1846252 C5.97812004,53.1846252 5.09208492,53.8453422 0.74398984,53.7543017 L0.58118768,50.1751712 L3.85054858,48.4472873 Z" id="Fill-35242" fill="#D7192C"></path>
                                <g id="Group-35246" transform="translate(16.050539, 18.019265)">
                                    <mask id="mask-12" fill="white">
                                        <use xlink:href="#path-11"></use>
                                    </mask>
                                    <g id="Clip-35245"></g>
                                    <path d="M1.76723916,0.724014341 L1.47696753,3.01807317 L1.63080062,4.42866212 C0.165309393,5.25853124 0.00386618329,7.35354 0.00386618329,7.35354 L0.00386618329,7.35354 C0.00386618329,7.35354 -0.085824489,12.717926 0.576255747,16.1225173 L0.576255747,16.1225173 C1.03204744,18.4699075 1.7797415,21.9593442 2.29831665,24.0761703 L2.29831665,24.0761703 C6.96114446,17.7305402 8.64298046,13.2878718 8.6929898,9.71520583 L8.6929898,9.71520583 L8.6929898,9.38444332 C8.6579289,6.90156974 7.83168756,4.83618954 6.68826738,2.82494881 L6.68826738,2.82494881 L4.93005841,0 L1.76723916,0.724014341 Z" id="Fill-35244" mask="url(#mask-12)"></path>
                                </g>
                                <path d="M17.7663825,21.3320883 C17.5100846,22.2198678 16.5455022,22.7246308 15.6124475,22.4598592 C14.6791209,22.1953569 14.1306488,21.2609798 14.3869467,20.3732003 C14.6435164,19.4856902 15.607827,18.9806578 16.5408818,19.2454294 C17.4742084,19.5102011 18.0229522,20.4445782 17.7663825,21.3320883 Z" id="Stroke-35247" stroke="#D7192C" stroke-width="1.45149996"></path>
                                <path d="M19.6519251,4.63682402 C19.6519251,4.63682402 16.8745039,6.9769418 20.3028619,9.82936437 C20.3028619,9.82936437 21.1788408,7.8935418 22.0390559,9.07787627 C22.8989992,10.2619414 20.9239019,11.4320003 20.9239019,11.4320003 L23.2159063,15.0299852 L24.6107321,10.6786267 L19.6519251,4.63682402 Z" id="Fill-35249" fill="#7B654A"></path>
                                <path d="M26.2543001,5.8609685 L25.738171,5.40010967 C25.738171,5.40010967 25.3970747,4.9694181 24.8613768,4.39085307 L23.6896904,5.81033059 C23.1626898,6.45111561 22.6935804,7.13391931 22.2801879,7.83934846 L24.6105147,10.6788422 L23.2170478,15.0264298 C25.2666155,13.7114603 26.6443186,11.6153741 26.2543001,5.8609685" id="Fill-35251" fill="#7B654A"></path>
                                <path d="M22.3496574,2.16898019 C18.9525553,0.0513459878 15.3774307,-0.141239672 12.6945925,0.0629280625 L14.0828953,2.5487645 C15.6380772,5.08820171 17.461244,6.10069051 25.7160473,5.37263591 C25.5206304,5.12914299 23.9956172,3.26362092 22.3496574,2.16898019" id="Fill-35253" fill="#7B654A"></path>
                                <polygon id="Fill-35255" fill="#7B654A" points="25.7381982 5.399975 26.2586759 5.48643653 26.2543273 5.86083383"></polygon>
                                <polygon id="Fill-35257" fill="#7B654A" points="19.8565014 6.30668983 19.6518435 4.63671628 24.5522157 4.7657352 24.5774922 6.91838498 22.4572591 8.77555718"></polygon>
                                <g id="Group-35261" transform="translate(22.569209, 3.463021)">
                                    <mask id="mask-14" fill="white">
                                        <use xlink:href="#path-13"></use>
                                    </mask>
                                    <g id="Clip-35260"></g>
                                    <path d="M0,4.65141505 L0,4.65922622 C0.148669084,6.51155011 0.511508622,8.49316227 1.3448165,11.0571104 L1.3448165,11.0571104 C2.76573419,9.889745 3.72732691,8.07943979 3.75070084,4.3715598 L3.75070084,4.3715598 L3.75070084,4.0898191 C3.74743936,3.56377743 3.72596796,3.00110409 3.68519947,2.3977588 L3.68519947,2.3977588 L3.68954811,2.02336151 L3.16907042,1.93716932 C3.16907042,1.93716932 3.1427068,1.90430855 3.09650251,1.84747558 L3.09650251,1.84747558 C3.08644629,1.83508546 3.07176963,1.81757767 3.05953909,1.80249404 L3.05953909,1.80249404 C3.04948286,1.79064261 3.04241632,1.78175404 3.03127293,1.76882521 L3.03127293,1.76882521 C2.91521864,1.62849357 2.72822718,1.40843415 2.48742131,1.14150773 L2.48742131,1.14150773 C2.48551878,1.13962228 2.48415983,1.13746747 2.48198551,1.13585137 L2.48198551,1.13585137 C2.43306333,1.08144255 2.38169503,1.02541763 2.32842421,0.967237908 L2.32842421,0.967237908 C2.31565009,0.954309081 2.30477849,0.941649604 2.29200436,0.927912725 L2.29200436,0.927912725 L2.29200436,0.928182075 C2.02836814,0.644017221 1.70928678,0.322681987 1.36710328,0 L1.36710328,0 C0.606091513,1.10433735 0.103008378,2.55694499 0,4.65141505" id="Fill-35259" mask="url(#mask-14)"></path>
                                </g>
                            </g>
                            <g id="Group-35376" transform="translate(38.675243, 53.134230)">
                                <mask id="mask-16" fill="white">
                                    <use xlink:href="#path-15"></use>
                                </mask>
                                <g id="Clip-35375"></g>
                                <polygon id="Fill-35374" mask="url(#mask-16)" points="1.75657823 0 0 0.804280812 0 0.804550162 12.7325422 3.40028164 12.3898151 0"></polygon>
                            </g>
                            <path d="M61.280418,91.0720155 L52.9886513,91.0720155 L52.9886513,88.5511635 L56.2050131,88.5511635 C52.741866,83.4636699 47.2941089,77.4587682 47.2941089,77.4587682 L30.7700974,77.4587682 C30.3724688,77.4668487 28.3106705,77.67371 28.3106705,80.7319164 L28.3106705,88.5511635 L32.8058039,88.5511635 L32.8058039,91.0720155 L25.7669886,91.0720155 L25.7669886,80.7319164 C25.7669886,75.9768014 29.378533,74.9360307 30.7700974,74.9360307 L48.5035741,74.9360307 C50.3245665,74.9360307 61.280418,91.0720155 61.280418,91.0720155" id="Fill-35377" fill="#FFFFFF"></path>
                            <path d="M61.280418,91.0720155 L52.9886513,91.0720155 L52.9886513,88.5511635 L56.2050131,88.5511635 C52.741866,83.4636699 47.2941089,77.4587682 47.2941089,77.4587682 L30.7700974,77.4587682 C30.3724688,77.4668487 28.3106705,77.67371 28.3106705,80.7319164 L28.3106705,88.5511635 L32.8058039,88.5511635 L32.8058039,91.0720155 L25.7669886,91.0720155 L25.7669886,80.7319164 C25.7669886,75.9768014 29.378533,74.9360307 30.7700974,74.9360307 L48.5035741,74.9360307 C50.3245665,74.9360307 61.280418,91.0720155 61.280418,91.0720155 Z" id="Stroke-35378" stroke="#D7CDC0"></path>
                            <path d="M29.2421217,71.6570646 C24.6627334,71.6570646 24.6627334,65.1032265 29.2421217,65.1032265 L52.1396067,65.1032265 C56.7179079,65.1032265 56.7179079,71.6570646 52.1396067,71.6570646 L29.2421217,71.6570646 Z" id="Fill-35379" fill="#FFFFFF"></path>
                            <path d="M29.2421217,71.6570646 C24.6627334,71.6570646 24.6627334,65.1032265 29.2421217,65.1032265 L52.1396067,65.1032265 C56.7179079,65.1032265 56.7179079,71.6570646 52.1396067,71.6570646 L29.2421217,71.6570646 Z" id="Stroke-35380" stroke="#D7CDC0"></path>
                            <path d="M55.4503612,76.195514 C56.1436973,76.195514 56.71201,75.6333794 56.7130972,74.9462661 L56.7160885,72.9064742 C56.717174,72.2193609 56.1507639,71.6569569 55.4574278,71.6569569 L25.9233766,71.6569569 C25.2300405,71.6569569 24.6625431,72.2193609 24.6625431,72.9064742 L24.6625431,74.9462661 C24.6625431,75.6333794 25.2300405,76.195514 25.9233766,76.195514 L55.4503612,76.195514 Z" id="Fill-35381" fill="#FFFFFF"></path>
                            <path d="M55.4503612,76.195514 C56.1436973,76.195514 56.71201,75.6333794 56.7130972,74.9462661 L56.7160885,72.9064742 C56.717174,72.2193609 56.1507639,71.6569569 55.4574278,71.6569569 L25.9233766,71.6569569 C25.2300405,71.6569569 24.6625431,72.2193609 24.6625431,72.9064742 L24.6625431,74.9462661 C24.6625431,75.6333794 25.2300405,76.195514 25.9233766,76.195514 L55.4503612,76.195514 Z" id="Stroke-35382" stroke="#D7CDC0"></path>
                            <path d="M39.4170664,76.195514 L44.8224243,68.1632106 C44.8224243,68.1632106 45.4048701,67.1208239 47.1867247,67.1208239 L61.2986008,67.1208239 L58.0670187,76.195514 L39.4170664,76.195514 Z" id="Fill-35383" fill="#FFFFFF"></path>
                            <path d="M39.4170664,76.195514 L44.8224243,68.1632106 C44.8224243,68.1632106 45.4048701,67.1208239 47.1867247,67.1208239 L61.2986008,67.1208239 L58.0670187,76.195514 L39.4170664,76.195514 Z" id="Stroke-35384" stroke="#D7CDC0"></path>
                            <path d="M63.5570663,27.8113164 C63.5570663,27.8113164 63.3945359,17.0553399 63.3532238,12.5170521 C63.3140861,7.97660951 56.6788788,8.0164734 56.7210063,12.556916 C56.7612312,17.0933184 56.8816341,23.3107376 56.9207719,27.8530657 C56.9308281,28.9175392 57.2490941,29.7293618 57.7277161,30.2885336 C57.0020371,34.8885027 54.4031819,59.7966969 53.6924513,64.2595666 C52.9787309,68.7442536 57.5010433,69.4504908 58.2147637,64.9679586 C58.2147637,64.9679586 62.5843301,39.5383016 63.2969633,35.0557694 C63.3945359,34.4448823 63.3915462,29.7891576 63.3192501,29.3256053 C63.4738985,28.8938363 63.5611431,28.3882653 63.5570663,27.8113164" id="Fill-35385" fill="#FFFFFF"></path>
                            <path d="M63.5570663,27.8113164 C63.5570663,27.8113164 63.3945359,17.0553399 63.3532238,12.5170521 C63.3140861,7.97660951 56.6788788,8.0164734 56.7210063,12.556916 C56.7612312,17.0933184 56.8816341,23.3107376 56.9207719,27.8530657 C56.9308281,28.9175392 57.2490941,29.7293618 57.7277161,30.2885336 C57.0020371,34.8885027 54.4031819,59.7966969 53.6924513,64.2595666 C52.9787309,68.7442536 57.5010433,69.4504908 58.2147637,64.9679586 C58.2147637,64.9679586 62.5843301,39.5383016 63.2969633,35.0557694 C63.3945359,34.4448823 63.3915462,29.7891576 63.3192501,29.3256053 C63.4738985,28.8938363 63.5611431,28.3882653 63.5570663,27.8113164 Z" id="Stroke-35386" stroke="#D7CDC0"></path>
                            <path d="M61.2985464,35.3501157 L58.0471236,48.2431196 C58.0471236,48.2431196 57.8514349,48.9674033 57.0493829,48.9674033 L33.8227602,48.9674033 C30.5422559,48.9674033 29.6116473,51.2951309 29.3466521,52.61441 C29.3466521,53.5873043 30.0976076,53.5035363 30.0976076,53.5035363 L55.5727482,53.5035363 C55.5727482,53.5035363 56.7311169,53.451821 56.4318762,54.6377715 C56.1337226,55.8215673 48.9674379,71.6569569 48.9674379,71.6569569 C48.9674379,71.6569569 56.6074525,76.195514 58.953543,76.195514 C61.2985464,76.195514 61.6437196,73.1235707 61.6437196,73.1235707 L65.8779347,35.3501157 L61.2985464,35.3501157 Z" id="Fill-35387" fill="#FFFFFF"></path>
                            <path d="M61.2985464,35.3501157 L58.0471236,48.2431196 C58.0471236,48.2431196 57.8514349,48.9674033 57.0493829,48.9674033 L33.8227602,48.9674033 C30.5422559,48.9674033 29.6116473,51.2951309 29.3466521,52.61441 C29.3466521,53.5873043 30.0976076,53.5035363 30.0976076,53.5035363 L55.5727482,53.5035363 C55.5727482,53.5035363 56.7311169,53.451821 56.4318762,54.6377715 C56.1337226,55.8215673 48.9674379,71.6569569 48.9674379,71.6569569 C48.9674379,71.6569569 56.6074525,76.195514 58.953543,76.195514 C61.2985464,76.195514 61.6437196,73.1235707 61.6437196,73.1235707 L65.8779347,35.3501157 L61.2985464,35.3501157 Z" id="Stroke-35388" stroke="#D7CDC0"></path>
                            <g id="Group-35391" transform="translate(11.809353, 91.781997)">
                                <mask id="mask-18" fill="white">
                                    <use xlink:href="#path-17"></use>
                                </mask>
                                <g id="Clip-35390"></g>
                                <path d="M0,0.609001646 C0,0.939494799 2.91521864,1.20884537 6.55013698,1.21800329 L6.55013698,1.21800329 L6.93635045,1.21800329 C10.5378386,1.20884537 13.4332166,0.94434311 13.4856721,0.617890215 L13.4856721,0.617890215 L13.4856721,0.599843727 C13.4321294,0.267465119 10.4340149,0 6.74337961,0 L6.74337961,0 C3.01904239,0 0,0.27231343 0,0.609001646" id="Fill-35389" mask="url(#mask-18)"></path>
                            </g>
                            <path d="M18.7582062,88.6794283 L13.62491,91.0179299 C13.0837763,91.2643857 12.7369724,91.8006627 12.7369724,92.3910792 L22.2314095,92.3910792 L22.2314095,91.8733874 C22.2314095,91.3971755 22.0998632,90.9301217 21.8514472,90.5228636 L20.7273241,88.6794283 L18.7582062,88.6794283 Z" id="Fill-35392" fill="#7B654A"></path>
                            <polygon id="Fill-35393" fill="#C5B9AC" points="16.0360671 67.7195363 18.7164592 88.8056459 20.6847618 88.853321 22.5370101 68.7406443"></polygon>
                            <path d="M20.7291179,88.6794283 L20.7291179,88.6794283 C20.6611705,89.8511033 19.6672347,90.7577373 18.4835896,90.7278394 L15.8031975,90.659963 L15.973338,89.9480695 L18.76,88.6794283 L20.7291179,88.6794283 Z" id="Fill-35394" fill="#7B654A"></path>
                            <path d="M51.0593234,90.4649263 L50.4521447,90.4649263 C50.0615826,90.4649263 49.7416859,90.14817 49.7416859,89.7608439 L49.7416859,87.6609868 C49.7416859,87.27393 50.0615826,86.9571738 50.4521447,86.9571738 L51.0593234,86.9571738 C51.4498855,86.9571738 51.7697822,87.27393 51.7697822,87.6609868 L51.7697822,89.7608439 C51.7697822,90.14817 51.4498855,90.4649263 51.0593234,90.4649263" id="Fill-35395" fill="#DE4756"></path>
                            <path d="M35.4299899,92.1872885 L49.5155023,92.1872885 C50.2246022,92.1872885 50.8046019,91.612225 50.8046019,90.9094894 L50.8046019,86.4490439 C50.8046019,85.7463083 50.2246022,85.1712448 49.5155023,85.1712448 L35.4299899,85.1712448 C34.72089,85.1712448 34.1408903,85.7463083 34.1408903,86.4490439 L34.1408903,90.9094894 C34.1408903,91.612225 34.72089,92.1872885 35.4299899,92.1872885" id="Fill-35396" fill="#D6192C"></path>
                            <polygon id="Fill-35397" fill="#A70E1F" points="34.1586382 89.7427168 50.7867453 89.7427168 50.7867453 86.7427168 34.1586382 86.7427168"></polygon>
                            <g id="Group-35400" transform="translate(34.171684, 85.234623)">
                                <mask id="mask-20" fill="white">
                                    <use xlink:href="#path-19"></use>
                                </mask>
                                <g id="Clip-35399"></g>
                                <path d="M0,1.17975551 L0,5.70969345 C0.0190252941,6.39653741 0.591414857,6.952477 1.28882778,6.952477 L1.28882778,6.952477 L15.3740684,6.952477 C15.9537963,6.952477 16.441931,6.56595892 16.602287,6.04153336 L16.602287,6.04153336 C16.4813405,6.07924244 16.35523,6.10536944 16.2223247,6.10536944 L16.2223247,6.10536944 L2.13708411,6.10536944 C1.42798422,6.10536944 0.847984538,5.53003662 0.847984538,4.82757032 L0.847984538,4.82757032 L0.847984538,0.367124831 C0.847984538,0.238913958 0.87298921,0.11743685 0.908593689,0 L0.908593689,0 C0.395454328,0.159455539 0.0152202353,0.624354629 0,1.17975551" id="Fill-35398" fill="url(#linearGradient-21)" mask="url(#mask-20)"></path>
                            </g>
                            <polygon id="Fill-35401" fill="#DE4756" points="34.1488538 87.3455234 50.7965297 87.3455234 50.7965297 87.0896404 34.1488538 87.0896404"></polygon>
                            <path d="M61.0501032,83.3281866 C66.1198006,82.2440505 69.5908296,77.4711583 68.916247,72.2802341" id="Stroke-35408" stroke="#D7192C" stroke-linecap="round"></path>
                            <polygon id="Fill-35409" fill="#D7192C" points="64.4472326 85.640669 64.8122464 84.9392801 61.3243665 83.1610276 63.369042 79.8431672 62.6892954 79.4324076 60.1996998 83.4737436"></polygon>
                        </g>
                    </g>
                </g>
            </g>
        </g>
    </g>
</svg>