<?xml version="1.0" encoding="UTF-8"?>
<svg width="91px" height="92px" viewBox="0 0 91 92" version="1.1" xmlns="http://www.w3.org/2000/svg" xmlns:xlink="http://www.w3.org/1999/xlink">
    <title>ILUSTRA 02</title>
    <defs>
        <path d="M0,43.9995987 C0,68.2993699 19.7006301,88 43.9995987,88 L43.9995987,88 C68.3017774,88 88,68.2993699 88,43.9995987 L88,43.9995987 C88,19.6990251 68.3017774,0 43.9995987,0 L43.9995987,0 C19.7006301,0 0,19.6990251 0,43.9995987 L0,43.9995987 Z" id="path-1"></path>
        <path d="M0,43.9995987 C0,68.2993699 19.7006301,88 43.9995987,88 L43.9995987,88 C68.3017774,88 88,68.2993699 88,43.9995987 L88,43.9995987 C88,19.6990251 68.3017774,0 43.9995987,0 L43.9995987,0 C19.7006301,0 0,19.6990251 0,43.9995987" id="path-3"></path>
        <path d="M0,43.9995987 C0,68.2993699 19.7006301,88 43.9995987,88 L43.9995987,88 C68.3017774,88 88,68.2993699 88,43.9995987 L88,43.9995987 C88,19.6990251 68.3017774,0 43.9995987,0 L43.9995987,0 C19.7006301,0 0,19.6990251 0,43.9995987" id="path-5"></path>
        <path d="M0,43.9995987 C0,68.2993699 19.7006301,88 43.9995987,88 L43.9995987,88 C68.3017774,88 88,68.2993699 88,43.9995987 L88,43.9995987 C88,19.6990251 68.3017774,0 43.9995987,0 L43.9995987,0 C19.7006301,0 0,19.6990251 0,43.9995987 L0,43.9995987 Z" id="path-7"></path>
        <path d="M0,43.9995987 C0,68.2993699 19.7006301,88 43.9995987,88 L43.9995987,88 C68.3017774,88 88,68.2993699 88,43.9995987 L88,43.9995987 C88,19.6990251 68.3017774,0 43.9995987,0 L43.9995987,0 C19.7006301,0 0,19.6990251 0,43.9995987" id="path-9"></path>
        <polyline id="path-11" points="21 0 21 1 0 1 0 0.0907372401 0.0238048704 0"></polyline>
        <path d="M21,0.00091101617 L21,1 L0,0.998801057 C0.0959473353,0.664362015 0.194821315,0.331415435 0.296587741,0" id="path-13"></path>
        <path d="M19,0.00093656554 L19,1 L0,0.998822407 C0.103722743,0.664222996 0.210224875,0.331268464 0.319472354,0" id="path-15"></path>
        <path d="M19,0.00134897634 L19,1 L0,0.999494073 C0.123199043,0.664495979 0.249342999,0.331316564 0.378393936,0" id="path-17"></path>
        <path d="M18,0.000744653167 L18,1 L0,0.998880598 C0.138344865,0.663890357 0.279675007,0.330914284 0.423949842,0" id="path-19"></path>
        <path d="M16,0.000286846307 L16,1 L0,0.998620681 C0.146027269,0.663489686 0.294927263,0.330598878 0.446658597,0" id="path-21"></path>
        <path d="M15,0.000955468005 L15,1 L0,0.9994396 C0.163921182,0.663760547 0.330815356,0.330594982 0.5006368,0" id="path-23"></path>
        <path d="M22,20.0002766 L22,21 L7,20.9987939 C7.19765385,20.6630166 7.39862627,20.3300642 7.60286265,20" id="path-25"></path>
        <path d="M0,43.9995987 C0,68.2993699 19.7006301,88 43.9995987,88 L43.9995987,88 C68.3017774,88 88,68.2993699 88,43.9995987 L88,43.9995987 C88,19.6990251 68.3017774,0 43.9995987,0 L43.9995987,0 C19.7006301,0 0,19.6990251 0,43.9995987 L0,43.9995987 Z" id="path-27"></path>
        <path d="M0,43.9995987 C0,68.2993699 19.7006301,88 43.9995987,88 L43.9995987,88 C68.3017774,88 88,68.2993699 88,43.9995987 L88,43.9995987 C88,19.6990251 68.3017774,0 43.9995987,0 L43.9995987,0 C19.7006301,0 0,19.6990251 0,43.9995987 L0,43.9995987 Z" id="path-29"></path>
        <path d="M0,43.9995987 C0,68.2993699 19.7006301,88 43.9995987,88 L43.9995987,88 C68.3017774,88 88,68.2993699 88,43.9995987 L88,43.9995987 C88,19.6990251 68.3017774,0 43.9995987,0 L43.9995987,0 C19.7006301,0 0,19.6990251 0,43.9995987 L0,43.9995987 Z" id="path-31"></path>
        <path d="M0,43.9995987 C0,68.2993699 19.7006301,88 43.9995987,88 L43.9995987,88 C68.3017774,88 88,68.2993699 88,43.9995987 L88,43.9995987 C88,19.6990251 68.3017774,0 43.9995987,0 L43.9995987,0 C19.7006301,0 0,19.6990251 0,43.9995987 L0,43.9995987 Z" id="path-33"></path>
        <path d="M0,43.9995987 C0,68.2993699 19.7006301,88 43.9995987,88 L43.9995987,88 C68.3017774,88 88,68.2993699 88,43.9995987 L88,43.9995987 C88,19.6990251 68.3017774,0 43.9995987,0 L43.9995987,0 C19.7006301,0 0,19.6990251 0,43.9995987 L0,43.9995987 Z" id="path-35"></path>
        <path d="M0,0 L5.03313626,6.2303996 L7.41399698,11.23609 L12,21.9979135 L11.4109721,26 L6.67399973,18.290086 L4.12402035,6.63726606 L4.10472868,6.61068076 C3.95249734,6.40058799 2.92471482,4.9765521 1.92946454,3.45729649 L1.68185524,3.07614625 C0.903233569,1.8669889 0.192428422,0.656582615 0,0 L0,0 Z" id="path-37"></path>
        <path d="M0,43.9995987 C0,68.2993699 19.7006301,88 43.9995987,88 L43.9995987,88 C68.3017774,88 88,68.2993699 88,43.9995987 L88,43.9995987 C88,19.6990251 68.3017774,0 43.9995987,0 L43.9995987,0 C19.7006301,0 0,19.6990251 0,43.9995987 L0,43.9995987 Z" id="path-39"></path>
        <path d="M0,43.9995987 C0,68.2993699 19.7006301,88 43.9995987,88 L43.9995987,88 C68.3017774,88 88,68.2993699 88,43.9995987 L88,43.9995987 C88,19.6990251 68.3017774,0 43.9995987,0 L43.9995987,0 C19.7006301,0 0,19.6990251 0,43.9995987 L0,43.9995987 Z" id="path-41"></path>
        <path d="M0,43.9995987 C0,68.2993699 19.7006301,88 43.9995987,88 L43.9995987,88 C68.3017774,88 88,68.2993699 88,43.9995987 L88,43.9995987 C88,19.6990251 68.3017774,0 43.9995987,0 L43.9995987,0 C19.7006301,0 0,19.6990251 0,43.9995987 L0,43.9995987 Z" id="path-43"></path>
        <path d="M0,43.9995987 C0,68.2993699 19.7006301,88 43.9995987,88 L43.9995987,88 C68.3017774,88 88,68.2993699 88,43.9995987 L88,43.9995987 C88,19.6990251 68.3017774,0 43.9995987,0 L43.9995987,0 C19.7006301,0 0,19.6990251 0,43.9995987 L0,43.9995987 Z" id="path-45"></path>
        <path d="M0,43.9995987 C0,68.2993699 19.7006301,88 43.9995987,88 L43.9995987,88 C68.3017774,88 88,68.2993699 88,43.9995987 L88,43.9995987 C88,19.6990251 68.3017774,0 43.9995987,0 L43.9995987,0 C19.7006301,0 0,19.6990251 0,43.9995987 L0,43.9995987 Z" id="path-47"></path>
        <path d="M0,43.9995987 C0,68.2993699 19.7006301,88 43.9995987,88 L43.9995987,88 C68.3017774,88 88,68.2993699 88,43.9995987 L88,43.9995987 C88,19.6990251 68.3017774,0 43.9995987,0 L43.9995987,0 C19.7006301,0 0,19.6990251 0,43.9995987 L0,43.9995987 Z" id="path-49"></path>
        <path d="M0,43.9995987 C0,68.2993699 19.7006301,88 43.9995987,88 L43.9995987,88 C68.3017774,88 88,68.2993699 88,43.9995987 L88,43.9995987 C88,19.6990251 68.3017774,0 43.9995987,0 L43.9995987,0 C19.7006301,0 0,19.6990251 0,43.9995987" id="path-51"></path>
        <path d="M4.05740105,0 L7.48391045,5.63108668 L7.5871182,5.81899762 C10.9747831,12.020126 12.5211046,18.2697803 0.218642344,37 L0.218642344,37 L0.0742716358,27.5702802 L0.751895998,25.2183208 L0.270382135,24.6242525 L0.37469623,23.0681664 L0.95802065,9.79685891 L0,9.60396907 C1.07735598,5.84423806 2.49519316,2.51405165 4.05740105,0" id="path-53"></path>
        <path d="M0,43.9995987 C0,68.2993699 19.7006301,88 43.9995987,88 L43.9995987,88 C68.3017774,88 88,68.2993699 88,43.9995987 L88,43.9995987 C88,19.6990251 68.3017774,0 43.9995987,0 L43.9995987,0 C19.7006301,0 0,19.6990251 0,43.9995987 L0,43.9995987 Z" id="path-55"></path>
        <polygon id="path-57" points="0 0 4.27799107 5.33788842 10 10.1808468 6.44362611 21.7129566 3.56499256 22"></polygon>
        <path d="M0,43.9995987 C0,68.2993699 19.7006301,88 43.9995987,88 L43.9995987,88 C68.3017774,88 88,68.2993699 88,43.9995987 L88,43.9995987 C88,19.6990251 68.3017774,0 43.9995987,0 L43.9995987,0 C19.7006301,0 0,19.6990251 0,43.9995987 L0,43.9995987 Z" id="path-59"></path>
        <path d="M0,43.9995987 C0,68.2993699 19.7006301,88 43.9995987,88 L43.9995987,88 C68.3017774,88 88,68.2993699 88,43.9995987 L88,43.9995987 C88,19.6990251 68.3017774,0 43.9995987,0 L43.9995987,0 C19.7006301,0 0,19.6990251 0,43.9995987 L0,43.9995987 Z" id="path-61"></path>
        <path d="M0,43.9995987 C0,68.2993699 19.7006301,88 43.9995987,88 L43.9995987,88 C68.3017774,88 88,68.2993699 88,43.9995987 L88,43.9995987 C88,19.6990251 68.3017774,0 43.9995987,0 L43.9995987,0 C19.7006301,0 0,19.6990251 0,43.9995987 L0,43.9995987 Z" id="path-63"></path>
        <path d="M0,43.9995987 C0,68.2993699 19.7006301,88 43.9995987,88 L43.9995987,88 C68.3017774,88 88,68.2993699 88,43.9995987 L88,43.9995987 C88,19.6990251 68.3017774,0 43.9995987,0 L43.9995987,0 C19.7006301,0 0,19.6990251 0,43.9995987 L0,43.9995987 Z" id="path-65"></path>
        <path d="M0.430948905,1.39313725 L0.287883212,1.73529412 L0,3.98627451 L0,4 C1.45459854,2.17745098 2,0 2,0 L2,0 L0.430948905,1.39313725 Z" id="path-67"></path>
        <path d="M45.4995851,92 C70.630247,92 91,71.4038867 91,45.9995805 C91,20.5944354 70.630247,0 45.4995851,0 C20.3722425,0 0,20.5944354 0,45.9995805 C0,71.4038867 20.3722425,92 45.4995851,92 Z" id="path-69"></path>
        <path d="M6.21958457,0 L6.26836699,0.000437303657 C7.20169527,0.0135434964 11.0864001,0.332069977 12.7652868,4.6407119 L12.7652868,4.6407119 L12.8745571,4.92368043 C14.6381918,9.53861067 13.5606878,9.1465201 14.9982974,11.7839822 L14.9982974,11.7839822 L15.1803819,12.1279766 C15.4802527,12.7111297 15.7606655,13.3420467 16,14 L16,14 L15.665238,13.9383722 C10.8527396,13.0102584 5.44414422,10.1560345 1.55197743,5.30956618 L1.55197743,5.30956618 L0,3.36685206 L0.157048424,3.21464178 C0.262381562,3.1121493 0.368406544,3.0091954 0.471664153,2.91523915 L0.471664153,2.91523915 L0.818752931,2.60464783 C1.27996887,2.19860734 1.73550615,1.8243604 2.19253782,1.47552836 L2.19253782,1.47552836 L2.47962926,1.31097839 C3.80736921,0.567866024 4.96845519,0.169276974 6.03123024,0.0101223582 L6.03123024,0.0101223582 L6.04718587,0.00603448276 L6.04718587,0.00603448276 L6.06314151,0.00311457175 L6.07107068,0.00262791991 C6.08683174,0.00175194661 6.12579657,0 6.18533833,0 L6.18533833,0 L6.21958457,0 Z" id="path-71"></path>
        <path d="M0.705107397,0 L0.82866922,0.0247996469 C2.37713381,0.349920354 4.81456461,1.40220638 6.04916019,4.80277848 L6.04916019,4.80277848 L6.15711148,5.10282824 C7.89945719,9.99633603 6.83495984,9.58057714 8.25521594,12.3772481 L8.25521594,12.3772481 L8.3605185,12.5881699 C9.75555272,15.4292789 10.7723314,19.4053822 9.22022115,22.3873712 L9.22022115,22.3873712 L9.19328536,22.3766863 C8.90117547,22.2621293 6.30270886,21.2761471 4.81503001,21.8498762 L4.81503001,21.8498762 L4.69468294,21.8961284 C3.7750172,22.2485723 2.04615206,22.8807481 0,23 L0,23 L2.36829965,20.2150985 L2.49908025,20.046665 C4.53215511,17.4002495 5.81034382,14.3806763 4.74121288,8.88972251 L4.74121288,8.88972251 L4.63362236,8.55639046 C3.79493561,5.99594338 2.63178581,3.31530974 0.698187041,0 L0.698187041,0 L0.705107397,0 Z" id="path-73"></path>
    </defs>
    <g id="Alerta-Priority-Boarding" stroke="none" stroke-width="1" fill="none" fill-rule="evenodd">
        <g id="01_landing_ancilliaries_modal_prioridad-de-embarque_1280_1024_768" transform="translate(-959.000000, -512.000000)">
            <g id="ALERTA" transform="translate(620.000000, 130.000000)">
                <g id="Group-5" transform="translate(325.000000, 382.000000)">
                    <g id="ILUSTRA-02" transform="translate(14.000000, 0.000000)">
                        <path d="M89,46 C89,70.300352 69.3001724,90 45.0004013,90 C20.6998276,90 1,70.300352 1,46 C1,21.699648 20.6998276,2 45.0004013,2 C69.3001724,2 89,21.699648 89,46 Z" id="Stroke-34653" stroke="#FFFFFF" stroke-width="1.32801058"></path>
                        <g id="Group-34658" transform="translate(1.000000, 2.000000)">
                            <mask id="mask-2" fill="white">
                                <use xlink:href="#path-1"></use>
                            </mask>
                            <g id="Clip-34657"></g>
                            <path d="M22.9565217,31.884058 L24.9389466,31.884058 C25.2527318,31.884058 25.5072464,31.5881785 25.5072464,31.2233955 C25.5072464,30.8578019 25.2527318,30.562733 24.9389466,30.562733 L24.4006307,30.562733 L24.4006307,20.4517598 L24.9389466,20.4517598 C25.2527318,20.4517598 25.5072464,20.1558802 25.5072464,19.7910973 C25.5072464,19.4263143 25.2527318,19.1304348 24.9389466,19.1304348 L22.9565217,19.1304348 L22.9565217,31.884058 Z" id="Fill-34656" fill="#333333" mask="url(#mask-2)"></path>
                        </g>
                        <g id="Group-34661" transform="translate(1.000000, 2.000000)">
                            <mask id="mask-4" fill="white">
                                <use xlink:href="#path-3"></use>
                            </mask>
                            <g id="Clip-34660"></g>
                            <path d="M1.73240461,16.5797101 L21.2233315,16.5797101 C22.1794931,16.5797101 22.9565217,17.3798533 22.9565217,18.3644581 L22.9565217,31.3754813 C22.9565217,32.3592772 22.1794931,33.1594203 21.2233315,33.1594203 L1.73240461,33.1594203 C0.777028646,33.1594203 0,32.3592772 0,31.3754813 L0,18.3644581 C0,17.3798533 0.777028646,16.5797101 1.73240461,16.5797101" id="Fill-34659" fill="#A70E1F" mask="url(#mask-4)"></path>
                        </g>
                        <g id="Group-34664" transform="translate(1.000000, 2.000000)">
                            <mask id="mask-6" fill="white">
                                <use xlink:href="#path-5"></use>
                            </mask>
                            <g id="Clip-34663"></g>
                        </g>
                        <g id="Group-34667" transform="translate(1.000000, 2.000000)">
                            <mask id="mask-8" fill="white">
                                <use xlink:href="#path-7"></use>
                            </mask>
                            <g id="Clip-34666"></g>
                            <path d="M-1.27536232,22.6026869 C-1.25310063,22.6018925 -1.23248796,22.5963316 -1.20940176,22.5963316 L11.8037912,22.5963316 L11.8037912,27.1427989 L-1.20940176,27.1427989 C-1.23248796,27.1427989 -1.25310063,27.1372379 -1.27536232,27.1364435 L-1.27536232,28.0516157 C-1.25310063,28.0524101 -1.23248796,28.057971 -1.20940176,28.057971 L12.7536232,28.057971 L12.7536232,21.6811594 L-1.20940176,21.6811594 C-1.23248796,21.6811594 -1.25310063,21.6867204 -1.27536232,21.6875148 L-1.27536232,22.6026869 Z" id="Fill-34665" fill="#C4B8AB" mask="url(#mask-8)"></path>
                        </g>
                        <g id="Group-34670" transform="translate(1.000000, 2.000000)">
                            <mask id="mask-10" fill="white">
                                <use xlink:href="#path-9"></use>
                            </mask>
                            <g id="Clip-34669"></g>
                            <path d="M1.76332573,16.5797101 L18.6424714,16.5797101 C19.6148995,16.5797101 20.4057971,17.3798533 20.4057971,18.3644581 L20.4057971,31.3754813 C20.4057971,32.3592772 19.6148995,33.1594203 18.6424714,33.1594203 L1.76332573,33.1594203 C0.790897572,33.1594203 0,32.3592772 0,31.3754813 L0,18.3644581 C0,17.3798533 0.790897572,16.5797101 1.76332573,16.5797101" id="Fill-34668" fill="#D6192C" mask="url(#mask-10)"></path>
                        </g>
                        <g id="Group-34673" transform="translate(2.000000, 32.000000)">
                            <mask id="mask-12" fill="white">
                                <use xlink:href="#path-11"></use>
                            </mask>
                            <g id="Clip-34672"></g>
                            <path d="M21.0001642,0.499338374 C21.0001642,0.775330813 20.8056209,0.999338374 20.5659305,0.999338374 L0.434397842,0.999338374 C0.193886565,0.999338374 0.00016417152,0.775330813 0.00016417152,0.499338374 C0.00016417152,0.223345936 0.193886565,-0.000661625709 0.434397842,-0.000661625709 L20.5659305,-0.000661625709 C20.8056209,-0.000661625709 21.0001642,0.223345936 21.0001642,0.499338374" id="Fill-34671" fill="#A70E1F" mask="url(#mask-12)"></path>
                        </g>
                        <g id="Group-34676" transform="translate(2.000000, 31.000000)">
                            <mask id="mask-14" fill="white">
                                <use xlink:href="#path-13"></use>
                            </mask>
                            <g id="Clip-34675"></g>
                            <path d="M21.0001669,0.500361076 C21.0001669,0.776102081 20.8023751,0.999905568 20.5586822,0.999905568 L0.0909835147,0.999905568 C-0.153543935,0.999905568 -0.350501199,0.776102081 -0.350501199,0.500361076 C-0.350501199,0.224620071 -0.153543935,0.000816584319 0.0909835147,0.000816584319 L20.5586822,0.000816584319 C20.8023751,0.000816584319 21.0001669,0.224620071 21.0001669,0.500361076" id="Fill-34674" fill="#A70E1F" mask="url(#mask-14)"></path>
                        </g>
                        <g id="Group-34679" transform="translate(4.000000, 29.000000)">
                            <mask id="mask-16" fill="white">
                                <use xlink:href="#path-15"></use>
                            </mask>
                            <g id="Clip-34678"></g>
                            <path d="M19.000156,0.500373853 C19.000156,0.776107807 18.8152552,0.999905571 18.5874448,0.999905571 L-0.546285901,0.999905571 C-0.774876445,0.999905571 -0.958997157,0.776107807 -0.958997157,0.500373853 C-0.958997157,0.2246399 -0.774876445,0.000842136104 -0.546285901,0.000842136104 L18.5874448,0.000842136104 C18.8152552,0.000842136104 19.000156,0.2246399 19.000156,0.500373853" id="Fill-34677" fill="#A1195B" mask="url(#mask-16)"></path>
                        </g>
                        <g id="Group-34682" transform="translate(4.000000, 28.000000)">
                            <mask id="mask-18" fill="white">
                                <use xlink:href="#path-17"></use>
                            </mask>
                            <g id="Clip-34681"></g>
                            <path d="M19.0001622,0.500580008 C19.0001622,0.776460897 18.8079291,1.00037792 18.571085,1.00037792 L-1.32138954,1.00037792 C-1.55904479,1.00037792 -1.75046677,0.776460897 -1.75046677,0.500580008 C-1.75046677,0.22469912 -1.55904479,0.000782097795 -1.32138954,0.000782097795 L18.571085,0.000782097795 C18.8079291,0.000782097795 19.0001622,0.22469912 19.0001622,0.500580008" id="Fill-34680" fill="#A1195B" mask="url(#mask-18)"></path>
                        </g>
                        <g id="Group-34685" transform="translate(5.000000, 24.000000)">
                            <mask id="mask-20" fill="white">
                                <use xlink:href="#path-19"></use>
                            </mask>
                            <g id="Clip-34684"></g>
                            <path d="M18.0001609,0.499900089 C18.0001609,0.775687009 17.8094511,0.999527762 17.5744837,0.999527762 L-2.16036153,0.999527762 C-2.39613359,0.999527762 -2.58603873,0.775687009 -2.58603873,0.499900089 C-2.58603873,0.224113169 -2.39613359,0.000272415294 -2.16036153,0.000272415294 L17.5744837,0.000272415294 C17.8094511,0.000272415294 18.0001609,0.224113169 18.0001609,0.499900089" id="Fill-34683" fill="#A1195B" mask="url(#mask-20)"></path>
                        </g>
                        <g id="Group-34688" transform="translate(6.000000, 23.000000)">
                            <mask id="mask-22" fill="white">
                                <use xlink:href="#path-21"></use>
                            </mask>
                            <g id="Clip-34687"></g>
                            <path d="M16.0001511,0.499670969 C16.0001511,0.77558424 15.8211006,0.999527546 15.6004982,0.999527546 L-2.92783168,0.999527546 C-3.1491895,0.999527546 -3.32748454,0.77558424 -3.32748454,0.499670969 C-3.32748454,0.223757698 -3.1491895,-0.000185607931 -2.92783168,-0.000185607931 L15.6004982,-0.000185607931 C15.8211006,-0.000185607931 16.0001511,0.223757698 16.0001511,0.499670969" id="Fill-34686" fill="#A1195B" mask="url(#mask-22)"></path>
                        </g>
                        <g id="Group-34691" transform="translate(7.000000, 21.000000)">
                            <mask id="mask-24" fill="white">
                                <use xlink:href="#path-23"></use>
                            </mask>
                            <g id="Clip-34690"></g>
                            <path d="M15.0001512,0.500477734 C15.0001512,0.776206471 14.8210001,1 14.6002738,1 L-3.93846576,1 C-4.15994795,1 -4.33834316,0.776206471 -4.33834316,0.500477734 C-4.33834316,0.224748997 -4.15994795,0.000955467997 -3.93846576,0.000955467997 L14.6002738,0.000955467997 C14.8210001,0.000955467997 15.0001512,0.224748997 15.0001512,0.500477734" id="Fill-34689" fill="#A1195B" mask="url(#mask-24)"></path>
                        </g>
                        <mask id="mask-26" fill="white">
                            <use xlink:href="#path-25"></use>
                        </mask>
                        <g id="Clip-34693"></g>
                        <g id="Group-34698" transform="translate(1.000000, 2.000000)">
                            <mask id="mask-28" fill="white">
                                <use xlink:href="#path-27"></use>
                            </mask>
                            <g id="Clip-34697"></g>
                            <path d="M-5.10144928,30.6086957 L40.8115942,30.6086957 C40.8115942,30.6086957 40.3685338,34.7076728 32.111573,34.420354 C23.8546122,34.133816 -5.10144928,34.420354 -5.10144928,34.420354 L-5.10144928,30.6086957 Z" id="Fill-34696" fill="#FFFFFF" mask="url(#mask-28)"></path>
                        </g>
                        <g id="Group-34701" transform="translate(1.000000, 2.000000)">
                            <mask id="mask-30" fill="white">
                                <use xlink:href="#path-29"></use>
                            </mask>
                            <g id="Clip-34700"></g>
                            <path d="M-5.10144928,30.6086957 L40.8115942,30.6086957 C40.8115942,30.6086957 40.3685338,34.7076728 32.111573,34.420354 C23.8546122,34.133816 -5.10144928,34.420354 -5.10144928,34.420354 L-5.10144928,30.6086957 Z" id="Stroke-34699" stroke="#D7CDC0" stroke-width="1.32801058" mask="url(#mask-30)"></path>
                        </g>
                        <g id="Group-34704" transform="translate(1.000000, 2.000000)">
                            <mask id="mask-32" fill="white">
                                <use xlink:href="#path-31"></use>
                            </mask>
                            <g id="Clip-34703"></g>
                            <path d="M-5.10144928,21.6811594 L40.8115942,21.5495486 C40.8115942,21.5495486 40.0073137,13.9500095 28.0162224,14.0296064 C16.0251312,14.1076272 -5.10144928,14.0296064 -5.10144928,14.0296064 L-5.10144928,21.6811594 Z" id="Fill-34702" fill="#FFFFFF" mask="url(#mask-32)"></path>
                        </g>
                        <g id="Group-34707" transform="translate(1.000000, 2.000000)">
                            <mask id="mask-34" fill="white">
                                <use xlink:href="#path-33"></use>
                            </mask>
                            <g id="Clip-34706"></g>
                            <path d="M-5.10144928,21.6811594 L40.8115942,21.5495486 C40.8115942,21.5495486 40.0073137,13.9500095 28.0162224,14.0296064 C16.0251312,14.1076272 -5.10144928,14.0296064 -5.10144928,14.0296064 L-5.10144928,21.6811594 Z" id="Stroke-34705" stroke="#D7CDC0" stroke-width="1.32801058" mask="url(#mask-34)"></path>
                        </g>
                        <g id="Group-34710" transform="translate(1.000000, 2.000000)">
                            <mask id="mask-36" fill="white">
                                <use xlink:href="#path-35"></use>
                            </mask>
                            <g id="Clip-34709"></g>
                            <path d="M47.1796568,48.0996762 C46.3842936,44.3165332 38.8553858,34.8509552 35.5045208,26.3524964 C35.4416871,25.909572 35.6556398,21.5949198 35.0543452,20.4408784 C33.4151017,17.2965218 31.6923451,16.0864036 30.5979254,16.7601363 C29.7460914,17.2818931 32.0104904,21.2755267 31.5961062,21.7233273 C31.2294438,22.1207401 29.9441369,19.6688084 29.3818151,20.2775246 C28.8179026,20.888679 33.3594263,27.2895455 33.3594263,27.2895455 L35.6365511,38.160291 C35.7582417,38.7413752 35.9849202,39.3118943 36.3038608,39.8417781 L41.4936055,48.4637681 L47.1884058,48.1923246 L47.1796568,48.0996762 Z" id="Fill-34708" fill="#E29052" mask="url(#mask-36)"></path>
                        </g>
                        <g id="Group-34713" transform="translate(30.000000, 22.000000)">
                            <mask id="mask-38" fill="white">
                                <use xlink:href="#path-37"></use>
                            </mask>
                            <g id="Clip-34712"></g>
                            <path d="M0,0 C0.47600715,1.62417805 4.12402035,6.63726606 4.12402035,6.63726606 L4.12402035,6.63726606 L6.67399973,18.290086 L11.4109721,26 L12,21.9979135 L7.41399698,11.23609 L5.03313626,6.2303996 L0,0 Z" id="Fill-34711" mask="url(#mask-38)"></path>
                        </g>
                        <g id="Group-34716" transform="translate(1.000000, 2.000000)">
                            <mask id="mask-40" fill="white">
                                <use xlink:href="#path-39"></use>
                            </mask>
                            <g id="Clip-34715"></g>
                        </g>
                        <g id="Group-34719" transform="translate(1.000000, 2.000000)">
                            <mask id="mask-42" fill="white">
                                <use xlink:href="#path-41"></use>
                            </mask>
                            <g id="Clip-34718"></g>
                            <polygon id="Fill-34717" fill="#FCD100" mask="url(#mask-42)" points="45.9130435 134.811371 42.605647 123.273292 41.7468158 99.7498763 35.7912205 81.6231884 25.5072464 122.934243 40.0625614 140.289855"></polygon>
                        </g>
                        <g id="Group-34722" transform="translate(1.000000, 2.000000)">
                            <mask id="mask-44" fill="white">
                                <use xlink:href="#path-43"></use>
                            </mask>
                            <g id="Clip-34721"></g>
                        </g>
                        <g id="Group-34726" transform="translate(1.000000, 2.000000)">
                            <mask id="mask-46" fill="white">
                                <use xlink:href="#path-45"></use>
                            </mask>
                            <g id="Clip-34725"></g>
                        </g>
                        <g id="Group-34729" transform="translate(1.000000, 2.000000)">
                            <mask id="mask-48" fill="white">
                                <use xlink:href="#path-47"></use>
                            </mask>
                            <g id="Clip-34728"></g>
                            <path d="M50.8741002,145.391304 L54.6578517,102.675283 C55.4183575,94.0929026 53.7948496,85.4645758 49.9766719,77.7971014 L35.7101449,81.8186563 L43.2166196,144.141068 L50.8741002,145.391304 Z" id="Fill-34727" fill="#FCD100" mask="url(#mask-48)"></path>
                        </g>
                        <g id="Group-34732" transform="translate(1.000000, 2.000000)">
                            <mask id="mask-50" fill="white">
                                <use xlink:href="#path-49"></use>
                            </mask>
                            <g id="Clip-34731"></g>
                            <path d="M43.786093,55.1335236 L42.6129374,54.8405797 C42.6129374,54.8405797 40.9501591,57.9083079 39.3261627,60.2821355 C37.7013584,62.6567814 36.4053931,64.7605769 36.485381,67.4723537 C36.5653689,70.1849488 34.9817704,79.36604 34.9817704,79.36604 L34.4347826,82.8985507 L52.2898551,81.075425 L47.8291168,59.5489575 L43.786093,55.1335236 Z" id="Fill-34730" fill="#D7192C" mask="url(#mask-50)"></path>
                        </g>
                        <g id="Group-34735" transform="translate(1.000000, 2.000000)">
                            <mask id="mask-52" fill="white">
                                <use xlink:href="#path-51"></use>
                            </mask>
                            <g id="Clip-34734"></g>
                            <path d="M51.3963225,51.0144928 L43.8897932,55.2493042 L42.0869565,56.5801545 C42.9534607,61.7602576 44.6967847,67.1929135 47.4851509,72.0690032 L52.2421956,80.3478261 C56.7834078,63.9493123 54.6361913,56.1296763 51.3963225,51.0144928" id="Fill-34733" fill="#D7192C" mask="url(#mask-52)"></path>
                        </g>
                        <g id="Group-34738" transform="translate(44.000000, 46.000000)">
                            <mask id="mask-54" fill="white">
                                <use xlink:href="#path-53"></use>
                            </mask>
                            <g id="Clip-34737"></g>
                            <path d="M0,9.60396907 L0.95802065,9.79685891 L0.37469623,23.0681664 L0.270382135,24.6242525 L0.751895998,25.2183208 L0.0742716358,27.5702802 L0.218642344,37 C12.6453719,18.0805862 10.9421313,11.8951438 7.48391045,5.63108668 L7.48391045,5.63108668 L4.05740105,0 C2.49519316,2.51405165 1.07735598,5.84423806 0,9.60396907" id="Fill-34736" mask="url(#mask-54)"></path>
                        </g>
                        <g id="Group-34741" transform="translate(1.000000, 2.000000)">
                            <mask id="mask-56" fill="white">
                                <use xlink:href="#path-55"></use>
                            </mask>
                            <g id="Clip-34740"></g>
                        </g>
                        <g id="Group-34744" transform="translate(41.000000, 61.000000)">
                            <mask id="mask-58" fill="white">
                                <use xlink:href="#path-57"></use>
                            </mask>
                            <g id="Clip-34743"></g>
                            <polygon id="Fill-34742" mask="url(#mask-58)" points="3.56499256 22 6.44362611 21.7129566 10 10.1808468 4.27799107 5.33788842 0 0"></polygon>
                        </g>
                        <g id="Group-34747" transform="translate(1.000000, 2.000000)">
                            <mask id="mask-60" fill="white">
                                <use xlink:href="#path-59"></use>
                            </mask>
                            <g id="Clip-34746"></g>
                            <path d="M24.2318841,34.9727083 C24.2318841,34.9727083 23.921291,34.3237793 23.4173861,32.8457482 C22.8641422,31.2226623 20.8064632,31.6608802 20.8064632,31.6608802 C20.8064632,31.6608802 19.2357035,29.2690044 18.2319379,29.3346607 C17.2225105,29.3995536 15.8717542,33.0694378 17.017875,34.9589663 C18.1656134,36.8462044 20.5654301,38.2608696 20.5654301,38.2608696 L24.2318841,34.9727083 Z" id="Fill-34745" fill="#E29052" mask="url(#mask-60)"></path>
                        </g>
                        <g id="Group-34750" transform="translate(1.000000, 2.000000)">
                            <mask id="mask-62" fill="white">
                                <use xlink:href="#path-61"></use>
                            </mask>
                            <g id="Clip-34749"></g>
                            <polygon id="Fill-34748" fill="#E29052" mask="url(#mask-62)" points="24.5396672 34.4347826 25.5072464 36.8362031 23.1854212 38.2608696 20.4057971 37.885873 20.883659 34.7264466"></polygon>
                        </g>
                        <g id="Group-34753" transform="translate(1.000000, 2.000000)">
                            <mask id="mask-64" fill="white">
                                <use xlink:href="#path-63"></use>
                            </mask>
                            <g id="Clip-34752"></g>
                            <path d="M21.6811594,37.2509338 L40.9344311,61.2173913 L45.9130435,55.3081578 C40.772164,51.7713283 33.001912,45.9607052 24.0586547,35.7101449 L21.6811594,37.2509338 Z" id="Fill-34751" fill="#E29052" mask="url(#mask-64)"></path>
                        </g>
                        <g id="Group-34756" transform="translate(1.000000, 2.000000)">
                            <mask id="mask-66" fill="white">
                                <use xlink:href="#path-65"></use>
                            </mask>
                            <g id="Clip-34755"></g>
                            <polygon id="Fill-34754" fill="#E29052" mask="url(#mask-66)" points="44.5152309 49.021259 43.3623188 54.6109105 43.8455575 54.8405797 49.7391304 52.9380498 49.2036901 42.0869565"></polygon>
                        </g>
                        <g id="Group-34760" transform="translate(45.000000, 49.000000)">
                            <mask id="mask-68" fill="white">
                                <use xlink:href="#path-67"></use>
                            </mask>
                            <g id="Clip-34759"></g>
                            <path d="M0.430948905,1.39313725 L0.287883212,1.73529412 L0,3.98627451 L0,4 C1.45459854,2.17745098 2,0 2,0 L2,0 L0.430948905,1.39313725 Z" id="Fill-34758" mask="url(#mask-68)"></path>
                        </g>
                        <mask id="mask-70" fill="white">
                            <use xlink:href="#path-69"></use>
                        </mask>
                        <g id="Clip-34762"></g>
                        <path d="M49.9936129,40.7375591 C49.866825,36.8951188 48.2346325,35 48.2346325,35 C48.2346325,35 45.3875237,35.8550181 44.3395181,36.8967007 C41.9835115,39.2402887 40.280703,48.0380375 41.3030301,50.180724 C41.7435776,51.1053458 45.4782011,51.4066982 46.6634265,50.2376725 C47.3872405,49.5202799 47.6472358,49.3937277 48.0564876,48.661307 C49.1654798,46.6760198 50.0858951,43.5438535 49.9936129,40.7375591" id="Fill-34761" fill="#E29052" mask="url(#mask-70)"></path>
                        <path d="M59.1659354,45.4200851 C57.6433327,42.5845965 58.8378161,43.0720872 56.8480879,37.8910626 C54.8583597,32.710038 49.8888883,33.0030249 49.8888883,33.0030249 C49.7151306,33.0383146 49.5575364,33.0982251 49.4080239,33.1679838 C49.5543037,33.0990457 49.707857,33.042418 49.8775739,33.0071283 C48.690364,33.1843976 47.382736,33.6538331 45.8690232,34.5557729 C45.2766305,35.0153601 44.685046,35.5168025 44.0821471,36.0724105 C43.7265498,36.3998664 43.3669117,36.7478395 43,37.1228955 L43.7451379,38.7232436 C44.0142603,39.2977276 44.3132853,39.8541563 44.6308982,40.3990954 C45.7768912,42.3646512 47.2162518,44.1102617 48.73643,45.5743751 L48.9303921,46.6076255 L44.7949579,54.7997667 C49.1801184,57.1411991 53.8917818,55.4407266 55.550158,54.8358771 C57.2085342,54.2310276 60.1810039,55.3709679 60.1810039,55.3709679 C61.8523109,52.3319478 60.6877299,48.2563945 59.1659354,45.4200851" id="Fill-34764" fill="#333333" mask="url(#mask-70)"></path>
                        <g id="Group-34769" mask="url(#mask-70)">
                            <g transform="translate(44.000000, 33.000000)">
                                <mask id="mask-72" fill="white">
                                    <use xlink:href="#path-71"></use>
                                </mask>
                                <g id="Clip-34768" stroke="none" fill="none"></g>
                                <path d="M6.18533833,0 C6.10594931,0 6.06314151,0.00311457175 6.06314151,0.00311457175 L6.06314151,0.00311457175 C6.0530233,0.00467185762 6.04134845,0.00700778643 6.03123024,0.0101223582 L6.03123024,0.0101223582 C4.89254269,0.180645161 3.6409982,0.626028921 2.19253782,1.47552836 L2.19253782,1.47552836 C1.62124824,1.91156841 1.05229362,2.38731924 0.471664153,2.91523915 L0.471664153,2.91523915 C0.31677774,3.05617353 0.155664737,3.21735261 0,3.36685206 L0,3.36685206 L1.55197743,5.30956618 C5.53465973,10.268743 11.1051223,13.1419355 16,14 L16,14 C15.7127986,13.2104561 15.3664445,12.4598443 14.9982974,11.7839822 L14.9982974,11.7839822 C13.5319356,9.09377086 14.682298,9.55550612 12.7652868,4.6407119 L12.7652868,4.6407119 C11.0553096,0.252280311 7.05706086,0.00311457175 6.21958457,0 L6.21958457,0 L6.18533833,0 Z M5.76426521,0.0903225806 C5.70822591,0.11134594 5.65374325,0.134705228 5.60003892,0.158843159 L5.60003892,0.158843159 C5.65374325,0.134705228 5.70822591,0.11134594 5.76426521,0.0903225806 L5.76426521,0.0903225806 Z" id="Fill-34767" stroke="none" fill="none" mask="url(#mask-72)"></path>
                            </g>
                        </g>
                        <path d="M48.300304,45.8086725 C48.6729192,44.3439255 49.5159824,42.6224991 50.3803136,43.0730831 C50.7580331,43.2697777 50.9664594,43.9637888 50.9664594,43.9637888 C51.1323497,45.088854 50.7639881,45.9677021 48,47 L48.300304,45.8086725 Z" id="Fill-34770" fill="#E29052" mask="url(#mask-70)"></path>
                        <g id="Group-34775" mask="url(#mask-70)">
                            <g transform="translate(50.000000, 33.000000)">
                                <mask id="mask-74" fill="white">
                                    <use xlink:href="#path-73"></use>
                                </mask>
                                <g id="Clip-34774" stroke="none" fill="none"></g>
                                <path d="M0.698187041,0 C2.71585532,3.45945364 3.89462265,6.22784219 4.74121288,8.88972251 L4.74121288,8.88972251 C5.83309129,14.4975051 4.47670149,17.5276232 2.36829965,20.2150985 L2.36829965,20.2150985 L0,23 L0,23 C2.13915897,22.8753276 3.93153121,22.190042 4.81503001,21.8498762 L4.81503001,21.8498762 C6.39287121,21.2413756 9.22022115,22.3873712 9.22022115,22.3873712 L9.22022115,22.3873712 C10.8111341,19.3308325 9.70310823,15.2298525 8.25521594,12.3772481 L8.25521594,12.3772481 C6.80655472,9.52464372 7.94303098,10.0142514 6.04916019,4.80277848 L6.04916019,4.80277848 C4.78119716,1.31029903 2.24450217,0.294755358 0.705107397,0 L0.705107397,0 L0.698187041,0 Z" id="Fill-34773" stroke="none" fill="none" mask="url(#mask-74)"></path>
                            </g>
                        </g>
                        <path d="M89,46 C89,70.300352 69.3001724,90 45.0004013,90 C20.6998276,90 1,70.300352 1,46 C1,21.699648 20.6998276,2 45.0004013,2 C69.3001724,2 89,21.699648 89,46 Z" id="Stroke-34789" stroke="#D7CDC0" stroke-width="3.73709736" mask="url(#mask-70)"></path>
                    </g>
                </g>
            </g>
        </g>
    </g>
</svg>