<?xml version="1.0" encoding="UTF-8"?>
<svg width="71px" height="115px" viewBox="0 0 71 115" version="1.1" xmlns="http://www.w3.org/2000/svg" xmlns:xlink="http://www.w3.org/1999/xlink">
    <title>ILUSTRACIONES</title>
    <defs>
        <path d="M0.885731864,0.276622876 L0,0.566344405 C2.17439454,1.2526449 2.89635886,1.0208332 3.48050786,0.579098357 L3.48050786,0.579098357 L4,0.153909176 C3.66463449,0.0563586793 3.2183008,0 2.72901169,0 L2.72901169,0 C2.13747972,0 1.48285698,0.0827283366 0.885731864,0.276622876" id="path-1"></path>
        <path d="M0.0013172179,0 L0.0821643357,0.0186930682 C1.45297459,0.346601627 2.63897324,1.18977803 3.38261558,2.36790183 L3.38261558,2.36790183 L16.3792753,22.9430445 L16.3792753,22.944336 L7.71181687,28.498283 L7.66890293,28.5248564 C6.79195193,29.0521648 5.65323633,28.7864073 5.10487799,27.9177693 L5.10487799,27.9177693 L0,0 L0.0013172179,0 Z" id="path-3"></path>
        <polygon id="path-5" points="2.91961348 0 16.9353059 8.40146681 0 8.40146681 2.91928418 0"></polygon>
        <polygon id="path-7" points="0 13.1620296 1.12657554 15.284654 1.90449566 13.1620296 14.4227074 39.9858076 15 39.9858076 5.48664112 0"></polygon>
        <path d="M0,2.94185922 C0.999493079,5.64722979 2.59668551,9.39538851 4.83759017,12.9953875 L4.83759017,12.9953875 L8,4.74081427 L0.275609281,0 C0.182335738,0.966246402 0.0904659778,1.94472755 0,2.94185922" id="path-9"></path>
        <path d="M3.41994089,0 L3.51178026,0.00884530002 C4.26334617,0.0812083847 5.40973604,0.191051778 6.25979845,0.270974912 L6.25979845,0.270974912 L12.8532793,10.0112855 L16.8264076,49.8574552 L16.8076673,49.8574552 L16.6729357,49.8568484 C13.7998638,49.830968 11.0056914,48.9778265 8.67817158,47.4140201 L8.67817158,47.4140201 L2.96097576,43.5724766 L2.72301508,43.3977668 C1.77430852,42.6968822 0.863497801,41.9709577 0,41.2021694 L0,41.2021694 L0.141969578,40.9057771 C4.80266153,31.0691242 7.04586428,15.7392499 3.49108482,1.47107555 C3.37517227,1.00611088 3.41994089,0 3.41994089,0" id="path-11"></path>
        <path d="M1.16068723,0 L1.21043686,0.000196950588 C1.49049076,0.00240604584 1.73804075,0.0228056598 1.9085836,0.041444901 L1.9655052,0.047917875 C2.06373361,0.0595318684 2.12752818,0.0694260975 2.14483234,0.0721955882 L2.14958789,0.0729671472 L2.53307104,0.544521354 L1.2377309,1.64642171 L0,0.14191628 L0.0866036416,0.118067963 C0.436002751,0.0279368521 0.819089571,0 1.15929906,0 L1.15929906,0 L1.16068723,0 Z" id="path-13"></path>
        <path d="M0,1.24934447 L0.496848388,1.99929038 C1.09372283,0.920410193 0.993696775,0 0.993696775,0 L0.993696775,0 L0,1.24934447 Z" id="path-15"></path>
        <path d="M4.95502924,0 L5.01353614,0.000787055726 C5.93368773,0.0187131997 7.01913551,0.3020257 8.09461225,1.18813138 L8.09461225,1.18813138 L8.17549596,1.25501173 C9.7453753,2.5576854 10.0932178,3.11830426 10.4840005,3.58980972 L10.5239384,3.63747766 C10.7784401,3.93775119 11.0685423,4.21023994 11.7322143,4.62939309 L11.7322143,4.62939309 L11.8521297,4.70622779 C12.2525662,4.96642893 12.6593418,5.26726721 13.0471254,5.60220387 L13.0471254,5.60220387 L12.9106339,5.64439512 C11.4938304,6.07447399 9.88007501,6.32107412 8.18099817,6.3229477 L8.18099817,6.3229477 L8.13369559,6.3229477 L7.99140308,6.32216036 C5.9016264,6.30219745 3.68932548,5.91111302 1.5589723,5.03666493 L1.5589723,5.03666493 L0,4.39199245 L0.0346827934,4.28967336 C0.0691611541,4.18654339 0.103285689,4.08198557 0.139391648,3.98504295 L0.139391648,3.98504295 L0.207439889,3.80513589 C0.36737342,3.38886948 0.535445928,2.99688091 0.712893509,2.62204415 L0.712893509,2.62204415 L0.772818704,2.52918934 C1.35250492,1.64100377 1.94411931,1.02469617 2.55266198,0.589714153 L2.55266198,0.589714153 L2.56163605,0.582481734 L2.56163605,0.582481734 L2.57061012,0.57537019 C2.60285057,0.556673256 3.55710377,0.0096674011 4.8842431,0 L4.8842431,0 L4.95502924,0 Z" id="path-17"></path>
        <path d="M1.56652058,0 L1.62512381,0.000626980597 C2.54681534,0.0160630893 3.63525717,0.297754745 4.71549702,1.18764788 L4.71549702,1.18764788 L4.79638073,1.25452822 C6.36626007,2.55720189 6.71410259,3.11782076 7.10488525,3.58932622 L7.14482316,3.63699416 C7.3993249,3.93726769 7.68942706,4.20975644 8.35309905,4.62890959 L8.35309905,4.62890959 L8.41243717,4.66665751 C10.1151637,5.75738196 11.956513,7.58736533 11.9735916,9.6849147 L11.9735916,9.6849147 L11.9735916,9.74229055 L11.9733191,9.76412883 L11.9733191,9.76412883 L11.9729207,9.78596711 C11.9156587,9.79324837 9.89171428,10.0556126 9.12520465,10.8688557 L9.12520465,10.8688557 L9.09554136,10.9003301 C8.65071276,11.3719862 7.77664124,12.2802909 6.53949796,13.0003041 L6.53949796,13.0003041 L7.13950269,10.7415329 L7.15347265,10.6778446 C7.60879887,8.57654906 7.49596622,6.51448312 5.15614908,3.82468067 L5.15614908,3.82468067 L5.0748949,3.75211018 C3.7700015,2.59182221 2.23026638,1.47082027 0,0.240785172 L0,0.240785172 L0.0639921015,0.221128489 C0.454121413,0.103970849 0.954641657,0.00244296941 1.52290827,0 L1.52290827,0 L1.56652058,0 Z" id="path-19"></path>
        <path d="M3.22747859,0 L3.3192731,0.0568602378 C6.34054956,1.94007099 8.57068757,4.51037205 8.57367669,11.2198799 L8.57367669,11.2198799 L8.57367669,11.2455056 L8.57335889,11.3718665 C8.56332323,13.5705527 8.31755723,16.2083951 7.78647451,19.4035135 L7.78647451,19.4035135 L7.69119839,19.3824005 L7.51430383,19.2264905 C7.33873546,19.0709532 7.16701199,18.9165038 6.99793042,18.7628703 L6.99793042,18.7628703 L7.11383852,18.5019391 L7.11229715,18.500441 C7.0109466,18.4017865 1.94916156,13.4519181 3.0976481,10.0235289 L3.0976481,10.0235289 L0,4.98847567 C0.0718747623,4.88427564 1.05815622,3.45069125 2.02361956,1.94961788 L2.10749764,1.81895038 L2.10749764,1.81895038 L2.23281908,1.62271458 C2.59362951,1.05590397 2.94186158,0.492494319 3.22747859,0" id="path-21"></path>
        <path d="M0.000167739649,0 L4.39544977,6.63932072 L4.39528203,6.63932072 L2.93628256,6.17209434 L2.8897851,6.15503328 C1.35920625,5.58718943 0.210400874,4.53124332 0,0 L0,0 L0.000167739649,0 Z" id="path-23"></path>
        <path d="M33.1913153,0 L33.7379447,4.73112241e-05 C51.7418949,0.00316587374 66.2618934,0.160062507 66.3816242,0.353764025 L66.3816242,0.353764025 L66.3816242,0.358599068 L66.3738171,0.36434197 C65.9764702,0.553497501 51.7825565,0.706615838 34.1452507,0.712040756 L34.1452507,0.712040756 L32.23738,0.712040756 L31.7017455,0.711830887 C14.0616002,0.70340827 0,0.547170604 0,0.356181546 C0,0.159395271 14.8602233,0 33.1913153,0" id="path-25"></path>
        <linearGradient x1="20.3479824%" y1="49.9953259%" x2="100.193409%" y2="49.9953259%" id="linearGradient-27">
            <stop stop-color="#1C1C1A" offset="0%"></stop>
            <stop stop-color="#FFFFFF" offset="100%"></stop>
        </linearGradient>
        <polygon id="path-28" points="0 0 59.7549017 0 59.7549017 1.85585091 0 1.85585091"></polygon>
    </defs>
    <g id="Alerta-Priority-Boarding" stroke="none" stroke-width="1" fill="none" fill-rule="evenodd">
        <g id="01_landing_ancilliaries_modal_prioridad-de-embarque_1280_1024_768" transform="translate(-755.000000, -517.000000)">
            <g id="ALERTA" transform="translate(620.000000, 130.000000)">
                <g id="Group-6" transform="translate(114.000000, 387.000000)">
                    <g id="ILUSTRACIONES" transform="translate(21.000000, 0.000000)">
                        <g id="ILUSTRA-01" transform="translate(35.500000, 57.005322) scale(-1, 1) translate(-35.500000, -57.005322) ">
                            <g id="Group-42052" transform="translate(4.000000, 18.044706)">
                                <mask id="mask-2" fill="white">
                                    <use xlink:href="#path-1"></use>
                                </mask>
                                <g id="Clip-42051"></g>
                                <path d="M0.885731864,0.276622876 L0,0.566344405 C2.17439454,1.2526449 2.89635886,1.0208332 3.48050786,0.579098357 L3.48050786,0.579098357 L4,0.153909176 C3.66463449,0.0563586793 3.2183008,0 2.72901169,0 L2.72901169,0 C2.13747972,0 1.48285698,0.0827283366 0.885731864,0.276622876" id="Fill-42050" mask="url(#mask-2)"></path>
                            </g>
                            <path d="M5,18.0947239 L5.74349566,18.0274366 C6.1009006,17.9957949 6.26634423,17.9704249 7,18.0343106 L6.75,18.0906846 C6.23165444,18.0594681 5.64559706,18.0620547 5,18.0947239" id="Fill-42053" fill="#FFFFFF"></path>
                            <line x1="59.5" y1="90.5189824" x2="34" y2="49.0337071" id="Stroke-42055" stroke="#D7CDC0" stroke-width="1.523"></line>
                            <g id="Group-42083" transform="translate(10.000000, 45.035126)">
                                <path d="M39.2222212,17.7134006 L38.0599411,18.5061989 C37.7108784,18.7443129 37.6145568,19.2094018 37.8414476,19.5619719 L38.2186659,20.1487815 L40.004978,18.9306067 L39.2222212,17.7134006 Z" id="Fill-42056" fill="#D7CDC0"></path>
                                <path d="M59.9999506,39.8256292 L47.0026322,19.2496794 C46.244244,18.0479708 45.0254882,17.1947965 43.6200167,16.8814547 C43.358055,16.8231773 43.0832504,16.871123 42.8580061,17.0143142 L34.5320364,22.3089995 L35.5464588,23.9167125 L48.7248947,44.7993854 C49.2822425,45.6824249 50.4492975,45.9424937 51.3316689,45.3800605 L59.9999506,39.8256292 Z" id="Fill-42058" stroke="#D7CDC0" fill="#FFFFFF"></path>
                                <g id="Group-42062" transform="translate(43.620000, 16.881648)">
                                    <mask id="mask-4" fill="white">
                                        <use xlink:href="#path-3"></use>
                                    </mask>
                                    <g id="Clip-42061"></g>
                                    <path d="M0,0 L5.10487799,27.9177693 C5.66222581,28.8006473 6.82944553,29.0607161 7.71181687,28.498283 L7.71181687,28.498283 L16.3792753,22.944336 L16.3792753,22.9430445 L3.38261558,2.36790183 C2.62439202,1.16667757 1.40629476,0.313664662 0.0013172179,0 L0.0013172179,0 L0,0 Z" id="Fill-42060" mask="url(#mask-4)"></path>
                                </g>
                                <polygon id="Fill-42063" points="48.9933766 36.1014627 43.4900402 27.3808425 45.5486871 26.0688751 51.0520235 34.7894953"></polygon>
                                <path d="M48.8005194,34.2560232 L45.0690058,28.3430488 C44.9517734,28.1572392 45.0070965,27.9104079 45.1928242,27.7922388 L45.1928242,27.7920774 C45.378552,27.6739083 45.6242131,27.7284727 45.7416101,27.9144437 L49.4731238,33.8274181 C49.5903562,34.0132277 49.5348684,34.2598976 49.3491407,34.3782281 C49.163413,34.4965586 48.9177518,34.4418328 48.8005194,34.2560232" id="Fill-42065" fill="#C5B9AC"></path>
                                <path d="M51.3317183,45.3802543 L60,39.8256615 L57.8937686,36.4912593 L47.6747921,43.1353645 L48.724944,44.7990948 C49.2822919,45.6822957 50.4493469,45.942526 51.3317183,45.3802543" id="Fill-42070" stroke="#D7CDC0"></path>
                                <path d="M48.7740598,47.2466639 C49.2416722,47.9874808 50.2206944,48.205577 50.9609708,47.7340307 C51.7012473,47.2621615 51.9222106,46.2791949 51.4547629,45.5382166 C50.9871505,44.7972383 50.0079637,44.5791421 49.2678519,45.0508499 C48.5275754,45.5225576 48.3064475,46.5056856 48.7740598,47.2466639" id="Fill-42072" stroke="#D9CDBE" fill="#D7CDC0"></path>
                                <path d="M49.4253088,46.8315708 C49.6657011,47.2123917 50.169043,47.3245877 50.5495543,47.0821151 C50.9300656,46.8396425 51.0438403,46.3341952 50.803448,45.9533743 C50.5630558,45.572392 50.0597139,45.460196 49.6792026,45.70283 C49.2985266,45.9453027 49.1849165,46.4507499 49.4253088,46.8315708" id="Fill-42074" fill="#FFFFFF"></path>
                                <polygon id="Fill-42076" fill="#D7192C" points="22.3315855 30.9520027 5.39627952 30.9520027 8.3155637 22.5505359"></polygon>
                                <g id="Group-42080" transform="translate(5.396312, 22.550536)">
                                    <mask id="mask-6" fill="white">
                                        <use xlink:href="#path-5"></use>
                                    </mask>
                                    <g id="Clip-42079"></g>
                                    <polygon id="Fill-42078" mask="url(#mask-6)" points="2.91928418 0 0 8.40146681 16.9353059 8.40146681 2.91961348 0"></polygon>
                                </g>
                                <path d="M3.67240352,1.24658699 C2.13191718,14.5564295 1.33796409,23.6137993 0,44.628686 L1.00651913,45.1012009 L10.9462454,18.5070222 L23.6032276,45.1012009 L24.9617732,45.1012009 L16.3805926,0 L3.67240352,1.24658699 Z" id="Fill-42081" fill="#C5B9AC"></path>
                            </g>
                            <g id="Group-42086" transform="translate(19.000000, 50.033352)">
                                <mask id="mask-8" fill="white">
                                    <use xlink:href="#path-7"></use>
                                </mask>
                                <g id="Clip-42085"></g>
                                <polygon id="Fill-42084" mask="url(#mask-8)" points="0 13.1620296 1.12657554 15.284654 1.90449566 13.1620296 14.4227074 39.9858076 15 39.9858076 5.48664112 0"></polygon>
                            </g>
                            <g id="Group-42089" transform="translate(12.000000, 61.029449)">
                                <mask id="mask-10" fill="white">
                                    <use xlink:href="#path-9"></use>
                                </mask>
                                <g id="Clip-42088"></g>
                                <path d="M0,2.94185922 C0.999493079,5.64722979 2.59668551,9.39538851 4.83759017,12.9953875 L4.83759017,12.9953875 L8,4.74081427 L0.275609281,0 C0.182335738,0.966246402 0.0904659778,1.94472755 0,2.94185922" id="Fill-42087" mask="url(#mask-10)"></path>
                            </g>
                            <polygon id="Fill-42090" fill="#333333" points="32 49.0337071 34 49.0337071 34 48.0340619 32 48.0340619"></polygon>
                            <g id="Group-42111" transform="translate(9.000000, 8.022441)">
                                <path d="M27.5712737,37.990491 C27.0585168,37.4625238 24.9372129,36.8022837 24.9372129,36.8022837 L24.4570782,36.5538096 L22.998107,37.0991346 C22.998107,37.0991346 22.8686597,38.9570646 23.5552854,39.4506375 C23.8872326,39.6883433 24.6686012,40.1542723 24.7182285,40.3807276 L24.7156256,40.4776421 L24.7156256,41.7698356 C25.3495007,42.1824054 25.3828169,42.1669762 25.9599504,42.1219744 C26.737328,42.0594541 27.4138894,41.3146749 27.6491849,40.8532461 C27.8856951,40.3918173 27.9471219,38.3755775 27.5712737,37.990491" id="Fill-42091" fill="#E29052"></path>
                                <path d="M21.0056257,28.1928193 L8.51726275,9.74402434 L5.54500807,10.9876803 L4.65362666,13.0183849 L4.62169865,12.9677579 C-4.64089431,45.0244436 1.31072944,54.5996941 11.1133222,61.7540104 L16.8154216,65.5854285 C19.1890261,67.1802589 22.0464094,68.0391497 24.9789276,68.0391497 L21.0056257,28.1928193 Z" id="Fill-42093" fill="#D7192C"></path>
                                <g id="Group-42097" transform="translate(8.152398, 18.181646)">
                                    <mask id="mask-12" fill="white">
                                        <use xlink:href="#path-11"></use>
                                    </mask>
                                    <g id="Clip-42096"></g>
                                    <path d="M3.49108482,1.47107555 C7.08177115,15.8833729 4.75675273,31.378927 0,41.2021694 L0,41.2021694 C0.935455951,42.0350234 1.92643887,42.817572 2.96097576,43.5724766 L2.96097576,43.5724766 L8.67817158,47.4140201 C11.0420589,49.002261 13.8872956,49.8574552 16.8076673,49.8574552 L16.8076673,49.8574552 L16.8257135,49.8574552 L16.8264076,49.8574552 L12.8532793,10.0112855 L6.25979845,0.270974912 C5.37431677,0.187721647 4.16729922,0.0720028237 3.41994089,0 L3.41994089,0 C3.41994089,0 3.37517227,1.00611088 3.49108482,1.47107555" id="Fill-42095" mask="url(#mask-12)"></path>
                                </g>
                                <path d="M26.3190884,82.1266308 L21.8819628,83.9342552 C21.4342766,84.1248698 21.1474451,84.5393682 21.1474451,84.995654 L29,84.995654 L29,84.5956204 C29,84.2275703 28.8913754,83.8664311 28.6859256,83.5515795 L27.7560223,82.12647 L26.3190884,82.1266308 Z" id="Fill-42098" fill="#000000"></path>
                                <polygon id="Fill-42100" fill="#618080" points="5.62324905 10.557817 4.38551814 9.05315082 5.79538266 8.07388027 6.91858918 9.45575589"></polygon>
                                <polygon id="Fill-42102" fill="#000000" points="4.38558755 11.2743254 4.38558755 9.05316689 5.62331846 10.557833"></polygon>
                                <g id="Group-42106" transform="translate(4.385588, 8.911283)">
                                    <mask id="mask-14" fill="white">
                                        <use xlink:href="#path-13"></use>
                                    </mask>
                                    <g id="Clip-42105"></g>
                                    <path d="M1.15929906,0 C0.790738781,0 0.371857188,0.0327870001 0,0.14191628 L0,0.14191628 L1.2377309,1.64642171 L2.53307104,0.544521354 L2.14958789,0.0729671472 C2.14958789,0.0729671472 1.71144538,0 1.16068723,0 L1.16068723,0 L1.15929906,0 Z" id="Fill-42104" mask="url(#mask-14)"></path>
                                </g>
                                <path d="M15.9259316,22.6145291 C9.8967436,17.5344727 6.32306241,10.058876 5.92361526,5.02221417 L10.8734977,6.54922048 C16.144222,8.39381067 20.1126653,11.7658893 20.8336483,26.7328334 L15.9259316,22.6145291 Z" id="Fill-42107" fill="#D7192C"></path>
                                <polygon id="Fill-42109" fill="#E29052" transform="translate(7.170885, 4.866360) rotate(18.000000) translate(-7.170885, -4.866360) " points="4.73630717 6.3647809 6.42713829 9.19211139 9.60546342 6.54575612 5.99280492 0.540608673"></polygon>
                            </g>
                            <g id="Group-42114" transform="translate(14.000000, 13.046480)">
                                <mask id="mask-16" fill="white">
                                    <use xlink:href="#path-15"></use>
                                </mask>
                                <g id="Clip-42113"></g>
                                <path d="M0,1.24934447 L0.496848388,1.99929038 C1.09372283,0.920410193 0.993696775,0 0.993696775,0 L0.993696775,0 L0,1.24934447 Z" id="Fill-42112" mask="url(#mask-16)"></path>
                            </g>
                            <g id="Group-42151">
                                <path d="M13.2597692,6.91197343 C11.9733542,4.76428001 10.421893,4.17538854 10.421893,4.17538854 C10.421893,4.17538854 9.02821298,5.51591515 8.74519084,6.42278746 C8.10813994,8.46272658 9.88923714,13.9787946 11.162277,14.8909447 C11.711553,15.2844875 13.9884686,14.3362165 14.3118588,13.3156781 C14.5085559,12.6904587 14.6202465,12.5407826 14.6281587,12.0010049 C14.6498959,10.5384956 14.1995453,8.48106385 13.2597692,6.91197343" id="Fill-42115" fill="#E29052" transform="translate(11.620292, 9.578695) rotate(2.000000) translate(-11.620292, -9.578695) "></path>
                                <polygon id="Fill-42117" fill="#000000" points="14.5190744 20.091147 14.6314599 19.2746693 16.7006962 20.7330796"></polygon>
                                <polygon id="Fill-42119" fill="#000000" points="12.8019403 21.7157377 13.1724772 19.9615839 14.7554363 21.1572902"></polygon>
                                <path d="M12.8552312,21.4634452 L14.860391,20.7331924 L14.6314264,19.2746209 L16.7006627,20.7331924 C16.7006627,20.7331924 19.9574957,16.0116112 20.5413974,14.5722187 L19.373594,13.6208433 L14.9422479,17.0993348 C14.0200154,17.8234632 13.3931723,18.8370495 13.1724269,19.9616806 L12.8552312,21.4634452 Z" id="Fill-42121" fill="#618080"></path>
                                <path d="M20.2080218,6.62750151 C18.4752601,5.53559613 19.3144905,5.4412173 16.6085443,3.20633307 C13.9027613,0.971932286 11.104293,2.6366932 11.104293,2.6366932 C11.013863,2.70868763 10.9404292,2.78878563 10.8744944,2.87237793 C10.9389074,2.79073706 11.0113187,2.71290963 11.0988953,2.64206945 C10.4627623,3.09887081 9.84374069,3.7518681 9.23445577,4.70373206 C9.02846581,5.13491211 8.83466996,5.58845472 8.65097229,6.07504196 C8.54253403,6.3620998 8.43750599,6.66157262 8.33685584,6.97781558 L9.24870594,7.62875817 C9.57650306,7.86154355 9.91733215,8.07612507 10.2647876,8.27837194 C11.5182605,9.00766742 12.8766852,9.52749754 14.1979386,9.86955409 L14.6194902,10.376287 L14.6696619,16.1143419 C17.9167705,16.0686566 20.1441643,13.7114115 20.9262789,12.878211 C21.7085608,12.0450091 23.775515,11.7694008 23.775515,11.7694008 C23.8366524,9.59888445 21.9407808,7.71973009 20.2080218,6.62750151" id="Fill-42123" fill="#333333" transform="translate(16.056906, 9.077444) rotate(18.000000) translate(-16.056906, -9.077444) "></path>
                                <g id="Group-42127" transform="translate(8.471691, 2.039576)">
                                    <mask id="mask-18" fill="white">
                                        <use xlink:href="#path-17"></use>
                                    </mask>
                                    <g id="Clip-42126"></g>
                                    <path d="M4.91553965,-2.66496339e-06 C3.56936651,0.0207554145 2.60319985,0.595606111 2.60319985,0.595606111 L2.60319985,0.595606111 C2.59713825,0.600341369 2.59124262,0.605236876 2.58517968,0.610133737 L2.58517968,0.610133737 C1.95356782,1.06641371 1.33841281,1.71711739 0.733361236,2.66280657 L0.733361236,2.66280657 C0.527538571,3.09398526 0.333742721,3.54752788 0.150045055,4.03411511 L0.150045055,4.03411511 C0.100956668,4.16410954 0.05526914,4.30765017 0.00763960232,4.44328851 L0.00763960232,4.44328851 L1.55716701,5.07710953 C3.72279268,5.95624783 5.97810711,6.3277452 8.10395464,6.31376249 L8.10395464,6.31376249 L8.15113309,6.31338045 C9.90043236,6.29727598 11.5612209,6.02043211 13.0104761,5.55139057 L13.0104761,5.55139057 C12.5880933,5.18541121 12.1424478,4.86098782 11.7070945,4.58657466 L11.7070945,4.58657466 C9.9743329,3.49466928 10.813396,3.40029181 8.10761703,1.16540622 L8.10761703,1.16540622 C7.01965555,0.266876203 5.9161002,-0.00115647836 4.98614003,-0.000575313922 L4.98614003,-0.000575313922 L4.91553965,-2.66496339e-06 Z" id="Fill-42125" mask="url(#mask-18)" transform="translate(6.509058, 3.156783) rotate(18.000000) translate(-6.509058, -3.156783) "></path>
                                </g>
                                <path d="M13.7847994,10.3354241 C13.474652,9.28451627 13.3334477,7.93281004 13.9689649,7.97452552 C14.2468466,7.99279751 14.6059862,8.3799728 14.6059862,8.3799728 C15.0937094,9.05729594 15.2002281,9.72914159 14.0386981,11.1891603 L13.7847994,10.3354241 Z" id="Fill-42128" fill="#E29052" transform="translate(14.237638, 9.581372) rotate(18.000000) translate(-14.237638, -9.581372) "></path>
                                <g id="Group-42132" transform="translate(11.850806, 2.040060)">
                                    <mask id="mask-20" fill="white">
                                        <use xlink:href="#path-19"></use>
                                    </mask>
                                    <g id="Clip-42131"></g>
                                    <path d="M1.52290827,0 C0.923071289,0.00257868993 0.398717146,0.115557542 0,0.240785172 L0,0.240785172 C2.27673026,1.496446 3.83385742,2.6384833 5.15614908,3.82468067 L5.15614908,3.82468067 C7.51960073,6.54165284 7.6108511,8.61814291 7.13950269,10.7415329 L7.13950269,10.7415329 L6.53949796,13.0003041 C7.80475814,12.263927 8.69025574,11.3306024 9.12520465,10.8688557 L9.12520465,10.8688557 C9.90251019,10.0441584 11.9729207,9.78596711 11.9729207,9.78596711 L11.9729207,9.78596711 C11.9732562,9.77146198 11.9734239,9.75679568 11.9735916,9.74229055 L11.9735916,9.74229055 L11.9735916,9.6849147 C11.9563145,7.56297522 10.072095,5.71486039 8.35309905,4.62890959 L8.35309905,4.62890959 C6.60659382,3.52587497 7.4471372,3.43852185 4.71549702,1.18764788 L4.71549702,1.18764788 C3.61227334,0.278820848 2.50049495,0.00435153925 1.56652058,0 L1.56652058,0 L1.52290827,0 Z" id="Fill-42130" mask="url(#mask-20)"></path>
                                </g>
                                <polygon id="Fill-42133" fill="#A80E1F" points="33.6823228 45.0964292 33.7339867 45.2624324 30.0494175 45.5913765 30.0190566 45.0964292"></polygon>
                                <polyline id="Fill-42135" fill="#D7192C" points="18.3472622 25.7534504 27.4283513 25.2496389 33.6823564 45.0965259 30.0190902 45.0965259 23.8244649 34.2320218"></polyline>
                                <g id="Group-42139" transform="translate(16.710559, 15.730163)">
                                    <mask id="mask-22" fill="white">
                                        <use xlink:href="#path-21"></use>
                                    </mask>
                                    <g id="Clip-42138"></g>
                                    <path d="M0,4.98847567 L3.0976481,10.0235289 C1.93756069,13.4865483 7.11383852,18.5019391 7.11383852,18.5019391 L7.11383852,18.5019391 L6.99793042,18.7628703 C7.22337251,18.9677149 7.45351131,19.1740101 7.69119839,19.3824005 L7.69119839,19.3824005 L7.78647451,19.4035135 C8.32777036,16.1469505 8.57267025,13.4693033 8.57367669,11.2455056 L8.57367669,11.2455056 L8.57367669,11.2198799 C8.57065737,4.44259924 6.29526903,1.88856804 3.22747859,0 L3.22747859,0 C2.12895163,1.89420892 0.104166322,4.83746114 0,4.98847567" id="Fill-42137" mask="url(#mask-22)"></path>
                                </g>
                                <g id="Group-42142" transform="translate(15.609684, 46.285060)">
                                    <mask id="mask-24" fill="white">
                                        <use xlink:href="#path-23"></use>
                                    </mask>
                                    <g id="Clip-42141"></g>
                                    <path d="M0,0 C0.212526135,4.57701345 1.38251019,5.60816709 2.93628256,6.17209434 L2.93628256,6.17209434 L4.39528203,6.63932072 L4.39544977,6.63932072 L0.000167739649,0 L0,0 Z" id="Fill-42140" mask="url(#mask-24)"></path>
                                </g>
                                <g id="Group-42145" transform="translate(4.618376, 92.973531)">
                                    <mask id="mask-26" fill="white">
                                        <use xlink:href="#path-25"></use>
                                    </mask>
                                    <g id="Clip-42144"></g>
                                    <path d="M0,0.356181546 C0,0.549099787 14.3471077,0.70656104 32.23738,0.712040756 L32.23738,0.712040756 L34.1452507,0.712040756 C51.9607111,0.70656104 66.2628646,0.550389132 66.3816242,0.358599068 L66.3816242,0.358599068 L66.3816242,0.353764025 C66.260684,0.158105926 51.4470923,0 33.1913153,0 L33.1913153,0 C14.8602233,0 0,0.159395271 0,0.356181546" id="Fill-42143" fill="url(#linearGradient-27)" mask="url(#mask-26)"></path>
                                </g>
                                <path d="M10.8994876,90.5080614 L9.79123171,93.1849027 L8.39312173,93.1849027 L3.92906645,89.1843876 L3.9500339,89.1574726 C4.16356648,88.8841314 4.52605186,88.7589038 4.87176327,88.8394879 L9.87560475,90.0363223 L10.8994876,90.5080614 Z" id="Fill-42146" fill="#000000"></path>
                                <g id="Group-42150" transform="translate(0.000000, 112.154793)">
                                    <mask id="mask-29" fill="white">
                                        <use xlink:href="#path-28"></use>
                                    </mask>
                                    <g id="Clip-42149"></g>
                                </g>
                            </g>
                        </g>
                    </g>
                </g>
            </g>
        </g>
    </g>
</svg>