<?xml version="1.0" encoding="UTF-8"?>
<svg width="109px" height="34px" viewBox="0 0 109 34" version="1.1" xmlns="http://www.w3.org/2000/svg" xmlns:xlink="http://www.w3.org/1999/xlink">
    <!-- Generator: Sketch 60.1 (88133) - https://sketch.com -->
    <title>AVIS_RED@2x</title>
    <desc>Created with Sketch.</desc>
    <g id="AVIS_RED" stroke="none" stroke-width="1" fill="none" fill-rule="evenodd">
        <path d="M95.1,9.606 C93.102,7.814 91.274,7.223 89.321,7.223 C87.367,7.223 84.924,7.892 84.924,10.378 C84.924,12.462 86.791,13.169 89.768,14.105 C94.029,15.483 99.535,17.261 99.535,23.522 C99.535,30.758 93.718,34 87.502,34 C83.017,34 78.485,32.358 75.734,29.471 L80.391,24.693 C82.245,26.69 85.014,27.739 87.502,27.739 C89.81,27.739 91.854,26.848 91.854,24.319 C91.854,21.922 89.453,21.119 85.324,19.782 C81.332,18.496 77.29,16.503 77.29,10.822 C77.29,3.85 83.595,0.964 89.453,0.964 C93.008,0.964 97.004,2.298 99.757,4.824 L95.1,9.606 Z M20.787,20.946 L12.885,20.946 L16.878,10.155 L20.787,20.946 Z M33.75,33.2 L20.892,1.761 L13.328,1.761 L0,33.2 L8.399,33.2 L10.705,27.029 L22.877,27.029 L25.317,33.2 L33.75,33.2 Z M60.728,1.761 L52.337,1.761 L45.055,24.48 L37.642,1.761 L29.117,1.761 L41.016,33.2 L48.609,33.2 L60.728,1.761 Z M63.77,33.2 L71.407,33.2 L71.407,1.761 L63.77,1.761 L63.77,33.2 Z M102.865,4.436 C102.865,5.924 104.067,7.089 105.547,7.089 C107.043,7.089 108.246,5.924 108.246,4.436 C108.246,2.949 107.043,1.761 105.547,1.761 C104.067,1.761 102.865,2.949 102.865,4.436 Z M103.291,4.436 C103.291,3.184 104.304,2.171 105.547,2.171 C106.804,2.171 107.821,3.184 107.821,4.436 C107.821,5.674 106.804,6.703 105.547,6.703 C104.304,6.703 103.291,5.674 103.291,4.436 Z M104.506,5.935 L105.05,5.935 L105.05,4.673 L105.446,4.673 L106.146,5.935 L106.804,5.935 L105.99,4.613 C106.417,4.519 106.688,4.234 106.688,3.797 C106.688,3.149 106.131,2.913 105.553,2.913 L104.506,2.913 L104.506,5.935 Z M105.05,4.234 L105.05,3.374 L105.541,3.374 C105.825,3.374 106.146,3.455 106.146,3.786 C106.146,4.151 105.791,4.234 105.475,4.234 L105.05,4.234 L105.05,4.234 Z" id="Fill-1" fill="#C92335"></path>
    </g>
</svg>