<?xml version="1.0" encoding="UTF-8"?>
<svg width="624px" height="133px" viewBox="0 0 624 133" version="1.1" xmlns="http://www.w3.org/2000/svg" xmlns:xlink="http://www.w3.org/1999/xlink">
    <!-- Generator: Sketch 51.2 (57519) - http://www.bohemiancoding.com/sketch -->
    <title>budget</title>
    <desc>Created with Sketch.</desc>
    <defs></defs>
    <g id="Page-1" stroke="none" stroke-width="1" fill="none" fill-rule="evenodd">
        <g id="budget" fill-rule="nonzero">
            <polygon id="Shape" fill="#F78B00" points="80.3 97.1 144.7 97.1 144.7 1.6"></polygon>
            <polygon id="Shape" fill="#ED5505" points="0.3 0 0.3 97.1 144.7 0"></polygon>
            <path d="M613.6,3.7 C619.3,3.7 623.9,8.3 623.9,13.9 C623.9,19.6 619.3,24.1 613.6,24.1 C607.9,24.1 603.3,19.6 603.3,13.9 C603.3,8.3 608,3.7 613.6,3.7 Z M613.6,22.7 C618.4,22.7 622.3,18.8 622.3,14 C622.3,9.2 618.4,5.3 613.6,5.3 C608.8,5.3 604.9,9.2 604.9,14 C605,18.7 608.9,22.7 613.6,22.7 Z M609.6,8.2 L613.7,8.2 C615.9,8.2 618,9.1 618,11.6 C618,13.3 617,14.4 615.3,14.7 L618.4,19.8 L615.9,19.8 L613.2,15 L611.7,15 L611.7,19.8 L609.6,19.8 L609.6,8.2 Z M613.4,13.2 C614.6,13.2 615.9,12.9 615.9,11.5 C615.9,10.2 614.7,9.9 613.6,9.9 L611.7,9.9 L611.7,13.2 L613.4,13.2 Z M588.5,83.1 C580.4,83.1 576.6,79.1 576.6,70.6 L576.6,38 L592.2,38 L592.2,23.9 L576.6,23.9 L576.6,3.7 L560.7,3.7 L560.7,70.5 C560.7,87.4 570.4,97.5 586,97.5 C589.3,97.5 592.5,97 592.5,97 L592.5,82.7 C590.5,83 589.4,83.1 588.5,83.1 Z M542.7,32.5 C536,25.5 527,22.3 517.6,22.3 C497.4,22.3 481.9,39.1 481.9,60.1 C481.9,81.4 497.1,97.6 518,97.6 C529,97.6 540.1,91.9 546.9,83.2 L534.5,74.5 C530.4,80.1 523.5,83.1 518,83.1 C509.5,83.1 500.8,77 498.7,66.5 L552.2,66.5 C552.1,66.5 556.9,47.5 542.7,32.5 Z M498.7,53.2 C499.3,48.9 504.5,36.8 517.5,36.8 C530.1,36.8 535.7,48.5 536.2,53.2 L498.7,53.2 Z M457.8,23.9 L457.8,30.5 C452.1,25.1 444.5,22.3 436.7,22.3 C416.3,22.3 400.3,38.6 400.3,59.9 C400.3,81.3 416.3,97.6 436.7,97.6 C444.1,97.6 451.6,94.9 457.4,89.7 C457.4,89.7 460.6,117.3 436.3,117.3 C426.1,117.3 418.8,109.9 415.6,104.4 C415.6,104.4 402.9,113.4 402.9,113.4 C409.2,125.1 422.4,132.3 436.4,132.3 C445.8,132.3 455,129.6 461.6,123.9 C469.3,117.1 473.5,107.6 473.5,94.9 L473.5,24 L457.8,24 L457.8,23.9 Z M436.8,82.9 C425.3,82.9 416.4,72.7 416.4,59.7 C416.4,47.1 425.5,36.9 436.8,36.9 C448,36.9 457.5,47.3 457.5,59.7 C457.4,72.5 448.2,82.9 436.8,82.9 Z M354.9,97.6 C334.5,97.6 318.5,81.3 318.5,60 C318.5,38.6 334.5,22.3 354.9,22.3 C362.3,22.3 369.8,25 375.6,30.2 L375.6,0 L391.5,0 L391.5,96.1 L376,96.1 L376,89.4 C370.3,94.8 362.6,97.6 354.9,97.6 Z M354.9,37.1 C343.4,37.1 334.5,47.2 334.5,60.2 C334.5,72.8 343.6,83 354.9,83 C366.1,83 375.6,72.6 375.6,60.2 C375.6,47.4 366.3,37.1 354.9,37.1 Z M310.6,61.2 L310.6,23.9 L294.7,23.9 L294.7,61.2 C294.7,74.4 287.9,83 277.3,83 C266.7,83 259.9,74.5 259.9,61.2 L259.9,23.9 L243.9,23.9 L243.9,61.2 C243.9,83.4 258.7,97.6 277.2,97.6 C295.8,97.6 310.6,83.4 310.6,61.2 Z M169,97.1 L169,0 L202.7,0 C215.8,0 231.6,6.9 231.6,25.2 C231.6,36.1 226.5,43.1 221.9,45.7 C234.3,50.4 236.7,62.2 236.7,69.1 C236.7,84.6 223.9,97.1 203.6,97.1 L169,97.1 Z M201.7,82.6 C205.9,82.6 209.1,82.1 211.7,81.1 C216.9,78.8 220,74.5 220.2,68.2 C220.2,62.2 216.9,57.7 211.7,55.5 C208,54 205,53.9 200.4,53.9 L185.2,53.9 L185.2,82.6 L201.7,82.6 Z M199.1,39.9 C202,39.9 206.8,39.7 209.5,38.4 C213.7,36.1 215,32.5 215,27 C215,21.1 211.4,17.6 208.5,16.2 C206.2,15 203.3,14.6 198.7,14.6 L185.2,14.6 L185.2,40 L199.1,40 L199.1,39.9 Z" id="Shape" fill="#00285F"></path>
        </g>
    </g>
</svg>