<?xml version="1.0" standalone="no"?>
<!DOCTYPE svg PUBLIC "-//W3C//DTD SVG 1.1//EN" "http://www.w3.org/Graphics/SVG/1.1/DTD/svg11.dtd" >
<svg xmlns="http://www.w3.org/2000/svg" xmlns:xlink="http://www.w3.org/1999/xlink" version="1.1">
<metadata>
Created by FontForge 20161003 at Mon Oct 23 07:43:56 2017
 By www-data
Copyright (c) 2012 by Fontsmith Ltd. All rights reserved.
</metadata>
<defs>
<font id="IberiaText" horiz-adv-x="592" >
  <font-face 
    font-family="Iberia Text"
    font-weight="400"
    font-stretch="normal"
    units-per-em="1000"
    panose-1="2 0 5 6 4 0 0 2 0 4"
    ascent="750"
    descent="-250"
    x-height="482"
    cap-height="678"
    bbox="-43 -253 1191 990"
    underline-thickness="50"
    underline-position="-100"
    unicode-range="U+000D-FB04"
  />
<missing-glyph horiz-adv-x="535" 
d="M515 693v-693h-495v693h495zM268 391l168 253h-337zM297 347l169 -253v505zM99 50h337l-168 252zM70 94l168 253l-168 252v-505z" />
    <glyph glyph-name="fi" unicode="fi" horiz-adv-x="554" 
d="M481 482v-482h-81v482h81zM96 482v36q0 53 11 85t33 56q51 56 161 56q26 0 58 -4t72 -14l-12 -69q-27 9 -54.5 13t-53.5 4q-75 0 -106 -34q-14 -16 -21 -39.5t-7 -58.5v-31h164l-11 -67h-153v-415h-81v415h-86v57z" />
    <glyph glyph-name="fl" unicode="fl" horiz-adv-x="602" 
d="M96 482v36q0 53 11 86t34 56q28 29 71 42t102 13q30 0 71 -3.5t88 -12.5q5 -19 8.5 -46.5t3.5 -74.5v-444q0 -38 7.5 -53.5t30.5 -15.5q11 0 22.5 2t28.5 7l10 -68q-19 -6 -37 -8.5t-35 -2.5q-60 0 -84 33t-24 105v429q0 20 -0.5 41t-2.5 40q-21 3 -39.5 4t-35.5 1
q-44 0 -73 -8t-47 -27q-29 -30 -29 -100v-31h164l-11 -67h-153v-415h-81v415h-86v57z" />
    <glyph glyph-name="f_f" unicode="ff" horiz-adv-x="658" 
d="M96 482v74q0 77 40 117q42 42 121 42q50 0 107 -18l-16 -67q-44 15 -81 15q-45 0 -67.5 -21.5t-22.5 -72.5v-69h233v74q0 77 40 117q42 42 121 42q50 0 107 -18l-16 -67q-44 15 -81 15q-45 0 -67.5 -21.5t-22.5 -72.5v-69h164l-11 -67h-153v-415h-81v415h-233v-415h-81
v415h-86v57z" />
    <glyph glyph-name="f_f_i" unicode="ffi" horiz-adv-x="868" 
d="M96 482v74q0 77 40 117q42 42 121 42q50 0 107 -18l-16 -67q-44 15 -81 15q-45 0 -67.5 -21.5t-22.5 -72.5v-69h233v36q0 53 11 85t33 56q51 56 161 56q26 0 58 -4t72 -14l-12 -69q-27 9 -54.5 13t-53.5 4q-75 0 -106 -34q-14 -16 -21 -39.5t-7 -58.5v-31h164l-11 -67
h-153v-415h-81v415h-233v-415h-81v415h-86v57zM795 482v-482h-81v482h81z" />
    <glyph glyph-name="f_f_l" unicode="ffl" horiz-adv-x="916" 
d="M96 482v74q0 77 40 117q42 42 121 42q50 0 107 -18l-16 -67q-44 15 -81 15q-45 0 -67.5 -21.5t-22.5 -72.5v-69h233v36q0 53 11 86t34 56q28 29 71 42t102 13q30 0 71 -3.5t88 -12.5q5 -19 8.5 -46.5t3.5 -74.5v-444q0 -38 7.5 -53.5t30.5 -15.5q11 0 22.5 2t28.5 7
l10 -68q-19 -6 -37 -8.5t-35 -2.5q-60 0 -84 33t-24 105v429q0 20 -0.5 41t-2.5 40q-21 3 -39.5 4t-35.5 1q-44 0 -73 -8t-47 -27q-29 -30 -29 -100v-31h164l-11 -67h-153v-415h-81v415h-233v-415h-81v415h-86v57z" />
    <glyph glyph-name=".notdef" horiz-adv-x="535" 
d="M515 693v-693h-495v693h495zM268 391l168 253h-337zM297 347l169 -253v505zM99 50h337l-168 252zM70 94l168 253l-168 252v-505z" />
    <glyph glyph-name=".null" horiz-adv-x="0" 
 />
    <glyph glyph-name=".null" horiz-adv-x="0" 
 />
    <glyph glyph-name="nonmarkingreturn" unicode="&#xd;" horiz-adv-x="196" 
 />
    <glyph glyph-name="nonbreakingspace" unicode="&#xa0;" horiz-adv-x="196" 
 />
    <glyph glyph-name="space" unicode=" " horiz-adv-x="196" 
 />
    <glyph glyph-name="A" unicode="A" horiz-adv-x="608" 
d="M356 678q30 -77 61.5 -162.5t63 -173.5t60.5 -175.5t55 -166.5h-93q-14 42 -25.5 79t-22.5 71h-305q-12 -38 -23.5 -75.5t-22.5 -74.5h-92q25 78 55 165t61 175.5t63 174.5t62 163h103zM431 223q-23 70 -40.5 122t-32 93.5t-27.5 76t-26 67.5q-32 -75 -65 -167t-66 -192
h257z" />
    <glyph glyph-name="B" unicode="B" horiz-adv-x="580" 
d="M164 386h193q32 17 45.5 47.5t13.5 58.5v6q0 60 -29.5 82.5t-90.5 22.5h-132v-217zM164 76h133q41 0 73.5 7t54.5 28q30 30 32 86v5q0 57 -29.5 83t-89.5 26h-174v-235zM273 678q64 0 102.5 -8t64.5 -26q35 -23 49 -60.5t14 -80.5v-9q0 -41 -14 -75.5t-45 -56.5
q48 -14 74.5 -54t26.5 -100v-12q0 -53 -21 -92t-59 -63q-35 -23 -76.5 -32t-98.5 -9h-133q-20 0 -40 0.5t-39 1.5v674q19 1 39 1.5t40 0.5h116z" />
    <glyph glyph-name="C" unicode="C" horiz-adv-x="572" 
d="M56 354q0 97 28 166t81 111q73 57 182 57q60 0 107 -13.5t85 -38.5l-30 -66q-35 19 -77 30t-84 11q-38 0 -73.5 -13t-64.5 -42q-29 -32 -47.5 -82.5t-18.5 -124.5v-14q0 -151 61 -218q25 -26 60.5 -38t87.5 -12q41 0 86 10t81 28l24 -63q-37 -23 -88 -37.5t-107 -14.5
q-69 0 -120.5 17.5t-89.5 54.5q-83 80 -83 268v24z" />
    <glyph glyph-name="D" unicode="D" horiz-adv-x="654" 
d="M241 678q79 0 140.5 -13t106.5 -44q110 -75 110 -262v-25q0 -184 -87 -262q-41 -37 -106.5 -54.5t-146.5 -17.5h-79h-23.5t-27.5 0.5t-27.5 1.5t-22.5 2v670q9 1 22.5 2t27.5 1.5t27.5 0.5h23.5h62zM164 76h89q69 0 117.5 13t79.5 43.5t45.5 81t14.5 125.5v17
q0 145 -81 204q-32 23 -74 33t-107 10h-84v-527z" />
    <glyph glyph-name="E" unicode="E" horiz-adv-x="516" 
d="M496 678l-10 -75h-322v-221q26 2 52.5 3t49.5 1h142l-10 -75h-234v-235h332l-10 -76h-329q-20 0 -40 0.5t-39 1.5v674q19 1 39 1.5t40 0.5h339z" />
    <glyph glyph-name="F" unicode="F" horiz-adv-x="480" 
d="M476 678l-10 -75h-302v-221q26 2 52.5 3t49.5 1h149l-6 -74h-245v-312h-86v676q19 1 39 1.5t40 0.5h319z" />
    <glyph glyph-name="G" unicode="G" horiz-adv-x="642" 
d="M56 354q0 165 79 249.5t228 84.5q63 0 114 -14.5t88 -39.5l-27 -63q-38 20 -82.5 30t-88.5 10q-113 0 -168 -63t-55 -199v-14q0 -74 13 -125t40 -83t68 -46.5t97 -14.5q32 0 65 3t69 10v215l-137 -3l-6 76h140q23 0 46 -0.5t41 -1.5v-346q-47 -13 -104.5 -21t-117.5 -8
q-72 0 -124.5 17.5t-89.5 52.5q-45 43 -66.5 110.5t-21.5 159.5v24z" />
    <glyph glyph-name="H" unicode="H" horiz-adv-x="656" 
d="M164 678v-297h328v297h86v-678h-86v306h-328v-306h-86v678h86z" />
    <glyph glyph-name="I" unicode="I" horiz-adv-x="248" 
d="M167 678v-678h-86v678h86z" />
    <glyph glyph-name="J" unicode="J" horiz-adv-x="434" 
d="M357 678v-449q0 -29 -0.5 -52.5t-3 -43.5t-8 -37.5t-16.5 -34.5q-26 -38 -64.5 -54.5t-87.5 -16.5q-32 0 -64 5.5t-65 16.5l17 67q31 -7 57 -10t47 -3q47 0 71 21q18 16 24.5 46.5t6.5 84.5v385h-185l-5 75h276z" />
    <glyph glyph-name="K" unicode="K" horiz-adv-x="576" 
d="M162 678v-367l21 17q36 30 71 63.5t69.5 75t69.5 93.5t72 118h87q-49 -99 -100.5 -172t-111.5 -136q23 -34 46.5 -70t49 -79.5t55 -97.5t65.5 -123h-104q-22 45 -45.5 90t-46 86.5t-43.5 76.5t-37 59q-16 -14 -32.5 -28t-33.5 -28l-52 -42v-214h-86v678h86z" />
    <glyph glyph-name="L" unicode="L" horiz-adv-x="502" 
d="M164 678v-602h313l-10 -76h-310q-20 0 -40 0.5t-39 1.5v676h86z" />
    <glyph glyph-name="M" unicode="M" horiz-adv-x="797" 
d="M213 678q56 -151 103.5 -269t83.5 -195q18 39 42.5 96.5t50 121.5t50.5 128.5t45 117.5h113q4 -35 9 -86.5t9.5 -112t9 -126.5t8 -129.5t5.5 -121.5t3 -102h-84q0 27 -2 72.5t-4.5 100.5t-5.5 114t-6.5 113t-7 98t-5.5 69h-3q-26 -69 -52.5 -135t-52 -124t-48 -106.5
t-40.5 -82.5h-72q-16 31 -39.5 83.5t-49.5 115t-53 128.5t-49 125h-3q-3 -26 -6 -71t-6.5 -100t-7 -115t-6 -115t-4.5 -100t-2 -70h-84q1 42 3.5 99t6 121t8 131t9.5 128.5t9.5 113t9.5 85.5h115z" />
    <glyph glyph-name="N" unicode="N" horiz-adv-x="673" 
d="M182 678l331 -554v554h82v-684h-90l-345 570v-564h-82v678h104z" />
    <glyph glyph-name="O" unicode="O" horiz-adv-x="664" 
d="M144 323q0 -140 59 -205q46 -51 129 -51q82 0 129 51q59 65 59 205v32q0 72 -15 122.5t-44 82.5q-47 51 -129 51q-83 0 -129 -51q-29 -32 -44 -82.5t-15 -122.5v-32zM56 360q0 77 19 141.5t61 109.5q34 36 82 56.5t114 20.5t114 -20.5t82 -56.5q42 -45 61 -109.5
t19 -141.5v-42q0 -77 -19 -141.5t-61 -109.5q-34 -36 -82 -56.5t-114 -20.5t-114 20.5t-82 56.5q-42 45 -61 109.5t-19 141.5v42z" />
    <glyph glyph-name="P" unicode="P" horiz-adv-x="556" 
d="M164 311h129q70 0 108.5 33.5t38.5 112.5v13q0 58 -31 92q-38 41 -121 41h-124v-292zM288 678q116 0 176 -51q31 -26 46.5 -66.5t15.5 -87.5v-14q0 -49 -15 -91.5t-47 -74.5q-29 -27 -72.5 -42t-107.5 -15h-120v-236h-86v676q19 1 39 1.5t40 0.5h131z" />
    <glyph glyph-name="Q" unicode="Q" horiz-adv-x="663" 
d="M56 360q0 77 19 141.5t61 109.5q34 36 82 56.5t114 20.5t114 -20.5t82 -56.5q42 -45 61 -109.5t19 -141.5v-42q0 -77 -19 -141.5t-61 -109.5q-19 -20 -41 -35t-50 -25q35 -40 77 -81.5t104 -94.5h-118q-38 38 -72.5 75t-74.5 85q-5 -1 -10.5 -1h-10.5q-66 0 -114 20.5
t-82 56.5q-42 45 -61 109.5t-19 141.5v42zM144 323q0 -140 59 -205q46 -51 129 -51q82 0 129 51q59 65 59 205v32q0 72 -15 122.5t-44 82.5q-47 51 -129 51q-83 0 -129 -51q-29 -32 -44 -82.5t-15 -122.5v-32z" />
    <glyph glyph-name="R" unicode="R" horiz-adv-x="570" 
d="M164 342h180q35 16 54.5 49t19.5 82v9q0 59 -30 88q-34 33 -124 33h-100v-261zM262 678q59 0 104.5 -10t75.5 -33q63 -48 63 -151v-13q0 -61 -27.5 -109.5t-82.5 -76.5q32 -46 72.5 -120t82.5 -165h-95q-18 42 -37.5 82t-39 75.5t-37.5 64t-33 47.5h-144v-269h-86v676
q19 1 39 1.5t40 0.5h105z" />
    <glyph glyph-name="S" unicode="S" horiz-adv-x="518" 
d="M424 570q-38 21 -77 31t-75 10q-77 0 -109 -29t-32 -71q0 -39 25.5 -66.5t85.5 -47.5l52 -18q49 -17 82 -33.5t54 -37.5q23 -23 32.5 -51.5t9.5 -71.5q0 -88 -54 -141.5t-164 -53.5q-50 0 -108 14.5t-112 44.5l25 69q46 -24 96 -36.5t96 -12.5q76 0 106 32t30 83
q0 20 -5 37t-15 28q-14 16 -39.5 28.5t-70.5 28.5l-49 17q-47 16 -78.5 35.5t-50.5 42.5t-27 49.5t-8 55.5q0 84 57 133t163 49q50 0 98.5 -12.5t93.5 -38.5z" />
    <glyph glyph-name="T" unicode="T" horiz-adv-x="545" 
d="M537 678l-10 -75h-216v-603h-86v603h-213v75h525z" />
    <glyph glyph-name="U" unicode="U" horiz-adv-x="638" 
d="M160 678v-433q0 -36 5 -71t23 -59q19 -24 52.5 -35.5t76.5 -11.5h4q43 0 76.5 11.5t52.5 35.5q18 24 23 59t5 71v433h86v-362q0 -45 -0.5 -82t-4.5 -68.5t-13 -56.5t-27 -46q-31 -36 -78 -54t-118 -19h-8q-71 1 -118 19t-78 54q-18 21 -27 46t-13 56.5t-4.5 68.5t-0.5 82
v362h86z" />
    <glyph glyph-name="V" unicode="V" horiz-adv-x="583" 
d="M104 678q15 -59 38.5 -136t50.5 -157.5t54.5 -156.5t50.5 -132q21 51 46.5 124.5t50.5 154t47.5 160t37.5 143.5h91q-20 -77 -47 -168t-57 -182.5t-61 -176.5t-58 -151h-103q-26 64 -58 149.5t-63.5 177.5t-61 183t-50.5 168h92z" />
    <glyph glyph-name="W" unicode="W" horiz-adv-x="897" 
d="M105 678q21 -96 41 -176.5t39.5 -150t38 -131t38.5 -118.5q10 34 23.5 89t30 125t34.5 152.5t37 171.5l3 14h105l3 -14q45 -180 82.5 -315t65.5 -223q19 58 37.5 119.5t36.5 131t36 149.5t38 176h91q-47 -208 -95.5 -376t-97.5 -302h-97q-16 48 -37 118t-42 143.5
t-40 142.5t-30 117h-2q-11 -48 -27.5 -117.5t-35.5 -143.5t-37.5 -143.5t-31.5 -116.5h-98q-48 134 -99.5 302t-102.5 376h93z" />
    <glyph glyph-name="X" unicode="X" horiz-adv-x="585" 
d="M118 678l177 -274l177 274h93l-227 -332l233 -346h-102l-179 280l-180 -280h-95l231 340l-225 338h97z" />
    <glyph glyph-name="Y" unicode="Y" horiz-adv-x="560" 
d="M111 678q24 -60 49.5 -121t49.5 -114t43.5 -94t30.5 -62q15 29 36 74.5t44.5 99t47 110t43.5 107.5h93q-67 -159 -123 -277.5t-101 -193.5v-207h-86v209q-18 32 -44 83.5t-56.5 114.5t-63 133t-62.5 138h99z" />
    <glyph glyph-name="Z" unicode="Z" horiz-adv-x="524" 
d="M497 678l9 -42l-365 -560h336l-10 -76h-436v52l356 551h-329l-5 75h444z" />
    <glyph glyph-name="a" unicode="a" horiz-adv-x="483" 
d="M117 142q0 -36 25 -58t70 -22q29 0 61 9.5t60 29.5v109q-22 6 -50 8.5t-55 2.5h-5q-59 0 -82.5 -21t-23.5 -55v-3zM73 467q87 25 156 25h3q92 0 137 -40.5t45 -129.5v-197q0 -31 1.5 -64.5t4.5 -58.5l-60 -8l-17 41q-31 -22 -67 -33.5t-74 -11.5t-69 11t-52.5 30.5
t-33 47t-11.5 60.5v5q0 72 48.5 109.5t140.5 37.5h5q30 0 55.5 -4t47.5 -10v51q0 47 -22 69q-25 25 -80 25h-5q-27 0 -60.5 -5.5t-75.5 -18.5z" />
    <glyph glyph-name="b" unicode="b" horiz-adv-x="518" 
d="M153 67q23 -4 42.5 -5.5t36.5 -1.5q44 0 74 10t48 30.5t26 52.5t8 77v26q0 49 -8.5 81.5t-24 51t-36.5 26t-45 7.5q-27 0 -58 -11.5t-63 -34.5v-309zM153 705v-257q29 22 62.5 33t67.5 11q92 0 140.5 -58.5t48.5 -173.5v-34q0 -121 -59.5 -178.5t-178.5 -57.5
q-68 0 -162 18v697h81z" />
    <glyph glyph-name="c" unicode="c" horiz-adv-x="446" 
d="M46 255q0 120 58.5 178.5t158.5 58.5q38 0 78 -10t78 -30l-24 -63q-32 17 -64 25t-61 8q-69 0 -104.5 -39t-35.5 -130v-23q0 -96 39 -135q17 -17 42 -25t57 -8q62 0 133 30l21 -62q-36 -20 -77 -30t-83 -10q-57 0 -98 17.5t-67 49t-38.5 75t-12.5 95.5v28z" />
    <glyph glyph-name="d" unicode="d" horiz-adv-x="519" 
d="M447 705v-580q0 -31 1.5 -64.5t4.5 -58.5l-60 -8l-17 41q-34 -23 -69.5 -34t-69.5 -11q-49 0 -85 17t-59.5 48t-35 74t-11.5 94v28q0 118 59 179.5t166 61.5q44 0 95 -12v225h81zM130 226q0 -84 31 -125t90 -41q55 0 115 40v309q-20 5 -44.5 9t-45.5 4
q-69 0 -107.5 -41.5t-38.5 -130.5v-24z" />
    <glyph glyph-name="e" unicode="e" horiz-adv-x="492" 
d="M264 492q89 0 134 -46q26 -26 38 -65t12 -102v-56h-319q3 -87 40 -124t106 -37h5q32 0 71.5 8t67.5 19l21 -64q-28 -14 -73.5 -24.5t-93.5 -10.5h-6q-105 0 -163 62t-58 189v17q0 110 55.5 172t157.5 62h5zM257 425q-63 0 -93.5 -37.5t-34.5 -97.5h238v16q0 63 -25.5 91
t-78.5 28h-6z" />
    <glyph glyph-name="f" unicode="f" horiz-adv-x="344" 
d="M96 482v74q0 77 40 117q42 42 121 42q50 0 107 -18l-16 -67q-44 15 -81 15q-45 0 -67.5 -21.5t-22.5 -72.5v-69h164l-11 -67h-153v-415h-81v415h-86v57z" />
    <glyph glyph-name="g" unicode="g" horiz-adv-x="502" 
d="M51 327q0 81 51 123t142 42q63 0 107 -21q20 17 52.5 28t83.5 11v-73q-56 0 -81 -9q31 -40 31 -101v-6q0 -81 -51 -123t-142 -42q-39 0 -74 8l-8 -24q-4 -11 -5.5 -19.5t-1.5 -12.5q0 -15 10.5 -20t35.5 -5h102q47 0 79 -10t52 -27.5t29 -41.5t9 -52q0 -35 -14.5 -66.5
t-44 -55.5t-73.5 -38t-103 -14q-106 0 -159 43.5t-53 109.5q0 38 19 68.5t48 49.5q-14 17 -14 42t13 58l18 43q-58 43 -58 129v6zM207 14q-33 0 -53 4q-25 -14 -38.5 -36.5t-13.5 -46.5q0 -36 31.5 -61.5t106.5 -25.5t114.5 27.5t39.5 73.5q0 30 -21 47.5t-69 17.5h-97z
M134 321q0 -55 29.5 -76.5t81.5 -21.5t81.5 21.5t29.5 76.5v6q0 55 -29.5 76.5t-81.5 21.5t-81.5 -21.5t-29.5 -76.5v-6z" />
    <glyph glyph-name="h" unicode="h" horiz-adv-x="524" 
d="M153 705v-252q29 18 61 28.5t68 10.5q44 0 77.5 -13t55.5 -36q24 -25 35 -59t11 -76v-308h-81v303q0 65 -30 94q-26 25 -76 25q-30 0 -62 -10t-59 -30v-382h-81v705h81z" />
    <glyph glyph-name="i" unicode="i" horiz-adv-x="227" 
d="M154 482v-482h-81v482h81zM59 618q0 29 14.5 41t39.5 12t39.5 -12t14.5 -41v-7q0 -29 -14.5 -41t-39.5 -12t-39.5 12t-14.5 41v7z" />
    <glyph glyph-name="j" unicode="j" horiz-adv-x="218" 
d="M150 482v-532q0 -93 -29 -132.5t-93 -39.5q-13 0 -31.5 1.5t-39.5 5.5l6 66q14 -2 26 -3t21 -1q17 0 28.5 4t18 14.5t9.5 29.5t3 50v537h81zM55 618q0 29 14.5 41t39.5 12t39.5 -12t14.5 -41v-7q0 -29 -14.5 -41t-39.5 -12t-39.5 12t-14.5 41v7z" />
    <glyph glyph-name="k" unicode="k" horiz-adv-x="464" 
d="M153 705v-439q29 23 58.5 50.5t56 56t49 56.5t38.5 53h86q-35 -53 -77.5 -104t-90.5 -97q25 -32 50.5 -68.5t49.5 -73t46 -72.5t39 -67h-89q-20 35 -38 64.5t-35.5 57t-36.5 54.5t-40 57q-16 -14 -33 -28t-33 -25v-180h-81v705h81z" />
    <glyph glyph-name="l" unicode="l" horiz-adv-x="267" 
d="M150 705v-571q0 -38 7.5 -53.5t30.5 -15.5q11 0 22.5 2t28.5 7l10 -68q-19 -6 -37 -8.5t-35 -2.5q-60 0 -84 33t-24 105v572h81z" />
    <glyph glyph-name="m" unicode="m" horiz-adv-x="814" 
d="M126 488l17 -39q32 21 65 32t71 11q44 0 77.5 -13t55.5 -36l6 -7q44 29 84 42.5t80 13.5q44 0 77.5 -13t55.5 -36q24 -25 34.5 -59t10.5 -76v-308h-81v303q0 66 -29 94q-14 13 -33.5 19t-42.5 6q-32 0 -64.5 -10.5t-62.5 -30.5q10 -31 10 -73v-308h-81v303q0 66 -29 94
q-26 25 -76 25q-29 0 -60 -9.5t-58 -28.5v-384h-81v357q0 31 -1.5 64.5t-4.5 58.5z" />
    <glyph glyph-name="n" unicode="n" horiz-adv-x="524" 
d="M126 488l17 -41q32 21 66 33t73 12q44 0 77.5 -13t55.5 -36q24 -25 35 -59t11 -76v-308h-81v303q0 65 -30 94q-26 25 -76 25q-30 0 -62 -10t-59 -30v-382h-81v357q0 31 -1.5 64.5t-4.5 58.5z" />
    <glyph glyph-name="o" unicode="o" horiz-adv-x="516" 
d="M130 225q0 -48 10.5 -79.5t29.5 -51.5q33 -34 88 -34t88 34q19 20 29.5 51.5t10.5 79.5v32q0 48 -10.5 79.5t-29.5 51.5q-33 34 -88 34t-88 -34q-19 -20 -29.5 -51.5t-10.5 -79.5v-32zM46 259q0 116 58 176q55 57 154 57t154 -57q58 -60 58 -176v-36q0 -116 -58 -176
q-55 -57 -154 -57t-154 57q-58 60 -58 176v36z" />
    <glyph glyph-name="p" unicode="p" horiz-adv-x="519" 
d="M153 71q23 -6 47 -8.5t43 -2.5q70 0 108 39.5t38 130.5v29q0 89 -33.5 126t-87.5 37q-27 0 -56.5 -10.5t-58.5 -30.5v-310zM126 488l17 -41q34 23 69.5 34t69.5 11q49 0 85 -17t59.5 -47.5t35 -73t11.5 -93.5v-33q0 -54 -14.5 -98t-43 -75t-71 -48t-98.5 -17
q-21 0 -44.5 3.5t-48.5 9.5v-217h-81v571q0 31 -1.5 64.5t-4.5 58.5z" />
    <glyph glyph-name="q" unicode="q" horiz-adv-x="519" 
d="M46 263q0 61 18.5 104.5t50 71t74 40.5t91.5 13q40 0 82.5 -6t84.5 -18v-682h-81v217q-52 -13 -100 -13q-220 0 -220 239v34zM130 233q0 -93 33.5 -133t112.5 -40q40 0 90 11v343q-21 4 -42 6t-38 2q-81 0 -118.5 -40.5t-37.5 -122.5v-26z" />
    <glyph glyph-name="r" unicode="r" horiz-adv-x="331" 
d="M126 488l17 -44q32 26 65 37t68 11q23 0 43 -4v-72q-25 5 -45 5q-32 0 -62.5 -11t-58.5 -31v-379h-81v357q0 31 -1.5 64.5t-4.5 58.5z" />
    <glyph glyph-name="s" unicode="s" horiz-adv-x="389" 
d="M316 404q-54 18 -107 18q-51 0 -71 -17t-20 -46q0 -31 18 -46.5t56 -26.5l26 -8q40 -12 67 -25t43.5 -29.5t23.5 -38.5t7 -53q0 -63 -45.5 -102.5t-131.5 -39.5q-35 0 -73 7.5t-77 24.5l14 68q35 -15 71 -21.5t66 -6.5q51 0 73.5 18t22.5 50q0 30 -20 45.5t-65 29.5
l-26 8q-38 12 -63.5 25.5t-40.5 31t-21.5 38t-6.5 46.5q0 66 44 102t124 36q29 0 61.5 -4.5t66.5 -14.5z" />
    <glyph glyph-name="t" unicode="t" horiz-adv-x="349" 
d="M175 624v-142h134l-11 -67h-123v-268q0 -51 14 -68t49 -17t82 17l17 -63q-29 -14 -58 -20t-55 -6q-29 0 -52 7.5t-40 23.5q-19 17 -28.5 45t-9.5 76v273h-86v57l86 10l8 142h73z" />
    <glyph glyph-name="u" unicode="u" horiz-adv-x="522" 
d="M144 482v-303q0 -65 29 -94q26 -25 76 -25q30 0 62 10t58 30v382h81v-357q0 -31 1.5 -64.5t4.5 -58.5l-60 -8l-17 41q-31 -21 -65 -33t-73 -12q-44 0 -77 13t-55 36q-24 25 -35 59t-11 76v308h81z" />
    <glyph glyph-name="v" unicode="v" horiz-adv-x="468" 
d="M94 482q21 -67 38.5 -120.5t34 -99.5t33 -87.5t34.5 -84.5q21 48 38.5 92t34 89.5t33.5 96.5t37 114h81q-18 -57 -40.5 -120.5t-46.5 -126.5t-48.5 -123t-47.5 -112h-82q-50 112 -96.5 234t-86.5 248h84z" />
    <glyph glyph-name="w" unicode="w" horiz-adv-x="717" 
d="M92 482q36 -132 64 -225t54 -165q17 56 32.5 109.5t29 100.5t23.5 86t17 68l3 13h82l3 -13q6 -26 16.5 -65t24.5 -87t30.5 -102.5t34.5 -111.5q21 59 51.5 155.5t68.5 236.5h81q-38 -133 -76.5 -250t-84.5 -232h-84q-31 90 -57.5 179.5t-48.5 171.5q-22 -84 -47.5 -173
t-54.5 -178h-84q-47 114 -86 232t-74 250h82z" />
    <glyph glyph-name="x" unicode="x" horiz-adv-x="448" 
d="M108 482l117 -175l119 175h89l-167 -231l179 -251h-97l-126 190l-126 -190h-91l176 246l-166 236h93z" />
    <glyph glyph-name="y" unicode="y" horiz-adv-x="474" 
d="M103 482q14 -50 31 -106.5t35 -113t36 -109t33 -94.5q32 78 67.5 187t68.5 236h83q-18 -65 -37 -126.5t-40.5 -123.5t-46.5 -127.5t-55 -138.5q-21 -51 -39.5 -87t-38 -58.5t-42 -32.5t-51.5 -10q-22 0 -36.5 2.5t-26.5 6.5l8 67q27 -8 47 -8q30 0 49.5 23.5t42.5 79.5
l8 19q-51 118 -95.5 246t-84.5 268h84z" />
    <glyph glyph-name="z" unicode="z" horiz-adv-x="446" 
d="M403 482l6 -49l-273 -364h275l-8 -69h-370v54l267 359h-259l-7 69h369z" />
    <glyph glyph-name="ampersand" unicode="&#x26;" horiz-adv-x="774" 
d="M435 585q-38 14 -70 20t-58 6q-49 0 -73 -20.5t-24 -52.5q0 -13 3.5 -26.5t14 -32.5t29 -44t48.5 -60q44 -52 88.5 -102t86.5 -94q7 13 12 28.5t8.5 36.5t5 49t1.5 67v69q7 0 18.5 0.5t24.5 1l26 1t24 0.5h126l-7 -80l-130 3v-22q0 -37 -3 -67t-9.5 -55.5t-16 -48
t-22.5 -43.5q29 -28 52 -41.5t49 -13.5q12 0 28.5 5t30.5 13l25 -62q-18 -14 -41.5 -22t-46.5 -8q-41 0 -72.5 15t-73.5 53q-38 -33 -91 -50.5t-110 -17.5q-63 0 -110.5 16t-79.5 44.5t-48 68t-16 86.5q0 60 32.5 114t107.5 89q-25 34 -38 66t-13 64q0 60 38 101
q21 22 54.5 35.5t81.5 13.5q34 0 76 -8t87 -26zM222 348q-27 -12 -45.5 -28.5t-30 -35.5t-17 -39t-5.5 -38q0 -28 10 -53.5t31 -44.5t52.5 -30.5t73.5 -11.5q41 0 77.5 11.5t63.5 34.5q-21 21 -45 47t-49 54t-50 57t-48 56z" />
    <glyph glyph-name="at" unicode="@" horiz-adv-x="828" 
d="M486 459q-27 9 -56 9q-53 0 -81 -36t-28 -120q0 -44 17 -63.5t57 -19.5q17 0 34.5 5t31.5 15zM551 329q-4 -32 -5.5 -50.5t-1.5 -27.5q0 -15 9.5 -23.5t33.5 -8.5q23 0 43.5 13t36 37t24.5 57t9 73q0 57 -16 101.5t-46 76.5q-34 37 -84 55.5t-111 18.5q-58 0 -111.5 -20
t-96.5 -58q-48 -44 -74.5 -107.5t-26.5 -147.5q0 -71 18.5 -122t55.5 -83.5t90.5 -47.5t124.5 -15q25 0 54.5 3.5t59 10t58 15t52.5 18.5l18 -63q-66 -29 -131.5 -41.5t-116.5 -12.5q-182 0 -274.5 85t-92.5 252q0 91 29.5 166t82 128t124.5 82.5t158 29.5q70 0 131 -20
t106 -59.5t71 -99.5t26 -140q0 -54 -14.5 -100.5t-41 -80.5t-63 -53.5t-79.5 -19.5q-28 0 -54 10t-44 30q-17 -13 -41.5 -21t-54.5 -8q-65 0 -104 36t-39 114q0 115 55 173q23 25 58 38.5t80 13.5q29 0 64.5 -6.5t72.5 -20.5z" />
    <glyph glyph-name="exclam" unicode="!" horiz-adv-x="267" 
d="M179 688l-11 -548h-68l-11 548h90zM81 48q0 28 14 39.5t39 11.5t39 -11.5t14 -39.5v-5q0 -28 -14 -39.5t-39 -11.5t-39 11.5t-14 39.5v5z" />
    <glyph glyph-name="exclamdown" unicode="&#xa1;" horiz-adv-x="267" 
d="M179 -203.958l-11 547.967h-68l-11 -547.967h90zM81 436.003q0 -27.998 14 -39.498q14 -11.499 39 -11.499t39 11.499q14 11.5 14 39.498v5q0 27.998 -14 39.4971q-14 11.5 -39 11.5t-39 -11.5q-14 -11.499 -14 -39.4971v-5z" />
    <glyph glyph-name="question" unicode="?" horiz-adv-x="459" 
d="M48 649q84 39 172 39q96 0 147.5 -45.5t51.5 -136.5q0 -32 -5.5 -56.5t-17.5 -45.5t-32 -39t-49 -37l-49 -32q-29 -19 -39 -38.5t-10 -56.5v-61h-73v61q0 29 2.5 51.5t11.5 41t25.5 35.5t44.5 35l49 32q28 18 41 44t13 66q0 56 -33.5 80.5t-87.5 24.5q-64 0 -141 -28z
M128 48q0 28 14 39.5t39 11.5t39 -11.5t14 -39.5v-5q0 -28 -14 -39.5t-39 -11.5t-39 11.5t-14 39.5v5z" />
    <glyph glyph-name="questiondown" unicode="&#xbf;" horiz-adv-x="459" 
d="M419.003 -164.96q-83.9951 -38.998 -171.989 -38.998q-95.9941 0 -147.491 45.4971t-51.4971 136.492q0 31.998 5.5 56.4961q5.5 24.499 17.499 45.4971q11.999 20.999 31.998 38.998t48.9971 36.9971l48.9971 31.998q28.998 18.999 38.9971 38.498q10 19.499 10 56.4971
v60.9961h72.9951v-60.9961q0 -28.999 -2.5 -51.4971q-2.5 -22.499 -11.499 -40.998q-9 -18.498 -25.499 -35.4971t-44.4971 -34.998l-48.9971 -31.998q-27.998 -17.999 -40.9971 -43.9971q-12.999 -25.999 -12.999 -65.9961q0 -55.9971 33.498 -80.4951
q33.4971 -24.499 87.4941 -24.499q63.9961 0 140.991 27.998zM339.008 436.003q0 -27.998 -13.999 -39.498q-13.999 -11.499 -38.998 -11.499q-24.998 0 -38.9971 11.499q-13.999 11.5 -13.999 39.498v5q0 27.998 13.999 39.4971q13.999 11.5 38.9971 11.5
q24.999 0 38.998 -11.5q13.999 -11.499 13.999 -39.4971v-5z" />
    <glyph glyph-name="asterisk" unicode="*" horiz-adv-x="376" 
d="M160 648l-17 122h90l-17 -122l101 59l29 -89l-116 -25l98 -92l-84 -53l-56 111l-56 -111l-84 53l98 92l-116 25l29 89z" />
    <glyph glyph-name="period" unicode="." horiz-adv-x="196" 
d="M40 54q0 32 15.5 44.5t42.5 12.5t42.5 -12.5t15.5 -44.5v-5q0 -32 -15.5 -44.5t-42.5 -12.5t-42.5 12.5t-15.5 44.5v5z" />
    <glyph glyph-name="comma" unicode="," horiz-adv-x="198" 
d="M160 117q-6 -25 -14.5 -55.5t-19 -61.5t-21.5 -60.5t-21 -51.5l-68 15q9 24 16.5 51.5t14 56t11.5 56t8 50.5h94z" />
    <glyph glyph-name="colon" unicode=":" horiz-adv-x="252" 
d="M68 54q0 32 15.5 44.5t42.5 12.5t42.5 -12.5t15.5 -44.5v-5q0 -32 -15.5 -44.5t-42.5 -12.5t-42.5 12.5t-15.5 44.5v5zM68 410q0 32 15.5 44.5t42.5 12.5t42.5 -12.5t15.5 -44.5v-5q0 -32 -15.5 -44.5t-42.5 -12.5t-42.5 12.5t-15.5 44.5v5z" />
    <glyph glyph-name="semicolon" unicode=";" horiz-adv-x="251" 
d="M173 117q-6 -25 -14.5 -55.5t-19 -61.5t-21.5 -60.5t-21 -51.5l-68 15q9 24 16.5 51.5t14 56t11.5 56t8 50.5h94zM67 410q0 32 15.5 44.5t42.5 12.5t42.5 -12.5t15.5 -44.5v-5q0 -32 -15.5 -44.5t-42.5 -12.5t-42.5 12.5t-15.5 44.5v5z" />
    <glyph glyph-name="ellipsis" unicode="&#x2026;" horiz-adv-x="608" 
d="M40 54q0 32 15.5 44.5t42.5 12.5t42.5 -12.5t15.5 -44.5v-5q0 -32 -15.5 -44.5t-42.5 -12.5t-42.5 12.5t-15.5 44.5v5zM246 54q0 32 15.5 44.5t42.5 12.5t42.5 -12.5t15.5 -44.5v-5q0 -32 -15.5 -44.5t-42.5 -12.5t-42.5 12.5t-15.5 44.5v5zM452 54q0 32 15.5 44.5
t42.5 12.5t42.5 -12.5t15.5 -44.5v-5q0 -32 -15.5 -44.5t-42.5 -12.5t-42.5 12.5t-15.5 44.5v5z" />
    <glyph glyph-name="periodcentered" unicode="&#xb7;" horiz-adv-x="215" 
d="M50 312q0 32 15.5 44.5t42.5 12.5t42.5 -12.5t15.5 -44.5v-5q0 -32 -15.5 -44.5t-42.5 -12.5t-42.5 12.5t-15.5 44.5v5z" />
    <glyph glyph-name="bullet" unicode="&#x2022;" horiz-adv-x="386" 
d="M193 399q27 0 49.5 -10t39.5 -27t26.5 -40t9.5 -49t-9.5 -49t-26.5 -40t-39.5 -27t-49.5 -10t-49.5 10t-39.5 27t-26.5 40t-9.5 49t9.5 49t26.5 40t39.5 27t49.5 10z" />
    <glyph glyph-name="slash" unicode="/" horiz-adv-x="364" 
d="M334 720l-228 -745h-76l228 745h76z" />
    <glyph glyph-name="parenleft" unicode="(" horiz-adv-x="297" 
d="M271 688q-63 -93 -93.5 -190t-30.5 -195t30.5 -195t93.5 -190l-59 -38q-74 101 -110 208t-35 215q-1 108 35 215t110 208z" />
    <glyph glyph-name="brokenbar" unicode="&#xa6;" horiz-adv-x="230" 
d="M152 272v-297h-74v297h74zM152 720v-297h-74v297h74z" />
    <glyph glyph-name="parenright" unicode=")" horiz-adv-x="297" 
d="M85 726q74 -101 110 -208t35 -215q1 -108 -35 -215t-110 -208l-59 38q63 93 93.5 190t30.5 195t-30.5 195t-93.5 190z" />
    <glyph glyph-name="bracketleft" unicode="[" horiz-adv-x="297" 
d="M271 713v-73h-111v-659h111v-73h-193v805h193z" />
    <glyph glyph-name="backslash" unicode="\" horiz-adv-x="364" 
d="M106 720l228 -745h-76l-228 745h76z" />
    <glyph glyph-name="bracketright" unicode="]" horiz-adv-x="297" 
d="M219 713v-805h-193v73h111v659h-111v73h193z" />
    <glyph glyph-name="braceleft" unicode="{" horiz-adv-x="324" 
d="M298 725v-73h-41q-20 0 -28 -14t-8 -60v-93q0 -65 -19 -106t-57 -67v-3q38 -26 57 -67t19 -106v-93q0 -23 2 -37.5t6 -22.5t11 -11t17 -3h41v-73h-54q-49 0 -77 31.5t-28 108.5v109q0 48 -17 77t-52 49l-18 9v61l18 9q35 20 52 49t17 77v109q0 77 28 108.5t77 31.5h54z
" />
    <glyph glyph-name="bar" unicode="|" horiz-adv-x="230" 
d="M152 720v-745h-74v745h74z" />
    <glyph glyph-name="braceright" unicode="}" horiz-adv-x="324" 
d="M80 725q49 0 77 -31.5t28 -108.5v-109q0 -48 17 -77t52 -49l18 -9v-61l-18 -9q-35 -20 -52 -49t-17 -77v-109q0 -77 -28 -108.5t-77 -31.5h-54v73h41q10 0 17 3t11 11t6 22.5t2 37.5v93q0 65 19 106t57 67v3q-38 26 -57 67t-19 106v93q0 46 -8 60t-28 14h-41v73h54z" />
    <glyph glyph-name="hyphen" unicode="-" horiz-adv-x="312" 
d="M274 295v-75h-236v75h236z" />
    <glyph glyph-name="uni00AD" unicode="&#xad;" horiz-adv-x="312" 
d="M274 295v-75h-236v75h236z" />
    <glyph glyph-name="endash" unicode="&#x2013;" horiz-adv-x="550" 
d="M550 295v-75h-550v75h550z" />
    <glyph glyph-name="emdash" unicode="&#x2014;" horiz-adv-x="1100" 
d="M1100 295v-75h-1100v75h1100z" />
    <glyph glyph-name="underscore" unicode="_" horiz-adv-x="523" 
d="M493 -36v-65h-463v65h463z" />
    <glyph glyph-name="dagger" unicode="&#x2020;" horiz-adv-x="413" 
d="M251 678l-4 -182h136l-6 -67h-131l-6 -445h-70l-7 445h-133v67h132l-3 182h92z" />
    <glyph glyph-name="daggerdbl" unicode="&#x2021;" horiz-adv-x="413" 
d="M251 678l-4 -182h136l-6 -67h-131l-2 -137h109l-6 -67h-104l-3 -241h-70l-4 241h-109v67h108l-2 137h-133v67h132l-3 182h92z" />
    <glyph glyph-name="section" unicode="&#xa7;" horiz-adv-x="497" 
d="M367 605q-59 18 -110 18q-52 0 -74.5 -15t-22.5 -42q0 -12 3.5 -22t12 -19t23.5 -17t38 -17l28 -11q44 -17 73.5 -32t47.5 -30.5t25.5 -35t7.5 -45.5t-12 -51.5t-41 -50.5q30 -20 41.5 -44.5t11.5 -59.5q0 -29 -11.5 -54.5t-35 -45t-58.5 -30.5t-82 -11q-35 0 -73.5 7
t-80.5 21l16 71q35 -13 69 -20t67 -7q48 0 78 16t30 51q0 13 -3.5 23.5t-12.5 18.5t-24 16t-38 17l-28 11q-44 17 -73.5 32t-47.5 31.5t-25.5 36.5t-7.5 46q0 23 12.5 48.5t41.5 51.5q-32 23 -43 47.5t-11 55.5q0 57 48.5 90.5t130.5 33.5q27 0 59 -4t68 -15zM212 420
q-16 5 -24 10q-20 -20 -27 -36t-7 -26q0 -11 3.5 -20t14.5 -18.5t31 -19.5t52 -23l30 -12q6 -3 12 -5.5t12 -4.5q19 19 26.5 35t7.5 30q0 10 -3.5 19t-14.5 18t-31 18.5t-52 22.5z" />
    <glyph glyph-name="paragraph" unicode="&#xb6;" horiz-adv-x="496" 
d="M40 536q0 33 11 62t32.5 50t53.5 33.5t75 12.5h234v-795h-76v720h-91v-720h-76v474q-38 1 -68 13.5t-51 33.5t-32.5 49.5t-11.5 61.5v5z" />
    <glyph glyph-name="registered" unicode="&#xae;" horiz-adv-x="708" 
d="M340 467q35 0 58.5 -6t38.5 -21q25 -25 25 -70q0 -57 -46 -87q17 -24 36 -59.5t34 -71.5h-68q-14 33 -30 64t-30 52h-49v-116h-64v315h95zM309 323h65q10 5 16.5 16.5t6.5 27.5q0 20 -9 31q-6 7 -16 9.5t-29 2.5h-34v-87zM354 562q-52 0 -95 -19.5t-73.5 -53.5t-47 -79.5
t-16.5 -97.5t16.5 -97.5t47 -79.5t73.5 -53.5t95 -19.5t95 19.5t73.5 53.5t47 79.5t16.5 97.5t-16.5 97.5t-47 79.5t-73.5 53.5t-95 19.5zM354 624q66 0 122 -24t96.5 -66t63 -99t22.5 -123t-22.5 -123t-63 -99t-96.5 -66t-122 -24t-122 24t-96.5 66t-63 99t-22.5 123
t22.5 123t63 99t96.5 66t122 24z" />
    <glyph glyph-name="copyright" unicode="&#xa9;" horiz-adv-x="708" 
d="M214 315q0 66 35.5 109t104.5 43q26 0 52 -7.5t50 -22.5l-22 -52q-40 23 -78 23q-36 0 -56 -24t-20 -71v-7q0 -50 20 -73t58 -23q36 0 80 21l21 -49q-24 -15 -51.5 -22.5t-53.5 -7.5q-66 0 -103 39t-37 114v10zM354 562q-52 0 -95 -19.5t-73.5 -53.5t-47 -79.5
t-16.5 -97.5t16.5 -97.5t47 -79.5t73.5 -53.5t95 -19.5t95 19.5t73.5 53.5t47 79.5t16.5 97.5t-16.5 97.5t-47 79.5t-73.5 53.5t-95 19.5zM354 624q66 0 122 -24t96.5 -66t63 -99t22.5 -123t-22.5 -123t-63 -99t-96.5 -66t-122 -24t-122 24t-96.5 66t-63 99t-22.5 123
t22.5 123t63 99t96.5 66t122 24z" />
    <glyph glyph-name="trademark" unicode="&#x2122;" horiz-adv-x="690" 
d="M295 715l-9 -58h-102v-273h-63v273h-101v58h275zM405 715q18 -52 40 -103.5t43 -97.5q20 45 42 96.5t43 104.5h65q4 -36 8 -77t7 -84t4.5 -86.5t2.5 -83.5h-61q-1 56 -3 106.5t-7 104.5h-2q-17 -43 -36 -85t-36 -74h-52q-16 29 -34 68.5t-41 90.5h-2q-3 -49 -5 -106
t-3 -105h-61q1 40 2.5 83t4.5 86t6.5 84.5t7.5 77.5h67z" />
    <glyph glyph-name="quotedblleft" unicode="&#x201c;" horiz-adv-x="353" 
d="M16.0098 568.007q6 24.999 14.499 55.4971q8.5 30.498 18.999 61.4961t21.499 60.4961q10.999 29.498 20.998 51.4971l67.9961 -14.999q-8.99902 -23.999 -16.499 -51.4971t-13.999 -55.9961q-6.5 -28.499 -11.499 -55.9971q-5 -27.498 -8 -50.4971h-93.9941z
M171.01 568.007q6 24.999 14.499 55.4971q8.5 30.498 18.999 61.4961t21.499 60.4961q10.999 29.498 20.998 51.4971l67.9961 -14.999q-8.99902 -23.999 -16.499 -51.4971t-13.999 -55.9961q-6.5 -28.499 -11.499 -55.9971q-5 -27.498 -8 -50.4971h-93.9941z" />
    <glyph glyph-name="quotedblright" unicode="&#x201d;" horiz-adv-x="353" 
d="M160 784q-6 -25 -14.5 -55.5t-19 -61.5t-21.5 -60.5t-21 -51.5l-68 15q9 24 16.5 51.5t14 56t11.5 56t8 50.5h94zM315 784q-6 -25 -14.5 -55.5t-19 -61.5t-21.5 -60.5t-21 -51.5l-68 15q9 24 16.5 51.5t14 56t11.5 56t8 50.5h94z" />
    <glyph glyph-name="quoteleft" unicode="&#x2018;" horiz-adv-x="198" 
d="M16.0098 568.007q6 24.999 14.499 55.4971q8.5 30.498 18.999 61.4961t21.499 60.4961q10.999 29.498 20.998 51.4971l67.9961 -14.999q-8.99902 -23.999 -16.499 -51.4971t-13.999 -55.9961q-6.5 -28.499 -11.499 -55.9971q-5 -27.498 -8 -50.4971h-93.9941z" />
    <glyph glyph-name="quoteright" unicode="&#x2019;" horiz-adv-x="198" 
d="M160 784q-6 -25 -14.5 -55.5t-19 -61.5t-21.5 -60.5t-21 -51.5l-68 15q9 24 16.5 51.5t14 56t11.5 56t8 50.5h94z" />
    <glyph glyph-name="guillemotleft" unicode="&#xab;" horiz-adv-x="534" 
d="M219 419l48 -51l-131 -115l131 -115l-48 -51l-175 143v46zM432 419l48 -51l-131 -115l131 -115l-48 -51l-175 143v46z" />
    <glyph glyph-name="guillemotright" unicode="&#xbb;" horiz-adv-x="534" 
d="M490 276v-46l-175 -143l-48 51l131 115l-131 115l48 51zM277 276v-46l-175 -143l-48 51l131 115l-131 115l48 51z" />
    <glyph glyph-name="guilsinglleft" unicode="&#x2039;" horiz-adv-x="321" 
d="M219 419l48 -51l-131 -115l131 -115l-48 -51l-175 143v46z" />
    <glyph glyph-name="guilsinglright" unicode="&#x203a;" horiz-adv-x="321" 
d="M277 276v-46l-175 -143l-48 51l131 115l-131 115l48 51z" />
    <glyph glyph-name="quotesinglbase" unicode="&#x201a;" horiz-adv-x="198" 
d="M160 117q-6 -25 -14.5 -55.5t-19 -61.5t-21.5 -60.5t-21 -51.5l-68 15q9 24 16.5 51.5t14 56t11.5 56t8 50.5h94z" />
    <glyph glyph-name="quotedblbase" unicode="&#x201e;" horiz-adv-x="353" 
d="M315 117q-6 -25 -14.5 -55.5t-19 -61.5t-21.5 -60.5t-21 -51.5l-68 15q9 24 16.5 51.5t14 56t11.5 56t8 50.5h94zM160 117q-6 -25 -14.5 -55.5t-19 -61.5t-21.5 -60.5t-21 -51.5l-68 15q9 24 16.5 51.5t14 56t11.5 56t8 50.5h94z" />
    <glyph glyph-name="ordfeminine" unicode="&#xaa;" horiz-adv-x="354" 
d="M102 396q0 -20 14 -32t42 -12q34 0 71 19v62q-29 6 -63 6q-36 0 -50 -12t-14 -29v-2zM51 618q67 21 120 21q67 0 100.5 -29.5t33.5 -93.5v-132q0 -19 1 -42.5t5 -49.5l-62 -5l-9 24q-22 -14 -45.5 -20t-46.5 -6q-51 0 -85.5 29.5t-34.5 82.5q0 49 32.5 78.5t109.5 29.5
q31 0 59 -7v22q0 29 -15 41t-50 12q-40 0 -98 -19z" />
    <glyph glyph-name="ordmasculine" unicode="&#xba;" horiz-adv-x="354" 
d="M99 452q0 -53 20 -77t58 -24t58 24t20 77v20q0 53 -20 77t-58 24t-58 -24t-20 -77v-20zM22 474q0 81 40 123t115 42t115 -42t40 -123v-24q0 -81 -40 -123t-115 -42t-115 42t-40 123v24z" />
    <glyph glyph-name="zero" unicode="0" 
d="M44 362q0 85 18 149t54 104q34 37 77 55t103 18t103 -18t77 -55q36 -40 54 -104t18 -149v-46q0 -85 -18 -149t-54 -104q-34 -37 -77 -55t-103 -18t-103 18t-77 55q-36 40 -54 104t-18 149v46zM132 320q0 -31 2.5 -60.5t8 -56.5t15 -50t23.5 -39q22 -26 50 -36.5t65 -10.5
t65 10.5t50 36.5q28 33 38.5 88.5t10.5 117.5v38q0 31 -2.5 60.5t-8 56.5t-15 49.5t-23.5 39.5q-22 26 -50 36.5t-65 10.5t-65 -10.5t-50 -36.5q-14 -17 -23.5 -39.5t-15 -49.5t-8 -56.5t-2.5 -60.5v-38z" />
    <glyph glyph-name="one" unicode="1" 
d="M98 600q57 13 108.5 32.5t96.5 45.5h57v-606h170l-7 -72h-425v72h175v506q-27 -12 -69 -25t-91 -23z" />
    <glyph glyph-name="two" unicode="2" 
d="M86 633q57 28 110 41.5t101 13.5t88.5 -13.5t70 -39.5t45.5 -64.5t16 -88.5q0 -33 -10 -67.5t-33 -73t-61.5 -81.5t-95.5 -93l-108 -95h315l-14 -72h-426v57l170 152q36 32 67.5 65t55 66.5t37 67.5t13.5 69q0 66 -36.5 100t-96.5 34q-37 0 -82.5 -11.5t-99.5 -36.5z" />
    <glyph glyph-name="three" unicode="3" 
d="M88 642q43 21 97 33.5t108 12.5q43 0 80 -10.5t64 -31.5t42.5 -54t15.5 -78q0 -50 -20.5 -86t-49.5 -59q48 -17 74.5 -56.5t26.5 -105.5q0 -44 -15.5 -83.5t-46.5 -69t-78 -47t-110 -17.5q-52 0 -109.5 12t-102.5 35l25 67q35 -16 86.5 -26.5t102.5 -10.5q34 0 64.5 8.5
t51.5 25.5q43 35 43 101q0 57 -33 88q-17 17 -40.5 22t-68.5 5h-92v71h136q33 20 50.5 53.5t17.5 72.5q0 47 -32 72t-88 25q-38 0 -81.5 -9.5t-94.5 -29.5z" />
    <glyph glyph-name="four" unicode="4" 
d="M467 678v-467h105l-5 -74h-100v-137h-86v137h-324l-21 47q72 149 152.5 271.5t164.5 222.5h114zM381 211v380q-30 -36 -63 -82t-65 -97t-61.5 -103t-52.5 -98h242z" />
    <glyph glyph-name="five" unicode="5" 
d="M494 678l-13 -75h-269l-16 -192q61 13 117 13q51 0 93 -11.5t72 -37t46 -66t16 -98.5q0 -48 -14.5 -89t-44.5 -70t-75.5 -45.5t-108.5 -16.5q-54 0 -107.5 11.5t-105.5 36.5l26 70q39 -20 86 -30.5t92 -10.5q89 0 126.5 35.5t37.5 106.5q0 40 -9 67t-27 43t-45.5 22.5
t-64.5 6.5q-33 0 -71.5 -5t-86.5 -16l-35 29l24 320q19 1 43.5 1.5t38.5 0.5h275z" />
    <glyph glyph-name="six" unicode="6" 
d="M72 362q0 167 84 253q35 35 83 54t111 19q41 0 83.5 -10t85.5 -31l-27 -69q-68 33 -140 33q-83 0 -132 -50.5t-58 -168.5q85 41 173 41q98 0 154.5 -51.5t56.5 -162.5q0 -52 -15 -94.5t-43.5 -72.5t-71 -46t-96.5 -16q-69 0 -115.5 25.5t-75.5 68.5q-34 50 -45.5 114.5
t-11.5 149.5v14zM161 314q0 -62 8 -106.5t28 -75.5q40 -65 124 -65q69 0 102.5 35.5t33.5 114.5t-31.5 109.5t-99.5 30.5q-41 0 -84.5 -11t-80.5 -32z" />
    <glyph glyph-name="seven" unicode="7" 
d="M529 678l10 -39q-32 -78 -69.5 -161.5t-78 -166t-82.5 -162t-83 -149.5h-107q54 85 101.5 169.5t87.5 162.5t71.5 147t53.5 124h-373l-8 75h477z" />
    <glyph glyph-name="eight" unicode="8" 
d="M70 501q0 41 15.5 75.5t44.5 59t71.5 38.5t96.5 14q49 0 90 -11.5t70.5 -34t46 -57t16.5 -80.5q0 -49 -21.5 -88.5t-62.5 -68.5q53 -23 80.5 -63t27.5 -93q0 -47 -18.5 -84t-51 -63.5t-78 -40.5t-99.5 -14q-64 0 -111 16t-78 44t-46.5 65t-15.5 79q0 57 28 100.5t70 66.5
q-34 23 -54.5 57.5t-20.5 82.5zM356 372q39 25 57.5 58t18.5 73q0 54 -35.5 81t-98.5 27q-66 0 -102.5 -28.5t-36.5 -79.5q0 -47 29 -71.5t76 -37.5q30 -8 51.5 -13t40.5 -9zM221 326q-16 -8 -31 -20t-27 -29t-19.5 -38.5t-7.5 -46.5q0 -57 42 -91t120 -34q72 0 115 30.5
t43 90.5q0 23 -7.5 40t-21 29.5t-31.5 20.5t-38 13q-44 11 -82.5 20.5t-54.5 14.5z" />
    <glyph glyph-name="nine" unicode="9" 
d="M110 101q38 -17 77.5 -25.5t74.5 -8.5q43 0 74.5 10.5t52.5 36.5t32.5 69t14.5 108q-42 -23 -85 -33t-85 -10q-49 0 -90.5 13.5t-67.5 38.5q-62 56 -62 170q0 51 17 91t47.5 68.5t73.5 43.5t94 15q54 0 93 -14.5t67 -39.5q50 -45 68.5 -118.5t18.5 -170.5v-20
q0 -80 -14.5 -142t-46 -105t-81 -65.5t-119.5 -22.5q-42 0 -88 10t-95 33zM435 369q-1 77 -15.5 125.5t-40.5 76.5q-20 21 -45.5 30.5t-55.5 9.5q-66 0 -104.5 -36.5t-38.5 -105.5q0 -143 140 -143q39 0 79.5 10t80.5 33z" />
    <glyph glyph-name="dollar" unicode="$" 
d="M340 783v-97q42 -4 84 -16t83 -33l-34 -67q-32 17 -66 27t-67 13v-232q49 -17 82.5 -33.5t56.5 -36.5q24 -23 34 -51.5t10 -71.5q0 -87 -55 -139q-23 -21 -54.5 -34.5t-73.5 -18.5v-93h-66v91q-48 2 -102.5 16.5t-105.5 41.5l27 69q43 -23 90 -35t91 -14v245l-26 9
q-49 16 -82 35.5t-53 42.5t-28.5 49.5t-8.5 55.5q0 79 53.5 126t144.5 55v96h66zM274 609q-55 -7 -83 -33t-28 -65q0 -38 25.5 -64t85.5 -47v209zM340 73q52 9 75 37.5t23 73.5q0 20 -5 37t-16 28q-12 12 -30 22t-47 21v-219z" />
    <glyph glyph-name="cent" unicode="&#xa2;" 
d="M349 582v-92q30 -4 60.5 -13t59.5 -25l-24 -63q-25 13 -49 20.5t-47 10.5v-357q46 6 102 29l21 -62q-29 -16 -60 -25t-63 -13v-92h-66v91q-49 4 -84.5 23.5t-58 50.5t-33.5 72t-11 90v28q0 110 49.5 168.5t137.5 66.5v92h66zM180 230q0 -96 39 -135q22 -24 64 -30v353
q-51 -9 -77 -48t-26 -117v-23z" />
    <glyph glyph-name="Euro" unicode="&#x20ac;" 
d="M106 440q7 69 33 116.5t64.5 77t85 42t93.5 12.5q57 0 107.5 -14.5t84.5 -37.5l-30 -67q-42 21 -82.5 31t-78.5 10q-73 0 -124.5 -42t-63.5 -128h257l-14 -69h-248v-65h262l-14 -69h-245q4 -47 20 -79t41.5 -52t59.5 -29t73 -9q42 0 84 10t84 28l24 -64
q-38 -23 -88.5 -37.5t-107.5 -14.5q-51 0 -99 12t-86.5 41t-63.5 76t-29 118h-81v69h78v65h-78v69h82z" />
    <glyph glyph-name="florin" unicode="&#x192;" 
d="M322 349h167l-8 -65h-159v-347q0 -77 -37 -117q-20 -21 -49 -31.5t-64 -10.5q-48 0 -100 18l15 67q39 -15 73 -15q45 0 63 19.5t18 74.5v342h-91v55l91 9v208q0 77 40 117q42 42 121 42q50 0 107 -18l-16 -67q-44 15 -81 15q-45 0 -67.5 -21.5t-22.5 -72.5v-202z" />
    <glyph glyph-name="sterling" unicode="&#xa3;" 
d="M133 368q-17 38 -24 72t-7 64q0 81 57.5 132.5t169.5 51.5q42 0 85.5 -9t86.5 -26l-24 -70q-45 14 -80.5 21t-67.5 7q-74 0 -106 -30.5t-32 -82.5q0 -21 6.5 -51.5t22.5 -71.5h236l-18 -71h-191q11 -30 16.5 -57.5t5.5 -50.5q0 -36 -13 -66t-37 -55h307l-17 -75h-434v55
q58 27 83 61t25 76q0 24 -7.5 52.5t-19.5 59.5h-100v53z" />
    <glyph glyph-name="yen" unicode="&#xa5;" 
d="M127 678q24 -60 49.5 -121t49.5 -114t43.5 -94t30.5 -62q15 29 36 74.5t44.5 99t47 110t43.5 107.5h93q-52 -123 -97 -221.5t-84 -171.5h123l-14 -69h-152v-43h159l-14 -69h-145v-104h-86v104h-146v69h146v43h-146v69h105q-19 38 -42 84.5t-47 97.5t-48.5 104.5
t-47.5 106.5h99z" />
    <glyph glyph-name="numbersign" unicode="#" horiz-adv-x="594" 
d="M337 678l-61 -208h118l61 208h78l-61 -208h90l-21 -74h-91l-33 -114h89l-20 -74h-91l-60 -208h-78l60 208h-118l-60 -208h-78l60 208h-89l21 74h90l33 114h-88l20 74h90l61 208h78zM221 282h118l33 114h-118z" />
    <glyph glyph-name="percent" unicode="%" horiz-adv-x="895" 
d="M124 467q0 -68 19 -101t66 -33t65.5 33t18.5 101v22q0 68 -18.5 101t-65.5 33t-66 -33t-19 -101v-22zM687 678l-398 -678h-81l398 678h81zM54 491q0 52 11.5 89.5t32.5 61.5q20 24 48.5 35t62.5 11t62.5 -11t48.5 -35q21 -24 32.5 -61.5t11.5 -89.5v-26q0 -101 -44 -151
q-20 -24 -48.5 -35t-62.5 -11t-62.5 11t-48.5 35q-44 50 -44 151v26zM601 189q0 -68 19 -101t66 -33t65.5 33t18.5 101v22q0 68 -18.5 101t-65.5 33t-66 -33t-19 -101v-22zM531 213q0 52 11.5 89.5t32.5 61.5q20 24 48.5 35t62.5 11t62.5 -11t48.5 -35q44 -50 44 -151v-26
q0 -101 -44 -151q-20 -24 -48.5 -35t-62.5 -11t-62.5 11t-48.5 35q-21 24 -32.5 61.5t-11.5 89.5v26z" />
    <glyph glyph-name="perthousand" unicode="&#x2030;" horiz-adv-x="1245" 
d="M124 467q0 -68 19 -101t66 -33t65.5 33t18.5 101v22q0 68 -18.5 101t-65.5 33t-66 -33t-19 -101v-22zM687 678l-398 -678h-81l398 678h81zM54 491q0 52 11.5 89.5t32.5 61.5q20 24 48.5 35t62.5 11t62.5 -11t48.5 -35q21 -24 32.5 -61.5t11.5 -89.5v-26q0 -101 -44 -151
q-20 -24 -48.5 -35t-62.5 -11t-62.5 11t-48.5 35q-44 50 -44 151v26zM601 189q0 -68 19 -101t66 -33t65.5 33t18.5 101v22q0 68 -18.5 101t-65.5 33t-66 -33t-19 -101v-22zM531 213q0 52 11.5 89.5t32.5 61.5q20 24 48.5 35t62.5 11t62.5 -11t48.5 -35q44 -50 44 -151v-26
q0 -101 -44 -151q-20 -24 -48.5 -35t-62.5 -11t-62.5 11t-48.5 35q-21 24 -32.5 61.5t-11.5 89.5v26zM951 189q0 -68 19 -101t66 -33t65.5 33t18.5 101v22q0 68 -18.5 101t-65.5 33t-66 -33t-19 -101v-22zM881 213q0 52 11.5 89.5t32.5 61.5q20 24 48.5 35t62.5 11t62.5 -11
t48.5 -35q44 -50 44 -151v-26q0 -101 -44 -151q-20 -24 -48.5 -35t-62.5 -11t-62.5 11t-48.5 35q-21 24 -32.5 61.5t-11.5 89.5v26z" />
    <glyph glyph-name="plus" unicode="+" 
d="M254 327v174h82v-174h178v-72h-178v-174h-82v174h-177v72h177z" />
    <glyph glyph-name="minus" unicode="&#x2212;" 
d="M514 327v-72h-437v72h437z" />
    <glyph glyph-name="multiply" unicode="&#xd7;" 
d="M297 345l127 128l54 -53l-127 -129l28.5 -28.5t34 -34.5t34.5 -34.5t29 -28.5l-52 -58l-128 130l-129 -128l-53 55l126 127l-26 26t-37.5 38t-37.5 38l-26 26l54 55z" />
    <glyph glyph-name="less" unicode="&#x3c;" 
d="M489 495l32 -70l-316 -134l316 -134l-32 -70l-405 174v60z" />
    <glyph glyph-name="divide" unicode="&#xf7;" 
d="M514 327v-72h-437v72h437zM242 142q0 29 14 41t39 12q26 0 40 -12t14 -41v-4q0 -29 -14 -41t-40 -12q-25 0 -39 12t-14 41v4zM242 444q0 29 14 41t39 12q26 0 40 -12t14 -41v-4q0 -29 -14 -41t-40 -12q-25 0 -39 12t-14 41v4z" />
    <glyph glyph-name="equal" unicode="=" 
d="M514 417v-72h-437v72h437zM514 237v-72h-437v72h437z" />
    <glyph glyph-name="logicalnot" unicode="&#xac;" 
d="M514 417v-246h-82v174h-355v72h437z" />
    <glyph glyph-name="greater" unicode="&#x3e;" 
d="M507 321v-60l-405 -174l-32 70l316 134l-316 134l32 70z" />
    <glyph glyph-name="notequal" unicode="&#x2260;" 
d="M313 417l44 88l62 -29l-30 -59h125v-72h-161l-54 -108h215v-72h-251l-38 -77l-62 29l24 48h-110v72h146l54 108h-200v72h236z" />
    <glyph glyph-name="approxequal" unicode="&#x2248;" 
d="M81 338q17 60 51 86t79 26q29 0 56 -12t52 -26q21 -12 38 -19t29 -7q20 0 34.5 14t26.5 46l64 -23q-14 -55 -47 -83.5t-76 -28.5q-29 0 -55 9.5t-50 23.5t-42 22.5t-33 8.5q-17 0 -31 -14t-28 -46zM81 173q17 60 51 86t79 26q29 0 56 -12t52 -26q21 -12 38 -19t29 -7
q20 0 34.5 14t26.5 46l64 -23q-14 -55 -47 -83.5t-76 -28.5q-29 0 -55 9.5t-50 23.5t-42 22.5t-33 8.5q-17 0 -31 -14t-28 -46z" />
    <glyph glyph-name="plusminus" unicode="&#xb1;" 
d="M514 117v-72h-437v72h437zM254 439v174h82v-174h178v-72h-178v-174h-82v174h-177v72h177z" />
    <glyph glyph-name="lessequal" unicode="&#x2264;" 
d="M514 117v-72h-437v72h437zM483 616l32 -70l-316 -134l316 -134l-32 -70l-405 174v60z" />
    <glyph glyph-name="greaterequal" unicode="&#x2265;" 
d="M515 117v-72h-437v72h437zM515 442v-60l-405 -174l-32 70l316 134l-316 134l32 70z" />
    <glyph glyph-name="asciicircum" unicode="^" 
d="M323 563l153 -249l-72 -30l-108 178l-108 -178l-72 30l153 249h54z" />
    <glyph glyph-name="asciitilde" unicode="~" 
d="M81 262q17 60 51 86t79 26q29 0 56 -12t52 -26q21 -12 38 -19t29 -7q20 0 34.5 14t26.5 46l64 -23q-14 -55 -47 -83.5t-76 -28.5q-29 0 -55 9.5t-50 23.5t-42 22.5t-33 8.5q-17 0 -31 -14t-28 -46z" />
    <glyph glyph-name="lozenge" unicode="&#x25ca;" 
d="M171 339l125 -229l125 229l-125 229zM319 678l187 -339l-187 -339h-46l-187 339l187 339h46z" />
    <glyph glyph-name="degree" unicode="&#xb0;" 
d="M217 519q0 -20 4 -37t13 -30.5t24 -21t38 -7.5t38 7.5t24 21t13 30.5t4 37v7q0 19 -4 36.5t-13 31t-24 21t-38 7.5t-38 -7.5t-24 -21t-13 -31t-4 -36.5v-7zM139 533q0 32 9 60.5t28 49.5t49 33t71 12t71 -12t49 -33t28 -49.5t9 -60.5v-21q0 -32 -9 -60.5t-28 -49.5
t-49 -33t-71 -12t-71 12t-49 33t-28 49.5t-9 60.5v21z" />
    <glyph glyph-name="quotesingle" unicode="'" horiz-adv-x="210" 
d="M150 784l-12 -216h-66l-12 216h90z" />
    <glyph glyph-name="quotedbl" unicode="&#x22;" horiz-adv-x="349" 
d="M150 784l-12 -216h-66l-12 216h90zM289 784l-12 -216h-66l-12 216h90z" />
    <glyph glyph-name="radical" unicode="&#x221a;" horiz-adv-x="641" 
d="M110 442l142 -327l236 661h153v-77h-102l-260 -709h-55l-180 419z" />
    <glyph glyph-name="currency" unicode="&#xa4;" 
d="M205 437q19 11 40.5 17t47.5 6h5q25 0 47 -6t41 -17l59 59l57 -57l-59 -59q21 -33 21 -75v-18q0 -42 -21 -76l59 -58l-57 -57l-59 59q-38 -23 -88 -23h-5q-50 0 -88 23l-59 -59l-57 57l58 58q-20 35 -20 76v18q0 41 20 75l-58 59l57 57zM202 294q0 -41 23 -67.5t68 -26.5
h5q45 0 68 26.5t23 67.5v4q0 41 -23 67.5t-68 26.5h-5q-45 0 -68 -26.5t-23 -67.5v-4z" />
    <glyph glyph-name="infinity" unicode="&#x221e;" horiz-adv-x="684" 
d="M199 414q-38 0 -58 -27.5t-20 -68.5v-8q0 -41 22.5 -68.5t66.5 -27.5h5q35 0 58 20t40 46l-11 30q-8 21 -16 40t-19 33t-26 22.5t-35 8.5h-7zM207 478q48 0 78.5 -19t53.5 -50q23 29 55 49t74 20h5q36 0 65.5 -12.5t50.5 -33.5t33 -49t12 -59v-20q0 -27 -10.5 -54.5
t-30 -49.5t-47 -36t-62.5 -14h-7q-48 0 -79 19t-54 50q-23 -29 -54.5 -49t-73.5 -20h-5q-36 0 -65.5 12.5t-50.5 33.5t-33 49t-12 59v20q0 27 10.5 54.5t30 49.5t47 36t62.5 14h7zM382 318q7 -21 15.5 -40t19.5 -33t26 -22.5t35 -8.5h7q38 0 58 27.5t20 68.5v8
q0 41 -22.5 68.5t-66.5 27.5h-5q-35 0 -58 -20t-40 -46z" />
    <glyph glyph-name="mu" unicode="&#xb5;" horiz-adv-x="524" 
d="M144 482v-303q0 -65 29 -94q26 -25 76 -25q30 0 62 10t58 30v382h81v-357q0 -31 1.5 -64.5t4.5 -58.5l-60 -8l-17 41q-31 -21 -65 -33t-73 -12q-70 0 -113 32q8 -48 12 -101t4 -96v-39h-81v696h81z" />
    <glyph glyph-name="partialdiff" unicode="&#x2202;" 
d="M209 732q85 -28 143 -65t93.5 -90t51 -124.5t15.5 -168.5v-26q0 -52 -11 -106.5t-40 -91.5q-24 -32 -63 -51t-95 -19h-10q-118 0 -170.5 64.5t-52.5 189.5v19q0 113 54 181q32 40 81 59t102 19h5q41 0 82 -12q-15 29 -33 51t-43.5 41t-60.5 36t-84 36zM311 450
q-42 0 -71 -13t-48 -37q-20 -26 -28.5 -61.5t-8.5 -79.5v-13q0 -86 30 -134.5t110 -48.5h9q32 0 56.5 12t38.5 33q16 23 22 60t6 85v26q0 43 -2 82t-9 74q-20 5 -46 9.5t-52 5.5h-7z" />
    <glyph glyph-name="summation" unicode="&#x2211;" horiz-adv-x="594" 
d="M68 675q31 3 83 3h409l-11 -75h-374l249 -332v-44l-269 -356q-8 -10 2 -10h402q-2 -17 -5.5 -37t-5.5 -38h-425q-29 0 -46 20t-17 43q0 8 3.5 19t9.5 19l274 362l-279 373v53z" />
    <glyph glyph-name="product" unicode="&#x220f;" horiz-adv-x="644" 
d="M566 678v-874h-86v799h-316v-799h-86v874h488z" />
    <glyph glyph-name="pi" unicode="&#x3c0;" horiz-adv-x="590" 
d="M570 482l-10 -70h-95v-280q0 -38 7.5 -53.5t30.5 -15.5q11 0 22.5 2t28.5 7l10 -66q-19 -6 -37 -8.5t-35 -2.5q-59 0 -83.5 33t-24.5 105v279h-187v-412h-81v412h-96v70h550z" />
    <glyph glyph-name="integral" unicode="&#x222b;" 
d="M419 715q26 0 53 -5t51 -13l-16 -67q-23 8 -44 11.5t-38 3.5h-4q-85 0 -85 -94v-600q0 -74 -40 -119q-20 -21 -51 -32t-67 -11h-6q-26 0 -53 5t-51 13l16 67q23 -8 44 -11.5t38 -3.5h4q85 0 85 94v600q0 74 40 119q20 21 51 32t67 11h6z" />
    <glyph glyph-name="Omega" unicode="&#x3a9;" horiz-adv-x="669" 
d="M340 688q82 0 135.5 -25.5t85 -70.5t44 -105.5t12.5 -129.5v-36q0 -82 -26.5 -143.5t-77.5 -107.5h106l-8 -70h-227l-1 55q34 15 61 42t46 63t29 78.5t10 87.5v27q0 56 -8 103t-29 81.5t-58 54t-96 19.5h-7q-59 0 -96 -19.5t-58 -54t-29 -81.5t-8 -103v-27
q0 -45 10 -87.5t29 -78.5t46 -63t61 -42l-1 -55h-227l-8 70h106q-51 46 -77.5 107.5t-26.5 143.5v36q0 69 12.5 129.5t44 105.5t85 70.5t135.5 25.5h11z" />
    <glyph glyph-name="Omega" unicode="&#x2126;" horiz-adv-x="669" 
d="M340 688q82 0 135.5 -25.5t85 -70.5t44 -105.5t12.5 -129.5v-36q0 -82 -26.5 -143.5t-77.5 -107.5h106l-8 -70h-227l-1 55q34 15 61 42t46 63t29 78.5t10 87.5v27q0 56 -8 103t-29 81.5t-58 54t-96 19.5h-7q-59 0 -96 -19.5t-58 -54t-29 -81.5t-8 -103v-27
q0 -45 10 -87.5t29 -78.5t46 -63t61 -42l-1 -55h-227l-8 70h106q-51 46 -77.5 107.5t-26.5 143.5v36q0 69 12.5 129.5t44 105.5t85 70.5t135.5 25.5h11z" />
    <glyph glyph-name="Delta" unicode="&#x2206;" horiz-adv-x="613" 
d="M357 678q28 -72 57 -152t58 -162t57 -163.5t54 -156.5v-44h-553v44q25 76 53 157.5t57.5 162.5t59.5 160.5t59 153.5h98zM305 584q-23 -55 -46 -117t-46 -127.5t-45 -132.5t-43 -132h363q-20 65 -42 132t-45 132.5t-46 127.5t-44 117h-6z" />
    <glyph glyph-name="litre" unicode="&#x2113;" horiz-adv-x="343" 
d="M150 705v-546q0 -23 1 -40t6 -28q13 -28 57 -28h3q39 0 89 14l14 -59q-59 -23 -115 -23h-3q-37 0 -65.5 11.5t-45.5 35.5q-14 21 -18 49.5t-4 63.5v550h81z" />
    <glyph glyph-name="estimated" unicode="&#x212e;" horiz-adv-x="914" 
d="M225 127q0 -6 2.5 -11.5t6.5 -10.5q42 -44 100 -70.5t125 -26.5q71 0 131.5 29t103.5 80h53q-50 -59 -125.5 -94t-163.5 -35q-76 0 -143 26t-117 71t-79 105t-29 128q0 69 29 129.5t79 105t117 70.5t143 26q75 0 142 -26t116.5 -70.5t78.5 -105t29 -129.5v-8h-595
q-4 0 -4 -4v-179zM225 334q0 -5 4 -5h456q5 0 5 5v181q0 13 -10 21q-42 43 -99 68t-122 25q-67 0 -124.5 -25.5t-99.5 -70.5q-10 -8 -10 -23v-176z" />
    <glyph glyph-name="numero" unicode="&#x2116;" horiz-adv-x="1014" 
d="M980 305v-69h-314v69h314zM744 519q0 -20 4 -37t13 -30.5t24 -21t38 -7.5t38 7.5t24 21t13 30.5t4 37v7q0 19 -4 36.5t-13 31t-24 21t-38 7.5t-38 -7.5t-24 -21t-13 -31t-4 -36.5v-7zM666 533q0 32 9 60.5t28 49.5t49 33t71 12t71 -12t49 -33t28 -49.5t9 -60.5v-21
q0 -32 -9 -60.5t-28 -49.5t-49 -33t-71 -12t-71 12t-49 33t-28 49.5t-9 60.5v21zM182 678l331 -554v554h82v-684h-90l-345 570v-564h-82v678h104z" />
    <glyph glyph-name="fraction" unicode="&#x2044;" horiz-adv-x="519" 
d="M499 678l-398 -678h-81l398 678h81z" />
    <glyph glyph-name="onesuperior" unicode="&#xb9;" horiz-adv-x="366" 
d="M42 636q43 9 78.5 22t61.5 28h43v-355h99l-6 -59h-260v59h101v280q-14 -7 -41.5 -15t-62.5 -16z" />
    <glyph glyph-name="twosuperior" unicode="&#xb2;" horiz-adv-x="366" 
d="M42 652q37 19 71 27.5t63 8.5q26 0 50 -7.5t42.5 -23t29.5 -39t11 -56.5q0 -49 -32 -96.5t-87 -95.5l-45 -39h175l-14 -59h-263v45l101 91q19 17 37 36t31.5 38.5t21.5 39t8 37.5q0 31 -18.5 49t-52.5 18q-44 0 -109 -31z" />
    <glyph glyph-name="threesuperior" unicode="&#xb3;" horiz-adv-x="366" 
d="M50 657q34 17 66 24t61 7q32 0 57 -9.5t41 -26.5q26 -28 26 -71q0 -49 -37 -83q26 -11 41 -36.5t15 -61.5q0 -27 -9.5 -51.5t-28.5 -42.5t-47.5 -29t-67.5 -11q-30 0 -65.5 8t-65.5 23l21 55q26 -12 56.5 -18t53.5 -6q44 0 65 18t21 52q0 13 -4.5 25t-14.5 20
q-9 8 -20.5 10t-34.5 2h-62v59h90q29 26 29 63q0 49 -62 49q-21 0 -47.5 -5.5t-59.5 -19.5z" />
    <glyph glyph-name="onehalf" unicode="&#xbd;" horiz-adv-x="912" 
d="M42 636q43 9 78.5 22t61.5 28h43v-355h99l-6 -59h-260v59h101v280q-14 -7 -41.5 -15t-62.5 -16zM699 678l-398 -678h-81l398 678h81zM588 381q37 19 71 27.5t63 8.5q26 0 50 -7.5t42.5 -23t29.5 -39t11 -56.5q0 -49 -32 -96.5t-87 -95.5l-45 -39h175l-14 -59h-263v45
l101 91q19 17 37 36t31.5 38.5t21.5 39t8 37.5q0 31 -18.5 49t-52.5 18q-44 0 -109 -31z" />
    <glyph glyph-name="onequarter" unicode="&#xbc;" horiz-adv-x="912" 
d="M789 410v-270h69l-5 -61h-64v-79h-64v79h-186l-15 36q43 89 90.5 162t98.5 133h76zM725 140v189q-15 -20 -31.5 -43.5t-32 -48t-30 -50t-26.5 -47.5h120zM42 636q43 9 78.5 22t61.5 28h43v-355h99l-6 -59h-260v59h101v280q-14 -7 -41.5 -15t-62.5 -16zM699 678l-398 -678
h-81l398 678h81z" />
    <glyph glyph-name="threequarters" unicode="&#xbe;" horiz-adv-x="912" 
d="M789 410v-270h69l-5 -61h-64v-79h-64v79h-186l-15 36q43 89 90.5 162t98.5 133h76zM725 140v189q-15 -20 -31.5 -43.5t-32 -48t-30 -50t-26.5 -47.5h120zM50 657q34 17 66 24t61 7q32 0 57 -9.5t41 -26.5q26 -28 26 -71q0 -49 -37 -83q26 -11 41 -36.5t15 -61.5
q0 -27 -9.5 -51.5t-28.5 -42.5t-47.5 -29t-67.5 -11q-30 0 -65.5 8t-65.5 23l21 55q26 -12 56.5 -18t53.5 -6q44 0 65 18t21 52q0 13 -4.5 25t-14.5 20q-9 8 -20.5 10t-34.5 2h-62v59h90q29 26 29 63q0 49 -62 49q-21 0 -47.5 -5.5t-59.5 -19.5zM699 678l-398 -678h-81
l398 678h81z" />
    <glyph glyph-name="grave" unicode="`" horiz-adv-x="405" 
d="M183 717q15 -26 43.5 -69t62.5 -88h-81q-15 15 -32.5 35t-35.5 41.5t-34.5 42.5t-29.5 38h107z" />
    <glyph glyph-name="acute" unicode="&#xb4;" horiz-adv-x="405" 
d="M289 717q-13 -17 -29.5 -38t-34.5 -42.5t-35.5 -41.5t-32.5 -35h-81q34 45 62.5 88t43.5 69h107z" />
    <glyph glyph-name="dieresis" unicode="&#xa8;" horiz-adv-x="405" 
d="M74 638q0 29 13.5 40.5t38.5 11.5t38.5 -11.5t13.5 -40.5v-3q0 -29 -13.5 -40.5t-38.5 -11.5t-38.5 11.5t-13.5 40.5v3zM226 638q0 29 13.5 40.5t38.5 11.5t38.5 -11.5t13.5 -40.5v-3q0 -29 -13.5 -40.5t-38.5 -11.5t-38.5 11.5t-13.5 40.5v3z" />
    <glyph glyph-name="circumflex" unicode="&#x2c6;" horiz-adv-x="405" 
d="M242 699q15 -23 43.5 -59t59.5 -71h-95q-5 5 -11.5 13.5t-13.5 17.5t-13 17t-10 14q-4 -6 -10 -14t-13 -17t-13.5 -17.5t-11.5 -13.5h-95q31 35 59.5 71t43.5 59h80z" />
    <glyph glyph-name="tilde" unicode="&#x2dc;" horiz-adv-x="405" 
d="M46 594q12 51 38 75t59 24t66 -21l26 -16q19 -12 31 -12q21 0 36 46l57 -19q-9 -48 -32.5 -73.5t-57.5 -25.5q-19 0 -36 7t-34 16l-20 11q-19 11 -25 13.5t-11 2.5q-11 0 -20.5 -12.5t-17.5 -33.5z" />
    <glyph glyph-name="macron" unicode="&#xaf;" horiz-adv-x="405" 
d="M338 658v-68h-271v68h271z" />
    <glyph glyph-name="breve" unicode="&#x2d8;" horiz-adv-x="405" 
d="M148 679q3 -25 17.5 -38t34.5 -13h4q20 0 34.5 13t17.5 38h71q-3 -51 -36 -83.5t-85 -32.5h-8q-52 0 -85 32.5t-36 83.5h71z" />
    <glyph glyph-name="dotaccent" unicode="&#x2d9;" horiz-adv-x="405" 
d="M148 640q0 29 14.5 41t39.5 12t39.5 -12t14.5 -41v-7q0 -29 -14.5 -41t-39.5 -12t-39.5 12t-14.5 41v7z" />
    <glyph glyph-name="ring" unicode="&#x2da;" horiz-adv-x="405" 
d="M230 626q0 28 -28 28t-28 -28t28 -28t28 28zM289 626q0 -39 -24.5 -62.5t-62.5 -23.5t-62.5 23.5t-24.5 62.5t24.5 62.5t62.5 23.5t62.5 -23.5t24.5 -62.5z" />
    <glyph glyph-name="cedilla" unicode="&#xb8;" horiz-adv-x="405" 
d="M211 16l-20 -63q15 4 32 4q38 0 64 -20.5t26 -63.5v-4q0 -44 -30 -68t-83 -24q-23 0 -51.5 7t-58.5 21l18 57q52 -22 92 -22q24 0 33 7.5t9 19.5v2q0 12 -9.5 19t-34.5 7q-11 0 -27 -1.5t-29 -4.5l-27 22l34 105h62z" />
    <glyph glyph-name="hungarumlaut" unicode="&#x2dd;" horiz-adv-x="405" 
d="M221 689q-23 -38 -50.5 -77t-49.5 -66h-77q24 38 45 76t35 67h97zM368 689q-23 -38 -50.5 -77t-49.5 -66h-77q24 38 45 76t35 67h97z" />
    <glyph glyph-name="ogonek" unicode="&#x2db;" horiz-adv-x="405" 
d="M243 28l6 -18q-26 -20 -40.5 -43t-14.5 -47q0 -33 35 -33q24 0 57 13l17 -56q-46 -20 -86 -20q-48 0 -73 25q-22 22 -22 61q0 34 22.5 67t53.5 51h45z" />
    <glyph glyph-name="caron" unicode="&#x2c7;" horiz-adv-x="405" 
d="M154 680q10 -10 25 -29t23 -30q8 11 23 30t25 29h95q-31 -33 -59.5 -67.5t-43.5 -56.5h-80q-15 22 -43.5 56.5t-59.5 67.5h95z" />
    <glyph glyph-name="commaaccent" unicode="&#x326;" horiz-adv-x="405" 
d="M250 -74q-10 -42 -25.5 -90t-35.5 -89l-65 13q12 37 21.5 81t14.5 85h90z" />
    <glyph glyph-name="grave.cap" horiz-adv-x="405" 
d="M190 884q10 -15 23 -33t27.5 -37t29.5 -38t29 -35h-88q-14 14 -31.5 32t-35.5 37.5t-35.5 38.5t-30.5 35h112z" />
    <glyph glyph-name="acute.cap" horiz-adv-x="405" 
d="M299 884q-14 -16 -31 -35t-35 -38.5t-35.5 -37.5t-31.5 -32h-88q14 16 29 35t29.5 38t27.5 37t23 33h112z" />
    <glyph glyph-name="dieresis.cap" horiz-adv-x="405" 
d="M72 801q0 29 13.5 41t39.5 12t39.5 -12t13.5 -41v-3q0 -29 -13.5 -41t-39.5 -12t-39.5 12t-13.5 41v3zM226 801q0 29 13.5 41t39.5 12t39.5 -12t13.5 -41v-3q0 -29 -13.5 -41t-39.5 -12t-39.5 12t-13.5 41v3z" />
    <glyph glyph-name="circumflex.cap" horiz-adv-x="405" 
d="M243 862q15 -22 43.5 -57.5t59.5 -69.5h-96q-5 5 -11.5 13.5t-13.5 17.5t-13 17t-10 14q-4 -6 -10 -14t-13 -17t-13.5 -17.5t-11.5 -13.5h-96q31 34 59.5 69.5t43.5 57.5h82z" />
    <glyph glyph-name="tilde.cap" horiz-adv-x="405" 
d="M46 755q12 51 38 75t59 24t66 -21l26 -16q19 -12 31 -12q21 0 36 46l57 -19q-9 -48 -32.5 -73.5t-57.5 -25.5q-19 0 -36 7t-34 16l-20 11q-19 11 -25 13.5t-11 2.5q-11 0 -20.5 -12.5t-17.5 -33.5z" />
    <glyph glyph-name="macron.cap" horiz-adv-x="405" 
d="M338 813v-70h-271v70h271z" />
    <glyph glyph-name="breve.cap" horiz-adv-x="405" 
d="M145 844q5 -23 18.5 -34t33.5 -11h4q20 0 33.5 11t18.5 34h71q-5 -51 -37.5 -81t-83.5 -30h-8q-51 0 -83.5 30t-37.5 81h71z" />
    <glyph glyph-name="dotaccent.cap" horiz-adv-x="405" 
d="M148 807q0 29 14.5 41t39.5 12t39.5 -12t14.5 -41v-7q0 -29 -14.5 -41t-39.5 -12t-39.5 12t-14.5 41v7z" />
    <glyph glyph-name="ring.cap" horiz-adv-x="405" 
d="M174 797q0 -28 28 -28t28 28t-28 28t-28 -28zM115 797q0 39 24.5 62.5t62.5 23.5t62.5 -23.5t24.5 -62.5t-24.5 -62.5t-62.5 -23.5t-62.5 23.5t-24.5 62.5z" />
    <glyph glyph-name="hungarumlaut.cap" horiz-adv-x="405" 
d="M233 867q-8 -12 -22.5 -30t-31 -37.5t-33 -37.5t-28.5 -30h-84q13 18 27.5 37.5t27 38t22.5 34t16 25.5h106zM388 867q-8 -12 -22.5 -30t-31 -37.5t-33 -37.5t-28.5 -30h-84q13 18 27.5 37.5t27 38t22.5 34t16 25.5h106z" />
    <glyph glyph-name="caron.cap" horiz-adv-x="405" 
d="M154 856q5 -5 11.5 -13t13.5 -17t13 -17t10 -14q4 6 10 14t13 17t13.5 17t11.5 13h96q-31 -33 -59.5 -68t-43.5 -56h-82q-15 21 -43.5 56t-59.5 68h96z" />
    <glyph glyph-name="Agrave" unicode="&#xc0;" horiz-adv-x="608" 
d="M356 678q30 -77 61.5 -162.5t63 -173.5t60.5 -175.5t55 -166.5h-93q-14 42 -25.5 79t-22.5 71h-305q-12 -38 -23.5 -75.5t-22.5 -74.5h-92q25 78 55 165t61 175.5t63 174.5t62 163h103zM431 223q-23 70 -40.5 122t-32 93.5t-27.5 76t-26 67.5q-32 -75 -65 -167t-66 -192
h257zM284 884q10 -15 23 -33t27.5 -37t29.5 -38t29 -35h-88q-14 14 -31.5 32t-35.5 37.5t-35.5 38.5t-30.5 35h112z" />
    <glyph glyph-name="Aacute" unicode="&#xc1;" horiz-adv-x="608" 
d="M356 678q30 -77 61.5 -162.5t63 -173.5t60.5 -175.5t55 -166.5h-93q-14 42 -25.5 79t-22.5 71h-305q-12 -38 -23.5 -75.5t-22.5 -74.5h-92q25 78 55 165t61 175.5t63 174.5t62 163h103zM431 223q-23 70 -40.5 122t-32 93.5t-27.5 76t-26 67.5q-32 -75 -65 -167t-66 -192
h257zM433 884q-14 -16 -31 -35t-35 -38.5t-35.5 -37.5t-31.5 -32h-88q14 16 29 35t29.5 38t27.5 37t23 33h112z" />
    <glyph glyph-name="Acircumflex" unicode="&#xc2;" horiz-adv-x="608" 
d="M356 678q30 -77 61.5 -162.5t63 -173.5t60.5 -175.5t55 -166.5h-93q-14 42 -25.5 79t-22.5 71h-305q-12 -38 -23.5 -75.5t-22.5 -74.5h-92q25 78 55 165t61 175.5t63 174.5t62 163h103zM431 223q-23 70 -40.5 122t-32 93.5t-27.5 76t-26 67.5q-32 -75 -65 -167t-66 -192
h257zM347 862q15 -22 43.5 -57.5t59.5 -69.5h-96q-5 5 -11.5 13.5t-13.5 17.5t-13 17t-10 14q-4 -6 -10 -14t-13 -17t-13.5 -17.5t-11.5 -13.5h-96q31 34 59.5 69.5t43.5 57.5h82z" />
    <glyph glyph-name="Atilde" unicode="&#xc3;" horiz-adv-x="608" 
d="M356 678q30 -77 61.5 -162.5t63 -173.5t60.5 -175.5t55 -166.5h-93q-14 42 -25.5 79t-22.5 71h-305q-12 -38 -23.5 -75.5t-22.5 -74.5h-92q25 78 55 165t61 175.5t63 174.5t62 163h103zM431 223q-23 70 -40.5 122t-32 93.5t-27.5 76t-26 67.5q-32 -75 -65 -167t-66 -192
h257zM149 755q12 51 38 75t59 24t66 -21l26 -16q19 -12 31 -12q21 0 36 46l57 -19q-9 -48 -32.5 -73.5t-57.5 -25.5q-19 0 -36 7t-34 16l-20 11q-19 11 -25 13.5t-11 2.5q-11 0 -20.5 -12.5t-17.5 -33.5z" />
    <glyph glyph-name="Adieresis" unicode="&#xc4;" horiz-adv-x="608" 
d="M356 678q30 -77 61.5 -162.5t63 -173.5t60.5 -175.5t55 -166.5h-93q-14 42 -25.5 79t-22.5 71h-305q-12 -38 -23.5 -75.5t-22.5 -74.5h-92q25 78 55 165t61 175.5t63 174.5t62 163h103zM431 223q-23 70 -40.5 122t-32 93.5t-27.5 76t-26 67.5q-32 -75 -65 -167t-66 -192
h257zM175 801q0 29 13.5 41t39.5 12t39.5 -12t13.5 -41v-3q0 -29 -13.5 -41t-39.5 -12t-39.5 12t-13.5 41v3zM329 801q0 29 13.5 41t39.5 12t39.5 -12t13.5 -41v-3q0 -29 -13.5 -41t-39.5 -12t-39.5 12t-13.5 41v3z" />
    <glyph glyph-name="Amacron" unicode="&#x100;" horiz-adv-x="608" 
d="M356 678q30 -77 61.5 -162.5t63 -173.5t60.5 -175.5t55 -166.5h-93q-14 42 -25.5 79t-22.5 71h-305q-12 -38 -23.5 -75.5t-22.5 -74.5h-92q25 78 55 165t61 175.5t63 174.5t62 163h103zM431 223q-23 70 -40.5 122t-32 93.5t-27.5 76t-26 67.5q-32 -75 -65 -167t-66 -192
h257zM440 813v-70h-271v70h271z" />
    <glyph glyph-name="Abreve" unicode="&#x102;" horiz-adv-x="608" 
d="M356 678q30 -77 61.5 -162.5t63 -173.5t60.5 -175.5t55 -166.5h-93q-14 42 -25.5 79t-22.5 71h-305q-12 -38 -23.5 -75.5t-22.5 -74.5h-92q25 78 55 165t61 175.5t63 174.5t62 163h103zM431 223q-23 70 -40.5 122t-32 93.5t-27.5 76t-26 67.5q-32 -75 -65 -167t-66 -192
h257zM251 844q5 -23 18.5 -34t33.5 -11h4q20 0 33.5 11t18.5 34h71q-5 -51 -37.5 -81t-83.5 -30h-8q-51 0 -83.5 30t-37.5 81h71z" />
    <glyph glyph-name="Acaron" unicode="&#x1cd;" horiz-adv-x="608" 
d="M356 678q30 -77 61.5 -162.5t63 -173.5t60.5 -175.5t55 -166.5h-93q-14 42 -25.5 79t-22.5 71h-305q-12 -38 -23.5 -75.5t-22.5 -74.5h-92q25 78 55 165t61 175.5t63 174.5t62 163h103zM431 223q-23 70 -40.5 122t-32 93.5t-27.5 76t-26 67.5q-32 -75 -65 -167t-66 -192
h257zM257 856q5 -5 11.5 -13t13.5 -17t13 -17t10 -14q4 6 10 14t13 17t13.5 17t11.5 13h96q-31 -33 -59.5 -68t-43.5 -56h-82q-15 21 -43.5 56t-59.5 68h96z" />
    <glyph glyph-name="Aring" unicode="&#xc5;" horiz-adv-x="608" 
d="M12 0q24 75 52.5 159t59 169.5t61.5 169.5t60 159q-27 24 -27 65q0 39 24.5 62.5t62.5 23.5t62.5 -23.5t24.5 -62.5q0 -43 -28 -66q29 -75 59.5 -158t60.5 -168.5t58.5 -169.5t53.5 -160h-93q-14 42 -25.5 79t-22.5 71h-305q-12 -38 -23.5 -75.5t-22.5 -74.5h-92z
M431 223q-23 70 -40.5 122t-32 93.5t-27.5 76t-26 67.5q-32 -75 -65 -167t-66 -192h257zM277 722q0 -28 28 -28t28 28t-28 28t-28 -28z" />
    <glyph glyph-name="Aringacute" unicode="&#x1fa;" horiz-adv-x="608" 
d="M12 0q24 75 52.5 159t59 169.5t61.5 169.5t60 159q-27 24 -27 65q0 39 24.5 62.5t62.5 23.5t62.5 -23.5t24.5 -62.5q0 -43 -28 -66q29 -75 59.5 -158t60.5 -168.5t58.5 -169.5t53.5 -160h-93q-14 42 -25.5 79t-22.5 71h-305q-12 -38 -23.5 -75.5t-22.5 -74.5h-92z
M431 223q-23 70 -40.5 122t-32 93.5t-27.5 76t-26 67.5q-32 -75 -65 -167t-66 -192h257zM277 722q0 -28 28 -28t28 28t-28 28t-28 -28zM466 990q-14 -16 -31 -35t-34.5 -38.5t-34.5 -37.5t-31 -32h-96q14 16 29 35l30 38t28.5 37t24.5 33h115z" />
    <glyph glyph-name="Aogonek" unicode="&#x104;" horiz-adv-x="608" 
d="M431 223q-23 70 -40.5 122t-32 93.5t-27.5 76t-26 67.5q-32 -75 -65 -167t-66 -192h257zM356 678q30 -77 61.5 -161t62.5 -171t60.5 -174.5t55.5 -171.5q-34 -18 -48 -39t-14 -41q0 -33 35 -33q24 0 57 13l17 -56q-46 -20 -86 -20q-48 0 -73 25q-22 22 -22 61
q0 23 9.5 45t31.5 45l-48 150h-305q-12 -38 -23.5 -75.5t-22.5 -74.5h-92q25 78 55 165t61 175.5t63 174.5t62 163h103z" />
    <glyph glyph-name="AE" unicode="&#xc6;" horiz-adv-x="878" 
d="M440 223v378q-54 -94 -107.5 -188t-105.5 -190h213zM858 678l-10 -75h-322v-221q26 2 52.5 3t49.5 1h142l-10 -75h-234v-235h332l-10 -76h-329q-20 0 -40 0.5t-39 1.5v148h-253l-78 -150h-97q42 78 90.5 165t98.5 175.5t99.5 174.5t95.5 163h462z" />
    <glyph glyph-name="AEacute" unicode="&#x1fc;" horiz-adv-x="878" 
d="M858 678l-10 -75h-322v-221q26 2 52.5 3t49.5 1h142l-10 -75h-234v-235h332l-10 -76h-329q-20 0 -40 0.5t-39 1.5v148h-253l-78 -150h-97q42 78 90.5 165t98.5 175.5t99.5 174.5t95.5 163h462zM440 223v378q-54 -94 -107.5 -188t-105.5 -190h213zM746 884
q-14 -16 -31 -35t-35 -38.5t-35.5 -37.5t-31.5 -32h-88q14 16 29 35t29.5 38t27.5 37t23 33h112z" />
    <glyph glyph-name="Cacute" unicode="&#x106;" horiz-adv-x="572" 
d="M56 354q0 97 28 166t81 111q73 57 182 57q60 0 107 -13.5t85 -38.5l-30 -66q-35 19 -77 30t-84 11q-38 0 -73.5 -13t-64.5 -42q-29 -32 -47.5 -82.5t-18.5 -124.5v-14q0 -151 61 -218q25 -26 60.5 -38t87.5 -12q41 0 86 10t81 28l24 -63q-37 -23 -88 -37.5t-107 -14.5
q-69 0 -120.5 17.5t-89.5 54.5q-83 80 -83 268v24zM475 884q-14 -16 -31 -35t-35 -38.5t-35.5 -37.5t-31.5 -32h-88q14 16 29 35t29.5 38t27.5 37t23 33h112z" />
    <glyph glyph-name="Ccedilla" unicode="&#xc7;" horiz-adv-x="572" 
d="M56 354q0 97 28 166t81 111q73 57 182 57q60 0 107 -13.5t85 -38.5l-30 -66q-35 19 -77 30t-84 11q-38 0 -73.5 -13t-64.5 -42q-29 -32 -47.5 -82.5t-18.5 -124.5v-14q0 -151 61 -218q25 -26 60.5 -38t87.5 -12q41 0 86 10t81 28l24 -63q-37 -23 -88 -37.5t-107 -14.5h-1
l-11 -37q15 4 32 4q38 0 64 -20.5t26 -63.5v-4q0 -44 -30 -68t-83 -24q-23 0 -51.5 7t-58.5 21l18 57q52 -22 92 -22q24 0 33 7.5t9 19.5v2q0 12 -9.5 19t-34.5 7q-11 0 -27 -1.5t-29 -4.5l-27 22l27 83q-91 12 -149 68q-83 80 -83 268v24z" />
    <glyph glyph-name="Ccircumflex" unicode="&#x108;" horiz-adv-x="572" 
d="M56 354q0 97 28 166t81 111q73 57 182 57q60 0 107 -13.5t85 -38.5l-30 -66q-35 19 -77 30t-84 11q-38 0 -73.5 -13t-64.5 -42q-29 -32 -47.5 -82.5t-18.5 -124.5v-14q0 -151 61 -218q25 -26 60.5 -38t87.5 -12q41 0 86 10t81 28l24 -63q-37 -23 -88 -37.5t-107 -14.5
q-69 0 -120.5 17.5t-89.5 54.5q-83 80 -83 268v24zM387 862q15 -22 43.5 -57.5t59.5 -69.5h-96q-5 5 -11.5 13.5t-13.5 17.5t-13 17t-10 14q-4 -6 -10 -14t-13 -17t-13.5 -17.5t-11.5 -13.5h-96q31 34 59.5 69.5t43.5 57.5h82z" />
    <glyph glyph-name="Ccaron" unicode="&#x10c;" horiz-adv-x="572" 
d="M56 354q0 97 28 166t81 111q73 57 182 57q60 0 107 -13.5t85 -38.5l-30 -66q-35 19 -77 30t-84 11q-38 0 -73.5 -13t-64.5 -42q-29 -32 -47.5 -82.5t-18.5 -124.5v-14q0 -151 61 -218q25 -26 60.5 -38t87.5 -12q41 0 86 10t81 28l24 -63q-37 -23 -88 -37.5t-107 -14.5
q-69 0 -120.5 17.5t-89.5 54.5q-83 80 -83 268v24zM298 856q5 -5 11.5 -13t13.5 -17t13 -17t10 -14q4 6 10 14t13 17t13.5 17t11.5 13h96q-31 -33 -59.5 -68t-43.5 -56h-82q-15 21 -43.5 56t-59.5 68h96z" />
    <glyph glyph-name="Cdotaccent" unicode="&#x10a;" horiz-adv-x="572" 
d="M56 354q0 97 28 166t81 111q73 57 182 57q60 0 107 -13.5t85 -38.5l-30 -66q-35 19 -77 30t-84 11q-38 0 -73.5 -13t-64.5 -42q-29 -32 -47.5 -82.5t-18.5 -124.5v-14q0 -151 61 -218q25 -26 60.5 -38t87.5 -12q41 0 86 10t81 28l24 -63q-37 -23 -88 -37.5t-107 -14.5
q-69 0 -120.5 17.5t-89.5 54.5q-83 80 -83 268v24zM291 807q0 29 14.5 41t39.5 12t39.5 -12t14.5 -41v-7q0 -29 -14.5 -41t-39.5 -12t-39.5 12t-14.5 41v7z" />
    <glyph glyph-name="Dcaron" unicode="&#x10e;" horiz-adv-x="654" 
d="M241 678q79 0 140.5 -13t106.5 -44q110 -75 110 -262v-25q0 -184 -87 -262q-41 -37 -106.5 -54.5t-146.5 -17.5h-79h-23.5t-27.5 0.5t-27.5 1.5t-22.5 2v670q9 1 22.5 2t27.5 1.5t27.5 0.5h23.5h62zM164 76h89q69 0 117.5 13t79.5 43.5t45.5 81t14.5 125.5v17
q0 145 -81 204q-32 23 -74 33t-107 10h-84v-527zM259 856q5 -5 11.5 -13t13.5 -17t13 -17t10 -14q4 6 10 14t13 17t13.5 17t11.5 13h96q-31 -33 -59.5 -68t-43.5 -56h-82q-15 21 -43.5 56t-59.5 68h96z" />
    <glyph glyph-name="Dcroat" unicode="&#x110;" horiz-adv-x="654" 
d="M241 678q79 0 140.5 -13t106.5 -44q110 -75 110 -262v-25q0 -184 -87 -262q-41 -37 -106.5 -54.5t-146.5 -17.5h-79h-23.5t-27.5 0.5t-27.5 1.5t-22.5 2v301h-83v75h83v294q9 1 22.5 2t27.5 1.5t27.5 0.5h23.5h62zM164 380h138l-9 -75h-129v-229h89q69 0 117.5 13
t79.5 43.5t45.5 81t14.5 125.5v17q0 145 -81 204q-32 23 -74 33t-107 10h-84v-223z" />
    <glyph glyph-name="Eth" unicode="&#xd0;" horiz-adv-x="654" 
d="M241 678q79 0 140.5 -13t106.5 -44q110 -75 110 -262v-25q0 -184 -87 -262q-41 -37 -106.5 -54.5t-146.5 -17.5h-79h-23.5t-27.5 0.5t-27.5 1.5t-22.5 2v301h-83v75h83v294q9 1 22.5 2t27.5 1.5t27.5 0.5h23.5h62zM164 380h138l-9 -75h-129v-229h89q69 0 117.5 13
t79.5 43.5t45.5 81t14.5 125.5v17q0 145 -81 204q-32 23 -74 33t-107 10h-84v-223z" />
    <glyph glyph-name="Egrave" unicode="&#xc8;" horiz-adv-x="516" 
d="M496 678l-10 -75h-322v-221q26 2 52.5 3t49.5 1h142l-10 -75h-234v-235h332l-10 -76h-329q-20 0 -40 0.5t-39 1.5v674q19 1 39 1.5t40 0.5h339zM258 884q10 -15 23 -33t27.5 -37t29.5 -38t29 -35h-88q-14 14 -31.5 32t-35.5 37.5t-35.5 38.5t-30.5 35h112z" />
    <glyph glyph-name="Eacute" unicode="&#xc9;" horiz-adv-x="516" 
d="M496 678l-10 -75h-322v-221q26 2 52.5 3t49.5 1h142l-10 -75h-234v-235h332l-10 -76h-329q-20 0 -40 0.5t-39 1.5v674q19 1 39 1.5t40 0.5h339zM427 884q-14 -16 -31 -35t-35 -38.5t-35.5 -37.5t-31.5 -32h-88q14 16 29 35t29.5 38t27.5 37t23 33h112z" />
    <glyph glyph-name="Ecircumflex" unicode="&#xca;" horiz-adv-x="516" 
d="M496 678l-10 -75h-322v-221q26 2 52.5 3t49.5 1h142l-10 -75h-234v-235h332l-10 -76h-329q-20 0 -40 0.5t-39 1.5v674q19 1 39 1.5t40 0.5h339zM329 862q15 -22 43.5 -57.5t59.5 -69.5h-96q-5 5 -11.5 13.5t-13.5 17.5t-13 17t-10 14q-4 -6 -10 -14t-13 -17t-13.5 -17.5
t-11.5 -13.5h-96q31 34 59.5 69.5t43.5 57.5h82z" />
    <glyph glyph-name="Ecaron" unicode="&#x11a;" horiz-adv-x="516" 
d="M496 678l-10 -75h-322v-221q26 2 52.5 3t49.5 1h142l-10 -75h-234v-235h332l-10 -76h-329q-20 0 -40 0.5t-39 1.5v674q19 1 39 1.5t40 0.5h339zM240 856q5 -5 11.5 -13t13.5 -17t13 -17t10 -14q4 6 10 14t13 17t13.5 17t11.5 13h96q-31 -33 -59.5 -68t-43.5 -56h-82
q-15 21 -43.5 56t-59.5 68h96z" />
    <glyph glyph-name="Edieresis" unicode="&#xcb;" horiz-adv-x="516" 
d="M496 678l-10 -75h-322v-221q26 2 52.5 3t49.5 1h142l-10 -75h-234v-235h332l-10 -76h-329q-20 0 -40 0.5t-39 1.5v674q19 1 39 1.5t40 0.5h339zM158 801q0 29 13.5 41t39.5 12t39.5 -12t13.5 -41v-3q0 -29 -13.5 -41t-39.5 -12t-39.5 12t-13.5 41v3zM312 801
q0 29 13.5 41t39.5 12t39.5 -12t13.5 -41v-3q0 -29 -13.5 -41t-39.5 -12t-39.5 12t-13.5 41v3z" />
    <glyph glyph-name="Emacron" unicode="&#x112;" horiz-adv-x="516" 
d="M496 678l-10 -75h-322v-221q26 2 52.5 3t49.5 1h142l-10 -75h-234v-235h332l-10 -76h-329q-20 0 -40 0.5t-39 1.5v674q19 1 39 1.5t40 0.5h339zM423 813v-70h-271v70h271z" />
    <glyph glyph-name="Ebreve" unicode="&#x114;" horiz-adv-x="516" 
d="M496 678l-10 -75h-322v-221q26 2 52.5 3t49.5 1h142l-10 -75h-234v-235h332l-10 -76h-329q-20 0 -40 0.5t-39 1.5v674q19 1 39 1.5t40 0.5h339zM234 844q5 -23 18.5 -34t33.5 -11h4q20 0 33.5 11t18.5 34h71q-5 -51 -37.5 -81t-83.5 -30h-8q-51 0 -83.5 30t-37.5 81h71z
" />
    <glyph glyph-name="Edotaccent" unicode="&#x116;" horiz-adv-x="516" 
d="M496 678l-10 -75h-322v-221q26 2 52.5 3t49.5 1h142l-10 -75h-234v-235h332l-10 -76h-329q-20 0 -40 0.5t-39 1.5v674q19 1 39 1.5t40 0.5h339zM233 807q0 29 14.5 41t39.5 12t39.5 -12t14.5 -41v-7q0 -29 -14.5 -41t-39.5 -12t-39.5 12t-14.5 41v7z" />
    <glyph glyph-name="Eogonek" unicode="&#x118;" horiz-adv-x="516" 
d="M496 678l-10 -75h-322v-221q26 2 52.5 3t49.5 1h142l-10 -75h-234v-235h332l-9 -67q-43 -18 -63.5 -43.5t-20.5 -45.5q0 -33 35 -33q24 0 57 13l17 -56q-46 -20 -86 -20q-48 0 -73 25q-22 22 -22 61q0 24 13.5 47t42.5 43h-230q-20 0 -40 0.5t-39 1.5v674q19 1 39 1.5
t40 0.5h339z" />
    <glyph glyph-name="Gcircumflex" unicode="&#x11c;" horiz-adv-x="642" 
d="M56 354q0 165 79 249.5t228 84.5q63 0 114 -14.5t88 -39.5l-27 -63q-38 20 -82.5 30t-88.5 10q-113 0 -168 -63t-55 -199v-14q0 -74 13 -125t40 -83t68 -46.5t97 -14.5q32 0 65 3t69 10v215l-137 -3l-6 76h140q23 0 46 -0.5t41 -1.5v-346q-47 -13 -104.5 -21t-117.5 -8
q-72 0 -124.5 17.5t-89.5 52.5q-45 43 -66.5 110.5t-21.5 159.5v24zM402 862q15 -22 43.5 -57.5t59.5 -69.5h-96q-5 5 -11.5 13.5t-13.5 17.5t-13 17t-10 14q-4 -6 -10 -14t-13 -17t-13.5 -17.5t-11.5 -13.5h-96q31 34 59.5 69.5t43.5 57.5h82z" />
    <glyph glyph-name="Gbreve" unicode="&#x11e;" horiz-adv-x="642" 
d="M56 354q0 165 79 249.5t228 84.5q63 0 114 -14.5t88 -39.5l-27 -63q-38 20 -82.5 30t-88.5 10q-113 0 -168 -63t-55 -199v-14q0 -74 13 -125t40 -83t68 -46.5t97 -14.5q32 0 65 3t69 10v215l-137 -3l-6 76h140q23 0 46 -0.5t41 -1.5v-346q-47 -13 -104.5 -21t-117.5 -8
q-72 0 -124.5 17.5t-89.5 52.5q-45 43 -66.5 110.5t-21.5 159.5v24zM307 844q5 -23 18.5 -34t33.5 -11h4q20 0 33.5 11t18.5 34h71q-5 -51 -37.5 -81t-83.5 -30h-8q-51 0 -83.5 30t-37.5 81h71z" />
    <glyph glyph-name="Gdotaccent" unicode="&#x120;" horiz-adv-x="642" 
d="M56 354q0 165 79 249.5t228 84.5q63 0 114 -14.5t88 -39.5l-27 -63q-38 20 -82.5 30t-88.5 10q-113 0 -168 -63t-55 -199v-14q0 -74 13 -125t40 -83t68 -46.5t97 -14.5q32 0 65 3t69 10v215l-137 -3l-6 76h140q23 0 46 -0.5t41 -1.5v-346q-47 -13 -104.5 -21t-117.5 -8
q-72 0 -124.5 17.5t-89.5 52.5q-45 43 -66.5 110.5t-21.5 159.5v24zM306 807q0 29 14.5 41t39.5 12t39.5 -12t14.5 -41v-7q0 -29 -14.5 -41t-39.5 -12t-39.5 12t-14.5 41v7z" />
    <glyph glyph-name="Gcommaaccent" unicode="&#x122;" horiz-adv-x="642" 
d="M56 354q0 165 79 249.5t228 84.5q63 0 114 -14.5t88 -39.5l-27 -63q-38 20 -82.5 30t-88.5 10q-113 0 -168 -63t-55 -199v-14q0 -74 13 -125t40 -83t68 -46.5t97 -14.5q32 0 65 3t69 10v215l-137 -3l-6 76h140q23 0 46 -0.5t41 -1.5v-346q-47 -13 -104.5 -21t-117.5 -8
q-72 0 -124.5 17.5t-89.5 52.5q-45 43 -66.5 110.5t-21.5 159.5v24zM424 -74q-10 -42 -25.5 -90t-35.5 -89l-65 13q12 37 21.5 81t14.5 85h90z" />
    <glyph glyph-name="Hcircumflex" unicode="&#x124;" horiz-adv-x="656" 
d="M164 678v-297h328v297h86v-678h-86v306h-328v-306h-86v678h86zM369 862q15 -22 43.5 -57.5t59.5 -69.5h-96q-5 5 -11.5 13.5t-13.5 17.5t-13 17t-10 14q-4 -6 -10 -14t-13 -17t-13.5 -17.5t-11.5 -13.5h-96q31 34 59.5 69.5t43.5 57.5h82z" />
    <glyph glyph-name="Hbar" unicode="&#x126;" horiz-adv-x="656" 
d="M164 678v-120h328v120h86v-120h72l-8 -67h-64v-491h-86v306h-328v-306h-86v491h-64v67h64v120h86zM164 381h328v110h-328v-110z" />
    <glyph glyph-name="Igrave" unicode="&#xcc;" horiz-adv-x="248" 
d="M167 678v-678h-86v678h86zM86 884q10 -15 23 -33t27.5 -37t29.5 -38t29 -35h-88q-14 14 -31.5 32t-35.5 37.5t-35.5 38.5t-30.5 35h112z" />
    <glyph glyph-name="Iacute" unicode="&#xcd;" horiz-adv-x="248" 
d="M167 678v-678h-86v678h86zM275 884q-14 -16 -31 -35t-35 -38.5t-35.5 -37.5t-31.5 -32h-88q14 16 29 35t29.5 38t27.5 37t23 33h112z" />
    <glyph glyph-name="Icircumflex" unicode="&#xce;" horiz-adv-x="248" 
d="M167 678v-678h-86v678h86zM166 862q15 -22 43.5 -57.5t59.5 -69.5h-96q-5 5 -11.5 13.5t-13.5 17.5t-13 17t-10 14q-4 -6 -10 -14t-13 -17t-13.5 -17.5t-11.5 -13.5h-96q31 34 59.5 69.5t43.5 57.5h82z" />
    <glyph glyph-name="Itilde" unicode="&#x128;" horiz-adv-x="248" 
d="M167 678v-678h-86v678h86zM-31 755q12 51 38 75t59 24t66 -21l26 -16q19 -12 31 -12q21 0 36 46l57 -19q-9 -48 -32.5 -73.5t-57.5 -25.5q-19 0 -36 7t-34 16l-20 11q-19 11 -25 13.5t-11 2.5q-11 0 -20.5 -12.5t-17.5 -33.5z" />
    <glyph glyph-name="Idieresis" unicode="&#xcf;" horiz-adv-x="248" 
d="M167 678v-678h-86v678h86zM-5 801q0 29 13.5 41t39.5 12t39.5 -12t13.5 -41v-3q0 -29 -13.5 -41t-39.5 -12t-39.5 12t-13.5 41v3zM149 801q0 29 13.5 41t39.5 12t39.5 -12t13.5 -41v-3q0 -29 -13.5 -41t-39.5 -12t-39.5 12t-13.5 41v3z" />
    <glyph glyph-name="Imacron" unicode="&#x12a;" horiz-adv-x="248" 
d="M167 678v-678h-86v678h86zM261 813v-70h-271v70h271z" />
    <glyph glyph-name="Ibreve" unicode="&#x12c;" horiz-adv-x="248" 
d="M167 678v-678h-86v678h86zM71 844q5 -23 18.5 -34t33.5 -11h4q20 0 33.5 11t18.5 34h71q-5 -51 -37.5 -81t-83.5 -30h-8q-51 0 -83.5 30t-37.5 81h71z" />
    <glyph glyph-name="Idotaccent" unicode="&#x130;" horiz-adv-x="248" 
d="M167 678v-678h-86v678h86zM71 807q0 29 14.5 41t39.5 12t39.5 -12t14.5 -41v-7q0 -29 -14.5 -41t-39.5 -12t-39.5 12t-14.5 41v7z" />
    <glyph glyph-name="Iogonek" unicode="&#x12e;" horiz-adv-x="248" 
d="M167 678v-678q-34 -12 -51 -36t-17 -44q0 -33 35 -33q24 0 57 13l17 -56q-46 -20 -86 -20q-48 0 -73 25q-22 22 -22 61q0 28 13.5 55.5t40.5 46.5v666h86z" />
    <glyph glyph-name="IJ" unicode="&#x132;" horiz-adv-x="675" 
d="M167 678v-678h-86v678h86zM605 678v-449q0 -29 -0.5 -52.5t-3 -43.5t-8 -37.5t-16.5 -34.5q-26 -38 -64.5 -54.5t-87.5 -16.5q-32 0 -64 5.5t-65 16.5l17 67q31 -7 57 -10t47 -3q47 0 71 21q18 16 24.5 46.5t6.5 84.5v385h-185l-5 75h276z" />
    <glyph glyph-name="Jcircumflex" unicode="&#x134;" horiz-adv-x="427" 
d="M357 678v-449q0 -29 -0.5 -52.5t-3 -43.5t-8 -37.5t-16.5 -34.5q-26 -38 -64.5 -54.5t-87.5 -16.5q-32 0 -64 5.5t-65 16.5l17 67q31 -7 57 -10t47 -3q47 0 71 21q18 16 24.5 46.5t6.5 84.5v385h-185l-5 75h276zM262 862q15 -22 43.5 -57.5t59.5 -69.5h-96
q-5 5 -11.5 13.5t-13.5 17.5t-13 17t-10 14q-4 -6 -10 -14t-13 -17t-13.5 -17.5t-11.5 -13.5h-96q31 34 59.5 69.5t43.5 57.5h82z" />
    <glyph glyph-name="Kcommaaccent" unicode="&#x136;" horiz-adv-x="576" 
d="M162 678v-367l21 17q36 30 71 63.5t69.5 75t69.5 93.5t72 118h87q-49 -99 -100.5 -172t-111.5 -136q23 -34 46.5 -70t49 -79.5t55 -97.5t65.5 -123h-104q-22 45 -45.5 90t-46 86.5t-43.5 76.5t-37 59q-16 -14 -32.5 -28t-33.5 -28l-52 -42v-214h-86v678h86zM351 -74
q-10 -42 -25.5 -90t-35.5 -89l-65 13q12 37 21.5 81t14.5 85h90z" />
    <glyph glyph-name="Lacute" unicode="&#x139;" horiz-adv-x="499" 
d="M162 678v-602h313l-10 -76h-310q-20 0 -40 0.5t-39 1.5v676h86zM290 884q-14 -16 -31 -35t-35 -38.5t-35.5 -37.5t-31.5 -32h-88q14 16 29 35t29.5 38t27.5 37t23 33h112z" />
    <glyph glyph-name="Lcaron" unicode="&#x13d;" horiz-adv-x="499" 
d="M162 678v-602h313l-10 -76h-310q-20 0 -40 0.5t-39 1.5v676h86zM374 719q-10 -42 -25.5 -90t-35.5 -89l-65 13q12 37 21.5 81t14.5 85h90z" />
    <glyph glyph-name="Lcommaaccent" unicode="&#x13b;" horiz-adv-x="499" 
d="M162 678v-602h313l-10 -76h-310q-20 0 -40 0.5t-39 1.5v676h86zM312 -74q-10 -42 -25.5 -90t-35.5 -89l-65 13q12 37 21.5 81t14.5 85h90z" />
    <glyph glyph-name="Lslash" unicode="&#x141;" horiz-adv-x="499" 
d="M161 678v-271l145 55l24 -67l-169 -65v-254h313l-10 -76h-310q-20 0 -40 0.5t-39 1.5v296l-81 -31l-24 67l105 40v304h86z" />
    <glyph glyph-name="Ldot" unicode="&#x13f;" horiz-adv-x="499" 
d="M162 678v-602h313l-10 -76h-310q-20 0 -40 0.5t-39 1.5v676h86zM303 382q0 29 14.5 41t39.5 12t39.5 -12t14.5 -41v-7q0 -29 -14.5 -41t-39.5 -12t-39.5 12t-14.5 41v7z" />
    <glyph glyph-name="Nacute" unicode="&#x143;" horiz-adv-x="673" 
d="M182 678l331 -554v554h82v-684h-90l-345 570v-564h-82v678h104zM466 884q-14 -16 -31 -35t-35 -38.5t-35.5 -37.5t-31.5 -32h-88q14 16 29 35t29.5 38t27.5 37t23 33h112z" />
    <glyph glyph-name="Ncaron" unicode="&#x147;" horiz-adv-x="673" 
d="M182 678l331 -554v554h82v-684h-90l-345 570v-564h-82v678h104zM288 856q5 -5 11.5 -13t13.5 -17t13 -17t10 -14q4 6 10 14t13 17t13.5 17t11.5 13h96q-31 -33 -59.5 -68t-43.5 -56h-82q-15 21 -43.5 56t-59.5 68h96z" />
    <glyph glyph-name="Ntilde" unicode="&#xd1;" horiz-adv-x="673" 
d="M182 678l331 -554v554h82v-684h-90l-345 570v-564h-82v678h104zM180 755q12 51 38 75t59 24t66 -21l26 -16q19 -12 31 -12q21 0 36 46l57 -19q-9 -48 -32.5 -73.5t-57.5 -25.5q-19 0 -36 7t-34 16l-20 11q-19 11 -25 13.5t-11 2.5q-11 0 -20.5 -12.5t-17.5 -33.5z" />
    <glyph glyph-name="Ncommaaccent" unicode="&#x145;" horiz-adv-x="673" 
d="M182 678l331 -554v554h82v-684h-90l-345 570v-564h-82v678h104zM389 -74q-10 -42 -25.5 -90t-35.5 -89l-65 13q12 37 21.5 81t14.5 85h90z" />
    <glyph glyph-name="Eng" unicode="&#x14a;" horiz-adv-x="673" 
d="M182 678l331 -538v538h82v-669q0 -40 -5.5 -69t-20.5 -49q-16 -21 -42 -32.5t-65 -11.5h-4q-14 0 -37 3t-46 11l11 73q23 -5 42 -7.5t31 -2.5h5q49 0 49 64v9l-353 567v-564h-82v678h104z" />
    <glyph glyph-name="Ograve" unicode="&#xd2;" horiz-adv-x="664" 
d="M144 323q0 -140 59 -205q46 -51 129 -51q82 0 129 51q59 65 59 205v32q0 72 -15 122.5t-44 82.5q-47 51 -129 51q-83 0 -129 -51q-29 -32 -44 -82.5t-15 -122.5v-32zM56 360q0 77 19 141.5t61 109.5q34 36 82 56.5t114 20.5t114 -20.5t82 -56.5q42 -45 61 -109.5
t19 -141.5v-42q0 -77 -19 -141.5t-61 -109.5q-34 -36 -82 -56.5t-114 -20.5t-114 20.5t-82 56.5q-42 45 -61 109.5t-19 141.5v42zM333 884q10 -15 23 -33t27.5 -37t29.5 -38t29 -35h-88q-14 14 -31.5 32t-35.5 37.5t-35.5 38.5t-30.5 35h112z" />
    <glyph glyph-name="Oacute" unicode="&#xd3;" horiz-adv-x="664" 
d="M144 323q0 -140 59 -205q46 -51 129 -51q82 0 129 51q59 65 59 205v32q0 72 -15 122.5t-44 82.5q-47 51 -129 51q-83 0 -129 -51q-29 -32 -44 -82.5t-15 -122.5v-32zM56 360q0 77 19 141.5t61 109.5q34 36 82 56.5t114 20.5t114 -20.5t82 -56.5q42 -45 61 -109.5
t19 -141.5v-42q0 -77 -19 -141.5t-61 -109.5q-34 -36 -82 -56.5t-114 -20.5t-114 20.5t-82 56.5q-42 45 -61 109.5t-19 141.5v42zM462 884q-14 -16 -31 -35t-35 -38.5t-35.5 -37.5t-31.5 -32h-88q14 16 29 35t29.5 38t27.5 37t23 33h112z" />
    <glyph glyph-name="Ocircumflex" unicode="&#xd4;" horiz-adv-x="664" 
d="M144 323q0 -140 59 -205q46 -51 129 -51q82 0 129 51q59 65 59 205v32q0 72 -15 122.5t-44 82.5q-47 51 -129 51q-83 0 -129 -51q-29 -32 -44 -82.5t-15 -122.5v-32zM56 360q0 77 19 141.5t61 109.5q34 36 82 56.5t114 20.5t114 -20.5t82 -56.5q42 -45 61 -109.5
t19 -141.5v-42q0 -77 -19 -141.5t-61 -109.5q-34 -36 -82 -56.5t-114 -20.5t-114 20.5t-82 56.5q-42 45 -61 109.5t-19 141.5v42zM373 862q15 -22 43.5 -57.5t59.5 -69.5h-96q-5 5 -11.5 13.5t-13.5 17.5t-13 17t-10 14q-4 -6 -10 -14t-13 -17t-13.5 -17.5t-11.5 -13.5h-96
q31 34 59.5 69.5t43.5 57.5h82z" />
    <glyph glyph-name="Otilde" unicode="&#xd5;" horiz-adv-x="664" 
d="M144 323q0 -140 59 -205q46 -51 129 -51q82 0 129 51q59 65 59 205v32q0 72 -15 122.5t-44 82.5q-47 51 -129 51q-83 0 -129 -51q-29 -32 -44 -82.5t-15 -122.5v-32zM56 360q0 77 19 141.5t61 109.5q34 36 82 56.5t114 20.5t114 -20.5t82 -56.5q42 -45 61 -109.5
t19 -141.5v-42q0 -77 -19 -141.5t-61 -109.5q-34 -36 -82 -56.5t-114 -20.5t-114 20.5t-82 56.5q-42 45 -61 109.5t-19 141.5v42zM176 755q12 51 38 75t59 24t66 -21l26 -16q19 -12 31 -12q21 0 36 46l57 -19q-9 -48 -32.5 -73.5t-57.5 -25.5q-19 0 -36 7t-34 16l-20 11
q-19 11 -25 13.5t-11 2.5q-11 0 -20.5 -12.5t-17.5 -33.5z" />
    <glyph glyph-name="Odieresis" unicode="&#xd6;" horiz-adv-x="664" 
d="M144 323q0 -140 59 -205q46 -51 129 -51q82 0 129 51q59 65 59 205v32q0 72 -15 122.5t-44 82.5q-47 51 -129 51q-83 0 -129 -51q-29 -32 -44 -82.5t-15 -122.5v-32zM56 360q0 77 19 141.5t61 109.5q34 36 82 56.5t114 20.5t114 -20.5t82 -56.5q42 -45 61 -109.5
t19 -141.5v-42q0 -77 -19 -141.5t-61 -109.5q-34 -36 -82 -56.5t-114 -20.5t-114 20.5t-82 56.5q-42 45 -61 109.5t-19 141.5v42zM202 801q0 29 13.5 41t39.5 12t39.5 -12t13.5 -41v-3q0 -29 -13.5 -41t-39.5 -12t-39.5 12t-13.5 41v3zM356 801q0 29 13.5 41t39.5 12
t39.5 -12t13.5 -41v-3q0 -29 -13.5 -41t-39.5 -12t-39.5 12t-13.5 41v3z" />
    <glyph glyph-name="Omacron" unicode="&#x14c;" horiz-adv-x="664" 
d="M144 323q0 -140 59 -205q46 -51 129 -51q82 0 129 51q59 65 59 205v32q0 72 -15 122.5t-44 82.5q-47 51 -129 51q-83 0 -129 -51q-29 -32 -44 -82.5t-15 -122.5v-32zM56 360q0 77 19 141.5t61 109.5q34 36 82 56.5t114 20.5t114 -20.5t82 -56.5q42 -45 61 -109.5
t19 -141.5v-42q0 -77 -19 -141.5t-61 -109.5q-34 -36 -82 -56.5t-114 -20.5t-114 20.5t-82 56.5q-42 45 -61 109.5t-19 141.5v42zM468 813v-70h-271v70h271z" />
    <glyph glyph-name="Obreve" unicode="&#x14e;" horiz-adv-x="664" 
d="M144 323q0 -140 59 -205q46 -51 129 -51q82 0 129 51q59 65 59 205v32q0 72 -15 122.5t-44 82.5q-47 51 -129 51q-83 0 -129 -51q-29 -32 -44 -82.5t-15 -122.5v-32zM56 360q0 77 19 141.5t61 109.5q34 36 82 56.5t114 20.5t114 -20.5t82 -56.5q42 -45 61 -109.5
t19 -141.5v-42q0 -77 -19 -141.5t-61 -109.5q-34 -36 -82 -56.5t-114 -20.5t-114 20.5t-82 56.5q-42 45 -61 109.5t-19 141.5v42zM278 844q5 -23 18.5 -34t33.5 -11h4q20 0 33.5 11t18.5 34h71q-5 -51 -37.5 -81t-83.5 -30h-8q-51 0 -83.5 30t-37.5 81h71z" />
    <glyph glyph-name="Ohungarumlaut" unicode="&#x150;" horiz-adv-x="664" 
d="M144 323q0 -140 59 -205q46 -51 129 -51q82 0 129 51q59 65 59 205v32q0 72 -15 122.5t-44 82.5q-47 51 -129 51q-83 0 -129 -51q-29 -32 -44 -82.5t-15 -122.5v-32zM56 360q0 77 19 141.5t61 109.5q34 36 82 56.5t114 20.5t114 -20.5t82 -56.5q42 -45 61 -109.5
t19 -141.5v-42q0 -77 -19 -141.5t-61 -109.5q-34 -36 -82 -56.5t-114 -20.5t-114 20.5t-82 56.5q-42 45 -61 109.5t-19 141.5v42zM395 867q-8 -12 -22.5 -30t-31 -37.5t-33 -37.5t-28.5 -30h-84q13 18 27.5 37.5t27 38t22.5 34t16 25.5h106zM550 867q-8 -12 -22.5 -30
t-31 -37.5t-33 -37.5t-28.5 -30h-84q13 18 27.5 37.5t27 38t22.5 34t16 25.5h106z" />
    <glyph glyph-name="Oslash" unicode="&#xd8;" horiz-adv-x="664" 
d="M56 360q0 77 19 141.5t61 109.5q34 36 82 56.5t114 20.5q48 0 86.5 -11.5t68.5 -31.5l40 61l58 -41l-45 -69q35 -45 51.5 -105t16.5 -131v-42q0 -77 -19 -141.5t-61 -109.5q-34 -36 -82 -56.5t-114 -20.5q-50 0 -89.5 11.5t-70.5 33.5l-42 -65l-58 41l49 74
q-34 45 -49.5 104.5t-15.5 128.5v42zM217 104q44 -37 115 -37q82 0 129 51q59 65 59 205v32q0 51 -8 91.5t-23 71.5zM144 323q0 -97 28 -159l270 413q-45 34 -110 34q-83 0 -129 -51q-29 -32 -44 -82.5t-15 -122.5v-32z" />
    <glyph glyph-name="Oslashacute" unicode="&#x1fe;" horiz-adv-x="664" 
d="M56 360q0 77 19 141.5t61 109.5q34 36 82 56.5t114 20.5q48 0 86.5 -11.5t68.5 -31.5l40 61l58 -41l-45 -69q35 -45 51.5 -105t16.5 -131v-42q0 -77 -19 -141.5t-61 -109.5q-34 -36 -82 -56.5t-114 -20.5q-50 0 -89.5 11.5t-70.5 33.5l-42 -65l-58 41l49 74
q-34 45 -49.5 104.5t-15.5 128.5v42zM217 104q44 -37 115 -37q82 0 129 51q59 65 59 205v32q0 51 -8 91.5t-23 71.5zM144 323q0 -97 28 -159l270 413q-45 34 -110 34q-83 0 -129 -51q-29 -32 -44 -82.5t-15 -122.5v-32z" />
    <glyph glyph-name="OE" unicode="&#x152;" horiz-adv-x="910" 
d="M56 360q0 77 19 141.5t61 109.5q34 36 82 56.5t114 20.5q42 0 76.5 -8.5t63.5 -24.5v23h418l-10 -75h-322v-221q26 2 52.5 3t49.5 1h142l-10 -75h-234v-235h332l-10 -76h-408v23q-29 -16 -63.5 -24.5t-76.5 -8.5q-66 0 -114 20.5t-82 56.5q-42 45 -61 109.5t-19 141.5v42
zM144 323q0 -140 59 -205q46 -51 129 -51q42 0 79.5 10.5t60.5 29.5v464q-23 18 -60.5 29t-79.5 11q-83 0 -129 -51q-29 -32 -44 -82.5t-15 -122.5v-32z" />
    <glyph glyph-name="Thorn" unicode="&#xde;" horiz-adv-x="556" 
d="M164 211h129q70 0 108.5 33.5t38.5 112.5v13q0 58 -31 92q-38 41 -121 41h-124v-292zM164 678v-100h124q116 0 176 -51q31 -26 46.5 -66.5t15.5 -87.5v-14q0 -49 -15 -91.5t-47 -74.5q-29 -27 -72.5 -42t-107.5 -15h-120v-136h-86v678h86z" />
    <glyph glyph-name="Racute" unicode="&#x154;" horiz-adv-x="570" 
d="M164 342h180q35 16 54.5 49t19.5 82v9q0 59 -30 88q-34 33 -124 33h-100v-261zM262 678q59 0 104.5 -10t75.5 -33q63 -48 63 -151v-13q0 -61 -27.5 -109.5t-82.5 -76.5q32 -46 72.5 -120t82.5 -165h-95q-18 42 -37.5 82t-39 75.5t-37.5 64t-33 47.5h-144v-269h-86v676
q19 1 39 1.5t40 0.5h105zM394 884q-14 -16 -31 -35t-35 -38.5t-35.5 -37.5t-31.5 -32h-88q14 16 29 35t29.5 38t27.5 37t23 33h112z" />
    <glyph glyph-name="Rcaron" unicode="&#x158;" horiz-adv-x="570" 
d="M164 342h180q35 16 54.5 49t19.5 82v9q0 59 -30 88q-34 33 -124 33h-100v-261zM262 678q59 0 104.5 -10t75.5 -33q63 -48 63 -151v-13q0 -61 -27.5 -109.5t-82.5 -76.5q32 -46 72.5 -120t82.5 -165h-95q-18 42 -37.5 82t-39 75.5t-37.5 64t-33 47.5h-144v-269h-86v676
q19 1 39 1.5t40 0.5h105zM237 856q5 -5 11.5 -13t13.5 -17t13 -17t10 -14q4 6 10 14t13 17t13.5 17t11.5 13h96q-31 -33 -59.5 -68t-43.5 -56h-82q-15 21 -43.5 56t-59.5 68h96z" />
    <glyph glyph-name="Rcommaaccent" unicode="&#x156;" horiz-adv-x="570" 
d="M164 342h180q35 16 54.5 49t19.5 82v9q0 59 -30 88q-34 33 -124 33h-100v-261zM262 678q59 0 104.5 -10t75.5 -33q63 -48 63 -151v-13q0 -61 -27.5 -109.5t-82.5 -76.5q32 -46 72.5 -120t82.5 -165h-95q-18 42 -37.5 82t-39 75.5t-37.5 64t-33 47.5h-144v-269h-86v676
q19 1 39 1.5t40 0.5h105zM348 -74q-10 -42 -25.5 -90t-35.5 -89l-65 13q12 37 21.5 81t14.5 85h90z" />
    <glyph glyph-name="Sacute" unicode="&#x15a;" horiz-adv-x="518" 
d="M424 570q-38 21 -77 31t-75 10q-77 0 -109 -29t-32 -71q0 -39 25.5 -66.5t85.5 -47.5l52 -18q49 -17 82 -33.5t54 -37.5q23 -23 32.5 -51.5t9.5 -71.5q0 -88 -54 -141.5t-164 -53.5q-50 0 -108 14.5t-112 44.5l25 69q46 -24 96 -36.5t96 -12.5q76 0 106 32t30 83
q0 20 -5 37t-15 28q-14 16 -39.5 28.5t-70.5 28.5l-49 17q-47 16 -78.5 35.5t-50.5 42.5t-27 49.5t-8 55.5q0 84 57 133t163 49q50 0 98.5 -12.5t93.5 -38.5zM385 884q-14 -16 -31 -35t-35 -38.5t-35.5 -37.5t-31.5 -32h-88q14 16 29 35t29.5 38t27.5 37t23 33h112z" />
    <glyph glyph-name="Scircumflex" unicode="&#x15c;" horiz-adv-x="518" 
d="M424 570q-38 21 -77 31t-75 10q-77 0 -109 -29t-32 -71q0 -39 25.5 -66.5t85.5 -47.5l52 -18q49 -17 82 -33.5t54 -37.5q23 -23 32.5 -51.5t9.5 -71.5q0 -88 -54 -141.5t-164 -53.5q-50 0 -108 14.5t-112 44.5l25 69q46 -24 96 -36.5t96 -12.5q76 0 106 32t30 83
q0 20 -5 37t-15 28q-14 16 -39.5 28.5t-70.5 28.5l-49 17q-47 16 -78.5 35.5t-50.5 42.5t-27 49.5t-8 55.5q0 84 57 133t163 49q50 0 98.5 -12.5t93.5 -38.5zM297 862q15 -22 43.5 -57.5t59.5 -69.5h-96q-5 5 -11.5 13.5t-13.5 17.5t-13 17t-10 14q-4 -6 -10 -14t-13 -17
t-13.5 -17.5t-11.5 -13.5h-96q31 34 59.5 69.5t43.5 57.5h82z" />
    <glyph glyph-name="Scaron" unicode="&#x160;" horiz-adv-x="518" 
d="M424 570q-38 21 -77 31t-75 10q-77 0 -109 -29t-32 -71q0 -39 25.5 -66.5t85.5 -47.5l52 -18q49 -17 82 -33.5t54 -37.5q23 -23 32.5 -51.5t9.5 -71.5q0 -88 -54 -141.5t-164 -53.5q-50 0 -108 14.5t-112 44.5l25 69q46 -24 96 -36.5t96 -12.5q76 0 106 32t30 83
q0 20 -5 37t-15 28q-14 16 -39.5 28.5t-70.5 28.5l-49 17q-47 16 -78.5 35.5t-50.5 42.5t-27 49.5t-8 55.5q0 84 57 133t163 49q50 0 98.5 -12.5t93.5 -38.5zM208 856q5 -5 11.5 -13t13.5 -17t13 -17t10 -14q4 6 10 14t13 17t13.5 17t11.5 13h96q-31 -33 -59.5 -68
t-43.5 -56h-82q-15 21 -43.5 56t-59.5 68h96z" />
    <glyph glyph-name="Scedilla" unicode="&#x15e;" horiz-adv-x="518" 
d="M424 570q-38 21 -77 31t-75 10q-77 0 -109 -29t-32 -71q0 -39 25.5 -66.5t85.5 -47.5l52 -18q49 -17 82 -33.5t54 -37.5q23 -23 32.5 -51.5t9.5 -71.5q0 -87 -53.5 -140.5t-161.5 -54.5l-11 -37q15 4 32 4q38 0 64 -20.5t26 -63.5v-4q0 -44 -30 -68t-83 -24
q-23 0 -51.5 7t-58.5 21l18 57q52 -22 92 -22q24 0 33 7.5t9 19.5v2q0 12 -9.5 19t-34.5 7q-11 0 -27 -1.5t-29 -4.5l-27 22l27 83q-40 5 -82.5 19t-80.5 36l25 69q46 -24 96 -36.5t96 -12.5q76 0 106 32t30 83q0 20 -5 37t-15 28q-14 16 -39.5 28.5t-70.5 28.5l-49 17
q-47 16 -78.5 35.5t-50.5 42.5t-27 49.5t-8 55.5q0 84 57 133t163 49q50 0 98.5 -12.5t93.5 -38.5z" />
    <glyph glyph-name="Scommaaccent" unicode="&#x218;" horiz-adv-x="518" 
d="M424 570q-38 21 -77 31t-75 10q-77 0 -109 -29t-32 -71q0 -39 25.5 -66.5t85.5 -47.5l52 -18q49 -17 82 -33.5t54 -37.5q23 -23 32.5 -51.5t9.5 -71.5q0 -88 -54 -141.5t-164 -53.5q-50 0 -108 14.5t-112 44.5l25 69q46 -24 96 -36.5t96 -12.5q76 0 106 32t30 83
q0 20 -5 37t-15 28q-14 16 -39.5 28.5t-70.5 28.5l-49 17q-47 16 -78.5 35.5t-50.5 42.5t-27 49.5t-8 55.5q0 84 57 133t163 49q50 0 98.5 -12.5t93.5 -38.5zM319 -74q-10 -42 -25.5 -90t-35.5 -89l-65 13q12 37 21.5 81t14.5 85h90z" />
    <glyph glyph-name="Tcaron" unicode="&#x164;" horiz-adv-x="545" 
d="M537 678l-10 -75h-216v-603h-86v603h-213v75h525zM224 856q5 -5 11.5 -13t13.5 -17t13 -17t10 -14q4 6 10 14t13 17t13.5 17t11.5 13h96q-31 -33 -59.5 -68t-43.5 -56h-82q-15 21 -43.5 56t-59.5 68h96z" />
    <glyph glyph-name="Tcommaaccent" unicode="&#x162;" horiz-adv-x="545" 
d="M537 678l-10 -75h-216v-603h-86v603h-213v75h525zM325 -74q-10 -42 -25.5 -90t-35.5 -89l-65 13q12 37 21.5 81t14.5 85h90z" />
    <glyph glyph-name="uni021A" unicode="&#x21a;" horiz-adv-x="545" 
d="M537 678l-10 -75h-216v-603h-86v603h-213v75h525zM325 -74q-10 -42 -25.5 -90t-35.5 -89l-65 13q12 37 21.5 81t14.5 85h90z" />
    <glyph glyph-name="Tbar" unicode="&#x166;" horiz-adv-x="545" 
d="M537 678l-10 -75h-216v-242h153l-9 -75h-144v-286h-86v286h-133v75h133v242h-213v75h525z" />
    <glyph glyph-name="Ugrave" unicode="&#xd9;" horiz-adv-x="638" 
d="M160 678v-433q0 -36 5 -71t23 -59q19 -24 52.5 -35.5t76.5 -11.5h4q43 0 76.5 11.5t52.5 35.5q18 24 23 59t5 71v433h86v-362q0 -45 -0.5 -82t-4.5 -68.5t-13 -56.5t-27 -46q-31 -36 -78 -54t-118 -19h-8q-71 1 -118 19t-78 54q-18 21 -27 46t-13 56.5t-4.5 68.5t-0.5 82
v362h86zM289 884q10 -15 23 -33t27.5 -37t29.5 -38t29 -35h-88q-14 14 -31.5 32t-35.5 37.5t-35.5 38.5t-30.5 35h112z" />
    <glyph glyph-name="Uacute" unicode="&#xda;" horiz-adv-x="638" 
d="M160 678v-433q0 -36 5 -71t23 -59q19 -24 52.5 -35.5t76.5 -11.5h4q43 0 76.5 11.5t52.5 35.5q18 24 23 59t5 71v433h86v-362q0 -45 -0.5 -82t-4.5 -68.5t-13 -56.5t-27 -46q-31 -36 -78 -54t-118 -19h-8q-71 1 -118 19t-78 54q-18 21 -27 46t-13 56.5t-4.5 68.5t-0.5 82
v362h86zM458 884q-14 -16 -31 -35t-35 -38.5t-35.5 -37.5t-31.5 -32h-88q14 16 29 35t29.5 38t27.5 37t23 33h112z" />
    <glyph glyph-name="Ucircumflex" unicode="&#xdb;" horiz-adv-x="638" 
d="M160 678v-433q0 -36 5 -71t23 -59q19 -24 52.5 -35.5t76.5 -11.5h4q43 0 76.5 11.5t52.5 35.5q18 24 23 59t5 71v433h86v-362q0 -45 -0.5 -82t-4.5 -68.5t-13 -56.5t-27 -46q-31 -36 -78 -54t-118 -19h-8q-71 1 -118 19t-78 54q-18 21 -27 46t-13 56.5t-4.5 68.5t-0.5 82
v362h86zM360 862q15 -22 43.5 -57.5t59.5 -69.5h-96q-5 5 -11.5 13.5t-13.5 17.5t-13 17t-10 14q-4 -6 -10 -14t-13 -17t-13.5 -17.5t-11.5 -13.5h-96q31 34 59.5 69.5t43.5 57.5h82z" />
    <glyph glyph-name="Utilde" unicode="&#x168;" horiz-adv-x="638" 
d="M160 678v-433q0 -36 5 -71t23 -59q19 -24 52.5 -35.5t76.5 -11.5h4q43 0 76.5 11.5t52.5 35.5q18 24 23 59t5 71v433h86v-362q0 -45 -0.5 -82t-4.5 -68.5t-13 -56.5t-27 -46q-31 -36 -78 -54t-118 -19h-8q-71 1 -118 19t-78 54q-18 21 -27 46t-13 56.5t-4.5 68.5t-0.5 82
v362h86zM162 755q12 51 38 75t59 24t66 -21l26 -16q19 -12 31 -12q21 0 36 46l57 -19q-9 -48 -32.5 -73.5t-57.5 -25.5q-19 0 -36 7t-34 16l-20 11q-19 11 -25 13.5t-11 2.5q-11 0 -20.5 -12.5t-17.5 -33.5z" />
    <glyph glyph-name="Udieresis" unicode="&#xdc;" horiz-adv-x="638" 
d="M160 678v-433q0 -36 5 -71t23 -59q19 -24 52.5 -35.5t76.5 -11.5h4q43 0 76.5 11.5t52.5 35.5q18 24 23 59t5 71v433h86v-362q0 -45 -0.5 -82t-4.5 -68.5t-13 -56.5t-27 -46q-31 -36 -78 -54t-118 -19h-8q-71 1 -118 19t-78 54q-18 21 -27 46t-13 56.5t-4.5 68.5t-0.5 82
v362h86zM189 801q0 29 13.5 41t39.5 12t39.5 -12t13.5 -41v-3q0 -29 -13.5 -41t-39.5 -12t-39.5 12t-13.5 41v3zM343 801q0 29 13.5 41t39.5 12t39.5 -12t13.5 -41v-3q0 -29 -13.5 -41t-39.5 -12t-39.5 12t-13.5 41v3z" />
    <glyph glyph-name="Umacron" unicode="&#x16a;" horiz-adv-x="638" 
d="M160 678v-433q0 -36 5 -71t23 -59q19 -24 52.5 -35.5t76.5 -11.5h4q43 0 76.5 11.5t52.5 35.5q18 24 23 59t5 71v433h86v-362q0 -45 -0.5 -82t-4.5 -68.5t-13 -56.5t-27 -46q-31 -36 -78 -54t-118 -19h-8q-71 1 -118 19t-78 54q-18 21 -27 46t-13 56.5t-4.5 68.5t-0.5 82
v362h86zM454 813v-70h-271v70h271z" />
    <glyph glyph-name="Ubreve" unicode="&#x16c;" horiz-adv-x="638" 
d="M160 678v-433q0 -36 5 -71t23 -59q19 -24 52.5 -35.5t76.5 -11.5h4q43 0 76.5 11.5t52.5 35.5q18 24 23 59t5 71v433h86v-362q0 -45 -0.5 -82t-4.5 -68.5t-13 -56.5t-27 -46q-31 -36 -78 -54t-118 -19h-8q-71 1 -118 19t-78 54q-18 21 -27 46t-13 56.5t-4.5 68.5t-0.5 82
v362h86zM265 844q5 -23 18.5 -34t33.5 -11h4q20 0 33.5 11t18.5 34h71q-5 -51 -37.5 -81t-83.5 -30h-8q-51 0 -83.5 30t-37.5 81h71z" />
    <glyph glyph-name="Uring" unicode="&#x16e;" horiz-adv-x="638" 
d="M160 678v-433q0 -36 5 -71t23 -59q19 -24 52.5 -35.5t76.5 -11.5h4q43 0 76.5 11.5t52.5 35.5q18 24 23 59t5 71v433h86v-362q0 -45 -0.5 -82t-4.5 -68.5t-13 -56.5t-27 -46q-31 -36 -78 -54t-118 -19h-8q-71 1 -118 19t-78 54q-18 21 -27 46t-13 56.5t-4.5 68.5t-0.5 82
v362h86zM291 797q0 -28 28 -28t28 28t-28 28t-28 -28zM232 797q0 39 24.5 62.5t62.5 23.5t62.5 -23.5t24.5 -62.5t-24.5 -62.5t-62.5 -23.5t-62.5 23.5t-24.5 62.5z" />
    <glyph glyph-name="Uhungarumlaut" unicode="&#x170;" horiz-adv-x="638" 
d="M160 678v-433q0 -36 5 -71t23 -59q19 -24 52.5 -35.5t76.5 -11.5h4q43 0 76.5 11.5t52.5 35.5q18 24 23 59t5 71v433h86v-362q0 -45 -0.5 -82t-4.5 -68.5t-13 -56.5t-27 -46q-31 -36 -78 -54t-118 -19h-8q-71 1 -118 19t-78 54q-18 21 -27 46t-13 56.5t-4.5 68.5t-0.5 82
v362h86zM371 867q-8 -12 -22.5 -30t-31 -37.5t-33 -37.5t-28.5 -30h-84q13 18 27.5 37.5t27 38t22.5 34t16 25.5h106zM526 867q-8 -12 -22.5 -30t-31 -37.5t-33 -37.5t-28.5 -30h-84q13 18 27.5 37.5t27 38t22.5 34t16 25.5h106z" />
    <glyph glyph-name="Uogonek" unicode="&#x172;" horiz-adv-x="638" 
d="M160 678v-433q0 -36 5 -71t23 -59q19 -24 52.5 -35.5t76.5 -11.5h4q43 0 76.5 11.5t52.5 35.5q18 24 23 59t5 71v433h86v-362q0 -45 -0.5 -82.5t-4 -68.5t-13 -56.5t-27.5 -45.5q-14 -15 -31.5 -28t-30.5 -21q-39 -25 -55 -50t-16 -44q0 -33 35 -33q24 0 57 13l17 -56
q-46 -20 -86 -20q-48 0 -73 25q-22 22 -22 61q0 19 7.5 40t24.5 41q-5 -1 -11 -1h-12h-8q-71 1 -118 19t-78 54q-18 21 -27 46t-13 56.5t-4.5 68.5t-0.5 82v362h86z" />
    <glyph glyph-name="Wgrave" unicode="&#x1e80;" horiz-adv-x="897" 
d="M105 678q21 -96 41 -176.5t39.5 -150t38 -131t38.5 -118.5q10 34 23.5 89t30 125t34.5 152.5t37 171.5l3 14h105l3 -14q45 -180 82.5 -315t65.5 -223q19 58 37.5 119.5t36.5 131t36 149.5t38 176h91q-47 -208 -95.5 -376t-97.5 -302h-97q-16 48 -37 118t-42 143.5
t-40 142.5t-30 117h-2q-11 -48 -27.5 -117.5t-35.5 -143.5t-37.5 -143.5t-31.5 -116.5h-98q-48 134 -99.5 302t-102.5 376h93zM398 884q10 -15 23 -33t27.5 -37t29.5 -38t29 -35h-88q-14 14 -31.5 32t-35.5 37.5t-35.5 38.5t-30.5 35h112z" />
    <glyph glyph-name="Wacute" unicode="&#x1e82;" horiz-adv-x="897" 
d="M105 678q21 -96 41 -176.5t39.5 -150t38 -131t38.5 -118.5q10 34 23.5 89t30 125t34.5 152.5t37 171.5l3 14h105l3 -14q45 -180 82.5 -315t65.5 -223q19 58 37.5 119.5t36.5 131t36 149.5t38 176h91q-47 -208 -95.5 -376t-97.5 -302h-97q-16 48 -37 118t-42 143.5
t-40 142.5t-30 117h-2q-11 -48 -27.5 -117.5t-35.5 -143.5t-37.5 -143.5t-31.5 -116.5h-98q-48 134 -99.5 302t-102.5 376h93zM597 884q-14 -16 -31 -35t-35 -38.5t-35.5 -37.5t-31.5 -32h-88q14 16 29 35t29.5 38t27.5 37t23 33h112z" />
    <glyph glyph-name="Wcircumflex" unicode="&#x174;" horiz-adv-x="897" 
d="M105 678q21 -96 41 -176.5t39.5 -150t38 -131t38.5 -118.5q10 34 23.5 89t30 125t34.5 152.5t37 171.5l3 14h105l3 -14q45 -180 82.5 -315t65.5 -223q19 58 37.5 119.5t36.5 131t36 149.5t38 176h91q-47 -208 -95.5 -376t-97.5 -302h-97q-16 48 -37 118t-42 143.5
t-40 142.5t-30 117h-2q-11 -48 -27.5 -117.5t-35.5 -143.5t-37.5 -143.5t-31.5 -116.5h-98q-48 134 -99.5 302t-102.5 376h93zM489 862q15 -22 43.5 -57.5t59.5 -69.5h-96q-5 5 -11.5 13.5t-13.5 17.5t-13 17t-10 14q-4 -6 -10 -14t-13 -17t-13.5 -17.5t-11.5 -13.5h-96
q31 34 59.5 69.5t43.5 57.5h82z" />
    <glyph glyph-name="Wdieresis" unicode="&#x1e84;" horiz-adv-x="897" 
d="M105 678q21 -96 41 -176.5t39.5 -150t38 -131t38.5 -118.5q10 34 23.5 89t30 125t34.5 152.5t37 171.5l3 14h105l3 -14q45 -180 82.5 -315t65.5 -223q19 58 37.5 119.5t36.5 131t36 149.5t38 176h91q-47 -208 -95.5 -376t-97.5 -302h-97q-16 48 -37 118t-42 143.5
t-40 142.5t-30 117h-2q-11 -48 -27.5 -117.5t-35.5 -143.5t-37.5 -143.5t-31.5 -116.5h-98q-48 134 -99.5 302t-102.5 376h93zM318 801q0 29 13.5 41t39.5 12t39.5 -12t13.5 -41v-3q0 -29 -13.5 -41t-39.5 -12t-39.5 12t-13.5 41v3zM472 801q0 29 13.5 41t39.5 12t39.5 -12
t13.5 -41v-3q0 -29 -13.5 -41t-39.5 -12t-39.5 12t-13.5 41v3z" />
    <glyph glyph-name="Ygrave" unicode="&#x1ef2;" horiz-adv-x="560" 
d="M111 678q24 -60 49.5 -121t49.5 -114t43.5 -94t30.5 -62q15 29 36 74.5t44.5 99t47 110t43.5 107.5h93q-67 -159 -123 -277.5t-101 -193.5v-207h-86v209q-18 32 -44 83.5t-56.5 114.5t-63 133t-62.5 138h99zM250 884q10 -15 23 -33t27.5 -37t29.5 -38t29 -35h-88
q-14 14 -31.5 32t-35.5 37.5t-35.5 38.5t-30.5 35h112z" />
    <glyph glyph-name="Yacute" unicode="&#xdd;" horiz-adv-x="560" 
d="M111 678q24 -60 49.5 -121t49.5 -114t43.5 -94t30.5 -62q15 29 36 74.5t44.5 99t47 110t43.5 107.5h93q-67 -159 -123 -277.5t-101 -193.5v-207h-86v209q-18 32 -44 83.5t-56.5 114.5t-63 133t-62.5 138h99zM419 884q-14 -16 -31 -35t-35 -38.5t-35.5 -37.5t-31.5 -32
h-88q14 16 29 35t29.5 38t27.5 37t23 33h112z" />
    <glyph glyph-name="Ycircumflex" unicode="&#x176;" horiz-adv-x="560" 
d="M111 678q24 -60 49.5 -121t49.5 -114t43.5 -94t30.5 -62q15 29 36 74.5t44.5 99t47 110t43.5 107.5h93q-67 -159 -123 -277.5t-101 -193.5v-207h-86v209q-18 32 -44 83.5t-56.5 114.5t-63 133t-62.5 138h99zM321 862q15 -22 43.5 -57.5t59.5 -69.5h-96q-5 5 -11.5 13.5
t-13.5 17.5t-13 17t-10 14q-4 -6 -10 -14t-13 -17t-13.5 -17.5t-11.5 -13.5h-96q31 34 59.5 69.5t43.5 57.5h82z" />
    <glyph glyph-name="Ydieresis" unicode="&#x178;" horiz-adv-x="560" 
d="M111 678q24 -60 49.5 -121t49.5 -114t43.5 -94t30.5 -62q15 29 36 74.5t44.5 99t47 110t43.5 107.5h93q-67 -159 -123 -277.5t-101 -193.5v-207h-86v209q-18 32 -44 83.5t-56.5 114.5t-63 133t-62.5 138h99zM150 801q0 29 13.5 41t39.5 12t39.5 -12t13.5 -41v-3
q0 -29 -13.5 -41t-39.5 -12t-39.5 12t-13.5 41v3zM304 801q0 29 13.5 41t39.5 12t39.5 -12t13.5 -41v-3q0 -29 -13.5 -41t-39.5 -12t-39.5 12t-13.5 41v3z" />
    <glyph glyph-name="Zacute" unicode="&#x179;" horiz-adv-x="524" 
d="M497 678l9 -42l-365 -560h336l-10 -76h-436v52l356 551h-329l-5 75h444zM411 884q-14 -16 -31 -35t-35 -38.5t-35.5 -37.5t-31.5 -32h-88q14 16 29 35t29.5 38t27.5 37t23 33h112z" />
    <glyph glyph-name="Zcaron" unicode="&#x17d;" horiz-adv-x="524" 
d="M497 678l9 -42l-365 -560h336l-10 -76h-436v52l356 551h-329l-5 75h444zM234 856q5 -5 11.5 -13t13.5 -17t13 -17t10 -14q4 6 10 14t13 17t13.5 17t11.5 13h96q-31 -33 -59.5 -68t-43.5 -56h-82q-15 21 -43.5 56t-59.5 68h96z" />
    <glyph glyph-name="Zdotaccent" unicode="&#x17b;" horiz-adv-x="524" 
d="M497 678l9 -42l-365 -560h336l-10 -76h-436v52l356 551h-329l-5 75h444zM207 807q0 29 14.5 41t39.5 12t39.5 -12t14.5 -41v-7q0 -29 -14.5 -41t-39.5 -12t-39.5 12t-14.5 41v7z" />
    <glyph glyph-name="agrave" unicode="&#xe0;" horiz-adv-x="483" 
d="M117 142q0 -36 25 -58t70 -22q29 0 61 9.5t60 29.5v109q-22 6 -50 8.5t-55 2.5h-5q-59 0 -82.5 -21t-23.5 -55v-3zM73 467q87 25 156 25h3q92 0 137 -40.5t45 -129.5v-197q0 -31 1.5 -64.5t4.5 -58.5l-60 -8l-17 41q-31 -22 -67 -33.5t-74 -11.5t-69 11t-52.5 30.5
t-33 47t-11.5 60.5v5q0 72 48.5 109.5t140.5 37.5h5q30 0 55.5 -4t47.5 -10v51q0 47 -22 69q-25 25 -80 25h-5q-27 0 -60.5 -5.5t-75.5 -18.5zM201 717q15 -26 43.5 -69t62.5 -88h-81q-15 15 -32.5 35t-35.5 41.5t-34.5 42.5t-29.5 38h107z" />
    <glyph glyph-name="aacute" unicode="&#xe1;" horiz-adv-x="483" 
d="M117 142q0 -36 25 -58t70 -22q29 0 61 9.5t60 29.5v109q-22 6 -50 8.5t-55 2.5h-5q-59 0 -82.5 -21t-23.5 -55v-3zM73 467q87 25 156 25h3q92 0 137 -40.5t45 -129.5v-197q0 -31 1.5 -64.5t4.5 -58.5l-60 -8l-17 41q-31 -22 -67 -33.5t-74 -11.5t-69 11t-52.5 30.5
t-33 47t-11.5 60.5v5q0 72 48.5 109.5t140.5 37.5h5q30 0 55.5 -4t47.5 -10v51q0 47 -22 69q-25 25 -80 25h-5q-27 0 -60.5 -5.5t-75.5 -18.5zM379 717q-13 -17 -29.5 -38t-34.5 -42.5t-35.5 -41.5t-32.5 -35h-81q34 45 62.5 88t43.5 69h107z" />
    <glyph glyph-name="acircumflex" unicode="&#xe2;" horiz-adv-x="483" 
d="M117 142q0 -36 25 -58t70 -22q29 0 61 9.5t60 29.5v109q-22 6 -50 8.5t-55 2.5h-5q-59 0 -82.5 -21t-23.5 -55v-3zM73 467q87 25 156 25h3q92 0 137 -40.5t45 -129.5v-197q0 -31 1.5 -64.5t4.5 -58.5l-60 -8l-17 41q-31 -22 -67 -33.5t-74 -11.5t-69 11t-52.5 30.5
t-33 47t-11.5 60.5v5q0 72 48.5 109.5t140.5 37.5h5q30 0 55.5 -4t47.5 -10v51q0 47 -22 69q-25 25 -80 25h-5q-27 0 -60.5 -5.5t-75.5 -18.5zM281 699q15 -23 43.5 -59t59.5 -71h-95q-5 5 -11.5 13.5t-13.5 17.5t-13 17t-10 14q-4 -6 -10 -14t-13 -17t-13.5 -17.5
t-11.5 -13.5h-95q31 35 59.5 71t43.5 59h80z" />
    <glyph glyph-name="atilde" unicode="&#xe3;" horiz-adv-x="483" 
d="M117 142q0 -36 25 -58t70 -22q29 0 61 9.5t60 29.5v109q-22 6 -50 8.5t-55 2.5h-5q-59 0 -82.5 -21t-23.5 -55v-3zM73 467q87 25 156 25h3q92 0 137 -40.5t45 -129.5v-197q0 -31 1.5 -64.5t4.5 -58.5l-60 -8l-17 41q-31 -22 -67 -33.5t-74 -11.5t-69 11t-52.5 30.5
t-33 47t-11.5 60.5v5q0 72 48.5 109.5t140.5 37.5h5q30 0 55.5 -4t47.5 -10v51q0 47 -22 69q-25 25 -80 25h-5q-27 0 -60.5 -5.5t-75.5 -18.5zM85 594q12 51 38 75t59 24t66 -21l26 -16q19 -12 31 -12q21 0 36 46l57 -19q-9 -48 -32.5 -73.5t-57.5 -25.5q-19 0 -36 7t-34 16
l-20 11q-19 11 -25 13.5t-11 2.5q-11 0 -20.5 -12.5t-17.5 -33.5z" />
    <glyph glyph-name="adieresis" unicode="&#xe4;" horiz-adv-x="483" 
d="M117 142q0 -36 25 -58t70 -22q29 0 61 9.5t60 29.5v109q-22 6 -50 8.5t-55 2.5h-5q-59 0 -82.5 -21t-23.5 -55v-3zM73 467q87 25 156 25h3q92 0 137 -40.5t45 -129.5v-197q0 -31 1.5 -64.5t4.5 -58.5l-60 -8l-17 41q-31 -22 -67 -33.5t-74 -11.5t-69 11t-52.5 30.5
t-33 47t-11.5 60.5v5q0 72 48.5 109.5t140.5 37.5h5q30 0 55.5 -4t47.5 -10v51q0 47 -22 69q-25 25 -80 25h-5q-27 0 -60.5 -5.5t-75.5 -18.5zM113 638q0 29 13.5 40.5t38.5 11.5t38.5 -11.5t13.5 -40.5v-3q0 -29 -13.5 -40.5t-38.5 -11.5t-38.5 11.5t-13.5 40.5v3zM265 638
q0 29 13.5 40.5t38.5 11.5t38.5 -11.5t13.5 -40.5v-3q0 -29 -13.5 -40.5t-38.5 -11.5t-38.5 11.5t-13.5 40.5v3z" />
    <glyph glyph-name="amacron" unicode="&#x101;" horiz-adv-x="483" 
d="M117 142q0 -36 25 -58t70 -22q29 0 61 9.5t60 29.5v109q-22 6 -50 8.5t-55 2.5h-5q-59 0 -82.5 -21t-23.5 -55v-3zM73 467q87 25 156 25h3q92 0 137 -40.5t45 -129.5v-197q0 -31 1.5 -64.5t4.5 -58.5l-60 -8l-17 41q-31 -22 -67 -33.5t-74 -11.5t-69 11t-52.5 30.5
t-33 47t-11.5 60.5v5q0 72 48.5 109.5t140.5 37.5h5q30 0 55.5 -4t47.5 -10v51q0 47 -22 69q-25 25 -80 25h-5q-27 0 -60.5 -5.5t-75.5 -18.5zM377 658v-68h-271v68h271z" />
    <glyph glyph-name="abreve" unicode="&#x103;" horiz-adv-x="483" 
d="M117 142q0 -36 25 -58t70 -22q29 0 61 9.5t60 29.5v109q-22 6 -50 8.5t-55 2.5h-5q-59 0 -82.5 -21t-23.5 -55v-3zM73 467q87 25 156 25h3q92 0 137 -40.5t45 -129.5v-197q0 -31 1.5 -64.5t4.5 -58.5l-60 -8l-17 41q-31 -22 -67 -33.5t-74 -11.5t-69 11t-52.5 30.5
t-33 47t-11.5 60.5v5q0 72 48.5 109.5t140.5 37.5h5q30 0 55.5 -4t47.5 -10v51q0 47 -22 69q-25 25 -80 25h-5q-27 0 -60.5 -5.5t-75.5 -18.5zM187 679q3 -25 17.5 -38t34.5 -13h4q20 0 34.5 13t17.5 38h71q-3 -51 -36 -83.5t-85 -32.5h-8q-52 0 -85 32.5t-36 83.5h71z" />
    <glyph glyph-name="acaron" unicode="&#x1ce;" horiz-adv-x="483" 
d="M117 142q0 -36 25 -58t70 -22q29 0 61 9.5t60 29.5v109q-22 6 -50 8.5t-55 2.5h-5q-59 0 -82.5 -21t-23.5 -55v-3zM73 467q87 25 156 25h3q92 0 137 -40.5t45 -129.5v-197q0 -31 1.5 -64.5t4.5 -58.5l-60 -8l-17 41q-31 -22 -67 -33.5t-74 -11.5t-69 11t-52.5 30.5
t-33 47t-11.5 60.5v5q0 72 48.5 109.5t140.5 37.5h5q30 0 55.5 -4t47.5 -10v51q0 47 -22 69q-25 25 -80 25h-5q-27 0 -60.5 -5.5t-75.5 -18.5zM183 680q10 -10 25 -29t23 -30q8 11 23 30t25 29h95q-31 -33 -59.5 -67.5t-43.5 -56.5h-80q-15 22 -43.5 56.5t-59.5 67.5h95z
" />
    <glyph glyph-name="aring" unicode="&#xe5;" horiz-adv-x="483" 
d="M117 142q0 -36 25 -58t70 -22q29 0 61 9.5t60 29.5v109q-22 6 -50 8.5t-55 2.5h-5q-59 0 -82.5 -21t-23.5 -55v-3zM73 467q87 25 156 25h3q92 0 137 -40.5t45 -129.5v-197q0 -31 1.5 -64.5t4.5 -58.5l-60 -8l-17 41q-31 -22 -67 -33.5t-74 -11.5t-69 11t-52.5 30.5
t-33 47t-11.5 60.5v5q0 72 48.5 109.5t140.5 37.5h5q30 0 55.5 -4t47.5 -10v51q0 47 -22 69q-25 25 -80 25h-5q-27 0 -60.5 -5.5t-75.5 -18.5zM269 626q0 28 -28 28t-28 -28t28 -28t28 28zM328 626q0 -39 -24.5 -62.5t-62.5 -23.5t-62.5 23.5t-24.5 62.5t24.5 62.5
t62.5 23.5t62.5 -23.5t24.5 -62.5z" />
    <glyph glyph-name="aringacute" unicode="&#x1fb;" horiz-adv-x="483" 
d="M117 142q0 -36 25 -58t70 -22q29 0 61 9.5t60 29.5v109q-22 6 -50 8.5t-55 2.5h-5q-59 0 -82.5 -21t-23.5 -55v-3zM73 467q87 25 156 25h3q92 0 137 -40.5t45 -129.5v-197q0 -31 1.5 -64.5t4.5 -58.5l-60 -8l-17 41q-31 -22 -67 -33.5t-74 -11.5t-69 11t-52.5 30.5
t-33 47t-11.5 60.5v5q0 72 48.5 109.5t140.5 37.5h5q30 0 55.5 -4t47.5 -10v51q0 47 -22 69q-25 25 -80 25h-5q-27 0 -60.5 -5.5t-75.5 -18.5zM269 626q0 28 -28 28t-28 -28t28 -28t28 28zM328 626q0 -39 -24.5 -62.5t-62.5 -23.5t-62.5 23.5t-24.5 62.5t24.5 62.5
t62.5 23.5t62.5 -23.5t24.5 -62.5zM392 908q-13 -17 -29.5 -38t-34.5 -42.5t-35.5 -41.5t-32.5 -35h-81q34 45 62.5 88t43.5 69h107z" />
    <glyph glyph-name="aogonek" unicode="&#x105;" horiz-adv-x="483" 
d="M117 142q0 -36 25 -58t70 -22q29 0 61 9.5t60 29.5v109q-22 6 -50 8.5t-55 2.5h-5q-59 0 -82.5 -21t-23.5 -55v-3zM73 467q87 25 156 25h3q92 0 137 -40.5t45 -129.5v-197q0 -31 1.5 -65.5t4.5 -59.5q-48 -23 -65 -42.5t-17 -39.5q0 -31 35 -31q24 0 57 13l17 -56
q-46 -20 -86 -20q-48 0 -73 25q-22 22 -22 57q0 32 19 58t67 49l-9 22q-31 -22 -67 -33.5t-74 -11.5t-69 11t-52.5 30.5t-33 47t-11.5 60.5v5q0 72 48.5 109.5t140.5 37.5h5q30 0 55.5 -4t47.5 -10v51q0 47 -22 69q-25 25 -80 25h-5q-27 0 -60.5 -5.5t-75.5 -18.5z" />
    <glyph glyph-name="ae" unicode="&#xe6;" horiz-adv-x="777" 
d="M73 467q87 25 156 25h3q112 0 155 -62q56 62 157 62h5q89 0 134 -46q26 -26 38 -65t12 -102v-56h-319q3 -87 40 -124t106 -37h5q32 0 71.5 8t67.5 19l21 -64q-28 -14 -73.5 -24.5t-93.5 -10.5h-6q-111 0 -167 65q-43 -33 -90.5 -49t-92.5 -16q-77 0 -121.5 41.5
t-44.5 107.5v5q0 72 48.5 109.5t140.5 37.5h5q29 0 55.5 -4t47.5 -10v51q0 47 -22 69q-25 25 -80 25h-5q-27 0 -60.5 -5.5t-75.5 -18.5zM117 142q0 -36 24.5 -58t70.5 -22q34 0 72.5 11.5t67.5 37.5q-17 43 -20 99q-22 6 -50 8.5t-54 2.5h-5q-59 0 -82.5 -21t-23.5 -55v-3z
M542 425q-63 0 -93.5 -37.5t-34.5 -97.5h238v16q0 63 -25.5 91t-78.5 28h-6z" />
    <glyph glyph-name="aeacute" unicode="&#x1fd;" horiz-adv-x="777" 
d="M73 467q87 25 156 25h3q112 0 155 -62q56 62 157 62h5q89 0 134 -46q26 -26 38 -65t12 -102v-56h-319q3 -87 40 -124t106 -37h5q32 0 71.5 8t67.5 19l21 -64q-28 -14 -73.5 -24.5t-93.5 -10.5h-6q-111 0 -167 65q-43 -33 -90.5 -49t-92.5 -16q-77 0 -121.5 41.5
t-44.5 107.5v5q0 72 48.5 109.5t140.5 37.5h5q29 0 55.5 -4t47.5 -10v51q0 47 -22 69q-25 25 -80 25h-5q-27 0 -60.5 -5.5t-75.5 -18.5zM117 142q0 -36 24.5 -58t70.5 -22q34 0 72.5 11.5t67.5 37.5q-17 43 -20 99q-22 6 -50 8.5t-54 2.5h-5q-59 0 -82.5 -21t-23.5 -55v-3z
M542 425q-63 0 -93.5 -37.5t-34.5 -97.5h238v16q0 63 -25.5 91t-78.5 28h-6zM524 717q-13 -17 -29.5 -38t-34.5 -42.5t-35.5 -41.5t-32.5 -35h-81q34 45 62.5 88t43.5 69h107z" />
    <glyph glyph-name="cacute" unicode="&#x107;" horiz-adv-x="446" 
d="M46 255q0 120 58.5 178.5t158.5 58.5q38 0 78 -10t78 -30l-24 -63q-32 17 -64 25t-61 8q-69 0 -104.5 -39t-35.5 -130v-23q0 -96 39 -135q17 -17 42 -25t57 -8q62 0 133 30l21 -62q-36 -20 -77 -30t-83 -10q-57 0 -98 17.5t-67 49t-38.5 75t-12.5 95.5v28zM381 717
q-13 -17 -29.5 -38t-34.5 -42.5t-35.5 -41.5t-32.5 -35h-81q34 45 62.5 88t43.5 69h107z" />
    <glyph glyph-name="ccedilla" unicode="&#xe7;" horiz-adv-x="446" 
d="M46 255q0 120 58.5 178.5t158.5 58.5q38 0 78 -10t78 -30l-24 -63q-32 17 -64 25t-61 8q-69 0 -104.5 -39t-35.5 -130v-23q0 -96 39 -135q17 -17 42 -25t57 -8q62 0 133 30l21 -62q-32 -18 -66.5 -27.5t-70.5 -11.5l-12 -38q15 4 32 4q38 0 64 -20.5t26 -63.5v-4
q0 -44 -30 -68t-83 -24q-23 0 -51.5 7t-58.5 21l18 57q52 -22 92 -22q24 0 33 7.5t9 19.5v2q0 12 -9.5 19t-34.5 7q-11 0 -27 -1.5t-29 -4.5l-27 22l26 82q-47 6 -80 25t-55 50t-32 71t-10 88v28z" />
    <glyph glyph-name="ccircumflex" unicode="&#x109;" horiz-adv-x="446" 
d="M46 255q0 120 58.5 178.5t158.5 58.5q38 0 78 -10t78 -30l-24 -63q-32 17 -64 25t-61 8q-69 0 -104.5 -39t-35.5 -130v-23q0 -96 39 -135q17 -17 42 -25t57 -8q62 0 133 30l21 -62q-36 -20 -77 -30t-83 -10q-57 0 -98 17.5t-67 49t-38.5 75t-12.5 95.5v28zM303 699
q15 -23 43.5 -59t59.5 -71h-95q-5 5 -11.5 13.5t-13.5 17.5t-13 17t-10 14q-4 -6 -10 -14t-13 -17t-13.5 -17.5t-11.5 -13.5h-95q31 35 59.5 71t43.5 59h80z" />
    <glyph glyph-name="ccaron" unicode="&#x10d;" horiz-adv-x="446" 
d="M46 255q0 120 58.5 178.5t158.5 58.5q38 0 78 -10t78 -30l-24 -63q-32 17 -64 25t-61 8q-69 0 -104.5 -39t-35.5 -130v-23q0 -96 39 -135q17 -17 42 -25t57 -8q62 0 133 30l21 -62q-36 -20 -77 -30t-83 -10q-57 0 -98 17.5t-67 49t-38.5 75t-12.5 95.5v28zM215 680
q10 -10 25 -29t23 -30q8 11 23 30t25 29h95q-31 -33 -59.5 -67.5t-43.5 -56.5h-80q-15 22 -43.5 56.5t-59.5 67.5h95z" />
    <glyph glyph-name="cdotaccent" unicode="&#x10b;" horiz-adv-x="446" 
d="M46 255q0 120 58.5 178.5t158.5 58.5q38 0 78 -10t78 -30l-24 -63q-32 17 -64 25t-61 8q-69 0 -104.5 -39t-35.5 -130v-23q0 -96 39 -135q17 -17 42 -25t57 -8q62 0 133 30l21 -62q-36 -20 -77 -30t-83 -10q-57 0 -98 17.5t-67 49t-38.5 75t-12.5 95.5v28zM209 640
q0 29 14.5 41t39.5 12t39.5 -12t14.5 -41v-7q0 -29 -14.5 -41t-39.5 -12t-39.5 12t-14.5 41v7z" />
    <glyph glyph-name="dcaron" unicode="&#x10f;" horiz-adv-x="519" 
d="M447 705v-580q0 -31 1.5 -64.5t4.5 -58.5l-60 -8l-17 41q-34 -23 -69.5 -34t-69.5 -11q-49 0 -85 17t-59.5 48t-35 74t-11.5 94v28q0 118 59 179.5t166 61.5q44 0 95 -12v225h81zM130 226q0 -84 31 -125t90 -41q55 0 115 40v309q-20 5 -44.5 9t-45.5 4
q-69 0 -107.5 -41.5t-38.5 -130.5v-24zM614 705q-10 -42 -25.5 -90t-35.5 -89l-65 13q12 37 21.5 81t14.5 85h90z" />
    <glyph glyph-name="dcroat" unicode="&#x111;" horiz-adv-x="519" 
d="M366 618v87h81v-87h70l-11 -70h-59v-423q0 -31 1.5 -64.5t4.5 -58.5l-60 -8l-17 41q-34 -23 -69.5 -34t-69.5 -11q-49 0 -85 17t-59.5 48t-35 74t-11.5 94v28q0 118 59 179.5t166 61.5q44 0 95 -12v68h-102v70h102zM130 226q0 -84 31 -125t90 -41q55 0 115 40v309
q-20 5 -44.5 9t-45.5 4q-69 0 -107.5 -41.5t-38.5 -130.5v-24z" />
    <glyph glyph-name="eth" unicode="&#xf0;" horiz-adv-x="515" 
d="M177 687q23 -8 43 -15.5t39 -16.5l39 53l50 -34l-36 -47q43 -27 73 -60.5t49 -78t27.5 -100t8.5 -125.5v-42q0 -115 -58 -175q-27 -27 -65.5 -41.5t-88.5 -14.5q-98 0 -154 56q-58 60 -58 175v21q0 62 16 108t46 76t72 45t94 15q40 0 82 -9q-15 29 -35 51.5t-51 42.5
l-42 -56l-48 34l38 51q-17 8 -35.5 15.5t-40.5 15.5zM126 223q0 -48 11 -79t31 -51q33 -34 90 -34t90 34q20 20 31 51t11 79v36q0 40 -3 76.5t-10 68.5q-24 8 -48.5 11t-50.5 3q-81 0 -116.5 -45t-35.5 -133v-17z" />
    <glyph glyph-name="egrave" unicode="&#xe8;" horiz-adv-x="492" 
d="M264 492q89 0 134 -46q26 -26 38 -65t12 -102v-56h-319q3 -87 40 -124t106 -37h5q32 0 71.5 8t67.5 19l21 -64q-28 -14 -73.5 -24.5t-93.5 -10.5h-6q-105 0 -163 62t-58 189v17q0 110 55.5 172t157.5 62h5zM257 425q-63 0 -93.5 -37.5t-34.5 -97.5h238v16q0 63 -25.5 91
t-78.5 28h-6zM245 717q15 -26 43.5 -69t62.5 -88h-81q-15 15 -32.5 35t-35.5 41.5t-34.5 42.5t-29.5 38h107z" />
    <glyph glyph-name="eacute" unicode="&#xe9;" horiz-adv-x="492" 
d="M264 492q89 0 134 -46q26 -26 38 -65t12 -102v-56h-319q3 -87 40 -124t106 -37h5q32 0 71.5 8t67.5 19l21 -64q-28 -14 -73.5 -24.5t-93.5 -10.5h-6q-105 0 -163 62t-58 189v17q0 110 55.5 172t157.5 62h5zM257 425q-63 0 -93.5 -37.5t-34.5 -97.5h238v16q0 63 -25.5 91
t-78.5 28h-6zM393 717q-13 -17 -29.5 -38t-34.5 -42.5t-35.5 -41.5t-32.5 -35h-81q34 45 62.5 88t43.5 69h107z" />
    <glyph glyph-name="ecircumflex" unicode="&#xea;" horiz-adv-x="492" 
d="M264 492q89 0 134 -46q26 -26 38 -65t12 -102v-56h-319q3 -87 40 -124t106 -37h5q32 0 71.5 8t67.5 19l21 -64q-28 -14 -73.5 -24.5t-93.5 -10.5h-6q-105 0 -163 62t-58 189v17q0 110 55.5 172t157.5 62h5zM257 425q-63 0 -93.5 -37.5t-34.5 -97.5h238v16q0 63 -25.5 91
t-78.5 28h-6zM296 699q15 -23 43.5 -59t59.5 -71h-95q-5 5 -11.5 13.5t-13.5 17.5t-13 17t-10 14q-4 -6 -10 -14t-13 -17t-13.5 -17.5t-11.5 -13.5h-95q31 35 59.5 71t43.5 59h80z" />
    <glyph glyph-name="ecaron" unicode="&#x11b;" horiz-adv-x="492" 
d="M264 492q89 0 134 -46q26 -26 38 -65t12 -102v-56h-319q3 -87 40 -124t106 -37h5q32 0 71.5 8t67.5 19l21 -64q-28 -14 -73.5 -24.5t-93.5 -10.5h-6q-105 0 -163 62t-58 189v17q0 110 55.5 172t157.5 62h5zM257 425q-63 0 -93.5 -37.5t-34.5 -97.5h238v16q0 63 -25.5 91
t-78.5 28h-6zM208 680q10 -10 25 -29t23 -30q8 11 23 30t25 29h95q-31 -33 -59.5 -67.5t-43.5 -56.5h-80q-15 22 -43.5 56.5t-59.5 67.5h95z" />
    <glyph glyph-name="edieresis" unicode="&#xeb;" horiz-adv-x="492" 
d="M264 492q89 0 134 -46q26 -26 38 -65t12 -102v-56h-319q3 -87 40 -124t106 -37h5q32 0 71.5 8t67.5 19l21 -64q-28 -14 -73.5 -24.5t-93.5 -10.5h-6q-105 0 -163 62t-58 189v17q0 110 55.5 172t157.5 62h5zM257 425q-63 0 -93.5 -37.5t-34.5 -97.5h238v16q0 63 -25.5 91
t-78.5 28h-6zM128 638q0 29 13.5 40.5t38.5 11.5t38.5 -11.5t13.5 -40.5v-3q0 -29 -13.5 -40.5t-38.5 -11.5t-38.5 11.5t-13.5 40.5v3zM280 638q0 29 13.5 40.5t38.5 11.5t38.5 -11.5t13.5 -40.5v-3q0 -29 -13.5 -40.5t-38.5 -11.5t-38.5 11.5t-13.5 40.5v3z" />
    <glyph glyph-name="emacron" unicode="&#x113;" horiz-adv-x="492" 
d="M264 492q89 0 134 -46q26 -26 38 -65t12 -102v-56h-319q3 -87 40 -124t106 -37h5q32 0 71.5 8t67.5 19l21 -64q-28 -14 -73.5 -24.5t-93.5 -10.5h-6q-105 0 -163 62t-58 189v17q0 110 55.5 172t157.5 62h5zM257 425q-63 0 -93.5 -37.5t-34.5 -97.5h238v16q0 63 -25.5 91
t-78.5 28h-6zM391 658v-68h-271v68h271z" />
    <glyph glyph-name="ebreve" unicode="&#x115;" horiz-adv-x="492" 
d="M264 492q89 0 134 -46q26 -26 38 -65t12 -102v-56h-319q3 -87 40 -124t106 -37h5q32 0 71.5 8t67.5 19l21 -64q-28 -14 -73.5 -24.5t-93.5 -10.5h-6q-105 0 -163 62t-58 189v17q0 110 55.5 172t157.5 62h5zM257 425q-63 0 -93.5 -37.5t-34.5 -97.5h238v16q0 63 -25.5 91
t-78.5 28h-6zM202 679q3 -25 17.5 -38t34.5 -13h4q20 0 34.5 13t17.5 38h71q-3 -51 -36 -83.5t-85 -32.5h-8q-52 0 -85 32.5t-36 83.5h71z" />
    <glyph glyph-name="edotaccent" unicode="&#x117;" horiz-adv-x="492" 
d="M264 492q89 0 134 -46q26 -26 38 -65t12 -102v-56h-319q3 -87 40 -124t106 -37h5q32 0 71.5 8t67.5 19l21 -64q-28 -14 -73.5 -24.5t-93.5 -10.5h-6q-105 0 -163 62t-58 189v17q0 110 55.5 172t157.5 62h5zM257 425q-63 0 -93.5 -37.5t-34.5 -97.5h238v16q0 63 -25.5 91
t-78.5 28h-6zM201 640q0 29 14.5 41t39.5 12t39.5 -12t14.5 -41v-7q0 -29 -14.5 -41t-39.5 -12t-39.5 12t-14.5 41v7z" />
    <glyph glyph-name="eogonek" unicode="&#x119;" horiz-adv-x="492" 
d="M257 425q-63 0 -93.5 -37.5t-34.5 -97.5h238v16q0 63 -25.5 91t-78.5 28h-6zM264 492q89 0 134 -46q26 -26 38 -65t12 -102v-56h-319q3 -87 40 -124t106 -37h5q32 0 71.5 8t67.5 19l21 -64l-17 -8q-43 -20 -64.5 -47.5t-21.5 -49.5q0 -33 35 -33q24 0 57 13l17 -56
q-46 -20 -86 -20q-48 0 -73 25q-22 22 -22 61q0 20 11.5 43t34.5 39q-6 -1 -19 -1.5t-19 -0.5h-6q-105 0 -163 62t-58 189v17q0 110 55.5 172t157.5 62h5z" />
    <glyph glyph-name="gcircumflex" unicode="&#x11d;" horiz-adv-x="502" 
d="M51 327q0 81 51 123t142 42q63 0 107 -21q20 17 52.5 28t83.5 11v-73q-56 0 -81 -9q31 -40 31 -101v-6q0 -81 -51 -123t-142 -42q-39 0 -74 8l-8 -24q-4 -11 -5.5 -19.5t-1.5 -12.5q0 -15 10.5 -20t35.5 -5h102q47 0 79 -10t52 -27.5t29 -41.5t9 -52q0 -35 -14.5 -66.5
t-44 -55.5t-73.5 -38t-103 -14q-106 0 -159 43.5t-53 109.5q0 38 19 68.5t48 49.5q-14 17 -14 42t13 58l18 43q-58 43 -58 129v6zM207 14q-33 0 -53 4q-25 -14 -38.5 -36.5t-13.5 -46.5q0 -36 31.5 -61.5t106.5 -25.5t114.5 27.5t39.5 73.5q0 30 -21 47.5t-69 17.5h-97z
M134 321q0 -55 29.5 -76.5t81.5 -21.5t81.5 21.5t29.5 76.5v6q0 55 -29.5 76.5t-81.5 21.5t-81.5 -21.5t-29.5 -76.5v-6zM284 699q15 -23 43.5 -59t59.5 -71h-95q-5 5 -11.5 13.5t-13.5 17.5t-13 17t-10 14q-4 -6 -10 -14t-13 -17t-13.5 -17.5t-11.5 -13.5h-95
q31 35 59.5 71t43.5 59h80z" />
    <glyph glyph-name="gbreve" unicode="&#x11f;" horiz-adv-x="502" 
d="M51 327q0 81 51 123t142 42q63 0 107 -21q20 17 52.5 28t83.5 11v-73q-56 0 -81 -9q31 -40 31 -101v-6q0 -81 -51 -123t-142 -42q-39 0 -74 8l-8 -24q-4 -11 -5.5 -19.5t-1.5 -12.5q0 -15 10.5 -20t35.5 -5h102q47 0 79 -10t52 -27.5t29 -41.5t9 -52q0 -35 -14.5 -66.5
t-44 -55.5t-73.5 -38t-103 -14q-106 0 -159 43.5t-53 109.5q0 38 19 68.5t48 49.5q-14 17 -14 42t13 58l18 43q-58 43 -58 129v6zM207 14q-33 0 -53 4q-25 -14 -38.5 -36.5t-13.5 -46.5q0 -36 31.5 -61.5t106.5 -25.5t114.5 27.5t39.5 73.5q0 30 -21 47.5t-69 17.5h-97z
M134 321q0 -55 29.5 -76.5t81.5 -21.5t81.5 21.5t29.5 76.5v6q0 55 -29.5 76.5t-81.5 21.5t-81.5 -21.5t-29.5 -76.5v-6zM189 679q3 -25 17.5 -38t34.5 -13h4q20 0 34.5 13t17.5 38h71q-3 -51 -36 -83.5t-85 -32.5h-8q-52 0 -85 32.5t-36 83.5h71z" />
    <glyph glyph-name="gdotaccent" unicode="&#x121;" horiz-adv-x="502" 
d="M51 327q0 81 51 123t142 42q63 0 107 -21q20 17 52.5 28t83.5 11v-73q-56 0 -81 -9q31 -40 31 -101v-6q0 -81 -51 -123t-142 -42q-39 0 -74 8l-8 -24q-4 -11 -5.5 -19.5t-1.5 -12.5q0 -15 10.5 -20t35.5 -5h102q47 0 79 -10t52 -27.5t29 -41.5t9 -52q0 -35 -14.5 -66.5
t-44 -55.5t-73.5 -38t-103 -14q-106 0 -159 43.5t-53 109.5q0 38 19 68.5t48 49.5q-14 17 -14 42t13 58l18 43q-58 43 -58 129v6zM207 14q-33 0 -53 4q-25 -14 -38.5 -36.5t-13.5 -46.5q0 -36 31.5 -61.5t106.5 -25.5t114.5 27.5t39.5 73.5q0 30 -21 47.5t-69 17.5h-97z
M134 321q0 -55 29.5 -76.5t81.5 -21.5t81.5 21.5t29.5 76.5v6q0 55 -29.5 76.5t-81.5 21.5t-81.5 -21.5t-29.5 -76.5v-6zM189 640q0 29 14.5 41t39.5 12t39.5 -12t14.5 -41v-7q0 -29 -14.5 -41t-39.5 -12t-39.5 12t-14.5 41v7z" />
    <glyph glyph-name="gcommaaccent" unicode="&#x123;" horiz-adv-x="502" 
d="M51 327q0 81 51 123t142 42q63 0 107 -21q20 17 52.5 28t83.5 11v-73q-56 0 -81 -9q31 -40 31 -101v-6q0 -81 -51 -123t-142 -42q-39 0 -74 8l-8 -24q-4 -11 -5.5 -19.5t-1.5 -12.5q0 -15 10.5 -20t35.5 -5h102q47 0 79 -10t52 -27.5t29 -41.5t9 -52q0 -35 -14.5 -66.5
t-44 -55.5t-73.5 -38t-103 -14q-106 0 -159 43.5t-53 109.5q0 38 19 68.5t48 49.5q-14 17 -14 42t13 58l18 43q-58 43 -58 129v6zM207 14q-33 0 -53 4q-25 -14 -38.5 -36.5t-13.5 -46.5q0 -36 31.5 -61.5t106.5 -25.5t114.5 27.5t39.5 73.5q0 30 -21 47.5t-69 17.5h-97z
M134 321q0 -55 29.5 -76.5t81.5 -21.5t81.5 21.5t29.5 76.5v6q0 55 -29.5 76.5t-81.5 21.5t-81.5 -21.5t-29.5 -76.5v-6zM198.016 575.995q9.99902 41.998 25.498 89.9951t35.498 88.9941l64.9961 -12.999q-12 -36.998 -21.499 -80.9951t-14.499 -84.9951h-89.9941z" />
    <glyph glyph-name="hcircumflex" unicode="&#x125;" horiz-adv-x="524" 
d="M153 705v-252q29 18 61 28.5t68 10.5q44 0 77.5 -13t55.5 -36q24 -25 35 -59t11 -76v-308h-81v303q0 65 -30 94q-26 25 -76 25q-30 0 -62 -10t-59 -30v-382h-81v705h81zM153 877q15 -23 43.5 -59t59.5 -71h-95q-5 5 -11.5 13.5t-13.5 17.5t-13 17t-10 14q-4 -6 -10 -14
t-13 -17t-13.5 -17.5t-11.5 -13.5h-95q31 35 59.5 71t43.5 59h80z" />
    <glyph glyph-name="hbar" unicode="&#x127;" horiz-adv-x="524" 
d="M153 705v-87h127l-11 -70h-116v-95q29 18 61 28.5t68 10.5q44 0 77.5 -13t55.5 -36q24 -25 35 -59t11 -76v-308h-81v303q0 65 -30 94q-26 25 -76 25q-30 0 -62 -10t-59 -30v-382h-81v548h-70v70h70v87h81z" />
    <glyph glyph-name="dotlessi" unicode="&#x131;" horiz-adv-x="227" 
d="M154 482v-482h-81v482h81z" />
    <glyph glyph-name="igrave" unicode="&#xec;" horiz-adv-x="227" 
d="M154 482v-482h-81v482h81zM74 717q15 -26 43.5 -69t62.5 -88h-81q-15 15 -32.5 35t-35.5 41.5t-34.5 42.5t-29.5 38h107z" />
    <glyph glyph-name="iacute" unicode="&#xed;" horiz-adv-x="227" 
d="M154 482v-482h-81v482h81zM262 717q-13 -17 -29.5 -38t-34.5 -42.5t-35.5 -41.5t-32.5 -35h-81q34 45 62.5 88t43.5 69h107z" />
    <glyph glyph-name="icircumflex" unicode="&#xee;" horiz-adv-x="227" 
d="M154 482v-482h-81v482h81zM155 699q15 -23 43.5 -59t59.5 -71h-95q-5 5 -11.5 13.5t-13.5 17.5t-13 17t-10 14q-4 -6 -10 -14t-13 -17t-13.5 -17.5t-11.5 -13.5h-95q31 35 59.5 71t43.5 59h80z" />
    <glyph glyph-name="itilde" unicode="&#x129;" horiz-adv-x="227" 
d="M154 482v-482h-81v482h81zM-42 594q12 51 38 75t59 24t66 -21l26 -16q19 -12 31 -12q21 0 36 46l57 -19q-9 -48 -32.5 -73.5t-57.5 -25.5q-19 0 -36 7t-34 16l-20 11q-19 11 -25 13.5t-11 2.5q-11 0 -20.5 -12.5t-17.5 -33.5z" />
    <glyph glyph-name="idieresis" unicode="&#xef;" horiz-adv-x="227" 
d="M154 482v-482h-81v482h81zM-13 638q0 29 13.5 40.5t38.5 11.5t38.5 -11.5t13.5 -40.5v-3q0 -29 -13.5 -40.5t-38.5 -11.5t-38.5 11.5t-13.5 40.5v3zM139 638q0 29 13.5 40.5t38.5 11.5t38.5 -11.5t13.5 -40.5v-3q0 -29 -13.5 -40.5t-38.5 -11.5t-38.5 11.5t-13.5 40.5v3z
" />
    <glyph glyph-name="imacron" unicode="&#x12b;" horiz-adv-x="227" 
d="M154 482v-482h-81v482h81zM250 658v-68h-271v68h271z" />
    <glyph glyph-name="ibreve" unicode="&#x12d;" horiz-adv-x="227" 
d="M154 482v-482h-81v482h81zM61 679q3 -25 17.5 -38t34.5 -13h4q20 0 34.5 13t17.5 38h71q-3 -51 -36 -83.5t-85 -32.5h-8q-52 0 -85 32.5t-36 83.5h71z" />
    <glyph glyph-name="iogonek" unicode="&#x12f;" horiz-adv-x="227" 
d="M59 618q0 29 14.5 41t39.5 12t39.5 -12t14.5 -41v-7q0 -29 -14.5 -41t-39.5 -12t-39.5 12t-14.5 41v7zM154 482v-482q-67 -37 -67 -80q0 -33 35 -33q24 0 57 13l17 -56q-46 -20 -86 -20q-48 0 -73 25q-22 22 -22 61q0 23 13 49.5t45 47.5v475h81z" />
    <glyph glyph-name="ij" unicode="&#x133;" horiz-adv-x="445" 
d="M154 482v-482h-81v482h81zM59 618q0 29 14.5 41t39.5 12t39.5 -12t14.5 -41v-7q0 -29 -14.5 -41t-39.5 -12t-39.5 12t-14.5 41v7zM377 482v-532q0 -93 -29 -132.5t-93 -39.5q-13 0 -31.5 1.5t-39.5 5.5l6 66q14 -2 26 -3t21 -1q17 0 28.5 4t18 14.5t9.5 29.5t3 50v537h81
zM282 618q0 29 14.5 41t39.5 12t39.5 -12t14.5 -41v-7q0 -29 -14.5 -41t-39.5 -12t-39.5 12t-14.5 41v7z" />
    <glyph glyph-name="jcircumflex" unicode="&#x135;" horiz-adv-x="218" 
d="M150 482v-532q-1 -47 -8 -79.5t-21.5 -53t-37.5 -30t-55 -9.5q-13 0 -31.5 1.5t-39.5 5.5l6 66q14 -2 26 -3t21 -1q17 0 28.5 4t18 14.5t9.5 29.5t3 50v537h81zM149 699q15 -23 43.5 -59t59.5 -71h-95q-5 5 -11.5 13.5t-13.5 17.5t-13 17t-10 14q-4 -6 -10 -14t-13 -17
t-13.5 -17.5t-11.5 -13.5h-95q31 35 59.5 71t43.5 59h80z" />
    <glyph glyph-name="kcommaaccent" unicode="&#x137;" horiz-adv-x="464" 
d="M153 705v-439q29 23 58.5 50.5t56 56t49 56.5t38.5 53h86q-35 -53 -77.5 -104t-90.5 -97q25 -32 50.5 -68.5t49.5 -73t46 -72.5t39 -67h-89q-20 35 -38 64.5t-35.5 57t-36.5 54.5t-40 57q-16 -14 -33 -28t-33 -25v-180h-81v705h81zM295 -74q-10 -42 -25.5 -90t-35.5 -89
l-65 13q12 37 21.5 81t14.5 85h90z" />
    <glyph glyph-name="kgreenlandic" unicode="&#x138;" horiz-adv-x="464" 
d="M153 482v-216q29 23 58.5 50.5t56 56t49 56.5t38.5 53h86q-35 -53 -77.5 -104t-90.5 -97q25 -32 50.5 -68.5t49.5 -73t46 -72.5t39 -67h-89q-20 35 -38 64.5t-35.5 57t-36.5 54.5t-40 57q-16 -14 -33 -28t-33 -25v-180h-81v482h81z" />
    <glyph glyph-name="lacute" unicode="&#x13a;" horiz-adv-x="267" 
d="M150 705v-571q0 -38 7.5 -53.5t30.5 -15.5q11 0 22.5 2t28.5 7l10 -68q-19 -6 -37 -8.5t-35 -2.5q-60 0 -84 33t-24 105v572h81zM259 920q-13 -17 -29.5 -38t-34.5 -42.5t-35.5 -41.5t-32.5 -35h-81q34 45 62.5 88t43.5 69h107z" />
    <glyph glyph-name="lcaron" unicode="&#x13e;" horiz-adv-x="267" 
d="M150 705v-571q0 -38 7.5 -53.5t30.5 -15.5q11 0 22.5 2t28.5 7l10 -68q-19 -6 -37 -8.5t-35 -2.5q-60 0 -84 33t-24 105v572h81zM317 705q-10 -42 -25.5 -90t-35.5 -89l-65 13q12 37 21.5 81t14.5 85h90z" />
    <glyph glyph-name="lcommaaccent" unicode="&#x13c;" horiz-adv-x="267" 
d="M150 705v-571q0 -38 7.5 -53.5t30.5 -15.5q11 0 22.5 2t28.5 7l10 -68q-19 -6 -37 -8.5t-35 -2.5q-60 0 -84 33t-24 105v572h81zM200 -74q-10 -42 -25.5 -90t-35.5 -89l-65 13q12 37 21.5 81t14.5 85h90z" />
    <glyph glyph-name="lslash" unicode="&#x142;" horiz-adv-x="267" 
d="M150 705v-261l74 38l31 -57l-105 -54v-237q0 -38 7.5 -53.5t30.5 -15.5q11 0 22.5 2t28.5 7l10 -68q-19 -6 -37 -8.5t-35 -2.5q-60 0 -84 33t-24 105v197l-69 -35l-31 57l100 51v302h81z" />
    <glyph glyph-name="longs" unicode="&#x17f;" horiz-adv-x="344" 
d="M96 482v74q0 77 40 117q42 42 121 42q50 0 107 -18l-16 -67q-44 15 -81 15q-45 0 -67.5 -21.5t-22.5 -72.5v-551h-81v415h-86v57z" />
    <glyph glyph-name="ldot" unicode="&#x140;" horiz-adv-x="267" 
d="M150 705v-571q0 -38 7.5 -53.5t30.5 -15.5q11 0 22.5 2t28.5 7l10 -68q-19 -6 -37 -8.5t-35 -2.5q-60 0 -84 33t-24 105v572h81zM190 353q0 29 14.5 41t39.5 12t39.5 -12t14.5 -41v-7q0 -29 -14.5 -41t-39.5 -12t-39.5 12t-14.5 41v7z" />
    <glyph glyph-name="nacute" unicode="&#x144;" horiz-adv-x="524" 
d="M126 488l17 -41q32 21 66 33t73 12q44 0 77.5 -13t55.5 -36q24 -25 35 -59t11 -76v-308h-81v303q0 65 -30 94q-26 25 -76 25q-30 0 -62 -10t-59 -30v-382h-81v357q0 31 -1.5 64.5t-4.5 58.5zM409 717q-13 -17 -29.5 -38t-34.5 -42.5t-35.5 -41.5t-32.5 -35h-81
q34 45 62.5 88t43.5 69h107z" />
    <glyph glyph-name="ncaron" unicode="&#x148;" horiz-adv-x="524" 
d="M126 488l17 -41q32 21 66 33t73 12q44 0 77.5 -13t55.5 -36q24 -25 35 -59t11 -76v-308h-81v303q0 65 -30 94q-26 25 -76 25q-30 0 -62 -10t-59 -30v-382h-81v357q0 31 -1.5 64.5t-4.5 58.5zM214 680q10 -10 25 -29t23 -30q8 11 23 30t25 29h95q-31 -33 -59.5 -67.5
t-43.5 -56.5h-80q-15 22 -43.5 56.5t-59.5 67.5h95z" />
    <glyph glyph-name="ntilde" unicode="&#xf1;" horiz-adv-x="524" 
d="M126 488l17 -41q32 21 66 33t73 12q44 0 77.5 -13t55.5 -36q24 -25 35 -59t11 -76v-308h-81v303q0 65 -30 94q-26 25 -76 25q-30 0 -62 -10t-59 -30v-382h-81v357q0 31 -1.5 64.5t-4.5 58.5zM105 594q12 51 38 75t59 24t66 -21l26 -16q19 -12 31 -12q21 0 36 46l57 -19
q-9 -48 -32.5 -73.5t-57.5 -25.5q-19 0 -36 7t-34 16l-20 11q-19 11 -25 13.5t-11 2.5q-11 0 -20.5 -12.5t-17.5 -33.5z" />
    <glyph glyph-name="ncommaaccent" unicode="&#x146;" horiz-adv-x="524" 
d="M126 488l17 -41q32 21 66 33t73 12q44 0 77.5 -13t55.5 -36q24 -25 35 -59t11 -76v-308h-81v303q0 65 -30 94q-26 25 -76 25q-30 0 -62 -10t-59 -30v-382h-81v357q0 31 -1.5 64.5t-4.5 58.5zM315 -74q-10 -42 -25.5 -90t-35.5 -89l-65 13q12 37 21.5 81t14.5 85h90z" />
    <glyph glyph-name="napostrophe" unicode="&#x149;" horiz-adv-x="524" 
d="M126 488l17 -41q32 21 66 33t73 12q44 0 77.5 -13t55.5 -36q24 -25 35 -59t11 -76v-308h-81v303q0 65 -30 94q-26 25 -76 25q-30 0 -62 -10t-59 -30v-382h-81v357q0 31 -1.5 64.5t-4.5 58.5zM99 692q-10 -42 -25.5 -90t-35.5 -89l-65 13q12 37 21.5 81t14.5 85h90z" />
    <glyph glyph-name="eng" unicode="&#x14b;" horiz-adv-x="524" 
d="M126 488l17 -41q32 21 66 33t73 12q44 0 77.5 -13t55.5 -36q24 -25 35 -59t11 -76v-319q0 -34 -1 -54.5t-7 -43.5q-9 -35 -35.5 -55t-67.5 -20h-4q-14 0 -33 2t-38 7l10 60q17 -2 29.5 -3t22.5 -1q19 1 27.5 6.5t11.5 19.5t3.5 32.5t0.5 44.5v319q0 65 -30 94
q-26 25 -76 25q-30 0 -62 -10t-59 -30v-382h-81v357q0 31 -1.5 64.5t-4.5 58.5z" />
    <glyph glyph-name="ograve" unicode="&#xf2;" horiz-adv-x="516" 
d="M130 225q0 -48 10.5 -79.5t29.5 -51.5q33 -34 88 -34t88 34q19 20 29.5 51.5t10.5 79.5v32q0 48 -10.5 79.5t-29.5 51.5q-33 34 -88 34t-88 -34q-19 -20 -29.5 -51.5t-10.5 -79.5v-32zM46 259q0 116 58 176q55 57 154 57t154 -57q58 -60 58 -176v-36q0 -116 -58 -176
q-55 -57 -154 -57t-154 57q-58 60 -58 176v36zM217 717q15 -26 43.5 -69t62.5 -88h-81q-15 15 -32.5 35t-35.5 41.5t-34.5 42.5t-29.5 38h107z" />
    <glyph glyph-name="oacute" unicode="&#xf3;" horiz-adv-x="516" 
d="M130 225q0 -48 10.5 -79.5t29.5 -51.5q33 -34 88 -34t88 34q19 20 29.5 51.5t10.5 79.5v32q0 48 -10.5 79.5t-29.5 51.5q-33 34 -88 34t-88 -34q-19 -20 -29.5 -51.5t-10.5 -79.5v-32zM46 259q0 116 58 176q55 57 154 57t154 -57q58 -60 58 -176v-36q0 -116 -58 -176
q-55 -57 -154 -57t-154 57q-58 60 -58 176v36zM405 717q-13 -17 -29.5 -38t-34.5 -42.5t-35.5 -41.5t-32.5 -35h-81q34 45 62.5 88t43.5 69h107z" />
    <glyph glyph-name="ocircumflex" unicode="&#xf4;" horiz-adv-x="516" 
d="M130 225q0 -48 10.5 -79.5t29.5 -51.5q33 -34 88 -34t88 34q19 20 29.5 51.5t10.5 79.5v32q0 48 -10.5 79.5t-29.5 51.5q-33 34 -88 34t-88 -34q-19 -20 -29.5 -51.5t-10.5 -79.5v-32zM46 259q0 116 58 176q55 57 154 57t154 -57q58 -60 58 -176v-36q0 -116 -58 -176
q-55 -57 -154 -57t-154 57q-58 60 -58 176v36zM297 699q15 -23 43.5 -59t59.5 -71h-95q-5 5 -11.5 13.5t-13.5 17.5t-13 17t-10 14q-4 -6 -10 -14t-13 -17t-13.5 -17.5t-11.5 -13.5h-95q31 35 59.5 71t43.5 59h80z" />
    <glyph glyph-name="otilde" unicode="&#xf5;" horiz-adv-x="516" 
d="M130 225q0 -48 10.5 -79.5t29.5 -51.5q33 -34 88 -34t88 34q19 20 29.5 51.5t10.5 79.5v32q0 48 -10.5 79.5t-29.5 51.5q-33 34 -88 34t-88 -34q-19 -20 -29.5 -51.5t-10.5 -79.5v-32zM46 259q0 116 58 176q55 57 154 57t154 -57q58 -60 58 -176v-36q0 -116 -58 -176
q-55 -57 -154 -57t-154 57q-58 60 -58 176v36zM101 594q12 51 38 75t59 24t66 -21l26 -16q19 -12 31 -12q21 0 36 46l57 -19q-9 -48 -32.5 -73.5t-57.5 -25.5q-19 0 -36 7t-34 16l-20 11q-19 11 -25 13.5t-11 2.5q-11 0 -20.5 -12.5t-17.5 -33.5z" />
    <glyph glyph-name="odieresis" unicode="&#xf6;" horiz-adv-x="516" 
d="M130 225q0 -48 10.5 -79.5t29.5 -51.5q33 -34 88 -34t88 34q19 20 29.5 51.5t10.5 79.5v32q0 48 -10.5 79.5t-29.5 51.5q-33 34 -88 34t-88 -34q-19 -20 -29.5 -51.5t-10.5 -79.5v-32zM46 259q0 116 58 176q55 57 154 57t154 -57q58 -60 58 -176v-36q0 -116 -58 -176
q-55 -57 -154 -57t-154 57q-58 60 -58 176v36zM129 638q0 29 13.5 40.5t38.5 11.5t38.5 -11.5t13.5 -40.5v-3q0 -29 -13.5 -40.5t-38.5 -11.5t-38.5 11.5t-13.5 40.5v3zM281 638q0 29 13.5 40.5t38.5 11.5t38.5 -11.5t13.5 -40.5v-3q0 -29 -13.5 -40.5t-38.5 -11.5
t-38.5 11.5t-13.5 40.5v3z" />
    <glyph glyph-name="omacron" unicode="&#x14d;" horiz-adv-x="516" 
d="M130 225q0 -48 10.5 -79.5t29.5 -51.5q33 -34 88 -34t88 34q19 20 29.5 51.5t10.5 79.5v32q0 48 -10.5 79.5t-29.5 51.5q-33 34 -88 34t-88 -34q-19 -20 -29.5 -51.5t-10.5 -79.5v-32zM46 259q0 116 58 176q55 57 154 57t154 -57q58 -60 58 -176v-36q0 -116 -58 -176
q-55 -57 -154 -57t-154 57q-58 60 -58 176v36zM393 658v-68h-271v68h271z" />
    <glyph glyph-name="obreve" unicode="&#x14f;" horiz-adv-x="516" 
d="M130 225q0 -48 10.5 -79.5t29.5 -51.5q33 -34 88 -34t88 34q19 20 29.5 51.5t10.5 79.5v32q0 48 -10.5 79.5t-29.5 51.5q-33 34 -88 34t-88 -34q-19 -20 -29.5 -51.5t-10.5 -79.5v-32zM46 259q0 116 58 176q55 57 154 57t154 -57q58 -60 58 -176v-36q0 -116 -58 -176
q-55 -57 -154 -57t-154 57q-58 60 -58 176v36zM203 679q3 -25 17.5 -38t34.5 -13h4q20 0 34.5 13t17.5 38h71q-3 -51 -36 -83.5t-85 -32.5h-8q-52 0 -85 32.5t-36 83.5h71z" />
    <glyph glyph-name="ohungarumlaut" unicode="&#x151;" horiz-adv-x="516" 
d="M130 225q0 -48 10.5 -79.5t29.5 -51.5q33 -34 88 -34t88 34q19 20 29.5 51.5t10.5 79.5v32q0 48 -10.5 79.5t-29.5 51.5q-33 34 -88 34t-88 -34q-19 -20 -29.5 -51.5t-10.5 -79.5v-32zM46 259q0 116 58 176q55 57 154 57t154 -57q58 -60 58 -176v-36q0 -116 -58 -176
q-55 -57 -154 -57t-154 57q-58 60 -58 176v36zM312 689q-23 -38 -50.5 -77t-49.5 -66h-77q24 38 45 76t35 67h97zM459 689q-23 -38 -50.5 -77t-49.5 -66h-77q24 38 45 76t35 67h97z" />
    <glyph glyph-name="oslash" unicode="&#xf8;" horiz-adv-x="516" 
d="M46 259q0 116 58 176q55 57 154 57q69 0 118 -29l37 53l51 -37l-41 -58q47 -59 47 -162v-36q0 -116 -58 -176q-55 -57 -154 -57q-68 0 -118 28l-37 -52l-51 37l40 57q-46 60 -46 163v36zM130 225q0 -29 3.5 -51t10.5 -40l188 266q-31 22 -74 22q-55 0 -88 -34
q-19 -20 -29.5 -51.5t-10.5 -79.5v-32zM184 81q30 -21 74 -21q55 0 88 34q19 20 29.5 51.5t10.5 79.5v32q0 55 -15 90z" />
    <glyph glyph-name="oslashacute" unicode="&#x1ff;" horiz-adv-x="517" 
d="M46 259q0 116 58 176q55 57 154 57q69 0 118 -29l37 53l51 -37l-41 -58q47 -59 47 -162v-36q0 -116 -58 -176q-55 -57 -154 -57q-68 0 -118 28l-37 -52l-51 37l40 57q-46 60 -46 163v36zM130 225q0 -29 3.5 -51t10.5 -40l188 266q-31 22 -74 22q-55 0 -88 -34
q-19 -20 -29.5 -51.5t-10.5 -79.5v-32zM184 81q30 -21 74 -21q55 0 88 34q19 20 29.5 51.5t10.5 79.5v32q0 55 -15 90zM405 717q-13 -17 -29.5 -38t-34.5 -42.5t-35.5 -41.5t-32.5 -35h-81q34 45 62.5 88t43.5 69h107z" />
    <glyph glyph-name="oe" unicode="&#x153;" horiz-adv-x="833" 
d="M130 225q0 -48 10.5 -79.5t29.5 -51.5q33 -34 88 -34t88 34q19 20 29.5 51.5t10.5 79.5v32q0 48 -10.5 79.5t-29.5 51.5q-33 34 -88 34t-88 -34q-19 -20 -29.5 -51.5t-10.5 -79.5v-32zM598 425q-63 0 -93.5 -37.5t-34.5 -97.5h238v16q0 63 -25.5 91t-78.5 28h-6zM46 259
q0 116 58 176q55 57 154 57q56 0 100 -19t72 -61q27 38 70 59t100 21h5q89 0 134 -46q26 -26 38 -65t12 -102v-56h-319q3 -87 40 -124t106 -37h5q32 0 71.5 8t67.5 19l21 -64q-28 -14 -73.5 -24.5t-93.5 -10.5h-6q-122 0 -178 80q-28 -42 -72 -61t-100 -19q-99 0 -154 57
q-58 60 -58 176v36z" />
    <glyph glyph-name="thorn" unicode="&#xfe;" horiz-adv-x="519" 
d="M153 705v-252q32 20 64.5 29.5t64.5 9.5q49 0 85 -17t59.5 -47.5t35 -73t11.5 -93.5v-33q0 -54 -14.5 -98t-43 -75t-71 -48t-98.5 -17q-21 0 -44.5 3.5t-48.5 9.5v-217h-81v919h81zM153 71q23 -6 47 -8.5t43 -2.5q70 0 108 39.5t38 130.5v29q0 89 -33.5 126t-87.5 37
q-27 0 -56.5 -10.5t-58.5 -30.5v-310z" />
    <glyph glyph-name="racute" unicode="&#x155;" horiz-adv-x="331" 
d="M126 488l17 -44q32 26 65 37t68 11q23 0 43 -4v-72q-25 5 -45 5q-32 0 -62.5 -11t-58.5 -31v-379h-81v357q0 31 -1.5 64.5t-4.5 58.5zM293 717q-13 -17 -29.5 -38t-34.5 -42.5t-35.5 -41.5t-32.5 -35h-81q34 45 62.5 88t43.5 69h107z" />
    <glyph glyph-name="rcaron" unicode="&#x159;" horiz-adv-x="331" 
d="M126 488l17 -44q32 26 65 37t68 11q23 0 43 -4v-72q-25 5 -45 5q-32 0 -62.5 -11t-58.5 -31v-379h-81v357q0 31 -1.5 64.5t-4.5 58.5zM143 680q10 -10 25 -29t23 -30q8 11 23 30t25 29h95q-31 -33 -59.5 -67.5t-43.5 -56.5h-80q-15 22 -43.5 56.5t-59.5 67.5h95z" />
    <glyph glyph-name="rcommaaccent" unicode="&#x157;" horiz-adv-x="331" 
d="M126 488l17 -44q32 26 65 37t68 11q23 0 43 -4v-72q-25 5 -45 5q-32 0 -62.5 -11t-58.5 -31v-379h-81v357q0 31 -1.5 64.5t-4.5 58.5zM166 -74q-10 -42 -25.5 -90t-35.5 -89l-65 13q12 37 21.5 81t14.5 85h90z" />
    <glyph glyph-name="sacute" unicode="&#x15b;" horiz-adv-x="389" 
d="M316 404q-54 18 -107 18q-51 0 -71 -17t-20 -46q0 -31 18 -46.5t56 -26.5l26 -8q40 -12 67 -25t43.5 -29.5t23.5 -38.5t7 -53q0 -63 -45.5 -102.5t-131.5 -39.5q-35 0 -73 7.5t-77 24.5l14 68q35 -15 71 -21.5t66 -6.5q51 0 73.5 18t22.5 50q0 30 -20 45.5t-65 29.5
l-26 8q-38 12 -63.5 25.5t-40.5 31t-21.5 38t-6.5 46.5q0 66 44 102t124 36q29 0 61.5 -4.5t66.5 -14.5zM308 717q-13 -17 -29.5 -38t-34.5 -42.5t-35.5 -41.5t-32.5 -35h-81q34 45 62.5 88t43.5 69h107z" />
    <glyph glyph-name="scircumflex" unicode="&#x15d;" horiz-adv-x="389" 
d="M316 404q-54 18 -107 18q-51 0 -71 -17t-20 -46q0 -31 18 -46.5t56 -26.5l26 -8q40 -12 67 -25t43.5 -29.5t23.5 -38.5t7 -53q0 -63 -45.5 -102.5t-131.5 -39.5q-35 0 -73 7.5t-77 24.5l14 68q35 -15 71 -21.5t66 -6.5q51 0 73.5 18t22.5 50q0 30 -20 45.5t-65 29.5
l-26 8q-38 12 -63.5 25.5t-40.5 31t-21.5 38t-6.5 46.5q0 66 44 102t124 36q29 0 61.5 -4.5t66.5 -14.5zM232 699q15 -23 43.5 -59t59.5 -71h-95q-5 5 -11.5 13.5t-13.5 17.5t-13 17t-10 14q-4 -6 -10 -14t-13 -17t-13.5 -17.5t-11.5 -13.5h-95q31 35 59.5 71t43.5 59h80z
" />
    <glyph glyph-name="scaron" unicode="&#x161;" horiz-adv-x="389" 
d="M316 404q-54 18 -107 18q-51 0 -71 -17t-20 -46q0 -31 18 -46.5t56 -26.5l26 -8q40 -12 67 -25t43.5 -29.5t23.5 -38.5t7 -53q0 -63 -45.5 -102.5t-131.5 -39.5q-35 0 -73 7.5t-77 24.5l14 68q35 -15 71 -21.5t66 -6.5q51 0 73.5 18t22.5 50q0 30 -20 45.5t-65 29.5
l-26 8q-38 12 -63.5 25.5t-40.5 31t-21.5 38t-6.5 46.5q0 66 44 102t124 36q29 0 61.5 -4.5t66.5 -14.5zM144 680q10 -10 25 -29t23 -30q8 11 23 30t25 29h95q-31 -33 -59.5 -67.5t-43.5 -56.5h-80q-15 22 -43.5 56.5t-59.5 67.5h95z" />
    <glyph glyph-name="scedilla" unicode="&#x15f;" horiz-adv-x="389" 
d="M316 404q-54 18 -107 18q-51 0 -71 -17t-20 -46q0 -31 18 -46.5t56 -26.5l26 -8q40 -12 67 -25t43.5 -29.5t23.5 -38.5t7 -53q0 -59 -40 -97.5t-116 -43.5l-12 -38q15 4 32 4q38 0 64 -20.5t26 -63.5v-4q0 -44 -30 -68t-83 -24q-23 0 -51.5 7t-58.5 21l18 57
q52 -22 92 -22q24 0 33 7.5t9 19.5v2q0 12 -9.5 19t-34.5 7q-11 0 -27 -1.5t-29 -4.5l-27 22l26 82q-26 3 -53.5 10t-55.5 19l14 68q35 -15 71 -21.5t66 -6.5q51 0 73.5 18t22.5 50q0 30 -20 45.5t-65 29.5l-26 8q-38 12 -63.5 25.5t-40.5 31t-21.5 38t-6.5 46.5
q0 66 44 102t124 36q29 0 61.5 -4.5t66.5 -14.5z" />
    <glyph glyph-name="scommaaccent" unicode="&#x219;" horiz-adv-x="389" 
d="M316 404q-54 18 -107 18q-51 0 -71 -17t-20 -46q0 -31 18 -46.5t56 -26.5l26 -8q40 -12 67 -25t43.5 -29.5t23.5 -38.5t7 -53q0 -63 -45.5 -102.5t-131.5 -39.5q-35 0 -73 7.5t-77 24.5l14 68q35 -15 71 -21.5t66 -6.5q51 0 73.5 18t22.5 50q0 30 -20 45.5t-65 29.5
l-26 8q-38 12 -63.5 25.5t-40.5 31t-21.5 38t-6.5 46.5q0 66 44 102t124 36q29 0 61.5 -4.5t66.5 -14.5zM253 -74q-10 -42 -25.5 -90t-35.5 -89l-65 13q12 37 21.5 81t14.5 85h90z" />
    <glyph glyph-name="germandbls" unicode="&#xdf;" horiz-adv-x="578" 
d="M153 -81h-81v544q0 119 55.5 172t164.5 53q97 0 148.5 -48.5t51.5 -130.5q0 -40 -13.5 -75.5t-50.5 -58.5q56 -17 83 -61.5t27 -115.5q0 -45 -12 -83.5t-37 -66t-63.5 -43t-92.5 -15.5q-32 0 -69 7t-77 24l14 65q38 -14 70.5 -20t59.5 -6q63 0 92.5 33t29.5 101
q0 34 -7.5 58t-21.5 39t-33 21.5t-45 6.5h-98l-6 71h105q26 15 43.5 44t17.5 73q0 58 -30 84.5t-86 26.5q-73 0 -106 -37t-33 -122v-540z" />
    <glyph glyph-name="tcaron" unicode="&#x165;" horiz-adv-x="349" 
d="M175 624v-142h134l-11 -67h-123v-268q0 -51 14 -68t49 -17t82 17l17 -63q-29 -14 -58 -20t-55 -6q-29 0 -52 7.5t-40 23.5q-19 17 -28.5 45t-9.5 76v273h-86v57l86 10l8 142h73zM347 705q-10 -42 -25.5 -90t-35.5 -89l-65 13q12 37 21.5 81t14.5 85h90z" />
    <glyph glyph-name="tcommaaccent" unicode="&#x163;" horiz-adv-x="349" 
d="M175 624v-142h134l-11 -67h-123v-268q0 -51 14 -68t49 -17t82 17l17 -63q-29 -14 -58 -20t-55 -6q-29 0 -52 7.5t-40 23.5q-19 17 -28.5 45t-9.5 76v273h-86v57l86 10l8 142h73zM239 -74q-10 -42 -25.5 -90t-35.5 -89l-65 13q12 37 21.5 81t14.5 85h90z" />
    <glyph glyph-name="uni021B" unicode="&#x21b;" horiz-adv-x="349" 
d="M175 624v-142h134l-11 -67h-123v-268q0 -51 14 -68t49 -17t82 17l17 -63q-29 -14 -58 -20t-55 -6q-29 0 -52 7.5t-40 23.5q-19 17 -28.5 45t-9.5 76v273h-86v57l86 10l8 142h73zM239 -74q-10 -42 -25.5 -90t-35.5 -89l-65 13q12 37 21.5 81t14.5 85h90z" />
    <glyph glyph-name="tbar" unicode="&#x167;" horiz-adv-x="349" 
d="M175 624v-142h134l-11 -67h-123v-123h125l-11 -67h-114v-78q0 -51 14 -68t49 -17t82 17l17 -63q-29 -14 -58 -20t-55 -6q-29 0 -52 7.5t-40 23.5q-19 17 -28.5 45t-9.5 76v83h-81v67h81v123h-86v57l86 10l8 142h73z" />
    <glyph glyph-name="ugrave" unicode="&#xf9;" horiz-adv-x="522" 
d="M144 482v-303q0 -65 29 -94q26 -25 76 -25q30 0 62 10t58 30v382h81v-357q0 -31 1.5 -64.5t4.5 -58.5l-60 -8l-17 41q-31 -21 -65 -33t-73 -12q-44 0 -77 13t-55 36q-24 25 -35 59t-11 76v308h81zM221 717q15 -26 43.5 -69t62.5 -88h-81q-15 15 -32.5 35t-35.5 41.5
t-34.5 42.5t-29.5 38h107z" />
    <glyph glyph-name="uacute" unicode="&#xfa;" horiz-adv-x="522" 
d="M144 482v-303q0 -65 29 -94q26 -25 76 -25q30 0 62 10t58 30v382h81v-357q0 -31 1.5 -64.5t4.5 -58.5l-60 -8l-17 41q-31 -21 -65 -33t-73 -12q-44 0 -77 13t-55 36q-24 25 -35 59t-11 76v308h81zM399 717q-13 -17 -29.5 -38t-34.5 -42.5t-35.5 -41.5t-32.5 -35h-81
q34 45 62.5 88t43.5 69h107z" />
    <glyph glyph-name="ucircumflex" unicode="&#xfb;" horiz-adv-x="522" 
d="M144 482v-303q0 -65 29 -94q26 -25 76 -25q30 0 62 10t58 30v382h81v-357q0 -31 1.5 -64.5t4.5 -58.5l-60 -8l-17 41q-31 -21 -65 -33t-73 -12q-44 0 -77 13t-55 36q-24 25 -35 59t-11 76v308h81zM302 699q15 -23 43.5 -59t59.5 -71h-95q-5 5 -11.5 13.5t-13.5 17.5
t-13 17t-10 14q-4 -6 -10 -14t-13 -17t-13.5 -17.5t-11.5 -13.5h-95q31 35 59.5 71t43.5 59h80z" />
    <glyph glyph-name="utilde" unicode="&#x169;" horiz-adv-x="522" 
d="M144 482v-303q0 -65 29 -94q26 -25 76 -25q30 0 62 10t58 30v382h81v-357q0 -31 1.5 -64.5t4.5 -58.5l-60 -8l-17 41q-31 -21 -65 -33t-73 -12q-44 0 -77 13t-55 36q-24 25 -35 59t-11 76v308h81zM105 594q12 51 38 75t59 24t66 -21l26 -16q19 -12 31 -12q21 0 36 46
l57 -19q-9 -48 -32.5 -73.5t-57.5 -25.5q-19 0 -36 7t-34 16l-20 11q-19 11 -25 13.5t-11 2.5q-11 0 -20.5 -12.5t-17.5 -33.5z" />
    <glyph glyph-name="udieresis" unicode="&#xfc;" horiz-adv-x="522" 
d="M144 482v-303q0 -65 29 -94q26 -25 76 -25q30 0 62 10t58 30v382h81v-357q0 -31 1.5 -64.5t4.5 -58.5l-60 -8l-17 41q-31 -21 -65 -33t-73 -12q-44 0 -77 13t-55 36q-24 25 -35 59t-11 76v308h81zM134 638q0 29 13.5 40.5t38.5 11.5t38.5 -11.5t13.5 -40.5v-3
q0 -29 -13.5 -40.5t-38.5 -11.5t-38.5 11.5t-13.5 40.5v3zM286 638q0 29 13.5 40.5t38.5 11.5t38.5 -11.5t13.5 -40.5v-3q0 -29 -13.5 -40.5t-38.5 -11.5t-38.5 11.5t-13.5 40.5v3z" />
    <glyph glyph-name="umacron" unicode="&#x16b;" horiz-adv-x="522" 
d="M144 482v-303q0 -65 29 -94q26 -25 76 -25q30 0 62 10t58 30v382h81v-357q0 -31 1.5 -64.5t4.5 -58.5l-60 -8l-17 41q-31 -21 -65 -33t-73 -12q-44 0 -77 13t-55 36q-24 25 -35 59t-11 76v308h81zM397 658v-68h-271v68h271z" />
    <glyph glyph-name="ubreve" unicode="&#x16d;" horiz-adv-x="522" 
d="M144 482v-303q0 -65 29 -94q26 -25 76 -25q30 0 62 10t58 30v382h81v-357q0 -31 1.5 -64.5t4.5 -58.5l-60 -8l-17 41q-31 -21 -65 -33t-73 -12q-44 0 -77 13t-55 36q-24 25 -35 59t-11 76v308h81zM208 679q3 -25 17.5 -38t34.5 -13h4q20 0 34.5 13t17.5 38h71
q-3 -51 -36 -83.5t-85 -32.5h-8q-52 0 -85 32.5t-36 83.5h71z" />
    <glyph glyph-name="uring" unicode="&#x16f;" horiz-adv-x="522" 
d="M144 482v-303q0 -65 29 -94q26 -25 76 -25q30 0 62 10t58 30v382h81v-357q0 -31 1.5 -64.5t4.5 -58.5l-60 -8l-17 41q-31 -21 -65 -33t-73 -12q-44 0 -77 13t-55 36q-24 25 -35 59t-11 76v308h81zM290 626q0 28 -28 28t-28 -28t28 -28t28 28zM349 626q0 -39 -24.5 -62.5
t-62.5 -23.5t-62.5 23.5t-24.5 62.5t24.5 62.5t62.5 23.5t62.5 -23.5t24.5 -62.5z" />
    <glyph glyph-name="uhungarumlaut" unicode="&#x171;" horiz-adv-x="522" 
d="M144 482v-303q0 -65 29 -94q26 -25 76 -25q30 0 62 10t58 30v382h81v-357q0 -31 1.5 -64.5t4.5 -58.5l-60 -8l-17 41q-31 -21 -65 -33t-73 -12q-44 0 -77 13t-55 36q-24 25 -35 59t-11 76v308h81zM297 689q-23 -38 -50.5 -77t-49.5 -66h-77q24 38 45 76t35 67h97z
M444 689q-23 -38 -50.5 -77t-49.5 -66h-77q24 38 45 76t35 67h97z" />
    <glyph glyph-name="uogonek" unicode="&#x173;" horiz-adv-x="522" 
d="M144 482v-303q0 -65 29 -94q26 -25 76 -25q30 0 62 10t58 30v382h81v-357q0 -31 1.5 -65.5t4.5 -59.5q-50 -23 -66.5 -43.5t-16.5 -38.5q0 -31 35 -31q24 0 57 13l17 -56q-46 -20 -86 -20q-48 0 -73 25q-22 22 -22 55q0 32 19.5 59.5t67.5 49.5l-9 22q-31 -21 -65 -33
t-73 -12q-44 0 -77 13t-55 36q-24 25 -35 59t-11 76v308h81z" />
    <glyph glyph-name="wgrave" unicode="&#x1e81;" horiz-adv-x="717" 
d="M92 482q36 -132 64 -225t54 -165q17 56 32.5 109.5t29 100.5t23.5 86t17 68l3 13h82l3 -13q6 -26 16.5 -65t24.5 -87t30.5 -102.5t34.5 -111.5q21 59 51.5 155.5t68.5 236.5h81q-38 -133 -76.5 -250t-84.5 -232h-84q-31 90 -57.5 179.5t-48.5 171.5q-22 -84 -47.5 -173
t-54.5 -178h-84q-47 114 -86 232t-74 250h82zM306 717q15 -26 43.5 -69t62.5 -88h-81q-15 15 -32.5 35t-35.5 41.5t-34.5 42.5t-29.5 38h107z" />
    <glyph glyph-name="wacute" unicode="&#x1e83;" horiz-adv-x="717" 
d="M92 482q36 -132 64 -225t54 -165q17 56 32.5 109.5t29 100.5t23.5 86t17 68l3 13h82l3 -13q6 -26 16.5 -65t24.5 -87t30.5 -102.5t34.5 -111.5q21 59 51.5 155.5t68.5 236.5h81q-38 -133 -76.5 -250t-84.5 -232h-84q-31 90 -57.5 179.5t-48.5 171.5q-22 -84 -47.5 -173
t-54.5 -178h-84q-47 114 -86 232t-74 250h82zM497 717q-13 -17 -29.5 -38t-34.5 -42.5t-35.5 -41.5t-32.5 -35h-81q34 45 62.5 88t43.5 69h107z" />
    <glyph glyph-name="wcircumflex" unicode="&#x175;" horiz-adv-x="717" 
d="M92 482q36 -132 64 -225t54 -165q17 56 32.5 109.5t29 100.5t23.5 86t17 68l3 13h82l3 -13q6 -26 16.5 -65t24.5 -87t30.5 -102.5t34.5 -111.5q21 59 51.5 155.5t68.5 236.5h81q-38 -133 -76.5 -250t-84.5 -232h-84q-31 90 -57.5 179.5t-48.5 171.5q-22 -84 -47.5 -173
t-54.5 -178h-84q-47 114 -86 232t-74 250h82zM392 699q15 -23 43.5 -59t59.5 -71h-95q-5 5 -11.5 13.5t-13.5 17.5t-13 17t-10 14q-4 -6 -10 -14t-13 -17t-13.5 -17.5t-11.5 -13.5h-95q31 35 59.5 71t43.5 59h80z" />
    <glyph glyph-name="wdieresis" unicode="&#x1e85;" horiz-adv-x="717" 
d="M92 482q36 -132 64 -225t54 -165q17 56 32.5 109.5t29 100.5t23.5 86t17 68l3 13h82l3 -13q6 -26 16.5 -65t24.5 -87t30.5 -102.5t34.5 -111.5q21 59 51.5 155.5t68.5 236.5h81q-38 -133 -76.5 -250t-84.5 -232h-84q-31 90 -57.5 179.5t-48.5 171.5q-22 -84 -47.5 -173
t-54.5 -178h-84q-47 114 -86 232t-74 250h82zM224 638q0 29 13.5 40.5t38.5 11.5t38.5 -11.5t13.5 -40.5v-3q0 -29 -13.5 -40.5t-38.5 -11.5t-38.5 11.5t-13.5 40.5v3zM376 638q0 29 13.5 40.5t38.5 11.5t38.5 -11.5t13.5 -40.5v-3q0 -29 -13.5 -40.5t-38.5 -11.5
t-38.5 11.5t-13.5 40.5v3z" />
    <glyph glyph-name="ygrave" unicode="&#x1ef3;" horiz-adv-x="474" 
d="M103 482q14 -50 31 -106.5t35 -113t36 -109t33 -94.5q32 78 67.5 187t68.5 236h83q-18 -65 -37 -126.5t-40.5 -123.5t-46.5 -127.5t-55 -138.5q-21 -51 -39.5 -87t-38 -58.5t-42 -32.5t-51.5 -10q-22 0 -36.5 2.5t-26.5 6.5l8 67q27 -8 47 -8q30 0 49.5 23.5t42.5 79.5
l8 19q-51 118 -95.5 246t-84.5 268h84zM196 717q15 -26 43.5 -69t62.5 -88h-81q-15 15 -32.5 35t-35.5 41.5t-34.5 42.5t-29.5 38h107z" />
    <glyph glyph-name="yacute" unicode="&#xfd;" horiz-adv-x="474" 
d="M103 482q14 -50 31 -106.5t35 -113t36 -109t33 -94.5q32 78 67.5 187t68.5 236h83q-18 -65 -37 -126.5t-40.5 -123.5t-46.5 -127.5t-55 -138.5q-21 -51 -39.5 -87t-38 -58.5t-42 -32.5t-51.5 -10q-22 0 -36.5 2.5t-26.5 6.5l8 67q27 -8 47 -8q30 0 49.5 23.5t42.5 79.5
l8 19q-51 118 -95.5 246t-84.5 268h84zM384 717q-13 -17 -29.5 -38t-34.5 -42.5t-35.5 -41.5t-32.5 -35h-81q34 45 62.5 88t43.5 69h107z" />
    <glyph glyph-name="ycircumflex" unicode="&#x177;" horiz-adv-x="467" 
d="M103 482q14 -50 31 -106.5t35 -113t36 -109t33 -94.5q32 78 67.5 187t68.5 236h83q-18 -65 -37 -126.5t-40.5 -123.5t-46.5 -127.5t-55 -138.5q-21 -51 -39.5 -87t-38 -58.5t-42 -32.5t-51.5 -10q-22 0 -36.5 2.5t-26.5 6.5l8 67q27 -8 47 -8q30 0 49.5 23.5t42.5 79.5
l8 19q-51 118 -95.5 246t-84.5 268h84zM277 699q15 -23 43.5 -59t59.5 -71h-95q-5 5 -11.5 13.5t-13.5 17.5t-13 17t-10 14q-4 -6 -10 -14t-13 -17t-13.5 -17.5t-11.5 -13.5h-95q31 35 59.5 71t43.5 59h80z" />
    <glyph glyph-name="ydieresis" unicode="&#xff;" horiz-adv-x="474" 
d="M103 482q14 -50 31 -106.5t35 -113t36 -109t33 -94.5q32 78 67.5 187t68.5 236h83q-18 -65 -37 -126.5t-40.5 -123.5t-46.5 -127.5t-55 -138.5q-21 -51 -39.5 -87t-38 -58.5t-42 -32.5t-51.5 -10q-22 0 -36.5 2.5t-26.5 6.5l8 67q27 -8 47 -8q30 0 49.5 23.5t42.5 79.5
l8 19q-51 118 -95.5 246t-84.5 268h84zM109 638q0 29 13.5 40.5t38.5 11.5t38.5 -11.5t13.5 -40.5v-3q0 -29 -13.5 -40.5t-38.5 -11.5t-38.5 11.5t-13.5 40.5v3zM261 638q0 29 13.5 40.5t38.5 11.5t38.5 -11.5t13.5 -40.5v-3q0 -29 -13.5 -40.5t-38.5 -11.5t-38.5 11.5
t-13.5 40.5v3z" />
    <glyph glyph-name="zacute" unicode="&#x17a;" horiz-adv-x="446" 
d="M403 482l6 -49l-273 -364h275l-8 -69h-370v54l267 359h-259l-7 69h369zM360 717q-13 -17 -29.5 -38t-34.5 -42.5t-35.5 -41.5t-32.5 -35h-81q34 45 62.5 88t43.5 69h107z" />
    <glyph glyph-name="zcaron" unicode="&#x17e;" horiz-adv-x="446" 
d="M403 482l6 -49l-273 -364h275l-8 -69h-370v54l267 359h-259l-7 69h369zM185 680q10 -10 25 -29t23 -30q8 11 23 30t25 29h95q-31 -33 -59.5 -67.5t-43.5 -56.5h-80q-15 22 -43.5 56.5t-59.5 67.5h95z" />
    <glyph glyph-name="zdotaccent" unicode="&#x17c;" horiz-adv-x="446" 
d="M403 482l6 -49l-273 -364h275l-8 -69h-370v54l267 359h-259l-7 69h369zM168 640q0 29 14.5 41t39.5 12t39.5 -12t14.5 -41v-7q0 -29 -14.5 -41t-39.5 -12t-39.5 12t-14.5 41v7z" />
    <glyph glyph-name="apple" unicode="&#xf8ff;" horiz-adv-x="591" 
d="M491 528v-65h-196v-65h196v-196h-261v65h196v66h-196v195h261zM491 659v-65h-326v-529h73v-65h-138v659h391z" />
    <glyph glyph-name="zero.slash" 
d="M44 362q0 85 18 149t54 104q34 37 77 55t103 18t103 -18t77 -55q36 -40 54 -104t18 -149v-46q0 -85 -18 -149t-54 -104q-34 -37 -77 -55t-103 -18t-103 18t-77 55q-36 40 -54 104t-18 149v46zM185 108q22 -23 49 -32t62 -9q37 0 65 10.5t50 36.5q28 33 38.5 88.5
t10.5 117.5v38q0 36 -3.5 71t-11.5 65zM132 320q0 -37 3.5 -72t11.5 -65l259 386q-21 23 -48 32.5t-62 9.5q-37 0 -65 -10.5t-50 -36.5q-14 -17 -23.5 -39.5t-15 -49.5t-8 -56.5t-2.5 -60.5v-38z" />
    <glyph glyph-name="zero.lprop" horiz-adv-x="632" 
d="M64 362q0 85 18 149t54 104q34 37 77 55t103 18t103 -18t77 -55q36 -40 54 -104t18 -149v-46q0 -85 -18 -149t-54 -104q-34 -37 -77 -55t-103 -18t-103 18t-77 55q-36 40 -54 104t-18 149v46zM152 320q0 -31 2.5 -60.5t8 -56.5t15 -50t23.5 -39q22 -26 50 -36.5t65 -10.5
t65 10.5t50 36.5q28 33 38.5 88.5t10.5 117.5v38q0 31 -2.5 60.5t-8 56.5t-15 49.5t-23.5 39.5q-22 26 -50 36.5t-65 10.5t-65 -10.5t-50 -36.5q-14 -17 -23.5 -39.5t-15 -49.5t-8 -56.5t-2.5 -60.5v-38z" />
    <glyph glyph-name="one.lprop" horiz-adv-x="494" 
d="M36 600q57 13 108.5 32.5t96.5 45.5h57v-606h170l-7 -72h-425v72h175v506q-27 -12 -69 -25t-91 -23z" />
    <glyph glyph-name="two.lprop" horiz-adv-x="542" 
d="M42 633q57 28 110 41.5t101 13.5t88.5 -13.5t70 -39.5t45.5 -64.5t16 -88.5q0 -33 -10 -67.5t-33 -73t-61.5 -81.5t-95.5 -93l-108 -95h315l-14 -72h-426v57l170 152q36 32 67.5 65t55 66.5t37 67.5t13.5 69q0 66 -36.5 100t-96.5 34q-37 0 -82.5 -11.5t-99.5 -36.5z" />
    <glyph glyph-name="three.lprop" horiz-adv-x="550" 
d="M56 642q43 21 97 33.5t108 12.5q43 0 80 -10.5t64 -31.5t42.5 -54t15.5 -78q0 -50 -20.5 -86t-49.5 -59q48 -17 74.5 -56.5t26.5 -105.5q0 -44 -15.5 -83.5t-46.5 -69t-78 -47t-110 -17.5q-52 0 -109.5 12t-102.5 35l25 67q35 -16 86.5 -26.5t102.5 -10.5q34 0 64.5 8.5
t51.5 25.5q43 35 43 101q0 57 -33 88q-17 17 -40.5 22t-68.5 5h-92v71h136q33 20 50.5 53.5t17.5 72.5q0 47 -32 72t-88 25q-38 0 -81.5 -9.5t-94.5 -29.5z" />
    <glyph glyph-name="four.lprop" horiz-adv-x="622" 
d="M477 678v-467h105l-5 -74h-100v-137h-86v137h-324l-21 47q72 149 152.5 271.5t164.5 222.5h114zM391 211v380q-30 -36 -63 -82t-65 -97t-61.5 -103t-52.5 -98h242z" />
    <glyph glyph-name="five.lprop" horiz-adv-x="566" 
d="M464 678l-13 -75h-269l-16 -192q61 13 117 13q51 0 93 -11.5t72 -37t46 -66t16 -98.5q0 -48 -14.5 -89t-44.5 -70t-75.5 -45.5t-108.5 -16.5q-54 0 -107.5 11.5t-105.5 36.5l26 70q39 -20 86 -30.5t92 -10.5q89 0 126.5 35.5t37.5 106.5q0 40 -9 67t-27 43t-45.5 22.5
t-64.5 6.5q-33 0 -71.5 -5t-86.5 -16l-35 29l24 320q19 1 43.5 1.5t38.5 0.5h275z" />
    <glyph glyph-name="six.lprop" horiz-adv-x="588" 
d="M64 362q0 167 84 253q35 35 83 54t111 19q41 0 83.5 -10t85.5 -31l-27 -69q-68 33 -140 33q-83 0 -132 -50.5t-58 -168.5q85 41 173 41q98 0 154.5 -51.5t56.5 -162.5q0 -52 -15 -94.5t-43.5 -72.5t-71 -46t-96.5 -16q-69 0 -115.5 25.5t-75.5 68.5q-34 50 -45.5 114.5
t-11.5 149.5v14zM153 314q0 -62 8 -106.5t28 -75.5q40 -65 124 -65q69 0 102.5 35.5t33.5 114.5t-31.5 109.5t-99.5 30.5q-41 0 -84.5 -11t-80.5 -32z" />
    <glyph glyph-name="seven.lprop" horiz-adv-x="560" 
d="M517 678l10 -39q-32 -78 -69.5 -161.5t-78 -166t-82.5 -162t-83 -149.5h-107q54 85 101.5 169.5t87.5 162.5t71.5 147t53.5 124h-373l-8 75h477z" />
    <glyph glyph-name="eight.lprop" horiz-adv-x="598" 
d="M148 361q-34 23 -54.5 57.5t-20.5 82.5q0 41 15.5 75.5t44.5 59t71.5 38.5t96.5 14q49 0 90 -11t70.5 -34t46 -57.5t16.5 -80.5q0 -49 -21.5 -88.5t-62.5 -68.5q53 -23 80.5 -63t27.5 -93q0 -47 -18.5 -84t-51 -63.5t-78 -40.5t-99.5 -14q-64 0 -111 16t-78 44t-46.5 65
t-15.5 79q0 57 28 100.5t70 66.5zM359 372q39 25 57.5 58t18.5 73q0 54 -35.5 81t-98.5 27q-66 0 -102.5 -28.5t-36.5 -79.5q0 -47 29 -71.5t76 -37.5q30 -8 51.5 -13t40.5 -9zM224 326q-16 -8 -31 -20t-27 -29t-19.5 -38.5t-7.5 -46.5q0 -57 42 -91t120 -34q72 0 115 30.5
t43 90.5q0 23 -7.5 40t-21 29.5t-31.5 20.5t-38 13q-44 11 -82.5 20.5t-54.5 14.5z" />
    <glyph glyph-name="nine.lprop" horiz-adv-x="593" 
d="M114 101q38 -17 77.5 -25.5t74.5 -8.5q43 0 74.5 10.5t52.5 36.5t32.5 69t14.5 108q-42 -23 -85 -33t-85 -10q-49 0 -90.5 13.5t-67.5 38.5q-62 56 -62 170q0 51 17 91t47.5 68.5t73.5 43.5t94 15q54 0 93 -14.5t67 -39.5q50 -45 68.5 -118.5t18.5 -170.5v-20
q0 -80 -14.5 -142t-46 -105t-81 -65.5t-119.5 -22.5q-42 0 -88 10t-95 33zM439 369q-1 77 -15.5 125.5t-40.5 76.5q-20 21 -45.5 30.5t-55.5 9.5q-66 0 -104.5 -36.5t-38.5 -105.5q0 -143 140 -143q39 0 79.5 10t80.5 33z" />
    <glyph glyph-name="zero.slash.lprop" horiz-adv-x="632" 
d="M64 362q0 85 18 149t54 104q34 37 77 55t103 18t103 -18t77 -55q36 -40 54 -104t18 -149v-46q0 -85 -18 -149t-54 -104q-34 -37 -77 -55t-103 -18t-103 18t-77 55q-36 40 -54 104t-18 149v46zM205 108q22 -23 49 -32t62 -9q37 0 65 10.5t50 36.5q28 33 38.5 88.5
t10.5 117.5v38q0 36 -3.5 71t-11.5 65zM152 320q0 -37 3.5 -72t11.5 -65l259 386q-21 23 -48 32.5t-62 9.5q-37 0 -65 -10.5t-50 -36.5q-14 -17 -23.5 -39.5t-15 -49.5t-8 -56.5t-2.5 -60.5v-38z" />
    </font>
</defs>
</svg>
