<?xml version="1.0" standalone="no"?>
<!DOCTYPE svg PUBLIC "-//W3C//DTD SVG 1.1//EN" "http://www.w3.org/Graphics/SVG/1.1/DTD/svg11.dtd" >
<svg xmlns="http://www.w3.org/2000/svg" xmlns:xlink="http://www.w3.org/1999/xlink" version="1.1">
<metadata>
Created by FontForge 20161003 at Mon Oct 23 07:42:44 2017
 By www-data
Copyright (c) 2012 by Fontsmith Ltd. All rights reserved.
</metadata>
<defs>
<font id="IberiaText-Italic" horiz-adv-x="593" >
  <font-face 
    font-family="Iberia Text"
    font-weight="400"
    font-style="italic"
    font-stretch="normal"
    units-per-em="1000"
    panose-1="2 0 5 6 5 0 0 9 0 4"
    ascent="750"
    descent="-250"
    x-height="482"
    cap-height="678"
    bbox="-120 -254 1192 990"
    underline-thickness="50"
    underline-position="-100"
    slope="-12"
    unicode-range="U+000D-FB04"
  />
<missing-glyph horiz-adv-x="535" 
d="M515 693v-693h-495v693h495zM268 391l168 253h-337zM297 347l169 -253v505zM99 50h337l-168 252zM70 94l168 253l-168 252v-505z" />
    <glyph glyph-name="fi" unicode="fi" horiz-adv-x="550" 
d="M517 482l-83 -482h-80l83 482h80zM136 482l7 36q10 51 23.5 82t36.5 55q29 29 72.5 44.5t100.5 15.5q32 0 63 -4.5t66 -13.5l-23 -69q-25 9 -52 13t-53 4q-37 0 -64 -8t-47 -28q-32 -32 -44 -96l-6 -31h163l-22 -67h-152l-72 -415h-80l72 415h-85l10 57z" />
    <glyph glyph-name="fl" unicode="fl" horiz-adv-x="589" 
d="M136 482l7 36q10 51 27.5 88.5t46.5 61.5t71 35.5t101 11.5q32 0 74 -3.5t86 -12.5q2 -19 0 -46.5t-10 -74.5l-78 -444q-2 -11 -3 -20t-1 -16q0 -33 34 -33q16 0 48 9l-2 -68q-20 -6 -38 -8.5t-32 -2.5q-46 0 -70 24q-21 21 -21 62q0 10 1.5 23.5t3.5 28.5l75 429
q3 17 6 39.5t5 41.5q-21 2 -39 3.5t-34 1.5q-43 0 -72.5 -7t-49.5 -23t-31.5 -42t-18.5 -63l-6 -31h163l-22 -67h-152l-72 -415h-80l72 415h-85l10 57z" />
    <glyph glyph-name="f_f" unicode="ff" horiz-adv-x="652" 
d="M136 482l14 74q7 38 18.5 64.5t31.5 46.5q46 48 137 48q49 0 102 -18l-27 -67q-41 15 -78 15q-50 0 -73.5 -23t-31.5 -71l-13 -69h231l14 74q7 38 18.5 64.5t31.5 46.5q46 48 137 48q49 0 102 -18l-27 -67q-41 15 -78 15q-50 0 -73.5 -23t-31.5 -71l-13 -69h163l-22 -67
h-152l-72 -415h-80l72 415h-231l-72 -415h-80l72 415h-85l10 57z" />
    <glyph glyph-name="f_f_i" unicode="ffi" horiz-adv-x="861" 
d="M136 482l14 74q7 38 18.5 64.5t31.5 46.5q46 48 137 48q49 0 102 -18l-27 -67q-41 15 -78 15q-50 0 -73.5 -23t-31.5 -71l-13 -69h231l7 36q10 51 23.5 82t36.5 55q29 29 72.5 44.5t100.5 15.5q32 0 63 -4.5t66 -13.5l-23 -69q-25 9 -52 13t-53 4q-37 0 -64 -8t-47 -28
q-32 -32 -44 -96l-6 -31h163l-22 -67h-152l-72 -415h-80l72 415h-231l-72 -415h-80l72 415h-85l10 57zM828 482l-83 -482h-80l83 482h80z" />
    <glyph glyph-name="f_f_l" unicode="ffl" horiz-adv-x="900" 
d="M136 482l14 74q7 38 18.5 64.5t31.5 46.5q46 48 137 48q49 0 102 -18l-27 -67q-41 15 -78 15q-50 0 -73.5 -23t-31.5 -71l-13 -69h231l7 36q10 51 27.5 88.5t46.5 61.5t71 35.5t101 11.5q32 0 74 -3.5t86 -12.5q2 -19 0 -46.5t-10 -74.5l-78 -444q-2 -11 -3 -20t-1 -16
q0 -33 34 -33q16 0 48 9l-2 -68q-20 -6 -38 -8.5t-32 -2.5q-46 0 -70 24q-21 21 -21 62q0 10 1.5 23.5t3.5 28.5l75 429q3 17 6 39.5t5 41.5q-21 2 -39 3.5t-34 1.5q-43 0 -72.5 -7t-49.5 -23t-31.5 -42t-18.5 -63l-6 -31h163l-22 -67h-152l-72 -415h-80l72 415h-231
l-72 -415h-80l72 415h-85l10 57z" />
    <glyph glyph-name=".notdef" horiz-adv-x="535" 
d="M515 693v-693h-495v693h495zM268 391l168 253h-337zM297 347l169 -253v505zM99 50h337l-168 252zM70 94l168 253l-168 252v-505z" />
    <glyph glyph-name=".null" horiz-adv-x="0" 
 />
    <glyph glyph-name=".null" horiz-adv-x="0" 
 />
    <glyph glyph-name="nonmarkingreturn" unicode="&#xd;" horiz-adv-x="194" 
 />
    <glyph glyph-name="nonbreakingspace" unicode="&#xa0;" horiz-adv-x="194" 
 />
    <glyph glyph-name="space" unicode=" " horiz-adv-x="194" 
 />
    <glyph glyph-name="A" unicode="A" horiz-adv-x="601" 
d="M429 678q16 -77 32.5 -162.5t32 -173.5t29.5 -175.5t26 -166.5h-90l-22 150h-303q-19 -39 -36.5 -77t-33.5 -73h-94q39 78 83 165t90.5 175.5t93.5 174.5t90 163h102zM426 223q-15 100 -31 193t-30 175q-44 -78 -95 -174.5t-100 -193.5h256z" />
    <glyph glyph-name="B" unicode="B" horiz-adv-x="576" 
d="M188 386h191q42 24 62 62t20 73q0 37 -20 57q-13 12 -33.5 18.5t-50.5 6.5h-131zM134 76h131q52 0 87 12t57 33q20 20 29.5 45.5t9.5 55.5q0 47 -25 68t-76 21h-172zM347 678q62 0 101.5 -12t64.5 -37q17 -17 26 -42t9 -57q0 -44 -22 -90t-68 -78q40 -13 59 -48t19 -82
q0 -46 -14 -88.5t-50 -75.5q-34 -31 -87.5 -49.5t-138.5 -18.5h-132q-20 0 -39.5 0.5t-38.5 1.5l118 674q18 1 38 1.5t40 0.5h115z" />
    <glyph glyph-name="C" unicode="C" horiz-adv-x="568" 
d="M76 354q26 153 107 239q44 46 101 70.5t129 24.5q48 0 96.5 -13.5t93.5 -40.5l-39 -63q-35 20 -73.5 30t-76.5 10q-47 0 -88.5 -17.5t-74.5 -51t-56 -82.5t-33 -111l-2 -12q-5 -28 -7.5 -54t-2.5 -48q0 -85 38 -126.5t132 -41.5q76 0 172 38l13 -63q-48 -26 -100 -39
t-103 -13q-120 0 -180 61.5t-60 173.5q0 49 10 105z" />
    <glyph glyph-name="D" unicode="D" horiz-adv-x="645" 
d="M315 678q143 0 223.5 -59.5t80.5 -183.5q0 -37 -6 -74l-5 -29q-14 -81 -39 -141.5t-67 -102.5q-46 -45 -115.5 -66.5t-172.5 -21.5h-78h-23.5t-27.5 0.5t-27 1.5t-22 2l117 670q9 1 22.5 2t27.5 1.5t27.5 0.5h23.5h61zM134 76h88q67 0 118 13t87 43.5t59.5 80t35.5 123.5
l4 24q3 20 4 35.5t1 29.5q0 94 -54.5 136t-167.5 42h-83z" />
    <glyph glyph-name="E" unicode="E" horiz-adv-x="512" 
d="M568 678l-23 -75h-319l-38 -221q25 2 52 3t50 1h140l-24 -75h-231l-41 -235h329l-23 -76h-326q-19 0 -39 0.5t-39 1.5l118 674q19 1 38.5 1.5t39.5 0.5h336z" />
    <glyph glyph-name="F" unicode="F" horiz-adv-x="476" 
d="M548 678l-23 -75h-299l-38 -221q25 2 52 3t50 1h147l-19 -74h-242l-55 -312h-85l118 676q19 1 38.5 1.5t39.5 0.5h316z" />
    <glyph glyph-name="G" unicode="G" horiz-adv-x="636" 
d="M76 354q13 78 39 139t68 104q43 44 108.5 67.5t139.5 23.5q52 0 103 -13t94 -41l-39 -63q-71 40 -156 40q-120 0 -186 -68q-32 -33 -53 -81.5t-32 -112.5l-2 -12q-5 -29 -7.5 -54.5t-2.5 -47.5q0 -91 43.5 -130t134.5 -39q64 0 135 13l37 215l-135 -3l7 76h138
q23 0 45.5 -0.5t40.5 -1.5l-60 -346q-49 -13 -107 -21t-118 -8q-122 0 -185.5 60t-63.5 175q0 25 2.5 50t7.5 55z" />
    <glyph glyph-name="H" unicode="H" horiz-adv-x="649" 
d="M239 678l-52 -297h325l52 297h85l-118 -678h-85l53 306h-325l-53 -306h-85l118 678h85z" />
    <glyph glyph-name="I" unicode="I" horiz-adv-x="245" 
d="M242 678l-118 -678h-85l118 678h85z" />
    <glyph glyph-name="J" unicode="J" horiz-adv-x="427" 
d="M429 678l-78 -449q-13 -74 -29 -118t-44 -71q-25 -24 -62 -37t-83 -13q-59 0 -125 22l26 67q55 -13 100 -13q53 0 81 25q20 17 30.5 48t18.5 79l67 385h-183l8 75h273z" />
    <glyph glyph-name="K" unicode="K" horiz-adv-x="570" 
d="M239 678l-63 -361q45 32 79.5 60.5t66.5 57.5q23 21 46 44t47.5 52t52 65t59.5 82h91q-65 -102 -126.5 -176t-126.5 -131q17 -33 33.5 -69.5t34.5 -80.5t37.5 -98t43.5 -123h-96q-14 45 -30 91t-31.5 88t-30 78t-26.5 61q-31 -24 -65.5 -49t-75.5 -53l-38 -216h-85
l118 678h85z" />
    <glyph glyph-name="L" unicode="L" horiz-adv-x="496" 
d="M239 678l-105 -602h310l-23 -76h-307q-19 0 -39 0.5t-39 1.5l118 676h85z" />
    <glyph glyph-name="M" unicode="M" horiz-adv-x="789" 
d="M288 678q29 -151 55 -269t46 -195q24 39 58.5 96.5t72 121.5t74 128.5t65.5 117.5h111q-2 -35 -6 -86.5t-10 -112t-13 -126.5t-15 -129.5t-15.5 -121.5t-14.5 -102h-83q4 27 10.5 73t13.5 102t14.5 116.5t13.5 115.5t10.5 99.5t6.5 69.5h-3q-38 -69 -76 -136.5
t-73 -127.5t-66.5 -109.5t-55.5 -83.5h-69q-10 31 -24 85t-29.5 118t-30 131.5t-26.5 126.5h-3q-9 -37 -21.5 -90t-26 -111.5t-27 -118.5t-25 -112t-20 -91.5t-11.5 -56.5h-85q8 42 20.5 99t27 121t30.5 131t31.5 128.5t29.5 113t24 85.5h115z" />
    <glyph glyph-name="N" unicode="N" horiz-adv-x="666" 
d="M256 678l231 -571l99 571h80l-119 -684h-92l-240 580l-99 -574h-80l118 678h102z" />
    <glyph glyph-name="O" unicode="O" horiz-adv-x="657" 
d="M158 324q-4 -24 -6 -46.5t-2 -42.5q0 -74 31 -117q36 -51 118 -51q96 0 153.5 65.5t77.5 190.5l5 31q4 24 6 46.5t2 42.5q0 74 -31 117q-36 51 -118 51q-96 0 -153.5 -65.5t-77.5 -190.5zM77 360q27 160 108 243q84 85 222 85q103 0 163 -62q29 -31 45 -74.5t16 -98.5
q0 -22 -2 -45.5t-6 -47.5l-7 -42q-27 -160 -108 -243q-84 -85 -222 -85q-103 0 -163 62q-29 31 -45 74.5t-16 98.5q0 22 2 45.5t6 47.5z" />
    <glyph glyph-name="P" unicode="P" horiz-adv-x="550" 
d="M175 311h127q149 0 171 146l2 13q3 18 3 34q0 43 -25 67q-32 32 -117 32h-110zM349 678q54 0 98 -12.5t73 -39.5q44 -41 44 -112q0 -20 -3 -41l-2 -13q-8 -48 -24.5 -87.5t-44.5 -68.5q-35 -35 -86 -51.5t-124 -16.5h-118l-41 -236h-85l118 676q18 1 38 1.5t40 0.5h117z
" />
    <glyph glyph-name="Q" unicode="Q" horiz-adv-x="657" 
d="M77 360q27 160 108 243q84 85 222 85q103 0 163 -62q29 -31 45 -74.5t16 -98.5q0 -22 -2 -45.5t-6 -47.5l-7 -42q-27 -160 -108 -243q-47 -49 -114 -70q26 -39 61 -80t86 -94h-117q-31 38 -58.5 75t-59.5 85q-5 -1 -10 -1h-10q-103 0 -163 62q-29 31 -45 74.5t-16 98.5
q0 22 2 45.5t6 47.5zM158 324q-4 -24 -6 -46.5t-2 -42.5q0 -74 31 -117q36 -51 118 -51q96 0 153.5 65.5t77.5 190.5l5 31q4 24 6 46.5t2 42.5q0 74 -31 117q-36 51 -118 51q-96 0 -153.5 -65.5t-77.5 -190.5z" />
    <glyph glyph-name="R" unicode="R" horiz-adv-x="564" 
d="M336 678q63 0 103.5 -13t66.5 -39q20 -20 30 -48.5t10 -56.5q0 -19 -3 -37l-2 -13q-6 -41 -22.5 -75.5t-45.5 -62.5q-32 -31 -78 -50q25 -46 51 -119t52 -164h-89q-11 42 -23.5 82t-25 75.5t-25.5 64t-24 47.5h-143l-47 -269h-85l118 676q18 1 38 1.5t40 0.5h104z
M180 342h180q41 17 64.5 52t29.5 75l2 13q2 8 2.5 16t0.5 13q0 38 -19 60q-15 17 -42.5 24.5t-72.5 7.5h-99z" />
    <glyph glyph-name="S" unicode="S" horiz-adv-x="513" 
d="M336 688q48 0 97.5 -13t85.5 -38l-44 -67q-29 20 -66.5 30.5t-76.5 10.5h-4q-76 0 -116 -31.5t-40 -83.5q0 -31 21 -56.5t72 -45.5l47 -18q31 -12 57.5 -26t46.5 -33.5t31.5 -47t11.5 -64.5q0 -38 -17 -80.5t-49 -71.5q-32 -30 -77.5 -46.5t-104.5 -16.5h-7
q-62 0 -113 16.5t-93 42.5l37 69q39 -23 85 -36t88 -13h6q36 0 67.5 8.5t51.5 28.5q20 19 30.5 44.5t10.5 51.5q0 38 -24.5 61.5t-86.5 47.5l-44 17q-132 51 -132 161q0 35 13 68t39 60q31 32 79 51.5t114 19.5h4z" />
    <glyph glyph-name="T" unicode="T" horiz-adv-x="538" 
d="M606 678l-22 -75h-214l-105 -603h-85l105 603h-211l13 75h519z" />
    <glyph glyph-name="U" unicode="U" horiz-adv-x="630" 
d="M234 678l-75 -431q-8 -46 -7.5 -78t13.5 -54q27 -47 117 -47h4q43 0 79 11t59 36q23 24 33 60t17 72l75 431h85l-64 -368q-8 -45 -14 -81.5t-14.5 -66.5t-21 -54t-33.5 -45q-37 -36 -87.5 -54t-120.5 -19h-8q-70 1 -113.5 19t-67.5 54q-14 21 -19.5 45.5t-4.5 54.5
t6 66.5t13 81.5l64 367h85z" />
    <glyph glyph-name="V" unicode="V" horiz-adv-x="577" 
d="M178 678q4 -59 13.5 -136t21.5 -157.5t25.5 -156.5t27.5 -132q31 51 69.5 124.5t77.5 154t75 160t63 143.5h91q-33 -77 -76 -168t-89 -182.5t-91.5 -176.5t-82.5 -151h-102q-15 64 -31.5 149.5t-32 177.5t-28.5 183t-21 168h90z" />
    <glyph glyph-name="W" unicode="W" horiz-adv-x="888" 
d="M179 678q3 -77 8.5 -158.5t12 -158.5t14.5 -146.5t17 -122.5q25 57 54.5 127.5t59.5 145t59 149t54 140.5h103q1 -28 4.5 -70t7.5 -92.5t9 -105.5t10 -108.5t10 -101.5t9 -85q29 59 59 123.5t60.5 136.5t63 153t67.5 174h92q-82 -208 -159.5 -376t-149.5 -302h-96
q-5 32 -10.5 75t-11.5 91.5t-11 99.5t-10 99t-8.5 90.5t-5.5 74.5h-2q-18 -48 -46.5 -119t-60.5 -147t-62.5 -146.5t-52.5 -117.5h-97q-12 58 -24 136t-22.5 167t-20 185t-15.5 190h91z" />
    <glyph glyph-name="X" unicode="X" horiz-adv-x="580" 
d="M190 678l127 -268l223 268h98l-288 -337l171 -341h-90l-132 277l-228 -277h-103l297 348l-165 330h90z" />
    <glyph glyph-name="Y" unicode="Y" horiz-adv-x="554" 
d="M182 678q13 -58 28 -120t29.5 -116.5t26.5 -96t18 -58.5q20 29 49.5 74.5t62.5 99t67 110t63 107.5h93q-94 -159 -170.5 -278t-133.5 -194l-36 -206h-85l36 210q-12 32 -29 83.5t-36 114t-39 132.5t-38 138h94z" />
    <glyph glyph-name="Z" unicode="Z" horiz-adv-x="516" 
d="M563 678l5 -42l-460 -560h333l-23 -76h-435l7 52l450 551h-322l8 75h437z" />
    <glyph glyph-name="a" unicode="a" horiz-adv-x="524" 
d="M50 263q22 122 92.5 175.5t173.5 53.5q39 0 80.5 -7t85.5 -22l-59 -340q-2 -7 -3 -17t-1 -15q0 -27 22 -27q19 0 45 13l-2 -67q-17 -8 -36.5 -11.5t-34.5 -3.5q-35 0 -51.5 15.5t-18.5 38.5q-36 -30 -73.5 -44.5t-73.5 -14.5q-34 0 -63 11.5t-50 33t-33 53t-12 72.5
q0 31 6 69zM127 232q-6 -38 -6 -66q0 -55 24.5 -79.5t67.5 -24.5q30 0 64 14.5t65 46.5l50 286q-46 13 -86 13q-79 0 -124 -48q-37 -40 -51 -119z" />
    <glyph glyph-name="b" unicode="b" horiz-adv-x="515" 
d="M122 67q22 -4 41.5 -5.5t36.5 -1.5q79 0 123 37.5t60 129.5l5 29q6 36 6 61q0 105 -89 105q-28 0 -60.5 -11.5t-67.5 -34.5zM234 705l-45 -257q35 23 70 33.5t66 10.5q72 0 112 -45.5t40 -123.5q0 -27 -6 -63l-6 -35q-18 -114 -78 -171q-67 -64 -197 -64q-67 0 -158 18
l122 697h80z" />
    <glyph glyph-name="c" unicode="c" horiz-adv-x="444" 
d="M307 492q42 0 78 -11t65 -29l-29 -63q-29 17 -61 25t-61 8q-33 0 -63 -10.5t-53 -35.5q-19 -20 -32.5 -50.5t-20.5 -73.5l-5 -31q-3 -17 -3.5 -29t-0.5 -26q0 -51 29 -78q29 -26 83 -26h4q29 0 60 7t69 23l17 -62q-39 -20 -81.5 -30t-80.5 -10h-4q-38 0 -73.5 11.5
t-58.5 33.5q-47 44 -47 125q0 14 1 30t4 33l5 31q10 61 29.5 103t46.5 70q33 34 80 49.5t97 15.5h6z" />
    <glyph glyph-name="d" unicode="d" horiz-adv-x="515" 
d="M126 227q-2 -14 -3.5 -28t-1.5 -24q0 -32 5 -52.5t18 -34.5q12 -14 31 -21t42 -7q26 0 56 9.5t65 30.5l55 309q-43 13 -87 13q-74 0 -117 -39t-59 -133zM524 705l-101 -580q-5 -31 -9 -64.5t-6 -58.5l-62 -8l-9 41q-38 -23 -75.5 -34t-69.5 -11t-60.5 11t-48.5 31
q-22 23 -33.5 56.5t-11.5 80.5q0 13 1.5 26.5t3.5 27.5l5 30q21 126 87.5 182.5t169.5 56.5q51 0 99 -12l40 225h80z" />
    <glyph glyph-name="e" unicode="e" horiz-adv-x="486" 
d="M300 492q72 0 114 -36.5t42 -102.5q0 -16 -1.5 -34.5t-5.5 -39.5l-10 -56h-315q-2 -13 -2.5 -25.5t-0.5 -21.5q0 -57 30 -85.5t94 -28.5h3q29 0 65 6.5t74 20.5l10 -64q-40 -17 -81.5 -26t-79.5 -9h-4q-98 0 -148 52q-46 48 -46 128q0 15 1.5 33.5t5.5 37.5l3 17
q22 125 86 179.5t160 54.5h6zM371 290l2 15q3 22 3 40q0 33 -22 56.5t-72 23.5q-27 0 -51.5 -9t-44.5 -30q-15 -16 -27 -39.5t-20 -56.5h232z" />
    <glyph glyph-name="f" unicode="f" horiz-adv-x="341" 
d="M136 482l14 74q7 38 18.5 64.5t31.5 46.5q46 48 137 48q49 0 102 -18l-27 -67q-41 15 -78 15q-50 0 -73.5 -23t-31.5 -71l-13 -69h163l-22 -67h-152l-72 -415h-80l72 415h-85l10 57z" />
    <glyph glyph-name="g" unicode="g" horiz-adv-x="514" 
d="M127 237q-3 -18 -4.5 -33t-1.5 -33q0 -57 28 -79t92 -22q44 0 94 11l57 328q-42 13 -82 13q-82 0 -123.5 -42.5t-55.5 -119.5zM50 268q18 97 71 152q35 36 84.5 54t110.5 18q71 0 166 -29l-87 -499q-6 -33 -20 -70.5t-35 -58.5q-28 -29 -68 -43t-88 -14h-6q-35 0 -69 5.5
t-66 16.5l13 67q29 -10 64 -15.5t66 -5.5h6q54 0 83 27t39 87l9 53q-53 -13 -102 -13q-91 0 -137 43.5t-46 121.5q0 31 6 69z" />
    <glyph glyph-name="h" unicode="h" horiz-adv-x="521" 
d="M233 705l-44 -252q35 20 69 29.5t65 9.5q38 0 66.5 -11t47.5 -31q36 -36 36 -94q0 -11 -1 -23t-3 -25l-54 -308h-80l53 303q2 9 2.5 18.5t0.5 17.5q0 45 -22.5 64t-64.5 19q-30 0 -62.5 -9.5t-64.5 -30.5v2l-67 -384h-80l123 705h80z" />
    <glyph glyph-name="i" unicode="i" horiz-adv-x="225" 
d="M192 482l-83 -482h-80l83 482h80zM165 558q-21 0 -34 11q-11 11 -11 30q0 14 4.5 29.5t13.5 24.5q16 18 47 18q21 0 34 -11q11 -11 11 -30q0 -14 -4.5 -29.5t-13.5 -24.5q-17 -18 -47 -18z" />
    <glyph glyph-name="j" unicode="j" horiz-adv-x="216" 
d="M136 653q16 18 47 18q21 0 34 -11q11 -11 11 -30q0 -14 -4.5 -29.5t-13.5 -24.5q-17 -18 -47 -18q-21 0 -34 11q-11 11 -11 30q0 14 4.5 29.5t13.5 24.5zM190 482l-92 -532q-8 -46 -20.5 -78.5t-31.5 -53.5q-37 -40 -106 -40q-12 0 -26 1.5t-34 5.5l13 66q12 -2 23.5 -3
t20.5 -1q38 0 54.5 22t25.5 76l93 537h80z" />
    <glyph glyph-name="k" unicode="k" horiz-adv-x="458" 
d="M233 705l-75 -432q71 51 132 106.5t99 102.5h89q-18 -22 -42 -48t-51 -53t-56.5 -54t-59.5 -50q42 -69 79 -143.5t60 -133.5h-84q-14 35 -27 64.5t-26 57t-27 54t-30 56.5q-18 -14 -36.5 -27t-36.5 -25l-31 -180h-80l123 705h80z" />
    <glyph glyph-name="l" unicode="l" horiz-adv-x="269" 
d="M230 705l-100 -571q-2 -11 -3 -20t-1 -16q0 -33 34 -33q16 0 48 9l-2 -68q-20 -6 -38 -8.5t-32 -2.5q-46 0 -70 24q-21 21 -21 62q0 10 1.5 23.5t3.5 28.5l100 572h80z" />
    <glyph glyph-name="m" unicode="m" horiz-adv-x="817" 
d="M169 488l10 -39q35 21 69 32t72 11q37 0 66 -11t47 -31q4 -4 7 -8l6 -8v1q94 57 174 57q37 0 66 -11t47 -31q36 -36 36 -94q0 -11 -1 -23t-3 -25l-54 -308h-80l53 303q2 9 2.5 18.5t0.5 17.5q0 45 -22 64t-64 19q-32 0 -67 -11t-67 -30q2 -6 2 -12.5v-12.5q0 -11 -1 -23
t-3 -25l-54 -308h-80l53 303q2 9 2.5 18.5t0.5 17.5q0 45 -22 64t-64 19q-29 0 -61.5 -9.5t-62.5 -28.5l-67 -384h-80l62 357q6 31 10 64.5t5 58.5z" />
    <glyph glyph-name="n" unicode="n" horiz-adv-x="521" 
d="M169 488l9 -41q38 23 75 34t70 11q38 0 66.5 -11t47.5 -31q36 -36 36 -94q0 -11 -1 -23t-3 -25l-54 -308h-80l53 303q2 9 2.5 18.5t0.5 17.5q0 45 -22.5 64t-64.5 19q-30 0 -62.5 -9.5t-64.5 -30.5l-67 -382h-80l62 357q6 31 10 64.5t5 58.5z" />
    <glyph glyph-name="o" unicode="o" horiz-adv-x="512" 
d="M125 221q-3 -17 -3.5 -29t-0.5 -26q0 -54 28.5 -80t74.5 -26q67 0 105.5 44.5t51.5 120.5l6 36q3 17 3.5 29t0.5 26q0 54 -28.5 80t-74.5 26q-67 0 -105.5 -44.5t-51.5 -120.5zM49 259q8 52 27 94t49 73q33 34 78 50t90 16q38 0 73.5 -11.5t58.5 -33.5t36 -52.5t13 -72.5
q0 -14 -1 -30t-4 -33l-6 -36q-8 -52 -27 -94t-49 -73q-33 -34 -78 -50t-90 -16q-38 0 -73.5 11.5t-58.5 33.5t-36 52.5t-13 72.5q0 14 1 30t4 33z" />
    <glyph glyph-name="p" unicode="p" horiz-adv-x="515" 
d="M122 71q23 -6 43 -8.5t38 -2.5q42 0 72.5 9.5t52.5 30t35.5 53t21.5 78.5l4 24q2 14 3.5 28.5t1.5 25.5q0 62 -26.5 87.5t-69.5 25.5q-54 0 -121 -41zM169 488l9 -41q73 45 144 45q69 0 112 -46t43 -133q0 -10 -1.5 -25t-3.5 -29l-5 -30q-20 -119 -83 -179
q-65 -60 -169 -60q-25 0 -51.5 3t-53.5 10l-37 -217h-80l99 571q6 31 10 64.5t5 58.5z" />
    <glyph glyph-name="q" unicode="q" horiz-adv-x="515" 
d="M128 232q-3 -18 -4.5 -33t-1.5 -33q0 -57 28 -81.5t92 -24.5q41 0 91 11l60 343q-46 8 -78 8q-77 0 -122 -38.5t-61 -128.5zM50 263q20 113 87 171t185 58q83 0 161 -24l-119 -682h-80l37 217q-53 -13 -101 -13q-91 0 -136.5 46t-45.5 124q0 31 6 69z" />
    <glyph glyph-name="r" unicode="r" horiz-adv-x="328" 
d="M169 488l9 -44q35 26 70 37t69 11q23 0 43 -4l-13 -72q-25 5 -43 5q-32 0 -64.5 -11t-63.5 -31l-66 -379h-80l62 357q6 31 10 64.5t5 58.5z" />
    <glyph glyph-name="s" unicode="s" horiz-adv-x="386" 
d="M253 492q28 0 59 -5t60 -14l-27 -69q-23 9 -49.5 13.5t-52.5 4.5h-2q-18 0 -36.5 -3t-33 -11.5t-24 -24t-9.5 -39.5q0 -23 16 -36.5t46 -24.5l25 -8q34 -11 56.5 -23t36 -27t19 -33.5t5.5 -43.5q0 -32 -10 -57t-28 -44q-24 -26 -66 -41.5t-94 -15.5h-4q-35 0 -71 7.5
t-73 24.5l26 68q69 -28 127 -28h4q51 0 80.5 22t29.5 58q0 24 -17 39t-54 27l-25 8q-65 22 -87.5 53t-22.5 69q0 69 49.5 111.5t140.5 42.5h6z" />
    <glyph glyph-name="t" unicode="t" horiz-adv-x="345" 
d="M240 624l-26 -142h133l-22 -67h-121l-48 -268q-2 -12 -3 -21.5t-1 -17.5q0 -24 12.5 -35t42.5 -11q21 0 42.5 5.5t37.5 11.5l6 -63q-61 -26 -113 -26q-53 0 -81 27q-28 26 -28 76q0 14 1 23t4 26l47 273h-85l10 57l86 10l34 142h72z" />
    <glyph glyph-name="u" unicode="u" horiz-adv-x="519" 
d="M186 482l-53 -303q-2 -9 -2.5 -18.5t-0.5 -17.5q0 -45 22 -64t64 -19q30 0 62 9.5t64 30.5l67 382h80l-62 -357q-6 -31 -10 -64.5t-5 -58.5l-62 -8l-9 41q-38 -23 -74.5 -34t-69.5 -11q-38 0 -66 11t-47 31q-36 36 -36 94q0 11 1 23t3 25l54 308h80z" />
    <glyph glyph-name="v" unicode="v" horiz-adv-x="462" 
d="M132 482q17 -132 33.5 -227t33.5 -165q29 48 54.5 92t50.5 89.5t51 96.5t56 114h81q-24 -51 -55 -111t-65.5 -123t-71 -126.5t-72.5 -121.5h-81q-30 112 -55 234t-42 248h82z" />
    <glyph glyph-name="w" unicode="w" horiz-adv-x="710" 
d="M131 482q13 -132 24 -225t24 -165q27 56 51.5 109.5t46 100.5t38.5 86t29 68l5 13h81l1 -13q1 -26 4.5 -65t9 -87t12 -102.5t14.5 -111.5q31 59 79 155.5t110 236.5h80q-60 -133 -118.5 -250t-123.5 -232h-84q-15 90 -25.5 179.5t-18.5 171.5q-36 -84 -77 -173t-85 -178
h-83q-27 115 -45 232t-30 250h81z" />
    <glyph glyph-name="x" unicode="x" horiz-adv-x="444" 
d="M148 482l83 -170l145 170h94l-204 -235l129 -247h-91l-89 185l-157 -185h-92l213 249l-121 233h90z" />
    <glyph glyph-name="y" unicode="y" horiz-adv-x="472" 
d="M142 482q5 -50 12 -106.5t14.5 -113t15.5 -109t16 -94.5q45 78 100.5 187t109.5 236h84q-30 -65 -59 -126.5t-61 -123.5t-68 -127.5t-79 -138.5q-31 -54 -54 -89t-46 -57q-44 -42 -107 -42q-13 0 -27.5 2t-28.5 7l19 67q14 -5 23.5 -6.5t18.5 -1.5q32 0 56.5 25.5
t56.5 80.5l11 19q-29 118 -51 244.5t-38 266.5h82z" />
    <glyph glyph-name="z" unicode="z" horiz-adv-x="442" 
d="M443 482l-2 -49l-327 -364h264l-20 -69h-367l9 54l321 359h-250l5 69h367z" />
    <glyph glyph-name="ampersand" unicode="&#x26;" horiz-adv-x="768" 
d="M495 584q-38 14 -68.5 20.5t-56.5 6.5q-57 0 -87 -30q-23 -23 -23 -59q0 -11 2.5 -24.5t10 -31.5t20 -41t32.5 -53q29 -44 66 -96.5t72 -98.5q0 -1 1 -2q23 33 38 77t25 113l9 64q7 0 18.5 0.5t25 1t26.5 1t23 0.5h125l-21 -80l-129 3l-3 -22q-8 -57 -30.5 -114.5
t-58.5 -102.5q24 -28 43.5 -40t41.5 -12q27 0 68 18l14 -62q-23 -16 -47.5 -23t-48.5 -7q-18 0 -32.5 3t-29 11t-30.5 21.5t-35 34.5q-47 -35 -100.5 -52.5t-110.5 -17.5q-47 0 -87.5 12.5t-69.5 35.5q-31 24 -46.5 59.5t-15.5 76.5q0 71 44.5 133t135.5 104q-33 61 -33 113
q0 75 53.5 119.5t147.5 44.5q35 0 73 -8t79 -25zM243 351q-61 -26 -94 -71.5t-33 -94.5q0 -55 39 -86.5t102 -31.5q42 0 81 12t71 37q-26 31 -66.5 88.5t-85.5 125.5z" />
    <glyph glyph-name="at" unicode="@" horiz-adv-x="824" 
d="M519 459q-24 9 -51 9q-23 0 -45 -9t-40 -29q-27 -29 -41 -70.5t-14 -76.5q0 -54 60 -54q35 0 70 20zM553 299q-13 -45 -13 -55q0 -12 10.5 -18.5t27.5 -6.5q29 0 55.5 17.5t47 48t33 72t12.5 89.5q0 42 -13.5 81t-40.5 66q-29 29 -71.5 43.5t-93.5 14.5
q-66 0 -132.5 -26.5t-119.5 -81.5q-58 -61 -86.5 -135t-28.5 -143q0 -106 58 -159q60 -56 185 -56q53 0 111 11.5t122 35.5l6 -63q-137 -54 -256 -54q-74 0 -134 20.5t-101 59.5q-35 33 -55 81.5t-20 114.5q0 44 9.5 90t27.5 90t43.5 84t58.5 73q62 62 143.5 96t178.5 34
q68 0 124.5 -21.5t95.5 -63.5q34 -37 50.5 -86t16.5 -96q0 -65 -18.5 -121t-50.5 -97.5t-75 -65t-92 -23.5q-29 0 -55 10.5t-44 30.5q-46 -29 -98 -29q-26 0 -49 7t-40 22q-33 30 -33 87q0 24 5.5 51.5t17 55.5t28 54t38.5 46q28 25 64.5 38.5t81.5 13.5q28 0 62.5 -6.5
t67.5 -20.5z" />
    <glyph glyph-name="exclam" unicode="!" horiz-adv-x="259" 
d="M253 688l-107 -548h-67l85 548h89zM59 82q15 17 45 17q46 0 46 -38q0 -33 -17 -52q-15 -17 -45 -17q-46 0 -46 38q0 33 17 52z" />
    <glyph glyph-name="exclamdown" unicode="&#xa1;" horiz-adv-x="259" 
d="M-9.98438 -203.958l106.993 547.967h66.9961l-84.9951 -547.967h-88.9941zM184.004 402.005q-14.999 -16.999 -44.998 -16.999q-45.9971 0 -45.9971 37.998q0 32.998 16.999 51.9971q14.999 16.999 44.998 16.999q45.9971 0 45.9971 -37.998q0 -32.998 -16.999 -51.9971z
" />
    <glyph glyph-name="question" unicode="?" horiz-adv-x="453" 
d="M117 649q46 20 89.5 29.5t81.5 9.5q89 0 137 -48q38 -38 38 -104q0 -62 -30.5 -113.5t-106.5 -96.5l-54 -32q-17 -10 -28 -18.5t-18.5 -19t-12 -24t-7.5 -31.5l-10 -61h-73l11 61q5 29 11.5 51.5t18.5 42t31 36.5t50 35l54 32q25 15 42 35q18 21 26 45.5t8 47.5
q0 42 -26 63.5t-76 21.5q-59 0 -147 -28zM107 82q15 17 45 17q46 0 46 -38q0 -33 -17 -52q-15 -17 -45 -17q-46 0 -46 38q0 33 17 52z" />
    <glyph glyph-name="questiondown" unicode="&#xbf;" horiz-adv-x="454" 
d="M336.007 -164.96q-45.9971 -19.999 -89.4941 -29.499q-43.4971 -9.49902 -81.4951 -9.49902q-88.9941 0 -136.991 47.9971q-37.998 37.998 -37.998 103.994q0 61.9961 30.498 113.492q30.498 51.4971 106.493 96.4941l53.9971 31.998q16.999 10 27.998 18.499
q11 8.5 18.499 18.999q7.5 10.499 11.999 23.999q4.5 13.499 7.5 31.498l9.99902 60.9961h72.9961l-11 -60.9961q-4.99902 -28.999 -11.499 -51.4971q-6.49902 -22.499 -18.499 -41.998q-11.999 -19.498 -30.998 -36.4971t-49.9971 -34.998l-53.9961 -31.998
q-24.999 -14.999 -41.998 -34.998q-17.999 -20.999 -25.998 -45.4971q-8 -24.499 -8 -47.4971q0 -41.9971 25.999 -63.4961q25.998 -21.499 75.9951 -21.499q58.9961 0 146.991 27.998zM346.007 402.005q-14.999 -16.999 -44.9971 -16.999q-45.998 0 -45.998 37.998
q0 32.998 16.999 51.9971q14.999 16.999 44.9971 16.999q45.998 0 45.998 -37.998q0 -32.998 -16.999 -51.9971z" />
    <glyph glyph-name="asterisk" unicode="*" horiz-adv-x="376" 
d="M229 648l4 122h89l-37 -122l111 59l12 -89l-119 -25l81 -92l-92 -53l-36 111l-75 -111l-74 53l112 92l-109 25l44 89z" />
    <glyph glyph-name="period" unicode="." horiz-adv-x="198" 
d="M59 -8q-50 0 -50 46q0 37 19 56q17 17 48 17q50 0 50 -46q0 -37 -19 -56q-17 -17 -48 -17z" />
    <glyph glyph-name="comma" unicode="," horiz-adv-x="200" 
d="M140 117q-10 -26 -24 -57t-29.5 -62t-31.5 -59.5t-30 -50.5l-64 15q9 17 21 43.5t24 56t22.5 59.5t18.5 55h93z" />
    <glyph glyph-name="colon" unicode=":" horiz-adv-x="254" 
d="M56 94q17 17 48 17q50 0 50 -46q0 -37 -19 -56q-17 -17 -48 -17q-50 0 -50 46q0 37 19 56zM118 450q17 17 48 17q50 0 50 -46q0 -37 -19 -56q-17 -17 -48 -17q-50 0 -50 46q0 37 19 56z" />
    <glyph glyph-name="semicolon" unicode=";" horiz-adv-x="254" 
d="M118 450q17 17 48 17q50 0 50 -46q0 -37 -19 -56q-17 -17 -48 -17q-50 0 -50 46q0 37 19 56zM154 117q-10 -26 -24 -57t-29.5 -62t-31.5 -59.5t-30 -50.5l-64 15q9 17 21 43.5t24 56t22.5 59.5t18.5 55h93z" />
    <glyph glyph-name="ellipsis" unicode="&#x2026;" horiz-adv-x="604" 
d="M28 94q17 17 48 17q50 0 50 -46q0 -37 -19 -56q-17 -17 -48 -17q-50 0 -50 46q0 37 19 56zM231 94q17 17 48 17q50 0 50 -46q0 -37 -19 -56q-17 -17 -48 -17q-50 0 -50 46q0 37 19 56zM434 94q17 17 48 17q50 0 50 -46q0 -37 -19 -56q-17 -17 -48 -17q-50 0 -50 46
q0 37 19 56z" />
    <glyph glyph-name="periodcentered" unicode="&#xb7;" horiz-adv-x="217" 
d="M130 250q-50 0 -50 46q0 37 19 56q17 17 48 17q50 0 50 -46q0 -37 -19 -56q-17 -17 -48 -17z" />
    <glyph glyph-name="bullet" unicode="&#x2022;" horiz-adv-x="382" 
d="M218 399q47 0 76 -26.5t29 -74.5q0 -31 -11 -58.5t-30.5 -48t-46 -32.5t-57.5 -12q-47 0 -76 26.5t-29 74.5q0 31 11 58.5t30.5 48t46 32.5t57.5 12z" />
    <glyph glyph-name="slash" unicode="/" horiz-adv-x="359" 
d="M415 720l-355 -745h-80l355 745h80z" />
    <glyph glyph-name="parenleft" unicode="(" horiz-adv-x="298" 
d="M350 688q-199 -241 -199 -498q0 -65 16 -134t48 -138l-62 -36q-40 73 -60.5 150t-20.5 158q0 129 53.5 263.5t170.5 274.5z" />
    <glyph glyph-name="brokenbar" unicode="&#xa6;" horiz-adv-x="240" 
d="M162 272l-52 -297h-74l52 297h74zM240 720l-52 -297h-74l52 297h74z" />
    <glyph glyph-name="parenright" unicode=")" horiz-adv-x="298" 
d="M181 728q40 -73 60.5 -150t20.5 -158q0 -129 -53.5 -263.5t-170.5 -274.5l-54 40q199 241 199 498q0 65 -16 134t-48 138z" />
    <glyph glyph-name="bracketleft" unicode="[" horiz-adv-x="296" 
d="M352 713l-13 -73h-110l-115 -659h110l-13 -73h-191l141 805h191z" />
    <glyph glyph-name="backslash" unicode="\" horiz-adv-x="360" 
d="M186 720l96 -745h-72l-96 745h72z" />
    <glyph glyph-name="bracketright" unicode="]" horiz-adv-x="296" 
d="M303 713l-141 -805h-191l13 73h110l115 659h-110l13 73h191z" />
    <glyph glyph-name="braceleft" unicode="{" horiz-adv-x="325" 
d="M379 725l-13 -73h-41q-10 0 -17 -3t-12.5 -11t-10 -22.5t-8.5 -37.5l-17 -93q-13 -70 -38 -112t-71 -65l-1 -3q38 -25 49.5 -62.5t0.5 -102.5l-16 -97q-4 -23 -5 -37.5t2 -22.5t9 -11t16 -3h41l-13 -73h-53q-49 0 -70.5 31.5t-8.5 108.5l18 109q8 48 -3 77t-43 49l-16 9
l11 61l19 9q38 20 60 49t30 77l20 109q13 77 46 108.5t81 31.5h54z" />
    <glyph glyph-name="bar" unicode="|" horiz-adv-x="240" 
d="M240 720l-130 -745h-74l130 745h74z" />
    <glyph glyph-name="braceright" unicode="}" horiz-adv-x="325" 
d="M180 725q49 0 70.5 -31.5t8.5 -108.5l-18 -109q-8 -48 3 -77t43 -49l16 -9l-11 -61l-19 -9q-38 -20 -60 -49t-30 -77l-20 -109q-13 -77 -46 -108.5t-81 -31.5h-54l13 73h41q10 0 17 3t12.5 11t10 22.5t8.5 37.5l17 93q13 70 38 112t71 65l1 3q-38 25 -49.5 62.5
t-0.5 102.5l16 97q8 46 2.5 60t-24.5 14h-41l13 73h53z" />
    <glyph glyph-name="hyphen" unicode="-" horiz-adv-x="312" 
d="M284 295l-14 -75h-234l14 75h234z" />
    <glyph glyph-name="uni00AD" unicode="&#xad;" horiz-adv-x="312" 
d="M284 295l-14 -75h-234l14 75h234z" />
    <glyph glyph-name="endash" unicode="&#x2013;" horiz-adv-x="547" 
d="M557 295l-14 -75h-545l14 75h545z" />
    <glyph glyph-name="emdash" unicode="&#x2014;" horiz-adv-x="1092" 
d="M1102 295l-14 -75h-1090l14 75h1090z" />
    <glyph glyph-name="underscore" unicode="_" horiz-adv-x="523" 
d="M443 -36l-11 -65h-458l11 65h458z" />
    <glyph glyph-name="dagger" unicode="&#x2020;" horiz-adv-x="413" 
d="M329 678l-35 -182h134l-18 -67h-128l-84 -445h-70l70 445h-131l12 67h130l29 182h91z" />
    <glyph glyph-name="daggerdbl" unicode="&#x2021;" horiz-adv-x="413" 
d="M329 678l-35 -182h134l-18 -67h-128l-26 -137h107l-18 -67h-102l-45 -241h-70l38 241h-108l12 67h106l22 137h-131l12 67h130l29 182h91z" />
    <glyph glyph-name="section" unicode="&#xa7;" horiz-adv-x="497" 
d="M429 605q-56 18 -106 18q-54 0 -80.5 -20t-26.5 -52q0 -18 13.5 -32t52.5 -31l24 -10q34 -14 58.5 -27.5t40.5 -28t23 -32t7 -40.5q0 -26 -17.5 -56.5t-55.5 -60.5q17 -14 27.5 -35.5t10.5 -53.5t-12.5 -60t-38 -49t-64 -33t-89.5 -12q-34 0 -72.5 6.5t-82.5 21.5l28 71
q33 -14 66.5 -20.5t63.5 -6.5q59 0 89.5 22.5t30.5 57.5q0 24 -15 36.5t-53 28.5l-24 10q-39 16 -64 30.5t-39.5 29t-20 31t-5.5 37.5q0 26 17 56.5t57 61.5q-38 34 -38 85q0 28 12 53t36 44.5t59 31t82 11.5q32 0 65.5 -4t68.5 -15zM244 422q-6 2 -12 4.5t-11 5.5
q-25 -20 -36 -38.5t-11 -35.5q0 -10 3.5 -18.5t13.5 -17.5t27.5 -18t46.5 -21l24 -10q5 -3 11 -5.5t11 -4.5q48 41 48 75q0 20 -18.5 35.5t-72.5 38.5z" />
    <glyph glyph-name="paragraph" unicode="&#xb6;" horiz-adv-x="491" 
d="M519 694l-138 -795h-76l126 720h-90l-125 -720h-76l82 474q-65 3 -100.5 39t-35.5 90q0 41 14 76.5t40.5 61t63.5 40t84 14.5h231z" />
    <glyph glyph-name="registered" unicode="&#xae;" horiz-adv-x="708" 
d="M381 467q56 0 81 -20t25 -58q0 -32 -16 -59.5t-49 -46.5q11 -20 24 -52.5t24 -78.5h-67q-8 33 -18 64t-21 52h-48l-21 -116h-64l56 315h94zM325 323h64q14 7 23 22t9 34q0 17 -10.5 24t-36.5 7h-33zM413 562q-50 0 -99.5 -20t-90 -58t-65.5 -93t-25 -125
q0 -53 15.5 -91.5t41.5 -63.5t60 -37t72 -12q49 0 99 20t90.5 58t65.5 93t25 125q0 53 -15.5 91.5t-41.5 63.5t-60.5 37t-71.5 12zM420 624q50 0 96 -17t81 -49.5t56 -80.5t21 -109q0 -93 -32.5 -162t-84 -115t-115.5 -68.5t-127 -22.5q-50 0 -96 17t-81 49.5t-56 80
t-21 109.5q0 93 32.5 162t84 115t115.5 68.5t127 22.5z" />
    <glyph glyph-name="copyright" unicode="&#xa9;" horiz-adv-x="708" 
d="M459 385q-19 12 -37 17.5t-34 5.5q-45 0 -71.5 -36t-26.5 -96q0 -33 17 -50q16 -16 46 -16q17 0 37.5 5t45.5 16l13 -49q-28 -16 -55.5 -23t-53.5 -7q-52 0 -84.5 30.5t-32.5 87.5q0 43 12 79.5t34 62.5t53 40.5t69 14.5q26 0 51.5 -8t48.5 -22zM413 562q-50 0 -99.5 -20
t-90 -58t-65.5 -93t-25 -125q0 -53 15.5 -91.5t41.5 -63.5t60 -37t72 -12q49 0 99 20t90.5 58t65.5 93t25 125q0 53 -15.5 91.5t-41.5 63.5t-60.5 37t-71.5 12zM420 624q50 0 96 -17t81 -49.5t56 -80.5t21 -109q0 -93 -32.5 -162t-84 -115t-115.5 -68.5t-127 -22.5
q-50 0 -96 17t-81 49.5t-56 80t-21 109.5q0 93 32.5 162t84 115t115.5 68.5t127 22.5z" />
    <glyph glyph-name="trademark" unicode="&#x2122;" horiz-adv-x="690" 
d="M375 715l-20 -58h-101l-48 -273h-62l48 273h-100l11 58h272zM484 715q10 -52 21.5 -103.5t24.5 -97.5q29 45 59 95.5t61 105.5h64q-2 -36 -5.5 -77t-8 -84t-10.5 -86.5t-12 -83.5h-61q10 56 16 106.5t11 104.5h-2q-24 -43 -50.5 -85t-48.5 -74h-50q-11 29 -22.5 68.5
t-24.5 90.5h-2q-12 -49 -24 -106t-20 -105h-62q8 40 17.5 83t19.5 86t20.5 84.5t21.5 77.5h67z" />
    <glyph glyph-name="quotedblleft" unicode="&#x201c;" horiz-adv-x="353" 
d="M56.0088 568.007q9.99902 25.999 23.998 56.9971t29.498 61.9961t31.498 59.4961t29.999 50.4971l63.9961 -14.999q-9 -16.999 -20.999 -43.4971q-11.999 -26.499 -23.999 -55.9971q-11.999 -29.498 -22.498 -59.4961q-10.5 -29.998 -18.499 -54.9971h-92.9941z
M209.009 568.007q9.99902 25.999 23.998 56.9971t29.498 61.9961t31.498 59.4961t29.999 50.4971l63.9961 -14.999q-9 -16.999 -20.999 -43.4971q-11.999 -26.499 -23.999 -55.9971q-11.999 -29.498 -22.498 -59.4961q-10.5 -29.998 -18.499 -54.9971h-92.9941z" />
    <glyph glyph-name="quotedblright" unicode="&#x201d;" horiz-adv-x="353" 
d="M270 784q-10 -26 -24 -57t-29.5 -62t-31.5 -59.5t-30 -50.5l-64 15q9 17 21 43.5t24 56t22.5 59.5t18.5 55h93zM423 784q-10 -26 -24 -57t-29.5 -62t-31.5 -59.5t-30 -50.5l-64 15q9 17 21 43.5t24 56t22.5 59.5t18.5 55h93z" />
    <glyph glyph-name="quoteleft" unicode="&#x2018;" horiz-adv-x="200" 
d="M56.0088 568.007q9.99902 25.999 23.998 56.9971t29.498 61.9961t31.498 59.4961t29.999 50.4971l63.9961 -14.999q-9 -16.999 -20.999 -43.4971q-11.999 -26.499 -23.999 -55.9971q-11.999 -29.498 -22.498 -59.4961q-10.5 -29.998 -18.499 -54.9971h-92.9941z" />
    <glyph glyph-name="quoteright" unicode="&#x2019;" horiz-adv-x="200" 
d="M270 784q-10 -26 -24 -57t-29.5 -62t-31.5 -59.5t-30 -50.5l-64 15q9 17 21 43.5t24 56t22.5 59.5t18.5 55h93z" />
    <glyph glyph-name="guillemotleft" unicode="&#xab;" horiz-adv-x="532" 
d="M461 419l42 -54l-155 -119l108 -112l-52 -47l-149 143l8 46zM250 419l42 -54l-155 -119l108 -112l-52 -47l-149 143l8 46z" />
    <glyph glyph-name="guillemotright" unicode="&#xbb;" horiz-adv-x="532" 
d="M134 419l149 -143l-8 -46l-198 -143l-42 54l155 119l-108 112zM345 419l149 -143l-8 -46l-198 -143l-42 54l155 119l-108 112z" />
    <glyph glyph-name="guilsinglleft" unicode="&#x2039;" horiz-adv-x="321" 
d="M250 419l42 -54l-155 -119l108 -112l-52 -47l-149 143l8 46z" />
    <glyph glyph-name="guilsinglright" unicode="&#x203a;" horiz-adv-x="321" 
d="M134 419l149 -143l-8 -46l-198 -143l-42 54l155 119l-108 112z" />
    <glyph glyph-name="quotesinglbase" unicode="&#x201a;" horiz-adv-x="200" 
d="M158 117q-10 -26 -24 -57t-29.5 -62t-31.5 -59.5t-30 -50.5l-64 15q9 17 21 43.5t24 56t22.5 59.5t18.5 55h93z" />
    <glyph glyph-name="quotedblbase" unicode="&#x201e;" horiz-adv-x="353" 
d="M311 117q-10 -26 -24 -57t-29.5 -62t-31.5 -59.5t-30 -50.5l-64 15q9 17 21 43.5t24 56t22.5 59.5t18.5 55h93zM158 117q-10 -26 -24 -57t-29.5 -62t-31.5 -59.5t-30 -50.5l-64 15q9 17 21 43.5t24 56t22.5 59.5t18.5 55h93z" />
    <glyph glyph-name="ordfeminine" unicode="&#xaa;" horiz-adv-x="353" 
d="M54 479q14 85 62.5 122.5t120.5 37.5q58 0 127 -22l-42 -235q-2 -10 -2 -16q0 -13 14 -13q12 0 33 11l-2 -62q-29 -13 -56 -13q-41 0 -54 33q-20 -19 -44.5 -28t-50.5 -9q-23 0 -44.5 8t-36.5 23t-24 38t-9 54q0 11 1 23.5t3 23.5zM126 449q-3 -21 -3 -37q0 -30 14 -44.5
t37 -14.5q35 0 76 29l33 185q-26 6 -51 6q-42 0 -68 -24t-35 -81z" />
    <glyph glyph-name="ordmasculine" unicode="&#xba;" horiz-adv-x="353" 
d="M136 452q-3 -18 -3 -33q0 -37 16 -52.5t47 -15.5q78 0 96 103l3 18q3 18 3 33q0 37 -16 52.5t-47 15.5q-78 0 -96 -103zM64 483q14 81 60.5 118.5t121.5 37.5q63 0 96 -34.5t33 -93.5q0 -11 -1 -22.5t-3 -23.5l-4 -24q-14 -81 -60.5 -118.5t-121.5 -37.5q-63 0 -96 34.5
t-33 93.5q0 11 1 22.5t3 23.5z" />
    <glyph glyph-name="zero" unicode="0" 
d="M146 324q-4 -24 -5.5 -46.5t-1.5 -42.5q0 -82 31.5 -125t101.5 -43q86 0 136 65.5t70 190.5l5 31q4 24 5.5 46.5t1.5 42.5q0 82 -31.5 125t-101.5 43q-86 0 -136 -65.5t-70 -190.5zM65 360q28 172 106 250t200 78q95 0 151 -62t56 -173q0 -22 -1.5 -45.5t-5.5 -47.5
l-7 -42q-29 -172 -106.5 -250t-199.5 -78q-94 0 -151 62q-27 31 -41.5 74.5t-14.5 98.5q0 22 1.5 45.5t5.5 47.5z" />
    <glyph glyph-name="one" unicode="1" 
d="M163 600q58 13 113 32.5t104 45.5h56l-106 -606h169l-19 -72h-421l12 72h173l87 501q-28 -12 -71.5 -24.5t-93.5 -22.5z" />
    <glyph glyph-name="two" unicode="2" 
d="M159 633q57 26 111 40.5t104 14.5q41 0 76 -11.5t60 -33.5t39 -53.5t14 -70.5q0 -55 -23 -104.5t-59 -93.5t-80.5 -82.5t-87.5 -71.5l-124 -95h306l-26 -72h-425l10 57l194 152q31 25 70.5 57.5t73.5 71t57.5 81.5t23.5 90q0 49 -27.5 75.5t-84.5 26.5q-37 0 -83.5 -11.5
t-104.5 -36.5z" />
    <glyph glyph-name="three" unicode="3" 
d="M166 642q54 23 103.5 34.5t94.5 11.5q94 0 139.5 -41.5t45.5 -111.5q0 -41 -22 -84.5t-75 -81.5q36 -14 54.5 -49.5t18.5 -80.5q0 -58 -21.5 -104t-59.5 -78.5t-90.5 -49.5t-114.5 -17q-51 0 -106 12t-97 35l37 67q41 -20 86 -28.5t85 -8.5q36 0 70.5 9.5t61.5 29
t43.5 50t16.5 71.5q0 44 -21 65q-14 14 -37 19.5t-60 5.5h-96l13 71h135q19 12 35.5 28.5t29 35.5t19.5 39.5t7 40.5q0 33 -24.5 56t-83.5 23q-38 0 -83 -9.5t-94 -29.5z" />
    <glyph glyph-name="four" unicode="4" 
d="M545 678l-81 -467h104l-18 -74h-99l-24 -137h-85l24 137h-321l-13 47q98 149 199 271.5t201 222.5h113zM379 211l64 371q-36 -36 -75.5 -81t-78.5 -94t-76 -99.5t-68 -96.5h234z" />
    <glyph glyph-name="five" unicode="5" 
d="M570 678l-26 -75h-266l-51 -197q60 18 113 18q52 0 93 -15t66 -43q39 -44 39 -112q0 -60 -18.5 -108.5t-55 -83t-90 -53.5t-123.5 -19q-51 0 -101 12.5t-98 35.5l39 70q36 -20 79 -30.5t85 -10.5q94 0 144.5 47.5t50.5 126.5q0 58 -30.5 82.5t-96.5 24.5q-63 0 -157 -21
l-30 29l80 320q19 1 43.5 1.5t38.5 0.5h272z" />
    <glyph glyph-name="six" unicode="6" 
d="M98 366q12 75 37.5 135t65 101.5t95 63.5t128.5 22q87 0 167 -41l-40 -69q-33 17 -67 25t-66 8q-42 0 -77 -11t-63.5 -36.5t-50 -67.5t-36.5 -105q45 21 89 31.5t84 10.5q43 0 78.5 -12t59.5 -37q22 -23 33.5 -55t11.5 -76q0 -60 -20 -111t-58 -87q-32 -30 -76 -47.5
t-101 -17.5q-53 0 -92.5 16t-65.5 45t-39.5 70t-13.5 91q0 30 4 66.5t11 75.5zM176 305q-4 -24 -5.5 -46.5t-1.5 -42.5q0 -78 31 -113.5t91 -35.5q73 0 115 39q26 24 39 61.5t13 85.5q0 59 -27 81.5t-85 22.5q-37 0 -80.5 -10.5t-88.5 -33.5z" />
    <glyph glyph-name="seven" unicode="7" 
d="M607 678l2 -39q-45 -78 -96.5 -161.5t-106 -166t-110 -162t-107.5 -149.5h-112q69 85 130.5 169.5t114.5 162.5t96 147t75 124h-366l5 75h475z" />
    <glyph glyph-name="eight" unicode="8" 
d="M166 362q-24 20 -38.5 47.5t-14.5 72.5q0 39 16.5 76t48.5 66t80 46.5t111 17.5q92 0 144 -43.5t52 -113.5q0 -43 -24.5 -90.5t-89.5 -93.5q43 -21 63 -55t20 -78q0 -40 -15.5 -78t-44.5 -67q-41 -41 -98.5 -60t-115.5 -19q-54 0 -99.5 14.5t-75.5 42.5q-23 22 -36 52
t-13 63q0 62 33.5 113t96.5 87zM375 371q22 12 40.5 29.5t32 37.5t21 41.5t7.5 41.5q0 38 -28.5 64t-85.5 26q-37 0 -66.5 -10t-50.5 -27.5t-32 -40.5t-11 -50q0 -31 19.5 -53.5t66.5 -36.5q29 -8 49 -13t38 -9zM235 327q-21 -10 -41 -25.5t-35.5 -35.5t-25 -43.5
t-9.5 -48.5q0 -48 34.5 -77.5t102.5 -29.5q47 0 82 12.5t57.5 32.5t33.5 45.5t11 51.5q0 64 -80 83q-42 11 -77.5 20.5t-52.5 14.5z" />
    <glyph glyph-name="nine" unicode="9" 
d="M84 101q70 -34 144 -34q93 0 141 55.5t72 168.5q-48 -23 -93.5 -33t-83.5 -10q-88 0 -135 49.5t-47 134.5q0 54 19 100.5t53.5 81t81.5 54.5t103 20q46 0 85 -13.5t67 -40.5t43.5 -68t15.5 -95q0 -26 -3 -59.5t-10 -69.5l-3 -19q-28 -173 -102 -253t-207 -80
q-43 0 -88.5 10t-93.5 33zM455 372q4 23 5.5 45t1.5 44q0 74 -31.5 112t-92.5 38q-76 0 -121 -47q-22 -23 -34 -56.5t-12 -76.5q0 -51 27.5 -78t88.5 -27q35 0 77 10t90 33z" />
    <glyph glyph-name="dollar" unicode="$" 
d="M427 783l-17 -96q45 -3 88.5 -15.5t76.5 -34.5l-46 -67q-27 18 -61 28t-72 12l-41 -235l3 -1q32 -12 60 -26t49 -33.5t33 -46t12 -63.5q0 -41 -15 -78t-44 -65.5t-70.5 -47t-94.5 -22.5l-16 -92h-65l16 91q-57 3 -105 18.5t-88 39.5l39 69q38 -22 81.5 -34.5t86.5 -14.5
l44 250l-20 8q-76 29 -107 70.5t-31 91.5q0 35 14 68.5t40 59.5q28 28 70 46t98 23l17 97h65zM302 72q64 11 94.5 46t30.5 83q0 33 -19 53.5t-67 40.5zM331 608q-60 -8 -91.5 -38t-31.5 -74q0 -29 20 -53t67 -44z" />
    <glyph glyph-name="cent" unicode="&#xa2;" 
d="M407 582l-16 -92q32 -4 60 -14t51 -24l-29 -63q-23 13 -47 20.5t-47 10.5l-63 -357q46 6 102 29l17 -62q-32 -17 -65.5 -26t-65.5 -12l-16 -92h-65l16 92q-30 4 -56.5 14.5t-45.5 28.5q-47 44 -47 125q0 14 1 30t4 33l5 31q10 61 29.5 103t46.5 70q29 29 68 44.5t82 19.5
l16 91h65zM177 221q-3 -17 -3.5 -29t-0.5 -26q0 -51 29 -78q19 -17 50 -23l61 353q-22 -5 -41.5 -15t-36.5 -27q-19 -20 -32.5 -50.5t-20.5 -73.5z" />
    <glyph glyph-name="Euro" unicode="&#x20ac;" 
d="M141 440q20 65 51 112t71.5 77t89 44.5t102.5 14.5q101 0 184 -52l-41 -67q-73 41 -150 41q-78 0 -133.5 -41t-85.5 -129h255l-26 -69h-247q-2 -8 -4 -20l-2 -12l-6 -33h261l-26 -69h-243q-1 -9 -1 -16v-15q3 -138 157 -138q38 0 82.5 9t97.5 29l13 -64
q-49 -26 -101.5 -39t-103.5 -13q-116 0 -179 63q-54 56 -54 143v19t2 22h-80l12 69h77l8 48l3 17h-76l12 69h81z" />
    <glyph glyph-name="florin" unicode="&#x192;" 
d="M339 349h165l-18 -65h-159l-60 -347q-7 -41 -20 -71.5t-36 -50.5q-21 -19 -51.5 -28t-65.5 -9q-52 0 -98 18l25 67q37 -15 72 -15q21 0 36.5 4t27 14.5t19 28.5t12.5 47l59 342h-89l9 55l92 10l36 207q7 38 18.5 64.5t31.5 46.5q46 48 137 48q49 0 102 -18l-27 -67
q-41 15 -78 15q-50 0 -73.5 -23t-31.5 -71z" />
    <glyph glyph-name="sterling" unicode="&#xa3;" 
d="M155 368q-5 23 -7.5 45.5t-2.5 43.5q0 45 13 86.5t40 71.5q32 37 84.5 55t115.5 18q85 0 173 -35l-37 -70q-81 28 -144 28q-78 0 -117.5 -39t-39.5 -105q0 -22 3 -45.5t8 -46.5h234l-31 -71h-189q3 -18 5 -35.5t2 -34.5q0 -50 -19.5 -90t-54.5 -69h304l-30 -75h-430l9 55
q65 31 99.5 69t34.5 100q0 19 -2.5 39t-6.5 41h-100l9 53z" />
    <glyph glyph-name="yen" unicode="&#xa5;" 
d="M200 678q13 -58 28 -120t29.5 -116.5t26.5 -96t18 -58.5q20 29 49.5 74.5t62.5 99t67 110t63 107.5h93q-72 -122 -134 -220.5t-113 -172.5h121l-25 -69h-151l-8 -43h158l-26 -69h-144l-18 -104h-85l18 104h-144l12 69h144l8 43h-144l11 69h104q-12 38 -26.5 84t-29.5 97
t-30 105t-29 107h94z" />
    <glyph glyph-name="numbersign" unicode="#" 
d="M414 678l-97 -208h115l97 208h78l-97 -208h90l-34 -74h-90l-53 -114h90l-34 -74h-90l-96 -208h-78l96 208h-115l-96 -208h-78l96 208h-89l34 74h89l53 114h-89l34 74h89l97 208h78zM230 282h115l53 114h-115z" />
    <glyph glyph-name="percent" unicode="%" horiz-adv-x="896" 
d="M161 467q-2 -13 -3.5 -29.5t-1.5 -31.5q0 -42 17 -57.5t47 -15.5q42 0 68 30.5t40 104.5l4 21q4 20 4.5 33.5t0.5 27.5q0 42 -17 57.5t-47 15.5q-42 0 -68 -30.5t-40 -104.5zM96 490q10 55 27 92.5t39.5 61t51.5 34t64 10.5q61 0 95 -34t34 -106q0 -9 -1.5 -25.5
t-3.5 -30.5l-5 -26q-11 -55 -27.5 -92.5t-39 -61t-51.5 -34t-64 -10.5q-61 0 -95 34t-34 106q0 9 1.5 25.5t3.5 30.5zM766 678l-512 -678h-88l512 678h88zM600 189q-2 -13 -3.5 -29.5t-1.5 -31.5q0 -42 17 -57.5t47 -15.5q42 0 68 30.5t40 104.5l4 21q4 20 4.5 33.5
t0.5 27.5q0 42 -17 57.5t-47 15.5q-42 0 -68 -30.5t-40 -104.5zM535 212q10 55 27 92.5t39.5 61t51.5 34t64 10.5q61 0 95 -34t34 -106q0 -9 -1.5 -25.5t-3.5 -30.5l-5 -26q-11 -55 -27.5 -92.5t-39 -61t-51.5 -34t-64 -10.5q-61 0 -95 34t-34 106q0 9 1.5 25.5t3.5 30.5z
" />
    <glyph glyph-name="perthousand" unicode="&#x2030;" horiz-adv-x="1242" 
d="M161 467q-2 -13 -3.5 -29.5t-1.5 -31.5q0 -42 17 -57.5t47 -15.5q42 0 68 30.5t40 104.5l4 21q4 20 4.5 33.5t0.5 27.5q0 42 -17 57.5t-47 15.5q-42 0 -68 -30.5t-40 -104.5zM96 490q10 55 27 92.5t39.5 61t51.5 34t64 10.5q61 0 95 -34t34 -106q0 -9 -1.5 -25.5
t-3.5 -30.5l-5 -26q-11 -55 -27.5 -92.5t-39 -61t-51.5 -34t-64 -10.5q-61 0 -95 34t-34 106q0 9 1.5 25.5t3.5 30.5zM766 678l-512 -678h-88l512 678h88zM600 189q-2 -13 -3.5 -29.5t-1.5 -31.5q0 -42 17 -57.5t47 -15.5q42 0 68 30.5t40 104.5l4 21q4 20 4.5 33.5
t0.5 27.5q0 42 -17 57.5t-47 15.5q-42 0 -68 -30.5t-40 -104.5zM535 212q10 55 27 92.5t39.5 61t51.5 34t64 10.5q61 0 95 -34t34 -106q0 -9 -1.5 -25.5t-3.5 -30.5l-5 -26q-11 -55 -27.5 -92.5t-39 -61t-51.5 -34t-64 -10.5q-61 0 -95 34t-34 106q0 9 1.5 25.5t3.5 30.5z
M946 189q-2 -13 -3.5 -29.5t-1.5 -31.5q0 -42 17 -57.5t47 -15.5q42 0 68 30.5t40 104.5l4 21q4 20 4.5 33.5t0.5 27.5q0 42 -17 57.5t-47 15.5q-42 0 -68 -30.5t-40 -104.5zM881 212q10 55 27 92.5t39.5 61t51.5 34t64 10.5q61 0 95 -34t34 -106q0 -9 -1.5 -25.5
t-3.5 -30.5l-5 -26q-11 -55 -27.5 -92.5t-39 -61t-51.5 -34t-64 -10.5q-61 0 -95 34t-34 106q0 9 1.5 25.5t3.5 30.5z" />
    <glyph glyph-name="plus" unicode="+" 
d="M271 327l31 174h81l-31 -174h176l-13 -72h-176l-30 -174h-81l30 174h-175l13 72h175z" />
    <glyph glyph-name="minus" unicode="&#x2212;" 
d="M528 327l-13 -72h-432l13 72h432z" />
    <glyph glyph-name="multiply" unicode="&#xd7;" 
d="M207 472l103 -127l148 127l47 -60l-146 -126l102 -124l-60 -52l-102 125l-146 -125l-47 60l144 124l-103 126z" />
    <glyph glyph-name="less" unicode="&#x3c;" 
d="M531 495l20 -75l-337 -134l288 -133l-42 -66l-370 174l10 60z" />
    <glyph glyph-name="divide" unicode="&#xf7;" 
d="M528 327l-13 -72h-432l13 72h432zM297 479q15 18 45 18q20 0 33 -11q11 -11 11 -29q0 -14 -4.5 -29t-13.5 -23q-15 -18 -45 -18q-20 0 -33 11q-11 11 -11 29q0 14 4.5 28.5t13.5 23.5zM244 177q15 18 45 18q20 0 33 -11q11 -11 11 -29q0 -14 -4.5 -29t-13.5 -23
q-15 -18 -45 -18q-20 0 -33 11q-11 11 -11 29q0 14 4.5 28.5t13.5 23.5z" />
    <glyph glyph-name="equal" unicode="=" 
d="M513 237l-13 -72h-432l13 72h432zM544 417l-13 -72h-432l13 72h432z" />
    <glyph glyph-name="logicalnot" unicode="&#xac;" 
d="M544 417l-42 -246h-82l30 174h-351l13 72h432z" />
    <glyph glyph-name="greater" unicode="&#x3e;" 
d="M519 321l-10 -60l-431 -174l-20 75l337 134l-288 133l42 66z" />
    <glyph glyph-name="notequal" unicode="&#x2260;" 
d="M346 417l59 88l55 -29l-40 -59h124l-13 -72h-159l-73 -108h214l-13 -72h-249l-52 -77l-55 29l32 48h-108l13 72h144l72 108h-198l13 72h234z" />
    <glyph glyph-name="approxequal" unicode="&#x2248;" 
d="M71 173q53 112 143 112q11 0 21.5 -1.5t22.5 -6t26.5 -12t34.5 -20.5q18 -11 32.5 -17.5t28.5 -6.5q40 0 72 60l59 -23q-23 -55 -57 -83.5t-78 -28.5q-34 0 -58 11.5t-46 25.5q-25 16 -39.5 21.5t-26.5 5.5q-19 0 -34.5 -13t-37.5 -47zM100 338q53 112 143 112
q11 0 21.5 -1.5t22.5 -6t26.5 -12t34.5 -20.5q18 -11 32.5 -17.5t28.5 -6.5q40 0 72 60l59 -23q-23 -55 -57 -83.5t-78 -28.5q-34 0 -58 11.5t-46 25.5q-25 16 -39.5 21.5t-26.5 5.5q-19 0 -34.5 -13t-37.5 -47z" />
    <glyph glyph-name="plusminus" unicode="&#xb1;" 
d="M448 117l-13 -72h-432l13 72h432zM247 439l31 174h81l-31 -174h176l-13 -72h-176l-30 -174h-81l30 174h-175l13 72h175z" />
    <glyph glyph-name="lessequal" unicode="&#x2264;" 
d="M448 117l-13 -72h-432l13 72h432zM504 616l20 -75l-337 -134l288 -133l-42 -66l-370 174l10 60z" />
    <glyph glyph-name="greaterequal" unicode="&#x2265;" 
d="M449 117l-13 -72h-432l13 72h432zM506 442l-10 -60l-431 -174l-20 75l337 134l-288 133l42 66z" />
    <glyph glyph-name="asciicircum" unicode="^" 
d="M379 563l108 -249l-72 -28l-75 176l-139 -180l-71 32l195 249h54z" />
    <glyph glyph-name="asciitilde" unicode="~" 
d="M87 262q53 112 143 112q11 0 21.5 -1.5t22.5 -6t26.5 -12t34.5 -20.5q18 -11 32.5 -17.5t28.5 -6.5q40 0 72 60l59 -23q-23 -55 -57 -83.5t-78 -28.5q-34 0 -58 11.5t-46 25.5q-25 16 -39.5 21.5t-26.5 5.5q-19 0 -34.5 -13t-37.5 -47z" />
    <glyph glyph-name="lozenge" unicode="&#x25ca;" 
d="M396 678l126 -339l-244 -339h-46l-126 339l244 339h46zM188 331l82 -222l170 238l-82 222z" />
    <glyph glyph-name="degree" unicode="&#xb0;" 
d="M268 519q-3 -15 -3 -30q0 -66 64 -66q79 0 95 97l1 6q3 15 3 30q0 66 -64 66q-79 0 -95 -97zM193 531q11 73 57.5 115t125.5 42q64 0 97 -33t33 -84q0 -19 -3 -38l-3 -19q-11 -76 -59 -116.5t-123 -40.5q-60 0 -95.5 30.5t-35.5 86.5q0 18 3 38z" />
    <glyph glyph-name="quotesingle" unicode="'" horiz-adv-x="210" 
d="M246 784l-49 -216h-66l26 216h89z" />
    <glyph glyph-name="quotedbl" unicode="&#x22;" horiz-adv-x="348" 
d="M384 784l-50 -216h-65l26 216h89zM246 784l-49 -216h-66l26 216h89z" />
    <glyph glyph-name="radical" unicode="&#x221a;" horiz-adv-x="641" 
d="M143 441l81 -333l348 668h157l-13 -77h-106l-376 -709h-54l-109 435z" />
    <glyph glyph-name="currency" unicode="&#xa4;" horiz-adv-x="586" 
d="M185 496l49 -58q42 22 94 22h5q25 0 44.5 -5.5t35.5 -14.5l70 58l50 -62l-69 -58q9 -26 9 -50q0 -71 -41 -124l48 -56l-62 -52l-49 57q-41 -21 -93 -21h-5q-26 0 -45.5 5t-34.5 14l-70 -57l-50 62l69 57q-5 13 -7 26t-2 25q0 70 40 122l-48 58zM316 392q-45 0 -75 -30
q-16 -16 -25 -39t-9 -49q0 -33 18.5 -53.5t57.5 -20.5h5q45 0 75 30q16 16 25 39t9 49q0 33 -18.5 53.5t-57.5 20.5h-5z" />
    <glyph glyph-name="infinity" unicode="&#x221e;" horiz-adv-x="684" 
d="M229 414q-18 0 -35.5 -8.5t-31 -25t-21.5 -39.5t-8 -51q0 -22 6.5 -36.5t17 -23.5t23.5 -12.5t27 -3.5h4q28 0 54 15.5t55 50.5l-6 30q-6 30 -13 51t-17 32q-16 21 -48 21h-7zM244 478q42 0 72 -15.5t53 -53.5q63 69 140 69h5q58 0 94 -34q20 -18 30 -45t10 -59
q0 -39 -13 -73.5t-37 -60.5t-56.5 -41t-71.5 -15h-4q-42 0 -72.5 15.5t-53.5 53.5q-63 -69 -140 -69h-5q-57 0 -93 34q-20 18 -30 45t-10 59q0 39 13 73.5t37 60.5t56.5 41t71.5 15h4zM396 318q6 -30 13 -51t17 -32q16 -21 48 -21h7q18 0 35.5 8.5t31 25t21.5 39t8 51.5
q0 22 -6.5 36.5t-17 23.5t-24 12.5t-26.5 3.5h-4q-28 0 -54 -15.5t-55 -50.5z" />
    <glyph glyph-name="mu" unicode="&#xb5;" horiz-adv-x="521" 
d="M186 482l-53 -303q-2 -9 -2.5 -18.5t-0.5 -17.5q0 -45 22 -64t64 -19q30 0 62 9.5t64 30.5l67 382h80l-62 -357q-5 -31 -9.5 -64.5t-5.5 -58.5l-62 -8l-9 41q-38 -23 -74.5 -34t-69.5 -11q-70 0 -107 32q-1 -48 -5.5 -101t-12.5 -96l-7 -39h-80l121 696h80z" />
    <glyph glyph-name="partialdiff" unicode="&#x2202;" horiz-adv-x="592" 
d="M296 732q66 -23 111 -53t72.5 -67t39.5 -82t12 -99q0 -32 -3 -68.5t-11 -78.5l-5 -26q-15 -81 -37 -133t-55 -82q-30 -28 -69 -40.5t-92 -12.5h-10q-42 0 -79 12.5t-61 37.5q-23 23 -33 55t-10 72q0 13 1.5 31t5.5 43l3 19q22 137 92 199.5t181 62.5h6q19 0 40.5 -3
t41.5 -8q-17 56 -61.5 93t-126.5 70zM156 246q-3 -19 -5 -38t-2 -35q0 -57 27 -84.5t88 -27.5h9q32 0 58 12t44 33q20 23 31.5 61t20.5 86l5 26q8 43 12 81t4 62v13q-26 8 -51 11.5t-45 3.5h-6q-78 0 -125 -43.5t-63 -147.5z" />
    <glyph glyph-name="summation" unicode="&#x2211;" horiz-adv-x="594" 
d="M146 675q31 3 82 3h405l-24 -75h-376l193 -342l-7 -44l-318 -346q-10 -10 0 -10h389l-24 -75h-421q-24 0 -38 15.5t-14 35.5q0 27 20 50l334 362l-211 373z" />
    <glyph glyph-name="product" unicode="&#x220f;" horiz-adv-x="637" 
d="M637 678l-152 -874h-85l139 799h-313l-139 -799h-85l152 874h483z" />
    <glyph glyph-name="pi" unicode="&#x3c0;" horiz-adv-x="590" 
d="M608 482l-21 -70h-95l-48 -279q-2 -11 -3 -20t-1 -17q0 -19 7.5 -26t27.5 -7q14 0 46 9l-1 -66q-22 -6 -40.5 -8.5t-32.5 -2.5q-46 0 -67.5 21.5t-21.5 59.5q0 25 6 57l48 279h-185l-71 -412h-80l71 412h-95l12 70h544z" />
    <glyph glyph-name="integral" unicode="&#x222b;" 
d="M284 -52q-7 -38 -18.5 -64.5t-31.5 -46.5q-47 -48 -137 -48q-50 0 -102 18l27 67q20 -8 40.5 -11.5t37.5 -3.5q50 0 73.5 23t31.5 71l106 603q7 38 18.5 64.5t31.5 46.5q46 48 137 48q49 0 102 -18l-27 -67q-41 15 -78 15q-50 0 -73.5 -23t-31.5 -71z" />
    <glyph glyph-name="Omega" unicode="&#x3a9;" horiz-adv-x="670" 
d="M419 688q53 0 98 -15t73 -44q56 -58 56 -170q0 -17 -3 -44.5t-8 -57.5l-6 -36q-14 -82 -50 -145t-99 -106h108l-20 -70h-225l8 55q36 15 67.5 42t56.5 63t42.5 78.5t25.5 87.5l5 27q5 28 7.5 53.5t2.5 48.5q0 84 -40.5 120t-112.5 36h-8q-51 0 -89 -15t-66 -46.5
t-47.5 -80.5t-31.5 -116l-5 -27q-6 -38 -6 -72q0 -69 26 -120.5t77 -78.5l-10 -55h-225l4 70h112q-35 32 -53 77.5t-19 102.5q0 33 6 71l6 36q15 89 42.5 152t69 102.5t96.5 58t124 18.5h11z" />
    <glyph glyph-name="Omega" unicode="&#x2126;" horiz-adv-x="670" 
d="M419 688q53 0 98 -15t73 -44q56 -58 56 -170q0 -17 -3 -44.5t-8 -57.5l-6 -36q-14 -82 -50 -145t-99 -106h108l-20 -70h-225l8 55q36 15 67.5 42t56.5 63t42.5 78.5t25.5 87.5l5 27q5 28 7.5 53.5t2.5 48.5q0 84 -40.5 120t-112.5 36h-8q-51 0 -89 -15t-66 -46.5
t-47.5 -80.5t-31.5 -116l-5 -27q-6 -38 -6 -72q0 -69 26 -120.5t77 -78.5l-10 -55h-225l4 70h112q-35 32 -53 77.5t-19 102.5q0 33 6 71l6 36q15 89 42.5 152t69 102.5t96.5 58t124 18.5h11z" />
    <glyph glyph-name="Delta" unicode="&#x2206;" horiz-adv-x="613" 
d="M432 678q15 -72 30 -152t29.5 -162t28 -163.5t25.5 -156.5l-7 -44h-547l7 44q38 76 80 157.5t85 162.5t86.5 160.5t85.5 153.5h97zM366 584q-32 -55 -65.5 -117t-67.5 -127.5t-68 -132.5t-65 -132h359q-9 65 -19 132t-21.5 132.5t-23 127.5t-23.5 117h-6z" />
    <glyph glyph-name="litre" unicode="&#x2113;" horiz-adv-x="343" 
d="M232 705l-95 -543q-3 -17 -5 -31t-2 -25q0 -22 12.5 -32.5t43.5 -10.5h3q18 0 40 3t48 11l4 -59q-65 -23 -117 -23h-3q-57 0 -86 29q-25 25 -25 70q0 25 6 61l96 550h80z" />
    <glyph glyph-name="estimated" unicode="&#x212e;" horiz-adv-x="914" 
d="M225 127q0 -6 2.5 -11.5t6.5 -10.5q42 -44 100 -70.5t125 -26.5q71 0 131.5 29t103.5 80h53q-50 -59 -125.5 -94t-163.5 -35q-76 0 -143 26t-117 71t-79 105t-29 128q0 69 29 129.5t79 105t117 70.5t143 26q75 0 142 -26t116.5 -70.5t78.5 -105t29 -129.5v-8h-595
q-4 0 -4 -4v-179zM225 334q0 -5 4 -5h456q5 0 5 5v181q0 13 -10 21q-42 43 -99 68t-122 25q-67 0 -124.5 -25.5t-99.5 -70.5q-10 -8 -10 -23v-176z" />
    <glyph glyph-name="numero" unicode="&#x2116;" horiz-adv-x="1014" 
d="M253 678l234 -564l98 564h81l-119 -684h-89l-243 573l-98 -567h-81l118 678h99zM785 519q-3 -15 -3 -30q0 -66 64 -66q79 0 95 97l1 6q3 15 3 30q0 66 -64 66q-79 0 -95 -97zM710 531q11 73 57.5 115t125.5 42q64 0 97 -33t33 -84q0 -19 -3 -38l-3 -19
q-11 -76 -59 -116.5t-123 -40.5q-60 0 -95.5 30.5t-35.5 86.5q0 18 3 38zM982 305l-12 -69h-311l12 69h311z" />
    <glyph glyph-name="fraction" unicode="&#x2044;" horiz-adv-x="518" 
d="M577 678l-512 -678h-88l512 678h88z" />
    <glyph glyph-name="onesuperior" unicode="&#xb9;" horiz-adv-x="366" 
d="M112 636q45 9 81.5 22t65.5 28h43l-62 -355h98l-17 -59h-257l11 59h100l48 276q-14 -7 -43 -15t-65 -16z" />
    <glyph glyph-name="twosuperior" unicode="&#xb2;" horiz-adv-x="366" 
d="M114 652q39 19 73 27.5t62 8.5q30 0 52.5 -8.5t36.5 -23t21 -33t7 -37.5q0 -26 -10 -55.5t-39 -64.5q-34 -41 -105 -96l-51 -39h173l-25 -59h-260l8 45l116 91q16 13 37.5 31t41 40t33 46.5t13.5 49.5q0 26 -16 38.5t-42 12.5q-23 0 -49.5 -7t-66.5 -24z" />
    <glyph glyph-name="threesuperior" unicode="&#xb3;" horiz-adv-x="366" 
d="M123 657q34 15 65.5 23t61.5 8q27 0 49.5 -7.5t37.5 -22.5q24 -22 24 -58q0 -25 -13 -51.5t-41 -50.5q20 -9 30.5 -29.5t10.5 -48.5q0 -31 -10.5 -59t-31.5 -49q-46 -46 -130 -46q-30 0 -63.5 7.5t-65.5 23.5l31 55q27 -13 54 -18.5t50 -5.5q48 0 75 24q13 11 18.5 26.5
t5.5 30.5q0 26 -15 36t-43 10h-68l10 59h89q16 12 28.5 31t12.5 39q0 42 -56 42q-41 0 -109 -25z" />
    <glyph glyph-name="onehalf" unicode="&#xbd;" horiz-adv-x="912" 
d="M112 636q45 9 81.5 22t65.5 28h43l-62 -355h98l-17 -59h-257l11 59h100l48 276q-14 -7 -43 -15t-65 -16zM771 678l-512 -678h-88l512 678h88zM607 381q39 19 73 27.5t62 8.5q30 0 52.5 -8.5t36.5 -23t21 -33t7 -37.5q0 -26 -10 -55.5t-39 -64.5q-34 -41 -105 -96l-51 -39
h173l-25 -59h-260l8 45l116 91q16 13 37.5 31t41 40t33 46.5t13.5 49.5q0 26 -16 38.5t-42 12.5q-23 0 -49.5 -7t-66.5 -24z" />
    <glyph glyph-name="onequarter" unicode="&#xbc;" horiz-adv-x="912" 
d="M798 410l-47 -270h68l-16 -61h-63l-13 -79h-63l14 79h-187l-7 36q58 89 118 162t120 133h76zM688 140l32 185q-37 -39 -77.5 -89.5t-71.5 -95.5h117zM112 636q45 9 81.5 22t65.5 28h43l-62 -355h98l-17 -59h-257l11 59h100l48 276q-14 -7 -43 -15t-65 -16zM771 678
l-512 -678h-88l512 678h88z" />
    <glyph glyph-name="threequarters" unicode="&#xbe;" horiz-adv-x="912" 
d="M798 410l-47 -270h68l-16 -61h-63l-13 -79h-63l14 79h-187l-7 36q58 89 118 162t120 133h76zM688 140l32 185q-37 -39 -77.5 -89.5t-71.5 -95.5h117zM123 657q34 15 65.5 23t61.5 8q27 0 49.5 -7.5t37.5 -22.5q24 -22 24 -58q0 -25 -13 -51.5t-41 -50.5q20 -9 30.5 -29.5
t10.5 -48.5q0 -31 -10.5 -59t-31.5 -49q-46 -46 -130 -46q-30 0 -63.5 7.5t-65.5 23.5l31 55q27 -13 54 -18.5t50 -5.5q48 0 75 24q13 11 18.5 26.5t5.5 30.5q0 26 -15 36t-43 10h-68l10 59h89q16 12 28.5 31t12.5 39q0 42 -56 42q-41 0 -109 -25zM771 678l-512 -678h-88
l512 678h88z" />
    <glyph glyph-name="grave" unicode="`" horiz-adv-x="405" 
d="M222 717q11 -26 31 -69t46 -88h-72q-12 15 -26 35t-28 41.5t-26.5 42.5t-22.5 38h98z" />
    <glyph glyph-name="acute" unicode="&#xb4;" horiz-adv-x="405" 
d="M353 717q-16 -17 -36 -38t-41.5 -42.5t-42.5 -41.5t-39 -35h-88q42 45 77.5 88t55.5 69h114z" />
    <glyph glyph-name="dieresis" unicode="&#xa8;" horiz-adv-x="405" 
d="M185 690q43 0 43 -40q0 -33 -16.5 -50t-45.5 -17q-43 0 -43 40q0 33 16.5 50t45.5 17zM335 690q43 0 43 -40q0 -33 -16.5 -50t-45.5 -17q-43 0 -43 40q0 33 16.5 50t45.5 17z" />
    <glyph glyph-name="circumflex" unicode="&#x2c6;" horiz-adv-x="405" 
d="M301 699q11 -23 33 -59t47 -71h-92q-4 5 -9 13.5t-10 17.5t-9.5 17t-7.5 14q-5 -6 -12.5 -14t-16 -17t-16.5 -17.5t-14 -13.5h-97q16 15 33.5 32.5t34.5 35t31.5 34t25.5 28.5h79z" />
    <glyph glyph-name="tilde" unicode="&#x2dc;" horiz-adv-x="405" 
d="M88 594q17 43 42 68q14 14 31.5 22.5t38.5 8.5q28 0 63 -24l22 -15q17 -11 28 -11q13 0 23.5 11.5t22.5 35.5l53 -19q-17 -46 -42 -72.5t-60 -26.5q-31 0 -69 26l-18 12q-20 13 -31 13t-22.5 -11t-25.5 -36z" />
    <glyph glyph-name="macron" unicode="&#xaf;" horiz-adv-x="405" 
d="M390 658l-12 -68h-269l12 68h269z" />
    <glyph glyph-name="breve" unicode="&#x2d8;" horiz-adv-x="405" 
d="M204 679q-2 -25 11 -38t34 -13h4q43 0 58 51h71q-6 -26 -17.5 -47.5t-28.5 -36.5q-18 -16 -40.5 -24t-51.5 -8q-51 0 -80.5 28.5t-29.5 76.5v11h70z" />
    <glyph glyph-name="dotaccent" unicode="&#x2d9;" horiz-adv-x="405" 
d="M261 693q23 0 34 -11t11 -31q0 -35 -17.5 -53t-48.5 -18q-23 0 -34 11t-11 31q0 35 17.5 53t48.5 18z" />
    <glyph glyph-name="ring" unicode="&#x2da;" horiz-adv-x="405" 
d="M220 621q0 -23 25 -23q16 0 24.5 9.5t8.5 23.5q0 23 -25 23q-16 0 -24.5 -9.5t-8.5 -23.5zM262 712q34 0 54 -20.5t20 -54.5q0 -17 -6 -34.5t-20 -31.5q-15 -16 -34.5 -23.5t-39.5 -7.5q-34 0 -54 20.5t-20 54.5q0 17 6 34.5t20 31.5q15 16 34.5 23.5t39.5 7.5z" />
    <glyph glyph-name="cedilla" unicode="&#xb8;" horiz-adv-x="405" 
d="M170 16l-30 -63q16 4 31 4q17 0 33.5 -5.5t27.5 -19.5q16 -18 16 -49q0 -20 -7 -40.5t-23 -34.5q-15 -14 -37.5 -22.5t-54.5 -8.5q-27 0 -55.5 7t-56.5 21l28 57q25 -12 47 -17t39 -5q23 0 36 7.5t13 23.5q0 11 -8.5 17.5t-31.5 6.5q-11 0 -24.5 -1t-31.5 -5l-23 22
l52 105h60z" />
    <glyph glyph-name="hungarumlaut" unicode="&#x2dd;" horiz-adv-x="405" 
d="M273 689q-30 -38 -64 -77t-60 -66h-82q30 38 57.5 76t46.5 67h102zM424 689q-30 -38 -64 -77t-60 -66h-82q30 38 57.5 76t46.5 67h102z" />
    <glyph glyph-name="ogonek" unicode="&#x2db;" horiz-adv-x="405" 
d="M203 28l3 -18q-33 -23 -52.5 -48.5t-19.5 -47.5q0 -27 31 -27q12 0 25 3t33 10l7 -56q-23 -11 -44.5 -15.5t-39.5 -4.5q-43 0 -64 21q-20 20 -20 53q0 31 22.5 66t74.5 64h44z" />
    <glyph glyph-name="caron" unicode="&#x2c7;" horiz-adv-x="405" 
d="M207 680q8 -10 20 -29t17 -30q5 6 12.5 14t15.5 16.5t15.5 16t13.5 12.5h98q-16 -14 -33 -31l-33.5 -33.5t-31.5 -32t-25 -27.5h-79q-11 22 -33.5 56.5t-47.5 67.5h91z" />
    <glyph glyph-name="commaaccent" unicode="&#x326;" horiz-adv-x="405" 
d="M177 -74q-17 -42 -41.5 -90.5t-50.5 -89.5l-67 14q19 37 36 81t28 85h95z" />
    <glyph glyph-name="grave.cap" horiz-adv-x="405" 
d="M240 884q7 -15 17 -33t21 -37t22.5 -38t22.5 -35h-80q-12 14 -26 32t-28.5 37.5t-28.5 38.5t-24 35h104z" />
    <glyph glyph-name="acute.cap" horiz-adv-x="405" 
d="M410 884q-16 -16 -36 -35t-41 -38.5t-41.5 -37.5t-37.5 -32h-96q16 16 34.5 35t36 38t34 37t28.5 33h119z" />
    <glyph glyph-name="dieresis.cap" horiz-adv-x="405" 
d="M230 854q44 0 44 -41q0 -34 -17 -51t-46 -17q-44 0 -44 41q0 34 17 51t46 17zM382 854q44 0 44 -41q0 -34 -17 -51t-46 -17q-44 0 -44 41q0 34 17 51t46 17z" />
    <glyph glyph-name="circumflex.cap" horiz-adv-x="405" 
d="M348 862q11 -22 33.5 -57.5t46.5 -69.5h-92q-4 5 -9 13.5t-10 17.5t-9.5 17t-7.5 14q-5 -6 -12.5 -14t-16 -17t-16.5 -17.5t-14 -13.5h-98q15 14 32 30.5t33.5 34t32 33.5t26.5 29h81z" />
    <glyph glyph-name="tilde.cap" horiz-adv-x="405" 
d="M134 755q17 43 42 68q14 14 31.5 22.5t38.5 8.5q28 0 63 -24l22 -15q17 -11 28 -11q13 0 23.5 11.5t22.5 35.5l53 -19q-17 -46 -42 -72.5t-60 -26.5q-31 0 -69 26l-18 12q-20 13 -31 13t-22.5 -11t-25.5 -36z" />
    <glyph glyph-name="macron.cap" horiz-adv-x="405" 
d="M434 813l-12 -70h-268l12 70h268z" />
    <glyph glyph-name="breve.cap" horiz-adv-x="405" 
d="M248 844q-2 -22 11 -33.5t34 -11.5h4q41 0 57 45h71q-12 -51 -46 -80q-18 -15 -40 -23t-51 -8q-51 0 -80.5 27.5t-29.5 72.5v11h70z" />
    <glyph glyph-name="dotaccent.cap" horiz-adv-x="405" 
d="M308 860q23 0 34 -11t11 -31q0 -35 -17.5 -53t-48.5 -18q-23 0 -34 11t-11 31q0 35 17.5 53t48.5 18z" />
    <glyph glyph-name="ring.cap" horiz-adv-x="405" 
d="M268 792q0 -23 25 -23q16 0 24.5 9.5t8.5 23.5q0 23 -25 23q-16 0 -24.5 -9.5t-8.5 -23.5zM236 852q15 16 34.5 23.5t39.5 7.5q34 0 54 -20.5t20 -54.5q0 -17 -6 -34.5t-20 -31.5q-15 -16 -34.5 -23.5t-39.5 -7.5q-34 0 -54 20.5t-20 54.5q0 17 6 34.5t20 31.5z" />
    <glyph glyph-name="hungarumlaut.cap" horiz-adv-x="405" 
d="M333 867q-10 -12 -27.5 -30t-37 -37.5t-39 -37.5l-32.5 -30h-90q16 18 33.5 37.5t33.5 38t28.5 34t19.5 25.5h111zM493 867q-10 -12 -27.5 -30t-37 -37.5t-39 -37.5l-32.5 -30h-90q16 18 33.5 37.5t33.5 38t28.5 34t19.5 25.5h111z" />
    <glyph glyph-name="caron.cap" horiz-adv-x="405" 
d="M255 856q4 -5 9 -13t10.5 -17t10.5 -17t8 -14q4 5 11.5 13.5t15.5 17l16 17t14 13.5h99q-18 -17 -35.5 -34.5l-34 -34t-30.5 -31t-23 -24.5h-81q-8 15 -18 31.5t-21 33.5t-22 32t-20 27h91z" />
    <glyph glyph-name="Agrave" unicode="&#xc0;" horiz-adv-x="601" 
d="M429 678q16 -77 32.5 -162.5t32 -173.5t29.5 -175.5t26 -166.5h-90l-22 150h-303q-19 -39 -36.5 -77t-33.5 -73h-94q39 78 83 165t90.5 175.5t93.5 174.5t90 163h102zM426 223q-15 100 -31 193t-30 175q-44 -78 -95 -174.5t-100 -193.5h256zM334 884q7 -15 17 -33t21 -37
t22.5 -38t22.5 -35h-80q-12 14 -26 32t-28.5 37.5t-28.5 38.5t-24 35h104z" />
    <glyph glyph-name="Aacute" unicode="&#xc1;" horiz-adv-x="601" 
d="M429 678q16 -77 32.5 -162.5t32 -173.5t29.5 -175.5t26 -166.5h-90l-22 150h-303q-19 -39 -36.5 -77t-33.5 -73h-94q39 78 83 165t90.5 175.5t93.5 174.5t90 163h102zM426 223q-15 100 -31 193t-30 175q-44 -78 -95 -174.5t-100 -193.5h256zM544 884q-16 -16 -36 -35
t-41 -38.5t-41.5 -37.5t-37.5 -32h-96q16 16 34.5 35t36 38t34 37t28.5 33h119z" />
    <glyph glyph-name="Acircumflex" unicode="&#xc2;" horiz-adv-x="601" 
d="M429 678q16 -77 32.5 -162.5t32 -173.5t29.5 -175.5t26 -166.5h-90l-22 150h-303q-19 -39 -36.5 -77t-33.5 -73h-94q39 78 83 165t90.5 175.5t93.5 174.5t90 163h102zM426 223q-15 100 -31 193t-30 175q-44 -78 -95 -174.5t-100 -193.5h256zM452 862q11 -22 33.5 -57.5
t46.5 -69.5h-92q-4 5 -9 13.5t-10 17.5t-9.5 17t-7.5 14q-5 -6 -12.5 -14t-16 -17t-16.5 -17.5t-14 -13.5h-98q15 14 32 30.5t33.5 34t32 33.5t26.5 29h81z" />
    <glyph glyph-name="Atilde" unicode="&#xc3;" horiz-adv-x="601" 
d="M429 678q16 -77 32.5 -162.5t32 -173.5t29.5 -175.5t26 -166.5h-90l-22 150h-303q-19 -39 -36.5 -77t-33.5 -73h-94q39 78 83 165t90.5 175.5t93.5 174.5t90 163h102zM426 223q-15 100 -31 193t-30 175q-44 -78 -95 -174.5t-100 -193.5h256zM237 755q17 43 42 68
q14 14 31.5 22.5t38.5 8.5q28 0 63 -24l22 -15q17 -11 28 -11q13 0 23.5 11.5t22.5 35.5l53 -19q-17 -46 -42 -72.5t-60 -26.5q-31 0 -69 26l-18 12q-20 13 -31 13t-22.5 -11t-25.5 -36z" />
    <glyph glyph-name="Adieresis" unicode="&#xc4;" horiz-adv-x="601" 
d="M429 678q16 -77 32.5 -162.5t32 -173.5t29.5 -175.5t26 -166.5h-90l-22 150h-303q-19 -39 -36.5 -77t-33.5 -73h-94q39 78 83 165t90.5 175.5t93.5 174.5t90 163h102zM426 223q-15 100 -31 193t-30 175q-44 -78 -95 -174.5t-100 -193.5h256zM333 854q44 0 44 -41
q0 -34 -17 -51t-46 -17q-44 0 -44 41q0 34 17 51t46 17zM485 854q44 0 44 -41q0 -34 -17 -51t-46 -17q-44 0 -44 41q0 34 17 51t46 17z" />
    <glyph glyph-name="Amacron" unicode="&#x100;" horiz-adv-x="601" 
d="M429 678q16 -77 32.5 -162.5t32 -173.5t29.5 -175.5t26 -166.5h-90l-22 150h-303q-19 -39 -36.5 -77t-33.5 -73h-94q39 78 83 165t90.5 175.5t93.5 174.5t90 163h102zM426 223q-15 100 -31 193t-30 175q-44 -78 -95 -174.5t-100 -193.5h256zM536 813l-12 -70h-268l12 70
h268z" />
    <glyph glyph-name="Abreve" unicode="&#x102;" horiz-adv-x="601" 
d="M429 678q16 -77 32.5 -162.5t32 -173.5t29.5 -175.5t26 -166.5h-90l-22 150h-303q-19 -39 -36.5 -77t-33.5 -73h-94q39 78 83 165t90.5 175.5t93.5 174.5t90 163h102zM426 223q-15 100 -31 193t-30 175q-44 -78 -95 -174.5t-100 -193.5h256zM354 844q-2 -22 11 -33.5
t34 -11.5h4q41 0 57 45h71q-12 -51 -46 -80q-18 -15 -40 -23t-51 -8q-51 0 -80.5 27.5t-29.5 72.5v11h70z" />
    <glyph glyph-name="Acaron" unicode="&#x1cd;" horiz-adv-x="601" 
d="M429 678q16 -77 32.5 -162.5t32 -173.5t29.5 -175.5t26 -166.5h-90l-22 150h-303q-19 -39 -36.5 -77t-33.5 -73h-94q39 78 83 165t90.5 175.5t93.5 174.5t90 163h102zM426 223q-15 100 -31 193t-30 175q-44 -78 -95 -174.5t-100 -193.5h256zM358 856q4 -5 9 -13t10.5 -17
t10.5 -17t8 -14q4 5 11.5 13.5t15.5 17l16 17t14 13.5h99q-18 -17 -35.5 -34.5l-34 -34t-30.5 -31t-23 -24.5h-81q-8 15 -18 31.5t-21 33.5t-22 32t-20 27h91z" />
    <glyph glyph-name="Aring" unicode="&#xc5;" horiz-adv-x="602" 
d="M435 655q15 -75 31 -158t31 -168t28.5 -169t24.5 -160h-90l-22 150h-303q-19 -39 -36.5 -77t-33.5 -73h-94q37 75 80 159.5t88 170t90.5 170t87.5 159.5q-17 20 -17 52q0 17 6 34.5t20 31.5q15 16 34.5 23.5t39.5 7.5q34 0 54 -20.5t20 -54.5q0 -17 -6 -34.5t-20 -31.5z
M358 717q0 -23 25 -23q16 0 24.5 9.5t8.5 23.5q0 23 -25 23q-16 0 -24.5 -9.5t-8.5 -23.5zM427 223q-15 100 -31 193t-30 175q-44 -78 -95 -174.5t-100 -193.5h256z" />
    <glyph glyph-name="Aringacute" unicode="&#x1fa;" horiz-adv-x="602" 
d="M435 655q15 -75 31 -158t31 -168t28.5 -169t24.5 -160h-90l-22 150h-303q-19 -39 -36.5 -77t-33.5 -73h-94q37 75 80 159.5t88 170t90.5 170t87.5 159.5q-17 20 -17 52q0 17 6 34.5t20 31.5q15 16 34.5 23.5t39.5 7.5q34 0 54 -20.5t20 -54.5q0 -17 -6 -34.5t-20 -31.5z
M358 717q0 -23 25 -23q16 0 24.5 9.5t8.5 23.5q0 23 -25 23q-16 0 -24.5 -9.5t-8.5 -23.5zM427 223q-15 100 -31 193t-30 175q-44 -78 -95 -174.5t-100 -193.5h256zM612 990q-16 -16 -36 -35t-41 -38.5t-41.5 -37.5t-37.5 -32h-96q16 16 34.5 35t36 38t34 37t28.5 33h119z
" />
    <glyph glyph-name="Aogonek" unicode="&#x104;" horiz-adv-x="601" 
d="M429 678q16 -77 32.5 -162.5t32 -173.5t29.5 -175.5t26 -166.5q-23 -12 -38 -24.5t-23.5 -23.5t-11.5 -21t-3 -17q0 -27 31 -27q12 0 25 3t33 10l7 -56q-23 -11 -44.5 -15.5t-39.5 -4.5q-43 0 -64 21q-20 20 -20 53q0 26 14 54t43 53l-21 145h-303q-19 -39 -36.5 -77
t-33.5 -73h-94q39 78 83 165t90.5 175.5t93.5 174.5t90 163h102zM426 223q-15 100 -31 193t-30 175q-44 -78 -95 -174.5t-100 -193.5h256z" />
    <glyph glyph-name="AE" unicode="&#xc6;" horiz-adv-x="869" 
d="M925 678l-23 -75h-319l-38 -221q25 2 52 3t50 1h140l-24 -75h-231l-41 -235h329l-23 -76h-326q-19 0 -39 0.5t-39 1.5l26 148h-244l-103 -150h-102q55 78 117.5 165t127.5 175.5t129.5 174.5t123.5 163h457zM432 223l65 371q-71 -94 -136.5 -184.5t-133.5 -186.5h205z
" />
    <glyph glyph-name="AEacute" unicode="&#x1fc;" horiz-adv-x="869" 
d="M925 678l-23 -75h-319l-38 -221q25 2 52 3t50 1h140l-24 -75h-231l-41 -235h329l-23 -76h-326q-19 0 -39 0.5t-39 1.5l26 148h-244l-103 -150h-102q55 78 117.5 165t127.5 175.5t129.5 174.5t123.5 163h457zM432 223l65 371q-71 -94 -136.5 -184.5t-133.5 -186.5h205z
M831 884q-16 -16 -36 -35t-41 -38.5t-41.5 -37.5t-37.5 -32h-96q16 16 34.5 35t36 38t34 37t28.5 33h119z" />
    <glyph glyph-name="Cacute" unicode="&#x106;" horiz-adv-x="568" 
d="M76 354q26 153 107 239q44 46 101 70.5t129 24.5q48 0 96.5 -13.5t93.5 -40.5l-39 -63q-35 20 -73.5 30t-76.5 10q-47 0 -88.5 -17.5t-74.5 -51t-56 -82.5t-33 -111l-2 -12q-5 -28 -7.5 -54t-2.5 -48q0 -85 38 -126.5t132 -41.5q76 0 172 38l13 -63q-48 -26 -100 -39
t-103 -13q-120 0 -180 61.5t-60 173.5q0 49 10 105zM586 884q-16 -16 -36 -35t-41 -38.5t-41.5 -37.5t-37.5 -32h-96q16 16 34.5 35t36 38t34 37t28.5 33h119z" />
    <glyph glyph-name="Ccedilla" unicode="&#xc7;" horiz-adv-x="568" 
d="M76 354q26 153 107 239q44 46 101 70.5t129 24.5q48 0 96.5 -13.5t93.5 -40.5l-39 -63q-35 20 -73.5 30t-76.5 10q-47 0 -88.5 -17.5t-74.5 -51t-56 -82.5t-33 -111l-2 -12q-5 -28 -7.5 -54t-2.5 -48q0 -85 38 -126.5t132 -41.5q76 0 172 38l13 -63q-48 -26 -100 -39
t-103 -13h-1l-17 -37q16 4 31 4q17 0 33.5 -5.5t27.5 -19.5q16 -18 16 -49q0 -20 -7 -40.5t-23 -34.5q-15 -14 -37.5 -22.5t-54.5 -8.5q-27 0 -55.5 7t-56.5 21l28 57q25 -12 47 -17t39 -5q23 0 36 7.5t13 23.5q0 11 -8.5 17.5t-31.5 6.5q-11 0 -24.5 -1t-31.5 -5l-23 22
l41 84q-91 14 -136 73t-45 157q0 49 10 105z" />
    <glyph glyph-name="Ccircumflex" unicode="&#x108;" horiz-adv-x="568" 
d="M76 354q26 153 107 239q44 46 101 70.5t129 24.5q48 0 96.5 -13.5t93.5 -40.5l-39 -63q-35 20 -73.5 30t-76.5 10q-47 0 -88.5 -17.5t-74.5 -51t-56 -82.5t-33 -111l-2 -12q-5 -28 -7.5 -54t-2.5 -48q0 -85 38 -126.5t132 -41.5q76 0 172 38l13 -63q-48 -26 -100 -39
t-103 -13q-120 0 -180 61.5t-60 173.5q0 49 10 105zM492 862q11 -22 33.5 -57.5t46.5 -69.5h-92q-4 5 -9 13.5t-10 17.5t-9.5 17t-7.5 14q-5 -6 -12.5 -14t-16 -17t-16.5 -17.5t-14 -13.5h-98q15 14 32 30.5t33.5 34t32 33.5t26.5 29h81z" />
    <glyph glyph-name="Ccaron" unicode="&#x10c;" horiz-adv-x="568" 
d="M76 354q26 153 107 239q44 46 101 70.5t129 24.5q48 0 96.5 -13.5t93.5 -40.5l-39 -63q-35 20 -73.5 30t-76.5 10q-47 0 -88.5 -17.5t-74.5 -51t-56 -82.5t-33 -111l-2 -12q-5 -28 -7.5 -54t-2.5 -48q0 -85 38 -126.5t132 -41.5q76 0 172 38l13 -63q-48 -26 -100 -39
t-103 -13q-120 0 -180 61.5t-60 173.5q0 49 10 105zM399 856q4 -5 9 -13t10.5 -17t10.5 -17t8 -14q4 5 11.5 13.5t15.5 17l16 17t14 13.5h99q-18 -17 -35.5 -34.5l-34 -34t-30.5 -31t-23 -24.5h-81q-8 15 -18 31.5t-21 33.5t-22 32t-20 27h91z" />
    <glyph glyph-name="Cdotaccent" unicode="&#x10a;" horiz-adv-x="568" 
d="M76 354q26 153 107 239q44 46 101 70.5t129 24.5q48 0 96.5 -13.5t93.5 -40.5l-39 -63q-35 20 -73.5 30t-76.5 10q-47 0 -88.5 -17.5t-74.5 -51t-56 -82.5t-33 -111l-2 -12q-5 -28 -7.5 -54t-2.5 -48q0 -85 38 -126.5t132 -41.5q76 0 172 38l13 -63q-48 -26 -100 -39
t-103 -13q-120 0 -180 61.5t-60 173.5q0 49 10 105zM451 860q23 0 34 -11t11 -31q0 -35 -17.5 -53t-48.5 -18q-23 0 -34 11t-11 31q0 35 17.5 53t48.5 18z" />
    <glyph glyph-name="Dcaron" unicode="&#x10e;" horiz-adv-x="645" 
d="M315 678q143 0 223.5 -59.5t80.5 -183.5q0 -37 -6 -74l-5 -29q-14 -81 -39 -141.5t-67 -102.5q-46 -45 -115.5 -66.5t-172.5 -21.5h-78h-23.5t-27.5 0.5t-27 1.5t-22 2l117 670q9 1 22.5 2t27.5 1.5t27.5 0.5h23.5h61zM134 76h88q67 0 118 13t87 43.5t59.5 80t35.5 123.5
l4 24q3 20 4 35.5t1 29.5q0 94 -54.5 136t-167.5 42h-83zM360 856q4 -5 9 -13t10.5 -17t10.5 -17t8 -14q4 5 11.5 13.5t15.5 17l16 17t14 13.5h99q-18 -17 -35.5 -34.5l-34 -34t-30.5 -31t-23 -24.5h-81q-8 15 -18 31.5t-21 33.5t-22 32t-20 27h91z" />
    <glyph glyph-name="Dcroat" unicode="&#x110;" horiz-adv-x="645" 
d="M315 678q143 0 223.5 -59.5t80.5 -183.5q0 -37 -6 -74l-5 -29q-14 -81 -39 -141.5t-67 -102.5q-46 -45 -115.5 -66.5t-172.5 -21.5h-78h-23.5t-27.5 0.5t-27 1.5t-22 2l52 301h-82l13 75h82l52 294q9 1 22.5 2t27.5 1.5t27.5 0.5h23.5h61zM187 380h136l-22 -75h-127
l-40 -229h88q67 0 118 13t87 43.5t59.5 80t35.5 123.5l4 24q3 20 4 35.5t1 29.5q0 94 -54.5 136t-167.5 42h-83z" />
    <glyph glyph-name="Eth" unicode="&#xd0;" horiz-adv-x="645" 
d="M315 678q143 0 223.5 -59.5t80.5 -183.5q0 -37 -6 -74l-5 -29q-14 -81 -39 -141.5t-67 -102.5q-46 -45 -115.5 -66.5t-172.5 -21.5h-78h-23.5t-27.5 0.5t-27 1.5t-22 2l52 301h-82l13 75h82l52 294q9 1 22.5 2t27.5 1.5t27.5 0.5h23.5h61zM187 380h136l-22 -75h-127
l-40 -229h88q67 0 118 13t87 43.5t59.5 80t35.5 123.5l4 24q3 20 4 35.5t1 29.5q0 94 -54.5 136t-167.5 42h-83z" />
    <glyph glyph-name="Egrave" unicode="&#xc8;" horiz-adv-x="512" 
d="M568 678l-23 -75h-319l-38 -221q25 2 52 3t50 1h140l-24 -75h-231l-41 -235h329l-23 -76h-326q-19 0 -39 0.5t-39 1.5l118 674q19 1 38.5 1.5t39.5 0.5h336zM308 884q7 -15 17 -33t21 -37t22.5 -38t22.5 -35h-80q-12 14 -26 32t-28.5 37.5t-28.5 38.5t-24 35h104z" />
    <glyph glyph-name="Eacute" unicode="&#xc9;" horiz-adv-x="512" 
d="M568 678l-23 -75h-319l-38 -221q25 2 52 3t50 1h140l-24 -75h-231l-41 -235h329l-23 -76h-326q-19 0 -39 0.5t-39 1.5l118 674q19 1 38.5 1.5t39.5 0.5h336zM538 884q-16 -16 -36 -35t-41 -38.5t-41.5 -37.5t-37.5 -32h-96q16 16 34.5 35t36 38t34 37t28.5 33h119z" />
    <glyph glyph-name="Ecircumflex" unicode="&#xca;" horiz-adv-x="512" 
d="M568 678l-23 -75h-319l-38 -221q25 2 52 3t50 1h140l-24 -75h-231l-41 -235h329l-23 -76h-326q-19 0 -39 0.5t-39 1.5l118 674q19 1 38.5 1.5t39.5 0.5h336zM434 862q11 -22 33.5 -57.5t46.5 -69.5h-92q-4 5 -9 13.5t-10 17.5t-9.5 17t-7.5 14q-5 -6 -12.5 -14t-16 -17
t-16.5 -17.5t-14 -13.5h-98q15 14 32 30.5t33.5 34t32 33.5t26.5 29h81z" />
    <glyph glyph-name="Ecaron" unicode="&#x11a;" horiz-adv-x="512" 
d="M568 678l-23 -75h-319l-38 -221q25 2 52 3t50 1h140l-24 -75h-231l-41 -235h329l-23 -76h-326q-19 0 -39 0.5t-39 1.5l118 674q19 1 38.5 1.5t39.5 0.5h336zM341 856q4 -5 9 -13t10.5 -17t10.5 -17t8 -14q4 5 11.5 13.5t15.5 17l16 17t14 13.5h99q-18 -17 -35.5 -34.5
l-34 -34t-30.5 -31t-23 -24.5h-81q-8 15 -18 31.5t-21 33.5t-22 32t-20 27h91z" />
    <glyph glyph-name="Edieresis" unicode="&#xcb;" horiz-adv-x="512" 
d="M568 678l-23 -75h-319l-38 -221q25 2 52 3t50 1h140l-24 -75h-231l-41 -235h329l-23 -76h-326q-19 0 -39 0.5t-39 1.5l118 674q19 1 38.5 1.5t39.5 0.5h336zM316 854q44 0 44 -41q0 -34 -17 -51t-46 -17q-44 0 -44 41q0 34 17 51t46 17zM468 854q44 0 44 -41
q0 -34 -17 -51t-46 -17q-44 0 -44 41q0 34 17 51t46 17z" />
    <glyph glyph-name="Emacron" unicode="&#x112;" horiz-adv-x="512" 
d="M568 678l-23 -75h-319l-38 -221q25 2 52 3t50 1h140l-24 -75h-231l-41 -235h329l-23 -76h-326q-19 0 -39 0.5t-39 1.5l118 674q19 1 38.5 1.5t39.5 0.5h336zM519 813l-12 -70h-268l12 70h268z" />
    <glyph glyph-name="Ebreve" unicode="&#x114;" horiz-adv-x="512" 
d="M568 678l-23 -75h-319l-38 -221q25 2 52 3t50 1h140l-24 -75h-231l-41 -235h329l-23 -76h-326q-19 0 -39 0.5t-39 1.5l118 674q19 1 38.5 1.5t39.5 0.5h336zM337 844q-2 -22 11 -33.5t34 -11.5h4q41 0 57 45h71q-12 -51 -46 -80q-18 -15 -40 -23t-51 -8q-51 0 -80.5 27.5
t-29.5 72.5v11h70z" />
    <glyph glyph-name="Edotaccent" unicode="&#x116;" horiz-adv-x="512" 
d="M568 678l-23 -75h-319l-38 -221q25 2 52 3t50 1h140l-24 -75h-231l-41 -235h329l-23 -76h-326q-19 0 -39 0.5t-39 1.5l118 674q19 1 38.5 1.5t39.5 0.5h336zM393 860q23 0 34 -11t11 -31q0 -35 -17.5 -53t-48.5 -18q-23 0 -34 11t-11 31q0 35 17.5 53t48.5 18z" />
    <glyph glyph-name="Eogonek" unicode="&#x118;" horiz-adv-x="512" 
d="M568 678l-23 -75h-319l-38 -221q25 2 52 3t50 1h140l-24 -75h-231l-41 -235h329l-21 -67q-54 -21 -77.5 -48t-23.5 -47q0 -27 31 -27q12 0 25 3t33 10l7 -56q-23 -11 -44.5 -15.5t-39.5 -4.5q-43 0 -64 21q-20 20 -20 53q0 25 17 52t56 50h-228q-19 0 -39 0.5t-39 1.5
l118 674q19 1 38.5 1.5t39.5 0.5h336z" />
    <glyph glyph-name="Gcircumflex" unicode="&#x11c;" horiz-adv-x="636" 
d="M76 354q13 78 39 139t68 104q43 44 108.5 67.5t139.5 23.5q52 0 103 -13t94 -41l-39 -63q-71 40 -156 40q-120 0 -186 -68q-32 -33 -53 -81.5t-32 -112.5l-2 -12q-5 -29 -7.5 -54.5t-2.5 -47.5q0 -91 43.5 -130t134.5 -39q64 0 135 13l37 215l-135 -3l7 76h138
q23 0 45.5 -0.5t40.5 -1.5l-60 -346q-49 -13 -107 -21t-118 -8q-122 0 -185.5 60t-63.5 175q0 25 2.5 50t7.5 55zM507 862q11 -22 33.5 -57.5t46.5 -69.5h-92q-4 5 -9 13.5t-10 17.5t-9.5 17t-7.5 14q-5 -6 -12.5 -14t-16 -17t-16.5 -17.5t-14 -13.5h-98q15 14 32 30.5
t33.5 34t32 33.5t26.5 29h81z" />
    <glyph glyph-name="Gbreve" unicode="&#x11e;" horiz-adv-x="636" 
d="M76 354q13 78 39 139t68 104q43 44 108.5 67.5t139.5 23.5q52 0 103 -13t94 -41l-39 -63q-71 40 -156 40q-120 0 -186 -68q-32 -33 -53 -81.5t-32 -112.5l-2 -12q-5 -29 -7.5 -54.5t-2.5 -47.5q0 -91 43.5 -130t134.5 -39q64 0 135 13l37 215l-135 -3l7 76h138
q23 0 45.5 -0.5t40.5 -1.5l-60 -346q-49 -13 -107 -21t-118 -8q-122 0 -185.5 60t-63.5 175q0 25 2.5 50t7.5 55zM410 844q-2 -22 11 -33.5t34 -11.5h4q41 0 57 45h71q-12 -51 -46 -80q-18 -15 -40 -23t-51 -8q-51 0 -80.5 27.5t-29.5 72.5v11h70z" />
    <glyph glyph-name="Gdotaccent" unicode="&#x120;" horiz-adv-x="636" 
d="M76 354q13 78 39 139t68 104q43 44 108.5 67.5t139.5 23.5q52 0 103 -13t94 -41l-39 -63q-71 40 -156 40q-120 0 -186 -68q-32 -33 -53 -81.5t-32 -112.5l-2 -12q-5 -29 -7.5 -54.5t-2.5 -47.5q0 -91 43.5 -130t134.5 -39q64 0 135 13l37 215l-135 -3l7 76h138
q23 0 45.5 -0.5t40.5 -1.5l-60 -346q-49 -13 -107 -21t-118 -8q-122 0 -185.5 60t-63.5 175q0 25 2.5 50t7.5 55zM466 860q23 0 34 -11t11 -31q0 -35 -17.5 -53t-48.5 -18q-23 0 -34 11t-11 31q0 35 17.5 53t48.5 18z" />
    <glyph glyph-name="Gcommaaccent" unicode="&#x122;" horiz-adv-x="636" 
d="M76 354q13 78 39 139t68 104q43 44 108.5 67.5t139.5 23.5q52 0 103 -13t94 -41l-39 -63q-71 40 -156 40q-120 0 -186 -68q-32 -33 -53 -81.5t-32 -112.5l-2 -12q-5 -29 -7.5 -54.5t-2.5 -47.5q0 -91 43.5 -130t134.5 -39q64 0 135 13l37 215l-135 -3l7 76h138
q23 0 45.5 -0.5t40.5 -1.5l-60 -346q-49 -13 -107 -21t-118 -8q-122 0 -185.5 60t-63.5 175q0 25 2.5 50t7.5 55zM351 -74q-17 -42 -41.5 -90.5t-50.5 -89.5l-67 14q19 37 36 81t28 85h95z" />
    <glyph glyph-name="Hcircumflex" unicode="&#x124;" horiz-adv-x="649" 
d="M239 678l-52 -297h325l52 297h85l-118 -678h-85l53 306h-325l-53 -306h-85l118 678h85zM474 862q11 -22 33.5 -57.5t46.5 -69.5h-92q-4 5 -9 13.5t-10 17.5t-9.5 17t-7.5 14q-5 -6 -12.5 -14t-16 -17t-16.5 -17.5t-14 -13.5h-98q15 14 32 30.5t33.5 34t32 33.5t26.5 29
h81z" />
    <glyph glyph-name="Hbar" unicode="&#x126;" horiz-adv-x="649" 
d="M239 678l-21 -120h325l21 120h85l-21 -120h72l-20 -67h-64l-85 -491h-85l53 306h-325l-53 -306h-85l85 491h-63l12 67h63l21 120h85zM187 381h325l19 110h-325z" />
    <glyph glyph-name="Igrave" unicode="&#xcc;" horiz-adv-x="245" 
d="M242 678l-118 -678h-85l118 678h85zM156 884q7 -15 17 -33t21 -37t22.5 -38t22.5 -35h-80q-12 14 -26 32t-28.5 37.5t-28.5 38.5t-24 35h104z" />
    <glyph glyph-name="Iacute" unicode="&#xcd;" horiz-adv-x="245" 
d="M242 678l-118 -678h-85l118 678h85zM386 884q-16 -16 -36 -35t-41 -38.5t-41.5 -37.5t-37.5 -32h-96q16 16 34.5 35t36 38t34 37t28.5 33h119z" />
    <glyph glyph-name="Icircumflex" unicode="&#xce;" horiz-adv-x="245" 
d="M242 678l-118 -678h-85l118 678h85zM271 862q11 -22 33.5 -57.5t46.5 -69.5h-92q-4 5 -9 13.5t-10 17.5t-9.5 17t-7.5 14q-5 -6 -12.5 -14t-16 -17t-16.5 -17.5t-14 -13.5h-98q15 14 32 30.5t33.5 34t32 33.5t26.5 29h81z" />
    <glyph glyph-name="Itilde" unicode="&#x128;" horiz-adv-x="245" 
d="M242 678l-118 -678h-85l118 678h85zM57 755q17 43 42 68q14 14 31.5 22.5t38.5 8.5q28 0 63 -24l22 -15q17 -11 28 -11q13 0 23.5 11.5t22.5 35.5l53 -19q-17 -46 -42 -72.5t-60 -26.5q-31 0 -69 26l-18 12q-20 13 -31 13t-22.5 -11t-25.5 -36z" />
    <glyph glyph-name="Idieresis" unicode="&#xcf;" horiz-adv-x="245" 
d="M242 678l-118 -678h-85l118 678h85zM153 854q44 0 44 -41q0 -34 -17 -51t-46 -17q-44 0 -44 41q0 34 17 51t46 17zM305 854q44 0 44 -41q0 -34 -17 -51t-46 -17q-44 0 -44 41q0 34 17 51t46 17z" />
    <glyph glyph-name="Imacron" unicode="&#x12a;" horiz-adv-x="245" 
d="M242 678l-118 -678h-85l118 678h85zM357 813l-12 -70h-268l12 70h268z" />
    <glyph glyph-name="Ibreve" unicode="&#x12c;" horiz-adv-x="245" 
d="M242 678l-118 -678h-85l118 678h85zM174 844q-2 -22 11 -33.5t34 -11.5h4q41 0 57 45h71q-12 -51 -46 -80q-18 -15 -40 -23t-51 -8q-51 0 -80.5 27.5t-29.5 72.5v11h70z" />
    <glyph glyph-name="Idotaccent" unicode="&#x130;" horiz-adv-x="245" 
d="M242 678l-118 -678h-85l118 678h85zM231 860q23 0 34 -11t11 -31q0 -35 -17.5 -53t-48.5 -18q-23 0 -34 11t-11 31q0 35 17.5 53t48.5 18z" />
    <glyph glyph-name="Iogonek" unicode="&#x12e;" horiz-adv-x="245" 
d="M242 678l-118 -678q-41 -14 -61.5 -40.5t-20.5 -45.5q0 -27 31 -27q12 0 25 3t33 10l7 -56q-23 -11 -44.5 -15.5t-39.5 -4.5q-43 0 -64 21q-20 20 -20 53q0 29 18 61t53 53l116 666h85z" />
    <glyph glyph-name="IJ" unicode="&#x132;" horiz-adv-x="673" 
d="M242 678l-118 -678h-85l118 678h85zM675 678l-78 -449q-13 -74 -29 -118t-44 -71q-25 -24 -62 -37t-83 -13q-59 0 -125 22l26 67q55 -13 100 -13q53 0 81 25q20 17 30.5 48t18.5 79l67 385h-183l8 75h273z" />
    <glyph glyph-name="Jcircumflex" unicode="&#x134;" horiz-adv-x="427" 
d="M429 678l-78 -449q-13 -74 -29 -118t-44 -71q-25 -24 -62 -37t-83 -13q-59 0 -125 22l26 67q55 -13 100 -13q53 0 81 25q20 17 30.5 48t18.5 79l67 385h-183l8 75h273zM367 862q11 -22 33.5 -57.5t46.5 -69.5h-92q-4 5 -9 13.5t-10 17.5t-9.5 17t-7.5 14q-5 -6 -12.5 -14
t-16 -17t-16.5 -17.5t-14 -13.5h-98q15 14 32 30.5t33.5 34t32 33.5t26.5 29h81z" />
    <glyph glyph-name="Kcommaaccent" unicode="&#x136;" horiz-adv-x="570" 
d="M239 678l-63 -361q45 32 79.5 60.5t66.5 57.5q23 21 46 44t47.5 52t52 65t59.5 82h91q-65 -102 -126.5 -176t-126.5 -131q17 -33 33.5 -69.5t34.5 -80.5t37.5 -98t43.5 -123h-96q-14 45 -30 91t-31.5 88t-30 78t-26.5 61q-31 -24 -65.5 -49t-75.5 -53l-38 -216h-85
l118 678h85zM278 -74q-17 -42 -41.5 -90.5t-50.5 -89.5l-67 14q19 37 36 81t28 85h95z" />
    <glyph glyph-name="Lacute" unicode="&#x139;" horiz-adv-x="496" 
d="M239 678l-105 -602h310l-23 -76h-307q-19 0 -39 0.5t-39 1.5l118 676h85zM404 884q-16 -16 -36 -35t-41 -38.5t-41.5 -37.5t-37.5 -32h-96q16 16 34.5 35t36 38t34 37t28.5 33h119z" />
    <glyph glyph-name="Lcaron" unicode="&#x13d;" horiz-adv-x="496" 
d="M239 678l-105 -602h310l-23 -76h-307q-19 0 -39 0.5t-39 1.5l118 676h85zM445 719q-17 -42 -41.5 -90.5t-50.5 -89.5l-67 14q19 37 36 81t28 85h95z" />
    <glyph glyph-name="Lcommaaccent" unicode="&#x13b;" horiz-adv-x="496" 
d="M239 678l-105 -602h310l-23 -76h-307q-19 0 -39 0.5t-39 1.5l118 676h85zM242 -74q-17 -42 -41.5 -90.5t-50.5 -89.5l-67 14q19 37 36 81t28 85h95z" />
    <glyph glyph-name="Lslash" unicode="&#x141;" horiz-adv-x="497" 
d="M240 678l-47 -272l153 56l12 -67l-179 -65l-44 -254h310l-23 -76h-307q-19 0 -39 0.5t-39 1.5l51 296l-85 -31l-12 67l111 40l53 304h85z" />
    <glyph glyph-name="Ldot" unicode="&#x13f;" horiz-adv-x="496" 
d="M239 678l-105 -602h310l-23 -76h-307q-19 0 -39 0.5t-39 1.5l118 676h85zM376 435q23 0 34 -11t11 -31q0 -35 -17.5 -53t-48.5 -18q-23 0 -34 11t-11 31q0 35 17.5 53t48.5 18z" />
    <glyph glyph-name="Nacute" unicode="&#x143;" horiz-adv-x="666" 
d="M256 678l231 -571l99 571h80l-119 -684h-92l-240 580l-99 -574h-80l118 678h102zM577 884q-16 -16 -36 -35t-41 -38.5t-41.5 -37.5t-37.5 -32h-96q16 16 34.5 35t36 38t34 37t28.5 33h119z" />
    <glyph glyph-name="Ncaron" unicode="&#x147;" horiz-adv-x="666" 
d="M256 678l231 -571l99 571h80l-119 -684h-92l-240 580l-99 -574h-80l118 678h102zM389 856q4 -5 9 -13t10.5 -17t10.5 -17t8 -14q4 5 11.5 13.5t15.5 17l16 17t14 13.5h99q-18 -17 -35.5 -34.5l-34 -34t-30.5 -31t-23 -24.5h-81q-8 15 -18 31.5t-21 33.5t-22 32t-20 27h91
z" />
    <glyph glyph-name="Ntilde" unicode="&#xd1;" horiz-adv-x="666" 
d="M256 678l231 -571l99 571h80l-119 -684h-92l-240 580l-99 -574h-80l118 678h102zM268 755q17 43 42 68q14 14 31.5 22.5t38.5 8.5q28 0 63 -24l22 -15q17 -11 28 -11q13 0 23.5 11.5t22.5 35.5l53 -19q-17 -46 -42 -72.5t-60 -26.5q-31 0 -69 26l-18 12q-20 13 -31 13
t-22.5 -11t-25.5 -36z" />
    <glyph glyph-name="Ncommaaccent" unicode="&#x145;" horiz-adv-x="666" 
d="M256 678l231 -571l99 571h80l-119 -684h-92l-240 580l-99 -574h-80l118 678h102zM316 -74q-17 -42 -41.5 -90.5t-50.5 -89.5l-67 14q19 37 36 81t28 85h95z" />
    <glyph glyph-name="Eng" unicode="&#x14a;" horiz-adv-x="666" 
d="M253 678l237 -548l95 548h81l-116 -666q-8 -48 -19.5 -80t-31.5 -51q-16 -16 -41.5 -25t-58.5 -9q-21 0 -44.5 3t-49.5 11l24 73q40 -10 67 -10q31 0 47 16q17 17 21 45l2 12l-251 570l-98 -567h-81l118 678h99z" />
    <glyph glyph-name="Ograve" unicode="&#xd2;" horiz-adv-x="657" 
d="M158 324q-4 -24 -6 -46.5t-2 -42.5q0 -74 31 -117q36 -51 118 -51q96 0 153.5 65.5t77.5 190.5l5 31q4 24 6 46.5t2 42.5q0 74 -31 117q-36 51 -118 51q-96 0 -153.5 -65.5t-77.5 -190.5zM77 360q27 160 108 243q84 85 222 85q103 0 163 -62q29 -31 45 -74.5t16 -98.5
q0 -22 -2 -45.5t-6 -47.5l-7 -42q-27 -160 -108 -243q-84 -85 -222 -85q-103 0 -163 62q-29 31 -45 74.5t-16 98.5q0 22 2 45.5t6 47.5zM383 884q7 -15 17 -33t21 -37t22.5 -38t22.5 -35h-80q-12 14 -26 32t-28.5 37.5t-28.5 38.5t-24 35h104z" />
    <glyph glyph-name="Oacute" unicode="&#xd3;" horiz-adv-x="657" 
d="M158 324q-4 -24 -6 -46.5t-2 -42.5q0 -74 31 -117q36 -51 118 -51q96 0 153.5 65.5t77.5 190.5l5 31q4 24 6 46.5t2 42.5q0 74 -31 117q-36 51 -118 51q-96 0 -153.5 -65.5t-77.5 -190.5zM77 360q27 160 108 243q84 85 222 85q103 0 163 -62q29 -31 45 -74.5t16 -98.5
q0 -22 -2 -45.5t-6 -47.5l-7 -42q-27 -160 -108 -243q-84 -85 -222 -85q-103 0 -163 62q-29 31 -45 74.5t-16 98.5q0 22 2 45.5t6 47.5zM573 884q-16 -16 -36 -35t-41 -38.5t-41.5 -37.5t-37.5 -32h-96q16 16 34.5 35t36 38t34 37t28.5 33h119z" />
    <glyph glyph-name="Ocircumflex" unicode="&#xd4;" horiz-adv-x="657" 
d="M158 324q-4 -24 -6 -46.5t-2 -42.5q0 -74 31 -117q36 -51 118 -51q96 0 153.5 65.5t77.5 190.5l5 31q4 24 6 46.5t2 42.5q0 74 -31 117q-36 51 -118 51q-96 0 -153.5 -65.5t-77.5 -190.5zM77 360q27 160 108 243q84 85 222 85q103 0 163 -62q29 -31 45 -74.5t16 -98.5
q0 -22 -2 -45.5t-6 -47.5l-7 -42q-27 -160 -108 -243q-84 -85 -222 -85q-103 0 -163 62q-29 31 -45 74.5t-16 98.5q0 22 2 45.5t6 47.5zM478 862q11 -22 33.5 -57.5t46.5 -69.5h-92q-4 5 -9 13.5t-10 17.5t-9.5 17t-7.5 14q-5 -6 -12.5 -14t-16 -17t-16.5 -17.5t-14 -13.5
h-98q15 14 32 30.5t33.5 34t32 33.5t26.5 29h81z" />
    <glyph glyph-name="Otilde" unicode="&#xd5;" horiz-adv-x="657" 
d="M158 324q-4 -24 -6 -46.5t-2 -42.5q0 -74 31 -117q36 -51 118 -51q96 0 153.5 65.5t77.5 190.5l5 31q4 24 6 46.5t2 42.5q0 74 -31 117q-36 51 -118 51q-96 0 -153.5 -65.5t-77.5 -190.5zM77 360q27 160 108 243q84 85 222 85q103 0 163 -62q29 -31 45 -74.5t16 -98.5
q0 -22 -2 -45.5t-6 -47.5l-7 -42q-27 -160 -108 -243q-84 -85 -222 -85q-103 0 -163 62q-29 31 -45 74.5t-16 98.5q0 22 2 45.5t6 47.5zM264 755q17 43 42 68q14 14 31.5 22.5t38.5 8.5q28 0 63 -24l22 -15q17 -11 28 -11q13 0 23.5 11.5t22.5 35.5l53 -19
q-17 -46 -42 -72.5t-60 -26.5q-31 0 -69 26l-18 12q-20 13 -31 13t-22.5 -11t-25.5 -36z" />
    <glyph glyph-name="Odieresis" unicode="&#xd6;" horiz-adv-x="657" 
d="M158 324q-4 -24 -6 -46.5t-2 -42.5q0 -74 31 -117q36 -51 118 -51q96 0 153.5 65.5t77.5 190.5l5 31q4 24 6 46.5t2 42.5q0 74 -31 117q-36 51 -118 51q-96 0 -153.5 -65.5t-77.5 -190.5zM77 360q27 160 108 243q84 85 222 85q103 0 163 -62q29 -31 45 -74.5t16 -98.5
q0 -22 -2 -45.5t-6 -47.5l-7 -42q-27 -160 -108 -243q-84 -85 -222 -85q-103 0 -163 62q-29 31 -45 74.5t-16 98.5q0 22 2 45.5t6 47.5zM360 854q44 0 44 -41q0 -34 -17 -51t-46 -17q-44 0 -44 41q0 34 17 51t46 17zM512 854q44 0 44 -41q0 -34 -17 -51t-46 -17
q-44 0 -44 41q0 34 17 51t46 17z" />
    <glyph glyph-name="Omacron" unicode="&#x14c;" horiz-adv-x="657" 
d="M158 324q-4 -24 -6 -46.5t-2 -42.5q0 -74 31 -117q36 -51 118 -51q96 0 153.5 65.5t77.5 190.5l5 31q4 24 6 46.5t2 42.5q0 74 -31 117q-36 51 -118 51q-96 0 -153.5 -65.5t-77.5 -190.5zM77 360q27 160 108 243q84 85 222 85q103 0 163 -62q29 -31 45 -74.5t16 -98.5
q0 -22 -2 -45.5t-6 -47.5l-7 -42q-27 -160 -108 -243q-84 -85 -222 -85q-103 0 -163 62q-29 31 -45 74.5t-16 98.5q0 22 2 45.5t6 47.5zM564 813l-12 -70h-268l12 70h268z" />
    <glyph glyph-name="Obreve" unicode="&#x14e;" horiz-adv-x="657" 
d="M158 324q-4 -24 -6 -46.5t-2 -42.5q0 -74 31 -117q36 -51 118 -51q96 0 153.5 65.5t77.5 190.5l5 31q4 24 6 46.5t2 42.5q0 74 -31 117q-36 51 -118 51q-96 0 -153.5 -65.5t-77.5 -190.5zM77 360q27 160 108 243q84 85 222 85q103 0 163 -62q29 -31 45 -74.5t16 -98.5
q0 -22 -2 -45.5t-6 -47.5l-7 -42q-27 -160 -108 -243q-84 -85 -222 -85q-103 0 -163 62q-29 31 -45 74.5t-16 98.5q0 22 2 45.5t6 47.5zM381 844q-2 -22 11 -33.5t34 -11.5h4q41 0 57 45h71q-12 -51 -46 -80q-18 -15 -40 -23t-51 -8q-51 0 -80.5 27.5t-29.5 72.5v11h70z" />
    <glyph glyph-name="Ohungarumlaut" unicode="&#x150;" horiz-adv-x="657" 
d="M158 324q-4 -24 -6 -46.5t-2 -42.5q0 -74 31 -117q36 -51 118 -51q96 0 153.5 65.5t77.5 190.5l5 31q4 24 6 46.5t2 42.5q0 74 -31 117q-36 51 -118 51q-96 0 -153.5 -65.5t-77.5 -190.5zM77 360q27 160 108 243q84 85 222 85q103 0 163 -62q29 -31 45 -74.5t16 -98.5
q0 -22 -2 -45.5t-6 -47.5l-7 -42q-27 -160 -108 -243q-84 -85 -222 -85q-103 0 -163 62q-29 31 -45 74.5t-16 98.5q0 22 2 45.5t6 47.5zM495 867q-10 -12 -27.5 -30t-37 -37.5t-39 -37.5l-32.5 -30h-90q16 18 33.5 37.5t33.5 38t28.5 34t19.5 25.5h111zM655 867
q-10 -12 -27.5 -30t-37 -37.5t-39 -37.5l-32.5 -30h-90q16 18 33.5 37.5t33.5 38t28.5 34t19.5 25.5h111z" />
    <glyph glyph-name="Oslash" unicode="&#xd8;" horiz-adv-x="657" 
d="M77 360q27 160 108 243q84 85 222 85q84 0 141 -43l52 63l55 -45l-59 -72q17 -28 26 -62.5t9 -75.5q0 -22 -2 -45.5t-6 -47.5l-7 -42q-27 -160 -108 -243q-84 -85 -222 -85q-89 0 -147 46l-56 -68l-55 45l65 79q-31 56 -31 133q0 22 2 45.5t6 47.5zM194 102
q35 -35 105 -35q96 0 153.5 65.5t77.5 190.5l5 31q4 24 6 46.5t2 42.5q0 21 -2.5 39t-7.5 33zM158 324q-4 -24 -6 -46.5t-2 -42.5q0 -38 7 -65l337 410q-18 16 -43.5 23.5t-56.5 7.5q-96 0 -153.5 -65.5t-77.5 -190.5z" />
    <glyph glyph-name="Oslashacute" unicode="&#x1fe;" horiz-adv-x="657" 
d="M77 360q27 160 108 243q84 85 222 85q84 0 141 -43l52 63l55 -45l-59 -72q17 -28 26 -62.5t9 -75.5q0 -22 -2 -45.5t-6 -47.5l-7 -42q-27 -160 -108 -243q-84 -85 -222 -85q-89 0 -147 46l-56 -68l-55 45l65 79q-31 56 -31 133q0 22 2 45.5t6 47.5zM194 102
q35 -35 105 -35q96 0 153.5 65.5t77.5 190.5l5 31q4 24 6 46.5t2 42.5q0 21 -2.5 39t-7.5 33zM158 324q-4 -24 -6 -46.5t-2 -42.5q0 -38 7 -65l337 410q-18 16 -43.5 23.5t-56.5 7.5q-96 0 -153.5 -65.5t-77.5 -190.5zM591 884q-16 -16 -36 -35t-41 -38.5t-41.5 -37.5
t-37.5 -32h-96q16 16 34.5 35t36 38t34 37t28.5 33h119z" />
    <glyph glyph-name="OE" unicode="&#x152;" horiz-adv-x="902" 
d="M77 360q14 86 43.5 148t71 102t94 59t113.5 19q42 0 78 -10t62 -27l5 25q19 1 38.5 1.5t39.5 0.5h336l-23 -75h-319l-38 -221q25 2 52 3t50 1h140l-24 -75h-231l-41 -235h329l-23 -76h-326q-19 0 -39 0.5t-39 1.5l4 24q-69 -36 -141 -36q-50 0 -92 15t-72 44.5
t-46.5 73.5t-16.5 102q0 22 2 45.5t6 47.5zM158 324q-4 -24 -6 -46.5t-2 -42.5q0 -81 36 -124.5t111 -43.5q34 0 71.5 11t76.5 36l80 457q-23 20 -56.5 30t-71.5 10q-92 0 -152 -61t-82 -195z" />
    <glyph glyph-name="Thorn" unicode="&#xde;" horiz-adv-x="553" 
d="M239 678l-18 -100h111q54 0 98 -12.5t73 -39.5q44 -41 44 -112q0 -20 -3 -41l-2 -13q-8 -48 -24.5 -87.5t-44.5 -68.5q-35 -35 -86 -51.5t-124 -16.5h-119l-23 -136h-85l118 678h85zM157 211h128q149 0 171 146l2 13q3 18 3 34q0 43 -25 67q-32 32 -117 32h-111z" />
    <glyph glyph-name="Racute" unicode="&#x154;" horiz-adv-x="564" 
d="M336 678q63 0 103.5 -13t66.5 -39q20 -20 30 -48.5t10 -56.5q0 -19 -3 -37l-2 -13q-6 -41 -22.5 -75.5t-45.5 -62.5q-32 -31 -78 -50q25 -46 51 -119t52 -164h-89q-11 42 -23.5 82t-25 75.5t-25.5 64t-24 47.5h-143l-47 -269h-85l118 676q18 1 38 1.5t40 0.5h104z
M180 342h180q41 17 64.5 52t29.5 75l2 13q2 8 2.5 16t0.5 13q0 38 -19 60q-15 17 -42.5 24.5t-72.5 7.5h-99zM505 884q-16 -16 -36 -35t-41 -38.5t-41.5 -37.5t-37.5 -32h-96q16 16 34.5 35t36 38t34 37t28.5 33h119z" />
    <glyph glyph-name="Rcaron" unicode="&#x158;" horiz-adv-x="564" 
d="M336 678q63 0 103.5 -13t66.5 -39q20 -20 30 -48.5t10 -56.5q0 -19 -3 -37l-2 -13q-6 -41 -22.5 -75.5t-45.5 -62.5q-32 -31 -78 -50q25 -46 51 -119t52 -164h-89q-11 42 -23.5 82t-25 75.5t-25.5 64t-24 47.5h-143l-47 -269h-85l118 676q18 1 38 1.5t40 0.5h104z
M180 342h180q41 17 64.5 52t29.5 75l2 13q2 8 2.5 16t0.5 13q0 38 -19 60q-15 17 -42.5 24.5t-72.5 7.5h-99zM338 856q4 -5 9 -13t10.5 -17t10.5 -17t8 -14q4 5 11.5 13.5t15.5 17l16 17t14 13.5h99q-18 -17 -35.5 -34.5l-34 -34t-30.5 -31t-23 -24.5h-81q-8 15 -18 31.5
t-21 33.5t-22 32t-20 27h91z" />
    <glyph glyph-name="Rcommaaccent" unicode="&#x156;" horiz-adv-x="564" 
d="M336 678q63 0 103.5 -13t66.5 -39q20 -20 30 -48.5t10 -56.5q0 -19 -3 -37l-2 -13q-6 -41 -22.5 -75.5t-45.5 -62.5q-32 -31 -78 -50q25 -46 51 -119t52 -164h-89q-11 42 -23.5 82t-25 75.5t-25.5 64t-24 47.5h-143l-47 -269h-85l118 676q18 1 38 1.5t40 0.5h104z
M180 342h180q41 17 64.5 52t29.5 75l2 13q2 8 2.5 16t0.5 13q0 38 -19 60q-15 17 -42.5 24.5t-72.5 7.5h-99zM275 -74q-17 -42 -41.5 -90.5t-50.5 -89.5l-67 14q19 37 36 81t28 85h95z" />
    <glyph glyph-name="Sacute" unicode="&#x15a;" horiz-adv-x="513" 
d="M336 688q48 0 97.5 -13t85.5 -38l-44 -67q-29 20 -66.5 30.5t-76.5 10.5h-4q-76 0 -116 -31.5t-40 -83.5q0 -31 21 -56.5t72 -45.5l47 -18q31 -12 57.5 -26t46.5 -33.5t31.5 -47t11.5 -64.5q0 -38 -17 -80.5t-49 -71.5q-32 -30 -77.5 -46.5t-104.5 -16.5h-7
q-62 0 -113 16.5t-93 42.5l37 69q39 -23 85 -36t88 -13h6q36 0 67.5 8.5t51.5 28.5q20 19 30.5 44.5t10.5 51.5q0 38 -24.5 61.5t-86.5 47.5l-44 17q-132 51 -132 161q0 35 13 68t39 60q31 32 79 51.5t114 19.5h4zM496 884q-16 -16 -36 -35t-41 -38.5t-41.5 -37.5t-37.5 -32
h-96q16 16 34.5 35t36 38t34 37t28.5 33h119z" />
    <glyph glyph-name="Scircumflex" unicode="&#x15c;" horiz-adv-x="513" 
d="M336 688q48 0 97.5 -13t85.5 -38l-44 -67q-29 20 -66.5 30.5t-76.5 10.5h-4q-76 0 -116 -31.5t-40 -83.5q0 -31 21 -56.5t72 -45.5l47 -18q31 -12 57.5 -26t46.5 -33.5t31.5 -47t11.5 -64.5q0 -38 -17 -80.5t-49 -71.5q-32 -30 -77.5 -46.5t-104.5 -16.5h-7
q-62 0 -113 16.5t-93 42.5l37 69q39 -23 85 -36t88 -13h6q36 0 67.5 8.5t51.5 28.5q20 19 30.5 44.5t10.5 51.5q0 38 -24.5 61.5t-86.5 47.5l-44 17q-132 51 -132 161q0 35 13 68t39 60q31 32 79 51.5t114 19.5h4zM402 862q11 -22 33.5 -57.5t46.5 -69.5h-92q-4 5 -9 13.5
t-10 17.5t-9.5 17t-7.5 14q-5 -6 -12.5 -14t-16 -17t-16.5 -17.5t-14 -13.5h-98q15 14 32 30.5t33.5 34t32 33.5t26.5 29h81z" />
    <glyph glyph-name="Scaron" unicode="&#x160;" horiz-adv-x="513" 
d="M336 688q48 0 97.5 -13t85.5 -38l-44 -67q-29 20 -66.5 30.5t-76.5 10.5h-4q-76 0 -116 -31.5t-40 -83.5q0 -31 21 -56.5t72 -45.5l47 -18q31 -12 57.5 -26t46.5 -33.5t31.5 -47t11.5 -64.5q0 -38 -17 -80.5t-49 -71.5q-32 -30 -77.5 -46.5t-104.5 -16.5h-7
q-62 0 -113 16.5t-93 42.5l37 69q39 -23 85 -36t88 -13h6q36 0 67.5 8.5t51.5 28.5q20 19 30.5 44.5t10.5 51.5q0 38 -24.5 61.5t-86.5 47.5l-44 17q-132 51 -132 161q0 35 13 68t39 60q31 32 79 51.5t114 19.5h4zM309 856q4 -5 9 -13t10.5 -17t10.5 -17t8 -14
q4 5 11.5 13.5t15.5 17l16 17t14 13.5h99q-18 -17 -35.5 -34.5l-34 -34t-30.5 -31t-23 -24.5h-81q-8 15 -18 31.5t-21 33.5t-22 32t-20 27h91z" />
    <glyph glyph-name="Scedilla" unicode="&#x15e;" horiz-adv-x="513" 
d="M336 688q48 0 97.5 -13t85.5 -38l-44 -67q-29 20 -66.5 30.5t-76.5 10.5h-4q-76 0 -116 -31.5t-40 -83.5q0 -31 21 -56.5t72 -45.5l47 -18q31 -12 57.5 -26t46.5 -33.5t31.5 -47t11.5 -64.5q0 -38 -17 -80.5t-49 -71.5q-32 -30 -77.5 -46.5t-104.5 -16.5h-2l-17 -37
q16 4 31 4q17 0 33.5 -5.5t27.5 -19.5q16 -18 16 -49q0 -20 -7 -40.5t-23 -34.5q-15 -14 -37.5 -22.5t-54.5 -8.5q-27 0 -55.5 7t-56.5 21l28 57q25 -12 47 -17t39 -5q23 0 36 7.5t13 23.5q0 11 -8.5 17.5t-31.5 6.5q-11 0 -24.5 -1t-31.5 -5l-23 22l41 83q-45 5 -83 20
t-70 35l37 69q39 -23 85 -36t88 -13h6q36 0 67.5 8.5t51.5 28.5q20 19 30.5 44.5t10.5 51.5q0 38 -24.5 61.5t-86.5 47.5l-44 17q-132 51 -132 161q0 35 13 68t39 60q31 32 79 51.5t114 19.5h4z" />
    <glyph glyph-name="Scommaaccent" unicode="&#x218;" horiz-adv-x="513" 
d="M336 688q48 0 97.5 -13t85.5 -38l-44 -67q-29 20 -66.5 30.5t-76.5 10.5h-4q-76 0 -116 -31.5t-40 -83.5q0 -31 21 -56.5t72 -45.5l47 -18q31 -12 57.5 -26t46.5 -33.5t31.5 -47t11.5 -64.5q0 -38 -17 -80.5t-49 -71.5q-32 -30 -77.5 -46.5t-104.5 -16.5h-7
q-62 0 -113 16.5t-93 42.5l37 69q39 -23 85 -36t88 -13h6q36 0 67.5 8.5t51.5 28.5q20 19 30.5 44.5t10.5 51.5q0 38 -24.5 61.5t-86.5 47.5l-44 17q-132 51 -132 161q0 35 13 68t39 60q31 32 79 51.5t114 19.5h4zM246 -74q-17 -42 -41.5 -90.5t-50.5 -89.5l-67 14
q19 37 36 81t28 85h95z" />
    <glyph glyph-name="Tcaron" unicode="&#x164;" horiz-adv-x="538" 
d="M606 678l-22 -75h-214l-105 -603h-85l105 603h-211l13 75h519zM325 856q4 -5 9 -13t10.5 -17t10.5 -17t8 -14q4 5 11.5 13.5t15.5 17l16 17t14 13.5h99q-18 -17 -35.5 -34.5l-34 -34t-30.5 -31t-23 -24.5h-81q-8 15 -18 31.5t-21 33.5t-22 32t-20 27h91z" />
    <glyph glyph-name="Tcommaaccent" unicode="&#x162;" horiz-adv-x="538" 
d="M606 678l-22 -75h-214l-105 -603h-85l105 603h-211l13 75h519zM252 -74q-17 -42 -41.5 -90.5t-50.5 -89.5l-67 14q19 37 36 81t28 85h95z" />
    <glyph glyph-name="uni021A" unicode="&#x21a;" horiz-adv-x="538" 
d="M606 678l-22 -75h-214l-105 -603h-85l105 603h-211l13 75h519zM252 -74q-17 -42 -41.5 -90.5t-50.5 -89.5l-67 14q19 37 36 81t28 85h95z" />
    <glyph glyph-name="Tbar" unicode="&#x166;" horiz-adv-x="538" 
d="M606 678l-22 -75h-214l-42 -242h152l-22 -75h-143l-50 -286h-85l50 286h-131l12 75h132l42 242h-211l13 75h519z" />
    <glyph glyph-name="Ugrave" unicode="&#xd9;" horiz-adv-x="630" 
d="M234 678l-75 -431q-8 -46 -7.5 -78t13.5 -54q27 -47 117 -47h4q43 0 79 11t59 36q23 24 33 60t17 72l75 431h85l-64 -368q-8 -45 -14 -81.5t-14.5 -66.5t-21 -54t-33.5 -45q-37 -36 -87.5 -54t-120.5 -19h-8q-70 1 -113.5 19t-67.5 54q-14 21 -19.5 45.5t-4.5 54.5
t6 66.5t13 81.5l64 367h85zM339 884q7 -15 17 -33t21 -37t22.5 -38t22.5 -35h-80q-12 14 -26 32t-28.5 37.5t-28.5 38.5t-24 35h104z" />
    <glyph glyph-name="Uacute" unicode="&#xda;" horiz-adv-x="630" 
d="M234 678l-75 -431q-8 -46 -7.5 -78t13.5 -54q27 -47 117 -47h4q43 0 79 11t59 36q23 24 33 60t17 72l75 431h85l-64 -368q-8 -45 -14 -81.5t-14.5 -66.5t-21 -54t-33.5 -45q-37 -36 -87.5 -54t-120.5 -19h-8q-70 1 -113.5 19t-67.5 54q-14 21 -19.5 45.5t-4.5 54.5
t6 66.5t13 81.5l64 367h85zM569 884q-16 -16 -36 -35t-41 -38.5t-41.5 -37.5t-37.5 -32h-96q16 16 34.5 35t36 38t34 37t28.5 33h119z" />
    <glyph glyph-name="Ucircumflex" unicode="&#xdb;" horiz-adv-x="630" 
d="M234 678l-75 -431q-8 -46 -7.5 -78t13.5 -54q27 -47 117 -47h4q43 0 79 11t59 36q23 24 33 60t17 72l75 431h85l-64 -368q-8 -45 -14 -81.5t-14.5 -66.5t-21 -54t-33.5 -45q-37 -36 -87.5 -54t-120.5 -19h-8q-70 1 -113.5 19t-67.5 54q-14 21 -19.5 45.5t-4.5 54.5
t6 66.5t13 81.5l64 367h85zM465 862q11 -22 33.5 -57.5t46.5 -69.5h-92q-4 5 -9 13.5t-10 17.5t-9.5 17t-7.5 14q-5 -6 -12.5 -14t-16 -17t-16.5 -17.5t-14 -13.5h-98q15 14 32 30.5t33.5 34t32 33.5t26.5 29h81z" />
    <glyph glyph-name="Utilde" unicode="&#x168;" horiz-adv-x="630" 
d="M234 678l-75 -431q-8 -46 -7.5 -78t13.5 -54q27 -47 117 -47h4q43 0 79 11t59 36q23 24 33 60t17 72l75 431h85l-64 -368q-8 -45 -14 -81.5t-14.5 -66.5t-21 -54t-33.5 -45q-37 -36 -87.5 -54t-120.5 -19h-8q-70 1 -113.5 19t-67.5 54q-14 21 -19.5 45.5t-4.5 54.5
t6 66.5t13 81.5l64 367h85zM250 755q17 43 42 68q14 14 31.5 22.5t38.5 8.5q28 0 63 -24l22 -15q17 -11 28 -11q13 0 23.5 11.5t22.5 35.5l53 -19q-17 -46 -42 -72.5t-60 -26.5q-31 0 -69 26l-18 12q-20 13 -31 13t-22.5 -11t-25.5 -36z" />
    <glyph glyph-name="Udieresis" unicode="&#xdc;" horiz-adv-x="630" 
d="M234 678l-75 -431q-8 -46 -7.5 -78t13.5 -54q27 -47 117 -47h4q43 0 79 11t59 36q23 24 33 60t17 72l75 431h85l-64 -368q-8 -45 -14 -81.5t-14.5 -66.5t-21 -54t-33.5 -45q-37 -36 -87.5 -54t-120.5 -19h-8q-70 1 -113.5 19t-67.5 54q-14 21 -19.5 45.5t-4.5 54.5
t6 66.5t13 81.5l64 367h85zM347 854q44 0 44 -41q0 -34 -17 -51t-46 -17q-44 0 -44 41q0 34 17 51t46 17zM499 854q44 0 44 -41q0 -34 -17 -51t-46 -17q-44 0 -44 41q0 34 17 51t46 17z" />
    <glyph glyph-name="Umacron" unicode="&#x16a;" horiz-adv-x="630" 
d="M234 678l-75 -431q-8 -46 -7.5 -78t13.5 -54q27 -47 117 -47h4q43 0 79 11t59 36q23 24 33 60t17 72l75 431h85l-64 -368q-8 -45 -14 -81.5t-14.5 -66.5t-21 -54t-33.5 -45q-37 -36 -87.5 -54t-120.5 -19h-8q-70 1 -113.5 19t-67.5 54q-14 21 -19.5 45.5t-4.5 54.5
t6 66.5t13 81.5l64 367h85zM550 813l-12 -70h-268l12 70h268z" />
    <glyph glyph-name="Ubreve" unicode="&#x16c;" horiz-adv-x="630" 
d="M234 678l-75 -431q-8 -46 -7.5 -78t13.5 -54q27 -47 117 -47h4q43 0 79 11t59 36q23 24 33 60t17 72l75 431h85l-64 -368q-8 -45 -14 -81.5t-14.5 -66.5t-21 -54t-33.5 -45q-37 -36 -87.5 -54t-120.5 -19h-8q-70 1 -113.5 19t-67.5 54q-14 21 -19.5 45.5t-4.5 54.5
t6 66.5t13 81.5l64 367h85zM368 844q-2 -22 11 -33.5t34 -11.5h4q41 0 57 45h71q-12 -51 -46 -80q-18 -15 -40 -23t-51 -8q-51 0 -80.5 27.5t-29.5 72.5v11h70z" />
    <glyph glyph-name="Uring" unicode="&#x16e;" horiz-adv-x="630" 
d="M234 678l-75 -431q-8 -46 -7.5 -78t13.5 -54q27 -47 117 -47h4q43 0 79 11t59 36q23 24 33 60t17 72l75 431h85l-64 -368q-8 -45 -14 -81.5t-14.5 -66.5t-21 -54t-33.5 -45q-37 -36 -87.5 -54t-120.5 -19h-8q-70 1 -113.5 19t-67.5 54q-14 21 -19.5 45.5t-4.5 54.5
t6 66.5t13 81.5l64 367h85zM385 792q0 -23 25 -23q16 0 24.5 9.5t8.5 23.5q0 23 -25 23q-16 0 -24.5 -9.5t-8.5 -23.5zM353 852q15 16 34.5 23.5t39.5 7.5q34 0 54 -20.5t20 -54.5q0 -17 -6 -34.5t-20 -31.5q-15 -16 -34.5 -23.5t-39.5 -7.5q-34 0 -54 20.5t-20 54.5
q0 17 6 34.5t20 31.5z" />
    <glyph glyph-name="Uhungarumlaut" unicode="&#x170;" horiz-adv-x="630" 
d="M234 678l-75 -431q-8 -46 -7.5 -78t13.5 -54q27 -47 117 -47h4q43 0 79 11t59 36q23 24 33 60t17 72l75 431h85l-64 -368q-8 -45 -14 -81.5t-14.5 -66.5t-21 -54t-33.5 -45q-37 -36 -87.5 -54t-120.5 -19h-8q-70 1 -113.5 19t-67.5 54q-14 21 -19.5 45.5t-4.5 54.5
t6 66.5t13 81.5l64 367h85zM471 867q-10 -12 -27.5 -30t-37 -37.5t-39 -37.5l-32.5 -30h-90q16 18 33.5 37.5t33.5 38t28.5 34t19.5 25.5h111zM631 867q-10 -12 -27.5 -30t-37 -37.5t-39 -37.5l-32.5 -30h-90q16 18 33.5 37.5t33.5 38t28.5 34t19.5 25.5h111z" />
    <glyph glyph-name="Uogonek" unicode="&#x172;" horiz-adv-x="630" 
d="M234 678l-75 -431q-8 -46 -7.5 -78t13.5 -54q27 -47 117 -47h4q43 0 79 11t59 36q23 24 33 60t17 72l75 431h85l-64 -368q-8 -45 -14 -81.5t-14.5 -66.5t-21 -54t-33.5 -45q-11 -11 -30 -24t-42 -25q-45 -23 -66 -51t-21 -49q0 -27 31 -27q12 0 25 3t33 10l7 -56
q-23 -11 -44.5 -15.5t-39.5 -4.5q-43 0 -64 21q-20 20 -20 53q0 48 47 93q-5 -1 -12 -1h-12h-8q-70 1 -113.5 19t-67.5 54q-14 21 -19.5 45.5t-4.5 54.5t6 66.5t13 81.5l64 367h85z" />
    <glyph glyph-name="Wgrave" unicode="&#x1e80;" horiz-adv-x="888" 
d="M179 678q3 -77 8.5 -158.5t12 -158.5t14.5 -146.5t17 -122.5q25 57 54.5 127.5t59.5 145t59 149t54 140.5h103q1 -28 4.5 -70t7.5 -92.5t9 -105.5t10 -108.5t10 -101.5t9 -85q29 59 59 123.5t60.5 136.5t63 153t67.5 174h92q-82 -208 -159.5 -376t-149.5 -302h-96
q-5 32 -10.5 75t-11.5 91.5t-11 99.5t-10 99t-8.5 90.5t-5.5 74.5h-2q-18 -48 -46.5 -119t-60.5 -147t-62.5 -146.5t-52.5 -117.5h-97q-12 58 -24 136t-22.5 167t-20 185t-15.5 190h91zM448 884q7 -15 17 -33t21 -37t22.5 -38t22.5 -35h-80q-12 14 -26 32t-28.5 37.5
t-28.5 38.5t-24 35h104z" />
    <glyph glyph-name="Wacute" unicode="&#x1e82;" horiz-adv-x="888" 
d="M179 678q3 -77 8.5 -158.5t12 -158.5t14.5 -146.5t17 -122.5q25 57 54.5 127.5t59.5 145t59 149t54 140.5h103q1 -28 4.5 -70t7.5 -92.5t9 -105.5t10 -108.5t10 -101.5t9 -85q29 59 59 123.5t60.5 136.5t63 153t67.5 174h92q-82 -208 -159.5 -376t-149.5 -302h-96
q-5 32 -10.5 75t-11.5 91.5t-11 99.5t-10 99t-8.5 90.5t-5.5 74.5h-2q-18 -48 -46.5 -119t-60.5 -147t-62.5 -146.5t-52.5 -117.5h-97q-12 58 -24 136t-22.5 167t-20 185t-15.5 190h91zM708 884q-16 -16 -36 -35t-41 -38.5t-41.5 -37.5t-37.5 -32h-96q16 16 34.5 35t36 38
t34 37t28.5 33h119z" />
    <glyph glyph-name="Wcircumflex" unicode="&#x174;" horiz-adv-x="888" 
d="M179 678q3 -77 8.5 -158.5t12 -158.5t14.5 -146.5t17 -122.5q25 57 54.5 127.5t59.5 145t59 149t54 140.5h103q1 -28 4.5 -70t7.5 -92.5t9 -105.5t10 -108.5t10 -101.5t9 -85q29 59 59 123.5t60.5 136.5t63 153t67.5 174h92q-82 -208 -159.5 -376t-149.5 -302h-96
q-5 32 -10.5 75t-11.5 91.5t-11 99.5t-10 99t-8.5 90.5t-5.5 74.5h-2q-18 -48 -46.5 -119t-60.5 -147t-62.5 -146.5t-52.5 -117.5h-97q-12 58 -24 136t-22.5 167t-20 185t-15.5 190h91zM594 862q11 -22 33.5 -57.5t46.5 -69.5h-92q-4 5 -9 13.5t-10 17.5t-9.5 17t-7.5 14
q-5 -6 -12.5 -14t-16 -17t-16.5 -17.5t-14 -13.5h-98q15 14 32 30.5t33.5 34t32 33.5t26.5 29h81z" />
    <glyph glyph-name="Wdieresis" unicode="&#x1e84;" horiz-adv-x="888" 
d="M179 678q3 -77 8.5 -158.5t12 -158.5t14.5 -146.5t17 -122.5q25 57 54.5 127.5t59.5 145t59 149t54 140.5h103q1 -28 4.5 -70t7.5 -92.5t9 -105.5t10 -108.5t10 -101.5t9 -85q29 59 59 123.5t60.5 136.5t63 153t67.5 174h92q-82 -208 -159.5 -376t-149.5 -302h-96
q-5 32 -10.5 75t-11.5 91.5t-11 99.5t-10 99t-8.5 90.5t-5.5 74.5h-2q-18 -48 -46.5 -119t-60.5 -147t-62.5 -146.5t-52.5 -117.5h-97q-12 58 -24 136t-22.5 167t-20 185t-15.5 190h91zM476 854q44 0 44 -41q0 -34 -17 -51t-46 -17q-44 0 -44 41q0 34 17 51t46 17zM628 854
q44 0 44 -41q0 -34 -17 -51t-46 -17q-44 0 -44 41q0 34 17 51t46 17z" />
    <glyph glyph-name="Ygrave" unicode="&#x1ef2;" horiz-adv-x="554" 
d="M182 678q13 -58 28 -120t29.5 -116.5t26.5 -96t18 -58.5q20 29 49.5 74.5t62.5 99t67 110t63 107.5h93q-94 -159 -170.5 -278t-133.5 -194l-36 -206h-85l36 210q-12 32 -29 83.5t-36 114t-39 132.5t-38 138h94zM300 884q7 -15 17 -33t21 -37t22.5 -38t22.5 -35h-80
q-12 14 -26 32t-28.5 37.5t-28.5 38.5t-24 35h104z" />
    <glyph glyph-name="Yacute" unicode="&#xdd;" horiz-adv-x="554" 
d="M182 678q13 -58 28 -120t29.5 -116.5t26.5 -96t18 -58.5q20 29 49.5 74.5t62.5 99t67 110t63 107.5h93q-94 -159 -170.5 -278t-133.5 -194l-36 -206h-85l36 210q-12 32 -29 83.5t-36 114t-39 132.5t-38 138h94zM530 884q-16 -16 -36 -35t-41 -38.5t-41.5 -37.5t-37.5 -32
h-96q16 16 34.5 35t36 38t34 37t28.5 33h119z" />
    <glyph glyph-name="Ycircumflex" unicode="&#x176;" horiz-adv-x="554" 
d="M182 678q13 -58 28 -120t29.5 -116.5t26.5 -96t18 -58.5q20 29 49.5 74.5t62.5 99t67 110t63 107.5h93q-94 -159 -170.5 -278t-133.5 -194l-36 -206h-85l36 210q-12 32 -29 83.5t-36 114t-39 132.5t-38 138h94zM426 862q11 -22 33.5 -57.5t46.5 -69.5h-92q-4 5 -9 13.5
t-10 17.5t-9.5 17t-7.5 14q-5 -6 -12.5 -14t-16 -17t-16.5 -17.5t-14 -13.5h-98q15 14 32 30.5t33.5 34t32 33.5t26.5 29h81z" />
    <glyph glyph-name="Ydieresis" unicode="&#x178;" horiz-adv-x="554" 
d="M182 678q13 -58 28 -120t29.5 -116.5t26.5 -96t18 -58.5q20 29 49.5 74.5t62.5 99t67 110t63 107.5h93q-94 -159 -170.5 -278t-133.5 -194l-36 -206h-85l36 210q-12 32 -29 83.5t-36 114t-39 132.5t-38 138h94zM308 854q44 0 44 -41q0 -34 -17 -51t-46 -17q-44 0 -44 41
q0 34 17 51t46 17zM460 854q44 0 44 -41q0 -34 -17 -51t-46 -17q-44 0 -44 41q0 34 17 51t46 17z" />
    <glyph glyph-name="Zacute" unicode="&#x179;" horiz-adv-x="516" 
d="M563 678l5 -42l-460 -560h333l-23 -76h-435l7 52l450 551h-322l8 75h437zM522 884q-16 -16 -36 -35t-41 -38.5t-41.5 -37.5t-37.5 -32h-96q16 16 34.5 35t36 38t34 37t28.5 33h119z" />
    <glyph glyph-name="Zcaron" unicode="&#x17d;" horiz-adv-x="516" 
d="M563 678l5 -42l-460 -560h333l-23 -76h-435l7 52l450 551h-322l8 75h437zM335 856q4 -5 9 -13t10.5 -17t10.5 -17t8 -14q4 5 11.5 13.5t15.5 17l16 17t14 13.5h99q-18 -17 -35.5 -34.5l-34 -34t-30.5 -31t-23 -24.5h-81q-8 15 -18 31.5t-21 33.5t-22 32t-20 27h91z" />
    <glyph glyph-name="Zdotaccent" unicode="&#x17b;" horiz-adv-x="516" 
d="M563 678l5 -42l-460 -560h333l-23 -76h-435l7 52l450 551h-322l8 75h437zM367 860q23 0 34 -11t11 -31q0 -35 -17.5 -53t-48.5 -18q-23 0 -34 11t-11 31q0 35 17.5 53t48.5 18z" />
    <glyph glyph-name="agrave" unicode="&#xe0;" horiz-adv-x="520" 
d="M50 263q22 122 92.5 175.5t173.5 53.5q39 0 80.5 -7t85.5 -22l-59 -340q-2 -7 -3 -17t-1 -15q0 -27 22 -27q19 0 45 13l-2 -67q-17 -8 -36.5 -11.5t-34.5 -3.5q-35 0 -51.5 15.5t-18.5 38.5q-36 -30 -73.5 -44.5t-73.5 -14.5q-34 0 -63 11.5t-50 33t-33 53t-12 72.5
q0 31 6 69zM127 232q-6 -38 -6 -66q0 -55 24.5 -79.5t67.5 -24.5q30 0 64 14.5t65 46.5l50 286q-46 13 -86 13q-79 0 -124 -48q-37 -40 -51 -119zM277 717q11 -26 31 -69t46 -88h-72q-12 15 -26 35t-28 41.5t-26.5 42.5t-22.5 38h98z" />
    <glyph glyph-name="aacute" unicode="&#xe1;" horiz-adv-x="520" 
d="M50 263q22 122 92.5 175.5t173.5 53.5q39 0 80.5 -7t85.5 -22l-59 -340q-2 -7 -3 -17t-1 -15q0 -27 22 -27q19 0 45 13l-2 -67q-17 -8 -36.5 -11.5t-34.5 -3.5q-35 0 -51.5 15.5t-18.5 38.5q-36 -30 -73.5 -44.5t-73.5 -14.5q-34 0 -63 11.5t-50 33t-33 53t-12 72.5
q0 31 6 69zM127 232q-6 -38 -6 -66q0 -55 24.5 -79.5t67.5 -24.5q30 0 64 14.5t65 46.5l50 286q-46 13 -86 13q-79 0 -124 -48q-37 -40 -51 -119zM450 717q-16 -17 -36 -38t-41.5 -42.5t-42.5 -41.5t-39 -35h-88q42 45 77.5 88t55.5 69h114z" />
    <glyph glyph-name="acircumflex" unicode="&#xe2;" horiz-adv-x="520" 
d="M50 263q22 122 92.5 175.5t173.5 53.5q39 0 80.5 -7t85.5 -22l-59 -340q-2 -7 -3 -17t-1 -15q0 -27 22 -27q19 0 45 13l-2 -67q-17 -8 -36.5 -11.5t-34.5 -3.5q-35 0 -51.5 15.5t-18.5 38.5q-36 -30 -73.5 -44.5t-73.5 -14.5q-34 0 -63 11.5t-50 33t-33 53t-12 72.5
q0 31 6 69zM127 232q-6 -38 -6 -66q0 -55 24.5 -79.5t67.5 -24.5q30 0 64 14.5t65 46.5l50 286q-46 13 -86 13q-79 0 -124 -48q-37 -40 -51 -119zM377 699q11 -23 33 -59t47 -71h-92q-4 5 -9 13.5t-10 17.5t-9.5 17t-7.5 14q-5 -6 -12.5 -14t-16 -17t-16.5 -17.5t-14 -13.5
h-97q16 15 33.5 32.5t34.5 35t31.5 34t25.5 28.5h79z" />
    <glyph glyph-name="atilde" unicode="&#xe3;" horiz-adv-x="520" 
d="M50 263q22 122 92.5 175.5t173.5 53.5q39 0 80.5 -7t85.5 -22l-59 -340q-2 -7 -3 -17t-1 -15q0 -27 22 -27q19 0 45 13l-2 -67q-17 -8 -36.5 -11.5t-34.5 -3.5q-35 0 -51.5 15.5t-18.5 38.5q-36 -30 -73.5 -44.5t-73.5 -14.5q-34 0 -63 11.5t-50 33t-33 53t-12 72.5
q0 31 6 69zM127 232q-6 -38 -6 -66q0 -55 24.5 -79.5t67.5 -24.5q30 0 64 14.5t65 46.5l50 286q-46 13 -86 13q-79 0 -124 -48q-37 -40 -51 -119zM165 594q17 43 42 68q14 14 31.5 22.5t38.5 8.5q28 0 63 -24l22 -15q17 -11 28 -11q13 0 23.5 11.5t22.5 35.5l53 -19
q-17 -46 -42 -72.5t-60 -26.5q-31 0 -69 26l-18 12q-20 13 -31 13t-22.5 -11t-25.5 -36z" />
    <glyph glyph-name="adieresis" unicode="&#xe4;" horiz-adv-x="520" 
d="M50 263q22 122 92.5 175.5t173.5 53.5q39 0 80.5 -7t85.5 -22l-59 -340q-2 -7 -3 -17t-1 -15q0 -27 22 -27q19 0 45 13l-2 -67q-17 -8 -36.5 -11.5t-34.5 -3.5q-35 0 -51.5 15.5t-18.5 38.5q-36 -30 -73.5 -44.5t-73.5 -14.5q-34 0 -63 11.5t-50 33t-33 53t-12 72.5
q0 31 6 69zM127 232q-6 -38 -6 -66q0 -55 24.5 -79.5t67.5 -24.5q30 0 64 14.5t65 46.5l50 286q-46 13 -86 13q-79 0 -124 -48q-37 -40 -51 -119zM261 690q43 0 43 -40q0 -33 -16.5 -50t-45.5 -17q-43 0 -43 40q0 33 16.5 50t45.5 17zM411 690q43 0 43 -40q0 -33 -16.5 -50
t-45.5 -17q-43 0 -43 40q0 33 16.5 50t45.5 17z" />
    <glyph glyph-name="amacron" unicode="&#x101;" horiz-adv-x="520" 
d="M50 263q22 122 92.5 175.5t173.5 53.5q39 0 80.5 -7t85.5 -22l-59 -340q-2 -7 -3 -17t-1 -15q0 -27 22 -27q19 0 45 13l-2 -67q-17 -8 -36.5 -11.5t-34.5 -3.5q-35 0 -51.5 15.5t-18.5 38.5q-36 -30 -73.5 -44.5t-73.5 -14.5q-34 0 -63 11.5t-50 33t-33 53t-12 72.5
q0 31 6 69zM127 232q-6 -38 -6 -66q0 -55 24.5 -79.5t67.5 -24.5q30 0 64 14.5t65 46.5l50 286q-46 13 -86 13q-79 0 -124 -48q-37 -40 -51 -119zM466 658l-12 -68h-269l12 68h269z" />
    <glyph glyph-name="abreve" unicode="&#x103;" horiz-adv-x="520" 
d="M50 263q22 122 92.5 175.5t173.5 53.5q39 0 80.5 -7t85.5 -22l-59 -340q-2 -7 -3 -17t-1 -15q0 -27 22 -27q19 0 45 13l-2 -67q-17 -8 -36.5 -11.5t-34.5 -3.5q-35 0 -51.5 15.5t-18.5 38.5q-36 -30 -73.5 -44.5t-73.5 -14.5q-34 0 -63 11.5t-50 33t-33 53t-12 72.5
q0 31 6 69zM127 232q-6 -38 -6 -66q0 -55 24.5 -79.5t67.5 -24.5q30 0 64 14.5t65 46.5l50 286q-46 13 -86 13q-79 0 -124 -48q-37 -40 -51 -119zM280 679q-2 -25 11 -38t34 -13h4q43 0 58 51h71q-6 -26 -17.5 -47.5t-28.5 -36.5q-18 -16 -40.5 -24t-51.5 -8
q-51 0 -80.5 28.5t-29.5 76.5v11h70z" />
    <glyph glyph-name="acaron" unicode="&#x1ce;" horiz-adv-x="520" 
d="M50 263q22 122 92.5 175.5t173.5 53.5q39 0 80.5 -7t85.5 -22l-59 -340q-2 -7 -3 -17t-1 -15q0 -27 22 -27q19 0 45 13l-2 -67q-17 -8 -36.5 -11.5t-34.5 -3.5q-35 0 -51.5 15.5t-18.5 38.5q-36 -30 -73.5 -44.5t-73.5 -14.5q-34 0 -63 11.5t-50 33t-33 53t-12 72.5
q0 31 6 69zM127 232q-6 -38 -6 -66q0 -55 24.5 -79.5t67.5 -24.5q30 0 64 14.5t65 46.5l50 286q-46 13 -86 13q-79 0 -124 -48q-37 -40 -51 -119zM273 680q8 -10 20 -29t17 -30q5 6 12.5 14t15.5 16.5t15.5 16t13.5 12.5h98q-16 -14 -33 -31l-33.5 -33.5t-31.5 -32
t-25 -27.5h-79q-11 22 -33.5 56.5t-47.5 67.5h91z" />
    <glyph glyph-name="aring" unicode="&#xe5;" horiz-adv-x="520" 
d="M50 263q22 122 92.5 175.5t173.5 53.5q39 0 80.5 -7t85.5 -22l-59 -340q-2 -7 -3 -17t-1 -15q0 -27 22 -27q19 0 45 13l-2 -67q-17 -8 -36.5 -11.5t-34.5 -3.5q-35 0 -51.5 15.5t-18.5 38.5q-36 -30 -73.5 -44.5t-73.5 -14.5q-34 0 -63 11.5t-50 33t-33 53t-12 72.5
q0 31 6 69zM127 232q-6 -38 -6 -66q0 -55 24.5 -79.5t67.5 -24.5q30 0 64 14.5t65 46.5l50 286q-46 13 -86 13q-79 0 -124 -48q-37 -40 -51 -119zM296 621q0 -23 25 -23q16 0 24.5 9.5t8.5 23.5q0 23 -25 23q-16 0 -24.5 -9.5t-8.5 -23.5zM338 712q34 0 54 -20.5t20 -54.5
q0 -17 -6 -34.5t-20 -31.5q-15 -16 -34.5 -23.5t-39.5 -7.5q-34 0 -54 20.5t-20 54.5q0 17 6 34.5t20 31.5q15 16 34.5 23.5t39.5 7.5z" />
    <glyph glyph-name="aringacute" unicode="&#x1fb;" horiz-adv-x="520" 
d="M50 263q22 122 92.5 175.5t173.5 53.5q39 0 80.5 -7t85.5 -22l-59 -340q-2 -7 -3 -17t-1 -15q0 -27 22 -27q19 0 45 13l-2 -67q-17 -8 -36.5 -11.5t-34.5 -3.5q-35 0 -51.5 15.5t-18.5 38.5q-36 -30 -73.5 -44.5t-73.5 -14.5q-34 0 -63 11.5t-50 33t-33 53t-12 72.5
q0 31 6 69zM127 232q-6 -38 -6 -66q0 -55 24.5 -79.5t67.5 -24.5q30 0 64 14.5t65 46.5l50 286q-46 13 -86 13q-79 0 -124 -48q-37 -40 -51 -119zM296 621q0 -23 25 -23q16 0 24.5 9.5t8.5 23.5q0 23 -25 23q-16 0 -24.5 -9.5t-8.5 -23.5zM338 712q34 0 54 -20.5t20 -54.5
q0 -17 -6 -34.5t-20 -31.5q-15 -16 -34.5 -23.5t-39.5 -7.5q-34 0 -54 20.5t-20 54.5q0 17 6 34.5t20 31.5q15 16 34.5 23.5t39.5 7.5zM493 908q-16 -17 -36 -38t-41.5 -42.5t-42.5 -41.5t-39 -35h-88q42 45 77.5 88t55.5 69h114z" />
    <glyph glyph-name="aogonek" unicode="&#x105;" horiz-adv-x="520" 
d="M127 232q-6 -38 -6 -66q0 -55 24.5 -79.5t67.5 -24.5q30 0 64 14.5t65 46.5l50 286q-46 13 -86 13q-79 0 -124 -48q-37 -40 -51 -119zM50 263q22 122 92.5 175.5t173.5 53.5q39 0 80.5 -7t85.5 -22l-59 -340q-2 -7 -3 -17t-1 -15q0 -27 22 -27q19 0 45 13l-2 -67
q-47 -23 -66 -51t-19 -45q0 -27 31 -27q12 0 25 3t33 10l7 -56q-23 -11 -44.5 -15.5t-39.5 -4.5q-43 0 -64 21q-20 20 -20 53q0 25 13 51t45 50q-20 5 -30.5 19t-11.5 31q-36 -30 -73.5 -44.5t-73.5 -14.5q-34 0 -63 11.5t-50 33t-33 53t-12 72.5q0 31 6 69z" />
    <glyph glyph-name="ae" unicode="&#xe6;" horiz-adv-x="766" 
d="M108 467q91 25 159 25h3q48 0 84 -14.5t53 -45.5q32 31 74 45.5t93 14.5h6q72 0 114 -36.5t42 -102.5q0 -16 -1.5 -34.5t-5.5 -39.5l-10 -56h-315q-2 -13 -2.5 -25.5t-0.5 -21.5q0 -57 30 -85.5t94 -28.5h3q29 0 65 6.5t74 20.5l10 -64q-40 -17 -81.5 -26t-79.5 -9h-4
q-98 0 -148 52l-7 7t-6 8q-46 -35 -96 -51t-97 -16q-72 0 -108 35.5t-36 94.5q0 80 51 125.5t152 45.5h4q26 0 54.5 -3t56.5 -11l9 51q9 46 -9 69q-11 12 -28.5 18.5t-46.5 6.5h-5q-27 0 -61 -5.5t-78 -18.5zM217 221q-66 0 -94.5 -24.5t-28.5 -66.5q0 -35 20 -51.5
t65 -16.5q30 0 67.5 12t78.5 39q-7 25 -7 57v19.5t2 21.5q-47 10 -98 10h-5zM651 290l2 15q3 22 3 40q0 33 -22 56.5t-72 23.5q-27 0 -51.5 -9t-44.5 -30q-15 -16 -27 -39.5t-20 -56.5h232z" />
    <glyph glyph-name="aeacute" unicode="&#x1fd;" horiz-adv-x="766" 
d="M582 717q-16 -17 -36 -38t-41.5 -42.5t-42.5 -41.5t-39 -35h-88q42 45 77.5 88t55.5 69h114zM108 467q91 25 159 25h3q48 0 84 -14.5t53 -45.5q32 31 74 45.5t93 14.5h6q72 0 114 -36.5t42 -102.5q0 -16 -1.5 -34.5t-5.5 -39.5l-10 -56h-315q-2 -13 -2.5 -25.5
t-0.5 -21.5q0 -57 30 -85.5t94 -28.5h3q29 0 65 6.5t74 20.5l10 -64q-40 -17 -81.5 -26t-79.5 -9h-4q-98 0 -148 52l-7 7t-6 8q-46 -35 -96 -51t-97 -16q-72 0 -108 35.5t-36 94.5q0 80 51 125.5t152 45.5h4q26 0 54.5 -3t56.5 -11l9 51q9 46 -9 69q-11 12 -28.5 18.5
t-46.5 6.5h-5q-27 0 -61 -5.5t-78 -18.5zM217 221q-66 0 -94.5 -24.5t-28.5 -66.5q0 -35 20 -51.5t65 -16.5q30 0 67.5 12t78.5 39q-7 25 -7 57v19.5t2 21.5q-47 10 -98 10h-5zM651 290l2 15q3 22 3 40q0 33 -22 56.5t-72 23.5q-27 0 -51.5 -9t-44.5 -30q-15 -16 -27 -39.5
t-20 -56.5h232z" />
    <glyph glyph-name="cacute" unicode="&#x107;" horiz-adv-x="444" 
d="M307 492q42 0 78 -11t65 -29l-29 -63q-29 17 -61 25t-61 8q-33 0 -63 -10.5t-53 -35.5q-19 -20 -32.5 -50.5t-20.5 -73.5l-5 -31q-3 -17 -3.5 -29t-0.5 -26q0 -51 29 -78q29 -26 83 -26h4q29 0 60 7t69 23l17 -62q-39 -20 -81.5 -30t-80.5 -10h-4q-38 0 -73.5 11.5
t-58.5 33.5q-47 44 -47 125q0 14 1 30t4 33l5 31q10 61 29.5 103t46.5 70q33 34 80 49.5t97 15.5h6zM445 717q-16 -17 -36 -38t-41.5 -42.5t-42.5 -41.5t-39 -35h-88q42 45 77.5 88t55.5 69h114z" />
    <glyph glyph-name="ccedilla" unicode="&#xe7;" horiz-adv-x="444" 
d="M307 492q42 0 78 -11t65 -29l-29 -63q-29 17 -61 25t-61 8q-33 0 -63 -10.5t-53 -35.5q-19 -20 -32.5 -50.5t-20.5 -73.5l-5 -31q-3 -17 -3.5 -29t-0.5 -26q0 -51 29 -78q29 -26 83 -26h4q29 0 60 7t69 23l17 -62q-35 -19 -73.5 -28t-73.5 -11l-17 -38q16 4 31 4
q17 0 33.5 -5.5t27.5 -19.5q16 -18 16 -49q0 -20 -7 -40.5t-23 -34.5q-15 -14 -37.5 -22.5t-54.5 -8.5q-27 0 -55.5 7t-56.5 21l28 57q25 -12 47 -17t39 -5q23 0 36 7.5t13 23.5q0 11 -8.5 17.5t-31.5 6.5q-11 0 -24.5 -1t-31.5 -5l-23 22l40 82q-27 5 -51 15t-41 27
q-47 44 -47 125q0 14 1 30t4 33l5 31q10 61 29.5 103t46.5 70q33 34 80 49.5t97 15.5h6z" />
    <glyph glyph-name="ccircumflex" unicode="&#x109;" horiz-adv-x="444" 
d="M307 492q42 0 78 -11t65 -29l-29 -63q-29 17 -61 25t-61 8q-33 0 -63 -10.5t-53 -35.5q-19 -20 -32.5 -50.5t-20.5 -73.5l-5 -31q-3 -17 -3.5 -29t-0.5 -26q0 -51 29 -78q29 -26 83 -26h4q29 0 60 7t69 23l17 -62q-39 -20 -81.5 -30t-80.5 -10h-4q-38 0 -73.5 11.5
t-58.5 33.5q-47 44 -47 125q0 14 1 30t4 33l5 31q10 61 29.5 103t46.5 70q33 34 80 49.5t97 15.5h6zM362 699q11 -23 33 -59t47 -71h-92q-4 5 -9 13.5t-10 17.5t-9.5 17t-7.5 14q-5 -6 -12.5 -14t-16 -17t-16.5 -17.5t-14 -13.5h-97q16 15 33.5 32.5t34.5 35t31.5 34
t25.5 28.5h79z" />
    <glyph glyph-name="ccaron" unicode="&#x10d;" horiz-adv-x="444" 
d="M307 492q42 0 78 -11t65 -29l-29 -63q-29 17 -61 25t-61 8q-33 0 -63 -10.5t-53 -35.5q-19 -20 -32.5 -50.5t-20.5 -73.5l-5 -31q-3 -17 -3.5 -29t-0.5 -26q0 -51 29 -78q29 -26 83 -26h4q29 0 60 7t69 23l17 -62q-39 -20 -81.5 -30t-80.5 -10h-4q-38 0 -73.5 11.5
t-58.5 33.5q-47 44 -47 125q0 14 1 30t4 33l5 31q10 61 29.5 103t46.5 70q33 34 80 49.5t97 15.5h6zM268 680q8 -10 20 -29t17 -30q5 6 12.5 14t15.5 16.5t15.5 16t13.5 12.5h98q-16 -14 -33 -31l-33.5 -33.5t-31.5 -32t-25 -27.5h-79q-11 22 -33.5 56.5t-47.5 67.5h91z" />
    <glyph glyph-name="cdotaccent" unicode="&#x10b;" horiz-adv-x="444" 
d="M307 492q42 0 78 -11t65 -29l-29 -63q-29 17 -61 25t-61 8q-33 0 -63 -10.5t-53 -35.5q-19 -20 -32.5 -50.5t-20.5 -73.5l-5 -31q-3 -17 -3.5 -29t-0.5 -26q0 -51 29 -78q29 -26 83 -26h4q29 0 60 7t69 23l17 -62q-39 -20 -81.5 -30t-80.5 -10h-4q-38 0 -73.5 11.5
t-58.5 33.5q-47 44 -47 125q0 14 1 30t4 33l5 31q10 61 29.5 103t46.5 70q33 34 80 49.5t97 15.5h6zM322 693q23 0 34 -11t11 -31q0 -35 -17.5 -53t-48.5 -18q-23 0 -34 11t-11 31q0 35 17.5 53t48.5 18z" />
    <glyph glyph-name="dcaron" unicode="&#x10f;" horiz-adv-x="516" 
d="M127 227q-2 -14 -3.5 -28t-1.5 -24q0 -32 5 -52.5t18 -34.5q12 -14 31 -21t42 -7q26 0 56 9.5t65 30.5l55 309q-43 13 -87 13q-74 0 -117 -39t-59 -133zM525 705l-101 -580q-5 -31 -9 -64.5t-6 -58.5l-62 -8l-9 41q-38 -23 -75.5 -34t-69.5 -11t-60.5 11t-48.5 31
q-22 23 -33.5 56.5t-11.5 80.5q0 13 1.5 26.5t3.5 27.5l5 30q21 126 87.5 182.5t169.5 56.5q51 0 99 -12l40 225h80zM696 705q-17 -42 -41.5 -90.5t-50.5 -89.5l-67 14q19 37 36 81t28 85h95z" />
    <glyph glyph-name="dcroat" unicode="&#x111;" horiz-adv-x="516" 
d="M429 618l16 87h80l-15 -87h69l-23 -70h-59l-73 -423q-5 -31 -9 -64.5t-6 -58.5l-62 -8l-9 41q-38 -23 -75.5 -34t-69.5 -11t-60.5 11t-48.5 31q-22 23 -33.5 56.5t-11.5 80.5q0 13 1.5 26.5t3.5 27.5l5 30q18 110 75 170q34 35 79.5 52t102.5 17q52 0 99 -12l12 68h-101
l12 70h101zM127 227q-2 -14 -3.5 -28t-1.5 -24q0 -32 5 -52.5t18 -34.5q12 -14 31 -21t42 -7q26 0 56 9.5t65 30.5l55 309q-46 13 -87 13q-38 0 -68 -13t-53 -36q-21 -23 -34.5 -53.5t-20.5 -68.5z" />
    <glyph glyph-name="eth" unicode="&#xf0;" horiz-adv-x="518" 
d="M255 685q20 -8 37 -16l34 -16l49 55l47 -37l-46 -51q56 -42 81.5 -97.5t25.5 -128.5q0 -31 -3 -66t-11 -75l-6 -36q-8 -51 -27 -92t-49 -71q-33 -33 -78 -48.5t-90 -15.5q-38 0 -73.5 11.5t-58.5 33.5t-36 52.5t-13 72.5q0 14 1 30t4 33l6 36q8 51 26.5 90t44.5 67
q30 31 75.5 50.5t107.5 19.5q41 0 88 -9q-8 26 -24 47.5t-39 41.5l-49 -55l-47 37l47 53q-14 8 -30.5 15.5t-35.5 15.5zM125 220q-3 -17 -3.5 -29t-0.5 -26q0 -54 28.5 -80t74.5 -26q67 0 105.5 43.5t51.5 117.5l6 36q7 38 10.5 72t2.5 66v10q-26 7 -50 10t-45 3
q-79 0 -121 -42q-40 -40 -53 -119z" />
    <glyph glyph-name="egrave" unicode="&#xe8;" horiz-adv-x="486" 
d="M300 492q72 0 114 -36.5t42 -102.5q0 -16 -1.5 -34.5t-5.5 -39.5l-10 -56h-315q-2 -13 -2.5 -25.5t-0.5 -21.5q0 -57 30 -85.5t94 -28.5h3q29 0 65 6.5t74 20.5l10 -64q-40 -17 -81.5 -26t-79.5 -9h-4q-98 0 -148 52q-46 48 -46 128q0 15 1.5 33.5t5.5 37.5l3 17
q22 125 86 179.5t160 54.5h6zM371 290l2 15q3 22 3 40q0 33 -22 56.5t-72 23.5q-27 0 -51.5 -9t-44.5 -30q-15 -16 -27 -39.5t-20 -56.5h232zM284 717q11 -26 31 -69t46 -88h-72q-12 15 -26 35t-28 41.5t-26.5 42.5t-22.5 38h98z" />
    <glyph glyph-name="eacute" unicode="&#xe9;" horiz-adv-x="487" 
d="M300 492q72 0 114 -36.5t42 -102.5q0 -16 -1.5 -34.5t-5.5 -39.5l-10 -56h-315q-2 -13 -2.5 -25.5t-0.5 -21.5q0 -57 30 -85.5t94 -28.5h3q29 0 65 6.5t74 20.5l10 -64q-40 -17 -81.5 -26t-79.5 -9h-4q-98 0 -148 52q-46 48 -46 128q0 15 1.5 33.5t5.5 37.5l3 17
q22 125 86 179.5t160 54.5h6zM371 290l2 15q3 22 3 40q0 33 -22 56.5t-72 23.5q-27 0 -51.5 -9t-44.5 -30q-15 -16 -27 -39.5t-20 -56.5h232zM457 717q-16 -17 -36 -38t-41.5 -42.5t-42.5 -41.5t-39 -35h-88q42 45 77.5 88t55.5 69h114z" />
    <glyph glyph-name="ecircumflex" unicode="&#xea;" horiz-adv-x="486" 
d="M300 492q72 0 114 -36.5t42 -102.5q0 -16 -1.5 -34.5t-5.5 -39.5l-10 -56h-315q-2 -13 -2.5 -25.5t-0.5 -21.5q0 -57 30 -85.5t94 -28.5h3q29 0 65 6.5t74 20.5l10 -64q-40 -17 -81.5 -26t-79.5 -9h-4q-98 0 -148 52q-46 48 -46 128q0 15 1.5 33.5t5.5 37.5l3 17
q22 125 86 179.5t160 54.5h6zM371 290l2 15q3 22 3 40q0 33 -22 56.5t-72 23.5q-27 0 -51.5 -9t-44.5 -30q-15 -16 -27 -39.5t-20 -56.5h232zM355 699q11 -23 33 -59t47 -71h-92q-4 5 -9 13.5t-10 17.5t-9.5 17t-7.5 14q-5 -6 -12.5 -14t-16 -17t-16.5 -17.5t-14 -13.5h-97
q16 15 33.5 32.5t34.5 35t31.5 34t25.5 28.5h79z" />
    <glyph glyph-name="ecaron" unicode="&#x11b;" horiz-adv-x="486" 
d="M300 492q72 0 114 -36.5t42 -102.5q0 -16 -1.5 -34.5t-5.5 -39.5l-10 -56h-315q-2 -13 -2.5 -25.5t-0.5 -21.5q0 -57 30 -85.5t94 -28.5h3q29 0 65 6.5t74 20.5l10 -64q-40 -17 -81.5 -26t-79.5 -9h-4q-98 0 -148 52q-46 48 -46 128q0 15 1.5 33.5t5.5 37.5l3 17
q22 125 86 179.5t160 54.5h6zM371 290l2 15q3 22 3 40q0 33 -22 56.5t-72 23.5q-27 0 -51.5 -9t-44.5 -30q-15 -16 -27 -39.5t-20 -56.5h232zM261 680q8 -10 20 -29t17 -30q5 6 12.5 14t15.5 16.5t15.5 16t13.5 12.5h98q-16 -14 -33 -31l-33.5 -33.5t-31.5 -32t-25 -27.5
h-79q-11 22 -33.5 56.5t-47.5 67.5h91z" />
    <glyph glyph-name="edieresis" unicode="&#xeb;" horiz-adv-x="486" 
d="M300 492q72 0 114 -36.5t42 -102.5q0 -16 -1.5 -34.5t-5.5 -39.5l-10 -56h-315q-2 -13 -2.5 -25.5t-0.5 -21.5q0 -57 30 -85.5t94 -28.5h3q29 0 65 6.5t74 20.5l10 -64q-40 -17 -81.5 -26t-79.5 -9h-4q-98 0 -148 52q-46 48 -46 128q0 15 1.5 33.5t5.5 37.5l3 17
q22 125 86 179.5t160 54.5h6zM371 290l2 15q3 22 3 40q0 33 -22 56.5t-72 23.5q-27 0 -51.5 -9t-44.5 -30q-15 -16 -27 -39.5t-20 -56.5h232zM239 690q43 0 43 -40q0 -33 -16.5 -50t-45.5 -17q-43 0 -43 40q0 33 16.5 50t45.5 17zM389 690q43 0 43 -40q0 -33 -16.5 -50
t-45.5 -17q-43 0 -43 40q0 33 16.5 50t45.5 17z" />
    <glyph glyph-name="emacron" unicode="&#x113;" horiz-adv-x="486" 
d="M300 492q72 0 114 -36.5t42 -102.5q0 -16 -1.5 -34.5t-5.5 -39.5l-10 -56h-315q-2 -13 -2.5 -25.5t-0.5 -21.5q0 -57 30 -85.5t94 -28.5h3q29 0 65 6.5t74 20.5l10 -64q-40 -17 -81.5 -26t-79.5 -9h-4q-98 0 -148 52q-46 48 -46 128q0 15 1.5 33.5t5.5 37.5l3 17
q22 125 86 179.5t160 54.5h6zM371 290l2 15q3 22 3 40q0 33 -22 56.5t-72 23.5q-27 0 -51.5 -9t-44.5 -30q-15 -16 -27 -39.5t-20 -56.5h232zM443 658l-12 -68h-269l12 68h269z" />
    <glyph glyph-name="ebreve" unicode="&#x115;" horiz-adv-x="486" 
d="M300 492q72 0 114 -36.5t42 -102.5q0 -16 -1.5 -34.5t-5.5 -39.5l-10 -56h-315q-2 -13 -2.5 -25.5t-0.5 -21.5q0 -57 30 -85.5t94 -28.5h3q29 0 65 6.5t74 20.5l10 -64q-40 -17 -81.5 -26t-79.5 -9h-4q-98 0 -148 52q-46 48 -46 128q0 15 1.5 33.5t5.5 37.5l3 17
q22 125 86 179.5t160 54.5h6zM371 290l2 15q3 22 3 40q0 33 -22 56.5t-72 23.5q-27 0 -51.5 -9t-44.5 -30q-15 -16 -27 -39.5t-20 -56.5h232zM258 679q-2 -25 11 -38t34 -13h4q43 0 58 51h71q-6 -26 -17.5 -47.5t-28.5 -36.5q-18 -16 -40.5 -24t-51.5 -8q-51 0 -80.5 28.5
t-29.5 76.5v11h70z" />
    <glyph glyph-name="edotaccent" unicode="&#x117;" horiz-adv-x="486" 
d="M300 492q72 0 114 -36.5t42 -102.5q0 -16 -1.5 -34.5t-5.5 -39.5l-10 -56h-315q-2 -13 -2.5 -25.5t-0.5 -21.5q0 -57 30 -85.5t94 -28.5h3q29 0 65 6.5t74 20.5l10 -64q-40 -17 -81.5 -26t-79.5 -9h-4q-98 0 -148 52q-46 48 -46 128q0 15 1.5 33.5t5.5 37.5l3 17
q22 125 86 179.5t160 54.5h6zM371 290l2 15q3 22 3 40q0 33 -22 56.5t-72 23.5q-27 0 -51.5 -9t-44.5 -30q-15 -16 -27 -39.5t-20 -56.5h232zM314 693q23 0 34 -11t11 -31q0 -35 -17.5 -53t-48.5 -18q-23 0 -34 11t-11 31q0 35 17.5 53t48.5 18z" />
    <glyph glyph-name="eogonek" unicode="&#x119;" horiz-adv-x="486" 
d="M371 290l2 15q3 22 3 40q0 33 -22 56.5t-72 23.5q-27 0 -51.5 -9t-44.5 -30q-15 -16 -27 -39.5t-20 -56.5h232zM300 492q72 0 114 -36.5t42 -102.5q0 -16 -1.5 -34.5t-5.5 -39.5l-10 -56h-315q-2 -13 -2.5 -25.5t-0.5 -21.5q0 -57 30 -85.5t94 -28.5h3q29 0 65 6.5
t74 20.5l10 -64l-19 -8q-23 -10 -42 -23t-32.5 -27t-21 -27.5t-7.5 -25.5q0 -27 31 -27q12 0 25 3t33 10l7 -56q-23 -11 -44.5 -15.5t-39.5 -4.5q-43 0 -64 21q-20 20 -20 53q0 23 15 49t45 45q-5 -1 -13.5 -1.5t-13.5 -0.5h-4q-98 0 -148 52q-46 48 -46 128q0 15 1.5 33.5
t5.5 37.5l3 17q22 125 86 179.5t160 54.5h6z" />
    <glyph glyph-name="gcircumflex" unicode="&#x11d;" horiz-adv-x="514" 
d="M127 237q-3 -18 -4.5 -33t-1.5 -33q0 -57 28 -79t92 -22q44 0 94 11l57 328q-42 13 -82 13q-82 0 -123.5 -42.5t-55.5 -119.5zM50 268q18 97 71 152q35 36 84.5 54t110.5 18q71 0 166 -29l-87 -499q-6 -33 -20 -70.5t-35 -58.5q-28 -29 -68 -43t-88 -14h-6q-35 0 -69 5.5
t-66 16.5l13 67q29 -10 64 -15.5t66 -5.5h6q54 0 83 27t39 87l9 53q-53 -13 -102 -13q-91 0 -137 43.5t-46 121.5q0 31 6 69zM378 699q11 -23 33 -59t47 -71h-92q-4 5 -9 13.5t-10 17.5t-9.5 17t-7.5 14q-5 -6 -12.5 -14t-16 -17t-16.5 -17.5t-14 -13.5h-97q16 15 33.5 32.5
t34.5 35t31.5 34t25.5 28.5h79z" />
    <glyph glyph-name="gbreve" unicode="&#x11f;" horiz-adv-x="514" 
d="M127 237q-3 -18 -4.5 -33t-1.5 -33q0 -57 28 -79t92 -22q44 0 94 11l57 328q-42 13 -82 13q-82 0 -123.5 -42.5t-55.5 -119.5zM50 268q18 97 71 152q35 36 84.5 54t110.5 18q71 0 166 -29l-87 -499q-6 -33 -20 -70.5t-35 -58.5q-28 -29 -68 -43t-88 -14h-6q-35 0 -69 5.5
t-66 16.5l13 67q29 -10 64 -15.5t66 -5.5h6q54 0 83 27t39 87l9 53q-53 -13 -102 -13q-91 0 -137 43.5t-46 121.5q0 31 6 69zM280 679q-2 -25 11 -38t34 -13h4q43 0 58 51h71q-6 -26 -17.5 -47.5t-28.5 -36.5q-18 -16 -40.5 -24t-51.5 -8q-51 0 -80.5 28.5t-29.5 76.5v11h70
z" />
    <glyph glyph-name="gdotaccent" unicode="&#x121;" horiz-adv-x="514" 
d="M127 237q-3 -18 -4.5 -33t-1.5 -33q0 -57 28 -79t92 -22q44 0 94 11l57 328q-42 13 -82 13q-82 0 -123.5 -42.5t-55.5 -119.5zM50 268q18 97 71 152q35 36 84.5 54t110.5 18q71 0 166 -29l-87 -499q-6 -33 -20 -70.5t-35 -58.5q-28 -29 -68 -43t-88 -14h-6q-35 0 -69 5.5
t-66 16.5l13 67q29 -10 64 -15.5t66 -5.5h6q54 0 83 27t39 87l9 53q-53 -13 -102 -13q-91 0 -137 43.5t-46 121.5q0 31 6 69zM337 693q23 0 34 -11t11 -31q0 -35 -17.5 -53t-48.5 -18q-23 0 -34 11t-11 31q0 35 17.5 53t48.5 18z" />
    <glyph glyph-name="gcommaaccent" unicode="&#x123;" horiz-adv-x="514" 
d="M127 237q-3 -18 -4.5 -33t-1.5 -33q0 -57 28 -79t92 -22q44 0 94 11l57 328q-42 13 -82 13q-82 0 -123.5 -42.5t-55.5 -119.5zM50 268q18 97 71 152q35 36 84.5 54t110.5 18q71 0 166 -29l-87 -499q-6 -33 -20 -70.5t-35 -58.5q-28 -29 -68 -43t-88 -14h-6q-35 0 -69 5.5
t-66 16.5l13 67q29 -10 64 -15.5t66 -5.5h6q54 0 83 27t39 87l9 53q-53 -13 -102 -13q-91 0 -137 43.5t-46 121.5q0 31 6 69zM269.011 575.995q16.999 41.998 41.4971 90.4951q24.499 48.4971 50.4971 89.4941l66.9961 -13.999q-18.999 -36.998 -35.998 -80.9951
t-27.998 -84.9951h-94.9941z" />
    <glyph glyph-name="hcircumflex" unicode="&#x125;" horiz-adv-x="521" 
d="M233 705l-44 -252q35 20 69 29.5t65 9.5q38 0 66.5 -11t47.5 -31q36 -36 36 -94q0 -11 -1 -23t-3 -25l-54 -308h-80l53 303q2 9 2.5 18.5t0.5 17.5q0 45 -22.5 64t-64.5 19q-30 0 -62.5 -9.5t-64.5 -30.5v2l-67 -384h-80l123 705h80zM249 877q11 -23 33 -59t47 -71h-92
q-4 5 -9 13.5t-10 17.5t-9.5 17t-7.5 14q-5 -6 -12.5 -14t-16 -17t-16.5 -17.5t-14 -13.5h-97q16 15 33.5 32.5t34.5 35t31.5 34t25.5 28.5h79z" />
    <glyph glyph-name="hbar" unicode="&#x127;" horiz-adv-x="522" 
d="M234 705l-15 -87h125l-23 -70h-115l-16 -95q35 20 69 29.5t65 9.5q38 0 66.5 -11t47.5 -31q36 -36 36 -94q0 -11 -1 -23t-3 -25l-54 -308h-80l53 303q2 9 2.5 18.5t0.5 17.5q0 45 -22.5 64t-64.5 19q-30 0 -62.5 -9.5t-64.5 -30.5v2l-67 -384h-80l95 548h-69l12 70h70
l15 87h80z" />
    <glyph glyph-name="dotlessi" unicode="&#x131;" horiz-adv-x="225" 
d="M192 482l-83 -482h-80l83 482h80z" />
    <glyph glyph-name="igrave" unicode="&#xec;" horiz-adv-x="225" 
d="M192 482l-83 -482h-80l83 482h80zM131 717q11 -26 31 -69t46 -88h-72q-12 15 -26 35t-28 41.5t-26.5 42.5t-22.5 38h98z" />
    <glyph glyph-name="iacute" unicode="&#xed;" horiz-adv-x="225" 
d="M192 482l-83 -482h-80l83 482h80zM343 717q-16 -17 -36 -38t-41.5 -42.5t-42.5 -41.5t-39 -35h-88q42 45 77.5 88t55.5 69h114z" />
    <glyph glyph-name="icircumflex" unicode="&#xee;" horiz-adv-x="225" 
d="M192 482l-83 -482h-80l83 482h80zM232 699q11 -23 33 -59t47 -71h-92q-4 5 -9 13.5t-10 17.5t-9.5 17t-7.5 14q-5 -6 -12.5 -14t-16 -17t-16.5 -17.5t-14 -13.5h-97q16 15 33.5 32.5t34.5 35t31.5 34t25.5 28.5h79z" />
    <glyph glyph-name="itilde" unicode="&#x129;" horiz-adv-x="225" 
d="M192 482l-83 -482h-80l83 482h80zM18 594q17 43 42 68q14 14 31.5 22.5t38.5 8.5q28 0 63 -24l22 -15q17 -11 28 -11q13 0 23.5 11.5t22.5 35.5l53 -19q-17 -46 -42 -72.5t-60 -26.5q-31 0 -69 26l-18 12q-20 13 -31 13t-22.5 -11t-25.5 -36z" />
    <glyph glyph-name="idieresis" unicode="&#xef;" horiz-adv-x="225" 
d="M192 482l-83 -482h-80l83 482h80zM116 690q43 0 43 -40q0 -33 -16.5 -50t-45.5 -17q-43 0 -43 40q0 33 16.5 50t45.5 17zM266 690q43 0 43 -40q0 -33 -16.5 -50t-45.5 -17q-43 0 -43 40q0 33 16.5 50t45.5 17z" />
    <glyph glyph-name="imacron" unicode="&#x12b;" horiz-adv-x="225" 
d="M192 482l-83 -482h-80l83 482h80zM320 658l-12 -68h-269l12 68h269z" />
    <glyph glyph-name="ibreve" unicode="&#x12d;" horiz-adv-x="225" 
d="M192 482l-83 -482h-80l83 482h80zM135 679q-2 -25 11 -38t34 -13h4q43 0 58 51h71q-6 -26 -17.5 -47.5t-28.5 -36.5q-18 -16 -40.5 -24t-51.5 -8q-51 0 -80.5 28.5t-29.5 76.5v11h70z" />
    <glyph glyph-name="iogonek" unicode="&#x12f;" horiz-adv-x="225" 
d="M138 653q16 18 47 18q21 0 34 -11q11 -11 11 -30q0 -14 -4.5 -29.5t-13.5 -24.5q-17 -18 -47 -18q-21 0 -34 11q-11 11 -11 30q0 14 4.5 29.5t13.5 24.5zM192 482l-83 -482q-42 -22 -61 -44t-19 -42q0 -27 31 -27q12 0 25 3t33 10l7 -56q-23 -11 -44.5 -15.5t-39.5 -4.5
q-43 0 -64 21q-20 20 -20 53q0 29 17.5 57.5t55.5 51.5l82 475h80z" />
    <glyph glyph-name="ij" unicode="&#x133;" horiz-adv-x="441" 
d="M192 482l-83 -482h-80l83 482h80zM165 558q-21 0 -34 11q-11 11 -11 30q0 14 4.5 29.5t13.5 24.5q16 18 47 18q21 0 34 -11q11 -11 11 -30q0 -14 -4.5 -29.5t-13.5 -24.5q-17 -18 -47 -18zM361 653q16 18 47 18q21 0 34 -11q11 -11 11 -30q0 -14 -4.5 -29.5t-13.5 -24.5
q-17 -18 -47 -18q-21 0 -34 11q-11 11 -11 30q0 14 4.5 29.5t13.5 24.5zM415 482l-92 -532q-8 -46 -20.5 -78.5t-31.5 -53.5q-37 -40 -106 -40q-12 0 -26 1.5t-34 5.5l13 66q12 -2 23.5 -3t20.5 -1q38 0 54.5 22t25.5 76l93 537h80z" />
    <glyph glyph-name="jcircumflex" unicode="&#x135;" horiz-adv-x="216" 
d="M190 482l-92 -532q-8 -46 -20.5 -78.5t-31.5 -53.5q-37 -40 -106 -40q-12 0 -26 1.5t-34 5.5l13 66q12 -2 23.5 -3t20.5 -1q38 0 54.5 22t25.5 76l93 537h80zM229 699q11 -23 33 -59t47 -71h-92q-4 5 -9 13.5t-10 17.5t-9.5 17t-7.5 14q-5 -6 -12.5 -14t-16 -17
t-16.5 -17.5t-14 -13.5h-97q16 15 33.5 32.5t34.5 35t31.5 34t25.5 28.5h79z" />
    <glyph glyph-name="kcommaaccent" unicode="&#x137;" horiz-adv-x="458" 
d="M233 705l-75 -432q71 51 132 106.5t99 102.5h89q-18 -22 -42 -48t-51 -53t-56.5 -54t-59.5 -50q42 -69 79 -143.5t60 -133.5h-84q-14 35 -27 64.5t-26 57t-27 54t-30 56.5q-18 -14 -36.5 -27t-36.5 -25l-31 -180h-80l123 705h80zM222 -74q-17 -42 -41.5 -90.5
t-50.5 -89.5l-67 14q19 37 36 81t28 85h95z" />
    <glyph glyph-name="kgreenlandic" unicode="&#x138;" horiz-adv-x="458" 
d="M194 482l-36 -209q71 51 132 106.5t99 102.5h89q-18 -22 -42 -48t-51 -53t-56.5 -54t-59.5 -50q42 -69 79 -143.5t60 -133.5h-84q-14 35 -27 64.5t-26 57t-27 54t-30 56.5q-18 -14 -36.5 -27t-36.5 -25l-31 -180h-80l84 482h80z" />
    <glyph glyph-name="lacute" unicode="&#x13a;" horiz-adv-x="269" 
d="M230 705l-100 -571q-2 -11 -3 -20t-1 -16q0 -33 34 -33q16 0 48 9l-2 -68q-20 -6 -38 -8.5t-32 -2.5q-46 0 -70 24q-21 21 -21 62q0 10 1.5 23.5t3.5 28.5l100 572h80zM370 920q-16 -17 -36 -38t-41.5 -42.5t-42.5 -41.5t-39 -35h-88q42 45 77.5 88t55.5 69h114z" />
    <glyph glyph-name="lcaron" unicode="&#x13e;" horiz-adv-x="269" 
d="M230 705l-100 -571q-2 -11 -3 -20t-1 -16q0 -33 34 -33q16 0 48 9l-2 -68q-20 -6 -38 -8.5t-32 -2.5q-46 0 -70 24q-21 21 -21 62q0 10 1.5 23.5t3.5 28.5l100 572h80zM401 705q-17 -42 -41.5 -90.5t-50.5 -89.5l-67 14q19 37 36 81t28 85h95z" />
    <glyph glyph-name="lcommaaccent" unicode="&#x13c;" horiz-adv-x="269" 
d="M230 705l-100 -571q-2 -11 -3 -20t-1 -16q0 -33 34 -33q16 0 48 9l-2 -68q-20 -6 -38 -8.5t-32 -2.5q-46 0 -70 24q-21 21 -21 62q0 10 1.5 23.5t3.5 28.5l100 572h80zM164 -74q-17 -42 -41.5 -90.5t-50.5 -89.5l-67 14q19 37 36 81t28 85h95z" />
    <glyph glyph-name="lslash" unicode="&#x142;" horiz-adv-x="269" 
d="M230 705l-46 -258l79 37l23 -61l-115 -55l-41 -234q-2 -11 -3 -20t-1 -16q0 -33 34 -33q16 0 48 9l-2 -68q-20 -6 -38 -8.5t-32 -2.5q-46 0 -70 24q-21 21 -21 62q0 10 1.5 23.5t3.5 28.5l34 194l-72 -34l-23 61l108 51l53 300h80z" />
    <glyph glyph-name="longs" unicode="&#x17f;" horiz-adv-x="344" 
d="M136 482l14 74q7 39 22 68t37 49q25 21 57.5 31.5t70.5 10.5q49 0 102 -18l-27 -67q-41 15 -78 15q-44 0 -70.5 -21.5t-34.5 -72.5l-96 -551h-80l72 415h-85l10 57z" />
    <glyph glyph-name="ldot" unicode="&#x140;" horiz-adv-x="269" 
d="M230 705l-100 -571q-2 -11 -3 -20t-1 -16q0 -33 34 -33q16 0 48 9l-2 -68q-20 -6 -38 -8.5t-32 -2.5q-46 0 -70 24q-21 21 -21 62q0 10 1.5 23.5t3.5 28.5l100 572h80zM273 406q23 0 34 -11t11 -31q0 -35 -17.5 -53t-48.5 -18q-23 0 -34 11t-11 31q0 35 17.5 53t48.5 18z
" />
    <glyph glyph-name="nacute" unicode="&#x144;" horiz-adv-x="521" 
d="M169 488l9 -41q38 23 75 34t70 11q38 0 66.5 -11t47.5 -31q36 -36 36 -94q0 -11 -1 -23t-3 -25l-54 -308h-80l53 303q2 9 2.5 18.5t0.5 17.5q0 45 -22.5 64t-64.5 19q-30 0 -62.5 -9.5t-64.5 -30.5l-67 -382h-80l62 357q6 31 10 64.5t5 58.5zM473 717q-16 -17 -36 -38
t-41.5 -42.5t-42.5 -41.5t-39 -35h-88q42 45 77.5 88t55.5 69h114z" />
    <glyph glyph-name="ncaron" unicode="&#x148;" horiz-adv-x="521" 
d="M169 488l9 -41q38 23 75 34t70 11q38 0 66.5 -11t47.5 -31q36 -36 36 -94q0 -11 -1 -23t-3 -25l-54 -308h-80l53 303q2 9 2.5 18.5t0.5 17.5q0 45 -22.5 64t-64.5 19q-30 0 -62.5 -9.5t-64.5 -30.5l-67 -382h-80l62 357q6 31 10 64.5t5 58.5zM267 680q8 -10 20 -29
t17 -30q5 6 12.5 14t15.5 16.5t15.5 16t13.5 12.5h98q-16 -14 -33 -31l-33.5 -33.5t-31.5 -32t-25 -27.5h-79q-11 22 -33.5 56.5t-47.5 67.5h91z" />
    <glyph glyph-name="ntilde" unicode="&#xf1;" horiz-adv-x="521" 
d="M169 488l9 -41q38 23 75 34t70 11q38 0 66.5 -11t47.5 -31q36 -36 36 -94q0 -11 -1 -23t-3 -25l-54 -308h-80l53 303q2 9 2.5 18.5t0.5 17.5q0 45 -22.5 64t-64.5 19q-30 0 -62.5 -9.5t-64.5 -30.5l-67 -382h-80l62 357q6 31 10 64.5t5 58.5zM147 594q17 43 42 68
q14 14 31.5 22.5t38.5 8.5q28 0 63 -24l22 -15q17 -11 28 -11q13 0 23.5 11.5t22.5 35.5l53 -19q-17 -46 -42 -72.5t-60 -26.5q-31 0 -69 26l-18 12q-20 13 -31 13t-22.5 -11t-25.5 -36z" />
    <glyph glyph-name="ncommaaccent" unicode="&#x146;" horiz-adv-x="521" 
d="M169 488l9 -41q38 23 75 34t70 11q38 0 66.5 -11t47.5 -31q36 -36 36 -94q0 -11 -1 -23t-3 -25l-54 -308h-80l53 303q2 9 2.5 18.5t0.5 17.5q0 45 -22.5 64t-64.5 19q-30 0 -62.5 -9.5t-64.5 -30.5l-67 -382h-80l62 357q6 31 10 64.5t5 58.5zM242 -74
q-17 -42 -41.5 -90.5t-50.5 -89.5l-67 14q19 37 36 81t28 85h95z" />
    <glyph glyph-name="napostrophe" unicode="&#x149;" horiz-adv-x="521" 
d="M169 488l9 -41q38 23 75 34t70 11q38 0 66.5 -11t47.5 -31q36 -36 36 -94q0 -11 -1 -23t-3 -25l-54 -308h-80l53 303q2 9 2.5 18.5t0.5 17.5q0 45 -22.5 64t-64.5 19q-30 0 -62.5 -9.5t-64.5 -30.5l-67 -382h-80l62 357q6 31 10 64.5t5 58.5zM176 692
q-17 -42 -41.5 -90.5t-50.5 -89.5l-67 14q19 37 36 81t28 85h95z" />
    <glyph glyph-name="eng" unicode="&#x14b;" horiz-adv-x="521" 
d="M169 488l9 -41q38 23 75 34t70 11q38 0 66.5 -11t47.5 -31q36 -36 36 -94q0 -11 -1 -23t-3 -25l-56 -319q-8 -46 -20 -79t-31 -54q-36 -40 -103 -40q-23 0 -58 7l13 62q11 -2 22 -3t19 -1q18 0 30.5 4.5t21 16t14 30t10.5 46.5l57 325q2 9 2.5 18.5t0.5 17.5
q0 45 -22.5 64t-64.5 19q-30 0 -62.5 -9.5t-64.5 -30.5l-67 -382h-80l62 357q6 31 10 64.5t5 58.5z" />
    <glyph glyph-name="ograve" unicode="&#xf2;" horiz-adv-x="512" 
d="M125 221q-3 -17 -3.5 -29t-0.5 -26q0 -54 28.5 -80t74.5 -26q67 0 105.5 44.5t51.5 120.5l6 36q3 17 3.5 29t0.5 26q0 54 -28.5 80t-74.5 26q-67 0 -105.5 -44.5t-51.5 -120.5zM49 259q8 52 27 94t49 73q33 34 78 50t90 16q38 0 73.5 -11.5t58.5 -33.5t36 -52.5t13 -72.5
q0 -14 -1 -30t-4 -33l-6 -36q-8 -52 -27 -94t-49 -73q-33 -34 -78 -50t-90 -16q-38 0 -73.5 11.5t-58.5 33.5t-36 52.5t-13 72.5q0 14 1 30t4 33zM256 717q11 -26 31 -69t46 -88h-72q-12 15 -26 35t-28 41.5t-26.5 42.5t-22.5 38h98z" />
    <glyph glyph-name="oacute" unicode="&#xf3;" horiz-adv-x="512" 
d="M125 221q-3 -17 -3.5 -29t-0.5 -26q0 -54 28.5 -80t74.5 -26q67 0 105.5 44.5t51.5 120.5l6 36q3 17 3.5 29t0.5 26q0 54 -28.5 80t-74.5 26q-67 0 -105.5 -44.5t-51.5 -120.5zM49 259q8 52 27 94t49 73q33 34 78 50t90 16q38 0 73.5 -11.5t58.5 -33.5t36 -52.5t13 -72.5
q0 -14 -1 -30t-4 -33l-6 -36q-8 -52 -27 -94t-49 -73q-33 -34 -78 -50t-90 -16q-38 0 -73.5 11.5t-58.5 33.5t-36 52.5t-13 72.5q0 14 1 30t4 33zM469 717q-16 -17 -36 -38t-41.5 -42.5t-42.5 -41.5t-39 -35h-88q42 45 77.5 88t55.5 69h114z" />
    <glyph glyph-name="ocircumflex" unicode="&#xf4;" horiz-adv-x="512" 
d="M125 221q-3 -17 -3.5 -29t-0.5 -26q0 -54 28.5 -80t74.5 -26q67 0 105.5 44.5t51.5 120.5l6 36q3 17 3.5 29t0.5 26q0 54 -28.5 80t-74.5 26q-67 0 -105.5 -44.5t-51.5 -120.5zM49 259q8 52 27 94t49 73q33 34 78 50t90 16q38 0 73.5 -11.5t58.5 -33.5t36 -52.5t13 -72.5
q0 -14 -1 -30t-4 -33l-6 -36q-8 -52 -27 -94t-49 -73q-33 -34 -78 -50t-90 -16q-38 0 -73.5 11.5t-58.5 33.5t-36 52.5t-13 72.5q0 14 1 30t4 33zM356 699q11 -23 33 -59t47 -71h-92q-4 5 -9 13.5t-10 17.5t-9.5 17t-7.5 14q-5 -6 -12.5 -14t-16 -17t-16.5 -17.5t-14 -13.5
h-97q16 15 33.5 32.5t34.5 35t31.5 34t25.5 28.5h79z" />
    <glyph glyph-name="otilde" unicode="&#xf5;" horiz-adv-x="512" 
d="M125 221q-3 -17 -3.5 -29t-0.5 -26q0 -54 28.5 -80t74.5 -26q67 0 105.5 44.5t51.5 120.5l6 36q3 17 3.5 29t0.5 26q0 54 -28.5 80t-74.5 26q-67 0 -105.5 -44.5t-51.5 -120.5zM49 259q8 52 27 94t49 73q33 34 78 50t90 16q38 0 73.5 -11.5t58.5 -33.5t36 -52.5t13 -72.5
q0 -14 -1 -30t-4 -33l-6 -36q-8 -52 -27 -94t-49 -73q-33 -34 -78 -50t-90 -16q-38 0 -73.5 11.5t-58.5 33.5t-36 52.5t-13 72.5q0 14 1 30t4 33zM143 594q17 43 42 68q14 14 31.5 22.5t38.5 8.5q28 0 63 -24l22 -15q17 -11 28 -11q13 0 23.5 11.5t22.5 35.5l53 -19
q-17 -46 -42 -72.5t-60 -26.5q-31 0 -69 26l-18 12q-20 13 -31 13t-22.5 -11t-25.5 -36z" />
    <glyph glyph-name="odieresis" unicode="&#xf6;" horiz-adv-x="512" 
d="M125 221q-3 -17 -3.5 -29t-0.5 -26q0 -54 28.5 -80t74.5 -26q67 0 105.5 44.5t51.5 120.5l6 36q3 17 3.5 29t0.5 26q0 54 -28.5 80t-74.5 26q-67 0 -105.5 -44.5t-51.5 -120.5zM49 259q8 52 27 94t49 73q33 34 78 50t90 16q38 0 73.5 -11.5t58.5 -33.5t36 -52.5t13 -72.5
q0 -14 -1 -30t-4 -33l-6 -36q-8 -52 -27 -94t-49 -73q-33 -34 -78 -50t-90 -16q-38 0 -73.5 11.5t-58.5 33.5t-36 52.5t-13 72.5q0 14 1 30t4 33zM240 690q43 0 43 -40q0 -33 -16.5 -50t-45.5 -17q-43 0 -43 40q0 33 16.5 50t45.5 17zM390 690q43 0 43 -40q0 -33 -16.5 -50
t-45.5 -17q-43 0 -43 40q0 33 16.5 50t45.5 17z" />
    <glyph glyph-name="omacron" unicode="&#x14d;" horiz-adv-x="512" 
d="M125 221q-3 -17 -3.5 -29t-0.5 -26q0 -54 28.5 -80t74.5 -26q67 0 105.5 44.5t51.5 120.5l6 36q3 17 3.5 29t0.5 26q0 54 -28.5 80t-74.5 26q-67 0 -105.5 -44.5t-51.5 -120.5zM49 259q8 52 27 94t49 73q33 34 78 50t90 16q38 0 73.5 -11.5t58.5 -33.5t36 -52.5t13 -72.5
q0 -14 -1 -30t-4 -33l-6 -36q-8 -52 -27 -94t-49 -73q-33 -34 -78 -50t-90 -16q-38 0 -73.5 11.5t-58.5 33.5t-36 52.5t-13 72.5q0 14 1 30t4 33zM445 658l-12 -68h-269l12 68h269z" />
    <glyph glyph-name="obreve" unicode="&#x14f;" horiz-adv-x="512" 
d="M125 221q-3 -17 -3.5 -29t-0.5 -26q0 -54 28.5 -80t74.5 -26q67 0 105.5 44.5t51.5 120.5l6 36q3 17 3.5 29t0.5 26q0 54 -28.5 80t-74.5 26q-67 0 -105.5 -44.5t-51.5 -120.5zM49 259q8 52 27 94t49 73q33 34 78 50t90 16q38 0 73.5 -11.5t58.5 -33.5t36 -52.5t13 -72.5
q0 -14 -1 -30t-4 -33l-6 -36q-8 -52 -27 -94t-49 -73q-33 -34 -78 -50t-90 -16q-38 0 -73.5 11.5t-58.5 33.5t-36 52.5t-13 72.5q0 14 1 30t4 33zM259 679q-2 -25 11 -38t34 -13h4q43 0 58 51h71q-6 -26 -17.5 -47.5t-28.5 -36.5q-18 -16 -40.5 -24t-51.5 -8
q-51 0 -80.5 28.5t-29.5 76.5v11h70z" />
    <glyph glyph-name="ohungarumlaut" unicode="&#x151;" horiz-adv-x="512" 
d="M125 221q-3 -17 -3.5 -29t-0.5 -26q0 -54 28.5 -80t74.5 -26q67 0 105.5 44.5t51.5 120.5l6 36q3 17 3.5 29t0.5 26q0 54 -28.5 80t-74.5 26q-67 0 -105.5 -44.5t-51.5 -120.5zM49 259q8 52 27 94t49 73q33 34 78 50t90 16q38 0 73.5 -11.5t58.5 -33.5t36 -52.5t13 -72.5
q0 -14 -1 -30t-4 -33l-6 -36q-8 -52 -27 -94t-49 -73q-33 -34 -78 -50t-90 -16q-38 0 -73.5 11.5t-58.5 33.5t-36 52.5t-13 72.5q0 14 1 30t4 33zM364 689q-30 -38 -64 -77t-60 -66h-82q30 38 57.5 76t46.5 67h102zM515 689q-30 -38 -64 -77t-60 -66h-82q30 38 57.5 76
t46.5 67h102z" />
    <glyph glyph-name="oslash" unicode="&#xf8;" horiz-adv-x="512" 
d="M49 259q8 52 27 94t49 73q33 34 78 50t90 16q32 0 61.5 -8t52.5 -23l49 57l48 -40l-54 -62q24 -38 24 -94q0 -14 -1 -30t-4 -33l-6 -36q-8 -52 -27 -94t-49 -73q-33 -34 -78 -50t-90 -16q-32 0 -61.5 7.5t-52.5 22.5l-48 -55l-48 40l53 60q-24 39 -24 95q0 14 1 30t4 33z
M125 221q-3 -17 -3.5 -29t-0.5 -26v-15.5t2 -14.5l232 266q-28 20 -67 20q-67 0 -105.5 -44.5t-51.5 -120.5zM157 80q26 -20 67 -20q67 0 105.5 44.5t51.5 120.5l6 36q3 17 3.5 29t0.5 26q0 15 -3 29z" />
    <glyph glyph-name="oslashacute" unicode="&#x1ff;" horiz-adv-x="512" 
d="M49 259q8 52 27 94t49 73q33 34 78 50t90 16q32 0 61.5 -8t52.5 -23l49 57l48 -40l-54 -62q24 -38 24 -94q0 -14 -1 -30t-4 -33l-6 -36q-8 -52 -27 -94t-49 -73q-33 -34 -78 -50t-90 -16q-32 0 -61.5 7.5t-52.5 22.5l-48 -55l-48 40l53 60q-24 39 -24 95q0 14 1 30t4 33z
M125 221q-3 -17 -3.5 -29t-0.5 -26v-15.5t2 -14.5l232 266q-28 20 -67 20q-67 0 -105.5 -44.5t-51.5 -120.5zM157 80q26 -20 67 -20q67 0 105.5 44.5t51.5 120.5l6 36q3 17 3.5 29t0.5 26q0 15 -3 29zM469 717q-16 -17 -36 -38t-41.5 -42.5t-42.5 -41.5t-39 -35h-88
q42 45 77.5 88t55.5 69h114z" />
    <glyph glyph-name="oe" unicode="&#x153;" horiz-adv-x="825" 
d="M49 259q8 52 27 94t49 73q33 34 78 50t90 16q38 0 73.5 -11.5t58.5 -33.5q16 -16 26 -33q33 41 79 59.5t103 18.5h6q72 0 114 -36.5t42 -102.5q0 -16 -1.5 -34.5t-5.5 -39.5l-10 -56h-315q0 -2 -0.5 -2.5t-0.5 -1.5q-1 -12 -1.5 -23.5t-0.5 -19.5q0 -57 30 -85.5
t94 -28.5h3q29 0 65 6.5t74 20.5l10 -64q-40 -17 -81.5 -26t-79.5 -9h-4q-98 0 -148 52q-14 14 -22 29l-14 -15q-33 -34 -78 -50t-90 -16q-38 0 -73.5 11.5t-58.5 33.5t-36 52.5t-13 72.5q0 14 1 30t4 33zM125 221q-3 -17 -3.5 -29t-0.5 -26q0 -54 28.5 -80t74.5 -26
q67 0 105.5 44.5t51.5 120.5l6 36q3 17 3.5 29t0.5 26q0 54 -28.5 80t-74.5 26q-67 0 -105.5 -44.5t-51.5 -120.5zM710 290l2 15q3 22 3 40q0 33 -22 56.5t-72 23.5q-27 0 -51.5 -9t-44.5 -30q-15 -16 -27 -39.5t-20 -56.5h232z" />
    <glyph glyph-name="thorn" unicode="&#xfe;" horiz-adv-x="515" 
d="M233 705l-44 -252q67 39 133 39q69 0 112 -46t43 -133q0 -10 -1.5 -25t-3.5 -29l-5 -30q-20 -119 -83 -179q-65 -60 -169 -60q-25 0 -51.5 3t-53.5 10l-37 -217h-80l160 919h80zM122 71q23 -6 43 -8.5t38 -2.5q42 0 72.5 9.5t52.5 30t35.5 53t21.5 78.5l4 24
q2 14 3.5 28.5t1.5 25.5q0 62 -26.5 87.5t-69.5 25.5q-54 0 -121 -41z" />
    <glyph glyph-name="racute" unicode="&#x155;" horiz-adv-x="328" 
d="M169 488l9 -44q35 26 70 37t69 11q23 0 43 -4l-13 -72q-25 5 -43 5q-32 0 -64.5 -11t-63.5 -31l-66 -379h-80l62 357q6 31 10 64.5t5 58.5zM357 717q-16 -17 -36 -38t-41.5 -42.5t-42.5 -41.5t-39 -35h-88q42 45 77.5 88t55.5 69h114z" />
    <glyph glyph-name="rcaron" unicode="&#x159;" horiz-adv-x="328" 
d="M169 488l9 -44q35 26 70 37t69 11q23 0 43 -4l-13 -72q-25 5 -43 5q-32 0 -64.5 -11t-63.5 -31l-66 -379h-80l62 357q6 31 10 64.5t5 58.5zM192 680q8 -10 20 -29t17 -30q5 6 12.5 14t15.5 16.5t15.5 16t13.5 12.5h98q-16 -14 -33 -31l-33.5 -33.5t-31.5 -32t-25 -27.5
h-79q-11 22 -33.5 56.5t-47.5 67.5h91z" />
    <glyph glyph-name="rcommaaccent" unicode="&#x157;" horiz-adv-x="328" 
d="M169 488l9 -44q35 26 70 37t69 11q23 0 43 -4l-13 -72q-25 5 -43 5q-32 0 -64.5 -11t-63.5 -31l-66 -379h-80l62 357q6 31 10 64.5t5 58.5zM113 -74q-17 -42 -41.5 -90.5t-50.5 -89.5l-67 14q19 37 36 81t28 85h95z" />
    <glyph glyph-name="sacute" unicode="&#x15b;" horiz-adv-x="386" 
d="M253 492q28 0 59 -5t60 -14l-27 -69q-23 9 -49.5 13.5t-52.5 4.5h-2q-18 0 -36.5 -3t-33 -11.5t-24 -24t-9.5 -39.5q0 -23 16 -36.5t46 -24.5l25 -8q34 -11 56.5 -23t36 -27t19 -33.5t5.5 -43.5q0 -32 -10 -57t-28 -44q-24 -26 -66 -41.5t-94 -15.5h-4q-35 0 -71 7.5
t-73 24.5l26 68q69 -28 127 -28h4q51 0 80.5 22t29.5 58q0 24 -17 39t-54 27l-25 8q-65 22 -87.5 53t-22.5 69q0 69 49.5 111.5t140.5 42.5h6zM372 717q-16 -17 -36 -38t-41.5 -42.5t-42.5 -41.5t-39 -35h-88q42 45 77.5 88t55.5 69h114z" />
    <glyph glyph-name="scircumflex" unicode="&#x15d;" horiz-adv-x="386" 
d="M253 492q28 0 59 -5t60 -14l-27 -69q-23 9 -49.5 13.5t-52.5 4.5h-2q-18 0 -36.5 -3t-33 -11.5t-24 -24t-9.5 -39.5q0 -23 16 -36.5t46 -24.5l25 -8q34 -11 56.5 -23t36 -27t19 -33.5t5.5 -43.5q0 -32 -10 -57t-28 -44q-24 -26 -66 -41.5t-94 -15.5h-4q-35 0 -71 7.5
t-73 24.5l26 68q69 -28 127 -28h4q51 0 80.5 22t29.5 58q0 24 -17 39t-54 27l-25 8q-65 22 -87.5 53t-22.5 69q0 69 49.5 111.5t140.5 42.5h6zM291 699q11 -23 33 -59t47 -71h-92q-4 5 -9 13.5t-10 17.5t-9.5 17t-7.5 14q-5 -6 -12.5 -14t-16 -17t-16.5 -17.5t-14 -13.5h-97
q16 15 33.5 32.5t34.5 35t31.5 34t25.5 28.5h79z" />
    <glyph glyph-name="scaron" unicode="&#x161;" horiz-adv-x="386" 
d="M253 492q28 0 59 -5t60 -14l-27 -69q-23 9 -49.5 13.5t-52.5 4.5h-2q-18 0 -36.5 -3t-33 -11.5t-24 -24t-9.5 -39.5q0 -23 16 -36.5t46 -24.5l25 -8q34 -11 56.5 -23t36 -27t19 -33.5t5.5 -43.5q0 -32 -10 -57t-28 -44q-24 -26 -66 -41.5t-94 -15.5h-4q-35 0 -71 7.5
t-73 24.5l26 68q69 -28 127 -28h4q51 0 80.5 22t29.5 58q0 24 -17 39t-54 27l-25 8q-65 22 -87.5 53t-22.5 69q0 69 49.5 111.5t140.5 42.5h6zM197 680q8 -10 20 -29t17 -30q5 6 12.5 14t15.5 16.5t15.5 16t13.5 12.5h98q-16 -14 -33 -31l-33.5 -33.5t-31.5 -32t-25 -27.5
h-79q-11 22 -33.5 56.5t-47.5 67.5h91z" />
    <glyph glyph-name="scedilla" unicode="&#x15f;" horiz-adv-x="386" 
d="M253 492q28 0 59 -5t60 -14l-27 -69q-23 9 -49.5 13.5t-52.5 4.5h-2q-18 0 -36.5 -3t-33 -11.5t-24 -24t-9.5 -39.5q0 -23 16 -36.5t46 -24.5l25 -8q34 -11 56.5 -23t36 -27t19 -33.5t5.5 -43.5q0 -32 -10 -57t-28 -44q-23 -23 -60 -38.5t-83 -17.5l-18 -38q16 4 31 4
q17 0 33.5 -5.5t27.5 -19.5q16 -18 16 -49q0 -20 -7 -40.5t-23 -34.5q-15 -14 -37.5 -22.5t-54.5 -8.5q-27 0 -55.5 7t-56.5 21l28 57q25 -12 47 -17t39 -5q23 0 36 7.5t13 23.5q0 11 -8.5 17.5t-31.5 6.5q-11 0 -24.5 -1t-31.5 -5l-23 22l40 81q-53 6 -105 30l26 68
q69 -28 127 -28h4q51 0 80.5 22t29.5 58q0 24 -17 39t-54 27l-25 8q-65 22 -87.5 53t-22.5 69q0 69 49.5 111.5t140.5 42.5h6z" />
    <glyph glyph-name="scommaaccent" unicode="&#x219;" horiz-adv-x="386" 
d="M253 492q28 0 59 -5t60 -14l-27 -69q-23 9 -49.5 13.5t-52.5 4.5h-2q-18 0 -36.5 -3t-33 -11.5t-24 -24t-9.5 -39.5q0 -23 16 -36.5t46 -24.5l25 -8q34 -11 56.5 -23t36 -27t19 -33.5t5.5 -43.5q0 -32 -10 -57t-28 -44q-24 -26 -66 -41.5t-94 -15.5h-4q-35 0 -71 7.5
t-73 24.5l26 68q69 -28 127 -28h4q51 0 80.5 22t29.5 58q0 24 -17 39t-54 27l-25 8q-65 22 -87.5 53t-22.5 69q0 69 49.5 111.5t140.5 42.5h6zM180 -74q-17 -42 -41.5 -90.5t-50.5 -89.5l-67 14q19 37 36 81t28 85h95z" />
    <glyph glyph-name="germandbls" unicode="&#xdf;" horiz-adv-x="578" 
d="M95 -81h-80l95 544q10 60 29 102.5t48.5 69.5t70 40t93.5 13q86 0 136.5 -39t50.5 -113q0 -44 -21.5 -85.5t-66.5 -73.5q23 -10 40 -27q19 -20 29.5 -49t10.5 -64q0 -117 -62 -182t-169 -65q-77 0 -152 31l26 65q35 -14 65.5 -20t56.5 -6q74 0 112.5 46.5t38.5 124.5
q0 41 -19.5 64.5t-68.5 23.5h-98l6 71h105q43 26 63.5 66.5t20.5 77.5q0 38 -23.5 61t-76.5 23q-38 0 -67 -9.5t-49 -31.5q-36 -38 -50 -118z" />
    <glyph glyph-name="tcaron" unicode="&#x165;" horiz-adv-x="345" 
d="M240 624l-26 -142h133l-22 -67h-121l-48 -268q-2 -12 -3 -21.5t-1 -17.5q0 -24 12.5 -35t42.5 -11q21 0 42.5 5.5t37.5 11.5l6 -63q-61 -26 -113 -26q-53 0 -81 27q-28 26 -28 76q0 14 1 23t4 26l47 273h-85l10 57l86 10l34 142h72zM430 706q-17 -42 -41.5 -90.5
t-50.5 -89.5l-67 14q19 37 36 81t28 85h95z" />
    <glyph glyph-name="tcommaaccent" unicode="&#x163;" horiz-adv-x="345" 
d="M240 624l-26 -142h133l-22 -67h-121l-48 -268q-2 -12 -3 -21.5t-1 -17.5q0 -24 12.5 -35t42.5 -11q21 0 42.5 5.5t37.5 11.5l6 -63q-61 -26 -113 -26q-53 0 -81 27q-28 26 -28 76q0 14 1 23t4 26l47 273h-85l10 57l86 10l34 142h72zM205 -74q-17 -42 -41.5 -90.5
t-50.5 -89.5l-67 14q19 37 36 81t28 85h95z" />
    <glyph glyph-name="uni021B" unicode="&#x21b;" horiz-adv-x="345" 
d="M240 624l-26 -142h133l-22 -67h-121l-48 -268q-2 -12 -3 -21.5t-1 -17.5q0 -24 12.5 -35t42.5 -11q21 0 42.5 5.5t37.5 11.5l6 -63q-61 -26 -113 -26q-53 0 -81 27q-28 26 -28 76q0 14 1 23t4 26l47 273h-85l10 57l86 10l34 142h72zM205 -74q-17 -42 -41.5 -90.5
t-50.5 -89.5l-67 14q19 37 36 81t28 85h95z" />
    <glyph glyph-name="tbar" unicode="&#x167;" horiz-adv-x="345" 
d="M240 624l-26 -142h133l-22 -67h-121l-22 -123h123l-22 -67h-113l-14 -78q-2 -12 -3 -21.5t-1 -17.5q0 -24 12.5 -35t42.5 -11q21 0 42.5 5.5t37.5 11.5l6 -63q-61 -26 -113 -26q-53 0 -81 27q-28 26 -28 76q0 14 1 23t4 26l14 83h-81l12 67h81l21 123h-85l10 57l86 10
l34 142h72z" />
    <glyph glyph-name="ugrave" unicode="&#xf9;" horiz-adv-x="519" 
d="M186 482l-53 -303q-2 -9 -2.5 -18.5t-0.5 -17.5q0 -45 22 -64t64 -19q30 0 62 9.5t64 30.5l67 382h80l-62 -357q-6 -31 -10 -64.5t-5 -58.5l-62 -8l-9 41q-38 -23 -74.5 -34t-69.5 -11q-38 0 -66 11t-47 31q-36 36 -36 94q0 11 1 23t3 25l54 308h80zM260 717
q11 -26 31 -69t46 -88h-72q-12 15 -26 35t-28 41.5t-26.5 42.5t-22.5 38h98z" />
    <glyph glyph-name="uacute" unicode="&#xfa;" horiz-adv-x="519" 
d="M186 482l-53 -303q-2 -9 -2.5 -18.5t-0.5 -17.5q0 -45 22 -64t64 -19q30 0 62 9.5t64 30.5l67 382h80l-62 -357q-6 -31 -10 -64.5t-5 -58.5l-62 -8l-9 41q-38 -23 -74.5 -34t-69.5 -11q-38 0 -66 11t-47 31q-36 36 -36 94q0 11 1 23t3 25l54 308h80zM463 717
q-16 -17 -36 -38t-41.5 -42.5t-42.5 -41.5t-39 -35h-88q42 45 77.5 88t55.5 69h114z" />
    <glyph glyph-name="ucircumflex" unicode="&#xfb;" horiz-adv-x="519" 
d="M186 482l-53 -303q-2 -9 -2.5 -18.5t-0.5 -17.5q0 -45 22 -64t64 -19q30 0 62 9.5t64 30.5l67 382h80l-62 -357q-6 -31 -10 -64.5t-5 -58.5l-62 -8l-9 41q-38 -23 -74.5 -34t-69.5 -11q-38 0 -66 11t-47 31q-36 36 -36 94q0 11 1 23t3 25l54 308h80zM361 699
q11 -23 33 -59t47 -71h-92q-4 5 -9 13.5t-10 17.5t-9.5 17t-7.5 14q-5 -6 -12.5 -14t-16 -17t-16.5 -17.5t-14 -13.5h-97q16 15 33.5 32.5t34.5 35t31.5 34t25.5 28.5h79z" />
    <glyph glyph-name="utilde" unicode="&#x169;" horiz-adv-x="519" 
d="M186 482l-53 -303q-2 -9 -2.5 -18.5t-0.5 -17.5q0 -45 22 -64t64 -19q30 0 62 9.5t64 30.5l67 382h80l-62 -357q-6 -31 -10 -64.5t-5 -58.5l-62 -8l-9 41q-38 -23 -74.5 -34t-69.5 -11q-38 0 -66 11t-47 31q-36 36 -36 94q0 11 1 23t3 25l54 308h80zM147 594q17 43 42 68
q14 14 31.5 22.5t38.5 8.5q28 0 63 -24l22 -15q17 -11 28 -11q13 0 23.5 11.5t22.5 35.5l53 -19q-17 -46 -42 -72.5t-60 -26.5q-31 0 -69 26l-18 12q-20 13 -31 13t-22.5 -11t-25.5 -36z" />
    <glyph glyph-name="udieresis" unicode="&#xfc;" horiz-adv-x="519" 
d="M186 482l-53 -303q-2 -9 -2.5 -18.5t-0.5 -17.5q0 -45 22 -64t64 -19q30 0 62 9.5t64 30.5l67 382h80l-62 -357q-6 -31 -10 -64.5t-5 -58.5l-62 -8l-9 41q-38 -23 -74.5 -34t-69.5 -11q-38 0 -66 11t-47 31q-36 36 -36 94q0 11 1 23t3 25l54 308h80zM245 690q43 0 43 -40
q0 -33 -16.5 -50t-45.5 -17q-43 0 -43 40q0 33 16.5 50t45.5 17zM395 690q43 0 43 -40q0 -33 -16.5 -50t-45.5 -17q-43 0 -43 40q0 33 16.5 50t45.5 17z" />
    <glyph glyph-name="umacron" unicode="&#x16b;" horiz-adv-x="519" 
d="M186 482l-53 -303q-2 -9 -2.5 -18.5t-0.5 -17.5q0 -45 22 -64t64 -19q30 0 62 9.5t64 30.5l67 382h80l-62 -357q-6 -31 -10 -64.5t-5 -58.5l-62 -8l-9 41q-38 -23 -74.5 -34t-69.5 -11q-38 0 -66 11t-47 31q-36 36 -36 94q0 11 1 23t3 25l54 308h80zM449 658l-12 -68
h-269l12 68h269z" />
    <glyph glyph-name="ubreve" unicode="&#x16d;" horiz-adv-x="519" 
d="M186 482l-53 -303q-2 -9 -2.5 -18.5t-0.5 -17.5q0 -45 22 -64t64 -19q30 0 62 9.5t64 30.5l67 382h80l-62 -357q-6 -31 -10 -64.5t-5 -58.5l-62 -8l-9 41q-38 -23 -74.5 -34t-69.5 -11q-38 0 -66 11t-47 31q-36 36 -36 94q0 11 1 23t3 25l54 308h80zM264 679
q-2 -25 11 -38t34 -13h4q43 0 58 51h71q-6 -26 -17.5 -47.5t-28.5 -36.5q-18 -16 -40.5 -24t-51.5 -8q-51 0 -80.5 28.5t-29.5 76.5v11h70z" />
    <glyph glyph-name="uring" unicode="&#x16f;" horiz-adv-x="519" 
d="M186 482l-53 -303q-2 -9 -2.5 -18.5t-0.5 -17.5q0 -45 22 -64t64 -19q30 0 62 9.5t64 30.5l67 382h80l-62 -357q-6 -31 -10 -64.5t-5 -58.5l-62 -8l-9 41q-38 -23 -74.5 -34t-69.5 -11q-38 0 -66 11t-47 31q-36 36 -36 94q0 11 1 23t3 25l54 308h80zM280 621
q0 -23 25 -23q16 0 24.5 9.5t8.5 23.5q0 23 -25 23q-16 0 -24.5 -9.5t-8.5 -23.5zM322 712q34 0 54 -20.5t20 -54.5q0 -17 -6 -34.5t-20 -31.5q-15 -16 -34.5 -23.5t-39.5 -7.5q-34 0 -54 20.5t-20 54.5q0 17 6 34.5t20 31.5q15 16 34.5 23.5t39.5 7.5z" />
    <glyph glyph-name="uhungarumlaut" unicode="&#x171;" horiz-adv-x="519" 
d="M186 482l-53 -303q-2 -9 -2.5 -18.5t-0.5 -17.5q0 -45 22 -64t64 -19q30 0 62 9.5t64 30.5l67 382h80l-62 -357q-6 -31 -10 -64.5t-5 -58.5l-62 -8l-9 41q-38 -23 -74.5 -34t-69.5 -11q-38 0 -66 11t-47 31q-36 36 -36 94q0 11 1 23t3 25l54 308h80zM349 689
q-30 -38 -64 -77t-60 -66h-82q30 38 57.5 76t46.5 67h102zM500 689q-30 -38 -64 -77t-60 -66h-82q30 38 57.5 76t46.5 67h102z" />
    <glyph glyph-name="uogonek" unicode="&#x173;" horiz-adv-x="519" 
d="M186 482l-53 -303q-2 -9 -2.5 -18.5t-0.5 -17.5q0 -45 22 -64t64 -19q30 0 62 9.5t64 30.5l67 382h80l-62 -357q-6 -31 -10 -64t-5 -59q-57 -26 -77.5 -48t-20.5 -40q0 -27 31 -27q12 0 25 3t33 10l7 -56q-23 -11 -44.5 -15.5t-39.5 -4.5q-43 0 -64 21q-20 20 -20 53
q0 31 24 60.5t79 55.5l-4 21q-38 -23 -74.5 -34t-69.5 -11q-38 0 -66 11t-47 31q-36 36 -36 94q0 11 1 23t3 25l54 308h80z" />
    <glyph glyph-name="wgrave" unicode="&#x1e81;" horiz-adv-x="710" 
d="M131 482q13 -132 24 -225t24 -165q27 56 51.5 109.5t46 100.5t38.5 86t29 68l5 13h81l1 -13q1 -26 4.5 -65t9 -87t12 -102.5t14.5 -111.5q31 59 79 155.5t110 236.5h80q-60 -133 -118.5 -250t-123.5 -232h-84q-15 90 -25.5 179.5t-18.5 171.5q-36 -84 -77 -173t-85 -178
h-83q-27 115 -45 232t-30 250h81zM345 717q11 -26 31 -69t46 -88h-72q-12 15 -26 35t-28 41.5t-26.5 42.5t-22.5 38h98z" />
    <glyph glyph-name="wacute" unicode="&#x1e83;" horiz-adv-x="710" 
d="M131 482q13 -132 24 -225t24 -165q27 56 51.5 109.5t46 100.5t38.5 86t29 68l5 13h81l1 -13q1 -26 4.5 -65t9 -87t12 -102.5t14.5 -111.5q31 59 79 155.5t110 236.5h80q-60 -133 -118.5 -250t-123.5 -232h-84q-15 90 -25.5 179.5t-18.5 171.5q-36 -84 -77 -173t-85 -178
h-83q-27 115 -45 232t-30 250h81zM561 717q-16 -17 -36 -38t-41.5 -42.5t-42.5 -41.5t-39 -35h-88q42 45 77.5 88t55.5 69h114z" />
    <glyph glyph-name="wcircumflex" unicode="&#x175;" horiz-adv-x="710" 
d="M131 482q13 -132 24 -225t24 -165q27 56 51.5 109.5t46 100.5t38.5 86t29 68l5 13h81l1 -13q1 -26 4.5 -65t9 -87t12 -102.5t14.5 -111.5q31 59 79 155.5t110 236.5h80q-60 -133 -118.5 -250t-123.5 -232h-84q-15 90 -25.5 179.5t-18.5 171.5q-36 -84 -77 -173t-85 -178
h-83q-27 115 -45 232t-30 250h81zM451 699q11 -23 33 -59t47 -71h-92q-4 5 -9 13.5t-10 17.5t-9.5 17t-7.5 14q-5 -6 -12.5 -14t-16 -17t-16.5 -17.5t-14 -13.5h-97q16 15 33.5 32.5t34.5 35t31.5 34t25.5 28.5h79z" />
    <glyph glyph-name="wdieresis" unicode="&#x1e85;" horiz-adv-x="710" 
d="M131 482q13 -132 24 -225t24 -165q27 56 51.5 109.5t46 100.5t38.5 86t29 68l5 13h81l1 -13q1 -26 4.5 -65t9 -87t12 -102.5t14.5 -111.5q31 59 79 155.5t110 236.5h80q-60 -133 -118.5 -250t-123.5 -232h-84q-15 90 -25.5 179.5t-18.5 171.5q-36 -84 -77 -173t-85 -178
h-83q-27 115 -45 232t-30 250h81zM335 690q43 0 43 -40q0 -33 -16.5 -50t-45.5 -17q-43 0 -43 40q0 33 16.5 50t45.5 17zM485 690q43 0 43 -40q0 -33 -16.5 -50t-45.5 -17q-43 0 -43 40q0 33 16.5 50t45.5 17z" />
    <glyph glyph-name="ygrave" unicode="&#x1ef3;" horiz-adv-x="472" 
d="M142 482q5 -50 12 -106.5t14.5 -113t15.5 -109t16 -94.5q45 78 100.5 187t109.5 236h84q-30 -65 -59 -126.5t-61 -123.5t-68 -127.5t-79 -138.5q-31 -54 -54 -89t-46 -57q-44 -42 -107 -42q-13 0 -27.5 2t-28.5 7l19 67q14 -5 23.5 -6.5t18.5 -1.5q32 0 56.5 25.5
t56.5 80.5l11 19q-29 118 -51 244.5t-38 266.5h82zM235 717q11 -26 31 -69t46 -88h-72q-12 15 -26 35t-28 41.5t-26.5 42.5t-22.5 38h98z" />
    <glyph glyph-name="yacute" unicode="&#xfd;" horiz-adv-x="472" 
d="M142 482q5 -50 12 -106.5t14.5 -113t15.5 -109t16 -94.5q45 78 100.5 187t109.5 236h84q-30 -65 -59 -126.5t-61 -123.5t-68 -127.5t-79 -138.5q-31 -54 -54 -89t-46 -57q-44 -42 -107 -42q-13 0 -27.5 2t-28.5 7l19 67q14 -5 23.5 -6.5t18.5 -1.5q32 0 56.5 25.5
t56.5 80.5l11 19q-29 118 -51 244.5t-38 266.5h82zM448 717q-16 -17 -36 -38t-41.5 -42.5t-42.5 -41.5t-39 -35h-88q42 45 77.5 88t55.5 69h114z" />
    <glyph glyph-name="ycircumflex" unicode="&#x177;" horiz-adv-x="472" 
d="M142 482q5 -50 12 -106.5t14.5 -113t15.5 -109t16 -94.5q45 78 100.5 187t109.5 236h84q-30 -65 -59 -126.5t-61 -123.5t-68 -127.5t-79 -138.5q-31 -54 -54 -89t-46 -57q-44 -42 -107 -42q-13 0 -27.5 2t-28.5 7l19 67q14 -5 23.5 -6.5t18.5 -1.5q32 0 56.5 25.5
t56.5 80.5l11 19q-29 118 -51 244.5t-38 266.5h82zM336 699q11 -23 33 -59t47 -71h-92q-4 5 -9 13.5t-10 17.5t-9.5 17t-7.5 14q-5 -6 -12.5 -14t-16 -17t-16.5 -17.5t-14 -13.5h-97q16 15 33.5 32.5t34.5 35t31.5 34t25.5 28.5h79z" />
    <glyph glyph-name="ydieresis" unicode="&#xff;" horiz-adv-x="472" 
d="M142 482q5 -50 12 -106.5t14.5 -113t15.5 -109t16 -94.5q45 78 100.5 187t109.5 236h84q-30 -65 -59 -126.5t-61 -123.5t-68 -127.5t-79 -138.5q-31 -54 -54 -89t-46 -57q-44 -42 -107 -42q-13 0 -27.5 2t-28.5 7l19 67q14 -5 23.5 -6.5t18.5 -1.5q32 0 56.5 25.5
t56.5 80.5l11 19q-29 118 -51 244.5t-38 266.5h82zM220 690q43 0 43 -40q0 -33 -16.5 -50t-45.5 -17q-43 0 -43 40q0 33 16.5 50t45.5 17zM370 690q43 0 43 -40q0 -33 -16.5 -50t-45.5 -17q-43 0 -43 40q0 33 16.5 50t45.5 17z" />
    <glyph glyph-name="zacute" unicode="&#x17a;" horiz-adv-x="442" 
d="M443 482l-2 -49l-327 -364h264l-20 -69h-367l9 54l321 359h-250l5 69h367zM424 717q-16 -17 -36 -38t-41.5 -42.5t-42.5 -41.5t-39 -35h-88q42 45 77.5 88t55.5 69h114z" />
    <glyph glyph-name="zcaron" unicode="&#x17e;" horiz-adv-x="442" 
d="M443 482l-2 -49l-327 -364h264l-20 -69h-367l9 54l321 359h-250l5 69h367zM238 680q8 -10 20 -29t17 -30q5 6 12.5 14t15.5 16.5t15.5 16t13.5 12.5h98q-16 -14 -33 -31l-33.5 -33.5t-31.5 -32t-25 -27.5h-79q-11 22 -33.5 56.5t-47.5 67.5h91z" />
    <glyph glyph-name="zdotaccent" unicode="&#x17c;" horiz-adv-x="442" 
d="M443 482l-2 -49l-327 -364h264l-20 -69h-367l9 54l321 359h-250l5 69h367zM281 693q23 0 34 -11t11 -31q0 -35 -17.5 -53t-48.5 -18q-23 0 -34 11t-11 31q0 35 17.5 53t48.5 18z" />
    <glyph glyph-name="apple" unicode="&#xf8ff;" horiz-adv-x="591" 
d="M491 528v-65h-196v-65h196v-196h-261v65h196v66h-196v195h261zM491 659v-65h-326v-529h73v-65h-138v659h391z" />
    <glyph glyph-name="zero.slash" 
d="M65 360q28 172 106 250t200 78q95 0 151 -62t56 -173q0 -22 -1.5 -45.5t-5.5 -47.5l-7 -42q-29 -172 -106.5 -250t-199.5 -78q-95 0 -151 62t-56 173q0 22 1.5 45.5t5.5 47.5zM169 111q33 -44 103 -44q86 0 136 65.5t70 190.5l5 31q4 24 5.5 46.5t1.5 42.5q0 24 -3 45z
M146 324q-4 -24 -5.5 -46.5t-1.5 -42.5v-24t2 -22l318 378q-33 44 -102 44q-86 0 -136 -65.5t-70 -190.5z" />
    <glyph glyph-name="zero.lprop" horiz-adv-x="631" 
d="M165 324q-4 -24 -5.5 -46.5t-1.5 -42.5q0 -82 31.5 -125t101.5 -43q86 0 136 65.5t70 190.5l5 31q4 24 5.5 46.5t1.5 42.5q0 82 -31.5 125t-101.5 43q-86 0 -136 -65.5t-70 -190.5zM84 360q28 172 106 250t200 78q95 0 151 -62t56 -173q0 -22 -1.5 -45.5t-5.5 -47.5
l-7 -42q-29 -172 -106.5 -250t-199.5 -78q-94 0 -151 62q-27 31 -41.5 74.5t-14.5 98.5q0 22 1.5 45.5t5.5 47.5z" />
    <glyph glyph-name="one.lprop" horiz-adv-x="494" 
d="M102 600q58 13 113 32.5t104 45.5h56l-106 -606h169l-19 -72h-421l12 72h173l87 501q-28 -12 -71.5 -24.5t-93.5 -22.5z" />
    <glyph glyph-name="two.lprop" horiz-adv-x="542" 
d="M106 633q57 26 111 40.5t104 14.5q41 0 76 -11.5t60 -33.5t39 -53.5t14 -70.5q0 -55 -23 -104.5t-59 -93.5t-80.5 -82.5t-87.5 -71.5l-124 -95h306l-26 -72h-425l10 57l194 152q31 25 70.5 57.5t73.5 71t57.5 81.5t23.5 90q0 49 -27.5 75.5t-84.5 26.5q-37 0 -83.5 -11.5
t-104.5 -36.5z" />
    <glyph glyph-name="three.lprop" horiz-adv-x="550" 
d="M141 642q54 23 103.5 34.5t94.5 11.5q94 0 139.5 -41.5t45.5 -111.5q0 -41 -22 -84.5t-75 -81.5q36 -14 54.5 -49.5t18.5 -80.5q0 -58 -21.5 -104t-59.5 -78.5t-90.5 -49.5t-114.5 -17q-51 0 -106 12t-97 35l37 67q41 -20 86 -28.5t85 -8.5q36 0 70.5 9.5t61.5 29
t43.5 50t16.5 71.5q0 44 -21 65q-14 14 -37 19.5t-60 5.5h-96l13 71h135q19 12 35.5 28.5t29 35.5t19.5 39.5t7 40.5q0 33 -24.5 56t-83.5 23q-38 0 -83 -9.5t-94 -29.5z" />
    <glyph glyph-name="four.lprop" horiz-adv-x="622" 
d="M559 678l-81 -467h104l-18 -74h-99l-24 -137h-85l24 137h-321l-13 47q98 149 199 271.5t201 222.5h113zM393 211l64 371q-36 -36 -75.5 -81t-78.5 -94t-76 -99.5t-68 -96.5h234z" />
    <glyph glyph-name="five.lprop" horiz-adv-x="566" 
d="M548 678l-26 -75h-266l-51 -197q60 18 113 18q52 0 93 -15t66 -43q39 -44 39 -112q0 -60 -18.5 -108.5t-55 -83t-90 -53.5t-123.5 -19q-51 0 -101 12.5t-98 35.5l39 70q36 -20 79 -30.5t85 -10.5q94 0 144.5 47.5t50.5 126.5q0 58 -30.5 82.5t-96.5 24.5q-63 0 -157 -21
l-30 29l80 320q19 1 43.5 1.5t38.5 0.5h272z" />
    <glyph glyph-name="six.lprop" horiz-adv-x="588" 
d="M87 366q12 75 37.5 135t65 101.5t95 63.5t128.5 22q87 0 167 -41l-40 -69q-33 17 -67 25t-66 8q-42 0 -77 -11t-63.5 -36.5t-50 -67.5t-36.5 -105q45 21 89 31.5t84 10.5q43 0 78.5 -12t59.5 -37q22 -23 33.5 -55t11.5 -76q0 -60 -20 -111t-58 -87q-32 -30 -76 -47.5
t-101 -17.5q-53 0 -92.5 16t-65.5 45t-39.5 70t-13.5 91q0 30 4 66.5t11 75.5zM165 305q-4 -24 -5.5 -46.5t-1.5 -42.5q0 -78 31 -113.5t91 -35.5q73 0 115 39q26 24 39 61.5t13 85.5q0 59 -27 81.5t-85 22.5q-37 0 -80.5 -10.5t-88.5 -33.5z" />
    <glyph glyph-name="seven.lprop" horiz-adv-x="560" 
d="M582 678l2 -39q-45 -78 -96.5 -161.5t-106 -166t-110 -162t-107.5 -149.5h-112q69 85 130.5 169.5t114.5 162.5t96 147t75 124h-366l5 75h475z" />
    <glyph glyph-name="eight.lprop" horiz-adv-x="601" 
d="M184 362q-24 20 -38.5 47.5t-14.5 72.5q0 39 16.5 76t48.5 66t80 46.5t111 17.5q92 0 144 -43.5t52 -113.5q0 -43 -24.5 -90.5t-89.5 -93.5q43 -21 63 -55t20 -78q0 -40 -15.5 -78t-44.5 -67q-41 -41 -98.5 -60t-115.5 -19q-54 0 -99.5 14.5t-75.5 42.5q-23 22 -36 52
t-13 63q0 62 33.5 113t96.5 87zM393 371q22 12 40.5 29.5t32 37.5t21 41.5t7.5 41.5q0 38 -28.5 64t-85.5 26q-37 0 -66.5 -10t-50.5 -27.5t-32 -40.5t-11 -50q0 -31 19.5 -53.5t66.5 -36.5q29 -8 49 -13t38 -9zM253 327q-21 -10 -41 -25.5t-35.5 -35.5t-25 -43.5
t-9.5 -48.5q0 -48 34.5 -77.5t102.5 -29.5q47 0 82 12.5t57.5 32.5t33.5 45.5t11 51.5q0 64 -80 83q-42 11 -77.5 20.5t-52.5 14.5z" />
    <glyph glyph-name="nine.lprop" 
d="M93 101q70 -34 144 -34q93 0 141 55.5t72 168.5q-48 -23 -93.5 -33t-83.5 -10q-88 0 -135 49.5t-47 134.5q0 54 19 100.5t53.5 81t81.5 54.5t103 20q46 0 85 -13.5t67 -40.5t43.5 -68t15.5 -95q0 -26 -3 -59.5t-10 -69.5l-3 -19q-28 -173 -102 -253t-207 -80
q-43 0 -88.5 10t-93.5 33zM464 372q4 23 5.5 45t1.5 44q0 74 -31.5 112t-92.5 38q-76 0 -121 -47q-22 -23 -34 -56.5t-12 -76.5q0 -51 27.5 -78t88.5 -27q35 0 77 10t90 33z" />
    <glyph glyph-name="zero.slash.lprop" horiz-adv-x="631" 
d="M84 360q28 172 106 250t200 78q95 0 151 -62t56 -173q0 -22 -1.5 -45.5t-5.5 -47.5l-7 -42q-29 -172 -106.5 -250t-199.5 -78q-95 0 -151 62t-56 173q0 22 1.5 45.5t5.5 47.5zM188 111q33 -44 103 -44q86 0 136 65.5t70 190.5l5 31q4 24 5.5 46.5t1.5 42.5q0 24 -3 45z
M165 324q-4 -24 -5.5 -46.5t-1.5 -42.5v-24t2 -22l318 378q-33 44 -102 44q-86 0 -136 -65.5t-70 -190.5z" />
    </font>
</defs>
</svg>
