<svg width="153" height="106" viewBox="0 0 153 106" fill="none" xmlns="http://www.w3.org/2000/svg">
<path fill-rule="evenodd" clip-rule="evenodd" d="M86.762 86.8489L87.0735 91.1268L85.2866 92L77 89.4293L77.0093 89.3802C77.1056 88.8806 77.4883 88.4868 77.9822 88.3786L84.9344 86.8576L86.762 86.8489Z" fill="#7B654A"/>
<path fill-rule="evenodd" clip-rule="evenodd" d="M84.8931 87.0241L86.7219 86.8742L101.055 69.5111L94.052 66.8707L84.8931 87.0241Z" fill="#C5B9AC"/>
<path fill-rule="evenodd" clip-rule="evenodd" d="M80.7222 87.7792L81.3929 88.7894L82.326 88.9756C83.828 89.275 85.3686 88.6909 86.3023 87.4686L86.7675 86.86L84.9346 86.8575L80.7222 87.7792Z" fill="#7B654A"/>
<path fill-rule="evenodd" clip-rule="evenodd" d="M94.0518 66.8709L99.3106 54.8434L126.358 61.7664L101.055 69.5112L94.0518 66.8709Z" fill="#C5B9AC"/>
<path fill-rule="evenodd" clip-rule="evenodd" d="M130.077 25.0499C129.738 26.2461 128.463 26.9268 127.229 26.5699C125.995 26.213 125.269 24.9539 125.608 23.7573C125.947 22.5608 127.222 21.8805 128.457 22.2373C129.691 22.5942 130.416 23.8533 130.077 25.0499Z" stroke="#8E191B" stroke-width="0.871601"/>
<path fill-rule="evenodd" clip-rule="evenodd" d="M132.741 18.3433L139.363 30.9764L135.979 48.4107C135.979 48.4107 138.897 42.8227 135.979 48.4107C133.062 53.9986 135.733 66.2315 135.733 66.2315L111.694 63.3784C111.528 63.077 111.988 62.8356 111.823 62.5341C112.129 61.8302 111.93 61.1617 112.287 60.3226C116.377 50.7076 123.516 32.9882 126.442 25.1201C127.038 23.518 128.031 22.0968 129.34 20.9779L129.826 20.6578" fill="#D7192C"/>
<path fill-rule="evenodd" clip-rule="evenodd" d="M136.201 20.1377C136.201 20.1377 136.692 18.466 135.851 14.8698L136.268 9.06208L133.739 5.819L128.603 1.6774L130.992 15.5337L128.395 21.9586L136.201 20.1377Z" fill="#E29052"/>
<path fill-rule="evenodd" clip-rule="evenodd" d="M132.101 6.19205C130.687 2.8459 128.603 1.67749 128.603 1.67749C128.603 1.67749 126.378 3.30553 125.807 4.54513C124.521 7.33354 125.999 15.6071 127.627 17.1804C128.33 17.8595 131.73 16.9783 132.38 15.5842C132.776 14.7303 132.963 14.539 133.076 13.7677C133.382 11.6776 133.134 8.63597 132.101 6.19205Z" fill="#E29052"/>
<path fill-rule="evenodd" clip-rule="evenodd" d="M134.164 13.5948C133.911 12.024 133.952 10.0595 134.845 10.2592C135.235 10.3464 135.675 10.9794 135.675 10.9794C136.246 12.0553 136.278 13.0398 134.372 14.8715L134.164 13.5948Z" fill="#E29052"/>
<path fill-rule="evenodd" clip-rule="evenodd" d="M133.441 12.0918L134.56 11.8127L134.552 12.6787L133.435 12.9746L133.441 12.0918Z" fill="#E29052"/>
<path fill-rule="evenodd" clip-rule="evenodd" d="M136.201 20.1377L149 26.6291C149 26.6291 146.681 32.3975 141.456 33.2459L136.201 20.1377Z" fill="#D7192C"/>
<path fill-rule="evenodd" clip-rule="evenodd" d="M141.456 33.2457L135.732 66.2315L130.009 63.9811L133.583 20.7485L136.201 20.1375L141.456 33.2457Z" fill="#D7192C"/>
<path fill-rule="evenodd" clip-rule="evenodd" d="M119.953 48.724C118.496 54.5546 114.425 59.6535 110.951 61.7694L110.247 57.9558C109.654 53.8146 110.633 49.9664 121.126 43.9844L119.953 48.724Z" fill="#D7192C"/>
<path fill-rule="evenodd" clip-rule="evenodd" d="M136.047 29.7648C136.047 29.7648 137.263 39.5272 136.968 44.1126L136.553 49.9073C136.553 49.9073 136.24 52.1009 134.777 52.2454C133.315 52.3899 131.713 51.047 131.376 50.4351C131.04 49.8235 129.602 43.1451 128.856 39.2328C128.11 35.3206 128.211 29.1566 128.211 29.1566C128.211 29.1566 128.598 23.8417 133.62 25.869C133.62 25.869 135.689 26.5428 136.047 29.7648Z" fill="#D7192C"/>
<path fill-rule="evenodd" clip-rule="evenodd" d="M130.812 45.8678C128.896 48.9159 121.211 51.9358 120.255 55.3231C120.1 55.8725 120.909 57.5386 120.909 57.5386C120.909 57.5386 134.863 54.7478 136.24 50.9609C136.614 49.9314 134.91 46.6886 134.91 46.6886C134.91 46.6886 131.351 45.0098 130.812 45.8678Z" fill="#D7192C"/>
<path fill-rule="evenodd" clip-rule="evenodd" d="M120.255 55.323L117.888 55.2666C117.888 55.2666 117.196 55.3081 115.682 55.2286C114.019 55.141 113.822 57.0392 113.822 57.0392C113.822 57.0392 111.15 57.5515 110.917 58.4271C110.682 59.3067 113.682 61.7135 115.764 61.3894C116.214 61.3189 116.659 61.191 117.083 61.0344C118.707 60.4321 120.01 59.2231 120.811 57.7217L120.909 57.5385L120.255 55.323Z" fill="#E29052"/>
<path fill-rule="evenodd" clip-rule="evenodd" d="M114.453 55.6713C114.453 55.6713 115.167 59.3963 116.851 61.115C116.851 61.115 115.853 61.8742 110.951 61.7696L110.767 57.6568L114.453 55.6713Z" fill="#D7192C"/>
<path fill-rule="evenodd" clip-rule="evenodd" d="M130.141 24.5129C129.852 25.5331 128.765 26.1131 127.713 25.8089C126.661 25.5049 126.042 24.4312 126.331 23.4111C126.621 22.3912 127.708 21.8109 128.76 22.1151C129.812 22.4194 130.43 23.4931 130.141 24.5129Z" stroke="#D7192C" stroke-width="0.871601"/>
<path fill-rule="evenodd" clip-rule="evenodd" d="M132.267 5.32822C132.267 5.32822 129.135 8.01727 133 11.295C133 11.295 133.988 9.07054 134.958 10.4315C135.927 11.7921 133.701 13.1366 133.701 13.1366L136.284 17.2711L137.857 12.2709L132.267 5.32822Z" fill="#7B654A"/>
<path fill-rule="evenodd" clip-rule="evenodd" d="M139.71 6.73489L139.128 6.20531C139.128 6.20531 138.743 5.7104 138.139 5.04556L136.819 6.6767C136.224 7.41303 135.696 8.19765 135.229 9.00826L137.857 12.2712L136.286 17.267C138.596 15.756 140.149 13.3473 139.71 6.73489Z" fill="#7B654A"/>
<path fill-rule="evenodd" clip-rule="evenodd" d="M135.308 2.4924C131.478 0.0590022 127.448 -0.1623 124.423 0.0723113L125.988 2.92881C127.742 5.8469 129.797 7.01037 139.103 6.17375C138.883 5.89395 137.164 3.75026 135.308 2.4924Z" fill="#7B654A"/>
<path fill-rule="evenodd" clip-rule="evenodd" d="M139.128 6.20517L139.715 6.30452L139.71 6.73475L139.128 6.20517Z" fill="#7B654A"/>
<path fill-rule="evenodd" clip-rule="evenodd" d="M132.497 7.24708L132.267 5.32809L137.791 5.47635L137.82 7.94998L135.429 10.0841L132.497 7.24708Z" fill="#7B654A"/>
<path fill-rule="evenodd" clip-rule="evenodd" d="M9.6904 79.871L9.99956 84.1302L8.22578 85L0 82.4403L0.00919218 82.3914C0.104791 81.894 0.484734 81.5019 0.974984 81.3941L7.87617 79.8797L9.6904 79.871Z" fill="black"/>
<path fill-rule="evenodd" clip-rule="evenodd" d="M7.83521 80.0454L9.65066 79.8963L23.8789 62.6078L16.9269 59.9788L7.83521 80.0454Z" fill="#E29052"/>
<path fill-rule="evenodd" clip-rule="evenodd" d="M3.69482 80.7972L4.36064 81.8034L5.28691 81.9885C6.77788 82.2866 8.30715 81.7053 9.23403 80.4883L9.69579 79.882L7.87635 79.8798L3.69482 80.7972Z" fill="#E29052"/>
<path fill-rule="evenodd" clip-rule="evenodd" d="M16.9268 59.9789L22.147 48.0032L48.9958 54.8961L23.8788 62.6079L16.9268 59.9789Z" fill="#D7192C"/>
<path fill-rule="evenodd" clip-rule="evenodd" d="M48.8713 7.10381C47.4761 3.7526 45.4186 2.61557 45.4186 2.61557C45.4186 2.61557 43.2206 4.30706 42.6551 5.57148C41.3836 8.41558 42.8394 16.7447 44.4474 18.3003C45.1412 18.9714 48.4999 18.0101 49.1425 16.588C49.5344 15.7168 49.7184 15.5194 49.8308 14.738C50.1345 12.6194 49.8905 9.55169 48.8713 7.10381Z" fill="#E29052"/>
<path fill-rule="evenodd" clip-rule="evenodd" d="M58.6238 8.00432C56.3915 6.0883 57.5825 6.11335 54.1899 2.35339C50.7975 -1.40565 46.5871 0.466082 46.5871 0.466082C46.4481 0.552841 46.3308 0.654874 46.224 0.763017C46.3287 0.657318 46.4435 0.558646 46.5788 0.472803C45.6076 1.01169 44.6261 1.83834 43.6056 3.0997C43.2413 3.68471 42.8901 4.30424 42.5472 4.97387C42.3448 5.36887 42.1449 5.7825 41.948 6.22118L43.1096 7.33988C43.5272 7.74068 43.9663 8.11705 44.4169 8.47722C46.0424 9.77555 47.8519 10.7907 49.6405 11.5413L50.1411 12.3569L49.1987 20.679C53.7514 21.2396 57.2846 18.2544 58.5262 17.1983C59.768 16.1422 62.7094 16.1416 62.7094 16.1416C63.1778 13.0091 60.8561 9.92065 58.6238 8.00432Z" fill="#333333"/>
<path fill-rule="evenodd" clip-rule="evenodd" d="M48.9728 12.1551C48.7242 10.573 48.7652 8.58764 49.647 8.77032C50.0327 8.85066 50.4669 9.48089 50.4669 9.48089C51.0302 10.5562 51.0605 11.5503 49.1773 13.4406L48.9728 12.1551Z" fill="#E29052"/>
<path fill-rule="evenodd" clip-rule="evenodd" d="M55.7128 49.255L57.2201 34.7054L51.1677 34.7281C51.8471 40.4266 51.4886 39.2618 51.6193 44.8581L55.7128 49.255Z" fill="#E29052"/>
<path fill-rule="evenodd" clip-rule="evenodd" d="M56.1391 44.067C52.6019 43.6448 45.0891 47.5679 36.6642 48.0078C36.2595 47.9317 32.5677 46.455 31.3785 46.6447C28.1399 47.1619 26.5597 48.3304 26.8123 49.5029C27.0061 50.4148 31.1755 49.596 31.4394 50.0974C31.673 50.5412 29.1456 50.9512 29.5038 51.6321C29.8636 52.3152 36.825 50.1921 36.825 50.1921L46.9873 51.4128C47.5311 51.4782 48.0969 51.4476 48.656 51.3224L55.7129 49.2548L55.9177 46.9829L56.1391 44.067Z" fill="#E29052"/>
<path fill-rule="evenodd" clip-rule="evenodd" d="M68.7276 97.3136H59.3869V94.4546H63.0102C59.1089 88.6845 52.9721 81.8739 52.9721 81.8739H34.3579C33.91 81.8831 31.5874 82.1177 31.5874 85.5862V94.4546H36.6511V97.3136H28.7219V85.5862C28.7219 80.1931 32.7903 79.0127 34.3579 79.0127H54.3345C56.3859 79.0127 68.7276 97.3136 68.7276 97.3136Z" fill="white"/>
<path fill-rule="evenodd" clip-rule="evenodd" d="M68.7276 97.3136H59.3869V94.4546H63.0102C59.1089 88.6845 52.9721 81.8739 52.9721 81.8739H34.3579C33.91 81.8831 31.5874 82.1177 31.5874 85.5862V94.4546H36.6511V97.3136H28.7219V85.5862C28.7219 80.1931 32.7903 79.0127 34.3579 79.0127H54.3345C56.3859 79.0127 68.7276 97.3136 68.7276 97.3136Z" stroke="#D7CDC0" stroke-width="1.62978"/>
<path fill-rule="evenodd" clip-rule="evenodd" d="M32.6366 75.2939C27.4779 75.2939 27.4779 67.8607 32.6366 67.8607H58.4304C63.5879 67.8607 63.5879 75.2939 58.4304 75.2939H32.6366Z" fill="white"/>
<path fill-rule="evenodd" clip-rule="evenodd" d="M32.6366 75.2939C27.4779 75.2939 27.4779 67.8607 32.6366 67.8607H58.4304C63.5879 67.8607 63.5879 75.2939 58.4304 75.2939H32.6366Z" stroke="#D7CDC0" stroke-width="1.62978"/>
<path fill-rule="evenodd" clip-rule="evenodd" d="M62.1601 80.4412C62.9411 80.4412 63.581 79.8037 63.5822 79.0241L63.5859 76.7109C63.5871 75.9316 62.9491 75.2937 62.168 75.2937H28.8981C28.1171 75.2937 27.4778 75.9316 27.4778 76.7109V79.0241C27.4778 79.8037 28.1171 80.4412 28.8981 80.4412H62.1601Z" fill="white"/>
<path fill-rule="evenodd" clip-rule="evenodd" d="M62.1601 80.4412C62.9411 80.4412 63.581 79.8037 63.5822 79.0241L63.5859 76.7109C63.5871 75.9316 62.9491 75.2937 62.168 75.2937H28.8981C28.1171 75.2937 27.4778 75.9316 27.4778 76.7109V79.0241C27.4778 79.8037 28.1171 80.4412 28.8981 80.4412H62.1601Z" stroke="#D7CDC0" stroke-width="1.62978"/>
<path fill-rule="evenodd" clip-rule="evenodd" d="M44.0986 80.4412L50.188 71.3312C50.188 71.3312 50.8439 70.149 52.8511 70.149H68.748L65.108 80.4412H44.0986Z" fill="white"/>
<path fill-rule="evenodd" clip-rule="evenodd" d="M44.0986 80.4412L50.188 71.3312C50.188 71.3312 50.8439 70.149 52.8511 70.149H68.748L65.108 80.4412H44.0986Z" stroke="#D7CDC0" stroke-width="1.62978"/>
<path fill-rule="evenodd" clip-rule="evenodd" d="M71.2922 25.5654C71.2922 25.5654 71.1091 13.3664 71.0625 8.21888C71.0184 3.06956 63.5439 3.11478 63.5914 8.26409C63.6367 13.4091 63.7723 20.461 63.8164 25.6128C63.8277 26.8201 64.1863 27.7408 64.7254 28.375C63.908 33.5922 60.9804 61.8422 60.1797 66.9039C59.3757 71.9903 64.4701 72.7913 65.2741 67.7073C65.2741 67.7073 70.1964 38.8658 70.9992 33.7819C71.1091 33.0887 71.1057 27.8087 71.0243 27.2826C71.1985 26.7932 71.2968 26.2198 71.2922 25.5654Z" fill="white"/>
<path fill-rule="evenodd" clip-rule="evenodd" d="M71.2922 25.5654C71.2922 25.5654 71.1091 13.3664 71.0625 8.21888C71.0184 3.06956 63.5439 3.11478 63.5914 8.26409C63.6367 13.4091 63.7723 20.461 63.8164 25.6128C63.8277 26.8201 64.1863 27.7408 64.7254 28.375C63.908 33.5922 60.9804 61.8422 60.1797 66.9039C59.3757 71.9903 64.4701 72.7913 65.2741 67.7073C65.2741 67.7073 70.1964 38.8658 70.9992 33.7819C71.1091 33.0887 71.1057 27.8087 71.0243 27.2826C71.1985 26.7932 71.2968 26.2198 71.2922 25.5654Z" stroke="#D7CDC0" stroke-width="1.62978"/>
<path fill-rule="evenodd" clip-rule="evenodd" d="M68.748 34.1157L65.0853 48.7385C65.0853 48.7385 64.8648 49.5596 63.9613 49.5596H37.7967C34.1012 49.5596 33.0529 52.2 32.7544 53.6963C32.7544 54.7997 33.6003 54.7047 33.6003 54.7047H62.2979C62.2979 54.7047 63.6028 54.646 63.2657 55.9911C62.9299 57.3337 54.8571 75.2937 54.8571 75.2937C54.8571 75.2937 63.4638 80.4412 66.1064 80.4412C68.748 80.4412 69.1368 76.9571 69.1368 76.9571L73.9066 34.1157H68.748Z" fill="white"/>
<path fill-rule="evenodd" clip-rule="evenodd" d="M68.748 34.1157L65.0853 48.7385C65.0853 48.7385 64.8648 49.5596 63.9613 49.5596H37.7967C34.1012 49.5596 33.0529 52.2 32.7544 53.6963C32.7544 54.7997 33.6003 54.7047 33.6003 54.7047H62.2979C62.2979 54.7047 63.6028 54.646 63.2657 55.9911C62.9299 57.3337 54.8571 75.2937 54.8571 75.2937C54.8571 75.2937 63.4638 80.4412 66.1064 80.4412C68.748 80.4412 69.1368 76.9571 69.1368 76.9571L73.9066 34.1157H68.748Z" stroke="#D7CDC0" stroke-width="1.62978"/>
<path fill-rule="evenodd" clip-rule="evenodd" d="M20.8266 94.6L15.044 97.2523C14.4344 97.5318 14.0437 98.14 14.0437 98.8094H24.7391V98.2225C24.7391 97.6824 24.5909 97.1527 24.3111 96.6908L23.0448 94.6H20.8266Z" fill="black"/>
<path fill-rule="evenodd" clip-rule="evenodd" d="M17.76 70.828L20.7795 94.7432L22.9967 94.7973L25.0833 71.9861L17.76 70.828Z" fill="#E29052"/>
<path fill-rule="evenodd" clip-rule="evenodd" d="M23.0468 94.6C22.9703 95.9289 21.8506 96.9572 20.5172 96.923L17.4978 96.8463L17.6895 96.0389L20.8286 94.6H23.0468Z" fill="#E29052"/>
<path fill-rule="evenodd" clip-rule="evenodd" d="M146.337 103.813H136.997V100.954H140.62C136.719 95.1842 130.582 88.3736 130.582 88.3736H111.968C111.52 88.3828 109.197 88.6174 109.197 92.0859V100.954H114.261V103.813H106.332V92.0859C106.332 86.6928 110.4 85.5124 111.968 85.5124H131.944C133.995 85.5124 146.337 103.813 146.337 103.813Z" fill="white"/>
<path fill-rule="evenodd" clip-rule="evenodd" d="M146.337 103.813H136.997V100.954H140.62C136.719 95.1842 130.582 88.3736 130.582 88.3736H111.968C111.52 88.3828 109.197 88.6174 109.197 92.0859V100.954H114.261V103.813H106.332V92.0859C106.332 86.6928 110.4 85.5124 111.968 85.5124H131.944C133.995 85.5124 146.337 103.813 146.337 103.813Z" stroke="#D7CDC0" stroke-width="1.62978"/>
<path fill-rule="evenodd" clip-rule="evenodd" d="M110.246 81.7935C105.088 81.7935 105.088 74.3604 110.246 74.3604H136.04C141.198 74.3604 141.198 81.7935 136.04 81.7935H110.246Z" fill="white"/>
<path fill-rule="evenodd" clip-rule="evenodd" d="M110.246 81.7935C105.088 81.7935 105.088 74.3604 110.246 74.3604H136.04C141.198 74.3604 141.198 81.7935 136.04 81.7935H110.246Z" stroke="#D7CDC0" stroke-width="1.62978"/>
<path fill-rule="evenodd" clip-rule="evenodd" d="M139.77 86.9409C140.551 86.9409 141.191 86.3033 141.192 85.524L141.196 83.2106C141.197 82.4313 140.559 81.7934 139.778 81.7934H106.508C105.727 81.7934 105.087 82.4313 105.087 83.2106V85.524C105.087 86.3033 105.727 86.9409 106.508 86.9409H139.77Z" fill="white"/>
<path fill-rule="evenodd" clip-rule="evenodd" d="M139.77 86.9409C140.551 86.9409 141.191 86.3033 141.192 85.524L141.196 83.2106C141.197 82.4313 140.559 81.7934 139.778 81.7934H106.508C105.727 81.7934 105.087 82.4313 105.087 83.2106V85.524C105.087 86.3033 105.727 86.9409 106.508 86.9409H139.77Z" stroke="#D7CDC0" stroke-width="1.62978"/>
<path fill-rule="evenodd" clip-rule="evenodd" d="M121.708 86.9409L127.798 77.8309C127.798 77.8309 128.454 76.6487 130.461 76.6487H146.358L142.718 86.9409H121.708Z" fill="white"/>
<path fill-rule="evenodd" clip-rule="evenodd" d="M121.708 86.9409L127.798 77.8309C127.798 77.8309 128.454 76.6487 130.461 76.6487H146.358L142.718 86.9409H121.708Z" stroke="#D7CDC0" stroke-width="1.62978"/>
<path fill-rule="evenodd" clip-rule="evenodd" d="M148.902 32.0651C148.902 32.0651 148.719 19.866 148.672 14.7188C148.628 9.56921 141.154 9.61442 141.201 14.764C141.246 19.9091 141.382 26.9607 141.426 32.1124C141.437 33.3197 141.796 34.2405 142.335 34.8747C141.518 40.0918 138.59 68.3419 137.789 73.4035C136.985 78.4899 142.08 79.2909 142.884 74.207C142.884 74.207 147.806 45.3655 148.609 40.2815C148.719 39.5887 148.715 34.3083 148.634 33.7826C148.808 33.2929 148.906 32.7195 148.902 32.0651Z" fill="white"/>
<path fill-rule="evenodd" clip-rule="evenodd" d="M148.902 32.0651C148.902 32.0651 148.719 19.866 148.672 14.7188C148.628 9.56921 141.154 9.61442 141.201 14.764C141.246 19.9091 141.382 26.9607 141.426 32.1124C141.437 33.3197 141.796 34.2405 142.335 34.8747C141.518 40.0918 138.59 68.3419 137.789 73.4035C136.985 78.4899 142.08 79.2909 142.884 74.207C142.884 74.207 147.806 45.3655 148.609 40.2815C148.719 39.5887 148.715 34.3083 148.634 33.7826C148.808 33.2929 148.906 32.7195 148.902 32.0651Z" stroke="#D7CDC0" stroke-width="1.62978"/>
<path fill-rule="evenodd" clip-rule="evenodd" d="M146.358 40.6154L142.695 55.2382C142.695 55.2382 142.475 56.0596 141.571 56.0596H115.407C111.711 56.0596 110.663 58.6997 110.364 60.196C110.364 61.2994 111.21 61.2044 111.21 61.2044H139.908C139.908 61.2044 141.213 61.1457 140.876 62.4908C140.54 63.8334 132.467 81.7934 132.467 81.7934C132.467 81.7934 141.073 86.9409 143.716 86.9409C146.358 86.9409 146.747 83.4568 146.747 83.4568L151.517 40.6154H146.358Z" fill="white"/>
<path fill-rule="evenodd" clip-rule="evenodd" d="M146.358 40.6154L142.695 55.2382C142.695 55.2382 142.475 56.0596 141.571 56.0596H115.407C111.711 56.0596 110.663 58.6997 110.364 60.196C110.364 61.2994 111.21 61.2044 111.21 61.2044H139.908C139.908 61.2044 141.213 61.1457 140.876 62.4908C140.54 63.8334 132.467 81.7934 132.467 81.7934C132.467 81.7934 141.073 86.9409 143.716 86.9409C146.358 86.9409 146.747 83.4568 146.747 83.4568L151.517 40.6154H146.358Z" stroke="#D7CDC0" stroke-width="1.62978"/>
<path fill-rule="evenodd" clip-rule="evenodd" d="M98.4362 101.1L92.6536 103.752C92.044 104.032 91.6533 104.64 91.6533 105.309H102.349V104.722C102.349 104.182 102.201 103.652 101.921 103.19L100.654 101.1H98.4362Z" fill="#7B654A"/>
<path fill-rule="evenodd" clip-rule="evenodd" d="M95.3696 77.3277L98.3891 101.243L100.606 101.297L102.693 78.4858L95.3696 77.3277Z" fill="#C5B9AC"/>
<path fill-rule="evenodd" clip-rule="evenodd" d="M100.656 101.1C100.58 102.429 99.4602 103.457 98.1269 103.423L95.1074 103.346L95.2991 102.539L98.4382 101.1H100.656Z" fill="#7B654A"/>
<path fill-rule="evenodd" clip-rule="evenodd" d="M95.6711 77.9265L95 71.346L125.565 62.3121L136.031 62L137 72.2261C137 72.2261 135.209 77.3955 129.65 77.3955C124.091 77.3955 102.592 75.176 102.592 75.176L103.161 79L95.6711 77.9265Z" fill="#C5B9AC"/>
<path fill-rule="evenodd" clip-rule="evenodd" d="M17.6711 69.9265L17 63.3461L47.5655 54.3123L58.0314 54L59 64.2262C59 64.2262 57.2088 69.3955 51.6499 69.3955C46.0908 69.3955 24.5918 67.176 24.5918 67.176L25.1614 71L17.6711 69.9265Z" fill="#D7192C"/>
<path fill-rule="evenodd" clip-rule="evenodd" d="M50.5226 23.3021L49.4871 23.2264C49.4871 23.2264 48.5311 26.2326 47.5055 28.6128C46.4799 30.9934 45.6917 33.0793 46.1573 35.4906C46.6233 37.9016 46.6315 46.3588 46.6315 46.3588L46.6195 49.4869L61.6511 49.7212L54.5909 26.605L50.5226 23.3021Z" fill="#C5B9AC"/>
<path fill-rule="evenodd" clip-rule="evenodd" d="M56.3457 18.1753L50.5224 23.3019L49.1711 24.8243C50.7033 29.4685 53.0293 34.2041 56.1705 38.2565L61.6508 49.7211C63.0748 33.8386 59.912 22.3753 56.3457 18.1753Z" fill="#C5B9AC"/>
<path fill-rule="evenodd" clip-rule="evenodd" d="M49.2654 17.8566L50.0286 23.2661L50.5218 23.3019L55.0509 19.5245L51.1547 10L49.2654 17.8566Z" fill="#E29052"/>
</svg>
