<?xml version="1.0" encoding="UTF-8" standalone="no"?>
<svg
   xmlns:dc="http://purl.org/dc/elements/1.1/"
   xmlns:cc="http://creativecommons.org/ns#"
   xmlns:rdf="http://www.w3.org/1999/02/22-rdf-syntax-ns#"
   xmlns:svg="http://www.w3.org/2000/svg"
   xmlns="http://www.w3.org/2000/svg"
   xmlns:sodipodi="http://sodipodi.sourceforge.net/DTD/sodipodi-0.dtd"
   xmlns:inkscape="http://www.inkscape.org/namespaces/inkscape"
   width="138"
   height="128"
   viewBox="0 0 138 128"
   version="1.1"
   id="svg47"
   sodipodi:docname="bob.svg"
   inkscape:version="0.92.3 (2405546, 2018-03-11)">
  <metadata
     id="metadata53">
    <rdf:RDF>
      <cc:Work
         rdf:about="">
        <dc:format>image/svg+xml</dc:format>
        <dc:type
           rdf:resource="http://purl.org/dc/dcmitype/StillImage" />
        <dc:title>comida_para_llevar (4) copy</dc:title>
      </cc:Work>
    </rdf:RDF>
  </metadata>
  <defs
     id="defs51" />
  <sodipodi:namedview
     pagecolor="#ffffff"
     bordercolor="#666666"
     borderopacity="1"
     objecttolerance="10"
     gridtolerance="10"
     guidetolerance="10"
     inkscape:pageopacity="0"
     inkscape:pageshadow="2"
     inkscape:window-width="996"
     inkscape:window-height="640"
     id="namedview49"
     showgrid="false"
     inkscape:zoom="1.84375"
     inkscape:cx="53"
     inkscape:cy="64"
     inkscape:window-x="622"
     inkscape:window-y="102"
     inkscape:window-maximized="0"
     inkscape:current-layer="svg47" />
  <title
     id="title2">comida_para_llevar (4) copy</title>
  <g
     id="Page-1"
     style="fill:none;fill-rule:evenodd;stroke:none;stroke-width:1"
     transform="matrix(0.31578037,0,0,0.31578032,4.2176571,5.0137747)">
    <g
       id="recogida_maleta"
       transform="matrix(-1,0,0,1,410,0)"
       style="fill-rule:nonzero">
      <path
         d="M 259.2,279.2 V 37.8 c 0,-4.4 3.6,-8 8,-8 H 388 c 4.4,0 8,3.6 8,8 v 271.1 c 0,4.4 -3.6,8 -8,8 H 285.4"
         id="Path"
         inkscape:connector-curvature="0"
         style="fill:#d7192d" />
      <path
         d="m 263.4,33.6 -7.7,-9.8 c -0.1,-0.1 -0.2,-0.2 -0.4,-0.2 -0.3,0 -0.5,0.2 -0.5,0.5 v 249.3 c 0.2,0.1 0.6,0.3 1,0.3 V 25.4 l 6.7,8.6 v 248.8 c 0.3,0.3 0.6,0.6 1,1 v -250 c 0,0 0,-0.1 -0.1,-0.2 z"
         id="path1362"
         inkscape:connector-curvature="0"
         style="fill:#000000" />
      <path
         d="m 408,328.5 h -7.7 c -0.3,0 -0.5,-0.2 -0.5,-0.5 0,0 0,0 0,0 V 33.9 c 0,-0.1 0,-0.2 0.1,-0.3 l 7.7,-9.8 c 0.2,-0.2 0.5,-0.2 0.7,-0.1 0.1,0.1 0.2,0.2 0.2,0.4 V 328 c 0,0.3 -0.2,0.5 -0.5,0.5 0,0 0,0 0,0 z m -7.1,-0.9 h 6.7 v -302 l -6.7,8.6 z"
         id="Shape"
         inkscape:connector-curvature="0"
         style="fill:#000000" />
      <path
         d="M 400.4,34.4 H 263 c -0.1,0 -0.3,-0.1 -0.4,-0.2 l -7.7,-9.8 c -0.2,-0.2 -0.1,-0.5 0.1,-0.7 0.1,-0.1 0.2,-0.1 0.3,-0.1 H 408 c 0.3,0 0.5,0.2 0.5,0.5 0,0.1 0,0.2 -0.1,0.3 l -7.7,9.8 c 0,0.1 -0.2,0.2 -0.3,0.2 z M 263.2,33.5 H 400.1 L 407,24.7 H 256.3 Z"
         id="path1365"
         inkscape:connector-curvature="0"
         style="fill:#000000" />
      <g
         id="Group"
         transform="translate(266,171)"
         style="fill:#000000">
        <path
           d="m 6.4,20.7 c -2.9,0 -5.2,-4.2 -5.2,-9.6 0,-5.4 2.3,-9.6 5.2,-9.6 2.9,0 5.2,4.2 5.2,9.6 0,5.4 -2.4,9.6 -5.2,9.6 z m 0,-18.3 c -2.3,0 -4.2,4 -4.2,8.7 0,4.7 1.9,8.7 4.2,8.7 2.3,0 4.2,-4 4.2,-8.7 C 10.5,6.4 8.6,2.4 6.4,2.4 Z"
           id="path1367"
           inkscape:connector-curvature="0" />
        <path
           d="M 6.4,21.3 C 3.1,21.3 0.6,16.9 0.6,11 0.6,5.1 3.1,0.7 6.4,0.7 c 3.3,0 5.8,4.4 5.8,10.3 0,5.9 -2.5,10.3 -5.8,10.3 z m 0,-18.2 c -1.7,0 -3.5,3.4 -3.5,8 0,4.6 1.9,8 3.5,8 1.7,0 3.5,-3.4 3.5,-8 0,-4.6 -1.9,-8 -3.5,-8 z"
           id="path1369"
           inkscape:connector-curvature="0" />
      </g>
      <g
         id="g1380"
         transform="translate(269,178)"
         style="fill:#000000">
        <path
           d="M 3.4,7.5 C 1.6,7.5 0.1,6 0.1,4.2 0.1,2.4 1.6,0.9 3.4,0.9 c 1.8,0 3.3,1.5 3.3,3.3 0,0 0,0 0,0 C 6.6,6 5.2,7.5 3.4,7.5 Z m 0,-6.1 C 1.9,1.4 0.6,2.6 0.6,4.2 0.6,5.8 1.8,7 3.4,7 4.9,7 6.2,5.8 6.2,4.2 6.1,2.7 4.9,1.4 3.4,1.4 Z"
           id="path1372"
           inkscape:connector-curvature="0" />
        <g
           transform="translate(1,2)"
           id="g1378">
          <path
             d="M 2.4,3.4 C 1.5,3.4 0.8,2.7 0.8,1.8 0.8,0.9 1.5,0.2 2.4,0.2 3.3,0.2 4,0.9 4,1.8 c 0,0 0,0 0,0 0,0.8 -0.8,1.6 -1.6,1.6 z m 0,-2.9 C 1.7,0.5 1.2,1 1.2,1.7 1.2,2.4 1.7,2.9 2.4,2.9 3.1,2.9 3.6,2.4 3.6,1.7 3.6,1.1 3,0.5 2.4,0.5 Z"
             id="path1374"
             inkscape:connector-curvature="0" />
          <path
             d="M 3.8,2 H 1 C 0.9,2 0.8,1.9 0.8,1.8 0.8,1.7 0.9,1.6 1,1.6 c 0,0 0,0 0,0 H 3.8 C 3.9,1.6 4,1.7 4,1.8 4,1.9 3.9,2 3.8,2 Z"
             id="path1376"
             inkscape:connector-curvature="0" />
        </g>
      </g>
      <g
         id="g1386"
         transform="translate(285,56)"
         style="fill:#000000">
        <path
           d="M 93.9,146.5 H 1.6 c -0.1,0 -0.2,-0.1 -0.2,-0.2 0,0 0,0 0,0 V 1.7 c 0,-0.1 0.1,-0.2 0.2,-0.2 0,0 0,0 0,0 h 92.3 c 0.1,0 0.2,0.1 0.2,0.2 0,0 0,0 0,0 v 144.5 c 0,0.2 -0.1,0.3 -0.2,0.3 0,0 0,0 0,0 z M 1.8,146 H 93.7 V 2 H 1.8 Z"
           id="path1382"
           inkscape:connector-curvature="0" />
        <path
           d="M 93.9,147.8 H 1.6 C 0.7,147.8 0,147.1 0,146.2 V 1.7 C 0,0.8 0.7,0.1 1.6,0.1 h 92.3 c 0.9,0 1.6,0.7 1.6,1.6 v 144.5 c -0.1,0.9 -0.8,1.6 -1.6,1.6 z M 3.1,144.7 H 92.3 V 3.3 H 3.1 Z"
           id="path1384"
           inkscape:connector-curvature="0" />
      </g>
      <g
         id="g1392"
         transform="translate(285,224)"
         style="fill:#000000">
        <path
           d="M 93.9,80.3 H 1.6 c -0.1,0 -0.2,-0.1 -0.2,-0.2 0,0 0,0 0,0 V 2.2 C 1.4,2.1 1.5,2 1.6,2 c 0,0 0,0 0,0 h 92.3 c 0.1,0 0.2,0.1 0.2,0.2 0,0 0,0 0,0 V 80 c 0,0.1 -0.1,0.3 -0.2,0.3 0,0 0,0 0,0 z M 1.8,79.8 H 93.7 V 2.4 H 1.8 Z"
           id="path1388"
           inkscape:connector-curvature="0" />
        <path
           d="M 93.9,81.6 H 1.6 C 0.7,81.6 0,80.9 0,80 V 2.1 C 0,1.2 0.7,0.5 1.6,0.5 h 92.3 c 0.9,0 1.6,0.7 1.6,1.6 V 80 c -0.1,0.9 -0.8,1.6 -1.6,1.6 z M 3.1,78.4 H 92.3 V 3.7 H 3.1 Z"
           id="path1390"
           inkscape:connector-curvature="0" />
      </g>
      <path
         d="m 292.5,327.6 c 0,-0.3 0,-0.6 0,-1"
         id="path1394"
         inkscape:connector-curvature="0"
         style="fill:#000000" />
      <line
         x1="263"
         y1="326.60001"
         x2="263"
         y2="327.60001"
         id="line1396"
         style="fill:#000000" />
      <path
         d="M 400.4,326.6 H 292.5 c 0,0.3 0,0.6 0,1 h 107.9 z"
         id="path1398"
         inkscape:connector-curvature="0"
         style="fill:#000000" />
      <path
         d="m 253.5,22.8 v 249 c 0.9,0.1 1.8,3.1 2.7,3.1 V 25.5 H 406.7 V 328 h 2.7 V 22.8 Z"
         id="path1400"
         inkscape:connector-curvature="0"
         style="fill:#000000" />
      <g
         id="g1406"
         transform="translate(295,65)"
         style="fill:#000000">
        <path
           d="M 74.4,129.4 H 1 c -0.1,0 -0.2,-0.1 -0.2,-0.2 V 0.9 C 0.8,0.8 0.9,0.7 1,0.7 h 73.4 c 0.1,0 0.2,0.1 0.2,0.2 v 128.3 c 0,0.1 -0.1,0.2 -0.2,0.2 z M 1.2,128.9 h 73 V 1 h -73 z"
           id="path1402"
           inkscape:connector-curvature="0" />
        <path
           d="M 74.4,129.7 H 1 c -0.3,0 -0.5,-0.3 -0.5,-0.5 V 0.8 C 0.5,0.5 0.7,0.3 1,0.3 h 73.4 c 0.3,0 0.5,0.3 0.5,0.5 v 128.3 c 0,0.3 -0.2,0.6 -0.5,0.6 z M 1.5,128.6 H 73.9 V 1.4 H 1.5 Z"
           id="path1404"
           inkscape:connector-curvature="0" />
      </g>
      <g
         id="g1412"
         transform="translate(295,234)"
         style="fill:#000000">
        <path
           d="M 74,61.8 H 1.4 c -0.1,0 -0.2,-0.1 -0.2,-0.2 0,0 0,0 0,0 v -61 c 0,-0.1 0.1,-0.2 0.2,-0.2 0,0 0,0 0,0 H 74 c 0.1,0 0.2,0.1 0.2,0.2 0,0 0,0 0,0 v 61 c 0,0.1 -0.1,0.2 -0.2,0.2 0,0 0,0 0,0 z M 1.6,61.4 H 73.9 V 0.8 H 1.6 Z"
           id="path1408"
           inkscape:connector-curvature="0" />
        <path
           d="M 74,62 H 1.4 C 1.2,62 0.9,61.8 0.9,61.5 V 0.5 C 0.9,0.3 1.1,0 1.4,0 H 74 c 0.2,0 0.5,0.2 0.5,0.5 v 61 C 74.5,61.8 74.3,62 74,62 Z M 1.8,61.1 H 73.5 V 1 H 1.8 Z"
           id="path1410"
           inkscape:connector-curvature="0" />
      </g>
      <g
         id="g1527">
        <path
           d="m 285,323 -40.4,-55.8 c -1.5,-2 -3.3,-3.1 -5.2,-3.4 v -0.1 c 0.4,0.1 -38.8,-8.8 -44.7,-9.9 0,0 -4.5,-1.5 -7.3,1.1 -2.8,2.6 -9.4,10.2 -9.4,10.2 l -1.8,1.8 c -4.2,5.4 -11.8,12.9 -12.5,17 -0.7,4.1 -1.7,6 3.3,12.8 5,6.8 42.2,56.1 42.2,56.1 l 55.6,11.2 c 0.3,0.1 0.6,0.2 1,0.2 h 0.2 v 0 c 2.4,0.2 4.9,-1.2 6.6,-4.2 l 12.9,-21.5 c 2.7,-4.4 2.5,-11.4 -0.5,-15.5 z"
           id="path1414"
           inkscape:connector-curvature="0"
           style="fill:#d7192d" />
        <path
           d="m 265.2,285.6 c -0.2,0.1 -0.3,0.1 -0.5,0.2 0.1,0.1 0.1,0.1 0.2,0.2 h 0.6 c -0.1,-0.2 -0.2,-0.3 -0.3,-0.4 z"
           id="path1416"
           inkscape:connector-curvature="0"
           style="fill:#000000" />
        <path
           d="m 265.4,285.5 c -0.1,0 -0.2,0 -0.2,0.1 0.1,0.1 0.2,0.2 0.3,0.3 h -0.6 c 0.7,0.6 1.3,1.1 2,1.6 z"
           id="path1418"
           inkscape:connector-curvature="0"
           style="fill:#000000" />
        <path
           d="m 258.9,277.8 c 0.2,0.3 0.2,0.7 -0.1,1.4 1.2,1.1 2.5,1.5 3.7,2.2 l -3.3,-4.7 c 0.1,0.6 0.5,1 -0.3,1.1 z"
           id="path1420"
           inkscape:connector-curvature="0"
           style="fill:#000000" />
        <path
           d="m 258.9,277.8 c 0.8,-0.1 0.3,-0.6 0.2,-1.1 l -1.1,-1.6 c -0.8,-0.2 -1.7,-0.2 -2.6,-0.2 l 1.5,2.2 c 0.9,0.1 1.7,0.3 2,0.7 z"
           id="path1422"
           inkscape:connector-curvature="0"
           style="fill:#000000" />
        <path
           d="m 262.9,281.9 c -0.1,0 -0.2,0 -0.4,0 0.1,0 0.2,0 0.4,0 l -0.3,-0.5 c -1.2,-0.7 -2.5,-1.1 -3.7,-2.2 0,0.1 -0.1,0.2 -0.2,0.2 l 3.3,4.6 c 1.1,0.5 2,1 2.7,1.7 0.2,0 0.3,-0.1 0.5,-0.2 -0.9,-0.9 -1.8,-1.8 -2.7,-2.7 0.9,0.9 1.8,1.8 2.7,2.7 0.1,0 0.2,0 0.2,-0.1 z"
           id="path1424"
           inkscape:connector-curvature="0"
           style="fill:#000000" />
        <path
           d="m 258.5,278.9 c 0.1,0.1 0.2,0.2 0.4,0.3 0.4,-0.6 0.3,-1.1 0.1,-1.4 -0.1,0 -0.3,0 -0.5,0 0.2,0 0.3,0 0.5,0 -0.3,-0.4 -1.1,-0.6 -2,-0.8 l 1.7,2.4 c 0.1,-0.1 0.1,-0.2 0.2,-0.2 -0.2,-0.1 -0.3,-0.2 -0.4,-0.3 z"
           id="path1426"
           inkscape:connector-curvature="0"
           style="fill:#000000" />
        <path
           d="m 291.6,322.6 -24.8,-35.1 c -0.7,-0.5 -1.3,-1 -2,-1.6 h -0.4 0.4 c -0.1,-0.1 -0.1,-0.1 -0.2,-0.2 -0.4,0.1 -0.7,0.2 -1.2,0.2 0.4,0 0.8,-0.1 1.2,-0.2 -0.7,-0.6 -1.6,-1.2 -2.7,-1.7 l 22.7,32 c 0.2,-0.4 0.5,-0.8 0.9,-1.2 -0.4,0.4 -0.7,0.8 -0.9,1.2 l 5.4,7.7 c 2.9,4.2 2.9,11.3 0,15.9 l -14.7,23.3 c -1.6,2.5 -3.7,3.9 -5.9,4 -1.8,0.1 -3.6,-0.9 -4.9,-2.6 l -46.8,-62.6 c -3.5,-4.6 -3.3,-12.5 0.5,-17.2 l 17.4,-22 c 1.6,-2 3.6,-3.1 5.7,-3 2.2,0.1 4.2,1.3 5.7,3.4 l 8.4,11.9 c 0.9,0 1.8,0 2.6,0.2 l -9.4,-13.3 c -1.9,-2.6 -4.4,-4.1 -7.2,-4.2 -2.8,-0.1 -5.4,1.3 -7.3,3.7 l -17.4,22 c -4.3,5.4 -4.5,14.3 -0.5,19.7 l 46.8,62.6 c 1.7,2.2 3.9,3.4 6.3,3.4 0.1,0 0.2,0 0.3,0 2.8,-0.1 5.6,-1.9 7.5,-5 l 14.7,-23.3 c 3.2,-5.1 3.2,-13.2 -0.2,-18 z m 0.9,2.3 c 0,3 0,5 0,8 0,-3 0,-5 0,-8 z"
           id="path1428"
           inkscape:connector-curvature="0"
           style="fill:#000000" />
        <path
           d="m 268.5,369 -62.1,-12.8 c -0.2,0 -0.5,-0.2 -0.6,-0.4 -0.4,-0.5 -39.7,-53.9 -45,-61.2 -5.1,-7 -4.5,-9.7 -3.7,-13.5 0.1,-0.4 0.2,-0.8 0.3,-1.2 0.7,-3.4 5.2,-8.4 9.5,-13.3 1.8,-2 3.5,-3.8 4.8,-5.5 l 1.6,1.3 c -1.4,1.7 -3.1,3.6 -4.9,5.6 -4,4.4 -8.5,9.4 -9.1,12.3 -0.1,0.4 -0.2,0.8 -0.3,1.2 -0.8,3.6 -1.2,5.6 3.3,11.9 5.1,7 41.5,56.5 44.7,60.9 l 61.7,12.7 z"
           id="path1430"
           inkscape:connector-curvature="0"
           style="fill:#000000" />
        <path
           d="m 175.4,260.4 -1.5,-1.4 c 0.3,-0.3 7.6,-8.2 10.7,-11 3.3,-3.1 8.3,-1.6 9,-1.4 3.5,0.7 16.5,3.6 26.8,5.9 5.7,1.3 11.2,2.6 15.3,3.5 4.1,0.9 5.9,1.3 6.7,1.6 l -0.2,0.9 0.2,-0.9 c 0.6,0.2 0.7,0.3 0.8,0.6 0.1,0.3 0,0.7 -0.2,1 -0.2,0.3 -0.6,0.4 -1,0.3 l 0.2,-0.9 -0.2,0.9 c -0.3,-0.1 -42.2,-9.8 -48.7,-11 0,0 -0.1,0 -0.1,0 0,0 -4.4,-1.5 -7,1 -3.3,2.8 -10.7,10.8 -10.8,10.9 z"
           id="path1432"
           inkscape:connector-curvature="0"
           style="fill:#000000" />
        <path
           d="m 199.4,296.3 c 0,0 -0.1,0 0,0 L 177.8,293 c -0.1,0 -0.3,-0.1 -0.4,-0.2 -0.1,-0.1 -2.1,-3.7 -2.1,-5.6 v -10.4 c 0,-0.2 0.1,-0.3 0.2,-0.4 0.1,-0.1 0.3,-0.1 0.4,-0.1 l 24.7,5.1 c 0.1,0 0.3,0.1 0.3,0.3 0.1,0.1 0.1,0.3 0,0.4 -0.6,1.5 -2,5.5 -2,6.6 0,1.4 1,7 1,7 0,0.2 0,0.3 -0.1,0.4 -0.1,0.1 -0.3,0.2 -0.4,0.2 z m -21.2,-4.2 20.6,3.1 c -0.3,-1.6 -0.9,-5.3 -0.9,-6.5 0,-1.3 1.3,-5 1.9,-6.4 l -23.5,-4.9 v 9.8 c 0,1.2 1.2,3.8 1.9,4.9 z"
           id="path1434"
           inkscape:connector-curvature="0"
           style="fill:#000000" />
        <g
           transform="translate(128,222)"
           id="g1440">
          <path
             d="m 0.9,1.5 c 0.9,0 51.2,67.6 51.2,67.6 L 54.6,67.3 4.5,1.1 Z"
             id="path1436"
             inkscape:connector-curvature="0"
             style="fill:#fffdfd" />
          <path
             d="m 52.1,69.5 c -0.2,0 -0.3,-0.1 -0.4,-0.2 C 38.1,51.1 2.7,3.6 0.7,1.9 0.5,1.8 0.4,1.7 0.4,1.5 0.4,1.2 0.6,1 0.9,1 L 4.6,0.7 c 0.2,0 0.3,0.1 0.4,0.2 l 50.1,66.2 c 0.1,0.1 0.1,0.2 0.1,0.4 0,0.1 -0.1,0.3 -0.2,0.3 l -2.5,1.8 C 52.3,69.5 52.2,69.5 52.1,69.5 Z M 1.9,1.9 C 4.4,4.8 14,17 52.2,68.4 L 53.9,67.2 4.3,1.7 Z"
             id="path1438"
             inkscape:connector-curvature="0"
             style="fill:#000000" />
        </g>
        <g
           transform="translate(145,222)"
           id="g1446">
          <path
             d="M 1,2.4 C 1.9,2.4 48,69 48,69 L 51,67.5 3.6,1.1 Z"
             id="path1442"
             inkscape:connector-curvature="0"
             style="fill:#fff8f9" />
          <path
             d="m 48,69.6 c -0.2,0 -0.3,-0.1 -0.4,-0.2 C 35.2,51.4 2.6,4.7 0.7,2.9 0.6,2.8 0.5,2.7 0.5,2.6 0.4,2.4 0.6,2.1 0.8,2 L 3.4,0.7 C 3.6,0.6 3.9,0.7 4,0.9 l 47.4,66.4 c 0.1,0.1 0.1,0.3 0.1,0.4 0,0.1 -0.1,0.3 -0.3,0.3 l -3,1.5 c -0.1,0 -0.1,0.1 -0.2,0.1 z M 1.7,2.6 c 2.1,2.5 10.4,13.8 46.4,65.8 l 2,-1 L 3.3,1.8 Z"
             id="path1444"
             inkscape:connector-curvature="0"
             style="fill:#000000" />
        </g>
        <path
           d="m 262.9,372.7 c -0.8,0 -1.6,-0.1 -2.4,-0.4 -1.9,-0.7 -3.1,-1.5 -3.9,-2.6 -0.9,-1.2 -1,-2.7 -0.4,-4.4 0.1,-0.2 0.3,-0.4 0.6,-0.3 l 12,2.7 c 0.1,0 0.3,0.1 0.3,0.3 0.1,0.1 0.1,0.3 0,0.4 -0.6,1.7 -1.9,3 -3.5,3.7 -0.8,0.4 -1.7,0.6 -2.7,0.6 z m -5.8,-6.6 c -0.7,2.3 0.5,3.9 3.8,5.2 1.4,0.5 3,0.5 4.4,-0.1 1.2,-0.5 2.2,-1.5 2.8,-2.6 z"
           id="path1448"
           inkscape:connector-curvature="0"
           style="fill:#000000" />
        <path
           d="m 215.6,362.9 c -0.8,0 -1.6,-0.1 -2.4,-0.4 -3.9,-1.5 -5.4,-4.1 -4.2,-7.2 0.1,-0.2 0.3,-0.4 0.6,-0.3 l 12,3 c 0.1,0 0.3,0.1 0.3,0.3 0.1,0.1 0.1,0.3 0,0.4 -1,2.6 -3.6,4.2 -6.3,4.2 z m -5.8,-6.8 c -0.7,2.4 0.6,4.3 3.8,5.5 2.8,1.1 5.8,-0.2 7.1,-2.8 z"
           id="path1450"
           inkscape:connector-curvature="0"
           style="fill:#000000" />
        <rect
           id="Rectangle"
           transform="rotate(-74.109695,206.52813,288.85863)"
           x="206.02812"
           y="280.80853"
           width="1.0000129"
           height="16.100206"
           style="fill:#000000" />
        <rect
           id="rect1453"
           transform="rotate(-75.065999,165.69904,278.28789)"
           x="165.19905"
           y="272.43802"
           width="1"
           height="11.699718"
           style="fill:#000000" />
        <g
           transform="translate(31,52)"
           id="g1459">
          <path
             d="M 58.7,1 C 61,1.2 85,16.2 85,16.2 c 0,0 11.2,24 12.7,32.8 1.5,8.8 0,10.4 0,10.4 0,0 -9.2,-2.4 -16,3 -6.8,5.3 -6.8,5.3 -6.8,5.3 0,0 -8.9,-21 -8,-20.7 0.9,0.3 10.1,28.7 10.1,28.7 0,0 5.4,14.3 5.1,15.5 -0.3,1.2 -2.1,4.9 -3.6,4.9 -1.5,0 -4.8,1.5 -4.8,1.5 0,0 -27.2,10.9 -36.7,11.8 -9.5,0.9 -15.4,0 -17,-2.4 -1.6,-2.4 -2.5,-6.5 -1.9,-7.4 C 18.7,98.7 17.6,99 15.6,94.9 13.6,90.8 5.7,45.8 6.8,43.7 7.9,41.6 7.9,59.4 7.9,59.4 L 0.6,49.7 C -0.5,52.7 4.9,38 5.3,31.6 5.6,25.8 4.9,16 7.9,12.7 c 3,-3.3 18.2,-9.5 18.2,-9.5 0,0 5.1,19.1 5.6,19 0.7,0 22.2,-21.7 27,-21.2 z"
             id="path1455"
             inkscape:connector-curvature="0"
             style="fill:#dcdcdc" />
          <path
             d="m 30.6,110.2 c -4.8,0 -9.3,-0.7 -10.8,-2.9 -1.6,-2.4 -2.7,-6.8 -1.9,-8 0.1,-0.1 0.1,-0.1 0.1,-0.1 0,0 -0.2,-0.2 -0.3,-0.4 -0.4,-0.5 -1.3,-1.6 -2.3,-3.7 -1.1,-2.3 -4.8,-20.9 -7,-35.2 0,0 0,0 0,0 C 8.2,60 8,59.9 7.8,59.7 L 0.9,50.6 C 0.7,50.7 0.5,50.6 0.4,50.5 0.2,50.3 0.2,50.2 0.3,50 v 0 c 0,0 0,-0.1 0,-0.1 0,-0.1 0,-0.1 0.1,-0.2 0.7,-2.1 4.4,-12.8 4.7,-18 0.1,-1.3 0.1,-2.9 0.1,-4.5 0.1,-5.6 0.1,-12 2.6,-14.6 3.1,-3.3 17.7,-9.4 18.4,-9.7 0.1,-0.1 0.3,-0.1 0.4,0 0.1,0.1 0.2,0.2 0.3,0.3 1.7,6.3 4.4,16.1 5.3,18.4 0.5,-0.4 1.3,-1.2 2.2,-2.1 10.1,-9.6 21,-19.3 24.5,-19 v 0 c 2.3,0.2 24.1,13.8 26.5,15.4 0.1,0.1 0.1,0.1 0.2,0.2 0.5,1 11.3,24.1 12.8,33 1.4,8.7 0.1,10.5 -0.1,10.8 -0.1,0.1 -0.3,0.2 -0.5,0.1 -0.1,0 -9,-2.2 -15.5,2.9 l -6.8,5.3 c 0,0 -0.1,0.1 -0.2,0.1 0.7,2.2 1.5,4.7 2.4,7.4 1.3,3.4 5.4,14.6 5.1,15.8 -0.2,0.9 -2.1,5.3 -4.1,5.3 -1.2,0 -3.7,1 -4.6,1.4 -1.1,0.5 -27.4,11 -36.8,11.9 -2.2,0 -4.5,0.1 -6.7,0.1 z M 8.6,55.5 c 2.1,14 6.2,36.2 7.6,39.2 1,2 1.7,3 2.1,3.5 0.4,0.5 0.8,1 0.3,1.7 -0.4,0.6 0.2,4.4 1.9,6.8 1.5,2.2 7.6,3 16.5,2.2 9.3,-0.9 36.3,-11.7 36.5,-11.8 0.1,-0.1 3.3,-1.5 5,-1.5 1,0 2.8,-3.1 3.1,-4.5 C 81.7,90.2 79,82.6 76.5,75.9 75.1,71.6 73.4,66.4 71.8,61.6 65.9,47.4 66.3,47 66.5,46.7 c 0.1,-0.1 0.4,-0.2 0.6,-0.1 0.2,0.1 0.8,0.3 5.7,14.7 0.8,2 1.6,3.9 2.4,5.7 l 6.3,-4.9 c 6.2,-4.9 14.2,-3.5 16,-3.1 0.3,-0.7 0.9,-3 -0.2,-9.7 -1.4,-8.4 -11.7,-30.6 -12.6,-32.6 -9.6,-6 -24.4,-15 -26,-15.1 0,0 -0.1,0 -0.1,0 -3.8,0 -18.2,13.6 -23.6,18.7 -2.7,2.5 -2.7,2.5 -2.9,2.6 -0.1,0 -0.3,0 -0.4,-0.1 C 31.5,22.7 30.9,22.3 26,4.1 23.3,5.2 11.1,10.5 8.5,13.3 c -2.2,2.4 -2.3,8.8 -2.3,14 0,1.7 0,3.2 -0.1,4.6 -0.1,2.5 -1,6.4 -2.6,11.6 -0.9,3.1 -1.6,5.3 -2.1,6.4 l 6.3,8.3 c 0,-0.8 0,-1.7 0,-2.5 -0.9,-6.4 -1.4,-11.2 -1,-12 0.3,-0.5 0.6,-0.4 0.8,-0.4 0.2,-0.1 1,0.1 1.1,12.2 z"
             id="path1457"
             inkscape:connector-curvature="0"
             style="fill:#000000" />
        </g>
        <g
           transform="translate(34)"
           id="g1465">
          <path
             d="M 54.4,27.1 C 54.9,27.5 53.7,16.6 52,12.7 49.8,8 49.3,5 37.3,2.5 25.3,0 20.2,2.5 17.8,7.4 c -2.4,4.9 -3.5,9.3 -3.5,9.3 0,0 -6,-0.4 -10.2,1.8 -4.2,2.2 -2.7,4 -2.7,4 0,0 10,2.4 11.3,2.2 1.3,-0.2 1.1,-5.3 2.4,-5.3 5.1,0 27.5,-1.4 39.3,7.7 z"
             id="path1461"
             inkscape:connector-curvature="0"
             style="fill:#969696" />
          <path
             d="m 54.4,27.6 c -0.1,0 -0.2,0 -0.3,-0.1 v 0 c -10.4,-8 -29.5,-7.8 -36.8,-7.7 -0.9,0 -1.6,0 -2.2,0 -0.3,0.1 -0.6,1.5 -0.7,2.2 -0.3,1.5 -0.6,2.9 -1.6,3.1 C 11.4,25.3 3,23.3 1.3,22.9 1.2,22.9 1.1,22.8 1,22.7 0.9,22.6 0.5,22.1 0.6,21.1 0.8,20 1.9,18.9 3.8,17.9 7.5,16 12.4,16 13.9,16 c 0.3,-1.2 1.5,-5 3.5,-9 2.9,-5.8 9.1,-7.4 20.1,-5.1 11.4,2.3 12.7,5.2 14.6,9.6 l 0.4,0.9 c 1.3,2.9 3.3,14.3 2.3,15 -0.1,0.2 -0.3,0.2 -0.4,0.2 z M 20.6,18.8 c 8.6,0 24,0.7 33.4,7.4 C 53.9,23.8 52.9,16 51.5,12.9 L 51.1,12 C 49.3,7.8 48.2,5.2 37.2,3 23.8,0.3 20,4 18.2,7.6 c -2.4,4.8 -3.5,9.2 -3.5,9.2 -0.1,0.2 -0.3,0.4 -0.5,0.4 -0.1,0 -5.9,-0.4 -9.9,1.7 -2.1,1.1 -2.6,2 -2.7,2.5 -0.1,0.3 0,0.5 0.1,0.6 3.8,0.9 10,2.3 10.9,2.2 0.3,-0.1 0.7,-1.6 0.8,-2.3 0.3,-1.6 0.6,-3 1.7,-3 0,0 0,0 0,0 0.5,0 1.3,0 2.2,0 0.9,-0.1 2,-0.1 3.3,-0.1 z"
             id="path1463"
             inkscape:connector-curvature="0"
             style="fill:#000000" />
        </g>
        <path
           d="m 78.6,37.5 c -0.2,0 -0.4,0 -0.5,-0.1 -0.7,-0.2 -1.2,-0.6 -1.4,-1.2 -0.4,-1 0.2,-2 0.2,-2.2 0.1,-0.2 0.4,-0.3 0.7,-0.2 0.2,0.1 0.3,0.4 0.2,0.7 -0.1,0.2 -0.4,0.8 -0.2,1.3 0.1,0.3 0.4,0.5 0.8,0.6 1.5,0.5 5.5,-4 6.2,-6.1 0.5,-1.6 0.6,-4.7 -2.4,-6.2 -0.7,-0.4 -1.4,-0.4 -1.9,-0.2 -1.1,0.5 -1.6,2 -1.6,2 -0.1,0.3 -0.4,0.4 -0.6,0.3 -0.3,-0.1 -0.4,-0.4 -0.3,-0.6 0,-0.1 0.6,-2 2.2,-2.6 0.8,-0.4 1.8,-0.3 2.8,0.2 3.1,1.6 3.7,4.9 2.9,7.4 -0.8,1.8 -4.6,6.9 -7.1,6.9 z"
           id="path1467"
           inkscape:connector-curvature="0"
           style="fill:#000000" />
        <path
           d="m 59.2,53.5 c -2.3,0 -4.4,-0.2 -5.9,-0.5 -3.8,-0.8 -4.6,-7.3 -5,-11.2 -0.1,-0.6 -0.1,-1.2 -0.2,-1.6 -0.3,-1.7 0.1,-3 0.5,-3.8 -0.4,-0.1 -1,-0.2 -1.7,-0.5 -0.3,-0.1 -0.5,-0.3 -0.6,-0.6 -0.4,-1 0.4,-2.6 1.3,-4.4 0.2,-0.4 0.4,-0.9 0.5,-1 0.1,-0.5 -0.2,-1.3 -1.1,-2.3 -1.1,-1.1 0.5,-5.9 1.1,-7.8 0.1,-0.3 0.4,-0.4 0.6,-0.3 0.3,0.1 0.4,0.4 0.3,0.6 -1.1,3.2 -1.8,6.4 -1.4,6.8 0.8,0.9 1.7,2 1.4,3.2 -0.1,0.2 -0.2,0.6 -0.6,1.2 -0.5,1 -1.5,3 -1.3,3.7 1.3,0.6 2.2,0.6 2.2,0.6 0.2,0 0.4,0.1 0.5,0.3 0.1,0.2 0,0.4 -0.1,0.5 0,0.1 -1.1,1.4 -0.7,3.7 0.1,0.4 0.1,1 0.2,1.6 0.4,3.4 1.2,9.7 4.2,10.3 3.5,0.7 11.4,1.2 16.1,-2.1 4.5,-3.1 6.1,-5.4 6.1,-5.4 0.2,-0.2 0.5,-0.3 0.7,-0.1 0.2,0.2 0.3,0.5 0.1,0.7 -0.1,0.1 -1.7,2.4 -6.3,5.7 -2.9,2 -7.2,2.7 -10.9,2.7 z"
           id="path1469"
           inkscape:connector-curvature="0"
           style="fill:#000000" />
        <path
           d="m 83.2,49 c -0.3,0 -0.5,-0.2 -0.5,-0.5 -0.1,-1.2 1,-11.2 1.4,-14.1 0.4,-2.8 2.6,-7.6 2.7,-7.8 0.1,-0.3 0.4,-0.4 0.7,-0.2 0.3,0.1 0.4,0.4 0.2,0.7 0,0 -2.2,4.9 -2.6,7.6 -0.5,3 -1.5,12.8 -1.4,13.8 0,0.2 -0.2,0.5 -0.5,0.5 0,0 0,0 0,0 z"
           id="path1471"
           inkscape:connector-curvature="0"
           style="fill:#000000" />
        <g
           transform="translate(62,43)"
           id="g1477">
          <path
             d="m 22.3,0.6 c 0.1,-0.5 3.8,4 4.4,5.6 0.6,1.6 1.4,1.1 1.1,3.8 -0.3,2.7 -4.4,14 -4.3,16.2 0.1,2.2 0.8,2.4 0.8,2.4 0,0 -11.8,-6.6 -13,-6.2 -1.2,0.4 -4.4,3 -4.4,4.6 0,1.6 -5.5,5 -5.5,5 0,0 15.8,-18.3 17.8,-21.3 2,-3 2.6,-7.9 3.1,-10.1 z"
             id="path1473"
             inkscape:connector-curvature="0"
             style="fill:#969696" />
          <path
             d="M 1.4,32.6 C 1.3,32.6 1.1,32.5 1,32.4 0.8,32.2 0.8,31.9 1,31.7 1.2,31.5 16.8,13.4 18.8,10.4 20.4,8 21.1,4.2 21.6,1.7 21.7,1.2 21.8,0.8 21.8,0.4 v 0 c 0,-0.2 0.3,-0.4 0.5,-0.4 0,0 0,0 0,0 1,0 4.4,4.9 4.8,6 0.2,0.5 0.3,0.7 0.5,1 0.5,0.6 0.8,1.2 0.6,3 -0.1,1.3 -1.1,4.3 -2.1,7.6 -1.1,3.5 -2.3,7.4 -2.3,8.5 0,1.2 0.3,1.7 0.4,1.9 0,0 0.1,0 0.1,0.1 0.2,0.1 0.3,0.4 0.2,0.6 -0.1,0.2 -0.3,0.4 -0.6,0.3 -0.1,0 -0.2,-0.1 -0.3,-0.2 -5.4,-3 -11.4,-6 -12.3,-5.9 -1,0.4 -4.1,2.8 -4.1,4.1 0,1.8 -4.4,4.6 -5.7,5.5 0.1,0 0,0.1 -0.1,0.1 z m 5,-5.6 c -0.7,0.8 -1.3,1.6 -1.9,2.3 1.1,-1 1.9,-1.8 1.9,-2.3 0,0 0,0 0,0 z m 5,-5.1 c 1.6,0 7.4,3 11.6,5.3 -0.1,-0.3 -0.1,-0.7 -0.1,-1.1 0,-1.3 1.1,-5 2.3,-8.9 0.9,-3 1.9,-6.2 2,-7.4 C 27.4,8.2 27.1,8 26.8,7.5 26.6,7.2 26.3,6.9 26.1,6.2 25.7,5.1 23.6,2.3 22.6,1.3 c 0,0.2 -0.1,0.3 -0.1,0.5 -0.5,2.6 -1.1,6.6 -2.9,9.1 -1,1.5 -5.2,6.5 -9.3,11.4 0.3,-0.2 0.6,-0.4 0.9,-0.5 0,0.1 0.1,0.1 0.2,0.1 z"
             id="path1475"
             inkscape:connector-curvature="0"
             style="fill:#000000" />
        </g>
        <g
           transform="translate(50,52)"
           id="g1483">
          <path
             d="m 8.7,1.2 c 0.1,-0.1 4.9,19.3 4.7,21 -0.1,1.6 -1.9,6.5 -1.5,5.9 0.4,-0.6 0.2,-5.5 -1.4,-6.8 C 8.9,20 7.2,16.2 7.1,15.2 7,14.2 4.9,13.2 4.9,13.2 l -3.7,4.7 z"
             id="path1479"
             inkscape:connector-curvature="0"
             style="fill:#969696" />
          <path
             d="m 11.8,28.6 c -0.1,0 -0.1,0 -0.2,0 -0.4,-0.2 -0.4,-0.2 -0.1,-1.3 0.1,-1.4 -0.2,-4.7 -1.4,-5.6 C 8.3,20.2 6.7,16.3 6.5,15.3 6.4,14.9 5.6,14.3 4.9,13.8 L 1.5,18.2 C 1.3,18.4 1.1,18.5 0.8,18.3 0.6,18.2 0.5,17.9 0.6,17.7 L 8.2,1 C 8.2,0.9 8.3,0.9 8.3,0.9 8.4,0.8 8.7,0.7 8.9,0.8 9.1,0.9 9.3,1 11.7,11.1 c 1.1,4.6 2.3,10.3 2.2,11.2 -0.1,1 -0.7,3 -1.2,4.5 -0.1,0.3 -0.2,0.5 -0.2,0.8 0,0.4 -0.1,0.7 -0.2,0.8 -0.1,0.1 -0.3,0.2 -0.5,0.2 z m -7,-16 c 0.1,0 0.2,0 0.2,0.1 0.4,0.2 2.3,1.2 2.5,2.4 0.1,0.8 1.7,4.5 3.2,5.8 0.9,0.7 1.3,2.2 1.6,3.6 0.3,-0.9 0.5,-1.9 0.6,-2.4 C 13,20.8 9.7,6.9 8.6,2.6 L 3.3,14.3 4.4,12.9 c 0.1,-0.2 0.3,-0.3 0.4,-0.3 z"
             id="path1481"
             inkscape:connector-curvature="0"
             style="fill:#000000" />
        </g>
        <g
           transform="translate(0,115)"
           id="g1489">
          <path
             d="M 41.7,8.6 0.8,0.6 v 43.5 l 12,2.6 c 0,0 -1.3,-5.3 3.3,-6.8 4.6,-1.5 6.2,-2.2 8.4,-0.4 2.2,1.8 6.7,7.8 5.8,9.1 -0.9,1.3 12.6,2.4 12.6,2.4 L 44,21 Z"
             id="path1485"
             inkscape:connector-curvature="0"
             style="fill:#dcdcdc" />
          <path
             d="M 43.4,51.5 H 42.9 C 38.3,51.1 30.5,50.3 29.8,49 29.7,48.8 29.7,48.5 29.9,48.3 30.5,47.4 26.7,41.9 24.2,39.9 22.3,38.4 21,38.8 17,40.2 l -0.7,0.2 c -4.2,1.4 -3,6.1 -3,6.2 L 13.5,47.4 0.3,44.5 V 0 l 41.9,8.1 2.4,12.8 V 21 Z M 30.8,48.6 c 1,0.6 6.6,1.4 11.6,1.8 L 43.5,21 41.2,9 1.2,1.2 v 42.5 l 10.9,2.4 C 11.9,44.5 12,40.7 15.9,39.4 l 0.7,-0.2 c 4.1,-1.4 5.9,-2 8.2,-0.1 1.9,1.5 6.7,7.5 6,9.5 z"
             id="path1487"
             inkscape:connector-curvature="0"
             style="fill:#000000" />
        </g>
        <path
           d="m 41.7,124.1 c 0,0 -0.1,0 0,0 l -9.1,-1.8 c -0.2,0 -0.3,-0.1 -0.4,-0.3 -0.1,-0.1 -0.1,-0.3 0,-0.5 0,0 2,-3.3 3.3,-6.2 1.3,-2.7 1,-6.5 1,-6.6 0,-0.2 0.1,-0.4 0.3,-0.5 0.2,-0.1 0.4,0 0.6,0.2 l 2,2.7 c 0,0.1 0.1,0.1 0.1,0.2 l 2.6,12.1 c 0,0.2 0,0.3 -0.1,0.5 0,0.2 -0.2,0.2 -0.3,0.2 z m -8.2,-2.6 7.6,1.5 -2.4,-11.3 -1,-1.4 c 0,1.5 -0.2,3.7 -1.1,5.5 -1.1,2.2 -2.5,4.6 -3.1,5.7 z"
           id="path1491"
           inkscape:connector-curvature="0"
           style="fill:#000000" />
        <path
           d="m 19.9,169.7 c -1.8,0 -3.7,-0.2 -5.7,-0.6 -4,-0.8 -4.6,-2 -5.3,-3.2 -0.3,-0.6 -0.6,-1.2 -1.4,-1.7 -0.6,-0.5 -1.5,-1.2 -1.3,-2 0.2,-0.8 1.3,-0.9 1.5,-1 0,0 0,0 0.1,0 h 4.4 c 0,-1 0.2,-3.3 1,-4.9 0.8,-1.7 1.9,-1.9 3.3,-2.2 0.5,-0.1 1.1,-0.2 1.8,-0.5 2.6,-0.9 3.7,-0.7 7.4,1.4 3.9,2.1 4.9,8.2 5,8.5 0,0.1 0,0.1 0,0.2 0,0.1 -0.3,1.8 -2.6,3.9 -1.5,1.3 -4.5,2.1 -8.2,2.1 z M 7.3,162.5 c 0,0 0,0.3 0.9,0.9 1,0.7 1.3,1.4 1.7,2.1 0.6,1.1 1.1,2 4.6,2.7 5.7,1.1 11,0.5 13.1,-1.4 1.8,-1.6 2.2,-2.9 2.3,-3.2 -0.1,-0.8 -1.3,-5.9 -4.5,-7.7 -3.7,-2 -4.4,-2 -6.6,-1.3 -0.7,0.2 -1.4,0.4 -1.9,0.5 -1.3,0.3 -2.1,0.4 -2.6,1.7 -0.9,1.9 -0.9,5 -0.9,5 0,0.1 -0.1,0.3 -0.1,0.4 -0.1,0.1 -0.2,0.1 -0.4,0.1 H 8 c -0.4,0 -0.7,0.1 -0.7,0.2 z"
           id="path1493"
           inkscape:connector-curvature="0"
           style="fill:#000000" />
        <g
           transform="translate(34,147)"
           id="g1499">
          <path
             d="m 32.2,95.7 c 0,-2.4 5.3,-10 8.4,-14.2 3.1,-4.2 5.9,-14.4 5.9,-14.4 0,0 3.6,3.8 6.3,7.5 2.7,3.7 9.1,19.7 10,21.3 0.9,1.6 37.7,82.5 37.7,82.5 0,0 0.4,2.7 0.2,6.2 -0.2,3.5 -4.9,4.4 -2,8.9 2.9,4.4 2.4,4.2 6.2,2.7 3.8,-1.6 15.1,0.7 16.6,0 1.6,-0.7 3.1,-5.5 3.1,-7.5 0,-2 -7.5,-16.2 -7.5,-16.2 0,0 -3.3,-30.8 -9.2,-43.3 C 102,116.7 91.6,94.4 91.6,94.4 L 89.2,76.2 c 0,0 -1.8,-18.9 -2.3,-19.5 C 86.4,56 85.8,54.5 85.6,52.7 85.4,50.9 86,51.6 86.7,50 87.4,48.4 86,48.2 85.4,46.5 84.7,44.7 84.3,36.1 84.1,30.5 83.9,24.9 80.6,17.6 79,14.7 77.4,11.8 74.7,1.2 74.7,1.2 74.7,1.2 38.4,14.8 27.5,14.7 16.6,14.6 17.1,12 17.1,12 c 0,0 -0.9,2.3 -4,5 -3.1,2.7 -1.6,13.3 -0.2,16 1.4,2.7 -8.2,24.4 -8.2,26.8 0,2.4 -4.4,47 -4,49 0.4,2 -0.2,6.2 0,9.1 0.2,2.9 0.9,3.1 1.1,4.7 0.2,1.6 0.2,7.8 2.9,14.9 2.7,7.1 10.2,40.8 11.1,42.4 0.9,1.6 0,5.1 0,8.9 0,3.8 1.6,4 4.4,6.2 2.9,2.2 0.9,3.3 2.4,4.2 1.5,0.9 8,2.7 12.4,2 4.4,-0.7 13.8,-2.2 12.9,-3.9 -0.9,-1.6 0,-8.6 -1.1,-10.8 -1.1,-2.2 -3.3,-9.3 -2.9,-10.9 0.4,-1.6 -2.2,-7.1 -5.1,-10.4 -2.9,-3.3 -1.1,-4.2 -1.8,-6.9 -0.7,-2.7 -1.1,-5.1 -0.4,-8 0.7,-2.9 -4.4,-20.6 -5.5,-22.8 -1.1,-2.2 -0.4,-4.9 -1.6,-6 -1.1,-1.1 -1.8,-2.2 -0.7,-3.3 1.1,-1.1 0,-2.2 -0.9,-3.8 -0.9,-1.6 -0.7,-3.8 0,-6 z"
             id="path1495"
             inkscape:connector-curvature="0"
             style="fill:#969696" />
          <path
             d="m 33,201.7 c -4.2,0 -9.1,-1.4 -10.5,-2.2 -0.9,-0.5 -0.9,-1.2 -1,-1.7 0,-0.7 -0.1,-1.4 -1.5,-2.5 -0.5,-0.4 -1,-0.8 -1.5,-1.1 -2,-1.4 -3.2,-2.2 -3.2,-5.5 0,-1.4 0.1,-2.8 0.2,-4 0.2,-2 0.3,-3.8 -0.2,-4.7 -0.4,-0.7 -1.7,-5.9 -3.9,-15 C 8.9,154.6 5.7,141.6 4.2,137.6 2,131.7 1.6,126.4 1.4,123.9 c 0,-0.5 -0.1,-1 -0.1,-1.2 -0.1,-0.6 -0.2,-0.9 -0.4,-1.4 -0.3,-0.7 -0.6,-1.5 -0.7,-3.3 -0.1,-1.3 0,-2.9 0.1,-4.5 0.1,-1.8 0.2,-3.5 0,-4.6 -0.3,-1.2 1,-15.1 2.6,-33.2 0.7,-8.1 1.4,-15 1.4,-15.9 0,-1 1.1,-4 3.1,-9.4 2.3,-6.3 5.9,-15.8 5.2,-17.2 -1.4,-2.8 -3,-13.7 0.3,-16.6 3,-2.5 3.8,-4.7 3.9,-4.8 0.1,-0.2 0.4,-0.4 0.6,-0.3 0.2,0.1 0.4,0.3 0.4,0.6 v 0 c 0,0 0.3,2.1 9.9,2.1 0,0 0,0 0,0 10.7,0 46.6,-13.4 47,-13.5 0.1,-0.1 0.3,0 0.4,0 0.1,0.1 0.2,0.2 0.3,0.3 0,0.1 2.7,10.6 4.2,13.4 1.8,3.4 4.9,10.6 5.2,16 0.4,8.9 0.8,14.5 1.3,15.8 0.2,0.6 0.5,1 0.8,1.4 0.5,0.6 1,1.3 0.5,2.5 -0.3,0.7 -0.6,1 -0.8,1.3 -0.2,0.2 -0.3,0.3 -0.2,1.1 0.2,1.7 0.8,3.2 1.2,3.8 0.5,0.7 1.7,12.7 2.4,19.8 l 2.4,18.1 c 0.6,1.4 10.6,22.8 16.3,34.8 5.7,12 9,41.4 9.3,43.3 1,1.8 7.6,14.3 7.6,16.3 0,1.9 -1.5,7.2 -3.4,8 -0.7,0.3 -2.4,0.2 -5.6,-0.1 -3.8,-0.3 -8.9,-0.8 -11.1,0.1 l -0.7,0.3 c -3.1,1.3 -3.4,1.1 -5.6,-2.4 l -0.5,-0.7 c -2,-3 -0.7,-4.7 0.5,-6.2 0.7,-0.9 1.4,-1.8 1.5,-3 0.2,-3.1 -0.1,-5.6 -0.2,-6 -12.7,-28 -37,-81.2 -37.7,-82.4 -0.3,-0.5 -1.1,-2.4 -2.2,-5 -2.4,-5.5 -5.9,-13.8 -7.7,-16.3 -2,-2.8 -4.5,-5.6 -5.6,-6.8 -0.8,2.6 -3.2,10.2 -5.8,13.7 -5.3,7.2 -8.3,12.3 -8.3,13.9 0,0.1 0,0.1 0,0.2 L 29,108.5 c -0.7,2.5 -0.8,4.3 0,5.6 0.2,0.3 0.3,0.5 0.5,0.8 0.7,1.2 1.5,2.4 0.3,3.6 -0.6,0.6 -0.7,1.3 0.7,2.6 0.7,0.7 0.8,1.8 0.9,3 0.1,1 0.2,2.1 0.7,3.1 1.2,2.3 6.3,20.2 5.6,23.2 -0.7,2.9 -0.2,5.3 0.4,7.8 0.3,1 0.2,1.8 0.1,2.5 -0.1,1.2 -0.2,2.2 1.5,4.2 2.7,3.2 5.7,9 5.2,10.9 -0.4,1.3 1.7,8.2 2.9,10.5 0.6,1.3 0.7,3.8 0.7,6.2 0,1.9 0,3.9 0.4,4.6 0.2,0.3 0.2,0.6 0,0.9 -0.3,0.5 -0.9,1.9 -13.2,3.7 -1.2,0 -2,0 -2.7,0 z M 17.1,13.2 c -0.6,0.9 -1.7,2.5 -3.7,4.2 -2.9,2.5 -1.3,12.9 -0.1,15.4 0.9,1.7 -1.6,8.5 -5.1,18 -1.6,4.2 -3,8.2 -3,9 0,0.9 -0.6,7.6 -1.4,16 -1.1,12.6 -2.9,31.7 -2.6,32.9 0.3,1.2 0.2,2.9 0.1,4.8 -0.1,1.5 -0.2,3.1 -0.1,4.3 0.1,1.7 0.4,2.4 0.7,3.1 0.2,0.5 0.3,0.9 0.4,1.6 0,0.3 0.1,0.7 0.1,1.3 0.2,2.5 0.6,7.7 2.7,13.4 1.5,4.1 4.7,17.1 7.3,27.5 1.7,7 3.5,14.2 3.8,14.8 0.6,1.1 0.5,2.9 0.3,5.2 -0.1,1.2 -0.2,2.5 -0.2,3.9 0,2.8 0.9,3.4 2.7,4.7 0.4,0.3 0.9,0.7 1.5,1.1 1.8,1.4 1.9,2.5 1.9,3.3 0,0.5 0,0.7 0.5,0.9 1.5,0.9 7.9,2.6 12.1,1.9 11.7,-1.8 12.5,-3 12.5,-3.2 -0.5,-0.9 -0.5,-2.8 -0.5,-5 0,-2.2 -0.1,-4.7 -0.6,-5.7 -1.1,-2.1 -3.4,-9.5 -2.9,-11.2 0.3,-1.2 -2,-6.5 -5,-10 -2,-2.3 -1.9,-3.6 -1.8,-4.9 0.1,-0.7 0.1,-1.3 -0.1,-2.1 -0.6,-2.6 -1.2,-5.1 -0.4,-8.2 0.6,-2.6 -4.3,-20.1 -5.5,-22.5 -0.6,-1.2 -0.7,-2.4 -0.8,-3.5 -0.1,-1 -0.2,-1.9 -0.6,-2.4 -0.6,-0.6 -2.3,-2.3 -0.7,-4 0.6,-0.6 0.3,-1.1 -0.5,-2.3 -0.2,-0.3 -0.3,-0.5 -0.5,-0.8 -0.9,-1.5 -0.9,-3.6 0,-6.4 l 4.2,-12.6 c 0.1,-2 2.9,-6.8 8.5,-14.4 3,-4.1 5.8,-14.2 5.9,-14.3 0,-0.2 0.2,-0.3 0.4,-0.4 0.2,0 0.4,0 0.5,0.1 0,0 3.6,3.8 6.3,7.6 1.9,2.6 5.5,11 7.8,16.5 1.1,2.5 1.9,4.4 2.2,4.9 0.9,1.6 36.2,79.2 37.7,82.6 0,0 0,0.1 0,0.1 0,0.1 0.5,2.8 0.2,6.3 -0.1,1.5 -0.9,2.6 -1.7,3.6 -1.1,1.4 -2,2.6 -0.4,5 l 0.5,0.7 c 2,3.1 2,3.1 4.4,2 l 0.7,-0.3 c 2.4,-1 7.5,-0.5 11.5,-0.2 2.3,0.2 4.6,0.4 5.1,0.2 1.3,-0.5 2.8,-5.1 2.8,-7.1 0,-1.4 -4.6,-10.5 -7.5,-16 0,-0.1 0,-0.1 -0.1,-0.2 0,-0.3 -3.4,-30.9 -9.2,-43.1 C 101.6,117 91.2,94.7 91.1,94.5 c 0,0 0,-0.1 0,-0.1 L 88.7,76.2 C 88,69.2 86.9,57.7 86.5,56.8 86,56.2 85.4,54.6 85.1,52.6 c -0.2,-1.2 0.1,-1.6 0.5,-2 0.2,-0.2 0.4,-0.4 0.6,-0.9 0.3,-0.7 0.1,-0.9 -0.4,-1.5 -0.3,-0.4 -0.7,-0.9 -1,-1.6 C 84.1,44.8 83.7,36.9 83.4,30.5 83.2,25.3 80.1,18.3 78.4,14.9 77,12.3 74.8,4 74.2,1.8 69.5,3.5 37.7,15.2 27.4,15.2 c 0,0 0,0 0,0 -5.4,0 -9,-0.7 -10.3,-2 z"
             id="path1497"
             inkscape:connector-curvature="0"
             style="fill:#000000" />
        </g>
        <g
           transform="translate(129,342)"
           id="g1505">
          <path
             d="m 27,1.9 v 5.2 h 0.6 v 7.8 c 0,0 -0.2,0.6 -0.6,1.5 -0.4,0.9 1.3,1.9 -1,2.7 -2.4,0.7 -11.8,3.1 -17.2,2.1 -5.4,-1 -8.6,-2.2 -7,-3.3 1.6,-1 1.9,-2.1 2.1,-3.5 C 4,12.9 7,10.3 6.6,7.6 6.2,4.9 7.3,2.3 7.3,2.3 7.3,2.3 13.2,0.6 16.1,0.8 18.8,0.9 27,1.9 27,1.9 Z"
             id="path1501"
             inkscape:connector-curvature="0"
             style="fill:#dcdcdc" />
          <path
             d="M 11.9,21.9 C 10.7,21.9 9.7,21.8 8.7,21.6 1.2,20.1 1,19.1 0.9,18.6 0.8,18.3 0.9,17.9 1.5,17.5 2.9,16.6 3.2,15.8 3.3,14.3 3.4,13.6 3.9,12.9 4.4,12 5.2,10.7 6.2,9.1 6,7.7 5.5,4.9 6.7,2.2 6.7,2.1 L 6.8,1.9 7,1.8 c 0.2,-0.1 6.1,-1.7 8.9,-1.5 2.8,0.2 10.7,1.2 11,1.2 l 0.4,0.1 v 5.1 h 0.6 v 8.5 c 0,0 -0.2,0.6 -0.7,1.6 -0.1,0.1 0,0.3 0.1,0.6 0.1,0.4 0.3,0.9 0.1,1.3 -0.2,0.4 -0.7,0.7 -1.5,1 -1.7,0.4 -8.6,2.2 -14,2.2 z m -10,-3.5 c 0,0 0.5,0.9 7,2.2 5.3,1 14.7,-1.4 16.9,-2.1 0.7,-0.2 0.9,-0.4 0.9,-0.5 0.1,-0.1 0,-0.3 -0.1,-0.6 C 26.5,17 26.3,16.5 26.5,16 26.8,15.3 27,14.8 27.1,14.7 V 7.4 H 26.5 V 2.2 C 24.8,2 18.4,1.2 16,1.1 13.6,1 8.8,2.2 7.7,2.5 7.5,3.2 6.8,5.2 7.1,7.3 c 0.3,1.8 -0.8,3.6 -1.7,5 -0.5,0.8 -0.9,1.5 -1,1.9 -0.1,1.4 -0.4,2.7 -2.3,3.9 -0.2,0.3 -0.2,0.3 -0.2,0.3 z"
             id="path1503"
             inkscape:connector-curvature="0"
             style="fill:#000000" />
        </g>
        <g
           transform="translate(37,344)"
           id="g1511">
          <path
             d="m 45.8,0.9 c 0,0 0.7,5.9 0.7,7.1 0,1.2 0,3 0,3 l 1,0.7 v 5 c 0,0 0,2.3 -6.5,2.6 -6.5,0.3 -8.3,-0.5 -9.6,0 -1.3,0.5 -1.5,3 -5.2,3.4 -3.7,0.4 -20.1,0.1 -21.9,0 C 2.5,22.6 0.6,22 1.2,21.4 1.8,20.8 3,19.3 3,19.3 3,19.3 1.5,19 3.9,16.7 6.3,14.3 15.3,8.9 16.8,6.3 18.3,3.8 19.7,2 19.7,2 19.7,2 23,4.7 28.9,4.1 34.8,3.7 45.8,0.9 45.8,0.9 Z"
             id="path1507"
             inkscape:connector-curvature="0"
             style="fill:#dcdcdc" />
          <path
             d="M 17.6,23.5 C 11.9,23.5 5.5,23.4 4.4,23.3 4.1,23.3 1.2,23 0.8,22 0.7,21.7 0.8,21.4 1,21.2 1.4,20.8 2,20 2.4,19.6 2.3,19.5 2.3,19.4 2.2,19.3 2,18.6 2.4,17.7 3.6,16.5 4.6,15.5 6.7,14 8.9,12.5 12,10.3 15.6,7.7 16.4,6.3 17.9,3.8 19.3,2 19.3,2 L 19.6,1.6 20,1.9 c 0,0 3.2,2.6 8.9,2 5.8,-0.6 16.7,-3.3 16.8,-3.3 l 0.5,-0.1 0.1,0.6 c 0,0.2 0.7,6 0.7,7.2 V 11 l 1,0.7 V 17 c 0,0.3 -0.2,2.8 -7,3.1 -3.6,0.2 -5.7,0 -7.2,-0.1 -1.2,-0.1 -1.8,-0.1 -2.3,0.1 -0.3,0.1 -0.6,0.5 -0.9,0.9 -0.7,0.9 -1.7,2.2 -4.4,2.6 -1.3,-0.1 -4.8,-0.1 -8.6,-0.1 z M 1.8,21.7 c 0.4,0.2 1.3,0.5 2.7,0.6 1.9,0.2 18.2,0.4 21.8,0 2.2,-0.3 3,-1.3 3.7,-2.2 0.4,-0.5 0.8,-1 1.4,-1.2 0.7,-0.3 1.5,-0.2 2.7,-0.1 1.4,0.1 3.5,0.3 7,0.1 5.8,-0.3 6,-2.1 6,-2.1 v -4.7 l -1,-0.7 V 8 C 46.1,7.1 45.6,3 45.4,1.5 43.1,2.1 34.2,4.2 29,4.7 24.1,5.2 20.9,3.5 19.8,2.7 19.3,3.3 18.3,4.8 17.2,6.6 16.3,8.2 12.8,10.7 9.4,13.1 7.2,14.6 5.2,16.1 4.3,17 3,18.3 3.1,18.8 3.1,18.8 l 0.8,0.1 -0.5,0.7 c 0,0.1 -1,1.4 -1.6,2.1 z"
             id="path1509"
             inkscape:connector-curvature="0"
             style="fill:#000000" />
        </g>
        <path
           d="m 130.1,223.7 c -1.8,0 -3.6,-0.2 -4.2,-0.8 l -0.2,-0.2 c -2.5,-2.5 -4.9,-5.3 -3.8,-7 0.9,-1.4 2.4,-2.4 3.1,-2.8 -0.8,-1.9 -1.5,-4.1 -1.2,-4.8 0,-0.3 -0.4,-1 -0.7,-1.7 -1,-2.3 -2.5,-5.8 -1.5,-8.5 0.5,-1.4 1,-2.6 1.4,-3.5 0.6,-1.5 1,-2.5 1,-3.4 0,-1.5 -5.1,-26.6 -5.7,-29 -0.7,-2.4 -7.5,-26.7 -7.5,-26.7 L 105.5,120 c -0.1,-0.2 0,-0.4 0.1,-0.5 0.3,-0.3 8.5,-7.5 12.6,-8.3 4.4,-0.9 8.6,-0.4 8.8,-0.4 0.2,0 0.4,0.2 0.4,0.4 0,0.3 4,26.9 4.8,29.6 0.6,2 5.2,18 4.5,22.5 -0.7,4.4 -1.4,31.1 0,33.4 1.5,2.5 5.4,13.4 5.5,13.8 0,0.1 0,0.1 0,0.2 v 1.1 c 0,3.1 -5,10.6 -6.5,11.3 -0.6,0.3 -3.2,0.6 -5.6,0.6 z m -23.5,-103.8 5.2,15 c 0,0 6.8,24.3 7.5,26.7 0.6,2.1 5.8,27.5 5.8,29.2 0,1.1 -0.4,2.1 -1.1,3.8 -0.4,0.9 -0.8,2.1 -1.3,3.5 -0.8,2.3 0.6,5.6 1.5,7.7 0.6,1.5 0.9,2.1 0.6,2.6 -0.1,0.4 0.6,2.6 1.4,4.4 0.1,0.2 0,0.5 -0.2,0.6 0,0 -2.1,1.1 -3.1,2.7 -0.6,0.9 0.7,2.8 3.7,5.8 l 0.2,0.2 c 0.9,0.9 7.5,0.5 8.7,-0.1 1,-0.5 5.9,-7.7 5.9,-10.4 v -1 c -0.4,-1 -4,-11.3 -5.4,-13.6 -1.6,-2.6 -0.8,-29.8 -0.1,-34.1 0.6,-4.1 -3.5,-19.1 -4.4,-22.1 -0.8,-2.6 -4.3,-25.9 -4.8,-29.4 -1.1,-0.1 -4.6,-0.3 -8.1,0.4 -3.6,0.9 -10.6,6.8 -12,8.1 z"
           id="path1513"
           inkscape:connector-curvature="0"
           style="fill:#000000" />
        <g
           transform="translate(121,210)"
           id="g1525"
           style="fill:#000000">
          <path
             d="M 4,4.6 2.8,3 C 3.6,2.5 4.2,2.2 4.2,2.1 l 0.9,1.8 c 0,0 -0.5,0.3 -1.1,0.7 z"
             id="path1515"
             inkscape:connector-curvature="0" />
          <path
             d="m 5.8,15.4 c -0.1,0 -0.3,0 -0.4,0 C 3.6,15 2.6,11.8 2.4,10.8 l -0.9,-3.9 2.6,3 c 0.6,0.7 1.3,1.3 1.7,1.8 L 6,11.9 c 0,0 0,0 0,0 0,0 0.5,0.3 2.3,0.4 l 3,0.1 -2.8,2 c -1.2,0.7 -2,1 -2.7,1 z"
             id="path1517"
             inkscape:connector-curvature="0" />
          <path
             d="m 22.4,15.5 c -0.4,0 -0.7,-0.1 -1,-0.2 -1.1,-0.5 -1.6,-2.7 -1.7,-6.4 h -3.3 l 0.9,-1.5 c 1.5,-2.5 2.5,-4.7 2.5,-5.8 l 0.1,-0.9 h 4 c 2.9,0 4.5,1.3 5.3,2.2 L 29.7,3 v 10.3 l -0.6,0.3 c -2.3,0.9 -5.1,1.9 -6.7,1.9 z m -0.1,-2 c 0.6,0.1 2.9,-0.6 5.3,-1.6 V 4.1 C 27,3.5 25.9,2.6 23.9,2.7 h -2.2 c -0.3,1.4 -1.1,3 -1.8,4.2 h 1.8 v 1 c 0,2.5 0.3,5 0.6,5.6 z"
             id="path1519"
             inkscape:connector-curvature="0" />
          <path
             d="M 3.4,11.5 C 3.1,11.5 2.8,11.4 2.7,11.2 1.2,9.6 -0.6,7.2 0.6,5.4 1.1,4.6 1.9,3.8 2.9,3 3.2,2.8 3.7,2.7 4.1,3 4.4,3.2 4.6,3.7 4.5,4.1 4.4,4.3 4.4,4.6 4.3,4.9 v 0 C 4,6.6 4,8.5 4.4,10.4 c 0.1,0.4 -0.1,0.9 -0.5,1.1 -0.2,0 -0.4,0 -0.5,0 z"
             id="path1521"
             inkscape:connector-curvature="0" />
          <polygon
             id="polygon1523"
             points="21.9,1.7 20.9,1.7 21.7,2.1 20.9,1.7 19.9,1.7 20,1.2 20.9,1.7 " />
        </g>
      </g>
    </g>
  </g>
</svg>
