<svg xmlns="http://www.w3.org/2000/svg" xmlns:xlink="http://www.w3.org/1999/xlink" viewBox="0 0 425.43 548.32"><defs><linearGradient id="Degradado_sin_nombre_7" x1="466" y1="494.31" x2="295.17" y2="494.31" gradientTransform="matrix(-1, 0, 0, 1, 516.57, 0)" gradientUnits="userSpaceOnUse"><stop offset="0" stop-color="#fff"/><stop offset="0.34" stop-color="#b3b3b2"/><stop offset="1"/></linearGradient><linearGradient id="Degradado_sin_nombre_10" x1="-244.23" y1="-159.63" x2="-238.31" y2="-159.63" gradientTransform="matrix(-0.99, 0.1, 0.1, 0.99, -3.98, 285.07)" gradientUnits="userSpaceOnUse"><stop offset="0" stop-opacity="0.6"/><stop offset="0.87" stop-opacity="0"/></linearGradient><linearGradient id="Degradado_sin_nombre_10-2" x1="265.43" y1="285.3" x2="366.68" y2="446.62" gradientTransform="matrix(-1, 0, 0, 1, 516.57, 0)" xlink:href="#Degradado_sin_nombre_10"/><linearGradient id="Degradado_sin_nombre_52" x1="343.32" y1="273.02" x2="300" y2="100.69" gradientTransform="matrix(-1, 0, 0, 1, 516.57, 0)" gradientUnits="userSpaceOnUse"><stop offset="0.13" stop-opacity="0"/><stop offset="1" stop-opacity="0.6"/></linearGradient><linearGradient id="Degradado_sin_nombre_18" x1="219.77" y1="105.18" x2="261.44" y2="105.18" gradientTransform="matrix(-1, 0, 0, 1, 516.57, 0)" gradientUnits="userSpaceOnUse"><stop offset="0" stop-color="#fff"/><stop offset="0.85" stop-color="#fff" stop-opacity="0"/></linearGradient><linearGradient id="Degradado_sin_nombre_6" x1="-32.48" y1="106.48" x2="-4.01" y2="106.48" gradientTransform="matrix(-1, 0.03, 0.03, 1, 235.97, 79.01)" gradientUnits="userSpaceOnUse"><stop offset="0.21" stop-color="#fff" stop-opacity="0"/><stop offset="0.92" stop-color="#fff"/></linearGradient><linearGradient id="Degradado_sin_nombre_7-2" x1="226.59" y1="492.15" x2="112.92" y2="492.15" gradientTransform="matrix(-1, 0, 0, 1, 380.08, 0)" xlink:href="#Degradado_sin_nombre_7"/><linearGradient id="Degradado_sin_nombre_10-3" x1="-52.59" y1="140.62" x2="-33.61" y2="200.72" gradientTransform="matrix(-1, 0.03, 0.03, 1, 235.97, 79.01)" xlink:href="#Degradado_sin_nombre_10"/><linearGradient id="Degradado_sin_nombre_10-4" x1="-26.31" y1="212.86" x2="36.6" y2="412.08" gradientTransform="matrix(-1, 0.02, 0.02, 1, 257.81, 64.15)" xlink:href="#Degradado_sin_nombre_10"/><linearGradient id="Degradado_sin_nombre_52-2" x1="125.57" y1="284.03" x2="111.37" y2="227.53" gradientTransform="matrix(-1, 0, 0, 1, 380.08, 0)" xlink:href="#Degradado_sin_nombre_52"/><linearGradient id="Degradado_sin_nombre_10-5" x1="106.79" y1="145.8" x2="111.46" y2="145.8" gradientTransform="matrix(-1, 0, 0, 1, 380.08, 0)" xlink:href="#Degradado_sin_nombre_10"/><linearGradient id="Degradado_sin_nombre_18-2" x1="-556.17" y1="-211.98" x2="-487.79" y2="-201.07" gradientTransform="matrix(-0.99, 0.13, 0.13, 0.99, -229.01, 380.48)" xlink:href="#Degradado_sin_nombre_18"/><linearGradient id="Degradado_sin_nombre_16" x1="-535.21" y1="-192.41" x2="-485.41" y2="-192.41" gradientTransform="matrix(-0.99, 0.13, 0.13, 0.99, -229.01, 380.48)" gradientUnits="userSpaceOnUse"><stop offset="0.15" stop-color="#fff" stop-opacity="0"/><stop offset="1" stop-color="#fff"/></linearGradient><linearGradient id="Degradado_sin_nombre_10-6" x1="-7.03" y1="221.67" x2="-32.63" y2="119.84" gradientTransform="matrix(-1, 0.03, 0.01, 0.45, 237.5, 130.98)" xlink:href="#Degradado_sin_nombre_10"/><linearGradient id="Degradado_sin_nombre_10-7" x1="30.61" y1="-3" x2="5.01" y2="-104.83" gradientTransform="matrix(0.62, 0.79, 0.3, -0.23, 217.27, 152.28)" xlink:href="#Degradado_sin_nombre_10"/><linearGradient id="Degradado_sin_nombre_6-2" x1="303.96" y1="157.36" x2="340.06" y2="151.93" gradientTransform="matrix(-1, 0, 0, 1, 516.57, 0)" xlink:href="#Degradado_sin_nombre_6"/><linearGradient id="Degradado_sin_nombre_10-8" x1="-4.55" y1="190.49" x2="-15.25" y2="147.93" gradientTransform="matrix(-0.83, -0.55, -0.27, 0.41, 260.21, 110.27)" xlink:href="#Degradado_sin_nombre_10"/><linearGradient id="Degradado_sin_nombre_10-9" x1="-8.91" y1="229.23" x2="-27.91" y2="153.66" gradientTransform="matrix(-0.83, -0.55, -0.27, 0.41, 260.21, 110.27)" xlink:href="#Degradado_sin_nombre_10"/><linearGradient id="Degradado_sin_nombre_52-3" x1="316.85" y1="125.68" x2="344.83" y2="125.68" xlink:href="#Degradado_sin_nombre_52"/><linearGradient id="Degradado_sin_nombre_11" x1="359.14" y1="81.73" x2="389.36" y2="81.73" gradientUnits="userSpaceOnUse"><stop offset="0" stop-opacity="0.6"/><stop offset="0.93" stop-opacity="0.09"/><stop offset="1" stop-opacity="0"/></linearGradient></defs><g style="isolation:isolate"><g id="Layer_1"><path d="M43.17,463.81v9.59s.36,3.46,3.71,3.38c0,0,3.68.15,3.76-3.38l.07-4,36.13.13" style="fill:none;stroke:#575757;stroke-miterlimit:10;stroke-dasharray:3"/><path d="M59.93,303.5a11.82,11.82,0,0,1,11.79-11.45H85.28A11.82,11.82,0,0,1,97.07,303.5c0,.13,0,.25,0,.37V327.3H91.77V303.87c0-.12,0-.24,0-.37h0a6.48,6.48,0,0,0-6.45-6.11H71.72a6.48,6.48,0,0,0-6.45,6.11c0,.13,0,.25,0,.37v24.48H59.9V303.87C59.9,303.75,59.93,303.63,59.93,303.5Z" style="fill:none;stroke:#1a171b;stroke-miterlimit:10;stroke-dasharray:3"/><path d="M86.84,463.81H41.23A10.24,10.24,0,0,1,31,453.58v-115a10.24,10.24,0,0,1,10.23-10.23h72.42" style="fill:none;stroke:#d6192c;stroke-miterlimit:10;stroke-dasharray:3"/><path d="M99,481.33v9.6s.36,3.46,3.71,3.38c0,0,3.68.15,3.76-3.38l.07-4,51.74.18H110.4l51.74-.18.07,4c.07,3.53,3.76,3.38,3.76,3.38,3.35.08,3.71-3.38,3.71-3.38v-9.6" style="fill:none;stroke:#575757;stroke-miterlimit:10;stroke-dasharray:3"/><path d="M120.08,329.3v16.58h-5.34V321.4c0-.12,0-.24,0-.37a11.81,11.81,0,0,1,11.78-11.45h13.56A11.82,11.82,0,0,1,151.91,321c0,.13,0,.25,0,.37v23.42h-5.34V321.4c0-.12,0-.24,0-.37h0a6.47,6.47,0,0,0-6.45-6.11H126.56a6.48,6.48,0,0,0-6.45,6.11c0,.13,0,.25,0,.37v7.9" style="fill:none;stroke:#1a171b;stroke-miterlimit:10;stroke-dasharray:3"/><path d="M97.07,345.88h74.55a10.23,10.23,0,0,1,10.22,10.23v115a10.23,10.23,0,0,1-10.22,10.22H97.07a10.23,10.23,0,0,1-10.23-10.22v-115A10.24,10.24,0,0,1,97.07,345.88Z" style="fill:none;stroke:#d6192c;stroke-miterlimit:10;stroke-dasharray:3"/><ellipse cx="126.4" cy="494.31" rx="94.16" ry="0.96" style="mix-blend-mode:multiply;opacity:0.39;fill:url(#Degradado_sin_nombre_7)"/><circle cx="222.01" cy="128.31" r="7.54" style="fill:none;stroke:#8e191b;stroke-miterlimit:10;stroke-width:1.01626672457074px"/><path d="M212.09,104.26l-31.82,34.47L175.41,198h0c4.16,20.69-3.65,66.81-3.65,66.81l66.17,3.93c.78-.82-.44-2,.34-2.84-.33-2.55.88-4.51.51-7.54-4.26-34.74-10.86-98.38-13-126.41a34.65,34.65,0,0,0-5.38-16l-1.23-1.49" style="fill:#d7192c"/><path d="M198.21,480.41l19,8.76a5.66,5.66,0,0,1,3.29,5.14H185.32v-1.93a9.68,9.68,0,0,1,1.41-5.06l4.17-6.91Z" style="fill:#7b654a"/><path d="M199.71,106.81s-.05-5.83,5.75-16.62l3.83-19.07L220.05,63l19.68-8.55L220,96.85l2.42,23.08Z" style="fill:#feca9b"/><path d="M220.59,102.25l.76,7.22S215.17,100.7,215.7,93l5.81.7Z" style="mix-blend-mode:multiply;opacity:0.52;fill:url(#Degradado_sin_nombre_10)"/><path d="M224.83,65.76c7.37-9.44,14.9-11.27,14.9-11.27s5.5,7.31,6.19,11.83c1.54,10.17-10.38,35.41-16.85,39-2.79,1.53-12.62-4.46-13.41-9.55-.49-3.12-.9-3.91-.57-6.49A52.05,52.05,0,0,1,224.83,65.76Z" style="fill:#feca9b"/><path d="M211.85,87.66c2.18-4.82,3.79-11.18.83-11.37-1.3-.08-3.23,1.55-3.23,1.55-2.73,2.93-3.7,6.07.62,13.73Z" style="fill:#feca9b"/><polygon points="215.44 83.5 212.19 81.56 211.45 84.35 214.67 86.34 215.44 83.5" style="fill:#feca9b"/><polygon points="238.82 258.71 251.32 362.87 152.5 429.23 150.46 423.59 198.73 367.28 219.14 267.06 238.82 258.71" style="fill:#c5b9ac"/><path d="M150.51,423.54l-12.94,5.14v6.49l19.33,20.72.13-.1a4.12,4.12,0,0,0,1.54-4.27l-5.48-22.6Z" style="fill:#7b654a"/><path d="M198.73,367.29l9.84-35.09,24.28-58.38,4.91,39.31a80.4,80.4,0,0,1-33.37,75.62L151.68,426l-.74-1.06-.48-1.34Z" style="mix-blend-mode:multiply;opacity:0.8;fill:url(#Degradado_sin_nombre_10-2)"/><polygon points="238.82 258.71 198.31 480.42 191 480.42 171.76 264.78 238.82 258.71" style="fill:#c5b9ac"/><path d="M199.71,106.81l-45.65,9s2.13,20.72,17.68,28.31Z" style="fill:#d7192c"/><polygon points="171.74 144.09 171.76 264.78 180.27 253.61 207.34 111.21 199.71 106.81 171.74 144.09" style="fill:#d7192c"/><polygon points="241.66 264.23 171.74 273.82 171.74 261.15 230.31 257.43 241.66 264.23" style="fill:#d7192c"/><polygon points="196.16 123.22 195.15 267.02 172.74 273.82 172.75 193.84 196.16 123.22" style="mix-blend-mode:multiply;opacity:0.56;fill:url(#Degradado_sin_nombre_52)"/><circle cx="221.17" cy="126.52" r="6.43" style="fill:none;stroke:#d7192c;stroke-miterlimit:10;stroke-width:1.01626672457074px"/><path d="M225.08,62.83s7.38,11.56-7.57,18.51c0,0-1.11-8.07-5.34-4.6s1.53,9.87,1.53,9.87L202,97.51,201.5,80Z" style="fill:#333"/><path d="M200.62,60.43l2.28-1.16S204.54,58,207,56.46l2.68,6.47a63,63,0,0,1,2.89,9L201.5,80,202,97.5C196.12,90.49,193.4,81.29,200.62,60.43Z" style="fill:#333"/><path d="M218.1,50.88c14.09-4.27,22.92,1.06,31,7.82L246.78,61c-8.05,7.76-15.49,9.59-43.77-1.76C203.94,58.49,211.2,53.2,218.1,50.88Z" style="fill:#333"/><polygon points="202.9 59.27 200.98 59.04 200.62 60.43 202.9 59.27" style="fill:#333"/><polygon points="222.66 68.79 225.07 62.83 207.72 58.17 205.44 66.1 211.01 75.19 222.66 68.79" style="fill:#333"/><path d="M257.43,106.3l.63-.4.17-.12h0a50.18,50.18,0,0,1,10.16-5.11c12.9-3.9,21,1,28.41,7.16l-1.33,1.28c-17.9,3.22-30.55,2.3-40.34-1.23.5-.37,1.28-.91,2.26-1.56Z" style="opacity:0.2;fill:url(#Degradado_sin_nombre_18)"/><path d="M253.22,146.28l11.59-13.55a107.45,107.45,0,0,1,6.05,27.65l-2.59.08-4.74,35.89-.46,4.23L261.53,202l.66,6.63L259.1,236.8C235.62,180.32,241.25,161.52,253.22,146.28Z" style="opacity:0.2;fill:url(#Degradado_sin_nombre_6)"/><ellipse cx="203.95" cy="492.15" rx="62.65" ry="0.84" style="mix-blend-mode:multiply;opacity:0.39;fill:url(#Degradado_sin_nombre_7-2)"/><path d="M266.11,185.67c6.21,8.49,11.54,41.22,22.61,63.53.79.93,9.94,8.28,11.18,11.61,3.36,9.08,2.63,14.84-.76,15.9-2.63.82-6.56-11.09-8.23-11-1.49,0,1.12,7.14-1.15,7.21s-6.9-20.93-6.9-20.93L265,227.59a14.67,14.67,0,0,1-2.19-4.43l-7.93-26.34,11.07-11.33Z" style="fill:#feca9b"/><path d="M282.86,252l-7.26-9.89.95-7.75,2.93,2.84,5.82,13.71,3.55,21.2C286.43,268.21,282.86,252,282.86,252Z" style="mix-blend-mode:multiply;opacity:0.52;fill:url(#Degradado_sin_nombre_10-3)"/><path d="M246.57,479.7l17.07,7.85a5.06,5.06,0,0,1,3,4.6H235v-1.73a8.76,8.76,0,0,1,1.27-4.54L240,479.7Z"/><path d="M222.3,444.82l-11.59,4.61v5.82L228,473.82l.11-.09a3.7,3.7,0,0,0,1.38-3.84l-4.91-20.24Z"/><polygon points="249.38 385.15 258.35 353.35 260.68 288.52 276.82 238.56 304.7 352.42 265.24 400.25 249.38 385.15" style="fill:#d7192c"/><polygon points="224.23 449.97 222.28 444.96 249.38 385.15 265.24 400.25 224.23 449.97" style="fill:#feca9b"/><polygon points="271.4 272.31 277.04 384.93 223.05 446.53 222.28 444.96 249.38 385.15 271.4 272.31" style="mix-blend-mode:multiply;opacity:0.8;fill:url(#Degradado_sin_nombre_10-4)"/><polygon points="255.63 409.36 246.71 480.12 240.16 480.28 234 412.79 255.63 409.36" style="fill:#feca9b"/><path d="M234,412.79,223.32,295.72a124.62,124.62,0,0,1,13.22-68.18h0l40.28,11-21.19,170.8Z" style="fill:#d7192c"/><path d="M269.29,162.39l3.3-.22s3,8.94,6.31,16,5.77,13.29,4.29,20.46S281.68,231,281.68,231l-.18,9.65-47.23-13.3,22.07-55.13Z" style="fill:#c5b9ac"/><path d="M250.75,147.14l18.54,15.26,4.3,4.52a131.73,131.73,0,0,1-22.28,40l-17,20.46C229.74,180.09,239.4,159.64,250.75,147.14Z" style="fill:#c5b9ac"/><path d="M227.58,461.91l-3.5-.48-1.68-2.22a11.82,11.82,0,0,1-1.14-12.39l1-2,2.35,4.83Z" style="fill:#feca9b"/><path d="M240,479.7h0a7.29,7.29,0,0,0,7.47,6.87l8.91-.22-.57-2.39-9.26-4.26Z" style="fill:#feca9b"/><polygon points="263.61 235.61 263.61 272.31 268.12 284.05 259.81 285.67 253.77 232.84 263.61 235.61" style="fill:url(#Degradado_sin_nombre_52-2)"/><polygon points="273.29 146.19 270.86 162.29 269.29 162.4 254.88 151.16 267.28 122.82 273.29 146.19" style="fill:#feca9b"/><path d="M273.06,145.28l.23.91-.77,5.13v0a24.32,24.32,0,0,1-3.89-11.1Z" style="fill:url(#Degradado_sin_nombre_10-5)"/><path d="M270.31,114.62c4.12-9.92,10.2-13.28,10.2-13.28s6.49,5,8.15,8.74c3.76,8.42-.54,33.06-5.29,37.66-2.05,2-12-.85-13.86-5.06-1.16-2.58-1.7-3.16-2-5.48A46.54,46.54,0,0,1,270.31,114.62Z" style="fill:#feca9b"/><path d="M229.46,141.36s8.68,0,12.35,3.12,14.09,12,27.54,10.3l-2.79-24.62,1.48-2.41a65.69,65.69,0,0,0,15.42-9.07c1.33-1.07,2.63-2.18,3.86-3.37l3.43-3.31q-.87-1.94-1.77-3.69h0c-1-2-2.05-3.81-3.12-5.54A30.35,30.35,0,0,0,277.08,95a5.91,5.91,0,0,1,1.05.85,5.73,5.73,0,0,0-1.07-.87,20,20,0,0,0-22.45,5.58c-10,11.12-6.5,11-13.09,16.72S228.07,132.09,229.46,141.36Z" style="fill:#333"/><path d="M283.71,113.59a69.44,69.44,0,0,1-47.07,8.57,45.87,45.87,0,0,1,4.88-4.88c6.59-5.67,3.07-5.6,13.09-16.72A20,20,0,0,1,277.06,95a5.73,5.73,0,0,1,1.07.87,5.91,5.91,0,0,0-1.05-.85,30.35,30.35,0,0,1,8.78,7.77c1.07,1.73,2.11,3.56,3.12,5.54.27.53.54,1.12.81,1.68Z" style="opacity:0.05;fill:url(#Degradado_sin_nombre_18-2)"/><polygon points="292.72 124.14 269.9 125.56 269.9 124.64 292.76 122.24 292.72 124.14"/><polygon points="294.16 118.98 292.76 129.94 292 129.94 292 118.98 294.16 118.98"/><g style="opacity:0.07"><path d="M241.52,117.28c6.59-5.67,3.07-5.6,13.09-16.72A19.68,19.68,0,0,1,273.53,94a111.43,111.43,0,0,0-19.27,18.15c-8.24,12.93-7.46,21.89-4.33,30.76l3.73,9.37a48.16,48.16,0,0,1-11.85-7.77c-3.67-3.12-12.35-3.12-12.35-3.12C228.07,132.09,234.93,123,241.52,117.28Z" style="fill:url(#Degradado_sin_nombre_16)"/></g><path d="M270,129.56c.74-4.68.62-10.55-2-10-1.14.23-2.42,2.1-2.42,2.1-1.66,3.18-1.75,6.12,3.81,11.72Z" style="fill:#feca9b"/><path d="M254.79,155.71c-26.54-.45-17.53,70.24-17.53,70.24l3.08.45S230,155.33,254.82,156.8c13.15.78,24.08,69.31,24.08,69.31a2.35,2.35,0,0,0,2.8-.13S268,155.93,254.79,155.71Z" style="fill:#2a2a29"/><path d="M287.93,222.86a35.28,35.28,0,0,1,2.16,12.2c0,18.35-13.85,33.23-30.94,33.23s-30.95-14.88-30.95-33.23a35.28,35.28,0,0,1,2.16-12.2Z" style="fill:#2a2a29"/><path d="M275,222.86a19.34,19.34,0,0,1,1.19,6.72c0,10.11-7.63,18.3-17,18.3s-17-8.19-17-18.3a19.34,19.34,0,0,1,1.19-6.72Z" style="fill:#1a171b"/><polyline points="246.32 214.39 249.89 201.65 260.9 198.13 263.43 191.1 259.76 232.65" style="mix-blend-mode:multiply;opacity:0.52;fill:url(#Degradado_sin_nombre_10-6)"/><path d="M247.6,238.17l-4.53-42,19.85-2.27q-2,12.72-4.65,26.14-1.63,8.24-3.42,16.15Z" style="fill:#feca9b"/><polyline points="224.62 186.32 213.92 189.73 204.95 182.65 198.71 184.09 228.84 166.57" style="mix-blend-mode:multiply;opacity:0.52;fill:url(#Degradado_sin_nombre_10-7)"/><path d="M348.28,77.11a.73.73,0,0,1-.25,0l-11.48-3.83a.76.76,0,1,1,.48-1.45l11.49,3.82a.76.76,0,0,1,.48,1A.75.75,0,0,1,348.28,77.11Z" style="fill:#d7192c"/><path d="M337.24,85.29a.78.78,0,0,1-.73-.53.77.77,0,0,1,.49-1l11.52-3.74a.77.77,0,0,1,.48,1.46l-11.52,3.74A1,1,0,0,1,337.24,85.29Z" style="fill:#d7192c"/><path d="M340.49,93.47a.77.77,0,0,1-.45-1.39L350,84.72a.77.77,0,1,1,.92,1.23L341,93.32A.79.79,0,0,1,340.49,93.47Z" style="fill:#d7192c"/><polygon points="297.69 164.06 295.23 161.44 371.06 89.87 372.12 90.98 297.4 161.51 297.75 161.89 373.23 90.66 374.29 91.78 297.69 164.06"/><path d="M388.79,98.28,356.43,86.74a3.44,3.44,0,0,1-2.28-3.47l1.12-16a2.55,2.55,0,0,1,3.4-2.24L392.14,77a3.44,3.44,0,0,1,2.28,3.47l-1,14.79A3.44,3.44,0,0,1,388.79,98.28Z" style="fill:#db1f28"/><polygon points="300.29 159.31 299.22 153.76 297.03 156.28 295.23 161.75 300.29 159.31" style="fill:#eec399"/><polygon points="316.88 168.7 305.49 156.92 297.93 162.32 300.98 179.71 316.88 168.7" style="fill:#eec399"/><path d="M268.78,230.37l-.3.36c-6.7,9.68-14,14.39-17.8,12.55-.71-.35-2.67-1.6-3.19-6.85l3.27-9,47.84-59.79,8,6.59A344.73,344.73,0,0,1,285.81,208c-5.71,8.18-11.44,15.64-17,22.41" style="fill:#feca9b"/><path d="M234.51,174.7l7.43-2a69.77,69.77,0,0,1,6.91-1.93c5.27-1.27,4.2-7.55,4.2-7.55s7.88-4.14,7.84-7.17-11.53-8-17.74-5a22,22,0,0,0-3.8,2.37,23.82,23.82,0,0,0-8.7,14.12l-.14.68Z" style="fill:#feca9b"/><path d="M182.43,140.13s2.48,32.73,6.47,47.57l5.18,18.72s2.46,7,7.33,6.55,9.2-5.83,9.89-8,1-25,.83-38.26-4.55-33.41-4.55-33.41-4.77-17.16-19.81-7.4C187.77,125.86,181.47,129.35,182.43,140.13Z" style="fill:#d7192c"/><path d="M200.16,118.43l9.05-8.6,10.39,6-1.31,8.78-2,5.06c4.31,4.6,2.75,12.52,2.75,12.52S213.93,162.1,208.15,174c-4,8.2-10.17,20.32-14.14,27.6C176.73,152.36,185.24,133.77,200.16,118.43Z" style="opacity:0.2;fill:url(#Degradado_sin_nombre_6-2)"/><polyline points="211.06 189.67 221.89 180.49 233.06 183.76" style="mix-blend-mode:multiply;opacity:0.52;fill:url(#Degradado_sin_nombre_10-8)"/><path d="M214.11,211.14c3.28-11.59,24.57-28.45,24.56-40.24,0-1.91-4-6.51-4-6.51s-41.06,22-42,35.42c-.25,3.66,7.93,12.5,7.93,12.5S213.18,214.4,214.11,211.14Z" style="fill:#d7192c"/><polyline points="230.9 186.93 210.66 213.58 231.11 189.06" style="mix-blend-mode:multiply;opacity:0.52;fill:url(#Degradado_sin_nombre_10-9)"/><path d="M199.71,106.81s-18.3,42.65-28,37.28Z" style="mix-blend-mode:multiply;opacity:0.52;fill:url(#Degradado_sin_nombre_52-3)"/><path d="M385.13,94.17l-24.27-8.66a2.58,2.58,0,0,1-1.71-2.6l.83-12a1.92,1.92,0,0,1,2.56-1.68l25.11,9a2.58,2.58,0,0,1,1.71,2.59l-.78,11.1A2.58,2.58,0,0,1,385.13,94.17Z" style="mix-blend-mode:multiply;opacity:0.8;fill:url(#Degradado_sin_nombre_11)"/><path d="M114.78,103.41l-.32-.33v2.34h-7.87V56.8h7.87V78.23l.32-.26A10.67,10.67,0,0,1,122.14,75a15.48,15.48,0,1,1,0,30.95A9.79,9.79,0,0,1,114.78,103.41Zm7.36-5a7.86,7.86,0,1,0-7.68-7.84A7.87,7.87,0,0,0,122.14,98.37Z" style="fill:#db1f28"/><path d="M77.06,101.58a16.07,16.07,0,0,1-4.55-11A15.44,15.44,0,0,1,87.8,75h.32a15.26,15.26,0,0,1,11,4.49,15.61,15.61,0,0,1-11,26.7A16.09,16.09,0,0,1,77.06,101.58Zm3.13-11a8,8,0,1,0,7.94-8.14A8,8,0,0,0,80.19,90.53Z" style="fill:#db1f28"/><path d="M65.34,79.53a15.33,15.33,0,0,0-11-4.49A10.58,10.58,0,0,0,47,78l-.33.26V56.8H38.78v46.53a6.09,6.09,0,0,1,4-1.49A6,6,0,0,1,47,103.53c2.34,2.27,5,2.46,7.37,2.46a15.49,15.49,0,0,0,11-26.47h0v0Zm-11,18.84A7.86,7.86,0,1,1,62,90.53,7.85,7.85,0,0,1,54.35,98.37Z" style="fill:#db1f28"/><path d="M40,110.67a4.2,4.2,0,0,1-1.17-2.82,4,4,0,0,1,4-4A3.94,3.94,0,0,1,45.59,105a4,4,0,0,1-2.82,6.78A4.11,4.11,0,0,1,40,110.67Z" style="fill:#db1f28"/></g></g></svg>