<?xml version="1.0" encoding="UTF-8"?>
<svg width="301px" height="209px" viewBox="0 0 301 209" version="1.1" xmlns="http://www.w3.org/2000/svg" xmlns:xlink="http://www.w3.org/1999/xlink">
    <title>COCHE</title>
    <defs>
        <polygon id="path-1" points="2.06379991e-13 122.476037 299.805183 122.476037 299.805183 0.167432519 2.06379991e-13 0.167432519"></polygon>
        <path d="M0.0191215561,0.22478241 C0.289001746,0.840564709 0.562996702,1.45464595 0.845705278,2.06508207 L0.845705278,2.06508207 L1.03522652,2.47212049 C0.912993791,2.28500432 0.806009895,2.11076758 0.717179375,1.95305538 C0.414381063,1.41576467 0.181291715,0.831330405 0.0191215561,0.22478241 Z" id="path-3"></path>
        <linearGradient x1="-46.1839718%" y1="-2828.69088%" x2="68.1504397%" y2="593.191562%" id="linearGradient-5">
            <stop stop-color="#333333" offset="0%"></stop>
            <stop stop-color="#333333" offset="100%"></stop>
        </linearGradient>
        <path d="M0.00290454016,5.62660748 C3.90539629,-1.75791995 10.3036142,-1.22816249 12.3849593,4.68203534 C13.2292123,7.07906636 13.3463233,9.64142059 13.419874,12.1962785 L13.4318464,12.6219891 C13.445617,13.1185014 13.4591765,13.6143672 13.4775504,14.1083161 C13.5956684,17.2841878 14.0144063,20.6255479 15.916396,23.1657107 C16.9797191,24.5858203 18.4506828,25.6850077 19.959401,26.7321485 L20.2111402,26.9062361 C20.2951275,26.9641354 20.3791679,27.0219202 20.463198,27.0796366 L20.7151939,27.2526264 C20.7991399,27.310252 20.8830122,27.3678553 20.9667473,27.4254823 L21.2174777,27.5984808 C23.4692063,29.1569395 25.5747037,30.7663402 26.2856044,33.3341379 C27.1797187,36.5639573 25.3701901,39.8863628 23.428021,42.6131557 C23.36916,42.6957932 23.3100223,42.7785268 23.2506758,42.8613681 L23.0720771,43.1102267 C23.0123806,43.193295 22.9525429,43.2764825 22.8926319,43.3598007 L22.712747,43.6101591 C20.9730451,46.0343046 19.228738,48.5780966 19.1336583,51.5225584 C19.0487841,54.1407412 20.2819239,56.504079 21.5318657,58.8733542 L21.7062544,59.2040155 C22.8387871,61.3539056 23.935356,63.5186576 24.025146,65.8928371 C24.2110366,70.803543 17.6959109,75.3961514 12.8896231,76.3261431 C10.6386045,76.7618564 8.52966628,76.7360976 6.58580278,76.3985595 C20.5188819,33.2070447 12.9886195,17.9772466 0.107952076,5.71870752 L0.107952076,5.71870752" id="path-6"></path>
        <linearGradient x1="49.3226479%" y1="-0.20558215%" x2="51.8987256%" y2="100.338665%" id="linearGradient-8">
            <stop stop-color="#333333" stop-opacity="0.2" offset="0%"></stop>
            <stop stop-color="#333333" stop-opacity="0" offset="100%"></stop>
        </linearGradient>
        <path d="M0.193878056,0.0488446102 C18.97052,1.23253663 43.7898157,8.4666421 78.7507974,24.9510905 L78.7507974,24.9510905 L76.2606383,25.8662587 L8.0968898,25.8662587" id="path-9"></path>
        <linearGradient x1="-4.41509039%" y1="45.6353899%" x2="61.9479646%" y2="56.323076%" id="linearGradient-11">
            <stop stop-color="#333333" stop-opacity="0.2" offset="0%"></stop>
            <stop stop-color="#333333" stop-opacity="0" offset="100%"></stop>
        </linearGradient>
        <path d="M0.200655316,0.411898578 C41.5283891,-2.01696649 66.2738611,12.1761594 88.5223967,32.0002669 L88.5223967,32.0002669 L103.264632,46.2278999 L103.264632,46.2278999 L33.7870635,46.2278999 C21.4118925,22.7717922 10.620695,8.79088728 0.506926723,0.656606087" id="path-12"></path>
        <linearGradient x1="-6.52701932%" y1="38.0060348%" x2="72.4228209%" y2="59.976463%" id="linearGradient-14">
            <stop stop-color="#333333" stop-opacity="0.2" offset="0%"></stop>
            <stop stop-color="#333333" stop-opacity="0" offset="100%"></stop>
        </linearGradient>
        <path d="M0.0743078192,0.213604041 C22.8253289,0.337781135 50.2383789,8.71888442 86.1014625,29.8899853 L86.1014625,29.8899853 L1.99904977,29.8899853 C2.60392026,17.9067743 1.86810342,8.21950295 0.0743078192,0.213604041 Z" id="path-15"></path>
        <linearGradient x1="-4.1553647%" y1="47.1028113%" x2="92.0847662%" y2="61.6049757%" id="linearGradient-17">
            <stop stop-color="#FFFFFF" stop-opacity="0.2" offset="0%"></stop>
            <stop stop-color="#FFFFFF" offset="100%"></stop>
        </linearGradient>
        <polygon id="path-18" points="0 113.650472 107.987899 113.650472 107.987899 0 0 0"></polygon>
        <path d="M0.162073341,0.00583219226 C0.448461001,0.658162896 0.739495926,1.30874394 1.03982538,1.95524245 L1.03982538,1.95524245 L1.24111001,2.38624146 C1.11098661,2.18823853 0.997419092,2.00364965 0.903021537,1.83655734 C0.581488941,1.26733538 0.334022119,0.648248169 0.162073341,0.00583219226 Z" id="path-20"></path>
        <linearGradient x1="-46.438858%" y1="-2828.80691%" x2="68.1941974%" y2="593.221507%" id="linearGradient-22">
            <stop stop-color="#333333" offset="0%"></stop>
            <stop stop-color="#333333" offset="100%"></stop>
        </linearGradient>
        <path d="M0.236139115,5.85902034 C4.37946566,-1.96224108 11.1728946,-1.40118419 13.3829593,4.85879937 C14.5032404,8.03209518 14.417266,11.4792124 14.5427421,14.8429293 C14.6682183,18.2066462 15.1129034,21.7456204 17.1324302,24.4360107 C20.2684622,28.6141933 26.7444249,30.1696389 28.1420896,35.2060286 C29.0915838,38.6269009 27.1702305,42.1460457 25.108007,45.0344389 C24.8751753,45.3605149 24.6382635,45.6880109 24.4009949,46.0175572 L24.1976213,46.3005422 C22.4019165,48.8049388 20.646741,51.4371983 20.5481694,54.470926 C20.3724447,59.8884494 25.5364267,64.2751328 25.7420681,69.6914898 C25.9392864,74.8929304 19.0218335,79.7569788 13.9185565,80.7423277 C11.5287008,81.2036541 9.28930035,81.1765344 7.22533411,80.8187294 C22.019319,35.0715965 14.0237008,18.9409192 0.347383004,5.95670956 L0.347383004,5.95670956" id="path-23"></path>
        <linearGradient x1="49.3208714%" y1="-0.207292907%" x2="51.9032783%" y2="100.338031%" id="linearGradient-25">
            <stop stop-color="#333333" stop-opacity="0.2" offset="0%"></stop>
            <stop stop-color="#333333" stop-opacity="0" offset="100%"></stop>
        </linearGradient>
        <path d="M0.252694994,0.00466575381 C0.496385914,0.559307237 0.743852736,1.11249067 0.999161816,1.66217479 L0.999161816,1.66217479 L1.16994878,2.02872808 C1.05957625,1.86046933 0.962855064,1.70329175 0.882689756,1.56127787 C0.609372526,1.07720591 0.399083818,0.550850559 0.252694994,0.00466575381 Z" id="path-26"></path>
        <linearGradient x1="-46.4114903%" y1="-2828.86882%" x2="68.192567%" y2="593.230859%" id="linearGradient-28">
            <stop stop-color="#333333" offset="0%"></stop>
            <stop stop-color="#333333" offset="100%"></stop>
        </linearGradient>
        <path d="M0.260246799,5.12008158 C3.78316356,-1.53065886 9.56000349,-1.05329392 11.4389505,4.26974795 C12.2063946,6.4433493 12.308311,8.76814641 12.3746516,11.0851483 L12.3880762,11.5643646 C12.3991848,11.9635319 12.4105273,12.3621415 12.4253324,12.7593786 C12.5322194,15.6194857 12.9101001,18.6286053 14.6272643,20.9165743 C17.2939226,24.4695458 22.8006403,25.7919954 23.9888877,30.0742826 C24.7963498,32.9833801 23.162546,35.9755863 21.4090751,38.4315225 C21.1585792,38.7823705 20.9025233,39.1351467 20.6473226,39.4909385 L20.4561827,39.7583648 C18.9935432,41.813228 17.6122083,43.9767813 17.5318044,46.4557442 C17.4571577,48.7588769 18.5176054,50.8430108 19.618535,52.9270718 L19.8189064,53.3060399 L19.8189064,53.3060399 L20.018708,53.6852989 C20.9806828,55.5195575 21.8714559,57.3742532 21.9481577,59.397962 C22.1160402,63.820805 16.2340559,67.9569958 11.8946729,68.7947902 C9.86236612,69.1870051 7.95844005,69.1636764 6.20322643,68.8598191 C18.7827899,29.9599716 11.9841327,16.2438219 0.354644354,5.20319032 L0.354644354,5.20319032" id="path-29"></path>
        <linearGradient x1="49.3208979%" y1="-0.207268332%" x2="51.9032805%" y2="100.338104%" id="linearGradient-31">
            <stop stop-color="#333333" stop-opacity="0.2" offset="0%"></stop>
            <stop stop-color="#333333" stop-opacity="0" offset="100%"></stop>
        </linearGradient>
        <path d="M0.113857974,0.142305491 C0.226554133,0.39921356 0.341283469,0.65553841 0.459788708,0.910405211 L0.459788708,0.910405211 L0.539082654,1.08041362 C0.487672293,1.00226224 0.442942375,0.929359836 0.405764261,0.863456064 C0.27912631,0.639208271 0.18153376,0.395422635 0.113857974,0.142305491 Z" id="path-32"></path>
        <linearGradient x1="-46.438764%" y1="-2828.83462%" x2="68.1896963%" y2="593.206382%" id="linearGradient-34">
            <stop stop-color="#333333" offset="0%"></stop>
            <stop stop-color="#333333" offset="100%"></stop>
        </linearGradient>
        <path d="M0.153069267,2.33200207 C1.78571129,-0.750311534 4.46311642,-0.529271447 5.33418801,1.93774588 C5.77567811,3.18845951 5.74198545,4.54677708 5.79136263,5.87243438 C5.84073981,7.19809168 6.01588359,8.59286046 6.81172759,9.65315301 C8.04789988,11.2995809 10.5998289,11.9128359 11.1508201,13.8975309 C11.5249249,15.2456422 10.7677113,16.6325375 9.9547305,17.7706898 C9.14233062,18.9091337 8.20329278,20.0910275 8.15798196,21.4895872 C8.12492552,22.5063327 8.56910941,23.4309005 9.05226513,24.3510159 L9.19794273,24.6270047 C9.68451013,25.5471068 10.1662225,26.4715291 10.2048114,27.4879969 C10.2826531,29.5380125 7.55645169,31.4550541 5.54505763,31.8431865 C4.6034057,32.0248593 3.7210064,32.0143613 2.9074447,31.8732223 C8.73772817,13.844458 5.58659255,7.48736842 0.196927823,2.37049454 L0.196927823,2.37049454" id="path-35"></path>
        <linearGradient x1="49.3207966%" y1="-0.207382912%" x2="51.9032345%" y2="100.338253%" id="linearGradient-37">
            <stop stop-color="#333333" stop-opacity="0.2" offset="0%"></stop>
            <stop stop-color="#333333" stop-opacity="0" offset="100%"></stop>
        </linearGradient>
        <path d="M0.257923167,0.0122476037 C0.358129802,0.24086954 0.460369616,0.468908257 0.56551397,0.695780536 L0.56551397,0.695780536 L0.636094296,0.846834316 C0.590493015,0.777431228 0.550700815,0.712693894 0.517589057,0.654080362 C0.404892899,0.454619386 0.318047148,0.237370225 0.257923167,0.0122476037 Z" id="path-38"></path>
        <linearGradient x1="-46.4208165%" y1="-2829.40389%" x2="68.1917681%" y2="593.334437%" id="linearGradient-40">
            <stop stop-color="#333333" offset="0%"></stop>
            <stop stop-color="#333333" offset="100%"></stop>
        </linearGradient>
        <path d="M0.231201397,2.032519 C1.68405239,-0.710361017 4.06664668,-0.513524528 4.84128754,1.68171264 C5.23456228,2.79449492 5.20435506,4.00350837 5.24821362,5.18277765 C5.29236263,6.36233853 5.44804598,7.60342905 6.15646333,8.54707775 C6.59174498,9.12699207 7.21056647,9.56284402 7.82981365,9.98734758 L8.02516597,10.1211789 C8.90239291,10.7231154 9.74155541,11.3303457 10.0171781,12.3237138 C10.3500384,13.5233958 9.67647555,14.7574877 8.95324505,15.7705395 C8.23001455,16.7832997 7.3946688,17.8351355 7.35429569,19.0797254 C7.29242899,20.9792704 9.10340978,22.5178027 9.17544238,24.4170561 C9.24486089,26.2410742 6.81898894,27.9469905 5.02921129,28.2922562 C4.19125146,28.4540996 3.40615425,28.4444765 2.68205239,28.3190843 C7.87014203,12.2767647 5.06609895,6.61982982 0.270122235,2.06663733 L0.270122235,2.06663733" id="path-41"></path>
        <linearGradient x1="49.3209586%" y1="-0.207475118%" x2="51.9033783%" y2="100.338545%" id="linearGradient-43">
            <stop stop-color="#333333" stop-opacity="0.2" offset="0%"></stop>
            <stop stop-color="#333333" stop-opacity="0" offset="100%"></stop>
        </linearGradient>
        <polygon id="path-44" points="1.71659596e-13 115.246753 227.168887 115.246753 227.168887 0.179887728 1.71659596e-13 0.179887728"></polygon>
        <path d="M1.05289698,0.0222110605 C1.05289698,1.80219152 0.0160564074,3.04515961 0.0160564074,3.04515961 L0.127365318,1.30101093 L1.05289698,0.0222110605 Z" id="path-46"></path>
        <linearGradient x1="52.2261262%" y1="17.9191281%" x2="40.6061499%" y2="100%" id="linearGradient-48">
            <stop stop-color="#333333" stop-opacity="0" offset="0%"></stop>
            <stop stop-color="#333333" stop-opacity="0.2" offset="100%"></stop>
        </linearGradient>
        <path d="M5.68109823,0.0147041864 C8.66906378,0.205316876 9.99282536,1.35851204 11.0302865,2.86963805 L11.0302865,2.86963805 L12.4159467,5.07085475 C9.73057071,5.519642 5.3920829,4.7429514 2.01744493,2.47254763 L2.01744493,2.47254763 L0.0332763225,1.13144845 C2.36230863,0.39492349 4.08018909,0.109894445 5.68109823,0.0147041864 Z" id="path-49"></path>
        <linearGradient x1="9.70745139%" y1="45.4794607%" x2="91.1649423%" y2="57.2744554%" id="linearGradient-51">
            <stop stop-color="#FFFFFF" stop-opacity="0.2" offset="0%"></stop>
            <stop stop-color="#FFFFFF" stop-opacity="0" offset="100%"></stop>
        </linearGradient>
        <path d="M1.05429042,0.0419731785 L1.05429042,0.0530756103 C1.053416,0.167989575 1.02508487,1.1585109 0.323607919,2.25534254 L0.323607919,2.25534254 L0.0603254008,1.01466656 L1.05429042,0.0419731785 L1.05429042,0.0419731785 Z" id="path-52"></path>
        <linearGradient x1="39.9161579%" y1="74.7377126%" x2="60.0838421%" y2="28.2762055%" id="linearGradient-54">
            <stop stop-color="#333333" stop-opacity="0.2" offset="0%"></stop>
            <stop stop-color="#333333" stop-opacity="0" offset="100%"></stop>
        </linearGradient>
        <path d="M2.58471141,0.29496971 C2.58471141,0.29496971 5.09682473,-0.821736146 7.12108386,1.42117893 C7.75737029,2.1261943 8.98915636,3.96259701 9.60425564,5.93527548 C7.0155144,6.1718848 3.96608981,5.65175854 1.23947939,4.0479445 L1.23947939,4.0479445 L0.0122116196,3.32172932 C0.0663701525,3.21006483 0.119551756,3.09127281 0.174198754,2.98442092 C0.378865498,2.58503607 0.588233716,2.21525785 0.805783719,1.86625301 C1.41349497,1.11518288 1.9980652,0.622652913 2.57634645,0.301061608 C2.57921618,0.29917312 2.5816585,0.296858198 2.58471141,0.29496971 Z" id="path-55"></path>
        <linearGradient x1="14.345486%" y1="39.9017065%" x2="88.6414922%" y2="60.6714092%" id="linearGradient-57">
            <stop stop-color="#EEEEEE" stop-opacity="0.1" offset="0%"></stop>
            <stop stop-color="#EEEEEE" stop-opacity="0" offset="100%"></stop>
        </linearGradient>
        <path d="M0.0166078027,0.0489788614 C0.802852931,0.148276802 1.71310706,0.503008033 2.5417265,1.42117893 C3.82052731,2.83815444 7.50690998,8.82490646 3.75134848,11.3038217 L3.75134848,11.3038217 L3.75226436,11.3040653 C3.43561706,11.5009555 3.07922094,11.6947997 2.68936499,11.8634844" id="path-58"></path>
        <linearGradient x1="58.8013061%" y1="68.1246229%" x2="44.1329571%" y2="7.30762699%" id="linearGradient-60">
            <stop stop-color="#EEEEEE" stop-opacity="0.1" offset="0%"></stop>
            <stop stop-color="#EEEEEE" stop-opacity="0" offset="100%"></stop>
        </linearGradient>
        <polygon id="path-61" points="0 0.0186482805 21.8238471 0.0186482805 21.8238471 13.5132468 0 13.5132468"></polygon>
        <path d="M2.35896652,0.0178790649 L2.90948233,2.40431844 L0.00395904636,0.907882286 C0.117521166,0.924513974 0.232541881,0.935740364 0.350063046,0.935740364 C1.10457393,0.935740364 1.77594485,0.577327481 2.35896652,0.0178790649 L2.35896652,0.0178790649 Z" id="path-63"></path>
        <linearGradient x1="50%" y1="16.269553%" x2="100%" y2="83.730447%" id="linearGradient-65">
            <stop stop-color="#333333" stop-opacity="0.2" offset="0%"></stop>
            <stop stop-color="#333333" stop-opacity="0" offset="100%"></stop>
        </linearGradient>
        <path d="M0.482378543,1.89809143 C1.4358836,0.72514161 4.27535332,-0.478784727 6.4965867,0.555290494 C7.02188964,0.922019221 7.40425017,1.46317278 7.74222771,2.09496904 L7.74222771,2.09496904 L8.67843799,4.0178001 C6.91749584,4.81425008 3.5883546,3.04463844 2.37209388,2.33675221 C1.19125621,1.64944769 0.219622887,2.4758347 0.164404609,2.52448239 C0.165654834,2.51554286 0.166279947,2.50681122 0.168155285,2.49787169 C0.168780397,2.49496114 0.16940551,2.4920506 0.170238993,2.48914005 C0.173781298,2.47105309 0.17919894,2.45255034 0.184199841,2.43425548" id="path-66"></path>
        <linearGradient x1="26.7970662%" y1="45.2018872%" x2="92.4365975%" y2="59.7866542%" id="linearGradient-68">
            <stop stop-color="#FFFFFF" stop-opacity="0.1" offset="0%"></stop>
            <stop stop-color="#FFFFFF" stop-opacity="0" offset="100%"></stop>
        </linearGradient>
    </defs>
    <g id="ALP" stroke="none" stroke-width="1" fill="none" fill-rule="evenodd">
        <g id="01_Currents_flight_campaigns-ALP_1280_uncheck_age" transform="translate(-562.000000, -734.000000)">
            <g id="COCHE" transform="translate(562.000000, 734.000000)">
                <path d="M295,21.3043478 L295,35 L207.103093,40.199207 L295,42.6086957 L295,175 L1,175 L1,21.3043478 L295,21.3043478 Z M1.15734314,71.5217391 L1,77.6086957 L54.0412371,75.0168197 L1.15734314,71.5217391 Z M295,66.9565217 L146.484536,76.0869565 L294.939906,76.0869565 L295,66.9565217 Z M114.659794,31.9565217 L1.06868906,31.9565217 L1,39.5652174 L114.659794,31.9565217 Z M295,0 L295,3.04347826 L1,3.04347826 L1,0 L295,0 Z" id="fondo" fill="#DEFFFF"></path>
                <g id="arboles_colinas" transform="translate(0.000000, 27.000000)">
                    <g id="arbol" transform="translate(0.000000, 34.764969)">
                        <path d="M36.0355648,11.9942193 C35.2924866,15.4512512 34.0474071,18.779732 33.0530862,22.1723668 C32.0297198,25.6646349 30.9973979,29.217169 31.0099842,32.857429 C31.0262012,37.5921971 32.8979353,42.2956172 36.1355294,45.7383117 C37.4040873,47.0874921 38.8854028,48.266567 39.8625385,49.8410159 C40.8396742,51.4159508 41.1998372,53.5784791 40.1086983,55.0756515 C38.5341955,57.2357497 35.1661391,56.7677162 32.863807,58.1168967 C29.9648338,59.8157657 29.5618289,64.1459255 31.2147543,67.0792752 C32.8676797,70.0123818 40.3935853,78.4041775 51.1326384,76.325973 C55.9389263,75.3959813 62.4540519,70.8036159 62.2681613,65.89291 C62.0747674,60.7792925 57.2111149,56.6372209 57.3766737,51.5226313 C57.4851098,48.1720369 59.7288671,45.3402645 61.6710363,42.6132286 C63.6132055,39.8861927 65.422976,36.5637872 64.5286197,33.3339677 C63.2123789,28.579273 57.1130866,27.1105326 54.1594113,23.1657836 C52.2576637,20.6256208 51.8389258,17.2842607 51.7205658,14.108389 C51.6024478,10.9330033 51.6832908,7.67815401 50.6282166,4.68210824 C48.0688327,-2.58480331 38.9829469,-1.71823674 36.0355648,11.9942193" id="Fill-1" fill="#93DCC4"></path>
                        <mask id="mask-2" fill="white">
                            <use xlink:href="#path-1"></use>
                        </mask>
                        <g id="Clip-4"></g>
                        <polygon id="Fill-3" fill="#618080" mask="url(#mask-2)" points="47.0695256 92.796497 47.5749156 92.796497 47.5749156 30.2676198 47.0695256 30.2676198"></polygon>
                        <path d="M47.5717206,46.1926151 L47.0728658,46.1099924 C47.8902518,41.1244401 53.5378882,38.0236578 53.7779968,37.8941346 L54.0173793,38.3407833 C53.9607408,38.3714023 48.348201,41.455174 47.5717206,46.1926151" id="Fill-5" fill="#618080" mask="url(#mask-2)"></path>
                        <path d="M47.0729627,67.8957821 C46.5211,64.5286631 42.5198539,62.3291976 42.4791903,62.3070838 L42.7188149,61.8601921 C42.8926032,61.9542362 46.9790492,64.1976862 47.5718174,67.8134024 L47.0729627,67.8957821 Z" id="Fill-6" fill="#618080" mask="url(#mask-2)"></path>
                        <g id="Group-13" mask="url(#mask-2)">
                            <g transform="translate(30.497672, 0.000000)">
                                <g id="Group-9" transform="translate(0.000000, 65.126147)">
                                    <mask id="mask-4" fill="white">
                                        <use xlink:href="#path-3"></use>
                                    </mask>
                                    <g id="Clip-8"></g>
                                    <path d="M0.845705278,2.06508207 C0.562996702,1.45464595 0.289001746,0.840564709 0.0191215561,0.22478241 C0.181291715,0.831330405 0.414381063,1.41576467 0.717179375,1.95305538 C0.806009895,2.11076758 0.912993791,2.28500432 1.03522652,2.47212049 L0.845705278,2.06508207 Z" id="Fill-7" fill="url(#linearGradient-5)" mask="url(#mask-4)"></path>
                                </g>
                                <g id="Group-12" transform="translate(7.745440, 0.000000)">
                                    <mask id="mask-7" fill="white">
                                        <use xlink:href="#path-6"></use>
                                    </mask>
                                    <g id="Clip-11"></g>
                                    <path d="M19.1336583,51.5225584 C19.2418524,48.171964 21.4856097,45.3401916 23.428021,42.6131557 C25.3701901,39.8863628 27.1797187,36.5639573 26.2856044,33.3341379 C24.9691216,28.5789571 18.8700713,27.1104597 15.916396,23.1657107 C14.0144063,20.6255479 13.5956684,17.2841878 13.4775504,14.1083161 C13.3594325,10.9329304 13.4402755,7.67832411 12.3849593,4.68203534 C10.3036142,-1.22816249 3.90539629,-1.75791995 0.00290454016,5.62660748 L0.107952076,5.71870752 C12.9886195,17.9772466 20.5188819,33.2070447 6.58580278,76.3985595 C8.52966628,76.7360976 10.6386045,76.7618564 12.8896231,76.3261431 C17.6959109,75.3961514 24.2110366,70.803543 24.025146,65.8928371 C23.831752,60.7792196 18.9678575,56.637148 19.1336583,51.5225584" id="Fill-10" fill="url(#linearGradient-8)" mask="url(#mask-7)"></path>
                                </g>
                            </g>
                        </g>
                    </g>
                    <path d="M207.614159,135.845828 C127.679761,88.6580463 89.7183895,105.001064 51.8153506,134.717299 L50.4916064,135.845828 L207.614159,135.845828 Z" id="Fill-14" fill="#FEED99"></path>
                    <path d="M61.1775307,148.792177 L56.7626297,147.168883 C196.479725,81.2915987 244.848306,98.7317976 285.062875,134.564544 L299.805353,148.792177 L61.1775307,148.792177 Z" id="Fill-15" fill="#FEED99"></path>
                    <path d="M134.59339,148.843184 L137.083549,147.927773 C58.2787754,110.770876 30.9973979,120.60784 8.31511758,140.818574 L-9.68180052e-05,148.843184 L134.59339,148.843184 Z" id="Fill-16" fill="#E8E3DE"></path>
                    <g id="Group-19" transform="translate(58.332848, 122.976877)">
                        <mask id="mask-10" fill="white">
                            <use xlink:href="#path-9"></use>
                        </mask>
                        <g id="Clip-18"></g>
                        <path d="M0.193878056,0.0488446102 C4.65646197,7.30409178 7.68783372,15.4514214 8.0968898,25.8662587 L76.2606383,25.8662587 L78.7507974,24.9510905 C43.7898157,8.4666421 18.97052,1.23253663 0.193878056,0.0488446102" id="Fill-17" fill="url(#linearGradient-11)" mask="url(#mask-10)"></path>
                    </g>
                    <g id="Group-22" transform="translate(196.540551, 102.564204)">
                        <mask id="mask-13" fill="white">
                            <use xlink:href="#path-12"></use>
                        </mask>
                        <g id="Clip-21"></g>
                        <path d="M33.7870635,46.2278999 L103.264874,46.2278999 L88.5223967,32.0002669 C66.2738611,12.1761594 41.5283891,-2.01696649 0.200655316,0.411898578 C10.4028526,8.50941151 21.2868908,22.5348619 33.7870635,46.2278999" id="Fill-20" fill="url(#linearGradient-14)" mask="url(#mask-13)"></path>
                    </g>
                    <path d="M275.864729,157.240958 C195.930331,110.053176 157.96896,126.396194 120.065921,156.112429 L118.742177,157.240958 L275.864729,157.240958 Z" id="Fill-23" fill="#E8E3DE"></path>
                    <g id="Group-26" transform="translate(189.763291, 127.351021)">
                        <mask id="mask-16" fill="white">
                            <use xlink:href="#path-15"></use>
                        </mask>
                        <g id="Clip-25"></g>
                        <path d="M86.1014625,29.8899853 C50.2383789,8.71888442 22.8253289,0.337781135 0.0743078192,0.213604041 C1.86810342,8.21950295 2.60392026,17.9067743 1.99904977,29.8899853 L86.1014625,29.8899853 Z" id="Fill-24" fill="url(#linearGradient-17)" mask="url(#mask-16)"></path>
                    </g>
                    <g id="Group-44" transform="translate(142.201445, 0.000000)">
                        <path d="M18.5112154,12.8177589 C17.7223423,16.4792092 16.3999051,20.0047694 15.3443952,23.5982746 C14.2578068,27.297051 13.1619238,31.0599814 13.1749942,34.9156437 C13.1924214,39.9304542 15.1797078,44.9126045 18.6172311,48.5588911 C19.9640664,49.9877782 21.5368749,51.2364505 22.5746671,52.9041659 C23.6121688,54.5721729 23.9944063,56.8627664 22.8357852,58.4485395 C21.1642224,60.7365085 17.5881525,60.2404805 15.143401,61.6696592 C12.0654598,63.4691822 11.6376211,68.0556182 13.3925442,71.162427 C15.1474674,74.2692358 23.1384383,83.1574968 34.5407916,80.956719 C39.6440687,79.9713702 46.5615215,75.1070302 46.3643033,69.9058812 C46.1589523,64.4895242 40.9946799,60.1025492 41.1704045,54.6853174 C41.2857148,51.1364284 43.6680186,48.1369319 45.7302421,45.2485387 C47.7924657,42.3604371 49.713819,38.8412923 48.7643248,35.4204199 C47.3666601,30.3840303 40.8906973,28.8285846 37.7546653,24.6504021 C35.7351385,21.9600118 35.2904534,18.420746 35.1649773,15.0573207 C35.0395012,11.6936038 35.1254756,8.24648656 34.0051944,5.07319076 C31.2877066,-2.62384497 21.6405669,-1.70585791 18.5112154,12.8177589" id="Fill-1" fill="#93DCC4"></path>
                        <mask id="mask-19" fill="white">
                            <use xlink:href="#path-18"></use>
                        </mask>
                        <g id="Clip-4"></g>
                        <polygon id="Fill-3" fill="#575756" mask="url(#mask-19)" points="30.2266781 98.4016226 30.7634371 98.4016226 30.7634371 32.1724138 30.2266781 32.1724138"></polygon>
                        <path d="M30.7599226,49.3313358 L30.230425,49.2441445 C31.0983016,43.9630944 37.0947247,40.6789869 37.3494529,40.5416388 L37.6036002,41.0152128 C37.5434762,41.0475815 31.5842311,44.3136091 30.7599226,49.3313358" id="Fill-5" fill="#575756" mask="url(#mask-19)"></path>
                        <path d="M30.2303378,72.0273119 C29.6444921,68.4606347 25.3960212,66.1312572 25.353034,66.1079284 L25.6071813,65.634646 C25.7916196,65.7337933 30.1307121,68.1104116 30.7598355,71.9401206 L30.2303378,72.0273119 Z" id="Fill-6" fill="#575756" mask="url(#mask-19)"></path>
                        <g id="Group-13" mask="url(#mask-19)">
                            <g transform="translate(12.489523, -0.077277)">
                                <g id="Group-9" transform="translate(0.000000, 69.403088)">
                                    <mask id="mask-21" fill="white">
                                        <use xlink:href="#path-20"></use>
                                    </mask>
                                    <g id="Clip-8"></g>
                                    <path d="M1.03982538,1.95524245 C0.739495926,1.30874394 0.448461001,0.658162896 0.162073341,0.00583219226 C0.334022119,0.648248169 0.581488941,1.26733538 0.903021537,1.83655734 C0.997419092,2.00364965 1.11098661,2.18823853 1.24111001,2.38624146 L1.03982538,1.95524245 Z" id="Fill-7" fill="url(#linearGradient-22)" mask="url(#mask-21)"></path>
                                </g>
                                <g id="Group-12" transform="translate(8.132712, 0.000000)">
                                    <mask id="mask-24" fill="white">
                                        <use xlink:href="#path-23"></use>
                                    </mask>
                                    <g id="Clip-11"></g>
                                    <path d="M25.108007,45.0344389 C27.1702305,42.1460457 29.0915838,38.6269009 28.1420896,35.2060286 C26.7444249,30.1696389 20.2684622,28.6141933 17.1324302,24.4360107 C15.1129034,21.7456204 14.6682183,18.2066462 14.5427421,14.8429293 C14.417266,11.4792124 14.5032404,8.03209518 13.3829593,4.85879937 C11.1728946,-1.40118419 4.37946566,-1.96224108 0.236139115,5.85902034 L0.347383004,5.95670956 C14.0237008,18.9409192 22.019319,35.0715965 7.22533411,80.8187294 C9.28930035,81.1765344 11.5287008,81.2036541 13.9185565,80.7423277 C19.0218335,79.7569788 25.9392864,74.8929304 25.7420681,69.6914898 C25.5364267,64.2751328 20.3724447,59.8884494 20.5481694,54.470926 C20.6634796,50.922037 23.0457835,47.9225406 25.108007,45.0344389 Z" id="Fill-10" fill="url(#linearGradient-25)" mask="url(#mask-24)"></path>
                                </g>
                            </g>
                        </g>
                        <path d="M59.2597355,31.1904475 C58.5887867,34.3036718 57.4644392,37.3017102 56.5669363,40.3571957 C55.643002,43.502497 54.7109351,46.7020377 54.7222628,49.9806046 C54.737076,54.2448119 56.426647,58.4810248 59.3497762,61.5817098 C60.4950364,62.7965554 61.8325771,63.858306 62.7149764,65.2766952 C63.5970853,66.6947927 63.9223938,68.642745 62.9371738,69.9911478 C61.5156918,71.9364755 58.4746383,71.514808 56.3958589,72.7302369 C53.7785777,74.2603125 53.4149293,78.1602995 54.907282,80.8016994 C56.3993443,83.4433909 63.1942256,91.0016204 72.8898711,89.1300699 C77.2292541,88.2922755 83.1115288,84.1560847 82.9436464,79.7332417 C82.7687931,75.1278511 78.3777093,71.397581 78.5272931,66.7910239 C78.6251761,63.7734476 80.6508024,61.22303 82.4045637,58.7668022 C84.1580346,56.3111576 85.7918385,53.3186598 84.9843763,50.4098539 C83.7958385,46.1275667 78.2894112,44.8048255 75.6227529,41.251854 C73.9055888,38.9641766 73.5274176,35.9547654 73.420821,33.0946583 C73.3142244,30.2345512 73.3871284,27.3032914 72.4344392,24.6050277 C70.1238775,18.0601415 61.9205847,18.8404888 59.2597355,31.1904475" id="Fill-14" fill="#93DCC4" mask="url(#mask-19)"></path>
                        <polygon id="Fill-15" fill="#575756" mask="url(#mask-19)" points="69.2215821 103.963784 69.6778853 103.963784 69.6778853 47.6478443 69.2215821 47.6478443"></polygon>
                        <path d="M69.6749518,61.9905756 L69.224748,61.9162152 C69.9625012,57.4260104 75.0614215,54.6332651 75.2781002,54.5166212 L75.494198,54.9190425 C75.4433685,54.9467454 70.3761078,57.7240354 69.6749518,61.9905756" id="Fill-16" fill="#575756" mask="url(#mask-19)"></path>
                        <path d="M69.2246609,81.5373721 C68.7265323,78.5046321 65.1138652,76.523728 65.077268,76.5038986 L65.2936562,76.1014773 C65.450211,76.1860441 69.1398483,78.2066071 69.6748646,81.4630116 L69.2246609,81.5373721 Z" id="Fill-17" fill="#575756" mask="url(#mask-19)"></path>
                        <g id="Group-24" mask="url(#mask-19)">
                            <g transform="translate(54.024447, 20.335396)">
                                <g id="Group-20" transform="translate(0.000000, 58.905142)">
                                    <mask id="mask-27" fill="white">
                                        <use xlink:href="#path-26"></use>
                                    </mask>
                                    <g id="Clip-19"></g>
                                    <path d="M0.999161816,1.66217479 C0.743852736,1.11249067 0.496385914,0.559307237 0.252694994,0.00466575381 C0.399083818,0.550850559 0.609372526,1.07720591 0.882689756,1.56127787 C0.962855064,1.70329175 1.05957625,1.86046933 1.16994878,2.02872808 L0.999161816,1.66217479 Z" id="Fill-18" fill="url(#linearGradient-28)" mask="url(#mask-27)"></path>
                                </g>
                                <g id="Group-23" transform="translate(6.970896, 0.000000)">
                                    <mask id="mask-30" fill="white">
                                        <use xlink:href="#path-29"></use>
                                    </mask>
                                    <g id="Clip-22"></g>
                                    <path d="M17.5318044,46.4557442 C17.6296874,43.4378763 19.6556042,40.8874586 21.4090751,38.4315225 C23.162546,35.9755863 24.7963498,32.9833801 23.9888877,30.0742826 C22.8006403,25.7919954 17.2939226,24.4695458 14.6272643,20.9165743 C12.9101001,18.6286053 12.5322194,15.6194857 12.4253324,12.7593786 C12.3187357,9.89927153 12.3916397,6.9680117 11.4389505,4.26974795 C9.56000349,-1.05329392 3.78316356,-1.53065886 0.260246799,5.12008158 L0.354644354,5.20319032 C11.9841327,16.2438219 18.7827899,29.9599716 6.20322643,68.8598191 C7.95844005,69.1636764 9.86236612,69.1870051 11.8946729,68.7947902 C16.2340559,67.9569958 22.1160402,63.820805 21.9481577,59.397962 C21.7735949,54.7922798 17.3825111,51.0620096 17.5318044,46.4557442" id="Fill-21" fill="url(#linearGradient-31)" mask="url(#mask-30)"></path>
                                </g>
                            </g>
                        </g>
                        <path d="M2.42305454,71.1080709 C2.11197829,72.5509553 1.59090378,73.9404751 1.17497363,75.3565314 C0.746844412,76.8142878 0.31493929,78.2971227 0.320167462,79.8167004 C0.326847905,81.7929388 1.10991193,83.7563463 2.46487992,85.1933985 C2.99553941,85.7564966 3.61536828,86.2487336 4.02432753,86.9060217 C4.43328679,87.5633098 4.58403242,88.4658415 4.12743871,89.0910525 C3.468689,89.9927095 2.05911566,89.7970394 1.09567969,90.3604292 C-0.117256286,91.0696238 -0.285719616,92.8770201 0.405851397,94.1014889 C1.09742241,95.3256661 4.24652486,98.8287723 8.74013894,97.9612337 C10.7512426,97.5731014 13.4777344,95.6560598 13.3998927,93.6060442 C13.3188561,91.4717534 11.2836448,89.7428 11.3530633,87.6079261 C11.3983741,86.2093664 12.3371215,85.027181 13.1498118,83.8890287 C13.9625022,82.7505847 14.7197158,81.3636894 14.345611,80.0155782 C13.7949102,78.0308831 11.2426907,77.4179197 10.0068089,75.7712003 C9.2109649,74.7109077 9.03582113,73.3161389 8.98615349,71.9904816 C8.93677631,70.6648243 8.97046898,69.3065068 8.52897887,68.0557931 C7.45807491,65.0224699 3.65632229,65.3843575 2.42305454,71.1080709" id="Fill-25" fill="#93DCC4" mask="url(#mask-19)"></path>
                        <polygon id="Fill-26" fill="#575756" mask="url(#mask-19)" points="7.04002445 104.83628 7.25147497 104.83628 7.25147497 78.7357619 7.04002445 78.7357619"></polygon>
                        <path d="M7.25016793,85.3829739 L7.04162195,85.3485639 C7.38348632,83.2673461 9.7466202,81.9731827 9.84711729,81.9189433 L9.94732392,82.1055734 C9.92379715,82.1184043 7.57518597,83.4055691 7.25016793,85.3829739" id="Fill-27" fill="#575756" mask="url(#mask-19)"></path>
                        <g id="Group-34" mask="url(#mask-19)">
                            <g transform="translate(0.000000, 66.118106)">
                                <g id="Group-30" transform="translate(0.000000, 27.119694)">
                                    <mask id="mask-33" fill="white">
                                        <use xlink:href="#path-32"></use>
                                    </mask>
                                    <g id="Clip-29"></g>
                                    <path d="M0.459788708,0.910405211 C0.341283469,0.65553841 0.226554133,0.39921356 0.113857974,0.142305491 C0.18153376,0.395422635 0.27912631,0.639208271 0.405764261,0.863456064 C0.442942375,0.929359836 0.487672293,1.00226224 0.539082654,1.08041362 L0.459788708,0.910405211 Z" id="Fill-28" fill="url(#linearGradient-34)" mask="url(#mask-33)"></path>
                                </g>
                                <g id="Group-33" transform="translate(3.194994, 0.000000)">
                                    <mask id="mask-36" fill="white">
                                        <use xlink:href="#path-35"></use>
                                    </mask>
                                    <g id="Clip-32"></g>
                                    <path d="M9.9547305,17.7706898 C10.7677113,16.6325375 11.5249249,15.2456422 11.1508201,13.8975309 C10.5998289,11.9128359 8.04789988,11.2995809 6.81172759,9.65315301 C6.01588359,8.59286046 5.84073981,7.19809168 5.79136263,5.87243438 C5.74198545,4.54677708 5.77567811,3.18845951 5.33418801,1.93774588 C4.46311642,-0.529271447 1.78571129,-0.750311534 0.153069267,2.33200207 L0.196927823,2.37049454 C5.58659255,7.48736842 8.73772817,13.844458 2.9074447,31.8732223 C3.7210064,32.0143613 4.6034057,32.0248593 5.54505763,31.8431865 C7.55645169,31.4550541 10.2826531,29.5380125 10.2048114,27.4879969 C10.1237747,25.3534146 8.08856345,23.6247528 8.15798196,21.4895872 C8.20329278,20.0910275 9.14233062,18.9091337 9.9547305,17.7706898 Z" id="Fill-31" fill="url(#linearGradient-37)" mask="url(#mask-36)"></path>
                                </g>
                            </g>
                        </g>
                        <path d="M97.2911744,83.6380403 C97.0143717,84.9219974 96.5508071,86.1584222 96.1804782,87.4184673 C95.799693,88.7158385 95.4154224,90.0350803 95.4197792,91.3872741 C95.4258787,93.1459717 96.1229683,94.8930049 97.3283525,96.171713 C97.8006307,96.6726984 98.3522029,97.110696 98.7161418,97.6956649 C99.0797902,98.2803421 99.21398,99.0837266 98.8076348,99.6398262 C98.2214986,100.442044 96.9673182,100.268245 96.1101884,100.769522 C95.0305708,101.400565 94.8806965,103.008792 95.4961686,104.098246 C96.1113502,105.187699 98.9136505,108.304714 102.912331,107.532824 C104.702109,107.187558 107.12769,105.481642 107.058562,103.657623 C106.986529,101.75837 105.175549,100.219838 105.237125,98.3202927 C105.277788,97.0757028 106.113134,96.023867 106.836365,95.0108152 C107.559595,93.998055 108.233158,92.7639631 107.900298,91.5642812 C107.410011,89.7982933 105.139242,89.2526918 104.039293,87.7873534 C103.331166,86.8439964 103.175192,85.6029058 103.131333,84.423345 C103.087475,83.2437841 103.117392,82.0350622 102.724407,80.9222799 C101.771718,78.2231414 98.3885097,78.5450784 97.2911744,83.6380403" id="Fill-35" fill="#93DCC4" mask="url(#mask-19)"></path>
                        <polygon id="Fill-36" fill="#575756" mask="url(#mask-19)" points="101.39953 113.650472 101.587744 113.650472 101.587744 90.4252248 101.39953 90.4252248"></polygon>
                        <g id="Group-43" mask="url(#mask-19)">
                            <g transform="translate(94.978463, 79.240538)">
                                <g id="Group-39" transform="translate(0.000000, 24.203598)">
                                    <mask id="mask-39" fill="white">
                                        <use xlink:href="#path-38"></use>
                                    </mask>
                                    <g id="Clip-38"></g>
                                    <path d="M0.56551397,0.695780536 C0.460369616,0.468908257 0.358129802,0.24086954 0.257923167,0.0122476037 C0.318047148,0.237370225 0.404892899,0.454619386 0.517589057,0.654080362 C0.550700815,0.712693894 0.590493015,0.777431228 0.636094296,0.846834316 L0.56551397,0.695780536 Z" id="Fill-37" fill="url(#linearGradient-40)" mask="url(#mask-39)"></path>
                                </g>
                                <g id="Group-42" transform="translate(2.904540, 0.000000)">
                                    <mask id="mask-42" fill="white">
                                        <use xlink:href="#path-41"></use>
                                    </mask>
                                    <g id="Clip-41"></g>
                                    <path d="M8.95324505,15.7705395 C9.67647555,14.7574877 10.3500384,13.5233958 10.0171781,12.3237138 C9.52718219,10.557726 7.25612224,10.0121244 6.15646333,8.54707775 C5.44804598,7.60342905 5.29236263,6.36233853 5.24821362,5.18277765 C5.20435506,4.00350837 5.23456228,2.79449492 4.84128754,1.68171264 C4.06664668,-0.513524528 1.68405239,-0.710361017 0.231201397,2.032519 L0.270122235,2.06663733 C5.06609895,6.61982982 7.87014203,12.2767647 2.68205239,28.3190843 C3.40615425,28.4444765 4.19125146,28.4540996 5.02921129,28.2922562 C6.81898894,27.9469905 9.24486089,26.2410742 9.17544238,24.4170561 C9.10340978,22.5178027 7.29242899,20.9792704 7.35429569,19.0797254 C7.3946688,17.8351355 8.23001455,16.7832997 8.95324505,15.7705395 Z" id="Fill-40" fill="url(#linearGradient-43)" mask="url(#mask-42)"></path>
                                </g>
                            </g>
                        </g>
                    </g>
                </g>
                <g id="coche" transform="translate(38.000000, 93.000000)">
                    <mask id="mask-45" fill="white">
                        <use xlink:href="#path-44"></use>
                    </mask>
                    <g id="Clip-7"></g>
                    <path d="M63.7737806,98.6280612 C64.315749,98.3046587 70.1686506,73.1945063 70.1686506,73.1945063 C70.1686506,73.1945063 32.7929065,66.5127644 32.187715,66.5127644 C31.5823247,66.5127644 23.4531953,72.9790364 23.3446426,73.4099762 C23.2362886,73.8411137 18.0337094,91.4936349 18.0337094,91.4936349 C18.0337094,91.4936349 63.2318121,98.9514638 63.7737806,98.6280612 Z" id="Fill-34" fill="#948B81" mask="url(#mask-45)"></path>
                    <path d="M155.904126,97.87362 C156.987864,97.981355 211.724294,96.8152476 211.724294,96.8152476 L207.605453,84.294864 C207.605453,84.294864 200.018292,72.8868192 196.008003,73.094382 C191.997516,73.3021424 168.146927,69.4570916 164.030671,72.2955619 C159.914414,75.1344274 156.229188,72.8712026 154.278221,79.6606794 C152.327253,86.4501562 150.805328,87.210429 152.325066,91.302776 C153.844805,95.3949252 155.904126,97.87362 155.904126,97.87362" id="Fill-35" fill="#948B81" mask="url(#mask-45)"></path>
                    <path d="M22.2263902,95.9636077 C22.2263902,106.19744 30.5674559,114.493427 40.8565067,114.493427 C51.1455574,114.493427 59.4868219,106.19744 59.4868219,95.9636077 C59.4868219,85.7297751 51.1455574,77.4337879 40.8565067,77.4337879 C30.5674559,77.4337879 22.2263902,85.7297751 22.2263902,95.9636077" id="Fill-36" fill="#333333" mask="url(#mask-45)"></path>
                    <path d="M27.8942551,95.9636077 C27.8942551,103.083999 33.6976519,108.85622 40.8565663,108.85622 C48.0154807,108.85622 53.8186787,103.083999 53.8186787,95.9636077 C53.8186787,88.8432165 48.0154807,83.0709949 40.8565663,83.0709949 C33.6976519,83.0709949 27.8942551,88.8432165 27.8942551,95.9636077" id="Fill-37" fill="#999999" mask="url(#mask-45)"></path>
                    <path d="M32.1876951,95.9636077 C32.1876951,100.725493 36.068754,104.585765 40.8566061,104.585765 C45.6442593,104.585765 49.5253182,100.725493 49.5253182,95.9636077 C49.5253182,91.2017225 45.6442593,87.3414505 40.8566061,87.3414505 C36.068754,87.3414505 32.1876951,91.2017225 32.1876951,95.9636077" id="Fill-38" fill="#DDDDDD" mask="url(#mask-45)"></path>
                    <path d="M165.665264,95.9636077 C165.665264,106.19744 174.00633,114.493427 184.295381,114.493427 C194.58463,114.493427 202.925696,106.19744 202.925696,95.9636077 C202.925696,85.7297751 194.58463,77.4337879 184.295381,77.4337879 C174.00633,77.4337879 165.665264,85.7297751 165.665264,95.9636077" id="Fill-39" fill="#333333" mask="url(#mask-45)"></path>
                    <path d="M171.333229,95.9636077 C171.333229,103.083999 177.136427,108.85622 184.295341,108.85622 C191.454255,108.85622 197.257851,103.083999 197.257851,95.9636077 C197.257851,88.8432165 191.454255,83.0709949 184.295341,83.0709949 C177.136427,83.0709949 171.333229,88.8432165 171.333229,95.9636077" id="Fill-40" fill="#999999" mask="url(#mask-45)"></path>
                    <path d="M175.626569,95.9636077 C175.626569,100.725493 179.507628,104.585765 184.29548,104.585765 C189.083332,104.585765 192.964391,100.725493 192.964391,95.9636077 C192.964391,91.2017225 189.083332,87.3414505 184.29548,87.3414505 C179.507628,87.3414505 175.626569,91.2017225 175.626569,95.9636077" id="Fill-41" fill="#DDDDDD" mask="url(#mask-45)"></path>
                    <path d="M205.339285,62.8377965 C188.719581,59.5328043 167.61979,48.7557503 167.61979,48.7557503 C167.61979,48.7557503 131.634953,31.2253947 122.819317,29.2136173 C114.003681,27.2020376 92.325936,27.7766899 74.11671,27.9204024 C55.907484,28.0643126 45.2130504,33.0934595 35.9637998,40.2780963 C26.714748,47.4625354 10.6731971,52.9228198 10.6731971,52.9228198 L7.75897337,53.4405407 C4.76224163,53.9724944 2.58025192,56.5638661 2.58025192,59.5905265 L2.58025192,85.2164229 C2.58025192,88.1179527 4.54573258,90.6555557 7.3673087,91.3966536 L17.899112,94.1627734 C18.756798,94.3098464 19.5544419,93.7033678 19.6490777,92.8430696 C20.8024009,82.3595686 29.9172528,74.3921237 40.7862456,74.4049728 C52.3437331,74.4188103 61.8218193,83.8611369 61.814662,95.3526022 C61.8138667,96.6584685 61.6919934,97.9360667 61.4607721,99.1753153 C61.2219958,100.45489 62.2105017,101.634637 63.5194967,101.634637 L160.446164,101.634637 C162.329733,101.634637 163.792809,99.989159 163.543098,98.1331525 C163.423014,97.2398419 163.359393,96.3289379 163.356809,95.4034057 C163.322215,84.0530831 172.553771,74.6433735 183.966919,74.4095194 C195.798174,74.1671652 205.465731,83.6306434 205.465731,95.3393577 C205.465731,96.1144564 205.422986,96.8796711 205.340279,97.6328274 C205.105678,99.7659796 206.765978,101.634637 208.92411,101.634637 L222.862004,101.634637 C225.396094,101.634637 227.450644,99.5922199 227.450644,97.072408 L227.450644,83.6496206 C227.450644,81.8691274 227.335928,80.0890296 227.06733,78.3286997 C225.492122,68.0019581 220.400879,65.8328284 205.339285,62.8377965 Z" id="Fill-42" fill="#FCD100" mask="url(#mask-45)"></path>
                    <path d="M3.19437019,62.6223068 L14.6739224,62.6223068 C15.6572592,62.6223068 16.323288,63.6178174 15.9431545,64.5196282 L14.6536433,67.5789056 C13.4241742,70.495459 10.5544849,72.3933733 7.37404852,72.3933733 L3.19437019,72.3933733 C2.3762483,72.3933733 1.71300296,71.7339168 1.71300296,70.9204684 L1.71300296,64.0950141 C1.71300296,63.2815657 2.3762483,62.6223068 3.19437019,62.6223068" id="Fill-43" fill="#D7192D" mask="url(#mask-45)"></path>
                    <path d="M208.807644,67.364088 C215.12955,68.3265862 222.40994,74.2788932 222.40994,74.2788932 C224.150362,76.1384579 222.712734,79.1572112 220.163136,78.9970914 L207.837032,78.2225857 C205.276698,78.0616752 203.093515,76.3207178 202.379771,73.8704888 C201.180721,69.7550134 202.200639,66.3582982 208.807644,67.364088 L211.724294,73.8704888" id="Fill-44" fill="#C6E5E5" mask="url(#mask-45)"></path>
                    <path d="M2.64703372,86.1704012 C1.85694469,86.1512263 1.29668529,86.9407555 1.58814742,87.6713765 C2.41263137,89.7371201 4.18088799,91.3610517 6.44160827,91.9546812 L18.2426436,95.0540874 C19.2037132,95.2187539 20.0973846,94.5395294 20.2033528,93.5754498 C20.4220488,91.58858 20.8988061,89.6841422 21.5954522,87.8890208 C21.8312463,87.2807631 21.3862993,86.6252601 20.7308078,86.6094458 L2.64703372,86.1704012 Z" id="Fill-45" fill="#DFAA00" mask="url(#mask-45)"></path>
                    <path d="M205.564283,90.9998332 C204.66763,90.9780885 203.975755,91.7599082 204.09067,92.6441256 C204.21811,93.626787 204.284116,94.6286233 204.284116,95.6458785 C204.284116,96.5059791 204.236997,97.3550096 204.145145,98.1909933 C203.884897,100.558 205.727112,102.631453 208.121834,102.631453 L223.587419,102.631453 C226.399452,102.631453 228.678861,100.364867 228.678861,97.5690958 L228.678861,93.5896234 C228.678861,92.4612727 227.773459,91.5389033 226.639023,91.5112283 L205.564283,90.9998332 Z" id="Fill-46" fill="#EAB054" mask="url(#mask-45)"></path>
                    <path d="M160.718202,92.5526991 L104.744549,91.4670471 L104.744549,32.5903867 C107.378245,32.5148734 120.822483,32.4363949 132.955539,38.0237868 C145.542488,43.8205206 164.079957,53.8558837 166.831749,55.3517193 C166.015814,58.1253509 161.068712,75.599961 160.718202,92.5526991 L160.718202,92.5526991 Z M63.7919323,90.4235006 C63.5953047,89.059319 62.7336425,84.7424089 59.3502164,80.5172217 C55.7035599,75.9636901 48.3227685,70.7147243 33.8331639,71.4204377 L30.2153355,54.5404454 C31.8925351,52.7480915 45.6005996,38.347387 55.843923,35.1726651 C66.0924155,31.9969549 99.3797372,32.5152687 103.769165,32.5986892 L103.769165,91.444907 L63.7919323,90.4235006 Z M167.646292,54.6892976 C167.440917,54.5772137 146.95268,43.4008484 133.365693,37.1437207 C119.914099,30.9490594 104.897437,31.6059462 104.250296,31.6383655 C102.524785,31.5988297 66.5987962,30.8239287 55.5536537,34.2469352 C50.6241096,35.7746382 45.0340752,39.708765 40.283323,43.6750816 C34.3113601,48.6609649 29.665623,53.6977144 29.3252427,54.0691791 L29.1562504,54.2532181 L33.0532144,72.433937 L33.4705262,72.4106109 C44.8029556,71.7742828 53.4784274,74.7736636 58.5557535,81.0823855 C62.3938684,85.8515848 62.8678423,90.8882435 62.872415,90.9386516 L62.9095933,91.3711728 L103.769165,92.41551 L103.769165,92.4182775 L104.240952,92.4273708 L104.744549,92.4404176 L104.744549,92.4372547 L161.677283,93.5412909 L161.684838,93.054408 C161.969342,74.6586145 167.818665,55.4481866 167.877712,55.2562404 L167.994019,54.8790692 L167.646292,54.6892976 Z" id="Fill-47" fill="#FAB566" mask="url(#mask-45)"></path>
                    <path d="M1.58822695,87.6713369 C2.41271089,89.7370806 4.18096752,91.3608145 6.44168779,91.9546416 L18.2427232,95.0542456 C19.2037927,95.218912 20.0974641,94.5394899 20.2034323,93.5754103 C20.2877296,92.8084165 20.4115911,92.0540741 20.5708416,91.3133715 L1.58822695,87.6713369 Z" id="Fill-48" fill="#F68400" mask="url(#mask-45)"></path>
                    <path d="M204.257038,96.7350295 C204.234373,97.2242846 204.19799,97.7101791 204.145304,98.190934 C203.884857,100.557743 205.727271,102.631393 208.121993,102.631393 L223.587578,102.631393 C226.399412,102.631393 228.678821,100.364808 228.678821,97.5692341 L228.678821,96.7350295 L204.257038,96.7350295 Z" id="Fill-49" fill="#F68400" mask="url(#mask-45)"></path>
                    <path d="M164.490549,93.641949 C164.66809,92.4274103 163.757718,91.3269323 162.524074,91.2968851 L61.7103837,88.850412 C60.6105416,88.8237254 59.8176692,89.8672719 60.1176803,90.9195163 C60.6407614,92.7553595 60.9206923,94.688856 60.9194994,96.6832377 C60.9185054,98.0051159 60.7960356,99.2985285 60.5632238,100.553394 C60.3196759,101.864202 61.3141463,103.077357 62.6547528,103.077357 L161.308124,103.077357 C163.243385,103.077357 164.706461,101.375342 164.453967,99.4675439 C164.335672,98.5730472 164.273244,97.6611548 164.270461,96.7350295 C164.267081,95.6855526 164.342631,94.6528785 164.490549,93.641949 Z" id="Fill-50" fill="#DFAA00" mask="url(#mask-45)"></path>
                    <path d="M164.270461,96.7350295 C164.270262,96.7176338 164.271256,96.7006334 164.271256,96.6832377 L60.9194994,96.6832377 C60.9185054,98.0051159 60.7960356,99.2985285 60.5632238,100.553394 C60.3196759,101.864202 61.3141463,103.077357 62.6547528,103.077357 L161.308124,103.077357 C163.243385,103.077357 164.706461,101.375342 164.453967,99.4675439 C164.335672,98.5730472 164.273244,97.6611548 164.270461,96.7350295" id="Fill-51" fill="#F68400" mask="url(#mask-45)"></path>
                    <path d="M41.2494835,56.4079568 L96.9638819,56.9314103 C96.9638819,56.9314103 100.373949,56.840478 100.837982,53.6497442 C101.302214,50.459208 101.262849,36.7940664 101.262849,36.7940664 C101.262849,36.7940664 100.85846,34.050482 98.2156183,34.0154929 C96.6095944,33.9939459 83.1488551,33.037378 70.056718,34.6231576 C59.3769967,35.9165701 49.4969076,40.76662 42.0069669,48.2165418 L38.0521479,52.149955 C38.0521479,52.149955 35.3848518,56.3530021 41.2494835,56.4079568" id="Fill-52" fill="#EAFCFC" mask="url(#mask-45)"></path>
                    <path d="M107.46463,38.5274922 L107.46463,52.8548579 C107.46463,54.7163993 108.900867,56.2452473 110.717435,56.3179932 L154.496201,58.0684391 C155.501208,58.1085679 156.485539,57.6570695 157.061704,56.8127832 C157.847419,55.6613041 157.938277,53.7667503 154.015666,51.2269728 C147.193345,46.8098395 129.837033,37.2568127 123.416317,36.3324666 C119.329485,35.7439767 113.982368,35.488378 110.635126,35.3804454 C108.899674,35.3245023 107.46463,36.7497666 107.46463,38.5274922" id="Fill-53" fill="#EAFCFC" mask="url(#mask-45)"></path>
                    <path d="M49.5041842,49.724337 C49.5041842,49.724337 85.8073238,45.6136059 86.5854839,46.3260403 C87.3638429,47.0382771 92.4085633,58.7768409 93.324502,61.9863543 L50.5656551,61.5846709 L47.5546087,57.0698843 L49.5041842,49.724337 Z" id="Fill-54" fill="#9D2024" mask="url(#mask-45)"></path>
                    <g id="Group-37" mask="url(#mask-45)">
                        <g transform="translate(118.076796, 43.089467) rotate(5.000000) translate(-118.076796, -43.089467) translate(110.076796, 36.089467)" id="Group-29">
                            <g transform="translate(8.057166, 6.522809) scale(-1, 1) translate(-8.057166, -6.522809) translate(0.557166, 0.022809)"></g>
                        </g>
                    </g>
                    <g id="hombre" mask="url(#mask-45)">
                        <g transform="translate(117.579470, 44.655844) scale(-1, 1) translate(-117.579470, -44.655844) translate(109.079470, 36.155844)">
                            <path d="M15.0139432,15.8582793 L10.6821262,12.3782627 C10.4623008,13.1321231 10.2831206,13.9560993 10.1470677,14.8361061 L8.07455009,15.4899007 L7.78126856,15.841176 C7.56353747,16.179527 7.37326516,16.5657828 7.21045164,16.9766487 L9.90971213,16.9766487 L14.6319248,16.9766487 L16.2028154,16.9766487 C15.8255287,16.5889999 15.4277641,16.218764 15.0139432,15.8582793" id="Fill-1" fill="#D7192C"></path>
                            <path d="M12.5662601,14.0729279 C12.5662601,14.0729279 12.5783568,12.3797021 11.2336521,9.88494346 L10.3454303,5.4740745 L7.8520331,3.6052498 L7.06402806,3.2639579 C5.69225239,1.42794675 4.29518981,0.945030319 4.29518981,0.945030319 C4.29518981,0.945030319 3.97584571,1.29313258 3.61151264,1.76838736 L3.28953125,1.62892977 L3.45971366,1.9707634 C3.09553572,2.46675883 2.72429917,3.05577758 2.60430274,3.53033584 C2.02115264,5.83641661 4.21064158,11.9124186 5.62476894,12.8725246 C6.02493805,13.1442424 7.19565958,12.7374782 8.03749624,12.0997809 L7.7872645,16.107523 L12.5662601,14.0729279 Z" id="Fill-3" fill="#FECA9B"></path>
                            <g id="Group-7" stroke-width="1" fill="none" transform="translate(7.911853, 10.785443)">
                                <mask id="mask-47" fill="white">
                                    <use xlink:href="#path-46"></use>
                                </mask>
                                <g id="Clip-6"></g>
                                <path d="M1.05289698,0.0222110605 C1.05289698,1.80219152 0.0160564074,3.04515961 0.0160564074,3.04515961 L0.127365318,1.30101093 L1.05289698,0.0222110605 Z" id="Fill-5" fill="url(#linearGradient-48)" mask="url(#mask-47)"></path>
                            </g>
                            <path d="M14.0839669,6.14381149 C14.1961291,4.98837201 14.0277307,3.73217015 13.3897406,2.25741765 C12.0539561,0.929629618 10.3386354,0.0120109985 7.350282,0.000402430364 C7.49890073,2.03314011 7.96267493,4.02168784 8.61974656,5.82132547 C10.5619513,6.18707276 12.4508674,6.28357865 14.0839669,6.14381149" id="Fill-8" fill="#333333"></path>
                            <path d="M7.35032079,0.000379213227 C5.20620865,-0.00797895586 3.16836355,0.164214805 5.42970298e-05,1.16951681 L0.61454154,1.8019516 C2.11818143,3.34945113 3.97234743,4.52748863 6.03284214,5.17493718 C6.8938379,5.4454942 7.76196984,5.65963359 8.61970778,5.82130225 C7.96271372,4.02166462 7.49893952,2.03319428 7.35032079,0.000379213227" id="Fill-10" fill="#333333"></path>
                            <path d="M8.61972329,5.82128677 C9.51826157,8.28183889 10.7704286,10.3870914 12.0603709,11.7430496 L13.4355596,8.64302014 C13.756998,7.83274208 13.9992403,7.01650495 14.0839437,6.1437728 C12.4509217,6.28353996 10.561928,6.18711145 8.61972329,5.82128677" id="Fill-12" fill="#333333"></path>
                            <path d="M14.0839669,6.1437728 C14.1961291,4.98833331 14.0277307,3.73213145 13.3897406,2.25737895 C12.0539561,0.929590923 10.3386354,0.0119723033 7.350282,0.000363735136 C5.20616987,-0.00807182441 3.16840234,0.164121937 1.55134371e-05,1.16965611 L0.614502756,1.80185874 C2.11814265,3.34959044 3.97230865,4.52755055 6.03280336,5.17507648 C6.89379912,5.44563351 7.76193106,5.65961811 8.61974656,5.82128677 C9.51828484,8.2817615 10.7704519,10.387014 12.0603942,11.7430496 L13.4355828,8.64294275 C13.7570213,7.83266469 13.9992636,7.01642756 14.0839669,6.1437728" id="Fill-14" fill="#333333"></path>
                            <path d="M9.98972268,9.19941107 C9.59482814,8.04172726 9.36476386,6.54244199 10.0524745,6.56480783 C10.3531249,6.57455902 10.7626797,6.99200314 10.7626797,6.99200314 C11.3276791,7.72736723 11.481107,8.47124428 10.3125573,10.1399373 L9.98972268,9.19941107 Z" id="Fill-16" fill="#FECA9B"></path>
                            <g id="Group-20" stroke-width="1" fill="none" transform="translate(0.000000, 0.028170)">
                                <mask id="mask-50" fill="white">
                                    <use xlink:href="#path-49"></use>
                                </mask>
                                <g id="Clip-19"></g>
                                <path d="M2.01744493,2.47254763 C5.3920829,4.7429514 9.73057071,5.519642 12.4159467,5.07085475 L11.0302865,2.86963805 C9.99282536,1.35851204 8.66906378,0.205316876 5.68109823,0.0147041864 C4.08018909,0.109894445 2.36230863,0.39492349 0.0332763225,1.13144845 L2.01744493,2.47254763 Z" id="Fill-18" fill="url(#linearGradient-51)" mask="url(#mask-50)"></path>
                            </g>
                        </g>
                    </g>
                    <g id="mujer" mask="url(#mask-45)">
                        <g transform="translate(129.639073, 46.668831) scale(-1, 1) translate(-129.639073, -46.668831) translate(124.139073, 39.168831)">
                            <path d="M9.67187138,14.3485463 C8.9976068,13.2958054 8.18223696,12.5507053 7.25073462,11.9349971 L7.20890982,11.9636291 L6.67336925,11.2886468 L3.97655517,12.7865227 L3.18121239,14.8472291 L9.67187138,14.3485463 Z" id="Fill-1" fill="#D7192C"></path>
                            <polygon id="Fill-3" fill="#7B654A" points="2.45455386 10.5741158 1.99069549 12.2050997 3.97661012 11.8881383 3.63682181 9.8698924"></polygon>
                            <path d="M4.74393335,5.95288716 L4.66046693,6.25985791 C4.5580725,5.58725143 4.38552231,4.91086797 4.13084899,4.29918048 C3.29832182,2.29981949 2.07074876,1.62136479 2.07074876,1.62136479 C2.07074876,1.62136479 0.759220814,2.63067048 0.421935881,3.38496932 C-0.336833103,5.08192847 0.531962573,9.89745215 1.49130741,10.8256138 C1.76875541,11.0940228 2.76015574,10.9244243 3.49950825,10.5281464 L3.49932508,10.5288165 L4.03804068,13.0776058 L7.25073462,11.6670877 L4.74393335,5.95288716 Z" id="Fill-5" fill="#FECA9B"></path>
                            <g id="Group-9" stroke-width="1" fill="none" transform="translate(3.419253, 9.425446)">
                                <mask id="mask-53" fill="white">
                                    <use xlink:href="#path-52"></use>
                                </mask>
                                <g id="Clip-8"></g>
                                <path d="M0.0603254008,1.01466656 L0.323607919,2.25534254 C1.06985999,1.08850037 1.05429018,0.0419731785 1.05429018,0.0419731785 L0.0603254008,1.01466656 Z" id="Fill-7" fill="url(#linearGradient-54)" mask="url(#mask-53)"></path>
                            </g>
                            <g id="Group-12" stroke-width="1" fill="none" transform="translate(0.000000, 0.043923)">
                                <path d="M8.51385571,11.303846 C12.2694172,8.82486991 8.58309559,2.83811789 7.30423373,1.42114238 C5.2799746,-0.821711778 2.76792233,0.294994078 2.76792233,0.294994078 C2.76486943,0.296882566 2.76242711,0.299197487 2.75955737,0.301085976 C2.18121507,0.622677281 1.5967059,1.11520725 0.988994648,1.86627738 C0.771383587,2.21528222 0.562076427,2.58506044 0.357348624,2.98444529 C0.236697823,3.22007991 0.117451357,3.4668627 3.66348588e-05,3.72863157 L0.692984989,4.39618177 C0.942040971,4.63516694 1.20416339,4.85983614 1.47300219,5.07463647 C2.44278796,5.84934316 3.52247831,6.4550606 4.58983492,6.9027542 L4.88840902,7.38937502 L4.32618605,12.3547594 C6.02054827,12.563346 7.47794401,11.9488562 8.51483264,11.3040288 L8.51385571,11.303846 Z" id="Fill-10" fill="#7B654A"></path>
                            </g>
                            <g id="Group-15" stroke-width="1" fill="none" transform="translate(0.183174, 0.043923)">
                                <mask id="mask-56" fill="white">
                                    <use xlink:href="#path-55"></use>
                                </mask>
                                <g id="Clip-14"></g>
                                <path d="M1.23947939,4.0479445 C3.96608981,5.65175854 7.0155144,6.1718848 9.60425564,5.93527548 C8.98915636,3.96259701 7.75737029,2.1261943 7.12108386,1.42117893 C5.09682473,-0.821736146 2.58471141,0.29496971 2.58471141,0.29496971 C2.5816585,0.296858198 2.57921618,0.29917312 2.57634645,0.301061608 C1.9980652,0.622652913 1.41349497,1.11518288 0.805783719,1.86625301 C0.588233716,2.21525785 0.378865498,2.58503607 0.174198754,2.98442092 C0.119551756,3.09127281 0.0663701525,3.21006483 0.0122116196,3.32172932 L1.23947939,4.0479445 Z" id="Fill-13" fill="url(#linearGradient-57)" mask="url(#mask-56)"></path>
                            </g>
                            <path d="M4.19143083,7.31298871 C4.04305965,6.36911001 4.06748289,5.18441857 4.59374264,5.2936463 C4.82380955,5.34134587 5.08300118,5.71739874 5.08300118,5.71739874 C5.41900389,6.35899746 5.43713815,6.95204375 4.31354703,8.08014145 L4.19143083,7.31298871 Z" id="Fill-16" fill="#FECA9B"></path>
                            <g id="Group-20" stroke-width="1" fill="none" transform="translate(4.701474, 0.104842)">
                                <mask id="mask-59" fill="white">
                                    <use xlink:href="#path-58"></use>
                                </mask>
                                <g id="Clip-19"></g>
                                <path d="M3.75134848,11.3038217 C7.50690998,8.82490646 3.82052731,2.83815444 2.5417265,1.42117893 C1.71310706,0.503008033 0.802852931,0.148276802 0.0166078027,0.0489788614 C1.36275569,1.28740084 6.54072663,6.59862227 2.68936499,11.8634844 C3.07922094,11.6947997 3.43561706,11.5009555 3.75226436,11.3040653 L3.75134848,11.3038217 Z" id="Fill-18" fill="url(#linearGradient-60)" mask="url(#mask-59)"></path>
                            </g>
                        </g>
                    </g>
                    <g id="nio" mask="url(#mask-45)">
                        <g transform="translate(65.682119, 38.415584)">
                            <path d="M3.74663793,28.238507 L9.40744911,28.238507 L3.74663793,28.238507 Z" id="Fill-1" fill="#D7192C"></path>
                            <g id="Group-17" stroke-width="1" fill="none" transform="translate(0.000000, 0.046569)">
                                <g id="Group-4" transform="translate(0.000000, 14.968519)">
                                    <mask id="mask-62" fill="white">
                                        <use xlink:href="#path-61"></use>
                                    </mask>
                                    <g id="Clip-3"></g>
                                    <path d="M18.9693747,13.5102738 L21.8238471,13.5102738 C21.815929,13.6795013 20.3446224,6.59585732 19.888707,4.60753898 C19.502179,2.9204621 18.0156613,2.17473877 17.627258,2.00592714 L17.627258,2.00571924 L17.6222571,2.00384818 C17.5655802,1.97931644 17.5322409,1.96705057 17.5322409,1.96705057 L17.5320325,1.96725846 L12.7265837,0.0186482805 L10.9172995,0.0186482805 L9.10822372,0.0186482805 L4.29193965,1.96705057 C4.29193965,1.96705057 2.38117885,2.66204724 1.93526521,4.60753898 C1.47914139,6.59585732 0.00804311523,13.6795013 -8.33483444e-05,13.5102738" id="Fill-2" fill="#6DB7B7" mask="url(#mask-62)"></path>
                                </g>
                                <path d="M15.803117,6.25156058 C15.7095585,6.19459705 15.6078735,6.18357856 15.5038964,6.21164453 C15.3211552,4.65367113 14.0569692,3.26596463 12.171838,2.77990354 C9.66867883,2.13459404 7.0194517,3.32355185 6.2543139,5.43577627 C6.16117213,5.69356744 6.10053621,5.95322967 6.06990569,6.21185243 C5.966137,6.18357856 5.86445202,6.19438915 5.7708935,6.25156058 C5.40707798,6.47380152 5.30622648,7.30060432 5.54522786,8.09871746 C5.76797631,8.84319341 6.2078472,9.29890167 6.56103581,9.17603508 C7.00465737,10.5934707 7.76666961,12.2298209 8.82019268,13.2063089 L8.46096132,15.627467 C8.46096132,15.627467 9.48031157,16.3463717 10.9141115,16.3463717 C12.3483281,16.3463717 13.3676784,15.6195669 13.3676784,15.6195669 L12.7979924,13.1512165 C13.8202599,12.1689074 14.5678945,10.5664442 15.0077654,9.17499559 C15.3615791,9.30368328 15.8047839,8.84651975 16.0285742,8.09871746 C16.2675756,7.30060432 16.1665158,6.47380152 15.803117,6.25156058" id="Fill-5" fill="#FECA9B"></path>
                                <path d="M15.6993483,6.23673759 C15.7139342,5.87686943 15.7118505,5.42677437 15.6647587,4.91555785 L15.664342,4.91576575 C15.651423,4.76129894 15.6322529,4.61244533 15.6026642,4.4700365 C14.1499026,-2.52920163 6.91359931,0.669072031 6.62271358,2.53140533 L6.62104662,2.52683162 C5.09681377,3.79977946 6.02198039,7.13942247 6.02198039,7.13942247 C6.1199147,7.13671982 6.14950336,7.1377593 6.14950336,7.1377593 L7.18198097,4.40870715 L10.9141115,5.60286237 L10.7438725,4.95339494 L13.1072148,4.6084953 L12.4277174,4.20289001 C13.4166455,4.26609042 14.3301434,4.61369271 14.9973469,5.62365198 C15.0838208,5.76398185 15.4155472,6.34900149 15.4659729,7.1377593 L15.6139162,7.1377593 C15.6139162,7.1377593 15.6708015,6.83007307 15.695806,6.31864865 L15.7010153,6.31864865 C15.7001818,6.29120637 15.6999734,6.26417988 15.6993483,6.23673759" id="Fill-7" fill="#796449"></path>
                                <path d="M15.4659312,7.1377593 C15.4659312,7.1377593 15.4311333,5.77292138 14.0923505,4.70641437 L14.6530765,4.91555785 L15.4659312,5.96335421 L15.4659312,7.1377593 Z" id="Fill-9" fill="#796449"></path>
                                <g id="Group-13" transform="translate(10.418543, 13.097455)">
                                    <mask id="mask-64" fill="white">
                                        <use xlink:href="#path-63"></use>
                                    </mask>
                                    <g id="Clip-12"></g>
                                    <path d="M2.35896652,0.0178790649 C1.77594485,0.577327481 1.10457393,0.935740364 0.350063046,0.935740364 C0.232541881,0.935740364 0.117521166,0.924513974 0.00395904636,0.907882286 L2.90948233,2.40431844 L2.35896652,0.0178790649 Z" id="Fill-11" fill="url(#linearGradient-65)" mask="url(#mask-64)"></path>
                                </g>
                                <g id="Group-16" transform="translate(6.459497, 0.000000)">
                                    <mask id="mask-67" fill="white">
                                        <use xlink:href="#path-66"></use>
                                    </mask>
                                    <g id="Clip-15"></g>
                                    <path d="M8.67843799,4.0178001 L7.74222771,2.09496904 C7.40425017,1.46317278 7.02188964,0.922019221 6.4965867,0.555290494 C4.27535332,-0.478784727 1.4358836,0.72514161 0.482378543,1.89809143 C0.333185007,2.0918506 0.231500026,2.27563075 0.184199841,2.43425548 C0.17919894,2.45255034 0.173781298,2.47105309 0.170238993,2.48914005 C0.16940551,2.4920506 0.168780397,2.49496114 0.168155285,2.49787169 C0.166279947,2.50681122 0.165654834,2.51554286 0.164404609,2.52448239 C0.219622887,2.4758347 1.19125621,1.64944769 2.37209388,2.33675221 C3.5883546,3.04463844 6.91749584,4.81425008 8.67843799,4.0178001 Z" id="Fill-14" fill="url(#linearGradient-68)" mask="url(#mask-67)"></path>
                                </g>
                            </g>
                        </g>
                    </g>
                    <path d="M49.7732797,50.4175571 C49.736499,50.1694701 49.6416644,49.9371975 49.5040848,49.7242974 L44.108059,55.0914751 C44.108059,55.0914751 40.0500552,61.485792 48.9726535,61.5696078 L51.4272179,61.5925386 L49.7732797,50.4175571 Z" id="Fill-59" fill="#9D2024" mask="url(#mask-45)"></path>
                    <path d="M148.241813,63.9838593 L150.527186,54.7573979 C150.680274,54.1392562 150.300339,53.5149865 149.679043,53.3625762 C149.05735,53.2105611 148.429295,53.5881277 148.276407,54.2060717 L145.88089,63.8773104 L148.241813,63.9838593 Z" id="Fill-74" fill="#1A1A1A" mask="url(#mask-45)"></path>
                    <path d="M142.337359,63.7178429 C142.984103,63.3161595 143.508575,62.9856405 143.861869,62.7731358 C143.888709,62.7569261 145.53549,61.9713505 145.562131,61.9559315 L145.562131,61.9557339 C145.79375,61.871325 145.990576,61.8045096 146.036105,61.8033235 C146.161159,61.800556 146.876892,61.5613646 146.934349,61.5342826 C146.991608,61.5073983 147.287046,61.5079913 147.412299,61.5052238 C147.537353,61.502061 148.859073,60.8236272 149.077172,60.7210319 C149.295471,60.6182389 149.689919,60.2367188 149.689919,60.2367188 L150.552774,59.7462777 C151.186595,59.3863045 150.612816,58.8616649 150.612816,58.8616649 C150.91064,58.689882 150.995733,58.4924009 150.944438,58.2963035 C150.893144,58.1002061 150.721766,57.9396909 150.714211,57.9013412 C150.706457,57.8629915 150.788965,57.7926179 150.788965,57.7926179 C150.98281,57.6910109 150.989172,57.394295 150.928334,57.2446522 C150.867497,57.0948116 150.624148,56.9159123 150.500883,56.9004933 C150.377419,56.8852721 150.358731,56.8309104 150.358731,56.8309104 C150.38577,56.6223592 150.044206,56.1119525 149.799863,56.1010802 C149.555918,56.0902078 148.608169,56.5504041 148.494646,56.548032 C148.380924,56.5456599 148.171174,56.5183802 148.033396,56.5834165 C147.895617,56.6482552 146.721419,56.8097588 146.525984,56.9016794 C146.330947,56.9934024 145.896537,57.6455448 145.572072,57.9383072 C145.247606,58.2308718 144.914194,58.9472599 144.807828,59.1372292 C144.766276,59.2115564 144.553147,59.3364895 144.309202,59.4614225 L144.309003,59.4612248 C144.27083,59.5009582 137.095216,62.0784924 132.84794,63.3382995 L142.337359,63.7178429 Z" id="Fill-75" fill="#F7A491" mask="url(#mask-45)"></path>
                    <path d="M68.0348933,28.5746403 C68.2472273,28.6697238 68.4239734,28.8158084 68.5780547,28.9824517 C68.5947551,29.0160571 69.1337414,29.5219172 68.9963605,30.3444588 C68.9011283,29.8409708 68.7937685,29.2827258 68.0348933,28.5746403" id="Fill-79" fill="#F48C7F" mask="url(#mask-45)"></path>
                    <path d="M38.96079,48.2649138 C38.8234092,48.4517203 38.7424916,48.6656087 38.6911975,48.886416 C38.6933844,48.9237773 38.4760801,49.6281069 39.0045292,50.2760981 C38.8369285,49.7915873 38.6528263,49.2533079 38.96079,48.2649138" id="Fill-81" fill="#F48C7F" mask="url(#mask-45)"></path>
                    <path d="M154.559404,58.1766485 C154.559404,58.1766485 150.4847,71.7326714 150.384298,72.4095237 C150.283897,73.086376 134.951915,81.4048985 131.099287,81.3050707 C127.246658,81.2052429 118.261434,77.9992877 116.328161,77.4337286 C114.394689,76.8679718 109.372634,72.9729083 109.673838,70.5760526 C109.975241,68.1791969 107.837984,56.1998603 107.837984,56.1998603 L154.559404,58.1766485 Z" id="Fill-105" fill="#FCD100" mask="url(#mask-45)"></path>
                    <path d="M121.283415,63.0767309 L108.747163,63.0767309 C108.437808,63.0767309 108.186705,62.8270626 108.186705,62.5194743 L108.186705,61.4425201 C108.186705,61.1349318 108.437808,60.8852635 108.747163,60.8852635 L121.283415,60.8852635 C121.592969,60.8852635 121.843674,61.1349318 121.843674,61.4425201 L121.843674,62.5194743 C121.843674,62.8270626 121.592969,63.0767309 121.283415,63.0767309" id="Fill-106" fill="#DFAA00" mask="url(#mask-45)"></path>
                    <path d="M126.707712,37.1939311 L133.038166,39.7837214 L132.675528,38.4887274 L130.315202,37.1939311 C130.315202,37.1939311 128.382128,36.8199228 128.193453,36.7202926 C128.004778,36.6202672 126.707712,37.1939311 126.707712,37.1939311" id="Fill-107" fill="#F7CC7F" mask="url(#mask-45)"></path>
                    <path d="M107.46463,49.566866 L107.46463,52.8546602 C107.46463,54.7162017 108.900867,56.2452473 110.717435,56.3179932 L154.496201,58.0684391 C155.501208,58.1085679 156.485539,57.6568718 157.061704,56.8127832 C157.556951,56.0867089 157.77505,55.0651048 156.886349,53.773076 C147.765939,52.9968513 140.925632,52.4146827 136.365427,52.0265704 C129.943027,51.4799694 120.309429,50.660068 107.46463,49.566866 Z" id="Fill-108" fill="#C6E5E5" mask="url(#mask-45)"></path>
                    <polygon id="Fill-109" fill="#97E1E1" mask="url(#mask-45)" points="107.46463 49.5668067 107.46463 49.0943543 156.709007 53.5310578 156.886349 53.7730167"></polygon>
                    <polygon id="Fill-110" fill="#FFFFFF" mask="url(#mask-45)" points="118.844437 56.6428981 123.348581 56.8229835 127.046134 51.2334171 122.66943 50.8609902"></polygon>
                    <polygon id="Fill-111" fill="#FFFFFF" mask="url(#mask-45)" points="126.836047 56.9623866 130.435187 51.52187 128.77091 51.380332 125.123458 56.893792"></polygon>
                    <path d="M40.5134521,56.3765061 L96.9640608,56.9315882 L97.469845,74.7207054 C97.469845,74.7207054 90.8747687,84.2583132 90.0793117,84.1582877 C89.2838547,84.0584599 72.4235854,81.3621208 70.9098114,81.4617509 C69.3958386,81.5617764 56.1796412,75.1129002 55.5557612,75.2413914 C54.9320799,75.3698827 50.8138353,73.1724849 50.8138353,73.1724849 L44.1012596,68.4582403 L37.4469365,61.6480072 L40.5134521,56.3765061 Z" id="Fill-112" fill="#FCD100" mask="url(#mask-45)"></path>
                    <path d="M51.940915,61.9809972 L39.4048622,61.9809972 C39.0953079,61.9809972 38.8442052,61.7315265 38.8442052,61.4237406 L38.8442052,60.3467864 C38.8442052,60.0391981 39.0953079,59.7897275 39.4048622,59.7897275 L51.940915,59.7897275 C52.2504692,59.7897275 52.5013732,60.0391981 52.5013732,60.3467864 L52.5013732,61.4237406 C52.5013732,61.7315265 52.2504692,61.9809972 51.940915,61.9809972" id="Fill-113" fill="#DFAA00" mask="url(#mask-45)"></path>
                    <path d="M60.2924781,43.4744838 L58.3389263,43.8482945 C58.3389263,43.8482945 58.5266072,44.5773339 59.3904565,44.4377727 C60.4439748,44.2673736 60.2924781,43.4744838 60.2924781,43.4744838" id="Fill-114" fill="#FFFFFF" mask="url(#mask-45)"></path>
                </g>
            </g>
        </g>
    </g>
</svg>