<svg xmlns="http://www.w3.org/2000/svg" width="154" height="110" viewBox="0 0 154 110">
    <g fill="none" fill-rule="evenodd">
        <path fill="#D71F2E" d="M146.008 60.081c-1.722-6.606-4.345-12.521-7-15.95-3.049-3.938-5.775-8.474-10.044-10.978-11.997-7.04-12.063-24.229-25.343-27.102-9.292-2.01-19.736-.543-29.216-.41-1.604-.023-29.767-.398-32.895.989-3.219 1.427-7.77 4.392-11.544 9.881-2.838 4.128-6.114 10.115-7.801 13.16-1.345-.141-2.865-.323-3.106-.441-.444-.219-.999-3.076-1.554-3.909-.555-.833-1.554-1.666-5.44-1.547-3.884.119-6.326.238-6.77 1.785-.445 1.548-1.11 2.857-.555 4.404.554 1.547.887 2.738 2.775 2.976 1.887.238 7.289.512 8.436.833.527.147 1.58.542 2.565.926-.214.271-.377.488-.428.588-.222.44-.111 2.086-.999 2.745-.888.66-2.553 1.318-5.883 3.733-3.33 2.416-4.218 4.172-5.772 8.125-1.55 3.943-1.554 8.579-1.665 10.382C2.8 76.156-.342 95.02 19.914 94.97c36.041-.09 72.09-.044 108.137.03 4.023.008 8.226-.028 11.797-1.959 9.447-5.108 9.459-20.303 6.16-32.96z"/>
        <path fill="#000" fill-rule="nonzero" d="M128.198 101c-.15 0-.267-.015-.478-.048-.314-.05-1.05-.166-3.283-.407-.94-.1-8.125-.28-45.69-.349l-1.768-.003c-2.03-.005-4.064.005-6.097.016l-2.754.013c-8.095.03-16.762.067-25.3.133-3.037.032-6.116.178-9.095.319-5.603.264-11.396.539-17.219.074l-.593-.047c-5.035-.389-14.408-1.114-14.805-8.565l-.377-7.057c-.066-1.236-.137-2.47-.207-3.704C.154 74.81-.236 68.021.176 61.197c.016-.25.028-.553.043-.9.105-2.42.301-6.923 1.825-10.894 1.07-2.789 2.448-5.97 5.284-8.438 1.03-.897 2.276-1.56 3.481-2.203 1.707-.908 3.318-1.767 4.093-3.13.192-.336.34-.741.498-1.17.103-.279.206-.557.322-.83.872-2.052 2.23-3.855 3.545-5.599.99-1.313 1.923-2.554 2.65-3.874.64-1.16 1.27-2.363 1.879-3.526 1.407-2.686 2.862-5.463 4.598-8.051 4.565-6.806 10.04-10 12.896-11.299C44.691-.262 69.484-.029 77.003.081c7.478-.11 32.272-.344 35.673 1.202 2.858 1.299 8.332 4.493 12.896 11.298 1.721 2.566 3.18 5.32 4.59 7.984 2.078 3.921 4.04 7.625 6.794 10.862l.103.12c.436.512.931 1.092 1.244 1.854.175.427.265.844.344 1.212.061.286.119.557.203.758.456 1.077 2.439 2.178 4.032 3.062.899.5 1.748.971 2.414 1.466 3.793 2.82 4.881 4.953 6.627 9.503 1.523 3.972 1.719 8.475 1.824 10.895.016.346.028.648.043.899.238 3.933.218 7.938.2 11.812-.004.772-.008 1.543-.01 2.313-.003 1.174-.073 2.338-.142 3.463-.087 1.434-.169 2.79-.123 4.17.014.416.032.833.05 1.251.109 2.552.221 5.19-.522 7.814-1.045 3.693-4.216 6.807-7.71 7.572-3.602.79-7.9.97-12.054 1.143-1.747.073-3.397.141-4.983.253a4.352 4.352 0 0 1-.298.013zM66.492 2.732c-11.968 0-22.51.317-24.101 1.04-2.597 1.18-7.58 4.094-11.772 10.344-1.653 2.464-3.074 5.175-4.447 7.797a192.881 192.881 0 0 1-1.905 3.576c-.821 1.49-1.858 2.868-2.862 4.2-1.27 1.687-2.471 3.28-3.212 5.023-.098.23-.185.467-.272.704-.19.515-.385 1.047-.689 1.58-1.163 2.046-3.2 3.131-5.171 4.181-1.121.598-2.181 1.162-2.98 1.858-2.134 1.857-3.316 4.191-4.53 7.356-1.362 3.552-1.545 7.764-1.644 10.026-.015.365-.03.683-.045.946-.402 6.662-.017 13.368.355 19.853.071 1.237.142 2.476.208 3.715l.377 7.058c.25 4.67 6.492 5.542 12.324 5.993l.6.047c5.655.452 11.362.182 16.881-.08 3.003-.142 6.108-.289 9.198-.322a6455.55 6455.55 0 0 1 25.313-.132l2.75-.014c2.04-.01 4.08-.022 6.119-.016l1.764.004c28.741.052 44.207.175 45.97.364 2.299.247 3.08.37 3.414.423l.096.015.06-.004c1.642-.115 3.389-.188 5.077-.259 4.042-.168 8.22-.343 11.596-1.082 2.527-.554 4.921-2.934 5.693-5.66.623-2.197.524-4.502.42-6.942-.019-.427-.037-.853-.051-1.278-.05-1.51.04-2.995.127-4.43.066-1.086.134-2.208.137-3.302.001-.772.005-1.546.009-2.32.019-3.829.038-7.788-.194-11.631-.016-.264-.03-.582-.046-.946-.098-2.263-.281-6.474-1.644-10.026-1.609-4.195-2.462-5.878-5.71-8.292-.523-.389-1.296-.819-2.116-1.273-2.057-1.143-4.39-2.438-5.212-4.382-.186-.44-.278-.872-.36-1.252-.06-.28-.117-.544-.198-.744-.146-.356-.462-.725-.795-1.115l-.106-.125c-2.947-3.464-5.07-7.474-7.126-11.352-1.377-2.603-2.803-5.293-4.445-7.741-4.191-6.249-9.174-9.162-11.77-10.343-2.05-.931-18.946-1.188-34.574-.964-3.502-.05-7.066-.076-10.511-.076z"/>
        <path fill="#000" fill-rule="nonzero" d="M19.225 110c-1.699 0-4.394-.061-8.67-.186l-1.603-.047c-5.533-.155-6.375-4.928-7.19-9.544-.942-5.347-.749-11.897-.74-12.173L3.655 88c.173 2.512.432 5.52.551 5.997.162.399 1.342 1.477 1.781 1.665.285.115 1.034.39 1.85.69 1.394.51 2.363.868 2.789 1.05.757.167 5.18.529 9.134.792 7.568-.28 7.653-.089 8.054.824l.186.423-.113.448c-.05.197-1.222 4.842-1.697 6.282-.672 2.039-3.443 3.412-4.375 3.681-.34.098-1.062.148-2.59.148zM4.044 97.565c.086.743.19 1.48.314 2.19.992 5.618 1.725 7.264 4.667 7.346l1.607.047c3.348.098 9.557.28 10.49.13.735-.226 2.32-1.202 2.566-1.951.283-.855.863-3.057 1.252-4.567-1.307-.009-3.354.035-5.15.101l-.068.003-.067-.005c-9.19-.609-9.795-.882-10.023-.985-.313-.142-1.69-.647-2.694-1.016-.87-.32-1.623-.595-1.936-.723-.26-.106-.597-.306-.958-.57zM137.28 110c-2.026 0-3.575-.049-4.049-.181-.961-.269-3.818-1.64-4.513-3.68-2.064-6.056-1.746-6.762-1.627-7.028.394-.873.502-1.11 7.357-.835 4.388-.397 9.263-.903 10.047-1.084.41-.171 1.227-.455 2.396-.857.72-.247 1.466-.503 1.751-.617.451-.188 1.665-1.27 1.84-1.7.117-.436.507-3.41.811-6.018l2.707.158c-.001.275-.042 6.79-1 12.121-.83 4.624-1.689 9.405-7.387 9.57-2.77.08-5.896.151-8.333.151zm-7.323-9.149a86.756 86.756 0 0 0 1.336 4.44c.259.76 1.938 1.752 2.68 1.959.686.129 5.562.104 11.56-.07 3.03-.088 3.782-1.738 4.793-7.366a45.4 45.4 0 0 0 .336-2.203c-.378.27-.73.475-1.001.583-.346.137-1.054.38-1.873.662-.872.3-1.957.674-2.259.807-.23.101-.841.37-10.923 1.281l-.09.008-.09-.003a108.046 108.046 0 0 0-4.47-.098zM136.706 34l-.549-.642c-.05-.058-1.229-1.44-1.824-2.192-.628-.795-1.67-2.594-1.787-2.796L131 25.69l3.035.73c.076.018.165.033.253.043.117-.3.255-.71.36-1.018.314-.928.61-1.805 1.008-2.354 1.147-1.584 3.17-2.186 6.96-2.079 4.488.126 7.73.218 8.503 2.696.085.27.177.532.268.79.448 1.276.957 2.722.297 4.414l-.083.213c-.559 1.445-1.255 3.243-3.99 3.56-.81.094-2.167.191-3.604.294-1.947.139-4.615.33-5.25.493l-2.051.528zm-.778-5.24c.2.311.39.59.533.772.315.399.824 1.008 1.214 1.47l.401-.103c.814-.21 2.8-.362 5.736-.572 1.406-.1 2.733-.195 3.483-.282 1.072-.125 1.242-.461 1.786-1.868l.086-.22c.291-.748.076-1.436-.33-2.589-.1-.286-.202-.578-.296-.878-.205-.657-3.833-.76-6.001-.82-3.915-.112-4.456.644-4.69.967-.162.225-.464 1.117-.644 1.65-.42 1.24-.694 2.052-1.278 2.474zM18.294 34l-2.052-.528c-.634-.164-3.302-.354-5.25-.493-1.436-.103-2.793-.2-3.603-.294-2.736-.317-3.431-2.115-3.99-3.56l-.082-.213c-.66-1.691-.152-3.138.296-4.414.091-.258.183-.52.267-.79.774-2.478 4.016-2.57 8.503-2.696 3.8-.108 5.814.496 6.961 2.08.397.548.694 1.425 1.008 2.353.105.308.243.719.36 1.018.095-.011.187-.027.25-.042L24 25.69l-1.546 2.681c-.117.202-1.16 2-1.787 2.796-.595.753-1.774 2.134-1.824 2.192l-.549.642zm-5.092-10.34c-.233 0-.48.003-.742.01-2.168.061-5.796.163-6.001.82-.094.3-.196.592-.297.878-.405 1.153-.62 1.841-.328 2.59l.085.22c.544 1.406.713 1.742 1.785 1.867.75.087 2.078.182 3.484.282 2.936.21 4.922.363 5.735.572l.402.103c.39-.462.9-1.071 1.215-1.47.143-.182.333-.46.532-.77-.584-.423-.858-1.235-1.278-2.476-.18-.532-.482-1.424-.645-1.648-.218-.302-.709-.979-3.947-.979z"/>
        <path fill="#000" d="M111.537 53a.543.543 0 0 1-.534-.495.548.548 0 0 1 .48-.603c5.779-.602 10.987-1.873 16.886-4.12 2.518-.96 4.314-1.645 5.127-4.17.6-1.863.571-4.111-.08-6.33-1.13-3.847-4.192-5.917-7.435-8.108l-.242-.164a.56.56 0 0 1-.153-.763.53.53 0 0 1 .745-.156l.242.164c3.26 2.203 6.63 4.48 7.872 8.71.715 2.433.74 4.916.072 6.992-.975 3.028-3.184 3.87-5.742 4.844-6.02 2.294-11.31 3.585-17.183 4.196a.555.555 0 0 1-.055.003z"/>
        <path fill="#000" fill-rule="nonzero" d="M126.075 29h-.027l-1.045-.032-.492-.016h-.013c-6.427 0-12.973-.275-19.305-.54-4.224-.178-8.593-.361-12.887-.46-13.486-.313-27.83-.179-43.852.412-6.923.256-13.937.452-20.528.63a.88.88 0 0 1-.779-.423c-.61-.964.876-4.6.892-4.634.538-1.182 1.21-2.37 2.116-3.738.973-1.471 2.051-2.88 3.094-4.243.617-.806 1.255-1.639 1.86-2.47.96-1.322 1.926-2.64 2.897-3.953.262-.355.486-.696.696-1.016.863-1.313 1.677-2.553 3.914-2.811 8.65-1.117 17.519-1.432 25.811-1.605 16.293-.344 30.557.19 43.605 1.627 1.704.187 2.498 1.355 3.199 2.386.145.212.293.43.454.648l.855 1.157c.776 1.047 1.55 2.093 2.318 3.146 1.909 2.618 4.13 5.75 6.127 9.116.157.264.736 1.641 1.147 2.729 1.064 2.804.96 3.284.678 3.696a.889.889 0 0 1-.735.394zM77.87 26.116c4.952 0 9.764.055 14.473.164 4.31.1 8.685.284 12.917.461 6.32.265 12.855.54 19.277.54l.518.015.181.006c-.105-.37-.289-.935-.61-1.783-.477-1.26-.95-2.333-1.027-2.476-1.955-3.295-4.147-6.385-6.033-8.972-.765-1.05-1.538-2.093-2.31-3.136l-.857-1.158c-.174-.236-.335-.472-.492-.702-.705-1.037-1.116-1.582-2.046-1.684-12.98-1.43-27.175-1.957-43.4-1.619-8.249.173-17.066.486-25.653 1.594-1.507.174-1.954.855-2.765 2.09-.217.33-.463.705-.749 1.092-.97 1.31-1.932 2.624-2.89 3.942-.616.848-1.26 1.69-1.884 2.503-1.025 1.34-2.086 2.726-3.028 4.15-.855 1.292-1.487 2.407-1.987 3.505-.132.318-.612 1.77-.818 2.653 6.352-.173 13.074-.363 19.71-.608 10.46-.385 20.21-.577 29.473-.577zM128.446 64c-.583 0-1.173-.042-1.767-.143-.253-.043-.723-.124-1.108-.478-1.494-1.377.222-4.68 1.947-7.668.129-.223.233-.404.302-.53 1.014-1.87 1.827-3.926 2.614-5.914.202-.512.404-1.023.61-1.532.2-.494.473-1.17 1.043-1.612.598-.463 1.302-.505 1.816-.535 1.096-.065 2.192-.137 3.29-.209 2.163-.142 4.4-.29 6.606-.375.066-.003.13-.004.194-.004 3.446 0 4.164 3.67 4.474 5.254.38 1.943.442 3.916.5 5.824l.026.794c.011.319.025.717-.098 1.131-.41 1.387-2.085 1.962-3.193 2.343a19.72 19.72 0 0 0-.362.127c-1.192.439-2.418.753-3.604 1.057l-.85.22c-2.777.73-5.32 1.282-7.777 1.688l-.669.113c-1.3.222-2.631.449-3.994.449zm15.543-17.297c-.044 0-.087 0-.132.002-2.186.085-4.413.231-6.567.373-1.1.072-2.2.145-3.299.21-.424.025-.765.056-.967.213-.216.167-.382.578-.516.908-.204.505-.405 1.013-.605 1.52-.806 2.037-1.64 4.143-2.704 6.105-.074.136-.186.331-.324.57-2.518 4.362-2.361 5.31-2.253 5.495.014.009.088.04.308.077 1.736.297 3.446.003 5.258-.306l.677-.114c2.41-.399 4.909-.941 7.64-1.659l.858-.222c1.15-.295 2.338-.6 3.458-1.011.116-.043.249-.089.392-.138.599-.206 2-.688 2.162-1.236.04-.133.032-.348.025-.556l-.026-.8c-.06-1.92-.116-3.734-.468-5.532-.546-2.79-1.37-3.9-2.917-3.9zM25.554 64c-1.363 0-2.694-.227-3.994-.449l-.67-.113c-2.455-.406-4.999-.958-7.776-1.688l-.85-.22c-1.186-.304-2.412-.618-3.604-1.057a17.75 17.75 0 0 0-.363-.127c-1.107-.38-2.782-.956-3.192-2.343-.122-.41-.109-.81-.099-1.13l.026-.794c.06-1.908.12-3.882.5-5.825.316-1.613 1.078-5.393 4.669-5.25 2.205.086 4.442.233 6.606.375 1.097.072 2.194.144 3.29.209.515.03 1.218.072 1.816.535.57.443.843 1.118 1.043 1.612.205.508.408 1.02.61 1.53.787 1.99 1.6 4.046 2.615 5.916.07.127.174.309.303.532 1.724 2.987 3.439 6.29 1.944 7.666-.384.354-.854.435-1.106.478a10.46 10.46 0 0 1-1.768.143zM10.011 46.703c-1.549 0-2.372 1.11-2.917 3.899-.352 1.799-.409 3.613-.469 5.534l-.025.798c-.007.208-.014.425.024.556.163.549 1.564 1.03 2.162 1.236.144.05.277.095.393.138 1.12.412 2.308.716 3.457 1.011l.86.222c2.73.718 5.23 1.26 7.639 1.659l.677.114c1.812.31 3.524.602 5.258.306.22-.038.294-.068.318-.087.099-.176.255-1.122-2.262-5.483-.138-.24-.25-.435-.324-.572-1.066-1.962-1.9-4.07-2.705-6.106-.2-.508-.401-1.014-.605-1.519-.134-.33-.3-.74-.516-.908-.202-.157-.543-.188-.967-.213-1.1-.065-2.2-.138-3.3-.21-2.154-.141-4.38-.288-6.566-.373a3.554 3.554 0 0 0-.132-.002z"/>
        <path fill="#000" d="M42.464 53c-.018 0-.036 0-.055-.003-5.904-.616-11.198-1.906-17.164-4.184-2.584-.986-4.79-1.828-5.762-4.856-.668-2.076-.642-4.559.07-6.991 1.24-4.23 4.606-6.509 7.86-8.712l.24-.163a.528.528 0 0 1 .744.156.56.56 0 0 1-.153.763l-.24.163c-3.238 2.192-6.295 4.262-7.423 8.11-.65 2.218-.678 4.466-.08 6.33.812 2.525 2.605 3.21 5.086 4.157 5.909 2.255 11.12 3.526 16.931 4.132.294.03.51.3.48.603a.542.542 0 0 1-.534.495z"/>
        <path fill="#000" fill-rule="nonzero" d="M76.814 70a341.9 341.9 0 0 1-17.799-.456c-.59-.03-1.189-.05-1.791-.07-2.197-.074-4.47-.15-6.596-.752l-.349-.097c-3.2-.885-4.674-1.747-9.053-14.367-.059-.175-.53-1.672.094-2.596.204-.302.606-.662 1.364-.662h68.632c.758 0 1.16.36 1.364.661.624.925.153 2.422.097 2.59-.229.658-.457 1.373-.697 2.125-1.459 4.565-3.456 10.817-8.162 12.22-.402.12-.826.23-1.259.326-2.617.585-5.389.64-8.07.695-.852.017-1.699.034-2.532.068-3.72.15-7.45.249-11.087.29-1.387.017-2.774.025-4.156.025zm-34.13-17.867c-.36 0-.454.139-.484.184-.24.355-.072 1.22.042 1.56 4.358 12.559 5.68 12.924 8.312 13.652l.354.098c2.006.568 4.214.642 6.35.714.61.02 1.215.04 1.81.072 7.098.371 14.462.515 21.89.43 3.627-.042 7.347-.14 11.057-.29a123.1 123.1 0 0 1 2.553-.07c2.63-.052 5.351-.107 7.867-.67.41-.09.81-.195 1.189-.307 4.158-1.24 5.974-6.924 7.433-11.491a94.41 94.41 0 0 1 .704-2.145c.114-.349.278-1.2.039-1.553-.031-.046-.125-.184-.484-.184H42.684zM75.875 96c-1.39 0-2.777-.009-4.16-.03-4.346-.065-8.693-.134-13.04-.214-.836-.015-1.682-.013-2.532-.012-1.965.003-3.997.008-5.964-.204a33.005 33.005 0 0 0-.77-.07c-1.731-.144-3.884-.323-4.46-1.717-.53-1.289-1.477-3.957-1.517-4.07-1.39-3.2-1.683-4.35-1.242-4.885.051-.062.092-.118.128-.169.342-.472.625-.629 1.622-.629h66.09c.998 0 1.28.157 1.622.63.036.05.077.106.129.168.4.486.16 1.206.003 1.683l-.045.136c-.252.83-.588 1.642-.852 2.255-.366.85-.69 1.741-1.002 2.602-.272.75-.553 1.524-.864 2.279-.575 1.394-2.728 1.573-4.459 1.717-.273.023-.534.045-.77.07-.445.048-.89.055-1.322.061l-.447.008c-3.692.099-7.445.155-11.074.209l-4.441.068c-3.489.057-7.064.114-10.633.114zM56.94 94.702c.588 0 1.174.002 1.755.013 4.345.08 8.691.148 13.037.214 4.92.074 9.92-.006 14.757-.084l4.442-.069c3.626-.054 7.376-.11 11.061-.208.153-.004.307-.006.461-.008.425-.007.825-.012 1.22-.055.244-.026.513-.049.797-.072 1.284-.107 3.224-.269 3.553-1.067.303-.735.58-1.499.848-2.237.318-.876.646-1.78 1.024-2.658.27-.626.577-1.371.814-2.149l.052-.16c.049-.146.193-.582.162-.736a4.462 4.462 0 0 1-.15-.197c-.034-.047-.085-.119-.102-.13-.015-.01-.114-.057-.641-.057H43.94c-.528 0-.627.047-.642.057-.017.011-.068.083-.102.13a4.577 4.577 0 0 1-.127.17c-.05.395.41 1.711 1.365 3.912.023.06.991 2.79 1.512 4.055.33.798 2.27.96 3.554 1.067.283.023.553.046.797.072 1.908.206 3.914.202 5.844.198l.8-.001z"/>
    </g>
</svg>
