<svg xmlns="http://www.w3.org/2000/svg" width="134" height="94" viewBox="0 0 134 94">
    <g fill="none" fill-rule="nonzero">
        <ellipse cx="70.5" cy="49" fill="#DB263A" rx="40.5" ry="42"/>
        <path fill="#000" d="M69 93c-25.365 0-46-20.86-46-46.5S43.635 0 69 0s46 20.86 46 46.5S94.365 93 69 93zm0-90.902c-24.22 0-43.925 19.919-43.925 44.402S44.78 90.902 69 90.902s43.925-19.919 43.925-44.402S93.22 2.098 69 2.098z"/>
        <path fill="#000" d="M69 81c-18.196 0-33-15.028-33-33.5S50.804 14 69 14c18.196 0 33 15.028 33 33.5S87.196 81 69 81zm0-65.591c-17.431 0-31.613 14.396-31.613 32.09 0 17.696 14.182 32.092 31.613 32.092 17.431 0 31.613-14.396 31.613-32.091S86.43 15.409 69 15.409z"/>
        <path fill="#DB263A" d="M126.562 1.722c1.459-1.738 4.346-.137 4.346 2.669l-.34 53.283.426 33.167c.018 1.625.061 2.158-1.015 2.159-1.079 0-2.33-.73-2.31-2.358l.686-34.662h-.699c-1.488 0-3.4-1.956-3.4-4.203L124 8.717c0-2.846 1.082-5.232 2.562-6.995z"/>
        <path fill="#000" d="M130.503 94a3.462 3.462 0 0 1-2.554-1.141 3.65 3.65 0 0 1-.945-2.534L128 56.364h-.367c-2.554 0-4.633-2.139-4.633-4.768V8.724c0-3.62 1.007-6.191 3.08-7.862 1.285-1.035 3.222-1.148 4.818-.284 1.374.744 2.193 2.045 2.193 3.482v53.219l.908 33.04a3.659 3.659 0 0 1-.945 2.54 3.462 3.462 0 0 1-2.55 1.141h-.001zm-3.65-92.017c-1.745 1.407-2.559 3.55-2.559 6.741v42.872c0 1.858 1.498 3.37 3.34 3.37h1.702l-1.038 35.394a2.207 2.207 0 0 0 2.204 2.242h.001a2.205 2.205 0 0 0 2.202-2.25l-.908-33.053V4.06c0-1.292-1.035-1.992-1.48-2.233-.972-.527-2.421-.683-3.464.156z"/>
        <path fill="#DB263A" d="M16.382 1.876L14.61 23.562c-.025.53-.587.53-.612 0l-.524-21.974c-.062-.765-2.213-.792-2.302-.032l-1.066 22.006c-.024.53-.587.53-.612 0L8.442 1.556c-.089-.76-2.24-.733-2.302.032l-.538 21.974c-.024.53-.587.53-.611 0L3.23 1.876C3.093 1.122.937 1.262.937 2.04L0 28.438c0 3.3 3.283 5.973 5.66 5.973 1.228 0 2.217 1.043 2.194 2.313L6.89 90.916c-.028 1.688 1.12 3.031 1.56 3.073 1.627.155 2.272-1.385 2.242-3.075l-.283-54.13c-.024-1.271.781-3.431 2.433-4.11l1.028-.554c1.31-.45 3.475-2.122 3.667-4.107C17.76 25.703 18 2.04 18 2.04c0-.778-1.478-.918-1.618-.164z"/>
        <path fill="#000" d="M11.01 94h-.004a3.784 3.784 0 0 1-2.691-1.11 3.644 3.644 0 0 1-1.082-2.66l1.012-53.97a1.535 1.535 0 0 0-.455-1.122 1.596 1.596 0 0 0-1.136-.468C3.66 34.67 0 31.603 0 28.023L.983 1.71c0-.693.675-1.221 1.72-1.319 1.117-.103 1.958.318 2.1 1.05l.01.072 1.25 14.608.383-14.853C6.51.5 7.248.02 8.327 0c1.08.002 1.864.44 1.954 1.17l.721 14.284.727-14.236C11.823.44 12.606.01 13.686 0c1.08.02 1.818.5 1.88 1.226l.376 14.9L17.21 1.439C17.354.708 18.2.29 19.312.39c1.045.098 1.72.626 1.72 1.345L22 27.998c0 3.605-3.659 6.672-6.654 6.672-.464 0-.868.167-1.17.468a1.536 1.536 0 0 0-.454 1.124l1.062 53.963a3.645 3.645 0 0 1-1.083 2.667A3.782 3.782 0 0 1 11.01 94zM2.4 1.882l-.977 26.167c0 2.871 3.166 5.223 5.231 5.223.817 0 1.58.315 2.152.887a2.91 2.91 0 0 1 .863 2.128L8.657 90.254a2.269 2.269 0 0 0 .673 1.658c.446.445 1.041.69 1.677.69h.002c.636 0 1.231-.245 1.677-.69a2.268 2.268 0 0 0 .674-1.66L12.298 36.29a2.91 2.91 0 0 1 .862-2.13 3.022 3.022 0 0 1 2.153-.888c2.099 0 5.264-2.352 5.264-5.249l-.964-26.142c-.226-.111-.763-.143-1.01-.061L16.76 23.225c-.028.58-.472 1.037-1.03 1.037-.56 0-1.003-.457-1.033-1.062l-.547-21.725c-.239-.098-.77-.105-1.009-.01L12.032 23.2c-.03.604-.473 1.061-1.032 1.061-.56 0-1.003-.457-1.032-1.062L8.872 1.464c-.24-.093-.772-.088-1.008.012l-.56 21.708c-.029.621-.472 1.078-1.031 1.078-.56 0-1.004-.457-1.033-1.062L3.41 1.819c-.247-.083-.784-.05-1.01.063z"/>
    </g>
</svg>
