<?xml version="1.0" encoding="UTF-8"?>
<svg width="106px" height="128px" viewBox="0 0 106 128" version="1.1" xmlns="http://www.w3.org/2000/svg" xmlns:xlink="http://www.w3.org/1999/xlink">
    <title>comida_para_llevar (4) copy</title>
    <g id="Personaliza-vuelo" stroke="none" stroke-width="1" fill="none" fill-rule="evenodd">
        <g id="Modulos_BuyAndFly_1280" transform="translate(-832.000000, -606.000000)" fill-rule="nonzero">
            <g id="Group-7" transform="translate(709.000000, 593.000000)">
                <g id="comida_para_llevar-(4)-copy" transform="translate(123.000000, 13.000000)">
                    <g id="Group" transform="translate(9.000000, 21.000000)">
                        <path d="M1,3.8 C2,3.8 15.3,1.4 15.3,1.4 L87.4,8.2 L81.6,11 L1,3.8 Z" id="Path" fill="#FFFFFF"></path>
                        <path d="M81.6,12 C81.6,12 81.5,12 81.6,12 L0.9,4.8 C0.4,4.8 -7.10542736e-15,4.3 -7.10542736e-15,3.8 C-7.10542736e-15,3.3 0.5,2.8 1,2.8 C1.8,2.8 10.1,1.3 15.2,0.4 C15.3,0.4 15.4,0.4 15.5,0.4 L87.6,7.2 C88,7.2 88.4,7.6 88.5,8 C88.6,8.4 88.3,8.9 87.9,9.1 L82,11.9 C81.9,12 81.7,12 81.6,12 Z M9.1,3.5 L81.4,10 L83.7,8.9 L15.4,2.4 C14.3,2.6 11.7,3.1 9.1,3.5 Z" id="Shape" fill="#000000"></path>
                    </g>
                    <g id="Group" transform="translate(78.000000, 28.000000)">
                        <polygon id="Path" fill="#FFFFFF" points="19.2 1.1 26.2 82.9 1.7 98.6 12.6 4"></polygon>
                        <path d="M1.7,99.4 C1.6,99.4 1.4,99.4 1.3,99.3 C1.1,99.1 0.9,98.9 1,98.6 L11.9,4 C11.9,3.7 12.1,3.5 12.3,3.4 L19,0.5 C19.2,0.4 19.5,0.4 19.7,0.5 C19.9,0.6 20,0.8 20.1,1.1 L27.1,82.9 C27.1,83.2 27,83.4 26.8,83.6 L2.2,99.3 C1.9,99.3 1.8,99.4 1.7,99.4 Z M13.3,4.5 L2.6,97.1 L25.5,82.5 L18.6,2.2 L13.3,4.5 Z" id="Shape" fill="#000000"></path>
                    </g>
                    <g id="Group" transform="translate(0.000000, 23.000000)">
                        <polygon id="Path" fill="#FFFFFF" points="10 1.8 90.6 9 79.7 103.6 1.8 88.6"></polygon>
                        <path d="M79.7,104.5 C79.6,104.5 79.6,104.5 79.5,104.5 L1.6,89.5 C1.1,89.4 0.8,89 0.9,88.5 L9.1,1.7 C9.1,1.2 9.6,0.8 10.1,0.9 L90.7,8.1 C90.9,8.1 91.2,8.2 91.3,8.4 C91.4,8.6 91.5,8.8 91.5,9.1 L80.6,103.7 C80.6,103.9 80.4,104.2 80.2,104.3 C80,104.5 79.8,104.5 79.7,104.5 Z M2.7,87.9 L78.8,102.6 L89.5,9.8 L10.7,2.8 L2.7,87.9 Z" id="Shape" fill="#000000"></path>
                    </g>
                    <g id="Group" transform="translate(45.000000, 0.000000)" stroke="#000000" stroke-width="0.2">
                        <path d="M28.2,26.1 L26.2,26.1 C26.5,18.4 26.6,12.9 25,8.8 C23.5,4.9 20.4,3 14.6,2.5 C12.4,2.3 10.5,2.9 8.8,4.4 C2.7,9.8 2.3,24 2.3,24.2 L0.3,24.2 C0.3,24.2 0.4,20.5 1.3,16 C2.5,9.8 4.6,5.4 7.4,2.9 C9.5,1 12,0.2 14.8,0.4 C28.6,1.7 28.8,10.1 28.2,26.1 Z" id="Path" fill="#D7192D"></path>
                        <path d="M28.4,26.3 L26,26.3 L26,26.1 C26.3,18.5 26.5,12.9 24.8,8.9 C23.3,5.1 20.2,3.2 14.5,2.7 C12.3,2.5 10.5,3.1 8.9,4.6 C2.9,9.9 2.4,24.1 2.4,24.2 L2.4,24.4 L0,24.4 L0,24.2 C0,24.2 0.1,20.5 1,16 C2.2,9.8 4.3,5.3 7.2,2.8 C9.3,0.9 11.8,0.1 14.7,0.3 C28.7,1.5 29,10 28.5,26.1 L28.4,26.3 Z M26.5,25.9 L28.1,25.9 C28.7,9.7 28.3,1.8 14.8,0.6 C12,0.4 9.6,1.2 7.5,3 C4.7,5.5 2.6,9.9 1.4,16 C0.6,19.8 0.4,23.1 0.4,23.9 L2,23.9 C2.1,22.2 2.9,9.2 8.6,4.2 C10.3,2.7 12.2,2 14.5,2.3 C20.4,2.8 23.6,4.8 25.2,8.8 C26.9,12.9 26.7,18.4 26.5,25.9 Z" id="Shape" fill="#000000"></path>
                    </g>
                    <g id="Group" transform="translate(38.000000, 2.000000)" stroke="#000000" stroke-width="0.2">
                        <path d="M29.2,27.1 L27.2,27.1 C27.5,19.3 27.6,13.5 26,9.3 C24.4,5.3 21.2,3.4 15.3,2.8 C13.1,2.6 11.2,3.2 9.5,4.7 C3.2,10.3 2.8,24.7 2.8,24.8 L0.7,24.8 C0.7,24.6 0.8,21.7 1.7,16.9 C3,10.4 5.1,5.8 8,3.1 C10.1,1.2 12.6,0.4 15.3,0.7 C29.6,2.1 29.8,10.8 29.2,27.1 Z" id="Path" fill="#D7192D"></path>
                        <path d="M29.4,27.3 L27,27.3 L27,27.1 C27.3,19 27.4,13.4 25.8,9.4 C24.3,5.5 21.1,3.6 15.3,3 C13.1,2.8 11.3,3.4 9.7,4.9 C3.5,10.4 3.1,24.7 3.1,24.9 L3.1,25.1 L0.6,25 L0.6,24.8 C0.6,24.8 0.7,21.8 1.6,16.9 C2.9,10.4 5,5.7 8,3 C10.1,1.1 12.7,0.3 15.5,0.5 C29.7,1.8 30,10.5 29.4,27 L29.4,27.3 Z M27.5,26.9 L29.1,26.9 C29.6,10.8 29.2,2.3 15.5,1 C12.8,0.8 10.4,1.5 8.3,3.4 C5.4,6 3.3,10.6 2,17 C1.2,21.2 1,23.9 1,24.7 L2.7,24.7 C2.8,22.9 3.5,9.9 9.4,4.6 C11.1,3.1 13,2.4 15.3,2.6 C21.3,3.2 24.5,5.1 26.2,9.2 C27.8,13.3 27.7,18.9 27.5,26.9 Z" id="Shape" fill="#000000"></path>
                    </g>
                    <path d="M80.4,38.8 L16.4,32.7 C14.3,32.5 12.3,34.4 12.1,36.9 L5.3,104.7 C5.1,107.1 6.5,109.3 8.6,109.7 L69.7,121.1 C72.1,121.5 74.3,119.8 74.6,117.3 L84.4,44.1 C84.6,41.4 82.8,39 80.4,38.8 Z M37.4,69.6 L33.8,84.6 C33.6,85.4 32.8,85.9 32,85.8 C32,85.8 26.8,85.5 26,85.4 C25.1,85.3 20.5,84.3 20.5,84.3 C19.7,84.2 19.1,83.5 19,82.7 L18,67.6 C17.9,66.2 18.7,65.1 19.8,65.2 L35.9,66.8 C37,67 37.7,68.2 37.4,69.6 Z M40,59.8 L17.4,57.8 L16.8,57.7 C16.8,57.6 16.9,57.4 16.9,57.3 C17,57.1 17,56.8 17.1,56.6 C17.1,56.5 17.2,56.4 17.2,56.3 C17.3,55.9 17.4,55.8 17.7,55.6 C17.8,55.6 18,55.6 18.3,55.6 L18.2,55.6 L18.7,52.8 L18.7,52.8 C18.7,52.7 18.7,52.4 19,52.4 C19.1,52.4 19.3,52.4 19.6,52.4 C20.9,52.4 24,52.3 28.8,52.7 L29,52.7 L29,52.7 C33.9,53 37.1,53.6 38.4,53.8 C38.8,53.9 39,53.9 39.1,53.9 C39.4,53.9 39.4,54.2 39.3,54.3 L39.3,57.3 C39.7,57.4 40,57.4 40,57.5 C40.3,57.7 40.3,57.9 40.4,58.3 C40.4,58.4 40.4,58.5 40.5,58.7 C40.6,59 40.6,59.2 40.6,59.5 C40.6,59.7 40.6,59.8 40.7,59.9 L40,59.8 Z M57.1,67.7 C56.9,68.6 55.5,69.2 54.7,69.3 L54,69.5 C53,69.7 52.4,70.6 52.3,71.2 L49.8,95.8 C49.7,96.6 49.3,97.2 48.3,96.9 C48,96.8 47.4,96.1 47.5,95.4 L50.7,70.9 C50.8,70.3 50.2,69.8 49.5,69.6 C48.1,69.4 46.2,67.9 46.4,66.3 L48.2,54.2 C48.2,53.8 49.5,54 49.6,54.3 L49.6,64.5 C49.6,64.7 49.9,64.8 50,64.6 L51.4,54.5 C51.5,54.2 52.8,54.3 52.8,54.7 L52.5,65 C52.5,65.2 52.8,65.3 52.9,65.1 L54.6,55 C54.7,54.7 56,54.9 56,55.2 L55.2,65.4 C55.2,65.6 55.5,65.7 55.6,65.5 L57.8,55.6 C57.9,55.3 58.8,55.5 58.8,55.8 C58.7,55.7 57.4,66.7 57.1,67.7 Z M70,58.8 L67.2,83.8 L65.8,99.1 C65.7,99.8 65.7,100.1 65.1,100 C64.5,99.9 63.8,99.4 63.9,98.7 L65.9,82.8 L65.5,82.7 C64.7,82.5 63.7,81.4 63.8,80.4 L65.7,60.2 C65.8,58.9 66.7,57.1 68.1,57.1 C69.8,57.2 70.1,57.5 70,58.8 Z" id="Shape" fill="#D7192D"></path>
                    <g id="Group" transform="translate(15.000000, 50.000000)" fill="#000000" stroke="#000000" stroke-width="0.2">
                        <path d="M26.7,10.1 L28.3,10.2 L28,9.8 C27.9,9.6 27.9,9.4 27.9,9.1 C27.9,8.8 27.8,8.5 27.8,8.2 C27.8,8.1 27.7,7.9 27.7,7.8 C27.6,7.3 27.6,7 27.1,6.7 C27,6.7 26.8,6.6 26.5,6.5 L26.5,3.7 C26.6,3.3 26.4,2.8 25.9,2.7 C25.8,2.7 25.6,2.7 25.2,2.6 C23.7,2.3 20.1,1.7 14.5,1.4 L14.3,1.4 C9.1,0.9 5.7,1 4.3,1 C3.9,1 3.7,1 3.6,1 C3.1,1 2.9,1.5 2.9,1.8 L2.5,4.5 C2.3,4.5 2.1,4.5 2.1,4.6 C1.7,4.8 1.6,5.1 1.4,5.5 C1.4,5.6 1.3,5.7 1.3,5.8 C1.2,6.1 1.1,6.4 1.1,6.6 C1,6.9 1,7.1 0.9,7.3 L0.6,7.7 L2,8 C2,8.7 2.2,10.9 2.4,13.8 L2,13.8 L3.4,33.9 L3.7,34 C4.1,40.4 4.2,40.6 4.2,40.7 C4.4,41.3 5.3,42.1 10.6,43.3 C11.2,43.4 11.7,43.5 12.2,43.6 C16.5,44.2 18.1,43 18.2,43 C18.3,42.9 18.3,42.9 20,36.5 L20.4,36.5 L25.7,16.3 L25.3,16.3 C25.9,13 26.5,10.8 26.7,10.1 Z M3,4.4 L3.4,2.1 L3.4,2.1 C3.4,2 3.4,1.7 3.7,1.7 C3.8,1.7 4,1.7 4.4,1.7 C5.8,1.7 9.2,1.6 14.5,2.1 L14.7,2.1 L14.7,2.1 C20.1,2.4 23.6,3 25.1,3.3 C25.5,3.4 25.7,3.4 25.8,3.4 C26.1,3.4 26.1,3.8 26.1,3.9 L26.1,6.4 L14.4,5.4 L14.2,5.4 C13.7,5.4 12.9,5.3 12,5.2 L3,4.4 Z M1.3,7.4 C1.3,7.3 1.4,7.1 1.4,7 C1.5,6.8 1.5,6.5 1.6,6.3 C1.7,6.2 1.7,6 1.7,5.9 C1.8,5.5 1.9,5.4 2.2,5.2 C2.6,5 7.7,5.4 11.5,5.7 L14.3,5.9 L14.3,5.9 C14.3,5.9 14.3,5.9 14.3,5.9 C17.6,6.1 26.4,7 26.9,7.3 C27.2,7.5 27.2,7.7 27.3,8.1 C27.3,8.2 27.3,8.4 27.4,8.5 C27.5,8.8 27.5,9.1 27.5,9.3 C27.5,9.5 27.5,9.6 27.6,9.8 L26.8,9.7 L2,7.5 L1.3,7.4 Z M26.3,10.1 C26.1,10.8 25.5,13.1 24.8,16 L2.7,13.8 C2.5,10.9 2.4,8.7 2.4,8 L26.3,10.1 Z M17.8,42.6 C17.6,42.8 15.5,43.9 10.5,42.8 C6.5,41.9 4.5,41.2 4.3,40.5 C4.3,40.4 4.2,39.4 3.8,34 C4.9,34.4 8,35.3 11.2,35.8 C14.4,36.2 18.1,36.3 19.4,36.3 C18.2,41.4 17.9,42.5 17.8,42.6 Z M20,36 L19.7,36 L19.7,36 C18.6,36 14.6,35.9 11.3,35.5 C8,35 4.7,34 3.8,33.6 L3.8,33.6 L3.6,33.5 L2.3,14.1 L2.4,14.1 L2.6,14.1 L25,16.3 L25.2,16.3 L25.3,16.3 L20,36 Z" id="Shape"></path>
                        <path d="M14.4,43.6 C13.7,43.6 13,43.5 12.1,43.4 C11.6,43.3 11.1,43.2 10.5,43.1 C5.2,41.9 4.3,41.2 4.1,40.5 C4.1,40.4 4,40.2 3.6,33.9 L3.3,33.8 L3.3,33.8 L1.9,13.7 L1.9,13.7 L2.3,13.7 C2.2,11.4 2.1,9.6 2,8.6 L2,7.9 L0.6,7.8 L0.9,7.4 C1,7.3 1.1,7 1.1,6.7 C1.2,6.4 1.2,6.2 1.3,5.9 C1.3,5.8 1.4,5.7 1.4,5.6 L1.4,5.6 C1.5,5.2 1.6,4.9 2.1,4.7 C2.2,4.7 2.3,4.7 2.5,4.6 L3,2 C3,1.8 3.1,1.5 3.3,1.3 C3.4,1.2 3.5,1.2 3.7,1.2 C3.7,1.2 3.7,1.2 3.7,1.2 C3.8,1.2 4,1.2 4.3,1.2 L4.3,1.2 C5.7,1.2 9.1,1.1 14.3,1.6 L14.5,1.6 C20.1,1.9 23.7,2.5 25.2,2.8 C25.6,2.9 25.8,2.9 25.9,2.9 C26.1,2.9 26.2,3 26.3,3.1 C26.5,3.3 26.5,3.6 26.5,3.9 L26.5,6.7 C26.9,6.8 27.1,6.8 27.1,6.9 C27.5,7.2 27.6,7.5 27.7,8 L27.7,8 C27.7,8.1 27.7,8.2 27.8,8.4 C27.9,8.7 27.9,9 27.9,9.3 C27.9,9.6 28,9.9 28,10 L28.2,10.4 L26.6,10.3 L26.5,10.7 C26.3,11.6 25.7,13.6 25.1,16.2 L25.5,16.2 L25.5,16.2 L20.2,36.5 L20.2,36.5 L19.8,36.5 C18.1,42.9 18,43 18,43 C18,43 17.6,43.3 16.6,43.5 C16.1,43.5 15.3,43.6 14.4,43.6 Z M3.3,33.8 L3.6,33.9 L3.6,33.9 C4,40.3 4.1,40.5 4.1,40.6 C4.3,41.2 5.2,42 10.5,43.2 C11,43.3 11.6,43.4 12.1,43.5 C14.3,43.8 15.8,43.7 16.7,43.4 C17.7,43.2 18.1,42.9 18.1,42.9 C18.2,42.9 18.2,42.8 19.9,36.4 L19.9,36.4 L19.9,36.4 L20.3,36.4 L25.6,16.2 L25.2,16.2 L25.2,16.2 C25.9,13.6 26.4,11.6 26.6,10.7 L26.7,10.3 L26.7,10.3 L28.2,10.4 L28,9.9 C27.9,9.7 27.9,9.5 27.9,9.2 C27.9,8.9 27.9,8.6 27.8,8.3 C27.8,8.2 27.8,8 27.7,7.9 L27.7,7.9 C27.6,7.5 27.6,7.1 27.1,6.8 C27,6.8 26.8,6.7 26.5,6.6 L26.5,6.6 L26.5,6.6 L26.5,3.8 C26.5,3.6 26.5,3.2 26.3,3 C26.2,2.9 26.1,2.8 25.9,2.8 C25.8,2.8 25.6,2.8 25.2,2.7 C23.7,2.4 20.1,1.8 14.5,1.5 L14.3,1.5 C9.1,1 5.7,1.1 4.3,1.1 L4.2,1.1 C3.9,1.1 3.7,1.1 3.6,1.1 C3.4,1.1 3.3,1.1 3.2,1.2 C3.1,1.5 3,1.8 3,2 L2.6,4.7 L2.6,4.7 C2.4,4.7 2.2,4.7 2.2,4.8 C1.8,5 1.7,5.3 1.5,5.7 L1.5,5.7 C1.5,5.8 1.4,5.9 1.4,6 C1.3,6.3 1.2,6.6 1.2,6.8 C1.1,7.1 1.1,7.3 1,7.5 L0.8,7.8 L2.2,7.9 L2.2,7.9 L2.2,8.6 C2.3,9.6 2.4,11.5 2.5,13.7 L2.5,13.7 L2.5,13.7 L2.1,13.7 L3.3,33.8 Z M14.4,43.3 C13.4,43.3 12.1,43.2 10.6,42.8 C6.6,41.9 4.6,41.2 4.4,40.4 C4.4,40.3 4.3,39 3.9,33.9 L3.9,33.9 L3.9,33.9 C5.1,34.3 8.2,35.2 11.3,35.7 C14.5,36.1 18.1,36.2 19.5,36.2 L19.5,36.2 L19.5,36.2 C18.2,41.1 17.9,42.3 17.8,42.5 L17.8,42.5 L17.8,42.5 C17.7,42.7 16.6,43.3 14.4,43.3 Z M3.9,34 C4.2,39.4 4.3,40.4 4.4,40.5 C4.6,41.2 6.5,41.9 10.5,42.8 C15.5,43.9 17.5,42.7 17.8,42.6 C17.9,42.4 18.2,41.4 19.5,36.3 C18.1,36.3 14.4,36.2 11.3,35.8 C8.2,35.4 5.1,34.4 3.9,34 Z M20,36 L20,36 L19.7,36 C18.6,36 14.6,35.9 11.3,35.5 C8,35 4.7,34 3.8,33.7 L3.6,33.6 L3.6,33.6 L2.3,14.2 L2.6,14.2 L25.2,16.4 L25.2,16.4 L20,36 Z M3.6,33.6 L3.8,33.7 C4.7,34 8,35.1 11.4,35.5 C14.7,36 18.7,36 19.8,36 L19.8,36 L20,36 L25.1,16.5 L24.9,16.5 L2.3,14.3 L3.6,33.6 Z M24.8,16 L24.8,16 L2.7,13.8 L2.7,13.8 C2.6,11.3 2.4,9.3 2.4,8.4 L2.4,8 L2.4,8 L26.4,10.1 L26.4,10.1 C26.1,10.8 25.6,12.9 24.8,16 L24.8,16 Z M2.7,13.8 L24.8,16 C25.6,13 26.1,10.8 26.3,10.1 L2.4,8 L2.4,8.4 C2.4,9.3 2.5,11.3 2.7,13.8 Z M27.6,9.7 L27.6,9.7 L1.3,7.4 L1.3,7.4 C1.3,7.3 1.4,7.1 1.4,7 C1.5,6.8 1.5,6.5 1.6,6.2 C1.6,6.1 1.7,6 1.7,5.9 L1.7,5.9 C1.8,5.5 1.9,5.3 2.2,5.2 C2.6,5 8.5,5.4 11.5,5.7 L14.3,5.9 C17.7,6.2 26.4,7 26.9,7.3 C27.2,7.5 27.2,7.7 27.3,8.1 C27.3,8.2 27.3,8.3 27.4,8.5 C27.5,8.8 27.5,9.1 27.5,9.3 L27.5,9.3 C27.6,9.4 27.6,9.6 27.6,9.7 L27.6,9.7 Z M1.3,7.4 L2,7.5 L27.6,9.7 C27.6,9.6 27.6,9.4 27.5,9.2 L27.5,9.2 C27.5,9 27.5,8.7 27.4,8.4 C27.4,8.2 27.3,8.1 27.3,8 C27.2,7.6 27.2,7.4 26.9,7.2 C26.4,6.9 17.7,6.1 14.3,5.8 L11.5,5.6 C7.3,5.3 2.6,5 2.2,5.1 C1.9,5.3 1.8,5.4 1.7,5.8 L1.7,5.8 C1.7,5.9 1.6,6 1.6,6.1 C1.5,6.4 1.4,6.6 1.4,6.8 C1.4,7.1 1.3,7.3 1.3,7.4 Z M26.2,6.3 L26.2,6.3 L14.5,5.3 L14.3,5.3 C13.8,5.3 13,5.2 12.1,5.1 L3,4.4 L3,4.4 L3.4,2.1 L3.4,2.1 C3.4,2 3.4,1.8 3.5,1.8 C3.6,1.8 3.6,1.7 3.7,1.7 C3.8,1.7 4,1.7 4.4,1.7 C5.8,1.7 9.2,1.6 14.5,2.1 L14.7,2.1 L14.7,2.1 C20.1,2.4 23.6,3 25.1,3.3 L25.1,3.3 C25.5,3.4 25.7,3.4 25.8,3.4 C25.9,3.4 26,3.4 26,3.5 C26.1,3.6 26.1,3.8 26.1,3.9 L26.2,6.3 Z M14.4,5.3 L26.1,6.3 L26.1,3.8 C26.1,3.7 26.1,3.6 26,3.4 C26,3.3 25.9,3.3 25.8,3.3 C25.7,3.3 25.5,3.3 25.1,3.2 L25.1,3.2 C23.6,2.9 20.1,2.3 14.7,2 L14.7,2 L14.5,2 C9.2,1.5 5.8,1.6 4.4,1.6 C4,1.6 3.8,1.6 3.7,1.6 C3.6,1.6 3.6,1.6 3.5,1.7 C3.4,1.8 3.4,2 3.4,2 L3.4,2 L3,4.4 L12,5.1 C12.9,5.2 13.7,5.2 14.2,5.3 L14.4,5.3 Z" id="Shape"></path>
                    </g>
                    <path d="M50.5,97.3 C50.4,97.3 50.3,97.3 50.1,97.3 C48.2,97.1 47.8,96.3 47.8,95.2 C47.8,94.7 48.6,89.1 49.5,83.2 C50.3,77.6 51.2,71.8 51.2,71.3 C51.2,70.5 51,70.5 50.1,70 C49.9,69.9 49.8,69.8 49.6,69.8 C48.8,69.4 46.1,67.9 46.5,65.8 C46.8,64.2 48.1,55.5 48.2,54.4 L48.2,54.4 L48.2,54.2 C48.2,54 48.3,54 48.7,54 C48.8,54 49,53.9 49.3,53.9 L49.3,53.9 C49.7,53.8 50,53.9 50.2,54 C50.5,54.2 50.5,54.5 50.6,54.6 L50.6,54.6 L50.6,54.6 C50.1,59.1 49.8,64.1 50.3,64.4 C50.7,64.2 51.2,60.8 51.4,58.8 C51.9,55.3 52,54.4 52.5,54.4 C52.5,54.4 52.5,54.4 52.5,54.4 C53.3,54.4 53.7,54.8 53.7,54.8 L53.8,54.9 L53.8,55 C53.3,59 52.9,63.5 53.1,64.7 C53.4,63.9 53.9,61.5 54.3,59.7 C55.3,55.1 55.5,54.7 55.8,54.7 C55.9,54.7 56,54.7 56.1,54.7 C56.4,54.6 56.6,54.7 56.8,55.2 C57,55.5 56.9,56.8 56.6,59.7 C56.4,61.6 56.2,64.4 56.3,65.2 C56.6,64.6 56.9,62.7 57.2,61.1 C57.9,57 58.3,55.7 58.8,55.6 C59.8,55.5 60,55.8 60,55.9 L60,55.9 L60,55.9 C60,56.3 59.8,66.3 59,68 C58.9,68.2 58.8,68.3 58.8,68.5 C58.2,69.8 58,70.2 56.3,70.5 C55.9,70.6 55.5,70.6 55.3,70.7 C54.6,70.8 54.6,70.8 54.4,71.4 C54.2,71.9 53.8,77.9 53.4,83.2 C52.8,91.4 52.5,95.3 52.3,95.7 C52.2,95.8 52.2,96 52.1,96.1 C51.9,96.7 51.7,97.3 50.5,97.3 Z M48.5,54.4 C48.5,54.9 48.3,56.1 47.8,59.5 C47.4,62 46.9,65 46.8,65.9 C46.5,67.3 48.1,68.6 49.7,69.4 C49.9,69.5 50,69.6 50.2,69.6 C51.1,70 51.6,70.3 51.6,71.3 C51.6,71.8 50.8,77.4 49.9,83.3 C49.1,88.9 48.2,94.7 48.2,95.2 C48.2,96.2 48.5,96.7 50.2,96.9 C51.5,97 51.6,96.6 51.8,96 C51.9,95.8 51.9,95.7 52,95.5 C52.2,95.1 52.6,88.8 53,83.2 C53.5,76.1 53.8,71.8 54,71.3 C54.3,70.5 54.4,70.4 55.2,70.3 C55.5,70.3 55.8,70.2 56.2,70.1 C57.6,69.8 57.8,69.6 58.4,68.3 C58.5,68.2 58.5,68 58.6,67.8 C59.4,66.2 59.6,56.9 59.6,55.9 C59.5,55.9 59.3,55.8 58.8,55.9 C58.5,56.1 57.9,59.1 57.6,61.1 C56.9,64.8 56.7,65.7 56.3,65.7 C56.2,65.7 56.1,65.7 56.1,65.6 C55.8,65.2 55.9,63.4 56.2,59.6 C56.4,57.8 56.6,55.6 56.4,55.3 C56.3,55 56.2,55 56.2,55 C56.2,55 56.2,55 56.1,55 C56,55 55.9,55 55.8,55 C55.6,55.4 55,57.7 54.6,59.6 C53.8,63.2 53.4,64.9 53.1,65.1 C53,65.1 53,65.2 52.9,65.1 C52.7,65.1 52.1,64.9 53.3,54.9 C53.2,54.8 52.9,54.7 52.5,54.7 C52.3,55 52,57.1 51.8,58.8 C51.3,62.9 50.9,64.8 50.2,64.8 C50.2,64.8 50.2,64.8 50.2,64.8 C50.1,64.8 50,64.8 49.9,64.6 C49.1,63.6 50,55.6 50.1,54.5 C50.1,54.4 50,54.3 49.9,54.2 C49.8,54.1 49.6,54.1 49.3,54.1 L49.3,54.1 C49,54.2 48.8,54.2 48.7,54.2 C48.6,54.4 48.6,54.4 48.5,54.4 Z M48.5,54.3 L48.5,54.3 C48.5,54.3 48.5,54.2 48.5,54.2 C48.5,54.2 48.5,54.2 48.5,54.3 Z" id="Shape" stroke="#000000" stroke-width="0.2" fill="#000000"></path>
                    <path d="M65.9,100.3 C65.6,100.3 65.4,100.3 65,100.2 C65,100.2 64.4,100.1 64,99.6 C63.7,99.1 63.6,98.5 63.7,97.7 C64.1,95.7 65.9,84.5 66.1,82.8 C65.5,82.8 64.1,82.6 63.4,81.8 C63.1,81.4 63,81 63.1,80.5 C63.3,79.6 63.7,75.6 64.1,71.3 C64.7,65.8 65.3,60.1 65.5,59.3 C65.9,57.9 67.6,56.8 69.1,56.9 L69.1,56.9 C71.9,57.2 71.9,58.7 71.9,58.8 C71.7,60.4 68,96.8 67.8,98.1 L67.8,98.3 C67.7,99 67.6,99.6 67.1,100 C66.8,100.2 66.4,100.3 65.9,100.3 Z M68.8,57.3 C67.5,57.3 66.2,58.2 65.9,59.4 C65.7,60.1 65.1,66.1 64.5,71.3 C64.1,75.6 63.6,79.6 63.5,80.5 C63.4,80.9 63.5,81.2 63.7,81.5 C64.4,82.3 66.3,82.4 66.3,82.4 L66.5,82.4 L66.5,82.6 C66.5,82.7 64.4,95.6 64,97.7 C63.9,98.4 63.9,99 64.2,99.3 C64.5,99.7 64.9,99.7 64.9,99.7 C65.8,99.8 66.4,99.8 66.7,99.5 C67.1,99.2 67.1,98.7 67.2,98.1 L67.2,97.9 C67.4,96.7 71.2,59.1 71.3,58.7 C71.3,58.7 71.2,57.5 68.9,57.2 C69,57.3 68.9,57.3 68.8,57.3 Z" id="Shape" stroke="#000000" stroke-width="0.2" fill="#000000"></path>
                </g>
            </g>
        </g>
    </g>
</svg>