<?xml version="1.0" encoding="UTF-8"?>
<svg width="143px" height="136px" viewBox="0 0 143 136" version="1.1" xmlns="http://www.w3.org/2000/svg" xmlns:xlink="http://www.w3.org/1999/xlink">
    <title>flexibilidad</title>
    <g id="5.0-UI" stroke="none" stroke-width="1" fill="none" fill-rule="evenodd">
        <g id="01_modulos_fexibilidad_1280" transform="translate(-195.000000, -1350.000000)">
            <g id="flexibilidad" transform="translate(195.000000, 1351.000000)">
                <path d="M31.1902119,32.2731201 L108.665015,36.225696 C114.413663,36.518978 118.833802,41.3721091 118.537672,47.0654678 C118.517463,47.4540139 118.475089,47.8411177 118.410754,48.2249261 L106.311935,120.403785 C105.379791,125.96475 100.115434,129.756727 94.4863872,128.921864 L19.4321322,117.790306 C13.7483553,116.947325 9.82617528,111.706815 10.6646107,106.07583 L20.3428808,41.0759529 C21.1268074,35.811052 25.823808,31.9993391 31.1902119,32.2731201 Z" id="Rectangle" fill="#D7192D" fill-rule="nonzero"></path>
                <path d="M125.443152,11.1408834 L133.448276,112.770354 L111.624836,134 L125.443152,11.1408834 Z M9.77348065,108.092942 L9.74507682,108.326289 C49.4351017,114.950271 79.21739,119.945228 99.0919414,123.31116 C103.777044,108.999626 107.893804,95.46661 111.442221,82.7121125 C114.990638,69.9576152 118.126067,47.7241178 120.848508,16.0116201 L100.542378,15.188395 C100.746172,13.3717679 101.111613,11.7279052 101.561678,10.3642775 M97.1052508,10.2233834 C99.417878,3.00059368 103.545551,1.69267241 106.026577,2.22185561 C108.926631,2.84041426 110.467401,4.67714552 110.544671,10.6466179 L125.433088,11.1155348 L111.609663,133.981535 L8.64035029,117.122881 L9.74507682,108.326289 C6.77753667,107.831028 3.73607428,107.32349 0.620689655,106.803676 C5.84306969,99.5053984 9.86514366,92.5249595 12.6869116,85.8623596 L22.6923365,7.88219525 L32.3763729,8.18550741 C32.1731252,8.96590997 31.9981313,9.8196111 31.8570933,10.7533627 C31.7725754,11.3129213 31.7050002,11.8609747 31.6543682,12.3975228 M36.2872437,12.5846249 C36.2246741,13.6469882 36.2303383,14.798027 36.3225477,16.0317527 C36.5641267,17.771774 36.9568825,19.1227185 37.3706856,20.1425801 C39.0767964,20.1930197 40.470182,21.4928422 40.6716071,23.1603431 C40.7055516,23.1653292 40.7432996,23.1694983 40.7816114,23.1735873 M40.6889356,23.3455477 C40.6940373,23.4222239 40.696629,23.4995879 40.696629,23.5775578 C40.696629,24.7361796 40.1243427,25.7609813 39.2473339,26.3840885 M34.7460706,24.9015307 C34.5572519,24.7829837 37.7029989,27.1304026 37.5223625,27.0062992 C37.8557692,26.9814279 38.1756388,26.9089411 38.4753872,26.7956559 C38.7514902,26.6913068 39.0105211,26.5523419 39.2473339,26.3840885 M40.6889356,23.3455477 C40.6847968,23.2833458 40.679006,23.2215963 40.6716071,23.1603431 C39.7947325,23.0612589 39.2323741,22.9174212 38.981292,22.7295677 C38.7402147,22.5491994 38.0288293,21.7646458 37.3706856,20.1425801 C37.3337925,20.1390451 37.297736,20.1384849 37.2615485,20.1384849 M33.8379857,23.2938967 C34.7787046,24.7276946 36.0064677,25.9648254 37.5223625,27.0062992 L37.4633857,27.0107926 L37.2615485,27.0166306 C35.364406,27.0166306 33.8264679,25.4769053 33.8264679,23.5775578 C33.8264679,23.4820447 33.8303573,23.3874409 33.8379857,23.2938967 C31.9664915,20.4395186 31.2382565,16.8070573 31.6543682,12.3975228 L24.6664323,12.1139814 C21.3708773,41.1743172 18.7975296,61.0652313 16.9463891,71.786723 C16.1655159,76.3094086 14.74569,81.0012873 12.6869116,85.8623596 L12.5767241,86.7142431 M63.2925313,9.1585223 C65.5690697,0.257703045 71.2604323,0.861689303 72.7330599,0.929043602 C74.3081509,1.00108431 77.2288752,3.5271757 77.3387005,9.60107891 L97.1052508,10.2233834 C96.6508855,11.6424554 96.266583,13.2898473 95.9785965,15.1964851 L96.0082956,15.0046751 M100.542378,15.188395 C100.357627,16.835261 100.305724,18.6241109 100.444051,20.474875 C100.697203,22.2982542 101.116363,23.694385 101.55179,24.7300024 C103.181858,24.8069524 104.513729,26.0233815 104.772578,27.6015131 C104.813065,27.6069016 104.857693,27.6118616 104.903115,27.6167097 M104.800107,27.8085159 C104.812026,27.9250485 104.818132,28.0433044 104.818132,28.1629884 C104.818132,29.4260354 104.138038,30.5300533 103.124476,31.1280136 M100.760027,30.783963 C100.634677,30.7052637 101.949151,31.6547745 101.827407,31.5736262 C102.296613,31.5127227 102.735146,31.357702 103.124476,31.1280136 M104.800107,27.8085159 C104.792985,27.7388786 104.783788,27.6698566 104.772578,27.6015131 C103.907372,27.5021064 103.351894,27.3590598 103.102795,27.17269 C102.868979,26.9977547 102.192761,26.2544825 101.55179,24.7300024 C101.495914,24.7252854 101.439642,24.7239154 101.383052,24.7239154 M97.972028,27.7538439 C98.9473725,29.2376506 100.232701,30.5106804 101.827407,31.5736262 C101.682703,31.5923118 101.534015,31.6020612 101.383052,31.6020612 C99.4859089,31.6020612 97.9479711,30.0623358 97.9479711,28.1629884 C97.9479711,28.0245438 97.9561421,27.88801 97.972028,27.7538439 C95.8624161,24.5495696 95.1981412,20.3635522 95.9785965,15.1964851 L96.0082956,15.0046751 L67.1897147,13.8361159 C67.2743277,12.0830049 67.5438188,10.564059 67.918992,9.30517872 M32.3763729,8.18550741 C34.7004753,-0.738259367 40.7188882,-0.077852892 41.9050742,0.0714485544 C43.1745235,0.231230093 46.3160382,2.53909433 46.4234565,8.62813933 L63.2925313,9.1585223 C63.0906712,9.94775562 62.9156596,10.8117188 62.7728182,11.7574122 C62.6752641,12.4032762 62.6002827,13.0338123 62.5478738,13.6490203 M67.1897147,13.8361159 C67.1417878,14.8291185 67.1531763,15.8972496 67.2382723,17.0358021 C67.4914245,18.8591813 67.9105849,20.2553122 68.346012,21.2909295 C69.97608,21.3678796 71.3079504,22.5843086 71.5667993,24.1624401 C71.6072861,24.1678288 71.6519148,24.1727888 71.6973361,24.1776369 M71.5943288,24.3694428 C71.6062471,24.4859757 71.6123537,24.6042316 71.6123537,24.7239154 C71.6123537,25.9869624 70.9322597,27.0909803 69.9186973,27.6889405 M67.7743304,27.5110685 C67.64898,27.4323691 68.7433724,28.2157015 68.6216281,28.1345534 C69.0908349,28.0736499 69.5293675,27.9186292 69.9186973,27.6889405 M71.5943288,24.3694428 C71.5872067,24.2998056 71.5780093,24.2307838 71.5667993,24.1624401 C70.7015934,24.0630334 70.1461155,23.919987 69.8970166,23.7336172 C69.6632007,23.5586816 68.9869821,22.8154096 68.346012,21.2909295 C68.2901354,21.2862126 68.2338641,21.2848425 68.1772731,21.2848425 M64.7662495,24.3147711 C65.741594,25.7985778 67.0269226,27.0716074 68.6216281,28.1345534 C68.4769248,28.1532387 68.3282363,28.1629884 68.1772731,28.1629884 C66.2801306,28.1629884 64.7421926,26.623263 64.7421926,24.7239154 C64.7421926,24.5854709 64.7503638,24.4489372 64.7662495,24.3147711 C62.9202555,21.5111057 62.1809992,17.9556243 62.5478738,13.6490203 L36.2872437,12.5846249 C36.3835474,10.949494 36.6414942,9.52443243 36.9943177,8.33127585 M110.542125,11.0788909 C110.547503,10.9305995 110.546494,10.7874584 110.544671,10.6466179 L106.062776,10.5052214 L106.065268,10.4214495 C106.098681,7.61529354 105.514122,6.25941424 104.311592,6.35381169 C103.413594,6.42430366 102.355879,7.95797421 101.561678,10.3642775 L106.062776,10.5052214 L106.059323,10.7276587 M77.3419456,9.92972165 C77.3417255,9.81903959 77.3406608,9.70949408 77.3387005,9.60107891 L72.8105098,9.45772522 C72.7182684,6.48727673 72.1262025,5.01758384 71.0343118,5.04864654 C70.0355095,5.07706101 68.7302048,6.58318153 67.918992,9.30517872 L72.8105098,9.45772522 C72.8152715,9.61105849 72.8187009,9.76839061 72.8207989,9.92972165 M46.4263521,8.92567221 C46.4261318,8.82550673 46.4251885,8.72633139 46.4234565,8.62813933 L41.8957312,8.48478045 C41.8066634,5.49348731 41.2142822,4.01342619 40.1185872,4.04459711 C39.1161037,4.07311631 37.8048543,5.59025426 36.9943177,8.33127585 L41.8957312,8.48478045 C41.9000037,8.62826712 41.903118,8.77523104 41.9050742,8.92567221" id="Shape" stroke="#000000" stroke-width="0.5" stroke-linejoin="round"></path>
                <g id="calendario" transform="translate(15.517241, 37.222222)">
                    <line x1="4.22198735" y1="0.22488767" x2="101.793103" y2="7.2424658" id="Path-7" stroke="#000000" stroke-width="0.5"></line>
                    <g id="Group" transform="translate(0.004518, 11.104055)" fill="#222222" fill-rule="nonzero">
                        <path d="M25.5354686,4.7160844 L25.6174814,4.23873017 L24.3877821,4.23762736 L24.3842149,0.231382244 L23.9651553,0.231006425 C23.5806729,0.486673622 23.1136786,0.659235898 22.5710546,0.762537914 L22.65393,1.25387852 C23.0797854,1.17122951 23.4918457,1.02629494 23.7733855,0.888162564 L23.7763672,4.23707904 L22.5260586,4.23595773 L22.5264837,4.71338592 L25.5354686,4.7160844 Z" id="1" transform="translate(24.071770, 2.473545) rotate(7.000000) translate(-24.071770, -2.473545) "></path>
                        <path d="M37.3800479,5.86936811 L37.5032797,5.39205224 L35.3736328,5.39014235 L36.0532591,4.84413321 C37.041806,4.04930909 37.4603049,3.4200351 37.459695,2.73503146 L37.4596394,2.67275841 C37.4588755,1.81477405 36.8333021,1.34370586 36.0089227,1.34296651 L35.960834,1.34291295 C35.4249873,1.34244287 34.8892763,1.49418535 34.5047445,1.69449797 L34.6494484,2.18589258 C35.0339862,1.99249919 35.4804019,1.85451508 35.9132011,1.85490322 L35.9475502,1.85493402 C36.5314855,1.8554577 36.8203141,2.18783944 36.82077,2.69986236 L36.8208009,2.73445849 C36.8144547,3.32258677 36.491998,3.79972399 35.6407677,4.50472136 L34.453156,5.47926678 L34.4535011,5.86674357 L37.3800479,5.86936811 Z" id="2" transform="translate(35.978218, 3.606141) rotate(7.000000) translate(-35.978218, -3.606141) "></path>
                        <path d="M48.4346249,7.09051834 C49.4307476,7.09140379 50.1103968,6.57307264 50.1096556,5.72200932 L50.1095652,5.63897871 C50.1091215,5.14079528 49.8683517,4.77386129 49.4628786,4.60051745 C49.737474,4.37934902 49.9089237,4.04738075 49.9086033,3.68758162 L49.9085662,3.64606634 C49.9078825,2.87803353 49.303,2.49693459 48.506102,2.49621987 L48.4511434,2.49615915 C48.0114754,2.49577633 47.4345405,2.64056232 47.0774522,2.79938388 L47.1946701,3.28383363 C47.5861016,3.11812365 48.0119374,3.01471741 48.4172563,3.0150809 L48.4516054,3.01511172 C48.9737111,3.01557994 49.2761432,3.1957506 49.2765681,3.67317637 L49.2765991,3.70777246 C49.2768824,4.0260563 49.1053836,4.30267085 48.8444662,4.45465947 L47.7933849,4.45371685 L47.8418988,4.93118575 L48.5220103,4.93179568 C48.9685478,4.93219614 49.1334666,4.98077851 49.2915954,5.11930449 C49.4016049,5.2231913 49.4704694,5.41007168 49.4707033,5.67300183 L49.4707465,5.72143633 C49.4712272,6.26113505 49.1348837,6.57219781 48.4135533,6.57155091 L48.3860742,6.57152626 C47.9807553,6.57116276 47.5478646,6.46698641 47.0874209,6.27975484 L46.9366854,6.72936825 C47.2459934,6.91646428 47.8026022,7.08994366 48.4002759,7.09051834 L48.4346249,7.09051834 Z" id="3" transform="translate(48.523171, 4.793339) rotate(7.000000) translate(-48.523171, -4.793339) "></path>
                        <path d="M61.5960249,8.17483291 L61.5960249,7.27523222 L62.2829319,7.27523222 L62.3378845,6.79775186 L61.5960249,6.79775186 L61.5960249,3.71834947 L60.9091176,3.71834947 C60.0779598,4.63179016 59.1918497,5.81511109 58.6079786,6.95691196 L58.7728362,7.27523222 L60.9846775,7.27523222 L60.9846775,8.17483291 L61.5960249,8.17483291 Z M60.9846775,6.79775186 L59.3429692,6.79775186 C59.7825898,5.98811122 60.5038425,5.00547045 60.9846775,4.44495003 L60.9846775,6.79775186 Z" id="4" transform="translate(60.472932, 5.946591) rotate(7.000000) translate(-60.472932, -5.946591) "></path>
                        <path d="M74.2577558,9.62794479 C75.1989197,9.62877436 75.8442441,9.13809208 75.8434514,8.22476104 L75.8433384,8.12097339 C75.8425129,7.19380399 75.230718,6.76426682 74.330773,6.76345976 L74.2895541,6.7634228 C74.0147619,6.76317636 73.712521,6.79750115 73.4927242,6.83881905 L73.5946685,5.6003792 L75.4220376,5.60201799 L75.5246412,5.10392982 L73.6560532,5.10225082 C73.4636985,5.10208156 73.2370009,5.10879744 73.0377827,5.11553794 L72.8679167,7.22573222 L73.1085448,7.4335231 C73.4519488,7.33696268 73.8366028,7.27503511 74.2487912,7.27540476 L74.2968799,7.27544789 C74.9151626,7.27600237 75.2039596,7.57378562 75.204471,8.14807713 L75.2045324,8.21726888 C75.205087,8.83999462 74.8961921,9.11648437 74.2366906,9.11589292 L74.181732,9.11584363 C73.7695434,9.11547398 73.2129657,8.97659147 72.8143136,8.74790137 L72.6567331,9.22518272 C73.0691434,9.47464268 73.6188635,9.62735738 74.1890577,9.62786879 L74.2577558,9.62794479 Z" id="5" transform="translate(74.250092, 7.365098) rotate(7.000000) translate(-74.250092, -7.365098) "></path>
                        <path d="M86.9520589,11.0120352 C87.8862526,11.0120352 88.4907311,10.4584347 88.4907311,9.53807403 L88.4907311,9.44811395 C88.4907311,8.59003329 87.9824198,8.0917929 87.0757021,8.0917929 L87.0207496,8.0917929 C86.581129,8.0917929 86.1758539,8.21635301 85.8598765,8.37551311 C85.9285672,7.42747238 86.3819259,6.936152 87.0894403,6.936152 L87.1581312,6.936152 C87.4603702,6.936152 87.810693,7.01919208 88.1335393,7.16451218 L88.2777898,6.69395181 C87.9892888,6.54171169 87.542799,6.41715161 87.1375239,6.41715161 L87.0825713,6.41715161 C85.9285672,6.41715161 85.2141837,7.24755224 85.2141837,8.65231334 L85.2141837,8.74919342 C85.2141837,10.1747145 85.708757,11.0120352 86.9108445,11.0120352 L86.9520589,11.0120352 Z M86.9520589,10.4930348 L86.9177135,10.4930348 C86.2376754,10.4930348 85.8598765,10.0224744 85.8530073,8.90143354 C86.1483776,8.74227341 86.5536527,8.6038733 86.9589281,8.6038733 L87.0001425,8.6038733 C87.6046207,8.6038733 87.8519074,8.8668335 87.8519074,9.48271397 L87.8519074,9.55191403 C87.8519074,10.1331945 87.6046207,10.4930348 86.9520589,10.4930348 Z" id="6" transform="translate(86.852457, 8.714593) rotate(7.000000) translate(-86.852457, -8.714593) "></path>
                        <path d="M9.88312729,15.7719873 C10.1849561,15.2740725 10.5690936,14.6309274 10.9326215,13.9877638 C11.3304246,13.2616 11.8242452,12.3556219 12.1739719,11.6432535 L12.1118538,11.3179934 L8.81433623,11.3150361 L8.86973846,11.8132713 L11.4253146,11.8155632 C11.0961543,12.4795154 10.7532482,13.136536 10.3965654,13.7520287 C10.0330375,14.3951924 9.63516042,15.0383252 9.16866513,15.7713466 L9.88312729,15.7719873 Z" id="7" transform="translate(10.494154, 13.543512) rotate(7.000000) translate(-10.494154, -13.543512) "></path>
                        <path d="M21.8594958,16.9955331 C22.834904,16.9955331 23.5218112,16.4765327 23.5218112,15.7014921 L23.5218112,15.6530521 C23.5218112,15.2032517 23.2470482,14.8434114 22.7593442,14.6496513 C23.1371431,14.3936111 23.3706917,14.0060908 23.3706917,13.6254905 L23.3706917,13.5632105 C23.3706917,12.8366099 22.7318679,12.4006495 21.8526267,12.4006495 L21.8045432,12.4006495 C20.925302,12.4006495 20.2658711,12.8781299 20.2658711,13.5908905 L20.2658711,13.6254905 C20.2658711,14.0337708 20.4856814,14.3866911 20.829135,14.5735312 C20.3689072,14.8157314 20.1078824,15.2032517 20.1078824,15.6738121 L20.1078824,15.7153321 C20.1078824,16.5388128 20.7741824,16.9955331 21.8045432,16.9955331 L21.8594958,16.9955331 Z M22.2029494,14.4766512 C22.0655679,14.4420511 21.8251504,14.3797711 21.6328164,14.3244111 C21.1657195,14.192931 20.9046948,13.9784108 20.9046948,13.5978105 L20.9046948,13.5770505 C20.9046948,13.1895302 21.2412793,12.91965 21.8182813,12.91965 L21.8663648,12.91965 C22.4090215,12.91965 22.7318679,13.1826102 22.7318679,13.5978105 L22.7318679,13.6324105 C22.7318679,13.9299707 22.5257957,14.296731 22.2029494,14.4766512 Z M21.8526267,16.4765327 L21.8114123,16.4765327 C21.1382432,16.4765327 20.7467061,16.1720525 20.7467061,15.6945721 L20.7467061,15.6530521 C20.7467061,15.3070518 20.9321711,15.0025716 21.3649226,14.7949714 L21.97627,14.9472115 C22.6357009,15.1132917 22.8829875,15.2932118 22.8829875,15.6668921 L22.8829875,15.7084121 C22.8829875,16.1997325 22.4845813,16.4765327 21.8526267,16.4765327 Z" id="8" transform="translate(21.814847, 14.698091) rotate(7.000000) translate(-21.814847, -14.698091) "></path>
                        <path d="M33.802522,17.9182006 C34.9908716,17.9182006 35.5472665,17.10856 35.5472665,15.6830389 L35.5472665,15.5930788 C35.5472665,14.1537177 35.0870386,13.323317 33.8574748,13.323317 L33.8162602,13.323317 C32.8751975,13.323317 32.2707191,13.8769175 32.2707191,14.8041982 L32.2707191,14.8733982 C32.2707191,15.772999 32.7721614,16.2435593 33.7132243,16.2435593 L33.7750458,16.2435593 C34.1528448,16.2435593 34.6336798,16.0982392 34.9153117,15.9044791 C34.9153117,15.9390791 34.9084428,16.0290391 34.9015736,16.1120792 C34.8328829,16.9424799 34.461953,17.3992002 33.7887839,17.3992002 L33.7338314,17.3992002 C33.4521994,17.3992002 32.9919715,17.3092401 32.7034707,17.1846801 L32.5798272,17.6898404 C32.8751975,17.8282406 33.3285562,17.9182006 33.7475695,17.9182006 L33.802522,17.9182006 Z M33.8299983,15.7383989 L33.7887839,15.7383989 C33.1843057,15.7383989 32.9095427,15.4546787 32.9095427,14.8387982 L32.9095427,14.7765182 C32.9095427,14.1952377 33.1705675,13.8423175 33.8231294,13.8423175 L33.8506056,13.8423175 C34.5649892,13.8423175 34.8878355,14.2990378 34.9084428,15.3716386 C34.5855963,15.6138388 34.1940593,15.7383989 33.8299983,15.7383989 Z" id="9" transform="translate(33.908993, 15.620759) rotate(7.000000) translate(-33.908993, -15.620759) "></path>
                        <path d="M45.9197456,19.0023348 L46.0021744,18.5248544 L44.7726107,18.5248544 L44.7726107,14.5181713 L44.3535972,14.5181713 C43.9689291,14.7742115 43.5018323,14.9472116 42.9591758,15.0510117 L43.0416046,15.5423321 C43.4674871,15.459292 43.8796314,15.3139719 44.1612633,15.1755718 L44.1612633,18.5248544 L42.9110922,18.5248544 L42.9110922,19.0023348 L45.9197456,19.0023348 Z M48.3271745,19.0715348 C48.8629623,19.0715348 49.2888447,18.9054547 49.5636074,18.6078944 C49.9001921,18.2480542 50.0513116,17.7221338 50.0513116,16.9055731 L50.0513116,16.6356929 C50.0513116,15.8260523 49.9001921,15.2932119 49.5636074,14.9402916 C49.2888447,14.6427314 48.8629623,14.4766513 48.3271745,14.4766513 L48.2859601,14.4766513 C47.7433036,14.4766513 47.3036828,14.6496514 47.0289201,14.9541316 C46.7060737,15.3139719 46.5618232,15.8468123 46.5618232,16.6356929 L46.5618232,16.9055731 C46.5618232,17.7013737 46.7060737,18.2272942 47.0289201,18.5871344 C47.3036828,18.8916147 47.7433036,19.0715348 48.2859601,19.0715348 L48.3271745,19.0715348 Z M48.3271745,18.5525344 L48.2996982,18.5525344 C47.9493756,18.5525344 47.702089,18.4487343 47.5028859,18.2342142 C47.2899446,18.005854 47.2006469,17.5006936 47.2006469,16.8640531 L47.2006469,16.6772129 C47.2006469,16.0751725 47.2830757,15.5492521 47.5028859,15.3070519 C47.7089581,15.0786917 47.9493756,14.9956516 48.2928293,14.9956516 L48.3203055,14.9956516 C48.6637592,14.9956516 48.9041767,15.0717717 49.1102487,15.3070519 C49.3231899,15.5561721 49.4124879,16.0682525 49.4124879,16.6772129 L49.4124879,16.8640531 C49.4124879,17.5006936 49.316321,18.033534 49.0965106,18.2549742 C48.8904385,18.4764143 48.65689,18.5525344 48.3271745,18.5525344 Z" id="10" transform="translate(46.481202, 16.774093) rotate(7.000000) translate(-46.481202, -16.774093) "></path>
                        <path d="M58.8564975,20.3863359 L58.9389265,19.9088555 L57.7093626,19.9088555 L57.7093626,15.9021724 L57.2903493,15.9021724 C56.9056812,16.1582126 56.4385842,16.3312127 55.8959277,16.4350128 L55.9783565,16.9263332 C56.4042389,16.8432931 56.8163832,16.697973 57.0980152,16.5595729 L57.0980152,19.9088555 L55.8478441,19.9088555 L55.8478441,20.3863359 L58.8564975,20.3863359 Z M62.7613841,20.3863359 L62.8438129,19.9088555 L61.6142492,19.9088555 L61.6142492,15.9021724 L61.1952357,15.9021724 C60.8105676,16.1582126 60.3434708,16.3312127 59.8008143,16.4350128 L59.8832431,16.9263332 C60.3091256,16.8432931 60.7212699,16.697973 61.0029018,16.5595729 L61.0029018,19.9088555 L59.7527307,19.9088555 L59.7527307,20.3863359 L62.7613841,20.3863359 Z" id="11" transform="translate(59.345829, 18.144254) rotate(7.000000) translate(-59.345829, -18.144254) "></path>
                        <path d="M71.6787651,21.7703369 L71.7611939,21.2928565 L70.5316302,21.2928565 L70.5316302,17.2861734 L70.1126167,17.2861734 C69.7279486,17.5422136 69.2608518,17.7152137 68.7181951,17.8190138 L68.8006239,18.3103342 C69.2265063,18.2272941 69.6386506,18.081974 69.9202828,17.9435739 L69.9202828,21.2928565 L68.6701117,21.2928565 L68.6701117,21.7703369 L71.6787651,21.7703369 Z M75.52183,21.7703369 L75.6454732,21.2928565 L73.516061,21.2928565 L74.1960991,20.7461761 C75.1852456,19.9503755 75.6042588,19.320655 75.6042588,18.6355744 L75.6042588,18.5732944 C75.6042588,17.7152137 74.9791733,17.2446534 74.1548847,17.2446534 L74.1068013,17.2446534 C73.5710135,17.2446534 73.035226,17.3968935 72.650558,17.5975736 L72.7948085,18.088894 C73.1794765,17.8951339 73.6259661,17.7567338 74.0587177,17.7567338 L74.0930632,17.7567338 C74.6769343,17.7567338 74.9654352,18.088894 74.9654352,18.6009744 L74.9654352,18.6355744 C74.9585662,19.2237749 74.6357197,19.7012553 73.7839548,20.4070958 L72.5956054,21.3828166 L72.5956054,21.7703369 L75.52183,21.7703369 Z" id="12" transform="translate(72.157792, 19.507495) rotate(7.000000) translate(-72.157792, -19.507495) "></path>
                        <path d="M84.7300019,23.1543381 L84.8124307,22.6768577 L83.5828667,22.6768577 L83.5828667,18.6701746 L83.1638535,18.6701746 C82.7791854,18.9262148 82.3120886,19.0992149 81.7694318,19.203015 L81.8518607,19.6943354 C82.2777431,19.6112953 82.6898874,19.4659752 82.9715193,19.3275751 L82.9715193,22.6768577 L81.7213482,22.6768577 L81.7213482,23.1543381 L84.7300019,23.1543381 Z M87.0343946,23.2235381 C88.0304101,23.2235381 88.7104482,22.7045377 88.7104482,21.853377 L88.7104482,21.770337 C88.7104482,21.2720966 88.4700307,20.9053363 88.0647555,20.7323362 C88.3395183,20.510896 88.5112451,20.1787357 88.5112451,19.8188955 L88.5112451,19.7773754 C88.5112451,19.0092548 87.9067668,18.6286545 87.1099545,18.6286545 L87.055002,18.6286545 C86.6153814,18.6286545 86.0383792,18.7739747 85.6811874,18.9331348 L85.7979617,19.4175352 C86.1894989,19.251455 86.6153814,19.1476549 87.0206565,19.1476549 L87.055002,19.1476549 C87.5770514,19.1476549 87.8792906,19.3275751 87.8792906,19.8050554 L87.8792906,19.8396555 C87.8792906,20.1579757 87.7075638,20.4347759 87.4465389,20.5870161 L86.395571,20.5870161 L86.4436546,21.0644964 L87.1236926,21.0644964 C87.5701822,21.0644964 87.73504,21.1129365 87.8930287,21.2513366 C88.0029338,21.3551366 88.0716245,21.5419768 88.0716245,21.804937 L88.0716245,21.853377 C88.0716245,22.3931375 87.73504,22.7045377 87.0137875,22.7045377 L86.986311,22.7045377 C86.5810359,22.7045377 86.1482843,22.6007376 85.6880566,22.4138975 L85.5369369,22.8636978 C85.8460453,23.050538 86.4024401,23.2235381 87.0000494,23.2235381 L87.0343946,23.2235381 Z" id="13" transform="translate(85.215898, 20.926096) rotate(7.000000) translate(-85.215898, -20.926096) "></path>
                        <path d="M7.33845841,27.3063414 L7.42088728,26.8288609 L6.19132341,26.8288609 L6.19132341,22.8221778 L5.77231003,22.8221778 C5.38764201,23.078218 4.92054511,23.2512181 4.37788843,23.3550182 L4.46031729,23.8463385 C4.88619976,23.7632985 5.29834408,23.6179783 5.57997601,23.4795783 L5.57997601,26.8288609 L4.32980493,26.8288609 L4.32980493,27.3063414 L7.33845841,27.3063414 Z M10.8998914,27.3063414 L10.8998914,26.4067406 L11.5867986,26.4067406 L11.6417512,25.9292602 L10.8998914,25.9292602 L10.8998914,22.8498578 L10.2129842,22.8498578 C9.38182655,23.7632985 8.49571626,24.9466194 7.91184516,26.0884202 L8.07670288,26.4067406 L10.288544,26.4067406 L10.288544,27.3063414 L10.8998914,27.3063414 Z M10.288544,25.9292602 L8.64683585,25.9292602 C9.08645646,25.1196196 9.80770899,24.1369787 10.288544,23.5764584 L10.288544,25.9292602 Z" id="14" transform="translate(7.985778, 25.064260) rotate(7.000000) translate(-7.985778, -25.064260) "></path>
                        <path d="M19.0158807,28.9210093 L19.0983096,28.4435289 L17.8687457,28.4435289 L17.8687457,24.4368457 L17.4497323,24.4368457 C17.0650643,24.6928859 16.5979674,24.8658861 16.0553107,24.9696861 L16.1377396,25.4610065 C16.5636221,25.3779665 16.9757664,25.2326463 17.2573983,25.0942463 L17.2573983,28.4435289 L16.0072272,28.4435289 L16.0072272,28.9210093 L19.0158807,28.9210093 Z M21.4988695,28.9902092 C22.4399323,28.9902092 23.085625,28.4988889 23.085625,27.5854483 L23.085625,27.4816482 C23.085625,26.5543675 22.4742776,26.1253271 21.5744292,26.1253271 L21.5332148,26.1253271 C21.2584519,26.1253271 20.9562128,26.159927 20.7364025,26.2014471 L20.8394386,24.9627662 L22.6666117,24.9627662 L22.7696478,24.4645259 L20.9012602,24.4645259 C20.7089262,24.4645259 20.4822468,24.4714458 20.2830437,24.4783658 L20.1113169,26.5889674 L20.3517344,26.7965676 C20.695188,26.6996874 21.079856,26.6374075 21.4920004,26.6374075 L21.5400839,26.6374075 C22.1583004,26.6374075 22.4468014,26.9349676 22.4468014,27.5093282 L22.4468014,27.5785281 C22.4468014,28.2013288 22.1376931,28.4781288 21.4782622,28.4781288 L21.4233097,28.4781288 C21.0111653,28.4781288 20.4547705,28.3397288 20.0563643,28.1113686 L19.8983757,28.5888491 C20.31052,28.8379691 20.8600458,28.9902092 21.4301787,28.9902092 L21.4988695,28.9902092 Z" id="15" transform="translate(19.546426, 26.713527) rotate(7.000000) translate(-19.546426, -26.713527) "></path>
                        <path d="M31.1512409,30.5356772 L31.2336697,30.0581967 L30.004106,30.0581967 L30.004106,26.0515138 L29.5850925,26.0515138 C29.2004247,26.3075538 28.7333276,26.480554 28.1906711,26.584354 L28.2730999,27.0756744 C28.6989823,26.9926344 29.1111267,26.8473142 29.3927586,26.7089142 L29.3927586,30.0581967 L28.1425875,30.0581967 L28.1425875,30.5356772 L31.1512409,30.5356772 Z M33.7372658,30.6048771 C34.6714595,30.6048771 35.2759379,30.0512768 35.2759379,29.130916 L35.2759379,29.0409561 C35.2759379,28.1828752 34.7676264,27.6846349 33.860909,27.6846349 L33.8059565,27.6846349 C33.3663359,27.6846349 32.9610607,27.8091951 32.6450834,27.9683552 C32.7137741,27.0203144 33.1671328,26.528994 33.8746471,26.528994 L33.9433378,26.528994 C34.245577,26.528994 34.5958999,26.612034 34.9187462,26.7573542 L35.0629967,26.2867939 C34.7744956,26.1345538 34.3280059,26.0099937 33.9227307,26.0099937 L33.8677782,26.0099937 C32.7137741,26.0099937 31.9993905,26.8403942 31.9993905,28.2451554 L31.9993905,28.3420353 C31.9993905,29.7675566 32.4939637,30.6048771 33.6960514,30.6048771 L33.7372658,30.6048771 Z M33.7372658,30.0858767 L33.7029203,30.0858767 C33.0228822,30.0858767 32.6450834,29.6153164 32.6382142,28.4942755 C32.9335845,28.3351154 33.3388596,28.1967154 33.7441347,28.1967154 L33.7853494,28.1967154 C34.3898276,28.1967154 34.6371143,28.4596755 34.6371143,29.075556 L34.6371143,29.1447561 C34.6371143,29.7260365 34.3898276,30.0858767 33.7372658,30.0858767 Z" id="16" transform="translate(31.709263, 28.307435) rotate(7.000000) translate(-31.709263, -28.307435) "></path>
                        <path d="M43.9735087,31.919678 L44.0559375,31.4421978 L42.8263737,31.4421978 L42.8263737,27.4355146 L42.4073602,27.4355146 C42.0226922,27.6915548 41.5555954,27.864555 41.0129386,27.9683551 L41.0953674,28.4596754 C41.5212499,28.3766354 41.9333942,28.2313152 42.2150263,28.0929152 L42.2150263,31.4421978 L40.964855,31.4421978 L40.964855,31.919678 L43.9735087,31.919678 Z M45.7352447,31.919678 C46.0374839,31.4214377 46.422152,30.7778772 46.7862129,30.1343167 C47.1846191,29.4077162 47.6791922,28.5011956 48.0295148,27.7884349 L47.9676931,27.4631946 L44.6705386,27.4631946 L44.7254914,27.9614351 L47.280786,27.9614351 C46.9510706,28.6257555 46.6076169,29.2831561 46.2504252,29.8990366 C45.8863644,30.5425971 45.4879583,31.1861576 45.0208614,31.919678 L45.7352447,31.919678 Z" id="17" transform="translate(44.497185, 29.677596) rotate(7.000000) translate(-44.497185, -29.677596) "></path>
                        <path d="M56.5668069,33.7650128 L56.6492357,33.2875324 L55.419672,33.2875324 L55.419672,29.2808494 L55.0006585,29.2808494 C54.6159904,29.5368896 54.1488936,29.7098896 53.6062368,29.8136896 L53.6886659,30.30501 C54.1145483,30.22197 54.5266926,30.07665 54.8083246,29.9382498 L54.8083246,33.2875324 L53.5581535,33.2875324 L53.5581535,33.7650128 L56.5668069,33.7650128 Z M58.9948431,33.8342127 C59.9702512,33.8342127 60.6571585,33.3152124 60.6571585,32.5401718 L60.6571585,32.4917317 C60.6571585,32.0419315 60.3823955,31.6820912 59.8946916,31.4883309 C60.2724904,31.2322907 60.506039,30.8447704 60.506039,30.4641703 L60.506039,30.4018901 C60.506039,29.6752896 59.8672153,29.2393293 58.9879739,29.2393293 L58.9398905,29.2393293 C58.0606494,29.2393293 57.4012184,29.7168097 57.4012184,30.4295701 L57.4012184,30.4641703 C57.4012184,30.8724504 57.6210288,31.2253708 57.9644822,31.4122109 C57.5042545,31.6544112 57.2432297,32.0419315 57.2432297,32.5124918 L57.2432297,32.5540119 C57.2432297,33.3774925 57.9095296,33.8342127 58.9398905,33.8342127 L58.9948431,33.8342127 Z M59.3382967,31.315331 C59.2009151,31.2807308 58.9604976,31.2184508 58.7681637,31.1630908 C58.3010669,31.0316108 58.0400421,30.8170904 58.0400421,30.4364901 L58.0400421,30.4157303 C58.0400421,30.02821 58.3766265,29.7583296 58.9536287,29.7583296 L59.001712,29.7583296 C59.5443688,29.7583296 59.8672153,30.0212898 59.8672153,30.4364901 L59.8672153,30.4710903 C59.8672153,30.7686504 59.661143,31.1354108 59.3382967,31.315331 Z M58.9879739,33.3152124 L58.9467595,33.3152124 C58.2735906,33.3152124 57.8820534,33.0107321 57.8820534,32.5332518 L57.8820534,32.4917317 C57.8820534,32.1457316 58.0675183,31.8412513 58.50027,31.6336511 L59.1116174,31.7858913 C59.7710481,31.9519713 60.0183348,32.1318914 60.0183348,32.5055718 L60.0183348,32.5470917 C60.0183348,33.0384123 59.6199286,33.3152124 58.9879739,33.3152124 Z" id="18" transform="translate(57.107656, 31.536771) rotate(7.000000) translate(-57.107656, -31.536771) "></path>
                        <path d="M69.3890746,35.3796808 L69.4715034,34.9022003 L68.2419395,34.9022003 L68.2419395,30.8955174 L67.8229262,30.8955174 C67.4382581,31.1515576 66.9711613,31.3245575 66.4285046,31.4283576 L66.5109334,31.919678 C66.9368158,31.836638 67.3489601,31.691318 67.6305921,31.5529178 L67.6305921,34.9022003 L66.380421,34.9022003 L66.380421,35.3796808 L69.3890746,35.3796808 Z M71.6247767,35.4488809 C72.813126,35.4488809 73.3695209,34.6392402 73.3695209,33.2137192 L73.3695209,33.123759 C73.3695209,31.6843978 72.9092932,30.8539972 71.6797292,30.8539972 L71.6385148,30.8539972 C70.6974519,30.8539972 70.0929737,31.4075978 70.0929737,32.3348785 L70.0929737,32.4040784 C70.0929737,33.3036791 70.5944158,33.7742394 71.5354787,33.7742394 L71.5973004,33.7742394 C71.9750993,33.7742394 72.4559343,33.6289194 72.7375664,33.4351592 C72.7375664,33.4697594 72.7306972,33.5597193 72.7238283,33.6427593 C72.6551373,34.4731602 72.2842077,34.9298803 71.6110385,34.9298803 L71.556086,34.9298803 C71.2744541,34.9298803 70.8142262,34.8399204 70.5257251,34.7153602 L70.4020819,35.2205207 C70.6974519,35.3589207 71.1508106,35.4488809 71.5698241,35.4488809 L71.6247767,35.4488809 Z M71.652253,33.2690792 L71.6110385,33.2690792 C71.0065601,33.2690792 70.7317974,32.9853589 70.7317974,32.3694785 L70.7317974,32.3071983 C70.7317974,31.725918 70.992822,31.3729976 71.645384,31.3729976 L71.6728603,31.3729976 C72.3872436,31.3729976 72.7100901,31.829718 72.7306972,32.9023189 C72.4078509,33.144519 72.0163137,33.2690792 71.652253,33.2690792 Z" id="19" transform="translate(69.874971, 33.151439) rotate(7.000000) translate(-69.874971, -33.151439) "></path>
                        <path d="M82.3784897,36.9943489 L82.5021329,36.5168684 L80.3727206,36.5168684 L81.0527587,35.970188 C82.041905,35.1743874 82.4609185,34.544667 82.4609185,33.8595864 L82.4609185,33.7973065 C82.4609185,32.9392256 81.8358329,32.4686653 81.0115443,32.4686653 L80.9634607,32.4686653 C80.4276732,32.4686653 79.8918856,32.6209055 79.5072176,32.8215857 L79.6514681,33.312906 C80.0361362,33.1191458 80.4826257,32.9807458 80.9153774,32.9807458 L80.9497226,32.9807458 C81.5335937,32.9807458 81.8220948,33.312906 81.8220948,33.8249865 L81.8220948,33.8595864 C81.8152256,34.4477869 81.4923793,34.9252674 80.6406144,35.6311078 L79.4522651,36.6068286 L79.4522651,36.9943489 L82.3784897,36.9943489 Z M84.8477403,37.063549 C85.3835278,37.063549 85.8094102,36.8974688 86.0841732,36.5999087 C86.4207576,36.2400684 86.5718771,35.7141478 86.5718771,34.8975871 L86.5718771,34.627707 C86.5718771,33.8180665 86.4207576,33.285226 86.0841732,32.9323057 C85.8094102,32.6347456 85.3835278,32.4686653 84.8477403,32.4686653 L84.8065258,32.4686653 C84.2638691,32.4686653 83.8242485,32.6416655 83.5494856,32.9461458 C83.2266393,33.3059861 83.0823887,33.8388263 83.0823887,34.627707 L83.0823887,34.8975871 C83.0823887,35.6933878 83.2266393,36.2193083 83.5494856,36.5791486 C83.8242485,36.8836289 84.2638691,37.063549 84.8065258,37.063549 L84.8477403,37.063549 Z M84.8477403,36.5445484 L84.820264,36.5445484 C84.4699412,36.5445484 84.2226547,36.4407483 84.0234516,36.2262283 C83.8105104,35.9978681 83.7212124,35.4927078 83.7212124,34.8560672 L83.7212124,34.6692272 C83.7212124,34.0671866 83.8036412,33.5412662 84.0234516,33.2990659 C84.2295237,33.0707057 84.4699412,32.9876657 84.8133948,32.9876657 L84.8408711,32.9876657 C85.1843247,32.9876657 85.4247422,33.0637858 85.6308145,33.2990659 C85.8437557,33.5481862 85.9330535,34.0602666 85.9330535,34.6692272 L85.9330535,34.8560672 C85.9330535,35.4927078 85.8368865,36.0255481 85.6170761,36.2469883 C85.4110041,36.4684284 85.1774555,36.5445484 84.8477403,36.5445484 Z" id="20" transform="translate(83.012071, 34.766107) rotate(7.000000) translate(-83.012071, -34.766107) "></path>
                        <g id="Group-2" transform="translate(1.590890, 34.305009)">
                            <path d="M4.08296455,5.69285768 L4.20660785,5.2153773 L2.07719557,5.2153773 L2.75723368,4.66869688 C3.74638004,3.87289626 4.16539342,3.24317576 4.16539342,2.55809523 L4.16539342,2.49581519 C4.16539342,1.63773453 3.54030788,1.16717416 2.71601925,1.16717416 L2.66793575,1.16717416 C2.13214814,1.16717416 1.59636053,1.31941428 1.21169251,1.52009443 L1.35594302,2.01141482 C1.74061104,1.81765466 2.18710072,1.67925456 2.61985225,1.67925456 L2.6541976,1.67925456 C3.23806872,1.67925456 3.52656974,2.01141482 3.52656974,2.52349522 L3.52656974,2.55809523 C3.51970065,3.1462957 3.19685429,3.62377606 2.34508937,4.32961661 L1.15673993,5.30533737 L1.15673993,5.69285768 L4.08296455,5.69285768 Z M8.04967282,5.69285768 L8.13210168,5.2153773 L6.90253781,5.2153773 L6.90253781,1.20869419 L6.48352443,1.20869419 C6.09885639,1.46473439 5.63175951,1.63773453 5.08910283,1.74153461 L5.1715317,2.23285499 C5.59741415,2.14981492 6.00955846,2.00449481 6.29119041,1.8660947 L6.29119041,5.2153773 L5.04101931,5.2153773 L5.04101931,5.69285768 L8.04967282,5.69285768 Z" id="21" transform="translate(4.644421, 3.430016) rotate(7.000000) translate(-4.644421, -3.430016) "></path>
                            <path d="M15.0734795,7.07685872 L15.1971228,6.59937836 L13.0677105,6.59937836 L13.7477486,6.05269794 C14.7368949,5.2568973 15.1559084,4.62717683 15.1559084,3.9420963 L15.1559084,3.87981625 C15.1559084,3.02173557 14.5308228,2.55117522 13.7065342,2.55117522 L13.6584507,2.55117522 C13.1226631,2.55117522 12.5868755,2.70341534 12.2022074,2.90409549 L12.3464579,3.39541586 C12.731126,3.20165571 13.1776156,3.0632556 13.6103672,3.0632556 L13.6447125,3.0632556 C14.2285836,3.0632556 14.5170847,3.39541586 14.5170847,3.90749626 L14.5170847,3.9420963 C14.5102156,4.53029674 14.1873692,5.00777713 13.3356043,5.71361767 L12.1472548,6.68933843 L12.1472548,7.07685872 L15.0734795,7.07685872 Z M18.9783661,7.07685872 L19.1020094,6.59937836 L16.9725971,6.59937836 L17.6526352,6.05269794 C18.6417816,5.2568973 19.0607949,4.62717683 19.0607949,3.9420963 L19.0607949,3.87981625 C19.0607949,3.02173557 18.4357094,2.55117522 17.6114208,2.55117522 L17.5633373,2.55117522 C17.0275497,2.55117522 16.4917621,2.70341534 16.107094,2.90409549 L16.2513445,3.39541586 C16.6360126,3.20165571 17.0825022,3.0632556 17.5152538,3.0632556 L17.5495991,3.0632556 C18.1334702,3.0632556 18.4219713,3.39541586 18.4219713,3.90749626 L18.4219713,3.9420963 C18.4151022,4.53029674 18.0922558,5.00777713 17.2404909,5.71361767 L16.0521415,6.68933843 L16.0521415,7.07685872 L18.9783661,7.07685872 Z" id="22" transform="translate(15.624632, 4.814017) rotate(7.000000) translate(-15.624632, -4.814017) "></path>
                            <path d="M27.437809,8.6915267 L27.5614522,8.21404632 L25.4320399,8.21404632 L26.112078,7.6673659 C27.1012245,6.87156529 27.5202378,6.24184479 27.5202378,5.55676426 L27.5202378,5.49448421 C27.5202378,4.63640355 26.8951522,4.16584318 26.0708636,4.16584318 L26.02278,4.16584318 C25.4869925,4.16584318 24.951205,4.3180833 24.5665369,4.51876346 L24.7107875,5.01008384 C25.0954555,4.8163237 25.541945,4.67792358 25.9746967,4.67792358 L26.0090419,4.67792358 C26.592913,4.67792358 26.8814141,5.01008384 26.8814141,5.52216424 L26.8814141,5.55676426 C26.8745452,6.14496473 26.5516986,6.62244509 25.6999337,7.32828563 L24.5115844,8.30400639 L24.5115844,8.6915267 L27.437809,8.6915267 Z M29.8040234,8.76072676 C30.8000389,8.76072676 31.480077,8.24172635 31.480077,7.3905657 L31.480077,7.30752562 C31.480077,6.80928524 31.2396595,6.44252494 30.8343843,6.26952482 C31.1091471,6.04808464 31.2808739,5.71592439 31.2808739,5.3560841 L31.2808739,5.31456407 C31.2808739,4.54644348 30.6763957,4.16584318 29.8795833,4.16584318 L29.8246308,4.16584318 C29.3850102,4.16584318 28.808008,4.31116329 28.4508162,4.47032341 L28.5675905,4.95472379 C28.9591277,4.78864367 29.3850102,4.6848436 29.7902853,4.6848436 L29.8246308,4.6848436 C30.3466802,4.6848436 30.6489194,4.86476372 30.6489194,5.3422441 L30.6489194,5.37684412 C30.6489194,5.69516437 30.4771926,5.9719646 30.2161677,6.12420471 L29.1651998,6.12420471 L29.2132834,6.60168507 L29.8933214,6.60168507 C30.339811,6.60168507 30.5046688,6.65012511 30.6626575,6.78852523 C30.7725626,6.8923253 30.8412533,7.07916546 30.8412533,7.34212566 L30.8412533,7.3905657 C30.8412533,7.9303261 30.5046688,8.24172635 29.7834163,8.24172635 L29.7559398,8.24172635 C29.3506647,8.24172635 28.9179131,8.13792627 28.4576854,7.95108612 L28.3065657,8.40088647 C28.6156741,8.58772661 29.1720689,8.76072676 29.769678,8.76072676 L29.8040234,8.76072676 Z" id="23" transform="translate(27.995831, 6.463285) rotate(7.000000) translate(-27.995831, -6.463285) "></path>
                            <path d="M40.0311072,10.3061945 L40.1547507,9.82871419 L38.0253382,9.82871419 L38.7053765,9.28203375 C39.6945228,8.48623313 40.1135361,7.85651266 40.1135361,7.17143213 L40.1135361,7.10915208 C40.1135361,6.2510714 39.4884505,5.78051103 38.6641619,5.78051103 L38.6160785,5.78051103 C38.0802908,5.78051103 37.5445032,5.93275117 37.1598352,6.13343132 L37.3040857,6.62475169 C37.6887538,6.43099154 38.1352435,6.29259143 38.5679949,6.29259143 L38.6023404,6.29259143 C39.1862115,6.29259143 39.4747124,6.62475169 39.4747124,7.13683209 L39.4747124,7.17143213 C39.4678434,7.75963257 39.1449971,8.23711296 38.2932322,8.9429535 L37.1048826,9.91867426 L37.1048826,10.3061945 L40.0311072,10.3061945 Z M43.654362,10.3061945 L43.654362,9.40659386 L44.3412692,9.40659386 L44.3962218,8.92911347 L43.654362,8.92911347 L43.654362,5.84971108 L42.9674547,5.84971108 C42.1362971,6.7631518 41.2501868,7.94647273 40.6663156,9.0882736 L40.8311735,9.40659386 L43.0430146,9.40659386 L43.0430146,10.3061945 L43.654362,10.3061945 Z M43.0430146,8.92911347 L41.4013063,8.92911347 C41.8409271,8.11947286 42.5621796,7.13683209 43.0430146,6.57631167 L43.0430146,8.92911347 Z" id="24" transform="translate(40.750552, 8.043353) rotate(7.000000) translate(-40.750552, -8.043353) "></path>
                            <path d="M53.3113129,12.1515294 L53.4349564,11.674049 L51.3055439,11.674049 L51.985582,11.1273686 C52.9747285,10.331568 53.3937417,9.7018475 53.3937417,9.01676697 L53.3937417,8.95448692 C53.3937417,8.09640626 52.7686562,7.62584589 51.9443676,7.62584589 L51.8962842,7.62584589 C51.3604964,7.62584589 50.8247089,7.77808601 50.4400408,7.97876617 L50.5842914,8.47008655 C50.9689594,8.27632641 51.4154492,8.13792629 51.8482006,8.13792629 L51.8825461,8.13792629 C52.4664172,8.13792629 52.754918,8.47008655 52.754918,8.98216695 L52.754918,9.01676697 C52.7480491,9.60496744 52.4252028,10.0824478 51.5734377,10.7882883 L50.3850883,11.7640091 L50.3850883,12.1515294 L53.3113129,12.1515294 Z M55.8561234,12.2207295 C56.7971863,12.2207295 57.4428789,11.7294091 57.4428789,10.8159684 L57.4428789,10.7121683 C57.4428789,9.78488756 56.8315315,9.35584724 55.931683,9.35584724 L55.8904686,9.35584724 C55.6157059,9.35584724 55.3134666,9.39044726 55.0936562,9.43196728 L55.1966924,8.19328633 L57.0238656,8.19328633 L57.1269015,7.69504595 L55.2585141,7.69504595 C55.06618,7.69504595 54.8395006,7.70196594 54.6402975,7.70888595 L54.4685707,9.8194876 L54.7089882,10.0270878 C55.0524418,9.93020768 55.4371099,9.86792764 55.8492542,9.86792764 L55.8973378,9.86792764 C56.5155541,9.86792764 56.8040552,10.1654879 56.8040552,10.7398483 L56.8040552,10.8090484 C56.8040552,11.4318488 56.494947,11.7086491 55.835516,11.7086491 L55.7805635,11.7086491 C55.3684192,11.7086491 54.8120243,11.570249 54.4136182,11.3418888 L54.2556295,11.8193692 C54.6677738,12.0684893 55.2172997,12.2207295 55.7874327,12.2207295 L55.8561234,12.2207295 Z" id="25" transform="translate(53.913984, 9.923288) rotate(7.000000) translate(-53.913984, -9.923288) "></path>
                            <path d="M65.4466733,13.9968641 L65.5703166,13.5193838 L63.4409043,13.5193838 L64.1209424,12.9727033 C65.1100889,12.1769027 65.5291021,11.5471823 65.5291021,10.8621017 L65.5291021,10.7998217 C65.5291021,9.941741 64.9040166,9.47118063 64.079728,9.47118063 L64.0316446,9.47118063 C63.4958568,9.47118063 62.9600693,9.62342074 62.5754013,9.8241009 L62.7196518,10.3154213 C63.1043199,10.1216611 63.5508094,9.98326103 63.983561,9.98326103 L64.0179065,9.98326103 C64.6017776,9.98326103 64.8902785,10.3154213 64.8902785,10.8275017 L64.8902785,10.8621017 C64.8834095,11.4503022 64.560563,11.9277825 63.7087981,12.6336231 L62.5204487,13.6093439 L62.5204487,13.9968641 L65.4466733,13.9968641 Z M68.0945197,14.0660642 C69.0287136,14.0660642 69.6331919,13.5124638 69.6331919,12.592103 L69.6331919,12.502143 C69.6331919,11.6440623 69.1248806,11.1458219 68.2181632,11.1458219 L68.1632106,11.1458219 C67.7235898,11.1458219 67.3183147,11.270382 67.0023373,11.4295422 C67.071028,10.4815014 67.5243869,9.99018104 68.2319013,9.99018104 L68.300592,9.99018104 C68.6028312,9.99018104 68.9531538,10.0732211 69.2760001,10.2185412 L69.4202506,9.74798085 C69.1317495,9.59574074 68.68526,9.47118063 68.2799846,9.47118063 L68.2250321,9.47118063 C67.071028,9.47118063 66.3566447,10.3015813 66.3566447,11.7063424 L66.3566447,11.8032224 C66.3566447,13.2287436 66.8512178,14.0660642 68.0533053,14.0660642 L68.0945197,14.0660642 Z M68.0945197,13.5470638 L68.0601745,13.5470638 C67.3801364,13.5470638 67.0023373,13.0765034 66.9954684,11.9554626 C67.2908384,11.7963024 67.6961135,11.6579023 68.1013889,11.6579023 L68.1426033,11.6579023 C68.7470815,11.6579023 68.9943682,11.9208625 68.9943682,12.536743 L68.9943682,12.6059431 C68.9943682,13.1872235 68.7470815,13.5470638 68.0945197,13.5470638 Z" id="26" transform="translate(66.076820, 11.768622) rotate(7.000000) translate(-66.076820, -11.768622) "></path>
                            <path d="M78.9558479,15.611532 L79.0794913,15.1340516 L76.9500788,15.1340516 L77.6301172,14.5873712 C78.6192634,13.7915706 79.0382767,13.1618501 79.0382767,12.4767696 L79.0382767,12.4144895 C79.0382767,11.5564089 78.4131911,11.0858485 77.5889025,11.0858485 L77.5408192,11.0858485 C77.0050316,11.0858485 76.4692439,11.2380886 76.0845758,11.4387688 L76.2288264,11.9300892 C76.6134944,11.736329 77.0599842,11.5979289 77.4927356,11.5979289 L77.527081,11.5979289 C78.1109522,11.5979289 78.399453,11.9300892 78.399453,12.4421696 L78.399453,12.4767696 C78.3925841,13.06497 78.0697377,13.5424504 77.2179728,14.248291 L76.0296233,15.2240117 L76.0296233,15.611532 L78.9558479,15.611532 Z M80.7794058,15.611532 C81.0816448,15.1132916 81.4663129,14.4697311 81.8303738,13.8261706 C82.22878,13.0995701 82.7233531,12.1930494 83.0736757,11.4802888 L83.0118542,11.1550486 L79.7146995,11.1550486 L79.7696523,11.6532889 L82.324947,11.6532889 C81.9952315,12.3176095 81.6517778,12.97501 81.2945861,13.5908905 C80.9305253,14.234451 80.5321192,14.8780115 80.0650223,15.611532 L80.7794058,15.611532 Z" id="27" transform="translate(79.551649, 13.348690) rotate(7.000000) translate(-79.551649, -13.348690) "></path>
                        </g>
                        <path d="M3.38416272,51.7708668 L3.50780601,51.2933865 L1.37839372,51.2933865 L2.05843184,50.7467059 C3.04757818,49.9509053 3.46659158,49.3211849 3.46659158,48.6361043 L3.46659158,48.5738243 C3.46659158,47.7157437 2.84150602,47.2451832 2.01721741,47.2451832 L1.9691339,47.2451832 C1.4333463,47.2451832 0.897558689,47.3974234 0.512890662,47.5981036 L0.657141172,48.0894239 C1.0418092,47.8956639 1.48829887,47.7572636 1.9210504,47.7572636 L1.95539576,47.7572636 C2.53926687,47.7572636 2.82776789,48.0894239 2.82776789,48.6015043 L2.82776789,48.6361043 C2.82089882,49.2243048 2.49805244,49.7017853 1.64628753,50.4076257 L0.457938088,51.3833465 L0.457938088,51.7708668 L3.38416272,51.7708668 Z M5.8740205,51.8400669 C6.84942872,51.8400669 7.53633592,51.3210665 7.53633592,50.546026 L7.53633592,50.4975859 C7.53633592,50.0477854 7.26157303,49.6879451 6.77386892,49.4941851 C7.15166787,49.2381449 7.38521633,48.8506246 7.38521633,48.4700243 L7.38521633,48.4077443 C7.38521633,47.6811436 6.74639263,47.2451832 5.86715144,47.2451832 L5.81906794,47.2451832 C4.93982672,47.2451832 4.28039582,47.7226637 4.28039582,48.4354243 L4.28039582,48.4700243 C4.28039582,48.8783046 4.50020614,49.2312247 4.84365972,49.418065 C4.38343191,49.6602651 4.12240719,50.0477854 4.12240719,50.5183457 L4.12240719,50.5598658 C4.12240719,51.3833465 4.78870716,51.8400669 5.81906794,51.8400669 L5.8740205,51.8400669 Z M6.21747411,49.3211849 C6.08009266,49.286585 5.83967514,49.2243048 5.64734114,49.1689448 C5.18024424,49.0374647 4.91921952,48.8229446 4.91921952,48.4423443 L4.91921952,48.4215842 C4.91921952,48.0340639 5.25580404,47.7641838 5.83280607,47.7641838 L5.88088957,47.7641838 C6.42354627,47.7641838 6.74639263,48.027144 6.74639263,48.4423443 L6.74639263,48.4769442 C6.74639263,48.7745045 6.54032047,49.1412648 6.21747411,49.3211849 Z M5.86715144,51.3210665 L5.82593701,51.3210665 C5.15276797,51.3210665 4.76123086,51.0165863 4.76123086,50.5391058 L4.76123086,50.4975859 C4.76123086,50.1515855 4.94669581,49.8471052 5.37944733,49.6395051 L5.99079473,49.7917452 C6.65022563,49.9578255 6.89751222,50.1377456 6.89751222,50.5114258 L6.89751222,50.5529459 C6.89751222,51.0442663 6.49910604,51.3210665 5.86715144,51.3210665 Z" id="28" transform="translate(3.997137, 49.542625) rotate(7.000000) translate(-3.997137, -49.542625) "></path>
                        <path d="M14.6036468,53.6162015 L14.7272901,53.1387213 L12.5978778,53.1387213 L13.277916,52.5920409 C14.2670623,51.7962403 14.6860757,51.1665197 14.6860757,50.4814393 L14.6860757,50.4191591 C14.6860757,49.5610785 14.0609902,49.0905182 13.2367015,49.0905182 L13.188618,49.0905182 C12.6528304,49.0905182 12.1170428,49.2427583 11.7323748,49.4434383 L11.8766253,49.9347587 C12.2612933,49.7409986 12.707783,49.6025986 13.1405345,49.6025986 L13.1748799,49.6025986 C13.758751,49.6025986 14.047252,49.9347587 14.047252,50.4468391 L14.047252,50.4814393 C14.040383,51.0696398 13.7175366,51.54712 12.8657717,52.2529607 L11.6774222,53.2286812 L11.6774222,53.6162015 L14.6036468,53.6162015 Z M16.9011706,53.6854016 C18.0895201,53.6854016 18.6459149,52.8757611 18.6459149,51.4502399 L18.6459149,51.3602799 C18.6459149,49.9209188 18.1856871,49.0905182 16.9561232,49.0905182 L16.9149088,49.0905182 C15.9738459,49.0905182 15.3693676,49.6441185 15.3693676,50.5713992 L15.3693676,50.6405993 C15.3693676,51.5402001 15.8708098,52.0107604 16.8118727,52.0107604 L16.8736943,52.0107604 C17.2514933,52.0107604 17.7323283,51.8654402 18.0139603,51.6716801 C18.0139603,51.7062801 18.0070912,51.7962403 18.0002221,51.8792803 C17.9315314,52.7096809 17.5606015,53.1664013 16.8874325,53.1664013 L16.8324799,53.1664013 C16.550848,53.1664013 16.0906201,53.0764413 15.8021191,52.9518812 L15.6784758,53.4570414 C15.9738459,53.5954417 16.4272047,53.6854016 16.8462181,53.6854016 L16.9011706,53.6854016 Z M16.9286469,51.5055999 L16.8874325,51.5055999 C16.2829542,51.5055999 16.0081913,51.2218797 16.0081913,50.6059994 L16.0081913,50.5437192 C16.0081913,49.9624389 16.269216,49.6095186 16.9217778,49.6095186 L16.9492541,49.6095186 C17.6636376,49.6095186 17.986484,50.066239 18.0070912,51.1388396 C17.6842448,51.38104 17.2927077,51.5055999 16.9286469,51.5055999 Z" id="29" transform="translate(15.161669, 51.387960) rotate(7.000000) translate(-15.161669, -51.387960) "></path>
                        <path d="M25.4293042,55.7614035 C26.4253196,55.7614035 27.1053577,55.2424031 27.1053577,54.3912425 L27.1053577,54.3082022 C27.1053577,53.8099619 26.8649402,53.4432017 26.4596648,53.2702015 C26.7344278,53.0487612 26.9061546,52.7166012 26.9061546,52.3567609 L26.9061546,52.3152408 C26.9061546,51.5471201 26.3016761,51.1665198 25.504864,51.1665198 L25.4499112,51.1665198 C25.0102907,51.1665198 24.4332887,51.31184 24.0760969,51.4710001 L24.1928712,51.9554005 C24.5844082,51.7893204 25.0102907,51.6855201 25.415566,51.6855201 L25.4499112,51.6855201 C25.9719609,51.6855201 26.2741999,51.8654403 26.2741999,52.3429208 L26.2741999,52.3775207 C26.2741999,52.6958411 26.102473,52.9726411 25.8414485,53.1248813 L24.7904805,53.1248813 L24.8385638,53.6023618 L25.5186022,53.6023618 C25.9650917,53.6023618 26.1299496,53.6508018 26.287938,53.7892018 C26.3978433,53.8930019 26.466534,54.079842 26.466534,54.3428024 L26.466534,54.3912425 C26.466534,54.9310029 26.1299496,55.2424031 25.4086968,55.2424031 L25.3812206,55.2424031 C24.9759454,55.2424031 24.5431938,55.138603 24.0829661,54.9517627 L23.9318464,55.4015632 C24.2409546,55.5884033 24.7973494,55.7614035 25.3949587,55.7614035 L25.4293042,55.7614035 Z M29.4372269,55.7614035 C29.9730145,55.7614035 30.3988969,55.5953232 30.6736599,55.2977631 C31.0102443,54.9379228 31.1613638,54.4120023 31.1613638,53.5954418 L31.1613638,53.3255615 C31.1613638,52.515921 31.0102443,51.9830805 30.6736599,51.6301601 C30.3988969,51.3326 29.9730145,51.1665198 29.4372269,51.1665198 L29.3960123,51.1665198 C28.8533558,51.1665198 28.4137352,51.33952 28.1389723,51.6440003 C27.8161259,52.0038405 27.6718754,52.536681 27.6718754,53.3255615 L27.6718754,53.5954418 C27.6718754,54.3912425 27.8161259,54.9171628 28.1389723,55.277003 C28.4137352,55.5814833 28.8533558,55.7614035 29.3960123,55.7614035 L29.4372269,55.7614035 Z M29.4372269,55.2424031 L29.4097504,55.2424031 C29.0594278,55.2424031 28.8121411,55.138603 28.6129381,54.9240827 C28.3999968,54.6957225 28.3106991,54.1905623 28.3106991,53.5539217 L28.3106991,53.3670816 C28.3106991,52.765041 28.3931279,52.2391207 28.6129381,51.9969206 C28.8190103,51.7685604 29.0594278,51.6855201 29.4028815,51.6855201 L29.4303577,51.6855201 C29.7738114,51.6855201 30.0142289,51.7616402 30.2203009,51.9969206 C30.4332421,52.2460406 30.5225401,52.7581211 30.5225401,53.3670816 L30.5225401,53.5539217 C30.5225401,54.1905623 30.4263732,54.7234025 30.2065628,54.9448428 C30.0004907,55.166283 29.7669422,55.2424031 29.4372269,55.2424031 Z" id="30" transform="translate(27.546605, 53.463962) rotate(7.000000) translate(-27.546605, -53.463962) "></path>
                        <path d="M38.2515716,57.8374048 C39.247587,57.8374048 39.9276251,57.3184044 39.9276251,56.4672437 L39.9276251,56.3842037 C39.9276251,55.8859634 39.6872076,55.519203 39.2819325,55.346203 C39.5566954,55.1247627 39.728422,54.7926025 39.728422,54.4327622 L39.728422,54.3912423 C39.728422,53.6231216 39.1239438,53.2425213 38.3271314,53.2425213 L38.2721789,53.2425213 C37.8325583,53.2425213 37.2555561,53.3878415 36.8983646,53.5470016 L37.0151386,54.031402 C37.4066758,53.8653217 37.8325583,53.7615217 38.2378334,53.7615217 L38.2721789,53.7615217 C38.7942283,53.7615217 39.0964675,53.9414418 39.0964675,54.4189223 L39.0964675,54.4535222 C39.0964675,54.7718424 38.9247407,55.0486427 38.6637159,55.2008828 L37.6127479,55.2008828 L37.6608315,55.6783633 L38.3408696,55.6783633 C38.7873593,55.6783633 38.952217,55.7268031 39.1102056,55.8652034 C39.2201107,55.9690034 39.2888014,56.1558435 39.2888014,56.4188037 L39.2888014,56.4672437 C39.2888014,57.0070042 38.952217,57.3184044 38.2309645,57.3184044 L38.2034882,57.3184044 C37.7982128,57.3184044 37.3654614,57.2146043 36.9052335,57.0277642 L36.754114,57.4775645 C37.0632222,57.6644048 37.6196171,57.8374048 38.2172263,57.8374048 L38.2515716,57.8374048 Z M43.7569521,57.7682049 L43.8393809,57.2907244 L42.6098169,57.2907244 L42.6098169,53.2840414 L42.1908036,53.2840414 C41.8061356,53.5400816 41.3390387,53.7130816 40.796382,53.8168817 L40.8788108,54.308202 C41.3046933,54.225162 41.7168376,54.0798418 41.9984695,53.9414418 L41.9984695,57.2907244 L40.7482984,57.2907244 L40.7482984,57.7682049 L43.7569521,57.7682049 Z" id="31" transform="translate(40.296747, 55.539963) rotate(7.000000) translate(-40.296747, -55.539963) "></path>
                    </g>
                </g>
                <g id="moneda" transform="translate(93.724138, 32.259259)" fill-rule="nonzero">
                    <ellipse id="Oval" stroke="#000000" stroke-width="0.5" fill="#D7192D" cx="24.7126437" cy="24.6999314" rx="24.137931" ry="24.1255144"></ellipse>
                    <path d="M25.5777589,38.0541382 C28.4330451,38.0541382 31.2111611,37.2236557 33.3333333,35.8118357 L32.2915398,33.2373402 C30.2465375,34.3169673 27.9314407,34.8983052 25.6935136,34.8983052 L25.4620039,34.8983052 C21.1790748,34.8983052 18.825393,32.5729544 18.4009585,28.337494 L27.8542708,28.337494 L28.39446,25.4723295 L18.2466187,25.4723295 C18.2080338,25.1816607 18.1694489,24.7664195 18.1694489,24.26813 C18.1694489,23.8113646 18.1694489,23.4376475 18.2080338,23.1469787 L27.8542708,23.1469787 L28.39446,20.2818144 L18.4781284,20.2818144 C18.7096381,18.1640842 19.4427521,16.4200711 20.4459608,15.4234922 C21.6806791,14.2192927 23.2626621,13.637955 25.6549287,13.637955 L25.9250234,13.637955 C28.0086106,13.637955 29.976443,14.1777686 31.9056903,15.340444 L33.1018237,12.6413761 C30.9796515,11.2710801 28.2015352,10.4821218 25.7320986,10.4821218 L25.5391738,10.4821218 C19.6356769,10.4821218 15.6614272,13.7625274 14.8125584,20.2818144 L11.4942529,20.2818144 L11.4942529,23.1469787 L14.5424637,23.1469787 C14.5038788,23.4791717 14.5038788,23.8528887 14.5038788,24.26813 C14.5038788,24.6833712 14.5038788,25.0570883 14.5424637,25.4723295 L11.4942529,25.4723295 L11.4942529,28.337494 L14.7353885,28.337494 C14.9283132,31.2441824 15.9315219,33.5695332 17.6292596,35.3135462 C19.2884123,37.0990835 21.9507737,38.0541382 25.3076641,38.0541382 L25.5777589,38.0541382 Z" id="-copy" fill="#FFFFFF"></path>
                </g>
            </g>
        </g>
    </g>
</svg>