<svg xmlns="http://www.w3.org/2000/svg" width="186" height="120" viewBox="0 0 186 120">
    <g fill="none" fill-rule="evenodd">
        <path fill="#D71F2E" d="M174.88 71.026c-.269-4.632-.266-12.444-8.03-13.896V21.578C166.85 11.91 159.038 4 149.488 4H33.662c-9.55 0-17.364 7.91-17.364 17.578v33.255C3.596 62.89 5.05 71.026 5.05 71.026 5.045 86.284 5.05 98 5.05 98h169.83s.269-22.342 0-26.974z"/>
        <path fill="#000" fill-rule="nonzero" stroke="#000" stroke-width=".5" d="M85.685 56c-.56 0-1.262-.197-2.022-.41-.807-.227-1.722-.483-2.457-.483H29.794c-.734 0-1.65.256-2.457.483-1.376.387-2.563.719-3.06-.076-.681-1.092.007-2.726.852-4.328.66-1.254 2.535-22.08.126-31.063-.14-.521-.355-1.097-.562-1.653-.53-1.424-.95-2.55-.397-3.155.439-.48 1.213-.285 1.467-.22.444.112.812.208 1.13.292 1.399.369 1.821.48 3.722.6 2.146.136 21.11.395 24.89.446 3.77-.05 22.734-.31 24.88-.446 1.9-.12 2.323-.231 3.722-.6.318-.084.686-.18 1.13-.293.254-.064 1.028-.26 1.467.22.554.607.134 1.732-.397 3.156-.207.556-.422 1.132-.562 1.653-2.409 8.984-.535 29.81.126 31.063.845 1.602 1.533 3.236.852 4.328-.222.356-.584.486-1.038.486zM29.794 54.28h51.412c.85 0 1.825.273 2.686.515.777.217 1.954.548 2.12.284.466-.747-.227-2.27-.882-3.513-.976-1.849-2.543-22.892-.193-31.655.15-.56.372-1.153.585-1.728.29-.778.776-2.08.561-2.316-.027-.031-.198-.085-.638.026-.441.112-.806.208-1.123.292-1.422.374-1.9.5-3.884.625-2.166.137-21.149.397-24.932.448-3.795-.05-22.778-.31-24.944-.448-1.983-.125-2.462-.251-3.884-.625-.317-.084-.682-.18-1.123-.292-.44-.11-.61-.056-.638-.026-.215.236.27 1.538.56 2.316.214.575.436 1.169.586 1.728 2.35 8.763.783 29.806-.193 31.655-.655 1.244-1.348 2.766-.881 3.513.164.264 1.341-.066 2.12-.284.86-.242 1.835-.515 2.685-.515zM160.684 56c-.56 0-1.261-.197-2.02-.41-.808-.227-1.723-.483-2.457-.483h-51.413c-.734 0-1.65.256-2.457.483-1.375.386-2.563.72-3.06-.077-.681-1.091.007-2.725.852-4.327.66-1.254 2.535-22.08.126-31.063-.14-.521-.355-1.097-.562-1.653-.53-1.424-.95-2.55-.397-3.155.439-.48 1.212-.285 1.467-.22.444.112.812.208 1.13.292 1.399.369 1.821.48 3.722.6 2.146.136 21.11.395 24.89.446 3.77-.05 22.734-.31 24.88-.446 1.901-.12 2.322-.231 3.72-.6.32-.084.688-.18 1.133-.293.254-.064 1.028-.259 1.466.22.554.607.134 1.732-.397 3.157-.207.556-.422 1.13-.561 1.652-2.41 8.983-.536 29.81.125 31.063.845 1.602 1.534 3.236.852 4.327-.222.357-.584.487-1.039.487zm-55.89-1.72h51.413c.85 0 1.824.274 2.684.515.78.218 1.956.547 2.12.285.467-.748-.225-2.27-.881-3.513-.976-1.849-2.544-22.893-.193-31.655.15-.56.372-1.153.586-1.726.29-.78.775-2.082.56-2.318-.028-.03-.197-.085-.638.026-.442.112-.807.208-1.124.292-1.421.374-1.9.5-3.883.625-2.165.137-21.149.397-24.932.448-3.795-.05-22.778-.31-24.944-.448-1.984-.125-2.462-.251-3.883-.626-.318-.083-.683-.179-1.124-.29-.44-.111-.61-.057-.638-.027-.215.236.27 1.538.56 2.316.214.575.436 1.169.586 1.728 2.35 8.763.783 29.806-.193 31.655-.655 1.243-1.348 2.765-.881 3.512.166.265 1.341-.065 2.12-.284.86-.24 1.835-.514 2.685-.514z"/>
        <path fill="#000" stroke="#000" d="M184 84H2V72.317C2 61.665 10.667 53 21.321 53h3.839v.833H21.32c-10.194 0-18.487 8.292-18.487 18.484v10.85h180.332v-10.85c0-10.192-8.294-18.484-18.488-18.484h-4.033V53h4.033C175.332 53 184 61.665 184 72.317V84z"/>
        <path fill="#000" stroke="#000" d="M87 53h12v1H87z"/>
        <path fill="#000" fill-rule="nonzero" stroke="#000" d="M184 104H2V84h182v20zm-181.166-.808h180.332V84.808H2.834v18.384z"/>
        <path fill="#000" fill-rule="nonzero" stroke="#000" stroke-width=".5" d="M13 119H1v-16h12v16zm-11.156-.849h10.312V103.85H1.844v14.302zM185 119h-12v-16h12v16zm-11.156-.849h10.312V103.85h-10.312v14.302z"/>
        <path fill="#000" stroke="#000" d="M173 55h-.839V15.596c0-7.589-6.213-13.762-13.85-13.762H26.69c-7.637 0-13.85 6.173-13.85 13.762V55H12V15.596C12 7.548 18.59 1 26.689 1H158.31C166.411 1 173 7.548 173 15.596V55z"/>
    </g>
</svg>
