<?xml version="1.0" encoding="UTF-8"?>
<svg width="278px" height="202px" viewBox="0 0 278 202" version="1.1" xmlns="http://www.w3.org/2000/svg" xmlns:xlink="http://www.w3.org/1999/xlink">
    <title>HOTEL</title>
    <defs>
        <polygon id="path-1" points="0 0.119993033 26.9113049 0.119993033 26.9113049 59.9674912 0 59.9674912"></polygon>
        <polygon id="path-3" points="0 72.6091371 27.0851189 72.6091371 27.0851189 0.403384095 0 0.403384095"></polygon>
        <path d="M0.211989041,51.1237103 C0.422271932,51.6056212 0.635967122,52.0860242 0.856486909,52.5636267 L0.856486909,52.5636267 L1.00406882,52.8820283 C0.908737729,52.7359685 0.825349686,52.599603 0.756037374,52.4761631 C0.519948975,52.055649 0.338244083,51.5982967 0.211989041,51.1237103 Z" id="path-5"></path>
        <linearGradient x1="-45.264839%" y1="-2829.15836%" x2="67.9753647%" y2="593.289318%" id="linearGradient-7">
            <stop stop-color="#333333" offset="0%"></stop>
            <stop stop-color="#333333" offset="100%"></stop>
        </linearGradient>
        <path d="M6.23789482,4.39148649 C9.28017215,-1.38649041 14.2683127,-0.972008195 15.8910738,3.65257069 C16.713651,5.99685109 16.6505235,8.54341777 16.7426556,11.0283722 C16.8347876,13.5131113 17.1613019,16.1275376 18.6441589,18.1152857 C20.9468205,21.2019287 25.7018584,22.3510182 26.7281072,26.0716639 C27.4252824,28.5988422 26.014297,31.198404 24.5003028,33.3322119 C24.3049212,33.6075419 24.1056267,33.8842385 23.9065,34.1629972 L23.7572503,34.3724638 C23.7324018,34.4074429 23.7075719,34.442457 23.6827686,34.4775074 L23.5343306,34.6882562 C22.3257294,36.4131058 21.219113,38.2316274 21.1521982,40.3036563 C21.0231707,44.3056501 24.8148741,47.5465391 24.9658683,51.5476713 C25.1106777,55.3902489 20.0314715,58.9837925 16.2843412,59.7115061 C14.5295668,60.0523121 12.8852655,60.0322774 11.3697784,59.7681635 C22.232404,25.9723519 16.3615445,14.0555573 6.31957672,4.46343923 L6.31957672,4.46343923" id="path-8"></path>
        <linearGradient x1="49.3290966%" y1="-0.207436638%" x2="51.8802014%" y2="100.3382%" id="linearGradient-10">
            <stop stop-color="#333333" stop-opacity="0.2" offset="0%"></stop>
            <stop stop-color="#333333" stop-opacity="0" offset="100%"></stop>
        </linearGradient>
        <polygon id="path-11" points="0 0.150557296 34.5216392 0.150557296 34.5216392 75.2422296 0 75.2422296"></polygon>
        <polygon id="path-13" points="0 91.1039172 34.7446066 91.1039172 34.7446066 0.506132874 0 0.506132874"></polygon>
        <path d="M0.271938102,64.1457874 C0.541687567,64.7504493 0.815814306,65.3532191 1.09869559,65.952475 L1.09869559,65.952475 L1.28801266,66.3519789 C1.16572259,66.1687152 1.05875297,65.9976151 0.969839609,65.842733 C0.666987015,65.3151067 0.433897213,64.7412591 0.271938102,64.1457874 Z" id="path-15"></path>
        <linearGradient x1="-49.5759346%" y1="-2829.15836%" x2="68.7888182%" y2="593.289318%" id="linearGradient-17">
            <stop stop-color="#333333" offset="0%"></stop>
            <stop stop-color="#333333" offset="100%"></stop>
        </linearGradient>
        <path d="M8.00192912,5.51007267 C11.9045418,-1.73965306 18.3032946,-1.21959519 20.3849616,4.58294247 C21.4401581,7.52435089 21.3591785,10.7195714 21.4773649,13.8374859 C21.5955513,16.9551302 22.0144016,20.2354952 23.9166004,22.7295566 C26.8704391,26.60242 32.9701694,28.0442021 34.2866344,32.7125595 C35.180966,35.8834529 33.3709635,39.1451673 31.4288221,41.8224922 C31.1781879,42.1679535 30.9225342,42.5151294 30.6670959,42.8648927 L30.4756393,43.127714 C30.4437639,43.1716029 30.4119123,43.2155357 30.3800947,43.259514 L30.1896795,43.5239441 C28.639294,45.6881422 27.2197341,47.9698721 27.1338963,50.5696819 C26.9683806,55.5910516 31.832352,59.6574501 32.0260463,64.6777385 C32.2118069,69.4990859 25.6962356,74.007966 20.8894424,74.9210406 C18.6384296,75.3486558 16.529131,75.3235178 14.5850745,74.9921296 C28.5195768,32.587951 20.9884782,17.6357465 8.1067101,5.60035299 L8.1067101,5.60035299" id="path-18"></path>
        <linearGradient x1="49.2987357%" y1="-0.207436638%" x2="51.9652876%" y2="100.3382%" id="linearGradient-20">
            <stop stop-color="#333333" stop-opacity="0.2" offset="0%"></stop>
            <stop stop-color="#333333" stop-opacity="0" offset="100%"></stop>
        </linearGradient>
        <linearGradient x1="40.2856619%" y1="21.4734314%" x2="59.7143381%" y2="100%" id="linearGradient-21">
            <stop stop-color="#000000" stop-opacity="0.1" offset="0%"></stop>
            <stop stop-color="#000000" stop-opacity="0.0147756858" offset="100%"></stop>
        </linearGradient>
        <linearGradient x1="54.1464978%" y1="100%" x2="41.6924607%" y2="-2.92365925%" id="linearGradient-22">
            <stop stop-color="#000000" stop-opacity="0.2" offset="0%"></stop>
            <stop stop-color="#000000" stop-opacity="0" offset="100%"></stop>
        </linearGradient>
        <linearGradient x1="49.2916023%" y1="6.74773071%" x2="52.3720486%" y2="89.107689%" id="linearGradient-23">
            <stop stop-color="#FFFFFF" stop-opacity="0.1" offset="0%"></stop>
            <stop stop-color="#FFFFFF" stop-opacity="0" offset="100%"></stop>
        </linearGradient>
        <linearGradient x1="46.4593597%" y1="0%" x2="65.9113936%" y2="87.9968742%" id="linearGradient-24">
            <stop stop-color="#FFFFFF" stop-opacity="0.07" offset="0%"></stop>
            <stop stop-color="#FFFFFF" stop-opacity="0" offset="100%"></stop>
        </linearGradient>
        <linearGradient x1="0.512373364%" y1="2.57577857%" x2="70.6303983%" y2="39.1860525%" id="linearGradient-25">
            <stop stop-color="#FFFFFF" stop-opacity="0.07" offset="0%"></stop>
            <stop stop-color="#FFFFFF" stop-opacity="0" offset="100%"></stop>
        </linearGradient>
        <linearGradient x1="19.452164%" y1="64.3277428%" x2="80.547836%" y2="0%" id="linearGradient-26">
            <stop stop-color="#000000" stop-opacity="0.3" offset="0%"></stop>
            <stop stop-color="#000000" stop-opacity="0" offset="100%"></stop>
        </linearGradient>
        <linearGradient x1="50.7366049%" y1="100%" x2="47.0697671%" y2="-46.1729669%" id="linearGradient-27">
            <stop stop-color="#000000" stop-opacity="0.3" offset="0%"></stop>
            <stop stop-color="#000000" stop-opacity="0" offset="100%"></stop>
        </linearGradient>
        <linearGradient x1="85.0233912%" y1="247.307692%" x2="-5.69373892%" y2="247.307692%" id="linearGradient-28">
            <stop stop-color="#FFFFFF" offset="0%"></stop>
            <stop stop-color="#E1E1E1" offset="34%"></stop>
            <stop stop-color="#A8A3A1" offset="100%"></stop>
        </linearGradient>
        <polygon id="path-29" points="0 0.00502563291 16.0006559 0.00502563291 16.0006559 18.1344535 0 18.1344535"></polygon>
        <path d="M10.2909592,0.0202906969 L7.08380765,17.5821535 C6.73368821,18.1377657 6.00019878,18.3015028 5.44590292,17.9477389 L0,14.4535045 L8.16579892,1.51015717" id="path-31"></path>
        <polygon id="path-33" points="0 0.00522264893 7.74333704 0.00522264893 7.74333704 5.78354961 0 5.78354961"></polygon>
        <polygon id="path-35" points="0.00241825001 0.11617657 1.99468447 0.11617657 1.99468447 2.11729011 0.00241825001 2.11729011"></polygon>
        <path d="M0.119215636,0.0205614468 C1.09315684,0.244035858 1.9376257,0.852774751 2.46309611,1.71020209 L2.46309611,1.71020209 L11.468782,16.3918255 L5.46266259,20.355232 C4.85127367,20.7564054 4.04262896,20.570752 3.65644165,19.9407013" id="path-37"></path>
        <linearGradient x1="85.0233912%" y1="247.307692%" x2="-5.69373892%" y2="247.307692%" id="linearGradient-39">
            <stop stop-color="#FFFFFF" offset="0%"></stop>
            <stop stop-color="#E1E1E1" offset="34%"></stop>
            <stop stop-color="#A8A3A1" offset="100%"></stop>
        </linearGradient>
        <linearGradient x1="44.1833289%" y1="105.205034%" x2="58.0131575%" y2="41.8449619%" id="linearGradient-40">
            <stop stop-color="#000000" stop-opacity="0" offset="0%"></stop>
            <stop stop-color="#000000" stop-opacity="0.25" offset="100%"></stop>
        </linearGradient>
        <linearGradient x1="46.9581355%" y1="105.205034%" x2="54.1905308%" y2="41.8449619%" id="linearGradient-41">
            <stop stop-color="#000000" stop-opacity="0.257184222" offset="0%"></stop>
            <stop stop-color="#000000" stop-opacity="0" offset="100%"></stop>
        </linearGradient>
        <linearGradient x1="45.254793%" y1="105.205034%" x2="56.537088%" y2="41.8449619%" id="linearGradient-42">
            <stop stop-color="#000000" stop-opacity="0.25" offset="0%"></stop>
            <stop stop-color="#000000" stop-opacity="0" offset="100%"></stop>
        </linearGradient>
        <linearGradient x1="5.0006521%" y1="50.0114202%" x2="100.013042%" y2="50.0114202%" id="linearGradient-43">
            <stop stop-color="#FFFFFF" stop-opacity="0" offset="0%"></stop>
            <stop stop-color="#FFFFFF" stop-opacity="0.25" offset="100%"></stop>
        </linearGradient>
        <linearGradient x1="5.0006521%" y1="50.0114202%" x2="100.013042%" y2="50.0114202%" id="linearGradient-44">
            <stop stop-color="#FFFFFF" stop-opacity="0.25" offset="0%"></stop>
            <stop stop-color="#FFFFFF" stop-opacity="0" offset="100%"></stop>
        </linearGradient>
        <linearGradient x1="47.8911851%" y1="95.8222103%" x2="50.6506816%" y2="19.1375226%" id="linearGradient-45">
            <stop stop-color="#000000" stop-opacity="0.19960118" offset="0%"></stop>
            <stop stop-color="#000000" stop-opacity="0" offset="100%"></stop>
        </linearGradient>
        <polygon id="path-46" points="0.206485714 0.114862154 8.16994286 0.114862154 6.88628571 7.72898677 1.4904 7.72898677"></polygon>
        <linearGradient x1="43.2610702%" y1="38.6945176%" x2="79.2697561%" y2="92.3036444%" id="linearGradient-48">
            <stop stop-color="#FFFFFF" offset="0%"></stop>
            <stop stop-color="#FDEC98" offset="100%"></stop>
        </linearGradient>
        <polygon id="path-49" points="0.206485714 0.114862154 8.16994286 0.114862154 6.88628571 7.72898677 1.4904 7.72898677"></polygon>
    </defs>
    <g id="ALP" stroke="none" stroke-width="1" fill="none" fill-rule="evenodd">
        <g id="01_Currents_flight_campaigns-ALP_1280_uncheck_age" transform="translate(-1150.000000, -734.000000)">
            <g id="HOTEL" transform="translate(1150.000000, 734.000000)">
                <path d="M278,19.760479 L278,33.5928144 L195.191489,38.3188002 L278,40.508982 L278,165 L0,165 L0,19.760479 L278,19.760479 Z M0.14914202,67.1856287 L0,73.1137725 L50.2765957,70.5895203 L0.14914202,67.1856287 Z M278,63.2335329 L137.028369,72.1257485 L277.942958,72.1257485 L278,63.2335329 Z M107.453901,30.6287425 L0.0649385996,30.6287425 L0,37.5449102 L107.453901,30.6287425 Z M278,0 L278,2.96407186 L0,2.96407186 L0,0 L278,0 Z" id="fondo" fill="#DEFFFF"></path>
                <rect id="suelo" fill="#DDDDDD" x="0" y="165" width="278" height="10"></rect>
                <g id="hotel" transform="translate(76.000000, 37.000000)">
                    <rect id="Rectangle" fill="#E8E2DF" x="7.08529304" y="26.4570809" width="115.805453" height="84.8466321"></rect>
                    <rect id="Rectangle-Copy" fill="#C4B7AB" x="7.08529304" y="110.215936" width="115.805453" height="17.4044373"></rect>
                    <g id="cartel" transform="translate(122.347059, 35.703188)">
                        <polygon id="Fill-2" fill="#163560" points="-4.08610532e-13 6.65294365 7.61162604 6.65294365 7.61162604 6.40038436 -4.08610532e-13 6.40038436"></polygon>
                        <polygon id="Fill-3" fill="#163560" points="-4.08610532e-13 43.637373 7.61162604 43.637373 7.61162604 43.3848137 -4.08610532e-13 43.3848137"></polygon>
                        <path d="M10.808509,52.7572007 C9.05023582,52.7572007 7.61162604,51.2944109 7.61162604,49.5068663 L7.61162604,3.25033439 C7.61162604,1.46266314 9.05023582,-1.02190416e-14 10.808509,-1.02190416e-14 L15.8321822,-1.02190416e-14 C17.5904553,-1.02190416e-14 19.0290651,1.46266314 19.0290651,3.25033439 L19.0290651,49.5068663 C19.0290651,51.2944109 17.5904553,52.7572007 15.8321822,52.7572007 L10.808509,52.7572007 Z" id="Fill-4" fill="#9D2024"></path>
                        <polygon id="Fill-6" fill="#FFFFFF" points="11.4174391 6.52666401 12.2244366 6.52666401 12.2244366 8.33555354 14.4162545 8.33555354 14.4162545 6.52666401 15.2232521 6.52666401 15.2232521 10.8777733 14.4162545 10.8777733 14.4162545 9.04407745 12.2244366 9.04407745 12.2244366 10.8777733 11.4174391 10.8777733"></polygon>
                        <path d="M14.9044899,17.404676 C14.9044899,16.5868889 14.2429863,15.9081245 13.3139084,15.9081245 C12.3844322,15.9081245 11.7362013,16.5751943 11.7362013,17.404676 C11.7362013,18.2219858 12.3977048,18.9012276 13.3271809,18.9012276 C14.2562589,18.9012276 14.9044899,18.2336804 14.9044899,17.404676 M10.8737515,17.404676 C10.8737515,16.2202988 11.8898973,15.2288827 13.3271809,15.2288827 C14.7643318,15.2288827 15.7669397,16.2086042 15.7669397,17.404676 C15.7669397,18.5884565 14.7507938,19.579992 13.3139084,19.579992 C11.8766248,19.579992 10.8737515,18.6006284 10.8737515,17.404676" id="Fill-8" fill="#FFFFFF"></path>
                        <polygon id="Fill-10" fill="#FFFFFF" points="12.9047499 24.6396253 11.4174391 24.6396253 11.4174391 23.9311014 15.2232521 23.9311014 15.2232521 24.6396253 13.7356751 24.6396253 13.7356751 28.2822107 12.9047499 28.2822107"></polygon>
                        <polygon id="Fill-12" fill="#FFFFFF" points="11.4174391 32.63332 14.648539 32.63332 14.648539 33.317161 12.1831875 33.317161 12.1831875 34.4483803 14.3681972 34.4483803 14.3681972 35.1320978 12.1831875 35.1320978 12.1831875 36.3007118 14.6795645 36.3007118 14.6795645 36.9844294 11.4174391 36.9844294"></polygon>
                        <polygon id="Fill-14" fill="#FFFFFF" points="11.4174391 41.3355387 12.2346523 41.3355387 12.2346523 44.9902188 14.6795645 44.9902188 14.6795645 45.686648 11.4174391 45.686648"></polygon>
                    </g>
                    <g id="ventanas" transform="translate(17.415357, 36.247077)">
                        <g id="Group-2">
                            <g id="Group">
                                <polygon id="Fill-52" fill="#5E7F7E" points="0.251813192 24.5082893 16.6196707 24.5082893 16.6196707 0.25529468 0.251813192 0.25529468"></polygon>
                                <path d="M8.05768051,0.25529468 C8.05768051,0.25529468 8.23893111,8.30555935 0.251813192,14.5517968 L0.251813192,0.25529468 L8.05768051,0.25529468 Z" id="Fill-53" fill="#6DB7B7"></path>
                                <path d="M9.82103423,0.25529468 C9.82103423,0.25529468 9.65145215,8.30550579 17.1232971,14.5517968 L17.1232971,0.25529468 L9.82103423,0.25529468 Z" id="Fill-54" fill="#6DB7B7"></path>
                                <polygon id="Fill-55" fill="#FFFFFF" points="8.81346173 24.5082893 9.06527492 24.5082893 9.06527492 0.25529468 8.81346173 0.25529468"></polygon>
                                <polygon id="Fill-56" fill="#FFFFFF" points="0.251813192 7.65884041 16.6196707 7.65884041 16.6196707 7.40354573 0.251813192 7.40354573"></polygon>
                                <polygon id="Fill-57" fill="#FFFFFF" points="0.251813192 16.5941542 16.6196707 16.5941542 16.6196707 16.3388595 0.251813192 16.3388595"></polygon>
                                <path d="M0.757421409,24.2556259 L16.6178111,24.2556259 L16.6178111,0.763006469 L0.757421409,0.763006469 L0.757421409,24.2556259 Z M0,25.0188787 L17.3751103,25.0188787 L17.3751103,0 L0,0 L0,25.0188787 Z" id="Fill-58" fill="#FFFFFF"></path>
                            </g>
                            <g id="Group-Copy" transform="translate(26.188572, 0.000000)">
                                <polygon id="Fill-52" fill="#5E7F7E" points="0.251813192 24.5082893 16.6196707 24.5082893 16.6196707 0.25529468 0.251813192 0.25529468"></polygon>
                                <path d="M8.05768051,0.25529468 C8.05768051,0.25529468 8.23893111,8.30555935 0.251813192,14.5517968 L0.251813192,0.25529468 L8.05768051,0.25529468 Z" id="Fill-53" fill="#6DB7B7"></path>
                                <path d="M9.82103423,0.25529468 C9.82103423,0.25529468 9.65145215,8.30550579 17.1232971,14.5517968 L17.1232971,0.25529468 L9.82103423,0.25529468 Z" id="Fill-54" fill="#6DB7B7"></path>
                                <polygon id="Fill-55" fill="#FFFFFF" points="8.81346173 24.5082893 9.06527492 24.5082893 9.06527492 0.25529468 8.81346173 0.25529468"></polygon>
                                <polygon id="Fill-56" fill="#FFFFFF" points="0.251813192 7.65884041 16.6196707 7.65884041 16.6196707 7.40354573 0.251813192 7.40354573"></polygon>
                                <polygon id="Fill-57" fill="#FFFFFF" points="0.251813192 16.5941542 16.6196707 16.5941542 16.6196707 16.3388595 0.251813192 16.3388595"></polygon>
                                <path d="M0.757421409,24.2556259 L16.6178111,24.2556259 L16.6178111,0.763006469 L0.757421409,0.763006469 L0.757421409,24.2556259 Z M0,25.0188787 L17.3751103,25.0188787 L17.3751103,0 L0,0 L0,25.0188787 Z" id="Fill-58" fill="#FFFFFF"></path>
                            </g>
                            <g id="Group-Copy-2" transform="translate(52.125331, 0.000000)">
                                <polygon id="Fill-52" fill="#5E7F7E" points="0.251813192 24.5082893 16.6196707 24.5082893 16.6196707 0.25529468 0.251813192 0.25529468"></polygon>
                                <path d="M8.05768051,0.25529468 C8.05768051,0.25529468 8.23893111,8.30555935 0.251813192,14.5517968 L0.251813192,0.25529468 L8.05768051,0.25529468 Z" id="Fill-53" fill="#6DB7B7"></path>
                                <path d="M9.82103423,0.25529468 C9.82103423,0.25529468 9.65145215,8.30550579 17.1232971,14.5517968 L17.1232971,0.25529468 L9.82103423,0.25529468 Z" id="Fill-54" fill="#6DB7B7"></path>
                                <polygon id="Fill-55" fill="#FFFFFF" points="8.81346173 24.5082893 9.06527492 24.5082893 9.06527492 0.25529468 8.81346173 0.25529468"></polygon>
                                <polygon id="Fill-56" fill="#FFFFFF" points="0.251813192 7.65884041 16.6196707 7.65884041 16.6196707 7.40354573 0.251813192 7.40354573"></polygon>
                                <polygon id="Fill-57" fill="#FFFFFF" points="0.251813192 16.5941542 16.6196707 16.5941542 16.6196707 16.3388595 0.251813192 16.3388595"></polygon>
                                <path d="M0.757421409,24.2556259 L16.6178111,24.2556259 L16.6178111,0.763006469 L0.757421409,0.763006469 L0.757421409,24.2556259 Z M0,25.0188787 L17.3751103,25.0188787 L17.3751103,0 L0,0 L0,25.0188787 Z" id="Fill-58" fill="#FFFFFF"></path>
                            </g>
                            <g id="Group-Copy-3" transform="translate(78.313903, 0.000000)">
                                <polygon id="Fill-52" fill="#5E7F7E" points="0.251813192 24.5082893 16.6196707 24.5082893 16.6196707 0.25529468 0.251813192 0.25529468"></polygon>
                                <path d="M8.05768051,0.25529468 C8.05768051,0.25529468 8.23893111,8.30555935 0.251813192,14.5517968 L0.251813192,0.25529468 L8.05768051,0.25529468 Z" id="Fill-53" fill="#6DB7B7"></path>
                                <path d="M9.82103423,0.25529468 C9.82103423,0.25529468 9.65145215,8.30550579 17.1232971,14.5517968 L17.1232971,0.25529468 L9.82103423,0.25529468 Z" id="Fill-54" fill="#6DB7B7"></path>
                                <polygon id="Fill-55" fill="#FFFFFF" points="8.81346173 24.5082893 9.06527492 24.5082893 9.06527492 0.25529468 8.81346173 0.25529468"></polygon>
                                <polygon id="Fill-56" fill="#FFFFFF" points="0.251813192 7.65884041 16.6196707 7.65884041 16.6196707 7.40354573 0.251813192 7.40354573"></polygon>
                                <polygon id="Fill-57" fill="#FFFFFF" points="0.251813192 16.5941542 16.6196707 16.5941542 16.6196707 16.3388595 0.251813192 16.3388595"></polygon>
                                <path d="M0.757421409,24.2556259 L16.6178111,24.2556259 L16.6178111,0.763006469 L0.757421409,0.763006469 L0.757421409,24.2556259 Z M0,25.0188787 L17.3751103,25.0188787 L17.3751103,0 L0,0 L0,25.0188787 Z" id="Fill-58" fill="#FFFFFF"></path>
                            </g>
                        </g>
                        <g id="Group-2-Copy" transform="translate(0.000000, 32.633320)">
                            <g id="Group">
                                <polygon id="Fill-52" fill="#5E7F7E" points="0.251813192 24.5082893 16.6196707 24.5082893 16.6196707 0.25529468 0.251813192 0.25529468"></polygon>
                                <path d="M8.05768051,0.25529468 C8.05768051,0.25529468 8.23893111,8.30555935 0.251813192,14.5517968 L0.251813192,0.25529468 L8.05768051,0.25529468 Z" id="Fill-53" fill="#6DB7B7"></path>
                                <path d="M9.82103423,0.25529468 C9.82103423,0.25529468 9.65145215,8.30550579 17.1232971,14.5517968 L17.1232971,0.25529468 L9.82103423,0.25529468 Z" id="Fill-54" fill="#6DB7B7"></path>
                                <polygon id="Fill-55" fill="#FFFFFF" points="8.81346173 24.5082893 9.06527492 24.5082893 9.06527492 0.25529468 8.81346173 0.25529468"></polygon>
                                <polygon id="Fill-56" fill="#FFFFFF" points="0.251813192 7.65884041 16.6196707 7.65884041 16.6196707 7.40354573 0.251813192 7.40354573"></polygon>
                                <polygon id="Fill-57" fill="#FFFFFF" points="0.251813192 16.5941542 16.6196707 16.5941542 16.6196707 16.3388595 0.251813192 16.3388595"></polygon>
                                <path d="M0.757421409,24.2556259 L16.6178111,24.2556259 L16.6178111,0.763006469 L0.757421409,0.763006469 L0.757421409,24.2556259 Z M0,25.0188787 L17.3751103,25.0188787 L17.3751103,0 L0,0 L0,25.0188787 Z" id="Fill-58" fill="#FFFFFF"></path>
                            </g>
                            <g id="Group-Copy" transform="translate(26.188572, 0.000000)">
                                <polygon id="Fill-52" fill="#5E7F7E" points="0.251813192 24.5082893 16.6196707 24.5082893 16.6196707 0.25529468 0.251813192 0.25529468"></polygon>
                                <path d="M8.05768051,0.25529468 C8.05768051,0.25529468 8.23893111,8.30555935 0.251813192,14.5517968 L0.251813192,0.25529468 L8.05768051,0.25529468 Z" id="Fill-53" fill="#6DB7B7"></path>
                                <path d="M9.82103423,0.25529468 C9.82103423,0.25529468 9.65145215,8.30550579 17.1232971,14.5517968 L17.1232971,0.25529468 L9.82103423,0.25529468 Z" id="Fill-54" fill="#6DB7B7"></path>
                                <polygon id="Fill-55" fill="#FFFFFF" points="8.81346173 24.5082893 9.06527492 24.5082893 9.06527492 0.25529468 8.81346173 0.25529468"></polygon>
                                <polygon id="Fill-56" fill="#FFFFFF" points="0.251813192 7.65884041 16.6196707 7.65884041 16.6196707 7.40354573 0.251813192 7.40354573"></polygon>
                                <polygon id="Fill-57" fill="#FFFFFF" points="0.251813192 16.5941542 16.6196707 16.5941542 16.6196707 16.3388595 0.251813192 16.3388595"></polygon>
                                <path d="M0.757421409,24.2556259 L16.6178111,24.2556259 L16.6178111,0.763006469 L0.757421409,0.763006469 L0.757421409,24.2556259 Z M0,25.0188787 L17.3751103,25.0188787 L17.3751103,0 L0,0 L0,25.0188787 Z" id="Fill-58" fill="#FFFFFF"></path>
                            </g>
                            <g id="Group-Copy-2" transform="translate(52.125331, 0.000000)">
                                <polygon id="Fill-52" fill="#5E7F7E" points="0.251813192 24.5082893 16.6196707 24.5082893 16.6196707 0.25529468 0.251813192 0.25529468"></polygon>
                                <path d="M8.05768051,0.25529468 C8.05768051,0.25529468 8.23893111,8.30555935 0.251813192,14.5517968 L0.251813192,0.25529468 L8.05768051,0.25529468 Z" id="Fill-53" fill="#6DB7B7"></path>
                                <path d="M9.82103423,0.25529468 C9.82103423,0.25529468 9.65145215,8.30550579 17.1232971,14.5517968 L17.1232971,0.25529468 L9.82103423,0.25529468 Z" id="Fill-54" fill="#6DB7B7"></path>
                                <polygon id="Fill-55" fill="#FFFFFF" points="8.81346173 24.5082893 9.06527492 24.5082893 9.06527492 0.25529468 8.81346173 0.25529468"></polygon>
                                <polygon id="Fill-56" fill="#FFFFFF" points="0.251813192 7.65884041 16.6196707 7.65884041 16.6196707 7.40354573 0.251813192 7.40354573"></polygon>
                                <polygon id="Fill-57" fill="#FFFFFF" points="0.251813192 16.5941542 16.6196707 16.5941542 16.6196707 16.3388595 0.251813192 16.3388595"></polygon>
                                <path d="M0.757421409,24.2556259 L16.6178111,24.2556259 L16.6178111,0.763006469 L0.757421409,0.763006469 L0.757421409,24.2556259 Z M0,25.0188787 L17.3751103,25.0188787 L17.3751103,0 L0,0 L0,25.0188787 Z" id="Fill-58" fill="#FFFFFF"></path>
                            </g>
                            <g id="Group-Copy-3" transform="translate(78.313903, 0.000000)">
                                <polygon id="Fill-52" fill="#5E7F7E" points="0.251813192 24.5082893 16.6196707 24.5082893 16.6196707 0.25529468 0.251813192 0.25529468"></polygon>
                                <path d="M8.05768051,0.25529468 C8.05768051,0.25529468 8.23893111,8.30555935 0.251813192,14.5517968 L0.251813192,0.25529468 L8.05768051,0.25529468 Z" id="Fill-53" fill="#6DB7B7"></path>
                                <path d="M9.82103423,0.25529468 C9.82103423,0.25529468 9.65145215,8.30550579 17.1232971,14.5517968 L17.1232971,0.25529468 L9.82103423,0.25529468 Z" id="Fill-54" fill="#6DB7B7"></path>
                                <polygon id="Fill-55" fill="#FFFFFF" points="8.81346173 24.5082893 9.06527492 24.5082893 9.06527492 0.25529468 8.81346173 0.25529468"></polygon>
                                <polygon id="Fill-56" fill="#FFFFFF" points="0.251813192 7.65884041 16.6196707 7.65884041 16.6196707 7.40354573 0.251813192 7.40354573"></polygon>
                                <polygon id="Fill-57" fill="#FFFFFF" points="0.251813192 16.5941542 16.6196707 16.5941542 16.6196707 16.3388595 0.251813192 16.3388595"></polygon>
                                <path d="M0.757421409,24.2556259 L16.6178111,24.2556259 L16.6178111,0.763006469 L0.757421409,0.763006469 L0.757421409,24.2556259 Z M0,25.0188787 L17.3751103,25.0188787 L17.3751103,0 L0,0 L0,25.0188787 Z" id="Fill-58" fill="#FFFFFF"></path>
                            </g>
                        </g>
                    </g>
                    <g id="ventanas_superior" transform="translate(0.339349, 0.773855)">
                        <polygon id="Rectangle-Copy-2" fill="#9D2024" points="7.77874089 0.664347231 123.149664 0.664347231 130.706711 25.6832259 0.221693525 25.6832259"></polygon>
                        <g id="Group-3" transform="translate(19.250759, 7.191011)">
                            <polygon id="Fill-75" fill="#5E7F7E" points="2.19360858 10.9445643 11.1475667 10.9445643 11.1475667 2.07093056 2.19360858 2.07093056"></polygon>
                            <path d="M2.60881357,10.5342243 L10.7326187,10.5342243 L10.7326187,2.48127053 L2.60881357,2.48127053 L2.60881357,10.5342243 Z M1.7789176,11.3547769 L11.5626432,11.3547769 L11.5626432,1.66071794 L1.7789176,1.66071794 L1.7789176,11.3547769 Z" id="Fill-76" fill="#C3B7AB"></path>
                            <polygon id="Fill-77" fill="#C3B7AB" points="6.26508488 10.9444369 7.07621888 10.9444369 7.07621888 2.0708032 6.26508488 2.0708032"></polygon>
                            <polygon id="Fill-78" fill="#C3B7AB" points="-9.99869605e-15 1.86104841 12.9629802 1.86104841 12.9629802 2.70519299e-15 -9.99869605e-15 2.70519299e-15"></polygon>
                        </g>
                        <g id="Group-3-Copy" transform="translate(45.347762, 7.191011)">
                            <polygon id="Fill-75" fill="#5E7F7E" points="2.19360858 10.9445643 11.1475667 10.9445643 11.1475667 2.07093056 2.19360858 2.07093056"></polygon>
                            <path d="M2.60881357,10.5342243 L10.7326187,10.5342243 L10.7326187,2.48127053 L2.60881357,2.48127053 L2.60881357,10.5342243 Z M1.7789176,11.3547769 L11.5626432,11.3547769 L11.5626432,1.66071794 L1.7789176,1.66071794 L1.7789176,11.3547769 Z" id="Fill-76" fill="#C3B7AB"></path>
                            <polygon id="Fill-77" fill="#C3B7AB" points="6.26508488 10.9444369 7.07621888 10.9444369 7.07621888 2.0708032 6.26508488 2.0708032"></polygon>
                            <polygon id="Fill-78" fill="#C3B7AB" points="-9.99869605e-15 1.86104841 12.9629802 1.86104841 12.9629802 2.70519299e-15 -9.99869605e-15 2.70519299e-15"></polygon>
                        </g>
                        <g id="Group-3-Copy-2" transform="translate(71.444766, 7.191011)">
                            <polygon id="Fill-75" fill="#5E7F7E" points="2.19360858 10.9445643 11.1475667 10.9445643 11.1475667 2.07093056 2.19360858 2.07093056"></polygon>
                            <path d="M2.60881357,10.5342243 L10.7326187,10.5342243 L10.7326187,2.48127053 L2.60881357,2.48127053 L2.60881357,10.5342243 Z M1.7789176,11.3547769 L11.5626432,11.3547769 L11.5626432,1.66071794 L1.7789176,1.66071794 L1.7789176,11.3547769 Z" id="Fill-76" fill="#C3B7AB"></path>
                            <polygon id="Fill-77" fill="#C3B7AB" points="6.26508488 10.9444369 7.07621888 10.9444369 7.07621888 2.0708032 6.26508488 2.0708032"></polygon>
                            <polygon id="Fill-78" fill="#C3B7AB" points="-9.99869605e-15 1.86104841 12.9629802 1.86104841 12.9629802 2.70519299e-15 -9.99869605e-15 2.70519299e-15"></polygon>
                        </g>
                        <g id="Group-3-Copy-3" transform="translate(97.541769, 7.191011)">
                            <polygon id="Fill-75" fill="#5E7F7E" points="2.19360858 10.9445643 11.1475667 10.9445643 11.1475667 2.07093056 2.19360858 2.07093056"></polygon>
                            <path d="M2.60881357,10.5342243 L10.7326187,10.5342243 L10.7326187,2.48127053 L2.60881357,2.48127053 L2.60881357,10.5342243 Z M1.7789176,11.3547769 L11.5626432,11.3547769 L11.5626432,1.66071794 L1.7789176,1.66071794 L1.7789176,11.3547769 Z" id="Fill-76" fill="#C3B7AB"></path>
                            <polygon id="Fill-77" fill="#C3B7AB" points="6.26508488 10.9444369 7.07621888 10.9444369 7.07621888 2.0708032 6.26508488 2.0708032"></polygon>
                            <polygon id="Fill-78" fill="#C3B7AB" points="-9.99869605e-15 1.86104841 12.9629802 1.86104841 12.9629802 2.70519299e-15 -9.99869605e-15 2.70519299e-15"></polygon>
                        </g>
                    </g>
                </g>
                <g id="arbol" transform="translate(5.000000, 93.000000)">
                    <mask id="mask-2" fill="white">
                        <use xlink:href="#path-1"></use>
                    </mask>
                    <g id="Clip-2"></g>
                    <path d="M4.51444951,9.37384711 C3.93521185,12.0787529 2.96419968,14.6832695 2.18918139,17.3379807 C1.39134336,20.0704612 0.586680737,22.8503357 0.596277826,25.6987161 C0.609073945,29.4034202 2.06825807,33.0839965 4.59229257,35.7777 C5.58121931,36.833294 6.73606907,37.7557539 7.49807796,38.9877829 C8.25987359,40.2200274 8.54053514,41.9122092 7.68980648,43.0837031 C6.46244539,44.7739461 3.83668173,44.4077196 2.04159949,45.4633136 C-0.218408427,46.7927158 -0.532553153,50.1809571 0.756016047,52.4761201 C2.04458525,54.771283 7.91203242,61.3375086 16.2843199,59.7116784 C20.0314501,58.9837494 25.1106564,55.3902058 24.965847,51.5478436 C24.815066,47.5464961 21.0231494,44.305607 21.1521769,40.3036132 C21.2368446,37.6818624 22.9860741,35.4659767 24.5002815,33.3321688 C26.0144889,31.1985763 27.4252611,28.5987991 26.7280858,26.0716209 C25.7018371,22.3509751 20.9467992,21.2018857 18.6441376,18.1152426 C17.1612806,16.1277099 16.8347663,13.5130682 16.7426343,11.0283291 C16.6505022,8.54337469 16.7136297,5.996808 15.8910525,3.6525276 C13.895711,-2.03367725 6.81220598,-1.35551196 4.51444951,9.37384711" id="Fill-1" fill="#93DCC4" mask="url(#mask-2)"></path>
                    <mask id="mask-4" fill="white">
                        <use xlink:href="#path-3"></use>
                    </mask>
                    <g id="Clip-5"></g>
                    <polygon id="Fill-4" fill="#575756" mask="url(#mask-4)" points="13.1442489 72.6091371 13.5425594 72.6091371 13.5425594 23.7996616 13.1442489 23.7996616"></polygon>
                    <mask id="mask-6" fill="white">
                        <use xlink:href="#path-5"></use>
                    </mask>
                    <g id="Clip-7"></g>
                    <path d="M0.856486909,52.5636267 C0.635967122,52.0860242 0.422271932,51.6056212 0.211989041,51.1237103 C0.338244083,51.5982967 0.519948975,52.055649 0.756037374,52.4761631 C0.825349686,52.599603 0.908737729,52.7359685 1.00406882,52.8820283 L0.856486909,52.5636267 Z" id="Fill-6" fill="url(#linearGradient-7)" mask="url(#mask-6)"></path>
                    <mask id="mask-9" fill="white">
                        <use xlink:href="#path-8"></use>
                    </mask>
                    <g id="Clip-10"></g>
                    <path d="M24.5003028,33.3322119 C26.014297,31.198404 27.4252824,28.5988422 26.7281072,26.0716639 C25.7018584,22.3510182 20.9468205,21.2019287 18.6441589,18.1152857 C17.1613019,16.1275376 16.8347876,13.5131113 16.7426556,11.0283722 C16.6505235,8.54341777 16.713651,5.99685109 15.8910738,3.65257069 C14.2683127,-0.972008195 9.28017215,-1.38649041 6.23789482,4.39148649 L6.31957672,4.46343923 C16.3615445,14.0555573 22.232404,25.9723519 11.3697784,59.7681635 C12.8852655,60.0322774 14.5295668,60.0523121 16.2843412,59.7115061 C20.0314715,58.9837925 25.1106777,55.3902489 24.9658683,51.5476713 C24.8148741,47.5465391 21.0231707,44.3056501 21.1521982,40.3036563 C21.2368659,37.6819054 22.9860954,35.4660197 24.5003028,33.3322119 Z" id="Fill-9" fill="url(#linearGradient-10)" mask="url(#mask-9)"></path>
                </g>
                <g id="arbol" transform="translate(36.000000, 74.000000)">
                    <mask id="mask-12" fill="white">
                        <use xlink:href="#path-11"></use>
                    </mask>
                    <g id="Clip-2"></g>
                    <path d="M5.79110518,11.7615252 C5.04806304,15.1554164 3.80245522,18.4233476 2.80826703,21.7542589 C1.78480582,25.1827485 0.752590065,28.6707043 0.764901146,32.2446155 C0.781315921,36.8929707 2.6531474,41.5110522 5.89096173,44.8908878 C7.15955024,46.2153595 8.64098366,47.3727856 9.6184835,48.9186333 C10.5957098,50.4647513 10.9557405,52.5879606 9.86443154,54.0578539 C8.28998106,56.1786305 4.92166928,55.7191199 2.61894996,57.0435916 C-0.280172847,58.7116151 -0.683155568,62.962899 0.969812251,65.8426789 C2.62278007,68.7224589 10.1495015,76.9612136 20.889415,74.9212569 C25.6962082,74.007912 32.2117795,69.4990318 32.026019,64.6779547 C31.8325982,59.657396 26.9683533,55.5909975 27.1338689,50.5696279 C27.24248,47.2800726 29.4863797,44.4997632 31.4287947,41.8224382 C33.3712098,39.1453835 35.1809387,35.8833989 34.286607,32.7125054 C32.9701421,28.044148 26.8704118,26.602366 23.9165731,22.7295025 C22.0143742,20.2357115 21.5955239,16.9550761 21.4773375,13.8374319 C21.3591512,10.7195173 21.4401307,7.52429683 20.3849343,4.58288841 C17.8253237,-2.55168938 8.73865157,-1.70078387 5.79110518,11.7615252" id="Fill-1" fill="#93DCC4" mask="url(#mask-12)"></path>
                    <mask id="mask-14" fill="white">
                        <use xlink:href="#path-13"></use>
                    </mask>
                    <g id="Clip-5"></g>
                    <polygon id="Fill-4" fill="#575756" mask="url(#mask-14)" points="16.8613532 91.1039172 17.3723033 91.1039172 17.3723033 29.8618395 16.8613532 29.8618395"></polygon>
                    <mask id="mask-16" fill="white">
                        <use xlink:href="#path-15"></use>
                    </mask>
                    <g id="Clip-7"></g>
                    <path d="M1.09869559,65.952475 C0.815814306,65.3532191 0.541687567,64.7504493 0.271938102,64.1457874 C0.433897213,64.7412591 0.666987015,65.3151067 0.969839609,65.842733 C1.05875297,65.9976151 1.16572259,66.1687152 1.28801266,66.3519789 L1.09869559,65.952475 Z" id="Fill-6" fill="url(#linearGradient-17)" mask="url(#mask-16)"></path>
                    <mask id="mask-19" fill="white">
                        <use xlink:href="#path-18"></use>
                    </mask>
                    <g id="Clip-10"></g>
                    <path d="M31.4288221,41.8224922 C33.3709635,39.1451673 35.180966,35.8834529 34.2866344,32.7125595 C32.9701694,28.0442021 26.8704391,26.60242 23.9166004,22.7295566 C22.0144016,20.2354952 21.5955513,16.9551302 21.4773649,13.8374859 C21.3591785,10.7195714 21.4401581,7.52435089 20.3849616,4.58294247 C18.3032946,-1.21959519 11.9045418,-1.73965306 8.00192912,5.51007267 L8.1067101,5.60035299 C20.9884782,17.6357465 28.5195768,32.587951 14.5850745,74.9921296 C16.529131,75.3235178 18.6384296,75.3486558 20.8894424,74.9210406 C25.6962356,74.007966 32.2118069,69.4990859 32.0260463,64.6777385 C31.832352,59.6574501 26.9683806,55.5910516 27.1338963,50.5696819 C27.2425074,47.2801266 29.4864071,44.4998172 31.4288221,41.8224922 Z" id="Fill-9" fill="url(#linearGradient-20)" mask="url(#mask-19)"></path>
                </g>
                <g id="mujer" transform="translate(71.000000, 168.500000) scale(-1, 1) translate(-71.000000, -168.500000) translate(60.000000, 136.000000)">
                    <g id="Piernas" transform="translate(0.000000, 20.254905)">
                        <g transform="translate(5.085526, 18.583986)">
                            <path d="M8.67951091,17.5292639 L10.4407895,18.250483 L10.4407895,19.1602973 L7.80865541,22.0651113 L7.79086671,22.0514804 C7.61100323,21.9125262 7.52877992,21.6767313 7.58155306,21.4517191 L8.04478947,19.4852639 L7.87574711,20.2033973 L8.40762912,20.1275116 L8.66279808,19.7800244 L8.75839242,19.6363018 C9.08250288,19.096046 9.11555334,18.417134 8.83653435,17.8419898 L8.83653435,17.8419898 L8.67841261,17.5431263 L8.67578947,17.5362639 L8.67951091,17.5292639 Z" id="Combined-Shape" fill="#2A2A2A"></path>
                            <path d="M0.531654625,1.87421901e-11 L5.29207661,0.335331549 L3.9631564,22.9223365 C3.92926838,23.5435955 3.4154681,23.9642822 2.82252564,23.9484578 L1.49811517,23.912572 L1.58215872,23.5398076 L2.96465463,22.927 L0.531654625,1.87421901e-11 Z M4.82947368,8.45839035 L8.73556753,17.4440815 L8.89073446,17.7399656 C9.16855864,18.3199332 9.1356497,19.0045388 8.81292716,19.5493254 L8.71774217,19.6942533 L8.4506519,20.1237238 L7.87574711,20.2033973 L8.38828928,18.1685302 L4.53947368,13.3043903 L4.82947368,8.45839035 Z" id="Color-de-piel" fill="#FECA9B"></path>
                            <path d="M3.93188585,22.8758113 L4.50318881,23.8411028 C4.62587307,24.054372 4.69078947,24.2988909 4.69078947,24.5482799 L4.69078947,24.5482799 L4.69078947,24.8193813 L0,24.8193813 C0,24.5101309 0.171178363,24.2292893 0.438572104,24.100232 L0.438572104,24.100232 L1.58,23.5484467 L1.49811517,23.912572 L2.82252564,23.9480831 C3.40735285,23.9637079 3.89847632,23.4888746 3.93190054,22.8754467 L3.93188585,22.8758113 Z" id="Combined-Shape" fill="#2A2A2A"></path>
                            <path d="M4.75347368,9.59496267 L8.32236842,18.1772421 L4.53947368,13.2659627 L4.75347368,9.59496267 Z" id="Combined-Shape" fill="url(#linearGradient-21)"></path>
                        </g>
                        <g id="Ropa" transform="translate(8.623067, 10.788285) rotate(4.000000) translate(-8.623067, -10.788285) translate(1.623067, 1.288285)">
                            <path d="M8.43623962,0.0279834288 L13.9131441,13.8167263 L10.7515986,15.3576028 L11.108664,16.5428292 C11.108664,16.6583185 7.34302657,19.4261563 -1.03215682e-13,17.6483167 L2.33510506,0.484724939 L8.43623962,0.0279834288 Z" id="Color-de-ropa" fill="#D7192D"></path>
                            <polygon id="Path-2" fill="url(#linearGradient-22)" points="10.7515986 15.3576028 8.91972307 9.07169473 11.4819596 14.9951219"></polygon>
                        </g>
                    </g>
                    <g id="Cabeza" transform="translate(2.150000, 0.000000)">
                        <g id="Pelo">
                            <path d="M2.723,4.488 L2.763,4.504 L2.703,4.479 L2.6940793,4.47506998 L2.607,4.434 L2.52126378,4.39078343 L2.52126378,4.39078343 L2.5984513,4.43029555 L2.5204142,4.3905127 L2.5204142,4.3905127 L2.482,4.369 L2.45421646,4.35425519 L2.45421646,4.35425519 L2.444,4.348 L2.3875454,4.31592529 L2.24487572,4.22565389 L2.09655288,4.11952054 C1.98695372,4.03662137 1.87778307,3.94344009 1.76889179,3.83868353 L1.73547733,3.80672243 L1.73547733,3.80672243 L1.698,3.769 L1.736,3.806 L1.69618525,3.76696301 L1.69618525,3.76696301 L1.62316777,3.69193088 C1.5267953,3.58924223 1.43042043,3.47704338 1.33405215,3.35436055 L1.1895058,3.16235161 C1.18939667,3.16266898 1.1892876,3.16298645 1.18917859,3.16330403 C1.11744369,3.06383737 1.04556454,2.95811565 0.973563637,2.84580905 L0.884520482,2.70363878 C0.952385861,2.81451266 1.02015157,2.91943163 1.08779884,3.01867078 L1.18917859,3.16330403 C0.697559458,4.59305299 1.36614514,8.17281344 2.10170947,8.86188145 C2.30949869,9.05652284 3.02059171,8.95259692 3.59363338,8.68528746 L3.72313122,8.6207619 L4.11389575,11.1220993 L4.36638653,11.1386725 L5.69310677,10.1659549 C5.25902422,11.1112381 4.20013581,12.1603262 1.90102909,13.5139072 C2.39262258,10.7575045 1.07996337,7.9740188 0.651335692,7.16072033 C0.617865497,7.10150153 0.587323944,7.04410174 0.556782392,6.98649984 L0.537560273,6.95256 L0.521011121,6.92384514 C-0.21190247,5.50319017 -0.0725932433,4.57776757 0.333980535,3.71089732 L0.400309231,3.57444598 L0.884520482,2.70363878 L0.901226991,2.73081589 C0.872000101,2.6834756 0.842754429,2.63503452 0.813491477,2.58547065 L0.687802932,2.36580143 L0.685083479,2.36640776 L0.661235965,2.31870934 L0.646514309,2.29311692 L0.646514309,2.29311692 L0.631949544,2.26737291 L0.634878187,2.26676657 L0.600989614,2.1994633 C0.600989614,2.1994633 1.03819403,0.289101193 2.85813588,0.0354507018 C4.67765934,-0.217997677 5.90538792,0.970622671 5.90538792,0.970622671 C7.07085873,1.85562424 7.79107141,3.03343485 6.78791653,6.86517372 L6.70511639,7.17323615 L6.32188266,8.62338935 L5.56712977,7.73450102 C5.18889668,7.28727308 4.89613329,6.77754668 4.68816004,6.2662936 C5.23243428,5.62159062 5.18838625,5.22763101 4.96042433,4.8064469 C4.96042433,4.8064469 4.75413838,4.51645394 4.57088415,4.47998796 C4.42805833,4.45119249 4.33170904,4.53843069 4.27142541,4.6947612 L4.24424087,4.77846682 L3.98942846,4.77093357 L3.80711605,4.75513914 L3.80711605,4.75513914 L3.62625177,4.73334187 C3.52908477,4.71977454 3.4322716,4.70305058 3.33614515,4.68246665 L3.224,4.656 L3.17421073,4.64386988 L3.02763046,4.60156573 L2.95310012,4.57712867 L2.95310012,4.57712867 L2.914,4.563 L2.955,4.577 L2.898,4.557 L2.91142066,4.56247878 L2.91142066,4.56247878 L2.87880619,4.55067511 L2.87880619,4.55067511 L2.89,4.554 L2.868,4.546 L2.87880619,4.55067511 L2.862,4.544 L2.84160428,4.53652446 L2.84160428,4.53652446 L2.822,4.528 L2.823,4.529 L2.79858446,4.51964904 L2.79858446,4.51964904 L2.767,4.506 L2.762,4.504 L2.723,4.488 Z" id="Color-de-pelo" fill="#2A2A2A"></path>
                            <path d="M0.651335692,7.16072033 C0.617865497,7.10150153 0.587323944,7.04410174 0.556782392,6.98649984 L0.537560273,6.95256 L0.521011121,6.92384514 C-0.21190247,5.50319017 -0.0725932433,4.57776757 0.333980535,3.71089732 L0.400309231,3.57444598 L0.884520482,2.70363878 C0.952385861,2.81451266 1.02015157,2.91943163 1.08779884,3.01867078 L1.18917859,3.16330403 C0.697559458,4.59305299 1.36614514,8.17281344 2.10170947,8.86188145 C2.22861105,8.98075335 2.54323593,8.98826498 2.89949074,8.91520968 L2.88439531,8.91826196 L2.993,8.89363878 L3.00700262,8.8910212 C3.01167612,8.88987831 3.01635411,8.88872258 3.02103627,8.88755407 L3.01175386,8.88985525 L3.01175386,8.88985525 L2.993,8.89363878 L2.98131948,8.89718336 L2.98131948,8.89718336 L2.89955208,8.9151971 L2.88439531,8.91826196 L2.84645974,8.96233886 L2.83670765,9.31951952 C2.76718853,11.3087714 2.45529568,12.7069006 1.90102909,13.5139072 L1.90102909,13.5139072 C2.39262258,10.7575045 1.07996337,7.9740188 0.651335692,7.16072033 Z" id="Combined-Shape" fill="url(#linearGradient-23)" fill-rule="nonzero"></path>
                            <path d="M5.90538792,0.970622671 C7.00896052,1.80862176 7.71331442,2.90915361 6.93335762,6.27676613 C7.19290804,3.86583352 6.12227255,1.77365672 3.72313122,1.11022302e-15 L3.75067362,0.0202562652 C5.06767379,0.159593197 5.90538792,0.970622671 5.90538792,0.970622671 Z" id="Combined-Shape" fill="url(#linearGradient-24)" fill-rule="nonzero"></path>
                            <path d="M2.91142066,4.56247878 L2.87880619,4.55067511 L2.87880619,4.55067511 L2.88998961,4.55411735 L2.86798961,4.54611735 L2.87880619,4.55067511 L2.86198961,4.54411735 L2.82898961,4.53111735 L2.73798961,4.49311735 L2.70498961,4.47911735 L2.65846784,4.45895792 L2.65846784,4.45895792 L2.60698961,4.43411735 L2.52126378,4.39078343 L2.52126378,4.39078343 L2.5984513,4.43029555 L2.5204142,4.3905127 L2.5204142,4.3905127 L2.48198961,4.36911735 L2.45421646,4.35425519 L2.45421646,4.35425519 L2.44398961,4.34811735 L2.3875454,4.31592529 L2.24487572,4.22565389 L2.09655288,4.11952054 C1.98695372,4.03662137 1.87778307,3.94344009 1.76889179,3.83868353 L1.73547733,3.80672243 L1.73547733,3.80672243 L1.69798961,3.76911735 L1.73598961,3.80611735 L1.69618525,3.76696301 L1.69618525,3.76696301 L1.62316777,3.69193088 C1.5267953,3.58924223 1.43042043,3.47704338 1.33405215,3.35436055 L1.1895058,3.16235161 C1.18939667,3.16266898 1.1892876,3.16298645 1.18917859,3.16330403 C1.06434686,2.990214 0.939078315,2.79818223 0.813491477,2.58547065 L0.687802932,2.36580143 L0.685083479,2.36640776 L0.661235965,2.31870934 L0.646514309,2.29311692 L0.646514309,2.29311692 L0.631949544,2.26737291 L0.634878187,2.26676657 L0.600989614,2.1994633 C0.600989614,2.1994633 0.612816096,2.14778755 0.64067568,2.06030577 L0.600989614,2.03711735 C2.50987653,3.13240864 4.07164463,3.89060109 5.28629392,4.31169468 C6.11183477,4.59789248 6.73421294,4.88012726 7.15342842,5.15839901 C7.07474806,5.66014238 6.95533178,6.22569964 6.78791653,6.86517372 L6.70511639,7.17323615 L6.32188266,8.62338935 L5.56712977,7.73450102 C5.18889668,7.28727308 4.89613329,6.77754668 4.68816004,6.2662936 C5.23243428,5.62159062 5.18838625,5.22763101 4.96042433,4.8064469 C4.96042433,4.8064469 4.75413838,4.51645394 4.57088415,4.47998796 C4.42805833,4.45119249 4.33170904,4.53843069 4.27142541,4.6947612 L4.24424087,4.77846682 L3.98942846,4.77093357 L3.80711605,4.75513914 L3.80711605,4.75513914 L3.62625177,4.73334187 C3.52908477,4.71977454 3.4322716,4.70305058 3.33614515,4.68246665 L3.34864982,4.6851374 L3.27298961,4.66811735 L3.25501847,4.66412294 L3.25501847,4.66412294 L3.17421073,4.64386988 L3.02763046,4.60156573 L2.95310012,4.57712867 L2.95310012,4.57712867 L2.91398961,4.56311735 L2.95498961,4.57711735 L2.89798961,4.55711735 L2.91142066,4.56247878 L2.91142066,4.56247878 Z" id="Combined-Shape" fill="url(#linearGradient-25)" fill-rule="nonzero"></path>
                        </g>
                        <g id="Cara" transform="translate(1.020723, 3.162907)" fill="#FECA9B">
                            <path d="M0.168782465,-0.000555551428 C1.07230347,1.25037481 1.97679853,1.53674694 2.96870513,1.60802641 L3.22351754,1.61555966 C3.2801603,1.40782609 3.3835307,1.28348609 3.55016082,1.3170808 C3.73341505,1.35354678 3.939701,1.64353974 3.939701,1.64353974 C4.16766292,2.06472385 4.21171095,2.45868346 3.6674367,3.10338644 C3.87540996,3.61463952 4.16817335,4.12436592 4.54640644,4.57159386 L5.30115933,5.46048219 L5.306,5.44244445 L5.31755467,5.45785474 L6.60730086,9.85810294 L3.34618846,9.85810294 L3.09317242,7.95919217 L2.70240789,5.45785474 C2.11224544,5.77193449 1.30475914,5.9085881 1.08098614,5.69897429 C0.345421806,5.00990628 -0.323163873,1.43014583 0.168782465,-0.000555551428 Z" id="Color-de-piel"></path>
                        </g>
                        <path d="M4.31728859,8.17430079 C4.13064652,8.68244084 3.96043243,9.10889615 3.80664631,9.4536667 L3.665625,8.64079532 L4.31728859,8.17430079 Z" id="Combined-Shape" fill="url(#linearGradient-26)"></path>
                    </g>
                    <g id="Torso" transform="translate(2.437500, 8.680673)">
                        <g id="Ropa" transform="translate(0.697628, 0.821981)">
                            <path d="M5.20638047,0.479128077 C6.40399573,1.95825933 7.75449554,4.35329419 8.19883945,8.08559717 L8.20216098,8.09027482 L8.20882142,8.17099897 C8.2522633,8.54968432 8.28639599,8.94202003 8.31013453,9.34844325 L8.66493627,13.5263146 L1.5857206,14.5434782 L1.55847922,13.0351514 C1.55847922,13.0351514 1.36566001,11.8523155 1.15380973,10.5990303 L1.07853182,10.1555805 C0.927527487,9.27007568 0.777228012,8.41467622 0.688758146,7.98063064 C0.4606116,6.85934623 0.846998507,5.88909778 1.34976219,4.78204287 C1.8287755,3.72770486 2.2769029,2.40951961 2.31849551,2.28636895 L2.32163843,2.27704147 L2.58700173,2.29562508 L2.82876896,2.31229392 L5.20638047,0.479128077 Z" id="Color-de-ropa" fill="#DFAA00" transform="translate(4.643279, 7.511303) rotate(5.000000) translate(-4.643279, -7.511303) "></path>
                            <path d="M5.81713222,0.554965161 C6.88127541,2.13284692 8.01789512,4.63647176 8.13525653,8.39329932 L8.13815774,8.39824867 L8.13775726,8.47924613 C8.14802922,8.86027668 8.14783772,9.2540943 8.13606381,9.6610399 L8.12538994,13.8539362 L6.3038379,13.9530587 C6.10741198,11.559838 6.15765248,9.41258619 6.45455941,7.51130313 C6.81193972,5.22277072 6.43626625,3.01278502 5.32753899,0.881346038 L5.32753899,0.881346038 L5.32396434,0.870965161 L5.81713222,0.554965161 Z" id="Combined-Shape" fill-opacity="0.1" fill="#000000" fill-rule="nonzero"></path>
                            <path d="M2.83541556,6.62517595 L3.27336964,7.7884376 L3.34493199,8.04446572 C4.04358738,10.5650829 4.93156704,14.4133236 5.10667035,19.8453772 L5.10541556,19.806176 L2.83541556,6.62517595 Z" id="Combined-Shape" fill="url(#linearGradient-27)" transform="translate(3.971043, 13.235277) rotate(5.000000) translate(-3.971043, -13.235277) "></path>
                        </g>
                        <line x1="4.74375" y1="47.7437037" x2="18.6875" y2="24.5952413" id="Stroke-1" stroke="#333333" stroke-width="0.7970025" transform="translate(11.715625, 36.169473) scale(-1, 1) translate(-11.715625, -36.169473) "></line>
                        <polygon id="Fill-1" fill="#333333" points="4.05231494 24.9461946 5.75 24.9461946 5.75 23.5824961 4.05231494 23.5824961"></polygon>
                        <path d="M6.92306251,8.17609566 L6.76416639,20.9640957 L7.33510691,21.6234502 C7.33510691,21.6234502 7.66349585,22.6480863 7.55638531,23.5782651 L7.53280721,23.741206 C7.36074586,24.7100315 5.87428798,25.6111653 5.53036558,25.3568638 C5.1878453,25.1039853 5.36691731,23.8442682 5.36691731,23.8442682 C5.36691731,23.8442682 4.57831945,23.4318161 4.86495484,22.717292 C5.12595129,22.067004 5.21168151,21.7568009 5.21168151,21.7568009 L5.21168151,21.7568009 L5.5764671,20.7665894 C5.39532575,15.1472236 4.4512965,11.2227823 3.74316639,8.70964973 L3.74316639,8.70964973 L6.92306251,8.17609566 Z" id="Color-de-piel" fill="#FECA9B" transform="translate(5.660513, 16.788256) rotate(5.000000) translate(-5.660513, -16.788256) "></path>
                    </g>
                </g>
                <path d="M57.4992136,199 C44.5204631,199 34,199.446154 34,200 C34,200.553846 44.5204631,201 57.4992136,201 C70.4779641,201 81,200.553846 81,200 C81,199.446154 70.4779641,199 57.4992136,199" id="Path" fill="url(#linearGradient-28)" fill-rule="nonzero" transform="translate(57.500000, 200.000000) scale(-1, 1) translate(-57.500000, -200.000000) "></path>
                <g id="maleta" transform="translate(51.000000, 178.000000)">
                    <path d="M13.0539192,0.705336479 L13.7841734,1.20413474 C14.0034474,1.35393302 14.0638376,1.64647193 13.9214892,1.86825807 L13.6844217,2.23754875 L12.5621703,1.47108973 L13.0539192,0.705336479 Z" id="Fill-3" fill="#333333"></path>
                    <g id="Group-7" transform="translate(0.000000, 0.161722)">
                        <mask id="mask-30" fill="white">
                            <use xlink:href="#path-29"></use>
                        </mask>
                        <g id="Clip-6"></g>
                        <path d="M-5.39198309e-05,14.4534868 L8.16592473,1.51013952 C8.64221657,0.754090516 9.40787817,0.217357474 10.291085,0.0202730528 C10.4555405,-0.0164266424 10.6282637,0.0137447416 10.7697134,0.104082453 L16.0006559,3.43457979 L15.3633235,4.4459387 L7.08375373,17.5821358 C6.73363429,18.1377481 6.00032459,18.3014852 5.44602873,17.9477213 L-5.39198309e-05,14.4534868 Z" id="Fill-5" fill="#71BFBF" mask="url(#mask-30)"></path>
                    </g>
                    <g id="Group-10" transform="translate(0.000000, 0.161722)">
                        <mask id="mask-32" fill="white">
                            <use xlink:href="#path-31"></use>
                        </mask>
                        <g id="Clip-9"></g>
                        <path d="M7.08380765,17.5821535 C6.73368821,18.1377657 6.00019878,18.3015028 5.44590292,17.9477389 L0,14.4535045 L8.16579892,1.51015717 C8.64227049,0.75410816 9.40775236,0.217375118 10.2909592,0.0202906969" id="Fill-8" mask="url(#mask-32)"></path>
                    </g>
                    <polygon id="Fill-11" fill="#333333" points="6.9150925 12.2725511 10.3726118 6.78682885 9.07925477 5.96143859 5.62173549 11.4471608"></polygon>
                    <path d="M7.03619644,11.1115527 L9.38063068,7.3920033 C9.45432112,7.27519946 9.41945296,7.11993152 9.30262666,7.04547348 C9.18615983,6.97101545 9.03176938,7.00559785 8.95807894,7.12240169 L6.61364469,10.8421275 C6.53995426,10.9589314 6.57482242,11.1141993 6.69146898,11.1886573 C6.80811555,11.2629389 6.962506,11.228533 7.03619644,11.1115527" id="Fill-13" fill="#858585"></path>
                    <path d="M10.3238683,0.173085035 C10.3238683,0.173085035 8.97964687,3.58456872 2.6043458,12.2686341" id="Fill-15" fill="#333333"></path>
                    <g id="Group-19" transform="translate(0.000000, 12.512581)">
                        <mask id="mask-34" fill="white">
                            <use xlink:href="#path-33"></use>
                        </mask>
                        <g id="Clip-18"></g>
                        <path d="M5.44599278,5.59680938 L-8.98663848e-05,2.10257494 L1.32328252,0.00522264893 L7.74333704,4.18457688 L7.08371778,5.2314004 C6.73359835,5.78683617 6.00028865,5.95057327 5.44599278,5.59680938" id="Fill-17" fill="#333333" mask="url(#mask-34)"></path>
                    </g>
                    <g id="Group-22" transform="translate(5.212250, 17.629366)">
                        <mask id="mask-36" fill="white">
                            <use xlink:href="#path-35"></use>
                        </mask>
                        <g id="Clip-21"></g>
                        <path d="M1.84062532,1.65411525 C1.54676224,2.12027196 0.931716704,2.25736649 0.466568296,1.96059299 C0.00159962165,1.6638195 -0.137333809,1.04539435 0.156529269,0.579414082 C0.450212614,0.113433817 1.06543788,-0.0240135986 1.53040656,0.272936339 C1.99537523,0.569709835 2.1344884,1.18795855 1.84062532,1.65411525" id="Fill-20" fill="#333333" mask="url(#mask-36)"></path>
                    </g>
                    <path d="M6.64373196,19.0222779 C6.4925767,19.2618845 6.17642676,19.3324609 5.93720244,19.180016 C5.69815786,19.0273946 5.62698368,18.7094482 5.77795921,18.4698416 C5.928755,18.2302349 6.24508468,18.1596586 6.48412926,18.3122799 C6.72317384,18.4649012 6.79470749,18.7828476 6.64373196,19.0222779" id="Fill-23" fill="#858585"></path>
                </g>
                <g id="hombre" transform="translate(187.000000, 138.000000)">
                    <g id="maleta" transform="translate(16.836965, 29.989140)">
                        <line x1="14.723223" y1="24.0701569" x2="0" y2="0" id="Stroke-1" stroke="#333333" stroke-width="0.6765444"></line>
                        <path d="M11.0274958,9.51610856 L10.185326,10.0628752 C9.93242641,10.2269052 9.86278963,10.5475686 10.0269335,10.7907855 L10.3003511,11.1954218 L11.5945381,10.3554026 L11.0274958,9.51610856 Z" id="Fill-3" fill="#333333"></path>
                        <path d="M25.3975597,25.4626517 L18.2600466,13.7572562 L16.380939,10.6756638 C15.8548306,9.8120742 15.0093363,9.19880918 14.0342126,8.97372868 C13.8526419,8.93185675 13.6618439,8.96632173 13.5057229,9.06926319 L7.72969209,12.8743179 L8.43365049,14.0296505 L17.5757335,29.0370329 C17.9623898,29.671763 18.7720163,29.8585994 19.3841476,29.4545429 L25.3975597,25.4626517 Z" id="Fill-5" fill="#8E191B"></path>
                        <g id="Group-9" transform="translate(13.987062, 8.956337)">
                            <mask id="mask-38" fill="white">
                                <use xlink:href="#path-37"></use>
                            </mask>
                            <g id="Clip-8"></g>
                            <path d="M3.65644165,19.9407013 C4.04262896,20.570752 4.85127367,20.7564054 5.46266259,20.355232 L11.468782,16.3918255 L2.46309611,1.71020209 C1.9376257,0.852774751 1.09315684,0.244035858 0.119215636,0.0205614468" id="Fill-7" mask="url(#mask-38)"></path>
                        </g>
                        <path d="M14.1711022,8.95633746 C14.1711022,8.95633746 15.6454168,12.85079 22.6369554,22.7640244" id="Fill-10" fill="#333333"></path>
                        <path d="M19.4980674,29.2701756 L25.5816,25.3212725 L24.1035146,22.9506148 L16.9317065,27.6742846 L17.6687165,28.8571461 C18.0597309,29.4850646 18.8789488,29.6700456 19.4980674,29.2701756" id="Fill-12" fill="#333333"></path>
                        <path d="M17.6545205,30.6422697 C17.9802471,31.1636944 18.6621812,31.3173681 19.177666,30.9852967 C19.6933002,30.6532252 19.8471985,29.9612493 19.5214719,29.4398246 C19.1958947,28.9182519 18.5139606,28.7647262 17.9984758,29.0969457 C17.482991,29.4290171 17.3289432,30.120845 17.6545205,30.6422697" id="Fill-14" fill="#333333"></path>
                        <path d="M18.121312,30.3417185 C18.2840678,30.6024719 18.6251283,30.6792148 18.8827765,30.5130584 C19.1407154,30.3471899 19.2175884,30.0011985 19.0548326,29.7404452 C18.8919315,29.4798358 18.5510163,29.4028048 18.2932228,29.5689613 C18.0354292,29.7349738 17.9585562,30.0808212 18.121312,30.3417185" id="Fill-16" fill="#858585"></path>
                    </g>
                    <g>
                        <g id="sombra" transform="translate(1.033634, 61.655304)" fill="url(#linearGradient-39)" fill-rule="nonzero">
                            <path d="M24.5482972,0 C11.2697336,0 0.506244575,0.327473228 0.506244575,0.733991717 C0.506244575,1.14051021 11.2697336,1.46798343 24.5482972,1.46798343 C37.8268607,1.46798343 48.5919589,1.14051021 48.5919589,0.733991717 C48.5919589,0.327473228 37.8268607,0 24.5482972,0" id="Path"></path>
                        </g>
                        <g id="Piernas-H-/-1" transform="translate(0.761964, 29.359669)">
                            <g id="Group" transform="translate(0.777915, 0.000000)">
                                <path d="M6.44612444,0.15677493 C5.29440205,9.09445823 4.74961593,15.9666747 3.74854913,30.084242 L4.4978625,30.4437355 L11.9295445,12.4313244 L21.3930948,30.2967602 L22.4080378,30.2967602 L15.993281,1.7823246e-14 L6.44612444,0.15677493 Z" id="Path" fill="#C8B6A1"></path>
                                <polygon id="Path" fill="url(#linearGradient-40)" fill-rule="nonzero" points="11.9295445 12.4313244 21.3930948 30.2967602 21.898584 30.2967602 15.5769958 3.66643631"></polygon>
                                <path d="M21.3930948,30.2967602 L18.7506749,31.5162575 C18.4723421,31.6462506 18.2939485,31.9255791 18.2927612,32.2332583 L23.1910504,32.2332583 L23.1910504,31.9591693 C23.1906542,31.7103891 23.1220844,31.4664943 22.9928194,31.2540854 L22.4120024,30.2927879 L21.3930948,30.2967602 Z" id="Path" fill="#7B654A"></path>
                                <path d="M4.4978625,30.4437355 L3.78224841,32.2451752 L2.88029714,32.2451752 L-3.89129445e-15,29.5539394 L0.0138761734,29.5360641 C0.151246483,29.3515553 0.385342921,29.2671172 0.60856932,29.3215597 L3.74854913,30.084242 L4.4978625,30.4437355 Z" id="Path" fill="#7B654A"></path>
                            </g>
                        </g>
                        <g id="Torso-H-/-1" transform="translate(0.000000, 7.486716)">
                            <path d="M6.86870544,8.64703944 C5.73511975,9.99919799 4.90712728,15.121071 2.93109538,18.6458437 C2.78655805,18.7951985 1.09134155,19.9820711 0.866276265,20.5077999 C0.279867635,21.9376229 0.453312441,22.8317602 1.09753601,22.9791235 C1.60341669,23.096616 2.28274218,21.2227114 2.60072433,21.2227114 C2.88153973,21.2227114 2.42727952,22.3398851 2.85882672,22.3398851 C3.29037391,22.3398851 4.05022735,19.0481059 4.05022735,19.0481059 L7.3064471,15.170856 C7.48170395,14.96409 7.61418394,14.7268043 7.69669791,14.4718756 L9.06360817,10.3317613 L6.89967773,8.61915988 L6.86870544,8.64703944 Z" id="brazo-1" fill="#FECA9B" fill-rule="nonzero"></path>
                            <path d="M19.0444662,9.30444361 C19.0796016,4.79451576 17.4881738,2.9644574 15.3449133,1.52570741 L12.8626994,0 C12.9394983,0.183879803 12.9942728,0.375484721 13.0259757,0.571152125 C12.0566516,2.31622938 9.95059327,2.71544297 9.95059327,2.71544297 L9.95059327,1.67393028 L6.21177143,8.67004973 L8.45010424,10.4289611 C8.54744918,14.5044722 8.32429626,18.5812153 7.7825313,22.6247388 C7.76599698,22.7472697 7.74946267,22.865848 7.73292835,22.9844263 L17.4716395,22.1662361 C17.4716395,22.106947 17.4716395,22.0713735 17.4716395,22.0693972 L17.4509716,22.0693972 C17.0295135,18.0555818 16.0516147,14.1132 14.5429991,10.3459563 L19.0444662,9.30444361 Z" id="ropa" fill="#D7192D"></path>
                            <polygon id="Path" fill="url(#linearGradient-41)" fill-rule="nonzero" points="13.3413633 6.7527238 13.3413633 22.5545169 17.6191184 22.2038271 15.7925848 10.3841273 14.4390941 9.79272733"></polygon>
                            <path d="M20.0920121,22.3987498 C19.777997,22.0524275 18.4851074,21.6248451 18.4851074,21.6248451 L18.456032,21.6074323 L18.7758622,9.32169481 L14.5521646,10.3297057 C15.9681975,14.0169591 16.8866348,17.8758133 17.2833211,21.804778 L17.3027047,21.804778 C17.3027047,21.804778 17.2251701,23.0256127 17.6419186,23.3525874 C17.8357551,23.5093031 18.3203464,23.8149955 18.3513603,23.9639721 L18.3513603,24.8771797 C18.7390333,25.1480464 18.7584169,25.1383725 19.1111994,25.1093511 C19.5841605,25.0687211 19.9970322,24.5772916 20.1404712,24.2754688 C20.2839103,23.9736459 20.3207392,22.6522036 20.0920121,22.3987498 Z" id="brazo-2" fill="#FECA9B"></path>
                            <polygon id="Path" fill="url(#linearGradient-42)" fill-rule="nonzero" points="8.6205524 6.16553042 7.19463404 9.54397314 8.6205524 10.4751104"></polygon>
                            <path d="M15.0493981,10.2024849 L18.6092667,9.22549067 C18.6092667,4.81325881 17.2701486,2.99163736 15.475397,1.57131892 L13.5158023,0.146798343 C13.3514083,0.425623739 13.1573166,0.680375958 12.9379256,0.905282011 C12.7860478,3.23536065 13.1657424,6.23567832 14.1510962,9.12884178 L14.1510962,7.12652894 L15.0493981,10.2024849 Z" id="Path" fill="url(#linearGradient-43)" fill-rule="nonzero"></path>
                        </g>
                        <g id="Cabeza-H-/-1" transform="translate(3.947920, 0.000000)">
                            <path d="M2.59495333,1.46798343 C2.59495333,1.46798343 2.84444612,1.50032308 3.23395538,1.66350836 L5.52518461,2.36504767 L7.17369442,3.33157484 L7.30358071,3.73273722 C7.92820578,3.65744915 8.54687349,3.5367222 9.15435144,3.37126795 C9.20137499,3.88927953 9.17255879,4.41117145 9.0687675,4.92128381 L9.0687675,4.92128381 L8.62047064,6.90593919 C8.61615329,6.90299393 8.61183446,6.90003931 8.60751416,6.89707536 C9.02363822,7.69049692 9.06672978,8.12848691 9.06672978,8.12848691 C8.11104239,9.87895296 6.03257514,10.275884 6.03257514,10.275884 L6.03257514,10.275884 L6.03309166,7.8035965 C5.62077335,8.17821972 5.10808142,8.43836776 4.87311645,8.34282969 C3.90112736,7.94589862 1.82877325,4.62557015 1.89194235,3.19661828 C1.92250805,2.5595439 2.59495333,1.46798343 2.59495333,1.46798343 Z" id="cara" fill="#FECA9B"></path>
                            <path d="M8.36840426,1.40762933 C8.83756477,1.99350729 9.13363311,2.68139496 9.22768863,3.40409785 C9.26425602,3.78054825 9.25393281,4.15930171 9.19714671,4.53299907 L9.14585202,4.81220907 L8.71718408,6.60598133 C8.35554422,6.37279093 7.98299281,6.07473774 7.61436956,5.72341668 C7.96494711,4.87395155 7.78954972,4.51990516 7.40779838,4.21488291 C7.27289986,4.12595067 7.11355213,4.07373725 6.94795459,4.06420604 C6.63517085,4.11336779 6.75728138,4.59808802 6.9999361,5.08169886 C6.66221914,4.70069863 6.33566315,4.27716589 6.032164,3.82204679 C5.50773292,3.82976324 4.98327608,3.8081984 4.46168055,3.75747099 C3.31033702,3.64104121 2.20403357,3.28657896 1.22479133,2.72224342 L0.934912514,2.54667471 L0.506244575,2.2758151 C1.77642456,1.58903559 3.16603313,1.1096136 4.61366282,0.858735021 C6.34197401,0.550206193 7.43702574,0.844384843 8.36840426,1.40762933 Z" id="pelo" fill="#2A2A2A"></path>
                            <polygon id="Path" fill="#FECA9B" fill-rule="nonzero" points="6.334816 5.06704509 7.42254236 4.4039503 7.79195886 5.19632772 6.71449407 5.87193374"></polygon>
                            <path d="M1.75314733,2.14620196 C3.87418669,3.17560874 6.35867304,3.10785585 7.79195886,2.46311063 L6.77803495,1.21514615 C6.03250266,0.371513424 5.1732767,-0.203293331 3.50142054,0.0677182186 C2.4534638,0.404698136 1.44681528,0.898316043 0.506244575,1.53642597 L1.75314733,2.14620196 Z" id="Path" fill="url(#linearGradient-44)" fill-rule="nonzero"></path>
                            <path d="M6.04338743,7.65466666 L6.0453159,8.80790061 C6.0453159,8.80790061 6.45006531,8.11435771 6.31859553,7.33991717 L6.04338743,7.65466666 Z" id="Path" fill="url(#linearGradient-45)" fill-rule="nonzero"></path>
                        </g>
                    </g>
                    <polygon id="Fill-55" fill="#333333" points="17.5548199 31.8791402 18.8772774 31.8791402 18.8772774 30.8162666 17.5548199 30.8162666"></polygon>
                </g>
                <g id="farola" transform="translate(250.000000, 72.000000)">
                    <polygon id="Fill-1" fill="#D6192C" points="3.81186 14.2517406 3.59560286 92.7672339 6.32363143 92.7672339 6.10763143 14.2517406"></polygon>
                    <path d="M7.65768857,13.4480661 L2.26180286,13.4480661 L0.977888571,5.83419905 L8.94134571,5.83419905 L7.65768857,13.4480661 Z M0.425031429,5.36573658 L1.86657429,13.916271 L8.05291714,13.916271 L9.49446,5.36573658 L0.425031429,5.36573658 Z" id="Fill-2" fill="#D6192C"></path>
                    <polygon id="Fill-3" fill="#D6192C" points="1.56985714 14.2516634 8.34994286 14.2516634 8.34994286 13.4481434 1.56985714 13.4481434"></polygon>
                    <polygon id="Fill-4" fill="#D6192C" points="0 5.85487938 9.91928571 5.85487938 9.91928571 5.02045477 0 5.02045477"></polygon>
                    <polygon id="Fill-5" fill="#D6192C" points="1.58469429 2.72012123 8.33469429 2.72012123 8.97678 5.02045477 0.942865714 5.02045477"></polygon>
                    <g id="Group-8" transform="translate(0.771429, 5.719157)">
                        <mask id="mask-47" fill="white">
                            <use xlink:href="#path-46"></use>
                        </mask>
                        <g id="Clip-7"></g>
                        <polygon id="Fill-6" fill="url(#linearGradient-48)" mask="url(#mask-47)" points="0.206485714 0.114862154 8.16994286 0.114862154 6.88628571 7.72898677 1.4904 7.72898677"></polygon>
                    </g>
                    <path d="M3.77493429,2.94886689 L4.62016286,0.249863815 C4.72430571,-0.0831334154 5.19487714,-0.0831334154 5.29927714,0.249863815 L6.14450571,2.94886689 L3.77493429,2.94886689 Z" id="Fill-9" fill="#D6192C"></path>
                </g>
                <g id="farola" transform="translate(228.000000, 72.000000)">
                    <polygon id="Fill-1" fill="#D6192C" points="3.81186 14.2517406 3.59560286 92.7672339 6.32363143 92.7672339 6.10763143 14.2517406"></polygon>
                    <path d="M7.65768857,13.4480661 L2.26180286,13.4480661 L0.977888571,5.83419905 L8.94134571,5.83419905 L7.65768857,13.4480661 Z M0.425031429,5.36573658 L1.86657429,13.916271 L8.05291714,13.916271 L9.49446,5.36573658 L0.425031429,5.36573658 Z" id="Fill-2" fill="#D6192C"></path>
                    <polygon id="Fill-3" fill="#D6192C" points="1.56985714 14.2516634 8.34994286 14.2516634 8.34994286 13.4481434 1.56985714 13.4481434"></polygon>
                    <polygon id="Fill-4" fill="#D6192C" points="0 5.85487938 9.91928571 5.85487938 9.91928571 5.02045477 0 5.02045477"></polygon>
                    <polygon id="Fill-5" fill="#D6192C" points="1.58469429 2.72012123 8.33469429 2.72012123 8.97678 5.02045477 0.942865714 5.02045477"></polygon>
                    <g id="Group-8" transform="translate(0.771429, 5.719157)">
                        <mask id="mask-50" fill="white">
                            <use xlink:href="#path-49"></use>
                        </mask>
                        <g id="Clip-7"></g>
                        <polygon id="Fill-6" fill="url(#linearGradient-48)" mask="url(#mask-50)" points="0.206485714 0.114862154 8.16994286 0.114862154 6.88628571 7.72898677 1.4904 7.72898677"></polygon>
                    </g>
                    <path d="M3.77493429,2.94886689 L4.62016286,0.249863815 C4.72430571,-0.0831334154 5.19487714,-0.0831334154 5.29927714,0.249863815 L6.14450571,2.94886689 L3.77493429,2.94886689 Z" id="Fill-9" fill="#D6192C"></path>
                </g>
            </g>
        </g>
    </g>
</svg>