<svg xmlns="http://www.w3.org/2000/svg" width="109" height="18" viewBox="0 0 109 18">
    <g fill="none" fill-rule="evenodd">
        <path fill="#499FDD" d="M87.991 4C85.098 4 83 6.314 83 9.5c0 3.188 2.098 5.5 4.991 5.5C90.891 15 93 12.688 93 9.501S90.89 4 87.991 4m0 8.429c-1.366 0-2.318-1.206-2.318-2.929 0-1.722.952-2.926 2.318-2.926 1.373 0 2.335 1.204 2.335 2.926 0 1.75-.94 2.929-2.335 2.929"/>
        <path fill="#273B7D" d="M66.645 4.22c-.552 0-.977.215-1.19.605l-.081.151-.135-.114C64.77 4.468 63.926 4 62.558 4 59.834 4 58 5.984 58 8.933s1.897 5.01 4.612 5.01c.927 0 1.66-.211 2.241-.637l.224-.164v.275c0 1.323-.882 2.053-2.481 2.053a6.044 6.044 0 0 1-1.96-.35c-.617-.18-.98-.03-1.23.57l-.231.554-.327.81.202.105c1.025.526 2.358.841 3.562.841 2.48 0 5.377-1.23 5.377-4.694L68 4.22h-1.355m-3.516 7.248c-1.593 0-2.16-1.346-2.16-2.609 0-.556.146-2.368 2.008-2.368.924 0 2.156.256 2.156 2.46 0 2.08-1.09 2.517-2.004 2.517M43 1.528C43 .684 43.672 0 44.5 0S46 .684 46 1.528c-.03.844-.727 1.502-1.556 1.47A1.515 1.515 0 0 1 43 1.529"/>
        <path fill="#499FDD" d="M69 13.501c0-.83.67-1.501 1.497-1.501.83 0 1.504.673 1.503 1.501a1.5 1.5 0 1 1-3-.001"/>
        <path fill="#273B7D" d="M26.504 4.642c-3.042 0-5.25 2.179-5.25 5.179 0 3.002 2.208 5.179 5.252 5.179 3.047 0 5.267-2.177 5.267-5.178s-2.22-5.18-5.267-5.18h-.002zm0 7.937c-1.436 0-2.436-1.135-2.436-2.758 0-1.622 1-2.755 2.438-2.755 1.44 0 2.454 1.133 2.454 2.755 0 1.648-.988 2.758-2.454 2.758h-.002zm17.83-7.733h-1.359l.01 7.734v2.267h1.448l.052.003.676-.003h.671v-.003h.005l.006-8.478c0-1.023-.492-1.518-1.508-1.518l-.002-.002zm9.076-.227c-1.47 0-2.406.65-2.93 1.198l-.175.176-.063-.24c-.153-.588-.674-.91-1.456-.91h-1.293l.008 10.001h2.867v-4.61c0-.45.058-.84.178-1.198.319-1.08 1.209-1.752 2.32-1.752.896 0 1.245.47 1.245 1.684v4.356c0 1.036.483 1.52 1.525 1.52H57l-.005-6.361c0-2.527-1.24-3.863-3.585-3.863v-.001zM39.399 10.08A2.467 2.467 0 0 0 39 9.523l-.093-.096.098-.093c.14-.146.282-.32.42-.52l2.683-3.968h-3.258L36.835 7.95c-.114.166-.344.25-.689.25h-.459V2.332C35.687 1.16 34.952 1 34.158 1h-1.36l.004 13.847h2.886v-4.153h.271c.33 0 .552.038.656.216l1.591 2.989c.445.81.888.948 1.722.948h2.212l-1.648-2.709-1.092-2.057h-.001zm-24.153-5.44c-3.04 0-5.246 2.18-5.246 5.18C10 12.823 12.208 15 15.246 15c3.053 0 5.267-2.177 5.267-5.178s-2.214-5.18-5.266-5.18zm0 7.938c-1.436 0-2.435-1.135-2.435-2.758 0-1.622.999-2.755 2.436-2.755 1.445 0 2.454 1.133 2.454 2.755 0 1.648-.987 2.758-2.455 2.758zM8.302 7.845l-.439-.24.383-.317c.446-.372 1.192-1.208 1.192-2.651C9.438 2.427 7.673 1 4.941 1H1.467C.655 1.029.01 1.67 0 2.46V15h5.002C8.04 15 10 13.395 10 10.91c0-1.34-.633-2.483-1.698-3.065zm-5.526-2.81v-.742c0-.649.283-.957.903-.997H4.92c1.065 0 1.703.618 1.703 1.654 0 .788-.437 1.71-1.664 1.71H2.776V5.033zm2.427 7.596l-2.427-.002V9.814c0-.603.24-.915.771-.988h1.656c1.18 0 1.945.723 1.946 1.892-.001 1.201-.746 1.912-1.946 1.912v.001z"/>
        <path fill="#499FDD" d="M81.212 11.109c-.008.01-1.166 1.314-2.692 1.314-1.39 0-2.794-.91-2.794-2.943 0-1.755 1.088-2.981 2.647-2.981.506 0 1.082.192 1.172.518l.013.055c.118.462.512.78.96.778l1.475.002V6.475C81.993 4.66 79.829 4 78.373 4 75.26 4 73 6.314 73 9.502 73 12.688 75.234 15 78.316 15c2.673 0 4.127-1.876 4.141-1.894l.078-.103-1.169-2.069-.154.175M105.717 4c-1.18.005-2.293.58-3.028 1.566l-.203.276-.16-.309C101.802 4.516 100.903 4 99.654 4c-1.311 0-2.19.781-2.599 1.245l-.267.309-.103-.407c-.149-.586-.637-.907-1.376-.907h-1.185l-.011 10.522h2.692v-4.644c0-.408.048-.81.143-1.23.257-1.124.964-2.33 2.151-2.21.732.076 1.091.68 1.091 1.847v6.237h2.712v-4.644c0-.51.044-.89.152-1.271.217-1.072.956-2.17 2.101-2.17.83 0 1.137.5 1.137 1.848v4.7c0 1.061.443 1.537 1.439 1.537h1.267L109 8.045C109 5.361 107.893 4 105.717 4"/>
    </g>
</svg>
