<svg xmlns="http://www.w3.org/2000/svg" width="131" height="16" viewBox="0 0 131 16">
    <g fill="none" fill-rule="evenodd">
        <path fill="#E41E30" d="M40.759 1.287V.948h.191c.11 0 .234.032.234.162 0 .144-.137.177-.26.177h-.165zm-.211.669h.21V1.46h.155l.271.496h.256l-.316-.52c.165-.038.271-.15.271-.321 0-.255-.216-.349-.44-.349h-.407v1.19zm-.47-.59c0-.492.392-.891.874-.891a.891.891 0 1 1 0 1.783.888.888 0 0 1-.875-.892zm-.166 0c0 .586.467 1.044 1.04 1.044.58 0 1.048-.458 1.048-1.044a1.045 1.045 0 0 0-2.088 0zm-15.17 11.318h2.963V.314h-2.963v12.37zM23.562.314h-3.255l-2.825 8.939-2.877-8.94h-3.308l4.617 12.371h2.946L23.563.314zm-10.467 12.37L8.105.314H5.172L0 12.684h3.259l.894-2.428h4.723l.947 2.428h3.272zm-5.03-4.821H5l1.55-4.247 1.516 4.247zM36.898 3.4c-.775-.705-1.483-.938-2.241-.938s-1.707.263-1.707 1.242c0 .819.725 1.098 1.88 1.466 1.654.542 3.79 1.241 3.79 3.705 0 2.848-2.257 4.124-4.669 4.124-1.74 0-3.499-.647-4.566-1.783l1.807-1.88c.72.786 1.793 1.199 2.76 1.199.894 0 1.688-.35 1.688-1.346 0-.943-.932-1.258-2.534-1.785-1.55-.506-3.117-1.29-3.117-3.526C29.989 1.136 32.434 0 34.708 0c1.38 0 2.93.525 3.998 1.519L36.898 3.4z"/>
        <path fill="#F78B00" d="M66.676 11.242h7.527V0z"/>
        <path fill="#ED5505" d="M57 0v11.242L74.203 0z"/>
        <path fill="#00285F" d="M80.945 4.684c.343 0 .897-.02 1.222-.177.492-.271.65-.696.65-1.34 0-.693-.417-1.103-.766-1.268-.267-.135-.612-.192-1.15-.192h-1.576v2.977h1.62zm.308 5.007c.49 0 .872-.058 1.17-.178.612-.276.977-.777.99-1.51 0-.7-.392-1.236-.99-1.493-.433-.181-.787-.194-1.32-.194h-1.778v3.375h1.928zm-3.825 1.71V0h3.941c1.534 0 3.386.81 3.386 2.953 0 1.28-.597 2.102-1.134 2.409 1.445.557 1.728 1.935 1.728 2.747 0 1.822-1.497 3.29-3.877 3.29h-4.044zm16.559-4.218V2.808H92.12v4.375c0 1.555-.793 2.56-2.035 2.56-1.238 0-2.03-1.005-2.03-2.56V2.808h-1.87v4.375c0 2.61 1.734 4.28 3.9 4.28 2.17 0 3.9-1.67 3.9-4.28zm5.185-2.833c-1.342 0-2.392 1.19-2.392 2.714 0 1.477 1.07 2.676 2.392 2.676 1.311 0 2.42-1.224 2.42-2.676 0-1.496-1.087-2.714-2.42-2.714zm0 7.112c-2.387 0-4.262-1.913-4.262-4.414 0-2.51 1.875-4.433 4.262-4.433.87 0 1.748.317 2.42.926V0h1.864v11.287h-1.818v-.79a3.577 3.577 0 0 1-2.466.965zm9.579-1.724c-1.343 0-2.393-1.201-2.393-2.723 0-1.478 1.07-2.677 2.393-2.677 1.31 0 2.42 1.224 2.42 2.677 0 1.495-1.087 2.723-2.42 2.723zm2.465-6.93v.773a3.576 3.576 0 0 0-2.465-.966c-2.388 0-4.26 1.913-4.26 4.416 0 2.51 1.872 4.432 4.26 4.432.87 0 1.748-.317 2.42-.927 0 0 .377 3.237-2.466 3.237-1.2 0-2.045-.864-2.425-1.516l-1.49 1.052c.732 1.373 2.283 2.216 3.915 2.216 1.097 0 2.177-.313 2.944-.989.902-.798 1.396-1.908 1.396-3.406V2.808h-1.829zm4.785 3.44c.067-.507.68-1.923 2.204-1.923 1.477 0 2.125 1.372 2.183 1.923H116zm5.14-2.433c-.777-.819-1.835-1.2-2.939-1.2-2.36 0-4.177 1.968-4.177 4.44 0 2.496 1.778 4.407 4.222 4.407 1.286 0 2.587-.67 3.385-1.693l-1.456-1.024c-.479.66-1.292 1.007-1.93 1.007-.996 0-2.011-.715-2.26-1.944h6.253s.57-2.235-1.098-3.993zm5.365 5.935c-.947 0-1.388-.464-1.388-1.463V4.463h1.822V2.808h-1.822V.44h-1.864v7.847c0 1.986 1.133 3.175 2.96 3.175.38 0 .757-.055.757-.055v-1.68c-.235.02-.367.023-.465.023zm2.907-8.202c.137 0 .295-.037.295-.202 0-.148-.142-.185-.269-.185h-.222v.387h.196zm-.439-.594h.476c.253 0 .502.106.502.398 0 .196-.122.324-.312.366l.364.593h-.296l-.316-.567h-.175v.567h-.243V.954zm.47 1.702a1.02 1.02 0 0 0 1.014-1.018c0-.562-.454-1.018-1.014-1.018a1.017 1.017 0 0 0 0 2.036zm0-2.221c.665 0 1.204.535 1.204 1.203s-.539 1.193-1.204 1.193a1.193 1.193 0 0 1-1.204-1.193c0-.668.54-1.203 1.204-1.203z"/>
    </g>
</svg>
