<?xml version="1.0" encoding="UTF-8"?>
<svg width="186px" height="126px" viewBox="0 0 186 126" version="1.1" xmlns="http://www.w3.org/2000/svg" xmlns:xlink="http://www.w3.org/1999/xlink">
    <title>MALETA</title>
    <g id="01_ancilliaries_modulos" stroke="none" stroke-width="1" fill="none" fill-rule="evenodd">
        <g id="05_modulos_equipaje_especial_1280-copy" transform="translate(-73.000000, -806.000000)">
            <g id="MALETA" transform="translate(74.000000, 807.000000)">
                <path d="M48.0503406,75.9279249 L48,59.9071433 C48,59.9071433 47.8452888,54.3827359 52.7885021,54.014442 C57.7317154,53.6461482 96.0877552,46 96.0877552,46 L146.160675,56.224205 C146.160675,56.224205 153.850118,57.5522726 155.314774,62.7809401 C156.310008,66.3338706 160.624884,80.5323344 160.958093,89.1677198 C161.115543,93.2410496 160.972373,96.0150387 157.938705,96 C151.569283,95.969002 53.52083,81.8206262 53.52083,81.8206262 C53.52083,81.8206262 48.8046383,81.2681855 48.0503406,75.9279249" id="Fill-1" fill="#CE182A"></path>
                <polygon id="Stroke-3" stroke="#000000" points="117 82 151 87.0112 151 94 117 89.1648604"></polygon>
                <polygon id="Stroke-4" stroke="#000000" points="119.112179 85 149 88.9655973 148.890412 93 119 89.1358906"></polygon>
                <g id="Group-15" stroke="#000000">
                    <path d="M0.265210608,0 L150.882506,38.9026223 L148.926771,43.0624228 C148.926771,43.0624228 157.147239,48.4459749 164.329148,62.149128 C169.753351,72.4985269 170.991042,80.1655095 172.457935,99.007391 L181.442655,99.3439777 C181.442655,99.3439777 184.132204,100.812186 183.642995,102.524851 C183.154153,104.237882 181.931864,109.376611 180.220367,111.089642 C178.508869,112.802307 157.972367,123.813868 157.972367,123.813868 L0.265210608,117.998047 L0.265210608,0 Z" id="Stroke-5"></path>
                    <path d="M0.265210608,75.5 L169.952115,98.6098737 L169.952115,97.1416656 C169.952115,95.6734575 170.556109,83.2351656 164.81799,69.4901685 C158.522818,54.4105702 147.215273,45.264735 147.215273,45.264735 L0,9.35742188 L0.265210608,75.5 Z" id="Stroke-7"></path>
                    <path d="M50.6449372,102.157799 C62.2671307,103.015966 71.1814397,102.769674 70.9368353,106.195371 C70.6922309,109.621434 66.5361562,114.270515 53.9454465,113.781235 C41.3547368,113.291955 20.5736299,113.536411 27.9080951,107.05207 C35.2425603,100.567362 46.0957351,101.821946 50.6449372,102.157799 Z" id="Stroke-9"></path>
                    <path d="M52.4785535,104.604934 C61.0257725,105.34014 68.9811002,105.664981 68.3697725,107.82655 C67.7584448,109.988486 65.2577589,113.659007 48.6609643,112.557851 C32.0641698,111.456695 26.0744788,111.780434 30.353039,108.681781 C34.6312326,105.583862 36.8315722,103.258955 52.4785535,104.604934 Z" id="Stroke-11"></path>
                    <path d="M33.661763,106.310075 C33.661763,106.310075 32.080819,108.621034 33.661763,108.865858 C35.242707,109.110314 65.8486968,110.664046 65.8486968,110.664046" id="Stroke-13"></path>
                </g>
                <g id="Group-36" transform="translate(44.000000, 40.000000)" stroke="#000000">
                    <path d="M0.328936667,41.7072727 L0.328936667,32.9672727 C0.328936667,22.0581818 -1.09006333,12.3003636 7.15993667,10.0883636 C15.4099367,7.87636364 22.0693367,6.05818182 32.3063033,4.42181818 C42.54327,2.78545455 51.89327,-1.03272727 54.2766033,12.0581818 C56.6599367,25.1490909 56.4766033,37.1490909 56.4766033,39.5127273 C56.4766033,41.8763636 54.9762033,48.5061818 54.9762033,48.5061818 L0.328936667,41.7072727 Z" id="Stroke-16" stroke-width="4"></path>
                    <path d="M5.11511,10.8887273 C5.11511,10.8887273 43.6433433,-0.669090909 48.96001,0.0581818182 C54.2766767,0.785454545 95.8933433,9.20945455 99.9266767,10.0883636 C103.96001,10.9672727 108.726677,12.0581818 109.643343,13.3309091 C110.41591,14.404 114.185243,23.3585455 116.777943,28.976 C117.260477,30.0221818 117.70231,30.9523636 118.076677,31.6945455 C120.46001,36.4218182 122.293343,41.3309091 118.076677,42.0581818 C113.86001,42.7854545 81.0433433,37.7345455 75.5433433,37.1690909 C70.0433433,36.6036364 62.3433433,34.6036364 58.86001,22.7854545 C55.3766767,10.9672727 56.3725433,4.72109091 50.2433433,2.61854545 C44.11341,0.516 5.11511,10.8887273 5.11511,10.8887273 Z" id="Stroke-18" stroke-width="4"></path>
                    <path d="M54.97624,48.5062909 C54.97624,48.5062909 87.7371733,52.5826545 100.959173,54.2273818 C114.181173,55.8728364 120.093307,57.3917455 120.59784,53.5128364 C121.22484,48.6906545 120.906573,39.0568364 120.59784,38.0582909" id="Stroke-20" stroke-width="4"></path>
                    <path d="M64.4626767,32.6140727 L64.4619433,33.0693455 C64.4619433,33.0693455 65.54471,37.2704364 64.34131,43.2097091 C63.13791,49.1489818 62.85631,49.4868 62.85631,49.4868" id="Stroke-22" stroke-width="4"></path>
                    <path d="M113.7378,55.9523273 C113.7378,55.9523273 114.024167,55.8534182 114.532,52.1188727 C115.039833,48.3843273 114.532,42.1294182 114.532,42.1294182" id="Stroke-24" stroke-width="4"></path>
                    <polygon id="Stroke-26" stroke-width="1.5" points="67.7211333 29.9368727 77.7432333 30.4216 76.0598667 21.6892364 65.7044667 21.0776"></polygon>
                    <polygon id="Stroke-28" stroke-width="1.5" points="102.316353 33.1023273 112.338453 33.5870545 110.655087 24.8546909 101.034853 24.2863273"></polygon>
                    <path d="M76.3284867,23.0829818 C76.3284867,23.0829818 81.5930867,22.4218909 89.75142,23.5128 C97.9097533,24.6037091 101.13532,24.9778909 101.13532,24.9778909 L101.940887,31.4517091 C101.940887,31.4517091 89.2930867,28.9673455 77.7430867,29.5128 L76.3284867,23.0829818 Z" id="Stroke-30" stroke-width="1.5"></path>
                    <path d="M73.86995,26.0929455 C73.86995,27.0907636 73.0541167,27.8994909 72.0479833,27.8994909 C71.0422167,27.8994909 70.2263833,27.0907636 70.2263833,26.0929455 C70.2263833,25.0951273 71.0422167,24.2864 72.0479833,24.2864 C73.0541167,24.2864 73.86995,25.0951273 73.86995,26.0929455 Z" id="Stroke-32"></path>
                    <path d="M108.508143,28.9368727 C108.508143,29.9346909 107.692677,30.7434182 106.686543,30.7434182 C105.68041,30.7434182 104.864943,29.9346909 104.864943,28.9368727 C104.864943,27.9390545 105.68041,27.1303273 106.686543,27.1303273 C107.692677,27.1303273 108.508143,27.9390545 108.508143,28.9368727 Z" id="Stroke-34"></path>
                </g>
            </g>
        </g>
    </g>
</svg>