<svg width="33" height="47" viewBox="0 0 33 47" xmlns="http://www.w3.org/2000/svg">
    <path d="M16.5 0c1.786 0 3.237 1.462 3.237 3.265A3.27 3.27 0 0 1 18.533 5.8C26.687 6.807 33 13.793 33 22.273c0 8.286-6.023 15.142-13.9 16.393.255 2.014 1.894 3.054 5.195 3.753 1.988.308 3.75.73 5.676 1.267V47H3.06v-.516l.001-.162v-.366l.001-.198.001-.615v-1.31a3.05 3.05 0 0 0-.003-.147c1.928-.536 3.655-.959 5.641-1.267 3.304-.699 4.944-1.739 5.198-3.753C6.02 37.415 0 30.559 0 22.273 0 13.793 6.313 6.807 14.469 5.8a3.264 3.264 0 0 1-1.205-2.535C13.264 1.462 14.713 0 16.5 0zm-1.387 18.851c-1.098 0-1.876.334-2.501 1.017-.667.738-1 1.963-1 3.523v.64c0 1.56.333 2.786 1 3.524.625.682 1.403 1.016 2.5 1.016 1.099 0 1.877-.334 2.502-1.016.667-.738 1-1.964 1-3.523v-.641c0-1.56-.333-2.785-1-3.523-.625-.683-1.403-1.017-2.501-1.017zm10.467 5.775c-.417 0-.778.13-1.028.427-.26.297-.408.761-.408 1.402v.241c0 .64.149 1.105.408 1.402.25.297.611.427 1.028.427.417 0 .778-.13 1.028-.427.26-.297.408-.761.408-1.402v-.241c0-.641-.148-1.105-.408-1.402-.25-.297-.61-.427-1.028-.427zm.01-2.488h-.75l-3.688 6.294h.75l3.687-6.294zm-.01 3.091c.575 0 .778.409.778 1.244v.204c0 .836-.203 1.244-.778 1.244-.574 0-.787-.408-.787-1.244v-.204c0-.835.213-1.244.787-1.244zm-10.467-5.306c.68 0 1.195.167 1.598.655.528.613.68 1.727.68 2.869v.529c0 1.142-.152 2.256-.68 2.869-.403.487-.917.654-1.598.654s-1.195-.167-1.598-.654c-.528-.613-.68-1.727-.68-2.87v-.528c0-1.142.152-2.256.68-2.87.403-.487.917-.654 1.598-.654zm6.049 2.122c-.417 0-.778.13-1.029.427-.259.297-.407.761-.407 1.402v.241c0 .64.148 1.105.407 1.402.25.297.612.427 1.029.427.417 0 .778-.13 1.028-.427.26-.297.407-.761.407-1.402v-.241c0-.64-.148-1.105-.407-1.402-.25-.297-.611-.427-1.028-.427zm0 .603c.574 0 .778.409.778 1.244v.204c0 .836-.204 1.245-.778 1.245-.575 0-.788-.409-.788-1.245v-.204c0-.835.213-1.244.788-1.244zM22 10.444H11v2.902h11v-2.902z" fill="#FFF" fill-rule="evenodd"/>
</svg>
