<svg id="Capa_1" data-name="Capa 1" xmlns="http://www.w3.org/2000/svg" viewBox="0 0 72.47 24"><title>logo_avis</title><path d="M69.09,6.28a6,6,0,0,0-4.2-1.73c-1.42,0-3.19.48-3.19,2.29,0,1.51,1.35,2,3.51,2.71,3.1,1,7.1,2.29,7.1,6.84,0,5.25-4.23,7.61-8.74,7.61A12,12,0,0,1,55,20.71l3.38-3.47a7.24,7.24,0,0,0,5.17,2.21c1.67,0,3.16-.65,3.16-2.48S65,14.64,62,13.67s-5.84-2.38-5.84-6.51C56.15,2.1,60.73,0,65,0a11.45,11.45,0,0,1,7.48,2.8Zm-54,8.24H9.36l2.9-7.84Zm9.42,8.9L15.18.58H9.68L0,23.42H6.1l1.68-4.48h8.84l1.77,4.48ZM44.12.58H38l-5.29,16.5L27.35.58h-6.2L29.8,23.42h5.51Zm2.21,22.84h5.55V.58H46.33Z" style="fill:#d70926"/></svg>