<?xml version="1.0" encoding="UTF-8" standalone="no"?>
<svg
   xmlns:dc="http://purl.org/dc/elements/1.1/"
   xmlns:cc="http://creativecommons.org/ns#"
   xmlns:rdf="http://www.w3.org/1999/02/22-rdf-syntax-ns#"
   xmlns:svg="http://www.w3.org/2000/svg"
   xmlns="http://www.w3.org/2000/svg"
   viewBox="0 0 1133.8578 506.45575"
   height="506.45575"
   width="1133.8578"
   xml:space="preserve"
   id="svg2"
   version="1.1"><metadata
     id="metadata8"><rdf:RDF><cc:Work
         rdf:about=""><dc:format>image/svg+xml</dc:format><dc:type
           rdf:resource="http://purl.org/dc/dcmitype/StillImage" /></cc:Work></rdf:RDF></metadata><defs
     id="defs6" /><g
     transform="matrix(1.3333333,0,0,-1.3333333,5.2083332e-4,506.45732)"
     id="g10"><g
       transform="scale(0.1)"
       id="g12"><path
         id="path14"
         style="fill:#d21a38;fill-opacity:1;fill-rule:nonzero;stroke:none"
         d="M 8503.93,0.0117188 H -0.00390625 V 3798.43 H 8503.93 V 0.0117188" /><path
         id="path16"
         style="fill:#ffffff;fill-opacity:1;fill-rule:nonzero;stroke:none"
         d="m 4656.76,2474.44 h 3.68 c 90.09,0 130.65,-64.43 130.65,-161.96 v -14.7 h -307.26 c 16.56,119.6 79.14,176.66 172.93,176.66 z m 278.12,-355.13 c 54.71,0 99.07,44.35 99.07,98.97 v 5.9 c 0,150.85 -23.94,246.55 -82.85,318.27 -58.87,71.74 -152.63,114.1 -283.31,114.1 h -11.03 c -277.81,0 -415.81,-187.67 -415.81,-448.94 v -22.07 c 0,-301.74 139.85,-452.61 445.22,-452.61 h 14.71 c 114.64,0 224.41,23.88 308.76,61.24 0.25,0.11 0.45,0.18 0.74,0.31 8.08,3.65 13.81,11.76 13.81,21.2 0,1.43 -0.21,2.74 -0.45,4.07 -0.25,1.45 -0.62,2.82 -1.15,4.14 l -35.12,128.5 c -0.22,1.25 -0.54,2.43 -0.98,3.6 -3.24,8.96 -11.81,15.42 -21.86,15.42 -2.16,0 -4.25,-0.3 -6.18,-0.82 -0.43,-0.17 -0.98,-0.29 -1.43,-0.44 -81.24,-25 -165.62,-40.34 -237.71,-40.34 h -11.07 c -160.02,0 -220.72,77.3 -226.29,189.5 h 1.88 z m -761.58,480.03 c 0,-2.55 -0.2,-5.11 -0.69,-7.56 -0.41,-2.02 -0.98,-4.02 -1.72,-5.9 -86.44,-298.82 -188.49,-562.96 -309.25,-812.55 0.09,0.15 0.09,0.31 0.09,0.39 -6.21,-13.21 -19.58,-22.38 -35.09,-22.38 -1.39,0 -2.75,0.06 -4.09,0.21 0.69,-0.06 1.42,-0.17 2.09,-0.21 h -199.82 c -1.15,0 -2.36,0.06 -3.55,0.21 -0.25,0 -0.57,0.03 -0.86,0.03 -2.45,0.3 -4.86,0.78 -7.06,1.52 h -0.12 c -9.73,3.02 -17.73,9.67 -22.52,18.47 -0.12,0.27 -0.24,0.64 -0.41,0.97 -122.56,249.34 -229.63,514.66 -325.67,811.62 -0.78,2.02 -1.47,4.13 -1.97,6.29 -0.68,2.87 -1.06,5.83 -1.06,8.89 0,21.45 17.41,38.82 38.82,38.82 h 180.89 c 17.33,0 31.86,-11.31 36.93,-26.85 0.12,-0.49 0.24,-0.95 0.37,-1.43 69,-239.91 136.53,-445.5 210.88,-610.16 72.02,163.48 137.38,374 197.68,605.9 0.41,2.41 0.94,4.71 1.8,6.95 5.43,14.93 19.69,25.59 36.44,25.59 h 169.13 c 21.44,0 38.76,-17.37 38.76,-38.82 z m 2166.85,-627.19 c -23.89,-18.47 -84.66,-47.86 -152.74,-47.86 -80.92,0 -125.08,42.31 -125.08,103.04 v 5.53 c 0,64.34 51.48,93.82 141.67,93.82 h 5.52 c 53.36,0 112.26,-11.04 130.63,-16.55 z m 258.94,-191.88 c -0.04,1.21 -0.22,2.39 -0.37,3.62 -7.23,72.74 -10.23,154.56 -10.23,260 v 263.06 c 0,132.49 -20.25,206.1 -88.27,270.49 -58.9,57.05 -150.92,79.11 -274.16,79.11 -105.44,0 -228.04,-24.3 -321.13,-54.04 -0.91,-0.3 -1.81,-0.61 -2.74,-0.86 -14.87,-5.41 -25.67,-19.65 -25.67,-36.48 0,-2.3 0.25,-4.59 0.67,-6.74 0.33,-1.94 0.82,-3.8 1.38,-5.56 l 25.94,-102.6 c 0.37,-2.24 0.94,-4.46 1.67,-6.57 5.28,-15.14 19.66,-26.02 36.61,-26.02 2.57,0 5.06,0.26 7.48,0.73 1.88,0.35 3.67,0.92 5.47,1.51 66.59,18.54 144.98,36.05 213.25,36.05 119.61,0 171.16,-34.9 171.16,-147.17 v -27.58 c -23.89,7.35 -103.05,23.9 -176.63,23.9 h -5.51 c -200.55,0 -340.39,-90.09 -340.39,-279.66 v -7.34 c 0,-167.41 123.3,-285.19 312.81,-285.19 110.38,0 206.02,40.49 244.67,68.08 l 14.94,-41.05 c 0.48,-2.04 1.15,-3.93 2.01,-5.7 3.91,-7.42 11.6,-12.47 20.5,-12.59 0.08,0 0.12,0 0.12,0 1.56,0 2.99,0.17 4.38,0.44 l 160.02,14.38 1.83,0.16 c 11.36,1.55 20.22,11.25 20.22,23.08 0,0.17 -0.03,0.36 -0.03,0.54 z m -844.02,837.45 v -148.19 c -3.26,-18.1 -19.07,-31.86 -38.15,-31.86 -0.78,0 -1.55,0.1 -2.28,0.14 -0.86,0.06 -1.73,0.16 -2.55,0.21 -10.65,0.87 -21.84,1.42 -32.42,1.42 -77.26,0 -156.39,-23.91 -213.47,-60.72 v -582.81 c 0.29,-1.93 0.51,-3.78 0.51,-5.78 0,-1.9 -0.22,-3.85 -0.51,-5.71 -2.81,-18.73 -18.87,-33.08 -38.31,-33.08 h -171.25 c -21.42,0 -38.78,17.35 -38.78,38.79 v 595.97 c 0,76.85 -4.4,155.13 -14.38,225.87 -0.24,1.12 -0.45,2.22 -0.51,3.42 0,0.56 -0.05,1.12 -0.05,1.68 0,11.36 8.04,20.78 18.79,22.88 1.42,0.29 2.94,0.43 4.49,0.43 0.21,0 0.36,-0.04 0.54,-0.04 l 158.3,12.7 c 1.14,0.2 2.36,0.32 3.59,0.32 h 0.17 c 9.84,-0.05 18.22,-6.25 21.53,-14.95 0.49,-1.18 0.86,-2.42 1.1,-3.71 l 19.86,-66.47 c 58.81,49.71 156.36,90.17 257.56,90.17 10.1,0 21.05,-0.59 31.25,-1.35 0.05,-0.02 0.12,-0.02 0.25,-0.02 15.53,-1.69 28.28,-12.86 32.92,-27.49 0,-0.11 0.05,-0.23 0.05,-0.35 0.37,-0.94 0.56,-1.94 0.82,-2.94 0.04,-0.24 0.12,-0.56 0.16,-0.86 0.25,-0.85 0.33,-1.81 0.45,-2.75 0.04,-0.31 0.12,-0.69 0.12,-1.03 0.13,-1.28 0.2,-2.55 0.2,-3.89 z M 3170.54,1790.13 c 0,-1.49 -0.12,-2.98 -0.28,-4.47 -2.25,-19.28 -18.63,-34.32 -38.61,-34.32 H 2960.6 c -21.4,0 -38.76,17.35 -38.76,38.79 v 505.77 c 0,58.9 -11.03,93.85 -34.97,117.78 -22.07,22.1 -53.32,33.14 -97.52,33.14 -68.06,0 -136.12,-27.64 -182.15,-60.72 v -591.67 c 0.2,-1.42 0.28,-2.86 0.28,-4.3 0,-1.43 -0.08,-2.85 -0.28,-4.28 -2.09,-19.42 -18.55,-34.51 -38.49,-34.51 h -171.09 c -21.24,0 -38.4,17.01 -38.81,38.14 0,0.22 0,0.43 0,0.65 0,0.26 0,0.48 0,0.72 v 595.25 c 0,87 -2.9,143.25 -12.7,210.58 -0.29,1.27 -0.53,2.55 -0.58,3.9 0,0.47 -0.08,0.96 -0.08,1.45 0,11.19 7.97,20.5 18.46,22.76 l 2.79,0.42 165.05,24.4 c 1.38,0.35 2.85,0.56 4.36,0.65 0.41,0 0.82,0.05 1.27,0.05 9.56,0 17.85,-5.82 21.36,-14.17 0.7,-1.61 1.19,-3.3 1.51,-5.05 l 15.73,-53.65 c 84.61,49.67 169.21,79.11 264.93,79.11 99.35,0 187.63,-29.44 246.54,-90.14 53.31,-53.36 82.81,-136.16 82.81,-246.58 V 1794.6 c 0.16,-1.48 0.28,-2.94 0.28,-4.47 z m -1372.79,684.31 h 3.63 c 90.16,0 130.65,-64.43 130.65,-161.96 v -14.7 h -307.25 c 16.55,119.6 79.13,176.66 172.97,176.66 z m 278.16,-355.13 c 54.66,0 98.99,44.35 98.99,98.97 v 5.9 c 0,150.85 -23.91,246.55 -82.77,318.27 -58.87,71.74 -152.75,114.1 -283.35,114.1 h -11.03 c -277.84,0 -415.8,-187.67 -415.8,-448.94 v -22.07 c 0,-301.74 139.8,-452.61 445.25,-452.61 h 14.67 c 114.63,0 224.44,23.88 308.76,61.24 0.28,0.11 0.49,0.18 0.7,0.31 8.16,3.65 13.79,11.76 13.79,21.2 0,1.43 -0.07,2.74 -0.32,4.07 -0.28,1.45 -0.61,2.82 -1.14,4.14 l -35.17,128.5 c -0.25,1.25 -0.58,2.43 -1.03,3.6 -3.22,8.96 -11.8,15.42 -21.9,15.42 -2.11,0 -4.16,-0.3 -6.16,-0.82 -0.41,-0.17 -0.9,-0.29 -1.39,-0.44 -81.29,-25 -165.61,-40.34 -237.72,-40.34 h -10.99 c -160.1,0 -220.85,77.3 -226.36,189.5 h 1.84 451.13" /><path
         id="path18"
         style="fill:#fbbe09;fill-opacity:1;fill-rule:nonzero;stroke:none"
         d="m 7108.76,1604.72 c -80.89,0 -146.49,65.62 -146.49,146.66 0,80.89 65.6,146.58 146.49,146.58 80.96,0 146.57,-65.69 146.57,-146.58 0,-81.04 -65.61,-146.66 -146.57,-146.66 z m 0.04,441.66 c -162.85,0 -294.91,-132.14 -294.91,-295 0,-163.06 132.06,-295.08 294.91,-295.08 162.8,0 294.92,132.02 294.92,295.08 0,162.86 -132.12,295 -294.92,295" /><path
         id="path20"
         style="fill:#ffffff;fill-opacity:1;fill-rule:nonzero;stroke:none"
         d="m 1047.11,1293.64 -4.81,-52.06 H 956.988 V 997.039 h -60.804 v 244.541 h -86.621 v 52.06 h 237.547" /><path
         id="path22"
         style="fill:#ffffff;fill-opacity:1;fill-rule:nonzero;stroke:none"
         d="m 1158.67,1165.47 c -14.43,0 -24.06,-5.26 -30.62,-14.88 -7,-10.49 -10.06,-26.25 -10.06,-45.05 v -4.82 c 0,-20.56 3.06,-37.63 11.81,-48.12 6.12,-7.87 15.31,-12.25 28.87,-12.25 h 1.75 c 14.44,0 24.06,4.81 30.19,13.13 7.87,10.49 10.5,26.25 10.5,45.92 v 4.82 c 0,19.25 -3.07,35.44 -10.5,46.37 -6.56,9.18 -16.19,14.88 -30.19,14.88 z m 2.19,46.8 c 33.24,0 58.62,-10.05 75.68,-28.87 16.19,-17.93 24.5,-43.3 24.5,-76.56 v -7 c 0,-39.8 -10.5,-68.68 -31.5,-86.18 -16.18,-13.988 -39.37,-21 -68.68,-21 h -2.62 c -28.88,0 -51.63,7.012 -67.81,20.56 -21,17.5 -32.38,45.94 -32.38,84.87 v 7.01 c 0,35.43 9.19,62.99 26.69,80.92 17.06,17.5 41.56,26.25 73.5,26.25 h 2.62" /><path
         id="path24"
         style="fill:#ffffff;fill-opacity:1;fill-rule:nonzero;stroke:none"
         d="m 1394.48,1164.59 c -34.56,0 -49.87,-21 -49.87,-58.62 v -6.57 c 0,-37.17 11.81,-59.05 42.87,-59.05 h 1.75 c 13.13,0 28.87,6.56 35.44,13.99 v 104.13 c -3.94,2.18 -17.06,6.12 -28.88,6.12 z m 89.24,140.87 v -246.3 c 0,-29.31 1.76,-43.31 3.94,-58.18 l -49.87,-6.57 -5.69,16.19 c -10.06,-8.31 -29.31,-17.94 -53.81,-17.94 h -2.18 c -51.62,0 -90.99,33.69 -90.99,104.56 v 8.32 c 0,36.74 9.18,62.98 31.93,83.55 18.37,16.62 41.12,23.18 69.12,23.18 h 1.75 c 12.69,0 28.44,-3.06 36.75,-6.12 v 99.31 h 59.05" /><path
         id="path26"
         style="fill:#ffffff;fill-opacity:1;fill-rule:nonzero;stroke:none"
         d="m 1617.16,1165.47 c -14.44,0 -24.06,-5.26 -30.62,-14.88 -7.01,-10.49 -10.07,-26.25 -10.07,-45.05 v -4.82 c 0,-20.56 3.06,-37.63 11.81,-48.12 6.13,-7.87 15.32,-12.25 28.88,-12.25 h 1.75 c 14.43,0 24.06,4.81 30.18,13.13 7.88,10.49 10.5,26.25 10.5,45.92 v 4.82 c 0,19.25 -3.06,35.44 -10.5,46.37 -6.56,9.18 -16.18,14.88 -30.18,14.88 z m 2.18,46.8 c 33.25,0 58.63,-10.05 75.69,-28.87 16.18,-17.93 24.49,-43.3 24.49,-76.56 v -7 c 0,-39.8 -10.49,-68.68 -31.49,-86.18 -16.19,-13.988 -39.37,-21 -68.69,-21 h -2.62 c -28.87,0 -51.62,7.012 -67.81,20.56 -21,17.5 -32.37,45.94 -32.37,84.87 v 7.01 c 0,35.43 9.19,62.99 26.69,80.92 17.06,17.5 41.55,26.25 73.49,26.25 h 2.62" /><path
         id="path28"
         style="fill:#ffffff;fill-opacity:1;fill-rule:nonzero;stroke:none"
         d="m 1745.34,1149.72 c 0,38.49 32.82,62.55 85.31,62.55 h 0.88 c 19.68,0 45.49,-3.93 64.74,-10.93 l -9.62,-42 c -16.19,5.25 -32.81,9.18 -51.19,9.18 h -1.31 c -20.12,0 -28.87,-6.56 -28.87,-14.87 v -0.44 c 0,-6.99 5.68,-12.24 25.37,-19.68 l 29.75,-11.37 c 32.37,-12.25 50.31,-28.88 50.31,-61.25 v -2.62 c 0,-21.01 -10.5,-38.94 -24.06,-48.56 -17.5,-12.25 -40.69,-17.07 -65.19,-17.07 h -1.75 c -31.49,0 -61.68,8.75 -79.61,16.63 l 10.06,45.49 c 21.43,-8.75 45.93,-14.43 68.68,-14.43 h 0.87 c 23.63,0 33.25,5.68 33.25,15.31 v 0.87 c 0,9.63 -9.18,14.01 -28,20.57 l -28.87,10.06 c -34.99,12.24 -50.75,31.06 -50.75,60.81 v 1.75" /><path
         id="path30"
         style="fill:#ffffff;fill-opacity:1;fill-rule:nonzero;stroke:none"
         d="m 2062.52,1048.66 c 6.56,-4.37 20.12,-8.31 34.56,-8.31 34.12,0 45.49,22.31 45.49,59.49 v 5.26 c 0,37.18 -10.5,59.49 -41.12,59.49 -17.06,0 -29.31,-7.43 -38.93,-14.43 z m -12.69,162.74 5.25,-17.49 c 16.19,10.49 36.75,18.36 60.37,18.36 24.93,0 47.68,-7.87 62.12,-23.62 17.06,-18.37 24.5,-47.24 24.5,-81.37 v -7 c 0,-35.87 -7.44,-63.43 -24.5,-81.37 -16.62,-17.93 -42,-26.25 -74.37,-26.25 -13.56,0 -29.75,3.07 -40.68,7.45 v -96.688 h -59.06 v 244.108 c 0,17.94 -0.44,35.87 -3.94,56.43 l 50.31,7.44" /><path
         id="path32"
         style="fill:#ffffff;fill-opacity:1;fill-rule:nonzero;stroke:none"
         d="m 2326.76,1165.47 c -14.44,0 -24.06,-5.26 -30.62,-14.88 -7.01,-10.49 -10.07,-26.25 -10.07,-45.05 v -4.82 c 0,-20.56 3.06,-37.63 11.81,-48.12 6.13,-7.87 15.32,-12.25 28.88,-12.25 h 1.75 c 14.43,0 24.06,4.81 30.18,13.13 7.88,10.49 10.5,26.25 10.5,45.92 v 4.82 c 0,19.25 -3.06,35.44 -10.5,46.37 -6.56,9.18 -16.18,14.88 -30.18,14.88 z m 2.18,46.8 c 33.25,0 58.63,-10.05 75.69,-28.87 16.18,-17.93 24.49,-43.3 24.49,-76.56 v -7 c 0,-39.8 -10.49,-68.68 -31.49,-86.18 -16.19,-13.988 -39.38,-21 -68.69,-21 h -2.62 c -28.87,0 -51.62,7.012 -67.81,20.56 -21,17.5 -32.37,45.94 -32.37,84.87 v 7.01 c 0,35.43 9.19,62.99 26.69,80.92 17.06,17.5 41.55,26.25 73.49,26.25 h 2.62" /><path
         id="path34"
         style="fill:#ffffff;fill-opacity:1;fill-rule:nonzero;stroke:none"
         d="m 2562.56,1164.59 c -34.56,0 -49.87,-21 -49.87,-58.62 v -6.57 c 0,-37.17 11.81,-59.05 42.87,-59.05 h 1.75 c 13.13,0 28.87,6.56 35.44,13.99 v 104.13 c -3.94,2.18 -17.06,6.12 -28.88,6.12 z m 89.24,140.87 v -246.3 c 0,-29.31 1.76,-43.31 3.94,-58.18 l -49.87,-6.57 -5.69,16.19 c -10.06,-8.31 -29.31,-17.94 -53.81,-17.94 h -2.18 c -51.62,0 -90.99,33.69 -90.99,104.56 v 8.32 c 0,36.74 9.18,62.98 31.93,83.55 18.37,16.62 41.12,23.18 69.12,23.18 h 1.75 c 12.68,0 28.44,-3.06 36.75,-6.12 v 99.31 h 59.05" /><path
         id="path36"
         style="fill:#ffffff;fill-opacity:1;fill-rule:nonzero;stroke:none"
         d="m 2815.43,1126.97 v 3.5 c 0,23.18 -9.63,38.49 -31.06,38.49 h -0.88 c -22.31,0 -37.18,-13.56 -41.12,-41.99 z m -29.31,85.3 c 31.06,0 53.37,-10.05 67.37,-27.11 14,-17.07 19.69,-39.82 19.69,-75.69 v -24.94 h -131.24 c 1.3,-26.68 15.74,-45.06 53.8,-45.06 h 2.63 c 18.81,0 41.12,4.38 62.12,11.38 l 11.37,-41.56 c -20.56,-10.06 -48.56,-16.63 -77.87,-16.63 h -3.5 c -72.62,0 -105.86,35.87 -105.86,107.62 v 5.26 c 0,62.12 32.8,106.73 98.86,106.73 h 2.63" /><path
         id="path38"
         style="fill:#ffffff;fill-opacity:1;fill-rule:nonzero;stroke:none"
         d="m 2952.37,1211.4 5.25,-17.93 c 19.68,12.24 38.93,18.8 60.8,18.8 24.06,0 43.31,-6.12 59.5,-24.06 24.06,17.06 46.81,24.06 69.99,24.06 24.07,0 43.31,-7 56,-19.68 13.12,-13.13 20.12,-31.94 20.12,-59.5 V 997.039 h -59.06 v 129.491 c 0,11.38 -1.31,20.13 -5.69,26.25 -4.37,6.13 -11.81,9.62 -23.62,9.62 -14,0 -30.18,-5.68 -41.12,-13.99 V 997.039 h -59.06 v 129.491 c 0,11.38 -1.31,20.13 -5.68,26.25 -4.38,6.13 -11.81,9.62 -23.63,9.62 -13.99,0 -30.18,-5.68 -41.12,-13.99 V 997.039 h -59.06 v 150.931 c 0,23.18 -0.87,37.19 -3.94,55.99 l 50.32,7.44" /><path
         id="path40"
         style="fill:#ffffff;fill-opacity:1;fill-rule:nonzero;stroke:none"
         d="m 3353.1,1165.47 c -14.43,0 -24.05,-5.26 -30.62,-14.88 -7,-10.49 -10.06,-26.25 -10.06,-45.05 v -4.82 c 0,-20.56 3.06,-37.63 11.81,-48.12 6.12,-7.87 15.31,-12.25 28.87,-12.25 h 1.76 c 14.43,0 24.05,4.81 30.18,13.13 7.87,10.49 10.5,26.25 10.5,45.92 v 4.82 c 0,19.25 -3.06,35.44 -10.5,46.37 -6.56,9.18 -16.18,14.88 -30.18,14.88 z m 2.19,46.8 c 33.25,0 58.62,-10.05 75.68,-28.87 16.19,-17.93 24.5,-43.3 24.5,-76.56 v -7 c 0,-39.8 -10.5,-68.68 -31.49,-86.18 -16.19,-13.988 -39.38,-21 -68.69,-21 h -2.62 c -28.87,0 -51.62,7.012 -67.81,20.56 -21,17.5 -32.37,45.94 -32.37,84.87 v 7.01 c 0,35.43 9.18,62.99 26.68,80.92 17.06,17.5 41.56,26.25 73.5,26.25 h 2.62" /><path
         id="path42"
         style="fill:#ffffff;fill-opacity:1;fill-rule:nonzero;stroke:none"
         d="m 3481.29,1149.72 c 0,38.49 32.81,62.55 85.31,62.55 h 0.87 c 19.69,0 45.5,-3.93 64.75,-10.93 l -9.62,-42 c -16.19,5.25 -32.82,9.18 -51.19,9.18 h -1.31 c -20.13,0 -28.88,-6.56 -28.88,-14.87 v -0.44 c 0,-6.99 5.69,-12.24 25.38,-19.68 l 29.75,-11.37 c 32.37,-12.25 50.31,-28.88 50.31,-61.25 v -2.62 c 0,-21.01 -10.5,-38.94 -24.06,-48.56 -17.5,-12.25 -40.69,-17.07 -65.19,-17.07 h -1.75 c -31.5,0 -61.68,8.75 -79.62,16.63 l 10.07,45.49 c 21.43,-8.75 45.93,-14.43 68.68,-14.43 h 0.87 c 23.62,0 33.25,5.68 33.25,15.31 v 0.87 c 0,9.63 -9.19,14.01 -28,20.57 l -28.87,10.06 c -35,12.24 -50.75,31.06 -50.75,60.81 v 1.75" /><path
         id="path44"
         style="fill:#ffffff;fill-opacity:1;fill-rule:nonzero;stroke:none"
         d="m 3732.41,1149.72 c 0,38.49 32.81,62.55 85.3,62.55 h 0.88 c 19.68,0 45.49,-3.93 64.74,-10.93 l -9.62,-42 c -16.19,5.25 -32.81,9.18 -51.19,9.18 h -1.31 c -20.12,0 -28.87,-6.56 -28.87,-14.87 v -0.44 c 0,-6.99 5.69,-12.24 25.37,-19.68 l 29.75,-11.37 c 32.37,-12.25 50.31,-28.88 50.31,-61.25 v -2.62 c 0,-21.01 -10.5,-38.94 -24.06,-48.56 -17.5,-12.25 -40.68,-17.07 -65.19,-17.07 h -1.74 c -31.5,0 -61.69,8.75 -79.62,16.63 l 10.06,45.49 c 21.44,-8.75 45.93,-14.43 68.68,-14.43 h 0.88 c 23.62,0 33.24,5.68 33.24,15.31 v 0.87 c 0,9.63 -9.18,14.01 -28,20.57 l -28.87,10.06 c -34.99,12.24 -50.74,31.06 -50.74,60.81 v 1.75" /><path
         id="path46"
         style="fill:#ffffff;fill-opacity:1;fill-rule:nonzero;stroke:none"
         d="m 4043.88,1126.97 v 3.5 c 0,23.18 -9.62,38.49 -31.05,38.49 h -0.88 c -22.31,0 -37.19,-13.56 -41.12,-41.99 z m -29.31,85.3 c 31.07,0 53.38,-10.05 67.38,-27.11 14,-17.07 19.68,-39.82 19.68,-75.69 v -24.94 h -131.24 c 1.31,-26.68 15.75,-45.06 53.81,-45.06 h 2.62 c 18.82,0 41.13,4.38 62.12,11.38 l 11.38,-41.56 c -20.56,-10.06 -48.56,-16.63 -77.87,-16.63 h -3.5 c -72.62,0 -105.87,35.87 -105.87,107.62 v 5.26 c 0,62.12 32.81,106.73 98.87,106.73 h 2.62" /><path
         id="path48"
         style="fill:#ffffff;fill-opacity:1;fill-rule:nonzero;stroke:none"
         d="m 4179.07,1211.83 6.13,-20.55 c 13.99,11.8 37.18,21.43 61.24,21.43 6.13,0 13.56,-0.88 15.75,-1.31 v -52.49 c -3.94,0.86 -11.37,1.74 -17.93,1.74 -18.38,0 -37.19,-5.68 -50.75,-14.43 V 997.039 h -59.06 v 150.931 c 0,20.55 -1.31,41.56 -4.37,59.93 l 48.99,3.93" /><path
         id="path50"
         style="fill:#ffffff;fill-opacity:1;fill-rule:nonzero;stroke:none"
         d="m 4410.5,1305.46 v -236.24 c 0.44,-16.18 3.94,-26.68 20.12,-26.68 6.57,0 15.75,1.75 19.69,2.62 l 6.12,-43.75 c -12.68,-3.93 -30.62,-6.558 -43.75,-6.558 -45.92,0 -61.24,26.248 -61.24,66.498 v 244.11 h 59.06" /><path
         id="path52"
         style="fill:#ffffff;fill-opacity:1;fill-rule:nonzero;stroke:none"
         d="m 4566.25,1165.47 c -14.44,0 -24.06,-5.26 -30.63,-14.88 -6.99,-10.49 -10.06,-26.25 -10.06,-45.05 v -4.82 c 0,-20.56 3.07,-37.63 11.82,-48.12 6.12,-7.87 15.3,-12.25 28.87,-12.25 h 1.75 c 14.44,0 24.06,4.81 30.18,13.13 7.88,10.49 10.5,26.25 10.5,45.92 v 4.82 c 0,19.25 -3.06,35.44 -10.5,46.37 -6.56,9.18 -16.18,14.88 -30.18,14.88 z m 2.19,46.8 c 33.25,0 58.62,-10.05 75.68,-28.87 16.18,-17.93 24.5,-43.3 24.5,-76.56 v -7 c 0,-39.8 -10.51,-68.68 -31.5,-86.18 -16.18,-13.988 -39.37,-21 -68.68,-21 h -2.63 c -28.87,0 -51.62,7.012 -67.8,20.56 -21,17.5 -32.38,45.94 -32.38,84.87 v 7.01 c 0,35.43 9.19,62.99 26.68,80.92 17.07,17.5 41.56,26.25 73.5,26.25 h 2.63" /><path
         id="path54"
         style="fill:#ffffff;fill-opacity:1;fill-rule:nonzero;stroke:none"
         d="m 4694.43,1149.72 c 0,38.49 32.81,62.55 85.3,62.55 h 0.88 c 19.69,0 45.5,-3.93 64.75,-10.93 l -9.63,-42 c -16.18,5.25 -32.8,9.18 -51.18,9.18 h -1.31 c -20.13,0 -28.88,-6.56 -28.88,-14.87 v -0.44 c 0,-6.99 5.7,-12.24 25.37,-19.68 l 29.76,-11.37 c 32.37,-12.25 50.3,-28.88 50.3,-61.25 v -2.62 c 0,-21.01 -10.5,-38.94 -24.06,-48.56 -17.49,-12.25 -40.68,-17.07 -65.18,-17.07 h -1.74 c -31.51,0 -61.69,8.75 -79.62,16.63 l 10.06,45.49 c 21.43,-8.75 45.93,-14.43 68.68,-14.43 h 0.88 c 23.62,0 33.24,5.68 33.24,15.31 v 0.87 c 0,9.63 -9.19,14.01 -28,20.57 l -28.87,10.06 c -35,12.24 -50.75,31.06 -50.75,60.81 v 1.75" /><path
         id="path56"
         style="fill:#ffffff;fill-opacity:1;fill-rule:nonzero;stroke:none"
         d="m 4998.91,1211.4 5.26,-17.93 c 19.69,12.24 38.93,18.8 60.81,18.8 24.05,0 43.31,-6.12 59.49,-24.06 24.06,17.06 46.81,24.06 69.99,24.06 24.06,0 43.31,-7 56,-19.68 13.12,-13.13 20.12,-31.94 20.12,-59.5 V 997.039 h -59.05 v 129.491 c 0,11.38 -1.32,20.13 -5.69,26.25 -4.38,6.13 -11.81,9.62 -23.63,9.62 -13.99,0 -30.18,-5.68 -41.12,-13.99 V 997.039 h -59.05 v 129.491 c 0,11.38 -1.32,20.13 -5.69,26.25 -4.38,6.13 -11.81,9.62 -23.63,9.62 -13.99,0 -30.18,-5.68 -41.12,-13.99 V 997.039 h -59.05 v 150.931 c 0,23.18 -0.88,37.19 -3.94,55.99 l 50.3,7.44" /><path
         id="path58"
         style="fill:#ffffff;fill-opacity:1;fill-rule:nonzero;stroke:none"
         d="m 5429.84,1126.97 v 3.5 c 0,23.18 -9.62,38.49 -31.05,38.49 h -0.88 c -22.32,0 -37.19,-13.56 -41.13,-41.99 z m -29.31,85.3 c 31.06,0 53.37,-10.05 67.37,-27.11 14,-17.07 19.69,-39.82 19.69,-75.69 v -24.94 h -131.24 c 1.31,-26.68 15.75,-45.06 53.8,-45.06 h 2.63 c 18.81,0 41.12,4.38 62.12,11.38 l 11.38,-41.56 c -20.57,-10.06 -48.57,-16.63 -77.87,-16.63 h -3.5 c -72.63,0 -105.87,35.87 -105.87,107.62 v 5.26 c 0,62.12 32.81,106.73 98.87,106.73 h 2.62" /><path
         id="path60"
         style="fill:#ffffff;fill-opacity:1;fill-rule:nonzero;stroke:none"
         d="m 5515.15,1266.08 c 0,26.69 17.94,31.5 33.26,31.5 h 2.18 c 15.32,0 33.25,-4.81 33.25,-31.5 v -1.31 c 0,-26.25 -17.93,-30.62 -33.25,-30.62 h -2.18 c -15.32,0 -33.26,4.37 -33.26,30.62 z m 63.88,-58.18 V 971.672 c 0,-32.813 -10.51,-71.754 -67.37,-71.754 -10.06,0 -23.63,1.312 -34.56,3.504 l 1.75,45.93 c 7,-1.301 14.87,-2.18 19.24,-2.18 19.69,0 21.88,15.75 21.88,31.93 V 1207.9 h 59.06" /><path
         id="path62"
         style="fill:#ffffff;fill-opacity:1;fill-rule:nonzero;stroke:none"
         d="m 5711.58,1165.47 c -14.43,0 -24.06,-5.26 -30.63,-14.88 -6.99,-10.49 -10.05,-26.25 -10.05,-45.05 v -4.82 c 0,-20.56 3.06,-37.63 11.81,-48.12 6.13,-7.87 15.31,-12.25 28.87,-12.25 h 1.75 c 14.44,0 24.06,4.81 30.18,13.13 7.88,10.49 10.5,26.25 10.5,45.92 v 4.82 c 0,19.25 -3.06,35.44 -10.5,46.37 -6.56,9.18 -16.18,14.88 -30.18,14.88 z m 2.19,46.8 c 33.25,0 58.62,-10.05 75.68,-28.87 16.18,-17.93 24.5,-43.3 24.5,-76.56 v -7 c 0,-39.8 -10.51,-68.68 -31.5,-86.18 -16.18,-13.988 -39.37,-21 -68.68,-21 h -2.63 c -28.87,0 -51.62,7.012 -67.8,20.56 -21,17.5 -32.38,45.94 -32.38,84.87 v 7.01 c 0,35.43 9.19,62.99 26.68,80.92 17.07,17.5 41.57,26.25 73.5,26.25 h 2.63" /><path
         id="path64"
         style="fill:#ffffff;fill-opacity:1;fill-rule:nonzero;stroke:none"
         d="m 5891.39,1211.83 6.13,-20.55 c 14,11.8 37.18,21.43 61.25,21.43 6.12,0 13.56,-0.88 15.75,-1.31 v -52.49 c -3.95,0.86 -11.38,1.74 -17.94,1.74 -18.38,0 -37.19,-5.68 -50.75,-14.43 V 997.039 h -59.06 v 150.931 c 0,20.55 -1.31,41.56 -4.37,59.93 l 48.99,3.93" /><path
         id="path66"
         style="fill:#ffffff;fill-opacity:1;fill-rule:nonzero;stroke:none"
         d="m 6117.14,1126.97 v 3.5 c 0,23.18 -9.62,38.49 -31.06,38.49 h -0.88 c -22.31,0 -37.18,-13.56 -41.12,-41.99 z m -29.31,85.3 c 31.05,0 53.37,-10.05 67.36,-27.11 14.01,-17.07 19.69,-39.82 19.69,-75.69 v -24.94 h -131.24 c 1.32,-26.68 15.75,-45.06 53.81,-45.06 h 2.63 c 18.8,0 41.12,4.38 62.11,11.38 l 11.38,-41.56 c -20.56,-10.06 -48.56,-16.63 -77.87,-16.63 h -3.5 c -72.62,0 -105.86,35.87 -105.86,107.62 v 5.26 c 0,62.12 32.81,106.73 98.86,106.73 h 2.63" /><path
         id="path68"
         style="fill:#ffffff;fill-opacity:1;fill-rule:nonzero;stroke:none"
         d="m 6200.7,1149.72 c 0,38.49 32.81,62.55 85.3,62.55 h 0.88 c 19.69,0 45.5,-3.93 64.75,-10.93 l -9.63,-42 c -16.18,5.25 -32.8,9.18 -51.18,9.18 h -1.31 c -20.13,0 -28.88,-6.56 -28.88,-14.87 v -0.44 c 0,-6.99 5.7,-12.24 25.37,-19.68 l 29.76,-11.37 c 32.37,-12.25 50.3,-28.88 50.3,-61.25 v -2.62 c 0,-21.01 -10.5,-38.94 -24.06,-48.56 -17.49,-12.25 -40.68,-17.07 -65.18,-17.07 h -1.74 c -31.51,0 -61.69,8.75 -79.62,16.63 l 10.06,45.49 c 21.43,-8.75 45.93,-14.43 68.68,-14.43 h 0.88 c 23.62,0 33.24,5.68 33.24,15.31 v 0.87 c 0,9.63 -9.19,14.01 -28,20.57 l -28.87,10.06 c -35,12.24 -50.75,31.06 -50.75,60.81 v 1.75" /><path
         id="path70"
         style="fill:#ffffff;fill-opacity:1;fill-rule:nonzero;stroke:none"
         d="m 6580.87,1126.97 v 3.5 c 0,23.18 -9.62,38.49 -31.06,38.49 h -0.88 c -22.31,0 -37.18,-13.56 -41.12,-41.99 z m -29.31,85.3 c 31.05,0 53.37,-10.05 67.36,-27.11 14.01,-17.07 19.69,-39.82 19.69,-75.69 v -24.94 h -131.24 c 1.32,-26.68 15.75,-45.06 53.81,-45.06 h 2.63 c 18.8,0 41.12,4.38 62.12,11.38 l 11.37,-41.56 c -20.56,-10.06 -48.56,-16.63 -77.87,-16.63 h -3.49 c -72.63,0 -105.87,35.87 -105.87,107.62 v 5.26 c 0,62.12 32.81,106.73 98.86,106.73 h 2.63" /><path
         id="path72"
         style="fill:#ffffff;fill-opacity:1;fill-rule:nonzero;stroke:none"
         d="m 6717.8,1211.4 5.25,-17.93 c 20.12,11.8 40.25,18.8 63,18.8 23.63,0 44.62,-7 58.62,-21.43 12.68,-12.69 19.68,-32.37 19.68,-58.62 V 997.039 h -59.05 v 129.491 c 0,14 -2.63,22.32 -8.31,28 -5.25,5.24 -12.7,7.87 -23.19,7.87 -16.19,0 -32.38,-6.56 -43.31,-14.43 V 997.039 h -59.06 v 150.931 c 0,23.18 -0.88,37.19 -3.93,55.99 l 50.3,7.44" /><path
         id="path74"
         style="fill:#ffffff;fill-opacity:1;fill-rule:nonzero;stroke:none"
         d="m 7016.17,1062.66 c 0,-14.44 10.51,-24.5 29.76,-24.5 16.18,0 30.61,7 36.3,11.38 v 32.8 c -4.37,1.32 -18.38,3.95 -31.06,3.95 h -1.31 c -21.43,0 -33.69,-7 -33.69,-22.32 z m -45.93,133.86 c 22.75,8.32 56.44,15.75 84.86,15.75 29.32,0 51.2,-5.24 65.19,-18.8 16.19,-15.32 21,-32.82 21,-64.31 v -62.56 c 0,-28 0.88,-49 3.06,-67.811 l -48.55,-4.379 -5.26,14.45 c -9.19,-6.57 -31.93,-16.2 -58.18,-16.2 -45.06,0 -74.36,28 -74.36,67.82 v 1.75 c 0,45.05 33.24,66.49 80.92,66.49 h 1.31 c 17.5,0 36.31,-3.94 42,-5.69 v 6.56 c 0,26.69 -12.24,35 -40.68,35 -19.69,0 -42.87,-6.12 -60.37,-11.38 l -10.94,43.31" /><path
         id="path76"
         style="fill:#ffffff;fill-opacity:1;fill-rule:nonzero;stroke:none"
         d="m 7237.98,1305.46 v -236.24 c 0.44,-16.18 3.94,-26.68 20.12,-26.68 6.57,0 15.75,1.75 19.69,2.62 l 6.12,-43.75 c -12.68,-3.93 -30.62,-6.558 -43.75,-6.558 -45.92,0 -61.24,26.248 -61.24,66.498 v 244.11 h 59.06" /><path
         id="path78"
         style="fill:#ffffff;fill-opacity:1;fill-rule:nonzero;stroke:none"
         d="m 7355.67,1135.28 c 0,-21.43 11.81,-32.37 37.19,-32.37 24.49,0 36.31,10.94 36.31,33.24 v 1.76 c 0,20.56 -10.5,31.49 -35.88,31.49 -25.37,0 -37.62,-10.49 -37.62,-31.93 z m 34.12,-142.178 c -17.5,0 -27.12,0.437 -32.37,1.75 -5.25,-3.493 -11.81,-11.801 -11.81,-20.993 0,-16.199 13.12,-27.558 48.12,-27.558 36.31,0 49.87,12.238 49.87,27.121 0,12.238 -7.44,19.68 -27.56,19.68 z m -91.86,143.928 c 0,48.13 34.56,75.24 95.8,75.24 21.87,0 38.05,-3.06 51.18,-8.75 11.82,13.57 33.69,25.38 65.62,25.38 v -45.93 c -15.75,0 -28.43,-1.32 -34.12,-3.51 7.44,-11.37 10.94,-25.37 10.94,-41.12 v -2.62 c 0,-43.75 -31.5,-75.68 -92.3,-75.68 -12.26,0 -24.51,0.87 -29.76,2.19 l -0.87,-2.19 c -0.88,-2.19 -2.19,-6.13 -2.19,-9.19 0,-9.19 7.87,-12.69 19.25,-12.69 h 49.44 c 43.75,0 70.43,-17.94 70.43,-59.93 0,-45.5 -41.13,-78.312 -107.62,-78.312 -64.75,0 -104.11,29.754 -104.11,68.242 0,21.442 14.87,38.51 28.86,47.25 -3.49,3.94 -7.87,10.07 -7.87,20.13 0,7.87 3.5,16.62 10.06,29.74 l 6.12,11.82 c -18.36,12.24 -28.86,31.49 -28.86,57.3 v 2.63" /><path
         id="path80"
         style="fill:#ffffff;fill-opacity:1;fill-rule:nonzero;stroke:none"
         d="m 7621.22,1165.47 c -14.44,0 -24.06,-5.26 -30.63,-14.88 -6.99,-10.49 -10.06,-26.25 -10.06,-45.05 v -4.82 c 0,-20.56 3.07,-37.63 11.82,-48.12 6.12,-7.87 15.3,-12.25 28.87,-12.25 h 1.75 c 14.44,0 24.06,4.81 30.18,13.13 7.88,10.49 10.5,26.25 10.5,45.92 v 4.82 c 0,19.25 -3.06,35.44 -10.5,46.37 -6.56,9.18 -16.18,14.88 -30.18,14.88 z m 2.19,46.8 c 33.25,0 58.62,-10.05 75.68,-28.87 16.18,-17.93 24.5,-43.3 24.5,-76.56 v -7 c 0,-39.8 -10.5,-68.68 -31.5,-86.18 -16.18,-13.988 -39.37,-21 -68.68,-21 h -2.63 c -28.87,0 -51.62,7.012 -67.8,20.56 -21,17.5 -32.38,45.94 -32.38,84.87 v 7.01 c 0,35.43 9.19,62.99 26.68,80.92 17.07,17.5 41.57,26.25 73.5,26.25 h 2.63" /></g></g></svg>