<?xml version="1.0" encoding="UTF-8" standalone="no"?>
<svg
   xmlns:dc="http://purl.org/dc/elements/1.1/"
   xmlns:cc="http://creativecommons.org/ns#"
   xmlns:rdf="http://www.w3.org/1999/02/22-rdf-syntax-ns#"
   xmlns:svg="http://www.w3.org/2000/svg"
   xmlns="http://www.w3.org/2000/svg"
   viewBox="0 0 177.97066 177.96933"
   height="177.96933"
   width="177.97066"
   xml:space="preserve"
   id="svg2"
   version="1.1"><metadata
     id="metadata8"><rdf:RDF><cc:Work
         rdf:about=""><dc:format>image/svg+xml</dc:format><dc:type
           rdf:resource="http://purl.org/dc/dcmitype/StillImage" /></cc:Work></rdf:RDF></metadata><defs
     id="defs6"><clipPath
       id="clipPath18"
       clipPathUnits="userSpaceOnUse"><path
         id="path16"
         d="M 0,146.269 H 146.44 V 0 H 0 Z" /></clipPath></defs><g
     transform="matrix(1.3333333,0,0,-1.3333333,-7.9251998,185.28093)"
     id="g10"><g
       id="g12"><g
         clip-path="url(#clipPath18)"
         id="g14"><g
           transform="translate(139.4219,72.2217)"
           id="g20"><path
             id="path22"
             style="fill:#f13500;fill-opacity:1;fill-rule:nonzero;stroke:none"
             d="m 0,0 c 0,-36.859 -29.88,-66.738 -66.738,-66.738 -36.86,0 -66.74,29.879 -66.74,66.738 0,36.859 29.88,66.739 66.74,66.739 C -29.88,66.739 0,36.859 0,0" /></g><g
           transform="translate(56.2617,68.6035)"
           id="g24"><path
             id="path26"
             style="fill:#ffffff;fill-opacity:1;fill-rule:evenodd;stroke:none"
             d="M 0,0 2.271,9.92 5.517,0 Z m -12.656,-14.73 h 10.059 l 1.299,7.816 h 9.085 l 2.272,-7.816 h 12.98 L 9.734,22.246 H -4.543 l 1.946,-2.705 z" /></g><g
           transform="translate(122.4766,87.9053)"
           id="g28"><path
             id="path30"
             style="fill:#ffffff;fill-opacity:1;fill-rule:evenodd;stroke:none"
             d="M 0,0 0.388,-0.701 0.361,-8.184 3.776,-8.15 3.534,-7.569 3.526,-2.945 c 0,0 -0.098,0.692 0.673,0.693 0.692,0.002 0.58,-0.713 0.58,-0.713 l -0.021,-5.182 3.263,0.003 -0.245,0.581 -0.015,5.227 c 0,0 0.077,2.184 -2.072,2.315 0,0 -1.591,0.265 -2.53,-0.675 v 0.699 z" /></g><g
           transform="translate(117.9102,84.4858)"
           id="g32"><path
             id="path34"
             style="fill:#ffffff;fill-opacity:1;fill-rule:evenodd;stroke:none"
             d="M 0,0 C 0,0 0.057,2.45 1.169,1.6 2.227,0.438 0,0 0,0 M 4.453,-3.095 3.479,-2.037 C 2.813,-2.76 1.978,-2.707 1.978,-2.707 0.474,-2.63 0.417,-1.572 0.417,-1.572 l 3.842,1.804 c 0,0 -0.14,3.275 -3.118,3.2 0,0 -3.814,0.334 -4.12,-3.923 0,0 -0.25,-3.791 3.98,-4.203 0,0 2.199,-0.18 3.452,1.599" /></g><g
           transform="translate(92.4668,55.8975)"
           id="g36"><path
             id="path38"
             style="fill:#ffffff;fill-opacity:1;fill-rule:evenodd;stroke:none"
             d="m 0,0 -1.215,2.629 c 0,0 -1.055,-1.353 -3.405,-0.978 -2.352,0.377 -2.998,2.404 -2.998,4.432 0,0 -0.325,4.955 3.403,4.505 0,0 1.541,0.376 3.081,-1.502 v 4.657 c 0,0 -9.242,2.703 -12.322,-6.609 0,0 -2.107,-8.56 6.323,-9.161 0,0 3.892,-0.675 7.133,2.027" /></g><g
           transform="translate(106.4902,55.8975)"
           id="g40"><path
             id="path42"
             style="fill:#ffffff;fill-opacity:1;fill-rule:evenodd;stroke:none"
             d="m 0,0 -1.217,2.629 c 0,0 -1.053,-1.353 -3.403,-0.978 -2.351,0.377 -3,2.404 -3,4.432 0,0 -0.323,4.955 3.404,4.505 0,0 1.541,0.376 3.08,-1.502 v 4.657 c 0,0 -9.241,2.703 -12.32,-6.609 0,0 -2.107,-8.56 6.323,-9.161 0,0 3.89,-0.675 7.133,2.027" /></g><g
           transform="translate(122.9561,66.7432)"
           id="g44"><path
             id="path46"
             style="fill:#ffffff;fill-opacity:1;fill-rule:evenodd;stroke:none"
             d="m 0,0 v 0 c 0.969,0 1.754,-1.154 1.754,-2.58 v -4.2 c 0,-1.424 -0.785,-2.579 -1.754,-2.579 -0.969,0 -1.755,1.155 -1.755,2.579 v 4.2 C -1.755,-1.154 -0.969,0 0,0 m -7.736,-4.767 c 0,4.522 3.521,8.186 7.862,8.186 4.344,0 7.863,-3.664 7.863,-8.186 0,-4.518 -3.519,-8.183 -7.863,-8.183 -4.341,0 -7.862,3.665 -7.862,8.183 m 9.241,9.954 -3.039,-0.976 -1.298,1.5 2.351,2.254 c 0,0 1.905,2.327 3.324,0.376 0,0 2.269,-2.328 -1.338,-3.154" /></g><g
           transform="translate(107.2373,74.333)"
           id="g48"><path
             id="path50"
             style="fill:#ffffff;fill-opacity:1;fill-rule:evenodd;stroke:none"
             d="m 0,0 c 0,1.791 1.565,3.242 3.499,3.242 1.934,0 3.5,-1.451 3.5,-3.242 0,-1.792 -1.566,-3.243 -3.5,-3.243 C 1.565,-3.243 0,-1.792 0,0 m 0.135,-20.464 0.567,1.277 V -5.446 L 0.055,-4.243 H 6.944 L 6.296,-5.446 v -13.741 l 0.567,-1.277 z" /></g><g
           transform="translate(95.1709,90.5303)"
           id="g52"><path
             id="path54"
             style="fill:#ffffff;fill-opacity:1;fill-rule:evenodd;stroke:none"
             d="m 0,0 c 0,0 -5.907,1.615 -6.433,-5.715 0,0 -0.128,-5.276 3.74,-5.119 0,0 1.135,-0.368 2.84,0.58 l 0.229,-0.662 h 4.812 l -0.459,0.852 V 4.071 H 0 Z m 0.036,-1.933 c 0,0 -1.855,-0.345 -1.986,-3.934 0,0 -0.004,-3.235 1.968,-1.701 z m -7.04,-8.983 -0.528,0.913 -0.004,10.15 h -4.59 l 0.327,-0.792 V -6.94 c 0,0 0.132,-0.942 -0.919,-0.942 -0.939,0 -0.787,0.973 -0.787,0.973 v 7.056 h -4.4 l 0.329,-0.792 0.01,-7.116 c 0,0 -0.108,-2.972 2.813,-3.155 0,0 2.167,-0.365 3.447,0.913 v -0.913 z m 22.534,6.63 0.009,-5.717 0.524,-0.913 h -4.336 l -0.286,0.609 c -1.306,-0.79 -2.402,-0.609 -2.402,-0.609 -3.743,-0.061 -3.349,2.676 -3.349,2.676 0.526,5.049 5.695,4.621 5.695,4.621 0,0.244 -0.114,0.732 -0.114,0.732 -1.312,1.765 -4.53,-0.06 -4.53,-0.06 v 3.162 c 0,0 5.778,0.548 7.09,-0.79 0,0 1.473,-0.309 1.699,-3.711 m -4.128,-0.985 c 0,0 -1.51,-0.244 -1.51,-1.765 0,-1.52 1.519,-0.669 1.519,-0.669 z m -27.711,-7.889 c 1.111,-0.485 2.571,-0.166 2.571,-0.166 l -0.36,-4.55 c 0,0 -2.594,-0.584 -4.904,0.919 -2.036,1.324 -3.58,6.588 -3.58,6.588 l -3.794,10.548 6.309,0.013 c 0,0 -0.24,-3.866 0.31,-6.24 0.692,-3.004 1.882,-6.428 3.448,-7.112" /></g><g
           transform="translate(40.374,72.0605)"
           id="g56"><path
             id="path58"
             style="fill:#ffffff;fill-opacity:1;fill-rule:nonzero;stroke:none"
             d="m 0,0 c -1.751,1.163 -5.344,5.255 -7.166,3.972 -5.047,-3.557 -0.651,-11.153 4.613,-11.198 1.935,-0.015 2.211,0.623 2.124,1.285 -0.186,1.386 -2.029,3.537 -2.95,4.71 -0.188,0.24 -0.8,0.956 -0.8,1.334 0.003,0.947 1.528,0.007 2.685,-0.677 10.399,-6.145 -8.779,-14.072 -9.159,-1.37 C -11.077,12.165 6.024,3.893 2.065,-0.226 1.497,-0.817 0.685,-0.454 0,0 M 2.32,4.653 C 2.056,4.365 1.583,4.195 1.624,4.87 1.66,5.486 2.479,7.162 2.712,7.816 c 0.47,1.317 2.099,6.05 3.243,6.632 0.5,0.255 0.601,-0.358 0.56,-0.697 C 6.257,11.642 3.604,6.042 2.32,4.653 m -4.012,2.15 c -0.529,1.64 0.021,6.201 0.362,7.757 0.304,1.381 0.066,2.598 0.951,3.591 0.592,0.664 0.833,-0.09 0.726,-0.529 L 0.045,14.169 C -0.044,13.511 -0.077,11.798 -0.163,10.172 -0.192,9.594 -0.277,6.988 -0.783,6.474 -1.265,5.984 -1.602,6.519 -1.692,6.803 M -5.7,7.358 c -0.327,0.149 -0.601,0.667 -0.669,1.005 l -0.618,2.993 c -0.233,1.132 -1.462,7.503 -0.453,8.546 0.552,0.572 1.101,-0.55 1.141,-0.978 l 0.385,-3.493 c 0.14,-1.039 1.652,-7.009 0.747,-7.97 C -5.327,7.29 -5.535,7.284 -5.7,7.358 M -9.505,5.602 c -1.016,0.47 -3.527,5.377 -3.829,6.02 -1.035,2.196 -1.888,4.741 -0.826,5.849 0.545,0.571 1.13,-0.497 1.248,-0.913 l 1.18,-4.374 C -11.388,11.333 -10.241,9.878 -9.71,9.07 -9.365,8.544 -7.918,6.523 -8.631,5.78 -8.908,5.488 -9.236,5.477 -9.505,5.602 m -2.754,-8.585 c -0.624,0.289 -1.404,1.413 -1.767,1.866 l -0.355,0.454 c -1.019,1.193 -2.565,2.32 -2.78,3.592 -0.127,0.758 0.548,1.176 1.308,0.905 1.091,-0.388 5.081,-4.768 4.7,-6.374 -0.154,-0.64 -0.547,-0.7 -1.106,-0.443" /></g><g
           transform="translate(45.6445,88.6631)"
           id="g60"><path
             id="path62"
             style="fill:#ffffff;fill-opacity:1;fill-rule:evenodd;stroke:none"
             d="m 0,0 c -4.853,5.427 -10.174,7.568 -15.329,7.035 -5.154,-0.534 -11.148,-5.092 -12.06,-12.638 -0.524,-4.33 0.366,-9.532 2.939,-14.172 1.913,-3.446 4.645,-6.591 8.981,-8.853 1.3,-0.679 0.863,0.233 0.863,0.233 l -0.195,1.336 c 0,0 -0.137,0.723 0.834,-0.079 0.971,-0.8 2.228,-1.505 3.284,-2.654 0.213,-0.231 0.937,-1.005 0.937,-1.005 0,0 3.486,-1.844 4.892,-2.709 0.604,-0.372 0.92,-0.923 0.772,-1.119 -0.156,-0.211 -0.964,-0.234 -1.356,-0.117 -0.688,0.201 -5.298,-0.165 -6.079,-0.264 -1.058,-0.132 -4.079,-0.957 -4.079,-0.957 0,0 -1.097,-0.293 -0.478,0.894 0.143,0.278 0.404,1.24 0.277,1.798 -0.136,0.602 -0.662,0.792 -0.662,0.792 0,0 -0.661,0.223 -1.642,0.867 -1.503,0.984 -3.811,2.816 -6.108,5.255 -1.899,2.017 -3.651,4.581 -5.066,7.492 -1.342,2.766 -2.025,6.941 -1.789,10.579 0.143,2.25 0.668,4.393 1.27,5.859 1.179,2.873 2.642,5.549 5.425,7.661 2.83,2.239 6.514,3.414 9.728,3.16 6.04,-0.48 8.908,-2.545 11.045,-4.391 0.746,-0.646 1.457,-1.396 2.16,-2.012 1.31,-1.149 2.295,-2.104 2.548,-2.466 C 1.502,-1.032 1.969,-2.333 0,0" /></g><g
           transform="translate(68.8232,94.5781)"
           id="g64"><path
             id="path66"
             style="fill:#ffffff;fill-opacity:1;fill-rule:evenodd;stroke:none"
             d="M 0,0 C 0,1.353 1.183,2.448 2.641,2.448 4.102,2.448 5.284,1.353 5.284,0 5.284,-1.353 4.102,-2.448 2.641,-2.448 1.183,-2.448 0,-1.353 0,0" /></g></g></g></g></svg>