<?xml version="1.0" encoding="utf-8"?>
<!-- Generator: Adobe Illustrator 21.0.2, SVG Export Plug-In . SVG Version: 6.00 Build 0)  -->
<svg version="1.1" xmlns="http://www.w3.org/2000/svg" xmlns:xlink="http://www.w3.org/1999/xlink" x="0px" y="0px"
	 viewBox="0 0 425.2 425.2" style="enable-background:new 0 0 425.2 425.2;" xml:space="preserve">
<style type="text/css">
	.st0{fill:#009036;}
	.st1{fill-rule:evenodd;clip-rule:evenodd;fill:#FFFFFF;}
	.st2{fill:#8599A8;stroke:#8599A8;stroke-width:2.2006;stroke-miterlimit:3.8637;}
	.st3{fill-rule:evenodd;clip-rule:evenodd;fill:#F91270;}
	.st4{fill-rule:evenodd;clip-rule:evenodd;fill:#8599A8;stroke:#8599A8;}
	.st5{fill-rule:evenodd;clip-rule:evenodd;fill:#8599A8;}
	.st6{fill:#8599A8;}
</style>
<symbol  id="Bush_Left" viewBox="-43.3 -24.3 86.6 48.6">
	<g>
		<g>
			<path class="st0" d="M-33.9-3.5C-25.6,5.4-20.7,18-20.7,18C-24.1,7.5-28.2,2.3-34.9-6.2L-33.9-3.5z"/>
			<path class="st0" d="M-30.5,3.2c0.3,2.3,2.4,11.4,2.4,11.4L-30.3,9c-0.5-2.9,0.8-5.6,0.4-8L-30.5,3.2z"/>
			<path class="st0" d="M-27.7,8.6c0.3,2.3,1.7,9.8,1.7,9.8l-0.5-3.8c0-2.4-0.2-5.7-0.5-8.1L-27.7,8.6z"/>
			<path class="st0" d="M-24.2,13.4c0.2,1.4,3.1,6.6,3.1,6.6l-2.2-2.9c0-1.5-0.2-3.5-0.4-5L-24.2,13.4z"/>
			<path class="st0" d="M-21.2,18.1c0.6,1.2,2.8,6.2,2.8,6.2l-1.3-3.5c-0.3-1.3-1-3-1.6-4.3L-21.2,18.1z"/>
			<path class="st0" d="M-26,10.3c0.3,2.3,1.7,9.8,1.7,9.8l-1.2-4.8c0-2.4,0.4-4.7,0.1-7.1L-26,10.3z"/>
			<path class="st0" d="M-24.5,3.5c1.4,0.9,6.5,3.4,6.5,3.4l-3.3-2.2c-1.8-1.2-5.3-0.6-6.8-1.5L-24.5,3.5z"/>
			<path class="st0" d="M-21.9,6.9c1.9,1.3,6.1,5.1,6.1,5.1l-3.2-2.1c-2.2-1.1-5.1-2.7-7.1-4L-21.9,6.9z"/>
			<path class="st0" d="M-21.8,13.1c1,0.9,3.9,6.2,3.9,6.2l-1.3-3.4c-1.2-0.8-2.8-2-3.9-3L-21.8,13.1z"/>
			<path class="st0" d="M-23.3,9.5c1.6,1,6,5.9,6,5.9l-2.6-3.9c-1.8-0.9-3.5-1.2-5.1-2.2L-23.3,9.5z"/>
			<path class="st0" d="M-33,0.4c0.3,2.3,1.6,12.7,1.6,12.7l-1.4-6.9c-0.5-2.9,0.8-5.6,0.4-8L-33,0.4z"/>
			<path class="st0" d="M-35-1.3c0.3,2.3,1.6,12.7,1.6,12.7l-1.4-6.9c-0.5-2.9,0.8-5.6,0.4-8L-35-1.3z"/>
			<path class="st0" d="M-29.4-0.6c1.5,0.6,10.2,4.3,10.2,4.3L-24,0.6c-1.9-0.8-5.4-0.5-7-1.1L-29.4-0.6z"/>
			<path class="st0" d="M-30-3.3c1.7,0.7,9.7,4.1,9.7,4.1L-25.4-2C-27.5-3-30-2.2-31.8-3L-30-3.3z"/>
		</g>
		<g>
			<path class="st0" d="M-41.1-9.8c17.3-2.8,35.8-10.6,35.8-10.6c-13.5,6.7-22.8,8.7-38,12.1L-41.1-9.8z"/>
			<path class="st0" d="M-29.9-13.6c2.4-1.7,13.1-8,13.1-8l-7.5,3.4c-3.2,2.1-4.2,4.9-6.8,6.7L-29.9-13.6z"/>
			<path class="st0" d="M-21.8-16.4c2.4-1.7,10.9-7,10.9-7l-4.1,2.8c-2.2,2-5.5,4.5-8,6.3L-21.8-16.4z"/>
			<path class="st0" d="M-13.5-18.5c1.5-1,9.4-3.7,9.4-3.7L-9.2-21c-1.4,1.2-3.4,2.8-5,3.8L-13.5-18.5z"/>
			<path class="st0" d="M-5.9-20.7c1.7-0.6,8.8-3.6,8.8-3.6l-4.6,2.2c-1.5,0.9-3.8,1.9-5.7,2.6L-5.9-20.7z"/>
			<path class="st0" d="M-18.4-17c2.4-1.7,10.9-7,10.9-7l-5.7,3.3c-2.2,2-3.8,4-6.4,5.8L-18.4-17z"/>
			<path class="st0" d="M-22.9-10.7c2.4,0,10.3,0.7,10.3,0.7l-5.7,0c-3,0-6.5-2.3-9-2.3L-22.9-10.7z"/>
			<path class="st0" d="M-16.9-12c3.3,0,11.4-0.9,11.4-0.9l-5.5,0.1c-3.4-0.3-8.1-0.5-11.5-0.4L-16.9-12z"/>
			<path class="st0" d="M-11.2-17c2-0.2,9.9-3,9.9-3l-4.5,2.1c-2.1,0-5,0.2-7.1,0.4L-11.2-17z"/>
			<path class="st0" d="M-16.1-14.9c2.7,0,12-1.6,12-1.6l-6.5,1.8c-2.8-0.3-4.9-0.9-7.7-0.9L-16.1-14.9z"/>
			<path class="st0" d="M-35.2-12.6c2.4-1.7,13.4-9.5,13.4-9.5l-7.8,4.8c-3.2,2.1-4.2,4.9-6.8,6.7L-35.2-12.6z"/>
			<path class="st0" d="M-38.9-12.3c2.4-1.7,13.4-9.5,13.4-9.5l-7.8,4.8c-3.2,2.1-4.2,4.9-6.8,6.7L-38.9-12.3z"/>
			<path class="st0" d="M-32-10c2.3,0.3,15.2,1.9,15.2,1.9l-8.2,0c-2.9-0.3-6.4-2.5-8.8-2.8L-32-10z"/>
			<path class="st0" d="M-35.2-8c2.6,0.3,14.5,1.8,14.5,1.8l-8.2-0.5C-32.2-7-34.2-8.9-37-9.2L-35.2-8z"/>
		</g>
		<g>
			<path class="st0" d="M-20-4.8c13.5-2,27.7-7.1,27.7-7.1C-2.8-7.2-10-5.7-21.9-3.3L-20-4.8z"/>
			<path class="st0" d="M-11.4-7c1.9-1.2,10.2-5.6,10.2-5.6L-7-10.3c-2.5,1.5-3.3,3.4-5.3,4.7L-11.4-7z"/>
			<path class="st0" d="M-5.1-9c1.9-1.2,8.5-5,8.5-5l-3.2,2C-1.5-10.7-4.1-8.9-6-7.6L-5.1-9z"/>
			<path class="st0" d="M1.3-10.5c1.2-0.7,7.3-2.6,7.3-2.6l-4,0.9c-1.1,0.8-2.6,1.9-3.9,2.7L1.3-10.5z"/>
			<path class="st0" d="M7.3-12.1c1.4-0.4,6.8-2.5,6.8-2.5l-3.6,1.5c-1.2,0.6-3,1.4-4.4,1.8L7.3-12.1z"/>
			<path class="st0" d="M-2.5-9.5c1.9-1.2,8.5-5,8.5-5l-4.4,2.3c-1.7,1.4-3,2.8-5,4.1L-2.5-9.5z"/>
			<path class="st0" d="M-6-5c1.8,0,8,0.5,8,0.5l-4.5,0c-2.4,0-5-1.6-7-1.7L-6-5z"/>
			<path class="st0" d="M-1.3-5.9c2.5,0,8.9-0.6,8.9-0.6l-4.3,0c-2.7-0.2-6.3-0.3-9-0.3L-1.3-5.9z"/>
			<path class="st0" d="M3.1-9.5c1.6-0.1,7.7-2.1,7.7-2.1l-3.5,1.5c-1.7,0-3.9,0.1-5.6,0.3L3.1-9.5z"/>
			<path class="st0" d="M-0.7-7.9c2.1,0,9.3-1.1,9.3-1.1l-5,1.2C1.4-8-0.2-8.5-2.4-8.5L-0.7-7.9z"/>
			<path class="st0" d="M-15.5-6.3C-13.7-7.5-5.1-13-5.1-13l-6.1,3.4c-2.5,1.5-3.3,3.4-5.3,4.7L-15.5-6.3z"/>
			<path class="st0" d="M-18.4-6.2C-16.6-7.3-8-12.8-8-12.8l-6.1,3.4c-2.5,1.5-3.3,3.4-5.3,4.7L-18.4-6.2z"/>
			<path class="st0" d="M-13.1-4.5c1.8,0.2,11.9,1.3,11.9,1.3l-6.4,0c-2.3-0.2-5-1.7-6.8-2L-13.1-4.5z"/>
			<path class="st0" d="M-15.6-3.1c2,0.2,11.3,1.3,11.3,1.3l-6.4-0.3C-13.3-2.4-14.8-3.7-17-4L-15.6-3.1z"/>
		</g>
		<g>
			<path class="st0" d="M1.7-2.1c12.2-1.7,25.1-6.1,25.1-6.1C17.3-4.1,10.7-2.8,0-0.8L1.7-2.1z"/>
			<path class="st0" d="M9.5-4c1.7-1,9.2-4.8,9.2-4.8l-5.3,2.1c-2.2,1.3-3,3-4.8,4L9.5-4z"/>
			<path class="st0" d="M15.2-5.7c1.7-1,7.7-4.3,7.7-4.3L20-8.3c-1.6,1.2-3.9,2.7-5.7,3.8L15.2-5.7z"/>
			<path class="st0" d="M21-7c1.1-0.6,6.7-2.3,6.7-2.3L24-8.5c-1,0.7-2.4,1.7-3.5,2.3L21-7z"/>
			<path class="st0" d="M26.4-8.3c1.2-0.4,6.2-2.2,6.2-2.2l-3.3,1.3c-1.1,0.5-2.7,1.2-4,1.6L26.4-8.3z"/>
			<path class="st0" d="M17.6-6.1c1.7-1,7.7-4.3,7.7-4.3l-4,2c-1.6,1.2-2.7,2.4-4.5,3.5L17.6-6.1z"/>
			<path class="st0" d="M14.3-2.2c1.7,0,7.3,0.4,7.3,0.4l-4,0c-2.1,0-4.6-1.4-6.3-1.4L14.3-2.2z"/>
			<path class="st0" d="M18.6-3c2.3,0,8.1-0.5,8.1-0.5l-3.9,0c-2.4-0.2-5.7-0.3-8.1-0.3L18.6-3z"/>
			<path class="st0" d="M22.6-6.1c1.4-0.1,7-1.8,7-1.8l-3.2,1.3c-1.5,0-3.5,0.1-5,0.2L22.6-6.1z"/>
			<path class="st0" d="M19.2-4.8c1.9,0,8.4-1,8.4-1l-4.6,1.1c-2-0.2-3.5-0.5-5.5-0.5L19.2-4.8z"/>
			<path class="st0" d="M5.7-3.4c1.7-1,9.5-5.7,9.5-5.7L9.7-6.2c-2.2,1.3-3,3-4.8,4L5.7-3.4z"/>
			<path class="st0" d="M3.1-3.2c1.7-1,9.5-5.7,9.5-5.7L7-6c-2.2,1.3-3,3-4.8,4L3.1-3.2z"/>
			<path class="st0" d="M7.9-1.8c1.6,0.2,10.7,1.1,10.7,1.1l-5.8,0c-2.1-0.2-4.5-1.5-6.2-1.7L7.9-1.8z"/>
			<path class="st0" d="M5.7-0.6C7.5-0.4,16,0.5,16,0.5l-5.8-0.3C7.8,0,6.4-1.2,4.4-1.4L5.7-0.6z"/>
		</g>
		<g>
			<path class="st0" d="M14,2.8c11.1-1.5,22.7-5.2,22.7-5.2c-8.6,3.5-14.5,4.6-24.3,6.3L14,2.8z"/>
			<path class="st0" d="M21.1,1.2C22.6,0.3,29.4-3,29.4-3l-4.8,1.8c-2,1.1-2.7,2.6-4.3,3.5L21.1,1.2z"/>
			<path class="st0" d="M26.2-0.3c1.5-0.9,7-3.7,7-3.7l-2.6,1.5c-1.4,1-3.5,2.4-5.1,3.3L26.2-0.3z"/>
			<path class="st0" d="M31.5-1.4c1-0.5,6-2,6-2l-3.3,0.6c-0.9,0.6-2.2,1.4-3.2,2L31.5-1.4z"/>
			<path class="st0" d="M36.4-2.5C37.5-2.9,42-4.4,42-4.4l-3,1.1c-1,0.5-2.4,1-3.6,1.4L36.4-2.5z"/>
			<path class="st0" d="M28.4-0.6c1.5-0.9,7-3.7,7-3.7l-3.6,1.7c-1.4,1-2.4,2.1-4.1,3L28.4-0.6z"/>
			<path class="st0" d="M25.5,2.7C27,2.7,32.1,3,32.1,3l-3.7,0c-1.9,0-4.1-1.2-5.7-1.2L25.5,2.7z"/>
			<path class="st0" d="M29.4,2c2.1,0,7.3-0.5,7.3-0.5l-3.5,0C31,1.4,28,1.3,25.8,1.3L29.4,2z"/>
			<path class="st0" d="M33-0.6c1.3-0.1,6.3-1.5,6.3-1.5l-2.9,1.1c-1.4,0-3.2,0.1-4.6,0.2L33-0.6z"/>
			<path class="st0" d="M29.9,0.5c1.7,0,7.6-0.8,7.6-0.8l-4.1,0.9c-1.8-0.1-3.1-0.5-4.9-0.5L29.9,0.5z"/>
			<path class="st0" d="M17.7,1.7c1.5-0.9,8.6-4.9,8.6-4.9l-5,2.5c-2,1.1-2.7,2.6-4.3,3.5L17.7,1.7z"/>
			<path class="st0" d="M15.3,1.8c1.5-0.9,8.6-4.9,8.6-4.9l-5,2.5c-2,1.1-2.7,2.5-4.3,3.5L15.3,1.8z"/>
			<path class="st0" d="M19.7,3.1c1.5,0.2,9.7,1,9.7,1l-5.2,0c-1.9-0.2-4.1-1.3-5.6-1.5L19.7,3.1z"/>
			<path class="st0" d="M17.7,4.1C19.3,4.2,26.9,5,26.9,5l-5.2-0.2c-2.2-0.2-3.4-1.1-5.2-1.3L17.7,4.1z"/>
		</g>
		<g>
			<path class="st0" d="M-16.8,0.1c7.6,6.3,13.9,16,13.9,16C-7,8-10.9,4.2-17.2-2L-16.8,0.1z"/>
			<path class="st0" d="M-12.5,5.1c0.5,1.8,3.3,9.1,3.3,9.1l-2.4-4.3c-0.7-2.3-0.1-4.6-0.7-6.6L-12.5,5.1z"/>
			<path class="st0" d="M-9.6,9.2C-9.1,11-7,17.1-7,17.1l-0.9-3c-0.3-2-0.9-4.7-1.5-6.6L-9.6,9.2z"/>
			<path class="st0" d="M-6.3,12.7c0.3,1.1,3.2,5,3.2,5l-2.1-2.1c-0.2-1.2-0.6-2.8-0.9-4L-6.3,12.7z"/>
			<path class="st0" d="M-3.3,16.2c0.6,0.9,3,4.8,3,4.8l-1.5-2.7c-0.4-1-1.1-2.4-1.8-3.3L-3.3,16.2z"/>
			<path class="st0" d="M-8.1,10.5c0.5,1.8,2.6,7.8,2.6,7.8L-7,14.5c-0.3-2-0.3-3.9-0.8-5.8L-8.1,10.5z"/>
			<path class="st0" d="M-7.8,4.7c1.2,0.5,5.5,2,5.5,2l-2.9-1.4c-1.5-0.7-4.2,0.1-5.5-0.4L-7.8,4.7z"/>
			<path class="st0" d="M-5.3,7.1c1.6,0.8,5.4,3.4,5.4,3.4l-2.7-1.4c-1.8-0.6-4.3-1.6-6-2.4L-5.3,7.1z"/>
			<path class="st0" d="M-4.5,12.2c0.9,0.6,3.8,4.6,3.8,4.6l-1.4-2.7c-1.1-0.5-2.5-1.3-3.5-2L-4.5,12.2z"/>
			<path class="st0" d="M-6.1,9.4c1.4,0.6,5.4,4.1,5.4,4.1l-2.6-2.9c-1.5-0.5-2.9-0.5-4.3-1.2L-6.1,9.4z"/>
			<path class="st0" d="M-14.8,3.2c0.5,1.8,2.9,10.2,2.9,10.2l-2-5.5c-0.7-2.3-0.1-4.6-0.7-6.6L-14.8,3.2z"/>
			<path class="st0" d="M-16.6,2.1c0.5,1.8,2.9,10.2,2.9,10.2l-2-5.5c-0.7-2.3-0.1-4.6-0.7-6.6L-16.6,2.1z"/>
			<path class="st0" d="M-12.2,2c1.3,0.3,8.5,2.3,8.5,2.3l-4.2-2c-1.6-0.4-4.2,0.3-5.6,0L-12.2,2z"/>
			<path class="st0" d="M-13-0.2c1.4,0.4,8.1,2.2,8.1,2.2l-4.3-1.6c-1.8-0.6-3.6,0.3-5.2-0.1L-13-0.2z"/>
		</g>
		<g>
			<path class="st0" d="M-1.7,1.4c5,5.2,8.9,13,8.9,13c-2.4-6.5-4.9-9.6-9-14.6L-1.7,1.4z"/>
			<path class="st0" d="M1,5.4c0.3,1.4,1.8,7.1,1.8,7.1L1.4,9.1C1,7.3,1.6,5.6,1.3,4.1L1,5.4z"/>
			<path class="st0" d="M2.8,8.7c0.3,1.4,1.3,6.1,1.3,6.1l-0.4-2.4c-0.1-1.5-0.3-3.6-0.6-5.1L2.8,8.7z"/>
			<path class="st0" d="M4.9,11.6c0.2,0.9,2,4,2,4l-1.3-1.8c-0.1-0.9-0.2-2.2-0.4-3.1L4.9,11.6z"/>
			<path class="st0" d="M6.8,14.4c0.4,0.7,1.8,3.8,1.8,3.8l-0.9-2.2c-0.2-0.8-0.7-1.9-1.1-2.6L6.8,14.4z"/>
			<path class="st0" d="M3.8,9.8c0.3,1.4,1.3,6.1,1.3,6.1l-0.8-3c-0.1-1.5,0.1-3-0.2-4.5L3.8,9.8z"/>
			<path class="st0" d="M4.4,5.4c0.8,0.5,3.8,1.8,3.8,1.8L6.2,6c-1-0.7-3-0.2-3.9-0.7L4.4,5.4z"/>
			<path class="st0" d="M6,7.4c1.1,0.7,3.6,2.9,3.6,2.9L7.8,9.1C6.5,8.5,4.8,7.6,3.7,6.9L6,7.4z"/>
			<path class="st0" d="M6.3,11.3C6.9,11.9,8.7,15,8.7,15l-0.8-2.1c-0.7-0.5-1.7-1.2-2.3-1.7L6.3,11.3z"/>
			<path class="st0" d="M5.3,9.1c0.9,0.6,3.6,3.4,3.6,3.4l-1.6-2.3c-1.1-0.5-2-0.6-3-1.2L5.3,9.1z"/>
			<path class="st0" d="M-0.5,3.8c0.3,1.4,1.4,8,1.4,8l-1-4.3c-0.4-1.8,0.2-3.5-0.1-5L-0.5,3.8z"/>
			<path class="st0" d="M-1.7,2.9c0.3,1.4,1.4,8,1.4,8l-1-4.3c-0.4-1.8,0.2-3.5-0.1-5L-1.7,2.9z"/>
			<path class="st0" d="M1.5,3c0.9,0.3,5.9,2.2,5.9,2.2L4.5,3.5c-1.1-0.4-3,0-4-0.4L1.5,3z"/>
			<path class="st0" d="M1,1.3c1,0.4,5.6,2.1,5.6,2.1L3.7,2C2.4,1.4,1.1,2,0,1.6L1,1.3z"/>
		</g>
		<g>
			<path class="st0" d="M10.4,4.1c5.3,4.5,9.1,10.9,9.1,10.9c-2.2-5.3-4.9-8-9.2-12.2L10.4,4.1z"/>
			<path class="st0" d="M13.2,7.5c0.2,1.1,1.5,5.8,1.5,5.8l-1.4-2.8c-0.3-1.5,0.5-2.8,0.3-4L13.2,7.5z"/>
			<path class="st0" d="M15,10.3c0.2,1.1,1.1,5,1.1,5l-0.3-1.9c0-1.2-0.1-2.9-0.3-4.1L15,10.3z"/>
			<path class="st0" d="M17.3,12.7c0.1,0.7,2,3.3,2,3.3l-1.4-1.5c0-0.8-0.1-1.8-0.2-2.5L17.3,12.7z"/>
			<path class="st0" d="M19.2,15.1c0.4,0.6,1.8,3.2,1.8,3.2l-0.8-1.8c-0.2-0.7-0.6-1.5-1-2.2L19.2,15.1z"/>
			<path class="st0" d="M16.1,11.2c0.2,1.1,1.1,5,1.1,5l-0.7-2.4c0-1.2,0.3-2.4,0.1-3.6L16.1,11.2z"/>
			<path class="st0" d="M17,7.7c0.9,0.4,4.2,1.7,4.2,1.7l-2.2-1.1c-1.1-0.6-3.4-0.3-4.4-0.8L17,7.7z"/>
			<path class="st0" d="M18.8,9.4c1.2,0.6,3.9,2.6,3.9,2.6l-2-1.1c-1.4-0.5-3.2-1.4-4.5-2L18.8,9.4z"/>
			<path class="st0" d="M18.8,12.6c0.7,0.5,2.5,3.1,2.5,3.1l-0.8-1.7c-0.8-0.4-1.8-1-2.5-1.5L18.8,12.6z"/>
			<path class="st0" d="M17.8,10.7c1,0.5,3.8,3,3.8,3l-1.7-2c-1.2-0.4-2.2-0.6-3.3-1.1L17.8,10.7z"/>
			<path class="st0" d="M11.6,6.1c0.2,1.1,1,6.4,1,6.4l-0.9-3.5c-0.3-1.5,0.5-2.8,0.3-4L11.6,6.1z"/>
			<path class="st0" d="M10.3,5.3c0.2,1.1,1,6.4,1,6.4l-0.9-3.5c-0.3-1.5,0.5-2.8,0.3-4L10.3,5.3z"/>
			<path class="st0" d="M13.9,5.7c1,0.3,6.5,2.2,6.5,2.2l-3.1-1.6c-1.3-0.4-3.4-0.2-4.5-0.6L13.9,5.7z"/>
			<path class="st0" d="M13.5,4.3c1.1,0.4,6.2,2.1,6.2,2.1L16.5,5c-1.4-0.5-3-0.1-4.1-0.5L13.5,4.3z"/>
		</g>
		<g>
			<path class="st0" d="M22.4,7.2c9.3,2,17.5,6.5,17.5,6.5C34.3,9.7,29.5,8.3,21.7,6L22.4,7.2z"/>
			<path class="st0" d="M27.8,9.3c0.8,1,4.9,4.8,4.9,4.8L29.4,12c-1.1-1.2-0.7-2.8-1.6-3.9L27.8,9.3z"/>
			<path class="st0" d="M31.5,11.1c0.8,1,3.9,4.2,3.9,4.2L34,13.6c-0.6-1.2-1.6-2.7-2.5-3.7L31.5,11.1z"/>
			<path class="st0" d="M35.7,12.5c0.5,0.6,4.2,2.3,4.2,2.3L37.3,14c-0.4-0.7-1-1.6-1.6-2.3L35.7,12.5z"/>
			<path class="st0" d="M39.4,13.9c0.8,0.4,3.9,2.2,3.9,2.2l-2-1.3c-0.6-0.5-1.6-1.2-2.4-1.6L39.4,13.9z"/>
			<path class="st0" d="M33.3,11.5c0.8,1,3.9,4.2,3.9,4.2l-2.2-2c-0.6-1.2-0.8-2.3-1.7-3.4L33.3,11.5z"/>
			<path class="st0" d="M32.9,7.9c1.4,0,6.4-0.1,6.4-0.1l-3.4-0.2c-1.8-0.1-4.7,1.1-6.2,1.1L32.9,7.9z"/>
			<path class="st0" d="M36,8.8c1.9,0.1,6.5,0.8,6.5,0.8l-3.2-0.2c-2.1,0.1-5,0-7-0.1L36,8.8z"/>
			<path class="st0" d="M37.6,11.7c1.1,0.2,4.8,1.9,4.8,1.9l-1.9-1.3c-1.3-0.1-2.9-0.2-4.1-0.4L37.6,11.7z"/>
			<path class="st0" d="M35.5,10.4c1.6,0.1,6.5,1.2,6.5,1.2l-3.2-1.1c-1.8,0.1-3.2,0.4-4.9,0.3L35.5,10.4z"/>
			<path class="st0" d="M25,8.6c0.8,1,4.5,5.6,4.5,5.6l-2.9-2.9c-1.1-1.2-0.7-2.8-1.6-3.9L25,8.6z"/>
			<path class="st0" d="M22.9,8.3c0.8,1,4.5,5.6,4.5,5.6l-2.9-2.9c-1.1-1.2-0.7-2.8-1.6-3.9L22.9,8.3z"/>
			<path class="st0" d="M27.8,7.2c1.5-0.1,9.7-0.6,9.7-0.6l-4.9-0.2c-1.9,0.1-4.7,1.2-6.2,1.3L27.8,7.2z"/>
			<path class="st0" d="M26.6,6.1c1.6-0.1,9.3-0.6,9.3-0.6l-5,0c-2.1,0.1-4,1.1-5.7,1.2L26.6,6.1z"/>
		</g>
	</g>
</symbol>
<g id="Capa_1">
</g>
<g id="Fondo">
</g>
<g id="Primer_plano">
	<path class="st1" d="M160.8,50.4"/>
	<g>
		<g>
			<path class="st2" d="M163.7,182.6c0,0,16.6,13.5,20.1,39c0.3,1.2,0.4,2,0.4,2c0.4,0.5,1,5.3,2.9,10.6c0-4.2,1.2-8.5,3.8-12.2
				c0.4-0.6,0.9-1.2,1.4-1.8c-3.5-3.6-4-9.4-1-13.7c3.4-4.9,10.2-6.1,15-2.7c3.1,2.2,4.8,5.8,4.6,9.3c3.2,0.4,6.4,1.6,9.2,3.6
				c2.5,1.7,4.5,3.9,5.9,6.4c3.5-1.8,7.8-1.7,11.3,0.7c4.9,3.4,6.1,10.2,2.7,15c-2.9,4.2-8.3,5.7-12.8,3.8c-0.5,1.1-1.1,2.2-1.9,3.3
				c-4.1,5.8-10.5,8.9-17.1,8.9c0.3,0.3,0.6,0.6,0.7,0.8c0.7,1,3.2,7,4.4,9.8c0.9,1.6,1.8,3.3,2.8,5.3c3.8,7.5,8.5,29,8.5,29l3.7,7
				c2.2,4.2,3.4,6.5,0.6,11.1c-2.8,4.7-6.6,3.8-10.3,3.5c-3.7-0.3-6.9-6.7-6.9-6.7l-0.8-2.4c-3-8.2-4.1-12.4-3.6-14.3
				s-4-12-5.1-13.1c-0.2-0.2-1.2-0.8-2.7-1.8c-1.8,0.3-4.9,0.9-4.9,2c0,1.6,4,11.9,5.7,12.9c1.7,1,3.9,4.7,7.6,12.6l1.2,2.3
				c0,0,2.3,6.8-0.1,9.6c-2.4,2.8-4.5,6.1-9.8,4.8c-5.3-1.3-6.1-3.7-7.5-8.3l-2.3-7.6c0,0-11.9-18.5-14.5-26.4
				c-1.2-3.6-2-6.5-2.5-9.4c-1.8,9-2,18.3,1.7,25.2c10.1,18.8,10.5,15.2,10.5,15.2s18.1,9.7,10.3,31.7c0,0-36.4,13.7-56.8-1.2
				c0,0-1.2-15.4-0.4-18c0,0,2.4-5.1,2.8-16.8c0.4-11.7-0.4-20.6-0.4-20.6s-5.5,14.3-5.1,19.4c0.4,5.1,0.4,14-2,16.2
				c0,0,2.8,18.2,0.4,21c0,0-37,17.2-57.8,2c0,0-14.1-23.1,11.7-33.2c0,0,2.2-3.2,7.7-15.6c5.5-12.5,14.2-38.5,13.4-41.9
				c-0.8-3.4-7.7-13.5-1.2-41l4.3-13.8c0,0,7-19.4,11.3-22.2c0.9-0.6,2.4-1.1,4.3-1.6c-12.5-5.6-21.3-16.4-22.5-28.8l-0.6,0
				c-8.8,0-15.9-7.1-15.9-15.9c0-8.2,6.2-14.9,14.1-15.8c0-25,20.3-45.3,45.3-45.3c25,0,45.3,20.3,45.3,45.3c0,5.6-1,11-2.9,16
				c4.5,2.8,7.5,7.8,7.5,13.5c0,7.3-4.9,13.4-11.5,15.3c-4.8,8.2-13.2,14.6-23.4,17.8L163.7,182.6z"/>
			<g>
				
					<rect x="193.5" y="259.8" transform="matrix(0.2925 -0.9563 0.9563 0.2925 -110.1116 374.1848)" class="st3" width="8.8" height="3.4"/>
				
					<rect x="196.2" y="257.1" transform="matrix(0.292 -0.9564 0.9564 0.292 -109.9528 374.3462)" class="st3" width="3.4" height="8.8"/>
			</g>
			<g>
				<path class="st4" d="M219.8,165.6H211v3.1h-0.1c-1.1-1.8-3.8-4.1-8.6-4.1c-7.8,0-14.7,6-14.7,15.6c0,8.4,5.4,15.7,14.7,15.7
					c3.4,0,7.1-1.3,8.6-4.2h0.1v3.2h8.8V165.6z"/>
				<rect x="224.1" y="186" class="st4" width="9.1" height="9"/>
				<path class="st4" d="M236,180.2c0,7.2,5.1,15.6,15.8,15.6s15.8-8.4,15.8-15.6c0-7.2-5.1-15.6-15.8-15.6S236,173.1,236,180.2z"/>
				<path class="st4" d="M269.9,194.9h8.8v-16.1c0-4.4,2.9-5.3,6.9-5.4v-8.8c-5.1,0-6.6,2.7-7.3,4.1h-0.1v-3.1h-8.2V194.9z"/>
				<path class="st4" d="M316.9,165.6h-8.8v2.7H308c-1.6-2.5-4.8-3.7-8.1-3.7c-7.6,0-14.8,5.8-14.8,15.8c0,9.4,6.8,15.4,14.8,15.4
					c4.6,0,7.1-2.5,8-4.2h0.1v0.9c0,7.9-6,8-7.1,8c-0.6,0-3.9,0-5.1-2.9h-10.1c0.6,4.2,4.4,10.3,14.6,10.3c7.2,0,12.6-3.2,14.8-6.9
					c1.4-2.5,1.7-5.3,1.7-9.7V165.6z"/>
			</g>
			<g>
				<polygon class="st4" points="219.3,114.8 210.5,114.8 210.5,124.6 206.2,124.6 206.2,131.2 210.5,131.2 210.5,153.9 
					219.3,153.9 219.3,131.2 223.5,131.2 223.5,124.6 219.3,124.6 				"/>
				<path class="st4" d="M243.9,144.7c-1.2,1.5-2.6,2.7-5.3,2.7c-3.4,0-6.3-2.1-6.9-5.5h22c0.1-0.7,0.2-1.2,0.2-2.3
					c0-8.9-6.5-16-15.5-16c-8.9,0-15.4,7.6-15.4,15.7c0,8.7,7.1,15.5,15.5,15.5c3,0,5.9-0.9,8.3-2.6c2.5-1.7,4.5-4.2,6-7.5H243.9z"
					/>
				<path class="st4" d="M256.1,153.9h8.8v-16.1c0-4.4,2.9-5.3,6.9-5.4v-8.8c-5.1,0-6.6,2.7-7.3,4.1h-0.1v-3.1h-8.2V153.9z"/>
				<path class="st4" d="M303.4,124.6h-8.8v3.1h-0.1c-1.1-1.8-3.8-4.1-8.6-4.1c-7.8,0-14.7,6-14.7,15.6c0,8.4,5.4,15.7,14.7,15.7
					c3.4,0,7.1-1.3,8.6-4.2h0.1v3.2h8.8V124.6z"/>
				<path class="st4" d="M308.2,163.6h8.8v-12.4c1.1,1.1,3.5,3.6,8.8,3.6c8.3,0,14.3-6.9,14.3-15.4c0-6.8-3.9-16-14.3-16
					c-4.5,0-7.4,2-9.1,4.2h-0.1h-0.1v-3.2h-8.2V163.6z"/>
				<path class="st4" d="M351.1,124.6h-8.8v29.3h8.8V124.6z"/>
			</g>
			<g>
				<g>
					<path class="st4" d="M205.8,79.1H197v29c0,2.1-0.1,4.4-3.1,4.4h-1.2v6.7h2.2c9.6,0,10.9-4.6,10.9-11.4V79.1z M205.8,66.3H197
						V73h8.8V66.3z"/>
					<path class="st4" d="M237,79.1h-8.8v16.1c0,4.6-2.5,6-5,6c-4.7,0-4.7-3.9-4.7-5.9V79.1h-8.8v17.5c0,4,0.3,6.1,2.6,9
						c2.6,3.3,6.8,3.7,8.6,3.7c2.2,0,5.8-0.3,7.6-4.1h0.1v3.1h8.3V79.1z"/>
					<path class="st4" d="M260,99.2c-1.2,1.5-2.6,2.7-5.3,2.7c-3.4,0-6.3-2.1-6.9-5.5h22c0.1-0.7,0.2-1.2,0.2-2.3
						c0-8.9-6.5-16-15.5-16c-8.9,0-15.4,7.6-15.4,15.7c0,8.7,7.1,15.5,15.5,15.5c3,0,5.9-0.9,8.3-2.6c2.5-1.7,4.5-4.2,6-7.5H260z"/>
					<path class="st4" d="M302.5,79.1h-8.8v2.7h-0.1c-1.6-2.5-4.8-3.7-8.1-3.7c-7.6,0-14.8,5.8-14.8,15.8c0,9.4,6.8,15.4,14.8,15.4
						c4.6,0,7.1-2.5,8-4.2h0.1v0.9c0,7.9-6,8-7.1,8c-0.6,0-3.9,0-5.1-2.9h-10.1c0.6,4.2,4.4,10.3,14.6,10.3c7.2,0,12.6-3.2,14.8-6.9
						c1.4-2.5,1.7-5.3,1.7-9.7V79.1z"/>
				</g>
				<path class="st4" d="M337.6,78.7h-8.8v3.1h-0.1c-1.1-1.8-3.8-4.1-8.6-4.1c-7.8,0-14.7,6-14.7,15.6c0,8.4,5.4,15.7,14.7,15.7
					c3.4,0,7.1-1.3,8.6-4.2h0.1v3.2h8.8V78.7z"/>
			</g>
		</g>
		<g>
			<g>
				<path class="st5" d="M250.2,344.5c0-0.1,0-0.2,0-0.3c0,0,0-0.1,0.1-0.2c0-0.1,0.1-0.2,0.1-0.3c0-0.1,0.1-0.2,0.1-0.2
					c0-0.1,0.1-0.1,0.1-0.1l1.2-1.9c0,0,0.1-0.1,0.2-0.2c0.1-0.1,0.2-0.2,0.2-0.2c0,0,0-0.1,0.1-0.3c0.1-0.2,0.2-0.3,0.2-0.3
					c0.1-0.1,0.2-0.2,0.3-0.4c0.1-0.2,0.2-0.3,0.2-0.3c0.1,0,0.1-0.1,0.2-0.2c0.1-0.1,0.2-0.2,0.3-0.3c0.1-0.1,0.3-0.2,0.4-0.3
					c0.1,0,0.1-0.1,0,0l1.2-0.4c0,0,0.1,0.1,0.2,0.3c0.1,0.1,0.2,0.2,0.2,0.3c0,0,0.1,0.2,0.2,0.3c0.1,0.2,0.2,0.3,0.2,0.3l1,2.7
					c0.1,0.1,0.2,0.2,0.3,0.3c0.1,0.1,0.1,0.1,0.2,0.1c0,0,0.1,0,0.2-0.1c0.1-0.1,0.2-0.2,0.3-0.3c0,0,0-0.1,0.1-0.2
					c0.1-0.1,0.1-0.2,0.2-0.3c0,0,0.1-0.2,0.2-0.4c0.1-0.2,0.3-0.5,0.5-0.8c0.2-0.3,0.3-0.5,0.5-0.8c0.1-0.2,0.2-0.3,0.2-0.3
					c0-0.8,0.2-1.4,0.3-1.7c0.2-0.4,0.3-0.6,0.5-0.6c0.2-0.1,0.4,0,0.6,0.1c0.2,0.1,0.4,0.3,0.6,0.5c0.2,0.2,0.3,0.4,0.5,0.6
					c0.1,0.2,0.2,0.3,0.2,0.3c0,0,0.1,0.1,0.2,0.2c0.1,0.1,0.2,0.2,0.4,0.4c0.1,0.1,0.3,0.2,0.4,0.4c0.1,0.1,0.2,0.2,0.2,0.2
					c0,0,0,0,0,0c0,0,0,0,0,0c0,0,0.1,0.1,0.2,0.1c0.1,0,0.3,0.1,0.4,0.2c0.1,0.1,0.2,0.1,0.3,0.2c0.1,0,0.2,0.1,0.2,0.1
					c0,0,0.1,0.1,0.2,0.1c0.1,0.1,0.2,0.1,0.3,0.2c0.1,0.1,0.2,0.1,0.3,0.2c0.1,0,0.2,0.1,0.2,0.1c0,0,0.1,0.1,0.2,0.1
					c0.1,0.1,0.2,0.1,0.2,0.2c0.1,0.1,0.2,0.1,0.2,0.2c0.1,0,0.1,0.1,0.2,0.1c0,0,0,0.1,0,0.2c0,0.1,0,0.2,0,0.2c0,0,0,0-0.1,0.1
					c0,0.1-0.1,0.1-0.1,0.2c0,0-0.1,0.1-0.2,0.1c-0.1,0-0.1,0.1-0.1,0c0,0-0.1,0.1-0.3,0.1c-0.1,0-0.2,0-0.2,0c-0.3,0-0.6-0.1-1-0.2
					c-0.4-0.1-0.8-0.3-1.2-0.5c-0.4-0.2-0.8-0.4-1.1-0.6c-0.4-0.2-0.6-0.4-0.8-0.6c0,0-0.1,0-0.2,0c-0.1,0-0.1,0-0.1,0
					c0,0-0.1,0.1-0.2,0.3c-0.1,0.1-0.2,0.3-0.3,0.4c-0.1,0.1-0.2,0.3-0.3,0.4c-0.1,0.1-0.1,0.2-0.1,0.3c-0.1,0.2-0.2,0.4-0.4,0.7
					c-0.2,0.3-0.4,0.5-0.6,0.8c-0.2,0.3-0.5,0.5-0.8,0.7c-0.3,0.2-0.5,0.4-0.8,0.5c-0.3,0.1-0.5,0.1-0.8,0.1
					c-0.2-0.1-0.4-0.2-0.6-0.5c-0.3-0.2-0.6-0.4-0.8-0.7c-0.2-0.3-0.4-0.6-0.5-0.9c-0.1-0.3-0.2-0.6-0.3-0.9c0-0.3-0.1-0.4-0.1-0.5
					c0,0-0.1-0.1-0.2-0.1c-0.1-0.1-0.2-0.1-0.3-0.1c-0.1,0-0.1,0-0.1,0.1c-0.3,0.4-0.5,0.8-0.7,1.1c-0.2,0.3-0.3,0.5-0.5,0.7
					c-0.1,0.2-0.2,0.4-0.3,0.6c-0.1,0.1-0.2,0.3-0.3,0.5c0,0-0.1,0.1-0.2,0.2c-0.1,0.1-0.2,0.2-0.4,0.3c-0.1,0.1-0.3,0.2-0.4,0.3
					c-0.1,0.1-0.2,0.1-0.2,0.1c0,0-0.1,0-0.2,0c-0.1,0-0.2,0-0.3,0c-0.1,0-0.2,0-0.2,0c0,0-0.1,0-0.1-0.1c-0.1,0-0.1-0.1-0.2-0.1
					c0-0.1,0-0.2-0.1-0.3C250.3,344.6,250.2,344.5,250.2,344.5z"/>
				<path class="st5" d="M272,343c-0.1,0.6-0.4,1.1-0.7,1.5c-0.3,0.4-0.7,0.7-1.2,0.9c-0.4,0.2-0.9,0.3-1.4,0.3c-0.5,0-1,0-1.5-0.1
					c0,0,0-0.1-0.1-0.1c0,0-0.1-0.1-0.3-0.1c-0.1-0.1-0.2-0.1-0.2-0.1c0,0-0.1-0.1-0.2-0.2c-0.1-0.1-0.2-0.2-0.3-0.3
					c0,0-0.1-0.1-0.2-0.2c-0.1-0.1-0.2-0.2-0.2-0.3c0,0-0.1-0.1-0.2-0.2c-0.1-0.1-0.1-0.1-0.1-0.1c0,0,0-0.1-0.1-0.2
					c0-0.1-0.1-0.2-0.1-0.3c0-0.1-0.1-0.2-0.1-0.3c0-0.1-0.1-0.2-0.1-0.2c0,0,0-0.1,0-0.1c0-0.1,0-0.2,0-0.3c0-0.1,0-0.2,0-0.3
					c0-0.1,0-0.2,0-0.2v-0.2c0,0,0-0.1,0-0.2c0-0.1,0-0.2,0-0.3c0-0.1,0-0.2,0-0.3c0-0.1,0-0.2,0-0.2c0,0,0-0.1,0-0.2
					c0-0.1,0.1-0.2,0.1-0.3c0,0,0-0.1,0.1-0.3c0.1-0.1,0.2-0.3,0.3-0.4c0-0.1,0.1-0.2,0.2-0.3c0.1-0.1,0.2-0.2,0.2-0.2
					c0.1,0,0.2,0,0.3-0.1c0.1-0.1,0.2-0.1,0.4-0.1c0,0,0.1,0,0.2,0c0.1,0,0.2,0,0.3,0c0.1,0,0.2,0,0.3,0c0.1,0,0.2,0,0.2,0
					c0,0,0.1,0,0.2,0c0.1,0,0.2,0,0.4,0h0.4h0.2c0.1,0,0.2,0,0.4,0.1c0.2,0,0.3,0,0.4,0c0.4,0.1,0.7,0.3,1.1,0.6
					c0.4,0.3,0.7,0.6,1,1c0.3,0.4,0.5,0.8,0.6,1.2c0.1,0.4,0.1,0.8,0,1.2L272,343z M267.5,343.8c0.2,0.3,0.5,0.5,0.8,0.5
					c0.3,0,0.6-0.1,0.9-0.2c0.3-0.2,0.5-0.4,0.7-0.8c0.2-0.3,0.3-0.7,0.3-1c0-0.4-0.1-0.8-0.4-1.1c-0.2-0.4-0.7-0.7-1.3-0.9
					c0,0-0.1,0-0.3,0c-0.2,0-0.3,0-0.4,0c0,0-0.1,0-0.3,0.1c-0.1,0-0.2,0.1-0.2,0.1c-0.1,0.1-0.2,0.2-0.4,0.4
					c-0.2,0.1-0.2,0.2-0.2,0.3l-0.1,1.6c0,0,0,0.1,0.1,0.3c0.1,0.2,0.1,0.3,0.1,0.4c0,0,0,0.1,0.1,0.1c0,0.1,0.1,0.1,0.1,0.1
					c0,0,0.1,0.1,0.2,0.2C267.4,343.7,267.5,343.7,267.5,343.8z"/>
				<path class="st5" d="M277.9,345.3c-0.6,0.2-1.1,0.3-1.6,0.2c-0.5-0.1-0.9-0.4-1.3-0.7c-0.4-0.4-0.7-0.8-1-1.3
					c-0.3-0.5-0.5-1-0.7-1.6c-0.2-0.6-0.4-1.1-0.5-1.6c-0.1-0.5-0.2-1-0.3-1.4c0-0.1,0-0.2-0.1-0.4c0-0.2,0-0.3,0-0.4
					c0,0,0-0.2,0-0.3c0-0.2,0-0.3,0-0.6c0-0.2,0-0.4,0-0.6c0-0.2,0-0.3,0-0.4v-0.5c0-1.1,0.1-2.2,0.4-3.1c0.2-0.9,0.6-1.8,1.2-2.7
					c0.3-0.4,0.5-0.6,0.7-0.8c0.2-0.2,0.6-0.2,1-0.2h0.2c0.3,0.2,0.6,0.3,1,0.5c0.3,0.1,0.6,0.3,0.8,0.7c0.1,0.1,0.2,0.2,0.2,0.4
					c0.1,0.2,0.2,0.4,0.2,0.6c0.1,0.2,0.1,0.4,0.2,0.6c0,0.2,0.1,0.3,0.1,0.5c0,1.1-0.1,2.1-0.4,3.1c-0.2,1-0.5,2-0.9,3.1
					c0,0-0.1,0.2-0.2,0.3c-0.1,0.2-0.2,0.4-0.3,0.6c-0.1,0.2-0.2,0.4-0.3,0.6c-0.1,0.2-0.2,0.4-0.2,0.5c0,0,0,0.1-0.1,0.1
					c0,0.1-0.1,0.1-0.2,0.2c0,0.1-0.1,0.2-0.1,0.2c0,0.1-0.1,0.1-0.1,0.1c0,0,0,0.1-0.1,0.1c0,0.1-0.1,0.1-0.1,0.1v0.1
					c0,0.1,0,0.2,0.1,0.3c0,0.1,0.1,0.2,0.1,0.2c0.1,0.6,0.3,1,0.6,1.2c0.3,0.2,0.6,0.4,0.9,0.4c0.4,0,0.7-0.1,1.1-0.4
					c0.4-0.3,0.8-0.6,1.2-1h0.3c0,0,0.1,0,0.1,0.1c0.1,0,0.1,0.1,0.1,0.1c0,0,0.1,0.1,0.2,0.2c0.1,0.1,0.2,0.2,0.2,0.2l0.4,0.7
					c0,0-0.1,0.2-0.2,0.4c-0.2,0.2-0.4,0.4-0.6,0.7c-0.3,0.2-0.6,0.5-0.9,0.7C278.5,345.2,278.2,345.3,277.9,345.3z M274.3,338.7
					c0,0,0.1,0.1,0.1,0.1c0.1,0,0.1,0.1,0.1,0.1c0.3-0.5,0.5-1,0.7-1.5c0.2-0.5,0.4-1,0.6-1.5c0.2-0.5,0.3-1,0.4-1.5
					c0.1-0.5,0.1-1,0.1-1.5c0-0.4-0.1-0.6-0.1-0.8c0-0.2-0.1-0.3-0.1-0.5c0-0.1-0.1-0.2-0.1-0.3c0-0.1-0.1-0.3-0.2-0.5
					c0,0,0,0,0-0.1c0,0-0.1,0-0.1,0c0,0-0.1,0-0.2,0c-0.2,0-0.3,0.1-0.4,0.3c0,0-0.1,0.1-0.1,0.2c0,0.1-0.1,0.2-0.1,0.3
					c0,0.1-0.1,0.2-0.1,0.3c0,0.1-0.1,0.2-0.1,0.2c0,0,0,0.1,0,0.2c0,0.1,0,0.2-0.1,0.3c0,0.1-0.1,0.2-0.1,0.3c0,0.1,0,0.2,0,0.2
					c0,0,0,0.2-0.1,0.4c0,0.2,0,0.3,0,0.4c0,0,0,0.1-0.1,0.3c0,0.1,0,0.2,0,0.3v3.6c0,0,0,0.2,0.1,0.4
					C274.2,338.5,274.3,338.6,274.3,338.7z"/>
				<path class="st5" d="M283,345.5c0,0,0.1-0.1,0.3-0.1c0.2-0.1,0.3-0.1,0.3-0.1c0,0,0.1,0,0.2,0c0.1,0,0.2-0.1,0.3-0.1
					c0,0,0.1-0.1,0.1-0.1c0.1-0.1,0.1-0.1,0.1-0.1c0,0,0-0.1,0.1-0.2c0-0.1,0.1-0.2,0.1-0.3c0,0,0-0.1,0.1-0.2
					c0.1-0.1,0.1-0.2,0.1-0.2c0,0,0.1,0,0.1,0c0.1,0,0.1,0,0.1,0c0.3,0.2,0.6,0.4,0.9,0.6c0.3,0.2,0.6,0.4,0.9,0.6
					c0.3,0.1,0.6,0.2,1,0.3c0.3,0,0.7,0,1.2-0.1c0,0,0.1,0,0.1,0c0.1,0,0.1,0,0.1,0c0,0,0.1-0.1,0.2-0.1c0.1,0,0.2-0.1,0.2-0.1
					c0,0,0-0.1,0-0.1c0-0.1,0-0.2,0-0.2c0-0.1,0.1-0.2,0.1-0.2c0-0.1,0-0.1,0-0.1c0,0-0.1-0.1-0.1-0.1c0,0-0.1-0.1-0.1-0.1
					c0-0.1-0.1-0.2-0.2-0.4c-0.1-0.2-0.1-0.3-0.2-0.3c0,0-0.1,0-0.1,0c-0.1,0-0.1,0-0.2,0.1c-0.1,0-0.2,0.1-0.2,0.1
					c-0.1,0-0.1,0-0.1,0l-0.8,0c0,0-0.1,0-0.2-0.1c-0.1-0.1-0.3-0.2-0.4-0.3c-0.1-0.1-0.3-0.2-0.4-0.3c-0.1-0.1-0.2-0.1-0.2-0.1
					c-0.2-0.1-0.3-0.2-0.4-0.4c-0.1-0.2-0.2-0.4-0.3-0.6c0,0,0-0.1-0.1-0.3c0-0.1,0-0.2,0-0.2V341v-1.5v-0.5c0,0,0-0.1,0-0.2
					c0-0.1,0-0.3-0.1-0.5c0-0.2,0-0.3-0.1-0.5c0-0.2-0.1-0.3-0.1-0.4c0,0,0-0.1-0.1-0.1c0-0.1,0-0.1-0.1-0.1c0-0.1-0.1-0.2-0.3-0.3
					c-0.1-0.1-0.2-0.2-0.2-0.2c-0.1,0-0.3,0-0.5,0c-0.2,0-0.3,0-0.4,0c0,0-0.1,0.1-0.1,0.1c-0.1,0.1-0.1,0.2-0.2,0.3
					c-0.1,0.1-0.1,0.2-0.1,0.2c0,0,0,0.1,0,0.1c0,0.1,0,0.2-0.1,0.3c0,0.1,0,0.2-0.1,0.2c0,0.1,0,0.1,0,0.1c0,0-0.1,0-0.3,0
					c-0.2,0-0.3,0.1-0.5,0.1h-0.2c0,0-0.1,0-0.2,0c-0.1,0-0.2,0.1-0.3,0.1c-0.3,0.1-0.5,0.2-0.8,0.3c-0.2,0.1-0.4,0.1-0.6,0.2
					c-0.2,0.1-0.4,0.2-0.6,0.3c-0.2,0.1-0.4,0.3-0.6,0.5c0,0-0.1,0-0.1,0.1c0,0,0,0,0,0c0,0-0.1,0.1-0.1,0.3c0,0.1-0.1,0.2-0.1,0.2
					l-0.4,1.1c0.1,0.6,0.2,1.1,0.3,1.5c0.1,0.4,0.2,0.7,0.3,0.9c0.1,0.2,0.2,0.5,0.4,0.6c0.1,0.2,0.3,0.4,0.5,0.6
					c0.4,0.1,0.9,0.3,1.3,0.4C281.7,345.6,282.3,345.6,283,345.5z M281.1,343.9c-0.3-0.2-0.5-0.4-0.6-0.6c-0.1-0.2-0.1-0.5-0.1-0.8
					c0-0.1,0-0.3,0-0.5c0-0.2,0-0.4,0-0.6c0-0.2,0-0.4,0.1-0.5c0-0.2,0.1-0.3,0.2-0.4c0,0,0.1-0.1,0.3-0.2c0.1-0.1,0.3-0.2,0.4-0.3
					c0.2-0.1,0.3-0.2,0.5-0.3c0.2-0.1,0.3-0.1,0.4-0.1c0,0,0.1,0,0.3,0c0.2,0,0.3-0.1,0.4-0.1h0.4c0,0,0.1,0,0.1,0.1
					c0.1,0.1,0.1,0.2,0.1,0.3c0,0,0,0.1,0.1,0.2c0,0.1,0.1,0.2,0.1,0.4c0,0.1,0.1,0.2,0.1,0.4c0,0.1,0.1,0.2,0.1,0.2
					c0,0.4-0.1,0.8-0.2,1.3c-0.1,0.4-0.3,0.8-0.5,1.2c-0.2,0.3-0.5,0.6-0.9,0.7C282,344.1,281.5,344.1,281.1,343.9z"/>
				<path class="st5" d="M293.8,345.4V345c0,0,0-0.1,0-0.2c0-0.1,0.1-0.2,0.1-0.2c0,0,0-0.1,0-0.3c0-0.2,0-0.3,0-0.3
					c0-0.4-0.1-0.8-0.1-1.2c0-0.4-0.1-0.8-0.2-1.1c-0.1-0.1-0.2-0.3-0.2-0.5c-0.1-0.2-0.1-0.3-0.2-0.4c0,0-0.1,0-0.1-0.1
					c-0.1,0-0.1,0-0.1,0c0,0-0.1,0-0.1,0c-0.1,0-0.1,0.1-0.1,0.1c0,0-0.1,0.1-0.2,0.2c-0.1,0.1-0.2,0.2-0.2,0.3
					c0,0.1-0.1,0.2-0.2,0.3c-0.1,0.2-0.2,0.3-0.2,0.3c0,0-0.1,0.1-0.1,0.2c-0.1,0.1-0.2,0.3-0.3,0.5c-0.1,0.2-0.2,0.4-0.3,0.6
					c-0.1,0.2-0.2,0.4-0.3,0.6c-0.1,0.3-0.2,0.4-0.2,0.4c0,0-0.1,0.1-0.2,0.2c-0.1,0.1-0.2,0.1-0.2,0.2c0,0-0.1,0.1-0.2,0.3
					c-0.1,0.1-0.2,0.2-0.2,0.2c0,0-0.1,0.1-0.3,0.1c-0.2,0-0.3,0.1-0.4,0.1c0,0-0.1,0-0.2,0c-0.1,0-0.2,0-0.2,0h-0.3
					c-0.2,0-0.3,0-0.3,0c0,0,0-0.1,0-0.2c0-0.1,0-0.2,0-0.2c0,0,0-0.1,0-0.2c0-0.1,0-0.2,0-0.2c0-0.1,0.1-0.2,0.2-0.4
					c0.1-0.2,0.2-0.3,0.2-0.4c0,0,0.1,0,0.1-0.1c0,0,0.1,0,0.1,0c0,0,0.1-0.1,0.2-0.1c0.1-0.1,0.1-0.1,0.1-0.1c0,0,0.1-0.2,0.2-0.4
					c0.1-0.3,0.3-0.6,0.5-0.9c0.2-0.3,0.3-0.6,0.4-0.9c0.1-0.3,0.2-0.4,0.2-0.5c0,0,0-0.1,0-0.1c0-0.1,0.1-0.1,0.1-0.2
					c0-0.1,0.1-0.1,0.1-0.2c0-0.1,0.1-0.1,0.1-0.1c0,0,0-0.1,0.1-0.1c0-0.1,0.1-0.1,0.1-0.1c0,0,0.1-0.1,0.2-0.2
					c0.1-0.1,0.2-0.2,0.3-0.3c0,0,0,0,0.1-0.1c0.1,0,0.1,0,0.1,0c0,0,0.1-0.1,0.2-0.1c0.1-0.1,0.2-0.1,0.2-0.1l0.2-0.1
					c0.1,0,0.2,0,0.3,0c0.1,0,0.3,0,0.4,0c0.1,0,0.3,0,0.4,0c0.1,0,0.2,0,0.2,0c0,0,0.1,0.1,0.3,0.2c0.2,0.1,0.3,0.2,0.5,0.3
					c0,0,0.1,0.1,0.2,0.2c0.1,0.1,0.2,0.2,0.3,0.2h0.4c0,0,0.1,0,0.2,0c0.1,0,0.2-0.1,0.2-0.1c0,0,0.1,0,0.1-0.1
					c0.1,0,0.1-0.1,0.1-0.1c0,0,0.1,0,0.2-0.1c0.1,0,0.2-0.1,0.3-0.1c0.1,0,0.2-0.1,0.3-0.1c0.1,0,0.2,0,0.2,0c0,0,0.1,0,0.2,0
					c0.2,0,0.2,0,0.3,0c0,0,0.1,0,0.2,0c0.1,0,0.2,0.1,0.2,0.1c0,0,0.1,0,0.1,0.1c0.1,0,0.1,0,0.1,0l0.5,0.5c0,0,0.1,0.1,0.1,0.3
					c0.1,0.1,0.1,0.2,0.1,0.2c0,0,0,0.1,0.1,0.3c0.1,0.3,0.2,0.5,0.3,0.7c0.1,0.2,0.2,0.4,0.3,0.6c0.1,0.2,0.2,0.4,0.3,0.6
					c0.1,0.2,0.3,0.4,0.4,0.6c0,0,0,0.1,0,0.2c0,0.1,0.1,0.1,0.1,0.2c0,0,0.1,0,0.2,0.1c0.1,0,0.2,0.1,0.3,0.1
					c0.1,0,0.2,0.1,0.4,0.1c0.1,0,0.2,0,0.2,0c0,0,0.1,0,0.3,0c0.2,0,0.3-0.1,0.3-0.1c0,0,0.1,0,0.2,0c0.1,0,0.2,0,0.2,0
					c0,0,0.1,0.1,0.1,0.2c0,0.1,0.1,0.1,0.1,0.1c0,0,0,0.1-0.1,0.3c0,0.2-0.1,0.3-0.1,0.3c0,0,0,0-0.1,0.1c0,0-0.1,0.1-0.1,0.1
					c0,0,0,0-0.1,0.1c-0.1,0-0.1,0.1-0.2,0.1c0,0-0.1,0.1-0.2,0.1c-0.1,0-0.1,0-0.2,0.1c-0.1,0-0.2,0.1-0.2,0.1c-0.1,0-0.1,0-0.1,0
					c0,0-0.1,0-0.3,0c-0.1,0-0.2,0-0.3,0c-0.1,0-0.2,0-0.3-0.1c-0.1,0-0.3-0.1-0.4-0.1c-0.2,0-0.3-0.1-0.4-0.1
					c-0.1,0-0.2-0.1-0.3-0.1c0,0-0.1-0.1-0.2-0.2c-0.1-0.1-0.2-0.2-0.2-0.2c0,0,0,0,0-0.1c0,0,0-0.1,0-0.1c-0.2-0.2-0.4-0.5-0.5-0.8
					c-0.1-0.3-0.3-0.6-0.4-0.9c-0.1-0.3-0.3-0.6-0.4-0.9c-0.2-0.3-0.4-0.5-0.6-0.7c0,0-0.1,0-0.2,0c-0.1,0-0.2,0-0.2,0
					c0,0-0.1,0-0.1,0c0,0-0.1,0.1-0.1,0.1c0,0,0,0.1-0.1,0.2c-0.1,0.1-0.1,0.2-0.1,0.2c0,0-0.1,0.1-0.1,0.1c0,0.1,0,0.1,0,0.1
					c0,0.1-0.1,0.2-0.1,0.5c0,0.3,0,0.6,0,0.9v0.4v0.2c0,0,0,0.1-0.1,0.2c-0.1,0.1-0.1,0.2-0.1,0.3c0,0,0,0-0.1,0.1c0,0,0,0,0,0
					c0.1,0.1,0.1,0.2,0,0.3c-0.1,0.1-0.2,0.2-0.3,0.3c-0.1,0.1-0.3,0.2-0.5,0.3c-0.2,0.1-0.3,0.1-0.5,0.1h-0.3c0,0,0-0.1-0.1-0.1
					C293.9,345.4,293.8,345.4,293.8,345.4z"/>
				<path class="st5" d="M311.2,345.5c0,0-0.1,0-0.1,0c-0.1,0-0.1-0.1-0.2-0.1c-0.1,0-0.2-0.1-0.3-0.1c-0.1,0-0.2-0.1-0.2-0.1
					c0,0-0.1,0-0.1-0.1c-0.1,0-0.1,0-0.1,0c-0.3-0.1-0.5-0.2-0.6-0.3c-0.1-0.1-0.2-0.2-0.3-0.3c-0.1-0.1-0.2-0.2-0.2-0.4
					c-0.1-0.1-0.2-0.3-0.3-0.5h-0.3c0,0-0.1,0.1-0.1,0.1c0,0.1-0.1,0.1-0.1,0.1c0,0-0.1,0.1-0.2,0.3c-0.1,0.1-0.2,0.2-0.2,0.2
					c-0.6,0.7-1.2,1.1-1.8,1.2c-0.6,0.1-1.2,0.1-1.8-0.2c-0.5-0.3-1-0.7-1.3-1.2c-0.3-0.5-0.5-1.2-0.5-1.8v-0.7c0,0,0-0.2,0-0.4
					c0-0.2,0.1-0.3,0.1-0.4c0,0,0-0.1,0-0.2c0-0.1,0.1-0.2,0.1-0.2c0,0,0.1-0.1,0.1-0.3c0.1-0.1,0.1-0.2,0.1-0.2
					c0,0,0.1-0.1,0.2-0.2c0.1-0.1,0.2-0.2,0.2-0.3l0.4-0.4c0,0,0.1-0.1,0.2-0.1c0.1-0.1,0.2-0.1,0.3-0.1c0.1-0.1,0.3-0.1,0.5-0.1
					c0.2,0,0.4,0,0.6,0c0.2,0,0.4,0,0.6,0.1c0.2,0,0.4,0,0.6,0h0.9v-0.4c0-0.3-0.1-0.6-0.1-0.9c0-0.4,0-0.8-0.1-1.2
					c0-0.5-0.1-1-0.2-1.6c-0.1-0.6-0.2-1.3-0.4-2.1c0,0,0-0.1,0-0.1c0-0.1,0.1-0.1,0.1-0.1l0.1-0.1c0,0,0.1,0,0.2-0.1
					c0.1,0,0.2,0,0.2,0c0,0,0.2,0,0.4,0c0.2,0,0.3,0,0.4,0c0.1,0,0.2,0,0.2,0.1c0.1,0.1,0.2,0.2,0.3,0.3c0,0,0,0.1,0.1,0.1
					c0,0.1,0,0.1,0,0.1v0.4c0,0,0,0.1,0,0.2c0,0.1,0.1,0.2,0.1,0.2c0,0,0,0.1,0.1,0.3c0,0.1,0.1,0.2,0.1,0.2c0,0,0,0.1,0,0.2
					c0,0.1,0.1,0.2,0.1,0.2c0,0.1,0,0.2,0.1,0.4c0,0.2,0.1,0.3,0.1,0.4c0,0.1,0,0.2,0,0.2v0.4v0.6v0.6v0.3c0,0.1,0,0.2,0,0.4
					c0,0.2,0,0.3,0,0.5c0,0.2,0,0.4,0,0.6c0,0.2,0,0.3,0,0.3c0,0,0.1,0.1,0.1,0.2c0.1,0.1,0.1,0.2,0.1,0.3c0,0.2,0,0.4,0,0.6
					c0,0.2,0.1,0.4,0.2,0.6c0.1,0.2,0.2,0.4,0.3,0.6c0.1,0.2,0.2,0.5,0.4,0.8c0.1,0.3,0.3,0.5,0.5,0.8c0.2,0.2,0.5,0.5,1,0.9
					c0.1,0,0.3,0,0.5,0c0.2,0,0.4,0,0.5,0c0,0,0.1-0.1,0.3-0.1c0.2-0.1,0.3-0.2,0.5-0.3c0.2-0.1,0.4-0.2,0.5-0.3
					c0.2-0.1,0.3-0.2,0.3-0.2c0,0,0.1,0,0.2,0c0.1,0,0.1,0,0.2,0c0,0,0.1,0.1,0.2,0.1c0.1,0,0.2,0,0.2,0c0,0,0,0.1,0.1,0.1
					c0.1,0.1,0.1,0.1,0.1,0.2c0,0.2,0,0.3-0.2,0.6c-0.1,0.2-0.3,0.4-0.5,0.6c-0.2,0.2-0.4,0.4-0.6,0.5c-0.2,0.2-0.4,0.3-0.5,0.4
					c-0.1,0-0.2,0.1-0.3,0.1c-0.1,0-0.2,0.1-0.4,0.1c-0.1,0-0.2,0.1-0.3,0.1c-0.1,0-0.2,0-0.2,0h-0.5c-0.1,0-0.2,0-0.3,0
					C311.3,345.6,311.2,345.5,311.2,345.5z M304.6,343.4c0,0,0.1,0.1,0.2,0.2c0.1,0.1,0.2,0.2,0.2,0.2c0,0,0,0,0.1,0
					c0.1,0,0.1,0,0.1,0c0.1,0,0.2-0.1,0.3-0.1c0.1-0.1,0.2-0.1,0.2-0.1c0,0,0.1-0.1,0.1-0.1c0.1-0.1,0.2-0.2,0.2-0.3
					c0.1-0.1,0.2-0.2,0.2-0.3c0.1-0.1,0.1-0.2,0.2-0.2c0.1-0.1,0.1-0.3,0.2-0.4c0.1-0.1,0.1-0.2,0.1-0.3c0-0.1,0-0.2,0-0.2
					c0,0,0-0.1,0-0.1c0-0.1-0.1-0.1-0.1-0.1c0,0-0.1-0.1-0.2-0.1c-0.1-0.1-0.2-0.1-0.2-0.1c0,0,0-0.1-0.1-0.1c0-0.1,0-0.1,0-0.1
					c0,0,0-0.1,0-0.1c0-0.1,0.1-0.1,0.1-0.1c0,0,0,0,0-0.1c0,0,0,0,0,0c0,0,0,0,0-0.1c0,0-0.1-0.1-0.1-0.1c-0.1,0-0.2,0-0.3-0.1
					c-0.1-0.1-0.2-0.1-0.3-0.1c0,0-0.1,0-0.2,0s-0.2,0-0.2,0c0,0-0.1,0-0.3,0c-0.1,0-0.2,0.1-0.2,0.1c0,0,0,0-0.1,0c0,0,0,0.1,0,0.1
					c0,0-0.1,0.1-0.1,0.2c-0.1,0.1-0.1,0.2-0.1,0.2c0,0,0,0.1-0.1,0.3c0,0.1,0,0.2,0,0.2c0,0,0,0.1,0,0.2c0,0.1,0,0.2,0,0.4
					c0,0.1,0,0.2,0,0.3c0,0.1,0,0.2,0,0.2c0,0,0,0.1,0,0.1c0,0.1,0.1,0.1,0.1,0.1c0,0.1,0.1,0.2,0.2,0.4
					C304.5,343.3,304.6,343.4,304.6,343.4z"/>
				<path class="st5" d="M321.4,343c-0.1,0.6-0.4,1.1-0.7,1.5c-0.3,0.4-0.7,0.7-1.2,0.9c-0.4,0.2-0.9,0.3-1.4,0.3
					c-0.5,0-1,0-1.5-0.1c0,0,0-0.1-0.1-0.1c0,0-0.1-0.1-0.3-0.1c-0.1-0.1-0.2-0.1-0.2-0.1c0,0-0.1-0.1-0.2-0.2
					c-0.1-0.1-0.2-0.2-0.3-0.3c0,0-0.1-0.1-0.2-0.2c-0.1-0.1-0.2-0.2-0.2-0.3c0,0-0.1-0.1-0.2-0.2c-0.1-0.1-0.1-0.1-0.1-0.1
					c0,0,0-0.1-0.1-0.2c0-0.1-0.1-0.2-0.1-0.3c0-0.1-0.1-0.2-0.1-0.3c0-0.1-0.1-0.2-0.1-0.2c0,0,0-0.1,0-0.1c0-0.1,0-0.2,0-0.3
					c0-0.1,0-0.2,0-0.3c0-0.1,0-0.2,0-0.2v-0.2c0,0,0-0.1,0-0.2c0-0.1,0-0.2,0-0.3c0-0.1,0-0.2,0-0.3c0-0.1,0-0.2,0-0.2
					c0,0,0-0.1,0-0.2c0-0.1,0.1-0.2,0.1-0.3c0,0,0-0.1,0.1-0.3c0.1-0.1,0.2-0.3,0.3-0.4c0-0.1,0.1-0.2,0.2-0.3
					c0.1-0.1,0.2-0.2,0.2-0.2c0.1,0,0.2,0,0.3-0.1c0.1-0.1,0.2-0.1,0.4-0.1c0,0,0.1,0,0.2,0c0.1,0,0.2,0,0.3,0c0.1,0,0.2,0,0.3,0
					c0.1,0,0.2,0,0.2,0c0,0,0.1,0,0.2,0c0.1,0,0.2,0,0.4,0h0.4h0.2c0.1,0,0.2,0,0.4,0.1c0.2,0,0.3,0,0.4,0c0.4,0.1,0.7,0.3,1.1,0.6
					c0.4,0.3,0.7,0.6,1,1c0.3,0.4,0.5,0.8,0.6,1.2c0.1,0.4,0.1,0.8,0,1.2L321.4,343z M317,343.8c0.2,0.3,0.5,0.5,0.8,0.5
					c0.3,0,0.6-0.1,0.9-0.2c0.3-0.2,0.5-0.4,0.7-0.8c0.2-0.3,0.3-0.7,0.3-1c0-0.4-0.1-0.8-0.4-1.1c-0.2-0.4-0.7-0.7-1.3-0.9
					c0,0-0.1,0-0.3,0c-0.2,0-0.3,0-0.4,0c0,0-0.1,0-0.3,0.1c-0.1,0-0.2,0.1-0.2,0.1c-0.1,0.1-0.2,0.2-0.4,0.4
					c-0.2,0.1-0.2,0.2-0.2,0.3l-0.1,1.6c0,0,0,0.1,0.1,0.3c0.1,0.2,0.1,0.3,0.1,0.4c0,0,0,0.1,0.1,0.1c0,0.1,0.1,0.1,0.1,0.1
					c0,0,0.1,0.1,0.2,0.2C316.9,343.7,317,343.7,317,343.8z"/>
				<path class="st5" d="M328.2,345.1c0,0,0.1,0,0.2,0.1c0.1,0.1,0.2,0.1,0.2,0.1c0,0,0.1,0,0.2-0.1c0.1-0.1,0.2-0.1,0.3-0.1
					c0,0,0.1-0.1,0.2-0.1c0.1-0.1,0.2-0.1,0.2-0.1l0.4-0.4c0,0,0-0.1,0.1-0.2c0-0.1,0-0.2,0-0.2c0,0,0-0.1,0-0.1
					c0-0.1-0.1-0.1-0.1-0.1c0,0-0.2-0.2-0.3-0.3c-0.2-0.2-0.3-0.3-0.3-0.3h-1.1c0,0-0.1,0-0.1,0c0,0-0.1,0.1-0.1,0.1
					c0,0-0.1,0.1-0.1,0.1c0,0-0.1,0.1-0.1,0.1c0,0-0.1,0.1-0.1,0.1c0,0,0,0.1,0,0.1v0.5c0,0.1,0.1,0.2,0.2,0.4
					c0.1,0.2,0.2,0.3,0.2,0.4c0,0,0.1,0,0.1,0C328.1,345.1,328.1,345.1,328.2,345.1z"/>
				<path class="st5" d="M342.1,345.1c0,0,0.1,0,0.2,0.1c0.1,0.1,0.2,0.1,0.2,0.1c0,0,0.1,0,0.2-0.1c0.1-0.1,0.2-0.1,0.3-0.1
					c0,0,0.1-0.1,0.2-0.1c0.1-0.1,0.2-0.1,0.2-0.1l0.4-0.4c0,0,0-0.1,0.1-0.2c0-0.1,0-0.2,0-0.2c0,0,0-0.1,0-0.1
					c0-0.1-0.1-0.1-0.1-0.1c0,0-0.2-0.2-0.3-0.3c-0.2-0.2-0.3-0.3-0.3-0.3h-1.1c0,0-0.1,0-0.1,0c0,0-0.1,0.1-0.1,0.1
					c0,0-0.1,0.1-0.1,0.1c0,0-0.1,0.1-0.1,0.1c0,0-0.1,0.1-0.1,0.1c0,0,0,0.1,0,0.1v0.5c0,0.1,0.1,0.2,0.2,0.4
					c0.1,0.2,0.2,0.3,0.2,0.4c0,0,0.1,0,0.1,0C342.1,345.1,342.1,345.1,342.1,345.1z"/>
				<path class="st5" d="M356.1,345.1c0,0,0.1,0,0.2,0.1c0.1,0.1,0.2,0.1,0.2,0.1c0,0,0.1,0,0.2-0.1c0.1-0.1,0.2-0.1,0.3-0.1
					c0,0,0.1-0.1,0.2-0.1c0.1-0.1,0.2-0.1,0.2-0.1l0.4-0.4c0,0,0-0.1,0.1-0.2c0-0.1,0-0.2,0-0.2c0,0,0-0.1,0-0.1
					c0-0.1-0.1-0.1-0.1-0.1c0,0-0.2-0.2-0.3-0.3c-0.2-0.2-0.3-0.3-0.3-0.3h-1.1c0,0-0.1,0-0.1,0c0,0-0.1,0.1-0.1,0.1
					c0,0-0.1,0.1-0.1,0.1c0,0-0.1,0.1-0.1,0.1c0,0-0.1,0.1-0.1,0.1c0,0,0,0.1,0,0.1v0.5c0,0.1,0.1,0.2,0.2,0.4
					c0.1,0.2,0.2,0.3,0.2,0.4c0,0,0.1,0,0.1,0C356,345.1,356.1,345.1,356.1,345.1z"/>
			</g>
			<g>
				<path class="st5" d="M254.8,321.6c0,0-0.1,0-0.1,0c-0.1,0-0.1,0-0.2,0c-0.1,0-0.1,0-0.2,0c0,0-0.1,0-0.1,0c0,0-0.1,0-0.1,0
					c0,0,0-0.1,0-0.1V321c0,0,0.1-0.1,0.2-0.2c0.1-0.1,0.2-0.2,0.2-0.3l0.1-0.1c0,0,0.1,0,0.2-0.1c0.1,0,0.2,0,0.2,0
					c0,0,0.1,0,0.2,0c0.1,0,0.3,0,0.4,0c0.1,0,0.3,0,0.4,0c0.1,0,0.2,0,0.3,0c0,0,0,0,0.1,0c0,0,0-0.1,0-0.1c0,0,0-0.2,0-0.3
					c0-0.2,0-0.3,0-0.3c0,0,0-0.1-0.1-0.1c0-0.1-0.1-0.2-0.1-0.3c0-0.1-0.1-0.2-0.2-0.3c0-0.1-0.1-0.2-0.1-0.2
					c-0.1-0.1-0.2-0.2-0.3-0.4c-0.1-0.2-0.2-0.3-0.2-0.4c0,0-0.1-0.1-0.1-0.1c0-0.1-0.1-0.1-0.1-0.1c0,0-0.1,0-0.1,0s-0.1,0-0.1,0
					c0,0-0.1,0.1-0.1,0.1c0,0.1-0.1,0.1-0.1,0.1v0.4c0,0.1-0.1,0.3-0.3,0.5c-0.2,0.2-0.4,0.5-0.7,0.8c-0.3,0.3-0.6,0.6-1,0.8
					c-0.4,0.3-0.7,0.5-1.1,0.8c-0.4,0.2-0.8,0.4-1.1,0.5c-0.4,0.1-0.7,0.1-1,0.1c0,0-0.1,0-0.1-0.1c-0.1-0.1-0.1-0.2-0.1-0.2
					c0,0,0,0-0.1-0.1c0,0,0-0.1,0-0.1v-0.4c0-0.2,0.1-0.3,0.4-0.5c0.2-0.2,0.5-0.3,0.9-0.6c0.4-0.2,0.7-0.5,1.1-0.7
					c0.4-0.3,0.8-0.7,1.2-1.1l0.4-0.7c0,0,0.1-0.1,0.1-0.3c0.1-0.2,0.1-0.3,0.1-0.4c0,0,0-0.1,0-0.2c0-0.1,0.1-0.2,0.1-0.3
					c0-0.1,0.1-0.2,0.1-0.3c0-0.1,0.1-0.2,0.1-0.2v-0.2c0-0.1,0.1-0.3,0.1-0.4c0-0.1,0.1-0.2,0.1-0.2c0,0,0.1-0.1,0.2-0.2
					c0.1-0.1,0.2-0.2,0.3-0.2c0,0,0.1,0,0.2-0.1c0.1,0,0.2,0,0.2,0c0,0,0,0,0.1,0c0,0,0,0,0,0c0,0,0.1,0,0.2,0.1c0.1,0,0.2,0,0.2,0
					c0,0,0.1,0.1,0.2,0.2c0.1,0.1,0.2,0.2,0.2,0.2c0,0,0.1,0.1,0.1,0.2c0.1,0.1,0.1,0.2,0.1,0.2c0,0,0.1,0.1,0.2,0.3
					c0.1,0.2,0.3,0.3,0.4,0.4c0.1,0.1,0.1,0.1,0.1,0.1c0,0,0,0.1,0.1,0.1c0,0.1,0.1,0.1,0.1,0.2c0,0.1,0.1,0.1,0.1,0.2
					c0,0,0.1,0.1,0.1,0.1c0,0,0.1,0.1,0.2,0.3c0.1,0.1,0.1,0.1,0.2,0.2c0,0.1,0.1,0.1,0.1,0.1c0,0,0,0.1,0.1,0.2
					c0.1,0.1,0.1,0.2,0.1,0.2c0,0.1,0.1,0.2,0.2,0.3c0.1,0.2,0.2,0.3,0.2,0.3c0,0,0,0.1,0.1,0.1c0,0,0,0.1,0,0.1
					c0,0.1,0,0.2,0.1,0.3c0,0.1,0.1,0.3,0.1,0.5c0.1,0.2,0.1,0.3,0.2,0.5c0,0.1,0.1,0.2,0.1,0.3c0,0,0,0.1,0,0.1c0,0.1,0,0.1,0,0.2
					c0,0.1,0,0.1,0,0.2c0,0,0,0.1,0,0.1c0,0.4-0.1,0.7-0.4,0.9c-0.3,0.2-0.7,0.3-1.2,0.3c-0.4,0-0.9,0-1.3,0
					C255.2,321.7,254.9,321.6,254.8,321.6z"/>
				<path class="st5" d="M261.9,321.2l-1.2-0.6c-0.6-0.4-1-0.9-1.2-1.5c-0.2-0.6-0.4-1.2-0.5-1.8c-0.1-0.6-0.1-1.1,0-1.5
					c0-0.5,0.1-0.8,0.1-0.9c0,0,0-0.1,0-0.1c0-0.1,0-0.2,0-0.3c0-0.1,0-0.2,0-0.3c0-0.1,0-0.2,0-0.2c0,0,0-0.1,0-0.1
					c0-0.1,0.1-0.1,0.1-0.1c0.1-0.1,0.2-0.2,0.3-0.3c0.1-0.1,0.2-0.2,0.3-0.4c0.1-0.1,0.2-0.2,0.3-0.3s0.2-0.2,0.2-0.2
					c0,0,0.1,0,0.1,0c0.1,0,0.2-0.1,0.2-0.1c0.1,0,0.2-0.1,0.2-0.1c0.1,0,0.1,0,0.2,0c0.3,0,0.6,0,0.8,0.1c0.3,0,0.6,0.1,0.8,0.3
					c0.3,0.1,0.5,0.3,0.6,0.6c0.2,0.2,0.2,0.5,0.2,0.9c0,0.5,0,1,0,1.3c0,0.3,0,0.6-0.1,0.9c0,0.2-0.1,0.4-0.2,0.6
					c-0.1,0.1-0.2,0.3-0.3,0.5c-0.1,0.2-0.3,0.3-0.5,0.6c-0.2,0.2-0.4,0.5-0.7,0.8c0,0,0,0.1,0,0.1c0,0,0,0.1,0.1,0.1
					c0.1,0,0.1,0.1,0.1,0.1c0.2,0.1,0.4,0.3,0.6,0.3c0.2,0.1,0.4,0.1,0.5,0.1c0.2,0,0.4,0,0.6,0c0.2,0,0.5,0,0.8,0c0,0,0.1,0,0.3,0
					c0.1,0,0.2,0,0.2,0c0,0,0.1,0,0.3-0.1s0.3-0.2,0.4-0.2c0,0,0.1,0,0.1-0.1c0.1-0.1,0.2-0.1,0.3-0.2c0.1-0.1,0.2-0.2,0.3-0.2
					c0.1-0.1,0.2-0.1,0.2-0.1c0,0,0.1-0.1,0.2-0.1c0.1,0,0.2,0,0.2,0c0.1,0,0.1,0.1,0.2,0.2c0.1,0.1,0.1,0.2,0.1,0.3
					c0,0,0,0.1,0,0.3c0,0.1,0,0.2,0,0.2c-0.2,0.4-0.3,0.7-0.4,0.9c-0.1,0.2-0.1,0.3-0.2,0.4c-0.1,0.1-0.2,0.2-0.3,0.2
					c-0.2,0-0.4,0.1-0.8,0.2c0,0-0.1,0-0.2,0c-0.1,0-0.2,0-0.4,0c-0.2,0-0.5,0-0.9,0c-0.4,0-0.9,0-1.6,0c0,0-0.1,0-0.1-0.1
					c0,0-0.1-0.1-0.1-0.1c0,0-0.1,0-0.3,0C262,321.3,261.9,321.3,261.9,321.2z M260.8,316.6l0.2,0.5c0,0,0.1,0,0.2-0.2
					c0.1-0.1,0.2-0.3,0.3-0.5c0.1-0.2,0.2-0.4,0.3-0.5c0.1-0.2,0.2-0.3,0.2-0.4v-0.5c0,0,0-0.1,0-0.2c0-0.1-0.1-0.2-0.1-0.2
					c0,0,0-0.1-0.1-0.1c0-0.1-0.1-0.1-0.1-0.1c0,0,0,0-0.1-0.1c0,0,0,0,0,0h-0.2c-0.1,0.1-0.3,0.2-0.4,0.3c-0.1,0.1-0.2,0.2-0.3,0.2
					L260.8,316.6z"/>
				<path class="st5" d="M281.7,328.1c0,0,0.1,0.1,0.1,0.1c0.1,0.1,0.1,0.1,0.1,0.1c0,0,0.1,0,0.2,0c0.1,0,0.2,0,0.3,0
					c0,0,0.1-0.1,0.3-0.2c0.2-0.1,0.4-0.2,0.4-0.2c0,0,0,0,0.1-0.1c0,0,0,0,0,0c0-0.1,0-0.2,0.1-0.4c0-0.2,0-0.3,0-0.4
					c0-1.6,0.1-3.1,0.2-4.6c0.1-1.5,0.2-2.9,0.2-4.4c0,0,0-0.1,0-0.2c0-0.1,0.1-0.1,0.1-0.1c0.2,0.2,0.4,0.5,0.6,0.8
					c0.2,0.4,0.5,0.7,0.8,1.1c0.3,0.4,0.6,0.7,1,1.1c0.4,0.3,0.9,0.6,1.4,0.7c0.5,0.1,1.1,0.2,1.8,0c0.7-0.1,1.4-0.4,2.3-0.9
					c0,0,0.1-0.1,0.1-0.1c0.1,0,0.1-0.1,0.1-0.1c0.1-0.1,0.2-0.2,0.3-0.4c0.1-0.2,0.2-0.4,0.3-0.6c0.1-0.2,0.1-0.4,0.1-0.5
					c0-0.1,0-0.2,0-0.2c0,0-0.1-0.1-0.1-0.1c0,0-0.1-0.1-0.1-0.1c0,0-0.1,0-0.1,0c0,0-0.1,0-0.1,0c0,0-0.1,0-0.2,0
					c-0.1,0-0.1,0-0.1,0c-0.2,0.1-0.4,0.3-0.6,0.4c-0.2,0.1-0.3,0.3-0.5,0.4c-0.2,0.1-0.3,0.2-0.5,0.3c-0.2,0.1-0.4,0.2-0.7,0.2
					c-0.7,0.1-1.3,0-1.8-0.2c-0.7-0.3-1.3-0.8-1.8-1.6c-0.5-0.8-1.1-1.8-1.7-3.1c0,0,0,0,0,0c0,0,0,0,0,0c0,0,0-0.1,0-0.2
					c0-0.1,0-0.2,0-0.3c0-0.1,0-0.2,0-0.3c0-0.1-0.1-0.2-0.1-0.2c0-0.1-0.1-0.2-0.2-0.3c-0.1-0.1-0.2-0.2-0.3-0.2c0,0-0.1,0-0.2,0
					c-0.1,0-0.2,0-0.3,0c0,0-0.1,0-0.2,0.1c-0.1,0.1-0.2,0.2-0.3,0.2c0,0-0.1,0.1-0.1,0.1c-0.1,0-0.1,0.1-0.1,0.1
					c0,0-0.1,0.1-0.1,0.2c0,0.1-0.1,0.2-0.1,0.3c0,0,0,0.1-0.1,0.2c0,0.1,0,0.2,0,0.2c0,0.1-0.1,0.2-0.3,0.4
					c-0.1,0.2-0.2,0.3-0.2,0.4c0,0-0.1,0.1-0.2,0.2c-0.1,0.1-0.2,0.2-0.3,0.3c-0.1,0.2-0.3,0.4-0.5,0.6c-0.2,0.2-0.3,0.5-0.5,0.7
					c-0.2,0.3-0.4,0.5-0.6,0.7c-0.2,0.2-0.5,0.4-0.7,0.6c0,0-0.1,0.1-0.2,0.2c-0.1,0.1-0.2,0.1-0.3,0.2c-0.1,0.1-0.2,0.1-0.3,0.2
					c-0.1,0-0.2,0.1-0.2,0.1c0,0-0.1,0.1-0.1,0.2c0,0.1-0.1,0.2-0.1,0.3c-0.1,0.1-0.1,0.2-0.2,0.3c0,0.1-0.1,0.2-0.1,0.2
					c0,0,0,0.1,0,0.2c0,0.1,0.1,0.2,0.1,0.2c0,0,0,0.1,0.1,0.1c0,0,0.1,0.1,0.1,0.1c0.1,0,0.2,0,0.4,0c0.2,0,0.3,0,0.4,0
					c0,0,0.1,0,0.1,0c0.1,0,0.2-0.1,0.3-0.2c0.1-0.1,0.2-0.1,0.3-0.2c0.1-0.1,0.2-0.1,0.2-0.1c0,0,0.1,0,0.1-0.1
					c0.1-0.1,0.2-0.1,0.2-0.2c0.1-0.1,0.2-0.2,0.3-0.2c0.1-0.1,0.1-0.1,0.2-0.2c0,0,0.1-0.1,0.1-0.2c0.1-0.1,0.1-0.2,0.2-0.2
					c0,0,0.1-0.1,0.2-0.2c0.1-0.1,0.2-0.3,0.3-0.4c0.1-0.1,0.2-0.3,0.3-0.4c0.1-0.1,0.2-0.2,0.2-0.2c0,0,0.1-0.1,0.1-0.1
					c0.1,0,0.1,0,0.1,0c0,0,0,0,0.1,0c0,0,0,0.1,0,0.1c0,0.1,0,0.2,0,0.5c0,0.2,0,0.4,0,0.6c0,0.7,0,1.4-0.1,2.2
					c-0.1,0.8-0.1,1.5-0.1,2.2v4c0,0,0,0.1,0.1,0.1C281.7,328,281.7,328,281.7,328.1z"/>
				<path class="st5" d="M296.1,321.5c0,0,0.1-0.1,0.3-0.1c0.2-0.1,0.3-0.1,0.3-0.1c0,0,0.1,0,0.2,0c0.1,0,0.2-0.1,0.3-0.1
					c0,0,0.1-0.1,0.1-0.1c0.1-0.1,0.1-0.1,0.1-0.1c0,0,0-0.1,0.1-0.2c0-0.1,0.1-0.2,0.1-0.3c0,0,0-0.1,0.1-0.2
					c0.1-0.1,0.1-0.2,0.1-0.2c0,0,0.1,0,0.1,0c0.1,0,0.1,0,0.1,0c0.3,0.2,0.6,0.4,0.9,0.6c0.3,0.2,0.6,0.4,0.9,0.6
					c0.3,0.1,0.6,0.2,1,0.3c0.3,0,0.7,0,1.2-0.1c0,0,0.1,0,0.1,0c0.1,0,0.1,0,0.1,0c0,0,0.1-0.1,0.2-0.1c0.1,0,0.2-0.1,0.2-0.1
					c0,0,0-0.1,0-0.1c0-0.1,0-0.2,0-0.2c0-0.1,0.1-0.2,0.1-0.2c0-0.1,0-0.1,0-0.1c0,0-0.1-0.1-0.1-0.1c0,0-0.1-0.1-0.1-0.1
					c0-0.1-0.1-0.2-0.2-0.4c-0.1-0.2-0.1-0.3-0.2-0.3c0,0-0.1,0-0.1,0c-0.1,0-0.1,0-0.2,0.1c-0.1,0-0.2,0.1-0.2,0.1
					c-0.1,0-0.1,0-0.1,0l-0.8,0c0,0-0.1,0-0.2-0.1c-0.1-0.1-0.3-0.2-0.4-0.3c-0.1-0.1-0.3-0.2-0.4-0.3c-0.1-0.1-0.2-0.1-0.2-0.1
					c-0.2-0.1-0.3-0.2-0.4-0.4c-0.1-0.2-0.2-0.4-0.3-0.6c0,0,0-0.1-0.1-0.3c0-0.1,0-0.2,0-0.2V317v-1.5v-0.5c0,0,0-0.1,0-0.2
					c0-0.1,0-0.3-0.1-0.5c0-0.2,0-0.3-0.1-0.5c0-0.2-0.1-0.3-0.1-0.4c0,0,0-0.1-0.1-0.1c0-0.1,0-0.1-0.1-0.1c0-0.1-0.1-0.2-0.3-0.3
					c-0.1-0.1-0.2-0.2-0.2-0.2c-0.1,0-0.3,0-0.5,0c-0.2,0-0.3,0-0.4,0c0,0-0.1,0.1-0.1,0.1c-0.1,0.1-0.1,0.2-0.2,0.3
					c-0.1,0.1-0.1,0.2-0.1,0.2c0,0,0,0.1,0,0.1c0,0.1,0,0.2-0.1,0.3c0,0.1,0,0.2-0.1,0.2c0,0.1,0,0.1,0,0.1c0,0-0.1,0-0.3,0
					c-0.2,0-0.3,0.1-0.5,0.1h-0.2c0,0-0.1,0-0.2,0c-0.1,0-0.2,0.1-0.3,0.1c-0.3,0.1-0.5,0.2-0.8,0.3c-0.2,0.1-0.4,0.1-0.6,0.2
					c-0.2,0.1-0.4,0.2-0.6,0.3c-0.2,0.1-0.4,0.3-0.6,0.5c0,0-0.1,0-0.1,0.1c0,0,0,0,0,0c0,0-0.1,0.1-0.1,0.3c0,0.1-0.1,0.2-0.1,0.2
					l-0.4,1.1c0.1,0.6,0.2,1.1,0.3,1.5c0.1,0.4,0.2,0.7,0.3,0.9c0.1,0.2,0.2,0.5,0.4,0.6c0.1,0.2,0.3,0.4,0.5,0.6
					c0.4,0.1,0.9,0.3,1.3,0.4C294.8,321.6,295.4,321.6,296.1,321.5z M294.2,319.9c-0.3-0.2-0.5-0.4-0.6-0.6
					c-0.1-0.2-0.1-0.5-0.1-0.8c0-0.1,0-0.3,0-0.5c0-0.2,0-0.4,0-0.6c0-0.2,0-0.4,0.1-0.5c0-0.2,0.1-0.3,0.2-0.4c0,0,0.1-0.1,0.3-0.2
					c0.1-0.1,0.3-0.2,0.4-0.3c0.2-0.1,0.3-0.2,0.5-0.3c0.2-0.1,0.3-0.1,0.4-0.1c0,0,0.1,0,0.3,0c0.2,0,0.3-0.1,0.4-0.1h0.4
					c0,0,0.1,0,0.1,0.1c0.1,0.1,0.1,0.2,0.1,0.3c0,0,0,0.1,0.1,0.2c0,0.1,0.1,0.2,0.1,0.4c0,0.1,0.1,0.2,0.1,0.4
					c0,0.1,0.1,0.2,0.1,0.2c0,0.4-0.1,0.8-0.2,1.3c-0.1,0.4-0.3,0.8-0.5,1.2c-0.2,0.3-0.5,0.6-0.9,0.7
					C295.1,320.1,294.7,320.1,294.2,319.9z"/>
				<path class="st5" d="M306.6,321.6c0,0-0.1,0-0.1,0c-0.1,0-0.1,0-0.2,0c-0.1,0-0.1,0-0.2,0c0,0-0.1,0-0.1,0c0,0-0.1,0-0.1,0
					c0,0,0-0.1,0-0.1V321c0,0,0.1-0.1,0.2-0.2c0.1-0.1,0.2-0.2,0.2-0.3l0.1-0.1c0,0,0.1,0,0.2-0.1c0.1,0,0.2,0,0.2,0
					c0,0,0.1,0,0.2,0c0.1,0,0.3,0,0.4,0c0.1,0,0.3,0,0.4,0c0.1,0,0.2,0,0.3,0c0,0,0,0,0.1,0c0,0,0-0.1,0-0.1c0,0,0-0.2,0-0.3
					c0-0.2,0-0.3,0-0.3c0,0,0-0.1-0.1-0.1c0-0.1-0.1-0.2-0.1-0.3c0-0.1-0.1-0.2-0.2-0.3c0-0.1-0.1-0.2-0.1-0.2
					c-0.1-0.1-0.2-0.2-0.3-0.4c-0.1-0.2-0.2-0.3-0.2-0.4c0,0-0.1-0.1-0.1-0.1c0-0.1-0.1-0.1-0.1-0.1c0,0-0.1,0-0.1,0
					c-0.1,0-0.1,0-0.1,0c0,0-0.1,0.1-0.1,0.1c0,0.1-0.1,0.1-0.1,0.1v0.4c0,0.1-0.1,0.3-0.3,0.5c-0.2,0.2-0.4,0.5-0.7,0.8
					c-0.3,0.3-0.6,0.6-1,0.8c-0.4,0.3-0.7,0.5-1.1,0.8c-0.4,0.2-0.8,0.4-1.1,0.5c-0.4,0.1-0.7,0.1-1,0.1c0,0-0.1,0-0.1-0.1
					c-0.1-0.1-0.1-0.2-0.1-0.2c0,0,0,0-0.1-0.1c0,0,0-0.1,0-0.1v-0.4c0-0.2,0.1-0.3,0.4-0.5c0.2-0.2,0.5-0.3,0.9-0.6
					c0.4-0.2,0.7-0.5,1.1-0.7c0.4-0.3,0.8-0.7,1.2-1.1l0.4-0.7c0,0,0.1-0.1,0.1-0.3c0.1-0.2,0.1-0.3,0.1-0.4c0,0,0-0.1,0-0.2
					c0-0.1,0.1-0.2,0.1-0.3c0-0.1,0.1-0.2,0.1-0.3c0-0.1,0.1-0.2,0.1-0.2v-0.2c0-0.1,0.1-0.3,0.1-0.4c0-0.1,0.1-0.2,0.1-0.2
					c0,0,0.1-0.1,0.2-0.2c0.1-0.1,0.2-0.2,0.3-0.2c0,0,0.1,0,0.2-0.1c0.1,0,0.2,0,0.2,0c0,0,0,0,0.1,0c0,0,0,0,0,0
					c0,0,0.1,0,0.2,0.1c0.1,0,0.2,0,0.2,0c0,0,0.1,0.1,0.2,0.2c0.1,0.1,0.2,0.2,0.2,0.2c0,0,0.1,0.1,0.1,0.2
					c0.1,0.1,0.1,0.2,0.1,0.2c0,0,0.1,0.1,0.2,0.3c0.1,0.2,0.3,0.3,0.4,0.4c0.1,0.1,0.1,0.1,0.1,0.1c0,0,0,0.1,0.1,0.1
					c0,0.1,0.1,0.1,0.1,0.2c0,0.1,0.1,0.1,0.1,0.2c0,0,0.1,0.1,0.1,0.1c0,0,0.1,0.1,0.2,0.3c0.1,0.1,0.1,0.1,0.2,0.2
					c0,0.1,0.1,0.1,0.1,0.1c0,0,0,0.1,0.1,0.2c0.1,0.1,0.1,0.2,0.1,0.2c0,0.1,0.1,0.2,0.2,0.3c0.1,0.2,0.2,0.3,0.2,0.3
					c0,0,0,0.1,0.1,0.1c0,0,0,0.1,0,0.1c0,0.1,0,0.2,0.1,0.3c0,0.1,0.1,0.3,0.1,0.5c0.1,0.2,0.1,0.3,0.2,0.5c0,0.1,0.1,0.2,0.1,0.3
					c0,0,0,0.1,0,0.1c0,0.1,0,0.1,0,0.2c0,0.1,0,0.1,0,0.2c0,0,0,0.1,0,0.1c0,0.4-0.1,0.7-0.4,0.9c-0.3,0.2-0.7,0.3-1.2,0.3
					c-0.4,0-0.9,0-1.3,0C307,321.7,306.7,321.6,306.6,321.6z"/>
				<path class="st5" d="M315.6,321.5c0,0,0.1-0.1,0.3-0.1c0.2-0.1,0.3-0.1,0.3-0.1c0,0,0.1,0,0.2,0c0.1,0,0.2-0.1,0.3-0.1
					c0,0,0.1-0.1,0.1-0.1c0.1-0.1,0.1-0.1,0.1-0.1c0,0,0-0.1,0.1-0.2c0-0.1,0.1-0.2,0.1-0.3c0,0,0-0.1,0.1-0.2
					c0.1-0.1,0.1-0.2,0.1-0.2c0,0,0.1,0,0.1,0c0.1,0,0.1,0,0.1,0c0.3,0.2,0.6,0.4,0.9,0.6c0.3,0.2,0.6,0.4,0.9,0.6
					c0.3,0.1,0.6,0.2,1,0.3c0.3,0,0.7,0,1.2-0.1c0,0,0.1,0,0.1,0c0.1,0,0.1,0,0.1,0c0,0,0.1-0.1,0.2-0.1c0.1,0,0.2-0.1,0.2-0.1
					c0,0,0-0.1,0-0.1c0-0.1,0-0.2,0-0.2c0-0.1,0.1-0.2,0.1-0.2c0-0.1,0-0.1,0-0.1c0,0-0.1-0.1-0.1-0.1c0,0-0.1-0.1-0.1-0.1
					c0-0.1-0.1-0.2-0.2-0.4c-0.1-0.2-0.1-0.3-0.2-0.3c0,0-0.1,0-0.1,0c-0.1,0-0.1,0-0.2,0.1c-0.1,0-0.2,0.1-0.2,0.1
					c-0.1,0-0.1,0-0.1,0l-0.8,0c0,0-0.1,0-0.2-0.1c-0.1-0.1-0.3-0.2-0.4-0.3c-0.1-0.1-0.3-0.2-0.4-0.3c-0.1-0.1-0.2-0.1-0.2-0.1
					c-0.2-0.1-0.3-0.2-0.4-0.4c-0.1-0.2-0.2-0.4-0.3-0.6c0,0,0-0.1-0.1-0.3c0-0.1,0-0.2,0-0.2V317v-1.5v-0.5c0,0,0-0.1,0-0.2
					c0-0.1,0-0.3-0.1-0.5c0-0.2,0-0.3-0.1-0.5c0-0.2-0.1-0.3-0.1-0.4c0,0,0-0.1-0.1-0.1c0-0.1,0-0.1-0.1-0.1c0-0.1-0.1-0.2-0.3-0.3
					c-0.1-0.1-0.2-0.2-0.2-0.2c-0.1,0-0.3,0-0.5,0c-0.2,0-0.3,0-0.4,0c0,0-0.1,0.1-0.1,0.1c-0.1,0.1-0.1,0.2-0.2,0.3
					c-0.1,0.1-0.1,0.2-0.1,0.2c0,0,0,0.1,0,0.1c0,0.1,0,0.2-0.1,0.3c0,0.1,0,0.2-0.1,0.2c0,0.1,0,0.1,0,0.1c0,0-0.1,0-0.3,0
					c-0.2,0-0.3,0.1-0.5,0.1h-0.2c0,0-0.1,0-0.2,0c-0.1,0-0.2,0.1-0.3,0.1c-0.3,0.1-0.5,0.2-0.8,0.3c-0.2,0.1-0.4,0.1-0.6,0.2
					c-0.2,0.1-0.4,0.2-0.6,0.3c-0.2,0.1-0.4,0.3-0.6,0.5c0,0-0.1,0-0.1,0.1c0,0,0,0,0,0c0,0-0.1,0.1-0.1,0.3c0,0.1-0.1,0.2-0.1,0.2
					l-0.4,1.1c0.1,0.6,0.2,1.1,0.3,1.5c0.1,0.4,0.2,0.7,0.3,0.9c0.1,0.2,0.2,0.5,0.4,0.6c0.1,0.2,0.3,0.4,0.5,0.6
					c0.4,0.1,0.9,0.3,1.3,0.4C314.3,321.6,314.9,321.6,315.6,321.5z M313.7,319.9c-0.3-0.2-0.5-0.4-0.6-0.6
					c-0.1-0.2-0.1-0.5-0.1-0.8c0-0.1,0-0.3,0-0.5c0-0.2,0-0.4,0-0.6c0-0.2,0-0.4,0.1-0.5c0-0.2,0.1-0.3,0.2-0.4c0,0,0.1-0.1,0.3-0.2
					c0.1-0.1,0.3-0.2,0.4-0.3c0.2-0.1,0.3-0.2,0.5-0.3c0.2-0.1,0.3-0.1,0.4-0.1c0,0,0.1,0,0.3,0c0.2,0,0.3-0.1,0.4-0.1h0.4
					c0,0,0.1,0,0.1,0.1c0.1,0.1,0.1,0.2,0.1,0.3c0,0,0,0.1,0.1,0.2c0,0.1,0.1,0.2,0.1,0.4c0,0.1,0.1,0.2,0.1,0.4
					c0,0.1,0.1,0.2,0.1,0.2c0,0.4-0.1,0.8-0.2,1.3c-0.1,0.4-0.3,0.8-0.5,1.2c-0.2,0.3-0.5,0.6-0.9,0.7
					C314.6,320.1,314.2,320.1,313.7,319.9z"/>
			</g>
			<g>
				<path class="st5" d="M253,305.9c0.1,0.1,0.3,0.1,0.5,0.1c0.2,0,0.3,0,0.5,0c0.2,0,0.3,0,0.5-0.1c0.2,0,0.3,0,0.5,0
					c0.2,0,0.4-0.1,0.7-0.2c0.3-0.1,0.5-0.3,0.8-0.5c0.3-0.2,0.5-0.4,0.7-0.7c0.2-0.3,0.4-0.6,0.5-0.8v-3.9c0.6-0.4,1.2-0.9,1.8-1.3
					c0.6-0.4,1.1-0.8,1.6-1.2c0.5-0.4,0.8-0.7,1.1-1.1c0.3-0.3,0.4-0.7,0.4-1c0-0.1,0-0.2,0-0.2c0,0,0-0.1,0-0.1
					c0-0.1,0.1-0.2,0.1-0.4c0-0.1,0.1-0.2,0-0.2c0,0-0.1-0.1-0.2-0.2c-0.1-0.1-0.2-0.2-0.3-0.2c-0.1,0-0.1,0-0.2,0.1
					c0,0-0.1,0.1-0.3,0.2c-0.1,0.1-0.2,0.2-0.2,0.2c-0.3,0.3-0.7,0.6-1,0.9c-0.3,0.3-0.6,0.6-1,0.9c-0.3,0.3-0.7,0.5-1,0.7
					c-0.3,0.2-0.6,0.3-1,0.4c0,0-0.1,0-0.1,0c-0.1,0-0.1-0.1-0.1-0.1c0-0.2-0.1-0.5-0.1-1c-0.1-0.5-0.2-1-0.2-1.6
					c-0.1-0.6-0.2-1.2-0.2-1.8c0-0.6-0.1-1.1,0-1.5c0,0,0-0.2,0-0.4c0-0.2,0.1-0.3,0.1-0.4c0,0,0-0.1,0-0.2c0-0.1,0.1-0.2,0.1-0.2
					c0,0,0-0.1,0-0.1c0-0.1,0-0.1,0-0.1c0,0,0-0.1,0-0.3c0-0.1-0.1-0.2-0.1-0.2c0,0-0.1-0.1-0.1-0.2c0-0.1-0.1-0.1-0.1-0.1H255
					c0,0-0.1,0-0.1,0.1c-0.1,0.1-0.1,0.1-0.1,0.1c0,0,0,0.1-0.1,0.2c0,0.1,0,0.2,0,0.2s0,0.1,0,0.3c0,0.1,0,0.3,0,0.5
					c0,0.2,0,0.3,0,0.5c0,0.1,0,0.2,0,0.3c0,0,0,0.1,0,0.2c0,0.1-0.1,0.2-0.1,0.3c0,0.1-0.1,0.2-0.1,0.4c0,0.1,0,0.3-0.1,0.3
					c0,0,0,0.1-0.1,0.1c0,0,0,0.1,0,0.1c-0.1,0.3-0.3,0.5-0.6,0.9c-0.3,0.3-0.6,0.6-1,1c-0.4,0.3-0.7,0.6-1.1,0.9
					c-0.4,0.3-0.7,0.6-1,0.8l-0.1,0.1c0,0,0,0.1,0,0.1c0,0.1-0.1,0.1-0.1,0.1v0.1c0,0.1,0,0.3,0,0.4c0,0.1,0,0.2,0,0.3
					c0,0.1,0.1,0.2,0.3,0.2c0.1,0,0.4,0.1,0.6,0c0.1,0,0.3-0.1,0.6-0.3c0.3-0.2,0.6-0.5,1-0.7c0.4-0.3,0.7-0.6,1.1-0.9
					c0.4-0.3,0.7-0.6,0.9-0.8c0,0,0,0.1,0.1,0.2c0,0.1,0.1,0.2,0.1,0.3c0,0.1,0.1,0.2,0.1,0.3c0,0.1,0,0.1,0,0.2c0,0,0,0.2,0,0.4
					c0,0.2,0.1,0.4,0.1,0.7c0,0.3,0.1,0.6,0.1,0.8c0,0.3,0.1,0.5,0.1,0.8v0.3c0,0,0,0,0,0c0,0-0.1,0.1-0.1,0.1c0,0-0.1,0-0.1,0.1
					c0,0-0.1,0.1-0.2,0.1c-0.1,0.1-0.1,0.1-0.2,0.2c-0.1,0-0.1,0.1-0.1,0.1c0,0-0.1,0.1-0.2,0.2c-0.1,0.1-0.2,0.1-0.2,0.2
					c-0.1,0.1-0.2,0.1-0.2,0.2c-0.1,0.1-0.1,0.1-0.1,0.1l-1.4,1.4c-0.1,0.1-0.2,0.2-0.3,0.3c-0.1,0.1-0.2,0.3-0.3,0.4
					c-0.1,0.1-0.2,0.3-0.3,0.4c-0.1,0.1-0.1,0.3-0.1,0.4c0,0.1-0.1,0.2-0.1,0.3c0,0.1,0,0.2,0,0.2v0.6c0.1,0.4,0.3,0.8,0.6,1.1
					C252.2,305.5,252.6,305.7,253,305.9z M253.5,304.2c0,0,0-0.1-0.1-0.2c0-0.1-0.1-0.2-0.1-0.2v-0.2c0-0.1,0-0.2,0.1-0.3
					c0-0.1,0.1-0.2,0.1-0.2c0,0,0.1-0.1,0.2-0.2c0.1-0.1,0.2-0.2,0.2-0.3c0-0.1,0.1-0.2,0.3-0.3c0.2-0.2,0.3-0.3,0.3-0.3
					c0,0,0.1-0.1,0.2-0.1c0.1-0.1,0.2-0.1,0.2-0.1c0,0,0.1-0.1,0.2-0.2c0.1-0.1,0.2-0.2,0.2-0.2c0,0,0.1-0.1,0.2-0.1
					c0.1,0,0.2-0.1,0.3-0.1c0,0.1,0,0.2,0,0.3c0,0.2,0,0.4,0,0.5c0,0.2,0,0.4,0,0.5c0,0.2,0,0.3,0,0.4c0,0.1,0,0.2,0,0.3
					c0,0.1-0.1,0.3-0.1,0.4c0,0.1-0.1,0.3-0.2,0.4c-0.1,0.1-0.1,0.2-0.2,0.3c-0.1,0.1-0.3,0.2-0.6,0.3c-0.3,0.1-0.5,0.1-0.6,0
					c0,0-0.1-0.1-0.3-0.1C253.6,304.2,253.5,304.2,253.5,304.2z M254.8,284.6c0.1,0,0.2,0.1,0.3,0.2c0.2,0.1,0.3,0.1,0.3,0.1
					c0,0,0.1,0,0.3,0c0.2,0,0.3-0.1,0.4-0.1c0,0,0,0,0.1,0c0,0,0.1-0.1,0.1-0.1c0,0,0.1-0.1,0.1-0.2c0.1-0.1,0.1-0.2,0.1-0.2
					c0,0,0.1-0.1,0.1-0.3c0-0.1,0-0.2,0-0.2s0-0.1,0-0.2c0-0.1-0.1-0.2-0.1-0.3c0,0-0.1-0.1-0.1-0.1c-0.1-0.1-0.1-0.1-0.1-0.1h-1.5
					c0,0-0.1,0-0.1,0.1c-0.1,0.1-0.1,0.1-0.1,0.1c0,0,0,0.1-0.1,0.1c0,0,0,0.1,0,0.1c0,0,0,0.1,0,0.2c0,0.2,0,0.2,0,0.3
					c0,0,0,0.1,0,0.1c0,0,0.1,0.1,0.1,0.1L254.8,284.6z"/>
				<path class="st5" d="M269.2,296.1l1.1,1.1c0.1,0.2,0.3,0.4,0.6,0.5c0.3,0.1,0.6,0.1,0.9,0.1c0.3,0,0.5,0,0.7,0
					c0.2,0,0.2,0,0.2,0c0,0,0.1-0.1,0.2-0.1c0.1-0.1,0.2-0.1,0.4-0.2c0.1-0.1,0.2-0.2,0.3-0.3c0.1-0.1,0.1-0.2,0.1-0.2
					c0.1,0,0.2-0.1,0.3-0.3c0.1-0.2,0.1-0.3,0.1-0.5c0-0.2-0.1-0.3-0.2-0.4c-0.1-0.1-0.4-0.1-0.8-0.1h-0.2c-0.1,0-0.2,0-0.3,0
					c0,0-0.1,0-0.3,0.1c-0.2,0.1-0.3,0.1-0.3,0.1c0,0-0.1,0-0.3-0.1c-0.2,0-0.4-0.1-0.6-0.2c-0.2-0.1-0.4-0.3-0.5-0.5
					c-0.1-0.2-0.2-0.5-0.1-0.8c0-0.5-0.1-0.9-0.1-1.3c0-0.4,0-0.7,0-1c0-0.3,0-0.7,0.1-1.1c0-0.4,0.1-0.8,0.1-1.3
					c0,0-0.1-0.1-0.1-0.2c-0.1-0.1-0.1-0.2-0.1-0.2c0,0-0.1-0.1-0.1-0.1c-0.1-0.1-0.1-0.1-0.1-0.1h-1.3c0,0,0,0,0,0
					c0,0-0.1,0.1-0.1,0.1c0,0-0.1,0.1-0.1,0.2c-0.1,0.1-0.1,0.2-0.1,0.2c0,0-0.1,0.1-0.1,0.3c0,0.1,0,0.2,0,0.2c0.1,0.4,0,1-0.1,1.6
					c-0.1,0.6-0.3,1.2-0.5,1.8c-0.2,0.6-0.5,1.1-0.8,1.6c-0.3,0.4-0.6,0.7-1,0.8c0,0-0.1,0.1-0.3,0.1c-0.1,0.1-0.2,0.1-0.2,0.1H265
					c0,0,0,0-0.1,0c0,0,0-0.1,0-0.1c0,0,0,0-0.1-0.1c0-0.1,0-0.1,0-0.1c0,0-0.1-0.2-0.1-0.4c0-0.2-0.1-0.3-0.1-0.4
					c0,0,0-0.1-0.1-0.3c0-0.1,0-0.2,0-0.2c0-0.1,0-0.3-0.1-0.5c0-0.2-0.1-0.4-0.1-0.6c0-0.2,0-0.4-0.1-0.6c0-0.2,0-0.3,0-0.3
					c0-0.1,0-0.3,0-0.5c0-0.2,0-0.5,0-0.7c0-0.3,0-0.5,0-0.7c0-0.2,0-0.4,0-0.5c0,0,0-0.1,0-0.2c0-0.1-0.1-0.2-0.1-0.2
					c0,0,0,0,0-0.1c0,0-0.1-0.1-0.1-0.1c0,0-0.1-0.1-0.3-0.1c-0.1-0.1-0.2-0.1-0.2-0.1h-0.1c-0.1,0-0.3,0-0.5,0.1
					c-0.2,0-0.3,0-0.3,0l-0.4,0.4c0,0.1,0,0.2,0,0.3c0,0.1,0,0.3,0,0.5c0,0.2,0,0.3,0,0.5c0,0.1,0,0.2,0,0.3c0,0,0,0.1,0,0.2
					c0,0.1,0,0.3,0,0.6c0,0.3,0,0.7,0.1,1.2c0.1,0.5,0.2,1.2,0.3,2.1c0,0.1,0.1,0.2,0.1,0.4c0.1,0.2,0.1,0.3,0.1,0.4
					c0,0,0,0.1,0,0.2c0,0.1,0.1,0.2,0.1,0.3c0,0.1,0.1,0.2,0.1,0.3c0,0.1,0.1,0.1,0.1,0.1c0,0.1,0,0.2,0.1,0.3
					c0.1,0.3,0.3,0.5,0.6,0.6c0.3,0.1,0.7,0.1,1.1,0.1c0.4,0,0.8-0.1,1.2-0.2c0.4-0.1,0.7-0.2,0.9-0.2c0,0,0.2-0.2,0.4-0.4
					c0.2-0.2,0.4-0.4,0.6-0.7c0.2-0.3,0.4-0.5,0.6-0.7c0.2-0.2,0.3-0.3,0.4-0.4c0,0,0.1,0,0.1,0c0.1,0,0.1,0,0.1,0
					c0,0,0.1,0.1,0.1,0.2C269.2,295.9,269.2,296,269.2,296.1z"/>
				<path class="st5" d="M275.9,306c-0.4-0.4-0.7-0.9-0.9-1.5c-0.2-0.6-0.2-1.1-0.1-1.7c0.2-0.7,0.5-1.4,0.9-1.9
					c0.4-0.6,0.8-1.2,1.3-1.7c0,0,0.1-0.1,0.1-0.1c0.1-0.1,0.1-0.1,0.1-0.1c0.1-0.1,0.2-0.2,0.3-0.4c0.1-0.2,0.2-0.3,0.3-0.4
					c0.1-0.1,0.1-0.2,0.1-0.2v-0.1c0,0,0,0,0,0c0,0-0.1,0-0.1,0c-0.6,0.3-1.1,0.5-1.5,0.4c-0.4-0.1-0.8-0.3-1.1-0.6
					c-0.3-0.3-0.5-0.8-0.7-1.3c-0.2-0.5-0.2-1-0.2-1.6c0-0.5,0.1-1.1,0.2-1.6c0.2-0.5,0.4-0.9,0.8-1.2c0.1-0.1,0.2-0.2,0.3-0.3
					c0.2-0.1,0.3-0.2,0.3-0.2c0,0,0.1-0.1,0.3-0.2c0.2-0.1,0.4-0.2,0.4-0.2c0.1,0,0.2-0.1,0.3-0.1c0.2-0.1,0.3-0.1,0.3-0.1
					c0,0,0.1,0,0.3,0c0.1,0,0.3-0.1,0.5-0.1c0.2,0,0.3-0.1,0.5-0.1c0.1,0,0.2,0,0.3,0c0,0,0,0,0.1-0.1c0,0,0-0.1,0-0.1
					c0,0,0.1-0.1,0.2-0.2c0.1-0.1,0.2-0.2,0.2-0.3c0,0,0,0,0.1,0c0,0,0-0.1,0-0.1c0,0,0.1-0.1,0.2-0.1c0.1-0.1,0.2-0.1,0.2-0.1
					c0,0,0.1-0.1,0.1-0.1c0.1,0,0.1,0,0.1,0h0.7c0,0,0.1,0,0.1,0.1c0.1,0,0.1,0,0.1,0.1c0,0,0.1,0.1,0.1,0.2
					c0.1,0.1,0.1,0.1,0.1,0.2c0,0,0,0.2,0,0.4v0.6v0.6c0,0.2,0,0.4,0,0.4c0,0,0,0.2-0.1,0.4c0,0.2-0.1,0.4-0.1,0.6
					c0,0.2-0.1,0.4-0.1,0.6c0,0.2,0,0.3,0,0.3v0.4c0,0.2,0,0.4,0,0.7c0,0.3,0,0.5,0,0.7v0.4c0-0.1,0.2-0.2,0.3-0.2
					c0.2-0.1,0.3-0.1,0.5-0.2c0.2,0,0.4-0.1,0.6-0.1c0.2-0.1,0.3-0.1,0.4-0.2c0,0,0.1,0,0.2-0.1c0.1-0.1,0.2-0.1,0.2-0.1
					c0,0,0.1-0.1,0.2-0.1c0.1-0.1,0.2-0.2,0.4-0.3c0.1-0.1,0.2-0.2,0.4-0.3c0.1-0.1,0.2-0.2,0.2-0.2c0,0,0.1,0,0.1-0.1
					c0.1,0,0.1-0.1,0.2-0.1c0.1,0,0.2-0.1,0.3-0.2c0.1-0.1,0.2-0.1,0.2-0.1c0,0,0.1,0,0.2,0c0.1,0,0.2,0.1,0.2,0.1
					c0.1,0,0.1,0.1,0.2,0.3c0.1,0.1,0.2,0.2,0.2,0.2c0,0,0,0.1-0.1,0.3c0,0.2-0.1,0.3-0.1,0.3c0,0,0,0-0.1,0.1
					c-0.1,0.1-0.2,0.1-0.2,0.2c-0.1,0.2-0.4,0.4-0.8,0.6c-0.4,0.2-0.8,0.5-1.2,0.7c-0.4,0.2-0.7,0.4-1.1,0.6
					c-0.3,0.2-0.5,0.2-0.5,0.2c0,0-0.1,0.1-0.3,0.1c-0.2,0.1-0.3,0.1-0.3,0.1c0,0-0.1,0-0.3,0c-0.1,0-0.2,0.1-0.3,0.1
					c0,0-0.1,0.1-0.1,0.2c0,0.1,0,0.2,0,0.2c0,0.1,0,0.3,0,0.6c0,0.3,0,0.6,0,0.9c0,0.3,0,0.6,0,0.9c0,0.3,0,0.5,0,0.6v0.4v0.8v0.7
					v0.5c0,0,0,0.1,0,0.3c0,0.2,0,0.4-0.1,0.4c0,0,0,0.1,0,0.2c0,0.1-0.1,0.2-0.1,0.2c0,0.1-0.1,0.2-0.1,0.4
					c-0.1,0.2-0.1,0.3-0.1,0.3c0,0.1-0.1,0.2-0.2,0.3c-0.1,0.2-0.2,0.3-0.3,0.3c0,0-0.1,0.1-0.3,0.2c-0.1,0.1-0.3,0.2-0.3,0.2
					c0,0-0.1,0-0.2,0.1c-0.1,0-0.2,0-0.2,0h-1L275.9,306z M277.6,304.9c0,0,0.1,0.1,0.1,0.1c0.1,0,0.1,0,0.1,0c0,0,0.1,0,0.2,0
					c0.1,0,0.2,0,0.2,0c0.1,0,0.2,0,0.2,0c0.1,0,0.1,0,0.1,0c0,0,0.1-0.1,0.1-0.2c0.1-0.1,0.1-0.2,0.1-0.3c0,0,0-0.1,0.1-0.3
					c0-0.1,0-0.2,0-0.2c0,0,0-0.1,0.1-0.2c0-0.1,0-0.1,0-0.2c0-0.1,0-0.3,0-0.6c0-0.3,0-0.6,0-0.9c0-0.3,0-0.6,0-0.9
					c0-0.3,0-0.5,0-0.6v-0.2c0,0,0-0.1-0.1-0.1c0-0.1-0.1-0.1-0.1-0.1h-0.2c0,0-0.1,0-0.1,0c0,0-0.1,0.1-0.1,0.1
					c0,0-0.1,0.1-0.1,0.1c-0.1,0.1-0.1,0.1-0.1,0.1c0,0,0,0.1-0.1,0.1c0,0.1,0,0.1,0,0.1c0,0-0.1,0.1-0.2,0.3
					c-0.1,0.2-0.2,0.3-0.2,0.3c0,0-0.1,0.1-0.1,0.2c-0.1,0.1-0.1,0.2-0.1,0.2c0,0,0,0.1,0,0.1c0,0.1-0.1,0.1-0.1,0.1
					c0,0,0,0.1-0.1,0.1c0,0.1-0.1,0.1-0.1,0.2c0,0.1-0.1,0.1-0.1,0.2c0,0.1-0.1,0.1-0.1,0.1v1.7c0,0,0,0.1,0.1,0.2
					c0.1,0.1,0.1,0.2,0.2,0.2c0,0,0.1,0.1,0.1,0.1C277.5,304.8,277.5,304.9,277.6,304.9z M276.3,295.8c0,0.1,0.1,0.1,0.1,0.2
					c0.1,0.1,0.1,0.1,0.1,0.1c0,0,0.1,0,0.2,0c0.1,0,0.2,0,0.3,0c0,0,0.1,0,0.1,0c0.1,0,0.1-0.1,0.1-0.1l1-1
					c0.1-0.1,0.2-0.2,0.3-0.3c0.1-0.2,0.2-0.3,0.2-0.3c0,0,0.1-0.2,0.1-0.4c0.1-0.2,0.1-0.3,0.1-0.4c0,0,0-0.1,0-0.3
					c0-0.2,0-0.3,0-0.3c0-0.1,0-0.2-0.1-0.3c-0.1-0.1-0.2-0.2-0.2-0.2c0,0-0.1-0.1-0.2-0.1c-0.1,0-0.2-0.1-0.2-0.1h-0.5
					c0,0-0.1,0.1-0.3,0.1c-0.1,0.1-0.2,0.1-0.2,0.1c0,0-0.1,0.1-0.2,0.2c-0.1,0.1-0.2,0.2-0.3,0.3c-0.1,0.1-0.2,0.2-0.3,0.3
					c-0.1,0.1-0.1,0.2-0.2,0.2c0,0.1-0.1,0.2-0.1,0.4c0,0.2,0,0.3,0,0.4v1.1c0,0,0,0,0,0.1C276.2,295.7,276.3,295.8,276.3,295.8z"/>
				<path class="st5" d="M289.6,297.5c0,0,0.1-0.1,0.3-0.1c0.2-0.1,0.3-0.1,0.3-0.1c0,0,0.1,0,0.2,0c0.1,0,0.2-0.1,0.3-0.1
					c0,0,0.1-0.1,0.1-0.1c0.1-0.1,0.1-0.1,0.1-0.1c0,0,0-0.1,0.1-0.2c0-0.1,0.1-0.2,0.1-0.3c0,0,0-0.1,0.1-0.2
					c0.1-0.1,0.1-0.2,0.1-0.2c0,0,0.1,0,0.1,0c0.1,0,0.1,0,0.1,0c0.3,0.2,0.6,0.4,0.9,0.6c0.3,0.2,0.6,0.4,0.9,0.6
					c0.3,0.1,0.6,0.2,1,0.3c0.3,0,0.7,0,1.2-0.1c0,0,0.1,0,0.1,0c0.1,0,0.1,0,0.1,0c0,0,0.1-0.1,0.2-0.1c0.1,0,0.2-0.1,0.2-0.1
					c0,0,0-0.1,0-0.1c0-0.1,0-0.2,0-0.2c0-0.1,0.1-0.2,0.1-0.2c0-0.1,0-0.1,0-0.1c0,0-0.1-0.1-0.1-0.1c0,0-0.1-0.1-0.1-0.1
					c0-0.1-0.1-0.2-0.2-0.4c-0.1-0.2-0.1-0.3-0.2-0.3c0,0-0.1,0-0.1,0c-0.1,0-0.1,0-0.2,0.1c-0.1,0-0.2,0.1-0.2,0.1
					c-0.1,0-0.1,0-0.1,0l-0.8,0c0,0-0.1,0-0.2-0.1c-0.1-0.1-0.3-0.2-0.4-0.3c-0.1-0.1-0.3-0.2-0.4-0.3c-0.1-0.1-0.2-0.1-0.2-0.1
					c-0.2-0.1-0.3-0.2-0.4-0.4c-0.1-0.2-0.2-0.4-0.3-0.6c0,0,0-0.1-0.1-0.3c0-0.1,0-0.2,0-0.2V293v-1.5v-0.5c0,0,0-0.1,0-0.2
					c0-0.1,0-0.3-0.1-0.5c0-0.2,0-0.3-0.1-0.5c0-0.2-0.1-0.3-0.1-0.4c0,0,0-0.1-0.1-0.1c0-0.1,0-0.1-0.1-0.1c0-0.1-0.1-0.2-0.3-0.3
					c-0.1-0.1-0.2-0.2-0.2-0.2c-0.1,0-0.3,0-0.5,0c-0.2,0-0.3,0-0.4,0c0,0-0.1,0.1-0.1,0.1c-0.1,0.1-0.1,0.2-0.2,0.3
					c-0.1,0.1-0.1,0.2-0.1,0.2c0,0,0,0.1,0,0.1c0,0.1,0,0.2-0.1,0.3c0,0.1,0,0.2-0.1,0.2c0,0.1,0,0.1,0,0.1c0,0-0.1,0-0.3,0
					c-0.2,0-0.3,0.1-0.5,0.1h-0.2c0,0-0.1,0-0.2,0c-0.1,0-0.2,0.1-0.3,0.1c-0.3,0.1-0.5,0.2-0.8,0.3c-0.2,0.1-0.4,0.1-0.6,0.2
					c-0.2,0.1-0.4,0.2-0.6,0.3c-0.2,0.1-0.4,0.3-0.6,0.5c0,0-0.1,0-0.1,0.1c0,0,0,0,0,0c0,0-0.1,0.1-0.1,0.3c0,0.1-0.1,0.2-0.1,0.2
					l-0.4,1.1c0.1,0.6,0.2,1.1,0.3,1.5c0.1,0.4,0.2,0.7,0.3,0.9c0.1,0.2,0.2,0.5,0.4,0.6c0.1,0.2,0.3,0.4,0.5,0.6
					c0.4,0.1,0.9,0.3,1.3,0.4C288.3,297.6,288.9,297.6,289.6,297.5z M287.7,295.9c-0.3-0.2-0.5-0.4-0.6-0.6
					c-0.1-0.2-0.1-0.5-0.1-0.8c0-0.1,0-0.3,0-0.5c0-0.2,0-0.4,0-0.6c0-0.2,0-0.4,0.1-0.5c0-0.2,0.1-0.3,0.2-0.4c0,0,0.1-0.1,0.3-0.2
					c0.1-0.1,0.3-0.2,0.4-0.3c0.2-0.1,0.3-0.2,0.5-0.3c0.2-0.1,0.3-0.1,0.4-0.1c0,0,0.1,0,0.3,0c0.2,0,0.3-0.1,0.4-0.1h0.4
					c0,0,0.1,0,0.1,0.1c0.1,0.1,0.1,0.2,0.1,0.3c0,0,0,0.1,0.1,0.2c0,0.1,0.1,0.2,0.1,0.4c0,0.1,0.1,0.2,0.1,0.4
					c0,0.1,0.1,0.2,0.1,0.2c0,0.4-0.1,0.8-0.2,1.3c-0.1,0.4-0.3,0.8-0.5,1.2c-0.2,0.3-0.5,0.6-0.9,0.7
					C288.6,296.1,288.2,296.1,287.7,295.9z"/>
				<path class="st5" d="M300.4,297.4V297c0,0,0-0.1,0-0.2c0-0.1,0.1-0.2,0.1-0.2c0,0,0-0.1,0-0.3c0-0.2,0-0.3,0-0.3
					c0-0.4-0.1-0.8-0.1-1.2c0-0.4-0.1-0.8-0.2-1.1c-0.1-0.1-0.2-0.3-0.2-0.5c-0.1-0.2-0.1-0.3-0.2-0.4c0,0-0.1,0-0.1-0.1
					c-0.1,0-0.1,0-0.1,0c0,0-0.1,0-0.1,0c-0.1,0-0.1,0.1-0.1,0.1c0,0-0.1,0.1-0.2,0.2c-0.1,0.1-0.2,0.2-0.2,0.3
					c0,0.1-0.1,0.2-0.2,0.3c-0.1,0.2-0.2,0.3-0.2,0.3c0,0-0.1,0.1-0.1,0.2c-0.1,0.1-0.2,0.3-0.3,0.5c-0.1,0.2-0.2,0.4-0.3,0.6
					c-0.1,0.2-0.2,0.4-0.3,0.6c-0.1,0.3-0.2,0.4-0.2,0.4c0,0-0.1,0.1-0.2,0.2c-0.1,0.1-0.2,0.1-0.2,0.2c0,0-0.1,0.1-0.2,0.3
					c-0.1,0.1-0.2,0.2-0.2,0.2c0,0-0.1,0.1-0.3,0.1c-0.2,0-0.3,0.1-0.4,0.1c0,0-0.1,0-0.2,0c-0.1,0-0.2,0-0.2,0h-0.3
					c-0.2,0-0.3,0-0.3,0c0,0,0-0.1,0-0.2c0-0.1,0-0.2,0-0.2c0,0,0-0.1,0-0.2c0-0.1,0-0.2,0-0.2c0-0.1,0.1-0.2,0.2-0.4
					c0.1-0.2,0.2-0.3,0.2-0.4c0,0,0.1,0,0.1-0.1c0,0,0.1,0,0.1,0c0,0,0.1-0.1,0.2-0.1c0.1-0.1,0.1-0.1,0.1-0.1c0,0,0.1-0.2,0.2-0.4
					c0.1-0.3,0.3-0.6,0.5-0.9c0.2-0.3,0.3-0.6,0.4-0.9c0.1-0.3,0.2-0.4,0.2-0.5c0,0,0-0.1,0-0.1c0-0.1,0.1-0.1,0.1-0.2
					c0-0.1,0.1-0.1,0.1-0.2c0-0.1,0.1-0.1,0.1-0.1c0,0,0-0.1,0.1-0.1c0-0.1,0.1-0.1,0.1-0.1c0,0,0.1-0.1,0.2-0.2
					c0.1-0.1,0.2-0.2,0.3-0.3c0,0,0,0,0.1-0.1c0.1,0,0.1,0,0.1,0c0,0,0.1-0.1,0.2-0.1c0.1-0.1,0.2-0.1,0.2-0.1l0.2-0.1
					c0.1,0,0.2,0,0.3,0c0.1,0,0.3,0,0.4,0c0.1,0,0.3,0,0.4,0c0.1,0,0.2,0,0.2,0c0,0,0.1,0.1,0.3,0.2c0.2,0.1,0.3,0.2,0.5,0.3
					c0,0,0.1,0.1,0.2,0.2c0.1,0.1,0.2,0.2,0.3,0.2h0.4c0,0,0.1,0,0.2,0c0.1,0,0.2-0.1,0.2-0.1c0,0,0.1,0,0.1-0.1
					c0.1,0,0.1-0.1,0.1-0.1c0,0,0.1,0,0.2-0.1c0.1,0,0.2-0.1,0.3-0.1c0.1,0,0.2-0.1,0.3-0.1c0.1,0,0.2,0,0.2,0c0,0,0.1,0,0.2,0
					c0.2,0,0.2,0,0.3,0c0,0,0.1,0,0.2,0c0.1,0,0.2,0.1,0.2,0.1c0,0,0.1,0,0.1,0.1c0.1,0,0.1,0,0.1,0l0.5,0.5c0,0,0.1,0.1,0.1,0.3
					c0.1,0.1,0.1,0.2,0.1,0.2c0,0,0,0.1,0.1,0.3c0.1,0.3,0.2,0.5,0.3,0.7c0.1,0.2,0.2,0.4,0.3,0.6c0.1,0.2,0.2,0.4,0.3,0.6
					c0.1,0.2,0.3,0.4,0.4,0.6c0,0,0,0.1,0,0.2c0,0.1,0.1,0.1,0.1,0.2c0,0,0.1,0,0.2,0.1c0.1,0,0.2,0.1,0.3,0.1
					c0.1,0,0.2,0.1,0.4,0.1c0.1,0,0.2,0,0.2,0c0,0,0.1,0,0.3,0c0.2,0,0.3-0.1,0.3-0.1c0,0,0.1,0,0.2,0c0.1,0,0.2,0,0.2,0
					c0,0,0.1,0.1,0.1,0.2c0,0.1,0.1,0.1,0.1,0.1c0,0,0,0.1-0.1,0.3c0,0.2-0.1,0.3-0.1,0.3c0,0,0,0-0.1,0.1c0,0-0.1,0.1-0.1,0.1
					c0,0,0,0-0.1,0.1c-0.1,0-0.1,0.1-0.2,0.1c0,0-0.1,0.1-0.2,0.1c-0.1,0-0.1,0-0.2,0.1c-0.1,0-0.2,0.1-0.2,0.1c-0.1,0-0.1,0-0.1,0
					c0,0-0.1,0-0.3,0c-0.1,0-0.2,0-0.3,0c-0.1,0-0.2,0-0.3-0.1c-0.1,0-0.3-0.1-0.4-0.1c-0.2,0-0.3-0.1-0.4-0.1
					c-0.1,0-0.2-0.1-0.3-0.1c0,0-0.1-0.1-0.2-0.2c-0.1-0.1-0.2-0.2-0.2-0.2c0,0,0,0,0-0.1c0,0,0-0.1,0-0.1c-0.2-0.2-0.4-0.5-0.5-0.8
					c-0.1-0.3-0.3-0.6-0.4-0.9c-0.1-0.3-0.3-0.6-0.4-0.9c-0.2-0.3-0.4-0.5-0.6-0.7c0,0-0.1,0-0.2,0c-0.1,0-0.2,0-0.2,0
					c0,0-0.1,0-0.1,0c0,0-0.1,0.1-0.1,0.1c0,0,0,0.1-0.1,0.2c-0.1,0.1-0.1,0.2-0.1,0.2c0,0-0.1,0.1-0.1,0.1c0,0.1,0,0.1,0,0.1
					c0,0.1-0.1,0.2-0.1,0.5c0,0.3,0,0.6,0,0.9v0.4v0.2c0,0,0,0.1-0.1,0.2c-0.1,0.1-0.1,0.2-0.1,0.3c0,0,0,0-0.1,0.1c0,0,0,0,0,0
					c0.1,0.1,0.1,0.2,0,0.3c-0.1,0.1-0.2,0.2-0.3,0.3c-0.1,0.1-0.3,0.2-0.5,0.3c-0.2,0.1-0.3,0.1-0.5,0.1h-0.3c0,0,0-0.1-0.1-0.1
					C300.5,297.4,300.5,297.4,300.4,297.4z"/>
				<path class="st5" d="M317.8,297.5c0,0-0.1,0-0.1,0c-0.1,0-0.1-0.1-0.2-0.1c-0.1,0-0.2-0.1-0.3-0.1c-0.1,0-0.2-0.1-0.2-0.1
					c0,0-0.1,0-0.1-0.1c-0.1,0-0.1,0-0.1,0c-0.3-0.1-0.5-0.2-0.6-0.3c-0.1-0.1-0.2-0.2-0.3-0.3c-0.1-0.1-0.2-0.2-0.2-0.4
					c-0.1-0.1-0.2-0.3-0.3-0.5h-0.3c0,0-0.1,0.1-0.1,0.1c0,0.1-0.1,0.1-0.1,0.1c0,0-0.1,0.1-0.2,0.3c-0.1,0.1-0.2,0.2-0.2,0.2
					c-0.6,0.7-1.2,1.1-1.8,1.2c-0.6,0.1-1.2,0.1-1.8-0.2c-0.5-0.3-1-0.7-1.3-1.2c-0.3-0.5-0.5-1.2-0.5-1.8v-0.7c0,0,0-0.2,0-0.4
					c0-0.2,0.1-0.3,0.1-0.4c0,0,0-0.1,0-0.2c0-0.1,0.1-0.2,0.1-0.2c0,0,0.1-0.1,0.1-0.3c0.1-0.1,0.1-0.2,0.1-0.2
					c0,0,0.1-0.1,0.2-0.2c0.1-0.1,0.2-0.2,0.2-0.3l0.4-0.4c0,0,0.1-0.1,0.2-0.1c0.1-0.1,0.2-0.1,0.3-0.1c0.1-0.1,0.3-0.1,0.5-0.1
					c0.2,0,0.4,0,0.6,0c0.2,0,0.4,0,0.6,0.1c0.2,0,0.4,0,0.6,0h0.9v-0.4c0-0.3-0.1-0.6-0.1-0.9c0-0.4,0-0.8-0.1-1.2
					c0-0.5-0.1-1-0.2-1.6c-0.1-0.6-0.2-1.3-0.4-2.1c0,0,0-0.1,0-0.1c0-0.1,0.1-0.1,0.1-0.1l0.1-0.1c0,0,0.1,0,0.2-0.1s0.2,0,0.2,0
					c0,0,0.2,0,0.4,0c0.2,0,0.3,0,0.4,0c0.1,0,0.2,0,0.2,0.1c0.1,0.1,0.2,0.2,0.3,0.3c0,0,0,0.1,0.1,0.1c0,0.1,0,0.1,0,0.1v0.4
					c0,0,0,0.1,0,0.2c0,0.1,0.1,0.2,0.1,0.2c0,0,0,0.1,0.1,0.3c0,0.1,0.1,0.2,0.1,0.2c0,0,0,0.1,0,0.2c0,0.1,0.1,0.2,0.1,0.2
					c0,0.1,0,0.2,0.1,0.4c0,0.2,0.1,0.3,0.1,0.4c0,0.1,0,0.2,0,0.2v0.4v0.6v0.6v0.3c0,0.1,0,0.2,0,0.4c0,0.2,0,0.3,0,0.5
					c0,0.2,0,0.4,0,0.6c0,0.2,0,0.3,0,0.3c0,0,0.1,0.1,0.1,0.2c0.1,0.1,0.1,0.2,0.1,0.3c0,0.2,0,0.4,0,0.6c0,0.2,0.1,0.4,0.2,0.6
					c0.1,0.2,0.2,0.4,0.3,0.6c0.1,0.2,0.2,0.5,0.4,0.8c0.1,0.3,0.3,0.5,0.5,0.8c0.2,0.2,0.5,0.5,1,0.9c0.1,0,0.3,0,0.5,0
					s0.4,0,0.5,0c0,0,0.1-0.1,0.3-0.1c0.2-0.1,0.3-0.2,0.5-0.3c0.2-0.1,0.4-0.2,0.5-0.3c0.2-0.1,0.3-0.2,0.3-0.2c0,0,0.1,0,0.2,0
					c0.1,0,0.1,0,0.2,0c0,0,0.1,0.1,0.2,0.1c0.1,0,0.2,0,0.2,0c0,0,0,0.1,0.1,0.1c0.1,0.1,0.1,0.1,0.1,0.2c0,0.2,0,0.3-0.2,0.6
					c-0.1,0.2-0.3,0.4-0.5,0.6c-0.2,0.2-0.4,0.4-0.6,0.5c-0.2,0.2-0.4,0.3-0.5,0.4c-0.1,0-0.2,0.1-0.3,0.1c-0.1,0-0.2,0.1-0.4,0.1
					c-0.1,0-0.2,0.1-0.3,0.1c-0.1,0-0.2,0-0.2,0h-0.5c-0.1,0-0.2,0-0.3,0C318,297.6,317.9,297.5,317.8,297.5z M311.2,295.4
					c0,0,0.1,0.1,0.2,0.2c0.1,0.1,0.2,0.2,0.2,0.2c0,0,0,0,0.1,0c0.1,0,0.1,0,0.1,0c0.1,0,0.2-0.1,0.3-0.1c0.1-0.1,0.2-0.1,0.2-0.1
					c0,0,0.1-0.1,0.1-0.1c0.1-0.1,0.2-0.2,0.2-0.3c0.1-0.1,0.2-0.2,0.2-0.3c0.1-0.1,0.1-0.2,0.2-0.2c0.1-0.1,0.1-0.3,0.2-0.4
					c0.1-0.1,0.1-0.2,0.1-0.3c0-0.1,0-0.2,0-0.2c0,0,0-0.1,0-0.1c0-0.1-0.1-0.1-0.1-0.1c0,0-0.1-0.1-0.2-0.1
					c-0.1-0.1-0.2-0.1-0.2-0.1c0,0,0-0.1-0.1-0.1c0-0.1,0-0.1,0-0.1c0,0,0-0.1,0-0.1c0-0.1,0.1-0.1,0.1-0.1c0,0,0,0,0-0.1
					c0,0,0,0,0,0c0,0,0,0,0-0.1c0,0-0.1-0.1-0.1-0.1c-0.1,0-0.2,0-0.3-0.1c-0.1-0.1-0.2-0.1-0.3-0.1c0,0-0.1,0-0.2,0
					c-0.1,0-0.2,0-0.2,0c0,0-0.1,0-0.3,0c-0.1,0-0.2,0.1-0.2,0.1c0,0,0,0-0.1,0c0,0,0,0.1,0,0.1c0,0-0.1,0.1-0.1,0.2
					c-0.1,0.1-0.1,0.2-0.1,0.2c0,0,0,0.1-0.1,0.3c0,0.1,0,0.2,0,0.2c0,0,0,0.1,0,0.2c0,0.1,0,0.2,0,0.4c0,0.1,0,0.2,0,0.3
					c0,0.1,0,0.2,0,0.2c0,0,0,0.1,0,0.1c0,0.1,0.1,0.1,0.1,0.1c0,0.1,0.1,0.2,0.2,0.4C311.2,295.3,311.2,295.4,311.2,295.4z"/>
				<path class="st5" d="M328,295c-0.1,0.6-0.4,1.1-0.7,1.5c-0.3,0.4-0.7,0.7-1.2,0.9c-0.4,0.2-0.9,0.3-1.4,0.3c-0.5,0-1,0-1.5-0.1
					c0,0,0-0.1-0.1-0.1c0,0-0.1-0.1-0.3-0.1c-0.1-0.1-0.2-0.1-0.2-0.1c0,0-0.1-0.1-0.2-0.2c-0.1-0.1-0.2-0.2-0.3-0.3
					c0,0-0.1-0.1-0.2-0.2c-0.1-0.1-0.2-0.2-0.2-0.3c0,0-0.1-0.1-0.2-0.2c-0.1-0.1-0.1-0.1-0.1-0.1c0,0,0-0.1-0.1-0.2
					c0-0.1-0.1-0.2-0.1-0.3c0-0.1-0.1-0.2-0.1-0.3c0-0.1-0.1-0.2-0.1-0.2c0,0,0-0.1,0-0.1c0-0.1,0-0.2,0-0.3c0-0.1,0-0.2,0-0.3
					c0-0.1,0-0.2,0-0.2v-0.2c0,0,0-0.1,0-0.2c0-0.1,0-0.2,0-0.3c0-0.1,0-0.2,0-0.3c0-0.1,0-0.2,0-0.2c0,0,0-0.1,0-0.2
					c0-0.1,0.1-0.2,0.1-0.3c0,0,0-0.1,0.1-0.3c0.1-0.1,0.2-0.3,0.3-0.4c0-0.1,0.1-0.2,0.2-0.3c0.1-0.1,0.2-0.2,0.2-0.2
					c0.1,0,0.2,0,0.3-0.1c0.1-0.1,0.2-0.1,0.4-0.1c0,0,0.1,0,0.2,0c0.1,0,0.2,0,0.3,0c0.1,0,0.2,0,0.3,0c0.1,0,0.2,0,0.2,0
					c0,0,0.1,0,0.2,0c0.1,0,0.2,0,0.4,0h0.4h0.2c0.1,0,0.2,0,0.4,0.1c0.2,0,0.3,0,0.4,0c0.4,0.1,0.7,0.3,1.1,0.6
					c0.4,0.3,0.7,0.6,1,1c0.3,0.4,0.5,0.8,0.6,1.2c0.1,0.4,0.1,0.8,0,1.2L328,295z M323.6,295.8c0.2,0.3,0.5,0.5,0.8,0.5
					c0.3,0,0.6-0.1,0.9-0.2c0.3-0.2,0.5-0.4,0.7-0.8c0.2-0.3,0.3-0.7,0.3-1c0-0.4-0.1-0.8-0.4-1.1c-0.2-0.4-0.7-0.7-1.3-0.9
					c0,0-0.1,0-0.3,0c-0.2,0-0.3,0-0.4,0c0,0-0.1,0-0.3,0.1c-0.1,0-0.2,0.1-0.2,0.1c-0.1,0.1-0.2,0.2-0.4,0.4
					c-0.2,0.1-0.2,0.2-0.2,0.3l-0.1,1.6c0,0,0,0.1,0.1,0.3c0.1,0.2,0.1,0.3,0.1,0.4c0,0,0,0.1,0.1,0.1c0,0.1,0.1,0.1,0.1,0.1
					c0,0,0.1,0.1,0.2,0.2C323.5,295.7,323.6,295.7,323.6,295.8z"/>
			</g>
			<g>
				<path class="st5" d="M257.6,273.3c-0.6,0.2-1.1,0.3-1.6,0.2c-0.5-0.1-0.9-0.4-1.3-0.7c-0.4-0.4-0.7-0.8-1-1.3
					c-0.3-0.5-0.5-1-0.7-1.6c-0.2-0.6-0.4-1.1-0.5-1.6c-0.1-0.5-0.2-1-0.3-1.4c0-0.1,0-0.2-0.1-0.4c0-0.2,0-0.3,0-0.4
					c0,0,0-0.2,0-0.3c0-0.2,0-0.3,0-0.6c0-0.2,0-0.4,0-0.6c0-0.2,0-0.3,0-0.4v-0.5c0-1.1,0.1-2.2,0.4-3.1c0.2-0.9,0.6-1.8,1.2-2.7
					c0.3-0.4,0.5-0.6,0.7-0.8c0.2-0.2,0.6-0.2,1-0.2h0.2c0.3,0.2,0.6,0.3,1,0.5c0.3,0.1,0.6,0.3,0.8,0.7c0.1,0.1,0.2,0.2,0.2,0.4
					c0.1,0.2,0.2,0.4,0.2,0.6c0.1,0.2,0.1,0.4,0.2,0.6c0,0.2,0.1,0.3,0.1,0.5c0,1.1-0.1,2.1-0.4,3.1c-0.2,1-0.5,2-0.9,3.1
					c0,0-0.1,0.2-0.2,0.3c-0.1,0.2-0.2,0.4-0.3,0.6c-0.1,0.2-0.2,0.4-0.3,0.6c-0.1,0.2-0.2,0.4-0.2,0.5c0,0,0,0.1-0.1,0.1
					c0,0.1-0.1,0.1-0.2,0.2c0,0.1-0.1,0.2-0.1,0.2c0,0.1-0.1,0.1-0.1,0.1c0,0,0,0.1-0.1,0.1c0,0.1-0.1,0.1-0.1,0.1v0.1
					c0,0.1,0,0.2,0.1,0.3c0,0.1,0.1,0.2,0.1,0.2c0.1,0.6,0.3,1,0.6,1.2c0.3,0.2,0.6,0.4,0.9,0.4c0.4,0,0.7-0.1,1.1-0.4
					c0.4-0.3,0.8-0.6,1.2-1h0.3c0,0,0.1,0,0.1,0.1c0.1,0,0.1,0.1,0.1,0.1c0,0,0.1,0.1,0.2,0.2c0.1,0.1,0.2,0.2,0.2,0.2l0.4,0.7
					c0,0-0.1,0.2-0.2,0.4c-0.2,0.2-0.4,0.4-0.6,0.7c-0.3,0.2-0.6,0.5-0.9,0.7C258.3,273.2,258,273.3,257.6,273.3z M254.1,266.7
					c0,0,0.1,0.1,0.1,0.1c0.1,0,0.1,0.1,0.1,0.1c0.3-0.5,0.5-1,0.7-1.5c0.2-0.5,0.4-1,0.6-1.5c0.2-0.5,0.3-1,0.4-1.5
					c0.1-0.5,0.1-1,0.1-1.5c0-0.4-0.1-0.6-0.1-0.8c0-0.2-0.1-0.3-0.1-0.5c0-0.1-0.1-0.2-0.1-0.3c0-0.1-0.1-0.3-0.2-0.5
					c0,0,0,0,0-0.1c0,0-0.1,0-0.1,0c0,0-0.1,0-0.2,0c-0.2,0-0.3,0.1-0.4,0.3c0,0-0.1,0.1-0.1,0.2c0,0.1-0.1,0.2-0.1,0.3
					c0,0.1-0.1,0.2-0.1,0.3c0,0.1-0.1,0.2-0.1,0.2c0,0,0,0.1,0,0.2c0,0.1,0,0.2-0.1,0.3c0,0.1-0.1,0.2-0.1,0.3c0,0.1,0,0.2,0,0.2
					c0,0,0,0.2-0.1,0.4c0,0.2,0,0.3,0,0.4c0,0,0,0.1-0.1,0.3c0,0.1,0,0.2,0,0.3v3.6c0,0,0,0.2,0.1,0.4
					C254,266.5,254,266.6,254.1,266.7z"/>
				<path class="st5" d="M262.7,273.5c0,0,0.1-0.1,0.3-0.1c0.2-0.1,0.3-0.1,0.3-0.1c0,0,0.1,0,0.2,0c0.1,0,0.2-0.1,0.3-0.1
					c0,0,0.1-0.1,0.1-0.1c0.1-0.1,0.1-0.1,0.1-0.1c0,0,0-0.1,0.1-0.2c0-0.1,0.1-0.2,0.1-0.3c0,0,0-0.1,0.1-0.2
					c0.1-0.1,0.1-0.2,0.1-0.2c0,0,0.1,0,0.1,0c0.1,0,0.1,0,0.1,0c0.3,0.2,0.6,0.4,0.9,0.6c0.3,0.2,0.6,0.4,0.9,0.6
					c0.3,0.1,0.6,0.2,1,0.3c0.3,0,0.7,0,1.2-0.1c0,0,0.1,0,0.1,0c0.1,0,0.1,0,0.1,0c0,0,0.1-0.1,0.2-0.1c0.1,0,0.2-0.1,0.2-0.1
					c0,0,0-0.1,0-0.1s0-0.2,0-0.2c0-0.1,0.1-0.2,0.1-0.2c0-0.1,0-0.1,0-0.1c0,0-0.1-0.1-0.1-0.1c0,0-0.1-0.1-0.1-0.1
					c0-0.1-0.1-0.2-0.2-0.4c-0.1-0.2-0.1-0.3-0.2-0.3c0,0-0.1,0-0.1,0c-0.1,0-0.1,0-0.2,0.1c-0.1,0-0.2,0.1-0.2,0.1
					c-0.1,0-0.1,0-0.1,0l-0.8,0c0,0-0.1,0-0.2-0.1c-0.1-0.1-0.3-0.2-0.4-0.3c-0.1-0.1-0.3-0.2-0.4-0.3c-0.1-0.1-0.2-0.1-0.2-0.1
					c-0.2-0.1-0.3-0.2-0.4-0.4c-0.1-0.2-0.2-0.4-0.3-0.6c0,0,0-0.1-0.1-0.3c0-0.1,0-0.2,0-0.2V269v-1.5v-0.5c0,0,0-0.1,0-0.2
					c0-0.1,0-0.3-0.1-0.5c0-0.2,0-0.3-0.1-0.5c0-0.2-0.1-0.3-0.1-0.4c0,0,0-0.1-0.1-0.1c0-0.1,0-0.1-0.1-0.1c0-0.1-0.1-0.2-0.3-0.3
					c-0.1-0.1-0.2-0.2-0.2-0.2c-0.1,0-0.3,0-0.5,0c-0.2,0-0.3,0-0.4,0c0,0-0.1,0.1-0.1,0.1c-0.1,0.1-0.1,0.2-0.2,0.3
					c-0.1,0.1-0.1,0.2-0.1,0.2c0,0,0,0.1,0,0.1c0,0.1,0,0.2-0.1,0.3c0,0.1,0,0.2-0.1,0.2c0,0.1,0,0.1,0,0.1c0,0-0.1,0-0.3,0
					c-0.2,0-0.3,0.1-0.5,0.1H262c0,0-0.1,0-0.2,0c-0.1,0-0.2,0.1-0.3,0.1c-0.3,0.1-0.5,0.2-0.8,0.3c-0.2,0.1-0.4,0.1-0.6,0.2
					c-0.2,0.1-0.4,0.2-0.6,0.3c-0.2,0.1-0.4,0.3-0.6,0.5c0,0-0.1,0-0.1,0.1c0,0,0,0,0,0c0,0-0.1,0.1-0.1,0.3c0,0.1-0.1,0.2-0.1,0.2
					l-0.4,1.1c0.1,0.6,0.2,1.1,0.3,1.5c0.1,0.4,0.2,0.7,0.3,0.9c0.1,0.2,0.2,0.5,0.4,0.6c0.1,0.2,0.3,0.4,0.5,0.6
					c0.4,0.1,0.9,0.3,1.3,0.4C261.4,273.6,262,273.6,262.7,273.5z M260.8,271.9c-0.3-0.2-0.5-0.4-0.6-0.6c-0.1-0.2-0.1-0.5-0.1-0.8
					c0-0.1,0-0.3,0-0.5c0-0.2,0-0.4,0-0.6c0-0.2,0-0.4,0.1-0.5c0-0.2,0.1-0.3,0.2-0.4c0,0,0.1-0.1,0.3-0.2c0.1-0.1,0.3-0.2,0.4-0.3
					c0.2-0.1,0.3-0.2,0.5-0.3c0.2-0.1,0.3-0.1,0.4-0.1c0,0,0.1,0,0.3,0c0.2,0,0.3-0.1,0.4-0.1h0.4c0,0,0.1,0,0.1,0.1
					c0.1,0.1,0.1,0.2,0.1,0.3c0,0,0,0.1,0.1,0.2c0,0.1,0.1,0.2,0.1,0.4c0,0.1,0.1,0.2,0.1,0.4c0,0.1,0.1,0.2,0.1,0.2
					c0,0.4-0.1,0.8-0.2,1.3c-0.1,0.4-0.3,0.8-0.5,1.2c-0.2,0.3-0.5,0.6-0.9,0.7C261.7,272.1,261.3,272.1,260.8,271.9z"/>
				<path class="st5" d="M289.4,279.9c0,0,0.1,0,0.1,0.1c0.1,0,0.1,0,0.1,0c0,0,0.2,0,0.5,0c0.3,0,0.5,0,0.5,0c0,0,0.1-0.1,0.1-0.1
					c0.1-0.1,0.1-0.1,0.1-0.1c0,0,0.1-0.1,0.1-0.2c0-0.1,0.1-0.1,0.1-0.2v-1.9c0,0,0-0.2,0-0.4c0-0.2,0-0.4,0-0.7c0-0.2,0-0.5,0-0.7
					c0-0.2,0-0.3,0-0.4v-2c0,0,0.1,0,0.2,0c0.1,0,0.2,0,0.2,0c0,0,0.1,0,0.1,0c0.1,0,0.1,0,0.2,0.1c0.1,0,0.2,0.1,0.2,0.1
					c0.1,0,0.1,0,0.1,0c0,0,0.1,0,0.2,0c0.1,0,0.3,0,0.4,0c0.1,0,0.3,0,0.4,0c0.1,0,0.2,0,0.3,0c0,0,0.1,0,0.1,0
					c0.1,0,0.1,0,0.2-0.1c0.1,0.1,0.3,0.1,0.5,0c0.2-0.1,0.5-0.2,0.7-0.4c0.2-0.2,0.4-0.4,0.6-0.5c0.2-0.2,0.2-0.3,0.2-0.4
					c0.1-0.3,0.2-0.6,0.1-0.9c0-0.3-0.1-0.4-0.3-0.5c-0.3,0-0.5,0-0.6,0.1c-0.1,0-0.2,0.1-0.3,0.2c-0.2,0.3-0.5,0.5-0.9,0.6
					c-0.4,0.1-0.8,0.1-1.1,0.1c-0.4-0.1-0.6-0.2-0.9-0.4c-0.2-0.2-0.3-0.5-0.2-0.9c0,0,0-0.1,0-0.3v-0.6c0-0.2,0-0.4,0-0.6
					c0-0.2,0-0.3,0-0.4c0,0,0-0.1-0.1-0.1c0-0.1-0.1-0.1-0.1-0.1c0-0.1-0.1-0.2-0.1-0.3c0-0.1-0.1-0.2-0.1-0.4
					c0-0.1-0.1-0.2-0.1-0.3c0-0.1,0-0.2,0-0.2v-0.2v-0.4v-0.4v-0.2c0,0,0-0.1-0.1-0.3c0-0.1,0-0.2-0.1-0.2c0,0-0.1-0.1-0.1-0.1
					c0-0.1-0.1-0.1-0.1-0.1c0,0-0.1,0-0.2,0c-0.1,0-0.2-0.1-0.3-0.1h-0.3c0,0-0.1,0.1-0.3,0.1c-0.1,0.1-0.2,0.1-0.2,0.1
					c0,0-0.1,0.1-0.1,0.1c-0.1,0-0.1,0.1-0.1,0.1c0,0,0,0.1-0.1,0.1c0,0.1,0,0.1,0,0.1c0,0,0,0.1-0.1,0.2c0,0.1-0.1,0.2-0.1,0.3
					c0,0.1,0,0.2-0.1,0.3c0,0.1,0,0.1,0,0.2c-0.1,0-0.2,0-0.3,0c-0.1,0-0.3,0-0.5,0c-0.2,0-0.3,0-0.5,0c-0.1,0-0.2,0-0.3,0
					c0,0-0.1,0-0.1,0c-0.1,0-0.2,0-0.3,0.1c-0.1,0-0.2,0-0.3,0.1c-0.1,0-0.2,0.1-0.3,0.1c0,0-0.1,0-0.2,0.1c-0.1,0-0.2,0.1-0.2,0.1
					c-0.1,0-0.2,0.1-0.4,0.2c-0.2,0.1-0.3,0.1-0.4,0.2c0,0-0.1,0.1-0.2,0.2c-0.1,0.1-0.2,0.2-0.3,0.2c0,0-0.1,0.1-0.1,0.1
					c-0.1,0-0.1,0.1-0.1,0.1c0,0-0.1,0.1-0.1,0.2c-0.1,0.1-0.1,0.1-0.1,0.2c0,0,0,0.1,0,0.2c0,0.1-0.1,0.2-0.1,0.2c0,0,0,0.1,0,0.2
					c0,0.1,0,0.2-0.1,0.3c0,0.1-0.1,0.2-0.1,0.3c0,0.1,0,0.2,0,0.2c0,0.1-0.1,0.2-0.1,0.3c0,0.1-0.1,0.2-0.1,0.2
					c-0.1,0-0.2,0.1-0.4,0.2c-0.2,0.1-0.4,0.2-0.7,0.3c-0.2,0.1-0.5,0.2-0.7,0.3c-0.2,0.1-0.4,0.1-0.5,0.1c0,0-0.1,0-0.2,0
					c-0.1,0-0.2-0.1-0.2-0.1c0,0-0.1,0.1-0.3,0.2c-0.1,0.1-0.2,0.2-0.2,0.3c0,0,0,0.1,0,0.2c0,0.1,0,0.3,0.1,0.4
					c0.1,0.1,0.2,0.2,0.2,0.4c0,0,0.1,0.1,0.2,0.1c0.1,0.1,0.2,0.1,0.3,0.1c0,0,0.1,0,0.2,0c0.1,0,0.2,0,0.3,0c0.1,0,0.2,0,0.3,0
					c0.1,0,0.2,0,0.2,0c0,0,0.1-0.1,0.3-0.2c0.1-0.1,0.3-0.2,0.5-0.4c0.2-0.1,0.3-0.3,0.5-0.4c0.1-0.1,0.2-0.2,0.3-0.2h0.5
					c0,0,0,0,0,0c0,0,0.1,0.1,0.1,0.1c0,0,0.1,0.1,0.2,0.3c0.1,0.1,0.2,0.2,0.2,0.2c0.1,0.1,0.2,0.2,0.3,0.4
					c0.1,0.1,0.2,0.2,0.2,0.3c0,0,0.1,0.1,0.1,0.1c0.1,0.1,0.1,0.1,0.2,0.2c0.1,0.1,0.1,0.1,0.2,0.2c0.1,0.1,0.1,0.1,0.1,0.1
					c0,0,0.1,0.1,0.2,0.1c0.1,0.1,0.2,0.1,0.3,0.1c0,0,0,0,0.1,0c0,0,0.1,0.1,0.1,0.1c0,0,0.1,0,0.3,0c0.2,0,0.3,0,0.3-0.1
					c0,0,0.1-0.1,0.2-0.2c0,0,0.1,0,0.2-0.1c0.1,0,0.2,0,0.3,0c0,0,0.1,0,0.1,0c0.1,0,0.1-0.1,0.1-0.1c0,0,0.1-0.1,0.3-0.2
					c0.1-0.1,0.3-0.2,0.4-0.2c0.1-0.1,0.3-0.2,0.4-0.3c0.1-0.1,0.2-0.1,0.3-0.2h0.1l0.4,6.3c0,0,0,0,0,0.1c0,0.1,0.1,0.1,0.1,0.1
					c0,0,0.1,0.1,0.1,0.1C289.4,279.9,289.4,279.9,289.4,279.9z M285.6,272.3c-0.2-0.3-0.3-0.5-0.4-0.7c0,0,0-0.1,0-0.2
					c0-0.1,0-0.2,0-0.2c0,0,0.1-0.1,0.1-0.2c0.1-0.2,0.1-0.3,0.1-0.3c0,0,0-0.1,0-0.2c0-0.2,0-0.2,0-0.3c0,0,0-0.1-0.1-0.2
					c-0.1-0.1-0.1-0.2-0.1-0.3c0,0,0-0.1,0-0.2c0-0.1,0.1-0.2,0.1-0.2c0,0,0.1-0.1,0.1-0.1c0.1-0.1,0.2-0.2,0.2-0.2
					c0.1-0.1,0.2-0.2,0.2-0.2c0.1-0.1,0.1-0.1,0.2-0.1c0,0,0.1,0,0.2-0.1c0.1,0,0.2-0.1,0.2-0.1c0.1,0,0.2,0,0.4,0
					c0.2,0,0.3-0.1,0.4-0.1h0.5c0,0,0.1,0,0.1,0c0.1,0,0.1,0.1,0.1,0.1c0,0,0,0,0,0.1c0,0,0.1,0.1,0.1,0.1c0,0,0,0.1,0.1,0.1
					c0,0,0,0.1,0,0.1c0,0,0,0.1,0,0.3c0,0.2,0,0.3,0,0.3c0,0,0,0.1,0,0.2c0,0.1-0.1,0.2-0.1,0.3c0,0,0,0.1-0.1,0.2
					c0,0.1,0,0.2,0,0.2l-0.4,0.8c-0.1,0.1-0.2,0.3-0.3,0.5c-0.1,0.2-0.2,0.3-0.2,0.4c-0.1,0.1-0.2,0.2-0.3,0.4
					c-0.2,0.2-0.3,0.3-0.3,0.3c0,0-0.1,0-0.3,0c-0.2,0-0.3,0-0.3,0c0,0-0.1-0.1-0.1-0.1C285.7,272.4,285.7,272.3,285.6,272.3z"/>
				<path class="st5" d="M301.8,272.1l1.1,1.1c0.1,0.2,0.3,0.4,0.6,0.5c0.3,0.1,0.6,0.1,0.9,0.1c0.3,0,0.5,0,0.7,0
					c0.2,0,0.2,0,0.2,0c0,0,0.1-0.1,0.2-0.1c0.1-0.1,0.2-0.1,0.4-0.2c0.1-0.1,0.2-0.2,0.3-0.3c0.1-0.1,0.1-0.2,0.1-0.2
					c0.1,0,0.2-0.1,0.3-0.3c0.1-0.2,0.1-0.3,0.1-0.5c0-0.2-0.1-0.3-0.2-0.4c-0.1-0.1-0.4-0.1-0.8-0.1h-0.2c-0.1,0-0.2,0-0.3,0
					c0,0-0.1,0-0.3,0.1c-0.2,0.1-0.3,0.1-0.3,0.1c0,0-0.1,0-0.3-0.1c-0.2,0-0.4-0.1-0.6-0.2c-0.2-0.1-0.4-0.3-0.5-0.5
					c-0.1-0.2-0.2-0.5-0.1-0.8c0-0.5-0.1-0.9-0.1-1.3c0-0.4,0-0.7,0-1c0-0.3,0-0.7,0.1-1.1c0-0.4,0.1-0.8,0.1-1.3
					c0,0-0.1-0.1-0.1-0.2c-0.1-0.1-0.1-0.2-0.1-0.2c0,0-0.1-0.1-0.1-0.1c-0.1-0.1-0.1-0.1-0.1-0.1h-1.3c0,0,0,0,0,0
					c0,0-0.1,0.1-0.1,0.1c0,0-0.1,0.1-0.1,0.2c-0.1,0.1-0.1,0.2-0.1,0.2c0,0-0.1,0.1-0.1,0.3c0,0.1,0,0.2,0,0.2c0.1,0.4,0,1-0.1,1.6
					c-0.1,0.6-0.3,1.2-0.5,1.8c-0.2,0.6-0.5,1.1-0.8,1.6c-0.3,0.4-0.6,0.7-1,0.8c0,0-0.1,0.1-0.3,0.1c-0.1,0.1-0.2,0.1-0.2,0.1h-0.4
					c0,0,0,0-0.1,0c0,0,0-0.1,0-0.1c0,0,0,0-0.1-0.1c0-0.1,0-0.1,0-0.1c0,0-0.1-0.2-0.1-0.4c0-0.2-0.1-0.3-0.1-0.4
					c0,0,0-0.1-0.1-0.3c0-0.1,0-0.2,0-0.2c0-0.1,0-0.3-0.1-0.5c0-0.2-0.1-0.4-0.1-0.6c0-0.2,0-0.4-0.1-0.6c0-0.2,0-0.3,0-0.3
					c0-0.1,0-0.3,0-0.5c0-0.2,0-0.5,0-0.7c0-0.3,0-0.5,0-0.7c0-0.2,0-0.4,0-0.5c0,0,0-0.1,0-0.2c0-0.1-0.1-0.2-0.1-0.2
					c0,0,0,0,0-0.1c0,0-0.1-0.1-0.1-0.1c0,0-0.1-0.1-0.3-0.1c-0.1-0.1-0.2-0.1-0.2-0.1h-0.1c-0.1,0-0.3,0-0.5,0.1
					c-0.2,0-0.3,0-0.3,0l-0.4,0.4c0,0.1,0,0.2,0,0.3c0,0.1,0,0.3,0,0.5c0,0.2,0,0.3,0,0.5c0,0.1,0,0.2,0,0.3c0,0,0,0.1,0,0.2
					c0,0.1,0,0.3,0,0.6c0,0.3,0,0.7,0.1,1.2c0.1,0.5,0.2,1.2,0.3,2.1c0,0.1,0.1,0.2,0.1,0.4c0.1,0.2,0.1,0.3,0.1,0.4
					c0,0,0,0.1,0,0.2c0,0.1,0.1,0.2,0.1,0.3c0,0.1,0.1,0.2,0.1,0.3c0,0.1,0.1,0.1,0.1,0.1c0,0.1,0,0.2,0.1,0.3
					c0.1,0.3,0.3,0.5,0.6,0.6c0.3,0.1,0.7,0.1,1.1,0.1c0.4,0,0.8-0.1,1.2-0.2c0.4-0.1,0.7-0.2,0.9-0.2c0,0,0.2-0.2,0.4-0.4
					c0.2-0.2,0.4-0.4,0.6-0.7c0.2-0.3,0.4-0.5,0.6-0.7c0.2-0.2,0.3-0.3,0.4-0.4c0,0,0.1,0,0.1,0c0.1,0,0.1,0,0.1,0
					c0,0,0.1,0.1,0.1,0.2C301.7,271.9,301.7,272,301.8,272.1z"/>
				<path class="st5" d="M307,267.2l0.3,3.6c0,0.7,0.1,1.3,0.3,1.8c0.2,0.5,0.6,0.8,1,1c0.4,0.2,0.9,0.3,1.4,0.2
					c0.5,0,1.1-0.3,1.7-0.6c0.3-0.2,0.5-0.4,0.8-0.7c0.2-0.3,0.4-0.6,0.5-0.9v-0.1c0.1-0.2,0.1-0.3,0-0.4c0-0.1-0.1-0.2-0.2-0.2
					c-0.1,0-0.2,0-0.2,0s-0.1,0-0.1,0c0,0-0.1,0-0.1,0c0,0-0.1,0.1-0.1,0.1c0,0-0.1,0.1-0.2,0.2c-0.1,0.1-0.2,0.2-0.2,0.2
					c-0.6,0.4-1.1,0.6-1.5,0.6c-0.4,0-0.6,0-0.8-0.2c-0.2-0.2-0.3-0.4-0.4-0.7c0-0.3-0.1-0.7-0.1-1.1l0.1-2.2v-0.4V267
					c0-0.1,0-0.2,0-0.3c0-0.2-0.1-0.3-0.1-0.3c0,0-0.1-0.1-0.1-0.1c0-0.1-0.1-0.1-0.1-0.1c0,0-0.1,0-0.3,0c-0.2,0-0.3,0-0.3,0
					c0,0-0.1,0-0.2,0.1c-0.1,0-0.2,0.1-0.4,0.2c-0.1,0-0.2,0.1-0.2,0.1c0,0,0,0-0.1,0.1c0,0.1-0.1,0.1-0.1,0.2
					c0,0.1-0.1,0.2-0.1,0.2C307.1,267.1,307,267.2,307,267.2z M308,261.3c0.1,0.1,0.2,0.2,0.3,0.3c0.1,0.1,0.2,0.1,0.4,0.1
					c0.2,0,0.3,0,0.3,0c0,0,0.1,0,0.2-0.1c0.1-0.1,0.2-0.2,0.3-0.2c0,0,0.1,0,0.1-0.1c0,0,0,0,0,0v-0.6c0-0.1,0-0.1-0.1-0.2
					c0,0,0,0,0-0.1c0,0-0.1,0-0.1,0c0,0,0,0,0,0c0,0-0.1,0-0.1,0c0,0-0.1,0-0.2,0c-0.1,0-0.2,0-0.3,0c-0.1,0-0.2,0-0.3,0
					c-0.1,0-0.1,0-0.1,0c0,0-0.1,0-0.1,0c0,0-0.1,0.1-0.1,0.1c-0.1,0-0.2,0.2-0.3,0.4v0.1c0,0,0,0.1,0.1,0.2
					C308,261.2,308,261.3,308,261.3z"/>
				<path class="st5" d="M324.1,273.5c0,0,0.1,0,0.2,0c0.1,0,0.2,0,0.4,0c0.1,0,0.3,0,0.4,0c0.1,0,0.2,0,0.3,0h0.2
					c0.1,0,0.3,0,0.4-0.1c0.1-0.1,0.2-0.1,0.2-0.2c0.1-0.1,0.3-0.2,0.5-0.3c0.2-0.1,0.3-0.2,0.3-0.2c0,0,0.1-0.1,0.1-0.2
					c0.1-0.1,0.1-0.2,0.1-0.3c0,0,0.1-0.1,0.1-0.2c0-0.1,0.1-0.2,0.1-0.3v-0.6c0,0,0-0.1-0.1-0.1c-0.1,0-0.2-0.1-0.2-0.1
					c0,0-0.1,0-0.2,0c-0.1,0-0.2,0.1-0.4,0.2c-0.1,0.1-0.2,0.2-0.4,0.2c-0.1,0.1-0.2,0.1-0.2,0.1c0,0-0.1,0-0.2,0.1
					c-0.1,0-0.2,0-0.2,0c0,0-0.1,0-0.2,0c-0.2,0-0.4-0.1-0.7-0.3c0,0-0.1-0.1-0.3-0.2c-0.1-0.1-0.2-0.2-0.2-0.2
					c-0.2-0.2-0.4-0.4-0.6-0.6c-0.1-0.3-0.3-0.6-0.4-0.9c-0.1-0.3-0.3-0.6-0.4-1c-0.1-0.3-0.3-0.6-0.6-0.8c-0.2-0.2-0.5-0.4-0.8-0.5
					c-0.3-0.1-0.7-0.1-1.2,0c0,0-0.1,0-0.1,0c0,0-0.1,0-0.2,0.1c-0.1,0-0.1,0.1-0.2,0.1c-0.1,0-0.1,0-0.1,0h-0.8c0,0-0.1,0-0.1,0
					c0,0-0.1-0.1-0.2-0.1c-0.1,0-0.1-0.1-0.2-0.1c-0.1,0-0.1,0-0.1,0c0,0-0.1,0-0.2-0.1c-0.1,0-0.2,0-0.2,0c0,0-0.1,0-0.2,0
					c-0.1,0-0.2,0-0.2,0c0,0-0.1,0-0.2,0c-0.1,0-0.2,0.1-0.3,0.1c0,0-0.1,0-0.2,0.1c-0.1,0-0.2,0-0.2,0c0,0-0.1,0-0.2,0
					c-0.1,0-0.2,0-0.2,0c-0.2-0.2-0.3-0.3-0.5-0.4c-0.1-0.1-0.3-0.2-0.5-0.2c-0.1,0-0.3-0.1-0.5-0.1c-0.2,0-0.4,0-0.7,0
					c0,0-0.2,0.1-0.4,0.2c-0.2,0.1-0.3,0.2-0.4,0.2l-0.4,0.4c0,0-0.1,0.1-0.2,0.3c-0.1,0.1-0.2,0.3-0.2,0.4
					c-0.1,0.1-0.2,0.2-0.2,0.4c-0.1,0.1-0.1,0.2-0.1,0.2c0,0,0,0.1-0.1,0.2c0,0.1-0.1,0.2-0.1,0.4c0,0.1-0.1,0.2-0.1,0.4
					c0,0.1-0.1,0.2-0.1,0.2c0,0,0,0.1-0.1,0.3c-0.1,0.1-0.1,0.3-0.2,0.5c-0.1,0.2-0.2,0.3-0.2,0.5c-0.1,0.1-0.1,0.2-0.1,0.2
					c0,0.1-0.1,0.2-0.1,0.4c-0.1,0.2-0.1,0.3-0.1,0.3c0,0,0,0.1,0,0.2c0,0.1,0,0.2,0,0.2c0,0,0,0.1,0,0.1c0,0,0.1,0.1,0.1,0.1
					c0,0,0.1,0.1,0.1,0.1c0.1,0.1,0.1,0.1,0.1,0.1h1c0,0,0,0,0,0c0,0,0.1-0.1,0.1-0.1c0,0,0.1-0.1,0.1-0.2c0.1-0.1,0.1-0.2,0.1-0.2
					c0,0,0,0,0-0.1c0-0.1,0-0.1,0-0.2c0-0.1,0-0.2,0-0.2c0-0.1,0-0.1,0-0.1c0,0,0.1-0.2,0.2-0.4c0.1-0.2,0.2-0.5,0.4-0.8
					c0.1-0.3,0.3-0.6,0.4-0.8c0.1-0.3,0.2-0.4,0.3-0.5c0.1-0.1,0.2-0.3,0.3-0.4c0.1-0.1,0.2-0.2,0.2-0.2c0,0,0.1,0,0.1,0
					c0.1,0,0.1,0,0.1,0c0.1,0,0.2,0.1,0.3,0.3c0.1,0.1,0.2,0.2,0.2,0.2c0,0,0,0.1,0,0.2c0,0.1,0.1,0.2,0.1,0.3
					c0,0.1,0.1,0.2,0.1,0.3c0,0.1,0,0.2,0,0.2c0,0,0,0.2,0,0.4c0,0.2,0,0.5,0,0.8c0,0.3,0,0.5,0,0.8c0,0.2,0,0.4,0,0.4
					c0,0,0,0.1,0.1,0.1c0,0.1,0.1,0.1,0.1,0.1c0,0,0,0.1,0.1,0.1c0.1,0,0.1,0.1,0.1,0.1c0,0,0.1,0,0.1,0.1c0.1,0,0.1,0,0.1,0
					c0,0,0.1,0,0.4,0c0.2,0,0.4,0,0.4,0c0,0,0.1,0,0.1,0c0.1,0,0.1-0.1,0.1-0.1c0,0,0.1-0.1,0.1-0.1c0.1-0.1,0.1-0.1,0.1-0.1
					c0,0,0-0.1,0-0.2c0-0.1,0-0.2,0-0.4c0-0.1,0.1-0.3,0.1-0.3c0,0,0-0.2,0-0.4c0-0.2,0-0.5,0-0.7c0-0.3,0-0.5,0-0.7
					c0-0.2,0-0.4,0-0.4c0,0,0-0.1,0.1-0.1c0.1-0.1,0.1-0.1,0.1-0.1c0.1,0,0.2,0,0.3,0.1c0,0,0,0.1,0.1,0.3c0.1,0.2,0.1,0.3,0.1,0.4
					c0,0,0,0.1,0,0.3c0,0.1,0,0.3,0,0.5c0,0.2,0,0.3,0,0.5c0,0.1,0,0.2,0,0.2c0,0,0,0.1,0,0.2c0,0.1,0,0.2,0,0.3c0,0.1,0,0.2,0,0.3
					c0,0.1,0,0.2,0,0.2v0.2c0,0,0,0.1,0,0.1c0,0,0.1,0.1,0.1,0.1l0.1,0.1c0,0,0.1,0.1,0.2,0.1c0.1,0,0.2,0,0.2,0c0,0,0.1,0,0.3,0
					c0.2,0,0.3,0,0.3,0c0.1,0,0.2,0,0.3-0.1l0.4-0.4c0,0,0-0.1,0.1-0.1c0-0.1,0-0.1,0-0.1v-3.1c0,0,0.1,0,0.1,0c0.1,0,0.1,0,0.1,0
					c0,0,0.1,0,0.1,0.1c0.1,0.1,0.1,0.1,0.1,0.1c0.1,0.4,0.2,0.8,0.4,1.2c0.2,0.3,0.4,0.6,0.6,0.9c0.2,0.3,0.5,0.5,0.7,0.8
					c0.3,0.2,0.6,0.5,0.9,0.7c0,0,0.1,0.1,0.2,0.1C324,273.5,324.1,273.5,324.1,273.5z"/>
				<path class="st5" d="M327.4,267.2l0.3,3.6c0,0.7,0.1,1.3,0.3,1.8c0.2,0.5,0.6,0.8,1,1c0.4,0.2,0.9,0.3,1.4,0.2
					c0.5,0,1.1-0.3,1.7-0.6c0.3-0.2,0.5-0.4,0.8-0.7c0.2-0.3,0.4-0.6,0.5-0.9v-0.1c0.1-0.2,0.1-0.3,0-0.4c0-0.1-0.1-0.2-0.2-0.2
					c-0.1,0-0.2,0-0.2,0c-0.1,0-0.1,0-0.1,0c0,0-0.1,0-0.1,0c0,0-0.1,0.1-0.1,0.1c0,0-0.1,0.1-0.2,0.2c-0.1,0.1-0.2,0.2-0.2,0.2
					c-0.6,0.4-1.1,0.6-1.5,0.6c-0.4,0-0.6,0-0.8-0.2c-0.2-0.2-0.3-0.4-0.4-0.7c0-0.3-0.1-0.7-0.1-1.1l0.1-2.2v-0.4V267
					c0-0.1,0-0.2,0-0.3c0-0.2-0.1-0.3-0.1-0.3c0,0-0.1-0.1-0.1-0.1c0-0.1-0.1-0.1-0.1-0.1c0,0-0.1,0-0.3,0c-0.2,0-0.3,0-0.3,0
					c0,0-0.1,0-0.2,0.1c-0.1,0-0.2,0.1-0.4,0.2c-0.1,0-0.2,0.1-0.2,0.1c0,0,0,0-0.1,0.1c0,0.1-0.1,0.1-0.1,0.2
					c0,0.1-0.1,0.2-0.1,0.2C327.5,267.1,327.4,267.2,327.4,267.2z M328.4,261.3c0.1,0.1,0.2,0.2,0.3,0.3c0.1,0.1,0.2,0.1,0.4,0.1
					c0.2,0,0.3,0,0.3,0c0,0,0.1,0,0.2-0.1c0.1-0.1,0.2-0.2,0.3-0.2c0,0,0.1,0,0.1-0.1c0,0,0,0,0,0v-0.6c0-0.1,0-0.1-0.1-0.2
					c0,0,0,0,0-0.1c0,0-0.1,0-0.1,0c0,0,0,0,0,0c0,0-0.1,0-0.1,0c0,0-0.1,0-0.2,0c-0.1,0-0.2,0-0.3,0c-0.1,0-0.2,0-0.3,0
					c-0.1,0-0.1,0-0.1,0c0,0-0.1,0-0.1,0c0,0-0.1,0.1-0.1,0.1c-0.1,0-0.2,0.2-0.3,0.4v0.1c0,0,0,0.1,0.1,0.2
					C328.4,261.2,328.4,261.3,328.4,261.3z"/>
				<path class="st5" d="M340.1,271c-0.1,0.6-0.4,1.1-0.7,1.5c-0.3,0.4-0.7,0.7-1.2,0.9c-0.4,0.2-0.9,0.3-1.4,0.3
					c-0.5,0-1,0-1.5-0.1c0,0,0-0.1-0.1-0.1c0,0-0.1-0.1-0.3-0.1c-0.1-0.1-0.2-0.1-0.2-0.1c0,0-0.1-0.1-0.2-0.2
					c-0.1-0.1-0.2-0.2-0.3-0.3c0,0-0.1-0.1-0.2-0.2c-0.1-0.1-0.2-0.2-0.2-0.3c0,0-0.1-0.1-0.2-0.2c-0.1-0.1-0.1-0.1-0.1-0.1
					c0,0,0-0.1-0.1-0.2c0-0.1-0.1-0.2-0.1-0.3c0-0.1-0.1-0.2-0.1-0.3c0-0.1-0.1-0.2-0.1-0.2c0,0,0-0.1,0-0.1c0-0.1,0-0.2,0-0.3
					c0-0.1,0-0.2,0-0.3s0-0.2,0-0.2v-0.2c0,0,0-0.1,0-0.2c0-0.1,0-0.2,0-0.3c0-0.1,0-0.2,0-0.3c0-0.1,0-0.2,0-0.2c0,0,0-0.1,0-0.2
					c0-0.1,0.1-0.2,0.1-0.3c0,0,0-0.1,0.1-0.3c0.1-0.1,0.2-0.3,0.3-0.4c0-0.1,0.1-0.2,0.2-0.3c0.1-0.1,0.2-0.2,0.2-0.2
					c0.1,0,0.2,0,0.3-0.1c0.1-0.1,0.2-0.1,0.4-0.1c0,0,0.1,0,0.2,0c0.1,0,0.2,0,0.3,0c0.1,0,0.2,0,0.3,0c0.1,0,0.2,0,0.2,0
					c0,0,0.1,0,0.2,0c0.1,0,0.2,0,0.4,0h0.4h0.2c0.1,0,0.2,0,0.4,0.1c0.2,0,0.3,0,0.4,0c0.4,0.1,0.7,0.3,1.1,0.6
					c0.4,0.3,0.7,0.6,1,1c0.3,0.4,0.5,0.8,0.6,1.2c0.1,0.4,0.1,0.8,0,1.2L340.1,271z M335.7,271.8c0.2,0.3,0.5,0.5,0.8,0.5
					c0.3,0,0.6-0.1,0.9-0.2c0.3-0.2,0.5-0.4,0.7-0.8c0.2-0.3,0.3-0.7,0.3-1c0-0.4-0.1-0.8-0.4-1.1c-0.2-0.4-0.7-0.7-1.3-0.9
					c0,0-0.1,0-0.3,0c-0.2,0-0.3,0-0.4,0c0,0-0.1,0-0.3,0.1c-0.1,0-0.2,0.1-0.2,0.1c-0.1,0.1-0.2,0.2-0.4,0.4
					c-0.2,0.1-0.2,0.2-0.2,0.3l-0.1,1.6c0,0,0,0.1,0.1,0.3c0.1,0.2,0.1,0.3,0.1,0.4c0,0,0,0.1,0.1,0.1c0,0.1,0.1,0.1,0.1,0.1
					c0,0,0.1,0.1,0.2,0.2C335.6,271.7,335.6,271.7,335.7,271.8z"/>
			</g>
		</g>
	</g>
	<g>
		<path class="st6" d="M209.2,65.7h3.9v0.7H210v2.8h3V70h-3v3.5h-0.8V65.7z"/>
		<path class="st6" d="M223.7,65.7v4.8c0,0.6,0.1,1.1,0.3,1.4c0.5,0.9,1.2,1,1.6,1c0.4,0,1.1-0.1,1.6-1c0.2-0.3,0.3-0.8,0.3-1.4
			v-4.8h0.8v4.8c0,0.7-0.1,1.2-0.3,1.6c-0.5,1.2-1.6,1.4-2.4,1.4c-0.7,0-1.8-0.3-2.4-1.4c-0.2-0.4-0.3-1-0.3-1.6v-4.8H223.7z"/>
		<path class="st6" d="M238.4,65.7h1l4.3,6.4h0v-6.4h0.8v7.8h-0.8l-4.6-6.8h0v6.8h-0.8V65.7z"/>
		<path class="st6" d="M254.7,65.7h2.3c1,0,1.9,0.2,2.5,0.6c1.4,0.9,1.8,2.3,1.8,3.3c0,0.7-0.3,2.3-1.8,3.2
			c-0.6,0.4-1.6,0.6-2.5,0.6h-2.3V65.7z M255.5,72.8h1.1c0.7,0,1.8,0,2.7-0.6c0.5-0.4,1.2-1.2,1.2-2.6c0-1-0.5-2-1.3-2.6
			c-0.7-0.5-1.4-0.6-2.6-0.6h-1.1V72.8z"/>
		<path class="st6" d="M273.3,65.7h0.9l3.3,7.8h-0.9l-1.1-2.6h-3.6l-1.1,2.6h-0.8L273.3,65.7z M272.2,70.2h3l-1.5-3.6L272.2,70.2z"
			/>
		<path class="st6" d="M293.8,71.5c-0.8,1.5-2.3,2.2-3.6,2.2c-2.2,0-4.1-1.7-4.1-4c0-2.3,1.8-4,4.1-4c2,0,3.3,1.4,3.6,2.1h-0.9
			c-0.9-1.3-2.2-1.4-2.7-1.4c-1.8,0-3.3,1.6-3.3,3.3c0,1.8,1.6,3.3,3.3,3.3c0.4,0,1.7-0.1,2.7-1.5H293.8z"/>
		<path class="st6" d="M303.7,65.7h0.8v7.8h-0.8V65.7z"/>
		<path class="st6" d="M318.4,65.6c2.2,0,4.1,1.7,4.1,4c0,2.3-1.9,4-4.1,4c-2.2,0-4.1-1.8-4.1-4C314.3,67.2,316.3,65.6,318.4,65.6z
			 M318.4,72.9c1.8,0,3.3-1.5,3.3-3.3c0-1.8-1.5-3.3-3.3-3.3c-1.8,0-3.3,1.4-3.3,3.4C315,71.4,316.6,72.9,318.4,72.9z M319.3,63.5
			l0.3,0.6l-2.1,1.1l-0.3-0.6L319.3,63.5z"/>
		<path class="st6" d="M332.3,65.7h1l4.3,6.4h0v-6.4h0.8v7.8h-0.8l-4.6-6.8h0v6.8h-0.8V65.7z"/>
	</g>
	<path class="st4" d="M351.1,111.5h-8.8v6.7h8.8V111.5z"/>
</g>
<g id="marcas">
</g>
<g id="Guas">
</g>
</svg>
