<?xml version="1.0" encoding="UTF-8" standalone="no"?>
<svg
   xmlns:dc="http://purl.org/dc/elements/1.1/"
   xmlns:cc="http://creativecommons.org/ns#"
   xmlns:rdf="http://www.w3.org/1999/02/22-rdf-syntax-ns#"
   xmlns:svg="http://www.w3.org/2000/svg"
   xmlns="http://www.w3.org/2000/svg"
   viewBox="0 0 258.66666 258.66666"
   height="258.66666"
   width="258.66666"
   xml:space="preserve"
   id="svg2"
   version="1.1"><metadata
     id="metadata8"><rdf:RDF><cc:Work
         rdf:about=""><dc:format>image/svg+xml</dc:format><dc:type
           rdf:resource="http://purl.org/dc/dcmitype/StillImage" /></cc:Work></rdf:RDF></metadata><defs
     id="defs6" /><g
     transform="matrix(1.3333333,0,0,-1.3333333,0,258.66667)"
     id="g10"><g
       transform="scale(0.1)"
       id="g12"><path
         id="path14"
         style="fill:#ffffff;fill-opacity:1;fill-rule:evenodd;stroke:none"
         d="M 2.59766,1933.23 H 1930.16 V 5.66797 H 2.59766 V 1933.23" /><path
         id="path16"
         style="fill:#231f20;fill-opacity:1;fill-rule:evenodd;stroke:none"
         d="m 964.832,300.5 c 119.138,0 458.938,5.563 598.678,30.969 143.92,33.859 238.86,91.402 290.49,175.961 46.71,76.527 49.98,162.586 47.02,236.672 -6.23,156.078 -52.39,373.778 -129.98,612.988 -74.73,230.39 -229.56,256.44 -368.81,262.77 l -85.75,4.54 c -100.83,5.58 -253.21,14 -345.468,14 -93.68,0 -252.817,-8.58 -358.121,-14.26 l -82.344,-4.28 C 391.281,1613.53 236.441,1587.48 161.723,1357.09 84.1484,1117.94 37.9844,900.238 31.7344,744.102 28.7695,670.016 32.043,583.957 78.7617,507.43 130.391,422.871 225.336,365.328 369.027,331.52 504.004,306.969 817.754,300.5 964.832,300.5" /><path
         id="path18"
         style="fill:#231f20;fill-opacity:1;fill-rule:evenodd;stroke:none"
         d="M 371.176,340.66 C 230.059,373.867 137.031,430.02 86.7773,512.324 41.3633,586.711 38.2148,671.043 41.1211,743.727 47.3359,899.031 93.3398,1115.83 170.656,1354.2 c 72.867,224.67 224.196,250.09 360.317,256.28 l 82.425,4.28 c 105.2,5.67 264.184,14.25 357.614,14.25 92.008,0 244.218,-8.42 344.948,-13.99 l 85.84,-4.54 c 136.11,-6.19 287.43,-31.6 360.3,-256.28 77.33,-238.42 123.33,-455.227 129.53,-610.473 2.91,-72.684 -0.24,-157.016 -45.65,-231.403 C 1795.73,430.02 1702.71,373.867 1561.6,340.66 1422.78,315.43 1083.73,309.891 964.832,309.891 c -118.039,0 -454.836,5.539 -593.656,30.769" /><path
         id="path20"
         style="fill:#ffffff;fill-opacity:1;fill-rule:evenodd;stroke:none"
         d="m 965.055,375.367 c 125.195,0 424.285,-0.472 549.475,22.293 294.24,46.809 317.76,221.078 312.07,363.344 -6.13,153.547 -60.75,358.746 -125.34,562.206 -66.36,209.07 -210.53,216.75 -335.73,222.44 -74.12,3.37 -281.09,11.15 -394.905,11.15 -113.812,0 -333.359,-7.78 -407.469,-11.15 C 437.965,1539.96 295.699,1533.77 227.41,1323.21 161.547,1120.16 109.645,921.238 103.5,767.691 97.8125,625.426 125.125,451.156 422.266,397.66 553.117,377.594 839.859,375.367 965.055,375.367" /><path
         id="path22"
         style="fill:#231f20;fill-opacity:1;fill-rule:evenodd;stroke:none"
         d="m 963.258,410.82 c 96.742,0 389.612,-3.121 561.252,28.09 201.16,36.574 268.17,149.899 262.14,324.555 -6.24,181.004 -78.01,424.425 -134.19,574.215 -56.17,149.8 -162.28,165.4 -293.35,171.64 -113.75,5.41 -283.51,12.49 -395.852,12.49 -112.348,0 -279.461,-7.08 -393.215,-12.49 C 438.969,1503.08 332.867,1487.48 276.691,1337.68 220.516,1187.89 148.742,944.469 142.5,763.465 136.469,588.809 203.488,475.484 404.641,438.91 576.281,407.699 866.516,410.82 963.258,410.82" /><path
         id="path24"
         style="fill:#ffffff;fill-opacity:1;fill-rule:evenodd;stroke:none"
         d="m 272.703,850.117 h 103.18 c 47.238,0 95.426,-11.304 95.426,-67.605 0,-21.344 -10.664,-42.367 -32.032,-49.164 v -1.946 c 26.536,-9.379 43.356,-28.781 43.356,-57.902 0,-50.145 -46.582,-67.281 -89.274,-67.281 H 272.703 v 243.898" /><path
         id="path26"
         style="fill:#ffffff;fill-opacity:1;fill-rule:evenodd;stroke:none"
         d="m 699.309,1066.49 c -15.602,15.61 -35.895,15.61 -57.172,15.61 -26.516,0 -53.621,-26.29 -53.621,-52.82 0,-26.84 28.086,-51.737 54.621,-51.737 20.386,0 28.09,3.121 40.57,9.363 l 20.277,-68.656 c -14.23,-6.777 -48.363,-15.605 -75.418,-14.805 -69.531,2.055 -123.902,54.02 -123.902,123.565 0,71.17 55.961,128.12 127.453,128.12 20.063,0 40.766,-3.58 59.528,-10.05 l 7.664,-78.59" /><path
         id="path28"
         style="fill:#ffffff;fill-opacity:1;fill-rule:evenodd;stroke:none"
         d="m 739.383,628.344 h -1.926 c -15.211,-16.192 -28.801,-26.535 -52.41,-26.535 -46.582,0 -72.457,47.218 -72.457,88.964 0,43.336 26.199,90.559 74.723,90.559 20.703,0 37.839,-7.437 50.144,-24.25 h 1.926 l -0.531,20.773 71.988,-0.394 V 605.695 h -71.988 l 0.531,22.649" /><path
         id="path30"
         style="fill:#231f20;fill-opacity:1;fill-rule:evenodd;stroke:none"
         d="m 716.801,662.406 c 19.168,0 27.015,15.266 27.015,31.332 0,16.032 -10.968,27.785 -27.015,27.785 -16.051,0 -26.235,-13.32 -26.235,-28.57 0,-16.441 7.829,-30.547 26.235,-30.547" /><path
         id="path32"
         style="fill:#ffffff;fill-opacity:1;fill-rule:evenodd;stroke:none"
         d="m 1220.16,716.852 c -8.72,7.453 -18.77,9.363 -30.73,9.363 -16.16,0 -34.88,-14.82 -34.88,-30.352 0,-13.59 19.67,-28.945 33.25,-28.945 12.95,0 22.66,1.02 32.36,7.812 l -0.07,-60.718 c -12.95,-4.196 -30.98,-8.082 -45.53,-8.082 -55.64,0 -95.45,31.386 -95.45,88.968 0,50.77 37.2,90.555 88.65,90.555 17.46,0 35.58,-3.226 52.4,-8.719 v -59.882" /><path
         id="path34"
         style="fill:#ffffff;fill-opacity:1;fill-rule:evenodd;stroke:none"
         d="m 1334.97,869.305 h -79.57 v -262.34 h 78.02 v 88.625 c 0,10.683 8.35,20.387 21.29,20.387 11.97,0 19.28,-11.325 19.28,-20.387 v -88.625 h 65.54 V 712.41 c 0,37.86 -5.24,70.188 -47.96,70.188 -23.93,0 -41.06,0.394 -56.6,-18.047 v 104.754" /><path
         id="path36"
         style="fill:#ffffff;fill-opacity:1;fill-rule:evenodd;stroke:none"
         d="m 1068.02,1017.92 c -21.67,0 -51.48,-6.24 -51.48,-47.486 V 904.449 H 951.5 v 171.761 h 65.04 v -22.96 c 10.57,16.08 32.95,21.43 51.48,23.96 v -59.29" /><path
         id="path38"
         style="fill:#ffffff;fill-opacity:1;fill-rule:evenodd;stroke:none"
         d="m 1181.07,1096.53 26.54,0.38 v -63.2 l -26.54,0.07 V 904.047 h -61.58 v 129.733 l -27.36,-0.07 v 63.2 l 27.36,-0.38 v 54.22 h 61.58 v -54.22" /><path
         id="path40"
         style="fill:#ffffff;fill-opacity:1;fill-rule:evenodd;stroke:none"
         d="m 514.926,849.652 h 73.738 V 605.68 h -73.738 v 243.972" /><path
         id="path42"
         style="fill:#ffffff;fill-opacity:1;fill-rule:evenodd;stroke:none"
         d="m 1546.46,677.348 c 0,-13.91 2.27,-29.442 19.74,-29.442 8.74,0 22.6,6.153 24.22,14.246 h 73.79 c -10.99,-41.406 -57.25,-60.507 -96.71,-60.507 -54.03,0 -103.52,27.824 -103.52,87.027 0,56.937 44,92.516 98.67,92.516 61.14,0 109.34,-39.461 105.13,-103.84 h -121.32" /><path
         id="path44"
         style="fill:#231f20;fill-opacity:1;fill-rule:evenodd;stroke:none"
         d="m 1585.61,713.105 c 0,11.629 -8.41,22.309 -20.37,22.309 -12.63,0 -18.78,-10.359 -18.78,-22.309 h 39.15" /><path
         id="path46"
         style="fill:#ffffff;fill-opacity:1;fill-rule:evenodd;stroke:none"
         d="m 927.289,751.168 5.977,-0.461 c 16.172,18.762 28.457,31.391 55.312,31.391 42.692,0 59.532,-32.032 59.532,-69.871 V 606.441 h -74.012 v 83.778 c 0,10.023 -9.45,24.269 -23.68,24.269 -13.926,0 -21.184,-14.246 -21.184,-24.269 v -83.778 h -76.199 v 171.766 h 74.254 v -27.039" /><path
         id="path48"
         style="fill:#ffffff;fill-opacity:1;fill-rule:evenodd;stroke:none"
         d="m 842.887,926.305 h -1.926 C 825.75,910.113 812.16,899.77 788.551,899.77 c -46.582,0 -72.453,47.222 -72.453,88.968 0,43.332 26.191,90.552 74.715,90.552 20.707,0 37.839,-7.43 50.148,-24.25 h 1.926 l 0.25,20.78 70.992,-0.39 V 903.66 h -70.992 l -0.25,22.645" /><path
         id="path50"
         style="fill:#231f20;fill-opacity:1;fill-rule:evenodd;stroke:none"
         d="m 820.301,960.371 c 19.172,0 27.019,15.262 27.019,31.328 0,16.031 -10.968,27.791 -27.019,27.791 -16.047,0 -26.231,-13.33 -26.231,-28.576 0,-16.437 7.832,-30.543 26.231,-30.543" /><path
         id="path52"
         style="fill:#ffffff;fill-opacity:1;fill-rule:evenodd;stroke:none"
         d="m 1309.66,980.004 c 0,-13.887 2.27,-29.422 19.75,-29.422 8.72,0 22.57,6.133 24.2,14.231 h 73.81 c -11.01,-41.411 -57.26,-60.489 -96.73,-60.489 -54.01,0 -103.52,27.817 -103.52,87.024 0,56.922 44.01,92.502 98.67,92.502 61.15,0 109.34,-39.47 105.12,-103.846 h -121.3" /><path
         id="path54"
         style="fill:#231f20;fill-opacity:1;fill-rule:evenodd;stroke:none"
         d="m 1348.81,1015.77 c 0,11.64 -8.42,22.3 -20.38,22.3 -12.61,0 -18.76,-10.34 -18.76,-22.3 h 39.14" /><path
         id="path56"
         style="fill:#231f20;fill-opacity:1;fill-rule:evenodd;stroke:none"
         d="m 362.926,756.547 c 12.929,0 27.484,1.285 27.484,18.117 0,18.102 -16.496,16.816 -29.426,16.816 h -6.148 v -34.933 h 8.09" /><path
         id="path58"
         style="fill:#231f20;fill-opacity:1;fill-rule:evenodd;stroke:none"
         d="m 354.859,664.223 h 10.02 c 14.57,0 35.598,0.32 35.598,20.382 0,20.383 -22.649,20.063 -36.879,20.063 h -8.739 v -40.445" /><path
         id="path60"
         style="fill:#ffffff;fill-opacity:1;fill-rule:evenodd;stroke:none"
         d="m 1674.71,620.238 c 0,14.918 12.13,27.051 27.19,27.051 14.97,0 27.05,-12.133 27.05,-27.051 0,-15.043 -12.08,-27.195 -27.05,-27.195 -15.06,0 -27.19,12.152 -27.19,27.195" /><path
         id="path62"
         style="fill:#231f20;fill-opacity:1;fill-rule:evenodd;stroke:none"
         d="m 1725.67,620.238 c 0,13.141 -10.65,23.789 -23.77,23.789 -13.22,0 -23.86,-10.648 -23.86,-23.789 0,-13.285 10.64,-23.933 23.86,-23.933 13.12,0 23.77,10.648 23.77,23.933" /><path
         id="path64"
         style="fill:#ffffff;fill-opacity:1;fill-rule:evenodd;stroke:none"
         d="m 1715.4,605.039 h -4.41 l -8.67,13.992 h -6.81 v -13.992 h -3.69 v 30.328 h 13.21 c 2.56,0 5.11,-0.14 7.39,-1.5 2.26,-1.273 3.4,-3.976 3.4,-6.515 0,-5.985 -4.19,-8.176 -9.59,-8.321 l 9.17,-13.992" /><path
         id="path66"
         style="fill:#231f20;fill-opacity:1;fill-rule:evenodd;stroke:none"
         d="m 1701.19,621.98 c 4.26,0 10.86,-0.714 10.86,5.473 0,4.688 -4.11,5.246 -7.87,5.246 h -8.67 V 621.98 h 5.68" /><path
         id="path68"
         style="fill:#ffffff;fill-opacity:1;fill-rule:evenodd;stroke:none"
         d="m 814.438,1368.52 c 52.531,67.4 101.031,83.99 126.339,93.39 29.621,11 66.033,3.35 76.663,-10.69 6.17,4.49 13.22,8.39 21.14,11.44 20.2,7.77 45.14,8.27 52.28,7.52 16.55,1.51 41.76,-9.78 47.02,-13.54 14.67,7.52 27.84,6.77 37.62,6.77 3.76,0 5.27,-4.13 0,-4.13 -7.9,0.75 -9.41,0 -15.43,-0.76 -18.42,-4.14 -10.15,-13.16 -7.14,-17.68 7.52,-9.78 15.8,-18.8 10.53,-48.9 -3.91,-22.34 -29.34,-36.11 -33.85,-39.12 -4.52,-3.01 -6.02,-8.27 -0.75,-12.03 7.52,-8.28 33.1,-27.84 28.59,-68.47 -4.52,-40.62 -49.66,-62.44 -88.78,-63.19 -39.12,-0.76 -50.03,44.01 -44.01,64.32 1.88,3.39 -0.37,4.89 -2.63,1.51 -7.15,-10.91 -47.401,-48.53 -77.491,-61.32 -27.445,-7.94 -45.047,1.06 -53.414,21.07 -8.656,-9.41 -53.043,-37.62 -79.75,-20.32 -64.695,50.41 -9.777,136.93 -3.762,145.95 1.047,1.41 1.996,2.95 3.035,4.33 -15.031,5.46 -27.64,13.34 -34.632,20.13 -44.762,51.15 2.066,79.93 19.562,81.62 25.578,2.26 56.047,-10.9 59.055,-13.54 3.008,-2.63 1.883,-4.52 -0.75,-2.26 -15.422,10.16 -44.762,13.92 -58.305,11.29 -7.93,-1.59 -21.414,-8.96 -28.211,-28.21 -11.219,-35.67 20.676,-56.16 47.071,-65.18" /><path
         id="path70"
         style="fill:#231f20;fill-opacity:1;fill-rule:evenodd;stroke:none"
         d="m 946.285,1395.87 c -0.758,4.57 -0.543,10.26 0.813,16.35 2.254,10.16 8.273,9.41 10.91,7.9 1.805,-1.03 9.851,-5.41 -11.723,-24.25" /><path
         id="path72"
         style="fill:#231f20;fill-opacity:1;fill-rule:evenodd;stroke:none"
         d="m 1061.36,1345.18 c 11.8,-2.66 38.51,-5.02 53.04,-0.18 10.15,-7.9 33.85,-34.61 14.29,-78.62 -20.91,-47.06 -47.39,-53.42 -59.06,-53.42 -11.66,0 -37.61,7.15 -34.22,31.22 3.38,24.08 22.56,57.68 40.24,61.07 25.58,5.64 31.6,-14.68 25.96,-30.47 -5.13,-14.35 -12.42,-22.19 -16.55,-27.84 -2.26,-3.39 0.37,-7.9 3.38,-4.89 6.02,4.89 15.05,15.8 20.31,33.11 7.63,25.06 -6.02,38.36 -22.19,38.36 -1.29,0 -26.33,0.63 -44.76,-15.54 -2.26,-1.89 -4.51,-0.75 -2.63,3 6.08,11.73 12.18,29.31 15.96,40.45 0.78,3.19 3.03,4.31 6.23,3.75" /><path
         id="path74"
         style="fill:#231f20;fill-opacity:1;fill-rule:evenodd;stroke:none"
         d="m 1069.37,1372.7 c 5.92,14.8 35.36,58.68 52.66,69.21 17.3,10.54 19.56,3.76 24.08,-6.02 5.92,-12.83 -0.76,-34.6 -4.52,-43.63 -3.76,-9.03 -11.28,-28.03 -27.83,-33.29 -13.55,3.76 -30.85,3.19 -40.63,2.44 -6.02,-0.75 -6.77,3.77 -3.76,11.29" /><path
         id="path76"
         style="fill:#231f20;fill-opacity:1;fill-rule:evenodd;stroke:none"
         d="m 936.754,1322.57 c -1.832,-9.76 -5.918,-21.52 -9.781,-30.96 -5.754,-14.07 -20.801,-34.9 -32.348,-46.9 -1.215,16.59 4.684,37.23 9.777,46.14 4.676,8.19 17.903,24.9 32.352,31.72" /><path
         id="path78"
         style="fill:#231f20;fill-opacity:1;fill-rule:evenodd;stroke:none"
         d="m 1014.27,1444.06 c 2.97,-7.44 2.23,-17.84 -4.11,-35.94 -3.82,-10.91 -9.44,-17.38 -15.242,-22.14 -3.172,4.37 -5.145,10.67 -4.691,18.38 0.664,11.34 8.238,25.43 24.043,39.7" /><path
         id="path80"
         style="fill:#231f20;fill-opacity:1;fill-rule:evenodd;stroke:none"
         d="m 942.645,1325.12 c -0.981,-6.6 -3.438,-15.29 -8.278,-26.83 -15.547,-37.11 -29.23,-50.43 -38.551,-59.11 1.582,-7.33 5.137,-13.49 11.094,-17.26 22.57,-14.29 43.633,-2.26 60.938,22.57 17.3,24.83 52.122,92.14 65.452,114.35 31.26,52.11 76.19,85.95 91.03,94.04 -4.51,9.03 -25.58,13.55 -33.11,13.55 -16.55,0.75 -51.24,-2.28 -71.55,-18.46 4.4,-9.24 0.08,-25.18 -3.67,-35.71 -4.68,-13.07 -11.45,-22.69 -19.02,-29.35 2.821,-2.69 6.26,-4.12 9.61,-4.12 13.16,0 30.47,14.29 38.75,28.96 1.87,3 5.26,1.5 2.62,-2.64 -2.62,-4.14 -23.7,-36.21 -48.894,-29.34 -2.511,0.69 -4.898,1.98 -6.625,3.32 -12.14,-8.23 -26.25,-10.05 -35.878,-6.7 -7.004,2.43 -11.614,6.92 -13.907,12.27 -25.027,-18.67 -64.582,-25 -91.418,-26.57 -2.258,-0.13 -4.172,0.11 -6.429,0.16 -53.887,-72.51 -40.282,-124.94 -26.676,-137.83 21.066,-17.31 59.437,10.53 67.711,16.55 1.015,0.67 1.984,1.62 3.254,2.72 -6.032,21.13 5.242,44.39 10.285,55.2 8.793,17.83 26.472,30.61 38.148,33.59 0.52,6.39 -0.433,11.64 -3.918,14.57 -9.402,7.9 -35.097,5.58 -54.543,-22.19 -4.89,-6.4 -17.3,-26.72 -21.445,-45.52 -0.371,-6.39 -3.375,-3.4 -3.375,3.76 0,11.66 3.438,27.53 16.922,44.38 15.047,18.81 49.652,39.88 65.449,23.7 1.914,-2.14 7.09,-5.19 6.418,-17.38 10.5,1.09 18.82,-2.43 22.551,-4.81 21.062,-14.29 -1.617,-48.81 -5.266,-53.42 -7.148,-9.02 -13.172,-12.78 -3.761,1.89 3.761,6.77 24.074,32.72 5.265,47.77 0,0 -3.332,4.18 -19.183,3.89" /><path
         id="path82"
         style="fill:#231f20;fill-opacity:1;fill-rule:evenodd;stroke:none"
         d="m 941.039,1391.59 c -0.926,-0.75 -1.894,-1.51 -2.898,-2.3 -20.688,-16.1 -60.227,-26.29 -89.336,-26.2 1.492,2.2 2.261,4.14 4.515,6.64 17.305,25.58 82.754,101.57 134.664,91.04 11.387,-2.94 19.986,-6 24.406,-12.99 -13.812,-11.63 -22.32,-26.23 -25.156,-39.68 -1.199,-5.64 -3.359,-18.31 2.668,-26.17 -13.011,-7.55 -26.898,-5.01 -31.257,-3.92 -3.286,0.82 -7.75,4.92 -10.446,11.72 2.821,2.6 5.379,5.39 7.621,8.41 13.164,17.67 8.649,27.83 2.075,29.15 -4.895,0.75 -10.352,-0.57 -14.864,-15.61 -1.957,-6.54 -2.961,-13.61 -2.051,-20 l 0.059,-0.09" /></g></g></svg>