<svg xmlns="http://www.w3.org/2000/svg" viewBox="0 0 40 26"><clipPath id="a"><path d="M-8 5.86h51v14.28H-8z"/></clipPath><clipPath id="b"><path d="M22.87 8.69c-1.43.8-2.88 1.9-4.63 2.98-.6.38-1.24.76-1.93 1.12a23.6 23.6 0 01-6.5 2.3v.19c8.3-.47 12.83-4.72 16.48-6.38a14.23 14.23 0 018.59-1.28v-.15a16.29 16.29 0 00-4.6-.62 15.22 15.22 0 00-7.4 1.84"/></clipPath><linearGradient id="c" x1="10.01" x2="34.74" y1="10.8" y2="10.8" gradientUnits="userSpaceOnUse"><stop offset="0" stop-color="#7bc143"/><stop offset="1" stop-color="#00a94f"/></linearGradient><path fill="#fff" d="M0 0h40v26H0z"/><g clip-path="url(#a)"><path fill="#002e1a" d="M16.86 14.33l.43 1.22.62 1.75h2.52l-1.5-3.84c-.65.3-1.34.6-2.07.87"/></g><g clip-path="url(#b)"><path fill="url(#c)" d="M9.81 6.85h25.07v8.43H9.81z"/></g><g fill="#002e1a" clip-path="url(#a)"><path d="M1.8 8.11h2.3v5.39c0 1.51.62 2.04 1.66 2.04a8.77 8.77 0 001.45-.13v-7.3h2.3v8.87a16.24 16.24 0 01-3.75.48c-2.1 0-3.96-.84-3.96-3.45zm30.84 9.19h-2.3V8.2a21.19 21.19 0 013-.24c2.27 0 3.9 1.05 3.9 3.39 0 2.4-1.85 3.3-3.78 3.3-.28 0-.63-.02-.82-.04zm0-4.65c.1.01.43.03.7.03.94 0 1.57-.39 1.57-1.33 0-.98-.74-1.33-1.57-1.33a5.4 5.4 0 00-.7.04zm-14.4-.98c-.6.38-1.24.76-1.93 1.12l-.84-2.37-2.52 6.88h-2.43l3.57-9.19h2.77zm7.38 5.63h-2.3v-7.16h-2.75V8.11h7.8v2.03h-2.75zm10.2-9.82a.61.61 0 11.61.6.6.6 0 01-.61-.6m.61.5a.5.5 0 10-.5-.5.49.49 0 00.5.5m-.13-.15h-.1v-.7h.26c.17 0 .25.06.25.2a.18.18 0 01-.18.2l.2.3h-.12l-.18-.3h-.13zm.13-.39c.09 0 .17 0 .17-.11 0-.1-.08-.1-.15-.1h-.15v.21z"/></g></svg>