<svg xmlns="http://www.w3.org/2000/svg" width="40" height="26" viewBox="0 0 40 26"><path fill="#293381" d="M0 0h40v26H0z"/><path fill="#FFF" fill-rule="evenodd" d="M36.52 19.1h-2.57c-.1-.41-.2-.8-.26-1.2a.46.46 0 00-.16-.37.43.43 0 00-.36-.1c-.96.03-1.91 0-2.87.03a.76.76 0 00-.5.4c-.19.4-.34.82-.48 1.24h-2.91c.08-.22.14-.42.22-.6l3.89-9.52A1.5 1.5 0 0132.1 7.9c.7.03 1.4 0 2.14 0l2.28 11.2M1.4 7.99c.16-.04.33-.07.49-.09h4.19c.36-.05.73.05 1.02.3.29.23.46.59.49.97l1.09 5.88.09.4.26-.54c.84-2.16 1.68-4.32 2.5-6.48.14-.38.3-.56.73-.54.78.04 1.56.01 2.44.01l-1.25 3.08c-1.04 2.54-2.1 5.08-3.12 7.63a.7.7 0 01-.8.52c-.78-.03-1.56 0-2.4 0l-.96-3.74c-.43-1.68-.87-3.36-1.26-5.05a1.74 1.74 0 00-1.17-1.38c-.77-.28-1.55-.53-2.32-.8L1.4 8zm25.59.25l-.46 2.2c-.63-.17-1.26-.3-1.91-.38a3.64 3.64 0 00-1.56.22c-.7.28-.74.95-.14 1.41.36.26.74.49 1.13.7l.84.49a3.18 3.18 0 011.59 2.77c0 1.16-.6 2.23-1.59 2.78a6.81 6.81 0 01-4.6.77 7.81 7.81 0 01-1.5-.36.59.59 0 01-.3-.47c.1-.68.27-1.34.4-1.95.87.19 1.71.42 2.57.53a3 3 0 001.39-.2.88.88 0 00.68-.77.9.9 0 00-.46-.92c-.29-.2-.58-.38-.89-.54-.49-.26-.96-.56-1.42-.88a2.94 2.94 0 01-.33-4.46 4.49 4.49 0 012.45-1.32 6.97 6.97 0 014.11.38M16.43 19.1H13.6l2.34-11.16h2.81L16.43 19.1m15.87-7.96l.82 4h-2.38l1.43-4.03.14.03z"/></svg>